<?xml version="1.0" encoding="UTF-8" standalone="no"?>
<!DOCTYPE svg PUBLIC "-//W3C//DTD SVG 1.1//EN"
 "http://www.w3.org/Graphics/SVG/1.1/DTD/svg11.dtd">
<!-- Generated by graphviz version 12.2.1 (0)
 -->
<!-- Title: deps Pages: 1 -->
<svg width="1179pt" height="1748pt"
 viewBox="0.00 0.00 1179.00 1747.68" xmlns="http://www.w3.org/2000/svg" xmlns:xlink="http://www.w3.org/1999/xlink">
<g id="graph0" class="graph" transform="scale(1 1) rotate(0) translate(4 1743.68)">
<title>deps</title>
<polygon fill="white" stroke="none" points="-4,4 -4,-1743.68 1175,-1743.68 1175,4 -4,4"/>
<!-- covalence -->
<g id="node1" class="node">
<title>covalence</title>
<polygon fill="none" stroke="black" points="102.62,-694 18.38,-694 18.38,-658 102.62,-658 102.62,-694"/>
<text text-anchor="middle" x="60.5" y="-671.7" font-family="sans-serif" font-size="14.00">covalence</text>
</g>
<!-- client -->
<g id="node4" class="node">
<title>client</title>
<polygon fill="none" stroke="black" points="319.5,-740 265.5,-740 265.5,-704 319.5,-704 319.5,-740"/>
<text text-anchor="middle" x="292.5" y="-717.7" font-family="sans-serif" font-size="14.00">client</text>
</g>
<!-- covalence&#45;&gt;client -->
<g id="edge1" class="edge">
<title>covalence&#45;&gt;client</title>
<path fill="none" stroke="black" d="M102.97,-681.44C133.1,-685.68 174.77,-692.17 211,-700 225.27,-703.09 240.78,-707.15 254.34,-710.95"/>
<polygon fill="black" stroke="black" points="253.18,-714.25 263.75,-713.63 255.1,-707.52 253.18,-714.25"/>
</g>
<!-- fuse -->
<g id="node9" class="node">
<title>fuse</title>
<polygon fill="none" stroke="black" points="576.12,-1179 522.12,-1179 522.12,-1143 576.12,-1143 576.12,-1179"/>
<text text-anchor="middle" x="549.12" y="-1156.7" font-family="sans-serif" font-size="14.00">fuse</text>
</g>
<!-- covalence&#45;&gt;fuse -->
<g id="edge2" class="edge">
<title>covalence&#45;&gt;fuse</title>
<path fill="none" stroke="black" d="M61.21,-694.15C61.33,-749.73 69.21,-919.63 157,-1015 182.18,-1042.35 418.27,-1119.66 511,-1149.26"/>
<polygon fill="black" stroke="black" points="509.79,-1152.55 520.38,-1152.25 511.92,-1145.88 509.79,-1152.55"/>
</g>
<!-- git -->
<g id="node10" class="node">
<title>git</title>
<polygon fill="none" stroke="black" points="446.88,-1384 392.88,-1384 392.88,-1348 446.88,-1348 446.88,-1384"/>
<text text-anchor="middle" x="419.88" y="-1361.7" font-family="sans-serif" font-size="14.00">git</text>
</g>
<!-- covalence&#45;&gt;git -->
<g id="edge3" class="edge">
<title>covalence&#45;&gt;git</title>
<path fill="none" stroke="black" d="M62.58,-694.3C68.01,-781.09 94.52,-1150.92 157,-1245 208.3,-1322.25 322.39,-1351.05 381.6,-1361.08"/>
<polygon fill="black" stroke="black" points="380.75,-1364.49 391.18,-1362.6 381.85,-1357.57 380.75,-1364.49"/>
</g>
<!-- hash -->
<g id="node13" class="node">
<title>hash</title>
<polygon fill="none" stroke="black" points="866.88,-1095 812.88,-1095 812.88,-1059 866.88,-1059 866.88,-1095"/>
<text text-anchor="middle" x="839.88" y="-1072.7" font-family="sans-serif" font-size="14.00">hash</text>
</g>
<!-- covalence&#45;&gt;hash -->
<g id="edge4" class="edge">
<title>covalence&#45;&gt;hash</title>
<path fill="none" stroke="black" d="M91.02,-657.57C160.05,-617.03 335.99,-528.56 465.75,-592 550.75,-633.56 551.73,-676.65 596.5,-760 620.24,-804.2 595.5,-833.11 632.5,-867 678.61,-909.23 722.1,-858.94 769.25,-900 792.17,-919.96 818.12,-1002.71 830.9,-1047.65"/>
<polygon fill="black" stroke="black" points="827.52,-1048.57 833.59,-1057.26 834.26,-1046.68 827.52,-1048.57"/>
</g>
<!-- hol -->
<g id="node14" class="node">
<title>hol</title>
<polygon fill="none" stroke="black" points="866.88,-174 812.88,-174 812.88,-138 866.88,-138 866.88,-174"/>
<text text-anchor="middle" x="839.88" y="-151.7" font-family="sans-serif" font-size="14.00">hol</text>
</g>
<!-- covalence&#45;&gt;hol -->
<g id="edge5" class="edge">
<title>covalence&#45;&gt;hol</title>
<path fill="none" stroke="black" d="M62.58,-657.69C67.71,-577.2 92.01,-255.58 157,-183 325.26,4.92 685.29,-101.06 801.72,-142.07"/>
<polygon fill="black" stroke="black" points="800.51,-145.35 811.1,-145.42 802.87,-138.76 800.51,-145.35"/>
</g>
<!-- lsp -->
<g id="node21" class="node">
<title>lsp</title>
<polygon fill="none" stroke="black" points="727.88,-514 673.88,-514 673.88,-478 727.88,-478 727.88,-514"/>
<text text-anchor="middle" x="700.88" y="-491.7" font-family="sans-serif" font-size="14.00">lsp</text>
</g>
<!-- covalence&#45;&gt;lsp -->
<g id="edge6" class="edge">
<title>covalence&#45;&gt;lsp</title>
<path fill="none" stroke="black" d="M63.65,-657.64C69.63,-615.89 90.68,-514.18 157,-472 240.81,-418.69 554.06,-469.32 662.58,-488.97"/>
<polygon fill="black" stroke="black" points="661.65,-492.35 672.12,-490.71 662.91,-485.47 661.65,-492.35"/>
</g>
<!-- object -->
<g id="node23" class="node">
<title>object</title>
<polygon fill="none" stroke="black" points="729.5,-1217 672.25,-1217 672.25,-1181 729.5,-1181 729.5,-1217"/>
<text text-anchor="middle" x="700.88" y="-1194.7" font-family="sans-serif" font-size="14.00">object</text>
</g>
<!-- covalence&#45;&gt;object -->
<g id="edge7" class="edge">
<title>covalence&#45;&gt;object</title>
<path fill="none" stroke="black" d="M69.55,-694.18C91.55,-742.11 157.15,-873.64 247,-952 378.99,-1067.11 444.58,-1046.87 596.5,-1134 618.84,-1146.81 643.26,-1162.1 662.75,-1174.63"/>
<polygon fill="black" stroke="black" points="660.6,-1177.41 670.9,-1179.9 664.4,-1171.53 660.6,-1177.41"/>
</g>
<!-- opentheory -->
<g id="node24" class="node">
<title>opentheory</title>
<polygon fill="none" stroke="black" points="338,-200 247,-200 247,-164 338,-164 338,-200"/>
<text text-anchor="middle" x="292.5" y="-177.7" font-family="sans-serif" font-size="14.00">opentheory</text>
</g>
<!-- covalence&#45;&gt;opentheory -->
<g id="edge8" class="edge">
<title>covalence&#45;&gt;opentheory</title>
<path fill="none" stroke="black" d="M62.72,-657.7C68.25,-580.11 93.53,-279.38 157,-214 177.19,-193.2 208.25,-184.91 235.45,-181.94"/>
<polygon fill="black" stroke="black" points="235.64,-185.44 245.31,-181.11 235.05,-178.46 235.64,-185.44"/>
</g>
<!-- proto -->
<g id="node27" class="node">
<title>proto</title>
<polygon fill="none" stroke="black" points="319.5,-1293 265.5,-1293 265.5,-1257 319.5,-1257 319.5,-1293"/>
<text text-anchor="middle" x="292.5" y="-1270.7" font-family="sans-serif" font-size="14.00">proto</text>
</g>
<!-- covalence&#45;&gt;proto -->
<g id="edge9" class="edge">
<title>covalence&#45;&gt;proto</title>
<path fill="none" stroke="black" d="M62.44,-694.41C66.24,-757.31 84.03,-968.34 157,-1123 173.47,-1157.9 188,-1160.01 211,-1191 227.75,-1213.57 227.3,-1222.95 247,-1243 249.9,-1245.96 253.11,-1248.83 256.43,-1251.57"/>
<polygon fill="black" stroke="black" points="254.1,-1254.2 264.15,-1257.54 258.38,-1248.66 254.1,-1254.2"/>
</g>
<!-- repl -->
<g id="node31" class="node">
<title>repl</title>
<polygon fill="none" stroke="black" points="319.5,-943 265.5,-943 265.5,-907 319.5,-907 319.5,-943"/>
<text text-anchor="middle" x="292.5" y="-920.7" font-family="sans-serif" font-size="14.00">repl</text>
</g>
<!-- covalence&#45;&gt;repl -->
<g id="edge10" class="edge">
<title>covalence&#45;&gt;repl</title>
<path fill="none" stroke="black" d="M78.41,-694.31C118.62,-737.84 220.06,-847.66 266.99,-898.46"/>
<polygon fill="black" stroke="black" points="264.18,-900.58 273.54,-905.55 269.32,-895.83 264.18,-900.58"/>
</g>
<!-- serve -->
<g id="node33" class="node">
<title>serve</title>
<polygon fill="none" stroke="black" points="211,-1114 157,-1114 157,-1078 211,-1078 211,-1114"/>
<text text-anchor="middle" x="184" y="-1091.7" font-family="sans-serif" font-size="14.00">serve</text>
</g>
<!-- covalence&#45;&gt;serve -->
<g id="edge11" class="edge">
<title>covalence&#45;&gt;serve</title>
<path fill="none" stroke="black" d="M64.16,-694.27C72.67,-749.87 101.92,-921.25 157,-1053 159.12,-1058.07 161.77,-1063.24 164.56,-1068.16"/>
<polygon fill="black" stroke="black" points="161.42,-1069.74 169.57,-1076.5 167.42,-1066.13 161.42,-1069.74"/>
</g>
<!-- shell -->
<g id="node35" class="node">
<title>shell</title>
<polygon fill="none" stroke="black" points="446.88,-637 392.88,-637 392.88,-601 446.88,-601 446.88,-637"/>
<text text-anchor="middle" x="419.88" y="-614.7" font-family="sans-serif" font-size="14.00">shell</text>
</g>
<!-- covalence&#45;&gt;shell -->
<g id="edge12" class="edge">
<title>covalence&#45;&gt;shell</title>
<path fill="none" stroke="black" d="M102.85,-661.26C140.03,-648.78 196.41,-631.71 247,-624 292.87,-617.01 346.4,-616.67 381.38,-617.47"/>
<polygon fill="black" stroke="black" points="380.88,-620.96 390.98,-617.74 381.08,-613.96 380.88,-620.96"/>
</g>
<!-- store -->
<g id="node40" class="node">
<title>store</title>
<polygon fill="none" stroke="black" points="727.88,-1453 673.88,-1453 673.88,-1417 727.88,-1417 727.88,-1453"/>
<text text-anchor="middle" x="700.88" y="-1430.7" font-family="sans-serif" font-size="14.00">store</text>
</g>
<!-- covalence&#45;&gt;store -->
<g id="edge13" class="edge">
<title>covalence&#45;&gt;store</title>
<path fill="none" stroke="black" d="M62.51,-694.24C67.74,-784.23 94.07,-1180.64 157,-1284 246.36,-1430.77 330.92,-1440.5 501.75,-1459 543.62,-1463.53 554.66,-1463.79 596.5,-1459 618.69,-1456.46 643.04,-1450.94 662.53,-1445.84"/>
<polygon fill="black" stroke="black" points="663.19,-1449.29 671.93,-1443.3 661.37,-1442.53 663.19,-1449.29"/>
</g>
<!-- wasm -->
<g id="node42" class="node">
<title>wasm</title>
<polygon fill="none" stroke="black" points="867,-376 812.75,-376 812.75,-340 867,-340 867,-376"/>
<text text-anchor="middle" x="839.88" y="-353.7" font-family="sans-serif" font-size="14.00">wasm</text>
</g>
<!-- covalence&#45;&gt;wasm -->
<g id="edge14" class="edge">
<title>covalence&#45;&gt;wasm</title>
<path fill="none" stroke="black" d="M62.16,-657.6C66.25,-573.3 95,-228 291.5,-228 291.5,-228 291.5,-228 550.12,-228 650.75,-228 682.52,-233.97 769.25,-285 788.94,-296.58 806.63,-315.31 819.26,-330.89"/>
<polygon fill="black" stroke="black" points="816.24,-332.71 825.15,-338.43 821.75,-328.4 816.24,-332.71"/>
</g>
<!-- alethe -->
<g id="node2" class="node">
<title>alethe</title>
<polygon fill="none" stroke="black" points="448.12,-431 391.62,-431 391.62,-395 448.12,-395 448.12,-431"/>
<text text-anchor="middle" x="419.88" y="-408.7" font-family="sans-serif" font-size="14.00">alethe</text>
</g>
<!-- core -->
<g id="node5" class="node">
<title>core</title>
<polygon fill="#ffd6d6" stroke="black" points="977.75,-353 923.75,-353 923.75,-317 977.75,-317 977.75,-353"/>
<text text-anchor="middle" x="950.75" y="-330.7" font-family="sans-serif" font-size="14.00">core</text>
</g>
<!-- alethe&#45;&gt;core -->
<g id="edge15" class="edge">
<title>alethe&#45;&gt;core</title>
<path fill="none" stroke="black" d="M442.14,-394.58C478.3,-364.62 555.36,-306.51 632.5,-285 731.85,-257.29 853.27,-295.73 912.99,-319.2"/>
<polygon fill="black" stroke="black" points="911.42,-322.33 922,-322.82 914.03,-315.84 911.42,-322.33"/>
</g>
<!-- init -->
<g id="node15" class="node">
<title>init</title>
<polygon fill="none" stroke="black" points="727.88,-766 673.88,-766 673.88,-730 727.88,-730 727.88,-766"/>
<text text-anchor="middle" x="700.88" y="-743.7" font-family="sans-serif" font-size="14.00">init</text>
</g>
<!-- alethe&#45;&gt;init -->
<g id="edge16" class="edge">
<title>alethe&#45;&gt;init</title>
<path fill="none" stroke="black" d="M443.09,-431.27C479.43,-462.13 551.95,-527.99 596.5,-597 619.64,-632.85 608.21,-650.92 632.5,-686 641.73,-699.33 654.3,-711.88 666.09,-722.16"/>
<polygon fill="black" stroke="black" points="663.81,-724.82 673.72,-728.57 668.31,-719.46 663.81,-724.82"/>
</g>
<!-- sexp -->
<g id="node34" class="node">
<title>sexp</title>
<polygon fill="#ffd6d6" stroke="black" points="1081,-896 1027,-896 1027,-860 1081,-860 1081,-896"/>
<text text-anchor="middle" x="1054" y="-873.7" font-family="sans-serif" font-size="14.00">sexp</text>
</g>
<!-- alethe&#45;&gt;sexp -->
<g id="edge17" class="edge">
<title>alethe&#45;&gt;sexp</title>
<path fill="none" stroke="black" d="M448.61,-422.44C495.53,-438.65 586.49,-471.16 596.5,-483 645.52,-540.98 582.99,-592.43 632.5,-650 688.06,-714.6 924.22,-733.08 991,-786 1012.37,-802.94 1029.06,-829.27 1039.72,-849.43"/>
<polygon fill="black" stroke="black" points="1036.55,-850.92 1044.19,-858.27 1042.79,-847.76 1036.55,-850.92"/>
</g>
<!-- smt -->
<g id="node37" class="node">
<title>smt</title>
<polygon fill="none" stroke="black" points="576.12,-431 522.12,-431 522.12,-395 576.12,-395 576.12,-431"/>
<text text-anchor="middle" x="549.12" y="-408.7" font-family="sans-serif" font-size="14.00">smt</text>
</g>
<!-- alethe&#45;&gt;smt -->
<g id="edge18" class="edge">
<title>alethe&#45;&gt;smt</title>
<path fill="none" stroke="black" d="M448.49,-413C466.61,-413 490.55,-413 510.42,-413"/>
<polygon fill="black" stroke="black" points="510.36,-416.5 520.36,-413 510.36,-409.5 510.36,-416.5"/>
</g>
<!-- types -->
<g id="node41" class="node">
<title>types</title>
<polygon fill="#ffd6d6" stroke="black" points="1171,-399 1117,-399 1117,-363 1171,-363 1171,-399"/>
<text text-anchor="middle" x="1144" y="-376.7" font-family="sans-serif" font-size="14.00">types</text>
</g>
<!-- alethe&#45;&gt;types -->
<g id="edge19" class="edge">
<title>alethe&#45;&gt;types</title>
<path fill="none" stroke="black" d="M428.35,-394.72C462.38,-314.79 610.87,0 838.88,0 838.88,0 838.88,0 951.75,0 1108.67,0 1136.85,-261.35 1141.9,-351.14"/>
<polygon fill="black" stroke="black" points="1138.4,-351.3 1142.4,-361.11 1145.4,-350.95 1138.4,-351.3"/>
</g>
<!-- arrow -->
<g id="node3" class="node">
<title>arrow</title>
<polygon fill="none" stroke="black" points="576.12,-927 522.12,-927 522.12,-891 576.12,-891 576.12,-927"/>
<text text-anchor="middle" x="549.12" y="-904.7" font-family="sans-serif" font-size="14.00">arrow</text>
</g>
<!-- client&#45;&gt;hash -->
<g id="edge20" class="edge">
<title>client&#45;&gt;hash</title>
<path fill="none" stroke="black" d="M319.69,-723.5C376.91,-728.1 514.54,-746.6 596.5,-820 625.54,-846.01 602.92,-874.6 632.5,-900 680.36,-941.09 720.55,-897.91 769.25,-938 803.77,-966.42 822.77,-1016.26 831.88,-1047.9"/>
<polygon fill="black" stroke="black" points="828.41,-1048.47 834.4,-1057.2 835.16,-1046.63 828.41,-1048.47"/>
</g>
<!-- client&#45;&gt;shell -->
<g id="edge21" class="edge">
<title>client&#45;&gt;shell</title>
<path fill="none" stroke="black" d="M319.6,-704.58C325.82,-700.06 332.3,-695.04 338,-690 355.67,-674.37 356.3,-666.6 374,-651 376.96,-648.39 380.13,-645.79 383.37,-643.27"/>
<polygon fill="black" stroke="black" points="385.43,-646.1 391.34,-637.31 381.23,-640.49 385.43,-646.1"/>
</g>
<!-- client&#45;&gt;store -->
<g id="edge22" class="edge">
<title>client&#45;&gt;store</title>
<path fill="none" stroke="black" d="M301.42,-740.32C315.76,-773.44 347.05,-845.48 374,-906 429.97,-1031.7 429.75,-1070.75 501.75,-1188 554.9,-1274.56 634.54,-1364.84 674.74,-1408.38"/>
<polygon fill="black" stroke="black" points="672.07,-1410.64 681.44,-1415.59 677.19,-1405.88 672.07,-1410.64"/>
</g>
<!-- pure -->
<g id="node28" class="node">
<title>pure</title>
<polygon fill="#ffd6d6" stroke="black" points="1081,-376 1027,-376 1027,-340 1081,-340 1081,-376"/>
<text text-anchor="middle" x="1054" y="-353.7" font-family="sans-serif" font-size="14.00">pure</text>
</g>
<!-- core&#45;&gt;pure -->
<g id="edge23" class="edge">
<title>core&#45;&gt;pure</title>
<path fill="none" stroke="black" d="M978.09,-340.98C989.57,-343.59 1003.24,-346.7 1015.74,-349.54"/>
<polygon fill="black" stroke="black" points="1014.79,-352.91 1025.32,-351.71 1016.34,-346.08 1014.79,-352.91"/>
</g>
<!-- core&#45;&gt;sexp -->
<g id="edge24" class="edge">
<title>core&#45;&gt;sexp</title>
<path fill="none" stroke="black" d="M955.4,-353.37C962.42,-388.84 978.26,-469.24 991,-537 1012.64,-652.07 1037.21,-789.24 1047.74,-848.42"/>
<polygon fill="black" stroke="black" points="1044.25,-848.78 1049.45,-858.01 1051.15,-847.55 1044.25,-848.78"/>
</g>
<!-- core&#45;&gt;types -->
<g id="edge25" class="edge">
<title>core&#45;&gt;types</title>
<path fill="none" stroke="black" d="M977.86,-328.79C1004.58,-323.65 1046.92,-318.97 1081,-331 1094.96,-335.93 1108.08,-345.47 1118.63,-354.92"/>
<polygon fill="black" stroke="black" points="1116.09,-357.33 1125.75,-361.68 1120.91,-352.25 1116.09,-357.33"/>
</g>
<!-- core&#45;test&#45;guest -->
<g id="node6" class="node">
<title>core&#45;test&#45;guest</title>
<polygon fill="none" stroke="black" points="121,-1450 0,-1450 0,-1414 121,-1414 121,-1450"/>
<text text-anchor="middle" x="60.5" y="-1427.7" font-family="sans-serif" font-size="14.00">core&#45;test&#45;guest</text>
</g>
<!-- egglog -->
<g id="node7" class="node">
<title>egglog</title>
<polygon fill="none" stroke="black" points="981.25,-582 920.25,-582 920.25,-546 981.25,-546 981.25,-582"/>
<text text-anchor="middle" x="950.75" y="-559.7" font-family="sans-serif" font-size="14.00">egglog</text>
</g>
<!-- egglog&#45;&gt;sexp -->
<g id="edge26" class="edge">
<title>egglog&#45;&gt;sexp</title>
<path fill="none" stroke="black" d="M979.09,-582.19C983.63,-586.26 987.87,-590.91 991,-596 1041.08,-677.39 1050.96,-793.96 1052.73,-848.16"/>
<polygon fill="black" stroke="black" points="1049.23,-848.23 1052.98,-858.14 1056.23,-848.05 1049.23,-848.23"/>
</g>
<!-- egglog&#45;&gt;types -->
<g id="edge27" class="edge">
<title>egglog&#45;&gt;types</title>
<path fill="none" stroke="black" d="M981.64,-564.03C1010.32,-562.5 1053.26,-555.94 1081,-532 1117.27,-500.7 1132.68,-444.88 1138.96,-410.58"/>
<polygon fill="black" stroke="black" points="1142.38,-411.36 1140.57,-400.92 1135.47,-410.21 1142.38,-411.36"/>
</g>
<!-- forsp -->
<g id="node8" class="node">
<title>forsp</title>
<polygon fill="none" stroke="black" points="727.88,-858 673.88,-858 673.88,-822 727.88,-822 727.88,-858"/>
<text text-anchor="middle" x="700.88" y="-835.7" font-family="sans-serif" font-size="14.00">forsp</text>
</g>
<!-- forsp&#45;&gt;hash -->
<g id="edge28" class="edge">
<title>forsp&#45;&gt;hash</title>
<path fill="none" stroke="black" d="M728.27,-846.68C742.32,-851.52 758.8,-859.47 769.25,-872 808.74,-919.37 783.97,-948.12 805.25,-1006 810.55,-1020.4 817.68,-1035.86 824.02,-1048.66"/>
<polygon fill="black" stroke="black" points="820.78,-1050.01 828.41,-1057.36 827.02,-1046.85 820.78,-1050.01"/>
</g>
<!-- forsp&#45;&gt;sexp -->
<g id="edge29" class="edge">
<title>forsp&#45;&gt;sexp</title>
<path fill="none" stroke="black" d="M728.25,-848.47C741.62,-853.71 757.47,-861.47 769.25,-872 791.87,-892.22 778.74,-915.25 805.25,-930 877.39,-970.13 913.42,-958.23 991,-930 1005.48,-924.73 1018.93,-914.43 1029.58,-904.38"/>
<polygon fill="black" stroke="black" points="1031.82,-907.09 1036.42,-897.54 1026.87,-902.14 1031.82,-907.09"/>
</g>
<!-- fuse&#45;&gt;hash -->
<g id="edge30" class="edge">
<title>fuse&#45;&gt;hash</title>
<path fill="none" stroke="black" d="M576.52,-1161.27C618.84,-1160.8 703.73,-1156.18 769.25,-1129 784.35,-1122.73 799.15,-1112.45 811.19,-1102.68"/>
<polygon fill="black" stroke="black" points="813.28,-1105.49 818.66,-1096.36 808.76,-1100.15 813.28,-1105.49"/>
</g>
<!-- fuse&#45;&gt;object -->
<g id="edge31" class="edge">
<title>fuse&#45;&gt;object</title>
<path fill="none" stroke="black" d="M576.55,-1167.71C599.99,-1173.65 634.52,-1182.42 661.09,-1189.16"/>
<polygon fill="black" stroke="black" points="659.91,-1192.47 670.47,-1191.54 661.63,-1185.69 659.91,-1192.47"/>
</g>
<!-- fuse&#45;&gt;store -->
<g id="edge32" class="edge">
<title>fuse&#45;&gt;store</title>
<path fill="none" stroke="black" d="M563.13,-1179.34C572.77,-1193.25 586.01,-1212.98 596.5,-1231 631.91,-1291.85 667.87,-1366.28 686.62,-1406.28"/>
<polygon fill="black" stroke="black" points="683.4,-1407.66 690.8,-1415.24 689.74,-1404.7 683.4,-1407.66"/>
</g>
<!-- git&#45;&gt;hash -->
<g id="edge33" class="edge">
<title>git&#45;&gt;hash</title>
<path fill="none" stroke="black" d="M447.29,-1364.08C482.4,-1360.85 545.88,-1352.64 596.5,-1333 680.7,-1300.33 709.25,-1293.5 769.25,-1226 800.68,-1190.65 820.58,-1138.66 830.72,-1106.36"/>
<polygon fill="black" stroke="black" points="834.05,-1107.46 833.58,-1096.87 827.35,-1105.44 834.05,-1107.46"/>
</g>
<!-- git&#45;&gt;object -->
<g id="edge34" class="edge">
<title>git&#45;&gt;object</title>
<path fill="none" stroke="black" d="M447.36,-1359.06C483.08,-1348.95 547.85,-1327.94 596.5,-1297 627.49,-1277.29 657.32,-1247.46 676.9,-1225.89"/>
<polygon fill="black" stroke="black" points="679.34,-1228.41 683.38,-1218.62 674.12,-1223.75 679.34,-1228.41"/>
</g>
<!-- sqlite -->
<g id="node39" class="node">
<title>sqlite</title>
<polygon fill="none" stroke="black" points="866.88,-1591 812.88,-1591 812.88,-1555 866.88,-1555 866.88,-1591"/>
<text text-anchor="middle" x="839.88" y="-1568.7" font-family="sans-serif" font-size="14.00">sqlite</text>
</g>
<!-- git&#45;&gt;sqlite -->
<g id="edge35" class="edge">
<title>git&#45;&gt;sqlite</title>
<path fill="none" stroke="black" d="M447.08,-1374.5C454.1,-1377.96 461.05,-1382.68 465.75,-1389 518.37,-1459.7 434.01,-1527.62 501.75,-1584 546.22,-1621.01 722.91,-1594.33 801.2,-1580.23"/>
<polygon fill="black" stroke="black" points="801.75,-1583.69 810.96,-1578.44 800.49,-1576.8 801.75,-1583.69"/>
</g>
<!-- git&#45;&gt;store -->
<g id="edge36" class="edge">
<title>git&#45;&gt;store</title>
<path fill="none" stroke="black" d="M447.37,-1372.55C497.26,-1384.89 605.23,-1411.59 662.48,-1425.75"/>
<polygon fill="black" stroke="black" points="661.54,-1429.12 672.08,-1428.13 663.22,-1422.33 661.54,-1429.12"/>
</g>
<!-- grammar -->
<g id="node11" class="node">
<title>grammar</title>
<polygon fill="none" stroke="black" points="987.62,-831 913.88,-831 913.88,-795 987.62,-795 987.62,-831"/>
<text text-anchor="middle" x="950.75" y="-808.7" font-family="sans-serif" font-size="14.00">grammar</text>
</g>
<!-- graph -->
<g id="node12" class="node">
<title>graph</title>
<polygon fill="none" stroke="black" points="576.12,-1667 522.12,-1667 522.12,-1631 576.12,-1631 576.12,-1667"/>
<text text-anchor="middle" x="549.12" y="-1644.7" font-family="sans-serif" font-size="14.00">graph</text>
</g>
<!-- graph&#45;&gt;hash -->
<g id="edge37" class="edge">
<title>graph&#45;&gt;hash</title>
<path fill="none" stroke="black" d="M576.5,-1634.76C623.62,-1607.82 721.78,-1544.6 769.25,-1462 804.42,-1400.8 828.37,-1185.22 836.14,-1106.26"/>
<polygon fill="black" stroke="black" points="839.59,-1107.02 837.07,-1096.73 832.62,-1106.34 839.59,-1107.02"/>
</g>
<!-- parse -->
<g id="node26" class="node">
<title>parse</title>
<polygon fill="#ffd6d6" stroke="black" points="1171,-1056 1117,-1056 1117,-1020 1171,-1020 1171,-1056"/>
<text text-anchor="middle" x="1144" y="-1033.7" font-family="sans-serif" font-size="14.00">parse</text>
</g>
<!-- graph&#45;&gt;parse -->
<g id="edge38" class="edge">
<title>graph&#45;&gt;parse</title>
<path fill="none" stroke="black" d="M576.39,-1650.22C627.12,-1652.45 742.09,-1657 838.88,-1657 838.88,-1657 838.88,-1657 951.75,-1657 1076.67,-1657 1128.79,-1190.99 1140.4,-1067.65"/>
<polygon fill="black" stroke="black" points="1143.89,-1067.98 1141.32,-1057.7 1136.92,-1067.33 1143.89,-1067.98"/>
</g>
<!-- rand -->
<g id="node30" class="node">
<title>rand</title>
<polygon fill="none" stroke="black" points="977.75,-1110 923.75,-1110 923.75,-1074 977.75,-1074 977.75,-1110"/>
<text text-anchor="middle" x="950.75" y="-1087.7" font-family="sans-serif" font-size="14.00">rand</text>
</g>
<!-- hash&#45;&gt;rand -->
<g id="edge39" class="edge">
<title>hash&#45;&gt;rand</title>
<path fill="none" stroke="black" d="M867.23,-1080.63C880.64,-1082.48 897.18,-1084.76 911.92,-1086.79"/>
<polygon fill="black" stroke="black" points="911.38,-1090.25 921.76,-1088.14 912.33,-1083.31 911.38,-1090.25"/>
</g>
<!-- hol&#45;&gt;core -->
<g id="edge40" class="edge">
<title>hol&#45;&gt;core</title>
<path fill="none" stroke="black" d="M862.28,-174.28C866.62,-178.53 870.93,-183.22 874.5,-188 902.62,-225.64 925.57,-275.33 938.45,-306.21"/>
<polygon fill="black" stroke="black" points="935.14,-307.35 942.16,-315.28 941.62,-304.7 935.14,-307.35"/>
</g>
<!-- init&#45;&gt;core -->
<g id="edge41" class="edge">
<title>init&#45;&gt;core</title>
<path fill="none" stroke="black" d="M712.85,-729.72C752.12,-664.28 885.88,-441.42 933.09,-362.76"/>
<polygon fill="black" stroke="black" points="935.98,-364.74 938.13,-354.37 929.98,-361.14 935.98,-364.74"/>
</g>
<!-- init&#45;&gt;grammar -->
<g id="edge42" class="edge">
<title>init&#45;&gt;grammar</title>
<path fill="none" stroke="black" d="M728.22,-757.57C741.27,-763.02 756.85,-770.64 769.25,-780 788.6,-794.61 783.16,-811 805.25,-821 835.56,-834.72 873.18,-832.11 902.43,-826.39"/>
<polygon fill="black" stroke="black" points="903.09,-829.82 912.12,-824.29 901.61,-822.98 903.09,-829.82"/>
</g>
<!-- init&#45;&gt;hash -->
<g id="edge43" class="edge">
<title>init&#45;&gt;hash</title>
<path fill="none" stroke="black" d="M727.2,-766.38C741.62,-778.14 758.83,-794.62 769.25,-813 804.13,-874.52 786.81,-899.72 805.25,-968 812.6,-995.23 822.18,-1025.89 829.23,-1047.74"/>
<polygon fill="black" stroke="black" points="825.87,-1048.73 832.29,-1057.16 832.53,-1046.57 825.87,-1048.73"/>
</g>
<!-- init&#45;&gt;hol -->
<g id="edge44" class="edge">
<title>init&#45;&gt;hol</title>
<path fill="none" stroke="black" d="M713.59,-729.91C729.06,-705.09 755.9,-658.55 769.25,-615 806.54,-493.36 785.24,-456.65 805.25,-331 813.43,-279.62 825.38,-220.22 832.61,-185.52"/>
<polygon fill="black" stroke="black" points="836.02,-186.31 834.64,-175.81 829.17,-184.87 836.02,-186.31"/>
</g>
<!-- metamath -->
<g id="node22" class="node">
<title>metamath</title>
<polygon fill="none" stroke="black" points="991,-1056 910.5,-1056 910.5,-1020 991,-1020 991,-1056"/>
<text text-anchor="middle" x="950.75" y="-1033.7" font-family="sans-serif" font-size="14.00">metamath</text>
</g>
<!-- init&#45;&gt;metamath -->
<g id="edge45" class="edge">
<title>init&#45;&gt;metamath</title>
<path fill="none" stroke="black" d="M724.95,-766.37C739.07,-778.49 756.77,-795.35 769.25,-813 791.53,-844.5 783.34,-860.24 805.25,-892 838.01,-939.49 887.08,-985.27 918.76,-1012.53"/>
<polygon fill="black" stroke="black" points="916.16,-1014.92 926.05,-1018.73 920.7,-1009.59 916.16,-1014.92"/>
</g>
<!-- init&#45;&gt;sexp -->
<g id="edge46" class="edge">
<title>init&#45;&gt;sexp</title>
<path fill="none" stroke="black" d="M728.31,-756.4C741.7,-761.62 757.55,-769.38 769.25,-780 792.28,-800.9 779.43,-822.66 805.25,-840 869.27,-882.98 963.36,-884.67 1015.22,-881.63"/>
<polygon fill="black" stroke="black" points="1015.29,-885.14 1025.03,-880.96 1014.81,-878.15 1015.29,-885.14"/>
</g>
<!-- spectec -->
<g id="node38" class="node">
<title>spectec</title>
<polygon fill="none" stroke="black" points="874.5,-812 805.25,-812 805.25,-776 874.5,-776 874.5,-812"/>
<text text-anchor="middle" x="839.88" y="-789.7" font-family="sans-serif" font-size="14.00">spectec</text>
</g>
<!-- init&#45;&gt;spectec -->
<g id="edge47" class="edge">
<title>init&#45;&gt;spectec</title>
<path fill="none" stroke="black" d="M728.29,-756.87C746.98,-763.15 772.5,-771.71 794.31,-779.04"/>
<polygon fill="black" stroke="black" points="792.97,-782.28 803.56,-782.14 795.2,-775.64 792.97,-782.28"/>
</g>
<!-- init&#45;&gt;types -->
<g id="edge48" class="edge">
<title>init&#45;&gt;types</title>
<path fill="none" stroke="black" d="M716.99,-729.76C749.62,-691.12 830.17,-599.44 910.5,-537 979.86,-483.09 1010.15,-488.93 1081,-437 1093.28,-428 1105.91,-416.97 1116.54,-407.08"/>
<polygon fill="black" stroke="black" points="1118.64,-409.92 1123.49,-400.5 1113.82,-404.83 1118.64,-409.92"/>
</g>
<!-- json -->
<g id="node16" class="node">
<title>json</title>
<polygon fill="none" stroke="black" points="866.88,-1537 812.88,-1537 812.88,-1501 866.88,-1501 866.88,-1537"/>
<text text-anchor="middle" x="839.88" y="-1514.7" font-family="sans-serif" font-size="14.00">json</text>
</g>
<!-- kernel -->
<g id="node17" class="node">
<title>kernel</title>
<polygon fill="none" stroke="black" points="577.75,-865 520.5,-865 520.5,-829 577.75,-829 577.75,-865"/>
<text text-anchor="middle" x="549.12" y="-842.7" font-family="sans-serif" font-size="14.00">kernel</text>
</g>
<!-- kernel&#45;&gt;hash -->
<g id="edge49" class="edge">
<title>kernel&#45;&gt;hash</title>
<path fill="none" stroke="black" d="M577.96,-865.49C584.43,-870.45 591.01,-876.08 596.5,-882 616.62,-903.69 609.28,-919.66 632.5,-938 683.05,-977.92 717.11,-948.17 769.25,-986 792.15,-1002.61 811.09,-1028.85 823.41,-1048.89"/>
<polygon fill="black" stroke="black" points="820.35,-1050.6 828.46,-1057.42 826.38,-1047.03 820.35,-1050.6"/>
</g>
<!-- kernel&#45;&gt;init -->
<g id="edge50" class="edge">
<title>kernel&#45;&gt;init</title>
<path fill="none" stroke="black" d="M569.75,-828.77C585.83,-814.41 609.59,-794.47 632.5,-780 642.09,-773.95 653,-768.29 663.21,-763.47"/>
<polygon fill="black" stroke="black" points="664.49,-766.73 672.14,-759.39 661.58,-760.36 664.49,-766.73"/>
</g>
<!-- kernel&#45;&gt;object -->
<g id="edge51" class="edge">
<title>kernel&#45;&gt;object</title>
<path fill="none" stroke="black" d="M578.13,-863.83C584.89,-868.96 591.58,-875.1 596.5,-882 613.77,-906.21 669.93,-1095.83 691.41,-1169.69"/>
<polygon fill="black" stroke="black" points="687.98,-1170.43 694.13,-1179.06 694.7,-1168.48 687.98,-1170.43"/>
</g>
<!-- kernel&#45;&gt;sexp -->
<g id="edge52" class="edge">
<title>kernel&#45;&gt;sexp</title>
<path fill="none" stroke="black" d="M577.98,-832.22C621.54,-811.3 707.25,-779.15 769.25,-813 795.22,-827.18 781.11,-851.9 805.25,-869 844.48,-896.79 862.75,-888.41 910.5,-894 946.03,-898.16 955.51,-898.51 991,-894 999.1,-892.97 1007.65,-891.22 1015.72,-889.24"/>
<polygon fill="black" stroke="black" points="1016.49,-892.66 1025.27,-886.73 1014.71,-885.89 1016.49,-892.66"/>
</g>
<!-- kernel&#45;&gt;store -->
<g id="edge53" class="edge">
<title>kernel&#45;&gt;store</title>
<path fill="none" stroke="black" d="M578.19,-862.45C585.29,-867.72 592.13,-874.27 596.5,-882 634.31,-948.92 616.62,-1150.8 632.5,-1226 646.4,-1291.83 673.16,-1366.23 688.44,-1406.09"/>
<polygon fill="black" stroke="black" points="685.09,-1407.14 691.97,-1415.21 691.62,-1404.62 685.09,-1407.14"/>
</g>
<!-- kv -->
<g id="node18" class="node">
<title>kv</title>
<polygon fill="none" stroke="black" points="211,-1572 157,-1572 157,-1536 211,-1536 211,-1572"/>
<text text-anchor="middle" x="184" y="-1549.7" font-family="sans-serif" font-size="14.00">kv</text>
</g>
<!-- lean -->
<g id="node19" class="node">
<title>lean</title>
<polygon fill="none" stroke="black" points="87.5,-1504 33.5,-1504 33.5,-1468 87.5,-1468 87.5,-1504"/>
<text text-anchor="middle" x="60.5" y="-1481.7" font-family="sans-serif" font-size="14.00">lean</text>
</g>
<!-- llm -->
<g id="node20" class="node">
<title>llm</title>
<polygon fill="none" stroke="black" points="211,-1236 157,-1236 157,-1200 211,-1200 211,-1236"/>
<text text-anchor="middle" x="184" y="-1213.7" font-family="sans-serif" font-size="14.00">llm</text>
</g>
<!-- llm&#45;&gt;proto -->
<g id="edge54" class="edge">
<title>llm&#45;&gt;proto</title>
<path fill="none" stroke="black" d="M211.33,-1232.09C224.51,-1239.15 240.68,-1247.8 255.04,-1255.49"/>
<polygon fill="black" stroke="black" points="253.31,-1258.53 263.77,-1260.16 256.61,-1252.36 253.31,-1258.53"/>
</g>
<!-- lsp&#45;&gt;sexp -->
<g id="edge55" class="edge">
<title>lsp&#45;&gt;sexp</title>
<path fill="none" stroke="black" d="M728.34,-507.9C798.03,-539.31 981.86,-622.86 991,-634 1042.99,-697.37 1052.08,-798.84 1053.23,-848.58"/>
<polygon fill="black" stroke="black" points="1049.72,-848.31 1053.35,-858.26 1056.72,-848.22 1049.72,-848.31"/>
</g>
<!-- lsp&#45;&gt;wasm -->
<g id="edge56" class="edge">
<title>lsp&#45;&gt;wasm</title>
<path fill="none" stroke="black" d="M728.23,-489.65C741.6,-485.45 757.45,-478.86 769.25,-469 796.02,-446.64 815.7,-411.25 827.17,-386.46"/>
<polygon fill="black" stroke="black" points="830.25,-388.17 831.11,-377.61 823.85,-385.32 830.25,-388.17"/>
</g>
<!-- metamath&#45;&gt;parse -->
<g id="edge57" class="edge">
<title>metamath&#45;&gt;parse</title>
<path fill="none" stroke="black" d="M991.38,-1038C1024.8,-1038 1072.32,-1038 1105.21,-1038"/>
<polygon fill="black" stroke="black" points="1105.1,-1041.5 1115.1,-1038 1105.1,-1034.5 1105.1,-1041.5"/>
</g>
<!-- metamath&#45;&gt;sexp -->
<g id="edge58" class="edge">
<title>metamath&#45;&gt;sexp</title>
<path fill="none" stroke="black" d="M977.76,-1019.52C982.52,-1015.41 987.18,-1010.83 991,-1006 1014.98,-975.66 1032.83,-934.53 1043.07,-907.17"/>
<polygon fill="black" stroke="black" points="1046.35,-908.38 1046.47,-897.79 1039.77,-906 1046.35,-908.38"/>
</g>
<!-- object&#45;&gt;hash -->
<g id="edge59" class="edge">
<title>object&#45;&gt;hash</title>
<path fill="none" stroke="black" d="M729.79,-1189.21C742.62,-1183.87 757.55,-1176.42 769.25,-1167 790.87,-1149.59 809.73,-1124.18 822.35,-1104.8"/>
<polygon fill="black" stroke="black" points="825.17,-1106.89 827.55,-1096.56 819.25,-1103.15 825.17,-1106.89"/>
</g>
<!-- object&#45;&gt;parse -->
<g id="edge60" class="edge">
<title>object&#45;&gt;parse</title>
<path fill="none" stroke="black" d="M729.64,-1193.45C781.93,-1182.54 898.13,-1156.07 991,-1119 1032.29,-1102.52 1076.9,-1077.86 1107.03,-1060.08"/>
<polygon fill="black" stroke="black" points="1108.58,-1063.23 1115.37,-1055.11 1104.99,-1057.22 1108.58,-1063.23"/>
</g>
<!-- opentheory&#45;&gt;hol -->
<g id="edge61" class="edge">
<title>opentheory&#45;&gt;hol</title>
<path fill="none" stroke="black" d="M338.13,-179.87C443.02,-174.87 703.7,-162.44 801.24,-157.79"/>
<polygon fill="black" stroke="black" points="801.24,-161.3 811.06,-157.33 800.9,-154.31 801.24,-161.3"/>
</g>
<!-- parquet -->
<g id="node25" class="node">
<title>parquet</title>
<polygon fill="none" stroke="black" points="453.38,-897 386.38,-897 386.38,-861 453.38,-861 453.38,-897"/>
<text text-anchor="middle" x="419.88" y="-874.7" font-family="sans-serif" font-size="14.00">parquet</text>
</g>
<!-- parquet&#45;&gt;arrow -->
<g id="edge62" class="edge">
<title>parquet&#45;&gt;arrow</title>
<path fill="none" stroke="black" d="M453.65,-886.73C471.13,-890.85 492.71,-895.93 510.83,-900.21"/>
<polygon fill="black" stroke="black" points="509.86,-903.58 520.4,-902.46 511.47,-896.76 509.86,-903.58"/>
</g>
<!-- pure&#45;&gt;types -->
<g id="edge63" class="edge">
<title>pure&#45;&gt;types</title>
<path fill="none" stroke="black" d="M1081.4,-364.9C1088.97,-366.88 1097.38,-369.08 1105.48,-371.19"/>
<polygon fill="black" stroke="black" points="1104.59,-374.58 1115.15,-373.72 1106.36,-367.81 1104.59,-374.58"/>
</g>
<!-- python -->
<g id="node29" class="node">
<title>python</title>
<polygon fill="none" stroke="black" points="91.38,-1396 29.62,-1396 29.62,-1360 91.38,-1360 91.38,-1396"/>
<text text-anchor="middle" x="60.5" y="-1373.7" font-family="sans-serif" font-size="14.00">python</text>
</g>
<!-- python&#45;&gt;git -->
<g id="edge64" class="edge">
<title>python&#45;&gt;git</title>
<path fill="none" stroke="black" d="M91.71,-1386.7C102.03,-1390.88 112.98,-1396.81 121,-1405 149.42,-1434.02 123.09,-1466.64 157,-1489 177.04,-1502.21 187.85,-1495.34 211,-1489 280.27,-1470.04 349.9,-1421.4 388.4,-1391.27"/>
<polygon fill="black" stroke="black" points="390.2,-1394.31 395.86,-1385.35 385.85,-1388.83 390.2,-1394.31"/>
</g>
<!-- python&#45;&gt;graph -->
<g id="edge65" class="edge">
<title>python&#45;&gt;graph</title>
<path fill="none" stroke="black" d="M91.68,-1385.19C102.51,-1389.25 113.81,-1395.5 121,-1405 185.29,-1489.96 85.09,-1563.39 157,-1642 247.95,-1741.43 432.88,-1690.94 511.47,-1663.19"/>
<polygon fill="black" stroke="black" points="512.19,-1666.65 520.41,-1659.96 509.81,-1660.07 512.19,-1666.65"/>
</g>
<!-- python&#45;&gt;hash -->
<g id="edge66" class="edge">
<title>python&#45;&gt;hash</title>
<path fill="none" stroke="black" d="M91.82,-1370.62C159.08,-1354.12 316.51,-1314.68 338,-1302 427.79,-1249 408.86,-1181.36 501.75,-1134 608.79,-1079.43 651.47,-1118.74 769.25,-1095 779.86,-1092.86 791.26,-1090.11 801.71,-1087.4"/>
<polygon fill="black" stroke="black" points="802.35,-1090.85 811.12,-1084.9 800.56,-1084.09 802.35,-1090.85"/>
</g>
<!-- python&#45;&gt;kv -->
<g id="edge67" class="edge">
<title>python&#45;&gt;kv</title>
<path fill="none" stroke="black" d="M91.58,-1386.01C102.14,-1390.14 113.28,-1396.23 121,-1405 156.94,-1445.84 131.38,-1474.01 157,-1522 157.78,-1523.46 158.63,-1524.92 159.53,-1526.36"/>
<polygon fill="black" stroke="black" points="156.54,-1528.18 165.17,-1534.33 162.25,-1524.14 156.54,-1528.18"/>
</g>
<!-- python&#45;&gt;llm -->
<g id="edge68" class="edge">
<title>python&#45;&gt;llm</title>
<path fill="none" stroke="black" d="M75.44,-1359.65C96.77,-1331.56 137.64,-1277.74 162.4,-1245.13"/>
<polygon fill="black" stroke="black" points="165.05,-1247.43 168.31,-1237.35 159.47,-1243.19 165.05,-1247.43"/>
</g>
<!-- python&#45;&gt;object -->
<g id="edge69" class="edge">
<title>python&#45;&gt;object</title>
<path fill="none" stroke="black" d="M91.8,-1375.41C143.14,-1370.55 250.22,-1358.38 338,-1335 473.47,-1298.91 500.69,-1269.77 632.5,-1222 641.77,-1218.64 651.81,-1215.14 661.23,-1211.92"/>
<polygon fill="black" stroke="black" points="662.16,-1215.3 670.5,-1208.77 659.9,-1208.67 662.16,-1215.3"/>
</g>
<!-- python&#45;&gt;repl -->
<g id="edge70" class="edge">
<title>python&#45;&gt;repl</title>
<path fill="none" stroke="black" d="M64.19,-1359.78C72.11,-1310.2 98.55,-1169.79 157,-1069 184.41,-1021.73 229.98,-977.39 260.37,-950.72"/>
<polygon fill="black" stroke="black" points="262.48,-953.53 267.75,-944.34 257.9,-948.23 262.48,-953.53"/>
</g>
<!-- sat -->
<g id="node32" class="node">
<title>sat</title>
<polygon fill="none" stroke="black" points="727.88,-460 673.88,-460 673.88,-424 727.88,-424 727.88,-460"/>
<text text-anchor="middle" x="700.88" y="-437.7" font-family="sans-serif" font-size="14.00">sat</text>
</g>
<!-- python&#45;&gt;sat -->
<g id="edge71" class="edge">
<title>python&#45;&gt;sat</title>
<path fill="none" stroke="black" d="M62.45,-1359.57C67.63,-1263.92 94.54,-823.99 157,-705 258.82,-511.03 556.73,-458.45 662.27,-445.71"/>
<polygon fill="black" stroke="black" points="662.56,-449.2 672.09,-444.58 661.76,-442.24 662.56,-449.2"/>
</g>
<!-- python&#45;&gt;serve -->
<g id="edge72" class="edge">
<title>python&#45;&gt;serve</title>
<path fill="none" stroke="black" d="M69.29,-1359.93C89.85,-1312.19 145.76,-1182.43 170.7,-1124.54"/>
<polygon fill="black" stroke="black" points="173.78,-1126.24 174.52,-1115.67 167.35,-1123.47 173.78,-1126.24"/>
</g>
<!-- python&#45;&gt;sexp -->
<g id="edge73" class="edge">
<title>python&#45;&gt;sexp</title>
<path fill="none" stroke="black" d="M91.62,-1385.95C122.91,-1394.99 172.57,-1411.6 211,-1435 359.06,-1525.16 339.8,-1633.15 501.75,-1695 658.07,-1754.7 765.39,-1768.86 874.5,-1642 973.35,-1527.07 1035.25,-1034.41 1049.72,-907.77"/>
<polygon fill="black" stroke="black" points="1053.2,-908.2 1050.84,-897.87 1046.24,-907.41 1053.2,-908.2"/>
</g>
<!-- python&#45;&gt;shell -->
<g id="edge74" class="edge">
<title>python&#45;&gt;shell</title>
<path fill="none" stroke="black" d="M63.55,-1359.55C75.36,-1256.6 138.04,-754.04 247,-652 266.03,-634.17 336.82,-625.42 381.4,-621.58"/>
<polygon fill="black" stroke="black" points="381.47,-625.09 391.16,-620.79 380.91,-618.11 381.47,-625.09"/>
</g>
<!-- sig -->
<g id="node36" class="node">
<title>sig</title>
<polygon fill="none" stroke="black" points="211,-1480 157,-1480 157,-1444 211,-1444 211,-1480"/>
<text text-anchor="middle" x="184" y="-1457.7" font-family="sans-serif" font-size="14.00">sig</text>
</g>
<!-- python&#45;&gt;sig -->
<g id="edge75" class="edge">
<title>python&#45;&gt;sig</title>
<path fill="none" stroke="black" d="M91.84,-1389.55C101.5,-1393.8 112.01,-1399.05 121,-1405 134.18,-1413.72 147.28,-1425.24 158.03,-1435.64"/>
<polygon fill="black" stroke="black" points="155.46,-1438.03 165.02,-1442.6 160.4,-1433.07 155.46,-1438.03"/>
</g>
<!-- python&#45;&gt;store -->
<g id="edge76" class="edge">
<title>python&#45;&gt;store</title>
<path fill="none" stroke="black" d="M91.74,-1385.5C102.44,-1389.59 113.64,-1395.78 121,-1405 170.79,-1467.42 95.14,-1530.52 157,-1581 191.76,-1609.37 208.09,-1629.93 596.5,-1487 619.51,-1478.53 644.08,-1466.32 663.49,-1455.85"/>
<polygon fill="black" stroke="black" points="665,-1459.02 672.09,-1451.14 661.64,-1452.88 665,-1459.02"/>
</g>
<!-- python&#45;&gt;wasm -->
<g id="edge77" class="edge">
<title>python&#45;&gt;wasm</title>
<path fill="none" stroke="black" d="M62.44,-1359.73C67.84,-1258.73 96.82,-768.25 157,-631 217.17,-493.78 239.21,-438.43 374,-373 448.79,-336.7 704.03,-349.09 801.04,-355.33"/>
<polygon fill="black" stroke="black" points="800.61,-358.81 810.82,-355.97 801.07,-351.82 800.61,-358.81"/>
</g>
<!-- wasm&#45;store -->
<g id="node45" class="node">
<title>wasm&#45;store</title>
<polygon fill="none" stroke="black" points="596.5,-1575 501.75,-1575 501.75,-1539 596.5,-1539 596.5,-1575"/>
<text text-anchor="middle" x="549.12" y="-1552.7" font-family="sans-serif" font-size="14.00">wasm&#45;store</text>
</g>
<!-- python&#45;&gt;wasm&#45;store -->
<g id="edge78" class="edge">
<title>python&#45;&gt;wasm&#45;store</title>
<path fill="none" stroke="black" d="M91.58,-1385.26C102.4,-1389.34 113.72,-1395.57 121,-1405 178.62,-1479.6 84.92,-1553.27 157,-1614 258.45,-1699.47 429.72,-1623.35 507.51,-1580.95"/>
<polygon fill="black" stroke="black" points="509.04,-1584.11 516.08,-1576.19 505.64,-1577.98 509.04,-1584.11"/>
</g>
<!-- repl&#45;&gt;arrow -->
<g id="edge79" class="edge">
<title>repl&#45;&gt;arrow</title>
<path fill="none" stroke="black" d="M319.79,-923.35C365.17,-920.5 458.36,-914.64 510.57,-911.36"/>
<polygon fill="black" stroke="black" points="510.71,-914.86 520.47,-910.74 510.27,-907.87 510.71,-914.86"/>
</g>
<!-- repl&#45;&gt;forsp -->
<g id="edge80" class="edge">
<title>repl&#45;&gt;forsp</title>
<path fill="none" stroke="black" d="M298.72,-906.96C308.24,-877.84 331.46,-821.4 374,-798 423.08,-771 588.68,-810.16 663.11,-829.85"/>
<polygon fill="black" stroke="black" points="661.8,-833.12 672.36,-832.32 663.61,-826.35 661.8,-833.12"/>
</g>
<!-- repl&#45;&gt;git -->
<g id="edge81" class="edge">
<title>repl&#45;&gt;git</title>
<path fill="none" stroke="black" d="M298.73,-943.39C318.18,-1011.82 386.51,-1252.15 410.48,-1336.48"/>
<polygon fill="black" stroke="black" points="407.11,-1337.42 413.21,-1346.08 413.84,-1335.5 407.11,-1337.42"/>
</g>
<!-- repl&#45;&gt;graph -->
<g id="edge82" class="edge">
<title>repl&#45;&gt;graph</title>
<path fill="none" stroke="black" d="M296.27,-943.34C308.58,-1024.55 358.43,-1349.59 374,-1393 393.34,-1446.94 463,-1574.78 501.75,-1617 505.11,-1620.67 508.97,-1624.14 513,-1627.35"/>
<polygon fill="black" stroke="black" points="510.6,-1629.93 520.72,-1633.04 514.75,-1624.29 510.6,-1629.93"/>
</g>
<!-- repl&#45;&gt;hash -->
<g id="edge83" class="edge">
<title>repl&#45;&gt;hash</title>
<path fill="none" stroke="black" d="M319.73,-929.41C372.62,-938.57 495.62,-961.21 596.5,-990 670.73,-1011.18 755.08,-1043.37 802.14,-1062.08"/>
<polygon fill="black" stroke="black" points="800.72,-1065.28 811.31,-1065.74 803.32,-1058.78 800.72,-1065.28"/>
</g>
<!-- repl&#45;&gt;init -->
<g id="edge84" class="edge">
<title>repl&#45;&gt;init</title>
<path fill="none" stroke="black" d="M298.2,-906.74C307.18,-875.87 329.94,-813.93 374,-785 463.61,-726.16 597.68,-733.86 662.34,-742.05"/>
<polygon fill="black" stroke="black" points="661.7,-745.49 672.08,-743.36 662.64,-738.55 661.7,-745.49"/>
</g>
<!-- repl&#45;&gt;object -->
<g id="edge85" class="edge">
<title>repl&#45;&gt;object</title>
<path fill="none" stroke="black" d="M316.89,-943.36C332.31,-954.61 353.4,-968.46 374,-977 467.45,-1015.74 514.38,-965.92 596.5,-1025 646.99,-1061.32 677.09,-1130.61 690.85,-1169.91"/>
<polygon fill="black" stroke="black" points="687.46,-1170.81 693.97,-1179.17 694.09,-1168.58 687.46,-1170.81"/>
</g>
<!-- repl&#45;&gt;parquet -->
<g id="edge86" class="edge">
<title>repl&#45;&gt;parquet</title>
<path fill="none" stroke="black" d="M319.78,-915.36C335.87,-909.45 356.85,-901.76 375.36,-894.96"/>
<polygon fill="black" stroke="black" points="376.32,-898.34 384.5,-891.61 373.91,-891.77 376.32,-898.34"/>
</g>
<!-- repl&#45;&gt;shell -->
<g id="edge87" class="edge">
<title>repl&#45;&gt;shell</title>
<path fill="none" stroke="black" d="M300.89,-906.69C315.01,-871.73 346.84,-793.07 374,-727 385.04,-700.13 397.76,-669.57 406.83,-647.83"/>
<polygon fill="black" stroke="black" points="410,-649.3 410.63,-638.72 403.54,-646.6 410,-649.3"/>
</g>
<!-- repl&#45;&gt;wasm -->
<g id="edge88" class="edge">
<title>repl&#45;&gt;wasm</title>
<path fill="none" stroke="black" d="M299.09,-906.7C308.57,-874.92 327.79,-807.37 338,-749 351.97,-669.15 314.89,-441.47 374,-386 390.02,-370.96 747.43,-374.56 769.25,-372 779.66,-370.78 790.83,-368.82 801.12,-366.76"/>
<polygon fill="black" stroke="black" points="801.71,-370.21 810.78,-364.72 800.27,-363.36 801.71,-370.21"/>
</g>
<!-- sat&#45;&gt;parse -->
<g id="edge89" class="edge">
<title>sat&#45;&gt;parse</title>
<path fill="none" stroke="black" d="M727.99,-442.87C784.24,-446.19 917.69,-462 991,-537 1124.22,-673.3 1141.18,-922.44 1142.96,-1008.13"/>
<polygon fill="black" stroke="black" points="1139.45,-1008.09 1143.1,-1018.03 1146.45,-1007.99 1139.45,-1008.09"/>
</g>
<!-- sat&#45;&gt;types -->
<g id="edge90" class="edge">
<title>sat&#45;&gt;types</title>
<path fill="none" stroke="black" d="M728.15,-438.37C803.07,-428.01 1017.98,-398.29 1105.37,-386.2"/>
<polygon fill="black" stroke="black" points="1105.66,-389.7 1115.09,-384.86 1104.7,-382.76 1105.66,-389.7"/>
</g>
<!-- sat&#45;&gt;wasm -->
<g id="edge91" class="edge">
<title>sat&#45;&gt;wasm</title>
<path fill="none" stroke="black" d="M728.09,-431.01C740.83,-425.3 756.16,-417.89 769.25,-410 782.4,-402.07 796.1,-392.23 807.84,-383.24"/>
<polygon fill="black" stroke="black" points="809.85,-386.12 815.58,-377.21 805.54,-380.59 809.85,-386.12"/>
</g>
<!-- serve&#45;&gt;core -->
<g id="edge92" class="edge">
<title>serve&#45;&gt;core</title>
<path fill="none" stroke="black" d="M184.86,-1077.57C185.1,-989.43 196.67,-605.7 374,-373 524,-176.17 671.7,12.83 874.5,-129 932.07,-169.26 945.74,-258.5 948.89,-305.2"/>
<polygon fill="black" stroke="black" points="945.39,-305.32 949.43,-315.12 952.38,-304.95 945.39,-305.32"/>
</g>
<!-- serve&#45;&gt;git -->
<g id="edge93" class="edge">
<title>serve&#45;&gt;git</title>
<path fill="none" stroke="black" d="M211.23,-1109.99C222.27,-1115.87 235.26,-1122.78 247,-1129 287.4,-1150.41 307,-1143.38 338,-1177 360.52,-1201.42 393.05,-1290.26 409.13,-1336.92"/>
<polygon fill="black" stroke="black" points="405.72,-1337.78 412.26,-1346.11 412.35,-1335.52 405.72,-1337.78"/>
</g>
<!-- serve&#45;&gt;hash -->
<g id="edge94" class="edge">
<title>serve&#45;&gt;hash</title>
<path fill="none" stroke="black" d="M211.44,-1095.23C313.43,-1092.27 681.44,-1081.57 801.04,-1078.1"/>
<polygon fill="black" stroke="black" points="801.06,-1081.6 810.95,-1077.81 800.85,-1074.6 801.06,-1081.6"/>
</g>
<!-- serve&#45;&gt;init -->
<g id="edge95" class="edge">
<title>serve&#45;&gt;init</title>
<path fill="none" stroke="black" d="M187.81,-1077.69C198.43,-1015.92 242.38,-815.15 374,-745 467.54,-695.14 598.69,-719.86 662.31,-736.71"/>
<polygon fill="black" stroke="black" points="661.35,-740.08 671.92,-739.34 663.2,-733.32 661.35,-740.08"/>
</g>
<!-- serve&#45;&gt;metamath -->
<g id="edge96" class="edge">
<title>serve&#45;&gt;metamath</title>
<path fill="none" stroke="black" d="M207.3,-1114.41C208.63,-1115.9 209.88,-1117.43 211,-1119 235.13,-1152.69 218.37,-1175.05 247,-1205 277.91,-1237.33 311.37,-1212.06 338,-1248 403.52,-1336.43 330.8,-1391.78 374,-1493 400.08,-1554.1 429.16,-1555.55 465.75,-1611 483.94,-1638.56 473.3,-1659.23 501.75,-1676 538.03,-1697.38 554.76,-1681.6 596.5,-1676 723.45,-1658.96 793.41,-1699.15 874.5,-1600 947.8,-1510.38 856.96,-1187.56 912.09,-1066.44"/>
<polygon fill="black" stroke="black" points="915.11,-1068.21 916.59,-1057.72 908.89,-1065 915.11,-1068.21"/>
</g>
<!-- serve&#45;&gt;object -->
<g id="edge97" class="edge">
<title>serve&#45;&gt;object</title>
<path fill="none" stroke="black" d="M211.29,-1096.98C243.16,-1099.19 297.62,-1106.28 338,-1129 358.28,-1140.41 353.45,-1156.1 374,-1167 467.37,-1216.53 597.01,-1210.99 660.98,-1204.25"/>
<polygon fill="black" stroke="black" points="661.09,-1207.76 670.64,-1203.16 660.31,-1200.81 661.09,-1207.76"/>
</g>
<!-- serve&#45;&gt;proto -->
<g id="edge98" class="edge">
<title>serve&#45;&gt;proto</title>
<path fill="none" stroke="black" d="M193.65,-1114.38C198.82,-1125.5 205.44,-1140 211,-1153 227.94,-1192.61 220.45,-1209.07 247,-1243 249.76,-1246.52 253,-1249.83 256.47,-1252.89"/>
<polygon fill="black" stroke="black" points="254.16,-1255.53 264.18,-1258.99 258.51,-1250.04 254.16,-1255.53"/>
</g>
<!-- serve&#45;&gt;repl -->
<g id="edge99" class="edge">
<title>serve&#45;&gt;repl</title>
<path fill="none" stroke="black" d="M196.4,-1077.7C215.01,-1047.82 252.03,-988.37 273.99,-953.11"/>
<polygon fill="black" stroke="black" points="276.91,-955.05 279.22,-944.71 270.97,-951.35 276.91,-955.05"/>
</g>
<!-- serve&#45;&gt;shell -->
<g id="edge100" class="edge">
<title>serve&#45;&gt;shell</title>
<path fill="none" stroke="black" d="M185.55,-1077.61C188.01,-1007.3 199.97,-756.36 247,-695 251.42,-689.24 332.82,-654.73 381.99,-634.25"/>
<polygon fill="black" stroke="black" points="383.26,-637.51 391.15,-630.44 380.57,-631.05 383.26,-637.51"/>
</g>
<!-- serve&#45;&gt;store -->
<g id="edge101" class="edge">
<title>serve&#45;&gt;store</title>
<path fill="none" stroke="black" d="M206.61,-1114.49C208.13,-1115.98 209.61,-1117.49 211,-1119 229.08,-1138.6 226.71,-1149.69 247,-1167 281.79,-1196.68 310.6,-1178.39 338,-1215 386.36,-1279.62 315.47,-1337.43 374,-1393 452.83,-1467.84 594.87,-1454.54 662.33,-1442.84"/>
<polygon fill="black" stroke="black" points="662.95,-1446.29 672.16,-1441.04 661.69,-1439.4 662.95,-1446.29"/>
</g>
<!-- sexp&#45;&gt;parse -->
<g id="edge102" class="edge">
<title>sexp&#45;&gt;parse</title>
<path fill="none" stroke="black" d="M1065.09,-896.35C1080.41,-924.2 1109.64,-977.34 1127.61,-1010.03"/>
<polygon fill="black" stroke="black" points="1124.41,-1011.46 1132.29,-1018.53 1130.54,-1008.08 1124.41,-1011.46"/>
</g>
<!-- shell&#45;&gt;hol -->
<g id="edge103" class="edge">
<title>shell&#45;&gt;hol</title>
<path fill="none" stroke="black" d="M446.22,-600.67C484.89,-571.3 558.16,-509.84 596.5,-440 630.53,-378 591.4,-342.55 632.5,-285 675.24,-225.16 755.26,-187.06 802.11,-168.8"/>
<polygon fill="black" stroke="black" points="803.17,-172.14 811.28,-165.32 800.69,-165.59 803.17,-172.14"/>
</g>
<!-- shell&#45;&gt;kernel -->
<g id="edge104" class="edge">
<title>shell&#45;&gt;kernel</title>
<path fill="none" stroke="black" d="M431.07,-637.27C453.22,-676.96 505.87,-771.28 532.34,-818.72"/>
<polygon fill="black" stroke="black" points="529.21,-820.29 537.14,-827.32 535.32,-816.88 529.21,-820.29"/>
</g>
<!-- smt&#45;&gt;sat -->
<g id="edge105" class="edge">
<title>smt&#45;&gt;sat</title>
<path fill="none" stroke="black" d="M576.55,-418.12C600.32,-422.72 635.51,-429.54 662.22,-434.71"/>
<polygon fill="black" stroke="black" points="661.49,-438.13 671.97,-436.6 662.82,-431.26 661.49,-438.13"/>
</g>
<!-- smt&#45;&gt;sexp -->
<g id="edge106" class="edge">
<title>smt&#45;&gt;sexp</title>
<path fill="none" stroke="black" d="M576.21,-426.03C583.79,-431 591.4,-437.35 596.5,-445 639.32,-509.27 576.51,-561.8 632.5,-615 749.45,-726.13 869.5,-565.85 991,-672 1042.53,-717.02 1052.06,-803.1 1053.31,-848.42"/>
<polygon fill="black" stroke="black" points="1049.81,-848.33 1053.45,-858.28 1056.81,-848.23 1049.81,-848.33"/>
</g>
<!-- smt&#45;&gt;types -->
<g id="edge107" class="edge">
<title>smt&#45;&gt;types</title>
<path fill="none" stroke="black" d="M551.16,-394.56C554.61,-350.78 569.47,-239.79 632.5,-180 690.58,-124.91 726.02,-140.45 805.25,-129 835.71,-124.6 845.83,-117.82 874.5,-129 990.69,-174.32 991,-232.67 1081,-319 1092.99,-330.5 1106.03,-343.47 1117.04,-354.56"/>
<polygon fill="black" stroke="black" points="1114.43,-356.9 1123.96,-361.55 1119.41,-351.98 1114.43,-356.9"/>
</g>
<!-- spectec&#45;&gt;grammar -->
<g id="edge108" class="edge">
<title>spectec&#45;&gt;grammar</title>
<path fill="none" stroke="black" d="M874.73,-799.91C883.51,-801.44 893.14,-803.12 902.48,-804.75"/>
<polygon fill="black" stroke="black" points="901.71,-808.17 912.16,-806.44 902.91,-801.27 901.71,-808.17"/>
</g>
<!-- store&#45;&gt;hash -->
<g id="edge109" class="edge">
<title>store&#45;&gt;hash</title>
<path fill="none" stroke="black" d="M728.2,-1416.91C742.4,-1405.82 759.06,-1390.43 769.25,-1373 820.5,-1285.32 834.04,-1162.26 837.61,-1106.51"/>
<polygon fill="black" stroke="black" points="841.08,-1107.06 838.16,-1096.88 834.09,-1106.66 841.08,-1107.06"/>
</g>
<!-- store&#45;&gt;json -->
<g id="edge110" class="edge">
<title>store&#45;&gt;json</title>
<path fill="none" stroke="black" d="M728.29,-1451.2C749.52,-1464.21 779.55,-1482.62 802.96,-1496.98"/>
<polygon fill="black" stroke="black" points="800.9,-1499.82 811.25,-1502.06 804.56,-1493.85 800.9,-1499.82"/>
</g>
<!-- store&#45;&gt;sqlite -->
<g id="edge111" class="edge">
<title>store&#45;&gt;sqlite</title>
<path fill="none" stroke="black" d="M717.59,-1453.45C737.22,-1476.12 772.26,-1515.35 805.25,-1546 805.63,-1546.36 806.02,-1546.71 806.41,-1547.07"/>
<polygon fill="black" stroke="black" points="804.01,-1549.62 813.85,-1553.54 808.61,-1544.34 804.01,-1549.62"/>
</g>
<!-- wasm&#45;&gt;core -->
<g id="edge112" class="edge">
<title>wasm&#45;&gt;core</title>
<path fill="none" stroke="black" d="M867.23,-352.43C880.77,-349.57 897.5,-346.04 912.35,-342.9"/>
<polygon fill="black" stroke="black" points="912.72,-346.4 921.78,-340.91 911.27,-339.55 912.72,-346.4"/>
</g>
<!-- wasm&#45;build&#45;guest -->
<g id="node43" class="node">
<title>wasm&#45;build&#45;guest</title>
<polygon fill="none" stroke="black" points="769.25,-330 632.5,-330 632.5,-294 769.25,-294 769.25,-330"/>
<text text-anchor="middle" x="700.88" y="-307.7" font-family="sans-serif" font-size="14.00">wasm&#45;build&#45;guest</text>
</g>
<!-- wasm&#45;build&#45;guest&#45;&gt;wasm -->
<g id="edge113" class="edge">
<title>wasm&#45;build&#45;guest&#45;&gt;wasm</title>
<path fill="none" stroke="black" d="M756.81,-330.44C771.96,-335.53 788.04,-340.93 801.91,-345.59"/>
<polygon fill="black" stroke="black" points="800.47,-348.8 811.07,-348.66 802.7,-342.16 800.47,-348.8"/>
</g>
<!-- wasm&#45;spec -->
<g id="node44" class="node">
<title>wasm&#45;spec</title>
<polygon fill="none" stroke="black" points="747.5,-606 654.25,-606 654.25,-570 747.5,-570 747.5,-606"/>
<text text-anchor="middle" x="700.88" y="-583.7" font-family="sans-serif" font-size="14.00">wasm&#45;spec</text>
</g>
<!-- wasm&#45;spec&#45;&gt;hash -->
<g id="edge114" class="edge">
<title>wasm&#45;spec&#45;&gt;hash</title>
<path fill="none" stroke="black" d="M713.16,-606.23C728.15,-631.21 754.44,-677.92 769.25,-721 809.55,-838.25 829.04,-985.71 835.9,-1047.57"/>
<polygon fill="black" stroke="black" points="832.39,-1047.69 836.94,-1057.26 839.35,-1046.94 832.39,-1047.69"/>
</g>
<!-- wasm&#45;spec&#45;&gt;types -->
<g id="edge115" class="edge">
<title>wasm&#45;spec&#45;&gt;types</title>
<path fill="none" stroke="black" d="M741.02,-569.63C825.47,-530 1023.78,-436.94 1106.14,-398.3"/>
<polygon fill="black" stroke="black" points="1107.57,-401.49 1115.14,-394.07 1104.6,-395.15 1107.57,-401.49"/>
</g>
<!-- wasm&#45;spec&#45;&gt;wasm -->
<g id="edge116" class="edge">
<title>wasm&#45;spec&#45;&gt;wasm</title>
<path fill="none" stroke="black" d="M747.98,-572.16C755.84,-567.87 763.36,-562.55 769.25,-556 780.89,-543.06 813.94,-439.16 829.95,-387.27"/>
<polygon fill="black" stroke="black" points="833.24,-388.48 832.83,-377.9 826.55,-386.43 833.24,-388.48"/>
</g>
<!-- wasm&#45;store&#45;&gt;json -->
<g id="edge117" class="edge">
<title>wasm&#45;store&#45;&gt;json</title>
<path fill="none" stroke="black" d="M596.84,-1550.85C653.82,-1543.35 749.01,-1530.83 801.43,-1523.93"/>
<polygon fill="black" stroke="black" points="801.59,-1527.44 811.05,-1522.66 800.68,-1520.5 801.59,-1527.44"/>
</g>
<!-- wasm&#45;store&#45;&gt;store -->
<g id="edge118" class="edge">
<title>wasm&#45;store&#45;&gt;store</title>
<path fill="none" stroke="black" d="M577.96,-1538.55C584.15,-1534.23 590.63,-1529.56 596.5,-1525 622.86,-1504.53 651.36,-1479.48 671.75,-1461.01"/>
<polygon fill="black" stroke="black" points="674.08,-1463.62 679.12,-1454.3 669.37,-1458.45 674.08,-1463.62"/>
</g>
<!-- wasm&#45;store&#45;&gt;wasm -->
<g id="edge119" class="edge">
<title>wasm&#45;store&#45;&gt;wasm</title>
<path fill="none" stroke="black" d="M552.88,-1538.62C560.86,-1484.83 584.15,-1323.03 596.5,-1188 602.85,-1118.51 588.7,-615.32 632.5,-561 672.09,-511.89 721.88,-564.65 769.25,-523 790.38,-504.42 816.43,-429.64 829.89,-387.41"/>
<polygon fill="black" stroke="black" points="833.22,-388.47 832.88,-377.88 826.54,-386.38 833.22,-388.47"/>
</g>
<!-- web&#45;kernel -->
<g id="node46" class="node">
<title>web&#45;kernel</title>
<polygon fill="none" stroke="black" points="465.75,-843 374,-843 374,-807 465.75,-807 465.75,-843"/>
<text text-anchor="middle" x="419.88" y="-820.7" font-family="sans-serif" font-size="14.00">web&#45;kernel</text>
</g>
<!-- web&#45;kernel&#45;&gt;kernel -->
<g id="edge120" class="edge">
<title>web&#45;kernel&#45;&gt;kernel</title>
<path fill="none" stroke="black" d="M466.1,-832.82C480.16,-835.25 495.54,-837.91 509.14,-840.26"/>
<polygon fill="black" stroke="black" points="508.13,-843.64 518.58,-841.89 509.33,-836.74 508.13,-843.64"/>
</g>
</g>
</svg>
