<?xml version="1.0" encoding="UTF-8" standalone="no"?>
<!DOCTYPE svg PUBLIC "-//W3C//DTD SVG 1.1//EN"
 "http://www.w3.org/Graphics/SVG/1.1/DTD/svg11.dtd">
<!-- Generated by graphviz version 12.2.1 (0)
 -->
<!-- Title: deps Pages: 1 -->
<svg width="1369pt" height="1719pt"
 viewBox="0.00 0.00 1368.50 1719.27" xmlns="http://www.w3.org/2000/svg" xmlns:xlink="http://www.w3.org/1999/xlink">
<g id="graph0" class="graph" transform="scale(1 1) rotate(0) translate(4 1715.27)">
<title>deps</title>
<polygon fill="white" stroke="none" points="-4,4 -4,-1715.27 1364.5,-1715.27 1364.5,4 -4,4"/>
<!-- covalence -->
<g id="node1" class="node">
<title>covalence</title>
<polygon fill="none" stroke="black" points="102.62,-833.17 18.38,-833.17 18.38,-797.17 102.62,-797.17 102.62,-833.17"/>
<text text-anchor="middle" x="60.5" y="-810.87" font-family="sans-serif" font-size="14.00">covalence</text>
</g>
<!-- client -->
<g id="node5" class="node">
<title>client</title>
<polygon fill="none" stroke="black" points="349.75,-906.17 295.75,-906.17 295.75,-870.17 349.75,-870.17 349.75,-906.17"/>
<text text-anchor="middle" x="322.75" y="-883.87" font-family="sans-serif" font-size="14.00">client</text>
</g>
<!-- covalence&#45;&gt;client -->
<g id="edge1" class="edge">
<title>covalence&#45;&gt;client</title>
<path fill="none" stroke="black" d="M103.03,-826.82C153.11,-840.87 236.55,-864.27 284.6,-877.75"/>
<polygon fill="black" stroke="black" points="283.4,-881.05 293.98,-880.38 285.29,-874.31 283.4,-881.05"/>
</g>
<!-- fuse -->
<g id="node11" class="node">
<title>fuse</title>
<polygon fill="none" stroke="black" points="606.38,-1096.17 552.38,-1096.17 552.38,-1060.17 606.38,-1060.17 606.38,-1096.17"/>
<text text-anchor="middle" x="579.38" y="-1073.87" font-family="sans-serif" font-size="14.00">fuse</text>
</g>
<!-- covalence&#45;&gt;fuse -->
<g id="edge2" class="edge">
<title>covalence&#45;&gt;fuse</title>
<path fill="none" stroke="black" d="M76.72,-833.38C94.77,-854.46 126.31,-889.68 157,-916.17 191.6,-946.04 205.38,-946.83 241.25,-975.17 258.05,-988.44 259.47,-995.25 277.25,-1007.17 329.43,-1042.14 343.44,-1053.45 404.25,-1069.17 450.07,-1081.01 504.86,-1081.75 540.58,-1080.52"/>
<polygon fill="black" stroke="black" points="540.56,-1084.03 550.41,-1080.11 540.27,-1077.03 540.56,-1084.03"/>
</g>
<!-- git -->
<g id="node12" class="node">
<title>git</title>
<polygon fill="none" stroke="black" points="477.12,-1172.17 423.12,-1172.17 423.12,-1136.17 477.12,-1136.17 477.12,-1172.17"/>
<text text-anchor="middle" x="450.12" y="-1149.87" font-family="sans-serif" font-size="14.00">git</text>
</g>
<!-- covalence&#45;&gt;git -->
<g id="edge3" class="edge">
<title>covalence&#45;&gt;git</title>
<path fill="none" stroke="black" d="M64.95,-833.52C73.47,-874.07 99.17,-972.22 157,-1029.17 230.11,-1101.17 351.21,-1134.53 411.96,-1147.39"/>
<polygon fill="black" stroke="black" points="410.94,-1150.76 421.44,-1149.33 412.34,-1143.9 410.94,-1150.76"/>
</g>
<!-- hash -->
<g id="node15" class="node">
<title>hash</title>
<polygon fill="none" stroke="black" points="887.38,-978.17 833.38,-978.17 833.38,-942.17 887.38,-942.17 887.38,-978.17"/>
<text text-anchor="middle" x="860.38" y="-955.87" font-family="sans-serif" font-size="14.00">hash</text>
</g>
<!-- covalence&#45;&gt;hash -->
<g id="edge4" class="edge">
<title>covalence&#45;&gt;hash</title>
<path fill="none" stroke="black" d="M89.51,-796.76C107.91,-785.63 132.95,-772.26 157,-765.17 247.18,-738.58 275.64,-737.96 368.25,-754.17 548.73,-785.75 594.77,-807.13 756,-894.17 773.6,-903.67 775.32,-910.14 792,-921.17 801.89,-927.71 812.92,-934.35 823.14,-940.25"/>
<polygon fill="black" stroke="black" points="821.29,-943.22 831.71,-945.13 824.75,-937.14 821.29,-943.22"/>
</g>
<!-- hol -->
<g id="node16" class="node">
<title>hol</title>
<polygon fill="none" stroke="black" points="887.38,-78.17 833.38,-78.17 833.38,-42.17 887.38,-42.17 887.38,-78.17"/>
<text text-anchor="middle" x="860.38" y="-55.87" font-family="sans-serif" font-size="14.00">hol</text>
</g>
<!-- covalence&#45;&gt;hol -->
<g id="edge5" class="edge">
<title>covalence&#45;&gt;hol</title>
<path fill="none" stroke="black" d="M63.89,-796.89C79.11,-684.32 166.79,-90.17 321.75,-90.17 321.75,-90.17 321.75,-90.17 580.38,-90.17 667.11,-90.17 768.14,-75.66 821.64,-66.82"/>
<polygon fill="black" stroke="black" points="822.16,-70.28 831.44,-65.17 821,-63.38 822.16,-70.28"/>
</g>
<!-- lsp -->
<g id="node23" class="node">
<title>lsp</title>
<polygon fill="none" stroke="black" points="887.38,-642.17 833.38,-642.17 833.38,-606.17 887.38,-606.17 887.38,-642.17"/>
<text text-anchor="middle" x="860.38" y="-619.87" font-family="sans-serif" font-size="14.00">lsp</text>
</g>
<!-- covalence&#45;&gt;lsp -->
<g id="edge6" class="edge">
<title>covalence&#45;&gt;lsp</title>
<path fill="none" stroke="black" d="M62.62,-796.76C69.04,-709.1 108.79,-338.17 321.75,-338.17 321.75,-338.17 321.75,-338.17 451.12,-338.17 541.33,-338.17 755.34,-527.82 831.71,-598.25"/>
<polygon fill="black" stroke="black" points="829.08,-600.59 838.8,-604.82 833.84,-595.45 829.08,-600.59"/>
</g>
<!-- object -->
<g id="node26" class="node">
<title>object</title>
<polygon fill="none" stroke="black" points="738,-722.17 680.75,-722.17 680.75,-686.17 738,-686.17 738,-722.17"/>
<text text-anchor="middle" x="709.38" y="-699.87" font-family="sans-serif" font-size="14.00">object</text>
</g>
<!-- covalence&#45;&gt;object -->
<g id="edge7" class="edge">
<title>covalence&#45;&gt;object</title>
<path fill="none" stroke="black" d="M70.73,-796.73C85.22,-769.75 115.98,-719.93 157,-694.17 252.33,-634.3 292.35,-651.47 404.25,-639.17 444.78,-634.72 456.11,-630.7 496,-639.17 513.13,-642.8 515.52,-649.25 532,-655.17 578.42,-671.83 633.39,-686.3 669.47,-695.11"/>
<polygon fill="black" stroke="black" points="668.47,-698.47 679.01,-697.41 670.11,-691.67 668.47,-698.47"/>
</g>
<!-- opentheory -->
<g id="node27" class="node">
<title>opentheory</title>
<polygon fill="none" stroke="black" points="368.25,-62.17 277.25,-62.17 277.25,-26.17 368.25,-26.17 368.25,-62.17"/>
<text text-anchor="middle" x="322.75" y="-39.87" font-family="sans-serif" font-size="14.00">opentheory</text>
</g>
<!-- covalence&#45;&gt;opentheory -->
<g id="edge8" class="edge">
<title>covalence&#45;&gt;opentheory</title>
<path fill="none" stroke="black" d="M62.59,-796.96C69.26,-688.52 105.87,-130.64 157,-76.17 184.26,-47.13 229.39,-39.98 265.52,-39.62"/>
<polygon fill="black" stroke="black" points="265.36,-43.12 275.39,-39.71 265.43,-36.12 265.36,-43.12"/>
</g>
<!-- proto -->
<g id="node30" class="node">
<title>proto</title>
<polygon fill="none" stroke="black" points="349.75,-852.17 295.75,-852.17 295.75,-816.17 349.75,-816.17 349.75,-852.17"/>
<text text-anchor="middle" x="322.75" y="-829.87" font-family="sans-serif" font-size="14.00">proto</text>
</g>
<!-- covalence&#45;&gt;proto -->
<g id="edge9" class="edge">
<title>covalence&#45;&gt;proto</title>
<path fill="none" stroke="black" d="M103.03,-818.2C152.9,-821.84 235.85,-827.9 283.99,-831.41"/>
<polygon fill="black" stroke="black" points="283.7,-834.9 293.92,-832.14 284.21,-827.92 283.7,-834.9"/>
</g>
<!-- repl -->
<g id="node36" class="node">
<title>repl</title>
<polygon fill="none" stroke="black" points="349.75,-998.17 295.75,-998.17 295.75,-962.17 349.75,-962.17 349.75,-998.17"/>
<text text-anchor="middle" x="322.75" y="-975.87" font-family="sans-serif" font-size="14.00">repl</text>
</g>
<!-- covalence&#45;&gt;repl -->
<g id="edge10" class="edge">
<title>covalence&#45;&gt;repl</title>
<path fill="none" stroke="black" d="M90.6,-833.62C138.57,-864.03 234.12,-924.61 286.08,-957.56"/>
<polygon fill="black" stroke="black" points="283.97,-960.36 294.29,-962.76 287.71,-954.45 283.97,-960.36"/>
</g>
<!-- serve -->
<g id="node38" class="node">
<title>serve</title>
<polygon fill="none" stroke="black" points="226.12,-810.17 172.12,-810.17 172.12,-774.17 226.12,-774.17 226.12,-810.17"/>
<text text-anchor="middle" x="199.12" y="-787.87" font-family="sans-serif" font-size="14.00">serve</text>
</g>
<!-- covalence&#45;&gt;serve -->
<g id="edge11" class="edge">
<title>covalence&#45;&gt;serve</title>
<path fill="none" stroke="black" d="M102.86,-808.21C121.29,-805.1 142.83,-801.48 160.76,-798.46"/>
<polygon fill="black" stroke="black" points="161.19,-801.94 170.47,-796.83 160.02,-795.03 161.19,-801.94"/>
</g>
<!-- shell -->
<g id="node40" class="node">
<title>shell</title>
<polygon fill="none" stroke="black" points="477.12,-478.17 423.12,-478.17 423.12,-442.17 477.12,-442.17 477.12,-478.17"/>
<text text-anchor="middle" x="450.12" y="-455.87" font-family="sans-serif" font-size="14.00">shell</text>
</g>
<!-- covalence&#45;&gt;shell -->
<g id="edge12" class="edge">
<title>covalence&#45;&gt;shell</title>
<path fill="none" stroke="black" d="M65.71,-797.06C81.04,-736.04 140.33,-538.26 277.25,-476.17 320.16,-456.71 375.19,-455.12 411.27,-456.79"/>
<polygon fill="black" stroke="black" points="411.04,-460.28 421.23,-457.37 411.45,-453.29 411.04,-460.28"/>
</g>
<!-- store -->
<g id="node44" class="node">
<title>store</title>
<polygon fill="none" stroke="black" points="736.38,-1408.17 682.38,-1408.17 682.38,-1372.17 736.38,-1372.17 736.38,-1408.17"/>
<text text-anchor="middle" x="709.38" y="-1385.87" font-family="sans-serif" font-size="14.00">store</text>
</g>
<!-- covalence&#45;&gt;store -->
<g id="edge13" class="edge">
<title>covalence&#45;&gt;store</title>
<path fill="none" stroke="black" d="M63.61,-833.39C70.48,-887.98 95.45,-1054.01 157,-1176.17 196.57,-1254.71 324.98,-1447.08 404.25,-1485.17 498.75,-1530.58 620.02,-1456.68 676.63,-1415.24"/>
<polygon fill="black" stroke="black" points="678.65,-1418.09 684.57,-1409.31 674.47,-1412.49 678.65,-1418.09"/>
</g>
<!-- wasm -->
<g id="node46" class="node">
<title>wasm</title>
<polygon fill="none" stroke="black" points="1032.12,-1285.17 977.88,-1285.17 977.88,-1249.17 1032.12,-1249.17 1032.12,-1285.17"/>
<text text-anchor="middle" x="1005" y="-1262.87" font-family="sans-serif" font-size="14.00">wasm</text>
</g>
<!-- covalence&#45;&gt;wasm -->
<g id="edge14" class="edge">
<title>covalence&#45;&gt;wasm</title>
<path fill="none" stroke="black" d="M63.81,-833.63C70.38,-879.28 93.06,-999.09 157,-1072.17 196.86,-1117.74 222.25,-1110.86 277.25,-1136.17 444.41,-1213.08 481.94,-1253.02 662.75,-1287.17 703.47,-1294.86 720.62,-1308.76 756,-1287.17 785.86,-1268.95 762.14,-1235.39 792,-1217.17 843.88,-1185.51 870.57,-1199.6 928.75,-1217.17 945.3,-1222.17 961.55,-1232.13 974.69,-1241.86"/>
<polygon fill="black" stroke="black" points="972.43,-1244.53 982.48,-1247.9 976.72,-1239 972.43,-1244.53"/>
</g>
<!-- acset -->
<g id="node2" class="node">
<title>acset</title>
<polygon fill="none" stroke="black" points="887.38,-912.17 833.38,-912.17 833.38,-876.17 887.38,-876.17 887.38,-912.17"/>
<text text-anchor="middle" x="860.38" y="-889.87" font-family="sans-serif" font-size="14.00">acset</text>
</g>
<!-- alethe -->
<g id="node3" class="node">
<title>alethe</title>
<polygon fill="none" stroke="black" points="607.62,-306.17 551.12,-306.17 551.12,-270.17 607.62,-270.17 607.62,-306.17"/>
<text text-anchor="middle" x="579.38" y="-283.87" font-family="sans-serif" font-size="14.00">alethe</text>
</g>
<!-- core -->
<g id="node6" class="node">
<title>core</title>
<polygon fill="#ffd6d6" stroke="black" points="1032,-176.17 978,-176.17 978,-140.17 1032,-140.17 1032,-176.17"/>
<text text-anchor="middle" x="1005" y="-153.87" font-family="sans-serif" font-size="14.00">core</text>
</g>
<!-- alethe&#45;&gt;core -->
<g id="edge15" class="edge">
<title>alethe&#45;&gt;core</title>
<path fill="none" stroke="black" d="M608,-273.67C647.67,-253.43 723.55,-216.87 792,-196.17 851.7,-178.11 923.62,-167.45 966.48,-162.22"/>
<polygon fill="black" stroke="black" points="966.74,-165.71 976.26,-161.06 965.92,-158.76 966.74,-165.71"/>
</g>
<!-- init -->
<g id="node17" class="node">
<title>init</title>
<polygon fill="none" stroke="black" points="736.38,-398.17 682.38,-398.17 682.38,-362.17 736.38,-362.17 736.38,-398.17"/>
<text text-anchor="middle" x="709.38" y="-375.87" font-family="sans-serif" font-size="14.00">init</text>
</g>
<!-- alethe&#45;&gt;init -->
<g id="edge16" class="edge">
<title>alethe&#45;&gt;init</title>
<path fill="none" stroke="black" d="M605.53,-306.67C621.8,-318.59 643.46,-334.38 662.75,-348.17 666.1,-350.56 669.59,-353.04 673.08,-355.51"/>
<polygon fill="black" stroke="black" points="670.83,-358.21 681.02,-361.1 674.86,-352.48 670.83,-358.21"/>
</g>
<!-- sexp -->
<g id="node39" class="node">
<title>sexp</title>
<polygon fill="#ffd6d6" stroke="black" points="1135.25,-558.17 1081.25,-558.17 1081.25,-522.17 1135.25,-522.17 1135.25,-558.17"/>
<text text-anchor="middle" x="1108.25" y="-535.87" font-family="sans-serif" font-size="14.00">sexp</text>
</g>
<!-- alethe&#45;&gt;sexp -->
<g id="edge17" class="edge">
<title>alethe&#45;&gt;sexp</title>
<path fill="none" stroke="black" d="M608,-298C623.89,-303.47 644.31,-310.15 662.75,-315.17 704.81,-326.61 1011.81,-374.22 1045.25,-402.17 1078.49,-429.95 1094.63,-479.22 1101.91,-510.75"/>
<polygon fill="black" stroke="black" points="1098.46,-511.36 1103.97,-520.41 1105.31,-509.9 1098.46,-511.36"/>
</g>
<!-- smt -->
<g id="node41" class="node">
<title>smt</title>
<polygon fill="none" stroke="black" points="736.38,-306.17 682.38,-306.17 682.38,-270.17 736.38,-270.17 736.38,-306.17"/>
<text text-anchor="middle" x="709.38" y="-283.87" font-family="sans-serif" font-size="14.00">smt</text>
</g>
<!-- alethe&#45;&gt;smt -->
<g id="edge18" class="edge">
<title>alethe&#45;&gt;smt</title>
<path fill="none" stroke="black" d="M607.83,-288.17C626.26,-288.17 650.75,-288.17 670.95,-288.17"/>
<polygon fill="black" stroke="black" points="670.76,-291.67 680.76,-288.17 670.76,-284.67 670.76,-291.67"/>
</g>
<!-- types -->
<g id="node45" class="node">
<title>types</title>
<polygon fill="#ffd6d6" stroke="black" points="1360.5,-237.17 1306.5,-237.17 1306.5,-201.17 1360.5,-201.17 1360.5,-237.17"/>
<text text-anchor="middle" x="1333.5" y="-214.87" font-family="sans-serif" font-size="14.00">types</text>
</g>
<!-- alethe&#45;&gt;types -->
<g id="edge19" class="edge">
<title>alethe&#45;&gt;types</title>
<path fill="none" stroke="black" d="M595.81,-269.85C611.48,-251.97 637.03,-224.67 662.75,-205.17 715.15,-165.44 728.97,-151.9 792,-133.17 995.89,-72.59 1084.73,-21.59 1270.5,-125.17 1295.62,-139.18 1312.35,-168.14 1322.03,-190.23"/>
<polygon fill="black" stroke="black" points="1318.73,-191.41 1325.77,-199.34 1325.21,-188.76 1318.73,-191.41"/>
</g>
<!-- arrow -->
<g id="node4" class="node">
<title>arrow</title>
<polygon fill="none" stroke="black" points="606.38,-966.17 552.38,-966.17 552.38,-930.17 606.38,-930.17 606.38,-966.17"/>
<text text-anchor="middle" x="579.38" y="-943.87" font-family="sans-serif" font-size="14.00">arrow</text>
</g>
<!-- client&#45;&gt;hash -->
<g id="edge20" class="edge">
<title>client&#45;&gt;hash</title>
<path fill="none" stroke="black" d="M349.95,-889.36C402.78,-892.13 525.67,-900.42 626.75,-921.17 643.14,-924.53 646.42,-928.53 662.75,-932.17 717.47,-944.35 781.98,-952.35 821.79,-956.57"/>
<polygon fill="black" stroke="black" points="821.25,-960.03 831.56,-957.58 821.97,-953.07 821.25,-960.03"/>
</g>
<!-- client&#45;&gt;shell -->
<g id="edge21" class="edge">
<title>client&#45;&gt;shell</title>
<path fill="none" stroke="black" d="M350.05,-877.45C357.02,-873.36 363.83,-868 368.25,-861.17 439.47,-750.98 370.77,-695.03 404.25,-568.17 411.62,-540.25 424.65,-510.02 434.78,-488.67"/>
<polygon fill="black" stroke="black" points="437.9,-490.25 439.1,-479.73 431.6,-487.2 437.9,-490.25"/>
</g>
<!-- client&#45;&gt;store -->
<g id="edge22" class="edge">
<title>client&#45;&gt;store</title>
<path fill="none" stroke="black" d="M350.21,-898.15C387.91,-913.69 456.84,-947.15 496,-997.17 527.19,-1037.01 510.12,-1059.55 532,-1105.17 565.61,-1175.26 585.9,-1186.04 626.75,-1252.17 649.97,-1289.76 675.77,-1333.78 692.03,-1361.82"/>
<polygon fill="black" stroke="black" points="688.97,-1363.52 697.01,-1370.42 695.03,-1360.01 688.97,-1363.52"/>
</g>
<!-- pure -->
<g id="node31" class="node">
<title>pure</title>
<polygon fill="#ffd6d6" stroke="black" points="1135.25,-214.17 1081.25,-214.17 1081.25,-178.17 1135.25,-178.17 1135.25,-214.17"/>
<text text-anchor="middle" x="1108.25" y="-191.87" font-family="sans-serif" font-size="14.00">pure</text>
</g>
<!-- core&#45;&gt;pure -->
<g id="edge23" class="edge">
<title>core&#45;&gt;pure</title>
<path fill="none" stroke="black" d="M1032.34,-168.05C1043.94,-172.41 1057.77,-177.6 1070.37,-182.33"/>
<polygon fill="black" stroke="black" points="1069.03,-185.57 1079.63,-185.8 1071.49,-179.01 1069.03,-185.57"/>
</g>
<!-- core&#45;&gt;sexp -->
<g id="edge24" class="edge">
<title>core&#45;&gt;sexp</title>
<path fill="none" stroke="black" d="M1032.29,-171.9C1037.27,-175.59 1041.94,-180.02 1045.25,-185.17 1079.98,-239.29 1098.91,-435.38 1105.02,-510.55"/>
<polygon fill="black" stroke="black" points="1101.53,-510.74 1105.8,-520.43 1108.5,-510.19 1101.53,-510.74"/>
</g>
<!-- core&#45;&gt;types -->
<g id="edge25" class="edge">
<title>core&#45;&gt;types</title>
<path fill="none" stroke="black" d="M1032.22,-154.01C1080.99,-147.39 1188.13,-138.16 1270.5,-169.17 1284.25,-174.35 1297.27,-183.84 1307.79,-193.17"/>
<polygon fill="black" stroke="black" points="1305.21,-195.55 1314.9,-199.84 1310,-190.45 1305.21,-195.55"/>
</g>
<!-- core&#45;test&#45;guest -->
<g id="node7" class="node">
<title>core&#45;test&#45;guest</title>
<polygon fill="none" stroke="black" points="121,-1310.17 0,-1310.17 0,-1274.17 121,-1274.17 121,-1310.17"/>
<text text-anchor="middle" x="60.5" y="-1287.87" font-family="sans-serif" font-size="14.00">core&#45;test&#45;guest</text>
</g>
<!-- crypto&#45;sig -->
<g id="node8" class="node">
<title>crypto&#45;sig</title>
<polygon fill="none" stroke="black" points="241.25,-1384.17 157,-1384.17 157,-1348.17 241.25,-1348.17 241.25,-1384.17"/>
<text text-anchor="middle" x="199.12" y="-1361.87" font-family="sans-serif" font-size="14.00">crypto&#45;sig</text>
</g>
<!-- egglog -->
<g id="node9" class="node">
<title>egglog</title>
<polygon fill="none" stroke="black" points="1035.5,-322.17 974.5,-322.17 974.5,-286.17 1035.5,-286.17 1035.5,-322.17"/>
<text text-anchor="middle" x="1005" y="-299.87" font-family="sans-serif" font-size="14.00">egglog</text>
</g>
<!-- egglog&#45;&gt;sexp -->
<g id="edge26" class="edge">
<title>egglog&#45;&gt;sexp</title>
<path fill="none" stroke="black" d="M1033.02,-322.56C1037.59,-326.62 1041.92,-331.2 1045.25,-336.17 1082.04,-391.01 1097.66,-468.48 1103.75,-510.41"/>
<polygon fill="black" stroke="black" points="1100.27,-510.79 1105.09,-520.23 1107.21,-509.85 1100.27,-510.79"/>
</g>
<!-- egglog&#45;&gt;types -->
<g id="edge27" class="edge">
<title>egglog&#45;&gt;types</title>
<path fill="none" stroke="black" d="M1035.68,-310.53C1086.71,-319.89 1193.05,-332.44 1270.5,-294.17 1290.88,-284.1 1306.97,-263.89 1317.65,-246.98"/>
<polygon fill="black" stroke="black" points="1320.4,-249.19 1322.52,-238.81 1314.39,-245.6 1320.4,-249.19"/>
</g>
<!-- forsp -->
<g id="node10" class="node">
<title>forsp</title>
<polygon fill="none" stroke="black" points="736.38,-668.17 682.38,-668.17 682.38,-632.17 736.38,-632.17 736.38,-668.17"/>
<text text-anchor="middle" x="709.38" y="-645.87" font-family="sans-serif" font-size="14.00">forsp</text>
</g>
<!-- forsp&#45;&gt;hash -->
<g id="edge28" class="edge">
<title>forsp&#45;&gt;hash</title>
<path fill="none" stroke="black" d="M736.74,-660.56C744.06,-664.68 751.28,-670.14 756,-677.17 817.12,-768.17 730.44,-830.47 792,-921.17 799.51,-932.24 811.29,-940.58 822.91,-946.65"/>
<polygon fill="black" stroke="black" points="821.07,-949.65 831.61,-950.76 824.06,-943.32 821.07,-949.65"/>
</g>
<!-- forsp&#45;&gt;sexp -->
<g id="edge29" class="edge">
<title>forsp&#45;&gt;sexp</title>
<path fill="none" stroke="black" d="M736.55,-663.84C796.75,-693.18 947.38,-754.45 1045.25,-689.17 1085.14,-662.56 1099.41,-604.93 1104.48,-569.65"/>
<polygon fill="black" stroke="black" points="1107.9,-570.48 1105.68,-560.13 1100.96,-569.61 1107.9,-570.48"/>
</g>
<!-- fuse&#45;&gt;hash -->
<g id="edge30" class="edge">
<title>fuse&#45;&gt;hash</title>
<path fill="none" stroke="black" d="M606.75,-1068.18C641.27,-1054.99 703.55,-1030.78 756,-1008.17 778.38,-998.52 803.16,-987.04 822.85,-977.73"/>
<polygon fill="black" stroke="black" points="824.32,-980.91 831.85,-973.46 821.31,-974.59 824.32,-980.91"/>
</g>
<!-- fuse&#45;&gt;object -->
<g id="edge31" class="edge">
<title>fuse&#45;&gt;object</title>
<path fill="none" stroke="black" d="M606.42,-1065.73C614.19,-1060.74 621.92,-1054.22 626.75,-1046.17 699.23,-925.33 586.1,-849.41 662.75,-731.17 665.04,-727.64 667.96,-724.51 671.22,-721.75"/>
<polygon fill="black" stroke="black" points="673.02,-724.77 679.19,-716.16 669,-719.04 673.02,-724.77"/>
</g>
<!-- fuse&#45;&gt;store -->
<g id="edge32" class="edge">
<title>fuse&#45;&gt;store</title>
<path fill="none" stroke="black" d="M587.28,-1096.44C601.13,-1132.9 633.47,-1217.19 662.75,-1287.17 673.37,-1312.56 686.1,-1341.15 695.41,-1361.76"/>
<polygon fill="black" stroke="black" points="692.13,-1362.99 699.44,-1370.66 698.5,-1360.1 692.13,-1362.99"/>
</g>
<!-- git&#45;&gt;hash -->
<g id="edge33" class="edge">
<title>git&#45;&gt;hash</title>
<path fill="none" stroke="black" d="M477.51,-1148.44C512.31,-1140.52 575.17,-1124.93 626.75,-1105.17 686.61,-1082.23 701.77,-1075.34 756,-1041.17 782.26,-1024.62 809.83,-1002.77 829.89,-985.93"/>
<polygon fill="black" stroke="black" points="832.03,-988.7 837.39,-979.56 827.5,-983.36 832.03,-988.7"/>
</g>
<!-- git&#45;&gt;object -->
<g id="edge34" class="edge">
<title>git&#45;&gt;object</title>
<path fill="none" stroke="black" d="M463.43,-1136.03C478.38,-1114.62 504.97,-1078.48 532,-1051.17 569.97,-1012.8 599.9,-1022 626.75,-975.17 681.28,-880.07 601.63,-822.17 662.75,-731.17 665.09,-727.68 668.06,-724.57 671.34,-721.83"/>
<polygon fill="black" stroke="black" points="673.14,-724.84 679.33,-716.25 669.13,-719.1 673.14,-724.84"/>
</g>
<!-- sqlite -->
<g id="node43" class="node">
<title>sqlite</title>
<polygon fill="none" stroke="black" points="887.38,-1354.17 833.38,-1354.17 833.38,-1318.17 887.38,-1318.17 887.38,-1354.17"/>
<text text-anchor="middle" x="860.38" y="-1331.87" font-family="sans-serif" font-size="14.00">sqlite</text>
</g>
<!-- git&#45;&gt;sqlite -->
<g id="edge35" class="edge">
<title>git&#45;&gt;sqlite</title>
<path fill="none" stroke="black" d="M477.45,-1164.93C513.28,-1180.29 578.47,-1210.82 626.75,-1248.17 645.41,-1262.6 642.45,-1275.15 662.75,-1287.17 712.86,-1316.85 780.38,-1328.64 821.85,-1333.26"/>
<polygon fill="black" stroke="black" points="821.26,-1336.72 831.56,-1334.25 821.97,-1329.75 821.26,-1336.72"/>
</g>
<!-- git&#45;&gt;store -->
<g id="edge36" class="edge">
<title>git&#45;&gt;store</title>
<path fill="none" stroke="black" d="M477.46,-1169.95C484,-1174.64 490.67,-1180.15 496,-1186.17 518.17,-1211.17 510.4,-1226.68 532,-1252.17 573.19,-1300.77 633.91,-1343.69 672.28,-1368.29"/>
<polygon fill="black" stroke="black" points="670.4,-1371.25 680.73,-1373.63 674.15,-1365.33 670.4,-1371.25"/>
</g>
<!-- grammar -->
<g id="node13" class="node">
<title>grammar</title>
<polygon fill="none" stroke="black" points="1041.88,-490.17 968.12,-490.17 968.12,-454.17 1041.88,-454.17 1041.88,-490.17"/>
<text text-anchor="middle" x="1005" y="-467.87" font-family="sans-serif" font-size="14.00">grammar</text>
</g>
<!-- graph -->
<g id="node14" class="node">
<title>graph</title>
<polygon fill="none" stroke="black" points="477.12,-1476.17 423.12,-1476.17 423.12,-1440.17 477.12,-1440.17 477.12,-1476.17"/>
<text text-anchor="middle" x="450.12" y="-1453.87" font-family="sans-serif" font-size="14.00">graph</text>
</g>
<!-- graph&#45;&gt;hash -->
<g id="edge37" class="edge">
<title>graph&#45;&gt;hash</title>
<path fill="none" stroke="black" d="M477.47,-1445C515.46,-1424.77 585.54,-1382.61 626.75,-1328.17 654,-1292.17 631.96,-1266.19 662.75,-1233.17 693.87,-1199.79 723.89,-1222.6 756,-1190.17 813.22,-1132.39 841.83,-1037.36 853.22,-989.56"/>
<polygon fill="black" stroke="black" points="856.6,-990.49 855.42,-979.96 849.78,-988.93 856.6,-990.49"/>
</g>
<!-- parse -->
<g id="node29" class="node">
<title>parse</title>
<polygon fill="#ffd6d6" stroke="black" points="1247.88,-783.17 1193.88,-783.17 1193.88,-747.17 1247.88,-747.17 1247.88,-783.17"/>
<text text-anchor="middle" x="1220.88" y="-760.87" font-family="sans-serif" font-size="14.00">parse</text>
</g>
<!-- graph&#45;&gt;parse -->
<g id="edge38" class="edge">
<title>graph&#45;&gt;parse</title>
<path fill="none" stroke="black" d="M454.78,-1476.63C462.51,-1510.35 483.9,-1581.5 532,-1615.17 676.96,-1716.63 785.38,-1751.86 928.75,-1648.17 1076.49,-1541.32 1190.2,-935.4 1214.88,-794.46"/>
<polygon fill="black" stroke="black" points="1218.29,-795.29 1216.55,-784.84 1211.39,-794.09 1218.29,-795.29"/>
</g>
<!-- rand -->
<g id="node35" class="node">
<title>rand</title>
<polygon fill="none" stroke="black" points="1032,-983.17 978,-983.17 978,-947.17 1032,-947.17 1032,-983.17"/>
<text text-anchor="middle" x="1005" y="-960.87" font-family="sans-serif" font-size="14.00">rand</text>
</g>
<!-- hash&#45;&gt;rand -->
<g id="edge39" class="edge">
<title>hash&#45;&gt;rand</title>
<path fill="none" stroke="black" d="M887.87,-961.1C909.88,-961.87 941.48,-962.98 966.16,-963.84"/>
<polygon fill="black" stroke="black" points="966.02,-967.34 976.14,-964.19 966.27,-960.34 966.02,-967.34"/>
</g>
<!-- hol&#45;&gt;core -->
<g id="edge40" class="edge">
<title>hol&#45;&gt;core</title>
<path fill="none" stroke="black" d="M887.87,-78.37C910.48,-93.91 943.21,-116.4 968.17,-133.55"/>
<polygon fill="black" stroke="black" points="966.18,-136.43 976.4,-139.21 970.14,-130.66 966.18,-136.43"/>
</g>
<!-- init&#45;&gt;core -->
<g id="edge41" class="edge">
<title>init&#45;&gt;core</title>
<path fill="none" stroke="black" d="M724.28,-361.87C733.71,-349.1 746.21,-331.48 756,-315.17 774.21,-284.84 765.39,-267.49 792,-244.17 840.45,-201.72 869.49,-221.41 928.75,-196.17 941.56,-190.71 955.24,-184.07 967.38,-177.86"/>
<polygon fill="black" stroke="black" points="968.97,-180.98 976.24,-173.27 965.75,-174.76 968.97,-180.98"/>
</g>
<!-- init&#45;&gt;grammar -->
<g id="edge42" class="edge">
<title>init&#45;&gt;grammar</title>
<path fill="none" stroke="black" d="M736.86,-397.87C743.25,-402.38 749.97,-407.32 756,-412.17 772.92,-425.76 772.31,-436.04 792,-445.17 844.53,-469.53 911.79,-474.23 956.31,-474.18"/>
<polygon fill="black" stroke="black" points="956.19,-477.68 966.16,-474.08 956.12,-470.68 956.19,-477.68"/>
</g>
<!-- init&#45;&gt;hash -->
<g id="edge43" class="edge">
<title>init&#45;&gt;hash</title>
<path fill="none" stroke="black" d="M714.22,-398.39C722.64,-438.74 742.99,-538.75 756,-623.17 766.16,-689.09 755.27,-865.49 792,-921.17 799.43,-932.43 811.3,-940.83 823.02,-946.9"/>
<polygon fill="black" stroke="black" points="821.26,-949.94 831.8,-951 824.22,-943.6 821.26,-949.94"/>
</g>
<!-- init&#45;&gt;hol -->
<g id="edge44" class="edge">
<title>init&#45;&gt;hol</title>
<path fill="none" stroke="black" d="M725.5,-361.76C735.23,-349.22 747.58,-331.92 756,-315.17 778.9,-269.58 773.28,-253.63 792,-206.17 808.44,-164.49 830.75,-117.69 845.1,-88.56"/>
<polygon fill="black" stroke="black" points="848.21,-90.19 849.52,-79.67 841.94,-87.08 848.21,-90.19"/>
</g>
<!-- metamath -->
<g id="node24" class="node">
<title>metamath</title>
<polygon fill="none" stroke="black" points="1045.25,-680.17 964.75,-680.17 964.75,-644.17 1045.25,-644.17 1045.25,-680.17"/>
<text text-anchor="middle" x="1005" y="-657.87" font-family="sans-serif" font-size="14.00">metamath</text>
</g>
<!-- init&#45;&gt;metamath -->
<g id="edge45" class="edge">
<title>init&#45;&gt;metamath</title>
<path fill="none" stroke="black" d="M725.39,-398.59C741.31,-417.79 767.49,-448.47 792,-473.17 824.68,-506.11 923.89,-592.76 974.14,-636.35"/>
<polygon fill="black" stroke="black" points="971.65,-638.82 981.5,-642.73 976.23,-633.53 971.65,-638.82"/>
</g>
<!-- init&#45;&gt;sexp -->
<g id="edge46" class="edge">
<title>init&#45;&gt;sexp</title>
<path fill="none" stroke="black" d="M736.73,-378.3C778.25,-376.06 861.13,-374.46 928.75,-391.17 956.45,-398.01 1023.67,-426.5 1045.25,-445.17 1066.56,-463.61 1083.41,-491.1 1094.14,-511.78"/>
<polygon fill="black" stroke="black" points="1090.91,-513.14 1098.5,-520.53 1097.17,-510.02 1090.91,-513.14"/>
</g>
<!-- spectec -->
<g id="node42" class="node">
<title>spectec</title>
<polygon fill="none" stroke="black" points="895,-436.17 825.75,-436.17 825.75,-400.17 895,-400.17 895,-436.17"/>
<text text-anchor="middle" x="860.38" y="-413.87" font-family="sans-serif" font-size="14.00">spectec</text>
</g>
<!-- init&#45;&gt;spectec -->
<g id="edge47" class="edge">
<title>init&#45;&gt;spectec</title>
<path fill="none" stroke="black" d="M736.67,-386.88C758.21,-392.37 789.18,-400.27 814.61,-406.75"/>
<polygon fill="black" stroke="black" points="813.47,-410.07 824.02,-409.15 815.2,-403.29 813.47,-410.07"/>
</g>
<!-- init&#45;&gt;types -->
<g id="edge48" class="edge">
<title>init&#45;&gt;types</title>
<path fill="none" stroke="black" d="M736.7,-366.85C782.04,-344.52 878.32,-299.77 964.75,-277.17 1097.28,-242.51 1136.58,-267.01 1270.5,-238.17 1278.67,-236.41 1287.32,-234.07 1295.48,-231.64"/>
<polygon fill="black" stroke="black" points="1296.25,-235.07 1304.77,-228.76 1294.18,-228.38 1296.25,-235.07"/>
</g>
<!-- json -->
<g id="node18" class="node">
<title>json</title>
<polygon fill="none" stroke="black" points="887.38,-1408.17 833.38,-1408.17 833.38,-1372.17 887.38,-1372.17 887.38,-1408.17"/>
<text text-anchor="middle" x="860.38" y="-1385.87" font-family="sans-serif" font-size="14.00">json</text>
</g>
<!-- kernel -->
<g id="node19" class="node">
<title>kernel</title>
<polygon fill="none" stroke="black" points="608,-646.17 550.75,-646.17 550.75,-610.17 608,-610.17 608,-646.17"/>
<text text-anchor="middle" x="579.38" y="-623.87" font-family="sans-serif" font-size="14.00">kernel</text>
</g>
<!-- kernel&#45;&gt;hash -->
<g id="edge49" class="edge">
<title>kernel&#45;&gt;hash</title>
<path fill="none" stroke="black" d="M593.99,-646.58C603.83,-660.35 617.03,-679.89 626.75,-698.17 646.4,-735.12 638.3,-751.21 662.75,-785.17 694.82,-829.72 719.9,-824.81 756,-866.17 775.21,-888.18 770.78,-901.09 792,-921.17 801.07,-929.76 812.38,-937.23 823.13,-943.27"/>
<polygon fill="black" stroke="black" points="821.36,-946.3 831.83,-947.91 824.64,-940.12 821.36,-946.3"/>
</g>
<!-- kernel&#45;&gt;init -->
<g id="edge50" class="edge">
<title>kernel&#45;&gt;init</title>
<path fill="none" stroke="black" d="M593.58,-609.94C603.34,-596.09 616.62,-576.39 626.75,-558.17 655,-507.36 681.93,-445.01 696.7,-409.21"/>
<polygon fill="black" stroke="black" points="699.93,-410.55 700.48,-399.97 693.45,-407.9 699.93,-410.55"/>
</g>
<!-- kernel&#45;&gt;object -->
<g id="edge51" class="edge">
<title>kernel&#45;&gt;object</title>
<path fill="none" stroke="black" d="M608.2,-644.74C624.16,-654.24 644.58,-666.39 662.75,-677.17 665.33,-678.7 668,-680.28 670.68,-681.87"/>
<polygon fill="black" stroke="black" points="668.69,-684.76 679.08,-686.84 672.26,-678.74 668.69,-684.76"/>
</g>
<!-- kernel&#45;&gt;sexp -->
<g id="edge52" class="edge">
<title>kernel&#45;&gt;sexp</title>
<path fill="none" stroke="black" d="M608.39,-623.95C695.34,-610.82 959.88,-570.58 1045.25,-554.17 1053.2,-552.64 1061.7,-550.84 1069.76,-549.04"/>
<polygon fill="black" stroke="black" points="1070.33,-552.5 1079.3,-546.88 1068.78,-545.68 1070.33,-552.5"/>
</g>
<!-- kernel&#45;&gt;store -->
<g id="edge53" class="edge">
<title>kernel&#45;&gt;store</title>
<path fill="none" stroke="black" d="M583.68,-646.63C591.87,-692.78 613.39,-816.96 626.75,-921.17 647.54,-1083.29 621.12,-1129.11 662.75,-1287.17 669.67,-1313.46 682.53,-1341.57 692.84,-1361.77"/>
<polygon fill="black" stroke="black" points="689.66,-1363.26 697.4,-1370.5 695.87,-1360.02 689.66,-1363.26"/>
</g>
<!-- kv -->
<g id="node20" class="node">
<title>kv</title>
<polygon fill="none" stroke="black" points="226.12,-1438.17 172.12,-1438.17 172.12,-1402.17 226.12,-1402.17 226.12,-1438.17"/>
<text text-anchor="middle" x="199.12" y="-1415.87" font-family="sans-serif" font-size="14.00">kv</text>
</g>
<!-- lean -->
<g id="node21" class="node">
<title>lean</title>
<polygon fill="none" stroke="black" points="87.5,-1364.17 33.5,-1364.17 33.5,-1328.17 87.5,-1328.17 87.5,-1364.17"/>
<text text-anchor="middle" x="60.5" y="-1341.87" font-family="sans-serif" font-size="14.00">lean</text>
</g>
<!-- llm -->
<g id="node22" class="node">
<title>llm</title>
<polygon fill="none" stroke="black" points="226.12,-1020.17 172.12,-1020.17 172.12,-984.17 226.12,-984.17 226.12,-1020.17"/>
<text text-anchor="middle" x="199.12" y="-997.87" font-family="sans-serif" font-size="14.00">llm</text>
</g>
<!-- llm&#45;&gt;proto -->
<g id="edge54" class="edge">
<title>llm&#45;&gt;proto</title>
<path fill="none" stroke="black" d="M206.58,-983.79C217.45,-954.88 241.77,-898.28 277.25,-861.17 279.95,-858.34 283.02,-855.7 286.24,-853.25"/>
<polygon fill="black" stroke="black" points="288.01,-856.28 294.33,-847.78 284.09,-850.49 288.01,-856.28"/>
</g>
<!-- lsp&#45;&gt;sexp -->
<g id="edge55" class="edge">
<title>lsp&#45;&gt;sexp</title>
<path fill="none" stroke="black" d="M887.62,-623.84C924.48,-622.45 992.95,-616.48 1045.25,-592.17 1058.79,-585.88 1071.77,-575.85 1082.32,-566.27"/>
<polygon fill="black" stroke="black" points="1084.64,-568.9 1089.48,-559.47 1079.82,-563.82 1084.64,-568.9"/>
</g>
<!-- lsp&#45;&gt;wasm -->
<g id="edge56" class="edge">
<title>lsp&#45;&gt;wasm</title>
<path fill="none" stroke="black" d="M869.19,-642.6C883.08,-676.02 912.16,-749.1 928.75,-813.17 949.88,-894.8 987.32,-1150.45 999.81,-1237.67"/>
<polygon fill="black" stroke="black" points="996.31,-1237.92 1001.19,-1247.33 1003.24,-1236.93 996.31,-1237.92"/>
</g>
<!-- metamath&#45;&gt;parse -->
<g id="edge57" class="edge">
<title>metamath&#45;&gt;parse</title>
<path fill="none" stroke="black" d="M1044.24,-680.58C1083.55,-699.52 1144.36,-728.8 1183.13,-747.47"/>
<polygon fill="black" stroke="black" points="1181.55,-750.6 1192.07,-751.78 1184.58,-744.29 1181.55,-750.6"/>
</g>
<!-- metamath&#45;&gt;sexp -->
<g id="edge58" class="edge">
<title>metamath&#45;&gt;sexp</title>
<path fill="none" stroke="black" d="M1030.62,-643.9C1035.7,-639.64 1040.84,-634.95 1045.25,-630.17 1062.83,-611.11 1079.32,-586.74 1090.86,-568.17"/>
<polygon fill="black" stroke="black" points="1093.74,-570.18 1095.95,-559.81 1087.76,-566.53 1093.74,-570.18"/>
</g>
<!-- multiformat -->
<g id="node25" class="node">
<title>multiformat</title>
<polygon fill="none" stroke="black" points="754.5,-776.17 664.25,-776.17 664.25,-740.17 754.5,-740.17 754.5,-776.17"/>
<text text-anchor="middle" x="709.38" y="-753.87" font-family="sans-serif" font-size="14.00">multiformat</text>
</g>
<!-- multiformat&#45;&gt;acset -->
<g id="edge59" class="edge">
<title>multiformat&#45;&gt;acset</title>
<path fill="none" stroke="black" d="M741.21,-776.44C746.57,-780.51 751.77,-785.13 756,-790.17 780.29,-819.11 764.55,-841.22 792,-867.17 800.52,-875.22 811.74,-880.98 822.57,-885.06"/>
<polygon fill="black" stroke="black" points="821.14,-888.27 831.73,-888.12 823.35,-881.63 821.14,-888.27"/>
</g>
<!-- multiformat&#45;&gt;hash -->
<g id="edge60" class="edge">
<title>multiformat&#45;&gt;hash</title>
<path fill="none" stroke="black" d="M742.85,-776.63C747.8,-780.58 752.43,-785.11 756,-790.17 790.77,-839.53 755.12,-873.36 792,-921.17 799.96,-931.49 811.49,-939.57 822.77,-945.64"/>
<polygon fill="black" stroke="black" points="821.07,-948.7 831.59,-949.97 824.16,-942.42 821.07,-948.7"/>
</g>
<!-- multiformat&#45;&gt;parse -->
<g id="edge61" class="edge">
<title>multiformat&#45;&gt;parse</title>
<path fill="none" stroke="black" d="M754.85,-759.36C766.91,-759.66 779.95,-759.95 792,-760.17 936.24,-762.78 1107.85,-764.31 1182.31,-764.89"/>
<polygon fill="black" stroke="black" points="1182.29,-768.39 1192.31,-764.97 1182.34,-761.39 1182.29,-768.39"/>
</g>
<!-- object&#45;&gt;hash -->
<g id="edge62" class="edge">
<title>object&#45;&gt;hash</title>
<path fill="none" stroke="black" d="M738.47,-715.79C745.12,-719.76 751.56,-724.84 756,-731.17 805.37,-801.52 742.3,-851.05 792,-921.17 799.66,-931.97 811.33,-940.22 822.81,-946.29"/>
<polygon fill="black" stroke="black" points="821.29,-949.44 831.83,-950.6 824.32,-943.13 821.29,-949.44"/>
</g>
<!-- object&#45;&gt;parse -->
<g id="edge63" class="edge">
<title>object&#45;&gt;parse</title>
<path fill="none" stroke="black" d="M738.28,-708.94C754.03,-711.55 774.08,-714.74 792,-717.17 936.14,-736.72 1108.37,-754.28 1182.71,-761.58"/>
<polygon fill="black" stroke="black" points="1181.98,-765.03 1192.27,-762.52 1182.66,-758.06 1181.98,-765.03"/>
</g>
<!-- opentheory&#45;&gt;hol -->
<g id="edge64" class="edge">
<title>opentheory&#45;&gt;hol</title>
<path fill="none" stroke="black" d="M368.5,-45.51C471.81,-48.59 725.49,-56.17 821.62,-59.04"/>
<polygon fill="black" stroke="black" points="821.45,-62.54 831.55,-59.34 821.66,-55.54 821.45,-62.54"/>
</g>
<!-- parquet -->
<g id="node28" class="node">
<title>parquet</title>
<polygon fill="none" stroke="black" points="483.62,-1042.17 416.62,-1042.17 416.62,-1006.17 483.62,-1006.17 483.62,-1042.17"/>
<text text-anchor="middle" x="450.12" y="-1019.87" font-family="sans-serif" font-size="14.00">parquet</text>
</g>
<!-- parquet&#45;&gt;arrow -->
<g id="edge65" class="edge">
<title>parquet&#45;&gt;arrow</title>
<path fill="none" stroke="black" d="M481.93,-1005.77C500.13,-994.9 523.28,-981.08 542.33,-969.7"/>
<polygon fill="black" stroke="black" points="544.06,-972.74 550.85,-964.61 540.47,-966.73 544.06,-972.74"/>
</g>
<!-- pure&#45;trusted -->
<g id="node33" class="node">
<title>pure&#45;trusted</title>
<polygon fill="#ffd6d6" stroke="black" points="1270.5,-214.17 1171.25,-214.17 1171.25,-178.17 1270.5,-178.17 1270.5,-214.17"/>
<text text-anchor="middle" x="1220.88" y="-191.87" font-family="sans-serif" font-size="14.00">pure&#45;trusted</text>
</g>
<!-- pure&#45;&gt;pure&#45;trusted -->
<g id="edge66" class="edge">
<title>pure&#45;&gt;pure&#45;trusted</title>
<path fill="none" stroke="black" d="M1135.75,-196.17C1143.04,-196.17 1151.27,-196.17 1159.64,-196.17"/>
<polygon fill="black" stroke="black" points="1159.57,-199.67 1169.57,-196.17 1159.57,-192.67 1159.57,-199.67"/>
</g>
<!-- pure&#45;eval -->
<g id="node32" class="node">
<title>pure&#45;eval</title>
<polygon fill="none" stroke="black" points="1044.88,-230.17 965.12,-230.17 965.12,-194.17 1044.88,-194.17 1044.88,-230.17"/>
<text text-anchor="middle" x="1005" y="-207.87" font-family="sans-serif" font-size="14.00">pure&#45;eval</text>
</g>
<!-- pure&#45;eval&#45;&gt;pure -->
<g id="edge67" class="edge">
<title>pure&#45;eval&#45;&gt;pure</title>
<path fill="none" stroke="black" d="M1045.15,-205.98C1053.22,-204.71 1061.71,-203.37 1069.73,-202.1"/>
<polygon fill="black" stroke="black" points="1070.21,-205.57 1079.54,-200.55 1069.11,-198.65 1070.21,-205.57"/>
</g>
<!-- pure&#45;eval&#45;&gt;types -->
<g id="edge68" class="edge">
<title>pure&#45;eval&#45;&gt;types</title>
<path fill="none" stroke="black" d="M1045.33,-219.02C1056.86,-220.73 1069.53,-222.32 1081.25,-223.17 1156.82,-228.66 1245.49,-224.86 1294.71,-221.85"/>
<polygon fill="black" stroke="black" points="1294.78,-225.35 1304.54,-221.22 1294.34,-218.37 1294.78,-225.35"/>
</g>
<!-- pure&#45;trusted&#45;&gt;types -->
<g id="edge69" class="edge">
<title>pure&#45;trusted&#45;&gt;types</title>
<path fill="none" stroke="black" d="M1270.72,-206.32C1278.79,-208 1287.05,-209.72 1294.79,-211.33"/>
<polygon fill="black" stroke="black" points="1294.07,-214.76 1304.58,-213.36 1295.5,-207.9 1294.07,-214.76"/>
</g>
<!-- python -->
<g id="node34" class="node">
<title>python</title>
<polygon fill="none" stroke="black" points="91.38,-1256.17 29.62,-1256.17 29.62,-1220.17 91.38,-1220.17 91.38,-1256.17"/>
<text text-anchor="middle" x="60.5" y="-1233.87" font-family="sans-serif" font-size="14.00">python</text>
</g>
<!-- python&#45;&gt;crypto&#45;sig -->
<g id="edge70" class="edge">
<title>python&#45;&gt;crypto&#45;sig</title>
<path fill="none" stroke="black" d="M91.68,-1247.34C101.88,-1251.55 112.76,-1257.37 121,-1265.17 146.12,-1288.95 134.84,-1307.61 157,-1334.17 158.77,-1336.3 160.71,-1338.37 162.75,-1340.38"/>
<polygon fill="black" stroke="black" points="160.06,-1342.66 169.84,-1346.73 164.73,-1337.45 160.06,-1342.66"/>
</g>
<!-- python&#45;&gt;git -->
<g id="edge71" class="edge">
<title>python&#45;&gt;git</title>
<path fill="none" stroke="black" d="M91.59,-1231.65C161.56,-1216.49 335.01,-1178.9 411.67,-1162.29"/>
<polygon fill="black" stroke="black" points="412.17,-1165.76 421.21,-1160.22 410.69,-1158.92 412.17,-1165.76"/>
</g>
<!-- python&#45;&gt;graph -->
<g id="edge72" class="edge">
<title>python&#45;&gt;graph</title>
<path fill="none" stroke="black" d="M91.77,-1245.64C102.48,-1249.73 113.67,-1255.92 121,-1265.17 172.21,-1329.8 94.28,-1393.64 157,-1447.17 228.8,-1508.46 350.49,-1486.49 411.66,-1469.9"/>
<polygon fill="black" stroke="black" points="412.57,-1473.27 421.25,-1467.19 410.67,-1466.54 412.57,-1473.27"/>
</g>
<!-- python&#45;&gt;hash -->
<g id="edge73" class="edge">
<title>python&#45;&gt;hash</title>
<path fill="none" stroke="black" d="M91.69,-1245.07C163.37,-1260.19 348.8,-1291.84 496,-1252.17 654.32,-1209.5 789.64,-1051.48 839.2,-987.42"/>
<polygon fill="black" stroke="black" points="841.94,-989.59 845.23,-979.52 836.38,-985.35 841.94,-989.59"/>
</g>
<!-- python&#45;&gt;kv -->
<g id="edge74" class="edge">
<title>python&#45;&gt;kv</title>
<path fill="none" stroke="black" d="M91.7,-1246.08C102.27,-1250.2 113.39,-1256.3 121,-1265.17 159.5,-1310.01 122.09,-1345.49 157,-1393.17 158.72,-1395.52 160.72,-1397.73 162.88,-1399.78"/>
<polygon fill="black" stroke="black" points="160.66,-1402.49 170.65,-1406.01 165.04,-1397.03 160.66,-1402.49"/>
</g>
<!-- python&#45;&gt;llm -->
<g id="edge75" class="edge">
<title>python&#45;&gt;llm</title>
<path fill="none" stroke="black" d="M72.04,-1219.71C89.59,-1189.04 125.92,-1125.63 157,-1072.17 165.05,-1058.32 174.06,-1042.98 181.58,-1030.19"/>
<polygon fill="black" stroke="black" points="184.43,-1032.26 186.49,-1021.87 178.4,-1028.71 184.43,-1032.26"/>
</g>
<!-- python&#45;&gt;object -->
<g id="edge76" class="edge">
<title>python&#45;&gt;object</title>
<path fill="none" stroke="black" d="M71.88,-1220.08C88.11,-1192.6 121.32,-1139.4 157,-1100.17 189.94,-1063.94 211.36,-1067.96 241.25,-1029.17 264.06,-999.56 250.21,-978.97 277.25,-953.17 308.96,-922.91 329.78,-936.17 368.25,-915.17 445.86,-872.79 456.88,-848.81 532,-802.17 578.59,-773.24 634.15,-743.05 670.29,-723.95"/>
<polygon fill="black" stroke="black" points="671.84,-727.09 679.06,-719.34 668.58,-720.9 671.84,-727.09"/>
</g>
<!-- python&#45;&gt;repl -->
<g id="edge77" class="edge">
<title>python&#45;&gt;repl</title>
<path fill="none" stroke="black" d="M91.25,-1219.71C128.97,-1195.38 194.68,-1149.81 241.25,-1100.17 267.8,-1071.87 291.66,-1033.95 306.38,-1008.38"/>
<polygon fill="black" stroke="black" points="309.31,-1010.31 311.18,-999.88 303.21,-1006.87 309.31,-1010.31"/>
</g>
<!-- sat -->
<g id="node37" class="node">
<title>sat</title>
<polygon fill="none" stroke="black" points="887.38,-858.17 833.38,-858.17 833.38,-822.17 887.38,-822.17 887.38,-858.17"/>
<text text-anchor="middle" x="860.38" y="-835.87" font-family="sans-serif" font-size="14.00">sat</text>
</g>
<!-- python&#45;&gt;sat -->
<g id="edge78" class="edge">
<title>python&#45;&gt;sat</title>
<path fill="none" stroke="black" d="M91.76,-1238.53C163.95,-1238.48 351.09,-1232.93 496,-1181.17 559.3,-1158.56 577.35,-1150.75 626.75,-1105.17 721.39,-1017.84 691.26,-947.39 792,-867.17 800.85,-860.12 811.79,-854.69 822.25,-850.62"/>
<polygon fill="black" stroke="black" points="823.2,-854 831.45,-847.36 820.86,-847.4 823.2,-854"/>
</g>
<!-- python&#45;&gt;serve -->
<g id="edge79" class="edge">
<title>python&#45;&gt;serve</title>
<path fill="none" stroke="black" d="M67.11,-1219.85C88.26,-1150.81 163.27,-905.94 189.22,-821.24"/>
<polygon fill="black" stroke="black" points="192.52,-822.42 192.1,-811.84 185.82,-820.37 192.52,-822.42"/>
</g>
<!-- python&#45;&gt;sexp -->
<g id="edge80" class="edge">
<title>python&#45;&gt;sexp</title>
<path fill="none" stroke="black" d="M64.29,-1219.78C78.9,-1123.75 146.25,-683.3 157,-656.17 192.29,-567.06 201.32,-535.66 277.25,-477.17 324.57,-440.72 345.34,-443.08 404.25,-433.17 444.46,-426.4 455.38,-429.64 496,-433.17 715.72,-452.26 974.9,-509.24 1069.93,-531.3"/>
<polygon fill="black" stroke="black" points="1068.95,-534.67 1079.48,-533.53 1070.54,-527.85 1068.95,-534.67"/>
</g>
<!-- python&#45;&gt;shell -->
<g id="edge81" class="edge">
<title>python&#45;&gt;shell</title>
<path fill="none" stroke="black" d="M62.21,-1220.09C65.36,-1155.41 81.44,-930.52 157,-765.17 182.45,-709.48 213.14,-710.56 241.25,-656.17 266.43,-607.46 241.08,-579.38 277.25,-538.17 312.49,-498.02 372.55,-477.38 411.52,-467.68"/>
<polygon fill="black" stroke="black" points="412.24,-471.1 421.18,-465.41 410.64,-464.29 412.24,-471.1"/>
</g>
<!-- python&#45;&gt;store -->
<g id="edge82" class="edge">
<title>python&#45;&gt;store</title>
<path fill="none" stroke="black" d="M91.6,-1245.42C102.42,-1249.49 113.74,-1255.73 121,-1265.17 179.81,-1341.61 95.9,-1404.55 157,-1479.17 206.66,-1539.82 243.36,-1542.17 321.75,-1542.17 321.75,-1542.17 321.75,-1542.17 451.12,-1542.17 529.91,-1542.17 560.4,-1560.65 626.75,-1518.17 627.37,-1517.77 667.03,-1455.35 690.83,-1417.83"/>
<polygon fill="black" stroke="black" points="693.58,-1420.03 695.98,-1409.71 687.67,-1416.28 693.58,-1420.03"/>
</g>
<!-- python&#45;&gt;wasm -->
<g id="edge83" class="edge">
<title>python&#45;&gt;wasm</title>
<path fill="none" stroke="black" d="M91.87,-1245.21C102.73,-1249.26 114,-1255.53 121,-1265.17 205.13,-1380.95 65.14,-1475.42 157,-1585.17 206.03,-1643.75 245.36,-1634.17 321.75,-1634.17 321.75,-1634.17 321.75,-1634.17 710.38,-1634.17 822.87,-1634.17 858.64,-1594.15 928.75,-1506.17 979.23,-1442.82 996.09,-1345.17 1001.53,-1296.64"/>
<polygon fill="black" stroke="black" points="1004.99,-1297.22 1002.52,-1286.92 998.02,-1296.51 1004.99,-1297.22"/>
</g>
<!-- wasm&#45;store -->
<g id="node49" class="node">
<title>wasm&#45;store</title>
<polygon fill="none" stroke="black" points="626.75,-1606.17 532,-1606.17 532,-1570.17 626.75,-1570.17 626.75,-1606.17"/>
<text text-anchor="middle" x="579.38" y="-1583.87" font-family="sans-serif" font-size="14.00">wasm&#45;store</text>
</g>
<!-- python&#45;&gt;wasm&#45;store -->
<g id="edge84" class="edge">
<title>python&#45;&gt;wasm&#45;store</title>
<path fill="none" stroke="black" d="M91.82,-1245.25C102.67,-1249.31 113.94,-1255.57 121,-1265.17 198.19,-1370.17 62.7,-1466.22 157,-1556.17 207.67,-1604.5 417.07,-1598.55 520.31,-1592.39"/>
<polygon fill="black" stroke="black" points="520.48,-1595.89 530.24,-1591.78 520.05,-1588.9 520.48,-1595.89"/>
</g>
<!-- repl&#45;&gt;arrow -->
<g id="edge85" class="edge">
<title>repl&#45;&gt;arrow</title>
<path fill="none" stroke="black" d="M350.04,-976.87C395.42,-971.16 488.61,-959.45 540.82,-952.89"/>
<polygon fill="black" stroke="black" points="541.24,-956.36 550.73,-951.64 540.37,-949.42 541.24,-956.36"/>
</g>
<!-- repl&#45;&gt;forsp -->
<g id="edge86" class="edge">
<title>repl&#45;&gt;forsp</title>
<path fill="none" stroke="black" d="M339.76,-961.89C349.64,-949.55 361.66,-932.42 368.25,-915.17 412.41,-799.61 324.02,-733.33 404.25,-639.17 436.78,-600.99 578.41,-587.77 626.75,-601.17 644.22,-606.01 661.71,-615.7 675.98,-625.19"/>
<polygon fill="black" stroke="black" points="673.86,-627.98 684.08,-630.81 677.86,-622.23 673.86,-627.98"/>
</g>
<!-- repl&#45;&gt;git -->
<g id="edge87" class="edge">
<title>repl&#45;&gt;git</title>
<path fill="none" stroke="black" d="M336.93,-998.46C359.03,-1029.14 403.69,-1091.11 429.49,-1126.93"/>
<polygon fill="black" stroke="black" points="426.36,-1128.57 435.05,-1134.63 432.04,-1124.47 426.36,-1128.57"/>
</g>
<!-- repl&#45;&gt;graph -->
<g id="edge88" class="edge">
<title>repl&#45;&gt;graph</title>
<path fill="none" stroke="black" d="M328.59,-998.61C347.69,-1071.44 417.96,-1339.34 441.43,-1428.84"/>
<polygon fill="black" stroke="black" points="437.99,-1429.53 443.92,-1438.32 444.77,-1427.75 437.99,-1429.53"/>
</g>
<!-- repl&#45;&gt;hash -->
<g id="edge89" class="edge">
<title>repl&#45;&gt;hash</title>
<path fill="none" stroke="black" d="M349.85,-997.59C356.07,-1002.11 362.55,-1007.12 368.25,-1012.17 385.92,-1027.8 382.64,-1041.71 404.25,-1051.17 441.6,-1067.52 455.55,-1056.3 496,-1051.17 571.93,-1041.54 588.52,-1026.8 662.75,-1008.17 718.12,-994.27 782.4,-978.68 821.98,-969.15"/>
<polygon fill="black" stroke="black" points="822.58,-972.6 831.48,-966.86 820.94,-965.8 822.58,-972.6"/>
</g>
<!-- repl&#45;&gt;init -->
<g id="edge90" class="edge">
<title>repl&#45;&gt;init</title>
<path fill="none" stroke="black" d="M339.85,-961.93C349.78,-949.6 361.8,-932.47 368.25,-915.17 417.63,-782.72 332.78,-721.12 404.25,-599.17 467.04,-492.02 605.27,-422.91 671.53,-394.67"/>
<polygon fill="black" stroke="black" points="672.63,-398.01 680.51,-390.92 669.93,-391.55 672.63,-398.01"/>
</g>
<!-- repl&#45;&gt;object -->
<g id="edge91" class="edge">
<title>repl&#45;&gt;object</title>
<path fill="none" stroke="black" d="M350.19,-970.62C407.32,-948.83 543.81,-890.41 626.75,-802.17 650.98,-776.39 638.56,-756.99 662.75,-731.17 665.27,-728.48 668.11,-725.98 671.12,-723.66"/>
<polygon fill="black" stroke="black" points="672.93,-726.66 679.22,-718.14 668.99,-720.88 672.93,-726.66"/>
</g>
<!-- repl&#45;&gt;parquet -->
<g id="edge92" class="edge">
<title>repl&#45;&gt;parquet</title>
<path fill="none" stroke="black" d="M350.03,-989.39C366.04,-995.01 386.9,-1002.33 405.35,-1008.81"/>
<polygon fill="black" stroke="black" points="404.15,-1012.09 414.74,-1012.1 406.47,-1005.49 404.15,-1012.09"/>
</g>
<!-- repl&#45;&gt;shell -->
<g id="edge93" class="edge">
<title>repl&#45;&gt;shell</title>
<path fill="none" stroke="black" d="M340.13,-961.67C350.04,-949.38 361.93,-932.37 368.25,-915.17 421.69,-769.62 366.1,-718.45 404.25,-568.17 411.35,-540.18 424.41,-509.96 434.62,-488.63"/>
<polygon fill="black" stroke="black" points="437.74,-490.22 438.99,-479.7 431.45,-487.14 437.74,-490.22"/>
</g>
<!-- repl&#45;&gt;wasm -->
<g id="edge94" class="edge">
<title>repl&#45;&gt;wasm</title>
<path fill="none" stroke="black" d="M328.39,-998.56C338.26,-1035.42 363.8,-1120.04 404.25,-1181.17 490.11,-1310.9 516.48,-1364.2 662.75,-1417.17 718.33,-1437.3 878.45,-1448.21 928.75,-1417.17 971.3,-1390.91 990.62,-1332.46 998.73,-1296.77"/>
<polygon fill="black" stroke="black" points="1002.13,-1297.6 1000.76,-1287.1 995.28,-1296.17 1002.13,-1297.6"/>
</g>
<!-- sat&#45;&gt;parse -->
<g id="edge95" class="edge">
<title>sat&#45;&gt;parse</title>
<path fill="none" stroke="black" d="M887.83,-838.06C937.16,-833.69 1046.28,-822.03 1135.25,-798.17 1151.43,-793.83 1168.75,-787.41 1183.48,-781.38"/>
<polygon fill="black" stroke="black" points="1184.43,-784.78 1192.3,-777.69 1181.73,-778.33 1184.43,-784.78"/>
</g>
<!-- sat&#45;&gt;types -->
<g id="edge96" class="edge">
<title>sat&#45;&gt;types</title>
<path fill="none" stroke="black" d="M887.75,-847.13C961.27,-864.76 1169.76,-902.34 1270.5,-792.17 1307.47,-751.73 1326.57,-361.01 1331.31,-249.02"/>
<polygon fill="black" stroke="black" points="1334.8,-249.29 1331.72,-239.15 1327.81,-249 1334.8,-249.29"/>
</g>
<!-- sat&#45;&gt;wasm -->
<g id="edge97" class="edge">
<title>sat&#45;&gt;wasm</title>
<path fill="none" stroke="black" d="M887.72,-844.41C901.93,-848.06 918.59,-854.8 928.75,-867.17 952.45,-896.01 988.29,-1149.78 1000.09,-1237.49"/>
<polygon fill="black" stroke="black" points="996.59,-1237.78 1001.39,-1247.23 1003.53,-1236.85 996.59,-1237.78"/>
</g>
<!-- serve&#45;&gt;core -->
<g id="edge98" class="edge">
<title>serve&#45;&gt;core</title>
<path fill="none" stroke="black" d="M200.9,-773.81C203.82,-720.33 217.33,-561.28 277.25,-447.17 354.71,-299.67 400.11,-273.96 532,-172.17 679.91,-58.02 766.09,58.77 928.75,-33.17 964.92,-53.62 985.64,-99.19 995.85,-129.28"/>
<polygon fill="black" stroke="black" points="992.43,-130.07 998.8,-138.54 999.1,-127.95 992.43,-130.07"/>
</g>
<!-- serve&#45;&gt;git -->
<g id="edge99" class="edge">
<title>serve&#45;&gt;git</title>
<path fill="none" stroke="black" d="M203.4,-810.62C211.02,-849.74 232.78,-942.7 277.25,-1007.17 287.44,-1021.94 370.72,-1090.58 417.51,-1128.62"/>
<polygon fill="black" stroke="black" points="415.21,-1131.25 425.18,-1134.84 419.62,-1125.82 415.21,-1131.25"/>
</g>
<!-- serve&#45;&gt;hash -->
<g id="edge100" class="edge">
<title>serve&#45;&gt;hash</title>
<path fill="none" stroke="black" d="M226.58,-792.79C259.91,-793.97 318.81,-797.38 368.25,-807.17 458.94,-825.13 724.2,-914.12 822.32,-947.5"/>
<polygon fill="black" stroke="black" points="821.14,-950.79 831.74,-950.7 823.4,-944.17 821.14,-950.79"/>
</g>
<!-- serve&#45;&gt;init -->
<g id="edge101" class="edge">
<title>serve&#45;&gt;init</title>
<path fill="none" stroke="black" d="M202.26,-773.73C208.01,-730.19 226.94,-618.9 277.25,-542.17 318.04,-479.97 336.98,-464.91 404.25,-433.17 493.35,-391.12 611.32,-382.13 670.74,-380.41"/>
<polygon fill="black" stroke="black" points="670.73,-383.91 680.65,-380.18 670.57,-376.91 670.73,-383.91"/>
</g>
<!-- serve&#45;&gt;metamath -->
<g id="edge102" class="edge">
<title>serve&#45;&gt;metamath</title>
<path fill="none" stroke="black" d="M212.5,-773.73C240.83,-733.34 314.86,-637.6 404.25,-599.17 456.49,-576.71 475.16,-593.73 532,-592.17 632.47,-589.42 665.42,-579.61 756,-623.17 774.27,-631.95 773,-644.1 792,-651.17 844.31,-670.65 908.94,-670.93 952.99,-667.91"/>
<polygon fill="black" stroke="black" points="953.08,-671.41 962.77,-667.15 952.53,-664.43 953.08,-671.41"/>
</g>
<!-- serve&#45;&gt;object -->
<g id="edge103" class="edge">
<title>serve&#45;&gt;object</title>
<path fill="none" stroke="black" d="M226.44,-785.56C241.31,-781.94 260.25,-777.53 277.25,-774.17 420.77,-745.8 592.83,-720.44 668.9,-709.66"/>
<polygon fill="black" stroke="black" points="669.35,-713.13 678.76,-708.27 668.37,-706.2 669.35,-713.13"/>
</g>
<!-- serve&#45;&gt;proto -->
<g id="edge104" class="edge">
<title>serve&#45;&gt;proto</title>
<path fill="none" stroke="black" d="M226.52,-801.28C243.49,-807.14 265.8,-814.85 284.56,-821.33"/>
<polygon fill="black" stroke="black" points="283.39,-824.62 293.98,-824.58 285.67,-818.01 283.39,-824.62"/>
</g>
<!-- serve&#45;&gt;repl -->
<g id="edge105" class="edge">
<title>serve&#45;&gt;repl</title>
<path fill="none" stroke="black" d="M211.39,-810.65C226.22,-834.85 253.21,-878.49 277.25,-915.17 285.39,-927.59 294.63,-941.17 302.58,-952.69"/>
<polygon fill="black" stroke="black" points="299.46,-954.34 308.03,-960.57 305.22,-950.35 299.46,-954.34"/>
</g>
<!-- serve&#45;&gt;shell -->
<g id="edge106" class="edge">
<title>serve&#45;&gt;shell</title>
<path fill="none" stroke="black" d="M226.45,-775.79C231.99,-771.31 237.34,-766.04 241.25,-760.17 274.98,-709.57 245.99,-680.33 277.25,-628.17 305.86,-580.44 331.61,-584.05 368.25,-542.17 386.28,-521.56 384.84,-511.49 404.25,-492.17 407.2,-489.23 410.45,-486.36 413.81,-483.63"/>
<polygon fill="black" stroke="black" points="415.79,-486.52 421.62,-477.67 411.54,-480.96 415.79,-486.52"/>
</g>
<!-- serve&#45;&gt;store -->
<g id="edge107" class="edge">
<title>serve&#45;&gt;store</title>
<path fill="none" stroke="black" d="M202.71,-810.38C209.59,-855.11 231.12,-973.11 277.25,-1060.17 360.1,-1216.54 377.2,-1280.42 532,-1366.17 575.17,-1390.09 633.13,-1393.5 670.61,-1392.69"/>
<polygon fill="black" stroke="black" points="670.64,-1396.19 680.51,-1392.35 670.4,-1389.19 670.64,-1396.19"/>
</g>
<!-- sexp&#45;&gt;parse -->
<g id="edge108" class="edge">
<title>sexp&#45;&gt;parse</title>
<path fill="none" stroke="black" d="M1118.3,-558.58C1137.6,-597.82 1182.87,-689.91 1205.9,-736.74"/>
<polygon fill="black" stroke="black" points="1202.63,-738.03 1210.18,-745.46 1208.91,-734.94 1202.63,-738.03"/>
</g>
<!-- shell&#45;&gt;hol -->
<g id="edge109" class="edge">
<title>shell&#45;&gt;hol</title>
<path fill="none" stroke="black" d="M455.33,-441.94C464.51,-405.05 488.99,-320.04 532,-261.17 576.63,-200.08 598.9,-192.76 662.75,-152.17 690.84,-134.31 773.78,-97.3 822.5,-76.06"/>
<polygon fill="black" stroke="black" points="823.77,-79.33 831.54,-72.13 820.98,-72.91 823.77,-79.33"/>
</g>
<!-- shell&#45;&gt;kernel -->
<g id="edge110" class="edge">
<title>shell&#45;&gt;kernel</title>
<path fill="none" stroke="black" d="M464.99,-478.47C487.36,-508.01 531.56,-566.37 557.68,-600.85"/>
<polygon fill="black" stroke="black" points="554.79,-602.83 563.62,-608.69 560.37,-598.6 554.79,-602.83"/>
</g>
<!-- smt&#45;&gt;sat -->
<g id="edge111" class="edge">
<title>smt&#45;&gt;sat</title>
<path fill="none" stroke="black" d="M727.08,-306.63C737.2,-318.92 749.39,-335.92 756,-353.17 803.76,-477.74 761.41,-521.32 792,-651.17 805.75,-709.55 831.49,-774.9 846.86,-811.43"/>
<polygon fill="black" stroke="black" points="843.55,-812.58 850.68,-820.41 849.99,-809.84 843.55,-812.58"/>
</g>
<!-- smt&#45;&gt;sexp -->
<g id="edge112" class="edge">
<title>smt&#45;&gt;sexp</title>
<path fill="none" stroke="black" d="M736.79,-289.58C778.38,-292.35 861.37,-300.08 928.75,-320.17 956.1,-328.32 1025.86,-353.23 1045.25,-374.17 1081.12,-412.9 1096.76,-474.3 1103.17,-510.57"/>
<polygon fill="black" stroke="black" points="1099.7,-511.04 1104.77,-520.34 1106.61,-509.91 1099.7,-511.04"/>
</g>
<!-- smt&#45;&gt;types -->
<g id="edge113" class="edge">
<title>smt&#45;&gt;types</title>
<path fill="none" stroke="black" d="M721.7,-269.71C735.73,-248.25 761.54,-213.13 792,-192.17 859.07,-146.01 884.5,-144.92 964.75,-131.17 1041.3,-118.05 1239.04,-129.28 1270.5,-145.17 1290.32,-155.18 1306.23,-174.65 1316.97,-191.11"/>
<polygon fill="black" stroke="black" points="1313.96,-192.89 1322.19,-199.57 1319.92,-189.22 1313.96,-192.89"/>
</g>
<!-- spectec&#45;&gt;grammar -->
<g id="edge114" class="edge">
<title>spectec&#45;&gt;grammar</title>
<path fill="none" stroke="black" d="M895.18,-430.97C913.68,-437.97 936.89,-446.76 957.12,-454.42"/>
<polygon fill="black" stroke="black" points="955.69,-457.62 966.28,-457.89 958.17,-451.07 955.69,-457.62"/>
</g>
<!-- store&#45;&gt;hash -->
<g id="edge115" class="edge">
<title>store&#45;&gt;hash</title>
<path fill="none" stroke="black" d="M719.24,-1371.82C728.93,-1351.42 744.58,-1317.35 756,-1287.17 796.89,-1179.06 835.21,-1046.88 851.34,-989.3"/>
<polygon fill="black" stroke="black" points="854.64,-990.52 853.95,-979.95 847.89,-988.64 854.64,-990.52"/>
</g>
<!-- store&#45;&gt;json -->
<g id="edge116" class="edge">
<title>store&#45;&gt;json</title>
<path fill="none" stroke="black" d="M736.67,-1390.17C760.32,-1390.17 795.33,-1390.17 821.91,-1390.17"/>
<polygon fill="black" stroke="black" points="821.58,-1393.67 831.58,-1390.17 821.58,-1386.67 821.58,-1393.67"/>
</g>
<!-- store&#45;&gt;sqlite -->
<g id="edge117" class="edge">
<title>store&#45;&gt;sqlite</title>
<path fill="none" stroke="black" d="M736.67,-1380.64C760.43,-1372.03 795.65,-1359.26 822.27,-1349.62"/>
<polygon fill="black" stroke="black" points="823.46,-1352.91 831.67,-1346.21 821.08,-1346.33 823.46,-1352.91"/>
</g>
<!-- wasm&#45;build&#45;guest -->
<g id="node47" class="node">
<title>wasm&#45;build&#45;guest</title>
<polygon fill="none" stroke="black" points="928.75,-1262.17 792,-1262.17 792,-1226.17 928.75,-1226.17 928.75,-1262.17"/>
<text text-anchor="middle" x="860.38" y="-1239.87" font-family="sans-serif" font-size="14.00">wasm&#45;build&#45;guest</text>
</g>
<!-- wasm&#45;build&#45;guest&#45;&gt;wasm -->
<g id="edge118" class="edge">
<title>wasm&#45;build&#45;guest&#45;&gt;wasm</title>
<path fill="none" stroke="black" d="M928.93,-1255.06C941.75,-1257.13 954.74,-1259.23 966.23,-1261.08"/>
<polygon fill="black" stroke="black" points="965.66,-1264.53 976.09,-1262.67 966.77,-1257.62 965.66,-1264.53"/>
</g>
<!-- wasm&#45;spec -->
<g id="node48" class="node">
<title>wasm&#45;spec</title>
<polygon fill="none" stroke="black" points="756,-1278.17 662.75,-1278.17 662.75,-1242.17 756,-1242.17 756,-1278.17"/>
<text text-anchor="middle" x="709.38" y="-1255.87" font-family="sans-serif" font-size="14.00">wasm&#45;spec</text>
</g>
<!-- wasm&#45;spec&#45;&gt;hash -->
<g id="edge119" class="edge">
<title>wasm&#45;spec&#45;&gt;hash</title>
<path fill="none" stroke="black" d="M741.97,-1241.77C747.13,-1237.76 752.07,-1233.2 756,-1228.17 814.28,-1153.64 842.95,-1042.38 853.9,-989.77"/>
<polygon fill="black" stroke="black" points="857.31,-990.57 855.84,-980.07 850.44,-989.19 857.31,-990.57"/>
</g>
<!-- wasm&#45;spec&#45;&gt;wasm -->
<g id="edge120" class="edge">
<title>wasm&#45;spec&#45;&gt;wasm</title>
<path fill="none" stroke="black" d="M756.46,-1267.48C768.03,-1269.01 780.44,-1270.39 792,-1271.17 852.64,-1275.24 867.99,-1272.78 928.75,-1271.17 940.91,-1270.85 954.17,-1270.23 966.12,-1269.58"/>
<polygon fill="black" stroke="black" points="966.25,-1273.07 976.04,-1269.01 965.85,-1266.09 966.25,-1273.07"/>
</g>
<!-- wasm&#45;store&#45;&gt;json -->
<g id="edge121" class="edge">
<title>wasm&#45;store&#45;&gt;json</title>
<path fill="none" stroke="black" d="M606.91,-1569.97C613.41,-1565.48 620.34,-1560.66 626.75,-1556.17 697.46,-1506.55 779.6,-1447.64 824.9,-1415.02"/>
<polygon fill="black" stroke="black" points="826.7,-1418.05 832.77,-1409.36 822.61,-1412.37 826.7,-1418.05"/>
</g>
<!-- wasm&#45;store&#45;&gt;store -->
<g id="edge122" class="edge">
<title>wasm&#45;store&#45;&gt;store</title>
<path fill="none" stroke="black" d="M611.64,-1569.89C617.1,-1565.82 622.4,-1561.21 626.75,-1556.17 645.73,-1534.17 678.65,-1460.36 696.33,-1418.96"/>
<polygon fill="black" stroke="black" points="699.51,-1420.42 700.19,-1409.84 693.06,-1417.68 699.51,-1420.42"/>
</g>
<!-- wasm&#45;store&#45;&gt;wasm -->
<g id="edge123" class="edge">
<title>wasm&#45;store&#45;&gt;wasm</title>
<path fill="none" stroke="black" d="M627.03,-1581.57C700.47,-1568.85 843.45,-1534.37 928.75,-1450.17 971.94,-1407.54 991.35,-1336.61 999.24,-1296.73"/>
<polygon fill="black" stroke="black" points="1002.64,-1297.61 1001.02,-1287.14 995.75,-1296.34 1002.64,-1297.61"/>
</g>
<!-- web&#45;kernel -->
<g id="node50" class="node">
<title>web&#45;kernel</title>
<polygon fill="none" stroke="black" points="496,-684.17 404.25,-684.17 404.25,-648.17 496,-648.17 496,-684.17"/>
<text text-anchor="middle" x="450.12" y="-661.87" font-family="sans-serif" font-size="14.00">web&#45;kernel</text>
</g>
<!-- web&#45;kernel&#45;&gt;kernel -->
<g id="edge124" class="edge">
<title>web&#45;kernel&#45;&gt;kernel</title>
<path fill="none" stroke="black" d="M496.35,-652.67C510.41,-648.47 525.79,-643.87 539.39,-639.81"/>
<polygon fill="black" stroke="black" points="540.3,-643.19 548.88,-636.98 538.29,-636.49 540.3,-643.19"/>
</g>
</g>
</svg>
