<?xml version="1.0" encoding="UTF-8" standalone="no"?>
<!DOCTYPE svg PUBLIC "-//W3C//DTD SVG 1.1//EN"
 "http://www.w3.org/Graphics/SVG/1.1/DTD/svg11.dtd">
<!-- Generated by graphviz version 12.2.1 (0)
 -->
<!-- Title: deps Pages: 1 -->
<svg width="1478pt" height="2530pt"
 viewBox="0.00 0.00 1477.50 2530.00" xmlns="http://www.w3.org/2000/svg" xmlns:xlink="http://www.w3.org/1999/xlink">
<g id="graph0" class="graph" transform="scale(1 1) rotate(0) translate(4 2526)">
<title>deps</title>
<polygon fill="white" stroke="none" points="-4,4 -4,-2526 1473.5,-2526 1473.5,4 -4,4"/>
<!-- covalence -->
<g id="node1" class="node">
<title>covalence</title>
<polygon fill="none" stroke="black" points="102.62,-1014 18.38,-1014 18.38,-978 102.62,-978 102.62,-1014"/>
<text text-anchor="middle" x="60.5" y="-991.7" font-family="sans-serif" font-size="14.00">covalence</text>
</g>
<!-- client -->
<g id="node5" class="node">
<title>client</title>
<polygon fill="none" stroke="black" points="350.12,-873 296.12,-873 296.12,-837 350.12,-837 350.12,-873"/>
<text text-anchor="middle" x="323.12" y="-850.7" font-family="sans-serif" font-size="14.00">client</text>
</g>
<!-- covalence&#45;&gt;client -->
<g id="edge1" class="edge">
<title>covalence&#45;&gt;client</title>
<path fill="none" stroke="black" d="M67.26,-977.6C78.5,-945.22 106.78,-878.95 157,-852 196.49,-830.8 249.33,-836.61 284.48,-844.35"/>
<polygon fill="black" stroke="black" points="283.67,-847.75 294.21,-846.66 285.29,-840.94 283.67,-847.75"/>
</g>
<!-- fuse -->
<g id="node11" class="node">
<title>fuse</title>
<polygon fill="none" stroke="black" points="606.38,-562 552.38,-562 552.38,-526 606.38,-526 606.38,-562"/>
<text text-anchor="middle" x="579.38" y="-539.7" font-family="sans-serif" font-size="14.00">fuse</text>
</g>
<!-- covalence&#45;&gt;fuse -->
<g id="edge2" class="edge">
<title>covalence&#45;&gt;fuse</title>
<path fill="none" stroke="black" d="M67.34,-977.53C86.95,-918.5 156.06,-732.55 277.25,-634 356,-569.97 479.29,-551.47 540.82,-546.14"/>
<polygon fill="black" stroke="black" points="540.71,-549.66 550.41,-545.39 540.16,-542.69 540.71,-549.66"/>
</g>
<!-- git -->
<g id="node12" class="node">
<title>git</title>
<polygon fill="none" stroke="black" points="477.5,-522 423.5,-522 423.5,-486 477.5,-486 477.5,-522"/>
<text text-anchor="middle" x="450.5" y="-499.7" font-family="sans-serif" font-size="14.00">git</text>
</g>
<!-- covalence&#45;&gt;git -->
<g id="edge3" class="edge">
<title>covalence&#45;&gt;git</title>
<path fill="none" stroke="black" d="M63.72,-977.61C72.54,-907.28 107.03,-656.36 157,-596 220.79,-518.96 348.5,-505.45 411.95,-503.71"/>
<polygon fill="black" stroke="black" points="411.93,-507.21 421.87,-503.54 411.81,-500.21 411.93,-507.21"/>
</g>
<!-- hash -->
<g id="node15" class="node">
<title>hash</title>
<polygon fill="none" stroke="black" points="887.38,-768 833.38,-768 833.38,-732 887.38,-732 887.38,-768"/>
<text text-anchor="middle" x="860.38" y="-745.7" font-family="sans-serif" font-size="14.00">hash</text>
</g>
<!-- covalence&#45;&gt;hash -->
<g id="edge4" class="edge">
<title>covalence&#45;&gt;hash</title>
<path fill="none" stroke="black" d="M79.89,-977.71C97.96,-960.83 127.11,-936.42 157,-923 244.56,-883.71 274.92,-900.94 369,-882 541.27,-847.32 589.89,-858.33 756,-801 779.09,-793.03 803.66,-781.07 823.06,-770.73"/>
<polygon fill="black" stroke="black" points="824.52,-773.92 831.64,-766.07 821.18,-767.76 824.52,-773.92"/>
</g>
<!-- hol -->
<g id="node17" class="node">
<title>hol</title>
<polygon fill="none" stroke="black" points="887.38,-2282 833.38,-2282 833.38,-2246 887.38,-2246 887.38,-2282"/>
<text text-anchor="middle" x="860.38" y="-2259.7" font-family="sans-serif" font-size="14.00">hol</text>
</g>
<!-- covalence&#45;&gt;hol -->
<g id="edge5" class="edge">
<title>covalence&#45;&gt;hol</title>
<path fill="none" stroke="black" d="M103.05,-1007.62C110.1,-1011.42 116.56,-1016.42 121,-1023 173.45,-1100.71 141.58,-1773.52 157,-1866 199.53,-2121.11 63.49,-2424 322.12,-2424 322.12,-2424 322.12,-2424 580.38,-2424 692.42,-2424 691.2,-2335.91 792,-2287 801.53,-2282.37 812.24,-2278.27 822.26,-2274.85"/>
<polygon fill="black" stroke="black" points="823.32,-2278.19 831.75,-2271.76 821.16,-2271.53 823.32,-2278.19"/>
</g>
<!-- init -->
<g id="node21" class="node">
<title>init</title>
<polygon fill="none" stroke="black" points="736.38,-1712 682.38,-1712 682.38,-1676 736.38,-1676 736.38,-1712"/>
<text text-anchor="middle" x="709.38" y="-1689.7" font-family="sans-serif" font-size="14.00">init</text>
</g>
<!-- covalence&#45;&gt;init -->
<g id="edge6" class="edge">
<title>covalence&#45;&gt;init</title>
<path fill="none" stroke="black" d="M102.84,-1007.77C109.9,-1011.55 116.43,-1016.51 121,-1023 176.62,-1101.93 125.63,-1364.68 157,-1456 196.95,-1572.3 199.16,-1678 322.12,-1678 322.12,-1678 322.12,-1678 451.5,-1678 529.68,-1678 620.99,-1685.47 670.96,-1690.21"/>
<polygon fill="black" stroke="black" points="670.36,-1693.66 680.65,-1691.14 671.03,-1686.7 670.36,-1693.66"/>
</g>
<!-- lsp -->
<g id="node32" class="node">
<title>lsp</title>
<polygon fill="none" stroke="black" points="887.38,-1112 833.38,-1112 833.38,-1076 887.38,-1076 887.38,-1112"/>
<text text-anchor="middle" x="860.38" y="-1089.7" font-family="sans-serif" font-size="14.00">lsp</text>
</g>
<!-- covalence&#45;&gt;lsp -->
<g id="edge7" class="edge">
<title>covalence&#45;&gt;lsp</title>
<path fill="none" stroke="black" d="M103.12,-1007.12C119.78,-1011.28 139.21,-1015.78 157,-1019 250.41,-1035.92 275.52,-1028.49 369,-1045 500.97,-1068.3 529.61,-1097.79 662.75,-1113 703.93,-1117.7 714.73,-1116.76 756,-1113 778.08,-1110.99 802.48,-1106.61 822.03,-1102.56"/>
<polygon fill="black" stroke="black" points="822.69,-1106 831.73,-1100.49 821.22,-1099.15 822.69,-1106"/>
</g>
<!-- object -->
<g id="node36" class="node">
<title>object</title>
<polygon fill="none" stroke="black" points="738,-898 680.75,-898 680.75,-862 738,-862 738,-898"/>
<text text-anchor="middle" x="709.38" y="-875.7" font-family="sans-serif" font-size="14.00">object</text>
</g>
<!-- covalence&#45;&gt;object -->
<g id="edge8" class="edge">
<title>covalence&#45;&gt;object</title>
<path fill="none" stroke="black" d="M102.93,-998.83C226.09,-1006.88 584.05,-1027.48 626.75,-998 663.91,-972.35 632.54,-936.55 662.75,-903 665.11,-900.38 667.83,-898.02 670.75,-895.9"/>
<polygon fill="black" stroke="black" points="672.53,-898.92 679.25,-890.73 668.89,-892.94 672.53,-898.92"/>
</g>
<!-- opentheory -->
<g id="node37" class="node">
<title>opentheory</title>
<polygon fill="none" stroke="black" points="496,-2146 405,-2146 405,-2110 496,-2110 496,-2146"/>
<text text-anchor="middle" x="450.5" y="-2123.7" font-family="sans-serif" font-size="14.00">opentheory</text>
</g>
<!-- covalence&#45;&gt;opentheory -->
<g id="edge9" class="edge">
<title>covalence&#45;&gt;opentheory</title>
<path fill="none" stroke="black" d="M102.99,-1007.66C110.04,-1011.45 116.52,-1016.44 121,-1023 162.99,-1084.47 143.26,-1618.84 157,-1692 188.6,-1860.28 160.4,-1932.85 277.25,-2058 307.93,-2090.86 356.2,-2108.68 393.84,-2118.1"/>
<polygon fill="black" stroke="black" points="392.64,-2121.42 403.18,-2120.31 394.25,-2114.6 392.64,-2121.42"/>
</g>
<!-- proto -->
<g id="node41" class="node">
<title>proto</title>
<polygon fill="none" stroke="black" points="350.12,-1090 296.12,-1090 296.12,-1054 350.12,-1054 350.12,-1090"/>
<text text-anchor="middle" x="323.12" y="-1067.7" font-family="sans-serif" font-size="14.00">proto</text>
</g>
<!-- covalence&#45;&gt;proto -->
<g id="edge10" class="edge">
<title>covalence&#45;&gt;proto</title>
<path fill="none" stroke="black" d="M102.95,-1013.64C109.1,-1016.59 115.28,-1019.75 121,-1023 137.94,-1032.62 138.88,-1040.85 157,-1048 198.58,-1064.4 250.03,-1069.75 284.34,-1071.41"/>
<polygon fill="black" stroke="black" points="284.08,-1074.9 294.21,-1071.8 284.35,-1067.91 284.08,-1074.9"/>
</g>
<!-- repl -->
<g id="node47" class="node">
<title>repl</title>
<polygon fill="none" stroke="black" points="350.12,-808 296.12,-808 296.12,-772 350.12,-772 350.12,-808"/>
<text text-anchor="middle" x="323.12" y="-785.7" font-family="sans-serif" font-size="14.00">repl</text>
</g>
<!-- covalence&#45;&gt;repl -->
<g id="edge11" class="edge">
<title>covalence&#45;&gt;repl</title>
<path fill="none" stroke="black" d="M67.01,-977.66C78.17,-943.69 106.78,-871 157,-833 194.25,-804.81 248.25,-795.04 284.24,-791.68"/>
<polygon fill="black" stroke="black" points="284.51,-795.17 294.2,-790.9 283.95,-788.2 284.51,-795.17"/>
</g>
<!-- serve -->
<g id="node50" class="node">
<title>serve</title>
<polygon fill="none" stroke="black" points="226.12,-1136 172.12,-1136 172.12,-1100 226.12,-1100 226.12,-1136"/>
<text text-anchor="middle" x="199.12" y="-1113.7" font-family="sans-serif" font-size="14.00">serve</text>
</g>
<!-- covalence&#45;&gt;serve -->
<g id="edge12" class="edge">
<title>covalence&#45;&gt;serve</title>
<path fill="none" stroke="black" d="M102.95,-1010.69C109.43,-1014.11 115.72,-1018.19 121,-1023 144.84,-1044.72 135.87,-1061.64 157,-1086 159.06,-1088.37 161.31,-1090.69 163.67,-1092.92"/>
<polygon fill="black" stroke="black" points="160.99,-1095.23 170.83,-1099.15 165.59,-1089.95 160.99,-1095.23"/>
</g>
<!-- shell -->
<g id="node52" class="node">
<title>shell</title>
<polygon fill="none" stroke="black" points="477.5,-1482 423.5,-1482 423.5,-1446 477.5,-1446 477.5,-1482"/>
<text text-anchor="middle" x="450.5" y="-1459.7" font-family="sans-serif" font-size="14.00">shell</text>
</g>
<!-- covalence&#45;&gt;shell -->
<g id="edge13" class="edge">
<title>covalence&#45;&gt;shell</title>
<path fill="none" stroke="black" d="M103.11,-1007.96C110.05,-1011.72 116.47,-1016.62 121,-1023 172.18,-1095.03 96.48,-1354.61 157,-1419 222.95,-1489.17 349.11,-1480.71 411.97,-1471.15"/>
<polygon fill="black" stroke="black" points="412.5,-1474.61 421.81,-1469.55 411.38,-1467.7 412.5,-1474.61"/>
</g>
<!-- store -->
<g id="node56" class="node">
<title>store</title>
<polygon fill="none" stroke="black" points="736.38,-334 682.38,-334 682.38,-298 736.38,-298 736.38,-334"/>
<text text-anchor="middle" x="709.38" y="-311.7" font-family="sans-serif" font-size="14.00">store</text>
</g>
<!-- covalence&#45;&gt;store -->
<g id="edge14" class="edge">
<title>covalence&#45;&gt;store</title>
<path fill="none" stroke="black" d="M62.41,-977.78C67.02,-892.21 90.22,-530.83 157,-444 281.62,-281.97 567.76,-298.74 670.65,-310.73"/>
<polygon fill="black" stroke="black" points="670.14,-314.19 680.49,-311.93 670.99,-307.24 670.14,-314.19"/>
</g>
<!-- wasm -->
<g id="node59" class="node">
<title>wasm</title>
<polygon fill="none" stroke="black" points="1028.75,-298 974.5,-298 974.5,-262 1028.75,-262 1028.75,-298"/>
<text text-anchor="middle" x="1001.62" y="-275.7" font-family="sans-serif" font-size="14.00">wasm</text>
</g>
<!-- covalence&#45;&gt;wasm -->
<g id="edge15" class="edge">
<title>covalence&#45;&gt;wasm</title>
<path fill="none" stroke="black" d="M62.84,-977.56C68.83,-900.11 95.59,-601.92 157,-535 315.6,-362.16 436.13,-444.61 662.75,-384 780.12,-352.61 815.72,-365.55 928.75,-321 940.82,-316.24 953.33,-309.73 964.45,-303.31"/>
<polygon fill="black" stroke="black" points="966.13,-306.38 972.93,-298.25 962.55,-300.37 966.13,-306.38"/>
</g>
<!-- acset -->
<g id="node2" class="node">
<title>acset</title>
<polygon fill="none" stroke="black" points="887.38,-1020 833.38,-1020 833.38,-984 887.38,-984 887.38,-1020"/>
<text text-anchor="middle" x="860.38" y="-997.7" font-family="sans-serif" font-size="14.00">acset</text>
</g>
<!-- alethe -->
<g id="node3" class="node">
<title>alethe</title>
<polygon fill="none" stroke="black" points="607.62,-1780 551.12,-1780 551.12,-1744 607.62,-1744 607.62,-1780"/>
<text text-anchor="middle" x="579.38" y="-1757.7" font-family="sans-serif" font-size="14.00">alethe</text>
</g>
<!-- core -->
<g id="node6" class="node">
<title>core</title>
<polygon fill="#ffd6d6" stroke="black" points="1028.62,-2068 974.62,-2068 974.62,-2032 1028.62,-2032 1028.62,-2068"/>
<text text-anchor="middle" x="1001.62" y="-2045.7" font-family="sans-serif" font-size="14.00">core</text>
</g>
<!-- alethe&#45;&gt;core -->
<g id="edge16" class="edge">
<title>alethe&#45;&gt;core</title>
<path fill="none" stroke="black" d="M607.82,-1777.71C645.85,-1800.75 714.58,-1847.07 756,-1903 781.64,-1937.62 759.43,-1964.8 792,-1993 839.27,-2033.92 868.65,-2008.75 928.75,-2026 940.13,-2029.27 952.39,-2033.2 963.51,-2036.93"/>
<polygon fill="black" stroke="black" points="962.14,-2040.17 972.74,-2040.08 964.4,-2033.54 962.14,-2040.17"/>
</g>
<!-- hol&#45;eval -->
<g id="node19" class="node">
<title>hol&#45;eval</title>
<polygon fill="none" stroke="black" points="895.38,-1930 825.38,-1930 825.38,-1894 895.38,-1894 895.38,-1930"/>
<text text-anchor="middle" x="860.38" y="-1907.7" font-family="sans-serif" font-size="14.00">hol&#45;eval</text>
</g>
<!-- alethe&#45;&gt;hol&#45;eval -->
<g id="edge17" class="edge">
<title>alethe&#45;&gt;hol&#45;eval</title>
<path fill="none" stroke="black" d="M607.94,-1761.12C645.51,-1761.37 713,-1767.15 756,-1802 785.66,-1826.04 765.15,-1852.85 792,-1880 798.47,-1886.55 806.55,-1891.92 814.83,-1896.28"/>
<polygon fill="black" stroke="black" points="813.05,-1899.31 823.59,-1900.44 816.06,-1892.98 813.05,-1899.31"/>
</g>
<!-- alethe&#45;&gt;init -->
<g id="edge18" class="edge">
<title>alethe&#45;&gt;init</title>
<path fill="none" stroke="black" d="M607.83,-1747.41C626.69,-1737.4 651.9,-1724 672.36,-1713.13"/>
<polygon fill="black" stroke="black" points="673.75,-1716.36 680.94,-1708.58 670.46,-1710.18 673.75,-1716.36"/>
</g>
<!-- sexp -->
<g id="node51" class="node">
<title>sexp</title>
<polygon fill="none" stroke="black" points="1028.62,-1399 974.62,-1399 974.62,-1363 1028.62,-1363 1028.62,-1399"/>
<text text-anchor="middle" x="1001.62" y="-1376.7" font-family="sans-serif" font-size="14.00">sexp</text>
</g>
<!-- alethe&#45;&gt;sexp -->
<g id="edge19" class="edge">
<title>alethe&#45;&gt;sexp</title>
<path fill="none" stroke="black" d="M584.91,-1743.53C600.89,-1682.99 660.8,-1490.1 792,-1414 845.46,-1382.99 918.96,-1378.51 962.94,-1379.07"/>
<polygon fill="black" stroke="black" points="962.66,-1382.56 972.74,-1379.29 962.82,-1375.56 962.66,-1382.56"/>
</g>
<!-- smt -->
<g id="node53" class="node">
<title>smt</title>
<polygon fill="none" stroke="black" points="736.38,-1620 682.38,-1620 682.38,-1584 736.38,-1584 736.38,-1620"/>
<text text-anchor="middle" x="709.38" y="-1597.7" font-family="sans-serif" font-size="14.00">smt</text>
</g>
<!-- alethe&#45;&gt;smt -->
<g id="edge20" class="edge">
<title>alethe&#45;&gt;smt</title>
<path fill="none" stroke="black" d="M595.06,-1743.65C617.53,-1715.56 660.59,-1661.74 686.67,-1629.13"/>
<polygon fill="black" stroke="black" points="689.4,-1631.32 692.92,-1621.32 683.94,-1626.94 689.4,-1631.32"/>
</g>
<!-- types -->
<g id="node58" class="node">
<title>types</title>
<polygon fill="#ffd6d6" stroke="black" points="1469.5,-1808 1415.5,-1808 1415.5,-1772 1469.5,-1772 1469.5,-1808"/>
<text text-anchor="middle" x="1442.5" y="-1785.7" font-family="sans-serif" font-size="14.00">types</text>
</g>
<!-- alethe&#45;&gt;types -->
<g id="edge21" class="edge">
<title>alethe&#45;&gt;types</title>
<path fill="none" stroke="black" d="M608.11,-1755.69C643.83,-1748.95 707.13,-1741.76 756,-1762 776.91,-1770.66 771.77,-1787.87 792,-1798 875.77,-1839.93 906.95,-1828 1000.62,-1828 1000.62,-1828 1000.62,-1828 1218.25,-1828 1284.48,-1828 1360.21,-1811.55 1404.26,-1800.29"/>
<polygon fill="black" stroke="black" points="1405.03,-1803.71 1413.82,-1797.8 1403.26,-1796.94 1405.03,-1803.71"/>
</g>
<!-- arrow -->
<g id="node4" class="node">
<title>arrow</title>
<polygon fill="none" stroke="black" points="606.38,-768 552.38,-768 552.38,-732 606.38,-732 606.38,-768"/>
<text text-anchor="middle" x="579.38" y="-745.7" font-family="sans-serif" font-size="14.00">arrow</text>
</g>
<!-- client&#45;&gt;hash -->
<g id="edge22" class="edge">
<title>client&#45;&gt;hash</title>
<path fill="none" stroke="black" d="M350.56,-850.95C418.29,-840.42 603.47,-810.64 756,-777 778.11,-772.12 802.63,-765.76 822.24,-760.44"/>
<polygon fill="black" stroke="black" points="822.99,-763.86 831.71,-757.84 821.14,-757.11 822.99,-763.86"/>
</g>
<!-- client&#45;&gt;shell -->
<g id="edge23" class="edge">
<title>client&#45;&gt;shell</title>
<path fill="none" stroke="black" d="M329.32,-873.45C338.65,-907.21 358.24,-981.33 369,-1045 394.98,-1198.76 353.8,-1246.71 405,-1394 410.22,-1409.03 419.22,-1424.12 427.77,-1436.42"/>
<polygon fill="black" stroke="black" points="424.86,-1438.37 433.56,-1444.41 430.53,-1434.26 424.86,-1438.37"/>
</g>
<!-- client&#45;&gt;store -->
<g id="edge24" class="edge">
<title>client&#45;&gt;store</title>
<path fill="none" stroke="black" d="M350.62,-850.76C389.32,-843.05 460.57,-822.89 496,-775 564.85,-681.92 483.79,-622.26 532,-517 550.2,-477.25 637.11,-387.18 681.76,-342.36"/>
<polygon fill="black" stroke="black" points="684.17,-344.89 688.76,-335.35 679.22,-339.94 684.17,-344.89"/>
</g>
<!-- pure -->
<g id="node42" class="node">
<title>pure</title>
<polygon fill="#ffd6d6" stroke="black" points="1244.25,-2014 1190.25,-2014 1190.25,-1978 1244.25,-1978 1244.25,-2014"/>
<text text-anchor="middle" x="1217.25" y="-1991.7" font-family="sans-serif" font-size="14.00">pure</text>
</g>
<!-- core&#45;&gt;pure -->
<g id="edge25" class="edge">
<title>core&#45;&gt;pure</title>
<path fill="none" stroke="black" d="M1028.82,-2043.38C1066.38,-2033.88 1135.73,-2016.35 1178.72,-2005.49"/>
<polygon fill="black" stroke="black" points="1179.54,-2008.89 1188.37,-2003.05 1177.82,-2002.1 1179.54,-2008.89"/>
</g>
<!-- pure&#45;eval -->
<g id="node43" class="node">
<title>pure&#45;eval</title>
<polygon fill="#ffd6d6" stroke="black" points="1154.25,-1968 1074.5,-1968 1074.5,-1932 1154.25,-1932 1154.25,-1968"/>
<text text-anchor="middle" x="1114.38" y="-1945.7" font-family="sans-serif" font-size="14.00">pure&#45;eval</text>
</g>
<!-- core&#45;&gt;pure&#45;eval -->
<g id="edge26" class="edge">
<title>core&#45;&gt;pure&#45;eval</title>
<path fill="none" stroke="black" d="M1022.94,-2031.66C1040.27,-2016.01 1065.38,-1993.34 1084.74,-1975.85"/>
<polygon fill="black" stroke="black" points="1086.99,-1978.54 1092.07,-1969.24 1082.3,-1973.34 1086.99,-1978.54"/>
</g>
<!-- core&#45;&gt;types -->
<g id="edge27" class="edge">
<title>core&#45;&gt;types</title>
<path fill="none" stroke="black" d="M1007.34,-2031.74C1015.7,-2003.37 1035.97,-1949.24 1074.5,-1923 1187.65,-1845.94 1263.07,-1952 1379.5,-1880 1402.62,-1865.7 1419.28,-1839.23 1429.47,-1818.68"/>
<polygon fill="black" stroke="black" points="1432.62,-1820.19 1433.69,-1809.65 1426.28,-1817.22 1432.62,-1820.19"/>
</g>
<!-- core&#45;test&#45;guest -->
<g id="node7" class="node">
<title>core&#45;test&#45;guest</title>
<polygon fill="none" stroke="black" points="121,-1068 0,-1068 0,-1032 121,-1032 121,-1068"/>
<text text-anchor="middle" x="60.5" y="-1045.7" font-family="sans-serif" font-size="14.00">core&#45;test&#45;guest</text>
</g>
<!-- crypto&#45;sig -->
<g id="node8" class="node">
<title>crypto&#45;sig</title>
<polygon fill="none" stroke="black" points="241.25,-36 157,-36 157,0 241.25,0 241.25,-36"/>
<text text-anchor="middle" x="199.12" y="-13.7" font-family="sans-serif" font-size="14.00">crypto&#45;sig</text>
</g>
<!-- egglog -->
<g id="node9" class="node">
<title>egglog</title>
<polygon fill="none" stroke="black" points="890.88,-1540 829.88,-1540 829.88,-1504 890.88,-1504 890.88,-1540"/>
<text text-anchor="middle" x="860.38" y="-1517.7" font-family="sans-serif" font-size="14.00">egglog</text>
</g>
<!-- egglog&#45;&gt;sexp -->
<g id="edge28" class="edge">
<title>egglog&#45;&gt;sexp</title>
<path fill="none" stroke="black" d="M891.29,-1511.91C903.79,-1506.7 917.9,-1499.43 928.75,-1490 954.56,-1467.56 974.92,-1433.7 987.28,-1409.69"/>
<polygon fill="black" stroke="black" points="990.39,-1411.29 991.71,-1400.78 984.13,-1408.17 990.39,-1411.29"/>
</g>
<!-- egglog&#45;&gt;types -->
<g id="edge29" class="edge">
<title>egglog&#45;&gt;types</title>
<path fill="none" stroke="black" d="M891.24,-1522.78C938.42,-1523.94 1033.08,-1526 1113.38,-1526 1113.38,-1526 1113.38,-1526 1218.25,-1526 1306.53,-1526 1324.54,-1572.91 1379.5,-1642 1408.23,-1678.12 1425.74,-1729.46 1434.52,-1761.21"/>
<polygon fill="black" stroke="black" points="1431.03,-1761.72 1436.98,-1770.49 1437.8,-1759.92 1431.03,-1761.72"/>
</g>
<!-- forsp -->
<g id="node10" class="node">
<title>forsp</title>
<polygon fill="none" stroke="black" points="477.5,-1216 423.5,-1216 423.5,-1180 477.5,-1180 477.5,-1216"/>
<text text-anchor="middle" x="450.5" y="-1193.7" font-family="sans-serif" font-size="14.00">forsp</text>
</g>
<!-- forsp&#45;&gt;hash -->
<g id="edge30" class="edge">
<title>forsp&#45;&gt;hash</title>
<path fill="none" stroke="black" d="M477.88,-1186.56C516.54,-1168.41 588.17,-1129.34 626.75,-1074 662.01,-1023.41 620.87,-985.27 662.75,-940 692.61,-907.73 721.39,-934.1 756,-907 800.05,-872.5 831.46,-813.8 847.41,-778.78"/>
<polygon fill="black" stroke="black" points="850.59,-780.25 851.43,-769.69 844.18,-777.42 850.59,-780.25"/>
</g>
<!-- repl&#45;core -->
<g id="node48" class="node">
<title>repl&#45;core</title>
<polygon fill="none" stroke="black" points="618.5,-1314 540.25,-1314 540.25,-1278 618.5,-1278 618.5,-1314"/>
<text text-anchor="middle" x="579.38" y="-1291.7" font-family="sans-serif" font-size="14.00">repl&#45;core</text>
</g>
<!-- forsp&#45;&gt;repl&#45;core -->
<g id="edge31" class="edge">
<title>forsp&#45;&gt;repl&#45;core</title>
<path fill="none" stroke="black" d="M475.36,-1216.43C495.21,-1231.76 523.66,-1253.74 545.64,-1270.72"/>
<polygon fill="black" stroke="black" points="543.37,-1273.38 553.42,-1276.72 547.65,-1267.84 543.37,-1273.38"/>
</g>
<!-- forsp&#45;&gt;sexp -->
<g id="edge32" class="edge">
<title>forsp&#45;&gt;sexp</title>
<path fill="none" stroke="black" d="M477.71,-1200.81C571.98,-1211.09 890.34,-1247.34 928.75,-1272 958.32,-1290.99 978.44,-1326.96 989.71,-1352.38"/>
<polygon fill="black" stroke="black" points="986.43,-1353.63 993.54,-1361.49 992.89,-1350.91 986.43,-1353.63"/>
</g>
<!-- fuse&#45;&gt;hash -->
<g id="edge33" class="edge">
<title>fuse&#45;&gt;hash</title>
<path fill="none" stroke="black" d="M606.74,-542.33C643.49,-541.34 710.7,-544.51 756,-576 807.21,-611.6 837.1,-681.47 850.62,-720.98"/>
<polygon fill="black" stroke="black" points="847.23,-721.88 853.67,-730.29 853.88,-719.7 847.23,-721.88"/>
</g>
<!-- fuse&#45;&gt;object -->
<g id="edge34" class="edge">
<title>fuse&#45;&gt;object</title>
<path fill="none" stroke="black" d="M595.18,-562.23C605.47,-575.76 618.72,-595.08 626.75,-614 655.73,-682.3 639.61,-706.51 662.75,-777 671.28,-802.99 684.11,-831.33 693.99,-851.69"/>
<polygon fill="black" stroke="black" points="690.76,-853.05 698.32,-860.47 697.04,-849.96 690.76,-853.05"/>
</g>
<!-- fuse&#45;&gt;store -->
<g id="edge35" class="edge">
<title>fuse&#45;&gt;store</title>
<path fill="none" stroke="black" d="M588.86,-525.88C603.11,-495.83 633.21,-434.05 662.75,-384 670.79,-370.38 680.46,-355.75 688.82,-343.57"/>
<polygon fill="black" stroke="black" points="691.51,-345.84 694.33,-335.63 685.75,-341.85 691.51,-345.84"/>
</g>
<!-- git&#45;&gt;hash -->
<g id="edge36" class="edge">
<title>git&#45;&gt;hash</title>
<path fill="none" stroke="black" d="M477.92,-499.11C535.05,-490.11 671.69,-477.23 756,-541 815.55,-586.04 842.95,-674.67 853.62,-720.7"/>
<polygon fill="black" stroke="black" points="850.14,-721.2 855.71,-730.21 856.98,-719.7 850.14,-721.2"/>
</g>
<!-- git&#45;&gt;object -->
<g id="edge37" class="edge">
<title>git&#45;&gt;object</title>
<path fill="none" stroke="black" d="M468.29,-522.38C501.14,-558.89 575.2,-643.83 626.75,-723 654.64,-765.83 680.76,-819.31 695.62,-851.5"/>
<polygon fill="black" stroke="black" points="692.43,-852.93 699.77,-860.57 698.79,-850.02 692.43,-852.93"/>
</g>
<!-- sqlite -->
<g id="node55" class="node">
<title>sqlite</title>
<polygon fill="none" stroke="black" points="887.38,-312 833.38,-312 833.38,-276 887.38,-276 887.38,-312"/>
<text text-anchor="middle" x="860.38" y="-289.7" font-family="sans-serif" font-size="14.00">sqlite</text>
</g>
<!-- git&#45;&gt;sqlite -->
<g id="edge38" class="edge">
<title>git&#45;&gt;sqlite</title>
<path fill="none" stroke="black" d="M477.64,-489.61C484.45,-484.79 491.2,-478.86 496,-472 530.09,-423.2 492.5,-387.53 532,-343 605.18,-260.5 752.6,-274.15 821.84,-286.16"/>
<polygon fill="black" stroke="black" points="821.09,-289.58 831.56,-287.94 822.35,-282.69 821.09,-289.58"/>
</g>
<!-- git&#45;&gt;store -->
<g id="edge39" class="edge">
<title>git&#45;&gt;store</title>
<path fill="none" stroke="black" d="M477.55,-488.14C484.05,-483.45 490.67,-477.96 496,-472 517.76,-447.68 508.56,-430.71 532,-408 572.41,-368.85 632.82,-342.27 671.41,-328.12"/>
<polygon fill="black" stroke="black" points="672.48,-331.45 680.73,-324.8 670.13,-324.85 672.48,-331.45"/>
</g>
<!-- grammar -->
<g id="node13" class="node">
<title>grammar</title>
<polygon fill="none" stroke="black" points="1038.5,-1670 964.75,-1670 964.75,-1634 1038.5,-1634 1038.5,-1670"/>
<text text-anchor="middle" x="1001.62" y="-1647.7" font-family="sans-serif" font-size="14.00">grammar</text>
</g>
<!-- grammar&#45;&gt;types -->
<g id="edge40" class="edge">
<title>grammar&#45;&gt;types</title>
<path fill="none" stroke="black" d="M1038.73,-1644.85C1110.06,-1632.77 1271.5,-1615.82 1379.5,-1684 1407.17,-1701.47 1423.95,-1736.1 1432.95,-1761.03"/>
<polygon fill="black" stroke="black" points="1429.55,-1761.91 1436.06,-1770.27 1436.19,-1759.67 1429.55,-1761.91"/>
</g>
<!-- graph -->
<g id="node14" class="node">
<title>graph</title>
<polygon fill="none" stroke="black" points="736.38,-768 682.38,-768 682.38,-732 736.38,-732 736.38,-768"/>
<text text-anchor="middle" x="709.38" y="-745.7" font-family="sans-serif" font-size="14.00">graph</text>
</g>
<!-- graph&#45;&gt;hash -->
<g id="edge41" class="edge">
<title>graph&#45;&gt;hash</title>
<path fill="none" stroke="black" d="M736.67,-750C760.32,-750 795.33,-750 821.91,-750"/>
<polygon fill="black" stroke="black" points="821.58,-753.5 831.58,-750 821.58,-746.5 821.58,-753.5"/>
</g>
<!-- parse -->
<g id="node39" class="node">
<title>parse</title>
<polygon fill="none" stroke="black" points="1141.38,-1166 1087.38,-1166 1087.38,-1130 1141.38,-1130 1141.38,-1166"/>
<text text-anchor="middle" x="1114.38" y="-1143.7" font-family="sans-serif" font-size="14.00">parse</text>
</g>
<!-- graph&#45;&gt;parse -->
<g id="edge42" class="edge">
<title>graph&#45;&gt;parse</title>
<path fill="none" stroke="black" d="M736.58,-763.47C797.38,-795.9 949.65,-884.1 1038.5,-997 1068.61,-1035.26 1091.21,-1087.57 1103.34,-1119.51"/>
<polygon fill="black" stroke="black" points="1099.91,-1120.32 1106.67,-1128.48 1106.47,-1117.89 1099.91,-1120.32"/>
</g>
<!-- rand -->
<g id="node46" class="node">
<title>rand</title>
<polygon fill="none" stroke="black" points="1028.62,-768 974.62,-768 974.62,-732 1028.62,-732 1028.62,-768"/>
<text text-anchor="middle" x="1001.62" y="-745.7" font-family="sans-serif" font-size="14.00">rand</text>
</g>
<!-- hash&#45;&gt;rand -->
<g id="edge43" class="edge">
<title>hash&#45;&gt;rand</title>
<path fill="none" stroke="black" d="M887.57,-750C908.86,-750 939.19,-750 963.07,-750"/>
<polygon fill="black" stroke="black" points="963.04,-753.5 973.04,-750 963.04,-746.5 963.04,-753.5"/>
</g>
<!-- haskell -->
<g id="node16" class="node">
<title>haskell</title>
<polygon fill="none" stroke="black" points="481.75,-1948 419.25,-1948 419.25,-1912 481.75,-1912 481.75,-1948"/>
<text text-anchor="middle" x="450.5" y="-1925.7" font-family="sans-serif" font-size="14.00">haskell</text>
</g>
<!-- hol&#45;api -->
<g id="node18" class="node">
<title>hol&#45;api</title>
<polygon fill="none" stroke="black" points="610.62,-2146 548.12,-2146 548.12,-2110 610.62,-2110 610.62,-2146"/>
<text text-anchor="middle" x="579.38" y="-2123.7" font-family="sans-serif" font-size="14.00">hol&#45;api</text>
</g>
<!-- haskell&#45;&gt;hol&#45;api -->
<g id="edge44" class="edge">
<title>haskell&#45;&gt;hol&#45;api</title>
<path fill="none" stroke="black" d="M463.21,-1948.27C485.49,-1983.05 534.12,-2058.93 560.5,-2100.1"/>
<polygon fill="black" stroke="black" points="557.54,-2101.97 565.88,-2108.5 563.43,-2098.19 557.54,-2101.97"/>
</g>
<!-- haskell&#45;&gt;hol&#45;eval -->
<g id="edge45" class="edge">
<title>haskell&#45;&gt;hol&#45;eval</title>
<path fill="none" stroke="black" d="M482.16,-1928.65C553.22,-1925.51 729.5,-1917.73 813.48,-1914.03"/>
<polygon fill="black" stroke="black" points="813.59,-1917.52 823.42,-1913.59 813.28,-1910.53 813.59,-1917.52"/>
</g>
<!-- haskell&#45;&gt;init -->
<g id="edge46" class="edge">
<title>haskell&#45;&gt;init</title>
<path fill="none" stroke="black" d="M453.51,-1911.73C458.79,-1872.92 476.71,-1781.93 532,-1735 570.99,-1701.9 631.64,-1694.31 670.69,-1693.18"/>
<polygon fill="black" stroke="black" points="670.6,-1696.68 680.55,-1693.03 670.5,-1689.68 670.6,-1696.68"/>
</g>
<!-- haskell&#45;&gt;types -->
<g id="edge47" class="edge">
<title>haskell&#45;&gt;types</title>
<path fill="none" stroke="black" d="M456.34,-1948.45C467.02,-1987.75 494.66,-2082.06 532,-2155 628.33,-2343.16 648,-2500 859.38,-2500 859.38,-2500 859.38,-2500 1218.25,-2500 1354.6,-2500 1333.35,-2367.3 1379.5,-2239 1433.76,-2088.16 1440.93,-1893.06 1441.59,-1819.66"/>
<polygon fill="black" stroke="black" points="1445.09,-1819.71 1441.64,-1809.69 1438.09,-1819.67 1445.09,-1819.71"/>
</g>
<!-- hol&#45;&gt;core -->
<g id="edge48" class="edge">
<title>hol&#45;&gt;core</title>
<path fill="none" stroke="black" d="M887.56,-2256.73C901.37,-2251.73 917.7,-2243.82 928.75,-2232 969.54,-2188.37 988.2,-2118.83 995.89,-2079.54"/>
<polygon fill="black" stroke="black" points="999.3,-2080.34 997.67,-2069.87 992.42,-2079.08 999.3,-2080.34"/>
</g>
<!-- hol&#45;api&#45;&gt;core -->
<g id="edge49" class="edge">
<title>hol&#45;api&#45;&gt;core</title>
<path fill="none" stroke="black" d="M609.48,-2146.22C672.61,-2183.19 824.83,-2258.28 928.75,-2194 969.03,-2169.09 987.48,-2114.03 995.35,-2079.67"/>
<polygon fill="black" stroke="black" points="998.76,-2080.45 997.4,-2069.95 991.91,-2079.01 998.76,-2080.45"/>
</g>
<!-- hol&#45;api&#45;&gt;hol&#45;eval -->
<g id="edge50" class="edge">
<title>hol&#45;api&#45;&gt;hol&#45;eval</title>
<path fill="none" stroke="black" d="M611.09,-2115.95C661.09,-2096.31 754.7,-2059.42 756,-2058 793.37,-2017.29 754.67,-1979.74 792,-1939 798.11,-1932.34 806.08,-1927.29 814.39,-1923.47"/>
<polygon fill="black" stroke="black" points="815.58,-1926.77 823.58,-1919.83 813,-1920.26 815.58,-1926.77"/>
</g>
<!-- inductive -->
<g id="node20" class="node">
<title>inductive</title>
<polygon fill="none" stroke="black" points="898.75,-2152 822,-2152 822,-2116 898.75,-2116 898.75,-2152"/>
<text text-anchor="middle" x="860.38" y="-2129.7" font-family="sans-serif" font-size="14.00">inductive</text>
</g>
<!-- hol&#45;api&#45;&gt;inductive -->
<g id="edge51" class="edge">
<title>hol&#45;api&#45;&gt;inductive</title>
<path fill="none" stroke="black" d="M610.86,-2130.75C626.38,-2132.02 645.55,-2133.37 662.75,-2134 712.94,-2135.83 770.39,-2135.55 810.17,-2134.99"/>
<polygon fill="black" stroke="black" points="810.21,-2138.49 820.15,-2134.84 810.1,-2131.49 810.21,-2138.49"/>
</g>
<!-- hol&#45;api&#45;&gt;init -->
<g id="edge52" class="edge">
<title>hol&#45;api&#45;&gt;init</title>
<path fill="none" stroke="black" d="M585.79,-2109.63C605.77,-2041.9 675.4,-1805.81 699.83,-1722.99"/>
<polygon fill="black" stroke="black" points="703.13,-1724.17 702.6,-1713.59 696.41,-1722.19 703.13,-1724.17"/>
</g>
<!-- logic&#45;api -->
<g id="node31" class="node">
<title>logic&#45;api</title>
<polygon fill="none" stroke="black" points="897.62,-1984 823.12,-1984 823.12,-1948 897.62,-1948 897.62,-1984"/>
<text text-anchor="middle" x="860.38" y="-1961.7" font-family="sans-serif" font-size="14.00">logic&#45;api</text>
</g>
<!-- hol&#45;api&#45;&gt;logic&#45;api -->
<g id="edge53" class="edge">
<title>hol&#45;api&#45;&gt;logic&#45;api</title>
<path fill="none" stroke="black" d="M610.89,-2128.76C647.82,-2128.33 710.67,-2123.15 756,-2096 796.94,-2071.48 828.15,-2024.34 845.1,-1994.07"/>
<polygon fill="black" stroke="black" points="848.08,-1995.92 849.77,-1985.46 841.92,-1992.58 848.08,-1995.92"/>
</g>
<!-- hol&#45;api&#45;&gt;pure -->
<g id="edge54" class="edge">
<title>hol&#45;api&#45;&gt;pure</title>
<path fill="none" stroke="black" d="M591.38,-2146.38C624.58,-2199.25 729.53,-2348 859.38,-2348 859.38,-2348 859.38,-2348 1002.62,-2348 1152.86,-2348 1200.4,-2110.76 1212.61,-2025.81"/>
<polygon fill="black" stroke="black" points="1216.07,-2026.31 1213.95,-2015.93 1209.13,-2025.36 1216.07,-2026.31"/>
</g>
<!-- hol&#45;api&#45;&gt;types -->
<g id="edge55" class="edge">
<title>hol&#45;api&#45;&gt;types</title>
<path fill="none" stroke="black" d="M585.15,-2146.32C594.68,-2179.68 619.01,-2250.84 662.75,-2294 731.43,-2361.77 762.89,-2386 859.38,-2386 859.38,-2386 859.38,-2386 1218.25,-2386 1340.56,-2386 1418.29,-1940.23 1437.07,-1819.72"/>
<polygon fill="black" stroke="black" points="1440.51,-1820.4 1438.57,-1809.99 1433.59,-1819.34 1440.51,-1820.4"/>
</g>
<!-- hol&#45;eval&#45;&gt;core -->
<g id="edge56" class="edge">
<title>hol&#45;eval&#45;&gt;core</title>
<path fill="none" stroke="black" d="M895.59,-1920.38C907.14,-1924.51 919.46,-1930.49 928.75,-1939 954.85,-1962.89 944.77,-1980.8 964.75,-2010 967.82,-2014.48 971.34,-2018.99 974.96,-2023.28"/>
<polygon fill="black" stroke="black" points="972.16,-2025.4 981.4,-2030.58 977.41,-2020.77 972.16,-2025.4"/>
</g>
<!-- hol&#45;eval&#45;&gt;pure -->
<g id="edge57" class="edge">
<title>hol&#45;eval&#45;&gt;pure</title>
<path fill="none" stroke="black" d="M895.67,-1924.18C915.71,-1931.16 941.56,-1939.91 964.75,-1947 1013.11,-1961.78 1024.94,-1966.95 1074.5,-1977 1109.58,-1984.11 1150.09,-1989.24 1178.8,-1992.36"/>
<polygon fill="black" stroke="black" points="1178.13,-1995.81 1188.44,-1993.38 1178.87,-1988.85 1178.13,-1995.81"/>
</g>
<!-- hol&#45;eval&#45;&gt;pure&#45;eval -->
<g id="edge58" class="edge">
<title>hol&#45;eval&#45;&gt;pure&#45;eval</title>
<path fill="none" stroke="black" d="M895.62,-1917.16C938.82,-1923.68 1013.44,-1934.93 1063.11,-1942.42"/>
<polygon fill="black" stroke="black" points="1062.33,-1945.84 1072.74,-1943.87 1063.37,-1938.92 1062.33,-1945.84"/>
</g>
<!-- hol&#45;eval&#45;&gt;sexp -->
<g id="edge59" class="edge">
<title>hol&#45;eval&#45;&gt;sexp</title>
<path fill="none" stroke="black" d="M871.92,-1893.94C886.79,-1867.72 913.75,-1817.19 928.75,-1771 950.85,-1702.95 984.44,-1488.35 996.3,-1410"/>
<polygon fill="black" stroke="black" points="999.69,-1410.96 997.72,-1400.55 992.77,-1409.91 999.69,-1410.96"/>
</g>
<!-- hol&#45;eval&#45;&gt;types -->
<g id="edge60" class="edge">
<title>hol&#45;eval&#45;&gt;types</title>
<path fill="none" stroke="black" d="M895.66,-1901.68C943.81,-1888.11 1034.44,-1866 1113.38,-1866 1113.38,-1866 1113.38,-1866 1218.25,-1866 1290.71,-1866 1313.42,-1871.73 1379.5,-1842 1393.11,-1835.88 1406.1,-1825.88 1416.65,-1816.28"/>
<polygon fill="black" stroke="black" points="1418.98,-1818.88 1423.79,-1809.44 1414.15,-1813.82 1418.98,-1818.88"/>
</g>
<!-- init&#45;&gt;core -->
<g id="edge61" class="edge">
<title>init&#45;&gt;core</title>
<path fill="none" stroke="black" d="M722.56,-1712.18C741.07,-1739.48 775.84,-1789.43 792,-1804 844.47,-1851.3 881.99,-1832.05 928.75,-1885 964.06,-1924.98 984.24,-1985.01 993.76,-2020.57"/>
<polygon fill="black" stroke="black" points="990.35,-2021.34 996.22,-2030.16 997.13,-2019.6 990.35,-2021.34"/>
</g>
<!-- init&#45;&gt;grammar -->
<g id="edge62" class="edge">
<title>init&#45;&gt;grammar</title>
<path fill="none" stroke="black" d="M736.64,-1690.2C785.54,-1683.12 891.16,-1667.84 952.95,-1658.9"/>
<polygon fill="black" stroke="black" points="953.44,-1662.36 962.83,-1657.47 952.43,-1655.44 953.44,-1662.36"/>
</g>
<!-- init&#45;&gt;hash -->
<g id="edge63" class="edge">
<title>init&#45;&gt;hash</title>
<path fill="none" stroke="black" d="M727.46,-1675.68C737.74,-1663.45 749.95,-1646.46 756,-1629 803.65,-1491.47 766.95,-1118.38 792,-975 804.6,-902.88 832.67,-821.25 848.31,-778.92"/>
<polygon fill="black" stroke="black" points="851.52,-780.32 851.74,-769.73 844.96,-777.87 851.52,-780.32"/>
</g>
<!-- init&#45;&gt;hol -->
<g id="edge64" class="edge">
<title>init&#45;&gt;hol</title>
<path fill="none" stroke="black" d="M710.93,-1712.09C713.42,-1775.85 726.54,-1995.27 792,-2161 802.93,-2188.67 821.9,-2216.7 836.93,-2236.53"/>
<polygon fill="black" stroke="black" points="834.11,-2238.61 843.01,-2244.36 839.64,-2234.32 834.11,-2238.61"/>
</g>
<!-- init&#45;&gt;hol&#45;eval -->
<g id="edge65" class="edge">
<title>init&#45;&gt;hol&#45;eval</title>
<path fill="none" stroke="black" d="M724.46,-1712.48C734.34,-1726.13 747.3,-1745.49 756,-1764 778.96,-1812.86 756.64,-1839.21 792,-1880 798.15,-1887.1 806.22,-1892.74 814.63,-1897.18"/>
<polygon fill="black" stroke="black" points="813.05,-1900.3 823.59,-1901.38 816.02,-1893.97 813.05,-1900.3"/>
</g>
<!-- init&#45;&gt;inductive -->
<g id="edge66" class="edge">
<title>init&#45;&gt;inductive</title>
<path fill="none" stroke="black" d="M714.15,-1712.22C724.19,-1759.44 753.45,-1889.36 792,-1993 807.01,-2033.36 829.31,-2077.87 844.09,-2105.88"/>
<polygon fill="black" stroke="black" points="840.85,-2107.24 848.64,-2114.42 847.03,-2103.95 840.85,-2107.24"/>
</g>
<!-- k -->
<g id="node23" class="node">
<title>k</title>
<polygon fill="none" stroke="black" points="887.38,-1594 833.38,-1594 833.38,-1558 887.38,-1558 887.38,-1594"/>
<text text-anchor="middle" x="860.38" y="-1571.7" font-family="sans-serif" font-size="14.00">k</text>
</g>
<!-- init&#45;&gt;k -->
<g id="edge67" class="edge">
<title>init&#45;&gt;k</title>
<path fill="none" stroke="black" d="M733.66,-1675.56C758.91,-1655.56 799.4,-1623.5 827.58,-1601.18"/>
<polygon fill="black" stroke="black" points="829.4,-1604.2 835.07,-1595.25 825.06,-1598.71 829.4,-1604.2"/>
</g>
<!-- init&#45;&gt;logic&#45;api -->
<g id="edge68" class="edge">
<title>init&#45;&gt;logic&#45;api</title>
<path fill="none" stroke="black" d="M719.11,-1712.42C728.96,-1733.67 745.04,-1769.82 756,-1802 776.3,-1861.59 750.33,-1891.81 792,-1939 797.5,-1945.23 804.65,-1950.05 812.22,-1953.76"/>
<polygon fill="black" stroke="black" points="810.73,-1956.93 821.31,-1957.58 813.45,-1950.48 810.73,-1956.93"/>
</g>
<!-- metamath -->
<g id="node33" class="node">
<title>metamath</title>
<polygon fill="none" stroke="black" points="900.62,-1220 820.12,-1220 820.12,-1184 900.62,-1184 900.62,-1220"/>
<text text-anchor="middle" x="860.38" y="-1197.7" font-family="sans-serif" font-size="14.00">metamath</text>
</g>
<!-- init&#45;&gt;metamath -->
<g id="edge69" class="edge">
<title>init&#45;&gt;metamath</title>
<path fill="none" stroke="black" d="M726.32,-1675.59C736.26,-1663.2 748.54,-1646.05 756,-1629 786.42,-1559.43 774.47,-1535.88 792,-1462 811.95,-1377.93 838.32,-1279.35 851.36,-1231.3"/>
<polygon fill="black" stroke="black" points="854.73,-1232.25 853.98,-1221.68 847.98,-1230.41 854.73,-1232.25"/>
</g>
<!-- init&#45;&gt;sexp -->
<g id="edge70" class="edge">
<title>init&#45;&gt;sexp</title>
<path fill="none" stroke="black" d="M725.82,-1675.74C735.68,-1663.27 748.06,-1645.99 756,-1629 782.11,-1573.13 749.32,-1539.52 792,-1495 836.09,-1449.01 874.17,-1484.86 928.75,-1452 948.09,-1440.35 966.16,-1422.47 979.34,-1407.56"/>
<polygon fill="black" stroke="black" points="981.67,-1410.22 985.52,-1400.35 976.36,-1405.66 981.67,-1410.22"/>
</g>
<!-- spectec -->
<g id="node54" class="node">
<title>spectec</title>
<polygon fill="none" stroke="black" points="895,-1762 825.75,-1762 825.75,-1726 895,-1726 895,-1762"/>
<text text-anchor="middle" x="860.38" y="-1739.7" font-family="sans-serif" font-size="14.00">spectec</text>
</g>
<!-- init&#45;&gt;spectec -->
<g id="edge71" class="edge">
<title>init&#45;&gt;spectec</title>
<path fill="none" stroke="black" d="M736.67,-1702.82C758.21,-1710.05 789.18,-1720.44 814.61,-1728.98"/>
<polygon fill="black" stroke="black" points="813.46,-1732.28 824.05,-1732.15 815.69,-1725.65 813.46,-1732.28"/>
</g>
<!-- init&#45;&gt;types -->
<g id="edge72" class="edge">
<title>init&#45;&gt;types</title>
<path fill="none" stroke="black" d="M736.46,-1710.39C743.13,-1715.08 750.07,-1720.44 756,-1726 774.67,-1743.53 769.44,-1758.87 792,-1771 874,-1815.1 907.52,-1790 1000.62,-1790 1000.62,-1790 1000.62,-1790 1218.25,-1790 1283.4,-1790 1359.24,-1790 1403.65,-1790"/>
<polygon fill="black" stroke="black" points="1403.52,-1793.5 1413.52,-1790 1403.52,-1786.5 1403.52,-1793.5"/>
</g>
<!-- json -->
<g id="node22" class="node">
<title>json</title>
<polygon fill="none" stroke="black" points="887.38,-258 833.38,-258 833.38,-222 887.38,-222 887.38,-258"/>
<text text-anchor="middle" x="860.38" y="-235.7" font-family="sans-serif" font-size="14.00">json</text>
</g>
<!-- k&#45;&gt;grammar -->
<g id="edge73" class="edge">
<title>k&#45;&gt;grammar</title>
<path fill="none" stroke="black" d="M887.61,-1587.68C900.21,-1593.48 915.43,-1600.78 928.75,-1608 939.88,-1614.03 951.7,-1621.01 962.46,-1627.61"/>
<polygon fill="black" stroke="black" points="960.38,-1630.43 970.72,-1632.72 964.07,-1624.48 960.38,-1630.43"/>
</g>
<!-- k&#45;&gt;parse -->
<g id="edge74" class="edge">
<title>k&#45;&gt;parse</title>
<path fill="none" stroke="black" d="M887.66,-1569.04C900.85,-1564.7 916.57,-1558.17 928.75,-1549 992.2,-1501.24 1002.47,-1478.77 1038.5,-1408 1078.37,-1329.69 1099.95,-1226.99 1108.68,-1177.36"/>
<polygon fill="black" stroke="black" points="1112.1,-1178.15 1110.33,-1167.71 1105.2,-1176.97 1112.1,-1178.15"/>
</g>
<!-- k&#45;&gt;sexp -->
<g id="edge75" class="edge">
<title>k&#45;&gt;sexp</title>
<path fill="none" stroke="black" d="M887.73,-1570.58C901.42,-1566.6 917.57,-1559.92 928.75,-1549 968.06,-1510.59 987.08,-1447.22 995.27,-1410.27"/>
<polygon fill="black" stroke="black" points="998.64,-1411.25 997.25,-1400.75 991.79,-1409.83 998.64,-1411.25"/>
</g>
<!-- kernel -->
<g id="node24" class="node">
<title>kernel</title>
<polygon fill="none" stroke="black" points="608,-1406 550.75,-1406 550.75,-1370 608,-1370 608,-1406"/>
<text text-anchor="middle" x="579.38" y="-1383.7" font-family="sans-serif" font-size="14.00">kernel</text>
</g>
<!-- kernel&#45;&gt;hash -->
<g id="edge76" class="edge">
<title>kernel&#45;&gt;hash</title>
<path fill="none" stroke="black" d="M597.43,-1369.61C607.75,-1357.36 620.15,-1340.36 626.75,-1323 679.97,-1183.03 578.04,-1111.49 662.75,-988 689.12,-949.56 722.66,-972.58 756,-940 803.89,-893.2 835.22,-819.41 849.82,-778.94"/>
<polygon fill="black" stroke="black" points="853.08,-780.24 853.08,-769.65 846.47,-777.93 853.08,-780.24"/>
</g>
<!-- kernel&#45;&gt;init -->
<g id="edge77" class="edge">
<title>kernel&#45;&gt;init</title>
<path fill="none" stroke="black" d="M589.71,-1406.22C599.83,-1426.52 615.99,-1460.48 626.75,-1491 647.84,-1550.78 636.12,-1571.48 662.75,-1629 668.9,-1642.29 677.81,-1655.75 686.12,-1666.94"/>
<polygon fill="black" stroke="black" points="683.1,-1668.76 691.97,-1674.56 688.66,-1664.5 683.1,-1668.76"/>
</g>
<!-- kernel&#45;&gt;object -->
<g id="edge78" class="edge">
<title>kernel&#45;&gt;object</title>
<path fill="none" stroke="black" d="M597.5,-1369.64C607.84,-1357.39 620.24,-1340.4 626.75,-1323 685.1,-1167.01 607.69,-1107.18 662.75,-950 668.05,-934.88 677.27,-919.77 686.04,-907.48"/>
<polygon fill="black" stroke="black" points="688.82,-909.61 691.99,-899.5 683.21,-905.43 688.82,-909.61"/>
</g>
<!-- kernel&#45;&gt;sexp -->
<g id="edge79" class="edge">
<title>kernel&#45;&gt;sexp</title>
<path fill="none" stroke="black" d="M608.24,-1378.67C667.72,-1360.07 811.29,-1322.32 928.75,-1348 940.74,-1350.62 953.13,-1355.44 964.17,-1360.6"/>
<polygon fill="black" stroke="black" points="962.41,-1363.63 972.93,-1364.92 965.51,-1357.35 962.41,-1363.63"/>
</g>
<!-- kernel&#45;&gt;store -->
<g id="edge80" class="edge">
<title>kernel&#45;&gt;store</title>
<path fill="none" stroke="black" d="M597.84,-1369.76C608.32,-1357.56 620.75,-1340.58 626.75,-1323 694.22,-1125.38 598.13,-582.57 662.75,-384 667.51,-369.39 676.38,-354.99 685.05,-343.23"/>
<polygon fill="black" stroke="black" points="687.59,-345.66 690.95,-335.61 682.06,-341.38 687.59,-345.66"/>
</g>
<!-- kernel&#45;sat -->
<g id="node25" class="node">
<title>kernel&#45;sat</title>
<polygon fill="none" stroke="black" points="621.12,-1849 537.62,-1849 537.62,-1813 621.12,-1813 621.12,-1849"/>
<text text-anchor="middle" x="579.38" y="-1826.7" font-family="sans-serif" font-size="14.00">kernel&#45;sat</text>
</g>
<!-- kernel&#45;sat&#45;&gt;core -->
<g id="edge81" class="edge">
<title>kernel&#45;sat&#45;&gt;core</title>
<path fill="none" stroke="black" d="M600.75,-1849.5C633.57,-1879.34 700.13,-1940.01 756,-1992 772.11,-2006.99 772.05,-2016.71 792,-2026 847.29,-2051.74 919.4,-2054.09 962.74,-2052.62"/>
<polygon fill="black" stroke="black" points="962.81,-2056.12 972.65,-2052.19 962.51,-2049.13 962.81,-2056.12"/>
</g>
<!-- kernel&#45;sat&#45;&gt;hol&#45;eval -->
<g id="edge82" class="edge">
<title>kernel&#45;sat&#45;&gt;hol&#45;eval</title>
<path fill="none" stroke="black" d="M621.37,-1841.27C657.08,-1850.39 710.17,-1864.34 756,-1878 775.19,-1883.72 796.21,-1890.53 814.26,-1896.55"/>
<polygon fill="black" stroke="black" points="813.04,-1899.83 823.63,-1899.7 815.27,-1893.2 813.04,-1899.83"/>
</g>
<!-- kernel&#45;sat&#45;&gt;init -->
<g id="edge83" class="edge">
<title>kernel&#45;sat&#45;&gt;init</title>
<path fill="none" stroke="black" d="M601.67,-1812.72C609.74,-1805.54 618.87,-1797.09 626.75,-1789 648.1,-1767.08 670.64,-1740.56 686.61,-1721.11"/>
<polygon fill="black" stroke="black" points="689.11,-1723.59 692.72,-1713.62 683.69,-1719.16 689.11,-1723.59"/>
</g>
<!-- sat -->
<g id="node49" class="node">
<title>sat</title>
<polygon fill="none" stroke="black" points="887.38,-1166 833.38,-1166 833.38,-1130 887.38,-1130 887.38,-1166"/>
<text text-anchor="middle" x="860.38" y="-1143.7" font-family="sans-serif" font-size="14.00">sat</text>
</g>
<!-- kernel&#45;sat&#45;&gt;sat -->
<g id="edge84" class="edge">
<title>kernel&#45;sat&#45;&gt;sat</title>
<path fill="none" stroke="black" d="M606.69,-1812.59C614.29,-1806 621.85,-1797.96 626.75,-1789 673.05,-1704.39 639.86,-1668.69 662.75,-1575 707.09,-1393.51 664.5,-1311.56 792,-1175 800.06,-1166.36 811.26,-1160.43 822.2,-1156.38"/>
<polygon fill="black" stroke="black" points="823.06,-1159.79 831.51,-1153.39 820.92,-1153.12 823.06,-1159.79"/>
</g>
<!-- kernel&#45;smt -->
<g id="node26" class="node">
<title>kernel&#45;smt</title>
<polygon fill="none" stroke="black" points="494.5,-2522 406.5,-2522 406.5,-2486 494.5,-2486 494.5,-2522"/>
<text text-anchor="middle" x="450.5" y="-2499.7" font-family="sans-serif" font-size="14.00">kernel&#45;smt</text>
</g>
<!-- kernel&#45;smt&#45;&gt;core -->
<g id="edge85" class="edge">
<title>kernel&#45;smt&#45;&gt;core</title>
<path fill="none" stroke="black" d="M494.75,-2500.43C588.38,-2490.31 810.9,-2453.05 928.75,-2322 991.45,-2252.28 1000.53,-2134.16 1001.15,-2079.44"/>
<polygon fill="black" stroke="black" points="1004.65,-2079.68 1001.16,-2069.68 997.65,-2079.67 1004.65,-2079.68"/>
</g>
<!-- kernel&#45;smt&#45;&gt;hol&#45;api -->
<g id="edge86" class="edge">
<title>kernel&#45;smt&#45;&gt;hol&#45;api</title>
<path fill="none" stroke="black" d="M457.71,-2485.61C478.15,-2425.01 543.53,-2231.25 568.53,-2157.18"/>
<polygon fill="black" stroke="black" points="571.82,-2158.38 571.7,-2147.79 565.18,-2156.14 571.82,-2158.38"/>
</g>
<!-- kv -->
<g id="node27" class="node">
<title>kv</title>
<polygon fill="none" stroke="black" points="226.12,-307 172.12,-307 172.12,-271 226.12,-271 226.12,-307"/>
<text text-anchor="middle" x="199.12" y="-284.7" font-family="sans-serif" font-size="14.00">kv</text>
</g>
<!-- lean -->
<g id="node28" class="node">
<title>lean</title>
<polygon fill="none" stroke="black" points="87.5,-1122 33.5,-1122 33.5,-1086 87.5,-1086 87.5,-1122"/>
<text text-anchor="middle" x="60.5" y="-1099.7" font-family="sans-serif" font-size="14.00">lean</text>
</g>
<!-- lisp -->
<g id="node29" class="node">
<title>lisp</title>
<polygon fill="none" stroke="black" points="477.5,-1631 423.5,-1631 423.5,-1595 477.5,-1595 477.5,-1631"/>
<text text-anchor="middle" x="450.5" y="-1608.7" font-family="sans-serif" font-size="14.00">lisp</text>
</g>
<!-- lisp&#45;&gt;core -->
<g id="edge87" class="edge">
<title>lisp&#45;&gt;core</title>
<path fill="none" stroke="black" d="M452.49,-1631.35C455.88,-1678.57 470.54,-1806.31 532,-1888 614.29,-1997.36 660.57,-2014.82 792,-2053 849.87,-2069.81 920.63,-2063.51 963.09,-2057.03"/>
<polygon fill="black" stroke="black" points="963.47,-2060.51 972.78,-2055.46 962.35,-2053.6 963.47,-2060.51"/>
</g>
<!-- lisp&#45;&gt;hol&#45;api -->
<g id="edge88" class="edge">
<title>lisp&#45;&gt;hol&#45;api</title>
<path fill="none" stroke="black" d="M453.71,-1631.19C461.02,-1689.01 486.6,-1873.45 532,-2020 540.59,-2047.72 553.95,-2077.97 564.12,-2099.39"/>
<polygon fill="black" stroke="black" points="560.95,-2100.87 568.46,-2108.36 567.26,-2097.83 560.95,-2100.87"/>
</g>
<!-- lisp&#45;&gt;hol&#45;eval -->
<g id="edge89" class="edge">
<title>lisp&#45;&gt;hol&#45;eval</title>
<path fill="none" stroke="black" d="M451.51,-1631.19C452.61,-1677.1 462.3,-1798.28 532,-1858 573.59,-1893.63 734.01,-1906.12 813.79,-1910.19"/>
<polygon fill="black" stroke="black" points="813.28,-1913.67 823.44,-1910.66 813.62,-1906.68 813.28,-1913.67"/>
</g>
<!-- lisp&#45;&gt;init -->
<g id="edge90" class="edge">
<title>lisp&#45;&gt;init</title>
<path fill="none" stroke="black" d="M477.8,-1620.04C512.23,-1629.41 574.37,-1646.78 626.75,-1664 641.46,-1668.84 657.49,-1674.62 671.42,-1679.8"/>
<polygon fill="black" stroke="black" points="670.06,-1683.03 680.65,-1683.27 672.52,-1676.48 670.06,-1683.03"/>
</g>
<!-- lisp&#45;&gt;repl&#45;core -->
<g id="edge91" class="edge">
<title>lisp&#45;&gt;repl&#45;core</title>
<path fill="none" stroke="black" d="M458.75,-1594.56C467.96,-1570.8 484.1,-1528.15 496,-1491 514.29,-1433.9 506.2,-1415.12 532,-1361 538.34,-1347.71 547.4,-1334.25 555.84,-1323.06"/>
<polygon fill="black" stroke="black" points="558.39,-1325.47 561.78,-1315.43 552.87,-1321.17 558.39,-1325.47"/>
</g>
<!-- lisp&#45;&gt;sexp -->
<g id="edge92" class="edge">
<title>lisp&#45;&gt;sexp</title>
<path fill="none" stroke="black" d="M462.8,-1594.66C482.7,-1562.55 522.77,-1498.8 532,-1491 535.01,-1488.45 788.14,-1376.82 792,-1376 850.68,-1363.6 920.71,-1369.33 962.87,-1374.92"/>
<polygon fill="black" stroke="black" points="962.36,-1378.39 972.75,-1376.31 963.33,-1371.46 962.36,-1378.39"/>
</g>
<!-- lisp&#45;&gt;types -->
<g id="edge93" class="edge">
<title>lisp&#45;&gt;types</title>
<path fill="none" stroke="black" d="M464.43,-1594.59C473.92,-1580.59 486.71,-1560.61 496,-1542 515.97,-1501.97 499.89,-1479.15 532,-1448 564.01,-1416.95 599.31,-1450.15 626.75,-1415 681.53,-1344.82 609.8,-1087.57 662.75,-1016 689.37,-980.02 718.01,-1001.65 756,-978 774.17,-966.69 772.54,-954.92 792,-946 877.04,-907 907.07,-918 1000.62,-918 1000.62,-918 1000.62,-918 1218.25,-918 1295.86,-918 1333.97,-922.15 1379.5,-985 1425.8,-1048.91 1438.62,-1623.34 1441.03,-1760.63"/>
<polygon fill="black" stroke="black" points="1437.53,-1760.38 1441.2,-1770.32 1444.53,-1760.27 1437.53,-1760.38"/>
</g>
<!-- llm -->
<g id="node30" class="node">
<title>llm</title>
<polygon fill="none" stroke="black" points="226.12,-968 172.12,-968 172.12,-932 226.12,-932 226.12,-968"/>
<text text-anchor="middle" x="199.12" y="-945.7" font-family="sans-serif" font-size="14.00">llm</text>
</g>
<!-- llm&#45;&gt;proto -->
<g id="edge94" class="edge">
<title>llm&#45;&gt;proto</title>
<path fill="none" stroke="black" d="M218.39,-968.26C238.87,-988.75 272.28,-1022.15 295.63,-1045.5"/>
<polygon fill="black" stroke="black" points="293.12,-1047.94 302.67,-1052.54 298.07,-1042.99 293.12,-1047.94"/>
</g>
<!-- lsp&#45;&gt;sexp -->
<g id="edge95" class="edge">
<title>lsp&#45;&gt;sexp</title>
<path fill="none" stroke="black" d="M887.66,-1098.66C901.68,-1102.44 918.17,-1109.16 928.75,-1121 988.13,-1187.39 998.95,-1298.63 1000.59,-1351.45"/>
<polygon fill="black" stroke="black" points="997.08,-1351.24 1000.79,-1361.16 1004.08,-1351.09 997.08,-1351.24"/>
</g>
<!-- lsp&#45;&gt;wasm -->
<g id="edge96" class="edge">
<title>lsp&#45;&gt;wasm</title>
<path fill="none" stroke="black" d="M887.6,-1076.09C902.34,-1064.49 919.57,-1048.03 928.75,-1029 944.68,-995.98 987.94,-444.9 998.35,-309.75"/>
<polygon fill="black" stroke="black" points="1001.84,-310.08 999.11,-299.84 994.86,-309.54 1001.84,-310.08"/>
</g>
<!-- metamath&#45;&gt;parse -->
<g id="edge97" class="edge">
<title>metamath&#45;&gt;parse</title>
<path fill="none" stroke="black" d="M901.03,-1193.5C948.94,-1183.24 1028.96,-1166.09 1075.89,-1156.03"/>
<polygon fill="black" stroke="black" points="1076.54,-1159.47 1085.58,-1153.96 1075.07,-1152.63 1076.54,-1159.47"/>
</g>
<!-- metamath&#45;&gt;sexp -->
<g id="edge98" class="edge">
<title>metamath&#45;&gt;sexp</title>
<path fill="none" stroke="black" d="M900.92,-1215.4C910.87,-1220.13 920.92,-1226.26 928.75,-1234 946.58,-1251.63 974.01,-1314.87 989.31,-1352.42"/>
<polygon fill="black" stroke="black" points="985.91,-1353.35 992.9,-1361.32 992.4,-1350.73 985.91,-1353.35"/>
</g>
<!-- multiformat -->
<g id="node34" class="node">
<title>multiformat</title>
<polygon fill="none" stroke="black" points="754.5,-1104 664.25,-1104 664.25,-1068 754.5,-1068 754.5,-1104"/>
<text text-anchor="middle" x="709.38" y="-1081.7" font-family="sans-serif" font-size="14.00">multiformat</text>
</g>
<!-- multiformat&#45;&gt;acset -->
<g id="edge99" class="edge">
<title>multiformat&#45;&gt;acset</title>
<path fill="none" stroke="black" d="M737.44,-1067.56C753.09,-1057.21 773.33,-1044.33 792,-1034 801.84,-1028.56 812.76,-1023.12 822.89,-1018.32"/>
<polygon fill="black" stroke="black" points="824.12,-1021.61 831.71,-1014.21 821.17,-1015.26 824.12,-1021.61"/>
</g>
<!-- multiformat&#45;&gt;hash -->
<g id="edge100" class="edge">
<title>multiformat&#45;&gt;hash</title>
<path fill="none" stroke="black" d="M718.39,-1067.94C742.89,-1012.67 816.99,-845.57 846.78,-778.41"/>
<polygon fill="black" stroke="black" points="849.86,-780.1 850.71,-769.54 843.46,-777.26 849.86,-780.1"/>
</g>
<!-- multiformat&#45;&gt;parse -->
<g id="edge101" class="edge">
<title>multiformat&#45;&gt;parse</title>
<path fill="none" stroke="black" d="M754.96,-1073.68C766.9,-1070.92 779.86,-1068.39 792,-1067 852.38,-1060.07 869.27,-1054.53 928.75,-1067 983.23,-1078.43 1041.28,-1106.92 1077.43,-1126.86"/>
<polygon fill="black" stroke="black" points="1075.27,-1129.66 1085.71,-1131.5 1078.7,-1123.56 1075.27,-1129.66"/>
</g>
<!-- numerals -->
<g id="node35" class="node">
<title>numerals</title>
<polygon fill="none" stroke="black" points="617.75,-1536 541,-1536 541,-1500 617.75,-1500 617.75,-1536"/>
<text text-anchor="middle" x="579.38" y="-1513.7" font-family="sans-serif" font-size="14.00">numerals</text>
</g>
<!-- numerals&#45;&gt;grammar -->
<g id="edge102" class="edge">
<title>numerals&#45;&gt;grammar</title>
<path fill="none" stroke="black" d="M618.21,-1526.23C654.84,-1535.13 711.25,-1551.28 756,-1575 773.91,-1584.49 773.71,-1594.26 792,-1603 844.08,-1627.89 909.65,-1640.61 953.24,-1646.77"/>
<polygon fill="black" stroke="black" points="952.5,-1650.2 962.87,-1648.06 953.43,-1643.26 952.5,-1650.2"/>
</g>
<!-- numerals&#45;&gt;hol&#45;eval -->
<g id="edge103" class="edge">
<title>numerals&#45;&gt;hol&#45;eval</title>
<path fill="none" stroke="black" d="M611.76,-1536.18C617.21,-1540.25 622.48,-1544.9 626.75,-1550 651.52,-1579.58 634.92,-1602.28 662.75,-1629 695.03,-1660 725.22,-1634.52 756,-1667 789.65,-1702.5 773.43,-1725.75 792,-1771 808.35,-1810.84 830.33,-1855.48 844.67,-1883.65"/>
<polygon fill="black" stroke="black" points="841.4,-1884.95 849.07,-1892.25 847.63,-1881.76 841.4,-1884.95"/>
</g>
<!-- numerals&#45;&gt;init -->
<g id="edge104" class="edge">
<title>numerals&#45;&gt;init</title>
<path fill="none" stroke="black" d="M612.73,-1536.15C617.95,-1540.18 622.9,-1544.82 626.75,-1550 657.93,-1591.97 631.73,-1619.91 662.75,-1662 665.74,-1666.05 669.39,-1669.78 673.33,-1673.15"/>
<polygon fill="black" stroke="black" points="670.94,-1675.73 681.01,-1679.01 675.18,-1670.16 670.94,-1675.73"/>
</g>
<!-- numerals&#45;&gt;types -->
<g id="edge105" class="edge">
<title>numerals&#45;&gt;types</title>
<path fill="none" stroke="black" d="M596.13,-1499.76C606.74,-1486.38 619.97,-1467.25 626.75,-1448 655.59,-1366.12 612.63,-1129.88 662.75,-1059 689.1,-1021.74 719.43,-1043.3 756,-1016 775.43,-1001.5 770.39,-985.99 792,-975 874.99,-932.79 907.52,-956 1000.62,-956 1000.62,-956 1000.62,-956 1218.25,-956 1388.46,-956 1432.37,-1612.42 1440.12,-1760.54"/>
<polygon fill="black" stroke="black" points="1436.61,-1760.48 1440.61,-1770.29 1443.6,-1760.13 1436.61,-1760.48"/>
</g>
<!-- object&#45;&gt;hash -->
<g id="edge106" class="edge">
<title>object&#45;&gt;hash</title>
<path fill="none" stroke="black" d="M737.88,-861.69C743.97,-857.36 750.31,-852.65 756,-848 783.94,-825.17 813.61,-796.53 833.96,-776.12"/>
<polygon fill="black" stroke="black" points="836.2,-778.83 840.75,-769.26 831.23,-773.91 836.2,-778.83"/>
</g>
<!-- object&#45;&gt;parse -->
<g id="edge107" class="edge">
<title>object&#45;&gt;parse</title>
<path fill="none" stroke="black" d="M738.33,-888.93C781.28,-903.35 865.21,-934.31 928.75,-975 983.82,-1010.27 990.99,-1028.06 1038.5,-1073 1055.15,-1088.75 1073.32,-1106.93 1087.59,-1121.44"/>
<polygon fill="black" stroke="black" points="1084.95,-1123.74 1094.45,-1128.44 1089.95,-1118.84 1084.95,-1123.74"/>
</g>
<!-- opentheory&#45;&gt;core -->
<g id="edge108" class="edge">
<title>opentheory&#45;&gt;core</title>
<path fill="none" stroke="black" d="M470.75,-2146.1C539.42,-2208.47 776.41,-2404.54 928.75,-2291 963.06,-2265.43 986.96,-2137.75 996.28,-2079.3"/>
<polygon fill="black" stroke="black" points="999.69,-2080.18 997.77,-2069.76 992.77,-2079.1 999.69,-2080.18"/>
</g>
<!-- opentheory&#45;&gt;hol -->
<g id="edge109" class="edge">
<title>opentheory&#45;&gt;hol</title>
<path fill="none" stroke="black" d="M496.11,-2145.46C538.66,-2161.88 604.68,-2186.74 662.75,-2206 717.78,-2224.25 782.41,-2242.76 822.12,-2253.81"/>
<polygon fill="black" stroke="black" points="821.09,-2257.16 831.66,-2256.45 822.96,-2250.41 821.09,-2257.16"/>
</g>
<!-- opentheory&#45;&gt;hol&#45;api -->
<g id="edge110" class="edge">
<title>opentheory&#45;&gt;hol&#45;api</title>
<path fill="none" stroke="black" d="M496.23,-2128C509.34,-2128 523.62,-2128 536.54,-2128"/>
<polygon fill="black" stroke="black" points="536.44,-2131.5 546.44,-2128 536.44,-2124.5 536.44,-2131.5"/>
</g>
<!-- opentheory&#45;&gt;hol&#45;eval -->
<g id="edge111" class="edge">
<title>opentheory&#45;&gt;hol&#45;eval</title>
<path fill="none" stroke="black" d="M481.35,-2109.75C539.78,-2074.42 673.85,-1995.19 792,-1939 799.19,-1935.58 806.94,-1932.2 814.53,-1929.05"/>
<polygon fill="black" stroke="black" points="815.73,-1932.35 823.68,-1925.35 813.1,-1925.86 815.73,-1932.35"/>
</g>
<!-- parquet -->
<g id="node38" class="node">
<title>parquet</title>
<polygon fill="none" stroke="black" points="484,-766 417,-766 417,-730 484,-730 484,-766"/>
<text text-anchor="middle" x="450.5" y="-743.7" font-family="sans-serif" font-size="14.00">parquet</text>
</g>
<!-- parquet&#45;&gt;arrow -->
<g id="edge112" class="edge">
<title>parquet&#45;&gt;arrow</title>
<path fill="none" stroke="black" d="M484.17,-748.52C501.52,-748.79 522.91,-749.13 540.93,-749.41"/>
<polygon fill="black" stroke="black" points="540.63,-752.91 550.69,-749.56 540.74,-745.91 540.63,-752.91"/>
</g>
<!-- proptest -->
<g id="node40" class="node">
<title>proptest</title>
<polygon fill="none" stroke="black" points="95.88,-1176 25.12,-1176 25.12,-1140 95.88,-1140 95.88,-1176"/>
<text text-anchor="middle" x="60.5" y="-1153.7" font-family="sans-serif" font-size="14.00">proptest</text>
</g>
<!-- pure&#45;trusted -->
<g id="node44" class="node">
<title>pure&#45;trusted</title>
<polygon fill="#ffd6d6" stroke="black" points="1379.5,-2012 1280.25,-2012 1280.25,-1976 1379.5,-1976 1379.5,-2012"/>
<text text-anchor="middle" x="1329.88" y="-1989.7" font-family="sans-serif" font-size="14.00">pure&#45;trusted</text>
</g>
<!-- pure&#45;&gt;pure&#45;trusted -->
<g id="edge113" class="edge">
<title>pure&#45;&gt;pure&#45;trusted</title>
<path fill="none" stroke="black" d="M1244.75,-1995.52C1252.04,-1995.39 1260.27,-1995.24 1268.64,-1995.09"/>
<polygon fill="black" stroke="black" points="1268.63,-1998.59 1278.57,-1994.91 1268.51,-1991.59 1268.63,-1998.59"/>
</g>
<!-- pure&#45;eval&#45;&gt;pure -->
<g id="edge114" class="edge">
<title>pure&#45;eval&#45;&gt;pure</title>
<path fill="none" stroke="black" d="M1154.66,-1967.92C1162.9,-1971.67 1171.54,-1975.61 1179.67,-1979.32"/>
<polygon fill="black" stroke="black" points="1178.05,-1982.43 1188.6,-1983.39 1180.96,-1976.06 1178.05,-1982.43"/>
</g>
<!-- pure&#45;eval&#45;&gt;types -->
<g id="edge115" class="edge">
<title>pure&#45;eval&#45;&gt;types</title>
<path fill="none" stroke="black" d="M1154.42,-1956.1C1209.89,-1962.55 1312.21,-1966.05 1379.5,-1918 1412.14,-1894.69 1428.32,-1849.43 1435.79,-1819.45"/>
<polygon fill="black" stroke="black" points="1439.16,-1820.42 1437.98,-1809.89 1432.34,-1818.85 1439.16,-1820.42"/>
</g>
<!-- pure&#45;trusted&#45;&gt;types -->
<g id="edge116" class="edge">
<title>pure&#45;trusted&#45;&gt;types</title>
<path fill="none" stroke="black" d="M1363.12,-1975.67C1369.16,-1971.14 1374.98,-1965.88 1379.5,-1960 1412.26,-1917.36 1428.93,-1855.75 1436.38,-1819.59"/>
<polygon fill="black" stroke="black" points="1439.8,-1820.34 1438.27,-1809.86 1432.93,-1819.01 1439.8,-1820.34"/>
</g>
<!-- python -->
<g id="node45" class="node">
<title>python</title>
<polygon fill="none" stroke="black" points="91.38,-438 29.62,-438 29.62,-402 91.38,-402 91.38,-438"/>
<text text-anchor="middle" x="60.5" y="-415.7" font-family="sans-serif" font-size="14.00">python</text>
</g>
<!-- python&#45;&gt;crypto&#45;sig -->
<g id="edge117" class="edge">
<title>python&#45;&gt;crypto&#45;sig</title>
<path fill="none" stroke="black" d="M62.13,-401.79C64.9,-344.99 79.62,-167.84 157,-50 158.23,-48.13 159.6,-46.32 161.09,-44.58"/>
<polygon fill="black" stroke="black" points="163.53,-47.08 168.14,-37.54 158.59,-42.13 163.53,-47.08"/>
</g>
<!-- python&#45;&gt;git -->
<g id="edge118" class="edge">
<title>python&#45;&gt;git</title>
<path fill="none" stroke="black" d="M66.22,-401.52C76.2,-366.76 103.12,-292.39 157,-262 189.61,-243.6 207.22,-246.39 241.25,-262 338.58,-306.65 407.61,-421.73 435.62,-475.51"/>
<polygon fill="black" stroke="black" points="432.47,-477.04 440.13,-484.36 438.71,-473.86 432.47,-477.04"/>
</g>
<!-- python&#45;&gt;graph -->
<g id="edge119" class="edge">
<title>python&#45;&gt;graph</title>
<path fill="none" stroke="black" d="M91.83,-435.47C198.53,-489.91 556.35,-672.44 671.99,-731.44"/>
<polygon fill="black" stroke="black" points="670.25,-734.48 680.75,-735.91 673.43,-728.25 670.25,-734.48"/>
</g>
<!-- python&#45;&gt;hash -->
<g id="edge120" class="edge">
<title>python&#45;&gt;hash</title>
<path fill="none" stroke="black" d="M91.84,-417.41C133.57,-413.99 211.03,-408.15 277.25,-406 318.01,-404.68 328.49,-401.3 369,-406 456.76,-416.18 688.83,-439.62 756,-497 824.78,-555.75 848.45,-667.31 856.05,-720.44"/>
<polygon fill="black" stroke="black" points="852.57,-720.79 857.35,-730.24 859.51,-719.87 852.57,-720.79"/>
</g>
<!-- python&#45;&gt;kv -->
<g id="edge121" class="edge">
<title>python&#45;&gt;kv</title>
<path fill="none" stroke="black" d="M77.68,-401.72C96.12,-381.26 127.52,-347.5 157,-321 159.4,-318.85 161.92,-316.67 164.5,-314.52"/>
<polygon fill="black" stroke="black" points="166.56,-317.36 172.13,-308.35 162.15,-311.92 166.56,-317.36"/>
</g>
<!-- python&#45;&gt;llm -->
<g id="edge122" class="edge">
<title>python&#45;&gt;llm</title>
<path fill="none" stroke="black" d="M63.27,-438.25C71.24,-517.83 105.68,-834.2 157,-918 158.83,-920.99 161.05,-923.81 163.5,-926.44"/>
<polygon fill="black" stroke="black" points="161.06,-928.95 170.78,-933.15 165.8,-923.8 161.06,-928.95"/>
</g>
<!-- python&#45;&gt;object -->
<g id="edge123" class="edge">
<title>python&#45;&gt;object</title>
<path fill="none" stroke="black" d="M65.81,-438.04C82.42,-504.44 147.99,-738.7 277.25,-882 346.39,-958.64 394.45,-978.49 496,-960 559.47,-948.44 628.64,-918.94 670.24,-899.18"/>
<polygon fill="black" stroke="black" points="671.6,-902.41 679.09,-894.91 668.57,-896.1 671.6,-902.41"/>
</g>
<!-- python&#45;&gt;repl -->
<g id="edge124" class="edge">
<title>python&#45;&gt;repl</title>
<path fill="none" stroke="black" d="M74.42,-438.35C116.8,-498.51 251.73,-690.07 302.53,-762.18"/>
<polygon fill="black" stroke="black" points="299.63,-764.14 308.25,-770.3 305.35,-760.11 299.63,-764.14"/>
</g>
<!-- python&#45;&gt;sat -->
<g id="edge125" class="edge">
<title>python&#45;&gt;sat</title>
<path fill="none" stroke="black" d="M63.38,-438.2C74.76,-547.78 134.68,-1115.87 157,-1145 251.16,-1267.88 342.04,-1241.13 496,-1225 617.01,-1212.32 757.02,-1176.51 822.3,-1158.55"/>
<polygon fill="black" stroke="black" points="823.07,-1161.96 831.77,-1155.92 821.2,-1155.22 823.07,-1161.96"/>
</g>
<!-- python&#45;&gt;serve -->
<g id="edge126" class="edge">
<title>python&#45;&gt;serve</title>
<path fill="none" stroke="black" d="M63.88,-438.42C73.14,-508.85 108.69,-767.64 157,-977 166.07,-1016.31 179.64,-1060.88 188.68,-1089.2"/>
<polygon fill="black" stroke="black" points="185.27,-1090.04 191.67,-1098.48 191.93,-1087.89 185.27,-1090.04"/>
</g>
<!-- python&#45;&gt;sexp -->
<g id="edge127" class="edge">
<title>python&#45;&gt;sexp</title>
<path fill="none" stroke="black" d="M63.51,-438.39C76.23,-554.36 145.3,-1180.14 157,-1196 191.78,-1243.15 222.23,-1229.88 277.25,-1250 387.87,-1290.45 415.63,-1304.86 532,-1323 706.31,-1350.17 760.2,-1282.9 928.75,-1335 943.27,-1339.49 957.69,-1347.76 969.77,-1356.07"/>
<polygon fill="black" stroke="black" points="967.52,-1358.77 977.68,-1361.79 971.62,-1353.09 967.52,-1358.77"/>
</g>
<!-- python&#45;&gt;shell -->
<g id="edge128" class="edge">
<title>python&#45;&gt;shell</title>
<path fill="none" stroke="black" d="M63.61,-438.47C71.54,-508 100.11,-760.57 121,-969 129.7,-1055.82 103.47,-1291.09 157,-1360 189.1,-1401.32 340.81,-1439.8 412.19,-1455.97"/>
<polygon fill="black" stroke="black" points="411.33,-1459.36 421.86,-1458.13 412.86,-1452.53 411.33,-1459.36"/>
</g>
<!-- python&#45;&gt;store -->
<g id="edge129" class="edge">
<title>python&#45;&gt;store</title>
<path fill="none" stroke="black" d="M66.44,-401.66C76.98,-366.09 105.02,-287.5 157,-245 216.46,-196.38 245.32,-194 322.12,-194 322.12,-194 322.12,-194 451.5,-194 530.12,-194 557.99,-179.88 626.75,-218 642.27,-226.61 670.36,-262.86 689.19,-288.77"/>
<polygon fill="black" stroke="black" points="686.11,-290.47 694.79,-296.54 691.79,-286.38 686.11,-290.47"/>
</g>
<!-- python&#45;&gt;wasm -->
<g id="edge130" class="edge">
<title>python&#45;&gt;wasm</title>
<path fill="none" stroke="black" d="M62.59,-401.77C66.47,-352.43 83.67,-214.67 157,-135 211.1,-76.22 242.24,-64 322.12,-64 322.12,-64 322.12,-64 710.38,-64 807.88,-64 851.53,-25.47 928.75,-85 980.6,-124.97 995.06,-206.24 999.08,-250.18"/>
<polygon fill="black" stroke="black" points="995.58,-250.32 999.84,-260.02 1002.56,-249.77 995.58,-250.32"/>
</g>
<!-- wasm&#45;store -->
<g id="node62" class="node">
<title>wasm&#45;store</title>
<polygon fill="none" stroke="black" points="626.75,-166 532,-166 532,-130 626.75,-130 626.75,-166"/>
<text text-anchor="middle" x="579.38" y="-143.7" font-family="sans-serif" font-size="14.00">wasm&#45;store</text>
</g>
<!-- python&#45;&gt;wasm&#45;store -->
<g id="edge131" class="edge">
<title>python&#45;&gt;wasm&#45;store</title>
<path fill="none" stroke="black" d="M62.54,-401.7C66.25,-355.6 82.93,-234.45 157,-180 264.74,-100.8 432.65,-118.15 520.45,-134.72"/>
<polygon fill="black" stroke="black" points="519.55,-138.11 530.03,-136.6 520.89,-131.24 519.55,-138.11"/>
</g>
<!-- repl&#45;&gt;arrow -->
<g id="edge132" class="edge">
<title>repl&#45;&gt;arrow</title>
<path fill="none" stroke="black" d="M338.86,-771.52C353.55,-754.7 377.81,-731.02 405,-721 450.28,-704.31 505.78,-719.3 541.59,-733.21"/>
<polygon fill="black" stroke="black" points="540.06,-736.36 550.64,-736.88 542.69,-729.88 540.06,-736.36"/>
</g>
<!-- repl&#45;&gt;forsp -->
<g id="edge133" class="edge">
<title>repl&#45;&gt;forsp</title>
<path fill="none" stroke="black" d="M350.29,-807.28C357.32,-813.09 364.27,-820.13 369,-828 403.96,-886.16 434.89,-1091.16 445.55,-1168.32"/>
<polygon fill="black" stroke="black" points="442.06,-1168.63 446.88,-1178.07 449,-1167.69 442.06,-1168.63"/>
</g>
<!-- repl&#45;&gt;git -->
<g id="edge134" class="edge">
<title>repl&#45;&gt;git</title>
<path fill="none" stroke="black" d="M332.16,-771.67C353.43,-723.14 411.35,-591.02 437,-532.52"/>
<polygon fill="black" stroke="black" points="440.12,-534.12 440.93,-523.56 433.71,-531.31 440.12,-534.12"/>
</g>
<!-- repl&#45;&gt;graph -->
<g id="edge135" class="edge">
<title>repl&#45;&gt;graph</title>
<path fill="none" stroke="black" d="M350.3,-791.28C403.09,-793.35 525.88,-795.48 626.75,-777 641.69,-774.26 657.66,-769.43 671.47,-764.61"/>
<polygon fill="black" stroke="black" points="672.39,-768 680.6,-761.3 670.01,-761.42 672.39,-768"/>
</g>
<!-- repl&#45;&gt;hash -->
<g id="edge136" class="edge">
<title>repl&#45;&gt;hash</title>
<path fill="none" stroke="black" d="M336.09,-771.56C349.98,-752.04 374.86,-722.39 405,-710 550.15,-650.34 742.87,-707.02 822.52,-735.67"/>
<polygon fill="black" stroke="black" points="820.98,-738.83 831.57,-738.99 823.39,-732.26 820.98,-738.83"/>
</g>
<!-- repl&#45;&gt;init -->
<g id="edge137" class="edge">
<title>repl&#45;&gt;init</title>
<path fill="none" stroke="black" d="M350.45,-806.54C357.65,-812.41 364.67,-819.67 369,-828 450.7,-985.2 355.97,-1054.75 405,-1225 429.7,-1310.76 464.55,-1320.48 496,-1404 518.79,-1464.53 490.46,-1495.42 532,-1545 561.7,-1580.45 593.62,-1555.74 626.75,-1588 652.96,-1613.51 639.02,-1634.17 662.75,-1662 665.79,-1665.56 669.3,-1668.92 673.01,-1672.02"/>
<polygon fill="black" stroke="black" points="670.6,-1674.59 680.68,-1677.87 674.85,-1669.02 670.6,-1674.59"/>
</g>
<!-- repl&#45;&gt;object -->
<g id="edge138" class="edge">
<title>repl&#45;&gt;object</title>
<path fill="none" stroke="black" d="M350.54,-796.19C417.04,-811.76 591.64,-852.66 669.7,-870.94"/>
<polygon fill="black" stroke="black" points="668.48,-874.25 679.02,-873.12 670.08,-867.44 668.48,-874.25"/>
</g>
<!-- repl&#45;&gt;parquet -->
<g id="edge139" class="edge">
<title>repl&#45;&gt;parquet</title>
<path fill="none" stroke="black" d="M350.41,-781.2C366.42,-775.83 387.28,-768.84 405.73,-762.66"/>
<polygon fill="black" stroke="black" points="406.74,-766.02 415.11,-759.52 404.52,-759.38 406.74,-766.02"/>
</g>
<!-- repl&#45;&gt;shell -->
<g id="edge140" class="edge">
<title>repl&#45;&gt;shell</title>
<path fill="none" stroke="black" d="M350.58,-806.47C357.8,-812.34 364.78,-819.61 369,-828 425.61,-940.6 365.97,-1274.17 405,-1394 409.93,-1409.13 418.89,-1424.23 427.48,-1436.52"/>
<polygon fill="black" stroke="black" points="424.59,-1438.49 433.32,-1444.49 430.24,-1434.36 424.59,-1438.49"/>
</g>
<!-- repl&#45;&gt;wasm -->
<g id="edge141" class="edge">
<title>repl&#45;&gt;wasm</title>
<path fill="none" stroke="black" d="M326.82,-771.6C341.82,-672.22 418.31,-201.15 532,-121 566.42,-96.74 585.16,-114.38 626.75,-121 703.05,-133.15 718.04,-152.65 792,-175 852.38,-193.25 873.72,-182.17 928.75,-213 947.36,-223.43 964.94,-239.65 978.05,-253.53"/>
<polygon fill="black" stroke="black" points="975.26,-255.65 984.59,-260.67 980.42,-250.93 975.26,-255.65"/>
</g>
<!-- sat&#45;&gt;parse -->
<g id="edge142" class="edge">
<title>sat&#45;&gt;parse</title>
<path fill="none" stroke="black" d="M887.87,-1148C932.89,-1148 1024.43,-1148 1075.97,-1148"/>
<polygon fill="black" stroke="black" points="1075.72,-1151.5 1085.72,-1148 1075.72,-1144.5 1075.72,-1151.5"/>
</g>
<!-- sat&#45;&gt;types -->
<g id="edge143" class="edge">
<title>sat&#45;&gt;types</title>
<path fill="none" stroke="black" d="M887.58,-1157.72C900.17,-1162.59 915.39,-1168.76 928.75,-1175 1013.12,-1214.38 1020.27,-1274 1113.38,-1274 1113.38,-1274 1113.38,-1274 1218.25,-1274 1431.6,-1274 1443.38,-1650.16 1442.26,-1760.14"/>
<polygon fill="black" stroke="black" points="1438.76,-1760.07 1442.11,-1770.12 1445.76,-1760.18 1438.76,-1760.07"/>
</g>
<!-- sat&#45;&gt;wasm -->
<g id="edge144" class="edge">
<title>sat&#45;&gt;wasm</title>
<path fill="none" stroke="black" d="M887.86,-1144.22C902.31,-1140.71 919.15,-1133.96 928.75,-1121 931.84,-1116.82 986.02,-458.13 998.2,-309.54"/>
<polygon fill="black" stroke="black" points="1001.68,-310.01 999.01,-299.76 994.7,-309.44 1001.68,-310.01"/>
</g>
<!-- serve&#45;&gt;core -->
<g id="edge145" class="edge">
<title>serve&#45;&gt;core</title>
<path fill="none" stroke="black" d="M201.26,-1136.35C205.8,-1204.25 224.97,-1447.26 277.25,-1640 317.02,-1786.6 303.21,-1844.25 405,-1957 470.15,-2029.16 697.63,-2137.65 792,-2161 851,-2175.6 875.36,-2190.04 928.75,-2161 960.52,-2143.73 980.4,-2105.69 991,-2078.98"/>
<polygon fill="black" stroke="black" points="994.23,-2080.33 994.45,-2069.74 987.67,-2077.88 994.23,-2080.33"/>
</g>
<!-- serve&#45;&gt;forsp -->
<g id="edge146" class="edge">
<title>serve&#45;&gt;forsp</title>
<path fill="none" stroke="black" d="M221.94,-1136.49C236.64,-1147.95 256.98,-1161.97 277.25,-1170 321.41,-1187.49 376.08,-1194.06 411.83,-1196.53"/>
<polygon fill="black" stroke="black" points="411.48,-1200.01 421.68,-1197.12 411.91,-1193.02 411.48,-1200.01"/>
</g>
<!-- serve&#45;&gt;git -->
<g id="edge147" class="edge">
<title>serve&#45;&gt;git</title>
<path fill="none" stroke="black" d="M206.66,-1099.56C215.85,-1072.88 232.44,-1021.79 241.25,-977 256.04,-901.8 239.54,-700.72 277.25,-634 308.05,-579.51 372.01,-540.77 412.73,-520.44"/>
<polygon fill="black" stroke="black" points="414.22,-523.6 421.69,-516.09 411.17,-517.31 414.22,-523.6"/>
</g>
<!-- serve&#45;&gt;hash -->
<g id="edge148" class="edge">
<title>serve&#45;&gt;hash</title>
<path fill="none" stroke="black" d="M206.14,-1099.93C214.83,-1073.27 231,-1021.74 241.25,-977 262.79,-882.99 223.45,-843.04 277.25,-763 314.49,-707.6 341.08,-703.26 405,-684 554.39,-638.99 607.02,-643.66 756,-690 780.92,-697.75 806.3,-712.36 825.68,-725.23"/>
<polygon fill="black" stroke="black" points="823.47,-727.96 833.7,-730.7 827.41,-722.18 823.47,-727.96"/>
</g>
<!-- serve&#45;&gt;init -->
<g id="edge149" class="edge">
<title>serve&#45;&gt;init</title>
<path fill="none" stroke="black" d="M216.12,-1136.44C230.97,-1152.93 254.2,-1177.17 277.25,-1195 314.68,-1223.95 337.42,-1213.77 369,-1249 395.03,-1278.03 384.24,-1296 405,-1329 438.42,-1382.13 467.43,-1381.11 496,-1437 526.03,-1495.74 491.5,-1528.92 532,-1581 561.36,-1618.75 587.12,-1605.22 626.75,-1632 644.01,-1643.66 646.21,-1649.34 662.75,-1662 666.02,-1664.5 669.45,-1667.05 672.92,-1669.57"/>
<polygon fill="black" stroke="black" points="670.65,-1672.24 680.82,-1675.21 674.72,-1666.55 670.65,-1672.24"/>
</g>
<!-- serve&#45;&gt;lisp -->
<g id="edge150" class="edge">
<title>serve&#45;&gt;lisp</title>
<path fill="none" stroke="black" d="M205.32,-1136.26C216.33,-1173.85 243.73,-1262.23 277.25,-1332 324.08,-1429.47 395.64,-1536.16 429.89,-1585.35"/>
<polygon fill="black" stroke="black" points="426.95,-1587.25 435.55,-1593.43 432.69,-1583.23 426.95,-1587.25"/>
</g>
<!-- serve&#45;&gt;metamath -->
<g id="edge151" class="edge">
<title>serve&#45;&gt;metamath</title>
<path fill="none" stroke="black" d="M226.59,-1127.22C241.33,-1132.02 260.12,-1137.58 277.25,-1141 378.61,-1161.24 686.49,-1187.83 808.65,-1197.9"/>
<polygon fill="black" stroke="black" points="808.12,-1201.37 818.37,-1198.7 808.69,-1194.39 808.12,-1201.37"/>
</g>
<!-- serve&#45;&gt;object -->
<g id="edge152" class="edge">
<title>serve&#45;&gt;object</title>
<path fill="none" stroke="black" d="M226.58,-1121.85C300.97,-1131.08 513.92,-1146.08 626.75,-1036 670.58,-993.23 624.05,-950.46 662.75,-903 665.1,-900.11 667.91,-897.55 670.97,-895.29"/>
<polygon fill="black" stroke="black" points="672.65,-898.37 679.35,-890.17 668.99,-892.4 672.65,-898.37"/>
</g>
<!-- serve&#45;&gt;proto -->
<g id="edge153" class="edge">
<title>serve&#45;&gt;proto</title>
<path fill="none" stroke="black" d="M226.6,-1108.02C243.7,-1101.57 266.21,-1093.08 285.08,-1085.97"/>
<polygon fill="black" stroke="black" points="286.17,-1089.3 294.29,-1082.5 283.7,-1082.75 286.17,-1089.3"/>
</g>
<!-- serve&#45;&gt;repl -->
<g id="edge154" class="edge">
<title>serve&#45;&gt;repl</title>
<path fill="none" stroke="black" d="M205.72,-1099.82C213.9,-1073.04 229.43,-1021.35 241.25,-977 258.79,-911.17 241.49,-885.99 277.25,-828 280.11,-823.36 283.74,-819 287.68,-815"/>
<polygon fill="black" stroke="black" points="289.92,-817.69 294.95,-808.37 285.21,-812.52 289.92,-817.69"/>
</g>
<!-- serve&#45;&gt;shell -->
<g id="edge155" class="edge">
<title>serve&#45;&gt;shell</title>
<path fill="none" stroke="black" d="M210.68,-1136.15C245.33,-1195.38 356.17,-1382.11 405,-1432 407.9,-1434.96 411.1,-1437.84 414.42,-1440.58"/>
<polygon fill="black" stroke="black" points="412.08,-1443.21 422.14,-1446.55 416.36,-1437.67 412.08,-1443.21"/>
</g>
<!-- serve&#45;&gt;store -->
<g id="edge156" class="edge">
<title>serve&#45;&gt;store</title>
<path fill="none" stroke="black" d="M206.79,-1099.59C216.14,-1072.93 232.94,-1021.88 241.25,-977 258.92,-881.63 231.16,-627.35 277.25,-542 345.51,-415.58 400.09,-399.94 532,-343 577.17,-323.5 634.17,-317.8 670.94,-316.29"/>
<polygon fill="black" stroke="black" points="670.74,-319.8 680.62,-315.98 670.51,-312.8 670.74,-319.8"/>
</g>
<!-- sexp&#45;&gt;parse -->
<g id="edge157" class="edge">
<title>sexp&#45;&gt;parse</title>
<path fill="none" stroke="black" d="M1011.32,-1362.72C1030.56,-1322.22 1076.9,-1224.74 1099.92,-1176.3"/>
<polygon fill="black" stroke="black" points="1102.94,-1178.1 1104.08,-1167.57 1096.62,-1175.09 1102.94,-1178.1"/>
</g>
<!-- sexp&#45;&gt;types -->
<g id="edge158" class="edge">
<title>sexp&#45;&gt;types</title>
<path fill="none" stroke="black" d="M1028.77,-1381.82C1097.48,-1385.46 1284.34,-1405.2 1379.5,-1512 1412.26,-1548.77 1431.57,-1696.59 1438.53,-1760.41"/>
<polygon fill="black" stroke="black" points="1435.03,-1760.57 1439.57,-1770.15 1441.99,-1759.84 1435.03,-1760.57"/>
</g>
<!-- shell&#45;&gt;hol -->
<g id="edge159" class="edge">
<title>shell&#45;&gt;hol</title>
<path fill="none" stroke="black" d="M459.57,-1482.21C469.65,-1505.72 486.7,-1548.12 496,-1586 525.07,-1704.43 483.94,-1745.93 532,-1858 603.38,-2024.45 763.07,-2178.65 829.5,-2238.13"/>
<polygon fill="black" stroke="black" points="826.93,-2240.53 836.73,-2244.55 831.58,-2235.3 826.93,-2240.53"/>
</g>
<!-- shell&#45;&gt;kernel -->
<g id="edge160" class="edge">
<title>shell&#45;&gt;kernel</title>
<path fill="none" stroke="black" d="M477.79,-1448.25C495.92,-1437.39 520.3,-1422.79 540.52,-1410.68"/>
<polygon fill="black" stroke="black" points="542.28,-1413.7 549.06,-1405.56 538.68,-1407.7 542.28,-1413.7"/>
</g>
<!-- smt&#45;&gt;sat -->
<g id="edge161" class="edge">
<title>smt&#45;&gt;sat</title>
<path fill="none" stroke="black" d="M718.35,-1583.74C728.69,-1559.25 746.54,-1514.19 756,-1474 771.33,-1408.86 751.25,-1228.08 792,-1175 799.44,-1165.3 810.92,-1159.08 822.3,-1155.09"/>
<polygon fill="black" stroke="black" points="823.01,-1158.53 831.6,-1152.33 821.02,-1151.82 823.01,-1158.53"/>
</g>
<!-- smt&#45;&gt;sexp -->
<g id="edge162" class="edge">
<title>smt&#45;&gt;sexp</title>
<path fill="none" stroke="black" d="M736.48,-1587.89C743.61,-1583.01 750.8,-1576.98 756,-1570 786.23,-1529.43 756.51,-1498.06 792,-1462 837.19,-1416.09 869.03,-1438.13 928.75,-1414 940.33,-1409.32 952.75,-1403.8 963.95,-1398.63"/>
<polygon fill="black" stroke="black" points="965.31,-1401.86 972.89,-1394.46 962.34,-1395.52 965.31,-1401.86"/>
</g>
<!-- smt&#45;&gt;types -->
<g id="edge163" class="edge">
<title>smt&#45;&gt;types</title>
<path fill="none" stroke="black" d="M736.52,-1614.17C752.38,-1621.31 773.14,-1630.23 792,-1637 882.92,-1669.65 904.02,-1698 1000.62,-1698 1000.62,-1698 1000.62,-1698 1218.25,-1698 1289.08,-1698 1363.66,-1738.07 1406.19,-1765.32"/>
<polygon fill="black" stroke="black" points="1404.23,-1768.23 1414.51,-1770.77 1408.06,-1762.37 1404.23,-1768.23"/>
</g>
<!-- spectec&#45;&gt;grammar -->
<g id="edge164" class="edge">
<title>spectec&#45;&gt;grammar</title>
<path fill="none" stroke="black" d="M889.22,-1725.6C910.47,-1711.56 939.96,-1692.08 963.26,-1676.68"/>
<polygon fill="black" stroke="black" points="965.15,-1679.63 971.57,-1671.2 961.29,-1673.79 965.15,-1679.63"/>
</g>
<!-- store&#45;&gt;hash -->
<g id="edge165" class="edge">
<title>store&#45;&gt;hash</title>
<path fill="none" stroke="black" d="M725.06,-334.39C734.97,-347.56 747.71,-366.06 756,-384 810.93,-502.8 842.77,-657.06 854.35,-720.64"/>
<polygon fill="black" stroke="black" points="850.87,-721.05 856.07,-730.28 857.76,-719.82 850.87,-721.05"/>
</g>
<!-- store&#45;&gt;json -->
<g id="edge166" class="edge">
<title>store&#45;&gt;json</title>
<path fill="none" stroke="black" d="M736.61,-298.79C752.33,-288.85 772.9,-276.48 792,-267 801.7,-262.18 812.48,-257.56 822.52,-253.54"/>
<polygon fill="black" stroke="black" points="823.58,-256.88 831.62,-249.99 821.04,-250.36 823.58,-256.88"/>
</g>
<!-- store&#45;&gt;sqlite -->
<g id="edge167" class="edge">
<title>store&#45;&gt;sqlite</title>
<path fill="none" stroke="black" d="M736.67,-312.12C760.32,-308.63 795.33,-303.46 821.91,-299.53"/>
<polygon fill="black" stroke="black" points="822.21,-303.02 831.6,-298.1 821.19,-296.1 822.21,-303.02"/>
</g>
<!-- tcb&#45;db -->
<g id="node57" class="node">
<title>tcb&#45;db</title>
<polygon fill="none" stroke="black" points="739.5,-242 679.25,-242 679.25,-206 739.5,-206 739.5,-242"/>
<text text-anchor="middle" x="709.38" y="-219.7" font-family="sans-serif" font-size="14.00">tcb&#45;db</text>
</g>
<!-- tcb&#45;db&#45;&gt;json -->
<g id="edge168" class="edge">
<title>tcb&#45;db&#45;&gt;json</title>
<path fill="none" stroke="black" d="M739.81,-227.16C763.24,-229.68 796.19,-233.22 821.57,-235.94"/>
<polygon fill="black" stroke="black" points="821.17,-239.42 831.49,-237.01 821.92,-232.46 821.17,-239.42"/>
</g>
<!-- tcb&#45;db&#45;&gt;sqlite -->
<g id="edge169" class="edge">
<title>tcb&#45;db&#45;&gt;sqlite</title>
<path fill="none" stroke="black" d="M739.86,-240.48C755.21,-248.82 774.41,-258.87 792,-267 801.83,-271.54 812.65,-276.08 822.69,-280.1"/>
<polygon fill="black" stroke="black" points="821.2,-283.27 831.78,-283.68 823.76,-276.76 821.2,-283.27"/>
</g>
<!-- wasm&#45;build&#45;guest -->
<g id="node60" class="node">
<title>wasm&#45;build&#45;guest</title>
<polygon fill="none" stroke="black" points="928.75,-166 792,-166 792,-130 928.75,-130 928.75,-166"/>
<text text-anchor="middle" x="860.38" y="-143.7" font-family="sans-serif" font-size="14.00">wasm&#45;build&#45;guest</text>
</g>
<!-- wasm&#45;build&#45;guest&#45;&gt;wasm -->
<g id="edge170" class="edge">
<title>wasm&#45;build&#45;guest&#45;&gt;wasm</title>
<path fill="none" stroke="black" d="M908.19,-166.42C915.46,-170.33 922.59,-174.86 928.75,-180 952.73,-200.01 972.75,-229.75 985.52,-251.6"/>
<polygon fill="black" stroke="black" points="982.47,-253.32 990.44,-260.29 988.56,-249.87 982.47,-253.32"/>
</g>
<!-- wasm&#45;spec -->
<g id="node61" class="node">
<title>wasm&#45;spec</title>
<polygon fill="none" stroke="black" points="756,-429 662.75,-429 662.75,-393 756,-393 756,-429"/>
<text text-anchor="middle" x="709.38" y="-406.7" font-family="sans-serif" font-size="14.00">wasm&#45;spec</text>
</g>
<!-- wasm&#45;spec&#45;&gt;hash -->
<g id="edge171" class="edge">
<title>wasm&#45;spec&#45;&gt;hash</title>
<path fill="none" stroke="black" d="M742.15,-429.26C747.29,-433.28 752.18,-437.89 756,-443 821.39,-530.47 847.06,-661.88 855.64,-720.25"/>
<polygon fill="black" stroke="black" points="852.16,-720.63 857.01,-730.05 859.09,-719.66 852.16,-720.63"/>
</g>
<!-- wasm&#45;spec&#45;&gt;wasm -->
<g id="edge172" class="edge">
<title>wasm&#45;spec&#45;&gt;wasm</title>
<path fill="none" stroke="black" d="M756.47,-414.24C803.2,-415.36 875.97,-410.94 928.75,-379 955.89,-362.58 975.82,-331.62 987.73,-308.68"/>
<polygon fill="black" stroke="black" points="990.81,-310.35 992.1,-299.83 984.53,-307.24 990.81,-310.35"/>
</g>
<!-- wasm&#45;store&#45;&gt;json -->
<g id="edge173" class="edge">
<title>wasm&#45;store&#45;&gt;json</title>
<path fill="none" stroke="black" d="M627.07,-159.37C662.74,-168.45 712.92,-182.09 756,-197 778.47,-204.78 803.08,-214.94 822.64,-223.44"/>
<polygon fill="black" stroke="black" points="821,-226.54 831.56,-227.35 823.81,-220.13 821,-226.54"/>
</g>
<!-- wasm&#45;store&#45;&gt;store -->
<g id="edge174" class="edge">
<title>wasm&#45;store&#45;&gt;store</title>
<path fill="none" stroke="black" d="M611.59,-166.32C617.05,-170.38 622.37,-174.99 626.75,-180 650.03,-206.64 644.54,-220.67 662.75,-251 670.4,-263.74 679.7,-277.28 687.9,-288.69"/>
<polygon fill="black" stroke="black" points="684.86,-290.46 693.58,-296.48 690.52,-286.33 684.86,-290.46"/>
</g>
<!-- wasm&#45;store&#45;&gt;wasm -->
<g id="edge175" class="edge">
<title>wasm&#45;store&#45;&gt;wasm</title>
<path fill="none" stroke="black" d="M622.44,-129.55C692.24,-102.02 833.69,-59.65 928.75,-121 973.08,-149.61 990.36,-212.88 996.88,-250.41"/>
<polygon fill="black" stroke="black" points="993.39,-250.78 998.4,-260.12 1000.31,-249.69 993.39,-250.78"/>
</g>
<!-- web&#45;kernel -->
<g id="node63" class="node">
<title>web&#45;kernel</title>
<polygon fill="none" stroke="black" points="369,-1631 277.25,-1631 277.25,-1595 369,-1595 369,-1631"/>
<text text-anchor="middle" x="323.12" y="-1608.7" font-family="sans-serif" font-size="14.00">web&#45;kernel</text>
</g>
<!-- web&#45;kernel&#45;&gt;forsp -->
<g id="edge176" class="edge">
<title>web&#45;kernel&#45;&gt;forsp</title>
<path fill="none" stroke="black" d="M329.67,-1594.63C349.46,-1529.15 416.64,-1306.76 440.78,-1226.87"/>
<polygon fill="black" stroke="black" points="444.04,-1228.19 443.58,-1217.6 437.33,-1226.16 444.04,-1228.19"/>
</g>
<!-- web&#45;kernel&#45;&gt;haskell -->
<g id="edge177" class="edge">
<title>web&#45;kernel&#45;&gt;haskell</title>
<path fill="none" stroke="black" d="M331.41,-1631.41C352.31,-1684.27 412.63,-1836.77 438.02,-1900.97"/>
<polygon fill="black" stroke="black" points="434.71,-1902.12 441.64,-1910.13 441.22,-1899.54 434.71,-1902.12"/>
</g>
<!-- web&#45;kernel&#45;&gt;hol&#45;api -->
<g id="edge178" class="edge">
<title>web&#45;kernel&#45;&gt;hol&#45;api</title>
<path fill="none" stroke="black" d="M324.91,-1631.45C327.91,-1685.15 341.93,-1844.66 405,-1957 439.59,-2018.6 502.89,-2072.64 542.69,-2102.75"/>
<polygon fill="black" stroke="black" points="540.45,-2105.45 550.56,-2108.61 544.63,-2099.83 540.45,-2105.45"/>
</g>
<!-- web&#45;kernel&#45;&gt;kernel -->
<g id="edge179" class="edge">
<title>web&#45;kernel&#45;&gt;kernel</title>
<path fill="none" stroke="black" d="M359.58,-1594.67C397.3,-1573.74 456.82,-1536.46 496,-1491 519.1,-1464.2 508.72,-1446.64 532,-1420 534.89,-1416.7 538.18,-1413.57 541.66,-1410.66"/>
<polygon fill="black" stroke="black" points="543.51,-1413.65 549.34,-1404.8 539.26,-1408.08 543.51,-1413.65"/>
</g>
<!-- web&#45;kernel&#45;&gt;lisp -->
<g id="edge180" class="edge">
<title>web&#45;kernel&#45;&gt;lisp</title>
<path fill="none" stroke="black" d="M369.39,-1613C383.38,-1613 398.64,-1613 412.05,-1613"/>
<polygon fill="black" stroke="black" points="411.76,-1616.5 421.76,-1613 411.76,-1609.5 411.76,-1616.5"/>
</g>
</g>
</svg>
