<?xml version="1.0" encoding="UTF-8" standalone="no"?>
<!DOCTYPE svg PUBLIC "-//W3C//DTD SVG 1.1//EN"
 "http://www.w3.org/Graphics/SVG/1.1/DTD/svg11.dtd">
<!-- Generated by graphviz version 12.2.1 (0)
 -->
<!-- Title: deps Pages: 1 -->
<svg width="1484pt" height="1840pt"
 viewBox="0.00 0.00 1484.25 1839.71" xmlns="http://www.w3.org/2000/svg" xmlns:xlink="http://www.w3.org/1999/xlink">
<g id="graph0" class="graph" transform="scale(1 1) rotate(0) translate(4 1835.71)">
<title>deps</title>
<polygon fill="white" stroke="none" points="-4,4 -4,-1835.71 1480.25,-1835.71 1480.25,4 -4,4"/>
<!-- covalence -->
<g id="node1" class="node">
<title>covalence</title>
<polygon fill="none" stroke="black" points="102.62,-802.44 18.38,-802.44 18.38,-766.44 102.62,-766.44 102.62,-802.44"/>
<text text-anchor="middle" x="60.5" y="-780.14" font-family="sans-serif" font-size="14.00">covalence</text>
</g>
<!-- client -->
<g id="node5" class="node">
<title>client</title>
<polygon fill="none" stroke="black" points="349.75,-733.44 295.75,-733.44 295.75,-697.44 349.75,-697.44 349.75,-733.44"/>
<text text-anchor="middle" x="322.75" y="-711.14" font-family="sans-serif" font-size="14.00">client</text>
</g>
<!-- covalence&#45;&gt;client -->
<g id="edge1" class="edge">
<title>covalence&#45;&gt;client</title>
<path fill="none" stroke="black" d="M65.59,-766.08C74.74,-729.91 100.66,-650.12 157,-617.44 189.39,-598.65 207.4,-601.44 241.25,-617.44 271.6,-631.79 294.35,-663.8 307.79,-687.35"/>
<polygon fill="black" stroke="black" points="304.55,-688.73 312.41,-695.84 310.7,-685.38 304.55,-688.73"/>
</g>
<!-- fuse -->
<g id="node11" class="node">
<title>fuse</title>
<polygon fill="none" stroke="black" points="606.38,-1161.44 552.38,-1161.44 552.38,-1125.44 606.38,-1125.44 606.38,-1161.44"/>
<text text-anchor="middle" x="579.38" y="-1139.14" font-family="sans-serif" font-size="14.00">fuse</text>
</g>
<!-- covalence&#45;&gt;fuse -->
<g id="edge2" class="edge">
<title>covalence&#45;&gt;fuse</title>
<path fill="none" stroke="black" d="M71.06,-802.62C86.44,-830.68 118.85,-885.2 157,-922.44 273.91,-1036.57 461.67,-1106.26 541.04,-1132.06"/>
<polygon fill="black" stroke="black" points="539.91,-1135.37 550.5,-1135.08 542.04,-1128.7 539.91,-1135.37"/>
</g>
<!-- git -->
<g id="node12" class="node">
<title>git</title>
<polygon fill="none" stroke="black" points="477.12,-1298.44 423.12,-1298.44 423.12,-1262.44 477.12,-1262.44 477.12,-1298.44"/>
<text text-anchor="middle" x="450.12" y="-1276.14" font-family="sans-serif" font-size="14.00">git</text>
</g>
<!-- covalence&#45;&gt;git -->
<g id="edge3" class="edge">
<title>covalence&#45;&gt;git</title>
<path fill="none" stroke="black" d="M62.52,-802.74C67.42,-883.93 91.03,-1210.8 157,-1284.44 220.6,-1355.44 275.54,-1343.6 368.25,-1321.44 383.62,-1317.77 399.38,-1310.67 412.85,-1303.4"/>
<polygon fill="black" stroke="black" points="414.36,-1306.57 421.35,-1298.6 410.92,-1300.47 414.36,-1306.57"/>
</g>
<!-- hash -->
<g id="node15" class="node">
<title>hash</title>
<polygon fill="none" stroke="black" points="887.38,-1001.44 833.38,-1001.44 833.38,-965.44 887.38,-965.44 887.38,-1001.44"/>
<text text-anchor="middle" x="860.38" y="-979.14" font-family="sans-serif" font-size="14.00">hash</text>
</g>
<!-- covalence&#45;&gt;hash -->
<g id="edge4" class="edge">
<title>covalence&#45;&gt;hash</title>
<path fill="none" stroke="black" d="M65.04,-765.99C73.44,-727.81 98.42,-640.38 157,-600.44 281.85,-515.32 361.18,-506.2 496,-574.44 520.11,-586.65 514.56,-602.8 532,-623.44 585.91,-687.25 592.46,-713.32 662.75,-758.44 699.74,-782.2 722.62,-762.84 756,-791.44 807.63,-835.69 837.7,-912.36 851.05,-954.18"/>
<polygon fill="black" stroke="black" points="847.64,-955.02 853.93,-963.55 854.33,-952.96 847.64,-955.02"/>
</g>
<!-- hol -->
<g id="node16" class="node">
<title>hol</title>
<polygon fill="none" stroke="black" points="887.38,-185.44 833.38,-185.44 833.38,-149.44 887.38,-149.44 887.38,-185.44"/>
<text text-anchor="middle" x="860.38" y="-163.14" font-family="sans-serif" font-size="14.00">hol</text>
</g>
<!-- covalence&#45;&gt;hol -->
<g id="edge5" class="edge">
<title>covalence&#45;&gt;hol</title>
<path fill="none" stroke="black" d="M62.91,-766.05C69.87,-677.93 102.57,-298.93 157,-195.44 200.94,-111.91 227.37,-61.44 321.75,-61.44 321.75,-61.44 321.75,-61.44 580.38,-61.44 672.67,-61.44 771.6,-112.76 823.25,-143.98"/>
<polygon fill="black" stroke="black" points="821.29,-146.89 831.65,-149.15 824.96,-140.93 821.29,-146.89"/>
</g>
<!-- lsp -->
<g id="node24" class="node">
<title>lsp</title>
<polygon fill="none" stroke="black" points="887.38,-711.44 833.38,-711.44 833.38,-675.44 887.38,-675.44 887.38,-711.44"/>
<text text-anchor="middle" x="860.38" y="-689.14" font-family="sans-serif" font-size="14.00">lsp</text>
</g>
<!-- covalence&#45;&gt;lsp -->
<g id="edge6" class="edge">
<title>covalence&#45;&gt;lsp</title>
<path fill="none" stroke="black" d="M64.62,-766.21C72.58,-724.93 97.41,-623.45 157,-565.44 241.94,-482.76 287.9,-488.08 404.25,-465.44 444.28,-457.66 456.81,-454.17 496,-465.44 635.61,-505.62 773.44,-616.94 831.14,-667.67"/>
<polygon fill="black" stroke="black" points="828.77,-670.24 838.57,-674.26 833.42,-665.01 828.77,-670.24"/>
</g>
<!-- object -->
<g id="node27" class="node">
<title>object</title>
<polygon fill="none" stroke="black" points="738,-1161.44 680.75,-1161.44 680.75,-1125.44 738,-1125.44 738,-1161.44"/>
<text text-anchor="middle" x="709.38" y="-1139.14" font-family="sans-serif" font-size="14.00">object</text>
</g>
<!-- covalence&#45;&gt;object -->
<g id="edge7" class="edge">
<title>covalence&#45;&gt;object</title>
<path fill="none" stroke="black" d="M67.46,-802.9C79.67,-838.53 110.36,-917.92 157,-970.44 199.79,-1018.63 221.34,-1019.41 277.25,-1051.44 385.68,-1113.57 409.86,-1144.02 532,-1170.44 573.16,-1179.35 585.17,-1177.14 626.75,-1170.44 641.14,-1168.13 656.43,-1163.65 669.84,-1158.99"/>
<polygon fill="black" stroke="black" points="670.97,-1162.31 679.18,-1155.6 668.58,-1155.73 670.97,-1162.31"/>
</g>
<!-- opentheory -->
<g id="node28" class="node">
<title>opentheory</title>
<polygon fill="none" stroke="black" points="368.25,-125.44 277.25,-125.44 277.25,-89.44 368.25,-89.44 368.25,-125.44"/>
<text text-anchor="middle" x="322.75" y="-103.14" font-family="sans-serif" font-size="14.00">opentheory</text>
</g>
<!-- covalence&#45;&gt;opentheory -->
<g id="edge8" class="edge">
<title>covalence&#45;&gt;opentheory</title>
<path fill="none" stroke="black" d="M63.08,-766.16C71.02,-684.29 112.89,-346.29 277.25,-139.44 279.01,-137.23 280.96,-135.09 283.04,-133.05"/>
<polygon fill="black" stroke="black" points="285.13,-135.87 290.37,-126.67 280.53,-130.6 285.13,-135.87"/>
</g>
<!-- proto -->
<g id="node31" class="node">
<title>proto</title>
<polygon fill="none" stroke="black" points="349.75,-1312.44 295.75,-1312.44 295.75,-1276.44 349.75,-1276.44 349.75,-1312.44"/>
<text text-anchor="middle" x="322.75" y="-1290.14" font-family="sans-serif" font-size="14.00">proto</text>
</g>
<!-- covalence&#45;&gt;proto -->
<g id="edge9" class="edge">
<title>covalence&#45;&gt;proto</title>
<path fill="none" stroke="black" d="M62.72,-802.91C68.28,-881.18 93.67,-1184.62 157,-1251.44 189.66,-1285.9 246.19,-1294.05 283.78,-1295.34"/>
<polygon fill="black" stroke="black" points="283.69,-1298.83 293.75,-1295.51 283.82,-1291.84 283.69,-1298.83"/>
</g>
<!-- repl -->
<g id="node37" class="node">
<title>repl</title>
<polygon fill="none" stroke="black" points="349.75,-955.44 295.75,-955.44 295.75,-919.44 349.75,-919.44 349.75,-955.44"/>
<text text-anchor="middle" x="322.75" y="-933.14" font-family="sans-serif" font-size="14.00">repl</text>
</g>
<!-- covalence&#45;&gt;repl -->
<g id="edge10" class="edge">
<title>covalence&#45;&gt;repl</title>
<path fill="none" stroke="black" d="M102.77,-799.98C140.32,-814.97 196.53,-839.6 241.25,-868.44 260.52,-880.87 280.09,-897.54 295.11,-911.38"/>
<polygon fill="black" stroke="black" points="292.6,-913.82 302.29,-918.11 297.39,-908.72 292.6,-913.82"/>
</g>
<!-- serve -->
<g id="node39" class="node">
<title>serve</title>
<polygon fill="none" stroke="black" points="226.12,-913.44 172.12,-913.44 172.12,-877.44 226.12,-877.44 226.12,-913.44"/>
<text text-anchor="middle" x="199.12" y="-891.14" font-family="sans-serif" font-size="14.00">serve</text>
</g>
<!-- covalence&#45;&gt;serve -->
<g id="edge11" class="edge">
<title>covalence&#45;&gt;serve</title>
<path fill="none" stroke="black" d="M84.06,-802.77C106.61,-821.09 141.46,-849.4 166.7,-869.92"/>
<polygon fill="black" stroke="black" points="164.39,-872.54 174.36,-876.13 168.8,-867.11 164.39,-872.54"/>
</g>
<!-- shell -->
<g id="node41" class="node">
<title>shell</title>
<polygon fill="none" stroke="black" points="477.12,-619.44 423.12,-619.44 423.12,-583.44 477.12,-583.44 477.12,-619.44"/>
<text text-anchor="middle" x="450.12" y="-597.14" font-family="sans-serif" font-size="14.00">shell</text>
</g>
<!-- covalence&#45;&gt;shell -->
<g id="edge12" class="edge">
<title>covalence&#45;&gt;shell</title>
<path fill="none" stroke="black" d="M65.33,-766.02C74.22,-728.29 99.96,-642.25 157,-600.44 232.9,-544.82 352.23,-570.35 412.17,-588.62"/>
<polygon fill="black" stroke="black" points="410.96,-591.9 421.55,-591.58 413.06,-585.23 410.96,-591.9"/>
</g>
<!-- store -->
<g id="node45" class="node">
<title>store</title>
<polygon fill="none" stroke="black" points="736.38,-1389.44 682.38,-1389.44 682.38,-1353.44 736.38,-1353.44 736.38,-1389.44"/>
<text text-anchor="middle" x="709.38" y="-1367.14" font-family="sans-serif" font-size="14.00">store</text>
</g>
<!-- covalence&#45;&gt;store -->
<g id="edge13" class="edge">
<title>covalence&#45;&gt;store</title>
<path fill="none" stroke="black" d="M66.91,-802.73C79.28,-843.02 112.06,-941.7 157,-1015.44 162.53,-1024.52 395.25,-1301.79 404.25,-1307.44 488.87,-1360.55 610.17,-1370.32 670.83,-1371.65"/>
<polygon fill="black" stroke="black" points="670.57,-1375.15 680.62,-1371.8 670.67,-1368.15 670.57,-1375.15"/>
</g>
<!-- wasm -->
<g id="node47" class="node">
<title>wasm</title>
<polygon fill="none" stroke="black" points="1032.12,-1610.44 977.88,-1610.44 977.88,-1574.44 1032.12,-1574.44 1032.12,-1610.44"/>
<text text-anchor="middle" x="1005" y="-1588.14" font-family="sans-serif" font-size="14.00">wasm</text>
</g>
<!-- covalence&#45;&gt;wasm -->
<g id="edge14" class="edge">
<title>covalence&#45;&gt;wasm</title>
<path fill="none" stroke="black" d="M62.41,-802.9C66.96,-887.93 89.7,-1241.28 157,-1324.44 176.07,-1348.01 633.71,-1520.72 662.75,-1529.44 718.87,-1546.3 734.41,-1544.63 792,-1555.44 852.92,-1566.88 923.92,-1579.04 966.34,-1586.17"/>
<polygon fill="black" stroke="black" points="965.59,-1589.59 976.03,-1587.8 966.74,-1582.69 965.59,-1589.59"/>
</g>
<!-- acset -->
<g id="node2" class="node">
<title>acset</title>
<polygon fill="none" stroke="black" points="887.38,-1240.44 833.38,-1240.44 833.38,-1204.44 887.38,-1204.44 887.38,-1240.44"/>
<text text-anchor="middle" x="860.38" y="-1218.14" font-family="sans-serif" font-size="14.00">acset</text>
</g>
<!-- alethe -->
<g id="node3" class="node">
<title>alethe</title>
<polygon fill="none" stroke="black" points="607.62,-307.44 551.12,-307.44 551.12,-271.44 607.62,-271.44 607.62,-307.44"/>
<text text-anchor="middle" x="579.38" y="-285.14" font-family="sans-serif" font-size="14.00">alethe</text>
</g>
<!-- core -->
<g id="node6" class="node">
<title>core</title>
<polygon fill="#ffd6d6" stroke="black" points="1032,-193.44 978,-193.44 978,-157.44 1032,-157.44 1032,-193.44"/>
<text text-anchor="middle" x="1005" y="-171.14" font-family="sans-serif" font-size="14.00">core</text>
</g>
<!-- alethe&#45;&gt;core -->
<g id="edge15" class="edge">
<title>alethe&#45;&gt;core</title>
<path fill="none" stroke="black" d="M607.84,-282.05C681.39,-262.26 882.86,-208.04 966.66,-185.49"/>
<polygon fill="black" stroke="black" points="967.47,-188.9 976.22,-182.92 965.66,-182.14 967.47,-188.9"/>
</g>
<!-- init -->
<g id="node18" class="node">
<title>init</title>
<polygon fill="none" stroke="black" points="736.38,-513.44 682.38,-513.44 682.38,-477.44 736.38,-477.44 736.38,-513.44"/>
<text text-anchor="middle" x="709.38" y="-491.14" font-family="sans-serif" font-size="14.00">init</text>
</g>
<!-- alethe&#45;&gt;init -->
<g id="edge16" class="edge">
<title>alethe&#45;&gt;init</title>
<path fill="none" stroke="black" d="M591.73,-307.72C614.22,-343.92 664.53,-424.88 691.13,-467.69"/>
<polygon fill="black" stroke="black" points="687.99,-469.27 696.24,-475.92 693.94,-465.58 687.99,-469.27"/>
</g>
<!-- sexp -->
<g id="node40" class="node">
<title>sexp</title>
<polygon fill="#ffd6d6" stroke="black" points="1148.12,-627.44 1094.12,-627.44 1094.12,-591.44 1148.12,-591.44 1148.12,-627.44"/>
<text text-anchor="middle" x="1121.12" y="-605.14" font-family="sans-serif" font-size="14.00">sexp</text>
</g>
<!-- alethe&#45;&gt;sexp -->
<g id="edge17" class="edge">
<title>alethe&#45;&gt;sexp</title>
<path fill="none" stroke="black" d="M607.84,-294.35C702.71,-311.51 1012.68,-369.53 1045.25,-400.44 1096.34,-448.93 1112.64,-534.7 1117.79,-579.81"/>
<polygon fill="black" stroke="black" points="1114.29,-580.03 1118.79,-589.63 1121.26,-579.32 1114.29,-580.03"/>
</g>
<!-- smt -->
<g id="node42" class="node">
<title>smt</title>
<polygon fill="none" stroke="black" points="736.38,-387.44 682.38,-387.44 682.38,-351.44 736.38,-351.44 736.38,-387.44"/>
<text text-anchor="middle" x="709.38" y="-365.14" font-family="sans-serif" font-size="14.00">smt</text>
</g>
<!-- alethe&#45;&gt;smt -->
<g id="edge18" class="edge">
<title>alethe&#45;&gt;smt</title>
<path fill="none" stroke="black" d="M607.83,-306.61C626.77,-318.44 652.13,-334.29 672.64,-347.11"/>
<polygon fill="black" stroke="black" points="670.65,-349.99 680.99,-352.33 674.36,-344.06 670.65,-349.99"/>
</g>
<!-- types -->
<g id="node46" class="node">
<title>types</title>
<polygon fill="#ffd6d6" stroke="black" points="1476.25,-231.44 1422.25,-231.44 1422.25,-195.44 1476.25,-195.44 1476.25,-231.44"/>
<text text-anchor="middle" x="1449.25" y="-209.14" font-family="sans-serif" font-size="14.00">types</text>
</g>
<!-- alethe&#45;&gt;types -->
<g id="edge19" class="edge">
<title>alethe&#45;&gt;types</title>
<path fill="none" stroke="black" d="M588.57,-271.24C611.99,-221.63 684.52,-83.95 792,-26.44 875.41,18.19 909.4,-7.44 1004,-7.44 1004,-7.44 1004,-7.44 1225,-7.44 1298.63,-7.44 1331.11,3.35 1386.25,-45.44 1426.8,-81.32 1440.87,-146.13 1445.72,-183.91"/>
<polygon fill="black" stroke="black" points="1442.22,-184.11 1446.83,-193.65 1449.18,-183.32 1442.22,-184.11"/>
</g>
<!-- arrow -->
<g id="node4" class="node">
<title>arrow</title>
<polygon fill="none" stroke="black" points="606.38,-955.44 552.38,-955.44 552.38,-919.44 606.38,-919.44 606.38,-955.44"/>
<text text-anchor="middle" x="579.38" y="-933.14" font-family="sans-serif" font-size="14.00">arrow</text>
</g>
<!-- client&#45;&gt;hash -->
<g id="edge20" class="edge">
<title>client&#45;&gt;hash</title>
<path fill="none" stroke="black" d="M350.02,-719.7C402.99,-728.58 526.12,-750.76 626.75,-780.44 641.48,-784.79 743.97,-819.89 756,-829.44 799.01,-863.59 830.59,-920.59 846.89,-954.83"/>
<polygon fill="black" stroke="black" points="843.62,-956.12 851,-963.72 849.98,-953.18 843.62,-956.12"/>
</g>
<!-- client&#45;&gt;shell -->
<g id="edge21" class="edge">
<title>client&#45;&gt;shell</title>
<path fill="none" stroke="black" d="M349.83,-698.83C356.18,-694.22 362.73,-688.96 368.25,-683.44 387.62,-664.09 384.84,-652.76 404.25,-633.44 407.2,-630.5 410.45,-627.64 413.81,-624.9"/>
<polygon fill="black" stroke="black" points="415.79,-627.79 421.62,-618.94 411.54,-622.23 415.79,-627.79"/>
</g>
<!-- client&#45;&gt;store -->
<g id="edge22" class="edge">
<title>client&#45;&gt;store</title>
<path fill="none" stroke="black" d="M328.06,-733.82C338.27,-775.87 365.95,-881.79 404.25,-964.44 449.54,-1062.19 467.86,-1083.88 532,-1170.44 581.21,-1236.85 647.28,-1308.11 682.95,-1345.35"/>
<polygon fill="black" stroke="black" points="680,-1347.33 689.46,-1352.11 685.05,-1342.48 680,-1347.33"/>
</g>
<!-- pure -->
<g id="node32" class="node">
<title>pure</title>
<polygon fill="#ffd6d6" stroke="black" points="1251,-147.44 1197,-147.44 1197,-111.44 1251,-111.44 1251,-147.44"/>
<text text-anchor="middle" x="1224" y="-125.14" font-family="sans-serif" font-size="14.00">pure</text>
</g>
<!-- core&#45;&gt;pure -->
<g id="edge23" class="edge">
<title>core&#45;&gt;pure</title>
<path fill="none" stroke="black" d="M1032.5,-174.52C1063.72,-172.89 1116.93,-168.47 1161,-156.44 1169.43,-154.14 1178.19,-150.9 1186.39,-147.46"/>
<polygon fill="black" stroke="black" points="1187.64,-150.73 1195.37,-143.49 1184.81,-144.33 1187.64,-150.73"/>
</g>
<!-- pure&#45;eval -->
<g id="node33" class="node">
<title>pure&#45;eval</title>
<polygon fill="#ffd6d6" stroke="black" points="1161,-147.44 1081.25,-147.44 1081.25,-111.44 1161,-111.44 1161,-147.44"/>
<text text-anchor="middle" x="1121.12" y="-125.14" font-family="sans-serif" font-size="14.00">pure&#45;eval</text>
</g>
<!-- core&#45;&gt;pure&#45;eval -->
<g id="edge24" class="edge">
<title>core&#45;&gt;pure&#45;eval</title>
<path fill="none" stroke="black" d="M1032.47,-164.77C1043.8,-160.21 1057.41,-154.72 1070.49,-149.45"/>
<polygon fill="black" stroke="black" points="1071.44,-152.84 1079.41,-145.86 1068.82,-146.35 1071.44,-152.84"/>
</g>
<!-- core&#45;&gt;sexp -->
<g id="edge25" class="edge">
<title>core&#45;&gt;sexp</title>
<path fill="none" stroke="black" d="M1011.71,-193.88C1019.59,-219.48 1034.07,-267.32 1045.25,-308.44 1072.17,-407.48 1100.51,-525.88 1113.23,-579.93"/>
<polygon fill="black" stroke="black" points="1109.8,-580.64 1115.5,-589.57 1116.62,-579.04 1109.8,-580.64"/>
</g>
<!-- core&#45;&gt;types -->
<g id="edge26" class="edge">
<title>core&#45;&gt;types</title>
<path fill="none" stroke="black" d="M1032.34,-177.71C1107.45,-184.16 1322.92,-202.67 1410.52,-210.2"/>
<polygon fill="black" stroke="black" points="1410,-213.67 1420.26,-211.04 1410.6,-206.7 1410,-213.67"/>
</g>
<!-- core&#45;test&#45;guest -->
<g id="node7" class="node">
<title>core&#45;test&#45;guest</title>
<polygon fill="none" stroke="black" points="121,-1591.44 0,-1591.44 0,-1555.44 121,-1555.44 121,-1591.44"/>
<text text-anchor="middle" x="60.5" y="-1569.14" font-family="sans-serif" font-size="14.00">core&#45;test&#45;guest</text>
</g>
<!-- crypto&#45;sig -->
<g id="node8" class="node">
<title>crypto&#45;sig</title>
<polygon fill="none" stroke="black" points="241.25,-1789.44 157,-1789.44 157,-1753.44 241.25,-1753.44 241.25,-1789.44"/>
<text text-anchor="middle" x="199.12" y="-1767.14" font-family="sans-serif" font-size="14.00">crypto&#45;sig</text>
</g>
<!-- egglog -->
<g id="node9" class="node">
<title>egglog</title>
<polygon fill="none" stroke="black" points="1035.5,-353.44 974.5,-353.44 974.5,-317.44 1035.5,-317.44 1035.5,-353.44"/>
<text text-anchor="middle" x="1005" y="-331.14" font-family="sans-serif" font-size="14.00">egglog</text>
</g>
<!-- egglog&#45;&gt;sexp -->
<g id="edge27" class="edge">
<title>egglog&#45;&gt;sexp</title>
<path fill="none" stroke="black" d="M1033,-353.85C1037.57,-357.91 1041.91,-362.49 1045.25,-367.44 1090.93,-435.17 1109.74,-532.03 1116.63,-580.08"/>
<polygon fill="black" stroke="black" points="1113.12,-580.26 1117.92,-589.7 1120.05,-579.32 1113.12,-580.26"/>
</g>
<!-- egglog&#45;&gt;types -->
<g id="edge28" class="edge">
<title>egglog&#45;&gt;types</title>
<path fill="none" stroke="black" d="M1035.92,-341.02C1103.61,-352.02 1271.5,-370.02 1386.25,-303.44 1410.01,-289.66 1426.72,-262.68 1436.76,-241.84"/>
<polygon fill="black" stroke="black" points="1439.84,-243.54 1440.78,-232.99 1433.46,-240.65 1439.84,-243.54"/>
</g>
<!-- forsp -->
<g id="node10" class="node">
<title>forsp</title>
<polygon fill="none" stroke="black" points="736.38,-749.44 682.38,-749.44 682.38,-713.44 736.38,-713.44 736.38,-749.44"/>
<text text-anchor="middle" x="709.38" y="-727.14" font-family="sans-serif" font-size="14.00">forsp</text>
</g>
<!-- forsp&#45;&gt;hash -->
<g id="edge29" class="edge">
<title>forsp&#45;&gt;hash</title>
<path fill="none" stroke="black" d="M736.45,-746.28C743.42,-751.11 750.52,-756.93 756,-763.44 805.62,-822.44 837.06,-909.26 851,-954.16"/>
<polygon fill="black" stroke="black" points="847.64,-955.13 853.88,-963.69 854.34,-953.11 847.64,-955.13"/>
</g>
<!-- forsp&#45;&gt;sexp -->
<g id="edge30" class="edge">
<title>forsp&#45;&gt;sexp</title>
<path fill="none" stroke="black" d="M736.73,-743.36C796.67,-768.5 945.71,-819.82 1045.25,-758.44 1087.54,-732.37 1106.78,-674.3 1114.86,-638.85"/>
<polygon fill="black" stroke="black" points="1118.25,-639.76 1116.89,-629.25 1111.4,-638.31 1118.25,-639.76"/>
</g>
<!-- fuse&#45;&gt;hash -->
<g id="edge31" class="edge">
<title>fuse&#45;&gt;hash</title>
<path fill="none" stroke="black" d="M606.74,-1134.17C649.04,-1119.09 729.94,-1089.34 756,-1073.44 785.33,-1055.55 814.45,-1029.21 834.28,-1009.65"/>
<polygon fill="black" stroke="black" points="836.53,-1012.35 841.11,-1002.8 831.57,-1007.41 836.53,-1012.35"/>
</g>
<!-- fuse&#45;&gt;object -->
<g id="edge32" class="edge">
<title>fuse&#45;&gt;object</title>
<path fill="none" stroke="black" d="M606.59,-1143.44C624.56,-1143.44 648.73,-1143.44 669.01,-1143.44"/>
<polygon fill="black" stroke="black" points="668.91,-1146.94 678.91,-1143.44 668.91,-1139.94 668.91,-1146.94"/>
</g>
<!-- fuse&#45;&gt;store -->
<g id="edge33" class="edge">
<title>fuse&#45;&gt;store</title>
<path fill="none" stroke="black" d="M606.78,-1156.91C614.19,-1161.83 621.62,-1168.05 626.75,-1175.44 664.32,-1229.67 632.14,-1261.01 662.75,-1319.44 667.58,-1328.66 674.37,-1337.6 681.23,-1345.39"/>
<polygon fill="black" stroke="black" points="678.23,-1347.29 687.6,-1352.24 683.36,-1342.53 678.23,-1347.29"/>
</g>
<!-- git&#45;&gt;hash -->
<g id="edge34" class="edge">
<title>git&#45;&gt;hash</title>
<path fill="none" stroke="black" d="M460.51,-1262.09C469.66,-1244.13 483.93,-1215.98 496,-1191.44 512.32,-1158.27 505.06,-1141.77 532,-1116.44 616.75,-1036.76 755.56,-1002.15 821.85,-989.56"/>
<polygon fill="black" stroke="black" points="822.28,-993.04 831.49,-987.8 821.02,-986.15 822.28,-993.04"/>
</g>
<!-- git&#45;&gt;object -->
<g id="edge35" class="edge">
<title>git&#45;&gt;object</title>
<path fill="none" stroke="black" d="M477.49,-1279.81C513.66,-1277.85 579.55,-1270.22 626.75,-1241.44 654.95,-1224.25 678,-1193.83 692.33,-1171.42"/>
<polygon fill="black" stroke="black" points="695.21,-1173.41 697.49,-1163.06 689.26,-1169.73 695.21,-1173.41"/>
</g>
<!-- sqlite -->
<g id="node44" class="node">
<title>sqlite</title>
<polygon fill="none" stroke="black" points="887.38,-1422.44 833.38,-1422.44 833.38,-1386.44 887.38,-1386.44 887.38,-1422.44"/>
<text text-anchor="middle" x="860.38" y="-1400.14" font-family="sans-serif" font-size="14.00">sqlite</text>
</g>
<!-- git&#45;&gt;sqlite -->
<g id="edge36" class="edge">
<title>git&#45;&gt;sqlite</title>
<path fill="none" stroke="black" d="M473.21,-1298.92C488.97,-1311.57 511.01,-1328.2 532,-1340.44 586.92,-1372.47 600.77,-1384.32 662.75,-1398.44 716.88,-1410.78 781.56,-1409.87 821.55,-1407.56"/>
<polygon fill="black" stroke="black" points="821.62,-1411.06 831.38,-1406.92 821.17,-1404.07 821.62,-1411.06"/>
</g>
<!-- git&#45;&gt;store -->
<g id="edge37" class="edge">
<title>git&#45;&gt;store</title>
<path fill="none" stroke="black" d="M477.21,-1289.67C523.24,-1305.95 618.99,-1339.82 671.67,-1358.46"/>
<polygon fill="black" stroke="black" points="670.2,-1361.65 680.8,-1361.69 672.54,-1355.05 670.2,-1361.65"/>
</g>
<!-- grammar -->
<g id="node13" class="node">
<title>grammar</title>
<polygon fill="none" stroke="black" points="1041.88,-494.44 968.12,-494.44 968.12,-458.44 1041.88,-458.44 1041.88,-494.44"/>
<text text-anchor="middle" x="1005" y="-472.14" font-family="sans-serif" font-size="14.00">grammar</text>
</g>
<!-- graph -->
<g id="node14" class="node">
<title>graph</title>
<polygon fill="none" stroke="black" points="477.12,-1562.44 423.12,-1562.44 423.12,-1526.44 477.12,-1526.44 477.12,-1562.44"/>
<text text-anchor="middle" x="450.12" y="-1540.14" font-family="sans-serif" font-size="14.00">graph</text>
</g>
<!-- graph&#45;&gt;hash -->
<g id="edge38" class="edge">
<title>graph&#45;&gt;hash</title>
<path fill="none" stroke="black" d="M472.76,-1526.08C508.88,-1494.44 581.93,-1426.2 626.75,-1355.44 649.8,-1319.05 639.2,-1301.52 662.75,-1265.44 695.09,-1215.9 720.64,-1217.88 756,-1170.44 794.84,-1118.33 828.94,-1049.96 846.59,-1011.99"/>
<polygon fill="black" stroke="black" points="849.7,-1013.61 850.69,-1003.06 843.34,-1010.69 849.7,-1013.61"/>
</g>
<!-- parse -->
<g id="node30" class="node">
<title>parse</title>
<polygon fill="#ffd6d6" stroke="black" points="1251,-1240.44 1197,-1240.44 1197,-1204.44 1251,-1204.44 1251,-1240.44"/>
<text text-anchor="middle" x="1224" y="-1218.14" font-family="sans-serif" font-size="14.00">parse</text>
</g>
<!-- graph&#45;&gt;parse -->
<g id="edge39" class="edge">
<title>graph&#45;&gt;parse</title>
<path fill="none" stroke="black" d="M454.65,-1562.8C462.37,-1598.01 484.02,-1675.4 532,-1718.44 646.35,-1821.05 705.74,-1829.44 859.38,-1829.44 859.38,-1829.44 859.38,-1829.44 1006,-1829.44 1130.02,-1829.44 1201.95,-1374.46 1219.02,-1252.32"/>
<polygon fill="black" stroke="black" points="1222.49,-1252.82 1220.38,-1242.44 1215.55,-1251.87 1222.49,-1252.82"/>
</g>
<!-- rand -->
<g id="node36" class="node">
<title>rand</title>
<polygon fill="none" stroke="black" points="1032,-1001.44 978,-1001.44 978,-965.44 1032,-965.44 1032,-1001.44"/>
<text text-anchor="middle" x="1005" y="-979.14" font-family="sans-serif" font-size="14.00">rand</text>
</g>
<!-- hash&#45;&gt;rand -->
<g id="edge40" class="edge">
<title>hash&#45;&gt;rand</title>
<path fill="none" stroke="black" d="M887.87,-983.44C909.88,-983.44 941.48,-983.44 966.16,-983.44"/>
<polygon fill="black" stroke="black" points="966.14,-986.94 976.14,-983.44 966.14,-979.94 966.14,-986.94"/>
</g>
<!-- hol&#45;&gt;core -->
<g id="edge41" class="edge">
<title>hol&#45;&gt;core</title>
<path fill="none" stroke="black" d="M887.87,-168.93C909.88,-170.16 941.48,-171.94 966.16,-173.32"/>
<polygon fill="black" stroke="black" points="965.96,-176.81 976.14,-173.88 966.35,-169.83 965.96,-176.81"/>
</g>
<!-- hol&#45;eval -->
<g id="node17" class="node">
<title>hol&#45;eval</title>
<polygon fill="none" stroke="black" points="895.38,-71.44 825.38,-71.44 825.38,-35.44 895.38,-35.44 895.38,-71.44"/>
<text text-anchor="middle" x="860.38" y="-49.14" font-family="sans-serif" font-size="14.00">hol&#45;eval</text>
</g>
<!-- hol&#45;eval&#45;&gt;core -->
<g id="edge42" class="edge">
<title>hol&#45;eval&#45;&gt;core</title>
<path fill="none" stroke="black" d="M895.72,-65.48C907.03,-70.51 919.15,-77.14 928.75,-85.44 950.57,-104.31 945.99,-117.54 964.75,-139.44 967.64,-142.82 970.84,-146.2 974.12,-149.47"/>
<polygon fill="black" stroke="black" points="971.56,-151.87 981.22,-156.22 976.38,-146.79 971.56,-151.87"/>
</g>
<!-- hol&#45;eval&#45;&gt;pure -->
<g id="edge43" class="edge">
<title>hol&#45;eval&#45;&gt;pure</title>
<path fill="none" stroke="black" d="M895.69,-56.26C952.02,-61.5 1067.21,-74.82 1161,-102.44 1169.38,-104.91 1178.12,-108.22 1186.31,-111.68"/>
<polygon fill="black" stroke="black" points="1184.74,-114.81 1195.3,-115.65 1187.56,-108.41 1184.74,-114.81"/>
</g>
<!-- hol&#45;eval&#45;&gt;pure&#45;eval -->
<g id="edge44" class="edge">
<title>hol&#45;eval&#45;&gt;pure&#45;eval</title>
<path fill="none" stroke="black" d="M895.66,-70.07C915.48,-79.17 941.11,-90.06 964.75,-97.44 999.13,-108.18 1038.94,-116.3 1069.65,-121.67"/>
<polygon fill="black" stroke="black" points="1069.01,-125.12 1079.46,-123.34 1070.19,-118.21 1069.01,-125.12"/>
</g>
<!-- hol&#45;eval&#45;&gt;types -->
<g id="edge45" class="edge">
<title>hol&#45;eval&#45;&gt;types</title>
<path fill="none" stroke="black" d="M895.69,-51.71C945.23,-49.35 1039.68,-45.44 1120.12,-45.44 1120.12,-45.44 1120.12,-45.44 1225,-45.44 1301.01,-45.44 1328.14,-53.44 1386.25,-102.44 1412,-124.16 1429.09,-159.44 1438.68,-184.39"/>
<polygon fill="black" stroke="black" points="1435.34,-185.42 1442.05,-193.61 1441.91,-183.02 1435.34,-185.42"/>
</g>
<!-- init&#45;&gt;core -->
<g id="edge46" class="edge">
<title>init&#45;&gt;core</title>
<path fill="none" stroke="black" d="M718.06,-477.3C730.74,-448.64 758.07,-391.99 792,-351.44 820.45,-317.44 918.86,-240.4 970.99,-200.48"/>
<polygon fill="black" stroke="black" points="972.83,-203.48 978.65,-194.62 968.58,-197.91 972.83,-203.48"/>
</g>
<!-- init&#45;&gt;grammar -->
<g id="edge47" class="edge">
<title>init&#45;&gt;grammar</title>
<path fill="none" stroke="black" d="M736.69,-493.74C786.25,-490.53 894.06,-483.56 956.56,-479.51"/>
<polygon fill="black" stroke="black" points="956.42,-483.03 966.17,-478.89 955.97,-476.04 956.42,-483.03"/>
</g>
<!-- init&#45;&gt;hash -->
<g id="edge48" class="edge">
<title>init&#45;&gt;hash</title>
<path fill="none" stroke="black" d="M715.94,-513.68C738.44,-587.37 822.73,-863.43 850.47,-954.27"/>
<polygon fill="black" stroke="black" points="847.07,-955.12 853.34,-963.66 853.76,-953.08 847.07,-955.12"/>
</g>
<!-- init&#45;&gt;hol -->
<g id="edge49" class="edge">
<title>init&#45;&gt;hol</title>
<path fill="none" stroke="black" d="M718.91,-477.25C728.17,-457.44 743.33,-424.78 756,-396.44 772.42,-359.74 775.57,-350.14 792,-313.44 810.3,-272.55 832.14,-225.54 845.88,-196.17"/>
<polygon fill="black" stroke="black" points="849.01,-197.73 850.09,-187.19 842.68,-194.76 849.01,-197.73"/>
</g>
<!-- metamath -->
<g id="node25" class="node">
<title>metamath</title>
<polygon fill="none" stroke="black" points="1045.25,-749.44 964.75,-749.44 964.75,-713.44 1045.25,-713.44 1045.25,-749.44"/>
<text text-anchor="middle" x="1005" y="-727.14" font-family="sans-serif" font-size="14.00">metamath</text>
</g>
<!-- init&#45;&gt;metamath -->
<g id="edge50" class="edge">
<title>init&#45;&gt;metamath</title>
<path fill="none" stroke="black" d="M734.59,-513.8C775.19,-544.71 859.4,-609.39 928.75,-666.44 944.06,-679.04 960.78,-693.41 974.56,-705.44"/>
<polygon fill="black" stroke="black" points="972.18,-708.01 982.01,-711.96 976.79,-702.74 972.18,-708.01"/>
</g>
<!-- init&#45;&gt;sexp -->
<g id="edge51" class="edge">
<title>init&#45;&gt;sexp</title>
<path fill="none" stroke="black" d="M736.61,-502.59C777.63,-513.78 859.44,-536.14 928.75,-555.44 982.48,-570.4 1044.61,-587.99 1083.14,-598.93"/>
<polygon fill="black" stroke="black" points="1081.8,-602.18 1092.37,-601.55 1083.71,-595.45 1081.8,-602.18"/>
</g>
<!-- spectec -->
<g id="node43" class="node">
<title>spectec</title>
<polygon fill="none" stroke="black" points="895,-467.44 825.75,-467.44 825.75,-431.44 895,-431.44 895,-467.44"/>
<text text-anchor="middle" x="860.38" y="-445.14" font-family="sans-serif" font-size="14.00">spectec</text>
</g>
<!-- init&#45;&gt;spectec -->
<g id="edge52" class="edge">
<title>init&#45;&gt;spectec</title>
<path fill="none" stroke="black" d="M736.67,-487.33C758.21,-480.67 789.18,-471.12 814.61,-463.26"/>
<polygon fill="black" stroke="black" points="815.52,-466.65 824.04,-460.35 813.46,-459.96 815.52,-466.65"/>
</g>
<!-- init&#45;&gt;types -->
<g id="edge53" class="edge">
<title>init&#45;&gt;types</title>
<path fill="none" stroke="black" d="M729.15,-477.21C745.27,-461.92 769.41,-439.85 792,-422.44 864.87,-366.3 878.42,-340.2 964.75,-308.44 1030.04,-284.42 1050.56,-289.44 1120.12,-289.44 1120.12,-289.44 1120.12,-289.44 1225,-289.44 1298.53,-289.44 1318.34,-280.64 1386.25,-252.44 1395.64,-248.55 1405.2,-243.28 1413.93,-237.88"/>
<polygon fill="black" stroke="black" points="1415.58,-240.98 1422.09,-232.62 1411.79,-235.1 1415.58,-240.98"/>
</g>
<!-- json -->
<g id="node19" class="node">
<title>json</title>
<polygon fill="none" stroke="black" points="887.38,-1687.44 833.38,-1687.44 833.38,-1651.44 887.38,-1651.44 887.38,-1687.44"/>
<text text-anchor="middle" x="860.38" y="-1665.14" font-family="sans-serif" font-size="14.00">json</text>
</g>
<!-- kernel -->
<g id="node20" class="node">
<title>kernel</title>
<polygon fill="none" stroke="black" points="608,-825.44 550.75,-825.44 550.75,-789.44 608,-789.44 608,-825.44"/>
<text text-anchor="middle" x="579.38" y="-803.14" font-family="sans-serif" font-size="14.00">kernel</text>
</g>
<!-- kernel&#45;&gt;hash -->
<g id="edge54" class="edge">
<title>kernel&#45;&gt;hash</title>
<path fill="none" stroke="black" d="M608.27,-814.63C644.44,-824.79 708.5,-845.73 756,-877.44 788.65,-899.24 819.14,-932.76 838.42,-956.25"/>
<polygon fill="black" stroke="black" points="835.54,-958.25 844.54,-963.85 840.99,-953.86 835.54,-958.25"/>
</g>
<!-- kernel&#45;&gt;init -->
<g id="edge55" class="edge">
<title>kernel&#45;&gt;init</title>
<path fill="none" stroke="black" d="M587.81,-789.32C609.15,-737.3 670.73,-587.2 696.65,-524.02"/>
<polygon fill="black" stroke="black" points="699.79,-525.6 700.34,-515.02 693.31,-522.94 699.79,-525.6"/>
</g>
<!-- kernel&#45;&gt;object -->
<g id="edge56" class="edge">
<title>kernel&#45;&gt;object</title>
<path fill="none" stroke="black" d="M589.24,-825.84C598.95,-846.29 614.75,-880.39 626.75,-910.44 655.65,-982.79 684.66,-1069.86 699.05,-1114.27"/>
<polygon fill="black" stroke="black" points="695.69,-1115.24 702.09,-1123.68 702.35,-1113.09 695.69,-1115.24"/>
</g>
<!-- kernel&#45;&gt;sexp -->
<g id="edge57" class="edge">
<title>kernel&#45;&gt;sexp</title>
<path fill="none" stroke="black" d="M590.36,-788.94C603.8,-765.8 629.86,-726.52 662.75,-704.44 732.52,-657.62 1037.54,-624.82 1045.25,-623.44 1057.48,-621.26 1070.82,-618.79 1082.81,-616.55"/>
<polygon fill="black" stroke="black" points="1083.14,-620.05 1092.32,-614.75 1081.85,-613.17 1083.14,-620.05"/>
</g>
<!-- kernel&#45;&gt;store -->
<g id="edge58" class="edge">
<title>kernel&#45;&gt;store</title>
<path fill="none" stroke="black" d="M590.89,-825.73C601.88,-845.81 618.62,-879.33 626.75,-910.44 672.85,-1087 591.02,-1151.65 662.75,-1319.44 666.69,-1328.65 672.9,-1337.38 679.49,-1344.96"/>
<polygon fill="black" stroke="black" points="676.86,-1347.27 686.24,-1352.19 681.97,-1342.49 676.86,-1347.27"/>
</g>
<!-- kv -->
<g id="node21" class="node">
<title>kv</title>
<polygon fill="none" stroke="black" points="226.12,-1735.44 172.12,-1735.44 172.12,-1699.44 226.12,-1699.44 226.12,-1735.44"/>
<text text-anchor="middle" x="199.12" y="-1713.14" font-family="sans-serif" font-size="14.00">kv</text>
</g>
<!-- lean -->
<g id="node22" class="node">
<title>lean</title>
<polygon fill="none" stroke="black" points="87.5,-1645.44 33.5,-1645.44 33.5,-1609.44 87.5,-1609.44 87.5,-1645.44"/>
<text text-anchor="middle" x="60.5" y="-1623.14" font-family="sans-serif" font-size="14.00">lean</text>
</g>
<!-- llm -->
<g id="node23" class="node">
<title>llm</title>
<polygon fill="none" stroke="black" points="226.12,-1415.44 172.12,-1415.44 172.12,-1379.44 226.12,-1379.44 226.12,-1415.44"/>
<text text-anchor="middle" x="199.12" y="-1393.14" font-family="sans-serif" font-size="14.00">llm</text>
</g>
<!-- llm&#45;&gt;proto -->
<g id="edge59" class="edge">
<title>llm&#45;&gt;proto</title>
<path fill="none" stroke="black" d="M218.88,-1378.98C234.16,-1364.25 256.51,-1343.34 277.25,-1326.44 280.13,-1324.1 283.16,-1321.73 286.24,-1319.39"/>
<polygon fill="black" stroke="black" points="288.31,-1322.21 294.26,-1313.44 284.14,-1316.59 288.31,-1322.21"/>
</g>
<!-- lsp&#45;&gt;sexp -->
<g id="edge60" class="edge">
<title>lsp&#45;&gt;sexp</title>
<path fill="none" stroke="black" d="M887.63,-692.43C924.22,-690.23 992.05,-683.29 1045.25,-661.44 1061.15,-654.91 1077.04,-644.56 1090.07,-634.81"/>
<polygon fill="black" stroke="black" points="1092.05,-637.7 1097.81,-628.8 1087.76,-632.17 1092.05,-637.7"/>
</g>
<!-- lsp&#45;&gt;wasm -->
<g id="edge61" class="edge">
<title>lsp&#45;&gt;wasm</title>
<path fill="none" stroke="black" d="M866.96,-711.75C879.76,-754.29 911.39,-863.31 928.75,-956.44 971.89,-1187.91 995.15,-1471.64 1001.9,-1562.77"/>
<polygon fill="black" stroke="black" points="998.4,-1562.87 1002.62,-1572.59 1005.38,-1562.36 998.4,-1562.87"/>
</g>
<!-- metamath&#45;&gt;parse -->
<g id="edge62" class="edge">
<title>metamath&#45;&gt;parse</title>
<path fill="none" stroke="black" d="M1014.11,-749.8C1046.94,-824.08 1170.14,-1102.83 1210.27,-1193.65"/>
<polygon fill="black" stroke="black" points="1206.99,-1194.88 1214.24,-1202.62 1213.4,-1192.05 1206.99,-1194.88"/>
</g>
<!-- metamath&#45;&gt;sexp -->
<g id="edge63" class="edge">
<title>metamath&#45;&gt;sexp</title>
<path fill="none" stroke="black" d="M1029.88,-713.2C1035.11,-708.87 1040.5,-704.14 1045.25,-699.44 1065.05,-679.84 1085.12,-655.42 1099.49,-636.96"/>
<polygon fill="black" stroke="black" points="1102.2,-639.17 1105.53,-629.11 1096.66,-634.91 1102.2,-639.17"/>
</g>
<!-- multiformat -->
<g id="node26" class="node">
<title>multiformat</title>
<polygon fill="none" stroke="black" points="754.5,-1310.44 664.25,-1310.44 664.25,-1274.44 754.5,-1274.44 754.5,-1310.44"/>
<text text-anchor="middle" x="709.38" y="-1288.14" font-family="sans-serif" font-size="14.00">multiformat</text>
</g>
<!-- multiformat&#45;&gt;acset -->
<g id="edge64" class="edge">
<title>multiformat&#45;&gt;acset</title>
<path fill="none" stroke="black" d="M749.52,-1274.05C772.2,-1263.4 800.56,-1250.08 822.78,-1239.63"/>
<polygon fill="black" stroke="black" points="824.22,-1242.83 831.78,-1235.41 821.24,-1236.49 824.22,-1242.83"/>
</g>
<!-- multiformat&#45;&gt;hash -->
<g id="edge65" class="edge">
<title>multiformat&#45;&gt;hash</title>
<path fill="none" stroke="black" d="M742.01,-1274.08C747.17,-1270.07 752.09,-1265.5 756,-1260.44 787.26,-1220.02 832.43,-1074.91 850.96,-1012.42"/>
<polygon fill="black" stroke="black" points="854.2,-1013.78 853.67,-1003.2 847.49,-1011.81 854.2,-1013.78"/>
</g>
<!-- multiformat&#45;&gt;parse -->
<g id="edge66" class="edge">
<title>multiformat&#45;&gt;parse</title>
<path fill="none" stroke="black" d="M754.97,-1286.35C854.38,-1272.78 1092.68,-1240.24 1185.29,-1227.59"/>
<polygon fill="black" stroke="black" points="1185.67,-1231.07 1195.11,-1226.25 1184.72,-1224.14 1185.67,-1231.07"/>
</g>
<!-- object&#45;&gt;hash -->
<g id="edge67" class="edge">
<title>object&#45;&gt;hash</title>
<path fill="none" stroke="black" d="M738.36,-1125.68C744.42,-1121.32 750.63,-1116.46 756,-1111.44 789.27,-1080.35 821.19,-1038.34 840.54,-1011.08"/>
<polygon fill="black" stroke="black" points="843.34,-1013.18 846.21,-1002.98 837.61,-1009.16 843.34,-1013.18"/>
</g>
<!-- object&#45;&gt;parse -->
<g id="edge68" class="edge">
<title>object&#45;&gt;parse</title>
<path fill="none" stroke="black" d="M738.3,-1147.75C824.63,-1161.05 1087.31,-1201.53 1185.47,-1216.66"/>
<polygon fill="black" stroke="black" points="1184.69,-1220.08 1195.1,-1218.14 1185.75,-1213.16 1184.69,-1220.08"/>
</g>
<!-- opentheory&#45;&gt;hol -->
<g id="edge69" class="edge">
<title>opentheory&#45;&gt;hol</title>
<path fill="none" stroke="black" d="M368.5,-112.46C471.92,-124.04 726,-152.5 821.91,-163.25"/>
<polygon fill="black" stroke="black" points="821.23,-166.69 831.56,-164.33 822.01,-159.74 821.23,-166.69"/>
</g>
<!-- parquet -->
<g id="node29" class="node">
<title>parquet</title>
<polygon fill="none" stroke="black" points="483.62,-955.44 416.62,-955.44 416.62,-919.44 483.62,-919.44 483.62,-955.44"/>
<text text-anchor="middle" x="450.12" y="-933.14" font-family="sans-serif" font-size="14.00">parquet</text>
</g>
<!-- parquet&#45;&gt;arrow -->
<g id="edge70" class="edge">
<title>parquet&#45;&gt;arrow</title>
<path fill="none" stroke="black" d="M483.9,-937.44C501.29,-937.44 522.75,-937.44 540.82,-937.44"/>
<polygon fill="black" stroke="black" points="540.61,-940.94 550.61,-937.44 540.61,-933.94 540.61,-940.94"/>
</g>
<!-- pure&#45;trusted -->
<g id="node34" class="node">
<title>pure&#45;trusted</title>
<polygon fill="#ffd6d6" stroke="black" points="1386.25,-147.44 1287,-147.44 1287,-111.44 1386.25,-111.44 1386.25,-147.44"/>
<text text-anchor="middle" x="1336.62" y="-125.14" font-family="sans-serif" font-size="14.00">pure&#45;trusted</text>
</g>
<!-- pure&#45;&gt;pure&#45;trusted -->
<g id="edge71" class="edge">
<title>pure&#45;&gt;pure&#45;trusted</title>
<path fill="none" stroke="black" d="M1251.5,-129.44C1258.79,-129.44 1267.02,-129.44 1275.39,-129.44"/>
<polygon fill="black" stroke="black" points="1275.32,-132.94 1285.32,-129.44 1275.32,-125.94 1275.32,-132.94"/>
</g>
<!-- pure&#45;eval&#45;&gt;pure -->
<g id="edge72" class="edge">
<title>pure&#45;eval&#45;&gt;pure</title>
<path fill="none" stroke="black" d="M1161.41,-129.44C1169.28,-129.44 1177.52,-129.44 1185.32,-129.44"/>
<polygon fill="black" stroke="black" points="1185.22,-132.94 1195.22,-129.44 1185.22,-125.94 1185.22,-132.94"/>
</g>
<!-- pure&#45;eval&#45;&gt;types -->
<g id="edge73" class="edge">
<title>pure&#45;eval&#45;&gt;types</title>
<path fill="none" stroke="black" d="M1161.46,-144.65C1172.83,-148.77 1185.33,-153.03 1197,-156.44 1199.6,-157.2 1342.13,-189.45 1411.33,-205.1"/>
<polygon fill="black" stroke="black" points="1410.17,-208.42 1420.69,-207.21 1411.71,-201.6 1410.17,-208.42"/>
</g>
<!-- pure&#45;trusted&#45;&gt;types -->
<g id="edge74" class="edge">
<title>pure&#45;trusted&#45;&gt;types</title>
<path fill="none" stroke="black" d="M1366.8,-147.85C1373.3,-152.17 1380.09,-156.86 1386.25,-161.44 1397.23,-169.62 1408.84,-179.11 1419,-187.72"/>
<polygon fill="black" stroke="black" points="1416.49,-190.18 1426.36,-194.03 1421.04,-184.86 1416.49,-190.18"/>
</g>
<!-- python -->
<g id="node35" class="node">
<title>python</title>
<polygon fill="none" stroke="black" points="91.38,-1537.44 29.62,-1537.44 29.62,-1501.44 91.38,-1501.44 91.38,-1537.44"/>
<text text-anchor="middle" x="60.5" y="-1515.14" font-family="sans-serif" font-size="14.00">python</text>
</g>
<!-- python&#45;&gt;crypto&#45;sig -->
<g id="edge75" class="edge">
<title>python&#45;&gt;crypto&#45;sig</title>
<path fill="none" stroke="black" d="M91.85,-1526.86C102.57,-1530.94 113.75,-1537.14 121,-1546.44 173.85,-1614.22 112.78,-1665.71 158.39,-1743.4"/>
<polygon fill="black" stroke="black" points="155.37,-1745.17 163.68,-1751.73 161.27,-1741.41 155.37,-1745.17"/>
</g>
<!-- python&#45;&gt;git -->
<g id="edge76" class="edge">
<title>python&#45;&gt;git</title>
<path fill="none" stroke="black" d="M91.83,-1513.52C150.99,-1500.65 283.39,-1465.27 368.25,-1392.44 396.12,-1368.53 419.58,-1333.15 433.94,-1308.58"/>
<polygon fill="black" stroke="black" points="436.87,-1310.51 438.78,-1300.09 430.79,-1307.05 436.87,-1310.51"/>
</g>
<!-- python&#45;&gt;graph -->
<g id="edge77" class="edge">
<title>python&#45;&gt;graph</title>
<path fill="none" stroke="black" d="M91.51,-1524.69C110.27,-1527.76 134.97,-1531.42 157,-1533.44 248.11,-1541.81 355.76,-1543.85 411.48,-1544.32"/>
<polygon fill="black" stroke="black" points="411.34,-1547.82 421.36,-1544.39 411.39,-1540.82 411.34,-1547.82"/>
</g>
<!-- python&#45;&gt;hash -->
<g id="edge78" class="edge">
<title>python&#45;&gt;hash</title>
<path fill="none" stroke="black" d="M91.19,-1501.03C109.83,-1489.72 134.52,-1475.2 157,-1463.44 193.56,-1444.32 207.42,-1448.06 241.25,-1424.44 259.8,-1411.49 260.09,-1403.19 277.25,-1388.44 315.34,-1355.7 335.45,-1359.48 368.25,-1321.44 390.58,-1295.54 387.13,-1283.05 404.25,-1253.44 457.61,-1161.16 449.59,-1118.07 532,-1050.44 617.04,-980.66 755.71,-977.5 821.9,-980.55"/>
<polygon fill="black" stroke="black" points="821.33,-984.02 831.51,-981.07 821.71,-977.03 821.33,-984.02"/>
</g>
<!-- python&#45;&gt;kv -->
<g id="edge79" class="edge">
<title>python&#45;&gt;kv</title>
<path fill="none" stroke="black" d="M91.8,-1527.26C102.38,-1531.38 113.48,-1537.5 121,-1546.44 162.07,-1595.29 121.95,-1632.12 157,-1685.44 158.82,-1688.21 160.95,-1690.83 163.28,-1693.31"/>
<polygon fill="black" stroke="black" points="160.91,-1695.88 170.63,-1700.07 165.65,-1690.73 160.91,-1695.88"/>
</g>
<!-- python&#45;&gt;llm -->
<g id="edge80" class="edge">
<title>python&#45;&gt;llm</title>
<path fill="none" stroke="black" d="M80.04,-1500.97C98.94,-1482.39 129.32,-1453.16 157,-1429.44 159.6,-1427.22 162.32,-1424.95 165.08,-1422.71"/>
<polygon fill="black" stroke="black" points="167.08,-1425.6 172.71,-1416.63 162.71,-1420.12 167.08,-1425.6"/>
</g>
<!-- python&#45;&gt;object -->
<g id="edge81" class="edge">
<title>python&#45;&gt;object</title>
<path fill="none" stroke="black" d="M91.7,-1518.58C127.92,-1516.86 190.16,-1511.73 241.25,-1496.44 336.28,-1468.01 565.21,-1349.24 626.75,-1271.44 657.36,-1232.75 630.33,-1203.63 662.75,-1166.44 665.07,-1163.79 667.76,-1161.4 670.66,-1159.27"/>
<polygon fill="black" stroke="black" points="672.44,-1162.28 679.13,-1154.07 668.78,-1156.32 672.44,-1162.28"/>
</g>
<!-- python&#45;&gt;repl -->
<g id="edge82" class="edge">
<title>python&#45;&gt;repl</title>
<path fill="none" stroke="black" d="M69.72,-1501.06C107.32,-1416.99 263.05,-1068.71 308.96,-966.05"/>
<polygon fill="black" stroke="black" points="312.02,-967.77 312.91,-957.21 305.63,-964.91 312.02,-967.77"/>
</g>
<!-- sat -->
<g id="node38" class="node">
<title>sat</title>
<polygon fill="none" stroke="black" points="887.38,-1362.44 833.38,-1362.44 833.38,-1326.44 887.38,-1326.44 887.38,-1362.44"/>
<text text-anchor="middle" x="860.38" y="-1340.14" font-family="sans-serif" font-size="14.00">sat</text>
</g>
<!-- python&#45;&gt;sat -->
<g id="edge83" class="edge">
<title>python&#45;&gt;sat</title>
<path fill="none" stroke="black" d="M91.68,-1530.63C101.44,-1534.9 112.05,-1540.24 121,-1546.44 139.6,-1559.33 136.96,-1571.93 157,-1582.44 290.52,-1652.49 348.49,-1626.67 496,-1595.44 616.21,-1569.99 671.95,-1591.08 756,-1501.44 795.25,-1459.58 755.08,-1421.37 792,-1377.44 800,-1367.92 811.41,-1360.91 822.56,-1355.87"/>
<polygon fill="black" stroke="black" points="823.71,-1359.18 831.66,-1352.18 821.08,-1352.69 823.71,-1359.18"/>
</g>
<!-- python&#45;&gt;serve -->
<g id="edge84" class="edge">
<title>python&#45;&gt;serve</title>
<path fill="none" stroke="black" d="M65.51,-1501.11C84.78,-1413.11 167.81,-1033.92 191.68,-924.88"/>
<polygon fill="black" stroke="black" points="195.07,-925.78 193.79,-915.26 188.23,-924.28 195.07,-925.78"/>
</g>
<!-- python&#45;&gt;sexp -->
<g id="edge85" class="edge">
<title>python&#45;&gt;sexp</title>
<path fill="none" stroke="black" d="M62.68,-1501.06C70.23,-1384.97 112.96,-755.94 157,-683.44 190.45,-628.37 218.02,-627.83 277.25,-602.44 330.38,-579.67 346.79,-580.7 404.25,-574.44 539.51,-559.71 572.32,-609.44 708.38,-609.44 708.38,-609.44 708.38,-609.44 861.38,-609.44 939.98,-609.44 1032.01,-609.44 1082.39,-609.44"/>
<polygon fill="black" stroke="black" points="1082.16,-612.94 1092.16,-609.44 1082.16,-605.94 1082.16,-612.94"/>
</g>
<!-- python&#45;&gt;shell -->
<g id="edge86" class="edge">
<title>python&#45;&gt;shell</title>
<path fill="none" stroke="black" d="M61.92,-1501.06C64.19,-1422.73 78.01,-1109.72 157,-868.44 174.76,-814.19 232.02,-676.27 277.25,-641.44 316.13,-611.51 373.64,-603.37 411.25,-601.48"/>
<polygon fill="black" stroke="black" points="411.33,-604.98 421.19,-601.12 411.07,-597.98 411.33,-604.98"/>
</g>
<!-- python&#45;&gt;store -->
<g id="edge87" class="edge">
<title>python&#45;&gt;store</title>
<path fill="none" stroke="black" d="M91.76,-1532.74C164.36,-1562.62 353,-1628.18 496,-1571.44 584.38,-1536.38 657.34,-1445.19 689.97,-1399.05"/>
<polygon fill="black" stroke="black" points="692.8,-1401.11 695.63,-1390.9 687.05,-1397.12 692.8,-1401.11"/>
</g>
<!-- python&#45;&gt;wasm -->
<g id="edge88" class="edge">
<title>python&#45;&gt;wasm</title>
<path fill="none" stroke="black" d="M91.72,-1526.6C102.56,-1530.66 113.85,-1536.91 121,-1546.44 188.87,-1636.96 75.92,-1719.53 157,-1798.44 209.82,-1849.85 248.04,-1817.44 321.75,-1817.44 321.75,-1817.44 321.75,-1817.44 451.12,-1817.44 665.48,-1817.44 755.9,-1877.22 928.75,-1750.44 971.08,-1719.39 990.55,-1658.27 998.74,-1621.82"/>
<polygon fill="black" stroke="black" points="1002.08,-1622.91 1000.7,-1612.41 995.23,-1621.48 1002.08,-1622.91"/>
</g>
<!-- wasm&#45;store -->
<g id="node50" class="node">
<title>wasm&#45;store</title>
<polygon fill="none" stroke="black" points="626.75,-1709.44 532,-1709.44 532,-1673.44 626.75,-1673.44 626.75,-1709.44"/>
<text text-anchor="middle" x="579.38" y="-1687.14" font-family="sans-serif" font-size="14.00">wasm&#45;store</text>
</g>
<!-- python&#45;&gt;wasm&#45;store -->
<g id="edge89" class="edge">
<title>python&#45;&gt;wasm&#45;store</title>
<path fill="none" stroke="black" d="M91.69,-1527.75C102.13,-1531.91 113.17,-1537.93 121,-1546.44 153.26,-1581.52 119.54,-1617.99 157,-1647.44 212.05,-1690.72 418.33,-1693.96 520.41,-1692.78"/>
<polygon fill="black" stroke="black" points="520.27,-1696.28 530.22,-1692.65 520.17,-1689.28 520.27,-1696.28"/>
</g>
<!-- repl&#45;&gt;arrow -->
<g id="edge90" class="edge">
<title>repl&#45;&gt;arrow</title>
<path fill="none" stroke="black" d="M350.03,-948.66C365.5,-954.65 385.63,-961.4 404.25,-964.44 444.5,-971.01 455.73,-970.87 496,-964.44 511.24,-962.01 527.5,-957.19 541.5,-952.29"/>
<polygon fill="black" stroke="black" points="542.58,-955.62 550.77,-948.9 540.18,-949.05 542.58,-955.62"/>
</g>
<!-- repl&#45;&gt;forsp -->
<g id="edge91" class="edge">
<title>repl&#45;&gt;forsp</title>
<path fill="none" stroke="black" d="M327.47,-919.13C335.29,-885.67 356.8,-814.92 404.25,-780.44 484.93,-721.82 609.45,-722.6 671.12,-727.35"/>
<polygon fill="black" stroke="black" points="670.47,-730.81 680.73,-728.18 671.06,-723.83 670.47,-730.81"/>
</g>
<!-- repl&#45;&gt;git -->
<g id="edge92" class="edge">
<title>repl&#45;&gt;git</title>
<path fill="none" stroke="black" d="M330.49,-955.88C351.16,-1012.43 413.75,-1183.68 438.7,-1251.92"/>
<polygon fill="black" stroke="black" points="435.26,-1252.72 441.98,-1260.91 441.84,-1250.31 435.26,-1252.72"/>
</g>
<!-- repl&#45;&gt;graph -->
<g id="edge93" class="edge">
<title>repl&#45;&gt;graph</title>
<path fill="none" stroke="black" d="M327,-955.84C337.41,-1014.37 371.18,-1201.54 404.25,-1355.44 416.43,-1412.12 432.49,-1477.9 441.72,-1515"/>
<polygon fill="black" stroke="black" points="438.28,-1515.67 444.1,-1524.52 445.07,-1513.97 438.28,-1515.67"/>
</g>
<!-- repl&#45;&gt;hash -->
<g id="edge94" class="edge">
<title>repl&#45;&gt;hash</title>
<path fill="none" stroke="black" d="M350.03,-926.22C365.5,-920.23 385.63,-913.48 404.25,-910.44 501.85,-894.51 529,-895.47 626.75,-910.44 698.06,-921.37 777.54,-950.11 822.69,-968.09"/>
<polygon fill="black" stroke="black" points="821.15,-971.25 831.73,-971.74 823.77,-964.76 821.15,-971.25"/>
</g>
<!-- repl&#45;&gt;init -->
<g id="edge95" class="edge">
<title>repl&#45;&gt;init</title>
<path fill="none" stroke="black" d="M327.65,-919.13C336.32,-881.65 360,-794.75 404.25,-735.44 480.26,-633.56 609.78,-551.31 672.38,-515.23"/>
<polygon fill="black" stroke="black" points="673.93,-518.38 680.88,-510.39 670.46,-512.3 673.93,-518.38"/>
</g>
<!-- repl&#45;&gt;object -->
<g id="edge96" class="edge">
<title>repl&#45;&gt;object</title>
<path fill="none" stroke="black" d="M350.02,-951.96C365.66,-960.48 385.95,-971.33 404.25,-980.44 501.79,-1029.02 532.93,-1028.01 626.75,-1083.44 644.18,-1093.74 662.44,-1106.91 677.26,-1118.29"/>
<polygon fill="black" stroke="black" points="674.76,-1120.78 684.81,-1124.16 679.07,-1115.26 674.76,-1120.78"/>
</g>
<!-- repl&#45;&gt;parquet -->
<g id="edge97" class="edge">
<title>repl&#45;&gt;parquet</title>
<path fill="none" stroke="black" d="M350.03,-937.44C365.89,-937.44 386.51,-937.44 404.83,-937.44"/>
<polygon fill="black" stroke="black" points="404.66,-940.94 414.66,-937.44 404.66,-933.94 404.66,-940.94"/>
</g>
<!-- repl&#45;&gt;shell -->
<g id="edge98" class="edge">
<title>repl&#45;&gt;shell</title>
<path fill="none" stroke="black" d="M327.8,-919.27C341.7,-857.44 387.48,-657.69 404.25,-633.44 406.94,-629.55 410.27,-625.96 413.89,-622.71"/>
<polygon fill="black" stroke="black" points="415.84,-625.64 421.51,-616.69 411.5,-620.15 415.84,-625.64"/>
</g>
<!-- repl&#45;&gt;wasm -->
<g id="edge99" class="edge">
<title>repl&#45;&gt;wasm</title>
<path fill="none" stroke="black" d="M323.4,-955.68C323.14,-1012.55 328.79,-1189.88 404.25,-1307.44 481.84,-1428.33 531.71,-1442.6 662.75,-1501.44 772.8,-1550.86 814.57,-1516.51 928.75,-1555.44 941.75,-1559.88 955.39,-1566.07 967.43,-1572.12"/>
<polygon fill="black" stroke="black" points="965.71,-1575.17 976.2,-1576.66 968.93,-1568.96 965.71,-1575.17"/>
</g>
<!-- sat&#45;&gt;parse -->
<g id="edge100" class="edge">
<title>sat&#45;&gt;parse</title>
<path fill="none" stroke="black" d="M887.51,-1340.94C951.28,-1332.11 1113.1,-1307.78 1161,-1282.44 1176.45,-1274.27 1190.7,-1261.08 1201.63,-1249.15"/>
<polygon fill="black" stroke="black" points="1204.01,-1251.74 1207.97,-1241.91 1198.75,-1247.13 1204.01,-1251.74"/>
</g>
<!-- sat&#45;&gt;types -->
<g id="edge101" class="edge">
<title>sat&#45;&gt;types</title>
<path fill="none" stroke="black" d="M887.82,-1344.44C934.65,-1344.44 1035.22,-1344.44 1120.12,-1344.44 1120.12,-1344.44 1120.12,-1344.44 1225,-1344.44 1340.74,-1344.44 1429.59,-421.03 1445.65,-242.96"/>
<polygon fill="black" stroke="black" points="1449.12,-243.45 1446.53,-233.17 1442.15,-242.82 1449.12,-243.45"/>
</g>
<!-- sat&#45;&gt;wasm -->
<g id="edge102" class="edge">
<title>sat&#45;&gt;wasm</title>
<path fill="none" stroke="black" d="M887.76,-1351.96C901.62,-1357.11 917.94,-1365.27 928.75,-1377.44 976.61,-1431.35 994.46,-1517.5 1000.78,-1562.64"/>
<polygon fill="black" stroke="black" points="997.3,-1562.99 1002.05,-1572.47 1004.24,-1562.1 997.3,-1562.99"/>
</g>
<!-- serve&#45;&gt;core -->
<g id="edge103" class="edge">
<title>serve&#45;&gt;core</title>
<path fill="none" stroke="black" d="M200.1,-877.32C200.98,-758.84 221.88,-99.44 578.38,-99.44 578.38,-99.44 578.38,-99.44 710.38,-99.44 809.13,-99.44 834.72,-110.27 928.75,-140.44 941.8,-144.63 955.54,-150.54 967.66,-156.31"/>
<polygon fill="black" stroke="black" points="965.96,-159.37 976.48,-160.64 969.04,-153.09 965.96,-159.37"/>
</g>
<!-- serve&#45;&gt;git -->
<g id="edge104" class="edge">
<title>serve&#45;&gt;git</title>
<path fill="none" stroke="black" d="M206.21,-913.85C217.58,-946.96 243.92,-1018.17 277.25,-1072.44 320.9,-1143.51 386.96,-1216.33 423.15,-1254.09"/>
<polygon fill="black" stroke="black" points="420.32,-1256.19 429.78,-1260.95 425.35,-1251.33 420.32,-1256.19"/>
</g>
<!-- serve&#45;&gt;hash -->
<g id="edge105" class="edge">
<title>serve&#45;&gt;hash</title>
<path fill="none" stroke="black" d="M226.52,-890.4C308.5,-875.95 564.69,-839.95 756,-913.44 783.07,-923.84 810.09,-942.5 829.71,-957.93"/>
<polygon fill="black" stroke="black" points="827.28,-960.48 837.27,-964.03 831.68,-955.03 827.28,-960.48"/>
</g>
<!-- serve&#45;&gt;init -->
<g id="edge106" class="edge">
<title>serve&#45;&gt;init</title>
<path fill="none" stroke="black" d="M201.22,-876.95C204.74,-832.33 219.26,-717.13 277.25,-645.44 377.23,-521.84 585.24,-499.84 670.59,-496.11"/>
<polygon fill="black" stroke="black" points="670.65,-499.61 680.52,-495.75 670.39,-492.62 670.65,-499.61"/>
</g>
<!-- serve&#45;&gt;metamath -->
<g id="edge107" class="edge">
<title>serve&#45;&gt;metamath</title>
<path fill="none" stroke="black" d="M216.54,-877.18C248.7,-842.73 323.94,-768.65 404.25,-735.44 549.28,-675.48 602.48,-671.86 756,-704.44 773.13,-708.08 774.97,-716.37 792,-720.44 845.84,-733.34 909.5,-734.89 952.91,-733.96"/>
<polygon fill="black" stroke="black" points="952.9,-737.47 962.8,-733.7 952.71,-730.47 952.9,-737.47"/>
</g>
<!-- serve&#45;&gt;object -->
<g id="edge108" class="edge">
<title>serve&#45;&gt;object</title>
<path fill="none" stroke="black" d="M217.15,-913.69C231.95,-928.77 254.52,-949.97 277.25,-964.44 346.71,-1008.68 577.61,-1095.5 669.84,-1129.4"/>
<polygon fill="black" stroke="black" points="668.36,-1132.59 678.95,-1132.75 670.77,-1126.02 668.36,-1132.59"/>
</g>
<!-- serve&#45;&gt;proto -->
<g id="edge109" class="edge">
<title>serve&#45;&gt;proto</title>
<path fill="none" stroke="black" d="M202.25,-913.94C208.59,-965.07 229.93,-1111.97 277.25,-1224.44 283.46,-1239.21 292.68,-1254.36 301.12,-1266.78"/>
<polygon fill="black" stroke="black" points="298.17,-1268.67 306.78,-1274.85 303.9,-1264.65 298.17,-1268.67"/>
</g>
<!-- serve&#45;&gt;repl -->
<g id="edge110" class="edge">
<title>serve&#45;&gt;repl</title>
<path fill="none" stroke="black" d="M226.52,-904.56C243.49,-910.42 265.8,-918.12 284.56,-924.6"/>
<polygon fill="black" stroke="black" points="283.39,-927.9 293.98,-927.85 285.67,-921.28 283.39,-927.9"/>
</g>
<!-- serve&#45;&gt;shell -->
<g id="edge111" class="edge">
<title>serve&#45;&gt;shell</title>
<path fill="none" stroke="black" d="M202.3,-876.99C207.84,-837.61 225.88,-744.36 277.25,-688.44 307.51,-655.5 328.36,-665.7 368.25,-645.44 383.04,-637.93 399.14,-629.28 413.05,-621.64"/>
<polygon fill="black" stroke="black" points="414.35,-624.92 421.41,-617.02 410.96,-618.79 414.35,-624.92"/>
</g>
<!-- serve&#45;&gt;store -->
<g id="edge112" class="edge">
<title>serve&#45;&gt;store</title>
<path fill="none" stroke="black" d="M203.41,-913.9C211.52,-956.57 234.92,-1064.55 277.25,-1145.44 282.55,-1155.58 394.68,-1301.18 404.25,-1307.44 487.85,-1362.14 609.61,-1371.19 670.6,-1372.02"/>
<polygon fill="black" stroke="black" points="670.43,-1375.52 680.45,-1372.08 670.47,-1368.52 670.43,-1375.52"/>
</g>
<!-- sexp&#45;&gt;parse -->
<g id="edge113" class="edge">
<title>sexp&#45;&gt;parse</title>
<path fill="none" stroke="black" d="M1125.14,-627.79C1139.44,-714.68 1200.4,-1085.11 1218.14,-1192.91"/>
<polygon fill="black" stroke="black" points="1214.67,-1193.38 1219.75,-1202.68 1221.58,-1192.24 1214.67,-1193.38"/>
</g>
<!-- shell&#45;&gt;hol -->
<g id="edge114" class="edge">
<title>shell&#45;&gt;hol</title>
<path fill="none" stroke="black" d="M453.08,-583.11C460.21,-519.53 486.82,-309.86 532,-262.44 609.99,-180.6 753.88,-168 821.89,-166.88"/>
<polygon fill="black" stroke="black" points="821.8,-170.38 831.78,-166.8 821.75,-163.38 821.8,-170.38"/>
</g>
<!-- shell&#45;&gt;kernel -->
<g id="edge115" class="edge">
<title>shell&#45;&gt;kernel</title>
<path fill="none" stroke="black" d="M462.42,-619.72C484.73,-655.84 534.57,-736.54 561.06,-779.41"/>
<polygon fill="black" stroke="black" points="558.08,-781.25 566.31,-787.92 564.03,-777.57 558.08,-781.25"/>
</g>
<!-- smt&#45;&gt;sat -->
<g id="edge116" class="edge">
<title>smt&#45;&gt;sat</title>
<path fill="none" stroke="black" d="M721.38,-387.64C732.4,-406.92 748.74,-438.66 756,-468.44 797.12,-637.25 735.46,-1085.16 792,-1249.44 800.88,-1275.24 819.11,-1300.23 834.38,-1318.1"/>
<polygon fill="black" stroke="black" points="831.34,-1319.95 840.57,-1325.14 836.59,-1315.32 831.34,-1319.95"/>
</g>
<!-- smt&#45;&gt;sexp -->
<g id="edge117" class="edge">
<title>smt&#45;&gt;sexp</title>
<path fill="none" stroke="black" d="M736.75,-368.43C798.03,-367.48 951.88,-373.35 1045.25,-449.44 1086.33,-482.92 1106.07,-544.1 1114.56,-580.34"/>
<polygon fill="black" stroke="black" points="1111.04,-580.66 1116.61,-589.68 1117.88,-579.16 1111.04,-580.66"/>
</g>
<!-- smt&#45;&gt;types -->
<g id="edge118" class="edge">
<title>smt&#45;&gt;types</title>
<path fill="none" stroke="black" d="M736.48,-351.01C786.09,-317.82 898.52,-251.44 1004,-251.44 1004,-251.44 1004,-251.44 1225,-251.44 1291.23,-251.44 1366.96,-234.99 1411.01,-223.74"/>
<polygon fill="black" stroke="black" points="1411.78,-227.15 1420.57,-221.24 1410.01,-220.38 1411.78,-227.15"/>
</g>
<!-- spectec&#45;&gt;grammar -->
<g id="edge119" class="edge">
<title>spectec&#45;&gt;grammar</title>
<path fill="none" stroke="black" d="M895.18,-455.84C913.51,-459.31 936.47,-463.66 956.56,-467.46"/>
<polygon fill="black" stroke="black" points="955.73,-470.87 966.21,-469.29 957.04,-463.99 955.73,-470.87"/>
</g>
<!-- store&#45;&gt;hash -->
<g id="edge120" class="edge">
<title>store&#45;&gt;hash</title>
<path fill="none" stroke="black" d="M729.92,-1353.24C738.96,-1343.89 749.19,-1331.87 756,-1319.44 783.58,-1269.12 775.31,-1250.35 792,-1195.44 811.93,-1129.89 836.59,-1053.38 849.86,-1012.58"/>
<polygon fill="black" stroke="black" points="853.12,-1013.86 852.89,-1003.27 846.47,-1011.69 853.12,-1013.86"/>
</g>
<!-- store&#45;&gt;json -->
<g id="edge121" class="edge">
<title>store&#45;&gt;json</title>
<path fill="none" stroke="black" d="M724,-1389.84C734.33,-1404.66 748.05,-1426.43 756,-1447.44 787.18,-1529.87 736.17,-1574.25 792,-1642.44 799.6,-1651.73 810.88,-1657.84 822.04,-1661.86"/>
<polygon fill="black" stroke="black" points="820.98,-1665.2 831.57,-1664.78 823.03,-1658.5 820.98,-1665.2"/>
</g>
<!-- store&#45;&gt;sqlite -->
<g id="edge122" class="edge">
<title>store&#45;&gt;sqlite</title>
<path fill="none" stroke="black" d="M736.67,-1377.27C760.32,-1382.51 795.33,-1390.26 821.91,-1396.15"/>
<polygon fill="black" stroke="black" points="821.09,-1399.55 831.61,-1398.3 822.61,-1392.72 821.09,-1399.55"/>
</g>
<!-- wasm&#45;build&#45;guest -->
<g id="node48" class="node">
<title>wasm&#45;build&#45;guest</title>
<polygon fill="none" stroke="black" points="928.75,-1633.44 792,-1633.44 792,-1597.44 928.75,-1597.44 928.75,-1633.44"/>
<text text-anchor="middle" x="860.38" y="-1611.14" font-family="sans-serif" font-size="14.00">wasm&#45;build&#45;guest</text>
</g>
<!-- wasm&#45;build&#45;guest&#45;&gt;wasm -->
<g id="edge123" class="edge">
<title>wasm&#45;build&#45;guest&#45;&gt;wasm</title>
<path fill="none" stroke="black" d="M928.93,-1604.55C941.75,-1602.48 954.74,-1600.39 966.23,-1598.53"/>
<polygon fill="black" stroke="black" points="966.77,-1601.99 976.09,-1596.94 965.66,-1595.08 966.77,-1601.99"/>
</g>
<!-- wasm&#45;spec -->
<g id="node49" class="node">
<title>wasm&#45;spec</title>
<polygon fill="none" stroke="black" points="756,-1492.44 662.75,-1492.44 662.75,-1456.44 756,-1456.44 756,-1492.44"/>
<text text-anchor="middle" x="709.38" y="-1470.14" font-family="sans-serif" font-size="14.00">wasm&#45;spec</text>
</g>
<!-- wasm&#45;spec&#45;&gt;hash -->
<g id="edge124" class="edge">
<title>wasm&#45;spec&#45;&gt;hash</title>
<path fill="none" stroke="black" d="M724.05,-1456.06C734.39,-1441.25 748.13,-1419.49 756,-1398.44 788.11,-1312.63 770.08,-1284.41 792,-1195.44 808.35,-1129.09 834.29,-1053.18 848.75,-1012.62"/>
<polygon fill="black" stroke="black" points="851.99,-1013.94 852.08,-1003.35 845.4,-1011.58 851.99,-1013.94"/>
</g>
<!-- wasm&#45;spec&#45;&gt;wasm -->
<g id="edge125" class="edge">
<title>wasm&#45;spec&#45;&gt;wasm</title>
<path fill="none" stroke="black" d="M710.63,-1492.92C712.37,-1537.1 723.64,-1648.74 792,-1696.44 841.84,-1731.22 874.62,-1724.09 928.75,-1696.44 959.35,-1680.81 980.39,-1646.29 992.28,-1621.29"/>
<polygon fill="black" stroke="black" points="995.42,-1622.85 996.34,-1612.3 989.04,-1619.97 995.42,-1622.85"/>
</g>
<!-- wasm&#45;store&#45;&gt;json -->
<g id="edge126" class="edge">
<title>wasm&#45;store&#45;&gt;json</title>
<path fill="none" stroke="black" d="M627.07,-1687.76C681.79,-1683.45 771.37,-1676.38 821.8,-1672.41"/>
<polygon fill="black" stroke="black" points="821.94,-1675.91 831.63,-1671.63 821.39,-1668.93 821.94,-1675.91"/>
</g>
<!-- wasm&#45;store&#45;&gt;store -->
<g id="edge127" class="edge">
<title>wasm&#45;store&#45;&gt;store</title>
<path fill="none" stroke="black" d="M589.26,-1673.04C599.29,-1651.8 615.64,-1615.66 626.75,-1583.44 647.14,-1524.34 638.42,-1505.04 662.75,-1447.44 669.83,-1430.67 680.11,-1413.18 689.12,-1399.2"/>
<polygon fill="black" stroke="black" points="691.97,-1401.25 694.56,-1390.97 686.13,-1397.39 691.97,-1401.25"/>
</g>
<!-- wasm&#45;store&#45;&gt;wasm -->
<g id="edge128" class="edge">
<title>wasm&#45;store&#45;&gt;wasm</title>
<path fill="none" stroke="black" d="M622.6,-1709.89C691.71,-1737.04 831.04,-1778.78 928.75,-1722.44 966.17,-1700.86 986.67,-1652.78 996.48,-1621.52"/>
<polygon fill="black" stroke="black" points="999.73,-1622.89 999.2,-1612.3 993.01,-1620.91 999.73,-1622.89"/>
</g>
<!-- web&#45;kernel -->
<g id="node51" class="node">
<title>web&#45;kernel</title>
<polygon fill="none" stroke="black" points="496,-825.44 404.25,-825.44 404.25,-789.44 496,-789.44 496,-825.44"/>
<text text-anchor="middle" x="450.12" y="-803.14" font-family="sans-serif" font-size="14.00">web&#45;kernel</text>
</g>
<!-- web&#45;kernel&#45;&gt;kernel -->
<g id="edge129" class="edge">
<title>web&#45;kernel&#45;&gt;kernel</title>
<path fill="none" stroke="black" d="M496.35,-807.44C510.27,-807.44 525.48,-807.44 538.98,-807.44"/>
<polygon fill="black" stroke="black" points="538.81,-810.94 548.81,-807.44 538.81,-803.94 538.81,-810.94"/>
</g>
</g>
</svg>
