<?xml version="1.0" encoding="UTF-8" standalone="no"?>
<!DOCTYPE svg PUBLIC "-//W3C//DTD SVG 1.1//EN"
 "http://www.w3.org/Graphics/SVG/1.1/DTD/svg11.dtd">
<!-- Generated by graphviz version 12.2.1 (0)
 -->
<!-- Title: deps Pages: 1 -->
<svg width="1454pt" height="2181pt"
 viewBox="0.00 0.00 1453.50 2180.60" xmlns="http://www.w3.org/2000/svg" xmlns:xlink="http://www.w3.org/1999/xlink">
<g id="graph0" class="graph" transform="scale(1 1) rotate(0) translate(4 2176.6)">
<title>deps</title>
<polygon fill="white" stroke="none" points="-4,4 -4,-2176.6 1449.5,-2176.6 1449.5,4 -4,4"/>
<!-- covalence -->
<g id="node1" class="node">
<title>covalence</title>
<polygon fill="none" stroke="black" points="102.62,-1212.24 18.38,-1212.24 18.38,-1176.24 102.62,-1176.24 102.62,-1212.24"/>
<text text-anchor="middle" x="60.5" y="-1189.94" font-family="sans-serif" font-size="14.00">covalence</text>
</g>
<!-- client -->
<g id="node5" class="node">
<title>client</title>
<polygon fill="none" stroke="black" points="350.12,-1212.24 296.12,-1212.24 296.12,-1176.24 350.12,-1176.24 350.12,-1212.24"/>
<text text-anchor="middle" x="323.12" y="-1189.94" font-family="sans-serif" font-size="14.00">client</text>
</g>
<!-- covalence&#45;&gt;client -->
<g id="edge1" class="edge">
<title>covalence&#45;&gt;client</title>
<path fill="none" stroke="black" d="M103.08,-1194.24C153.03,-1194.24 236.1,-1194.24 284.31,-1194.24"/>
<polygon fill="black" stroke="black" points="284.26,-1197.74 294.26,-1194.24 284.26,-1190.74 284.26,-1197.74"/>
</g>
<!-- fuse -->
<g id="node11" class="node">
<title>fuse</title>
<polygon fill="none" stroke="black" points="582.38,-1418.24 528.38,-1418.24 528.38,-1382.24 582.38,-1382.24 582.38,-1418.24"/>
<text text-anchor="middle" x="555.38" y="-1395.94" font-family="sans-serif" font-size="14.00">fuse</text>
</g>
<!-- covalence&#45;&gt;fuse -->
<g id="edge2" class="edge">
<title>covalence&#45;&gt;fuse</title>
<path fill="none" stroke="black" d="M103.1,-1211.63C197.67,-1251.16 427.57,-1347.24 517.47,-1384.82"/>
<polygon fill="black" stroke="black" points="516,-1388 526.58,-1388.62 518.7,-1381.54 516,-1388"/>
</g>
<!-- git -->
<g id="node12" class="node">
<title>git</title>
<polygon fill="none" stroke="black" points="465.5,-1537.24 411.5,-1537.24 411.5,-1501.24 465.5,-1501.24 465.5,-1537.24"/>
<text text-anchor="middle" x="438.5" y="-1514.94" font-family="sans-serif" font-size="14.00">git</text>
</g>
<!-- covalence&#45;&gt;git -->
<g id="edge3" class="edge">
<title>covalence&#45;&gt;git</title>
<path fill="none" stroke="black" d="M67.35,-1212.51C79.1,-1246.47 108.64,-1319.69 157,-1362.24 233.46,-1429.53 284.53,-1392.34 369,-1449.24 386.63,-1461.12 403.39,-1478.1 415.91,-1492.36"/>
<polygon fill="black" stroke="black" points="412.99,-1494.33 422.15,-1499.66 418.31,-1489.79 412.99,-1494.33"/>
</g>
<!-- hash -->
<g id="node15" class="node">
<title>hash</title>
<polygon fill="none" stroke="black" points="863.38,-1426.24 809.38,-1426.24 809.38,-1390.24 863.38,-1390.24 863.38,-1426.24"/>
<text text-anchor="middle" x="836.38" y="-1403.94" font-family="sans-serif" font-size="14.00">hash</text>
</g>
<!-- covalence&#45;&gt;hash -->
<g id="edge4" class="edge">
<title>covalence&#45;&gt;hash</title>
<path fill="none" stroke="black" d="M75.59,-1175.97C92.58,-1155.26 123.13,-1122.06 157,-1104.24 282.51,-1038.21 339.33,-1003.11 472,-1053.24 564.42,-1088.16 554.77,-1148.2 638.75,-1200.24 676.79,-1223.82 697.94,-1209.22 732,-1238.24 738.19,-1243.51 791.18,-1332.97 818.79,-1379.94"/>
<polygon fill="black" stroke="black" points="815.74,-1381.66 823.82,-1388.51 821.78,-1378.11 815.74,-1381.66"/>
</g>
<!-- hol -->
<g id="node17" class="node">
<title>hol</title>
<polygon fill="none" stroke="black" points="863.38,-428.24 809.38,-428.24 809.38,-392.24 863.38,-392.24 863.38,-428.24"/>
<text text-anchor="middle" x="836.38" y="-405.94" font-family="sans-serif" font-size="14.00">hol</text>
</g>
<!-- covalence&#45;&gt;hol -->
<g id="edge5" class="edge">
<title>covalence&#45;&gt;hol</title>
<path fill="none" stroke="black" d="M63.79,-1176C78.52,-1062.35 164.5,-456.24 322.12,-456.24 322.12,-456.24 322.12,-456.24 439.5,-456.24 571.95,-456.24 727.67,-430.52 797.8,-417.55"/>
<polygon fill="black" stroke="black" points="798.42,-420.99 807.6,-415.71 797.13,-414.11 798.42,-420.99"/>
</g>
<!-- lsp -->
<g id="node30" class="node">
<title>lsp</title>
<polygon fill="none" stroke="black" points="863.38,-1284.24 809.38,-1284.24 809.38,-1248.24 863.38,-1248.24 863.38,-1284.24"/>
<text text-anchor="middle" x="836.38" y="-1261.94" font-family="sans-serif" font-size="14.00">lsp</text>
</g>
<!-- covalence&#45;&gt;lsp -->
<g id="edge6" class="edge">
<title>covalence&#45;&gt;lsp</title>
<path fill="none" stroke="black" d="M64.22,-1175.94C71.28,-1135.78 94.19,-1040.17 157,-998.24 321.96,-888.13 447.19,-854.22 602.75,-977.24 657.2,-1020.31 592.37,-1077.58 638.75,-1129.24 668.12,-1161.96 698.8,-1133.42 732,-1162.24 758.12,-1184.92 743.52,-1206.81 768,-1231.24 776.7,-1239.92 787.99,-1246.92 798.84,-1252.31"/>
<polygon fill="black" stroke="black" points="797.08,-1255.36 807.63,-1256.36 800.01,-1249 797.08,-1255.36"/>
</g>
<!-- object -->
<g id="node33" class="node">
<title>object</title>
<polygon fill="none" stroke="black" points="714,-1326.24 656.75,-1326.24 656.75,-1290.24 714,-1290.24 714,-1326.24"/>
<text text-anchor="middle" x="685.38" y="-1303.94" font-family="sans-serif" font-size="14.00">object</text>
</g>
<!-- covalence&#45;&gt;object -->
<g id="edge7" class="edge">
<title>covalence&#45;&gt;object</title>
<path fill="none" stroke="black" d="M65.14,-1176C73.65,-1138.79 98.73,-1054.73 157,-1020.24 216.83,-984.83 384.83,-1004.58 472,-1053.24 569.39,-1107.61 640.93,-1225.58 670.03,-1279.86"/>
<polygon fill="black" stroke="black" points="666.82,-1281.28 674.57,-1288.49 673.01,-1278.01 666.82,-1281.28"/>
</g>
<!-- opentheory -->
<g id="node34" class="node">
<title>opentheory</title>
<polygon fill="none" stroke="black" points="368.62,-413.24 277.62,-413.24 277.62,-377.24 368.62,-377.24 368.62,-413.24"/>
<text text-anchor="middle" x="323.12" y="-390.94" font-family="sans-serif" font-size="14.00">opentheory</text>
</g>
<!-- covalence&#45;&gt;opentheory -->
<g id="edge8" class="edge">
<title>covalence&#45;&gt;opentheory</title>
<path fill="none" stroke="black" d="M61.2,-1175.76C59.87,-1071.44 58.47,-556.9 157,-442.24 183.76,-411.1 229.53,-399.87 266.11,-396.13"/>
<polygon fill="black" stroke="black" points="265.95,-399.66 275.62,-395.33 265.36,-392.68 265.95,-399.66"/>
</g>
<!-- proto -->
<g id="node38" class="node">
<title>proto</title>
<polygon fill="none" stroke="black" points="350.12,-1494.24 296.12,-1494.24 296.12,-1458.24 350.12,-1458.24 350.12,-1494.24"/>
<text text-anchor="middle" x="323.12" y="-1471.94" font-family="sans-serif" font-size="14.00">proto</text>
</g>
<!-- covalence&#45;&gt;proto -->
<g id="edge9" class="edge">
<title>covalence&#45;&gt;proto</title>
<path fill="none" stroke="black" d="M65.05,-1212.74C73.72,-1253.13 99.57,-1350.08 157,-1406.24 175.9,-1424.73 242.39,-1449.49 285.01,-1464.07"/>
<polygon fill="black" stroke="black" points="283.79,-1467.35 294.38,-1467.24 286.03,-1460.72 283.79,-1467.35"/>
</g>
<!-- repl -->
<g id="node44" class="node">
<title>repl</title>
<polygon fill="none" stroke="black" points="350.12,-1586.24 296.12,-1586.24 296.12,-1550.24 350.12,-1550.24 350.12,-1586.24"/>
<text text-anchor="middle" x="323.12" y="-1563.94" font-family="sans-serif" font-size="14.00">repl</text>
</g>
<!-- covalence&#45;&gt;repl -->
<g id="edge10" class="edge">
<title>covalence&#45;&gt;repl</title>
<path fill="none" stroke="black" d="M61.89,-1212.59C63.98,-1264.97 77.01,-1416.99 157,-1503.24 190.79,-1539.68 247.56,-1556.01 284.94,-1563.1"/>
<polygon fill="black" stroke="black" points="283.92,-1566.47 294.37,-1564.75 285.13,-1559.58 283.92,-1566.47"/>
</g>
<!-- serve -->
<g id="node47" class="node">
<title>serve</title>
<polygon fill="none" stroke="black" points="226.12,-1353.24 172.12,-1353.24 172.12,-1317.24 226.12,-1317.24 226.12,-1353.24"/>
<text text-anchor="middle" x="199.12" y="-1330.94" font-family="sans-serif" font-size="14.00">serve</text>
</g>
<!-- covalence&#45;&gt;serve -->
<g id="edge11" class="edge">
<title>covalence&#45;&gt;serve</title>
<path fill="none" stroke="black" d="M79.36,-1212.68C103.09,-1237.17 145.17,-1280.59 172.34,-1308.63"/>
<polygon fill="black" stroke="black" points="169.73,-1310.97 179.21,-1315.72 174.76,-1306.1 169.73,-1310.97"/>
</g>
<!-- shell -->
<g id="node49" class="node">
<title>shell</title>
<polygon fill="none" stroke="black" points="465.5,-1098.24 411.5,-1098.24 411.5,-1062.24 465.5,-1062.24 465.5,-1098.24"/>
<text text-anchor="middle" x="438.5" y="-1075.94" font-family="sans-serif" font-size="14.00">shell</text>
</g>
<!-- covalence&#45;&gt;shell -->
<g id="edge12" class="edge">
<title>covalence&#45;&gt;shell</title>
<path fill="none" stroke="black" d="M93.16,-1175.85C134.16,-1152.99 208.52,-1114.74 277.25,-1096.24 318.25,-1085.21 366.99,-1081.63 399.87,-1080.55"/>
<polygon fill="black" stroke="black" points="399.8,-1084.06 409.71,-1080.3 399.62,-1077.06 399.8,-1084.06"/>
</g>
<!-- store -->
<g id="node53" class="node">
<title>store</title>
<polygon fill="none" stroke="black" points="712.38,-1697.24 658.38,-1697.24 658.38,-1661.24 712.38,-1661.24 712.38,-1697.24"/>
<text text-anchor="middle" x="685.38" y="-1674.94" font-family="sans-serif" font-size="14.00">store</text>
</g>
<!-- covalence&#45;&gt;store -->
<g id="edge13" class="edge">
<title>covalence&#45;&gt;store</title>
<path fill="none" stroke="black" d="M61.24,-1212.63C60.91,-1310.53 72.77,-1766.24 322.12,-1766.24 322.12,-1766.24 322.12,-1766.24 439.5,-1766.24 515,-1766.24 532.3,-1746.4 602.75,-1719.24 607.52,-1717.4 628.41,-1707.16 647.86,-1697.5"/>
<polygon fill="black" stroke="black" points="649.35,-1700.67 656.75,-1693.08 646.24,-1694.4 649.35,-1700.67"/>
</g>
<!-- wasm -->
<g id="node56" class="node">
<title>wasm</title>
<polygon fill="none" stroke="black" points="1004.75,-2009.24 950.5,-2009.24 950.5,-1973.24 1004.75,-1973.24 1004.75,-2009.24"/>
<text text-anchor="middle" x="977.62" y="-1986.94" font-family="sans-serif" font-size="14.00">wasm</text>
</g>
<!-- covalence&#45;&gt;wasm -->
<g id="edge14" class="edge">
<title>covalence&#45;&gt;wasm</title>
<path fill="none" stroke="black" d="M64.05,-1212.7C76.33,-1300.81 129.88,-1676.32 157,-1721.24 284.41,-1932.31 392.56,-1983.1 638.75,-1996.24 756.8,-2002.55 786.6,-2000.35 904.75,-1996.24 915.77,-1995.86 927.72,-1995.15 938.65,-1994.38"/>
<polygon fill="black" stroke="black" points="938.8,-1997.88 948.51,-1993.65 938.28,-1990.9 938.8,-1997.88"/>
</g>
<!-- acset -->
<g id="node2" class="node">
<title>acset</title>
<polygon fill="none" stroke="black" points="863.38,-1192.24 809.38,-1192.24 809.38,-1156.24 863.38,-1156.24 863.38,-1192.24"/>
<text text-anchor="middle" x="836.38" y="-1169.94" font-family="sans-serif" font-size="14.00">acset</text>
</g>
<!-- alethe -->
<g id="node3" class="node">
<title>alethe</title>
<polygon fill="none" stroke="black" points="583.62,-816.24 527.12,-816.24 527.12,-780.24 583.62,-780.24 583.62,-816.24"/>
<text text-anchor="middle" x="555.38" y="-793.94" font-family="sans-serif" font-size="14.00">alethe</text>
</g>
<!-- core -->
<g id="node6" class="node">
<title>core</title>
<polygon fill="#ffd6d6" stroke="black" points="1004.62,-374.24 950.62,-374.24 950.62,-338.24 1004.62,-338.24 1004.62,-374.24"/>
<text text-anchor="middle" x="977.62" y="-351.94" font-family="sans-serif" font-size="14.00">core</text>
</g>
<!-- alethe&#45;&gt;core -->
<g id="edge15" class="edge">
<title>alethe&#45;&gt;core</title>
<path fill="none" stroke="black" d="M583.75,-781.09C590.23,-776.57 596.93,-771.48 602.75,-766.24 621.02,-749.79 618.17,-737.69 638.75,-724.24 651.68,-715.79 894.1,-654.44 904.75,-643.24 940.24,-605.93 964.23,-450.99 972.96,-385.58"/>
<polygon fill="black" stroke="black" points="976.39,-386.33 974.22,-375.96 969.45,-385.42 976.39,-386.33"/>
</g>
<!-- hol&#45;eval -->
<g id="node19" class="node">
<title>hol&#45;eval</title>
<polygon fill="none" stroke="black" points="871.38,-244.24 801.38,-244.24 801.38,-208.24 871.38,-208.24 871.38,-244.24"/>
<text text-anchor="middle" x="836.38" y="-221.94" font-family="sans-serif" font-size="14.00">hol&#45;eval</text>
</g>
<!-- alethe&#45;&gt;hol&#45;eval -->
<g id="edge16" class="edge">
<title>alethe&#45;&gt;hol&#45;eval</title>
<path fill="none" stroke="black" d="M563.01,-779.85C576.37,-743.18 607.89,-658.54 638.75,-589.24 676.54,-504.41 690.74,-485.45 732,-402.24 748.07,-369.83 750.07,-360.66 768,-329.24 783.02,-302.93 802.07,-274.17 816.08,-253.74"/>
<polygon fill="black" stroke="black" points="818.85,-255.89 821.65,-245.67 813.09,-251.91 818.85,-255.89"/>
</g>
<!-- init -->
<g id="node21" class="node">
<title>init</title>
<polygon fill="none" stroke="black" points="712.38,-634.24 658.38,-634.24 658.38,-598.24 712.38,-598.24 712.38,-634.24"/>
<text text-anchor="middle" x="685.38" y="-611.94" font-family="sans-serif" font-size="14.00">init</text>
</g>
<!-- alethe&#45;&gt;init -->
<g id="edge17" class="edge">
<title>alethe&#45;&gt;init</title>
<path fill="none" stroke="black" d="M584,-783.63C590.92,-778.87 597.78,-773.03 602.75,-766.24 635.12,-721.99 606.55,-692.62 638.75,-648.24 641.71,-644.17 645.35,-640.43 649.27,-637.05"/>
<polygon fill="black" stroke="black" points="651.13,-640.04 656.95,-631.19 646.88,-634.48 651.13,-640.04"/>
</g>
<!-- sexp -->
<g id="node48" class="node">
<title>sexp</title>
<polygon fill="none" stroke="black" points="1004.62,-1035.24 950.62,-1035.24 950.62,-999.24 1004.62,-999.24 1004.62,-1035.24"/>
<text text-anchor="middle" x="977.62" y="-1012.94" font-family="sans-serif" font-size="14.00">sexp</text>
</g>
<!-- alethe&#45;&gt;sexp -->
<g id="edge18" class="edge">
<title>alethe&#45;&gt;sexp</title>
<path fill="none" stroke="black" d="M583.9,-806.39C627.44,-819.72 709.58,-846.74 732,-867.24 758.4,-891.39 740.93,-915.85 768,-939.24 816.42,-981.07 845.19,-960.86 904.75,-984.24 916.37,-988.81 928.81,-994.29 940.01,-999.47"/>
<polygon fill="black" stroke="black" points="938.4,-1002.58 948.94,-1003.65 941.37,-996.24 938.4,-1002.58"/>
</g>
<!-- smt -->
<g id="node50" class="node">
<title>smt</title>
<polygon fill="none" stroke="black" points="712.38,-815.24 658.38,-815.24 658.38,-779.24 712.38,-779.24 712.38,-815.24"/>
<text text-anchor="middle" x="685.38" y="-792.94" font-family="sans-serif" font-size="14.00">smt</text>
</g>
<!-- alethe&#45;&gt;smt -->
<g id="edge19" class="edge">
<title>alethe&#45;&gt;smt</title>
<path fill="none" stroke="black" d="M583.83,-798.03C602.26,-797.88 626.75,-797.69 646.95,-797.54"/>
<polygon fill="black" stroke="black" points="646.79,-801.04 656.76,-797.46 646.73,-794.04 646.79,-801.04"/>
</g>
<!-- types -->
<g id="node55" class="node">
<title>types</title>
<polygon fill="#ffd6d6" stroke="black" points="1445.5,-412.24 1391.5,-412.24 1391.5,-376.24 1445.5,-376.24 1445.5,-412.24"/>
<text text-anchor="middle" x="1418.5" y="-389.94" font-family="sans-serif" font-size="14.00">types</text>
</g>
<!-- alethe&#45;&gt;types -->
<g id="edge20" class="edge">
<title>alethe&#45;&gt;types</title>
<path fill="none" stroke="black" d="M583.89,-787.19C650.26,-761.56 824.92,-700.24 976.62,-700.24 976.62,-700.24 976.62,-700.24 1194.25,-700.24 1330.33,-700.24 1392.28,-500.31 1411.04,-423.66"/>
<polygon fill="black" stroke="black" points="1414.44,-424.48 1413.33,-413.94 1407.63,-422.87 1414.44,-424.48"/>
</g>
<!-- arrow -->
<g id="node4" class="node">
<title>arrow</title>
<polygon fill="none" stroke="black" points="582.38,-1662.24 528.38,-1662.24 528.38,-1626.24 582.38,-1626.24 582.38,-1662.24"/>
<text text-anchor="middle" x="555.38" y="-1639.94" font-family="sans-serif" font-size="14.00">arrow</text>
</g>
<!-- client&#45;&gt;hash -->
<g id="edge21" class="edge">
<title>client&#45;&gt;hash</title>
<path fill="none" stroke="black" d="M350.45,-1191.23C401.05,-1186.44 514.71,-1180.6 602.75,-1212.24 621.32,-1218.92 621.71,-1228.29 638.75,-1238.24 678.16,-1261.27 695.94,-1253.27 732,-1281.24 768.21,-1309.34 799.81,-1352.41 818.24,-1380.45"/>
<polygon fill="black" stroke="black" points="815.25,-1382.27 823.6,-1388.78 821.13,-1378.48 815.25,-1382.27"/>
</g>
<!-- client&#45;&gt;shell -->
<g id="edge22" class="edge">
<title>client&#45;&gt;shell</title>
<path fill="none" stroke="black" d="M350.43,-1177.66C356.84,-1173.05 363.44,-1167.78 369,-1162.24 388.41,-1142.92 387.18,-1133.03 405,-1112.24 406.59,-1110.39 408.27,-1108.51 410,-1106.65"/>
<polygon fill="black" stroke="black" points="412.22,-1109.39 416.65,-1099.77 407.18,-1104.53 412.22,-1109.39"/>
</g>
<!-- client&#45;&gt;store -->
<g id="edge23" class="edge">
<title>client&#45;&gt;store</title>
<path fill="none" stroke="black" d="M337.81,-1212.66C392.81,-1286.71 597.99,-1562.95 663.87,-1651.64"/>
<polygon fill="black" stroke="black" points="661,-1653.65 669.78,-1659.59 666.62,-1649.47 661,-1653.65"/>
</g>
<!-- pure -->
<g id="node39" class="node">
<title>pure</title>
<polygon fill="#ffd6d6" stroke="black" points="1220.25,-328.24 1166.25,-328.24 1166.25,-292.24 1220.25,-292.24 1220.25,-328.24"/>
<text text-anchor="middle" x="1193.25" y="-305.94" font-family="sans-serif" font-size="14.00">pure</text>
</g>
<!-- core&#45;&gt;pure -->
<g id="edge24" class="edge">
<title>core&#45;&gt;pure</title>
<path fill="none" stroke="black" d="M1005.09,-355.21C1035.71,-353.5 1087.4,-349 1130.25,-337.24 1138.67,-334.93 1147.44,-331.68 1155.63,-328.24"/>
<polygon fill="black" stroke="black" points="1156.88,-331.51 1164.62,-324.27 1154.06,-325.11 1156.88,-331.51"/>
</g>
<!-- pure&#45;eval -->
<g id="node40" class="node">
<title>pure&#45;eval</title>
<polygon fill="#ffd6d6" stroke="black" points="1130.25,-328.24 1050.5,-328.24 1050.5,-292.24 1130.25,-292.24 1130.25,-328.24"/>
<text text-anchor="middle" x="1090.38" y="-305.94" font-family="sans-serif" font-size="14.00">pure&#45;eval</text>
</g>
<!-- core&#45;&gt;pure&#45;eval -->
<g id="edge25" class="edge">
<title>core&#45;&gt;pure&#45;eval</title>
<path fill="none" stroke="black" d="M1004.87,-345.34C1015.36,-340.99 1027.8,-335.82 1039.86,-330.81"/>
<polygon fill="black" stroke="black" points="1041.01,-334.12 1048.91,-327.05 1038.33,-327.66 1041.01,-334.12"/>
</g>
<!-- core&#45;&gt;types -->
<g id="edge26" class="edge">
<title>core&#45;&gt;types</title>
<path fill="none" stroke="black" d="M1005.09,-358.53C1079.78,-365 1292.44,-383.41 1379.57,-390.96"/>
<polygon fill="black" stroke="black" points="1379.23,-394.44 1389.49,-391.82 1379.83,-387.47 1379.23,-394.44"/>
</g>
<!-- core&#45;test&#45;guest -->
<g id="node7" class="node">
<title>core&#45;test&#45;guest</title>
<polygon fill="none" stroke="black" points="121,-1708.24 0,-1708.24 0,-1672.24 121,-1672.24 121,-1708.24"/>
<text text-anchor="middle" x="60.5" y="-1685.94" font-family="sans-serif" font-size="14.00">core&#45;test&#45;guest</text>
</g>
<!-- crypto&#45;sig -->
<g id="node8" class="node">
<title>crypto&#45;sig</title>
<polygon fill="none" stroke="black" points="241.25,-2112.24 157,-2112.24 157,-2076.24 241.25,-2076.24 241.25,-2112.24"/>
<text text-anchor="middle" x="199.12" y="-2089.94" font-family="sans-serif" font-size="14.00">crypto&#45;sig</text>
</g>
<!-- egglog -->
<g id="node9" class="node">
<title>egglog</title>
<polygon fill="none" stroke="black" points="866.88,-802.24 805.88,-802.24 805.88,-766.24 866.88,-766.24 866.88,-802.24"/>
<text text-anchor="middle" x="836.38" y="-779.94" font-family="sans-serif" font-size="14.00">egglog</text>
</g>
<!-- egglog&#45;&gt;sexp -->
<g id="edge27" class="edge">
<title>egglog&#45;&gt;sexp</title>
<path fill="none" stroke="black" d="M867.08,-792.62C880.15,-797.62 894.76,-805.2 904.75,-816.24 949.42,-865.62 966.8,-944.71 973.18,-987.47"/>
<polygon fill="black" stroke="black" points="969.7,-987.83 974.53,-997.26 976.63,-986.88 969.7,-987.83"/>
</g>
<!-- egglog&#45;&gt;types -->
<g id="edge28" class="edge">
<title>egglog&#45;&gt;types</title>
<path fill="none" stroke="black" d="M867.24,-783.46C914.42,-782.3 1009.08,-780.24 1089.38,-780.24 1089.38,-780.24 1089.38,-780.24 1194.25,-780.24 1266.99,-780.24 1304.08,-803.69 1355.5,-752.24 1401.64,-706.08 1413.7,-500.64 1416.62,-423.57"/>
<polygon fill="black" stroke="black" points="1420.11,-423.98 1416.97,-413.86 1413.12,-423.73 1420.11,-423.98"/>
</g>
<!-- forsp -->
<g id="node10" class="node">
<title>forsp</title>
<polygon fill="none" stroke="black" points="712.38,-1380.24 658.38,-1380.24 658.38,-1344.24 712.38,-1344.24 712.38,-1380.24"/>
<text text-anchor="middle" x="685.38" y="-1357.94" font-family="sans-serif" font-size="14.00">forsp</text>
</g>
<!-- forsp&#45;&gt;hash -->
<g id="edge29" class="edge">
<title>forsp&#45;&gt;hash</title>
<path fill="none" stroke="black" d="M712.67,-1370.36C736.43,-1377.7 771.65,-1388.57 798.27,-1396.79"/>
<polygon fill="black" stroke="black" points="797.06,-1400.08 807.65,-1399.68 799.12,-1393.39 797.06,-1400.08"/>
</g>
<!-- forsp&#45;&gt;sexp -->
<g id="edge30" class="edge">
<title>forsp&#45;&gt;sexp</title>
<path fill="none" stroke="black" d="M712.78,-1361.73C758.63,-1359.37 852.99,-1347.72 904.75,-1293.24 938.71,-1257.49 963.33,-1110.32 972.59,-1046.73"/>
<polygon fill="black" stroke="black" points="976.03,-1047.42 973.98,-1037.03 969.1,-1046.43 976.03,-1047.42"/>
</g>
<!-- fuse&#45;&gt;hash -->
<g id="edge31" class="edge">
<title>fuse&#45;&gt;hash</title>
<path fill="none" stroke="black" d="M582.87,-1401C632.65,-1402.43 740.28,-1405.52 797.62,-1407.16"/>
<polygon fill="black" stroke="black" points="797.44,-1410.66 807.54,-1407.44 797.64,-1403.66 797.44,-1410.66"/>
</g>
<!-- fuse&#45;&gt;object -->
<g id="edge32" class="edge">
<title>fuse&#45;&gt;object</title>
<path fill="none" stroke="black" d="M582.83,-1382.92C589.47,-1378.32 596.48,-1373.24 602.75,-1368.24 619.72,-1354.71 621.32,-1348.17 638.75,-1335.24 641.31,-1333.34 644.02,-1331.46 646.79,-1329.63"/>
<polygon fill="black" stroke="black" points="648.41,-1332.74 655,-1324.44 644.68,-1326.82 648.41,-1332.74"/>
</g>
<!-- fuse&#45;&gt;store -->
<g id="edge33" class="edge">
<title>fuse&#45;&gt;store</title>
<path fill="none" stroke="black" d="M564.77,-1418.55C586.56,-1466.04 645.03,-1593.48 671.29,-1650.72"/>
<polygon fill="black" stroke="black" points="667.96,-1651.86 675.31,-1659.49 674.33,-1648.95 667.96,-1651.86"/>
</g>
<!-- git&#45;&gt;hash -->
<g id="edge34" class="edge">
<title>git&#45;&gt;hash</title>
<path fill="none" stroke="black" d="M465.94,-1516.31C518.01,-1510.02 637.01,-1493.05 732,-1460.24 755.18,-1452.24 779.76,-1440.04 799.13,-1429.48"/>
<polygon fill="black" stroke="black" points="800.67,-1432.62 807.71,-1424.71 797.27,-1426.51 800.67,-1432.62"/>
</g>
<!-- git&#45;&gt;object -->
<g id="edge35" class="edge">
<title>git&#45;&gt;object</title>
<path fill="none" stroke="black" d="M458.29,-1500.79C463.25,-1495.19 468.26,-1488.77 472,-1482.24 497.34,-1437.96 472.54,-1409.93 508,-1373.24 527.39,-1353.18 599.58,-1330.92 645.37,-1318.34"/>
<polygon fill="black" stroke="black" points="646.2,-1321.75 654.94,-1315.76 644.37,-1314.99 646.2,-1321.75"/>
</g>
<!-- sqlite -->
<g id="node52" class="node">
<title>sqlite</title>
<polygon fill="none" stroke="black" points="863.38,-1697.24 809.38,-1697.24 809.38,-1661.24 863.38,-1661.24 863.38,-1697.24"/>
<text text-anchor="middle" x="836.38" y="-1674.94" font-family="sans-serif" font-size="14.00">sqlite</text>
</g>
<!-- git&#45;&gt;sqlite -->
<g id="edge36" class="edge">
<title>git&#45;&gt;sqlite</title>
<path fill="none" stroke="black" d="M465.8,-1527.22C498.3,-1537.28 555.15,-1555.54 602.75,-1574.24 673.19,-1601.93 753.19,-1639.41 798.64,-1661.3"/>
<polygon fill="black" stroke="black" points="796.99,-1664.39 807.52,-1665.59 800.03,-1658.08 796.99,-1664.39"/>
</g>
<!-- git&#45;&gt;store -->
<g id="edge37" class="edge">
<title>git&#45;&gt;store</title>
<path fill="none" stroke="black" d="M459.48,-1537.52C472.64,-1548.97 490.59,-1563.54 508,-1574.24 547.39,-1598.46 563.03,-1593.55 602.75,-1617.24 620.72,-1627.96 639.41,-1641.92 654.36,-1653.87"/>
<polygon fill="black" stroke="black" points="652,-1656.47 661.97,-1660.06 656.41,-1651.03 652,-1656.47"/>
</g>
<!-- grammar -->
<g id="node13" class="node">
<title>grammar</title>
<polygon fill="none" stroke="black" points="1014.5,-615.24 940.75,-615.24 940.75,-579.24 1014.5,-579.24 1014.5,-615.24"/>
<text text-anchor="middle" x="977.62" y="-592.94" font-family="sans-serif" font-size="14.00">grammar</text>
</g>
<!-- graph -->
<g id="node14" class="node">
<title>graph</title>
<polygon fill="none" stroke="black" points="465.5,-1906.24 411.5,-1906.24 411.5,-1870.24 465.5,-1870.24 465.5,-1906.24"/>
<text text-anchor="middle" x="438.5" y="-1883.94" font-family="sans-serif" font-size="14.00">graph</text>
</g>
<!-- graph&#45;&gt;hash -->
<g id="edge38" class="edge">
<title>graph&#45;&gt;hash</title>
<path fill="none" stroke="black" d="M465.92,-1878.67C506.07,-1863.84 580.14,-1835.25 602.75,-1818.24 622.94,-1803.05 620.39,-1791.61 638.75,-1774.24 676.02,-1739 701.48,-1747.47 732,-1706.24 794.99,-1621.16 821.8,-1494.65 831.15,-1437.79"/>
<polygon fill="black" stroke="black" points="834.6,-1438.36 832.7,-1427.94 827.68,-1437.27 834.6,-1438.36"/>
</g>
<!-- parse -->
<g id="node36" class="node">
<title>parse</title>
<polygon fill="none" stroke="black" points="1117.38,-1213.24 1063.38,-1213.24 1063.38,-1177.24 1117.38,-1177.24 1117.38,-1213.24"/>
<text text-anchor="middle" x="1090.38" y="-1190.94" font-family="sans-serif" font-size="14.00">parse</text>
</g>
<!-- graph&#45;&gt;parse -->
<g id="edge39" class="edge">
<title>graph&#45;&gt;parse</title>
<path fill="none" stroke="black" d="M450.46,-1906.42C462.95,-1926.29 484.66,-1958.47 508,-1982.24 641.56,-2118.27 731.4,-2224.55 904.75,-2145.24 972.59,-2114.21 985.33,-2086.91 1014.5,-2018.24 1077.13,-1870.81 1087.47,-1354.41 1089.09,-1224.89"/>
<polygon fill="black" stroke="black" points="1092.58,-1225.14 1089.2,-1215.1 1085.59,-1225.06 1092.58,-1225.14"/>
</g>
<!-- rand -->
<g id="node43" class="node">
<title>rand</title>
<polygon fill="none" stroke="black" points="1004.62,-1426.24 950.62,-1426.24 950.62,-1390.24 1004.62,-1390.24 1004.62,-1426.24"/>
<text text-anchor="middle" x="977.62" y="-1403.94" font-family="sans-serif" font-size="14.00">rand</text>
</g>
<!-- hash&#45;&gt;rand -->
<g id="edge40" class="edge">
<title>hash&#45;&gt;rand</title>
<path fill="none" stroke="black" d="M863.57,-1408.24C884.86,-1408.24 915.19,-1408.24 939.07,-1408.24"/>
<polygon fill="black" stroke="black" points="939.04,-1411.74 949.04,-1408.24 939.04,-1404.74 939.04,-1411.74"/>
</g>
<!-- haskell -->
<g id="node16" class="node">
<title>haskell</title>
<polygon fill="none" stroke="black" points="469.75,-177.24 407.25,-177.24 407.25,-141.24 469.75,-141.24 469.75,-177.24"/>
<text text-anchor="middle" x="438.5" y="-154.94" font-family="sans-serif" font-size="14.00">haskell</text>
</g>
<!-- hol&#45;api -->
<g id="node18" class="node">
<title>hol&#45;api</title>
<polygon fill="none" stroke="black" points="586.62,-200.24 524.12,-200.24 524.12,-164.24 586.62,-164.24 586.62,-200.24"/>
<text text-anchor="middle" x="555.38" y="-177.94" font-family="sans-serif" font-size="14.00">hol&#45;api</text>
</g>
<!-- haskell&#45;&gt;hol&#45;api -->
<g id="edge41" class="edge">
<title>haskell&#45;&gt;hol&#45;api</title>
<path fill="none" stroke="black" d="M469.98,-165.35C483.09,-167.97 498.63,-171.08 512.78,-173.91"/>
<polygon fill="black" stroke="black" points="511.77,-177.28 522.27,-175.81 513.15,-170.42 511.77,-177.28"/>
</g>
<!-- haskell&#45;&gt;hol&#45;eval -->
<g id="edge42" class="edge">
<title>haskell&#45;&gt;hol&#45;eval</title>
<path fill="none" stroke="black" d="M470.17,-157.07C481.99,-156.33 495.62,-155.6 508,-155.24 550.09,-154.01 561.03,-149.54 602.75,-155.24 661.83,-163.32 675.02,-173.67 732,-191.24 751.19,-197.16 772.22,-204.18 790.26,-210.37"/>
<polygon fill="black" stroke="black" points="789.04,-213.65 799.64,-213.61 791.33,-207.04 789.04,-213.65"/>
</g>
<!-- haskell&#45;&gt;init -->
<g id="edge43" class="edge">
<title>haskell&#45;&gt;init</title>
<path fill="none" stroke="black" d="M445.05,-177.72C452.16,-201.97 464.47,-245.96 472,-284.24 483.55,-342.99 470.55,-504.53 508,-551.24 541.82,-593.42 605.72,-608.23 646.61,-613.43"/>
<polygon fill="black" stroke="black" points="646.16,-616.9 656.49,-614.54 646.94,-609.94 646.16,-616.9"/>
</g>
<!-- haskell&#45;&gt;types -->
<g id="edge44" class="edge">
<title>haskell&#45;&gt;types</title>
<path fill="none" stroke="black" d="M453.92,-141C488.71,-99.24 581.98,-0.24 684.38,-0.24 684.38,-0.24 684.38,-0.24 1194.25,-0.24 1269.69,-0.24 1305.95,3.64 1355.5,-53.24 1396.02,-99.77 1411.41,-290.59 1415.93,-364.66"/>
<polygon fill="black" stroke="black" points="1412.42,-364.61 1416.49,-374.39 1419.41,-364.2 1412.42,-364.61"/>
</g>
<!-- hol&#45;&gt;core -->
<g id="edge45" class="edge">
<title>hol&#45;&gt;core</title>
<path fill="none" stroke="black" d="M863.57,-400.09C885.16,-391.71 916.02,-379.74 940.05,-370.43"/>
<polygon fill="black" stroke="black" points="941.08,-373.78 949.14,-366.9 938.55,-367.25 941.08,-373.78"/>
</g>
<!-- hol&#45;api&#45;&gt;core -->
<g id="edge46" class="edge">
<title>hol&#45;api&#45;&gt;core</title>
<path fill="none" stroke="black" d="M587.12,-174C652.14,-158.48 805.72,-132.2 904.75,-199.24 947.76,-228.36 965.47,-289.97 972.43,-326.76"/>
<polygon fill="black" stroke="black" points="968.92,-327.01 974.07,-336.27 975.82,-325.82 968.92,-327.01"/>
</g>
<!-- hol&#45;api&#45;&gt;hol&#45;eval -->
<g id="edge47" class="edge">
<title>hol&#45;api&#45;&gt;hol&#45;eval</title>
<path fill="none" stroke="black" d="M587.03,-187.08C636.16,-194.83 732.81,-210.07 789.97,-219.08"/>
<polygon fill="black" stroke="black" points="789.28,-222.52 799.7,-220.62 790.37,-215.6 789.28,-222.52"/>
</g>
<!-- inductive -->
<g id="node20" class="node">
<title>inductive</title>
<polygon fill="none" stroke="black" points="874.75,-374.24 798,-374.24 798,-338.24 874.75,-338.24 874.75,-374.24"/>
<text text-anchor="middle" x="836.38" y="-351.94" font-family="sans-serif" font-size="14.00">inductive</text>
</g>
<!-- hol&#45;api&#45;&gt;inductive -->
<g id="edge48" class="edge">
<title>hol&#45;api&#45;&gt;inductive</title>
<path fill="none" stroke="black" d="M585.97,-200.7C636.64,-232.3 740,-296.76 796.45,-331.96"/>
<polygon fill="black" stroke="black" points="794.46,-334.85 804.8,-337.18 798.17,-328.91 794.46,-334.85"/>
</g>
<!-- hol&#45;api&#45;&gt;init -->
<g id="edge49" class="edge">
<title>hol&#45;api&#45;&gt;init</title>
<path fill="none" stroke="black" d="M563.86,-200.68C573.53,-224.9 590.59,-268.85 602.75,-307.24 634.91,-408.76 664.72,-531.73 677.64,-586.93"/>
<polygon fill="black" stroke="black" points="674.18,-587.53 679.86,-596.48 681,-585.95 674.18,-587.53"/>
</g>
<!-- hol&#45;api&#45;&gt;pure -->
<g id="edge50" class="edge">
<title>hol&#45;api&#45;&gt;pure</title>
<path fill="none" stroke="black" d="M586.75,-169.77C637.38,-150.14 742.64,-114.24 835.38,-114.24 835.38,-114.24 835.38,-114.24 978.62,-114.24 1076.54,-114.24 1149,-227.42 1178.15,-281.77"/>
<polygon fill="black" stroke="black" points="1174.96,-283.22 1182.7,-290.46 1181.16,-279.98 1174.96,-283.22"/>
</g>
<!-- hol&#45;api&#45;&gt;types -->
<g id="edge51" class="edge">
<title>hol&#45;api&#45;&gt;types</title>
<path fill="none" stroke="black" d="M575.58,-164.01C618.48,-125.26 726.9,-38.24 835.38,-38.24 835.38,-38.24 835.38,-38.24 1194.25,-38.24 1348.08,-38.24 1399.96,-279.76 1413.47,-364.94"/>
<polygon fill="black" stroke="black" points="1409.98,-365.24 1414.94,-374.6 1416.9,-364.19 1409.98,-365.24"/>
</g>
<!-- hol&#45;eval&#45;&gt;core -->
<g id="edge52" class="edge">
<title>hol&#45;eval&#45;&gt;core</title>
<path fill="none" stroke="black" d="M871.67,-237.79C883.11,-242.81 895.32,-249.56 904.75,-258.24 928.19,-279.82 921.34,-294.97 940.75,-320.24 943.26,-323.51 946.05,-326.79 948.94,-329.96"/>
<polygon fill="black" stroke="black" points="946.17,-332.14 955.62,-336.94 951.23,-327.3 946.17,-332.14"/>
</g>
<!-- hol&#45;eval&#45;&gt;pure -->
<g id="edge53" class="edge">
<title>hol&#45;eval&#45;&gt;pure</title>
<path fill="none" stroke="black" d="M871.79,-230.46C927.15,-237.78 1038.99,-254.87 1130.25,-283.24 1138.59,-285.84 1147.32,-289.2 1155.51,-292.67"/>
<polygon fill="black" stroke="black" points="1153.93,-295.8 1164.5,-296.63 1156.75,-289.4 1153.93,-295.8"/>
</g>
<!-- hol&#45;eval&#45;&gt;pure&#45;eval -->
<g id="edge54" class="edge">
<title>hol&#45;eval&#45;&gt;pure&#45;eval</title>
<path fill="none" stroke="black" d="M871.86,-242.1C882.48,-247.13 894.16,-252.79 904.75,-258.24 921.02,-266.62 923.62,-271.8 940.75,-278.24 972.48,-290.17 1009.79,-298.19 1039.09,-303.21"/>
<polygon fill="black" stroke="black" points="1038.37,-306.64 1048.81,-304.81 1039.51,-299.73 1038.37,-306.64"/>
</g>
<!-- hol&#45;eval&#45;&gt;sexp -->
<g id="edge55" class="edge">
<title>hol&#45;eval&#45;&gt;sexp</title>
<path fill="none" stroke="black" d="M853.26,-244.51C869.25,-264.04 893.15,-296.63 904.75,-329.24 915.97,-360.79 962.2,-859.68 973.92,-987.56"/>
<polygon fill="black" stroke="black" points="970.41,-987.6 974.8,-997.24 977.38,-986.96 970.41,-987.6"/>
</g>
<!-- hol&#45;eval&#45;&gt;types -->
<g id="edge56" class="edge">
<title>hol&#45;eval&#45;&gt;types</title>
<path fill="none" stroke="black" d="M871.61,-226.24C920.09,-226.24 1011.5,-226.24 1089.38,-226.24 1089.38,-226.24 1089.38,-226.24 1194.25,-226.24 1270.26,-226.24 1297.39,-234.24 1355.5,-283.24 1381.25,-304.96 1398.34,-340.24 1407.93,-365.19"/>
<polygon fill="black" stroke="black" points="1404.59,-366.22 1411.3,-374.41 1411.16,-363.82 1404.59,-366.22"/>
</g>
<!-- init&#45;&gt;core -->
<g id="edge57" class="edge">
<title>init&#45;&gt;core</title>
<path fill="none" stroke="black" d="M712.68,-600.86C719.49,-596.09 726.46,-590.45 732,-584.24 754.26,-559.33 742.54,-539.88 768,-518.24 817.08,-476.53 854.38,-510.39 904.75,-470.24 933.09,-447.66 953.44,-410.68 965.1,-384.98"/>
<polygon fill="black" stroke="black" points="968.18,-386.69 968.96,-376.12 961.76,-383.89 968.18,-386.69"/>
</g>
<!-- init&#45;&gt;grammar -->
<g id="edge58" class="edge">
<title>init&#45;&gt;grammar</title>
<path fill="none" stroke="black" d="M712.67,-605.16C728.41,-599.14 748.99,-592.31 768,-589.24 822.79,-580.42 886.66,-585.01 929.16,-590.13"/>
<polygon fill="black" stroke="black" points="928.69,-593.6 939.05,-591.38 929.57,-586.65 928.69,-593.6"/>
</g>
<!-- init&#45;&gt;hash -->
<g id="edge59" class="edge">
<title>init&#45;&gt;hash</title>
<path fill="none" stroke="black" d="M693.18,-634.42C703.52,-662.91 722.95,-720.02 732,-770.24 773.34,-999.54 699.29,-1070.61 768,-1293.24 777.99,-1325.6 798.57,-1358.54 814.38,-1380.83"/>
<polygon fill="black" stroke="black" points="811.43,-1382.73 820.14,-1388.76 817.09,-1378.61 811.43,-1382.73"/>
</g>
<!-- init&#45;&gt;hol -->
<g id="edge60" class="edge">
<title>init&#45;&gt;hol</title>
<path fill="none" stroke="black" d="M712.43,-602.1C719.56,-597.21 726.76,-591.19 732,-584.24 761.45,-545.19 742.44,-521.95 768,-480.24 777.98,-463.96 792.3,-448.39 805.18,-436.09"/>
<polygon fill="black" stroke="black" points="807.31,-438.89 812.27,-429.53 802.55,-433.75 807.31,-438.89"/>
</g>
<!-- init&#45;&gt;hol&#45;eval -->
<g id="edge61" class="edge">
<title>init&#45;&gt;hol&#45;eval</title>
<path fill="none" stroke="black" d="M695.45,-597.94C705.62,-576.79 721.98,-540.73 732,-508.24 755.91,-430.7 737.23,-404.33 768,-329.24 779.35,-301.55 798.45,-273.32 813.42,-253.44"/>
<polygon fill="black" stroke="black" points="816.14,-255.65 819.47,-245.59 810.59,-251.38 816.14,-255.65"/>
</g>
<!-- init&#45;&gt;inductive -->
<g id="edge62" class="edge">
<title>init&#45;&gt;inductive</title>
<path fill="none" stroke="black" d="M694.97,-597.78C704.7,-576.48 720.66,-540.29 732,-508.24 751.28,-453.74 729.23,-426.13 768,-383.24 773.4,-377.27 780.31,-372.59 787.63,-368.94"/>
<polygon fill="black" stroke="black" points="788.59,-372.34 796.38,-365.17 785.81,-365.91 788.59,-372.34"/>
</g>
<!-- metamath -->
<g id="node31" class="node">
<title>metamath</title>
<polygon fill="none" stroke="black" points="876.62,-1138.24 796.12,-1138.24 796.12,-1102.24 876.62,-1102.24 876.62,-1138.24"/>
<text text-anchor="middle" x="836.38" y="-1115.94" font-family="sans-serif" font-size="14.00">metamath</text>
</g>
<!-- init&#45;&gt;metamath -->
<g id="edge63" class="edge">
<title>init&#45;&gt;metamath</title>
<path fill="none" stroke="black" d="M691.99,-634.69C700.75,-663.55 718.08,-721.15 732,-770.24 748.7,-829.16 750.92,-844.44 768,-903.24 787.62,-970.79 812.6,-1049.52 825.95,-1091.09"/>
<polygon fill="black" stroke="black" points="822.61,-1092.13 829.01,-1100.58 829.27,-1089.99 822.61,-1092.13"/>
</g>
<!-- init&#45;&gt;sexp -->
<g id="edge64" class="edge">
<title>init&#45;&gt;sexp</title>
<path fill="none" stroke="black" d="M712.44,-624.5C719.74,-627.98 727.03,-632.77 732,-639.24 779.58,-701.18 714.59,-754.26 768,-811.24 811.14,-857.27 857.28,-807.71 904.75,-849.24 946.22,-885.53 964.51,-949.92 971.97,-987.57"/>
<polygon fill="black" stroke="black" points="968.51,-988.09 973.76,-997.29 975.4,-986.83 968.51,-988.09"/>
</g>
<!-- spectec -->
<g id="node51" class="node">
<title>spectec</title>
<polygon fill="none" stroke="black" points="871,-634.24 801.75,-634.24 801.75,-598.24 871,-598.24 871,-634.24"/>
<text text-anchor="middle" x="836.38" y="-611.94" font-family="sans-serif" font-size="14.00">spectec</text>
</g>
<!-- init&#45;&gt;spectec -->
<g id="edge65" class="edge">
<title>init&#45;&gt;spectec</title>
<path fill="none" stroke="black" d="M712.67,-616.24C734.12,-616.24 764.9,-616.24 790.27,-616.24"/>
<polygon fill="black" stroke="black" points="789.98,-619.74 799.98,-616.24 789.98,-612.74 789.98,-619.74"/>
</g>
<!-- init&#45;&gt;types -->
<g id="edge66" class="edge">
<title>init&#45;&gt;types</title>
<path fill="none" stroke="black" d="M712.84,-603.12C763,-579.49 875.9,-532.24 976.62,-532.24 976.62,-532.24 976.62,-532.24 1194.25,-532.24 1278.09,-532.24 1356.74,-460.95 1394.35,-420.85"/>
<polygon fill="black" stroke="black" points="1396.75,-423.42 1400.93,-413.68 1391.59,-418.68 1396.75,-423.42"/>
</g>
<!-- json -->
<g id="node22" class="node">
<title>json</title>
<polygon fill="none" stroke="black" points="863.38,-1906.24 809.38,-1906.24 809.38,-1870.24 863.38,-1870.24 863.38,-1906.24"/>
<text text-anchor="middle" x="836.38" y="-1883.94" font-family="sans-serif" font-size="14.00">json</text>
</g>
<!-- kernel -->
<g id="node23" class="node">
<title>kernel</title>
<polygon fill="none" stroke="black" points="584,-1022.24 526.75,-1022.24 526.75,-986.24 584,-986.24 584,-1022.24"/>
<text text-anchor="middle" x="555.38" y="-999.94" font-family="sans-serif" font-size="14.00">kernel</text>
</g>
<!-- kernel&#45;&gt;hash -->
<g id="edge67" class="edge">
<title>kernel&#45;&gt;hash</title>
<path fill="none" stroke="black" d="M584.08,-1018.79C591,-1023.55 597.84,-1029.41 602.75,-1036.24 636.71,-1083.56 601.82,-1117.21 638.75,-1162.24 668.31,-1198.29 700.15,-1176.21 732,-1210.24 759.48,-1239.6 749.8,-1257.39 768,-1293.24 783.44,-1323.66 803.44,-1357.18 817.63,-1380.15"/>
<polygon fill="black" stroke="black" points="814.64,-1381.98 822.9,-1388.62 820.59,-1378.28 814.64,-1381.98"/>
</g>
<!-- kernel&#45;&gt;init -->
<g id="edge68" class="edge">
<title>kernel&#45;&gt;init</title>
<path fill="none" stroke="black" d="M562.46,-985.79C583.02,-923.48 649.97,-720.54 674.9,-644.96"/>
<polygon fill="black" stroke="black" points="678.12,-646.39 677.92,-635.8 671.47,-644.2 678.12,-646.39"/>
</g>
<!-- kernel&#45;&gt;object -->
<g id="edge69" class="edge">
<title>kernel&#45;&gt;object</title>
<path fill="none" stroke="black" d="M564.35,-1022.55C573.67,-1044 589.5,-1080.63 602.75,-1112.24 619.09,-1151.21 622.53,-1161.22 638.75,-1200.24 649.93,-1227.13 662.86,-1257.7 672.1,-1279.43"/>
<polygon fill="black" stroke="black" points="668.83,-1280.7 675.97,-1288.53 675.28,-1277.96 668.83,-1280.7"/>
</g>
<!-- kernel&#45;&gt;sexp -->
<g id="edge70" class="edge">
<title>kernel&#45;&gt;sexp</title>
<path fill="none" stroke="black" d="M584.37,-1010.25C619.04,-1017.7 679.89,-1030.82 732,-1042.24 748.01,-1045.75 751.71,-1048.45 768,-1050.24 828.41,-1056.87 845.37,-1063.22 904.75,-1050.24 916.74,-1047.62 929.13,-1042.8 940.17,-1037.65"/>
<polygon fill="black" stroke="black" points="941.51,-1040.89 948.93,-1033.33 938.41,-1034.61 941.51,-1040.89"/>
</g>
<!-- kernel&#45;&gt;store -->
<g id="edge71" class="edge">
<title>kernel&#45;&gt;store</title>
<path fill="none" stroke="black" d="M559.87,-1022.65C577.51,-1115.7 656.93,-1534.49 678.79,-1649.78"/>
<polygon fill="black" stroke="black" points="675.3,-1650.19 680.61,-1659.37 682.18,-1648.89 675.3,-1650.19"/>
</g>
<!-- kernel&#45;sat -->
<g id="node24" class="node">
<title>kernel&#45;sat</title>
<polygon fill="none" stroke="black" points="597.12,-542.24 513.62,-542.24 513.62,-506.24 597.12,-506.24 597.12,-542.24"/>
<text text-anchor="middle" x="555.38" y="-519.94" font-family="sans-serif" font-size="14.00">kernel&#45;sat</text>
</g>
<!-- kernel&#45;sat&#45;&gt;core -->
<g id="edge72" class="edge">
<title>kernel&#45;sat&#45;&gt;core</title>
<path fill="none" stroke="black" d="M597.3,-513.63C639.9,-502.63 708.57,-485 768,-470.24 828.68,-455.18 851.15,-469.44 904.75,-437.24 926.78,-424.01 945.77,-401.82 958.7,-384"/>
<polygon fill="black" stroke="black" points="961.51,-386.09 964.36,-375.88 955.77,-382.08 961.51,-386.09"/>
</g>
<!-- kernel&#45;sat&#45;&gt;hol&#45;eval -->
<g id="edge73" class="edge">
<title>kernel&#45;sat&#45;&gt;hol&#45;eval</title>
<path fill="none" stroke="black" d="M573.41,-506.05C620.88,-455.34 754.85,-312.25 810.58,-252.73"/>
<polygon fill="black" stroke="black" points="812.9,-255.37 817.18,-245.68 807.79,-250.59 812.9,-255.37"/>
</g>
<!-- kernel&#45;sat&#45;&gt;init -->
<g id="edge74" class="edge">
<title>kernel&#45;sat&#45;&gt;init</title>
<path fill="none" stroke="black" d="M581.97,-542.64C601.42,-556.62 628.37,-575.99 649.74,-591.35"/>
<polygon fill="black" stroke="black" points="647.43,-594 657.6,-596.99 651.52,-588.32 647.43,-594"/>
</g>
<!-- sat -->
<g id="node46" class="node">
<title>sat</title>
<polygon fill="none" stroke="black" points="863.38,-894.24 809.38,-894.24 809.38,-858.24 863.38,-858.24 863.38,-894.24"/>
<text text-anchor="middle" x="836.38" y="-871.94" font-family="sans-serif" font-size="14.00">sat</text>
</g>
<!-- kernel&#45;sat&#45;&gt;sat -->
<g id="edge75" class="edge">
<title>kernel&#45;sat&#45;&gt;sat</title>
<path fill="none" stroke="black" d="M568.78,-542.5C584.77,-565.95 613.51,-607.85 638.75,-643.24 679.4,-700.26 695.81,-710.29 732,-770.24 750.9,-801.56 742.02,-818.5 768,-844.24 776.49,-852.65 787.61,-859.15 798.36,-864.03"/>
<polygon fill="black" stroke="black" points="796.9,-867.22 807.48,-867.8 799.57,-860.75 796.9,-867.22"/>
</g>
<!-- kernel&#45;smt -->
<g id="node25" class="node">
<title>kernel&#45;smt</title>
<polygon fill="none" stroke="black" points="104.5,-1762.24 16.5,-1762.24 16.5,-1726.24 104.5,-1726.24 104.5,-1762.24"/>
<text text-anchor="middle" x="60.5" y="-1739.94" font-family="sans-serif" font-size="14.00">kernel&#45;smt</text>
</g>
<!-- kv -->
<g id="node26" class="node">
<title>kv</title>
<polygon fill="none" stroke="black" points="226.12,-2058.24 172.12,-2058.24 172.12,-2022.24 226.12,-2022.24 226.12,-2058.24"/>
<text text-anchor="middle" x="199.12" y="-2035.94" font-family="sans-serif" font-size="14.00">kv</text>
</g>
<!-- lean -->
<g id="node27" class="node">
<title>lean</title>
<polygon fill="none" stroke="black" points="87.5,-1816.24 33.5,-1816.24 33.5,-1780.24 87.5,-1780.24 87.5,-1816.24"/>
<text text-anchor="middle" x="60.5" y="-1793.94" font-family="sans-serif" font-size="14.00">lean</text>
</g>
<!-- lisp -->
<g id="node28" class="node">
<title>lisp</title>
<polygon fill="none" stroke="black" points="465.5,-329.24 411.5,-329.24 411.5,-293.24 465.5,-293.24 465.5,-329.24"/>
<text text-anchor="middle" x="438.5" y="-306.94" font-family="sans-serif" font-size="14.00">lisp</text>
</g>
<!-- lisp&#45;&gt;core -->
<g id="edge76" class="edge">
<title>lisp&#45;&gt;core</title>
<path fill="none" stroke="black" d="M465.77,-303.82C538.35,-284.66 746.72,-238.95 904.75,-296.24 923.43,-303.01 940.65,-317 953.56,-329.76"/>
<polygon fill="black" stroke="black" points="950.88,-332.02 960.34,-336.8 955.92,-327.17 950.88,-332.02"/>
</g>
<!-- lisp&#45;&gt;hol&#45;api -->
<g id="edge77" class="edge">
<title>lisp&#45;&gt;hol&#45;api</title>
<path fill="none" stroke="black" d="M449.71,-293C461.83,-272.36 483.52,-238.46 508,-214.24 510.43,-211.84 513.05,-209.5 515.78,-207.25"/>
<polygon fill="black" stroke="black" points="517.7,-210.19 523.5,-201.32 513.44,-204.64 517.7,-210.19"/>
</g>
<!-- lisp&#45;&gt;hol&#45;eval -->
<g id="edge78" class="edge">
<title>lisp&#45;&gt;hol&#45;eval</title>
<path fill="none" stroke="black" d="M465.85,-294.2C478.19,-286.96 493.38,-279.1 508,-274.24 605.01,-242.05 725.31,-231.42 789.67,-227.93"/>
<polygon fill="black" stroke="black" points="789.69,-231.43 799.5,-227.44 789.34,-224.44 789.69,-231.43"/>
</g>
<!-- lisp&#45;&gt;init -->
<g id="edge79" class="edge">
<title>lisp&#45;&gt;init</title>
<path fill="none" stroke="black" d="M440.61,-329.33C444.77,-390.05 461.57,-584.92 508,-622.24 547.02,-653.6 608.07,-642.49 647.14,-630.35"/>
<polygon fill="black" stroke="black" points="648.18,-633.69 656.58,-627.23 645.99,-627.04 648.18,-633.69"/>
</g>
<!-- repl&#45;core -->
<g id="node45" class="node">
<title>repl&#45;core</title>
<polygon fill="none" stroke="black" points="594.5,-352.24 516.25,-352.24 516.25,-316.24 594.5,-316.24 594.5,-352.24"/>
<text text-anchor="middle" x="555.38" y="-329.94" font-family="sans-serif" font-size="14.00">repl&#45;core</text>
</g>
<!-- lisp&#45;&gt;repl&#45;core -->
<g id="edge80" class="edge">
<title>lisp&#45;&gt;repl&#45;core</title>
<path fill="none" stroke="black" d="M465.85,-316.52C477.45,-318.84 491.46,-321.65 504.88,-324.33"/>
<polygon fill="black" stroke="black" points="503.97,-327.72 514.46,-326.25 505.34,-320.86 503.97,-327.72"/>
</g>
<!-- lisp&#45;&gt;sexp -->
<g id="edge81" class="edge">
<title>lisp&#45;&gt;sexp</title>
<path fill="none" stroke="black" d="M439.82,-329.68C441.55,-411.51 451.93,-741.58 508,-825.24 571.95,-920.68 633.2,-895.62 732,-954.24 748.13,-963.81 750.53,-969.44 768,-976.24 825.38,-998.58 896.57,-1009.22 939.2,-1013.92"/>
<polygon fill="black" stroke="black" points="938.62,-1017.37 948.93,-1014.93 939.34,-1010.41 938.62,-1017.37"/>
</g>
<!-- llm -->
<g id="node29" class="node">
<title>llm</title>
<polygon fill="none" stroke="black" points="226.12,-1494.24 172.12,-1494.24 172.12,-1458.24 226.12,-1458.24 226.12,-1494.24"/>
<text text-anchor="middle" x="199.12" y="-1471.94" font-family="sans-serif" font-size="14.00">llm</text>
</g>
<!-- llm&#45;&gt;proto -->
<g id="edge82" class="edge">
<title>llm&#45;&gt;proto</title>
<path fill="none" stroke="black" d="M226.6,-1476.24C243.46,-1476.24 265.58,-1476.24 284.29,-1476.24"/>
<polygon fill="black" stroke="black" points="284.19,-1479.74 294.19,-1476.24 284.19,-1472.74 284.19,-1479.74"/>
</g>
<!-- lsp&#45;&gt;sexp -->
<g id="edge83" class="edge">
<title>lsp&#45;&gt;sexp</title>
<path fill="none" stroke="black" d="M861.11,-1247.83C875.31,-1235.82 892.85,-1219.1 904.75,-1201.24 937.84,-1151.59 959.16,-1084.43 969.41,-1046.5"/>
<polygon fill="black" stroke="black" points="972.7,-1047.74 971.86,-1037.18 965.93,-1045.97 972.7,-1047.74"/>
</g>
<!-- lsp&#45;&gt;wasm -->
<g id="edge84" class="edge">
<title>lsp&#45;&gt;wasm</title>
<path fill="none" stroke="black" d="M851.4,-1284.6C867.23,-1306.38 892.39,-1344.39 904.75,-1381.24 976.41,-1594.88 978.74,-1871.45 977.37,-1961.5"/>
<polygon fill="black" stroke="black" points="973.87,-1961.36 977.19,-1971.43 980.87,-1961.49 973.87,-1961.36"/>
</g>
<!-- metamath&#45;&gt;parse -->
<g id="edge85" class="edge">
<title>metamath&#45;&gt;parse</title>
<path fill="none" stroke="black" d="M877.03,-1132.04C925.05,-1146.34 1005.3,-1170.22 1052.19,-1184.17"/>
<polygon fill="black" stroke="black" points="1051.03,-1187.48 1061.61,-1186.98 1053.03,-1180.77 1051.03,-1187.48"/>
</g>
<!-- metamath&#45;&gt;sexp -->
<g id="edge86" class="edge">
<title>metamath&#45;&gt;sexp</title>
<path fill="none" stroke="black" d="M877.09,-1104.1C886.51,-1099.54 896.27,-1094.19 904.75,-1088.24 922.71,-1075.65 940.27,-1058.42 953.54,-1044.09"/>
<polygon fill="black" stroke="black" points="956.09,-1046.49 960.2,-1036.73 950.9,-1041.8 956.09,-1046.49"/>
</g>
<!-- multiformat -->
<g id="node32" class="node">
<title>multiformat</title>
<polygon fill="none" stroke="black" points="730.5,-1120.24 640.25,-1120.24 640.25,-1084.24 730.5,-1084.24 730.5,-1120.24"/>
<text text-anchor="middle" x="685.38" y="-1097.94" font-family="sans-serif" font-size="14.00">multiformat</text>
</g>
<!-- multiformat&#45;&gt;acset -->
<g id="edge87" class="edge">
<title>multiformat&#45;&gt;acset</title>
<path fill="none" stroke="black" d="M717.69,-1120.69C732.69,-1129.21 751.04,-1139.21 768,-1147.24 777.78,-1151.88 788.59,-1156.44 798.63,-1160.46"/>
<polygon fill="black" stroke="black" points="797.14,-1163.64 807.73,-1164.04 799.7,-1157.13 797.14,-1163.64"/>
</g>
<!-- multiformat&#45;&gt;hash -->
<g id="edge88" class="edge">
<title>multiformat&#45;&gt;hash</title>
<path fill="none" stroke="black" d="M700.52,-1120.69C710.44,-1134.33 723.41,-1153.68 732,-1172.24 755.56,-1223.16 745.66,-1241.78 768,-1293.24 781.57,-1324.49 801.81,-1357.83 816.56,-1380.52"/>
<polygon fill="black" stroke="black" points="813.46,-1382.17 821.88,-1388.59 819.3,-1378.31 813.46,-1382.17"/>
</g>
<!-- multiformat&#45;&gt;parse -->
<g id="edge89" class="edge">
<title>multiformat&#45;&gt;parse</title>
<path fill="none" stroke="black" d="M716.99,-1120.71C722.37,-1124.76 727.63,-1129.32 732,-1134.24 754.44,-1159.52 738.99,-1183.9 768,-1201.24 858.14,-1255.14 989.43,-1226.55 1052.66,-1207.62"/>
<polygon fill="black" stroke="black" points="1053.32,-1211.08 1061.84,-1204.79 1051.25,-1204.39 1053.32,-1211.08"/>
</g>
<!-- object&#45;&gt;hash -->
<g id="edge90" class="edge">
<title>object&#45;&gt;hash</title>
<path fill="none" stroke="black" d="M714.1,-1324.17C720.06,-1327.72 726.28,-1331.54 732,-1335.24 755.62,-1350.53 781.47,-1368.79 801.41,-1383.22"/>
<polygon fill="black" stroke="black" points="799.32,-1386.03 809.47,-1389.08 803.44,-1380.37 799.32,-1386.03"/>
</g>
<!-- object&#45;&gt;parse -->
<g id="edge91" class="edge">
<title>object&#45;&gt;parse</title>
<path fill="none" stroke="black" d="M714.19,-1309.79C756.26,-1311.36 838.21,-1311.41 904.75,-1293.24 957.38,-1278.87 966.44,-1264.06 1014.5,-1238.24 1027.19,-1231.43 1040.9,-1223.67 1053.08,-1216.64"/>
<polygon fill="black" stroke="black" points="1054.7,-1219.75 1061.59,-1211.7 1051.18,-1213.69 1054.7,-1219.75"/>
</g>
<!-- opentheory&#45;&gt;hol -->
<g id="edge92" class="edge">
<title>opentheory&#45;&gt;hol</title>
<path fill="none" stroke="black" d="M369.11,-395.71C444.28,-396.6 600.19,-398.97 732,-404.24 753.82,-405.12 778.21,-406.51 797.82,-407.74"/>
<polygon fill="black" stroke="black" points="797.33,-411.21 807.53,-408.36 797.78,-404.23 797.33,-411.21"/>
</g>
<!-- parquet -->
<g id="node35" class="node">
<title>parquet</title>
<polygon fill="none" stroke="black" points="472,-1657.24 405,-1657.24 405,-1621.24 472,-1621.24 472,-1657.24"/>
<text text-anchor="middle" x="438.5" y="-1634.94" font-family="sans-serif" font-size="14.00">parquet</text>
</g>
<!-- parquet&#45;&gt;arrow -->
<g id="edge93" class="edge">
<title>parquet&#45;&gt;arrow</title>
<path fill="none" stroke="black" d="M472.42,-1640.68C486.2,-1641.28 502.29,-1641.98 516.55,-1642.6"/>
<polygon fill="black" stroke="black" points="516.36,-1646.09 526.5,-1643.03 516.66,-1639.1 516.36,-1646.09"/>
</g>
<!-- proptest -->
<g id="node37" class="node">
<title>proptest</title>
<polygon fill="none" stroke="black" points="95.88,-1870.24 25.12,-1870.24 25.12,-1834.24 95.88,-1834.24 95.88,-1870.24"/>
<text text-anchor="middle" x="60.5" y="-1847.94" font-family="sans-serif" font-size="14.00">proptest</text>
</g>
<!-- pure&#45;trusted -->
<g id="node41" class="node">
<title>pure&#45;trusted</title>
<polygon fill="#ffd6d6" stroke="black" points="1355.5,-328.24 1256.25,-328.24 1256.25,-292.24 1355.5,-292.24 1355.5,-328.24"/>
<text text-anchor="middle" x="1305.88" y="-305.94" font-family="sans-serif" font-size="14.00">pure&#45;trusted</text>
</g>
<!-- pure&#45;&gt;pure&#45;trusted -->
<g id="edge94" class="edge">
<title>pure&#45;&gt;pure&#45;trusted</title>
<path fill="none" stroke="black" d="M1220.75,-310.24C1228.04,-310.24 1236.27,-310.24 1244.64,-310.24"/>
<polygon fill="black" stroke="black" points="1244.57,-313.74 1254.57,-310.24 1244.57,-306.74 1244.57,-313.74"/>
</g>
<!-- pure&#45;eval&#45;&gt;pure -->
<g id="edge95" class="edge">
<title>pure&#45;eval&#45;&gt;pure</title>
<path fill="none" stroke="black" d="M1130.66,-310.24C1138.53,-310.24 1146.77,-310.24 1154.57,-310.24"/>
<polygon fill="black" stroke="black" points="1154.47,-313.74 1164.47,-310.24 1154.47,-306.74 1154.47,-313.74"/>
</g>
<!-- pure&#45;eval&#45;&gt;types -->
<g id="edge96" class="edge">
<title>pure&#45;eval&#45;&gt;types</title>
<path fill="none" stroke="black" d="M1130.71,-325.45C1142.08,-329.57 1154.58,-333.83 1166.25,-337.24 1168.85,-338 1311.38,-370.25 1380.58,-385.9"/>
<polygon fill="black" stroke="black" points="1379.42,-389.22 1389.94,-388.01 1380.96,-382.4 1379.42,-389.22"/>
</g>
<!-- pure&#45;trusted&#45;&gt;types -->
<g id="edge97" class="edge">
<title>pure&#45;trusted&#45;&gt;types</title>
<path fill="none" stroke="black" d="M1336.05,-328.65C1342.55,-332.97 1349.34,-337.66 1355.5,-342.24 1366.48,-350.42 1378.09,-359.91 1388.25,-368.52"/>
<polygon fill="black" stroke="black" points="1385.74,-370.98 1395.61,-374.83 1390.29,-365.66 1385.74,-370.98"/>
</g>
<!-- python -->
<g id="node42" class="node">
<title>python</title>
<polygon fill="none" stroke="black" points="91.38,-1654.24 29.62,-1654.24 29.62,-1618.24 91.38,-1618.24 91.38,-1654.24"/>
<text text-anchor="middle" x="60.5" y="-1631.94" font-family="sans-serif" font-size="14.00">python</text>
</g>
<!-- python&#45;&gt;crypto&#45;sig -->
<g id="edge98" class="edge">
<title>python&#45;&gt;crypto&#45;sig</title>
<path fill="none" stroke="black" d="M91.68,-1643.09C102.65,-1647.12 114.04,-1653.43 121,-1663.24 171.25,-1734.11 115.07,-1971.85 158.84,-2066.03"/>
<polygon fill="black" stroke="black" points="155.67,-2067.51 163.48,-2074.66 161.83,-2064.2 155.67,-2067.51"/>
</g>
<!-- python&#45;&gt;git -->
<g id="edge99" class="edge">
<title>python&#45;&gt;git</title>
<path fill="none" stroke="black" d="M91.56,-1638.94C149.14,-1642.73 277.41,-1644.39 369,-1595.24 389.93,-1584.01 407.69,-1563.77 419.88,-1547"/>
<polygon fill="black" stroke="black" points="422.7,-1549.07 425.53,-1538.86 416.95,-1545.08 422.7,-1549.07"/>
</g>
<!-- python&#45;&gt;graph -->
<g id="edge100" class="edge">
<title>python&#45;&gt;graph</title>
<path fill="none" stroke="black" d="M91.82,-1643.67C102.54,-1647.76 113.72,-1653.96 121,-1663.24 174.82,-1731.93 93.15,-1796.77 157,-1856.24 223.4,-1918.1 340.49,-1907.22 400.2,-1896.46"/>
<polygon fill="black" stroke="black" points="400.7,-1899.93 409.86,-1894.61 399.38,-1893.05 400.7,-1899.93"/>
</g>
<!-- python&#45;&gt;hash -->
<g id="edge101" class="edge">
<title>python&#45;&gt;hash</title>
<path fill="none" stroke="black" d="M91.65,-1643.45C102.48,-1647.52 113.78,-1653.77 121,-1663.24 182.9,-1744.5 87.1,-1815.75 157,-1890.24 253.1,-1992.66 335.19,-1946.98 472,-1915.24 475.9,-1914.34 599.63,-1856.75 602.75,-1854.24 623.26,-1837.76 618.92,-1824.53 638.75,-1807.24 674.68,-1775.92 702.32,-1791.54 732,-1754.24 742.21,-1741.41 804.77,-1518.47 827.3,-1437.41"/>
<polygon fill="black" stroke="black" points="830.62,-1438.55 829.92,-1427.98 823.87,-1436.68 830.62,-1438.55"/>
</g>
<!-- python&#45;&gt;kv -->
<g id="edge102" class="edge">
<title>python&#45;&gt;kv</title>
<path fill="none" stroke="black" d="M91.6,-1643.14C102.56,-1647.18 113.97,-1653.49 121,-1663.24 211.13,-1788.32 82.18,-1873.45 157,-2008.24 158.8,-2011.49 161.08,-2014.51 163.64,-2017.3"/>
<polygon fill="black" stroke="black" points="161.11,-2019.74 170.83,-2023.95 165.86,-2014.6 161.11,-2019.74"/>
</g>
<!-- python&#45;&gt;llm -->
<g id="edge103" class="edge">
<title>python&#45;&gt;llm</title>
<path fill="none" stroke="black" d="M77.17,-1617.89C101.26,-1589.68 147.51,-1535.52 175.32,-1502.95"/>
<polygon fill="black" stroke="black" points="177.82,-1505.41 181.65,-1495.53 172.5,-1500.87 177.82,-1505.41"/>
</g>
<!-- python&#45;&gt;object -->
<g id="edge104" class="edge">
<title>python&#45;&gt;object</title>
<path fill="none" stroke="black" d="M91.62,-1619.4C110.21,-1609.27 134.69,-1596.41 157,-1586.24 168.51,-1581 360.3,-1512.43 369,-1503.24 404.09,-1466.2 370.48,-1431.81 405,-1394.24 438.68,-1357.58 460.73,-1365.84 508,-1350.24 554.39,-1334.93 609.36,-1322.75 645.45,-1315.53"/>
<polygon fill="black" stroke="black" points="645.85,-1319.02 654.99,-1313.65 644.5,-1312.15 645.85,-1319.02"/>
</g>
<!-- python&#45;&gt;repl -->
<g id="edge105" class="edge">
<title>python&#45;&gt;repl</title>
<path fill="none" stroke="black" d="M91.65,-1628.38C139.49,-1615.9 232.67,-1591.58 284.7,-1578.01"/>
<polygon fill="black" stroke="black" points="285.5,-1581.41 294.3,-1575.5 283.74,-1574.64 285.5,-1581.41"/>
</g>
<!-- python&#45;&gt;sat -->
<g id="edge106" class="edge">
<title>python&#45;&gt;sat</title>
<path fill="none" stroke="black" d="M64.12,-1617.82C79.22,-1511.93 154.37,-985.43 157,-982.24 318.41,-786.35 680.65,-843 797.95,-867.6"/>
<polygon fill="black" stroke="black" points="797.16,-871.01 807.67,-869.69 798.63,-864.17 797.16,-871.01"/>
</g>
<!-- python&#45;&gt;serve -->
<g id="edge107" class="edge">
<title>python&#45;&gt;serve</title>
<path fill="none" stroke="black" d="M69.84,-1617.87C92.86,-1567.16 157.39,-1424.99 185.16,-1363.82"/>
<polygon fill="black" stroke="black" points="188.32,-1365.31 189.27,-1354.76 181.95,-1362.42 188.32,-1365.31"/>
</g>
<!-- python&#45;&gt;sexp -->
<g id="edge108" class="edge">
<title>python&#45;&gt;sexp</title>
<path fill="none" stroke="black" d="M63.01,-1617.79C69.79,-1538.84 99.62,-1229.97 157,-1154.24 176.29,-1128.79 402.98,-1002.15 508,-977.24 621.13,-950.41 652.47,-993.11 768,-1006.24 827.5,-1013.01 897.02,-1015.62 938.89,-1016.63"/>
<polygon fill="black" stroke="black" points="938.61,-1020.12 948.68,-1016.84 938.76,-1013.12 938.61,-1020.12"/>
</g>
<!-- python&#45;&gt;shell -->
<g id="edge109" class="edge">
<title>python&#45;&gt;shell</title>
<path fill="none" stroke="black" d="M62.77,-1617.97C69.12,-1542.12 104.41,-1250.25 277.25,-1124.24 287.25,-1116.95 355.9,-1099.65 400.04,-1089.05"/>
<polygon fill="black" stroke="black" points="400.84,-1092.46 409.75,-1086.73 399.21,-1085.65 400.84,-1092.46"/>
</g>
<!-- python&#45;&gt;store -->
<g id="edge110" class="edge">
<title>python&#45;&gt;store</title>
<path fill="none" stroke="black" d="M91.58,-1644.25C102.14,-1648.39 113.28,-1654.47 121,-1663.24 156.94,-1704.09 113.24,-1747.92 157,-1780.24 236.68,-1839.09 519.31,-1833.63 602.75,-1780.24 634.91,-1759.67 612.22,-1729.7 638.75,-1702.24 641.63,-1699.26 644.98,-1696.6 648.53,-1694.24"/>
<polygon fill="black" stroke="black" points="649.97,-1697.46 656.91,-1689.46 646.49,-1691.38 649.97,-1697.46"/>
</g>
<!-- python&#45;&gt;wasm -->
<g id="edge111" class="edge">
<title>python&#45;&gt;wasm</title>
<path fill="none" stroke="black" d="M91.73,-1643.05C102.71,-1647.08 114.1,-1653.4 121,-1663.24 179.62,-1746.83 86.13,-2047.76 157,-2121.24 208.28,-2174.41 248.25,-2140.24 322.12,-2140.24 322.12,-2140.24 322.12,-2140.24 556.38,-2140.24 655.87,-2140.24 673.51,-2098.39 768,-2067.24 828.51,-2047.3 845.29,-2047.14 904.75,-2024.24 916.31,-2019.79 928.64,-2014.38 939.77,-2009.24"/>
<polygon fill="black" stroke="black" points="941.07,-2012.5 948.63,-2005.08 938.1,-2006.16 941.07,-2012.5"/>
</g>
<!-- wasm&#45;store -->
<g id="node59" class="node">
<title>wasm&#45;store</title>
<polygon fill="none" stroke="black" points="602.75,-1944.24 508,-1944.24 508,-1908.24 602.75,-1908.24 602.75,-1944.24"/>
<text text-anchor="middle" x="555.38" y="-1921.94" font-family="sans-serif" font-size="14.00">wasm&#45;store</text>
</g>
<!-- python&#45;&gt;wasm&#45;store -->
<g id="edge112" class="edge">
<title>python&#45;&gt;wasm&#45;store</title>
<path fill="none" stroke="black" d="M91.81,-1643.34C102.65,-1647.39 113.93,-1653.66 121,-1663.24 196.76,-1766.01 61.23,-1863.81 157,-1948.24 253.7,-2033.49 420.51,-1982.8 503.88,-1949.03"/>
<polygon fill="black" stroke="black" points="505.05,-1952.34 512.95,-1945.28 502.37,-1945.87 505.05,-1952.34"/>
</g>
<!-- repl&#45;&gt;arrow -->
<g id="edge113" class="edge">
<title>repl&#45;&gt;arrow</title>
<path fill="none" stroke="black" d="M350.51,-1575.39C380.25,-1583.62 429.93,-1597.84 472,-1612.24 487.15,-1617.43 503.64,-1623.71 517.86,-1629.32"/>
<polygon fill="black" stroke="black" points="516.24,-1632.45 526.83,-1632.9 518.84,-1625.95 516.24,-1632.45"/>
</g>
<!-- repl&#45;&gt;forsp -->
<g id="edge114" class="edge">
<title>repl&#45;&gt;forsp</title>
<path fill="none" stroke="black" d="M350.2,-1551.42C356.61,-1546.81 363.27,-1541.6 369,-1536.24 387.45,-1518.98 388.73,-1511.57 405,-1492.24 450.04,-1438.72 445.32,-1404.29 508,-1373.24 551.79,-1351.56 609.36,-1352.6 646.61,-1356.48"/>
<polygon fill="black" stroke="black" points="646.11,-1359.94 656.45,-1357.64 646.93,-1352.99 646.11,-1359.94"/>
</g>
<!-- repl&#45;&gt;git -->
<g id="edge115" class="edge">
<title>repl&#45;&gt;git</title>
<path fill="none" stroke="black" d="M350.42,-1556.88C365.45,-1550.38 384.51,-1542.14 400.98,-1535.03"/>
<polygon fill="black" stroke="black" points="402.17,-1538.33 409.96,-1531.15 399.39,-1531.9 402.17,-1538.33"/>
</g>
<!-- repl&#45;&gt;graph -->
<g id="edge116" class="edge">
<title>repl&#45;&gt;graph</title>
<path fill="none" stroke="black" d="M325.99,-1586.71C331.47,-1634.41 350.73,-1764.35 405,-1856.24 406.09,-1858.08 407.31,-1859.89 408.62,-1861.65"/>
<polygon fill="black" stroke="black" points="405.62,-1863.54 414.78,-1868.87 410.95,-1858.99 405.62,-1863.54"/>
</g>
<!-- repl&#45;&gt;hash -->
<g id="edge117" class="edge">
<title>repl&#45;&gt;hash</title>
<path fill="none" stroke="black" d="M333.14,-1586.67C345.66,-1609.95 370.69,-1649.04 405,-1666.24 483.59,-1705.64 522.59,-1707.36 602.75,-1671.24 711.61,-1622.2 790.07,-1494.23 820.92,-1436.83"/>
<polygon fill="black" stroke="black" points="824.02,-1438.47 825.58,-1427.99 817.82,-1435.21 824.02,-1438.47"/>
</g>
<!-- repl&#45;&gt;init -->
<g id="edge118" class="edge">
<title>repl&#45;&gt;init</title>
<path fill="none" stroke="black" d="M339.34,-1549.96C349.06,-1537.48 361.24,-1520.2 369,-1503.24 387.93,-1461.91 463.83,-1151.97 472,-1107.24 485.49,-1033.37 464.02,-832.11 508,-771.24 535.09,-733.76 566.89,-757.45 602.75,-728.24 631.48,-704.84 655.18,-669.07 669.51,-644.27"/>
<polygon fill="black" stroke="black" points="672.48,-646.14 674.32,-635.7 666.37,-642.71 672.48,-646.14"/>
</g>
<!-- repl&#45;&gt;object -->
<g id="edge119" class="edge">
<title>repl&#45;&gt;object</title>
<path fill="none" stroke="black" d="M350.55,-1551.78C356.95,-1547.17 363.52,-1541.86 369,-1536.24 446.08,-1457.14 413.88,-1388.03 508,-1330.24 549.7,-1304.64 607.43,-1302.31 645.32,-1304.25"/>
<polygon fill="black" stroke="black" points="644.68,-1307.72 654.89,-1304.87 645.13,-1300.73 644.68,-1307.72"/>
</g>
<!-- repl&#45;&gt;parquet -->
<g id="edge120" class="edge">
<title>repl&#45;&gt;parquet</title>
<path fill="none" stroke="black" d="M350.42,-1584.71C364.72,-1593.67 382.69,-1604.92 398.58,-1614.87"/>
<polygon fill="black" stroke="black" points="396.54,-1617.72 406.87,-1620.06 400.26,-1611.79 396.54,-1617.72"/>
</g>
<!-- repl&#45;&gt;shell -->
<g id="edge121" class="edge">
<title>repl&#45;&gt;shell</title>
<path fill="none" stroke="black" d="M340.59,-1549.75C350.55,-1537.45 362.54,-1520.45 369,-1503.24 418.51,-1371.32 376.58,-1326.26 405,-1188.24 410.59,-1161.09 419.93,-1130.95 427.17,-1109.42"/>
<polygon fill="black" stroke="black" points="430.42,-1110.74 430.35,-1100.15 423.8,-1108.47 430.42,-1110.74"/>
</g>
<!-- repl&#45;&gt;wasm -->
<g id="edge122" class="edge">
<title>repl&#45;&gt;wasm</title>
<path fill="none" stroke="black" d="M334.08,-1586.46C358.83,-1632.07 424.58,-1755.12 472,-1861.24 489.91,-1901.33 472.76,-1927.04 508,-1953.24 575.74,-2003.61 839.95,-1997.4 938.92,-1993.15"/>
<polygon fill="black" stroke="black" points="938.8,-1996.66 948.63,-1992.71 938.48,-1989.67 938.8,-1996.66"/>
</g>
<!-- sat&#45;&gt;parse -->
<g id="edge123" class="edge">
<title>sat&#45;&gt;parse</title>
<path fill="none" stroke="black" d="M863.58,-882.78C876.46,-886.58 891.92,-892.05 904.75,-899.24 960.03,-930.21 977.97,-938.47 1014.5,-990.24 1053.65,-1045.74 1074.68,-1124.01 1083.77,-1165.96"/>
<polygon fill="black" stroke="black" points="1080.3,-1166.47 1085.77,-1175.55 1087.16,-1165.04 1080.3,-1166.47"/>
</g>
<!-- sat&#45;&gt;types -->
<g id="edge124" class="edge">
<title>sat&#45;&gt;types</title>
<path fill="none" stroke="black" d="M863.78,-872.06C909.58,-865.19 1006.75,-852.24 1089.38,-852.24 1089.38,-852.24 1089.38,-852.24 1194.25,-852.24 1272.2,-852.24 1307.57,-844.72 1355.5,-783.24 1399.3,-727.07 1412.87,-504.76 1416.41,-423.87"/>
<polygon fill="black" stroke="black" points="1419.89,-424.22 1416.81,-414.08 1412.9,-423.93 1419.89,-424.22"/>
</g>
<!-- sat&#45;&gt;wasm -->
<g id="edge125" class="edge">
<title>sat&#45;&gt;wasm</title>
<path fill="none" stroke="black" d="M844.55,-894.47C858.72,-931.34 890.19,-1017.71 904.75,-1093.24 921.51,-1180.17 964.84,-1815.69 974.64,-1961.49"/>
<polygon fill="black" stroke="black" points="971.14,-1961.71 975.31,-1971.46 978.13,-1961.24 971.14,-1961.71"/>
</g>
<!-- serve&#45;&gt;core -->
<g id="edge126" class="edge">
<title>serve&#45;&gt;core</title>
<path fill="none" stroke="black" d="M201.36,-1317.1C205.85,-1257.76 223.89,-1064.65 277.25,-915.24 348.62,-715.4 363.23,-652.4 508,-497.24 601.86,-396.65 636.04,-368.17 768,-329.24 826.29,-312.05 844.95,-318.38 904.75,-329.24 916.46,-331.37 928.73,-335.29 939.77,-339.51"/>
<polygon fill="black" stroke="black" points="938.33,-342.7 948.91,-343.19 940.94,-336.21 938.33,-342.7"/>
</g>
<!-- serve&#45;&gt;git -->
<g id="edge127" class="edge">
<title>serve&#45;&gt;git</title>
<path fill="none" stroke="black" d="M226.39,-1346.91C270.88,-1366.82 357.4,-1406.16 369,-1416.24 393.07,-1437.16 412.26,-1468.47 424.14,-1491.07"/>
<polygon fill="black" stroke="black" points="420.89,-1492.4 428.53,-1499.73 427.13,-1489.23 420.89,-1492.4"/>
</g>
<!-- serve&#45;&gt;hash -->
<g id="edge128" class="edge">
<title>serve&#45;&gt;hash</title>
<path fill="none" stroke="black" d="M226.58,-1338.67C260.18,-1343.42 319.73,-1353.15 369,-1368.24 433.17,-1387.9 442.23,-1413.86 508,-1427.24 605.64,-1447.11 632.71,-1426.5 732,-1418.24 753.83,-1416.43 778.22,-1414.08 797.82,-1412.12"/>
<polygon fill="black" stroke="black" points="797.95,-1415.63 807.54,-1411.14 797.24,-1408.66 797.95,-1415.63"/>
</g>
<!-- serve&#45;&gt;init -->
<g id="edge129" class="edge">
<title>serve&#45;&gt;init</title>
<path fill="none" stroke="black" d="M205.1,-1316.76C227.38,-1236.96 325.05,-917.47 508,-728.24 549.14,-685.69 609.48,-651.89 647.84,-632.96"/>
<polygon fill="black" stroke="black" points="649.2,-636.19 656.68,-628.68 646.15,-629.89 649.2,-636.19"/>
</g>
<!-- serve&#45;&gt;metamath -->
<g id="edge130" class="edge">
<title>serve&#45;&gt;metamath</title>
<path fill="none" stroke="black" d="M215.77,-1316.91C230.39,-1300.65 253.47,-1277.09 277.25,-1261.24 314.27,-1236.57 329.01,-1240.74 369,-1221.24 491.54,-1161.5 506.6,-1108.71 638.75,-1075.24 678.93,-1065.07 691.43,-1066.79 732,-1075.24 752.66,-1079.55 774.26,-1088.21 792.34,-1096.79"/>
<polygon fill="black" stroke="black" points="790.67,-1099.87 801.19,-1101.14 793.75,-1093.59 790.67,-1099.87"/>
</g>
<!-- serve&#45;&gt;object -->
<g id="edge131" class="edge">
<title>serve&#45;&gt;object</title>
<path fill="none" stroke="black" d="M226.48,-1322.44C278.68,-1297.86 399.59,-1244.87 508,-1226.24 549.5,-1219.11 565.27,-1207.04 602.75,-1226.24 627.12,-1238.73 619.27,-1257 638.75,-1276.24 641.52,-1278.98 644.54,-1281.64 647.68,-1284.19"/>
<polygon fill="black" stroke="black" points="645.38,-1286.85 655.46,-1290.12 649.62,-1281.28 645.38,-1286.85"/>
</g>
<!-- serve&#45;&gt;proto -->
<g id="edge132" class="edge">
<title>serve&#45;&gt;proto</title>
<path fill="none" stroke="black" d="M216.07,-1353.68C237.17,-1378.06 274.52,-1421.22 298.79,-1449.27"/>
<polygon fill="black" stroke="black" points="295.99,-1451.39 305.18,-1456.66 301.28,-1446.81 295.99,-1451.39"/>
</g>
<!-- serve&#45;&gt;repl -->
<g id="edge133" class="edge">
<title>serve&#45;&gt;repl</title>
<path fill="none" stroke="black" d="M207.34,-1353.66C219.95,-1385.13 247.49,-1450.94 277.25,-1503.24 284.44,-1515.87 293.36,-1529.18 301.35,-1540.45"/>
<polygon fill="black" stroke="black" points="298.49,-1542.46 307.19,-1548.52 304.17,-1538.37 298.49,-1542.46"/>
</g>
<!-- serve&#45;&gt;shell -->
<g id="edge134" class="edge">
<title>serve&#45;&gt;shell</title>
<path fill="none" stroke="black" d="M204.1,-1316.93C212.28,-1283.24 233.96,-1210.87 277.25,-1167.24 308.97,-1135.27 329.58,-1146.02 369,-1124.24 379.88,-1118.24 391.36,-1111.17 401.75,-1104.47"/>
<polygon fill="black" stroke="black" points="403.6,-1107.44 410.06,-1099.04 399.77,-1101.58 403.6,-1107.44"/>
</g>
<!-- serve&#45;&gt;store -->
<g id="edge135" class="edge">
<title>serve&#45;&gt;store</title>
<path fill="none" stroke="black" d="M207.42,-1353.6C216.15,-1375.97 230.89,-1415.01 241.25,-1449.24 260.62,-1513.21 240.68,-1539.31 277.25,-1595.24 316.41,-1655.14 337.81,-1668.61 405,-1693.24 487.16,-1723.37 592.06,-1704.15 646.99,-1690.13"/>
<polygon fill="black" stroke="black" points="647.7,-1693.56 656.47,-1687.62 645.91,-1686.79 647.7,-1693.56"/>
</g>
<!-- sexp&#45;&gt;parse -->
<g id="edge136" class="edge">
<title>sexp&#45;&gt;parse</title>
<path fill="none" stroke="black" d="M990.06,-1035.62C1009.51,-1066.88 1049.14,-1130.58 1072.02,-1167.35"/>
<polygon fill="black" stroke="black" points="1068.95,-1169.04 1077.2,-1175.68 1074.89,-1165.34 1068.95,-1169.04"/>
</g>
<!-- shell&#45;&gt;hol -->
<g id="edge137" class="edge">
<title>shell&#45;&gt;hol</title>
<path fill="none" stroke="black" d="M439.9,-1061.75C441.71,-1008.6 451.8,-851.98 508,-738.24 577.45,-597.71 730.81,-481.1 800.13,-433.4"/>
<polygon fill="black" stroke="black" points="801.79,-436.5 808.09,-427.98 797.85,-430.72 801.79,-436.5"/>
</g>
<!-- shell&#45;&gt;kernel -->
<g id="edge138" class="edge">
<title>shell&#45;&gt;kernel</title>
<path fill="none" stroke="black" d="M465.85,-1062.81C481.03,-1052.77 500.34,-1039.99 517.05,-1028.94"/>
<polygon fill="black" stroke="black" points="518.87,-1031.93 525.28,-1023.49 515.01,-1026.09 518.87,-1031.93"/>
</g>
<!-- smt&#45;&gt;sat -->
<g id="edge139" class="edge">
<title>smt&#45;&gt;sat</title>
<path fill="none" stroke="black" d="M712.55,-813.02C728.42,-822.41 749.17,-834.37 768,-844.24 777.87,-849.42 788.73,-854.73 798.78,-859.51"/>
<polygon fill="black" stroke="black" points="796.99,-862.53 807.53,-863.61 799.97,-856.2 796.99,-862.53"/>
</g>
<!-- smt&#45;&gt;sexp -->
<g id="edge140" class="edge">
<title>smt&#45;&gt;sexp</title>
<path fill="none" stroke="black" d="M712.87,-812.46C719.68,-817.22 726.6,-822.91 732,-829.24 755.73,-857.08 740.3,-879.37 768,-903.24 816.26,-944.84 850.17,-913.38 904.75,-946.24 924.09,-957.89 942.16,-975.78 955.34,-990.68"/>
<polygon fill="black" stroke="black" points="952.36,-992.58 961.52,-997.9 957.67,-988.03 952.36,-992.58"/>
</g>
<!-- smt&#45;&gt;types -->
<g id="edge141" class="edge">
<title>smt&#45;&gt;types</title>
<path fill="none" stroke="black" d="M712.6,-781.33C728.14,-772.69 748.55,-762.69 768,-757.24 857.65,-732.12 883.52,-738.24 976.62,-738.24 976.62,-738.24 976.62,-738.24 1194.25,-738.24 1266.71,-738.24 1303.16,-764.35 1355.5,-714.24 1397.14,-674.38 1411.77,-495.33 1416.01,-423.85"/>
<polygon fill="black" stroke="black" points="1419.49,-424.26 1416.56,-414.08 1412.5,-423.87 1419.49,-424.26"/>
</g>
<!-- spectec&#45;&gt;grammar -->
<g id="edge142" class="edge">
<title>spectec&#45;&gt;grammar</title>
<path fill="none" stroke="black" d="M871.44,-611.59C888.86,-609.22 910.33,-606.29 929.33,-603.7"/>
<polygon fill="black" stroke="black" points="929.54,-607.2 938.98,-602.38 928.6,-600.26 929.54,-607.2"/>
</g>
<!-- store&#45;&gt;hash -->
<g id="edge143" class="edge">
<title>store&#45;&gt;hash</title>
<path fill="none" stroke="black" d="M696.38,-1661.04C721.82,-1614.77 789.11,-1492.39 819.77,-1436.63"/>
<polygon fill="black" stroke="black" points="822.73,-1438.5 824.49,-1428.05 816.6,-1435.13 822.73,-1438.5"/>
</g>
<!-- store&#45;&gt;json -->
<g id="edge144" class="edge">
<title>store&#45;&gt;json</title>
<path fill="none" stroke="black" d="M699.34,-1697.42C725.54,-1734.17 784.92,-1817.47 815.84,-1860.84"/>
<polygon fill="black" stroke="black" points="812.8,-1862.61 821.46,-1868.72 818.5,-1858.55 812.8,-1862.61"/>
</g>
<!-- store&#45;&gt;sqlite -->
<g id="edge145" class="edge">
<title>store&#45;&gt;sqlite</title>
<path fill="none" stroke="black" d="M712.67,-1679.24C736.32,-1679.24 771.33,-1679.24 797.91,-1679.24"/>
<polygon fill="black" stroke="black" points="797.58,-1682.74 807.58,-1679.24 797.58,-1675.74 797.58,-1682.74"/>
</g>
<!-- tcb&#45;db -->
<g id="node54" class="node">
<title>tcb&#45;db</title>
<polygon fill="none" stroke="black" points="715.5,-1906.24 655.25,-1906.24 655.25,-1870.24 715.5,-1870.24 715.5,-1906.24"/>
<text text-anchor="middle" x="685.38" y="-1883.94" font-family="sans-serif" font-size="14.00">tcb&#45;db</text>
</g>
<!-- tcb&#45;db&#45;&gt;json -->
<g id="edge146" class="edge">
<title>tcb&#45;db&#45;&gt;json</title>
<path fill="none" stroke="black" d="M715.81,-1888.24C739.24,-1888.24 772.19,-1888.24 797.57,-1888.24"/>
<polygon fill="black" stroke="black" points="797.48,-1891.74 807.48,-1888.24 797.48,-1884.74 797.48,-1891.74"/>
</g>
<!-- tcb&#45;db&#45;&gt;sqlite -->
<g id="edge147" class="edge">
<title>tcb&#45;db&#45;&gt;sqlite</title>
<path fill="none" stroke="black" d="M715.53,-1874.07C721.4,-1870.41 727.23,-1866.1 732,-1861.24 776.85,-1815.59 808.91,-1746.61 824.56,-1708.01"/>
<polygon fill="black" stroke="black" points="827.73,-1709.51 828.15,-1698.93 821.22,-1706.94 827.73,-1709.51"/>
</g>
<!-- wasm&#45;build&#45;guest -->
<g id="node57" class="node">
<title>wasm&#45;build&#45;guest</title>
<polygon fill="none" stroke="black" points="904.75,-2112.24 768,-2112.24 768,-2076.24 904.75,-2076.24 904.75,-2112.24"/>
<text text-anchor="middle" x="836.38" y="-2089.94" font-family="sans-serif" font-size="14.00">wasm&#45;build&#45;guest</text>
</g>
<!-- wasm&#45;build&#45;guest&#45;&gt;wasm -->
<g id="edge148" class="edge">
<title>wasm&#45;build&#45;guest&#45;&gt;wasm</title>
<path fill="none" stroke="black" d="M881.7,-2075.81C889.64,-2071.79 897.65,-2067.22 904.75,-2062.24 922.71,-2049.65 940.27,-2032.42 953.54,-2018.09"/>
<polygon fill="black" stroke="black" points="956.09,-2020.49 960.2,-2010.73 950.9,-2015.8 956.09,-2020.49"/>
</g>
<!-- wasm&#45;spec -->
<g id="node58" class="node">
<title>wasm&#45;spec</title>
<polygon fill="none" stroke="black" points="732,-1852.24 638.75,-1852.24 638.75,-1816.24 732,-1816.24 732,-1852.24"/>
<text text-anchor="middle" x="685.38" y="-1829.94" font-family="sans-serif" font-size="14.00">wasm&#45;spec</text>
</g>
<!-- wasm&#45;spec&#45;&gt;hash -->
<g id="edge149" class="edge">
<title>wasm&#45;spec&#45;&gt;hash</title>
<path fill="none" stroke="black" d="M718.99,-1815.88C723.92,-1811.92 728.52,-1807.36 732,-1802.24 770.56,-1745.56 750.87,-1718.63 768,-1652.24 788.1,-1574.34 813.9,-1483.08 826.98,-1437.4"/>
<polygon fill="black" stroke="black" points="830.28,-1438.58 829.67,-1428.01 823.55,-1436.65 830.28,-1438.58"/>
</g>
<!-- wasm&#45;spec&#45;&gt;wasm -->
<g id="edge150" class="edge">
<title>wasm&#45;spec&#45;&gt;wasm</title>
<path fill="none" stroke="black" d="M732.34,-1828.47C779.65,-1824.98 853.48,-1826.59 904.75,-1861.24 939.8,-1884.93 959.44,-1931.64 969.03,-1962.14"/>
<polygon fill="black" stroke="black" points="965.61,-1962.91 971.8,-1971.5 972.32,-1960.92 965.61,-1962.91"/>
</g>
<!-- wasm&#45;store&#45;&gt;json -->
<g id="edge151" class="edge">
<title>wasm&#45;store&#45;&gt;json</title>
<path fill="none" stroke="black" d="M603.24,-1925.76C638.77,-1924.8 688.71,-1922.18 732,-1915.24 754.2,-1911.68 778.55,-1905.44 798.04,-1899.86"/>
<polygon fill="black" stroke="black" points="798.84,-1903.27 807.45,-1897.09 796.87,-1896.55 798.84,-1903.27"/>
</g>
<!-- wasm&#45;store&#45;&gt;store -->
<g id="edge152" class="edge">
<title>wasm&#45;store&#45;&gt;store</title>
<path fill="none" stroke="black" d="M565.79,-1908.08C587.89,-1865.44 643.22,-1758.65 669.75,-1707.47"/>
<polygon fill="black" stroke="black" points="672.76,-1709.26 674.25,-1698.78 666.54,-1706.04 672.76,-1709.26"/>
</g>
<!-- wasm&#45;store&#45;&gt;wasm -->
<g id="edge153" class="edge">
<title>wasm&#45;store&#45;&gt;wasm</title>
<path fill="none" stroke="black" d="M568.75,-1944.63C597.73,-1985.83 674.69,-2084.81 768,-2121.24 824.61,-2143.35 852.4,-2152.12 904.75,-2121.24 941.39,-2099.64 960.65,-2051.91 969.72,-2020.69"/>
<polygon fill="black" stroke="black" points="973.08,-2021.65 972.31,-2011.08 966.33,-2019.82 973.08,-2021.65"/>
</g>
<!-- web&#45;kernel -->
<g id="node60" class="node">
<title>web&#45;kernel</title>
<polygon fill="none" stroke="black" points="369,-223.24 277.25,-223.24 277.25,-187.24 369,-187.24 369,-223.24"/>
<text text-anchor="middle" x="323.12" y="-200.94" font-family="sans-serif" font-size="14.00">web&#45;kernel</text>
</g>
<!-- web&#45;kernel&#45;&gt;haskell -->
<g id="edge154" class="edge">
<title>web&#45;kernel&#45;&gt;haskell</title>
<path fill="none" stroke="black" d="M369.26,-186.93C378.22,-183.3 387.57,-179.5 396.39,-175.92"/>
<polygon fill="black" stroke="black" points="397.45,-179.27 405.4,-172.27 394.82,-172.78 397.45,-179.27"/>
</g>
<!-- web&#45;kernel&#45;&gt;hol&#45;api -->
<g id="edge155" class="edge">
<title>web&#45;kernel&#45;&gt;hol&#45;api</title>
<path fill="none" stroke="black" d="M369.34,-200.73C410.94,-196.57 472.14,-190.46 512.61,-186.41"/>
<polygon fill="black" stroke="black" points="512.84,-189.91 522.45,-185.43 512.15,-182.94 512.84,-189.91"/>
</g>
<!-- web&#45;kernel&#45;&gt;kernel -->
<g id="edge156" class="edge">
<title>web&#45;kernel&#45;&gt;kernel</title>
<path fill="none" stroke="black" d="M329.19,-223.55C354.73,-315.8 469.64,-730.19 508,-858.24 520.19,-898.95 535.23,-945.72 544.81,-975.13"/>
<polygon fill="black" stroke="black" points="541.42,-976.01 547.85,-984.43 548.07,-973.83 541.42,-976.01"/>
</g>
</g>
</svg>
