<?xml version="1.0" encoding="UTF-8" standalone="no"?>
<!DOCTYPE svg PUBLIC "-//W3C//DTD SVG 1.1//EN"
 "http://www.w3.org/Graphics/SVG/1.1/DTD/svg11.dtd">
<!-- Generated by graphviz version 12.2.1 (0)
 -->
<!-- Title: deps Pages: 1 -->
<svg width="1478pt" height="1780pt"
 viewBox="0.00 0.00 1477.50 1780.30" xmlns="http://www.w3.org/2000/svg" xmlns:xlink="http://www.w3.org/1999/xlink">
<g id="graph0" class="graph" transform="scale(1 1) rotate(0) translate(4 1776.3)">
<title>deps</title>
<polygon fill="white" stroke="none" points="-4,4 -4,-1776.3 1473.5,-1776.3 1473.5,4 -4,4"/>
<!-- covalence -->
<g id="node1" class="node">
<title>covalence</title>
<polygon fill="none" stroke="black" points="102.62,-1429 18.38,-1429 18.38,-1393 102.62,-1393 102.62,-1429"/>
<text text-anchor="middle" x="60.5" y="-1406.7" font-family="sans-serif" font-size="14.00">covalence</text>
</g>
<!-- client -->
<g id="node5" class="node">
<title>client</title>
<polygon fill="none" stroke="black" points="349.75,-1627 295.75,-1627 295.75,-1591 349.75,-1591 349.75,-1627"/>
<text text-anchor="middle" x="322.75" y="-1604.7" font-family="sans-serif" font-size="14.00">client</text>
</g>
<!-- covalence&#45;&gt;client -->
<g id="edge1" class="edge">
<title>covalence&#45;&gt;client</title>
<path fill="none" stroke="black" d="M102.91,-1423.91C109.7,-1427.56 116.11,-1432.18 121,-1438 162.07,-1486.85 110.51,-1533.29 157,-1577 191,-1608.97 246.94,-1613.46 284.07,-1612.34"/>
<polygon fill="black" stroke="black" points="284.07,-1615.85 293.89,-1611.88 283.74,-1608.86 284.07,-1615.85"/>
</g>
<!-- fuse -->
<g id="node11" class="node">
<title>fuse</title>
<polygon fill="none" stroke="black" points="606.38,-1300 552.38,-1300 552.38,-1264 606.38,-1264 606.38,-1300"/>
<text text-anchor="middle" x="579.38" y="-1277.7" font-family="sans-serif" font-size="14.00">fuse</text>
</g>
<!-- covalence&#45;&gt;fuse -->
<g id="edge2" class="edge">
<title>covalence&#45;&gt;fuse</title>
<path fill="none" stroke="black" d="M101.93,-1429.38C185.29,-1464.19 378.3,-1528.57 496,-1438 541.48,-1403 498.44,-1360.55 532,-1314 535.12,-1309.67 539.03,-1305.72 543.23,-1302.2"/>
<polygon fill="black" stroke="black" points="544.99,-1305.26 550.93,-1296.49 540.81,-1299.64 544.99,-1305.26"/>
</g>
<!-- git -->
<g id="node12" class="node">
<title>git</title>
<polygon fill="none" stroke="black" points="477.12,-1170 423.12,-1170 423.12,-1134 477.12,-1134 477.12,-1170"/>
<text text-anchor="middle" x="450.12" y="-1147.7" font-family="sans-serif" font-size="14.00">git</text>
</g>
<!-- covalence&#45;&gt;git -->
<g id="edge3" class="edge">
<title>covalence&#45;&gt;git</title>
<path fill="none" stroke="black" d="M102.88,-1415.04C167.11,-1418.99 291.39,-1417.03 368.25,-1354 421.5,-1310.34 439.92,-1226.43 446.11,-1181.74"/>
<polygon fill="black" stroke="black" points="449.56,-1182.35 447.34,-1172 442.62,-1181.48 449.56,-1182.35"/>
</g>
<!-- hash -->
<g id="node15" class="node">
<title>hash</title>
<polygon fill="none" stroke="black" points="887.38,-1326 833.38,-1326 833.38,-1290 887.38,-1290 887.38,-1326"/>
<text text-anchor="middle" x="860.38" y="-1303.7" font-family="sans-serif" font-size="14.00">hash</text>
</g>
<!-- covalence&#45;&gt;hash -->
<g id="edge4" class="edge">
<title>covalence&#45;&gt;hash</title>
<path fill="none" stroke="black" d="M103.12,-1423.73C109.9,-1427.4 116.24,-1432.07 121,-1438 169.37,-1498.21 106.67,-1549.42 157,-1608 207.98,-1667.34 243.51,-1670 321.75,-1670 321.75,-1670 321.75,-1670 580.38,-1670 747.85,-1670 828.82,-1423.91 852.09,-1337.54"/>
<polygon fill="black" stroke="black" points="855.46,-1338.47 854.61,-1327.91 848.69,-1336.7 855.46,-1338.47"/>
</g>
<!-- hol -->
<g id="node16" class="node">
<title>hol</title>
<polygon fill="none" stroke="black" points="887.38,-1612 833.38,-1612 833.38,-1576 887.38,-1576 887.38,-1612"/>
<text text-anchor="middle" x="860.38" y="-1589.7" font-family="sans-serif" font-size="14.00">hol</text>
</g>
<!-- covalence&#45;&gt;hol -->
<g id="edge5" class="edge">
<title>covalence&#45;&gt;hol</title>
<path fill="none" stroke="black" d="M103.02,-1423.41C109.89,-1427.12 116.29,-1431.89 121,-1438 179.33,-1513.7 95.41,-1576.92 157,-1650 207.02,-1709.36 244.12,-1708 321.75,-1708 321.75,-1708 321.75,-1708 580.38,-1708 674.07,-1708 773.19,-1652.23 824.31,-1618.7"/>
<polygon fill="black" stroke="black" points="826.24,-1621.62 832.62,-1613.16 822.36,-1615.8 826.24,-1621.62"/>
</g>
<!-- lsp -->
<g id="node24" class="node">
<title>lsp</title>
<polygon fill="none" stroke="black" points="887.38,-400 833.38,-400 833.38,-364 887.38,-364 887.38,-400"/>
<text text-anchor="middle" x="860.38" y="-377.7" font-family="sans-serif" font-size="14.00">lsp</text>
</g>
<!-- covalence&#45;&gt;lsp -->
<g id="edge6" class="edge">
<title>covalence&#45;&gt;lsp</title>
<path fill="none" stroke="black" d="M62.07,-1392.69C65.75,-1302.54 92.31,-900.19 277.25,-651 415.88,-464.2 716.01,-403.13 821.66,-386.99"/>
<polygon fill="black" stroke="black" points="822.11,-390.46 831.49,-385.54 821.08,-383.54 822.11,-390.46"/>
</g>
<!-- object -->
<g id="node27" class="node">
<title>object</title>
<polygon fill="none" stroke="black" points="738,-1104 680.75,-1104 680.75,-1068 738,-1068 738,-1104"/>
<text text-anchor="middle" x="709.38" y="-1081.7" font-family="sans-serif" font-size="14.00">object</text>
</g>
<!-- covalence&#45;&gt;object -->
<g id="edge7" class="edge">
<title>covalence&#45;&gt;object</title>
<path fill="none" stroke="black" d="M63.21,-1392.64C68.51,-1345.49 88.7,-1218.63 157,-1144 238.69,-1054.73 293.39,-1078.49 404.25,-1030 444.69,-1012.31 456.05,-1010.77 496,-992 512.38,-984.31 514.44,-977.35 532,-973 572.88,-962.88 591.69,-949.67 626.75,-973 661.25,-995.96 635.54,-1027.75 662.75,-1059 665.31,-1061.93 668.26,-1064.64 671.42,-1067.1"/>
<polygon fill="black" stroke="black" points="669.18,-1069.82 679.41,-1072.57 673.13,-1064.04 669.18,-1069.82"/>
</g>
<!-- opentheory -->
<g id="node28" class="node">
<title>opentheory</title>
<polygon fill="none" stroke="black" points="368.25,-1772 277.25,-1772 277.25,-1736 368.25,-1736 368.25,-1772"/>
<text text-anchor="middle" x="322.75" y="-1749.7" font-family="sans-serif" font-size="14.00">opentheory</text>
</g>
<!-- covalence&#45;&gt;opentheory -->
<g id="edge8" class="edge">
<title>covalence&#45;&gt;opentheory</title>
<path fill="none" stroke="black" d="M102.93,-1423.09C109.89,-1426.84 116.35,-1431.7 121,-1438 196.52,-1540.4 70.04,-1629.12 157,-1722 184.22,-1751.08 229.35,-1758.22 265.5,-1758.57"/>
<polygon fill="black" stroke="black" points="265.41,-1762.07 275.37,-1758.48 265.34,-1755.07 265.41,-1762.07"/>
</g>
<!-- proto -->
<g id="node31" class="node">
<title>proto</title>
<polygon fill="none" stroke="black" points="349.75,-1345 295.75,-1345 295.75,-1309 349.75,-1309 349.75,-1345"/>
<text text-anchor="middle" x="322.75" y="-1322.7" font-family="sans-serif" font-size="14.00">proto</text>
</g>
<!-- covalence&#45;&gt;proto -->
<g id="edge9" class="edge">
<title>covalence&#45;&gt;proto</title>
<path fill="none" stroke="black" d="M89.68,-1392.66C108.15,-1381.41 133.2,-1367.56 157,-1359 199.18,-1343.83 250.17,-1335.34 284.14,-1330.97"/>
<polygon fill="black" stroke="black" points="284.4,-1334.47 293.91,-1329.78 283.56,-1327.52 284.4,-1334.47"/>
</g>
<!-- repl -->
<g id="node37" class="node">
<title>repl</title>
<polygon fill="none" stroke="black" points="349.75,-899 295.75,-899 295.75,-863 349.75,-863 349.75,-899"/>
<text text-anchor="middle" x="322.75" y="-876.7" font-family="sans-serif" font-size="14.00">repl</text>
</g>
<!-- covalence&#45;&gt;repl -->
<g id="edge10" class="edge">
<title>covalence&#45;&gt;repl</title>
<path fill="none" stroke="black" d="M65.23,-1392.66C75.44,-1344.57 106.52,-1211.65 157,-1111 196.92,-1031.41 262.92,-949.2 298.04,-908"/>
<polygon fill="black" stroke="black" points="300.61,-910.38 304.47,-900.52 295.3,-905.82 300.61,-910.38"/>
</g>
<!-- serve -->
<g id="node39" class="node">
<title>serve</title>
<polygon fill="none" stroke="black" points="226.12,-1189 172.12,-1189 172.12,-1153 226.12,-1153 226.12,-1189"/>
<text text-anchor="middle" x="199.12" y="-1166.7" font-family="sans-serif" font-size="14.00">serve</text>
</g>
<!-- covalence&#45;&gt;serve -->
<g id="edge11" class="edge">
<title>covalence&#45;&gt;serve</title>
<path fill="none" stroke="black" d="M67.73,-1392.73C80.74,-1356.1 113.26,-1271.96 157,-1211 160.4,-1206.27 164.39,-1201.61 168.53,-1197.24"/>
<polygon fill="black" stroke="black" points="170.86,-1199.85 175.47,-1190.31 165.92,-1194.89 170.86,-1199.85"/>
</g>
<!-- shell -->
<g id="node41" class="node">
<title>shell</title>
<polygon fill="none" stroke="black" points="477.12,-1429 423.12,-1429 423.12,-1393 477.12,-1393 477.12,-1429"/>
<text text-anchor="middle" x="450.12" y="-1406.7" font-family="sans-serif" font-size="14.00">shell</text>
</g>
<!-- covalence&#45;&gt;shell -->
<g id="edge12" class="edge">
<title>covalence&#45;&gt;shell</title>
<path fill="none" stroke="black" d="M102.75,-1416.31C161.71,-1423.13 273.44,-1433.15 368.25,-1425 382.56,-1423.77 398.13,-1421.34 411.76,-1418.84"/>
<polygon fill="black" stroke="black" points="412.03,-1422.36 421.2,-1417.04 410.72,-1415.48 412.03,-1422.36"/>
</g>
<!-- store -->
<g id="node45" class="node">
<title>store</title>
<polygon fill="none" stroke="black" points="736.38,-1272 682.38,-1272 682.38,-1236 736.38,-1236 736.38,-1272"/>
<text text-anchor="middle" x="709.38" y="-1249.7" font-family="sans-serif" font-size="14.00">store</text>
</g>
<!-- covalence&#45;&gt;store -->
<g id="edge13" class="edge">
<title>covalence&#45;&gt;store</title>
<path fill="none" stroke="black" d="M102.98,-1427.3C109.24,-1430.47 115.46,-1434.05 121,-1438 139.95,-1451.5 136.46,-1465.08 157,-1476 223.52,-1511.36 438.24,-1520.37 496,-1472 530.62,-1443.01 504.24,-1412.61 532,-1377 537.18,-1370.36 622.71,-1311.95 672.73,-1278.07"/>
<polygon fill="black" stroke="black" points="674.65,-1280.99 680.97,-1272.49 670.73,-1275.2 674.65,-1280.99"/>
</g>
<!-- wasm -->
<g id="node47" class="node">
<title>wasm</title>
<polygon fill="none" stroke="black" points="1028.75,-252 974.5,-252 974.5,-216 1028.75,-216 1028.75,-252"/>
<text text-anchor="middle" x="1001.62" y="-229.7" font-family="sans-serif" font-size="14.00">wasm</text>
</g>
<!-- covalence&#45;&gt;wasm -->
<g id="edge14" class="edge">
<title>covalence&#45;&gt;wasm</title>
<path fill="none" stroke="black" d="M63.68,-1392.6C76.55,-1284.32 142.49,-733.81 157,-701 278.47,-426.38 381.29,-357.64 662.75,-253 765.92,-214.65 899.03,-222.25 963.01,-229.09"/>
<polygon fill="black" stroke="black" points="962.3,-232.53 972.63,-230.18 963.08,-225.58 962.3,-232.53"/>
</g>
<!-- acset -->
<g id="node2" class="node">
<title>acset</title>
<polygon fill="none" stroke="black" points="887.38,-752 833.38,-752 833.38,-716 887.38,-716 887.38,-752"/>
<text text-anchor="middle" x="860.38" y="-729.7" font-family="sans-serif" font-size="14.00">acset</text>
</g>
<!-- alethe -->
<g id="node3" class="node">
<title>alethe</title>
<polygon fill="none" stroke="black" points="607.62,-590 551.12,-590 551.12,-554 607.62,-554 607.62,-590"/>
<text text-anchor="middle" x="579.38" y="-567.7" font-family="sans-serif" font-size="14.00">alethe</text>
</g>
<!-- core -->
<g id="node6" class="node">
<title>core</title>
<polygon fill="#ffd6d6" stroke="black" points="1028.62,-1126 974.62,-1126 974.62,-1090 1028.62,-1090 1028.62,-1126"/>
<text text-anchor="middle" x="1001.62" y="-1103.7" font-family="sans-serif" font-size="14.00">core</text>
</g>
<!-- alethe&#45;&gt;core -->
<g id="edge15" class="edge">
<title>alethe&#45;&gt;core</title>
<path fill="none" stroke="black" d="M607.78,-585.45C615.05,-590.31 622.15,-596.49 626.75,-604 689.79,-706.84 589.82,-776.92 662.75,-873 690.02,-908.92 726.82,-878.62 756,-913 799.24,-963.96 744.48,-1012 792,-1059 793.54,-1060.53 903.64,-1085.85 963.25,-1099.48"/>
<polygon fill="black" stroke="black" points="962.44,-1102.88 972.97,-1101.7 964,-1096.06 962.44,-1102.88"/>
</g>
<!-- hol&#45;eval -->
<g id="node17" class="node">
<title>hol&#45;eval</title>
<polygon fill="none" stroke="black" points="895.38,-958 825.38,-958 825.38,-922 895.38,-922 895.38,-958"/>
<text text-anchor="middle" x="860.38" y="-935.7" font-family="sans-serif" font-size="14.00">hol&#45;eval</text>
</g>
<!-- alethe&#45;&gt;hol&#45;eval -->
<g id="edge16" class="edge">
<title>alethe&#45;&gt;hol&#45;eval</title>
<path fill="none" stroke="black" d="M607.69,-585.51C614.95,-590.37 622.07,-596.54 626.75,-604 682.41,-692.78 599.67,-753.33 662.75,-837 690.22,-873.44 715.5,-858.97 756,-880 777.39,-891.11 800.64,-904.48 819.67,-915.78"/>
<polygon fill="black" stroke="black" points="817.81,-918.75 828.19,-920.88 821.4,-912.74 817.81,-918.75"/>
</g>
<!-- init -->
<g id="node18" class="node">
<title>init</title>
<polygon fill="none" stroke="black" points="736.38,-958 682.38,-958 682.38,-922 736.38,-922 736.38,-958"/>
<text text-anchor="middle" x="709.38" y="-935.7" font-family="sans-serif" font-size="14.00">init</text>
</g>
<!-- alethe&#45;&gt;init -->
<g id="edge17" class="edge">
<title>alethe&#45;&gt;init</title>
<path fill="none" stroke="black" d="M607.85,-585.4C615.13,-590.27 622.21,-596.46 626.75,-604 696.97,-720.53 592.97,-791.2 662.75,-908 665.52,-912.64 669.25,-916.77 673.39,-920.4"/>
<polygon fill="black" stroke="black" points="671,-922.98 681.08,-926.24 675.23,-917.41 671,-922.98"/>
</g>
<!-- sexp -->
<g id="node40" class="node">
<title>sexp</title>
<polygon fill="none" stroke="black" points="1028.62,-668 974.62,-668 974.62,-632 1028.62,-632 1028.62,-668"/>
<text text-anchor="middle" x="1001.62" y="-645.7" font-family="sans-serif" font-size="14.00">sexp</text>
</g>
<!-- alethe&#45;&gt;sexp -->
<g id="edge18" class="edge">
<title>alethe&#45;&gt;sexp</title>
<path fill="none" stroke="black" d="M607.89,-589.54C623.41,-598.61 643.5,-609 662.75,-615 768.01,-647.81 899.72,-651.36 963.12,-650.89"/>
<polygon fill="black" stroke="black" points="963.02,-654.4 972.98,-650.78 962.94,-647.4 963.02,-654.4"/>
</g>
<!-- smt -->
<g id="node42" class="node">
<title>smt</title>
<polygon fill="none" stroke="black" points="736.38,-346 682.38,-346 682.38,-310 736.38,-310 736.38,-346"/>
<text text-anchor="middle" x="709.38" y="-323.7" font-family="sans-serif" font-size="14.00">smt</text>
</g>
<!-- alethe&#45;&gt;smt -->
<g id="edge19" class="edge">
<title>alethe&#45;&gt;smt</title>
<path fill="none" stroke="black" d="M583.72,-553.76C591.62,-514.7 614.51,-421.53 662.75,-360 665.7,-356.23 669.22,-352.72 672.98,-349.52"/>
<polygon fill="black" stroke="black" points="674.99,-352.38 680.8,-343.52 670.74,-346.82 674.99,-352.38"/>
</g>
<!-- types -->
<g id="node46" class="node">
<title>types</title>
<polygon fill="#ffd6d6" stroke="black" points="1469.5,-942 1415.5,-942 1415.5,-906 1469.5,-906 1469.5,-942"/>
<text text-anchor="middle" x="1442.5" y="-919.7" font-family="sans-serif" font-size="14.00">types</text>
</g>
<!-- alethe&#45;&gt;types -->
<g id="edge20" class="edge">
<title>alethe&#45;&gt;types</title>
<path fill="none" stroke="black" d="M580.6,-553.62C582.86,-455.71 606.91,0 859.38,0 859.38,0 859.38,0 1218.25,0 1299.68,0 1335.22,-18.66 1379.5,-87 1424.21,-155.99 1438.27,-753.78 1440.98,-894.45"/>
<polygon fill="black" stroke="black" points="1437.47,-894.11 1441.16,-904.04 1444.47,-893.98 1437.47,-894.11"/>
</g>
<!-- arrow -->
<g id="node4" class="node">
<title>arrow</title>
<polygon fill="none" stroke="black" points="606.38,-888 552.38,-888 552.38,-852 606.38,-852 606.38,-888"/>
<text text-anchor="middle" x="579.38" y="-865.7" font-family="sans-serif" font-size="14.00">arrow</text>
</g>
<!-- client&#45;&gt;hash -->
<g id="edge21" class="edge">
<title>client&#45;&gt;hash</title>
<path fill="none" stroke="black" d="M350.11,-1610.52C425.24,-1613.31 642.37,-1610.42 756,-1494 801.56,-1447.32 833.45,-1376.55 848.85,-1337.12"/>
<polygon fill="black" stroke="black" points="852.1,-1338.42 852.39,-1327.83 845.56,-1335.93 852.1,-1338.42"/>
</g>
<!-- client&#45;&gt;shell -->
<g id="edge22" class="edge">
<title>client&#45;&gt;shell</title>
<path fill="none" stroke="black" d="M335.32,-1590.73C357.34,-1555.95 405.39,-1480.07 431.46,-1438.9"/>
<polygon fill="black" stroke="black" points="434.38,-1440.83 436.77,-1430.51 428.47,-1437.08 434.38,-1440.83"/>
</g>
<!-- client&#45;&gt;store -->
<g id="edge23" class="edge">
<title>client&#45;&gt;store</title>
<path fill="none" stroke="black" d="M349.99,-1599.67C385.63,-1586.14 450.12,-1558.53 496,-1521 584.11,-1448.93 659.62,-1334.59 691.79,-1282.06"/>
<polygon fill="black" stroke="black" points="694.66,-1284.08 696.85,-1273.71 688.68,-1280.45 694.66,-1284.08"/>
</g>
<!-- pure -->
<g id="node32" class="node">
<title>pure</title>
<polygon fill="#ffd6d6" stroke="black" points="1244.25,-1030 1190.25,-1030 1190.25,-994 1244.25,-994 1244.25,-1030"/>
<text text-anchor="middle" x="1217.25" y="-1007.7" font-family="sans-serif" font-size="14.00">pure</text>
</g>
<!-- core&#45;&gt;pure -->
<g id="edge24" class="edge">
<title>core&#45;&gt;pure</title>
<path fill="none" stroke="black" d="M1028.82,-1096.23C1066.62,-1079.24 1136.61,-1047.79 1179.55,-1028.49"/>
<polygon fill="black" stroke="black" points="1180.77,-1031.78 1188.46,-1024.49 1177.9,-1025.39 1180.77,-1031.78"/>
</g>
<!-- pure&#45;eval -->
<g id="node33" class="node">
<title>pure&#45;eval</title>
<polygon fill="#ffd6d6" stroke="black" points="1154.25,-988 1074.5,-988 1074.5,-952 1154.25,-952 1154.25,-988"/>
<text text-anchor="middle" x="1114.38" y="-965.7" font-family="sans-serif" font-size="14.00">pure&#45;eval</text>
</g>
<!-- core&#45;&gt;pure&#45;eval -->
<g id="edge25" class="edge">
<title>core&#45;&gt;pure&#45;eval</title>
<path fill="none" stroke="black" d="M1028.97,-1089.8C1032.33,-1087.02 1035.6,-1084.05 1038.5,-1081 1062.62,-1055.6 1084.29,-1021.64 1098.04,-998"/>
<polygon fill="black" stroke="black" points="1100.94,-999.98 1102.85,-989.56 1094.85,-996.51 1100.94,-999.98"/>
</g>
<!-- core&#45;&gt;types -->
<g id="edge26" class="edge">
<title>core&#45;&gt;types</title>
<path fill="none" stroke="black" d="M1028.88,-1110.35C1094.7,-1114.85 1269.39,-1117.98 1379.5,-1038 1407.92,-1017.36 1424.72,-979.57 1433.51,-953.18"/>
<polygon fill="black" stroke="black" points="1436.82,-954.34 1436.45,-943.75 1430.14,-952.26 1436.82,-954.34"/>
</g>
<!-- core&#45;test&#45;guest -->
<g id="node7" class="node">
<title>core&#45;test&#45;guest</title>
<polygon fill="none" stroke="black" points="121,-1483 0,-1483 0,-1447 121,-1447 121,-1483"/>
<text text-anchor="middle" x="60.5" y="-1460.7" font-family="sans-serif" font-size="14.00">core&#45;test&#45;guest</text>
</g>
<!-- crypto&#45;sig -->
<g id="node8" class="node">
<title>crypto&#45;sig</title>
<polygon fill="none" stroke="black" points="241.25,-419 157,-419 157,-383 241.25,-383 241.25,-419"/>
<text text-anchor="middle" x="199.12" y="-396.7" font-family="sans-serif" font-size="14.00">crypto&#45;sig</text>
</g>
<!-- egglog -->
<g id="node9" class="node">
<title>egglog</title>
<polygon fill="none" stroke="black" points="890.88,-454 829.88,-454 829.88,-418 890.88,-418 890.88,-454"/>
<text text-anchor="middle" x="860.38" y="-431.7" font-family="sans-serif" font-size="14.00">egglog</text>
</g>
<!-- egglog&#45;&gt;sexp -->
<g id="edge27" class="edge">
<title>egglog&#45;&gt;sexp</title>
<path fill="none" stroke="black" d="M882.26,-454.5C896.53,-467.85 915.23,-486.85 928.75,-506 954.9,-543.04 976.77,-590.98 989.29,-621.12"/>
<polygon fill="black" stroke="black" points="986.03,-622.4 993.05,-630.34 992.51,-619.76 986.03,-622.4"/>
</g>
<!-- egglog&#45;&gt;types -->
<g id="edge28" class="edge">
<title>egglog&#45;&gt;types</title>
<path fill="none" stroke="black" d="M891.11,-430.14C938.11,-421.41 1032.53,-406 1113.38,-406 1113.38,-406 1113.38,-406 1218.25,-406 1432.51,-406 1443.6,-784.39 1442.3,-894.36"/>
<polygon fill="black" stroke="black" points="1438.81,-893.99 1442.14,-904.05 1445.81,-894.11 1438.81,-893.99"/>
</g>
<!-- forsp -->
<g id="node10" class="node">
<title>forsp</title>
<polygon fill="none" stroke="black" points="736.38,-1050 682.38,-1050 682.38,-1014 736.38,-1014 736.38,-1050"/>
<text text-anchor="middle" x="709.38" y="-1027.7" font-family="sans-serif" font-size="14.00">forsp</text>
</g>
<!-- forsp&#45;&gt;hash -->
<g id="edge29" class="edge">
<title>forsp&#45;&gt;hash</title>
<path fill="none" stroke="black" d="M736.68,-1042.43C743.99,-1046.55 751.23,-1052 756,-1059 812.32,-1141.58 729.52,-1202.98 792,-1281 799.5,-1290.37 810.75,-1296.5 821.92,-1300.51"/>
<polygon fill="black" stroke="black" points="820.88,-1303.86 831.46,-1303.42 822.92,-1297.16 820.88,-1303.86"/>
</g>
<!-- forsp&#45;&gt;sexp -->
<g id="edge30" class="edge">
<title>forsp&#45;&gt;sexp</title>
<path fill="none" stroke="black" d="M724.89,-1013.65C734.48,-1001.01 746.91,-983.56 756,-967 776.14,-930.32 764.76,-911.77 792,-880 838.28,-826.03 880.81,-849.5 928.75,-797 960.48,-762.25 981.24,-710.92 991.94,-679.02"/>
<polygon fill="black" stroke="black" points="995.23,-680.24 994.97,-669.65 988.57,-678.09 995.23,-680.24"/>
</g>
<!-- fuse&#45;&gt;hash -->
<g id="edge31" class="edge">
<title>fuse&#45;&gt;hash</title>
<path fill="none" stroke="black" d="M606.87,-1284.47C656.65,-1289.11 764.28,-1299.14 821.62,-1304.48"/>
<polygon fill="black" stroke="black" points="821.26,-1307.96 831.55,-1305.41 821.91,-1300.99 821.26,-1307.96"/>
</g>
<!-- fuse&#45;&gt;object -->
<g id="edge32" class="edge">
<title>fuse&#45;&gt;object</title>
<path fill="none" stroke="black" d="M592.42,-1263.56C614.96,-1229.04 663.66,-1154.46 690.21,-1113.81"/>
<polygon fill="black" stroke="black" points="693.09,-1115.8 695.63,-1105.51 687.23,-1111.97 693.09,-1115.8"/>
</g>
<!-- fuse&#45;&gt;store -->
<g id="edge33" class="edge">
<title>fuse&#45;&gt;store</title>
<path fill="none" stroke="black" d="M606.59,-1276.27C625.22,-1272.19 650.52,-1266.66 671.23,-1262.12"/>
<polygon fill="black" stroke="black" points="671.7,-1265.61 680.72,-1260.05 670.2,-1258.77 671.7,-1265.61"/>
</g>
<!-- git&#45;&gt;hash -->
<g id="edge34" class="edge">
<title>git&#45;&gt;hash</title>
<path fill="none" stroke="black" d="M477.45,-1166.38C484.31,-1171.2 491.14,-1177.13 496,-1184 529.4,-1231.19 485.81,-1274.23 532,-1309 618.28,-1373.94 756.83,-1341.93 822.53,-1321.11"/>
<polygon fill="black" stroke="black" points="823.32,-1324.54 831.74,-1318.1 821.14,-1317.88 823.32,-1324.54"/>
</g>
<!-- git&#45;&gt;object -->
<g id="edge35" class="edge">
<title>git&#45;&gt;object</title>
<path fill="none" stroke="black" d="M477.21,-1145.31C522.55,-1133.68 616.13,-1109.67 669.27,-1096.03"/>
<polygon fill="black" stroke="black" points="669.99,-1099.46 678.81,-1093.58 668.26,-1092.68 669.99,-1099.46"/>
</g>
<!-- sqlite -->
<g id="node44" class="node">
<title>sqlite</title>
<polygon fill="none" stroke="black" points="887.38,-1272 833.38,-1272 833.38,-1236 887.38,-1236 887.38,-1272"/>
<text text-anchor="middle" x="860.38" y="-1249.7" font-family="sans-serif" font-size="14.00">sqlite</text>
</g>
<!-- git&#45;&gt;sqlite -->
<g id="edge36" class="edge">
<title>git&#45;&gt;sqlite</title>
<path fill="none" stroke="black" d="M477.54,-1155.18C512.11,-1159.62 574.44,-1168.54 626.75,-1181 696.97,-1197.73 776.88,-1224.57 822.39,-1240.62"/>
<polygon fill="black" stroke="black" points="821.18,-1243.9 831.77,-1243.95 823.52,-1237.31 821.18,-1243.9"/>
</g>
<!-- git&#45;&gt;store -->
<g id="edge37" class="edge">
<title>git&#45;&gt;store</title>
<path fill="none" stroke="black" d="M477.21,-1162.34C523.24,-1180.59 618.99,-1218.56 671.67,-1239.45"/>
<polygon fill="black" stroke="black" points="670.23,-1242.64 680.82,-1243.07 672.81,-1236.13 670.23,-1242.64"/>
</g>
<!-- grammar -->
<g id="node13" class="node">
<title>grammar</title>
<polygon fill="none" stroke="black" points="1038.5,-1072 964.75,-1072 964.75,-1036 1038.5,-1036 1038.5,-1072"/>
<text text-anchor="middle" x="1001.62" y="-1049.7" font-family="sans-serif" font-size="14.00">grammar</text>
</g>
<!-- graph -->
<g id="node14" class="node">
<title>graph</title>
<polygon fill="none" stroke="black" points="477.12,-983 423.12,-983 423.12,-947 477.12,-947 477.12,-983"/>
<text text-anchor="middle" x="450.12" y="-960.7" font-family="sans-serif" font-size="14.00">graph</text>
</g>
<!-- graph&#45;&gt;hash -->
<g id="edge38" class="edge">
<title>graph&#45;&gt;hash</title>
<path fill="none" stroke="black" d="M474.49,-983.29C519.36,-1018.51 614.23,-1093.55 626.75,-1108 647.11,-1131.5 641.02,-1145.75 662.75,-1168 697.02,-1203.09 720.91,-1192.74 756,-1227 776.64,-1247.15 769.61,-1262.82 792,-1281 800.86,-1288.19 811.88,-1293.67 822.42,-1297.76"/>
<polygon fill="black" stroke="black" points="821.11,-1301 831.7,-1301.02 823.43,-1294.4 821.11,-1301"/>
</g>
<!-- parse -->
<g id="node30" class="node">
<title>parse</title>
<polygon fill="none" stroke="black" points="1141.38,-645 1087.38,-645 1087.38,-609 1141.38,-609 1141.38,-645"/>
<text text-anchor="middle" x="1114.38" y="-622.7" font-family="sans-serif" font-size="14.00">parse</text>
</g>
<!-- graph&#45;&gt;parse -->
<g id="edge39" class="edge">
<title>graph&#45;&gt;parse</title>
<path fill="none" stroke="black" d="M461.14,-946.62C471.63,-926.48 487.72,-892.9 496,-862 514.36,-793.52 479.12,-592.22 532,-545 690.6,-403.39 976.71,-546.98 1077.26,-605.03"/>
<polygon fill="black" stroke="black" points="1075.24,-607.91 1085.64,-609.93 1078.77,-601.86 1075.24,-607.91"/>
</g>
<!-- rand -->
<g id="node36" class="node">
<title>rand</title>
<polygon fill="none" stroke="black" points="1028.62,-1326 974.62,-1326 974.62,-1290 1028.62,-1290 1028.62,-1326"/>
<text text-anchor="middle" x="1001.62" y="-1303.7" font-family="sans-serif" font-size="14.00">rand</text>
</g>
<!-- hash&#45;&gt;rand -->
<g id="edge40" class="edge">
<title>hash&#45;&gt;rand</title>
<path fill="none" stroke="black" d="M887.57,-1308C908.86,-1308 939.19,-1308 963.07,-1308"/>
<polygon fill="black" stroke="black" points="963.04,-1311.5 973.04,-1308 963.04,-1304.5 963.04,-1311.5"/>
</g>
<!-- hol&#45;&gt;core -->
<g id="edge41" class="edge">
<title>hol&#45;&gt;core</title>
<path fill="none" stroke="black" d="M887.61,-1576.76C902.16,-1565.75 919.2,-1550.14 928.75,-1532 981.26,-1432.28 945.3,-1392.01 964.75,-1281 973.63,-1230.32 986.27,-1171.79 993.94,-1137.45"/>
<polygon fill="black" stroke="black" points="997.32,-1138.36 996.09,-1127.84 990.49,-1136.83 997.32,-1138.36"/>
</g>
<!-- hol&#45;eval&#45;&gt;core -->
<g id="edge42" class="edge">
<title>hol&#45;eval&#45;&gt;core</title>
<path fill="none" stroke="black" d="M884.36,-958.44C898.45,-970.58 916.14,-987.44 928.75,-1005 950.55,-1035.36 941.13,-1052.03 964.75,-1081 965.18,-1081.53 965.62,-1082.05 966.08,-1082.57"/>
<polygon fill="black" stroke="black" points="963.52,-1084.96 973.12,-1089.45 968.41,-1079.96 963.52,-1084.96"/>
</g>
<!-- hol&#45;eval&#45;&gt;pure -->
<g id="edge43" class="edge">
<title>hol&#45;eval&#45;&gt;pure</title>
<path fill="none" stroke="black" d="M895.73,-950.36C915.8,-956.31 941.65,-963.81 964.75,-970 1013.27,-983 1025.02,-988.34 1074.5,-997 1109.64,-1003.15 1150.14,-1007.13 1178.83,-1009.43"/>
<polygon fill="black" stroke="black" points="1178.23,-1012.9 1188.47,-1010.18 1178.77,-1005.92 1178.23,-1012.9"/>
</g>
<!-- hol&#45;eval&#45;&gt;pure&#45;eval -->
<g id="edge44" class="edge">
<title>hol&#45;eval&#45;&gt;pure&#45;eval</title>
<path fill="none" stroke="black" d="M895.62,-944.08C938.82,-949.22 1013.44,-958.1 1063.11,-964.02"/>
<polygon fill="black" stroke="black" points="1062.39,-967.45 1072.73,-965.16 1063.21,-960.5 1062.39,-967.45"/>
</g>
<!-- hol&#45;eval&#45;&gt;sexp -->
<g id="edge45" class="edge">
<title>hol&#45;eval&#45;&gt;sexp</title>
<path fill="none" stroke="black" d="M874.12,-921.87C888.53,-900.87 912.14,-864.96 928.75,-832 955.04,-779.85 978.43,-715.68 990.96,-679.14"/>
<polygon fill="black" stroke="black" points="994.25,-680.32 994.15,-669.73 987.63,-678.08 994.25,-680.32"/>
</g>
<!-- hol&#45;eval&#45;&gt;types -->
<g id="edge46" class="edge">
<title>hol&#45;eval&#45;&gt;types</title>
<path fill="none" stroke="black" d="M895.5,-939.06C997.11,-936.26 1297.24,-927.98 1403.6,-925.05"/>
<polygon fill="black" stroke="black" points="1403.6,-928.55 1413.5,-924.77 1403.41,-921.55 1403.6,-928.55"/>
</g>
<!-- init&#45;&gt;core -->
<g id="edge47" class="edge">
<title>init&#45;&gt;core</title>
<path fill="none" stroke="black" d="M736.62,-954.01C743.75,-958.89 750.9,-964.94 756,-972 788.59,-1017.15 748.63,-1057.08 792,-1092 840.41,-1130.98 917.31,-1125 962.98,-1116.75"/>
<polygon fill="black" stroke="black" points="963.53,-1120.21 972.68,-1114.86 962.19,-1113.34 963.53,-1120.21"/>
</g>
<!-- init&#45;&gt;grammar -->
<g id="edge48" class="edge">
<title>init&#45;&gt;grammar</title>
<path fill="none" stroke="black" d="M736.74,-949.08C752.68,-954.48 773.44,-961.35 792,-967 852.35,-985.35 871.54,-978.43 928.75,-1005 942.58,-1011.42 956.69,-1020.41 968.7,-1028.93"/>
<polygon fill="black" stroke="black" points="966.48,-1031.64 976.62,-1034.71 970.61,-1025.99 966.48,-1031.64"/>
</g>
<!-- init&#45;&gt;hash -->
<g id="edge49" class="edge">
<title>init&#45;&gt;hash</title>
<path fill="none" stroke="black" d="M727.02,-958.48C737.12,-970.78 749.3,-987.78 756,-1005 800.83,-1120.3 716.19,-1183.25 792,-1281 799.49,-1290.66 810.98,-1296.87 822.36,-1300.87"/>
<polygon fill="black" stroke="black" points="821.07,-1304.14 831.65,-1303.63 823.06,-1297.43 821.07,-1304.14"/>
</g>
<!-- init&#45;&gt;hol -->
<g id="edge50" class="edge">
<title>init&#45;&gt;hol</title>
<path fill="none" stroke="black" d="M727.15,-958.44C737.29,-970.71 749.49,-987.71 756,-1005 808.02,-1143.06 765.36,-1189.89 792,-1335 807.54,-1419.65 835.86,-1517.39 850.34,-1564.97"/>
<polygon fill="black" stroke="black" points="846.9,-1565.7 853.18,-1574.23 853.59,-1563.64 846.9,-1565.7"/>
</g>
<!-- init&#45;&gt;hol&#45;eval -->
<g id="edge51" class="edge">
<title>init&#45;&gt;hol&#45;eval</title>
<path fill="none" stroke="black" d="M736.67,-940C757.97,-940 788.48,-940 813.75,-940"/>
<polygon fill="black" stroke="black" points="813.43,-943.5 823.43,-940 813.43,-936.5 813.43,-943.5"/>
</g>
<!-- metamath -->
<g id="node25" class="node">
<title>metamath</title>
<polygon fill="none" stroke="black" points="900.62,-622 820.12,-622 820.12,-586 900.62,-586 900.62,-622"/>
<text text-anchor="middle" x="860.38" y="-599.7" font-family="sans-serif" font-size="14.00">metamath</text>
</g>
<!-- init&#45;&gt;metamath -->
<g id="edge52" class="edge">
<title>init&#45;&gt;metamath</title>
<path fill="none" stroke="black" d="M719.45,-921.73C729.32,-901.39 745.13,-867.38 756,-837 776.19,-780.55 767.3,-761.63 792,-707 804.33,-679.73 823.34,-651.46 838.03,-631.46"/>
<polygon fill="black" stroke="black" points="840.75,-633.66 843.94,-623.55 835.15,-629.47 840.75,-633.66"/>
</g>
<!-- init&#45;&gt;sexp -->
<g id="edge53" class="edge">
<title>init&#45;&gt;sexp</title>
<path fill="none" stroke="black" d="M716.5,-921.7C727.18,-892.51 751.99,-835.53 792,-804 842.04,-764.56 878.05,-799.58 928.75,-761 956.92,-739.57 977.23,-703.69 988.93,-678.54"/>
<polygon fill="black" stroke="black" points="992.06,-680.1 992.94,-669.54 985.67,-677.25 992.06,-680.1"/>
</g>
<!-- spectec -->
<g id="node43" class="node">
<title>spectec</title>
<polygon fill="none" stroke="black" points="895,-1050 825.75,-1050 825.75,-1014 895,-1014 895,-1050"/>
<text text-anchor="middle" x="860.38" y="-1027.7" font-family="sans-serif" font-size="14.00">spectec</text>
</g>
<!-- init&#45;&gt;spectec -->
<g id="edge54" class="edge">
<title>init&#45;&gt;spectec</title>
<path fill="none" stroke="black" d="M736.59,-958.06C742.98,-962.55 749.77,-967.4 756,-972 772.3,-984.05 774.74,-989.37 792,-1000 799.28,-1004.49 807.29,-1008.79 815.17,-1012.7"/>
<polygon fill="black" stroke="black" points="813.48,-1015.78 824.01,-1016.95 816.51,-1009.47 813.48,-1015.78"/>
</g>
<!-- init&#45;&gt;types -->
<g id="edge55" class="edge">
<title>init&#45;&gt;types</title>
<path fill="none" stroke="black" d="M736.84,-948.54C743.98,-952 751.08,-956.71 756,-963 800.38,-1019.72 739.39,-1071.81 792,-1121 860.57,-1185.11 906.75,-1154 1000.62,-1154 1000.62,-1154 1000.62,-1154 1218.25,-1154 1297.86,-1154 1325.01,-1134.05 1379.5,-1076 1412.21,-1041.15 1428.68,-986.72 1436.14,-953.32"/>
<polygon fill="black" stroke="black" points="1439.48,-954.44 1438.1,-943.94 1432.63,-953.01 1439.48,-954.44"/>
</g>
<!-- json -->
<g id="node19" class="node">
<title>json</title>
<polygon fill="none" stroke="black" points="887.38,-1218 833.38,-1218 833.38,-1182 887.38,-1182 887.38,-1218"/>
<text text-anchor="middle" x="860.38" y="-1195.7" font-family="sans-serif" font-size="14.00">json</text>
</g>
<!-- kernel -->
<g id="node20" class="node">
<title>kernel</title>
<polygon fill="none" stroke="black" points="608,-1018 550.75,-1018 550.75,-982 608,-982 608,-1018"/>
<text text-anchor="middle" x="579.38" y="-995.7" font-family="sans-serif" font-size="14.00">kernel</text>
</g>
<!-- kernel&#45;&gt;hash -->
<g id="edge56" class="edge">
<title>kernel&#45;&gt;hash</title>
<path fill="none" stroke="black" d="M608.43,-1015.7C615.03,-1020.32 621.63,-1025.83 626.75,-1032 651.9,-1062.32 639.32,-1081.33 662.75,-1113 695.4,-1157.13 723.93,-1149.45 756,-1194 780.45,-1227.96 762.25,-1251.58 792,-1281 800.33,-1289.24 811.5,-1295.06 822.35,-1299.12"/>
<polygon fill="black" stroke="black" points="820.94,-1302.34 831.53,-1302.16 823.14,-1295.7 820.94,-1302.34"/>
</g>
<!-- kernel&#45;&gt;init -->
<g id="edge57" class="edge">
<title>kernel&#45;&gt;init</title>
<path fill="none" stroke="black" d="M608.47,-986.83C627.05,-978.12 651.62,-966.6 671.74,-957.17"/>
<polygon fill="black" stroke="black" points="673.16,-960.37 680.73,-952.96 670.19,-954.04 673.16,-960.37"/>
</g>
<!-- kernel&#45;&gt;object -->
<g id="edge58" class="edge">
<title>kernel&#45;&gt;object</title>
<path fill="none" stroke="black" d="M607.48,-1018.43C613.83,-1022.83 620.56,-1027.54 626.75,-1032 642.98,-1043.68 646.12,-1047.89 662.75,-1059 665.4,-1060.77 668.18,-1062.56 670.99,-1064.33"/>
<polygon fill="black" stroke="black" points="668.92,-1067.17 679.28,-1069.41 672.58,-1061.2 668.92,-1067.17"/>
</g>
<!-- kernel&#45;&gt;sexp -->
<g id="edge59" class="edge">
<title>kernel&#45;&gt;sexp</title>
<path fill="none" stroke="black" d="M589.42,-981.67C599.28,-961.28 615.22,-927.23 626.75,-897 645.69,-847.36 629.65,-824.56 662.75,-783 704.27,-730.87 730.6,-732.9 792,-707 849.55,-682.73 920.41,-665.93 962.97,-657.14"/>
<polygon fill="black" stroke="black" points="963.6,-660.59 972.71,-655.18 962.21,-653.73 963.6,-660.59"/>
</g>
<!-- kernel&#45;&gt;store -->
<g id="edge60" class="edge">
<title>kernel&#45;&gt;store</title>
<path fill="none" stroke="black" d="M588.2,-1018.45C605.34,-1058.73 646.03,-1153.35 662.75,-1184 670.59,-1198.37 680.38,-1213.67 688.88,-1226.29"/>
<polygon fill="black" stroke="black" points="685.97,-1228.24 694.51,-1234.52 691.75,-1224.29 685.97,-1228.24"/>
</g>
<!-- kv -->
<g id="node21" class="node">
<title>kv</title>
<polygon fill="none" stroke="black" points="226.12,-365 172.12,-365 172.12,-329 226.12,-329 226.12,-365"/>
<text text-anchor="middle" x="199.12" y="-342.7" font-family="sans-serif" font-size="14.00">kv</text>
</g>
<!-- lean -->
<g id="node22" class="node">
<title>lean</title>
<polygon fill="none" stroke="black" points="87.5,-1537 33.5,-1537 33.5,-1501 87.5,-1501 87.5,-1537"/>
<text text-anchor="middle" x="60.5" y="-1514.7" font-family="sans-serif" font-size="14.00">lean</text>
</g>
<!-- llm -->
<g id="node23" class="node">
<title>llm</title>
<polygon fill="none" stroke="black" points="226.12,-1256 172.12,-1256 172.12,-1220 226.12,-1220 226.12,-1256"/>
<text text-anchor="middle" x="199.12" y="-1233.7" font-family="sans-serif" font-size="14.00">llm</text>
</g>
<!-- llm&#45;&gt;proto -->
<g id="edge61" class="edge">
<title>llm&#45;&gt;proto</title>
<path fill="none" stroke="black" d="M224.73,-1256.31C239.84,-1267.53 259.63,-1282.15 277.25,-1295 280.42,-1297.31 283.73,-1299.71 287.04,-1302.11"/>
<polygon fill="black" stroke="black" points="284.91,-1304.88 295.07,-1307.9 289,-1299.21 284.91,-1304.88"/>
</g>
<!-- lsp&#45;&gt;sexp -->
<g id="edge62" class="edge">
<title>lsp&#45;&gt;sexp</title>
<path fill="none" stroke="black" d="M887.57,-386.74C901.56,-390.55 918.05,-397.27 928.75,-409 983.95,-469.48 996.84,-570.68 999.8,-620.49"/>
<polygon fill="black" stroke="black" points="996.29,-620.38 1000.27,-630.19 1003.28,-620.04 996.29,-620.38"/>
</g>
<!-- lsp&#45;&gt;wasm -->
<g id="edge63" class="edge">
<title>lsp&#45;&gt;wasm</title>
<path fill="none" stroke="black" d="M887.75,-373.53C901.12,-368.29 916.97,-360.53 928.75,-350 956.1,-325.54 976.66,-288.22 988.64,-262.55"/>
<polygon fill="black" stroke="black" points="991.71,-264.27 992.62,-253.72 985.32,-261.39 991.71,-264.27"/>
</g>
<!-- metamath&#45;&gt;parse -->
<g id="edge64" class="edge">
<title>metamath&#45;&gt;parse</title>
<path fill="none" stroke="black" d="M901.03,-607.62C948.94,-611.99 1028.96,-619.3 1075.89,-623.58"/>
<polygon fill="black" stroke="black" points="1075.28,-627.04 1085.56,-624.46 1075.92,-620.07 1075.28,-627.04"/>
</g>
<!-- metamath&#45;&gt;sexp -->
<g id="edge65" class="edge">
<title>metamath&#45;&gt;sexp</title>
<path fill="none" stroke="black" d="M900.91,-617.06C920.53,-623.54 944.11,-631.33 963.41,-637.71"/>
<polygon fill="black" stroke="black" points="962.19,-640.99 972.78,-640.8 964.38,-634.34 962.19,-640.99"/>
</g>
<!-- multiformat -->
<g id="node26" class="node">
<title>multiformat</title>
<polygon fill="none" stroke="black" points="754.5,-828 664.25,-828 664.25,-792 754.5,-792 754.5,-828"/>
<text text-anchor="middle" x="709.38" y="-805.7" font-family="sans-serif" font-size="14.00">multiformat</text>
</g>
<!-- multiformat&#45;&gt;acset -->
<g id="edge66" class="edge">
<title>multiformat&#45;&gt;acset</title>
<path fill="none" stroke="black" d="M743.53,-791.63C758.28,-783.59 775.92,-774.15 792,-766 801.95,-760.96 812.82,-755.69 822.88,-750.92"/>
<polygon fill="black" stroke="black" points="824.07,-754.23 831.62,-746.8 821.08,-747.9 824.07,-754.23"/>
</g>
<!-- multiformat&#45;&gt;hash -->
<g id="edge67" class="edge">
<title>multiformat&#45;&gt;hash</title>
<path fill="none" stroke="black" d="M720.66,-828.33C731.41,-848.43 747.84,-881.98 756,-913 776.91,-992.46 742.69,-1215.27 792,-1281 799.33,-1290.78 810.78,-1297.02 822.18,-1301.01"/>
<polygon fill="black" stroke="black" points="820.91,-1304.28 831.49,-1303.75 822.89,-1297.57 820.91,-1304.28"/>
</g>
<!-- multiformat&#45;&gt;parse -->
<g id="edge68" class="edge">
<title>multiformat&#45;&gt;parse</title>
<path fill="none" stroke="black" d="M754.72,-805.4C800.07,-799.49 871.74,-786.75 928.75,-761 989.88,-733.39 1050.93,-683.66 1085.26,-653.17"/>
<polygon fill="black" stroke="black" points="1087.58,-655.78 1092.67,-646.49 1082.9,-650.58 1087.58,-655.78"/>
</g>
<!-- object&#45;&gt;hash -->
<g id="edge69" class="edge">
<title>object&#45;&gt;hash</title>
<path fill="none" stroke="black" d="M724.57,-1104.43C734.51,-1118.05 747.49,-1137.4 756,-1156 780.05,-1208.57 753.23,-1238.11 792,-1281 799.99,-1289.83 811.26,-1295.82 822.3,-1299.87"/>
<polygon fill="black" stroke="black" points="821.1,-1303.16 831.69,-1302.84 823.21,-1296.49 821.1,-1303.16"/>
</g>
<!-- object&#45;&gt;parse -->
<g id="edge70" class="edge">
<title>object&#45;&gt;parse</title>
<path fill="none" stroke="black" d="M738.24,-1074.22C744.89,-1070.25 751.39,-1065.21 756,-1059 795.86,-1005.36 754.91,-968.6 792,-913 867.57,-799.71 942.78,-827.87 1038.5,-731 1061.45,-707.77 1082.69,-677 1096.64,-654.96"/>
<polygon fill="black" stroke="black" points="1099.6,-656.84 1101.9,-646.5 1093.65,-653.15 1099.6,-656.84"/>
</g>
<!-- opentheory&#45;&gt;hol -->
<g id="edge71" class="edge">
<title>opentheory&#45;&gt;hol</title>
<path fill="none" stroke="black" d="M368.58,-1761.76C450.74,-1773.69 628.69,-1788.71 756,-1722 797.87,-1700.06 828.81,-1653 845.45,-1622.46"/>
<polygon fill="black" stroke="black" points="848.47,-1624.23 850.03,-1613.76 842.27,-1620.98 848.47,-1624.23"/>
</g>
<!-- parquet -->
<g id="node29" class="node">
<title>parquet</title>
<polygon fill="none" stroke="black" points="483.62,-853 416.62,-853 416.62,-817 483.62,-817 483.62,-853"/>
<text text-anchor="middle" x="450.12" y="-830.7" font-family="sans-serif" font-size="14.00">parquet</text>
</g>
<!-- parquet&#45;&gt;arrow -->
<g id="edge72" class="edge">
<title>parquet&#45;&gt;arrow</title>
<path fill="none" stroke="black" d="M483.9,-844.01C501.38,-848.82 522.96,-854.76 541.08,-859.74"/>
<polygon fill="black" stroke="black" points="540.09,-863.1 550.67,-862.38 541.95,-856.35 540.09,-863.1"/>
</g>
<!-- pure&#45;trusted -->
<g id="node34" class="node">
<title>pure&#45;trusted</title>
<polygon fill="#ffd6d6" stroke="black" points="1379.5,-1029 1280.25,-1029 1280.25,-993 1379.5,-993 1379.5,-1029"/>
<text text-anchor="middle" x="1329.88" y="-1006.7" font-family="sans-serif" font-size="14.00">pure&#45;trusted</text>
</g>
<!-- pure&#45;&gt;pure&#45;trusted -->
<g id="edge73" class="edge">
<title>pure&#45;&gt;pure&#45;trusted</title>
<path fill="none" stroke="black" d="M1244.75,-1011.76C1252.04,-1011.69 1260.27,-1011.62 1268.64,-1011.54"/>
<polygon fill="black" stroke="black" points="1268.6,-1015.05 1278.57,-1011.45 1268.54,-1008.05 1268.6,-1015.05"/>
</g>
<!-- pure&#45;eval&#45;&gt;pure -->
<g id="edge74" class="edge">
<title>pure&#45;eval&#45;&gt;pure</title>
<path fill="none" stroke="black" d="M1154.66,-986.36C1162.8,-989.75 1171.35,-993.31 1179.4,-996.66"/>
<polygon fill="black" stroke="black" points="1178,-999.87 1188.58,-1000.48 1180.7,-993.41 1178,-999.87"/>
</g>
<!-- pure&#45;eval&#45;&gt;types -->
<g id="edge75" class="edge">
<title>pure&#45;eval&#45;&gt;types</title>
<path fill="none" stroke="black" d="M1154.49,-966.51C1206.21,-961.62 1300.08,-951.74 1379.5,-938 1387.48,-936.62 1395.98,-934.88 1404.05,-933.1"/>
<polygon fill="black" stroke="black" points="1404.62,-936.56 1413.59,-930.93 1403.06,-929.73 1404.62,-936.56"/>
</g>
<!-- pure&#45;trusted&#45;&gt;types -->
<g id="edge76" class="edge">
<title>pure&#45;trusted&#45;&gt;types</title>
<path fill="none" stroke="black" d="M1359.31,-992.54C1366.04,-987.94 1373.12,-982.92 1379.5,-978 1390.9,-969.22 1402.93,-958.98 1413.33,-949.8"/>
<polygon fill="black" stroke="black" points="1415.38,-952.67 1420.5,-943.39 1410.71,-947.44 1415.38,-952.67"/>
</g>
<!-- python -->
<g id="node35" class="node">
<title>python</title>
<polygon fill="none" stroke="black" points="91.38,-899 29.62,-899 29.62,-863 91.38,-863 91.38,-899"/>
<text text-anchor="middle" x="60.5" y="-876.7" font-family="sans-serif" font-size="14.00">python</text>
</g>
<!-- python&#45;&gt;crypto&#45;sig -->
<g id="edge77" class="edge">
<title>python&#45;&gt;crypto&#45;sig</title>
<path fill="none" stroke="black" d="M61.09,-862.71C60.48,-798.44 65.58,-578.89 157,-433 158.19,-431.1 159.53,-429.27 160.99,-427.52"/>
<polygon fill="black" stroke="black" points="163.44,-430.01 167.97,-420.43 158.46,-425.1 163.44,-430.01"/>
</g>
<!-- python&#45;&gt;git -->
<g id="edge78" class="edge">
<title>python&#45;&gt;git</title>
<path fill="none" stroke="black" d="M69.42,-899.37C83.2,-929.38 114.24,-989.16 157,-1025 235.27,-1090.61 352.65,-1127.65 411.97,-1143.2"/>
<polygon fill="black" stroke="black" points="411.01,-1146.57 421.57,-1145.65 412.74,-1139.78 411.01,-1146.57"/>
</g>
<!-- python&#45;&gt;graph -->
<g id="edge79" class="edge">
<title>python&#45;&gt;graph</title>
<path fill="none" stroke="black" d="M91.59,-887.52C161.56,-902.68 335.01,-940.27 411.67,-956.88"/>
<polygon fill="black" stroke="black" points="410.69,-960.25 421.21,-958.95 412.17,-953.41 410.69,-960.25"/>
</g>
<!-- python&#45;&gt;hash -->
<g id="edge80" class="edge">
<title>python&#45;&gt;hash</title>
<path fill="none" stroke="black" d="M63.59,-899.31C72.27,-972.98 107.43,-1247.18 157,-1317 193.33,-1368.17 220.83,-1363.53 277.25,-1391 468.66,-1484.18 563.45,-1496.79 756,-1406 790.01,-1389.96 820.09,-1358.41 838.91,-1335.42"/>
<polygon fill="black" stroke="black" points="841.6,-1337.66 845.08,-1327.66 836.12,-1333.3 841.6,-1337.66"/>
</g>
<!-- python&#45;&gt;kv -->
<g id="edge81" class="edge">
<title>python&#45;&gt;kv</title>
<path fill="none" stroke="black" d="M63.04,-862.59C70.11,-781.59 101.48,-457.28 157,-374 158.78,-371.34 160.92,-368.87 163.27,-366.61"/>
<polygon fill="black" stroke="black" points="165.12,-369.61 170.73,-360.62 160.74,-364.15 165.12,-369.61"/>
</g>
<!-- python&#45;&gt;llm -->
<g id="edge82" class="edge">
<title>python&#45;&gt;llm</title>
<path fill="none" stroke="black" d="M63.77,-899.48C70.68,-950.41 94.92,-1095.82 157,-1198 159.96,-1202.88 163.66,-1207.57 167.61,-1211.93"/>
<polygon fill="black" stroke="black" points="164.83,-1214.09 174.34,-1218.75 169.81,-1209.17 164.83,-1214.09"/>
</g>
<!-- python&#45;&gt;object -->
<g id="edge83" class="edge">
<title>python&#45;&gt;object</title>
<path fill="none" stroke="black" d="M91.71,-862.85C184.86,-809.46 470.72,-665.28 626.75,-806 711.09,-882.07 599.66,-964.55 662.75,-1059 665.09,-1062.5 668.04,-1065.61 671.32,-1068.35"/>
<polygon fill="black" stroke="black" points="669.11,-1071.08 679.31,-1073.94 673.12,-1065.34 669.11,-1071.08"/>
</g>
<!-- python&#45;&gt;repl -->
<g id="edge84" class="edge">
<title>python&#45;&gt;repl</title>
<path fill="none" stroke="black" d="M91.86,-881C139.63,-881 232.22,-881 284.13,-881"/>
<polygon fill="black" stroke="black" points="283.97,-884.5 293.97,-881 283.97,-877.5 283.97,-884.5"/>
</g>
<!-- sat -->
<g id="node38" class="node">
<title>sat</title>
<polygon fill="none" stroke="black" points="887.38,-308 833.38,-308 833.38,-272 887.38,-272 887.38,-308"/>
<text text-anchor="middle" x="860.38" y="-285.7" font-family="sans-serif" font-size="14.00">sat</text>
</g>
<!-- python&#45;&gt;sat -->
<g id="edge85" class="edge">
<title>python&#45;&gt;sat</title>
<path fill="none" stroke="black" d="M61.98,-862.75C64.65,-775.42 80.47,-401.11 157,-320 208.57,-265.34 246.61,-282 321.75,-282 321.75,-282 321.75,-282 580.38,-282 666.87,-282 768.39,-285.89 821.93,-288.24"/>
<polygon fill="black" stroke="black" points="821.57,-291.73 831.71,-288.68 821.88,-284.74 821.57,-291.73"/>
</g>
<!-- python&#45;&gt;serve -->
<g id="edge86" class="edge">
<title>python&#45;&gt;serve</title>
<path fill="none" stroke="black" d="M68.57,-899.31C83.5,-937.48 119.92,-1028.07 157,-1101 164.21,-1115.18 173.05,-1130.46 180.69,-1143.11"/>
<polygon fill="black" stroke="black" points="177.51,-1144.62 185.71,-1151.33 183.49,-1140.98 177.51,-1144.62"/>
</g>
<!-- python&#45;&gt;sexp -->
<g id="edge87" class="edge">
<title>python&#45;&gt;sexp</title>
<path fill="none" stroke="black" d="M63.99,-862.7C73.03,-799.33 106.23,-590.88 157,-551 366.37,-386.53 491.93,-508.99 756,-543 833.61,-552.99 859.85,-539.91 928.75,-577 949.3,-588.06 967.67,-606.97 980.7,-622.77"/>
<polygon fill="black" stroke="black" points="977.83,-624.78 986.78,-630.44 983.31,-620.43 977.83,-624.78"/>
</g>
<!-- python&#45;&gt;shell -->
<g id="edge88" class="edge">
<title>python&#45;&gt;shell</title>
<path fill="none" stroke="black" d="M61.79,-899.15C63.54,-957.42 75.56,-1143.02 157,-1265 216.42,-1354 347.03,-1391.13 411.54,-1404.49"/>
<polygon fill="black" stroke="black" points="410.81,-1407.92 421.3,-1406.43 412.17,-1401.05 410.81,-1407.92"/>
</g>
<!-- python&#45;&gt;store -->
<g id="edge89" class="edge">
<title>python&#45;&gt;store</title>
<path fill="none" stroke="black" d="M89.71,-899.34C147.47,-936.5 283.88,-1022.42 404.25,-1084 500.29,-1133.14 535.95,-1122.75 626.75,-1181 632.66,-1184.79 658.9,-1208.49 680.06,-1227.88"/>
<polygon fill="black" stroke="black" points="677.61,-1230.37 687.34,-1234.56 682.34,-1225.22 677.61,-1230.37"/>
</g>
<!-- python&#45;&gt;wasm -->
<g id="edge90" class="edge">
<title>python&#45;&gt;wasm</title>
<path fill="none" stroke="black" d="M61.47,-862.66C61.92,-787.19 69.51,-494.39 157,-276 204.84,-156.58 193.1,-38 321.75,-38 321.75,-38 321.75,-38 710.38,-38 811.77,-38 849.89,-40.28 928.75,-104 961.16,-130.19 981.29,-175.09 991.73,-204.67"/>
<polygon fill="black" stroke="black" points="988.4,-205.75 994.9,-214.12 995.04,-203.52 988.4,-205.75"/>
</g>
<!-- wasm&#45;store -->
<g id="node50" class="node">
<title>wasm&#45;store</title>
<polygon fill="none" stroke="black" points="626.75,-720 532,-720 532,-684 626.75,-684 626.75,-720"/>
<text text-anchor="middle" x="579.38" y="-697.7" font-family="sans-serif" font-size="14.00">wasm&#45;store</text>
</g>
<!-- python&#45;&gt;wasm&#45;store -->
<g id="edge91" class="edge">
<title>python&#45;&gt;wasm&#45;store</title>
<path fill="none" stroke="black" d="M60.77,-862.61C59.77,-808.91 65.11,-651.91 157,-585 281.19,-494.57 472.31,-620.19 546.97,-676.82"/>
<polygon fill="black" stroke="black" points="544.64,-679.44 554.7,-682.76 548.9,-673.89 544.64,-679.44"/>
</g>
<!-- repl&#45;&gt;arrow -->
<g id="edge92" class="edge">
<title>repl&#45;&gt;arrow</title>
<path fill="none" stroke="black" d="M350.04,-879.86C395.42,-877.9 488.61,-873.88 540.82,-871.62"/>
<polygon fill="black" stroke="black" points="540.88,-875.12 550.72,-871.19 540.57,-868.13 540.88,-875.12"/>
</g>
<!-- repl&#45;&gt;forsp -->
<g id="edge93" class="edge">
<title>repl&#45;&gt;forsp</title>
<path fill="none" stroke="black" d="M337.07,-862.82C351.38,-844.99 375.91,-818.94 404.25,-808 497.64,-771.96 557.26,-770.95 626.75,-843 676.45,-894.53 622.79,-940.6 662.75,-1000 665.62,-1004.27 669.27,-1008.15 673.25,-1011.61"/>
<polygon fill="black" stroke="black" points="671.03,-1014.32 681.11,-1017.6 675.28,-1008.75 671.03,-1014.32"/>
</g>
<!-- repl&#45;&gt;git -->
<g id="edge94" class="edge">
<title>repl&#45;&gt;git</title>
<path fill="none" stroke="black" d="M329.65,-899.48C341.56,-935.83 370.26,-1018.77 404.25,-1084 411.47,-1097.86 420.82,-1112.42 429.11,-1124.49"/>
<polygon fill="black" stroke="black" points="426,-1126.16 434.6,-1132.34 431.74,-1122.14 426,-1126.16"/>
</g>
<!-- repl&#45;&gt;graph -->
<g id="edge95" class="edge">
<title>repl&#45;&gt;graph</title>
<path fill="none" stroke="black" d="M350.03,-898.61C368.42,-910.93 393.21,-927.53 413.39,-941.06"/>
<polygon fill="black" stroke="black" points="411.36,-943.91 421.62,-946.57 415.26,-938.1 411.36,-943.91"/>
</g>
<!-- repl&#45;&gt;hash -->
<g id="edge96" class="edge">
<title>repl&#45;&gt;hash</title>
<path fill="none" stroke="black" d="M325.32,-899.42C330.15,-948.22 348.09,-1083.64 404.25,-1179 433.08,-1227.95 462.56,-1222.07 496,-1268 517.29,-1297.24 502.5,-1320.06 532,-1341 613.39,-1398.77 658.63,-1378.91 756,-1357 779.49,-1351.72 803.91,-1340.45 823.11,-1330.05"/>
<polygon fill="black" stroke="black" points="824.58,-1333.24 831.61,-1325.31 821.17,-1327.13 824.58,-1333.24"/>
</g>
<!-- repl&#45;&gt;init -->
<g id="edge97" class="edge">
<title>repl&#45;&gt;init</title>
<path fill="none" stroke="black" d="M334.84,-862.76C375.77,-797.59 521.48,-584.74 626.75,-675 706.3,-743.2 607.43,-819.01 662.75,-908 665.47,-912.37 669.02,-916.31 672.96,-919.8"/>
<polygon fill="black" stroke="black" points="670.72,-922.49 680.78,-925.81 674.98,-916.94 670.72,-922.49"/>
</g>
<!-- repl&#45;&gt;object -->
<g id="edge98" class="edge">
<title>repl&#45;&gt;object</title>
<path fill="none" stroke="black" d="M350.03,-884.54C419.87,-894.18 606.12,-921.36 626.75,-940 667.75,-977.04 628.65,-1015.52 662.75,-1059 665.21,-1062.14 668.14,-1064.99 671.32,-1067.55"/>
<polygon fill="black" stroke="black" points="669.26,-1070.39 679.48,-1073.19 673.24,-1064.63 669.26,-1070.39"/>
</g>
<!-- repl&#45;&gt;parquet -->
<g id="edge99" class="edge">
<title>repl&#45;&gt;parquet</title>
<path fill="none" stroke="black" d="M350.03,-871.36C366.12,-865.45 387.1,-857.76 405.61,-850.96"/>
<polygon fill="black" stroke="black" points="406.57,-854.34 414.75,-847.61 404.16,-847.77 406.57,-854.34"/>
</g>
<!-- repl&#45;&gt;shell -->
<g id="edge100" class="edge">
<title>repl&#45;&gt;shell</title>
<path fill="none" stroke="black" d="M328.07,-899.24C346.56,-977.44 419.24,-1284.68 442.16,-1381.57"/>
<polygon fill="black" stroke="black" points="438.71,-1382.16 444.41,-1391.09 445.52,-1380.55 438.71,-1382.16"/>
</g>
<!-- repl&#45;&gt;wasm -->
<g id="edge101" class="edge">
<title>repl&#45;&gt;wasm</title>
<path fill="none" stroke="black" d="M328.54,-862.72C350.75,-781.89 451.6,-453.86 662.75,-301 754.6,-234.51 895.75,-229.76 962.78,-231.77"/>
<polygon fill="black" stroke="black" points="962.38,-235.25 972.51,-232.13 962.65,-228.26 962.38,-235.25"/>
</g>
<!-- sat&#45;&gt;parse -->
<g id="edge102" class="edge">
<title>sat&#45;&gt;parse</title>
<path fill="none" stroke="black" d="M880.7,-308.33C894.26,-321.26 912.75,-339.05 928.75,-355 978.34,-404.42 998.65,-410.43 1038.5,-468 1067.55,-509.97 1090.6,-564.98 1103.1,-598.07"/>
<polygon fill="black" stroke="black" points="1099.79,-599.21 1106.54,-607.38 1106.35,-596.79 1099.79,-599.21"/>
</g>
<!-- sat&#45;&gt;types -->
<g id="edge103" class="edge">
<title>sat&#45;&gt;types</title>
<path fill="none" stroke="black" d="M887.85,-291.57C933.75,-294.15 1031.07,-299 1113.38,-299 1113.38,-299 1113.38,-299 1218.25,-299 1307.06,-299 1334.58,-340.39 1379.5,-417 1427.52,-498.89 1438.59,-798.46 1440.92,-894.3"/>
<polygon fill="black" stroke="black" points="1437.42,-894.26 1441.15,-904.18 1444.42,-894.1 1437.42,-894.26"/>
</g>
<!-- sat&#45;&gt;wasm -->
<g id="edge104" class="edge">
<title>sat&#45;&gt;wasm</title>
<path fill="none" stroke="black" d="M887.57,-279.47C909.02,-270.84 939.63,-258.53 963.59,-248.89"/>
<polygon fill="black" stroke="black" points="964.7,-252.22 972.67,-245.24 962.09,-245.73 964.7,-252.22"/>
</g>
<!-- serve&#45;&gt;core -->
<g id="edge105" class="edge">
<title>serve&#45;&gt;core</title>
<path fill="none" stroke="black" d="M223.46,-1189.36C238.27,-1200.41 258.18,-1214.19 277.25,-1224 315.51,-1243.67 334.05,-1230.9 368.25,-1257 390.3,-1273.84 384.88,-1288.14 404.25,-1308 428.95,-1333.32 498.54,-1391.5 532,-1403 626.15,-1435.37 658.32,-1425.29 756,-1406 837.44,-1389.92 872.55,-1396.09 928.75,-1335 980.5,-1278.75 994.99,-1185.33 999.05,-1137.78"/>
<polygon fill="black" stroke="black" points="1002.53,-1138.2 999.78,-1127.97 995.55,-1137.69 1002.53,-1138.2"/>
</g>
<!-- serve&#45;&gt;git -->
<g id="edge106" class="edge">
<title>serve&#45;&gt;git</title>
<path fill="none" stroke="black" d="M226.28,-1163.36C241.09,-1159.42 260.05,-1155.03 277.25,-1153 323.31,-1147.56 376.8,-1148.36 411.71,-1149.82"/>
<polygon fill="black" stroke="black" points="411.14,-1153.3 421.29,-1150.27 411.47,-1146.31 411.14,-1153.3"/>
</g>
<!-- serve&#45;&gt;hash -->
<g id="edge107" class="edge">
<title>serve&#45;&gt;hash</title>
<path fill="none" stroke="black" d="M226.43,-1176.9C260.62,-1185.26 321.49,-1202.55 368.25,-1229 432.72,-1265.46 442.05,-1285.26 496,-1336 512.95,-1351.94 510.88,-1364.24 532,-1374 622.41,-1415.79 661.07,-1411.14 756,-1381 785.24,-1371.72 813.33,-1350.85 832.83,-1333.79"/>
<polygon fill="black" stroke="black" points="834.96,-1336.59 840.04,-1327.29 830.27,-1331.39 834.96,-1336.59"/>
</g>
<!-- serve&#45;&gt;init -->
<g id="edge108" class="edge">
<title>serve&#45;&gt;init</title>
<path fill="none" stroke="black" d="M203.94,-1152.77C219.21,-1079.86 275.18,-812.92 277.25,-809 315.44,-736.74 332.85,-715.78 404.25,-676 491.27,-627.51 551.6,-583.61 626.75,-649 714.09,-725 603.06,-807.79 662.75,-907 665.43,-911.46 668.97,-915.48 672.89,-919.07"/>
<polygon fill="black" stroke="black" points="670.7,-921.8 680.71,-925.27 675.05,-916.32 670.7,-921.8"/>
</g>
<!-- serve&#45;&gt;metamath -->
<g id="edge109" class="edge">
<title>serve&#45;&gt;metamath</title>
<path fill="none" stroke="black" d="M204.47,-1152.72C212.56,-1118.16 230.15,-1040.83 241.25,-975 251.72,-912.92 240.24,-744.93 277.25,-694 303.55,-657.81 329.73,-673.75 368.25,-651 385.24,-640.96 387.88,-636.02 404.25,-625 459.82,-587.59 467.61,-563.5 532,-545 572.47,-533.37 584.72,-542.41 626.75,-545 684.52,-548.56 700.04,-546.19 756,-561 774.67,-565.94 794.43,-573.53 811.61,-580.96"/>
<polygon fill="black" stroke="black" points="810,-584.07 820.56,-584.93 812.83,-577.67 810,-584.07"/>
</g>
<!-- serve&#45;&gt;object -->
<g id="edge110" class="edge">
<title>serve&#45;&gt;object</title>
<path fill="none" stroke="black" d="M204.04,-1152.88C218.26,-1087.29 266.95,-865.49 277.25,-854 317.33,-809.3 345.12,-818.38 404.25,-808 453.55,-799.35 593.1,-805.94 626.75,-843 692.17,-915.05 607.73,-978.72 662.75,-1059 665.13,-1062.47 668.11,-1065.56 671.4,-1068.3"/>
<polygon fill="black" stroke="black" points="669.21,-1071.03 679.41,-1073.87 673.2,-1065.28 669.21,-1071.03"/>
</g>
<!-- serve&#45;&gt;proto -->
<g id="edge111" class="edge">
<title>serve&#45;&gt;proto</title>
<path fill="none" stroke="black" d="M221.89,-1189.11C228.7,-1195.52 235.83,-1203.12 241.25,-1211 264.25,-1244.48 251.83,-1263.32 277.25,-1295 279.91,-1298.31 282.99,-1301.44 286.27,-1304.35"/>
<polygon fill="black" stroke="black" points="284.07,-1307.07 294.07,-1310.57 288.44,-1301.6 284.07,-1307.07"/>
</g>
<!-- serve&#45;&gt;repl -->
<g id="edge112" class="edge">
<title>serve&#45;&gt;repl</title>
<path fill="none" stroke="black" d="M207.73,-1152.86C228.25,-1103.93 284.86,-968.96 309.75,-909.62"/>
<polygon fill="black" stroke="black" points="312.92,-911.11 313.56,-900.53 306.46,-908.4 312.92,-911.11"/>
</g>
<!-- serve&#45;&gt;shell -->
<g id="edge113" class="edge">
<title>serve&#45;&gt;shell</title>
<path fill="none" stroke="black" d="M219.91,-1189.2C226.86,-1195.86 234.6,-1203.59 241.25,-1211 258.59,-1230.32 256.97,-1240.8 277.25,-1257 312.2,-1284.92 335.52,-1269.51 368.25,-1300 392.13,-1322.24 384.83,-1337.77 404.25,-1364 409.54,-1371.14 415.82,-1378.34 421.98,-1384.88"/>
<polygon fill="black" stroke="black" points="419.1,-1386.94 428.58,-1391.67 424.12,-1382.06 419.1,-1386.94"/>
</g>
<!-- serve&#45;&gt;store -->
<g id="edge114" class="edge">
<title>serve&#45;&gt;store</title>
<path fill="none" stroke="black" d="M226.41,-1173.59C259.55,-1176.99 318.27,-1183.41 368.25,-1191 478.69,-1207.78 608.21,-1233.44 670.77,-1246.21"/>
<polygon fill="black" stroke="black" points="670.03,-1249.63 680.53,-1248.21 671.44,-1242.77 670.03,-1249.63"/>
</g>
<!-- sexp&#45;&gt;parse -->
<g id="edge115" class="edge">
<title>sexp&#45;&gt;parse</title>
<path fill="none" stroke="black" d="M1028.87,-644.55C1042.97,-641.62 1060.6,-637.96 1076.1,-634.74"/>
<polygon fill="black" stroke="black" points="1076.37,-638.26 1085.45,-632.8 1074.95,-631.41 1076.37,-638.26"/>
</g>
<!-- shell&#45;&gt;hol -->
<g id="edge116" class="edge">
<title>shell&#45;&gt;hol</title>
<path fill="none" stroke="black" d="M464.57,-1429.49C479.18,-1448.3 504.17,-1477.04 532,-1494 627.06,-1551.95 758.31,-1578.64 821.87,-1588.78"/>
<polygon fill="black" stroke="black" points="821.02,-1592.19 831.44,-1590.26 822.09,-1585.27 821.02,-1592.19"/>
</g>
<!-- shell&#45;&gt;kernel -->
<g id="edge117" class="edge">
<title>shell&#45;&gt;kernel</title>
<path fill="none" stroke="black" d="M456.84,-1392.54C476.98,-1327.48 544.78,-1108.49 569.37,-1029.08"/>
<polygon fill="black" stroke="black" points="572.61,-1030.44 572.23,-1019.85 565.93,-1028.37 572.61,-1030.44"/>
</g>
<!-- smt&#45;&gt;sat -->
<g id="edge118" class="edge">
<title>smt&#45;&gt;sat</title>
<path fill="none" stroke="black" d="M736.67,-321.29C760.43,-315.23 795.65,-306.25 822.27,-299.46"/>
<polygon fill="black" stroke="black" points="822.8,-302.94 831.63,-297.08 821.07,-296.16 822.8,-302.94"/>
</g>
<!-- smt&#45;&gt;sexp -->
<g id="edge119" class="edge">
<title>smt&#45;&gt;sexp</title>
<path fill="none" stroke="black" d="M717.82,-346.07C729.99,-373.89 756.4,-427.72 792,-463 842.18,-512.72 877.3,-495.6 928.75,-544 952.91,-566.72 973.31,-598.95 986.14,-621.89"/>
<polygon fill="black" stroke="black" points="982.91,-623.28 990.76,-630.39 989.05,-619.93 982.91,-623.28"/>
</g>
<!-- smt&#45;&gt;types -->
<g id="edge120" class="edge">
<title>smt&#45;&gt;types</title>
<path fill="none" stroke="black" d="M711.02,-309.62C713.63,-266.11 726.69,-156.53 792,-104 864.9,-45.36 907.07,-76 1000.62,-76 1000.62,-76 1000.62,-76 1218.25,-76 1343.09,-76 1336.02,-188.97 1379.5,-306 1420.41,-416.1 1436.59,-786.36 1440.51,-894.26"/>
<polygon fill="black" stroke="black" points="1437,-894.15 1440.85,-904.02 1443.99,-893.9 1437,-894.15"/>
</g>
<!-- spectec&#45;&gt;grammar -->
<g id="edge121" class="edge">
<title>spectec&#45;&gt;grammar</title>
<path fill="none" stroke="black" d="M895.44,-1037.38C912.86,-1040.13 934.33,-1043.53 953.33,-1046.53"/>
<polygon fill="black" stroke="black" points="952.56,-1049.95 962.98,-1048.05 953.65,-1043.04 952.56,-1049.95"/>
</g>
<!-- store&#45;&gt;hash -->
<g id="edge122" class="edge">
<title>store&#45;&gt;hash</title>
<path fill="none" stroke="black" d="M736.67,-1263.53C760.43,-1272.14 795.65,-1284.9 822.27,-1294.55"/>
<polygon fill="black" stroke="black" points="821.08,-1297.84 831.67,-1297.96 823.46,-1291.26 821.08,-1297.84"/>
</g>
<!-- store&#45;&gt;json -->
<g id="edge123" class="edge">
<title>store&#45;&gt;json</title>
<path fill="none" stroke="black" d="M736.67,-1244.47C760.43,-1235.86 795.65,-1223.1 822.27,-1213.45"/>
<polygon fill="black" stroke="black" points="823.46,-1216.74 831.67,-1210.04 821.08,-1210.16 823.46,-1216.74"/>
</g>
<!-- store&#45;&gt;sqlite -->
<g id="edge124" class="edge">
<title>store&#45;&gt;sqlite</title>
<path fill="none" stroke="black" d="M736.67,-1254C760.32,-1254 795.33,-1254 821.91,-1254"/>
<polygon fill="black" stroke="black" points="821.58,-1257.5 831.58,-1254 821.58,-1250.5 821.58,-1257.5"/>
</g>
<!-- wasm&#45;build&#45;guest -->
<g id="node48" class="node">
<title>wasm&#45;build&#45;guest</title>
<polygon fill="none" stroke="black" points="928.75,-178 792,-178 792,-142 928.75,-142 928.75,-178"/>
<text text-anchor="middle" x="860.38" y="-155.7" font-family="sans-serif" font-size="14.00">wasm&#45;build&#45;guest</text>
</g>
<!-- wasm&#45;build&#45;guest&#45;&gt;wasm -->
<g id="edge125" class="edge">
<title>wasm&#45;build&#45;guest&#45;&gt;wasm</title>
<path fill="none" stroke="black" d="M901.56,-178.39C910.58,-182.71 920.05,-187.4 928.75,-192 940.61,-198.27 953.32,-205.51 964.7,-212.2"/>
<polygon fill="black" stroke="black" points="962.62,-215.03 973,-217.12 966.19,-209.01 962.62,-215.03"/>
</g>
<!-- wasm&#45;spec -->
<g id="node49" class="node">
<title>wasm&#45;spec</title>
<polygon fill="none" stroke="black" points="756,-606 662.75,-606 662.75,-570 756,-570 756,-606"/>
<text text-anchor="middle" x="709.38" y="-583.7" font-family="sans-serif" font-size="14.00">wasm&#45;spec</text>
</g>
<!-- wasm&#45;spec&#45;&gt;hash -->
<g id="edge126" class="edge">
<title>wasm&#45;spec&#45;&gt;hash</title>
<path fill="none" stroke="black" d="M715.7,-606.36C725.42,-640.71 745.98,-717.18 756,-783 764.35,-837.85 759.27,-1236.2 792,-1281 799.27,-1290.95 810.81,-1297.23 822.3,-1301.21"/>
<polygon fill="black" stroke="black" points="821.13,-1304.51 831.71,-1303.93 823.07,-1297.79 821.13,-1304.51"/>
</g>
<!-- wasm&#45;spec&#45;&gt;wasm -->
<g id="edge127" class="edge">
<title>wasm&#45;spec&#45;&gt;wasm</title>
<path fill="none" stroke="black" d="M711.25,-569.82C714.37,-526.13 728.48,-414.46 792,-355 838.05,-311.89 875.44,-350.73 928.75,-317 951.01,-302.92 970.18,-279.86 983.11,-261.62"/>
<polygon fill="black" stroke="black" points="985.85,-263.81 988.6,-253.58 980.07,-259.86 985.85,-263.81"/>
</g>
<!-- wasm&#45;store&#45;&gt;json -->
<g id="edge128" class="edge">
<title>wasm&#45;store&#45;&gt;json</title>
<path fill="none" stroke="black" d="M614.36,-720.43C619.15,-724.34 623.53,-728.86 626.75,-734 682.41,-822.78 597.8,-884.77 662.75,-967 690.49,-1002.12 727.15,-970.79 756,-1005 803.83,-1061.72 745.79,-1109.96 792,-1168 799.76,-1177.75 811.21,-1184.69 822.48,-1189.56"/>
<polygon fill="black" stroke="black" points="821.09,-1192.78 831.68,-1193.07 823.59,-1186.24 821.09,-1192.78"/>
</g>
<!-- wasm&#45;store&#45;&gt;store -->
<g id="edge129" class="edge">
<title>wasm&#45;store&#45;&gt;store</title>
<path fill="none" stroke="black" d="M587.64,-720.39C597.88,-747.02 616.45,-798.04 626.75,-843 653.78,-961.01 636.01,-994.93 662.75,-1113 671.69,-1152.48 686.87,-1196.68 697.25,-1224.9"/>
<polygon fill="black" stroke="black" points="693.94,-1226.03 700.71,-1234.18 700.5,-1223.58 693.94,-1226.03"/>
</g>
<!-- wasm&#45;store&#45;&gt;wasm -->
<g id="edge130" class="edge">
<title>wasm&#45;store&#45;&gt;wasm</title>
<path fill="none" stroke="black" d="M590.48,-683.89C624.42,-622.78 733.48,-424.18 756,-355 771.47,-307.48 753.94,-165.39 792,-133 838.29,-93.61 874.73,-105.14 928.75,-133 957.94,-148.06 977.87,-181.06 989.21,-205.26"/>
<polygon fill="black" stroke="black" points="985.96,-206.55 993.2,-214.28 992.36,-203.72 985.96,-206.55"/>
</g>
<!-- web&#45;kernel -->
<g id="node51" class="node">
<title>web&#45;kernel</title>
<polygon fill="none" stroke="black" points="496,-1075 404.25,-1075 404.25,-1039 496,-1039 496,-1075"/>
<text text-anchor="middle" x="450.12" y="-1052.7" font-family="sans-serif" font-size="14.00">web&#45;kernel</text>
</g>
<!-- web&#45;kernel&#45;&gt;kernel -->
<g id="edge131" class="edge">
<title>web&#45;kernel&#45;&gt;kernel</title>
<path fill="none" stroke="black" d="M492.09,-1038.65C507.55,-1031.72 525.08,-1023.87 540.27,-1017.07"/>
<polygon fill="black" stroke="black" points="541.29,-1020.45 548.98,-1013.17 538.42,-1014.06 541.29,-1020.45"/>
</g>
</g>
</svg>
