<?xml version="1.0" encoding="UTF-8" standalone="no"?>
<!DOCTYPE svg PUBLIC "-//W3C//DTD SVG 1.1//EN"
 "http://www.w3.org/Graphics/SVG/1.1/DTD/svg11.dtd">
<!-- Generated by graphviz version 12.2.1 (0)
 -->
<!-- Title: deps Pages: 1 -->
<svg width="1484pt" height="1688pt"
 viewBox="0.00 0.00 1484.25 1688.14" xmlns="http://www.w3.org/2000/svg" xmlns:xlink="http://www.w3.org/1999/xlink">
<g id="graph0" class="graph" transform="scale(1 1) rotate(0) translate(4 1684.14)">
<title>deps</title>
<polygon fill="white" stroke="none" points="-4,4 -4,-1684.14 1480.25,-1684.14 1480.25,4 -4,4"/>
<!-- covalence -->
<g id="node1" class="node">
<title>covalence</title>
<polygon fill="none" stroke="black" points="102.62,-1062.14 18.38,-1062.14 18.38,-1026.14 102.62,-1026.14 102.62,-1062.14"/>
<text text-anchor="middle" x="60.5" y="-1039.84" font-family="sans-serif" font-size="14.00">covalence</text>
</g>
<!-- client -->
<g id="node5" class="node">
<title>client</title>
<polygon fill="none" stroke="black" points="349.75,-1054.14 295.75,-1054.14 295.75,-1018.14 349.75,-1018.14 349.75,-1054.14"/>
<text text-anchor="middle" x="322.75" y="-1031.84" font-family="sans-serif" font-size="14.00">client</text>
</g>
<!-- covalence&#45;&gt;client -->
<g id="edge1" class="edge">
<title>covalence&#45;&gt;client</title>
<path fill="none" stroke="black" d="M103.03,-1042.87C152.9,-1041.33 235.85,-1038.78 283.99,-1037.3"/>
<polygon fill="black" stroke="black" points="284.03,-1040.8 293.92,-1037 283.82,-1033.81 284.03,-1040.8"/>
</g>
<!-- fuse -->
<g id="node11" class="node">
<title>fuse</title>
<polygon fill="none" stroke="black" points="606.38,-702.14 552.38,-702.14 552.38,-666.14 606.38,-666.14 606.38,-702.14"/>
<text text-anchor="middle" x="579.38" y="-679.84" font-family="sans-serif" font-size="14.00">fuse</text>
</g>
<!-- covalence&#45;&gt;fuse -->
<g id="edge2" class="edge">
<title>covalence&#45;&gt;fuse</title>
<path fill="none" stroke="black" d="M63.62,-1025.8C69.72,-981.09 91.34,-865.4 157,-800.14 263.97,-693.83 458.85,-682.68 540.64,-683"/>
<polygon fill="black" stroke="black" points="540.54,-686.5 550.58,-683.11 540.62,-679.5 540.54,-686.5"/>
</g>
<!-- git -->
<g id="node12" class="node">
<title>git</title>
<polygon fill="none" stroke="black" points="477.12,-626.14 423.12,-626.14 423.12,-590.14 477.12,-590.14 477.12,-626.14"/>
<text text-anchor="middle" x="450.12" y="-603.84" font-family="sans-serif" font-size="14.00">git</text>
</g>
<!-- covalence&#45;&gt;git -->
<g id="edge3" class="edge">
<title>covalence&#45;&gt;git</title>
<path fill="none" stroke="black" d="M61.03,-1025.78C60.61,-969.59 67.12,-798.04 157,-704.14 192.76,-666.79 341.67,-631 412.01,-615.79"/>
<polygon fill="black" stroke="black" points="412.47,-619.27 421.52,-613.76 411.01,-612.43 412.47,-619.27"/>
</g>
<!-- hash -->
<g id="node15" class="node">
<title>hash</title>
<polygon fill="none" stroke="black" points="887.38,-748.14 833.38,-748.14 833.38,-712.14 887.38,-712.14 887.38,-748.14"/>
<text text-anchor="middle" x="860.38" y="-725.84" font-family="sans-serif" font-size="14.00">hash</text>
</g>
<!-- covalence&#45;&gt;hash -->
<g id="edge4" class="edge">
<title>covalence&#45;&gt;hash</title>
<path fill="none" stroke="black" d="M102.78,-1049.03C146.15,-1053.86 216.38,-1060.87 277.25,-1063.14 434.39,-1069.01 474.73,-1048.32 626.75,-1008.14 685.01,-992.74 711.23,-1007.48 756,-967.14 758.08,-965.26 820,-821.68 847,-758.94"/>
<polygon fill="black" stroke="black" points="850.12,-760.52 850.86,-749.95 843.69,-757.76 850.12,-760.52"/>
</g>
<!-- hol -->
<g id="node16" class="node">
<title>hol</title>
<polygon fill="none" stroke="black" points="887.38,-1630.14 833.38,-1630.14 833.38,-1594.14 887.38,-1594.14 887.38,-1630.14"/>
<text text-anchor="middle" x="860.38" y="-1607.84" font-family="sans-serif" font-size="14.00">hol</text>
</g>
<!-- covalence&#45;&gt;hol -->
<g id="edge5" class="edge">
<title>covalence&#45;&gt;hol</title>
<path fill="none" stroke="black" d="M102.83,-1055.92C109.89,-1059.7 116.42,-1064.66 121,-1071.14 174.94,-1147.46 120.61,-1404.07 157,-1490.14 200.53,-1593.09 209.98,-1680.14 321.75,-1680.14 321.75,-1680.14 321.75,-1680.14 580.38,-1680.14 669.28,-1680.14 769.69,-1647.15 822.45,-1627.13"/>
<polygon fill="black" stroke="black" points="823.49,-1630.48 831.55,-1623.61 820.96,-1623.95 823.49,-1630.48"/>
</g>
<!-- lsp -->
<g id="node24" class="node">
<title>lsp</title>
<polygon fill="none" stroke="black" points="887.38,-1050.14 833.38,-1050.14 833.38,-1014.14 887.38,-1014.14 887.38,-1050.14"/>
<text text-anchor="middle" x="860.38" y="-1027.84" font-family="sans-serif" font-size="14.00">lsp</text>
</g>
<!-- covalence&#45;&gt;lsp -->
<g id="edge6" class="edge">
<title>covalence&#45;&gt;lsp</title>
<path fill="none" stroke="black" d="M103.05,-1056.93C109.83,-1060.6 116.19,-1065.25 121,-1071.14 166.53,-1126.94 113.06,-1172.07 157,-1229.14 216.77,-1306.77 270.36,-1296.3 368.25,-1292.14 483.45,-1287.25 527.74,-1329.23 626.75,-1270.14 651.84,-1255.17 640.63,-1234.22 662.75,-1215.14 697.31,-1185.34 725.95,-1206.5 756,-1172.14 791.82,-1131.19 754.12,-1094.19 792,-1055.14 799.98,-1046.91 811.03,-1041.63 821.87,-1038.23"/>
<polygon fill="black" stroke="black" points="822.7,-1041.63 831.49,-1035.72 820.93,-1034.86 822.7,-1041.63"/>
</g>
<!-- object -->
<g id="node27" class="node">
<title>object</title>
<polygon fill="none" stroke="black" points="738,-924.14 680.75,-924.14 680.75,-888.14 738,-888.14 738,-924.14"/>
<text text-anchor="middle" x="709.38" y="-901.84" font-family="sans-serif" font-size="14.00">object</text>
</g>
<!-- covalence&#45;&gt;object -->
<g id="edge7" class="edge">
<title>covalence&#45;&gt;object</title>
<path fill="none" stroke="black" d="M102.89,-1057.49C109.61,-1061.09 115.99,-1065.58 121,-1071.14 154.86,-1108.73 122.93,-1141.73 157,-1179.14 260.84,-1293.16 353.44,-1311.95 496,-1253.14 571.75,-1221.89 582.25,-1191.95 626.75,-1123.14 647.58,-1090.93 682.63,-986.41 699.19,-935.1"/>
<polygon fill="black" stroke="black" points="702.43,-936.46 702.15,-925.86 695.76,-934.32 702.43,-936.46"/>
</g>
<!-- opentheory -->
<g id="node28" class="node">
<title>opentheory</title>
<polygon fill="none" stroke="black" points="368.25,-1570.14 277.25,-1570.14 277.25,-1534.14 368.25,-1534.14 368.25,-1570.14"/>
<text text-anchor="middle" x="322.75" y="-1547.84" font-family="sans-serif" font-size="14.00">opentheory</text>
</g>
<!-- covalence&#45;&gt;opentheory -->
<g id="edge8" class="edge">
<title>covalence&#45;&gt;opentheory</title>
<path fill="none" stroke="black" d="M103.07,-1056.13C110.02,-1059.88 116.44,-1064.78 121,-1071.14 216.4,-1204.41 73.92,-1296.87 157,-1438.14 181.82,-1480.35 229.16,-1510.61 266.74,-1529.3"/>
<polygon fill="black" stroke="black" points="265.17,-1532.42 275.7,-1533.6 268.2,-1526.11 265.17,-1532.42"/>
</g>
<!-- proto -->
<g id="node31" class="node">
<title>proto</title>
<polygon fill="none" stroke="black" points="349.75,-1000.14 295.75,-1000.14 295.75,-964.14 349.75,-964.14 349.75,-1000.14"/>
<text text-anchor="middle" x="322.75" y="-977.84" font-family="sans-serif" font-size="14.00">proto</text>
</g>
<!-- covalence&#45;&gt;proto -->
<g id="edge9" class="edge">
<title>covalence&#45;&gt;proto</title>
<path fill="none" stroke="black" d="M103.03,-1034.25C153.01,-1022.34 236.2,-1002.52 284.29,-991.07"/>
<polygon fill="black" stroke="black" points="285.04,-994.48 293.96,-988.76 283.42,-987.68 285.04,-994.48"/>
</g>
<!-- repl -->
<g id="node37" class="node">
<title>repl</title>
<polygon fill="none" stroke="black" points="349.75,-820.14 295.75,-820.14 295.75,-784.14 349.75,-784.14 349.75,-820.14"/>
<text text-anchor="middle" x="322.75" y="-797.84" font-family="sans-serif" font-size="14.00">repl</text>
</g>
<!-- covalence&#45;&gt;repl -->
<g id="edge10" class="edge">
<title>covalence&#45;&gt;repl</title>
<path fill="none" stroke="black" d="M64.33,-1025.85C71.65,-985.1 95.15,-886.54 157,-837.14 193.29,-808.16 247.95,-801.67 284.23,-800.91"/>
<polygon fill="black" stroke="black" points="283.83,-804.42 293.81,-800.86 283.79,-797.42 283.83,-804.42"/>
</g>
<!-- serve -->
<g id="node39" class="node">
<title>serve</title>
<polygon fill="none" stroke="black" points="226.12,-882.14 172.12,-882.14 172.12,-846.14 226.12,-846.14 226.12,-882.14"/>
<text text-anchor="middle" x="199.12" y="-859.84" font-family="sans-serif" font-size="14.00">serve</text>
</g>
<!-- covalence&#45;&gt;serve -->
<g id="edge11" class="edge">
<title>covalence&#45;&gt;serve</title>
<path fill="none" stroke="black" d="M70.1,-1025.82C84.84,-995.72 117.24,-934.95 157,-893.14 158.9,-891.15 160.95,-889.21 163.09,-887.33"/>
<polygon fill="black" stroke="black" points="164.84,-890.41 170.47,-881.43 160.47,-884.95 164.84,-890.41"/>
</g>
<!-- shell -->
<g id="node41" class="node">
<title>shell</title>
<polygon fill="none" stroke="black" points="477.12,-1244.14 423.12,-1244.14 423.12,-1208.14 477.12,-1208.14 477.12,-1244.14"/>
<text text-anchor="middle" x="450.12" y="-1221.84" font-family="sans-serif" font-size="14.00">shell</text>
</g>
<!-- covalence&#45;&gt;shell -->
<g id="edge12" class="edge">
<title>covalence&#45;&gt;shell</title>
<path fill="none" stroke="black" d="M102.95,-1058.84C109.43,-1062.25 115.72,-1066.33 121,-1071.14 144.84,-1092.86 134.71,-1110.84 157,-1134.14 200.7,-1179.83 217.4,-1189.76 277.25,-1210.14 321.6,-1225.24 375.88,-1227.87 411.42,-1227.62"/>
<polygon fill="black" stroke="black" points="411.26,-1231.13 421.2,-1227.47 411.14,-1224.13 411.26,-1231.13"/>
</g>
<!-- store -->
<g id="node45" class="node">
<title>store</title>
<polygon fill="none" stroke="black" points="736.38,-398.14 682.38,-398.14 682.38,-362.14 736.38,-362.14 736.38,-398.14"/>
<text text-anchor="middle" x="709.38" y="-375.84" font-family="sans-serif" font-size="14.00">store</text>
</g>
<!-- covalence&#45;&gt;store -->
<g id="edge13" class="edge">
<title>covalence&#45;&gt;store</title>
<path fill="none" stroke="black" d="M62.75,-1026.03C67.35,-968.62 86.93,-786.82 157,-657.14 176.18,-621.64 367.56,-407.93 404.25,-391.14 492.76,-350.65 611.37,-362.74 670.93,-372.7"/>
<polygon fill="black" stroke="black" points="670.08,-376.11 680.53,-374.39 671.29,-369.21 670.08,-376.11"/>
</g>
<!-- wasm -->
<g id="node47" class="node">
<title>wasm</title>
<polygon fill="none" stroke="black" points="1032.12,-223.14 977.88,-223.14 977.88,-187.14 1032.12,-187.14 1032.12,-223.14"/>
<text text-anchor="middle" x="1005" y="-200.84" font-family="sans-serif" font-size="14.00">wasm</text>
</g>
<!-- covalence&#45;&gt;wasm -->
<g id="edge14" class="edge">
<title>covalence&#45;&gt;wasm</title>
<path fill="none" stroke="black" d="M61.65,-1026.09C62.86,-959.43 73.15,-722.29 157,-552.14 192.67,-479.77 219.15,-472.13 277.25,-416.14 382.7,-314.52 394.21,-256.76 532,-207.14 552.27,-199.84 857.94,-203.19 966.28,-204.61"/>
<polygon fill="black" stroke="black" points="966.05,-208.11 976.1,-204.75 966.14,-201.11 966.05,-208.11"/>
</g>
<!-- acset -->
<g id="node2" class="node">
<title>acset</title>
<polygon fill="none" stroke="black" points="887.38,-590.14 833.38,-590.14 833.38,-554.14 887.38,-554.14 887.38,-590.14"/>
<text text-anchor="middle" x="860.38" y="-567.84" font-family="sans-serif" font-size="14.00">acset</text>
</g>
<!-- alethe -->
<g id="node3" class="node">
<title>alethe</title>
<polygon fill="none" stroke="black" points="607.62,-1396.14 551.12,-1396.14 551.12,-1360.14 607.62,-1360.14 607.62,-1396.14"/>
<text text-anchor="middle" x="579.38" y="-1373.84" font-family="sans-serif" font-size="14.00">alethe</text>
</g>
<!-- core -->
<g id="node6" class="node">
<title>core</title>
<polygon fill="#ffd6d6" stroke="black" points="1032,-1462.14 978,-1462.14 978,-1426.14 1032,-1426.14 1032,-1462.14"/>
<text text-anchor="middle" x="1005" y="-1439.84" font-family="sans-serif" font-size="14.00">core</text>
</g>
<!-- alethe&#45;&gt;core -->
<g id="edge15" class="edge">
<title>alethe&#45;&gt;core</title>
<path fill="none" stroke="black" d="M607.83,-1386.09C647.93,-1397.36 725.03,-1417.77 792,-1428.14 852.55,-1437.52 923.72,-1441.46 966.27,-1443.08"/>
<polygon fill="black" stroke="black" points="966.11,-1446.57 976.23,-1443.43 966.36,-1439.58 966.11,-1446.57"/>
</g>
<!-- init -->
<g id="node18" class="node">
<title>init</title>
<polygon fill="none" stroke="black" points="736.38,-1260.14 682.38,-1260.14 682.38,-1224.14 736.38,-1224.14 736.38,-1260.14"/>
<text text-anchor="middle" x="709.38" y="-1237.84" font-family="sans-serif" font-size="14.00">init</text>
</g>
<!-- alethe&#45;&gt;init -->
<g id="edge16" class="edge">
<title>alethe&#45;&gt;init</title>
<path fill="none" stroke="black" d="M607.75,-1362.62C614.52,-1357.92 621.36,-1352.35 626.75,-1346.14 650.21,-1319.13 639.39,-1301.24 662.75,-1274.14 665.81,-1270.6 669.34,-1267.25 673.05,-1264.15"/>
<polygon fill="black" stroke="black" points="674.88,-1267.16 680.72,-1258.31 670.64,-1261.59 674.88,-1267.16"/>
</g>
<!-- sexp -->
<g id="node40" class="node">
<title>sexp</title>
<polygon fill="#ffd6d6" stroke="black" points="1148.12,-1042.14 1094.12,-1042.14 1094.12,-1006.14 1148.12,-1006.14 1148.12,-1042.14"/>
<text text-anchor="middle" x="1121.12" y="-1019.84" font-family="sans-serif" font-size="14.00">sexp</text>
</g>
<!-- alethe&#45;&gt;sexp -->
<g id="edge17" class="edge">
<title>alethe&#45;&gt;sexp</title>
<path fill="none" stroke="black" d="M607.98,-1360.24C623.69,-1350.43 643.94,-1338.41 662.75,-1329.14 776.9,-1272.88 830.21,-1303.68 928.75,-1223.14 951.37,-1204.65 942.22,-1186.74 964.75,-1168.14 994.57,-1143.52 1015.26,-1159.55 1045.25,-1135.14 1072.89,-1112.64 1094.28,-1077.28 1106.99,-1052.53"/>
<polygon fill="black" stroke="black" points="1110.07,-1054.19 1111.38,-1043.68 1103.8,-1051.08 1110.07,-1054.19"/>
</g>
<!-- smt -->
<g id="node42" class="node">
<title>smt</title>
<polygon fill="none" stroke="black" points="736.38,-1374.14 682.38,-1374.14 682.38,-1338.14 736.38,-1338.14 736.38,-1374.14"/>
<text text-anchor="middle" x="709.38" y="-1351.84" font-family="sans-serif" font-size="14.00">smt</text>
</g>
<!-- alethe&#45;&gt;smt -->
<g id="edge18" class="edge">
<title>alethe&#45;&gt;smt</title>
<path fill="none" stroke="black" d="M607.83,-1373.42C626.26,-1370.26 650.75,-1366.05 670.95,-1362.57"/>
<polygon fill="black" stroke="black" points="671.52,-1366.03 680.78,-1360.89 670.33,-1359.13 671.52,-1366.03"/>
</g>
<!-- types -->
<g id="node46" class="node">
<title>types</title>
<polygon fill="#ffd6d6" stroke="black" points="1476.25,-1416.14 1422.25,-1416.14 1422.25,-1380.14 1476.25,-1380.14 1476.25,-1416.14"/>
<text text-anchor="middle" x="1449.25" y="-1393.84" font-family="sans-serif" font-size="14.00">types</text>
</g>
<!-- alethe&#45;&gt;types -->
<g id="edge19" class="edge">
<title>alethe&#45;&gt;types</title>
<path fill="none" stroke="black" d="M607.66,-1390.95C614.01,-1394.13 620.68,-1397.63 626.75,-1401.14 643.4,-1410.77 645.07,-1417.57 662.75,-1425.14 906.87,-1529.72 986.81,-1557.2 1251,-1530.14 1312.07,-1523.89 1336.24,-1537.74 1386.25,-1502.14 1412.12,-1483.72 1429.05,-1450.83 1438.58,-1426.95"/>
<polygon fill="black" stroke="black" points="1441.78,-1428.39 1442.02,-1417.8 1435.23,-1425.92 1441.78,-1428.39"/>
</g>
<!-- arrow -->
<g id="node4" class="node">
<title>arrow</title>
<polygon fill="none" stroke="black" points="606.38,-832.14 552.38,-832.14 552.38,-796.14 606.38,-796.14 606.38,-832.14"/>
<text text-anchor="middle" x="579.38" y="-809.84" font-family="sans-serif" font-size="14.00">arrow</text>
</g>
<!-- client&#45;&gt;hash -->
<g id="edge20" class="edge">
<title>client&#45;&gt;hash</title>
<path fill="none" stroke="black" d="M350,-1032.96C433.71,-1022.33 692.56,-985.81 756,-933.14 784.93,-909.13 827.9,-808.82 848.11,-758.78"/>
<polygon fill="black" stroke="black" points="851.26,-760.34 851.72,-749.75 844.76,-757.74 851.26,-760.34"/>
</g>
<!-- client&#45;&gt;shell -->
<g id="edge21" class="edge">
<title>client&#45;&gt;shell</title>
<path fill="none" stroke="black" d="M349.87,-1050.55C356.67,-1055.37 363.43,-1061.29 368.25,-1068.14 401.75,-1115.78 370.66,-1146.57 404.25,-1194.14 406.98,-1198.01 410.34,-1201.58 413.97,-1204.82"/>
<polygon fill="black" stroke="black" points="411.58,-1207.39 421.6,-1210.84 415.91,-1201.9 411.58,-1207.39"/>
</g>
<!-- client&#45;&gt;store -->
<g id="edge22" class="edge">
<title>client&#45;&gt;store</title>
<path fill="none" stroke="black" d="M349.98,-1023.45C356.48,-1019.49 363.05,-1014.68 368.25,-1009.14 452.04,-919.9 448.1,-877.79 496,-765.14 515.8,-718.58 510.58,-702.98 532,-657.14 578.87,-556.85 601.87,-537.6 662.75,-445.14 670.98,-432.64 680.44,-419.05 688.6,-407.54"/>
<polygon fill="black" stroke="black" points="691.26,-409.84 694.22,-399.67 685.56,-405.77 691.26,-409.84"/>
</g>
<!-- pure -->
<g id="node32" class="node">
<title>pure</title>
<polygon fill="#ffd6d6" stroke="black" points="1251,-1416.14 1197,-1416.14 1197,-1380.14 1251,-1380.14 1251,-1416.14"/>
<text text-anchor="middle" x="1224" y="-1393.84" font-family="sans-serif" font-size="14.00">pure</text>
</g>
<!-- core&#45;&gt;pure -->
<g id="edge23" class="edge">
<title>core&#45;&gt;pure</title>
<path fill="none" stroke="black" d="M1032.4,-1433.12C1046.64,-1427.57 1064.66,-1421.18 1081.25,-1417.14 1116.02,-1408.67 1156.58,-1403.72 1185.38,-1401"/>
<polygon fill="black" stroke="black" points="1185.41,-1404.52 1195.06,-1400.14 1184.79,-1397.54 1185.41,-1404.52"/>
</g>
<!-- pure&#45;eval -->
<g id="node33" class="node">
<title>pure&#45;eval</title>
<polygon fill="#ffd6d6" stroke="black" points="1161,-1462.14 1081.25,-1462.14 1081.25,-1426.14 1161,-1426.14 1161,-1462.14"/>
<text text-anchor="middle" x="1121.12" y="-1439.84" font-family="sans-serif" font-size="14.00">pure&#45;eval</text>
</g>
<!-- core&#45;&gt;pure&#45;eval -->
<g id="edge24" class="edge">
<title>core&#45;&gt;pure&#45;eval</title>
<path fill="none" stroke="black" d="M1032.47,-1444.14C1043.46,-1444.14 1056.6,-1444.14 1069.32,-1444.14"/>
<polygon fill="black" stroke="black" points="1069.3,-1447.64 1079.3,-1444.14 1069.3,-1440.64 1069.3,-1447.64"/>
</g>
<!-- core&#45;&gt;sexp -->
<g id="edge25" class="edge">
<title>core&#45;&gt;sexp</title>
<path fill="none" stroke="black" d="M1010.98,-1425.83C1028.89,-1359.91 1090.16,-1134.44 1112.17,-1053.42"/>
<polygon fill="black" stroke="black" points="1115.48,-1054.58 1114.72,-1044.02 1108.72,-1052.75 1115.48,-1054.58"/>
</g>
<!-- core&#45;&gt;types -->
<g id="edge26" class="edge">
<title>core&#45;&gt;types</title>
<path fill="none" stroke="black" d="M1032.21,-1456.06C1046.4,-1461.87 1064.43,-1468.22 1081.25,-1471.14 1165.18,-1485.74 1372.23,-1452.86 1386.25,-1447.14 1399.32,-1441.81 1411.89,-1432.85 1422.26,-1424.04"/>
<polygon fill="black" stroke="black" points="1424.52,-1426.72 1429.64,-1417.44 1419.85,-1421.5 1424.52,-1426.72"/>
</g>
<!-- core&#45;test&#45;guest -->
<g id="node7" class="node">
<title>core&#45;test&#45;guest</title>
<polygon fill="none" stroke="black" points="121,-1116.14 0,-1116.14 0,-1080.14 121,-1080.14 121,-1116.14"/>
<text text-anchor="middle" x="60.5" y="-1093.84" font-family="sans-serif" font-size="14.00">core&#45;test&#45;guest</text>
</g>
<!-- crypto&#45;sig -->
<g id="node8" class="node">
<title>crypto&#45;sig</title>
<polygon fill="none" stroke="black" points="241.25,-226.14 157,-226.14 157,-190.14 241.25,-190.14 241.25,-226.14"/>
<text text-anchor="middle" x="199.12" y="-203.84" font-family="sans-serif" font-size="14.00">crypto&#45;sig</text>
</g>
<!-- egglog -->
<g id="node9" class="node">
<title>egglog</title>
<polygon fill="none" stroke="black" points="1035.5,-1256.14 974.5,-1256.14 974.5,-1220.14 1035.5,-1220.14 1035.5,-1256.14"/>
<text text-anchor="middle" x="1005" y="-1233.84" font-family="sans-serif" font-size="14.00">egglog</text>
</g>
<!-- egglog&#45;&gt;sexp -->
<g id="edge27" class="edge">
<title>egglog&#45;&gt;sexp</title>
<path fill="none" stroke="black" d="M1032.24,-1219.84C1036.99,-1215.72 1041.58,-1211.08 1045.25,-1206.14 1080.78,-1158.28 1102.65,-1091.13 1112.99,-1053.21"/>
<polygon fill="black" stroke="black" points="1116.28,-1054.46 1115.44,-1043.9 1109.51,-1052.68 1116.28,-1054.46"/>
</g>
<!-- egglog&#45;&gt;types -->
<g id="edge28" class="edge">
<title>egglog&#45;&gt;types</title>
<path fill="none" stroke="black" d="M1035.91,-1231.5C1104.67,-1218.02 1276.49,-1194.75 1386.25,-1270.14 1419.49,-1292.97 1435.55,-1338.77 1442.83,-1368.94"/>
<polygon fill="black" stroke="black" points="1439.38,-1369.55 1444.95,-1378.56 1446.21,-1368.04 1439.38,-1369.55"/>
</g>
<!-- forsp -->
<g id="node10" class="node">
<title>forsp</title>
<polygon fill="none" stroke="black" points="736.38,-1092.14 682.38,-1092.14 682.38,-1056.14 736.38,-1056.14 736.38,-1092.14"/>
<text text-anchor="middle" x="709.38" y="-1069.84" font-family="sans-serif" font-size="14.00">forsp</text>
</g>
<!-- forsp&#45;&gt;hash -->
<g id="edge29" class="edge">
<title>forsp&#45;&gt;hash</title>
<path fill="none" stroke="black" d="M736.84,-1060.29C743.98,-1055.41 751.08,-1049.33 756,-1042.14 793.76,-987 771.38,-959.71 792,-896.14 808.04,-846.7 831.85,-791.07 846.45,-758.4"/>
<polygon fill="black" stroke="black" points="849.48,-760.18 850.4,-749.63 843.1,-757.31 849.48,-760.18"/>
</g>
<!-- forsp&#45;&gt;sexp -->
<g id="edge30" class="edge">
<title>forsp&#45;&gt;sexp</title>
<path fill="none" stroke="black" d="M736.45,-1058.86C743.58,-1053.67 750.77,-1047.33 756,-1040.14 785.27,-999.91 751.56,-963.12 792,-934.14 883.5,-868.59 943.34,-886.36 1045.25,-934.14 1072.29,-946.82 1092.96,-974.6 1105.66,-995.97"/>
<polygon fill="black" stroke="black" points="1102.54,-997.55 1110.51,-1004.53 1108.63,-994.1 1102.54,-997.55"/>
</g>
<!-- fuse&#45;&gt;hash -->
<g id="edge31" class="edge">
<title>fuse&#45;&gt;hash</title>
<path fill="none" stroke="black" d="M606.87,-688.51C656.76,-696.74 764.73,-714.54 821.98,-723.98"/>
<polygon fill="black" stroke="black" points="821.12,-727.38 831.56,-725.56 822.26,-720.48 821.12,-727.38"/>
</g>
<!-- fuse&#45;&gt;object -->
<g id="edge32" class="edge">
<title>fuse&#45;&gt;object</title>
<path fill="none" stroke="black" d="M593.25,-702.56C602.83,-716.51 616.05,-736.25 626.75,-754.14 652.05,-796.45 678.56,-847.19 694.27,-878.03"/>
<polygon fill="black" stroke="black" points="691.02,-879.37 698.67,-886.71 697.27,-876.21 691.02,-879.37"/>
</g>
<!-- fuse&#45;&gt;store -->
<g id="edge33" class="edge">
<title>fuse&#45;&gt;store</title>
<path fill="none" stroke="black" d="M589.21,-665.72C599.18,-644.46 615.49,-608.3 626.75,-576.14 646.71,-519.16 637.03,-499.77 662.75,-445.14 668.99,-431.89 677.91,-418.44 686.21,-407.24"/>
<polygon fill="black" stroke="black" points="688.75,-409.69 692.04,-399.62 683.19,-405.43 688.75,-409.69"/>
</g>
<!-- git&#45;&gt;hash -->
<g id="edge34" class="edge">
<title>git&#45;&gt;hash</title>
<path fill="none" stroke="black" d="M477.39,-614.94C530.39,-628.8 653.77,-661.74 756,-694.14 778.21,-701.18 802.86,-709.74 822.52,-716.74"/>
<polygon fill="black" stroke="black" points="821.15,-719.97 831.74,-720.05 823.51,-713.38 821.15,-719.97"/>
</g>
<!-- git&#45;&gt;object -->
<g id="edge35" class="edge">
<title>git&#45;&gt;object</title>
<path fill="none" stroke="black" d="M463.43,-626.28C478.38,-647.69 504.97,-683.83 532,-711.14 569.97,-749.51 590.03,-747.57 626.75,-787.14 653.11,-815.55 677.42,-853.08 692.53,-878.33"/>
<polygon fill="black" stroke="black" points="689.37,-879.87 697.46,-886.71 695.4,-876.31 689.37,-879.87"/>
</g>
<!-- sqlite -->
<g id="node44" class="node">
<title>sqlite</title>
<polygon fill="none" stroke="black" points="887.38,-436.14 833.38,-436.14 833.38,-400.14 887.38,-400.14 887.38,-436.14"/>
<text text-anchor="middle" x="860.38" y="-413.84" font-family="sans-serif" font-size="14.00">sqlite</text>
</g>
<!-- git&#45;&gt;sqlite -->
<g id="edge36" class="edge">
<title>git&#45;&gt;sqlite</title>
<path fill="none" stroke="black" d="M477.45,-593.28C513.28,-572.38 578.47,-531.93 626.75,-488.14 645.21,-471.4 640.94,-457.2 662.75,-445.14 712.67,-417.54 780.25,-414.35 821.78,-415.53"/>
<polygon fill="black" stroke="black" points="821.37,-419.02 831.5,-415.92 821.65,-412.03 821.37,-419.02"/>
</g>
<!-- git&#45;&gt;store -->
<g id="edge37" class="edge">
<title>git&#45;&gt;store</title>
<path fill="none" stroke="black" d="M464.26,-589.7C479.37,-569.12 505.51,-535.42 532,-510.14 584.54,-460 603.96,-454.78 662.75,-412.14 666.08,-409.73 669.56,-407.23 673.05,-404.75"/>
<polygon fill="black" stroke="black" points="674.83,-407.78 680.98,-399.15 670.79,-402.06 674.83,-407.78"/>
</g>
<!-- grammar -->
<g id="node13" class="node">
<title>grammar</title>
<polygon fill="none" stroke="black" points="1041.88,-1126.14 968.12,-1126.14 968.12,-1090.14 1041.88,-1090.14 1041.88,-1126.14"/>
<text text-anchor="middle" x="1005" y="-1103.84" font-family="sans-serif" font-size="14.00">grammar</text>
</g>
<!-- graph -->
<g id="node14" class="node">
<title>graph</title>
<polygon fill="none" stroke="black" points="477.12,-436.14 423.12,-436.14 423.12,-400.14 477.12,-400.14 477.12,-436.14"/>
<text text-anchor="middle" x="450.12" y="-413.84" font-family="sans-serif" font-size="14.00">graph</text>
</g>
<!-- graph&#45;&gt;hash -->
<g id="edge38" class="edge">
<title>graph&#45;&gt;hash</title>
<path fill="none" stroke="black" d="M477.48,-436.6C516.82,-463.79 593.72,-515.43 662.75,-553.14 702.8,-575.02 720.31,-567.7 756,-596.14 793.61,-626.12 825.39,-672.55 843.42,-702.14"/>
<polygon fill="black" stroke="black" points="840.31,-703.75 848.43,-710.54 846.32,-700.16 840.31,-703.75"/>
</g>
<!-- parse -->
<g id="node30" class="node">
<title>parse</title>
<polygon fill="#ffd6d6" stroke="black" points="1251,-675.14 1197,-675.14 1197,-639.14 1251,-639.14 1251,-675.14"/>
<text text-anchor="middle" x="1224" y="-652.84" font-family="sans-serif" font-size="14.00">parse</text>
</g>
<!-- graph&#45;&gt;parse -->
<g id="edge39" class="edge">
<title>graph&#45;&gt;parse</title>
<path fill="none" stroke="black" d="M454.49,-399.76C462.35,-360.86 484.93,-268.69 532,-207.14 650.77,-51.84 741.68,39.7 928.75,-17.14 1063.62,-58.12 1103.32,-104.52 1161,-233.14 1192.92,-304.31 1214.14,-543.36 1220.78,-627.52"/>
<polygon fill="black" stroke="black" points="1217.27,-627.57 1221.54,-637.27 1224.25,-627.03 1217.27,-627.57"/>
</g>
<!-- rand -->
<g id="node36" class="node">
<title>rand</title>
<polygon fill="none" stroke="black" points="1032,-748.14 978,-748.14 978,-712.14 1032,-712.14 1032,-748.14"/>
<text text-anchor="middle" x="1005" y="-725.84" font-family="sans-serif" font-size="14.00">rand</text>
</g>
<!-- hash&#45;&gt;rand -->
<g id="edge40" class="edge">
<title>hash&#45;&gt;rand</title>
<path fill="none" stroke="black" d="M887.87,-730.14C909.88,-730.14 941.48,-730.14 966.16,-730.14"/>
<polygon fill="black" stroke="black" points="966.14,-733.64 976.14,-730.14 966.14,-726.64 966.14,-733.64"/>
</g>
<!-- hol&#45;&gt;core -->
<g id="edge41" class="edge">
<title>hol&#45;&gt;core</title>
<path fill="none" stroke="black" d="M887.64,-1604.04C901.14,-1598.86 917.14,-1591.05 928.75,-1580.14 960.83,-1549.99 982.59,-1503.03 994.15,-1472.93"/>
<polygon fill="black" stroke="black" points="997.37,-1474.31 997.55,-1463.71 990.8,-1471.88 997.37,-1474.31"/>
</g>
<!-- hol&#45;eval -->
<g id="node17" class="node">
<title>hol&#45;eval</title>
<polygon fill="none" stroke="black" points="895.38,-1386.14 825.38,-1386.14 825.38,-1350.14 895.38,-1350.14 895.38,-1386.14"/>
<text text-anchor="middle" x="860.38" y="-1363.84" font-family="sans-serif" font-size="14.00">hol&#45;eval</text>
</g>
<!-- hol&#45;eval&#45;&gt;core -->
<g id="edge42" class="edge">
<title>hol&#45;eval&#45;&gt;core</title>
<path fill="none" stroke="black" d="M895.59,-1383.7C906.3,-1388.75 918.1,-1394.51 928.75,-1400.14 941.84,-1407.06 955.92,-1415.12 968.31,-1422.43"/>
<polygon fill="black" stroke="black" points="966.16,-1425.23 976.54,-1427.33 969.74,-1419.21 966.16,-1425.23"/>
</g>
<!-- hol&#45;eval&#45;&gt;pure -->
<g id="edge43" class="edge">
<title>hol&#45;eval&#45;&gt;pure</title>
<path fill="none" stroke="black" d="M895.72,-1370.99C963.72,-1376.63 1114.99,-1389.18 1185.49,-1395.03"/>
<polygon fill="black" stroke="black" points="1185.12,-1398.51 1195.37,-1395.85 1185.69,-1391.54 1185.12,-1398.51"/>
</g>
<!-- hol&#45;eval&#45;&gt;pure&#45;eval -->
<g id="edge44" class="edge">
<title>hol&#45;eval&#45;&gt;pure&#45;eval</title>
<path fill="none" stroke="black" d="M895.85,-1376.39C932.99,-1385.5 993.7,-1401.01 1045.25,-1417.14 1053.41,-1419.7 1062,-1422.59 1070.34,-1425.52"/>
<polygon fill="black" stroke="black" points="1069.07,-1428.78 1079.67,-1428.84 1071.42,-1422.19 1069.07,-1428.78"/>
</g>
<!-- hol&#45;eval&#45;&gt;types -->
<g id="edge45" class="edge">
<title>hol&#45;eval&#45;&gt;types</title>
<path fill="none" stroke="black" d="M895.77,-1358.05C945.02,-1344.51 1038.68,-1322.14 1120.12,-1322.14 1120.12,-1322.14 1120.12,-1322.14 1225,-1322.14 1293.84,-1322.14 1368.56,-1354.93 1411.73,-1377.43"/>
<polygon fill="black" stroke="black" points="1409.94,-1380.44 1420.42,-1382.05 1413.23,-1374.26 1409.94,-1380.44"/>
</g>
<!-- init&#45;&gt;core -->
<g id="edge46" class="edge">
<title>init&#45;&gt;core</title>
<path fill="none" stroke="black" d="M720.01,-1260.44C741.28,-1300.79 790.5,-1393.99 792,-1395.14 819.04,-1415.86 913.21,-1431.71 966.49,-1439.26"/>
<polygon fill="black" stroke="black" points="965.95,-1442.72 976.34,-1440.63 966.91,-1435.79 965.95,-1442.72"/>
</g>
<!-- init&#45;&gt;grammar -->
<g id="edge47" class="edge">
<title>init&#45;&gt;grammar</title>
<path fill="none" stroke="black" d="M736.66,-1238.08C787.52,-1229.84 897.17,-1210.18 928.75,-1189.14 951.24,-1174.16 946.13,-1159.73 964.75,-1140.14 966.71,-1138.08 968.8,-1136.03 970.96,-1134.01"/>
<polygon fill="black" stroke="black" points="973.16,-1136.75 978.35,-1127.52 968.53,-1131.49 973.16,-1136.75"/>
</g>
<!-- init&#45;&gt;hash -->
<g id="edge48" class="edge">
<title>init&#45;&gt;hash</title>
<path fill="none" stroke="black" d="M716.52,-1223.97C725.52,-1197.18 742.65,-1145.49 756,-1101.14 794.11,-974.53 835.03,-822.14 851.67,-759.36"/>
<polygon fill="black" stroke="black" points="855.02,-760.39 854.2,-749.83 848.25,-758.6 855.02,-760.39"/>
</g>
<!-- init&#45;&gt;hol -->
<g id="edge49" class="edge">
<title>init&#45;&gt;hol</title>
<path fill="none" stroke="black" d="M720.9,-1260.46C730.66,-1277.82 745.25,-1304.8 756,-1329.14 774.91,-1371.97 775.95,-1384.16 792,-1428.14 811.99,-1482.93 835.43,-1546.86 848.72,-1583.11"/>
<polygon fill="black" stroke="black" points="845.42,-1584.26 852.15,-1592.44 851.99,-1581.85 845.42,-1584.26"/>
</g>
<!-- init&#45;&gt;hol&#45;eval -->
<g id="edge50" class="edge">
<title>init&#45;&gt;hol&#45;eval</title>
<path fill="none" stroke="black" d="M732.04,-1260.46C757.64,-1282.11 800.39,-1318.26 829.22,-1342.64"/>
<polygon fill="black" stroke="black" points="826.63,-1345.04 836.53,-1348.82 831.15,-1339.69 826.63,-1345.04"/>
</g>
<!-- metamath -->
<g id="node25" class="node">
<title>metamath</title>
<polygon fill="none" stroke="black" points="1045.25,-871.14 964.75,-871.14 964.75,-835.14 1045.25,-835.14 1045.25,-871.14"/>
<text text-anchor="middle" x="1005" y="-848.84" font-family="sans-serif" font-size="14.00">metamath</text>
</g>
<!-- init&#45;&gt;metamath -->
<g id="edge51" class="edge">
<title>init&#45;&gt;metamath</title>
<path fill="none" stroke="black" d="M736.48,-1228.03C743.61,-1223.15 750.8,-1217.12 756,-1210.14 786.23,-1169.57 755.92,-1137.61 792,-1102.14 837.43,-1057.48 882.68,-1103.15 928.75,-1059.14 978.93,-1011.2 995.8,-927.08 1001.36,-882.62"/>
<polygon fill="black" stroke="black" points="1004.81,-883.28 1002.45,-872.95 997.85,-882.5 1004.81,-883.28"/>
</g>
<!-- init&#45;&gt;sexp -->
<g id="edge52" class="edge">
<title>init&#45;&gt;sexp</title>
<path fill="none" stroke="black" d="M736.42,-1227.28C743.38,-1222.45 750.49,-1216.64 756,-1210.14 779.91,-1181.94 763.81,-1159.07 792,-1135.14 840.27,-1094.16 868.8,-1115.53 928.75,-1095.14 945,-1089.62 948.69,-1087.21 964.75,-1081.14 1005.14,-1065.88 1051.66,-1048.89 1083.18,-1037.47"/>
<polygon fill="black" stroke="black" points="1084.04,-1040.88 1092.25,-1034.18 1081.66,-1034.3 1084.04,-1040.88"/>
</g>
<!-- spectec -->
<g id="node43" class="node">
<title>spectec</title>
<polygon fill="none" stroke="black" points="895,-1180.14 825.75,-1180.14 825.75,-1144.14 895,-1144.14 895,-1180.14"/>
<text text-anchor="middle" x="860.38" y="-1157.84" font-family="sans-serif" font-size="14.00">spectec</text>
</g>
<!-- init&#45;&gt;spectec -->
<g id="edge53" class="edge">
<title>init&#45;&gt;spectec</title>
<path fill="none" stroke="black" d="M736.51,-1225.98C752.36,-1216.37 773.12,-1204.15 792,-1194.14 799.48,-1190.18 807.53,-1186.15 815.37,-1182.35"/>
<polygon fill="black" stroke="black" points="816.62,-1185.64 824.13,-1178.17 813.6,-1179.32 816.62,-1185.64"/>
</g>
<!-- init&#45;&gt;types -->
<g id="edge54" class="edge">
<title>init&#45;&gt;types</title>
<path fill="none" stroke="black" d="M736.64,-1246.72C801.52,-1257.6 974.6,-1284.14 1120.12,-1284.14 1120.12,-1284.14 1120.12,-1284.14 1225,-1284.14 1299.06,-1284.14 1323.4,-1286.97 1386.25,-1326.14 1404.22,-1337.34 1419.76,-1355.41 1430.78,-1370.65"/>
<polygon fill="black" stroke="black" points="1427.61,-1372.21 1436.18,-1378.44 1433.36,-1368.22 1427.61,-1372.21"/>
</g>
<!-- json -->
<g id="node19" class="node">
<title>json</title>
<polygon fill="none" stroke="black" points="887.38,-375.14 833.38,-375.14 833.38,-339.14 887.38,-339.14 887.38,-375.14"/>
<text text-anchor="middle" x="860.38" y="-352.84" font-family="sans-serif" font-size="14.00">json</text>
</g>
<!-- kernel -->
<g id="node20" class="node">
<title>kernel</title>
<polygon fill="none" stroke="black" points="608,-1114.14 550.75,-1114.14 550.75,-1078.14 608,-1078.14 608,-1114.14"/>
<text text-anchor="middle" x="579.38" y="-1091.84" font-family="sans-serif" font-size="14.00">kernel</text>
</g>
<!-- kernel&#45;&gt;hash -->
<g id="edge55" class="edge">
<title>kernel&#45;&gt;hash</title>
<path fill="none" stroke="black" d="M608.17,-1078.62C623.95,-1068.93 644.2,-1056.9 662.75,-1047.14 703.14,-1025.89 725.56,-1038.14 756,-1004.14 789.75,-966.45 774.48,-943.61 792,-896.14 810,-847.38 833.21,-791.55 847.16,-758.65"/>
<polygon fill="black" stroke="black" points="850.22,-760.38 850.92,-749.81 843.78,-757.64 850.22,-760.38"/>
</g>
<!-- kernel&#45;&gt;init -->
<g id="edge56" class="edge">
<title>kernel&#45;&gt;init</title>
<path fill="none" stroke="black" d="M596.59,-1114.63C618.9,-1140.08 659.22,-1186.07 684.85,-1215.31"/>
<polygon fill="black" stroke="black" points="682.07,-1217.45 691.3,-1222.66 687.34,-1212.84 682.07,-1217.45"/>
</g>
<!-- kernel&#45;&gt;object -->
<g id="edge57" class="edge">
<title>kernel&#45;&gt;object</title>
<path fill="none" stroke="black" d="M592.65,-1077.92C615.15,-1044.53 663.11,-973.33 689.68,-933.89"/>
<polygon fill="black" stroke="black" points="692.42,-936.09 695.11,-925.84 686.62,-932.18 692.42,-936.09"/>
</g>
<!-- kernel&#45;&gt;sexp -->
<g id="edge58" class="edge">
<title>kernel&#45;&gt;sexp</title>
<path fill="none" stroke="black" d="M608.26,-1106.71C645.88,-1118.98 713.12,-1133.69 756,-1101.14 803.41,-1065.15 744.59,-1008.13 792,-972.14 881.65,-904.09 937.84,-938.5 1045.25,-972.14 1062.43,-977.52 1079.13,-988.39 1092.38,-998.8"/>
<polygon fill="black" stroke="black" points="1089.85,-1001.25 1099.79,-1004.91 1094.29,-995.85 1089.85,-1001.25"/>
</g>
<!-- kernel&#45;&gt;store -->
<g id="edge59" class="edge">
<title>kernel&#45;&gt;store</title>
<path fill="none" stroke="black" d="M584.32,-1077.68C593.13,-1035.79 614.61,-930.31 626.75,-841.14 650.58,-666.03 601.93,-611.07 662.75,-445.14 667.67,-431.73 676.08,-418.52 684.35,-407.55"/>
<polygon fill="black" stroke="black" points="687.09,-409.74 690.56,-399.73 681.6,-405.39 687.09,-409.74"/>
</g>
<!-- kv -->
<g id="node21" class="node">
<title>kv</title>
<polygon fill="none" stroke="black" points="226.12,-424.14 172.12,-424.14 172.12,-388.14 226.12,-388.14 226.12,-424.14"/>
<text text-anchor="middle" x="199.12" y="-401.84" font-family="sans-serif" font-size="14.00">kv</text>
</g>
<!-- lean -->
<g id="node22" class="node">
<title>lean</title>
<polygon fill="none" stroke="black" points="87.5,-1170.14 33.5,-1170.14 33.5,-1134.14 87.5,-1134.14 87.5,-1170.14"/>
<text text-anchor="middle" x="60.5" y="-1147.84" font-family="sans-serif" font-size="14.00">lean</text>
</g>
<!-- llm -->
<g id="node23" class="node">
<title>llm</title>
<polygon fill="none" stroke="black" points="226.12,-938.14 172.12,-938.14 172.12,-902.14 226.12,-902.14 226.12,-938.14"/>
<text text-anchor="middle" x="199.12" y="-915.84" font-family="sans-serif" font-size="14.00">llm</text>
</g>
<!-- llm&#45;&gt;proto -->
<g id="edge60" class="edge">
<title>llm&#45;&gt;proto</title>
<path fill="none" stroke="black" d="M226.52,-933.6C243.73,-942.37 266.43,-953.94 285.35,-963.59"/>
<polygon fill="black" stroke="black" points="283.56,-966.6 294.06,-968.03 286.74,-960.37 283.56,-966.6"/>
</g>
<!-- lsp&#45;&gt;sexp -->
<g id="edge61" class="edge">
<title>lsp&#45;&gt;sexp</title>
<path fill="none" stroke="black" d="M887.61,-1031.33C933.72,-1029.91 1029.42,-1026.95 1082.54,-1025.3"/>
<polygon fill="black" stroke="black" points="1082.42,-1028.81 1092.31,-1025 1082.21,-1021.81 1082.42,-1028.81"/>
</g>
<!-- lsp&#45;&gt;wasm -->
<g id="edge62" class="edge">
<title>lsp&#45;&gt;wasm</title>
<path fill="none" stroke="black" d="M866.54,-1013.94C878.82,-970.08 910.16,-854.93 928.75,-757.14 966.42,-559.01 992.65,-317.42 1001.08,-234.62"/>
<polygon fill="black" stroke="black" points="1004.54,-235.17 1002.07,-224.87 997.58,-234.47 1004.54,-235.17"/>
</g>
<!-- metamath&#45;&gt;parse -->
<g id="edge63" class="edge">
<title>metamath&#45;&gt;parse</title>
<path fill="none" stroke="black" d="M1045.52,-847.44C1079.85,-840.61 1128.96,-826.1 1161,-796.14 1192.66,-766.54 1209.2,-717.8 1217,-686.6"/>
<polygon fill="black" stroke="black" points="1220.37,-687.59 1219.23,-677.06 1213.55,-686 1220.37,-687.59"/>
</g>
<!-- metamath&#45;&gt;sexp -->
<g id="edge64" class="edge">
<title>metamath&#45;&gt;sexp</title>
<path fill="none" stroke="black" d="M1024.09,-871.24C1031.08,-878.66 1038.9,-887.51 1045.25,-896.14 1069.13,-928.58 1091.78,-969.17 1105.79,-995.84"/>
<polygon fill="black" stroke="black" points="1102.66,-997.41 1110.38,-1004.67 1108.88,-994.18 1102.66,-997.41"/>
</g>
<!-- multiformat -->
<g id="node26" class="node">
<title>multiformat</title>
<polygon fill="none" stroke="black" points="754.5,-544.14 664.25,-544.14 664.25,-508.14 754.5,-508.14 754.5,-544.14"/>
<text text-anchor="middle" x="709.38" y="-521.84" font-family="sans-serif" font-size="14.00">multiformat</text>
</g>
<!-- multiformat&#45;&gt;acset -->
<g id="edge65" class="edge">
<title>multiformat&#45;&gt;acset</title>
<path fill="none" stroke="black" d="M754.68,-539.82C776.25,-546.48 801.88,-554.39 822.39,-560.72"/>
<polygon fill="black" stroke="black" points="821.16,-564.01 831.74,-563.61 823.22,-557.32 821.16,-564.01"/>
</g>
<!-- multiformat&#45;&gt;hash -->
<g id="edge66" class="edge">
<title>multiformat&#45;&gt;hash</title>
<path fill="none" stroke="black" d="M740.32,-544.43C745.88,-548.55 751.38,-553.19 756,-558.14 797.01,-602.14 829.72,-665.02 846.67,-701.3"/>
<polygon fill="black" stroke="black" points="843.44,-702.65 850.79,-710.28 849.81,-699.74 843.44,-702.65"/>
</g>
<!-- multiformat&#45;&gt;parse -->
<g id="edge67" class="edge">
<title>multiformat&#45;&gt;parse</title>
<path fill="none" stroke="black" d="M754.85,-526.43C799.37,-527.55 869.58,-531.59 928.75,-545.14 1024.9,-567.17 1131.72,-613.8 1186.38,-639.4"/>
<polygon fill="black" stroke="black" points="1184.69,-642.47 1195.23,-643.58 1187.68,-636.14 1184.69,-642.47"/>
</g>
<!-- object&#45;&gt;hash -->
<g id="edge68" class="edge">
<title>object&#45;&gt;hash</title>
<path fill="none" stroke="black" d="M738.36,-890.69C744.85,-886.05 751.24,-880.49 756,-874.14 785.84,-834.33 760.24,-806.44 792,-768.14 800.2,-758.25 811.69,-750.44 822.86,-744.54"/>
<polygon fill="black" stroke="black" points="824.09,-747.84 831.56,-740.32 821.03,-741.54 824.09,-747.84"/>
</g>
<!-- object&#45;&gt;parse -->
<g id="edge69" class="edge">
<title>object&#45;&gt;parse</title>
<path fill="none" stroke="black" d="M738.13,-894.83C796.01,-871.02 933.52,-813.27 1045.25,-757.14 1095.21,-732.04 1151.17,-699.86 1186.72,-678.88"/>
<polygon fill="black" stroke="black" points="1188.5,-681.89 1195.32,-673.78 1184.93,-675.87 1188.5,-681.89"/>
</g>
<!-- opentheory&#45;&gt;hol -->
<g id="edge70" class="edge">
<title>opentheory&#45;&gt;hol</title>
<path fill="none" stroke="black" d="M368.38,-1558.62C410.51,-1564.62 475.47,-1573.58 532,-1580.14 636.77,-1592.3 760.76,-1603.57 821.71,-1608.91"/>
<polygon fill="black" stroke="black" points="821.26,-1612.38 831.52,-1609.76 821.86,-1605.41 821.26,-1612.38"/>
</g>
<!-- parquet -->
<g id="node29" class="node">
<title>parquet</title>
<polygon fill="none" stroke="black" points="483.62,-756.14 416.62,-756.14 416.62,-720.14 483.62,-720.14 483.62,-756.14"/>
<text text-anchor="middle" x="450.12" y="-733.84" font-family="sans-serif" font-size="14.00">parquet</text>
</g>
<!-- parquet&#45;&gt;arrow -->
<g id="edge71" class="edge">
<title>parquet&#45;&gt;arrow</title>
<path fill="none" stroke="black" d="M481.93,-756.54C500.13,-767.41 523.28,-781.24 542.33,-792.61"/>
<polygon fill="black" stroke="black" points="540.47,-795.58 550.85,-797.71 544.06,-789.57 540.47,-795.58"/>
</g>
<!-- pure&#45;trusted -->
<g id="node34" class="node">
<title>pure&#45;trusted</title>
<polygon fill="#ffd6d6" stroke="black" points="1386.25,-1416.14 1287,-1416.14 1287,-1380.14 1386.25,-1380.14 1386.25,-1416.14"/>
<text text-anchor="middle" x="1336.62" y="-1393.84" font-family="sans-serif" font-size="14.00">pure&#45;trusted</text>
</g>
<!-- pure&#45;&gt;pure&#45;trusted -->
<g id="edge72" class="edge">
<title>pure&#45;&gt;pure&#45;trusted</title>
<path fill="none" stroke="black" d="M1251.5,-1398.14C1258.79,-1398.14 1267.02,-1398.14 1275.39,-1398.14"/>
<polygon fill="black" stroke="black" points="1275.32,-1401.64 1285.32,-1398.14 1275.32,-1394.64 1275.32,-1401.64"/>
</g>
<!-- pure&#45;eval&#45;&gt;pure -->
<g id="edge73" class="edge">
<title>pure&#45;eval&#45;&gt;pure</title>
<path fill="none" stroke="black" d="M1161.41,-1426.23C1169.65,-1422.47 1178.29,-1418.53 1186.42,-1414.82"/>
<polygon fill="black" stroke="black" points="1187.71,-1418.08 1195.35,-1410.75 1184.8,-1411.71 1187.71,-1418.08"/>
</g>
<!-- pure&#45;eval&#45;&gt;types -->
<g id="edge74" class="edge">
<title>pure&#45;eval&#45;&gt;types</title>
<path fill="none" stroke="black" d="M1161.26,-1445.41C1213.39,-1446.19 1308.13,-1444.37 1386.25,-1425.14 1394.65,-1423.07 1403.36,-1419.96 1411.49,-1416.57"/>
<polygon fill="black" stroke="black" points="1412.66,-1419.88 1420.4,-1412.64 1409.84,-1413.48 1412.66,-1419.88"/>
</g>
<!-- pure&#45;trusted&#45;&gt;types -->
<g id="edge75" class="edge">
<title>pure&#45;trusted&#45;&gt;types</title>
<path fill="none" stroke="black" d="M1386.47,-1398.14C1394.54,-1398.14 1402.8,-1398.14 1410.54,-1398.14"/>
<polygon fill="black" stroke="black" points="1410.3,-1401.64 1420.3,-1398.14 1410.3,-1394.64 1410.3,-1401.64"/>
</g>
<!-- python -->
<g id="node35" class="node">
<title>python</title>
<polygon fill="none" stroke="black" points="91.38,-470.14 29.62,-470.14 29.62,-434.14 91.38,-434.14 91.38,-470.14"/>
<text text-anchor="middle" x="60.5" y="-447.84" font-family="sans-serif" font-size="14.00">python</text>
</g>
<!-- python&#45;&gt;crypto&#45;sig -->
<g id="edge76" class="edge">
<title>python&#45;&gt;crypto&#45;sig</title>
<path fill="none" stroke="black" d="M66.46,-433.81C77.64,-394.96 107.72,-302.81 157,-240.14 158.71,-237.96 160.6,-235.85 162.61,-233.81"/>
<polygon fill="black" stroke="black" points="164.6,-236.74 169.62,-227.41 159.88,-231.57 164.6,-236.74"/>
</g>
<!-- python&#45;&gt;git -->
<g id="edge77" class="edge">
<title>python&#45;&gt;git</title>
<path fill="none" stroke="black" d="M91.84,-460.38C127.93,-470.5 189.78,-488.84 241.25,-509.14 302.82,-533.43 371.71,-567.72 412.69,-588.91"/>
<polygon fill="black" stroke="black" points="410.91,-591.92 421.39,-593.43 414.13,-585.71 410.91,-591.92"/>
</g>
<!-- python&#45;&gt;graph -->
<g id="edge78" class="edge">
<title>python&#45;&gt;graph</title>
<path fill="none" stroke="black" d="M78.05,-433.89C95.61,-416.01 125.17,-389.91 157,-379.14 245.37,-349.23 356.06,-381.72 412.44,-402.89"/>
<polygon fill="black" stroke="black" points="410.97,-406.07 421.56,-406.4 413.49,-399.54 410.97,-406.07"/>
</g>
<!-- python&#45;&gt;hash -->
<g id="edge79" class="edge">
<title>python&#45;&gt;hash</title>
<path fill="none" stroke="black" d="M91.73,-454.31C127.73,-457.33 189.48,-463.85 241.25,-476.14 348.77,-501.67 605.31,-587.69 756,-663.14 780.05,-675.18 805.42,-691.56 825,-705.11"/>
<polygon fill="black" stroke="black" points="822.96,-707.96 833.16,-710.83 826.98,-702.23 822.96,-707.96"/>
</g>
<!-- python&#45;&gt;kv -->
<g id="edge80" class="edge">
<title>python&#45;&gt;kv</title>
<path fill="none" stroke="black" d="M91.82,-441.93C112.31,-435.04 139.48,-425.89 161.22,-418.57"/>
<polygon fill="black" stroke="black" points="162.23,-421.92 170.6,-415.41 160,-415.29 162.23,-421.92"/>
</g>
<!-- python&#45;&gt;llm -->
<g id="edge81" class="edge">
<title>python&#45;&gt;llm</title>
<path fill="none" stroke="black" d="M60.96,-470.22C59.9,-533.73 63.7,-750.4 157,-891.14 158.81,-893.87 160.97,-896.43 163.34,-898.79"/>
<polygon fill="black" stroke="black" points="160.96,-901.36 170.86,-905.15 165.48,-896.02 160.96,-901.36"/>
</g>
<!-- python&#45;&gt;object -->
<g id="edge82" class="edge">
<title>python&#45;&gt;object</title>
<path fill="none" stroke="black" d="M66.16,-470.24C82.93,-531.54 146.29,-732.91 277.25,-829.14 397.72,-917.66 587.45,-915.63 668.99,-909.92"/>
<polygon fill="black" stroke="black" points="669.23,-913.42 678.93,-909.16 668.7,-906.44 669.23,-913.42"/>
</g>
<!-- python&#45;&gt;repl -->
<g id="edge83" class="edge">
<title>python&#45;&gt;repl</title>
<path fill="none" stroke="black" d="M91.76,-468.25C131.25,-490.69 200.16,-534.9 241.25,-590.14 283.66,-647.17 306.29,-729.19 315.94,-772.6"/>
<polygon fill="black" stroke="black" points="312.5,-773.24 318.01,-782.28 319.35,-771.77 312.5,-773.24"/>
</g>
<!-- sat -->
<g id="node38" class="node">
<title>sat</title>
<polygon fill="none" stroke="black" points="887.38,-62.14 833.38,-62.14 833.38,-26.14 887.38,-26.14 887.38,-62.14"/>
<text text-anchor="middle" x="860.38" y="-39.84" font-family="sans-serif" font-size="14.00">sat</text>
</g>
<!-- python&#45;&gt;sat -->
<g id="edge84" class="edge">
<title>python&#45;&gt;sat</title>
<path fill="none" stroke="black" d="M63.89,-433.83C73.06,-366.12 107.94,-130.98 157,-76.14 209.16,-17.83 243.51,-14.14 321.75,-14.14 321.75,-14.14 321.75,-14.14 451.12,-14.14 588.12,-14.14 750.28,-31.15 822.03,-39.56"/>
<polygon fill="black" stroke="black" points="821.31,-42.99 831.65,-40.7 822.13,-36.04 821.31,-42.99"/>
</g>
<!-- python&#45;&gt;serve -->
<g id="edge85" class="edge">
<title>python&#45;&gt;serve</title>
<path fill="none" stroke="black" d="M67.55,-470.38C89.06,-535.24 161.99,-755.16 188.44,-834.93"/>
<polygon fill="black" stroke="black" points="185.05,-835.82 191.52,-844.21 191.69,-833.62 185.05,-835.82"/>
</g>
<!-- python&#45;&gt;sexp -->
<g id="edge86" class="edge">
<title>python&#45;&gt;sexp</title>
<path fill="none" stroke="black" d="M61.11,-470.64C59.93,-580.94 70.2,-1150.68 404.25,-1253.14 443.24,-1265.1 456.28,-1262.39 496,-1253.14 499.92,-1252.23 753.4,-1128.21 756,-1125.14 791.97,-1082.64 747.33,-1038.38 792,-1005.14 878.99,-940.42 1017.61,-982.24 1083.29,-1008.1"/>
<polygon fill="black" stroke="black" points="1081.95,-1011.34 1092.54,-1011.84 1084.58,-1004.85 1081.95,-1011.34"/>
</g>
<!-- python&#45;&gt;shell -->
<g id="edge87" class="edge">
<title>python&#45;&gt;shell</title>
<path fill="none" stroke="black" d="M61.23,-470.51C61,-538.26 66.91,-778.95 157,-947.14 181.82,-993.48 211.98,-986.48 241.25,-1030.14 264.78,-1065.24 250.06,-1085.8 277.25,-1118.14 314.35,-1162.28 374.24,-1194.11 412.63,-1211.34"/>
<polygon fill="black" stroke="black" points="410.9,-1214.41 421.46,-1215.21 413.7,-1207.99 410.9,-1214.41"/>
</g>
<!-- python&#45;&gt;store -->
<g id="edge88" class="edge">
<title>python&#45;&gt;store</title>
<path fill="none" stroke="black" d="M74.5,-433.66C90.9,-412.12 121.3,-377.62 157,-363.14 337.65,-289.9 579.6,-343.87 671.17,-369.07"/>
<polygon fill="black" stroke="black" points="670.04,-372.39 680.62,-371.72 671.94,-365.65 670.04,-372.39"/>
</g>
<!-- python&#45;&gt;wasm -->
<g id="edge89" class="edge">
<title>python&#45;&gt;wasm</title>
<path fill="none" stroke="black" d="M63.45,-433.8C69.33,-386.64 90.77,-259.38 157,-181.14 211.05,-117.3 238.1,-90.14 321.75,-90.14 321.75,-90.14 321.75,-90.14 710.38,-90.14 809.05,-90.14 841.34,-84.36 928.75,-130.14 950.67,-141.62 970.28,-161.67 983.98,-178.15"/>
<polygon fill="black" stroke="black" points="981.03,-180.06 990.02,-185.68 986.5,-175.69 981.03,-180.06"/>
</g>
<!-- wasm&#45;store -->
<g id="node50" class="node">
<title>wasm&#45;store</title>
<polygon fill="none" stroke="black" points="626.75,-268.14 532,-268.14 532,-232.14 626.75,-232.14 626.75,-268.14"/>
<text text-anchor="middle" x="579.38" y="-245.84" font-family="sans-serif" font-size="14.00">wasm&#45;store</text>
</g>
<!-- python&#45;&gt;wasm&#45;store -->
<g id="edge90" class="edge">
<title>python&#45;&gt;wasm&#45;store</title>
<path fill="none" stroke="black" d="M65.46,-433.65C74.46,-396.74 100.2,-314.36 157,-278.14 269.12,-206.66 433.86,-222.41 520.39,-237.66"/>
<polygon fill="black" stroke="black" points="519.61,-241.08 530.07,-239.44 520.87,-234.19 519.61,-241.08"/>
</g>
<!-- repl&#45;&gt;arrow -->
<g id="edge91" class="edge">
<title>repl&#45;&gt;arrow</title>
<path fill="none" stroke="black" d="M350.03,-802.75C383.82,-803.6 444.31,-805.36 496,-808.14 510.65,-808.93 526.76,-810.05 540.81,-811.1"/>
<polygon fill="black" stroke="black" points="540.3,-814.58 550.54,-811.85 540.84,-807.6 540.3,-814.58"/>
</g>
<!-- repl&#45;&gt;forsp -->
<g id="edge92" class="edge">
<title>repl&#45;&gt;forsp</title>
<path fill="none" stroke="black" d="M329.52,-820.4C338.45,-848.96 355.87,-906.06 368.25,-955.14 386.93,-1029.19 344.87,-1075.14 404.25,-1123.14 481.15,-1185.31 531.45,-1149.55 626.75,-1123.14 644.22,-1118.3 661.71,-1108.61 675.98,-1099.12"/>
<polygon fill="black" stroke="black" points="677.86,-1102.08 684.08,-1093.5 673.86,-1096.33 677.86,-1102.08"/>
</g>
<!-- repl&#45;&gt;git -->
<g id="edge93" class="edge">
<title>repl&#45;&gt;git</title>
<path fill="none" stroke="black" d="M349.92,-787.1C356.56,-782.34 363.23,-776.61 368.25,-770.14 395.18,-735.46 384.3,-717.26 404.25,-678.14 411.6,-663.73 421.11,-648.53 429.48,-635.98"/>
<polygon fill="black" stroke="black" points="432.31,-638.05 435.04,-627.81 426.52,-634.11 432.31,-638.05"/>
</g>
<!-- repl&#45;&gt;graph -->
<g id="edge94" class="edge">
<title>repl&#45;&gt;graph</title>
<path fill="none" stroke="black" d="M326.16,-784.06C334.91,-720.3 366.52,-506.73 404.25,-450.14 406.94,-446.11 410.32,-442.42 414.01,-439.1"/>
<polygon fill="black" stroke="black" points="416.13,-441.89 421.83,-432.96 411.8,-436.38 416.13,-441.89"/>
</g>
<!-- repl&#45;&gt;hash -->
<g id="edge95" class="edge">
<title>repl&#45;&gt;hash</title>
<path fill="none" stroke="black" d="M339.31,-783.79C361.46,-757.78 399.9,-713.1 404.25,-711.14 423.13,-702.64 715.71,-720.76 821.54,-727.64"/>
<polygon fill="black" stroke="black" points="821.2,-731.13 831.41,-728.28 821.66,-724.14 821.2,-731.13"/>
</g>
<!-- repl&#45;&gt;init -->
<g id="edge96" class="edge">
<title>repl&#45;&gt;init</title>
<path fill="none" stroke="black" d="M329.71,-820.35C338.9,-848.85 356.66,-905.86 368.25,-955.14 388.83,-1042.63 344.04,-1087.41 404.25,-1154.14 440.16,-1193.95 597.92,-1224.18 670.99,-1236.32"/>
<polygon fill="black" stroke="black" points="670.03,-1239.71 680.46,-1237.87 671.16,-1232.8 670.03,-1239.71"/>
</g>
<!-- repl&#45;&gt;object -->
<g id="edge97" class="edge">
<title>repl&#45;&gt;object</title>
<path fill="none" stroke="black" d="M350.19,-809.29C416.75,-827.29 591.52,-874.55 669.66,-895.67"/>
<polygon fill="black" stroke="black" points="668.44,-898.97 679,-898.2 670.26,-892.21 668.44,-898.97"/>
</g>
<!-- repl&#45;&gt;parquet -->
<g id="edge98" class="edge">
<title>repl&#45;&gt;parquet</title>
<path fill="none" stroke="black" d="M350.03,-788.73C366.27,-780.44 387.49,-769.6 406.13,-760.09"/>
<polygon fill="black" stroke="black" points="407.51,-763.32 414.82,-755.65 404.33,-757.08 407.51,-763.32"/>
</g>
<!-- repl&#45;&gt;shell -->
<g id="edge99" class="edge">
<title>repl&#45;&gt;shell</title>
<path fill="none" stroke="black" d="M329.89,-820.31C339.31,-848.76 357.39,-905.7 368.25,-955.14 391.3,-1060.06 348.06,-1102.59 404.25,-1194.14 406.78,-1198.27 410.07,-1202.02 413.71,-1205.37"/>
<polygon fill="black" stroke="black" points="411.48,-1208.07 421.49,-1211.54 415.83,-1202.59 411.48,-1208.07"/>
</g>
<!-- repl&#45;&gt;wasm -->
<g id="edge100" class="edge">
<title>repl&#45;&gt;wasm</title>
<path fill="none" stroke="black" d="M328.79,-783.76C339.74,-745.05 367.72,-652.81 404.25,-581.14 437.36,-516.18 469.15,-512.93 496,-445.14 532.81,-352.21 455.87,-287.92 532,-223.14 564.07,-195.85 584.66,-221.74 626.75,-223.14 760.99,-227.61 796.7,-258.71 928.75,-234.14 941.61,-231.75 955.1,-227.24 967.05,-222.48"/>
<polygon fill="black" stroke="black" points="968.27,-225.77 976.14,-218.68 965.56,-219.31 968.27,-225.77"/>
</g>
<!-- sat&#45;&gt;parse -->
<g id="edge101" class="edge">
<title>sat&#45;&gt;parse</title>
<path fill="none" stroke="black" d="M887.87,-54.7C900.67,-60.3 915.98,-67.75 928.75,-76.14 986.27,-113.93 1006.19,-121.48 1045.25,-178.14 1149.39,-329.23 1201.3,-548.94 1217.38,-627.69"/>
<polygon fill="black" stroke="black" points="1213.89,-628.07 1219.28,-637.19 1220.75,-626.7 1213.89,-628.07"/>
</g>
<!-- sat&#45;&gt;types -->
<g id="edge102" class="edge">
<title>sat&#45;&gt;types</title>
<path fill="none" stroke="black" d="M887.81,-42.79C934.63,-40.5 1035.18,-36.14 1120.12,-36.14 1120.12,-36.14 1120.12,-36.14 1225,-36.14 1364.87,-36.14 1435.31,-1169.12 1446.62,-1368.39"/>
<polygon fill="black" stroke="black" points="1443.11,-1368.36 1447.17,-1378.15 1450.1,-1367.97 1443.11,-1368.36"/>
</g>
<!-- sat&#45;&gt;wasm -->
<g id="edge103" class="edge">
<title>sat&#45;&gt;wasm</title>
<path fill="none" stroke="black" d="M887.66,-52.22C901.17,-57.38 917.18,-65.2 928.75,-76.14 953.03,-99.1 947.91,-113.28 964.75,-142.14 971.56,-153.82 979.38,-166.5 986.24,-177.41"/>
<polygon fill="black" stroke="black" points="983.1,-178.99 991.4,-185.56 989.01,-175.24 983.1,-178.99"/>
</g>
<!-- serve&#45;&gt;core -->
<g id="edge104" class="edge">
<title>serve&#45;&gt;core</title>
<path fill="none" stroke="black" d="M226.61,-877.92C232.29,-882.07 237.66,-887.15 241.25,-893.14 307.83,-1004.14 216.58,-1067.8 277.25,-1182.14 347.78,-1315.06 396.07,-1340.6 532,-1405.14 679.78,-1475.32 882.96,-1459.97 966.16,-1449.65"/>
<polygon fill="black" stroke="black" points="966.58,-1453.12 976.04,-1448.37 965.68,-1446.18 966.58,-1453.12"/>
</g>
<!-- serve&#45;&gt;git -->
<g id="edge105" class="edge">
<title>serve&#45;&gt;git</title>
<path fill="none" stroke="black" d="M214.83,-845.81C229.89,-827.37 254.27,-798.43 277.25,-775.14 315.28,-736.6 329.44,-731.9 368.25,-694.14 388.01,-674.91 409.34,-652.14 425.13,-634.86"/>
<polygon fill="black" stroke="black" points="427.69,-637.25 431.83,-627.49 422.51,-632.54 427.69,-637.25"/>
</g>
<!-- serve&#45;&gt;hash -->
<g id="edge106" class="edge">
<title>serve&#45;&gt;hash</title>
<path fill="none" stroke="black" d="M226.29,-863.45C271.66,-862.3 367.84,-860.14 449.12,-860.14 449.12,-860.14 449.12,-860.14 580.38,-860.14 678.52,-860.14 779.44,-793.23 828.64,-755.42"/>
<polygon fill="black" stroke="black" points="830.58,-758.34 836.3,-749.42 826.27,-752.83 830.58,-758.34"/>
</g>
<!-- serve&#45;&gt;init -->
<g id="edge107" class="edge">
<title>serve&#45;&gt;init</title>
<path fill="none" stroke="black" d="M226.47,-878.01C232.15,-882.16 237.55,-887.21 241.25,-893.14 294.84,-979.07 232.58,-1027.25 277.25,-1118.14 281.79,-1127.38 394.8,-1249.06 404.25,-1253.14 493.59,-1291.76 611.84,-1269.1 671.12,-1253.36"/>
<polygon fill="black" stroke="black" points="672,-1256.75 680.71,-1250.72 670.14,-1250 672,-1256.75"/>
</g>
<!-- serve&#45;&gt;metamath -->
<g id="edge108" class="edge">
<title>serve&#45;&gt;metamath</title>
<path fill="none" stroke="black" d="M201.35,-845.7C207.32,-772.43 240.24,-500.65 404.25,-391.14 501.84,-325.98 842.36,-250.73 928.75,-330.14 963.8,-362.36 953.61,-710.85 964.75,-757.14 970.42,-780.7 980.98,-806.02 989.71,-824.74"/>
<polygon fill="black" stroke="black" points="986.47,-826.07 993.94,-833.57 992.78,-823.04 986.47,-826.07"/>
</g>
<!-- serve&#45;&gt;object -->
<g id="edge109" class="edge">
<title>serve&#45;&gt;object</title>
<path fill="none" stroke="black" d="M225.93,-882.62C240.47,-892.4 259.28,-904.04 277.25,-912.14 330.96,-936.37 345.95,-941.61 404.25,-950.14 502.1,-964.47 530.87,-974.34 626.75,-950.14 642.7,-946.12 658.93,-938.29 672.66,-930.35"/>
<polygon fill="black" stroke="black" points="674.14,-933.54 680.89,-925.37 670.52,-927.55 674.14,-933.54"/>
</g>
<!-- serve&#45;&gt;proto -->
<g id="edge110" class="edge">
<title>serve&#45;&gt;proto</title>
<path fill="none" stroke="black" d="M226.6,-880.48C231.77,-884.29 236.92,-888.58 241.25,-893.14 261.89,-914.86 256.71,-928.33 277.25,-950.14 280.09,-953.16 283.25,-956.08 286.55,-958.84"/>
<polygon fill="black" stroke="black" points="284.2,-961.45 294.24,-964.83 288.5,-955.93 284.2,-961.45"/>
</g>
<!-- serve&#45;&gt;repl -->
<g id="edge111" class="edge">
<title>serve&#45;&gt;repl</title>
<path fill="none" stroke="black" d="M226.52,-850.69C243.73,-841.91 266.43,-830.34 285.35,-820.7"/>
<polygon fill="black" stroke="black" points="286.74,-823.92 294.06,-816.26 283.56,-817.68 286.74,-823.92"/>
</g>
<!-- serve&#45;&gt;shell -->
<g id="edge112" class="edge">
<title>serve&#45;&gt;shell</title>
<path fill="none" stroke="black" d="M226.26,-878.14C231.95,-882.29 237.4,-887.31 241.25,-893.14 283.75,-957.63 238.47,-996.35 277.25,-1063.14 304.44,-1109.97 331.99,-1103.93 368.25,-1144.14 386.59,-1164.48 384.84,-1174.82 404.25,-1194.14 407.2,-1197.08 410.45,-1199.95 413.81,-1202.68"/>
<polygon fill="black" stroke="black" points="411.54,-1205.36 421.62,-1208.64 415.79,-1199.79 411.54,-1205.36"/>
</g>
<!-- serve&#45;&gt;store -->
<g id="edge113" class="edge">
<title>serve&#45;&gt;store</title>
<path fill="none" stroke="black" d="M205.8,-845.75C216.51,-812.72 241.85,-741.99 277.25,-690.14 367.94,-557.32 394.13,-515.95 532,-433.14 575.84,-406.81 633.75,-392.69 671.04,-385.81"/>
<polygon fill="black" stroke="black" points="671.17,-389.34 680.42,-384.16 669.96,-382.44 671.17,-389.34"/>
</g>
<!-- sexp&#45;&gt;parse -->
<g id="edge114" class="edge">
<title>sexp&#45;&gt;parse</title>
<path fill="none" stroke="black" d="M1127.2,-1005.69C1143.55,-946.21 1194.96,-759.15 1214.94,-686.45"/>
<polygon fill="black" stroke="black" points="1218.3,-687.44 1217.58,-676.87 1211.55,-685.59 1218.3,-687.44"/>
</g>
<!-- shell&#45;&gt;hol -->
<g id="edge115" class="edge">
<title>shell&#45;&gt;hol</title>
<path fill="none" stroke="black" d="M457.08,-1244.46C468.49,-1278.08 495.59,-1351.14 532,-1405.14 579.05,-1474.93 592.13,-1496.34 662.75,-1542.14 713.08,-1574.78 780.54,-1594.48 821.93,-1604.33"/>
<polygon fill="black" stroke="black" points="821.12,-1607.73 831.65,-1606.56 822.69,-1600.91 821.12,-1607.73"/>
</g>
<!-- shell&#45;&gt;kernel -->
<g id="edge116" class="edge">
<title>shell&#45;&gt;kernel</title>
<path fill="none" stroke="black" d="M469.09,-1207.79C490.88,-1185.53 527.77,-1147.84 552.59,-1122.49"/>
<polygon fill="black" stroke="black" points="554.95,-1125.08 559.45,-1115.48 549.95,-1120.18 554.95,-1125.08"/>
</g>
<!-- smt&#45;&gt;sat -->
<g id="edge117" class="edge">
<title>smt&#45;&gt;sat</title>
<path fill="none" stroke="black" d="M723.15,-1337.81C734.16,-1320.87 749.31,-1294.54 756,-1269.14 819.54,-1027.91 716.93,-385.04 792,-147.14 800.94,-118.82 820.03,-90.89 835.62,-71.28"/>
<polygon fill="black" stroke="black" points="838.12,-73.74 841.75,-63.79 832.7,-69.31 838.12,-73.74"/>
</g>
<!-- smt&#45;&gt;sexp -->
<g id="edge118" class="edge">
<title>smt&#45;&gt;sexp</title>
<path fill="none" stroke="black" d="M736.67,-1350.53C791.5,-1338.63 914.14,-1310.93 928.75,-1298.14 960.24,-1270.58 936.65,-1242.15 964.75,-1211.14 991.99,-1181.09 1016.73,-1196.98 1045.25,-1168.14 1078.07,-1134.95 1099.77,-1084.42 1110.99,-1052.89"/>
<polygon fill="black" stroke="black" points="1114.24,-1054.22 1114.17,-1043.63 1107.61,-1051.95 1114.24,-1054.22"/>
</g>
<!-- smt&#45;&gt;types -->
<g id="edge119" class="edge">
<title>smt&#45;&gt;types</title>
<path fill="none" stroke="black" d="M726.36,-1374.56C741.61,-1391.01 766.07,-1414.53 792,-1428.14 862.06,-1464.92 887.06,-1456.18 964.75,-1471.14 1148.71,-1506.56 1220.23,-1555.93 1386.25,-1469.14 1405.11,-1459.28 1420.8,-1441.13 1431.68,-1425.64"/>
<polygon fill="black" stroke="black" points="1434.34,-1427.96 1436.98,-1417.7 1428.52,-1424.08 1434.34,-1427.96"/>
</g>
<!-- spectec&#45;&gt;grammar -->
<g id="edge120" class="edge">
<title>spectec&#45;&gt;grammar</title>
<path fill="none" stroke="black" d="M895.18,-1149.34C913.68,-1142.34 936.89,-1133.55 957.12,-1125.89"/>
<polygon fill="black" stroke="black" points="958.17,-1129.24 966.28,-1122.42 955.69,-1122.69 958.17,-1129.24"/>
</g>
<!-- store&#45;&gt;hash -->
<g id="edge121" class="edge">
<title>store&#45;&gt;hash</title>
<path fill="none" stroke="black" d="M726.22,-398.59C736.12,-411.01 748.4,-428.15 756,-445.14 784.71,-509.3 767.74,-533.17 792,-599.14 805.57,-636.06 827.16,-675.91 842.23,-701.83"/>
<polygon fill="black" stroke="black" points="839.19,-703.57 847.28,-710.41 845.22,-700.02 839.19,-703.57"/>
</g>
<!-- store&#45;&gt;json -->
<g id="edge122" class="edge">
<title>store&#45;&gt;json</title>
<path fill="none" stroke="black" d="M736.67,-376.08C760.32,-372.43 795.33,-367.03 821.91,-362.93"/>
<polygon fill="black" stroke="black" points="822.25,-366.41 831.6,-361.43 821.18,-359.5 822.25,-366.41"/>
</g>
<!-- store&#45;&gt;sqlite -->
<g id="edge123" class="edge">
<title>store&#45;&gt;sqlite</title>
<path fill="none" stroke="black" d="M736.67,-386.85C760.43,-392.91 795.65,-401.89 822.27,-408.68"/>
<polygon fill="black" stroke="black" points="821.07,-411.99 831.63,-411.07 822.8,-405.2 821.07,-411.99"/>
</g>
<!-- wasm&#45;build&#45;guest -->
<g id="node48" class="node">
<title>wasm&#45;build&#45;guest</title>
<polygon fill="none" stroke="black" points="928.75,-192.14 792,-192.14 792,-156.14 928.75,-156.14 928.75,-192.14"/>
<text text-anchor="middle" x="860.38" y="-169.84" font-family="sans-serif" font-size="14.00">wasm&#45;build&#45;guest</text>
</g>
<!-- wasm&#45;build&#45;guest&#45;&gt;wasm -->
<g id="edge124" class="edge">
<title>wasm&#45;build&#45;guest&#45;&gt;wasm</title>
<path fill="none" stroke="black" d="M928.93,-188.83C941.89,-191.64 955.01,-194.5 966.59,-197.01"/>
<polygon fill="black" stroke="black" points="965.59,-200.37 976.1,-199.08 967.07,-193.53 965.59,-200.37"/>
</g>
<!-- wasm&#45;spec -->
<g id="node49" class="node">
<title>wasm&#45;spec</title>
<polygon fill="none" stroke="black" points="756,-490.14 662.75,-490.14 662.75,-454.14 756,-454.14 756,-490.14"/>
<text text-anchor="middle" x="709.38" y="-467.84" font-family="sans-serif" font-size="14.00">wasm&#45;spec</text>
</g>
<!-- wasm&#45;spec&#45;&gt;hash -->
<g id="edge125" class="edge">
<title>wasm&#45;spec&#45;&gt;hash</title>
<path fill="none" stroke="black" d="M747.11,-490.6C750.38,-493.18 753.42,-496.02 756,-499.14 786.1,-535.54 773.16,-555.83 792,-599.14 807.78,-635.42 829.09,-675.69 843.48,-701.88"/>
<polygon fill="black" stroke="black" points="840.37,-703.47 848.28,-710.53 846.49,-700.08 840.37,-703.47"/>
</g>
<!-- wasm&#45;spec&#45;&gt;wasm -->
<g id="edge126" class="edge">
<title>wasm&#45;spec&#45;&gt;wasm</title>
<path fill="none" stroke="black" d="M756.07,-479.73C804.54,-485.06 880.63,-485.26 928.75,-445.14 992.25,-392.2 1002.98,-286.3 1004.27,-234.73"/>
<polygon fill="black" stroke="black" points="1007.76,-234.99 1004.4,-224.94 1000.76,-234.9 1007.76,-234.99"/>
</g>
<!-- wasm&#45;store&#45;&gt;json -->
<g id="edge127" class="edge">
<title>wasm&#45;store&#45;&gt;json</title>
<path fill="none" stroke="black" d="M627.07,-268.05C682.02,-289.12 772.12,-323.68 822.44,-342.98"/>
<polygon fill="black" stroke="black" points="821.14,-346.23 831.73,-346.54 823.65,-339.69 821.14,-346.23"/>
</g>
<!-- wasm&#45;store&#45;&gt;store -->
<g id="edge128" class="edge">
<title>wasm&#45;store&#45;&gt;store</title>
<path fill="none" stroke="black" d="M593.4,-268.35C608.67,-289 635.38,-323.07 662.75,-348.14 665.86,-350.99 669.23,-353.79 672.68,-356.49"/>
<polygon fill="black" stroke="black" points="670.57,-359.28 680.69,-362.42 674.73,-353.65 670.57,-359.28"/>
</g>
<!-- wasm&#45;store&#45;&gt;wasm -->
<g id="edge129" class="edge">
<title>wasm&#45;store&#45;&gt;wasm</title>
<path fill="none" stroke="black" d="M607.6,-231.83C646.5,-206.89 721.12,-163.47 792,-147.14 851.23,-133.49 871.22,-127.54 928.75,-147.14 947.58,-153.56 965.36,-166.8 978.91,-179.01"/>
<polygon fill="black" stroke="black" points="976.4,-181.45 986.07,-185.77 981.2,-176.36 976.4,-181.45"/>
</g>
<!-- web&#45;kernel -->
<g id="node51" class="node">
<title>web&#45;kernel</title>
<polygon fill="none" stroke="black" points="496,-1114.14 404.25,-1114.14 404.25,-1078.14 496,-1078.14 496,-1114.14"/>
<text text-anchor="middle" x="450.12" y="-1091.84" font-family="sans-serif" font-size="14.00">web&#45;kernel</text>
</g>
<!-- web&#45;kernel&#45;&gt;kernel -->
<g id="edge130" class="edge">
<title>web&#45;kernel&#45;&gt;kernel</title>
<path fill="none" stroke="black" d="M496.35,-1096.14C510.27,-1096.14 525.48,-1096.14 538.98,-1096.14"/>
<polygon fill="black" stroke="black" points="538.81,-1099.64 548.81,-1096.14 538.81,-1092.64 538.81,-1099.64"/>
</g>
</g>
</svg>
