<?xml version="1.0" encoding="UTF-8" standalone="no"?>
<!DOCTYPE svg PUBLIC "-//W3C//DTD SVG 1.1//EN"
 "http://www.w3.org/Graphics/SVG/1.1/DTD/svg11.dtd">
<!-- Generated by graphviz version 12.2.1 (0)
 -->
<!-- Title: deps Pages: 1 -->
<svg width="1478pt" height="1815pt"
 viewBox="0.00 0.00 1477.50 1815.39" xmlns="http://www.w3.org/2000/svg" xmlns:xlink="http://www.w3.org/1999/xlink">
<g id="graph0" class="graph" transform="scale(1 1) rotate(0) translate(4 1811.39)">
<title>deps</title>
<polygon fill="white" stroke="none" points="-4,4 -4,-1811.39 1473.5,-1811.39 1473.5,4 -4,4"/>
<!-- covalence -->
<g id="node1" class="node">
<title>covalence</title>
<polygon fill="none" stroke="black" points="102.62,-1411.39 18.38,-1411.39 18.38,-1375.39 102.62,-1375.39 102.62,-1411.39"/>
<text text-anchor="middle" x="60.5" y="-1389.09" font-family="sans-serif" font-size="14.00">covalence</text>
</g>
<!-- client -->
<g id="node5" class="node">
<title>client</title>
<polygon fill="none" stroke="black" points="349.75,-1579.39 295.75,-1579.39 295.75,-1543.39 349.75,-1543.39 349.75,-1579.39"/>
<text text-anchor="middle" x="322.75" y="-1557.09" font-family="sans-serif" font-size="14.00">client</text>
</g>
<!-- covalence&#45;&gt;client -->
<g id="edge1" class="edge">
<title>covalence&#45;&gt;client</title>
<path fill="none" stroke="black" d="M103.1,-1406.99C109.72,-1410.55 116.01,-1414.96 121,-1420.39 153.26,-1455.47 121.59,-1489.49 157,-1521.39 191.93,-1552.85 247.4,-1560.63 284.19,-1562.02"/>
<polygon fill="black" stroke="black" points="283.83,-1565.52 293.91,-1562.24 283.99,-1558.52 283.83,-1565.52"/>
</g>
<!-- fuse -->
<g id="node11" class="node">
<title>fuse</title>
<polygon fill="none" stroke="black" points="606.38,-1352.39 552.38,-1352.39 552.38,-1316.39 606.38,-1316.39 606.38,-1352.39"/>
<text text-anchor="middle" x="579.38" y="-1330.09" font-family="sans-serif" font-size="14.00">fuse</text>
</g>
<!-- covalence&#45;&gt;fuse -->
<g id="edge2" class="edge">
<title>covalence&#45;&gt;fuse</title>
<path fill="none" stroke="black" d="M102.95,-1408.08C109.43,-1411.5 115.72,-1415.58 121,-1420.39 144.84,-1442.11 129.11,-1467.2 157,-1483.39 238.21,-1530.52 277.16,-1506.12 368.25,-1483.39 430.66,-1467.82 444.14,-1453.44 496,-1415.39 517.76,-1399.43 539.4,-1377.87 555.04,-1361.01"/>
<polygon fill="black" stroke="black" points="557.46,-1363.54 561.61,-1353.79 552.29,-1358.82 557.46,-1363.54"/>
</g>
<!-- git -->
<g id="node12" class="node">
<title>git</title>
<polygon fill="none" stroke="black" points="477.12,-1276.39 423.12,-1276.39 423.12,-1240.39 477.12,-1240.39 477.12,-1276.39"/>
<text text-anchor="middle" x="450.12" y="-1254.09" font-family="sans-serif" font-size="14.00">git</text>
</g>
<!-- covalence&#45;&gt;git -->
<g id="edge3" class="edge">
<title>covalence&#45;&gt;git</title>
<path fill="none" stroke="black" d="M103.11,-1381.17C162.5,-1363.44 274.74,-1328.78 368.25,-1293.39 382.81,-1287.88 398.58,-1281.22 412.3,-1275.19"/>
<polygon fill="black" stroke="black" points="413.69,-1278.4 421.41,-1271.14 410.85,-1272 413.69,-1278.4"/>
</g>
<!-- hash -->
<g id="node15" class="node">
<title>hash</title>
<polygon fill="none" stroke="black" points="887.38,-1330.39 833.38,-1330.39 833.38,-1294.39 887.38,-1294.39 887.38,-1330.39"/>
<text text-anchor="middle" x="860.38" y="-1308.09" font-family="sans-serif" font-size="14.00">hash</text>
</g>
<!-- covalence&#45;&gt;hash -->
<g id="edge4" class="edge">
<title>covalence&#45;&gt;hash</title>
<path fill="none" stroke="black" d="M102.86,-1406.34C109.66,-1409.99 116.08,-1414.6 121,-1420.39 160.66,-1467.05 124.29,-1501.62 157,-1553.39 194.58,-1612.88 215.48,-1622.68 277.25,-1656.39 414.59,-1731.33 480.41,-1753.71 626.75,-1698.39 698.4,-1671.31 717.06,-1650.35 756,-1584.39 793.5,-1520.88 764.36,-1490.77 792,-1422.39 804.08,-1392.5 823.88,-1361.44 838.9,-1339.98"/>
<polygon fill="black" stroke="black" points="841.58,-1342.25 844.54,-1332.07 835.88,-1338.18 841.58,-1342.25"/>
</g>
<!-- hol -->
<g id="node17" class="node">
<title>hol</title>
<polygon fill="none" stroke="black" points="887.38,-1702.39 833.38,-1702.39 833.38,-1666.39 887.38,-1666.39 887.38,-1702.39"/>
<text text-anchor="middle" x="860.38" y="-1680.09" font-family="sans-serif" font-size="14.00">hol</text>
</g>
<!-- covalence&#45;&gt;hol -->
<g id="edge5" class="edge">
<title>covalence&#45;&gt;hol</title>
<path fill="none" stroke="black" d="M103.03,-1405.4C109.98,-1409.16 116.42,-1414.04 121,-1420.39 209.69,-1543.24 59.47,-1643.44 157,-1759.39 206.02,-1817.66 245.61,-1806.39 321.75,-1806.39 321.75,-1806.39 321.75,-1806.39 580.38,-1806.39 676.48,-1806.39 776.78,-1744.87 826.86,-1709.21"/>
<polygon fill="black" stroke="black" points="828.63,-1712.24 834.67,-1703.54 824.52,-1706.58 828.63,-1712.24"/>
</g>
<!-- lsp -->
<g id="node26" class="node">
<title>lsp</title>
<polygon fill="none" stroke="black" points="887.38,-534.39 833.38,-534.39 833.38,-498.39 887.38,-498.39 887.38,-534.39"/>
<text text-anchor="middle" x="860.38" y="-512.09" font-family="sans-serif" font-size="14.00">lsp</text>
</g>
<!-- covalence&#45;&gt;lsp -->
<g id="edge6" class="edge">
<title>covalence&#45;&gt;lsp</title>
<path fill="none" stroke="black" d="M61.82,-1375.13C63.66,-1303.12 75.88,-1032.85 157,-830.39 192.51,-741.77 205.55,-715.42 277.25,-652.39 414.97,-531.32 479.86,-518.61 662.75,-505.39 704.09,-502.4 714.61,-503.19 756,-505.39 777.89,-506.55 802.29,-509.09 821.88,-511.43"/>
<polygon fill="black" stroke="black" points="821.24,-514.88 831.59,-512.63 822.09,-507.93 821.24,-514.88"/>
</g>
<!-- object -->
<g id="node29" class="node">
<title>object</title>
<polygon fill="none" stroke="black" points="738,-1062.39 680.75,-1062.39 680.75,-1026.39 738,-1026.39 738,-1062.39"/>
<text text-anchor="middle" x="709.38" y="-1040.09" font-family="sans-serif" font-size="14.00">object</text>
</g>
<!-- covalence&#45;&gt;object -->
<g id="edge7" class="edge">
<title>covalence&#45;&gt;object</title>
<path fill="none" stroke="black" d="M74.79,-1374.97C116.43,-1318.68 250.76,-1147.69 404.25,-1063.39 489.41,-1016.62 608.91,-1027.18 669.65,-1036.88"/>
<polygon fill="black" stroke="black" points="668.7,-1040.27 679.14,-1038.48 669.86,-1033.37 668.7,-1040.27"/>
</g>
<!-- opentheory -->
<g id="node30" class="node">
<title>opentheory</title>
<polygon fill="none" stroke="black" points="368.25,-1778.39 277.25,-1778.39 277.25,-1742.39 368.25,-1742.39 368.25,-1778.39"/>
<text text-anchor="middle" x="322.75" y="-1756.09" font-family="sans-serif" font-size="14.00">opentheory</text>
</g>
<!-- covalence&#45;&gt;opentheory -->
<g id="edge8" class="edge">
<title>covalence&#45;&gt;opentheory</title>
<path fill="none" stroke="black" d="M102.98,-1405.44C109.94,-1409.19 116.39,-1414.07 121,-1420.39 202.26,-1531.71 63.29,-1627.33 157,-1728.39 184.08,-1757.6 229.22,-1764.74 265.41,-1765.05"/>
<polygon fill="black" stroke="black" points="265.33,-1768.55 275.3,-1764.94 265.26,-1761.55 265.33,-1768.55"/>
</g>
<!-- proto -->
<g id="node34" class="node">
<title>proto</title>
<polygon fill="none" stroke="black" points="349.75,-986.39 295.75,-986.39 295.75,-950.39 349.75,-950.39 349.75,-986.39"/>
<text text-anchor="middle" x="322.75" y="-964.09" font-family="sans-serif" font-size="14.00">proto</text>
</g>
<!-- covalence&#45;&gt;proto -->
<g id="edge9" class="edge">
<title>covalence&#45;&gt;proto</title>
<path fill="none" stroke="black" d="M63.99,-1375.08C73.4,-1308.48 108.68,-1080.2 157,-1027.39 190.08,-991.23 246.89,-977.22 284.39,-971.8"/>
<polygon fill="black" stroke="black" points="284.39,-975.32 293.85,-970.57 283.49,-968.38 284.39,-975.32"/>
</g>
<!-- repl -->
<g id="node40" class="node">
<title>repl</title>
<polygon fill="none" stroke="black" points="349.75,-894.39 295.75,-894.39 295.75,-858.39 349.75,-858.39 349.75,-894.39"/>
<text text-anchor="middle" x="322.75" y="-872.09" font-family="sans-serif" font-size="14.00">repl</text>
</g>
<!-- covalence&#45;&gt;repl -->
<g id="edge10" class="edge">
<title>covalence&#45;&gt;repl</title>
<path fill="none" stroke="black" d="M60.92,-1375.19C59.84,-1313.2 63.79,-1107.05 157,-977.39 188.9,-933.01 246.92,-904.21 284.9,-889.14"/>
<polygon fill="black" stroke="black" points="286.01,-892.46 294.1,-885.61 283.51,-885.92 286.01,-892.46"/>
</g>
<!-- serve -->
<g id="node42" class="node">
<title>serve</title>
<polygon fill="none" stroke="black" points="226.12,-1072.39 172.12,-1072.39 172.12,-1036.39 226.12,-1036.39 226.12,-1072.39"/>
<text text-anchor="middle" x="199.12" y="-1050.09" font-family="sans-serif" font-size="14.00">serve</text>
</g>
<!-- covalence&#45;&gt;serve -->
<g id="edge11" class="edge">
<title>covalence&#45;&gt;serve</title>
<path fill="none" stroke="black" d="M68.85,-1375.16C91.32,-1319.41 159.26,-1150.82 186.57,-1083.05"/>
<polygon fill="black" stroke="black" points="189.69,-1084.69 190.18,-1074.11 183.19,-1082.08 189.69,-1084.69"/>
</g>
<!-- shell -->
<g id="node44" class="node">
<title>shell</title>
<polygon fill="none" stroke="black" points="477.12,-1368.39 423.12,-1368.39 423.12,-1332.39 477.12,-1332.39 477.12,-1368.39"/>
<text text-anchor="middle" x="450.12" y="-1346.09" font-family="sans-serif" font-size="14.00">shell</text>
</g>
<!-- covalence&#45;&gt;shell -->
<g id="edge12" class="edge">
<title>covalence&#45;&gt;shell</title>
<path fill="none" stroke="black" d="M102.91,-1392.16C162.07,-1389.94 274.03,-1384.06 368.25,-1369.39 382.61,-1367.15 398.2,-1363.73 411.82,-1360.41"/>
<polygon fill="black" stroke="black" points="412.42,-1363.87 421.27,-1358.04 410.72,-1357.08 412.42,-1363.87"/>
</g>
<!-- store -->
<g id="node48" class="node">
<title>store</title>
<polygon fill="none" stroke="black" points="736.38,-1276.39 682.38,-1276.39 682.38,-1240.39 736.38,-1240.39 736.38,-1276.39"/>
<text text-anchor="middle" x="709.38" y="-1254.09" font-family="sans-serif" font-size="14.00">store</text>
</g>
<!-- covalence&#45;&gt;store -->
<g id="edge13" class="edge">
<title>covalence&#45;&gt;store</title>
<path fill="none" stroke="black" d="M102.82,-1397.61C119.61,-1399.13 139.21,-1400.65 157,-1401.39 194.41,-1402.95 203.85,-1403.15 241.25,-1401.39 354.85,-1396.05 401.81,-1441.12 496,-1377.39 524.97,-1357.79 504.87,-1329.48 532,-1307.39 553.25,-1290.08 625.94,-1273.85 671.1,-1265.11"/>
<polygon fill="black" stroke="black" points="671.55,-1268.58 680.72,-1263.28 670.25,-1261.71 671.55,-1268.58"/>
</g>
<!-- wasm -->
<g id="node50" class="node">
<title>wasm</title>
<polygon fill="none" stroke="black" points="1028.75,-309.39 974.5,-309.39 974.5,-273.39 1028.75,-273.39 1028.75,-309.39"/>
<text text-anchor="middle" x="1001.62" y="-287.09" font-family="sans-serif" font-size="14.00">wasm</text>
</g>
<!-- covalence&#45;&gt;wasm -->
<g id="edge14" class="edge">
<title>covalence&#45;&gt;wasm</title>
<path fill="none" stroke="black" d="M62.55,-1375.03C68.36,-1276.72 98.56,-812.13 157,-682.39 274.58,-421.34 382.5,-341.97 662.75,-283.39 703.32,-274.91 714.56,-282.71 756,-283.39 829.24,-284.59 914.77,-287.8 962.83,-289.77"/>
<polygon fill="black" stroke="black" points="962.56,-293.26 972.69,-290.18 962.85,-286.27 962.56,-293.26"/>
</g>
<!-- acset -->
<g id="node2" class="node">
<title>acset</title>
<polygon fill="none" stroke="black" points="887.38,-404.39 833.38,-404.39 833.38,-368.39 887.38,-368.39 887.38,-404.39"/>
<text text-anchor="middle" x="860.38" y="-382.09" font-family="sans-serif" font-size="14.00">acset</text>
</g>
<!-- alethe -->
<g id="node3" class="node">
<title>alethe</title>
<polygon fill="none" stroke="black" points="607.62,-588.39 551.12,-588.39 551.12,-552.39 607.62,-552.39 607.62,-588.39"/>
<text text-anchor="middle" x="579.38" y="-566.09" font-family="sans-serif" font-size="14.00">alethe</text>
</g>
<!-- core -->
<g id="node6" class="node">
<title>core</title>
<polygon fill="#ffd6d6" stroke="black" points="1028.62,-1146.39 974.62,-1146.39 974.62,-1110.39 1028.62,-1110.39 1028.62,-1146.39"/>
<text text-anchor="middle" x="1001.62" y="-1124.09" font-family="sans-serif" font-size="14.00">core</text>
</g>
<!-- alethe&#45;&gt;core -->
<g id="edge15" class="edge">
<title>alethe&#45;&gt;core</title>
<path fill="none" stroke="black" d="M607.95,-581.37C615.05,-585.42 622.01,-590.7 626.75,-597.39 675.93,-666.81 621.4,-711.04 662.75,-785.39 690.15,-834.66 725.89,-823.72 756,-871.39 784.83,-917.03 757.96,-945.49 792,-987.39 835.84,-1041.36 872.21,-1022.92 928.75,-1063.39 944.91,-1074.96 961.46,-1089.69 974.6,-1102.2"/>
<polygon fill="black" stroke="black" points="972,-1104.55 981.62,-1109 976.87,-1099.53 972,-1104.55"/>
</g>
<!-- hol&#45;eval -->
<g id="node18" class="node">
<title>hol&#45;eval</title>
<polygon fill="none" stroke="black" points="895.38,-978.39 825.38,-978.39 825.38,-942.39 895.38,-942.39 895.38,-978.39"/>
<text text-anchor="middle" x="860.38" y="-956.09" font-family="sans-serif" font-size="14.00">hol&#45;eval</text>
</g>
<!-- alethe&#45;&gt;hol&#45;eval -->
<g id="edge16" class="edge">
<title>alethe&#45;&gt;hol&#45;eval</title>
<path fill="none" stroke="black" d="M607.79,-581.49C614.88,-585.54 621.88,-590.79 626.75,-597.39 668.75,-654.29 616.86,-698.57 662.75,-752.39 691.79,-786.45 721.94,-761.36 756,-790.39 801.75,-829.37 833.06,-893.9 848.43,-931.24"/>
<polygon fill="black" stroke="black" points="845.17,-932.5 852.13,-940.49 851.67,-929.9 845.17,-932.5"/>
</g>
<!-- init -->
<g id="node20" class="node">
<title>init</title>
<polygon fill="none" stroke="black" points="736.38,-916.39 682.38,-916.39 682.38,-880.39 736.38,-880.39 736.38,-916.39"/>
<text text-anchor="middle" x="709.38" y="-894.09" font-family="sans-serif" font-size="14.00">init</text>
</g>
<!-- alethe&#45;&gt;init -->
<g id="edge17" class="edge">
<title>alethe&#45;&gt;init</title>
<path fill="none" stroke="black" d="M607.72,-580.93C614.98,-585.01 622.1,-590.42 626.75,-597.39 693.69,-697.73 600.1,-763.31 662.75,-866.39 665.42,-870.79 668.95,-874.74 672.87,-878.24"/>
<polygon fill="black" stroke="black" points="670.63,-880.93 680.68,-884.26 674.9,-875.38 670.63,-880.93"/>
</g>
<!-- sexp -->
<g id="node43" class="node">
<title>sexp</title>
<polygon fill="none" stroke="black" points="1028.62,-718.39 974.62,-718.39 974.62,-682.39 1028.62,-682.39 1028.62,-718.39"/>
<text text-anchor="middle" x="1001.62" y="-696.09" font-family="sans-serif" font-size="14.00">sexp</text>
</g>
<!-- alethe&#45;&gt;sexp -->
<g id="edge18" class="edge">
<title>alethe&#45;&gt;sexp</title>
<path fill="none" stroke="black" d="M607.97,-585.15C614.31,-588.89 620.9,-593.08 626.75,-597.39 644.23,-610.26 646.05,-616.53 662.75,-630.39 718.01,-676.27 723.87,-704.67 792,-727.39 849.66,-746.62 868.95,-738.25 928.75,-727.39 940.46,-725.26 952.73,-721.34 963.77,-717.13"/>
<polygon fill="black" stroke="black" points="964.94,-720.43 972.91,-713.44 962.33,-713.93 964.94,-720.43"/>
</g>
<!-- smt -->
<g id="node45" class="node">
<title>smt</title>
<polygon fill="none" stroke="black" points="736.38,-328.39 682.38,-328.39 682.38,-292.39 736.38,-292.39 736.38,-328.39"/>
<text text-anchor="middle" x="709.38" y="-306.09" font-family="sans-serif" font-size="14.00">smt</text>
</g>
<!-- alethe&#45;&gt;smt -->
<g id="edge19" class="edge">
<title>alethe&#45;&gt;smt</title>
<path fill="none" stroke="black" d="M583.13,-552.03C590.1,-510.8 611.61,-409.25 662.75,-342.39 665.66,-338.59 669.15,-335.06 672.89,-331.84"/>
<polygon fill="black" stroke="black" points="674.91,-334.7 680.7,-325.83 670.64,-329.15 674.91,-334.7"/>
</g>
<!-- types -->
<g id="node49" class="node">
<title>types</title>
<polygon fill="#ffd6d6" stroke="black" points="1469.5,-924.39 1415.5,-924.39 1415.5,-888.39 1469.5,-888.39 1469.5,-924.39"/>
<text text-anchor="middle" x="1442.5" y="-902.09" font-family="sans-serif" font-size="14.00">types</text>
</g>
<!-- alethe&#45;&gt;types -->
<g id="edge20" class="edge">
<title>alethe&#45;&gt;types</title>
<path fill="none" stroke="black" d="M581.07,-552.08C585.14,-474.06 612.44,-167.52 792,-38.39 868.27,16.46 906.68,-4.39 1000.62,-4.39 1000.62,-4.39 1000.62,-4.39 1218.25,-4.39 1292.9,-4.39 1332.57,6.66 1379.5,-51.39 1432.4,-116.83 1440.22,-733.93 1441.33,-876.91"/>
<polygon fill="black" stroke="black" points="1437.82,-876.69 1441.39,-886.67 1444.82,-876.64 1437.82,-876.69"/>
</g>
<!-- arrow -->
<g id="node4" class="node">
<title>arrow</title>
<polygon fill="none" stroke="black" points="606.38,-902.39 552.38,-902.39 552.38,-866.39 606.38,-866.39 606.38,-902.39"/>
<text text-anchor="middle" x="579.38" y="-880.09" font-family="sans-serif" font-size="14.00">arrow</text>
</g>
<!-- client&#45;&gt;hash -->
<g id="edge21" class="edge">
<title>client&#45;&gt;hash</title>
<path fill="none" stroke="black" d="M350.21,-1563.13C422.91,-1566.51 628.7,-1566.51 756,-1470.39 768.05,-1461.29 816.33,-1383.4 842.43,-1340.49"/>
<polygon fill="black" stroke="black" points="845.42,-1342.3 847.61,-1331.94 839.43,-1338.67 845.42,-1342.3"/>
</g>
<!-- client&#45;&gt;shell -->
<g id="edge22" class="edge">
<title>client&#45;&gt;shell</title>
<path fill="none" stroke="black" d="M334.66,-1543.03C356.61,-1506.09 406.25,-1422.55 432.36,-1378.61"/>
<polygon fill="black" stroke="black" points="435.28,-1380.54 437.38,-1370.16 429.26,-1376.96 435.28,-1380.54"/>
</g>
<!-- client&#45;&gt;store -->
<g id="edge23" class="edge">
<title>client&#45;&gt;store</title>
<path fill="none" stroke="black" d="M349.96,-1560.5C385.55,-1558.19 450,-1550.03 496,-1521.39 592.68,-1461.19 664.82,-1341.13 694.07,-1286.55"/>
<polygon fill="black" stroke="black" points="697.07,-1288.37 698.64,-1277.89 690.88,-1285.1 697.07,-1288.37"/>
</g>
<!-- pure -->
<g id="node35" class="node">
<title>pure</title>
<polygon fill="#ffd6d6" stroke="black" points="1244.25,-970.39 1190.25,-970.39 1190.25,-934.39 1244.25,-934.39 1244.25,-970.39"/>
<text text-anchor="middle" x="1217.25" y="-948.09" font-family="sans-serif" font-size="14.00">pure</text>
</g>
<!-- core&#45;&gt;pure -->
<g id="edge24" class="edge">
<title>core&#45;&gt;pure</title>
<path fill="none" stroke="black" d="M1029.11,-1113.4C1060.66,-1094.9 1114.12,-1061.43 1154.25,-1025.39 1169.57,-1011.63 1184.58,-994.09 1196,-979.66"/>
<polygon fill="black" stroke="black" points="1198.66,-981.94 1202.02,-971.89 1193.13,-977.65 1198.66,-981.94"/>
</g>
<!-- pure&#45;eval -->
<g id="node36" class="node">
<title>pure&#45;eval</title>
<polygon fill="#ffd6d6" stroke="black" points="1154.25,-1016.39 1074.5,-1016.39 1074.5,-980.39 1154.25,-980.39 1154.25,-1016.39"/>
<text text-anchor="middle" x="1114.38" y="-994.09" font-family="sans-serif" font-size="14.00">pure&#45;eval</text>
</g>
<!-- core&#45;&gt;pure&#45;eval -->
<g id="edge25" class="edge">
<title>core&#45;&gt;pure&#45;eval</title>
<path fill="none" stroke="black" d="M1024.5,-1110.08C1029.27,-1105.75 1034.19,-1101.04 1038.5,-1096.39 1059.26,-1073.99 1080.14,-1046.12 1094.55,-1025.84"/>
<polygon fill="black" stroke="black" points="1097.32,-1027.98 1100.21,-1017.78 1091.59,-1023.95 1097.32,-1027.98"/>
</g>
<!-- core&#45;&gt;types -->
<g id="edge26" class="edge">
<title>core&#45;&gt;types</title>
<path fill="none" stroke="black" d="M1028.82,-1126.2C1094.53,-1119.51 1268.95,-1094.16 1379.5,-1007.39 1403.42,-988.61 1420.39,-957.85 1430.46,-935.2"/>
<polygon fill="black" stroke="black" points="1433.59,-936.79 1434.26,-926.21 1427.14,-934.06 1433.59,-936.79"/>
</g>
<!-- core&#45;test&#45;guest -->
<g id="node7" class="node">
<title>core&#45;test&#45;guest</title>
<polygon fill="none" stroke="black" points="121,-1465.39 0,-1465.39 0,-1429.39 121,-1429.39 121,-1465.39"/>
<text text-anchor="middle" x="60.5" y="-1443.09" font-family="sans-serif" font-size="14.00">core&#45;test&#45;guest</text>
</g>
<!-- crypto&#45;sig -->
<g id="node8" class="node">
<title>crypto&#45;sig</title>
<polygon fill="none" stroke="black" points="241.25,-128.39 157,-128.39 157,-92.39 241.25,-92.39 241.25,-128.39"/>
<text text-anchor="middle" x="199.12" y="-106.09" font-family="sans-serif" font-size="14.00">crypto&#45;sig</text>
</g>
<!-- egglog -->
<g id="node9" class="node">
<title>egglog</title>
<polygon fill="none" stroke="black" points="890.88,-588.39 829.88,-588.39 829.88,-552.39 890.88,-552.39 890.88,-588.39"/>
<text text-anchor="middle" x="860.38" y="-566.09" font-family="sans-serif" font-size="14.00">egglog</text>
</g>
<!-- egglog&#45;&gt;sexp -->
<g id="edge27" class="edge">
<title>egglog&#45;&gt;sexp</title>
<path fill="none" stroke="black" d="M891.07,-580.75C903.53,-586 917.67,-593.23 928.75,-602.39 941.53,-612.95 965.7,-647.47 982.46,-672.56"/>
<polygon fill="black" stroke="black" points="979.43,-674.31 987.87,-680.71 985.26,-670.44 979.43,-674.31"/>
</g>
<!-- egglog&#45;&gt;types -->
<g id="edge28" class="edge">
<title>egglog&#45;&gt;types</title>
<path fill="none" stroke="black" d="M891.32,-579.37C948.16,-596.11 1069.86,-630.39 1113.38,-630.39 1113.38,-630.39 1113.38,-630.39 1218.25,-630.39 1344.35,-630.39 1411.49,-806.7 1433.37,-877.49"/>
<polygon fill="black" stroke="black" points="1429.94,-878.26 1436.17,-886.83 1436.65,-876.25 1429.94,-878.26"/>
</g>
<!-- forsp -->
<g id="node10" class="node">
<title>forsp</title>
<polygon fill="none" stroke="black" points="736.38,-1008.39 682.38,-1008.39 682.38,-972.39 736.38,-972.39 736.38,-1008.39"/>
<text text-anchor="middle" x="709.38" y="-986.09" font-family="sans-serif" font-size="14.00">forsp</text>
</g>
<!-- forsp&#45;&gt;hash -->
<g id="edge29" class="edge">
<title>forsp&#45;&gt;hash</title>
<path fill="none" stroke="black" d="M736.8,-1000.74C744.12,-1004.86 751.32,-1010.33 756,-1017.39 822.36,-1117.59 718.16,-1190.57 792,-1285.39 799.51,-1295.03 811,-1301.25 822.38,-1305.24"/>
<polygon fill="black" stroke="black" points="821.09,-1308.51 831.67,-1308 823.08,-1301.8 821.09,-1308.51"/>
</g>
<!-- forsp&#45;&gt;sexp -->
<g id="edge30" class="edge">
<title>forsp&#45;&gt;sexp</title>
<path fill="none" stroke="black" d="M722.66,-971.91C737.03,-951.64 762.63,-919.46 792,-900.39 845.66,-865.54 880.95,-897.93 928.75,-855.39 966.47,-821.82 985.81,-764.34 994.53,-729.61"/>
<polygon fill="black" stroke="black" points="997.85,-730.78 996.75,-720.24 991.04,-729.17 997.85,-730.78"/>
</g>
<!-- fuse&#45;&gt;hash -->
<g id="edge31" class="edge">
<title>fuse&#45;&gt;hash</title>
<path fill="none" stroke="black" d="M606.87,-1332.3C656.65,-1328.38 764.28,-1319.89 821.62,-1315.37"/>
<polygon fill="black" stroke="black" points="821.85,-1318.86 831.54,-1314.58 821.3,-1311.88 821.85,-1318.86"/>
</g>
<!-- fuse&#45;&gt;object -->
<g id="edge32" class="edge">
<title>fuse&#45;&gt;object</title>
<path fill="none" stroke="black" d="M588.38,-1316.25C609.98,-1267.32 669.55,-1132.35 695.74,-1073.01"/>
<polygon fill="black" stroke="black" points="698.92,-1074.47 699.76,-1063.91 692.52,-1071.64 698.92,-1074.47"/>
</g>
<!-- fuse&#45;&gt;store -->
<g id="edge33" class="edge">
<title>fuse&#45;&gt;store</title>
<path fill="none" stroke="black" d="M606.59,-1318.83C625.57,-1307.56 651.46,-1292.18 672.38,-1279.76"/>
<polygon fill="black" stroke="black" points="674.09,-1282.82 680.9,-1274.71 670.51,-1276.8 674.09,-1282.82"/>
</g>
<!-- git&#45;&gt;hash -->
<g id="edge34" class="edge">
<title>git&#45;&gt;hash</title>
<path fill="none" stroke="black" d="M477.22,-1272.93C484.08,-1277.76 490.96,-1283.65 496,-1290.39 525.3,-1329.56 492.16,-1366.02 532,-1394.39 613.1,-1452.14 661.99,-1427.15 756,-1394.39 787.47,-1383.42 816.55,-1358.44 835.8,-1338.92"/>
<polygon fill="black" stroke="black" points="838.26,-1341.41 842.63,-1331.76 833.2,-1336.58 838.26,-1341.41"/>
</g>
<!-- git&#45;&gt;object -->
<g id="edge35" class="edge">
<title>git&#45;&gt;object</title>
<path fill="none" stroke="black" d="M456.17,-1239.97C468.65,-1195.78 502.14,-1085.73 532,-1063.39 571.44,-1033.87 630.45,-1033.82 669.18,-1037.94"/>
<polygon fill="black" stroke="black" points="668.65,-1041.4 679,-1039.14 669.5,-1034.46 668.65,-1041.4"/>
</g>
<!-- sqlite -->
<g id="node47" class="node">
<title>sqlite</title>
<polygon fill="none" stroke="black" points="887.38,-1467.39 833.38,-1467.39 833.38,-1431.39 887.38,-1431.39 887.38,-1467.39"/>
<text text-anchor="middle" x="860.38" y="-1445.09" font-family="sans-serif" font-size="14.00">sqlite</text>
</g>
<!-- git&#45;&gt;sqlite -->
<g id="edge36" class="edge">
<title>git&#45;&gt;sqlite</title>
<path fill="none" stroke="black" d="M477.54,-1272.7C484.4,-1277.53 491.2,-1283.47 496,-1290.39 531.37,-1341.43 484.17,-1385.78 532,-1425.39 615.43,-1494.49 755.46,-1474.2 822.04,-1459.18"/>
<polygon fill="black" stroke="black" points="822.8,-1462.59 831.73,-1456.9 821.2,-1455.78 822.8,-1462.59"/>
</g>
<!-- git&#45;&gt;store -->
<g id="edge37" class="edge">
<title>git&#45;&gt;store</title>
<path fill="none" stroke="black" d="M477.21,-1258.39C523.05,-1258.39 618.19,-1258.39 671.01,-1258.39"/>
<polygon fill="black" stroke="black" points="670.71,-1261.89 680.71,-1258.39 670.71,-1254.89 670.71,-1261.89"/>
</g>
<!-- grammar -->
<g id="node13" class="node">
<title>grammar</title>
<polygon fill="none" stroke="black" points="1038.5,-1054.39 964.75,-1054.39 964.75,-1018.39 1038.5,-1018.39 1038.5,-1054.39"/>
<text text-anchor="middle" x="1001.62" y="-1032.09" font-family="sans-serif" font-size="14.00">grammar</text>
</g>
<!-- graph -->
<g id="node14" class="node">
<title>graph</title>
<polygon fill="none" stroke="black" points="477.12,-734.39 423.12,-734.39 423.12,-698.39 477.12,-698.39 477.12,-734.39"/>
<text text-anchor="middle" x="450.12" y="-712.09" font-family="sans-serif" font-size="14.00">graph</text>
</g>
<!-- graph&#45;&gt;hash -->
<g id="edge38" class="edge">
<title>graph&#45;&gt;hash</title>
<path fill="none" stroke="black" d="M456.3,-734.82C465.24,-767.15 483.81,-836.24 496,-895.39 516.17,-993.29 471.29,-1037.98 532,-1117.39 560.09,-1154.13 585.4,-1139.69 626.75,-1160.39 685.36,-1189.73 707.71,-1187.07 756,-1231.39 777.25,-1250.89 769.61,-1267.21 792,-1285.39 800.86,-1292.58 811.88,-1298.06 822.42,-1302.15"/>
<polygon fill="black" stroke="black" points="821.11,-1305.39 831.7,-1305.41 823.43,-1298.79 821.11,-1305.39"/>
</g>
<!-- parse -->
<g id="node32" class="node">
<title>parse</title>
<polygon fill="none" stroke="black" points="1141.38,-538.39 1087.38,-538.39 1087.38,-502.39 1141.38,-502.39 1141.38,-538.39"/>
<text text-anchor="middle" x="1114.38" y="-516.09" font-family="sans-serif" font-size="14.00">parse</text>
</g>
<!-- graph&#45;&gt;parse -->
<g id="edge39" class="edge">
<title>graph&#45;&gt;parse</title>
<path fill="none" stroke="black" d="M453.84,-697.97C468.12,-608.76 543.61,-221.03 792,-99.39 895.57,-48.67 975.7,-83.67 1038.5,-180.39 1103.46,-280.43 1112.76,-428.28 1113.61,-490.78"/>
<polygon fill="black" stroke="black" points="1110.11,-490.61 1113.68,-500.59 1117.11,-490.56 1110.11,-490.61"/>
</g>
<!-- rand -->
<g id="node39" class="node">
<title>rand</title>
<polygon fill="none" stroke="black" points="1028.62,-1330.39 974.62,-1330.39 974.62,-1294.39 1028.62,-1294.39 1028.62,-1330.39"/>
<text text-anchor="middle" x="1001.62" y="-1308.09" font-family="sans-serif" font-size="14.00">rand</text>
</g>
<!-- hash&#45;&gt;rand -->
<g id="edge40" class="edge">
<title>hash&#45;&gt;rand</title>
<path fill="none" stroke="black" d="M887.57,-1312.39C908.86,-1312.39 939.19,-1312.39 963.07,-1312.39"/>
<polygon fill="black" stroke="black" points="963.04,-1315.89 973.04,-1312.39 963.04,-1308.89 963.04,-1315.89"/>
</g>
<!-- haskell -->
<g id="node16" class="node">
<title>haskell</title>
<polygon fill="none" stroke="black" points="610.62,-642.39 548.12,-642.39 548.12,-606.39 610.62,-606.39 610.62,-642.39"/>
<text text-anchor="middle" x="579.38" y="-620.09" font-family="sans-serif" font-size="14.00">haskell</text>
</g>
<!-- haskell&#45;&gt;hol&#45;eval -->
<g id="edge41" class="edge">
<title>haskell&#45;&gt;hol&#45;eval</title>
<path fill="none" stroke="black" d="M611.05,-637.6C616.95,-641.32 622.59,-645.9 626.75,-651.39 665.29,-702.25 629.09,-736.18 662.75,-790.39 663.47,-791.55 774.59,-887.35 829.44,-934.61"/>
<polygon fill="black" stroke="black" points="827.05,-937.16 836.91,-941.04 831.62,-931.86 827.05,-937.16"/>
</g>
<!-- haskell&#45;&gt;init -->
<g id="edge42" class="edge">
<title>haskell&#45;&gt;init</title>
<path fill="none" stroke="black" d="M610.94,-637.03C617,-640.82 622.72,-645.57 626.75,-651.39 681.83,-731.09 611.08,-784.43 662.75,-866.39 665.49,-870.74 669.07,-874.67 673.01,-878.16"/>
<polygon fill="black" stroke="black" points="670.77,-880.85 680.84,-884.17 675.04,-875.3 670.77,-880.85"/>
</g>
<!-- hol&#45;&gt;core -->
<g id="edge43" class="edge">
<title>hol&#45;&gt;core</title>
<path fill="none" stroke="black" d="M887.86,-1667.27C902.49,-1656.3 919.52,-1640.7 928.75,-1622.39 996.52,-1487.87 939.93,-1433.96 964.75,-1285.39 972.27,-1240.4 984.77,-1188.98 992.86,-1157.61"/>
<polygon fill="black" stroke="black" points="996.2,-1158.64 995.34,-1148.08 989.43,-1156.88 996.2,-1158.64"/>
</g>
<!-- hol&#45;eval&#45;&gt;core -->
<g id="edge44" class="edge">
<title>hol&#45;eval&#45;&gt;core</title>
<path fill="none" stroke="black" d="M880.38,-978.77C894.29,-992.53 913.33,-1012.06 928.75,-1030.39 947.93,-1053.18 967.81,-1080.63 981.79,-1100.67"/>
<polygon fill="black" stroke="black" points="978.91,-1102.66 987.47,-1108.9 984.66,-1098.68 978.91,-1102.66"/>
</g>
<!-- hol&#45;eval&#45;&gt;pure -->
<g id="edge45" class="edge">
<title>hol&#45;eval&#45;&gt;pure</title>
<path fill="none" stroke="black" d="M895.72,-959.62C962.48,-958.11 1109.26,-954.8 1178.58,-953.24"/>
<polygon fill="black" stroke="black" points="1178.37,-956.75 1188.29,-953.02 1178.21,-949.75 1178.37,-956.75"/>
</g>
<!-- hol&#45;eval&#45;&gt;pure&#45;eval -->
<g id="edge46" class="edge">
<title>hol&#45;eval&#45;&gt;pure&#45;eval</title>
<path fill="none" stroke="black" d="M895.62,-965.55C938.82,-972.07 1013.44,-983.32 1063.11,-990.81"/>
<polygon fill="black" stroke="black" points="1062.33,-994.23 1072.74,-992.26 1063.37,-987.31 1062.33,-994.23"/>
</g>
<!-- hol&#45;eval&#45;&gt;sexp -->
<g id="edge47" class="edge">
<title>hol&#45;eval&#45;&gt;sexp</title>
<path fill="none" stroke="black" d="M895.77,-950.4C907.62,-945.46 920.08,-938.35 928.75,-928.39 979.14,-870.51 994.24,-777.3 998.73,-729.99"/>
<polygon fill="black" stroke="black" points="1002.2,-730.5 999.56,-720.24 995.23,-729.91 1002.2,-730.5"/>
</g>
<!-- hol&#45;eval&#45;&gt;types -->
<g id="edge48" class="edge">
<title>hol&#45;eval&#45;&gt;types</title>
<path fill="none" stroke="black" d="M895.53,-948.27C943.52,-932.35 1033.96,-906.39 1113.38,-906.39 1113.38,-906.39 1113.38,-906.39 1218.25,-906.39 1283.4,-906.39 1359.24,-906.39 1403.65,-906.39"/>
<polygon fill="black" stroke="black" points="1403.52,-909.89 1413.52,-906.39 1403.52,-902.89 1403.52,-909.89"/>
</g>
<!-- inductive -->
<g id="node19" class="node">
<title>inductive</title>
<polygon fill="none" stroke="black" points="898.75,-810.39 822,-810.39 822,-774.39 898.75,-774.39 898.75,-810.39"/>
<text text-anchor="middle" x="860.38" y="-788.09" font-family="sans-serif" font-size="14.00">inductive</text>
</g>
<!-- init&#45;&gt;core -->
<g id="edge49" class="edge">
<title>init&#45;&gt;core</title>
<path fill="none" stroke="black" d="M736.6,-911.76C743.91,-916.68 751.16,-922.92 756,-930.39 802.01,-1001.43 728.18,-1061.8 792,-1117.39 839.15,-1158.46 917.4,-1149.21 963.49,-1138.78"/>
<polygon fill="black" stroke="black" points="964.1,-1142.23 973,-1136.49 962.46,-1135.43 964.1,-1142.23"/>
</g>
<!-- init&#45;&gt;grammar -->
<g id="edge50" class="edge">
<title>init&#45;&gt;grammar</title>
<path fill="none" stroke="black" d="M736.42,-914.01C743.23,-918.78 750.26,-924.37 756,-930.39 776.67,-952.08 767.6,-970 792,-987.39 839.8,-1021.45 907.92,-1032.14 953.16,-1035.33"/>
<polygon fill="black" stroke="black" points="952.72,-1038.81 962.91,-1035.91 953.14,-1031.82 952.72,-1038.81"/>
</g>
<!-- init&#45;&gt;hash -->
<g id="edge51" class="edge">
<title>init&#45;&gt;hash</title>
<path fill="none" stroke="black" d="M727.13,-916.83C737.27,-929.11 749.46,-946.11 756,-963.39 781.48,-1030.73 748.4,-1228.09 792,-1285.39 799.4,-1295.12 810.87,-1301.35 822.26,-1305.34"/>
<polygon fill="black" stroke="black" points="820.98,-1308.61 831.56,-1308.09 822.96,-1301.9 820.98,-1308.61"/>
</g>
<!-- init&#45;&gt;hol -->
<g id="edge52" class="edge">
<title>init&#45;&gt;hol</title>
<path fill="none" stroke="black" d="M727.37,-916.74C737.61,-928.99 749.82,-945.98 756,-963.39 832.45,-1178.79 748.46,-1252.01 792,-1476.39 804.76,-1542.16 831.95,-1616.11 847.61,-1655.69"/>
<polygon fill="black" stroke="black" points="844.26,-1656.76 851.23,-1664.74 850.76,-1654.15 844.26,-1656.76"/>
</g>
<!-- init&#45;&gt;hol&#45;eval -->
<g id="edge53" class="edge">
<title>init&#45;&gt;hol&#45;eval</title>
<path fill="none" stroke="black" d="M736.67,-909.33C758.16,-918.27 789.03,-931.12 814.43,-941.69"/>
<polygon fill="black" stroke="black" points="812.97,-944.87 823.54,-945.48 815.66,-938.41 812.97,-944.87"/>
</g>
<!-- init&#45;&gt;inductive -->
<g id="edge54" class="edge">
<title>init&#45;&gt;inductive</title>
<path fill="none" stroke="black" d="M727.57,-880C743.27,-863.92 767.68,-840.67 792,-824.39 798.15,-820.28 804.9,-816.41 811.69,-812.87"/>
<polygon fill="black" stroke="black" points="812.84,-816.21 820.24,-808.63 809.73,-809.94 812.84,-816.21"/>
</g>
<!-- metamath -->
<g id="node27" class="node">
<title>metamath</title>
<polygon fill="none" stroke="black" points="900.62,-718.39 820.12,-718.39 820.12,-682.39 900.62,-682.39 900.62,-718.39"/>
<text text-anchor="middle" x="860.38" y="-696.09" font-family="sans-serif" font-size="14.00">metamath</text>
</g>
<!-- init&#45;&gt;metamath -->
<g id="edge55" class="edge">
<title>init&#45;&gt;metamath</title>
<path fill="none" stroke="black" d="M719.61,-880.24C733.51,-853.71 761.45,-803.4 792,-765.39 803.17,-751.49 817.13,-737.57 829.45,-726.2"/>
<polygon fill="black" stroke="black" points="831.48,-729.09 836.54,-719.78 826.78,-723.9 831.48,-729.09"/>
</g>
<!-- init&#45;&gt;sexp -->
<g id="edge56" class="edge">
<title>init&#45;&gt;sexp</title>
<path fill="none" stroke="black" d="M736.54,-885.97C752.4,-878.66 773.16,-869.48 792,-862.39 851.63,-839.95 878.66,-858.76 928.75,-819.39 958.77,-795.8 979.14,-755.92 990.32,-728.89"/>
<polygon fill="black" stroke="black" points="993.43,-730.52 993.86,-719.94 986.92,-727.95 993.43,-730.52"/>
</g>
<!-- spectec -->
<g id="node46" class="node">
<title>spectec</title>
<polygon fill="none" stroke="black" points="895,-1108.39 825.75,-1108.39 825.75,-1072.39 895,-1072.39 895,-1108.39"/>
<text text-anchor="middle" x="860.38" y="-1086.09" font-family="sans-serif" font-size="14.00">spectec</text>
</g>
<!-- init&#45;&gt;spectec -->
<g id="edge57" class="edge">
<title>init&#45;&gt;spectec</title>
<path fill="none" stroke="black" d="M736.7,-912.35C743.83,-917.22 750.96,-923.29 756,-930.39 790.18,-978.6 753.89,-1013.22 792,-1058.39 798.24,-1065.79 806.58,-1071.6 815.26,-1076.11"/>
<polygon fill="black" stroke="black" points="813.59,-1079.19 824.13,-1080.2 816.52,-1072.83 813.59,-1079.19"/>
</g>
<!-- init&#45;&gt;types -->
<g id="edge58" class="edge">
<title>init&#45;&gt;types</title>
<path fill="none" stroke="black" d="M736.63,-906.5C743.94,-909.98 751.18,-914.8 756,-921.39 815.77,-1003.15 719.49,-1075.69 792,-1146.39 858.98,-1211.7 907.07,-1174.39 1000.62,-1174.39 1000.62,-1174.39 1000.62,-1174.39 1218.25,-1174.39 1341.58,-1174.39 1409.98,-1004.77 1432.79,-935.42"/>
<polygon fill="black" stroke="black" points="1436,-936.84 1435.71,-926.25 1429.34,-934.71 1436,-936.84"/>
</g>
<!-- json -->
<g id="node21" class="node">
<title>json</title>
<polygon fill="none" stroke="black" points="887.38,-1276.39 833.38,-1276.39 833.38,-1240.39 887.38,-1240.39 887.38,-1276.39"/>
<text text-anchor="middle" x="860.38" y="-1254.09" font-family="sans-serif" font-size="14.00">json</text>
</g>
<!-- kernel -->
<g id="node22" class="node">
<title>kernel</title>
<polygon fill="none" stroke="black" points="608,-1108.39 550.75,-1108.39 550.75,-1072.39 608,-1072.39 608,-1108.39"/>
<text text-anchor="middle" x="579.38" y="-1086.09" font-family="sans-serif" font-size="14.00">kernel</text>
</g>
<!-- kernel&#45;&gt;hash -->
<g id="edge59" class="edge">
<title>kernel&#45;&gt;hash</title>
<path fill="none" stroke="black" d="M608.36,-1096.9C652.55,-1107.73 735.6,-1130.4 756,-1152.39 797.65,-1197.29 751.3,-1239.63 792,-1285.39 799.91,-1294.29 811.17,-1300.3 822.21,-1304.33"/>
<polygon fill="black" stroke="black" points="821.03,-1307.63 831.62,-1307.3 823.13,-1300.95 821.03,-1307.63"/>
</g>
<!-- kernel&#45;&gt;init -->
<g id="edge60" class="edge">
<title>kernel&#45;&gt;init</title>
<path fill="none" stroke="black" d="M591.9,-1072.17C607.64,-1047.38 636.87,-1001.73 662.75,-963.39 671.13,-950.98 680.61,-937.4 688.75,-925.88"/>
<polygon fill="black" stroke="black" points="691.41,-928.17 694.34,-917.99 685.7,-924.13 691.41,-928.17"/>
</g>
<!-- kernel&#45;&gt;object -->
<g id="edge61" class="edge">
<title>kernel&#45;&gt;object</title>
<path fill="none" stroke="black" d="M608.47,-1080.3C626.39,-1073.85 649.87,-1065.42 669.56,-1058.34"/>
<polygon fill="black" stroke="black" points="670.7,-1061.65 678.93,-1054.97 668.33,-1055.06 670.7,-1061.65"/>
</g>
<!-- kernel&#45;&gt;sexp -->
<g id="edge62" class="edge">
<title>kernel&#45;&gt;sexp</title>
<path fill="none" stroke="black" d="M608.48,-1096.21C646.67,-1102.35 714.89,-1106.84 756,-1071.39 804,-1029.99 748,-979.01 792,-933.39 836.05,-887.72 882.41,-935.73 928.75,-892.39 975.36,-848.8 991.94,-772.08 997.69,-730.03"/>
<polygon fill="black" stroke="black" points="1001.15,-730.51 998.91,-720.15 994.21,-729.65 1001.15,-730.51"/>
</g>
<!-- kernel&#45;&gt;store -->
<g id="edge63" class="edge">
<title>kernel&#45;&gt;store</title>
<path fill="none" stroke="black" d="M594.32,-1108.69C616.82,-1138.23 661.29,-1196.59 687.56,-1231.07"/>
<polygon fill="black" stroke="black" points="684.69,-1233.08 693.53,-1238.91 690.26,-1228.83 684.69,-1233.08"/>
</g>
<!-- kv -->
<g id="node23" class="node">
<title>kv</title>
<polygon fill="none" stroke="black" points="226.12,-258.39 172.12,-258.39 172.12,-222.39 226.12,-222.39 226.12,-258.39"/>
<text text-anchor="middle" x="199.12" y="-236.09" font-family="sans-serif" font-size="14.00">kv</text>
</g>
<!-- lean -->
<g id="node24" class="node">
<title>lean</title>
<polygon fill="none" stroke="black" points="87.5,-1519.39 33.5,-1519.39 33.5,-1483.39 87.5,-1483.39 87.5,-1519.39"/>
<text text-anchor="middle" x="60.5" y="-1497.09" font-family="sans-serif" font-size="14.00">lean</text>
</g>
<!-- llm -->
<g id="node25" class="node">
<title>llm</title>
<polygon fill="none" stroke="black" points="226.12,-875.39 172.12,-875.39 172.12,-839.39 226.12,-839.39 226.12,-875.39"/>
<text text-anchor="middle" x="199.12" y="-853.09" font-family="sans-serif" font-size="14.00">llm</text>
</g>
<!-- llm&#45;&gt;proto -->
<g id="edge64" class="edge">
<title>llm&#45;&gt;proto</title>
<path fill="none" stroke="black" d="M216.44,-875.85C231.51,-892.46 254.87,-917.14 277.25,-936.39 280.06,-938.81 283.05,-941.24 286.1,-943.61"/>
<polygon fill="black" stroke="black" points="283.98,-946.4 294.08,-949.6 288.18,-940.8 283.98,-946.4"/>
</g>
<!-- lsp&#45;&gt;sexp -->
<g id="edge65" class="edge">
<title>lsp&#45;&gt;sexp</title>
<path fill="none" stroke="black" d="M887.62,-521.93C901.28,-525.94 917.44,-532.61 928.75,-543.39 965.7,-578.6 985.29,-636.42 994.27,-671.2"/>
<polygon fill="black" stroke="black" points="990.79,-671.69 996.56,-680.58 997.59,-670.03 990.79,-671.69"/>
</g>
<!-- lsp&#45;&gt;wasm -->
<g id="edge66" class="edge">
<title>lsp&#45;&gt;wasm</title>
<path fill="none" stroke="black" d="M887.65,-509.2C901.49,-504.23 917.81,-496.32 928.75,-484.39 971.85,-437.37 989.78,-362.16 996.7,-320.89"/>
<polygon fill="black" stroke="black" points="1000.12,-321.63 998.2,-311.21 993.21,-320.55 1000.12,-321.63"/>
</g>
<!-- metamath&#45;&gt;parse -->
<g id="edge67" class="edge">
<title>metamath&#45;&gt;parse</title>
<path fill="none" stroke="black" d="M886.92,-682.14C932.39,-649.66 1027.39,-581.81 1078.71,-545.15"/>
<polygon fill="black" stroke="black" points="1080.42,-548.23 1086.53,-539.57 1076.35,-542.53 1080.42,-548.23"/>
</g>
<!-- metamath&#45;&gt;sexp -->
<g id="edge68" class="edge">
<title>metamath&#45;&gt;sexp</title>
<path fill="none" stroke="black" d="M900.91,-700.39C920.35,-700.39 943.67,-700.39 962.87,-700.39"/>
<polygon fill="black" stroke="black" points="962.7,-703.89 972.7,-700.39 962.7,-696.89 962.7,-703.89"/>
</g>
<!-- multiformat -->
<g id="node28" class="node">
<title>multiformat</title>
<polygon fill="none" stroke="black" points="754.5,-458.39 664.25,-458.39 664.25,-422.39 754.5,-422.39 754.5,-458.39"/>
<text text-anchor="middle" x="709.38" y="-436.09" font-family="sans-serif" font-size="14.00">multiformat</text>
</g>
<!-- multiformat&#45;&gt;acset -->
<g id="edge69" class="edge">
<title>multiformat&#45;&gt;acset</title>
<path fill="none" stroke="black" d="M754.68,-424.33C776.25,-416.52 801.88,-407.23 822.39,-399.8"/>
<polygon fill="black" stroke="black" points="823.56,-403.09 831.77,-396.4 821.17,-396.51 823.56,-403.09"/>
</g>
<!-- multiformat&#45;&gt;hash -->
<g id="edge70" class="edge">
<title>multiformat&#45;&gt;hash</title>
<path fill="none" stroke="black" d="M727.52,-458.69C737.81,-470.92 750.03,-487.91 756,-505.39 784.04,-587.49 741.74,-1214.67 792,-1285.39 799.14,-1295.43 810.65,-1301.74 822.15,-1305.7"/>
<polygon fill="black" stroke="black" points="821,-1309.02 831.58,-1308.41 822.94,-1302.29 821,-1309.02"/>
</g>
<!-- multiformat&#45;&gt;parse -->
<g id="edge71" class="edge">
<title>multiformat&#45;&gt;parse</title>
<path fill="none" stroke="black" d="M754.66,-449.18C834.62,-465.05 1001.71,-498.22 1076.18,-513.01"/>
<polygon fill="black" stroke="black" points="1075.33,-516.41 1085.82,-514.92 1076.7,-509.54 1075.33,-516.41"/>
</g>
<!-- object&#45;&gt;hash -->
<g id="edge72" class="edge">
<title>object&#45;&gt;hash</title>
<path fill="none" stroke="black" d="M724.99,-1062.64C735.13,-1076.18 748.18,-1095.49 756,-1114.39 785.71,-1186.15 742.05,-1225.92 792,-1285.39 799.72,-1294.58 811.02,-1300.67 822.17,-1304.69"/>
<polygon fill="black" stroke="black" points="821.1,-1308.03 831.69,-1307.62 823.16,-1301.34 821.1,-1308.03"/>
</g>
<!-- object&#45;&gt;parse -->
<g id="edge73" class="edge">
<title>object&#45;&gt;parse</title>
<path fill="none" stroke="black" d="M723.94,-1062.58C738.49,-1080.41 763.41,-1106.47 792,-1117.39 848.78,-1139.08 869.55,-1131.16 928.75,-1117.39 935.37,-1115.85 1034.52,-1068.9 1038.5,-1063.39 1098.59,-980.16 1110.58,-651.54 1112.86,-550.26"/>
<polygon fill="black" stroke="black" points="1116.36,-550.4 1113.07,-540.33 1109.36,-550.25 1116.36,-550.4"/>
</g>
<!-- opentheory&#45;&gt;hol -->
<g id="edge74" class="edge">
<title>opentheory&#45;&gt;hol</title>
<path fill="none" stroke="black" d="M368.64,-1758.81C427.99,-1756.27 535.7,-1750.1 626.75,-1736.39 696.39,-1725.9 776.25,-1706.38 821.96,-1694.47"/>
<polygon fill="black" stroke="black" points="822.84,-1697.85 831.63,-1691.93 821.06,-1691.08 822.84,-1697.85"/>
</g>
<!-- parquet -->
<g id="node31" class="node">
<title>parquet</title>
<polygon fill="none" stroke="black" points="483.62,-940.39 416.62,-940.39 416.62,-904.39 483.62,-904.39 483.62,-940.39"/>
<text text-anchor="middle" x="450.12" y="-918.09" font-family="sans-serif" font-size="14.00">parquet</text>
</g>
<!-- parquet&#45;&gt;arrow -->
<g id="edge75" class="edge">
<title>parquet&#45;&gt;arrow</title>
<path fill="none" stroke="black" d="M483.9,-912.6C501.46,-907.36 523.16,-900.88 541.33,-895.45"/>
<polygon fill="black" stroke="black" points="542.09,-898.88 550.67,-892.66 540.09,-892.17 542.09,-898.88"/>
</g>
<!-- proptest -->
<g id="node33" class="node">
<title>proptest</title>
<polygon fill="none" stroke="black" points="95.88,-1573.39 25.12,-1573.39 25.12,-1537.39 95.88,-1537.39 95.88,-1573.39"/>
<text text-anchor="middle" x="60.5" y="-1551.09" font-family="sans-serif" font-size="14.00">proptest</text>
</g>
<!-- pure&#45;trusted -->
<g id="node37" class="node">
<title>pure&#45;trusted</title>
<polygon fill="#ffd6d6" stroke="black" points="1379.5,-970.39 1280.25,-970.39 1280.25,-934.39 1379.5,-934.39 1379.5,-970.39"/>
<text text-anchor="middle" x="1329.88" y="-948.09" font-family="sans-serif" font-size="14.00">pure&#45;trusted</text>
</g>
<!-- pure&#45;&gt;pure&#45;trusted -->
<g id="edge76" class="edge">
<title>pure&#45;&gt;pure&#45;trusted</title>
<path fill="none" stroke="black" d="M1244.75,-952.39C1252.04,-952.39 1260.27,-952.39 1268.64,-952.39"/>
<polygon fill="black" stroke="black" points="1268.57,-955.89 1278.57,-952.39 1268.57,-948.89 1268.57,-955.89"/>
</g>
<!-- pure&#45;eval&#45;&gt;pure -->
<g id="edge77" class="edge">
<title>pure&#45;eval&#45;&gt;pure</title>
<path fill="none" stroke="black" d="M1154.66,-980.47C1162.9,-976.72 1171.54,-972.78 1179.67,-969.07"/>
<polygon fill="black" stroke="black" points="1180.96,-972.33 1188.6,-965 1178.05,-965.96 1180.96,-972.33"/>
</g>
<!-- pure&#45;eval&#45;&gt;types -->
<g id="edge78" class="edge">
<title>pure&#45;eval&#45;&gt;types</title>
<path fill="none" stroke="black" d="M1154.57,-1004.59C1208.44,-1011.18 1306.92,-1016.19 1379.5,-979.39 1399.03,-969.49 1414.87,-950.46 1425.65,-934.31"/>
<polygon fill="black" stroke="black" points="1428.51,-936.34 1430.89,-926.02 1422.59,-932.61 1428.51,-936.34"/>
</g>
<!-- pure&#45;trusted&#45;&gt;types -->
<g id="edge79" class="edge">
<title>pure&#45;trusted&#45;&gt;types</title>
<path fill="none" stroke="black" d="M1375.23,-933.95C1385,-929.89 1395.24,-925.63 1404.67,-921.71"/>
<polygon fill="black" stroke="black" points="1406,-924.94 1413.89,-917.87 1403.31,-918.48 1406,-924.94"/>
</g>
<!-- python -->
<g id="node38" class="node">
<title>python</title>
<polygon fill="none" stroke="black" points="91.38,-650.39 29.62,-650.39 29.62,-614.39 91.38,-614.39 91.38,-650.39"/>
<text text-anchor="middle" x="60.5" y="-628.09" font-family="sans-serif" font-size="14.00">python</text>
</g>
<!-- python&#45;&gt;crypto&#45;sig -->
<g id="edge80" class="edge">
<title>python&#45;&gt;crypto&#45;sig</title>
<path fill="none" stroke="black" d="M63.36,-613.9C71.57,-534.73 106.46,-224.63 157,-142.39 158.17,-140.48 159.5,-138.64 160.95,-136.88"/>
<polygon fill="black" stroke="black" points="163.4,-139.38 167.9,-129.78 158.4,-134.48 163.4,-139.38"/>
</g>
<!-- python&#45;&gt;git -->
<g id="edge81" class="edge">
<title>python&#45;&gt;git</title>
<path fill="none" stroke="black" d="M63.45,-650.74C71.73,-725.86 105.87,-1009.44 157,-1081.39 221.65,-1172.36 349.12,-1225.24 412.11,-1246.86"/>
<polygon fill="black" stroke="black" points="410.7,-1250.08 421.3,-1249.94 412.93,-1243.45 410.7,-1250.08"/>
</g>
<!-- python&#45;&gt;graph -->
<g id="edge82" class="edge">
<title>python&#45;&gt;graph</title>
<path fill="none" stroke="black" d="M91.84,-637.14C127.67,-642.89 189.02,-653.22 241.25,-664.39 301.27,-677.22 370.27,-695.11 411.74,-706.21"/>
<polygon fill="black" stroke="black" points="410.65,-709.54 421.22,-708.76 412.47,-702.78 410.65,-709.54"/>
</g>
<!-- python&#45;&gt;hash -->
<g id="edge83" class="edge">
<title>python&#45;&gt;hash</title>
<path fill="none" stroke="black" d="M63.7,-650.58C72.46,-721.27 106.73,-984.28 157,-1196.39 178.01,-1285.05 203.98,-1534.23 277.25,-1588.39 363.96,-1652.49 678.37,-1584.22 756,-1509.39 786.13,-1480.35 773.01,-1459.68 792,-1422.39 806.74,-1393.45 826.4,-1361.99 840.68,-1340.16"/>
<polygon fill="black" stroke="black" points="843.59,-1342.1 846.18,-1331.83 837.75,-1338.24 843.59,-1342.1"/>
</g>
<!-- python&#45;&gt;kv -->
<g id="edge84" class="edge">
<title>python&#45;&gt;kv</title>
<path fill="none" stroke="black" d="M62.29,-614.27C65.51,-558.58 81.37,-386.72 157,-272.39 158.82,-269.63 160.97,-267.01 163.3,-264.54"/>
<polygon fill="black" stroke="black" points="165.66,-267.12 170.66,-257.78 160.93,-261.96 165.66,-267.12"/>
</g>
<!-- python&#45;&gt;llm -->
<g id="edge85" class="edge">
<title>python&#45;&gt;llm</title>
<path fill="none" stroke="black" d="M72.68,-650.8C96.56,-690.13 152.66,-782.52 181.04,-829.26"/>
<polygon fill="black" stroke="black" points="178.01,-831.01 186.2,-837.75 184,-827.38 178.01,-831.01"/>
</g>
<!-- python&#45;&gt;object -->
<g id="edge86" class="edge">
<title>python&#45;&gt;object</title>
<path fill="none" stroke="black" d="M91.82,-628.55C166.56,-620.63 363.21,-609.41 496,-689.39 577.05,-738.21 586.34,-771.84 626.75,-857.39 657.88,-923.3 619.87,-958.45 662.75,-1017.39 665.1,-1020.61 667.95,-1023.52 671.08,-1026.12"/>
<polygon fill="black" stroke="black" points="668.99,-1028.93 679.18,-1031.8 673,-1023.2 668.99,-1028.93"/>
</g>
<!-- python&#45;&gt;repl -->
<g id="edge87" class="edge">
<title>python&#45;&gt;repl</title>
<path fill="none" stroke="black" d="M91.68,-641.08C130.46,-653.55 197.94,-679.83 241.25,-722.39 277.59,-758.11 301.02,-813.73 312.76,-847.45"/>
<polygon fill="black" stroke="black" points="309.31,-848.18 315.81,-856.55 315.95,-845.95 309.31,-848.18"/>
</g>
<!-- sat -->
<g id="node41" class="node">
<title>sat</title>
<polygon fill="none" stroke="black" points="887.38,-144.39 833.38,-144.39 833.38,-108.39 887.38,-108.39 887.38,-144.39"/>
<text text-anchor="middle" x="860.38" y="-122.09" font-family="sans-serif" font-size="14.00">sat</text>
</g>
<!-- python&#45;&gt;sat -->
<g id="edge88" class="edge">
<title>python&#45;&gt;sat</title>
<path fill="none" stroke="black" d="M62.65,-614.07C67.88,-537.15 92.01,-241.38 157,-180.39 210.96,-129.76 247.75,-156.39 321.75,-156.39 321.75,-156.39 321.75,-156.39 580.38,-156.39 667.11,-156.39 768.14,-141.88 821.64,-133.04"/>
<polygon fill="black" stroke="black" points="822.16,-136.5 831.44,-131.39 821,-129.6 822.16,-136.5"/>
</g>
<!-- python&#45;&gt;serve -->
<g id="edge89" class="edge">
<title>python&#45;&gt;serve</title>
<path fill="none" stroke="black" d="M67.46,-650.79C88.95,-717.17 162.58,-944.61 188.78,-1025.52"/>
<polygon fill="black" stroke="black" points="185.41,-1026.49 191.82,-1034.92 192.07,-1024.33 185.41,-1026.49"/>
</g>
<!-- python&#45;&gt;sexp -->
<g id="edge90" class="edge">
<title>python&#45;&gt;sexp</title>
<path fill="none" stroke="black" d="M71.18,-614.22C100.9,-561.2 196.44,-410.39 321.75,-410.39 321.75,-410.39 321.75,-410.39 451.12,-410.39 544.18,-410.39 554.01,-466.35 626.75,-524.39 644.19,-538.31 643.79,-547.62 662.75,-559.39 700.1,-582.58 719.6,-567.74 756,-592.39 776.08,-605.99 771.55,-620.36 792,-633.39 845.4,-667.42 868.68,-653.35 928.75,-673.39 940.13,-677.19 952.39,-681.65 963.51,-685.84"/>
<polygon fill="black" stroke="black" points="962.17,-689.08 972.76,-689.37 964.66,-682.54 962.17,-689.08"/>
</g>
<!-- python&#45;&gt;shell -->
<g id="edge91" class="edge">
<title>python&#45;&gt;shell</title>
<path fill="none" stroke="black" d="M60.99,-650.64C59.87,-719.03 62.93,-964.9 157,-1134.39 215.16,-1239.18 347.91,-1307.41 412.49,-1335.62"/>
<polygon fill="black" stroke="black" points="411.02,-1338.8 421.6,-1339.52 413.78,-1332.36 411.02,-1338.8"/>
</g>
<!-- python&#45;&gt;store -->
<g id="edge92" class="edge">
<title>python&#45;&gt;store</title>
<path fill="none" stroke="black" d="M81.56,-650.81C117.04,-684.11 191.74,-757.66 241.25,-830.39 261.61,-860.3 250.88,-878.62 277.25,-903.39 309.2,-933.4 340.4,-907.55 368.25,-941.39 418.98,-1003.04 351.99,-1057.03 404.25,-1117.39 432.62,-1150.15 455.99,-1133.75 496,-1150.39 555.39,-1175.08 569.64,-1182.81 626.75,-1212.39 641.86,-1220.22 658.25,-1229.33 672.35,-1237.37"/>
<polygon fill="black" stroke="black" points="670.44,-1240.3 680.85,-1242.25 673.92,-1234.23 670.44,-1240.3"/>
</g>
<!-- python&#45;&gt;wasm -->
<g id="edge93" class="edge">
<title>python&#45;&gt;wasm</title>
<path fill="none" stroke="black" d="M62.92,-614.12C69.04,-540.7 95.61,-268.42 157,-213.39 211.89,-164.2 248.04,-194.39 321.75,-194.39 321.75,-194.39 321.75,-194.39 580.38,-194.39 735.26,-194.39 789.68,-135.2 928.75,-203.39 942.39,-210.08 965.63,-240.56 981.98,-263.8"/>
<polygon fill="black" stroke="black" points="979.08,-265.76 987.66,-271.98 984.83,-261.76 979.08,-265.76"/>
</g>
<!-- wasm&#45;store -->
<g id="node53" class="node">
<title>wasm&#45;store</title>
<polygon fill="none" stroke="black" points="626.75,-696.39 532,-696.39 532,-660.39 626.75,-660.39 626.75,-696.39"/>
<text text-anchor="middle" x="579.38" y="-674.09" font-family="sans-serif" font-size="14.00">wasm&#45;store</text>
</g>
<!-- python&#45;&gt;wasm&#45;store -->
<g id="edge94" class="edge">
<title>python&#45;&gt;wasm&#45;store</title>
<path fill="none" stroke="black" d="M74.12,-613.97C90.34,-592.09 120.79,-556.76 157,-542.39 297.04,-486.8 373.89,-454.13 496,-542.39 537.35,-572.28 499.87,-611.76 532,-651.39 532.24,-651.69 532.49,-651.98 532.74,-652.28"/>
<polygon fill="black" stroke="black" points="530.19,-654.68 539.85,-659.02 535,-649.6 530.19,-654.68"/>
</g>
<!-- repl&#45;&gt;arrow -->
<g id="edge95" class="edge">
<title>repl&#45;&gt;arrow</title>
<path fill="none" stroke="black" d="M350.04,-877.22C395.42,-878.64 488.61,-881.57 540.82,-883.21"/>
<polygon fill="black" stroke="black" points="540.61,-886.71 550.71,-883.52 540.83,-879.71 540.61,-886.71"/>
</g>
<!-- repl&#45;&gt;forsp -->
<g id="edge96" class="edge">
<title>repl&#45;&gt;forsp</title>
<path fill="none" stroke="black" d="M350.23,-864.64C406.85,-841.5 541.46,-797.25 626.75,-857.39 665.7,-884.85 633.88,-920.48 662.75,-958.39 665.65,-962.2 669.14,-965.73 672.87,-968.95"/>
<polygon fill="black" stroke="black" points="670.62,-971.64 680.68,-974.96 674.89,-966.09 670.62,-971.64"/>
</g>
<!-- repl&#45;&gt;git -->
<g id="edge97" class="edge">
<title>repl&#45;&gt;git</title>
<path fill="none" stroke="black" d="M339.67,-894.7C349.52,-907.06 361.53,-924.19 368.25,-941.39 408.63,-1044.72 365.44,-1084.46 404.25,-1188.39 409.83,-1203.33 418.95,-1218.41 427.52,-1230.73"/>
<polygon fill="black" stroke="black" points="424.61,-1232.68 433.3,-1238.73 430.28,-1228.58 424.61,-1232.68"/>
</g>
<!-- repl&#45;&gt;graph -->
<g id="edge98" class="edge">
<title>repl&#45;&gt;graph</title>
<path fill="none" stroke="black" d="M332.46,-857.89C345.49,-831.53 372,-782.57 404.25,-748.39 407.27,-745.19 410.65,-742.11 414.16,-739.21"/>
<polygon fill="black" stroke="black" points="416.04,-742.18 421.84,-733.32 411.78,-736.63 416.04,-742.18"/>
</g>
<!-- repl&#45;&gt;hash -->
<g id="edge99" class="edge">
<title>repl&#45;&gt;hash</title>
<path fill="none" stroke="black" d="M339.35,-894.84C349.06,-907.25 361.04,-924.39 368.25,-941.39 399.42,-1014.9 370.26,-1045.14 404.25,-1117.39 431.94,-1176.24 466.32,-1173.52 496,-1231.39 523.36,-1284.74 484.28,-1325.09 532,-1361.39 619.27,-1427.78 758.3,-1367.99 823.46,-1333.23"/>
<polygon fill="black" stroke="black" points="824.83,-1336.47 831.94,-1328.61 821.48,-1330.32 824.83,-1336.47"/>
</g>
<!-- repl&#45;&gt;init -->
<g id="edge100" class="edge">
<title>repl&#45;&gt;init</title>
<path fill="none" stroke="black" d="M344.59,-858.09C359.93,-845.91 381.91,-830.98 404.25,-824.39 499.1,-796.42 536.91,-783.07 626.75,-824.39 649.09,-834.66 644.54,-849.87 662.75,-866.39 665.87,-869.22 669.25,-872.02 672.71,-874.71"/>
<polygon fill="black" stroke="black" points="670.6,-877.5 680.72,-880.63 674.76,-871.87 670.6,-877.5"/>
</g>
<!-- repl&#45;&gt;object -->
<g id="edge101" class="edge">
<title>repl&#45;&gt;object</title>
<path fill="none" stroke="black" d="M349.93,-893.72C356.15,-898.23 362.61,-903.28 368.25,-908.39 386.21,-924.68 382.27,-939.14 404.25,-949.39 493.9,-991.2 541.76,-903.78 626.75,-954.39 654.46,-970.89 640.12,-994.41 662.75,-1017.39 665.33,-1020.01 668.22,-1022.48 671.26,-1024.76"/>
<polygon fill="black" stroke="black" points="669.15,-1027.56 679.4,-1030.25 673.06,-1021.76 669.15,-1027.56"/>
</g>
<!-- repl&#45;&gt;parquet -->
<g id="edge102" class="edge">
<title>repl&#45;&gt;parquet</title>
<path fill="none" stroke="black" d="M350.03,-886.03C366.12,-891.94 387.1,-899.63 405.61,-906.43"/>
<polygon fill="black" stroke="black" points="404.16,-909.62 414.75,-909.78 406.57,-903.05 404.16,-909.62"/>
</g>
<!-- repl&#45;&gt;shell -->
<g id="edge103" class="edge">
<title>repl&#45;&gt;shell</title>
<path fill="none" stroke="black" d="M340.13,-894.89C350.03,-907.19 361.93,-924.19 368.25,-941.39 421.29,-1085.67 350.92,-1141.21 404.25,-1285.39 409.18,-1298.72 417.47,-1311.91 425.6,-1322.89"/>
<polygon fill="black" stroke="black" points="422.78,-1324.97 431.68,-1330.72 428.31,-1320.68 422.78,-1324.97"/>
</g>
<!-- repl&#45;&gt;wasm -->
<g id="edge104" class="edge">
<title>repl&#45;&gt;wasm</title>
<path fill="none" stroke="black" d="M339.53,-858.18C354.97,-841.02 379.68,-815.19 404.25,-796.39 441.65,-767.78 468.92,-781.92 496,-743.39 547.93,-669.49 490.04,-623.37 532,-543.39 570.07,-470.83 594.62,-458.92 662.75,-413.39 767.37,-343.47 809.29,-355.94 928.75,-316.39 940.04,-312.65 952.27,-308.45 963.39,-304.58"/>
<polygon fill="black" stroke="black" points="964.36,-307.95 972.64,-301.34 962.04,-301.34 964.36,-307.95"/>
</g>
<!-- sat&#45;&gt;parse -->
<g id="edge105" class="edge">
<title>sat&#45;&gt;parse</title>
<path fill="none" stroke="black" d="M887.73,-136.54C900.63,-142.09 916.08,-149.62 928.75,-158.39 984.5,-197 1003.42,-206.35 1038.5,-264.39 1083.31,-338.53 1102.61,-441.02 1109.76,-490.83"/>
<polygon fill="black" stroke="black" points="1106.26,-491.1 1111.08,-500.54 1113.2,-490.16 1106.26,-491.1"/>
</g>
<!-- sat&#45;&gt;types -->
<g id="edge106" class="edge">
<title>sat&#45;&gt;types</title>
<path fill="none" stroke="black" d="M887.79,-130.4C933.59,-136.99 1030.78,-149.39 1113.38,-149.39 1113.38,-149.39 1113.38,-149.39 1218.25,-149.39 1372.7,-149.39 1428.26,-736.47 1439.32,-876.61"/>
<polygon fill="black" stroke="black" points="1435.83,-876.84 1440.08,-886.54 1442.81,-876.3 1435.83,-876.84"/>
</g>
<!-- sat&#45;&gt;wasm -->
<g id="edge107" class="edge">
<title>sat&#45;&gt;wasm</title>
<path fill="none" stroke="black" d="M887.68,-134.45C901.19,-139.61 917.2,-147.42 928.75,-158.39 945.11,-173.92 971.91,-228.56 987.75,-262.79"/>
<polygon fill="black" stroke="black" points="984.5,-264.1 991.85,-271.73 990.86,-261.18 984.5,-264.1"/>
</g>
<!-- serve&#45;&gt;core -->
<g id="edge108" class="edge">
<title>serve&#45;&gt;core</title>
<path fill="none" stroke="black" d="M212.41,-1072.56C226.24,-1091.85 250.32,-1122.14 277.25,-1141.39 312.91,-1166.88 338.33,-1147.36 368.25,-1179.39 402.21,-1215.75 370.24,-1249.08 404.25,-1285.39 434.42,-1317.6 466.98,-1290.14 496,-1323.39 537.4,-1370.82 486.15,-1417.24 532,-1460.39 575.15,-1501 603.79,-1480.58 662.75,-1486.39 780.49,-1497.98 839.9,-1554.5 928.75,-1476.39 993.63,-1419.35 947.13,-1369.96 964.75,-1285.39 974.06,-1240.73 986.07,-1189.23 993.56,-1157.74"/>
<polygon fill="black" stroke="black" points="996.93,-1158.72 995.85,-1148.18 990.12,-1157.1 996.93,-1158.72"/>
</g>
<!-- serve&#45;&gt;git -->
<g id="edge109" class="edge">
<title>serve&#45;&gt;git</title>
<path fill="none" stroke="black" d="M226.57,-1071.93C241.31,-1081.52 260.1,-1093.44 277.25,-1103.39 316.8,-1126.34 336.53,-1118.45 368.25,-1151.39 393.9,-1178.03 380.45,-1198.1 404.25,-1226.39 407.15,-1229.83 410.49,-1233.09 414.03,-1236.12"/>
<polygon fill="black" stroke="black" points="411.81,-1238.83 421.85,-1242.2 416.11,-1233.3 411.81,-1238.83"/>
</g>
<!-- serve&#45;&gt;hash -->
<g id="edge110" class="edge">
<title>serve&#45;&gt;hash</title>
<path fill="none" stroke="black" d="M205.02,-1072.88C214.94,-1108.32 239.72,-1187.47 277.25,-1245.39 321.52,-1313.71 336.24,-1332.64 404.25,-1377.39 535.95,-1464.07 611.92,-1487.42 756,-1423.39 794.41,-1406.32 825.11,-1367.39 842.78,-1340.49"/>
<polygon fill="black" stroke="black" points="845.69,-1342.44 848.09,-1332.12 839.78,-1338.69 845.69,-1342.44"/>
</g>
<!-- serve&#45;&gt;init -->
<g id="edge111" class="edge">
<title>serve&#45;&gt;init</title>
<path fill="none" stroke="black" d="M203.02,-1036.33C214.36,-972.53 262.38,-757.91 404.25,-689.39 440.97,-671.66 457.53,-675.86 496,-689.39 531.15,-701.76 600.84,-767.61 626.75,-794.39 645.29,-813.56 646.32,-821.38 662.75,-842.39 670.22,-851.95 678.56,-862.28 686.05,-871.44"/>
<polygon fill="black" stroke="black" points="683.18,-873.45 692.23,-878.96 688.59,-869.01 683.18,-873.45"/>
</g>
<!-- serve&#45;&gt;metamath -->
<g id="edge112" class="edge">
<title>serve&#45;&gt;metamath</title>
<path fill="none" stroke="black" d="M204.79,-1036.08C212.66,-1004.98 228.91,-939.82 241.25,-884.39 258.69,-806.03 227.2,-770.15 277.25,-707.39 343.79,-623.96 417.55,-680.74 496,-608.39 520.28,-586 503.55,-560.16 532,-543.39 568.28,-522.01 589.18,-524.37 626.75,-543.39 650.86,-555.59 641.44,-575.78 662.75,-592.39 698.05,-619.9 719.06,-605.13 756,-630.39 775.21,-643.52 773.17,-654.72 792,-668.39 797.57,-672.43 803.73,-676.18 810,-679.57"/>
<polygon fill="black" stroke="black" points="808.02,-682.49 818.52,-683.92 811.21,-676.26 808.02,-682.49"/>
</g>
<!-- serve&#45;&gt;object -->
<g id="edge113" class="edge">
<title>serve&#45;&gt;object</title>
<path fill="none" stroke="black" d="M226.24,-1042.74C293.93,-1014.21 479.97,-946.42 626.75,-992.39 645.34,-998.21 646.36,-1006.87 662.75,-1017.39 665.44,-1019.12 668.23,-1020.87 671.06,-1022.61"/>
<polygon fill="black" stroke="black" points="669.01,-1025.46 679.38,-1027.65 672.64,-1019.47 669.01,-1025.46"/>
</g>
<!-- serve&#45;&gt;proto -->
<g id="edge114" class="edge">
<title>serve&#45;&gt;proto</title>
<path fill="none" stroke="black" d="M226.22,-1035.94C243.77,-1023.53 267.13,-1007.01 286.36,-993.42"/>
<polygon fill="black" stroke="black" points="288.32,-996.31 294.47,-987.68 284.28,-990.6 288.32,-996.31"/>
</g>
<!-- serve&#45;&gt;repl -->
<g id="edge115" class="edge">
<title>serve&#45;&gt;repl</title>
<path fill="none" stroke="black" d="M212.67,-1035.99C227.93,-1013.62 254.46,-974.72 277.25,-941.39 285.63,-929.13 294.91,-915.57 302.81,-904.03"/>
<polygon fill="black" stroke="black" points="305.47,-906.35 308.23,-896.13 299.69,-902.4 305.47,-906.35"/>
</g>
<!-- serve&#45;&gt;shell -->
<g id="edge116" class="edge">
<title>serve&#45;&gt;shell</title>
<path fill="none" stroke="black" d="M210.09,-1072.89C223.9,-1097.92 250.21,-1143.57 277.25,-1179.39 327.66,-1246.18 341.61,-1262.9 404.25,-1318.39 407.2,-1321.01 410.37,-1323.61 413.61,-1326.14"/>
<polygon fill="black" stroke="black" points="411.47,-1328.91 421.57,-1332.1 415.66,-1323.31 411.47,-1328.91"/>
</g>
<!-- serve&#45;&gt;store -->
<g id="edge117" class="edge">
<title>serve&#45;&gt;store</title>
<path fill="none" stroke="black" d="M226.48,-1056.94C261.55,-1061.4 324.22,-1073.25 368.25,-1103.39 389.96,-1118.26 382.98,-1134.91 404.25,-1150.39 488.3,-1211.57 610.27,-1240.8 671.04,-1252.25"/>
<polygon fill="black" stroke="black" points="670.05,-1255.63 680.52,-1253.98 671.31,-1248.74 670.05,-1255.63"/>
</g>
<!-- sexp&#45;&gt;parse -->
<g id="edge118" class="edge">
<title>sexp&#45;&gt;parse</title>
<path fill="none" stroke="black" d="M1013.85,-682.14C1033.26,-650.61 1073.18,-585.72 1096.13,-548.43"/>
<polygon fill="black" stroke="black" points="1099.06,-550.33 1101.32,-539.98 1093.1,-546.66 1099.06,-550.33"/>
</g>
<!-- shell&#45;&gt;hol -->
<g id="edge119" class="edge">
<title>shell&#45;&gt;hol</title>
<path fill="none" stroke="black" d="M454.55,-1368.69C462.35,-1406.02 484.55,-1492.04 532,-1546.39 609.66,-1635.33 754.23,-1668.42 822.22,-1679.45"/>
<polygon fill="black" stroke="black" points="821.31,-1682.86 831.73,-1680.92 822.38,-1675.94 821.31,-1682.86"/>
</g>
<!-- shell&#45;&gt;kernel -->
<g id="edge120" class="edge">
<title>shell&#45;&gt;kernel</title>
<path fill="none" stroke="black" d="M465.34,-1331.99C474.74,-1319.32 486.96,-1301.86 496,-1285.39 527.06,-1228.8 554.28,-1158.06 568.31,-1119.23"/>
<polygon fill="black" stroke="black" points="571.49,-1120.73 571.56,-1110.13 564.9,-1118.37 571.49,-1120.73"/>
</g>
<!-- smt&#45;&gt;sat -->
<g id="edge121" class="edge">
<title>smt&#45;&gt;sat</title>
<path fill="none" stroke="black" d="M722.32,-292.02C737.58,-268.98 765.23,-228.58 792,-196.39 804.56,-181.29 819.64,-165.43 832.35,-152.64"/>
<polygon fill="black" stroke="black" points="834.62,-155.32 839.23,-145.78 829.68,-150.36 834.62,-155.32"/>
</g>
<!-- smt&#45;&gt;sexp -->
<g id="edge122" class="edge">
<title>smt&#45;&gt;sexp</title>
<path fill="none" stroke="black" d="M720.08,-328.88C730.35,-349.13 746.37,-382.8 756,-413.39 781.03,-492.87 736.45,-535.28 792,-597.39 834.47,-644.88 872.84,-609.84 928.75,-640.39 945.32,-649.45 961.66,-662.64 974.56,-674.35"/>
<polygon fill="black" stroke="black" points="972.1,-676.85 981.79,-681.12 976.88,-671.73 972.1,-676.85"/>
</g>
<!-- smt&#45;&gt;types -->
<g id="edge123" class="edge">
<title>smt&#45;&gt;types</title>
<path fill="none" stroke="black" d="M712.01,-292.07C716.67,-251.2 733.68,-152.02 792,-99.39 863.36,-34.99 904.5,-42.39 1000.62,-42.39 1000.62,-42.39 1000.62,-42.39 1218.25,-42.39 1314.04,-42.39 1336.5,-99.8 1379.5,-185.39 1441.8,-309.4 1442.75,-756.36 1441.84,-876.49"/>
<polygon fill="black" stroke="black" points="1438.34,-876.44 1441.75,-886.47 1445.34,-876.5 1438.34,-876.44"/>
</g>
<!-- spectec&#45;&gt;grammar -->
<g id="edge124" class="edge">
<title>spectec&#45;&gt;grammar</title>
<path fill="none" stroke="black" d="M895.44,-1077.18C913.02,-1070.36 934.74,-1061.94 953.87,-1054.52"/>
<polygon fill="black" stroke="black" points="955.01,-1057.83 963.07,-1050.95 952.48,-1051.31 955.01,-1057.83"/>
</g>
<!-- store&#45;&gt;hash -->
<g id="edge125" class="edge">
<title>store&#45;&gt;hash</title>
<path fill="none" stroke="black" d="M736.67,-1267.92C760.43,-1276.53 795.65,-1289.29 822.27,-1298.94"/>
<polygon fill="black" stroke="black" points="821.08,-1302.23 831.67,-1302.35 823.46,-1295.65 821.08,-1302.23"/>
</g>
<!-- store&#45;&gt;json -->
<g id="edge126" class="edge">
<title>store&#45;&gt;json</title>
<path fill="none" stroke="black" d="M736.67,-1258.39C760.32,-1258.39 795.33,-1258.39 821.91,-1258.39"/>
<polygon fill="black" stroke="black" points="821.58,-1261.89 831.58,-1258.39 821.58,-1254.89 821.58,-1261.89"/>
</g>
<!-- store&#45;&gt;sqlite -->
<g id="edge127" class="edge">
<title>store&#45;&gt;sqlite</title>
<path fill="none" stroke="black" d="M724.66,-1276.7C751.03,-1310.5 807.45,-1382.83 838.25,-1422.31"/>
<polygon fill="black" stroke="black" points="835.29,-1424.21 844.2,-1429.94 840.81,-1419.9 835.29,-1424.21"/>
</g>
<!-- wasm&#45;build&#45;guest -->
<g id="node51" class="node">
<title>wasm&#45;build&#45;guest</title>
<polygon fill="none" stroke="black" points="928.75,-274.39 792,-274.39 792,-238.39 928.75,-238.39 928.75,-274.39"/>
<text text-anchor="middle" x="860.38" y="-252.09" font-family="sans-serif" font-size="14.00">wasm&#45;build&#45;guest</text>
</g>
<!-- wasm&#45;build&#45;guest&#45;&gt;wasm -->
<g id="edge128" class="edge">
<title>wasm&#45;build&#45;guest&#45;&gt;wasm</title>
<path fill="none" stroke="black" d="M928.96,-273.38C940.77,-276.35 952.65,-279.33 963.25,-282"/>
<polygon fill="black" stroke="black" points="962.17,-285.33 972.72,-284.38 963.88,-278.55 962.17,-285.33"/>
</g>
<!-- wasm&#45;spec -->
<g id="node52" class="node">
<title>wasm&#45;spec</title>
<polygon fill="none" stroke="black" points="756,-550.39 662.75,-550.39 662.75,-514.39 756,-514.39 756,-550.39"/>
<text text-anchor="middle" x="709.38" y="-528.09" font-family="sans-serif" font-size="14.00">wasm&#45;spec</text>
</g>
<!-- wasm&#45;spec&#45;&gt;hash -->
<g id="edge129" class="edge">
<title>wasm&#45;spec&#45;&gt;hash</title>
<path fill="none" stroke="black" d="M713.15,-550.73C720.78,-601.56 742.41,-748.62 756,-871.39 766.16,-963.18 736.98,-1211.22 792,-1285.39 799.28,-1295.21 810.72,-1301.46 822.12,-1305.44"/>
<polygon fill="black" stroke="black" points="820.86,-1308.72 831.44,-1308.18 822.83,-1302.01 820.86,-1308.72"/>
</g>
<!-- wasm&#45;spec&#45;&gt;wasm -->
<g id="edge130" class="edge">
<title>wasm&#45;spec&#45;&gt;wasm</title>
<path fill="none" stroke="black" d="M745.44,-513.91C805.27,-482.29 921.4,-420.5 928.75,-413.39 956.55,-386.5 977.33,-346.59 989.21,-319.81"/>
<polygon fill="black" stroke="black" points="992.29,-321.52 993.02,-310.95 985.86,-318.76 992.29,-321.52"/>
</g>
<!-- wasm&#45;store&#45;&gt;json -->
<g id="edge131" class="edge">
<title>wasm&#45;store&#45;&gt;json</title>
<path fill="none" stroke="black" d="M614.3,-696.85C619.1,-700.76 623.5,-705.27 626.75,-710.39 678.73,-792.15 602.22,-849.74 662.75,-925.39 690.71,-960.33 728.17,-928.35 756,-963.39 818.99,-1042.69 746.82,-1097.76 792,-1188.39 800.33,-1205.11 814.07,-1220.46 826.97,-1232.5"/>
<polygon fill="black" stroke="black" points="824.34,-1234.85 834.13,-1238.91 829.01,-1229.63 824.34,-1234.85"/>
</g>
<!-- wasm&#45;store&#45;&gt;store -->
<g id="edge132" class="edge">
<title>wasm&#45;store&#45;&gt;store</title>
<path fill="none" stroke="black" d="M585.72,-696.82C594.95,-729.13 614.13,-798.21 626.75,-857.39 646.86,-951.72 643.31,-976.92 662.75,-1071.39 674.3,-1127.51 690.84,-1192.33 700.51,-1229.03"/>
<polygon fill="black" stroke="black" points="697.06,-1229.68 703.01,-1238.45 703.83,-1227.89 697.06,-1229.68"/>
</g>
<!-- wasm&#45;store&#45;&gt;wasm -->
<g id="edge133" class="edge">
<title>wasm&#45;store&#45;&gt;wasm</title>
<path fill="none" stroke="black" d="M618.8,-660.12C621.83,-657.53 624.55,-654.63 626.75,-651.39 686.88,-562.9 609.73,-506.31 662.75,-413.39 689.25,-366.95 725.62,-381.39 756,-337.39 784.75,-295.76 750.95,-258.97 792,-229.39 841.31,-193.85 871.78,-208.21 928.75,-229.39 947.88,-236.5 965.33,-251.25 978.24,-264.57"/>
<polygon fill="black" stroke="black" points="975.66,-266.94 985.01,-271.92 980.81,-262.2 975.66,-266.94"/>
</g>
<!-- web&#45;kernel -->
<g id="node54" class="node">
<title>web&#45;kernel</title>
<polygon fill="none" stroke="black" points="496,-1108.39 404.25,-1108.39 404.25,-1072.39 496,-1072.39 496,-1108.39"/>
<text text-anchor="middle" x="450.12" y="-1086.09" font-family="sans-serif" font-size="14.00">web&#45;kernel</text>
</g>
<!-- web&#45;kernel&#45;&gt;kernel -->
<g id="edge134" class="edge">
<title>web&#45;kernel&#45;&gt;kernel</title>
<path fill="none" stroke="black" d="M496.35,-1090.39C510.27,-1090.39 525.48,-1090.39 538.98,-1090.39"/>
<polygon fill="black" stroke="black" points="538.81,-1093.89 548.81,-1090.39 538.81,-1086.89 538.81,-1093.89"/>
</g>
</g>
</svg>
