<?xml version="1.0" encoding="UTF-8" standalone="no"?>
<!DOCTYPE svg PUBLIC "-//W3C//DTD SVG 1.1//EN"
 "http://www.w3.org/Graphics/SVG/1.1/DTD/svg11.dtd">
<!-- Generated by graphviz version 12.2.1 (0)
 -->
<!-- Title: deps Pages: 1 -->
<svg width="1454pt" height="2068pt"
 viewBox="0.00 0.00 1453.50 2068.13" xmlns="http://www.w3.org/2000/svg" xmlns:xlink="http://www.w3.org/1999/xlink">
<g id="graph0" class="graph" transform="scale(1 1) rotate(0) translate(4 2064.13)">
<title>deps</title>
<polygon fill="white" stroke="none" points="-4,4 -4,-2064.13 1449.5,-2064.13 1449.5,4 -4,4"/>
<!-- covalence -->
<g id="node1" class="node">
<title>covalence</title>
<polygon fill="none" stroke="black" points="102.62,-847.13 18.38,-847.13 18.38,-811.13 102.62,-811.13 102.62,-847.13"/>
<text text-anchor="middle" x="60.5" y="-824.83" font-family="sans-serif" font-size="14.00">covalence</text>
</g>
<!-- client -->
<g id="node5" class="node">
<title>client</title>
<polygon fill="none" stroke="black" points="350.12,-822.13 296.12,-822.13 296.12,-786.13 350.12,-786.13 350.12,-822.13"/>
<text text-anchor="middle" x="323.12" y="-799.83" font-family="sans-serif" font-size="14.00">client</text>
</g>
<!-- covalence&#45;&gt;client -->
<g id="edge1" class="edge">
<title>covalence&#45;&gt;client</title>
<path fill="none" stroke="black" d="M103.08,-825.14C153.14,-820.34 236.45,-812.35 284.61,-807.73"/>
<polygon fill="black" stroke="black" points="284.64,-811.24 294.26,-806.8 283.98,-804.28 284.64,-811.24"/>
</g>
<!-- fuse -->
<g id="node11" class="node">
<title>fuse</title>
<polygon fill="none" stroke="black" points="582.38,-686.13 528.38,-686.13 528.38,-650.13 582.38,-650.13 582.38,-686.13"/>
<text text-anchor="middle" x="555.38" y="-663.83" font-family="sans-serif" font-size="14.00">fuse</text>
</g>
<!-- covalence&#45;&gt;fuse -->
<g id="edge2" class="edge">
<title>covalence&#45;&gt;fuse</title>
<path fill="none" stroke="black" d="M65.59,-810.77C74.74,-774.6 100.66,-694.81 157,-662.13 273.37,-594.62 443.01,-633.44 517.25,-655.77"/>
<polygon fill="black" stroke="black" points="515.88,-659.01 526.47,-658.62 517.94,-652.32 515.88,-659.01"/>
</g>
<!-- git -->
<g id="node12" class="node">
<title>git</title>
<polygon fill="none" stroke="black" points="465.5,-480.13 411.5,-480.13 411.5,-444.13 465.5,-444.13 465.5,-480.13"/>
<text text-anchor="middle" x="438.5" y="-457.83" font-family="sans-serif" font-size="14.00">git</text>
</g>
<!-- covalence&#45;&gt;git -->
<g id="edge3" class="edge">
<title>covalence&#45;&gt;git</title>
<path fill="none" stroke="black" d="M63.92,-810.83C72.83,-746.43 105.97,-531.81 157,-489.13 226.14,-431.32 341.02,-442.73 400.01,-453.67"/>
<polygon fill="black" stroke="black" points="399.07,-457.05 409.55,-455.54 400.41,-450.18 399.07,-457.05"/>
</g>
<!-- hash -->
<g id="node15" class="node">
<title>hash</title>
<polygon fill="none" stroke="black" points="863.38,-686.13 809.38,-686.13 809.38,-650.13 863.38,-650.13 863.38,-686.13"/>
<text text-anchor="middle" x="836.38" y="-663.83" font-family="sans-serif" font-size="14.00">hash</text>
</g>
<!-- covalence&#45;&gt;hash -->
<g id="edge4" class="edge">
<title>covalence&#45;&gt;hash</title>
<path fill="none" stroke="black" d="M102.74,-818.63C146.07,-807.72 216.27,-790.43 277.25,-777.13 472.5,-734.56 707.91,-691.17 797.91,-674.86"/>
<polygon fill="black" stroke="black" points="798.43,-678.33 807.65,-673.1 797.19,-671.44 798.43,-678.33"/>
</g>
<!-- hol -->
<g id="node17" class="node">
<title>hol</title>
<polygon fill="none" stroke="black" points="863.38,-1880.13 809.38,-1880.13 809.38,-1844.13 863.38,-1844.13 863.38,-1880.13"/>
<text text-anchor="middle" x="836.38" y="-1857.83" font-family="sans-serif" font-size="14.00">hol</text>
</g>
<!-- covalence&#45;&gt;hol -->
<g id="edge5" class="edge">
<title>covalence&#45;&gt;hol</title>
<path fill="none" stroke="black" d="M103,-840.79C110.05,-844.58 116.53,-849.57 121,-856.13 164.55,-920.03 142.19,-1475.24 157,-1551.13 188.25,-1711.33 222.75,-1744.28 277.25,-1898.13 296.82,-1953.38 263.52,-2022.13 322.12,-2022.13 322.12,-2022.13 322.12,-2022.13 556.38,-2022.13 662.56,-2022.13 764.94,-1933.85 810.58,-1888.44"/>
<polygon fill="black" stroke="black" points="812.83,-1891.14 817.36,-1881.56 807.85,-1886.22 812.83,-1891.14"/>
</g>
<!-- lsp -->
<g id="node28" class="node">
<title>lsp</title>
<polygon fill="none" stroke="black" points="863.38,-1024.13 809.38,-1024.13 809.38,-988.13 863.38,-988.13 863.38,-1024.13"/>
<text text-anchor="middle" x="836.38" y="-1001.83" font-family="sans-serif" font-size="14.00">lsp</text>
</g>
<!-- covalence&#45;&gt;lsp -->
<g id="edge6" class="edge">
<title>covalence&#45;&gt;lsp</title>
<path fill="none" stroke="black" d="M103.06,-841.12C110.02,-844.88 116.44,-849.77 121,-856.13 168.22,-922.02 98.99,-1162.51 157,-1219.13 227.92,-1288.36 513.59,-1248.39 602.75,-1205.13 698.12,-1158.86 680.11,-1092.4 768,-1033.13 777.31,-1026.86 788.29,-1021.68 798.66,-1017.6"/>
<polygon fill="black" stroke="black" points="799.55,-1021 807.73,-1014.26 797.13,-1014.43 799.55,-1021"/>
</g>
<!-- object -->
<g id="node31" class="node">
<title>object</title>
<polygon fill="none" stroke="black" points="714,-922.13 656.75,-922.13 656.75,-886.13 714,-886.13 714,-922.13"/>
<text text-anchor="middle" x="685.38" y="-899.83" font-family="sans-serif" font-size="14.00">object</text>
</g>
<!-- covalence&#45;&gt;object -->
<g id="edge7" class="edge">
<title>covalence&#45;&gt;object</title>
<path fill="none" stroke="black" d="M102.95,-843.83C109.43,-847.24 115.72,-851.32 121,-856.13 144.84,-877.85 132.39,-898.29 157,-919.13 216.7,-969.7 243.89,-980.13 322.12,-980.13 322.12,-980.13 322.12,-980.13 439.5,-980.13 515.65,-980.13 599.37,-946.2 646.54,-923.68"/>
<polygon fill="black" stroke="black" points="647.78,-926.97 655.24,-919.45 644.71,-920.68 647.78,-926.97"/>
</g>
<!-- opentheory -->
<g id="node32" class="node">
<title>opentheory</title>
<polygon fill="none" stroke="black" points="368.62,-1889.13 277.62,-1889.13 277.62,-1853.13 368.62,-1853.13 368.62,-1889.13"/>
<text text-anchor="middle" x="323.12" y="-1866.83" font-family="sans-serif" font-size="14.00">opentheory</text>
</g>
<!-- covalence&#45;&gt;opentheory -->
<g id="edge8" class="edge">
<title>covalence&#45;&gt;opentheory</title>
<path fill="none" stroke="black" d="M102.87,-840.88C109.93,-844.67 116.44,-849.63 121,-856.13 179.62,-939.72 141.35,-1213.25 157,-1314.13 193.03,-1546.4 159.66,-1625.62 277.25,-1829.13 280.53,-1834.81 284.83,-1840.19 289.46,-1845.08"/>
<polygon fill="black" stroke="black" points="286.75,-1847.32 296.37,-1851.76 291.61,-1842.29 286.75,-1847.32"/>
</g>
<!-- proto -->
<g id="node36" class="node">
<title>proto</title>
<polygon fill="none" stroke="black" points="350.12,-876.13 296.12,-876.13 296.12,-840.13 350.12,-840.13 350.12,-876.13"/>
<text text-anchor="middle" x="323.12" y="-853.83" font-family="sans-serif" font-size="14.00">proto</text>
</g>
<!-- covalence&#45;&gt;proto -->
<g id="edge9" class="edge">
<title>covalence&#45;&gt;proto</title>
<path fill="none" stroke="black" d="M103.08,-833.76C153.14,-839.33 236.45,-848.6 284.61,-853.96"/>
<polygon fill="black" stroke="black" points="283.94,-857.4 294.27,-855.03 284.72,-850.45 283.94,-857.4"/>
</g>
<!-- repl -->
<g id="node42" class="node">
<title>repl</title>
<polygon fill="none" stroke="black" points="350.12,-610.13 296.12,-610.13 296.12,-574.13 350.12,-574.13 350.12,-610.13"/>
<text text-anchor="middle" x="323.12" y="-587.83" font-family="sans-serif" font-size="14.00">repl</text>
</g>
<!-- covalence&#45;&gt;repl -->
<g id="edge10" class="edge">
<title>covalence&#45;&gt;repl</title>
<path fill="none" stroke="black" d="M64.33,-810.93C71.64,-770.4 95.12,-672.47 157,-624.13 193.55,-595.58 248.3,-590.14 284.6,-590.12"/>
<polygon fill="black" stroke="black" points="284.13,-593.62 294.18,-590.26 284.23,-586.62 284.13,-593.62"/>
</g>
<!-- serve -->
<g id="node45" class="node">
<title>serve</title>
<polygon fill="none" stroke="black" points="226.12,-910.13 172.12,-910.13 172.12,-874.13 226.12,-874.13 226.12,-910.13"/>
<text text-anchor="middle" x="199.12" y="-887.83" font-family="sans-serif" font-size="14.00">serve</text>
</g>
<!-- covalence&#45;&gt;serve -->
<g id="edge11" class="edge">
<title>covalence&#45;&gt;serve</title>
<path fill="none" stroke="black" d="M102.17,-847.52C108.48,-850.39 114.92,-853.33 121,-856.13 134.21,-862.21 148.67,-868.94 161.46,-874.92"/>
<polygon fill="black" stroke="black" points="159.83,-878.02 170.37,-879.09 162.8,-871.68 159.83,-878.02"/>
</g>
<!-- shell -->
<g id="node47" class="node">
<title>shell</title>
<polygon fill="none" stroke="black" points="465.5,-1196.13 411.5,-1196.13 411.5,-1160.13 465.5,-1160.13 465.5,-1196.13"/>
<text text-anchor="middle" x="438.5" y="-1173.83" font-family="sans-serif" font-size="14.00">shell</text>
</g>
<!-- covalence&#45;&gt;shell -->
<g id="edge12" class="edge">
<title>covalence&#45;&gt;shell</title>
<path fill="none" stroke="black" d="M103.02,-841.15C109.97,-844.91 116.41,-849.79 121,-856.13 164.5,-916.25 101.77,-1138.57 157,-1188.13 224.26,-1248.49 341.28,-1216.15 400.66,-1193.74"/>
<polygon fill="black" stroke="black" points="401.59,-1197.13 409.64,-1190.25 399.06,-1190.61 401.59,-1197.13"/>
</g>
<!-- store -->
<g id="node51" class="node">
<title>store</title>
<polygon fill="none" stroke="black" points="712.38,-382.13 658.38,-382.13 658.38,-346.13 712.38,-346.13 712.38,-382.13"/>
<text text-anchor="middle" x="685.38" y="-359.83" font-family="sans-serif" font-size="14.00">store</text>
</g>
<!-- covalence&#45;&gt;store -->
<g id="edge13" class="edge">
<title>covalence&#45;&gt;store</title>
<path fill="none" stroke="black" d="M64.44,-810.65C72.2,-767.17 96.94,-656.94 157,-589.13 185.29,-557.2 214.67,-576.5 241.25,-543.13 278.07,-496.91 235.62,-457.08 277.25,-415.13 376.84,-314.77 566.74,-339.38 647.04,-355.5"/>
<polygon fill="black" stroke="black" points="646.09,-358.88 656.59,-357.49 647.52,-352.02 646.09,-358.88"/>
</g>
<!-- wasm -->
<g id="node54" class="node">
<title>wasm</title>
<polygon fill="none" stroke="black" points="1004.75,-221.13 950.5,-221.13 950.5,-185.13 1004.75,-185.13 1004.75,-221.13"/>
<text text-anchor="middle" x="977.62" y="-198.83" font-family="sans-serif" font-size="14.00">wasm</text>
</g>
<!-- covalence&#45;&gt;wasm -->
<g id="edge14" class="edge">
<title>covalence&#45;&gt;wasm</title>
<path fill="none" stroke="black" d="M62.55,-810.69C66.52,-753.1 84.39,-572.95 157,-447.13 233.66,-314.28 262.82,-264.67 405,-207.13 405,-207.13 904.75,-207.13 904.75,-207.13 915.76,-206.83 927.71,-206.26 938.64,-205.64"/>
<polygon fill="black" stroke="black" points="938.73,-209.14 948.5,-205.06 938.31,-202.15 938.73,-209.14"/>
</g>
<!-- acset -->
<g id="node2" class="node">
<title>acset</title>
<polygon fill="none" stroke="black" points="863.38,-520.13 809.38,-520.13 809.38,-484.13 863.38,-484.13 863.38,-520.13"/>
<text text-anchor="middle" x="836.38" y="-497.83" font-family="sans-serif" font-size="14.00">acset</text>
</g>
<!-- alethe -->
<g id="node3" class="node">
<title>alethe</title>
<polygon fill="none" stroke="black" points="583.62,-1326.13 527.12,-1326.13 527.12,-1290.13 583.62,-1290.13 583.62,-1326.13"/>
<text text-anchor="middle" x="555.38" y="-1303.83" font-family="sans-serif" font-size="14.00">alethe</text>
</g>
<!-- core -->
<g id="node6" class="node">
<title>core</title>
<polygon fill="#ffd6d6" stroke="black" points="1004.62,-1750.13 950.62,-1750.13 950.62,-1714.13 1004.62,-1714.13 1004.62,-1750.13"/>
<text text-anchor="middle" x="977.62" y="-1727.83" font-family="sans-serif" font-size="14.00">core</text>
</g>
<!-- alethe&#45;&gt;core -->
<g id="edge15" class="edge">
<title>alethe&#45;&gt;core</title>
<path fill="none" stroke="black" d="M560.08,-1326.59C568.84,-1367.19 593.54,-1466.25 638.75,-1537.13 682.23,-1605.29 698.35,-1624.08 768,-1665.13 822.55,-1697.28 844.68,-1685.09 904.75,-1705.13 916.13,-1708.93 928.39,-1713.39 939.51,-1717.59"/>
<polygon fill="black" stroke="black" points="938.17,-1720.82 948.76,-1721.11 940.66,-1714.28 938.17,-1720.82"/>
</g>
<!-- hol&#45;eval -->
<g id="node19" class="node">
<title>hol&#45;eval</title>
<polygon fill="none" stroke="black" points="871.38,-1620.13 801.38,-1620.13 801.38,-1584.13 871.38,-1584.13 871.38,-1620.13"/>
<text text-anchor="middle" x="836.38" y="-1597.83" font-family="sans-serif" font-size="14.00">hol&#45;eval</text>
</g>
<!-- alethe&#45;&gt;hol&#45;eval -->
<g id="edge16" class="edge">
<title>alethe&#45;&gt;hol&#45;eval</title>
<path fill="none" stroke="black" d="M583.78,-1322.91C590.7,-1327.67 597.62,-1333.47 602.75,-1340.13 631.57,-1377.56 606.82,-1405.32 638.75,-1440.13 669.6,-1473.77 700.7,-1449.92 732,-1483.13 762.12,-1515.08 737.08,-1543.96 768,-1575.13 774.3,-1581.49 782.29,-1586.39 790.55,-1590.17"/>
<polygon fill="black" stroke="black" points="789.05,-1593.34 799.64,-1593.8 791.65,-1586.84 789.05,-1593.34"/>
</g>
<!-- init -->
<g id="node21" class="node">
<title>init</title>
<polygon fill="none" stroke="black" points="712.38,-1528.13 658.38,-1528.13 658.38,-1492.13 712.38,-1492.13 712.38,-1528.13"/>
<text text-anchor="middle" x="685.38" y="-1505.83" font-family="sans-serif" font-size="14.00">init</text>
</g>
<!-- alethe&#45;&gt;init -->
<g id="edge17" class="edge">
<title>alethe&#45;&gt;init</title>
<path fill="none" stroke="black" d="M583.7,-1322.28C590.79,-1327.1 597.81,-1333.08 602.75,-1340.13 639.11,-1392.05 602.59,-1426.08 638.75,-1478.13 641.62,-1482.27 645.21,-1486.04 649.11,-1489.43"/>
<polygon fill="black" stroke="black" points="646.71,-1492 656.77,-1495.32 650.97,-1486.45 646.71,-1492"/>
</g>
<!-- sexp -->
<g id="node46" class="node">
<title>sexp</title>
<polygon fill="none" stroke="black" points="1004.62,-1181.13 950.62,-1181.13 950.62,-1145.13 1004.62,-1145.13 1004.62,-1181.13"/>
<text text-anchor="middle" x="977.62" y="-1158.83" font-family="sans-serif" font-size="14.00">sexp</text>
</g>
<!-- alethe&#45;&gt;sexp -->
<g id="edge18" class="edge">
<title>alethe&#45;&gt;sexp</title>
<path fill="none" stroke="black" d="M583.99,-1307.96C619.04,-1307.11 681.08,-1303.47 732,-1289.13 749.03,-1284.34 751.46,-1278.41 768,-1272.13 827.2,-1249.65 849.95,-1263.86 904.75,-1232.13 923.59,-1221.22 941.28,-1204.36 954.4,-1190.04"/>
<polygon fill="black" stroke="black" points="956.93,-1192.46 960.94,-1182.65 951.69,-1187.82 956.93,-1192.46"/>
</g>
<!-- smt -->
<g id="node48" class="node">
<title>smt</title>
<polygon fill="none" stroke="black" points="712.38,-1280.13 658.38,-1280.13 658.38,-1244.13 712.38,-1244.13 712.38,-1280.13"/>
<text text-anchor="middle" x="685.38" y="-1257.83" font-family="sans-serif" font-size="14.00">smt</text>
</g>
<!-- alethe&#45;&gt;smt -->
<g id="edge19" class="edge">
<title>alethe&#45;&gt;smt</title>
<path fill="none" stroke="black" d="M583.83,-1298.26C602.43,-1291.58 627.21,-1282.68 647.52,-1275.38"/>
<polygon fill="black" stroke="black" points="648.62,-1278.7 656.85,-1272.02 646.25,-1272.11 648.62,-1278.7"/>
</g>
<!-- types -->
<g id="node53" class="node">
<title>types</title>
<polygon fill="#ffd6d6" stroke="black" points="1445.5,-1574.13 1391.5,-1574.13 1391.5,-1538.13 1445.5,-1538.13 1445.5,-1574.13"/>
<text text-anchor="middle" x="1418.5" y="-1551.83" font-family="sans-serif" font-size="14.00">types</text>
</g>
<!-- alethe&#45;&gt;types -->
<g id="edge20" class="edge">
<title>alethe&#45;&gt;types</title>
<path fill="none" stroke="black" d="M583.87,-1321.21C648.89,-1351.93 808.68,-1426.13 835.38,-1426.13 835.38,-1426.13 835.38,-1426.13 1194.25,-1426.13 1268.54,-1426.13 1294.45,-1427.8 1355.5,-1470.13 1376.56,-1484.73 1393.05,-1508.89 1403.71,-1527.89"/>
<polygon fill="black" stroke="black" points="1400.51,-1529.32 1408.31,-1536.48 1406.68,-1526.01 1400.51,-1529.32"/>
</g>
<!-- arrow -->
<g id="node4" class="node">
<title>arrow</title>
<polygon fill="none" stroke="black" points="582.38,-594.13 528.38,-594.13 528.38,-558.13 582.38,-558.13 582.38,-594.13"/>
<text text-anchor="middle" x="555.38" y="-571.83" font-family="sans-serif" font-size="14.00">arrow</text>
</g>
<!-- client&#45;&gt;hash -->
<g id="edge21" class="edge">
<title>client&#45;&gt;hash</title>
<path fill="none" stroke="black" d="M350.43,-807.38C417.55,-814.49 599.23,-826.35 732,-766.13 766.44,-750.51 796.63,-718.58 815.35,-695.4"/>
<polygon fill="black" stroke="black" points="818.07,-697.61 821.48,-687.58 812.56,-693.29 818.07,-697.61"/>
</g>
<!-- client&#45;&gt;shell -->
<g id="edge22" class="edge">
<title>client&#45;&gt;shell</title>
<path fill="none" stroke="black" d="M350.33,-815.02C357.36,-819.11 364.3,-824.43 369,-831.13 387.33,-857.25 421.05,-1069.66 433.08,-1148.67"/>
<polygon fill="black" stroke="black" points="429.58,-1148.88 434.53,-1158.25 436.5,-1147.84 429.58,-1148.88"/>
</g>
<!-- client&#45;&gt;store -->
<g id="edge23" class="edge">
<title>client&#45;&gt;store</title>
<path fill="none" stroke="black" d="M340.74,-785.71C371.16,-752.88 439.04,-683.73 508,-641.13 546.6,-617.29 573.64,-637.93 602.75,-603.13 653.42,-542.56 607.42,-501.62 638.75,-429.13 644.46,-415.92 653.1,-402.67 661.34,-391.61"/>
<polygon fill="black" stroke="black" points="664.1,-393.76 667.45,-383.71 658.56,-389.48 664.1,-393.76"/>
</g>
<!-- pure -->
<g id="node37" class="node">
<title>pure</title>
<polygon fill="#ffd6d6" stroke="black" points="1220.25,-1712.13 1166.25,-1712.13 1166.25,-1676.13 1220.25,-1676.13 1220.25,-1712.13"/>
<text text-anchor="middle" x="1193.25" y="-1689.83" font-family="sans-serif" font-size="14.00">pure</text>
</g>
<!-- core&#45;&gt;pure -->
<g id="edge24" class="edge">
<title>core&#45;&gt;pure</title>
<path fill="none" stroke="black" d="M1004.82,-1727.47C1042.38,-1720.79 1111.73,-1708.46 1154.72,-1700.81"/>
<polygon fill="black" stroke="black" points="1155.12,-1704.29 1164.35,-1699.09 1153.89,-1697.4 1155.12,-1704.29"/>
</g>
<!-- pure&#45;eval -->
<g id="node38" class="node">
<title>pure&#45;eval</title>
<polygon fill="#ffd6d6" stroke="black" points="1130.25,-1620.13 1050.5,-1620.13 1050.5,-1584.13 1130.25,-1584.13 1130.25,-1620.13"/>
<text text-anchor="middle" x="1090.38" y="-1597.83" font-family="sans-serif" font-size="14.00">pure&#45;eval</text>
</g>
<!-- core&#45;&gt;pure&#45;eval -->
<g id="edge25" class="edge">
<title>core&#45;&gt;pure&#45;eval</title>
<path fill="none" stroke="black" d="M990.11,-1713.75C1003.36,-1693.23 1026.44,-1659.58 1050.5,-1634.13 1052.44,-1632.08 1054.52,-1630.03 1056.66,-1628.02"/>
<polygon fill="black" stroke="black" points="1058.81,-1630.79 1063.97,-1621.53 1054.17,-1625.55 1058.81,-1630.79"/>
</g>
<!-- core&#45;&gt;types -->
<g id="edge26" class="edge">
<title>core&#45;&gt;types</title>
<path fill="none" stroke="black" d="M1005.09,-1720.26C1018.6,-1714.32 1035.34,-1707.13 1050.5,-1701.13 1184.5,-1648.13 1224.52,-1651.21 1355.5,-1591.13 1364.05,-1587.21 1372.99,-1582.53 1381.34,-1577.89"/>
<polygon fill="black" stroke="black" points="1382.88,-1581.03 1389.84,-1573.05 1379.42,-1574.95 1382.88,-1581.03"/>
</g>
<!-- core&#45;test&#45;guest -->
<g id="node7" class="node">
<title>core&#45;test&#45;guest</title>
<polygon fill="none" stroke="black" points="121,-901.13 0,-901.13 0,-865.13 121,-865.13 121,-901.13"/>
<text text-anchor="middle" x="60.5" y="-878.83" font-family="sans-serif" font-size="14.00">core&#45;test&#45;guest</text>
</g>
<!-- crypto&#45;sig -->
<g id="node8" class="node">
<title>crypto&#45;sig</title>
<polygon fill="none" stroke="black" points="241.25,-290.13 157,-290.13 157,-254.13 241.25,-254.13 241.25,-290.13"/>
<text text-anchor="middle" x="199.12" y="-267.83" font-family="sans-serif" font-size="14.00">crypto&#45;sig</text>
</g>
<!-- egglog -->
<g id="node9" class="node">
<title>egglog</title>
<polygon fill="none" stroke="black" points="866.88,-1360.13 805.88,-1360.13 805.88,-1324.13 866.88,-1324.13 866.88,-1360.13"/>
<text text-anchor="middle" x="836.38" y="-1337.83" font-family="sans-serif" font-size="14.00">egglog</text>
</g>
<!-- egglog&#45;&gt;sexp -->
<g id="edge27" class="edge">
<title>egglog&#45;&gt;sexp</title>
<path fill="none" stroke="black" d="M867.22,-1332.96C880,-1327.86 894.34,-1320.42 904.75,-1310.13 938.39,-1276.87 958.68,-1224.67 968.75,-1192.25"/>
<polygon fill="black" stroke="black" points="972.09,-1193.31 971.58,-1182.72 965.38,-1191.32 972.09,-1193.31"/>
</g>
<!-- egglog&#45;&gt;types -->
<g id="edge28" class="edge">
<title>egglog&#45;&gt;types</title>
<path fill="none" stroke="black" d="M867.24,-1342.91C914.42,-1344.08 1009.08,-1346.13 1089.38,-1346.13 1089.38,-1346.13 1089.38,-1346.13 1194.25,-1346.13 1266.99,-1346.13 1300.2,-1326.87 1355.5,-1374.13 1400.67,-1412.74 1413,-1485.65 1416.32,-1526.5"/>
<polygon fill="black" stroke="black" points="1412.82,-1526.58 1416.97,-1536.32 1419.8,-1526.11 1412.82,-1526.58"/>
</g>
<!-- forsp -->
<g id="node10" class="node">
<title>forsp</title>
<polygon fill="none" stroke="black" points="712.38,-868.13 658.38,-868.13 658.38,-832.13 712.38,-832.13 712.38,-868.13"/>
<text text-anchor="middle" x="685.38" y="-845.83" font-family="sans-serif" font-size="14.00">forsp</text>
</g>
<!-- forsp&#45;&gt;hash -->
<g id="edge29" class="edge">
<title>forsp&#45;&gt;hash</title>
<path fill="none" stroke="black" d="M712.74,-834.02C719.4,-829.33 726.28,-823.9 732,-818.13 769.22,-780.61 801.9,-728.16 820.1,-696.26"/>
<polygon fill="black" stroke="black" points="823.12,-698.03 824.97,-687.6 817.02,-694.6 823.12,-698.03"/>
</g>
<!-- forsp&#45;&gt;sexp -->
<g id="edge30" class="edge">
<title>forsp&#45;&gt;sexp</title>
<path fill="none" stroke="black" d="M712.69,-862.55C719.5,-866.57 726.46,-871.47 732,-877.13 754.82,-900.46 742.31,-921 768,-941.13 817.65,-980.04 859.89,-934.78 904.75,-979.13 945.56,-1019.48 917.84,-1050.52 940.75,-1103.13 945.5,-1114.03 951.87,-1125.38 957.92,-1135.23"/>
<polygon fill="black" stroke="black" points="954.91,-1137.02 963.22,-1143.6 960.82,-1133.28 954.91,-1137.02"/>
</g>
<!-- fuse&#45;&gt;hash -->
<g id="edge31" class="edge">
<title>fuse&#45;&gt;hash</title>
<path fill="none" stroke="black" d="M582.87,-668.13C632.65,-668.13 740.28,-668.13 797.62,-668.13"/>
<polygon fill="black" stroke="black" points="797.54,-671.63 807.54,-668.13 797.54,-664.63 797.54,-671.63"/>
</g>
<!-- fuse&#45;&gt;object -->
<g id="edge32" class="edge">
<title>fuse&#45;&gt;object</title>
<path fill="none" stroke="black" d="M582.5,-681.14C590.08,-686.11 597.68,-692.46 602.75,-700.13 646.99,-767.12 592.2,-811.73 638.75,-877.13 641.06,-880.38 643.9,-883.3 647.01,-885.91"/>
<polygon fill="black" stroke="black" points="644.9,-888.71 655.1,-891.6 648.93,-882.99 644.9,-888.71"/>
</g>
<!-- fuse&#45;&gt;store -->
<g id="edge33" class="edge">
<title>fuse&#45;&gt;store</title>
<path fill="none" stroke="black" d="M582.63,-655.21C590.22,-650.25 597.79,-643.88 602.75,-636.13 653.1,-557.49 603.07,-515.43 638.75,-429.13 644.31,-415.69 653.03,-402.3 661.37,-391.19"/>
<polygon fill="black" stroke="black" points="663.87,-393.67 667.27,-383.63 658.35,-389.36 663.87,-393.67"/>
</g>
<!-- git&#45;&gt;hash -->
<g id="edge34" class="edge">
<title>git&#45;&gt;hash</title>
<path fill="none" stroke="black" d="M465.81,-466.69C499.59,-473.43 559.03,-488.36 602.75,-516.13 622.39,-528.61 620.14,-540.17 638.75,-554.13 676.03,-582.11 691.59,-578.9 732,-602.13 754.9,-615.3 779.88,-631.2 799.54,-644.1"/>
<polygon fill="black" stroke="black" points="797.48,-646.93 807.76,-649.51 801.34,-641.09 797.48,-646.93"/>
</g>
<!-- git&#45;&gt;object -->
<g id="edge35" class="edge">
<title>git&#45;&gt;object</title>
<path fill="none" stroke="black" d="M450.18,-480.36C457.24,-493.1 466.24,-510.7 472,-527.13 497.28,-599.19 468.92,-629.53 508,-695.13 536.35,-742.73 571.33,-730.5 602.75,-776.13 629.77,-815.38 608.44,-840.36 638.75,-877.13 641.23,-880.13 644.13,-882.88 647.25,-885.38"/>
<polygon fill="black" stroke="black" points="644.99,-888.07 655.2,-890.88 648.97,-882.31 644.99,-888.07"/>
</g>
<!-- sqlite -->
<g id="node50" class="node">
<title>sqlite</title>
<polygon fill="none" stroke="black" points="863.38,-382.13 809.38,-382.13 809.38,-346.13 863.38,-346.13 863.38,-382.13"/>
<text text-anchor="middle" x="836.38" y="-359.83" font-family="sans-serif" font-size="14.00">sqlite</text>
</g>
<!-- git&#45;&gt;sqlite -->
<g id="edge36" class="edge">
<title>git&#45;&gt;sqlite</title>
<path fill="none" stroke="black" d="M465.94,-457.65C498.35,-451.99 554.86,-441.6 602.75,-430.13 672.38,-413.46 752.48,-389.71 798.19,-375.71"/>
<polygon fill="black" stroke="black" points="799.07,-379.1 807.6,-372.82 797.02,-372.41 799.07,-379.1"/>
</g>
<!-- git&#45;&gt;store -->
<g id="edge37" class="edge">
<title>git&#45;&gt;store</title>
<path fill="none" stroke="black" d="M465.71,-451.64C509.41,-434.15 597.3,-398.98 647.32,-378.96"/>
<polygon fill="black" stroke="black" points="648.6,-382.22 656.58,-375.25 646,-375.72 648.6,-382.22"/>
</g>
<!-- grammar -->
<g id="node13" class="node">
<title>grammar</title>
<polygon fill="none" stroke="black" points="1014.5,-1528.13 940.75,-1528.13 940.75,-1492.13 1014.5,-1492.13 1014.5,-1528.13"/>
<text text-anchor="middle" x="977.62" y="-1505.83" font-family="sans-serif" font-size="14.00">grammar</text>
</g>
<!-- graph -->
<g id="node14" class="node">
<title>graph</title>
<polygon fill="none" stroke="black" points="465.5,-252.13 411.5,-252.13 411.5,-216.13 465.5,-216.13 465.5,-252.13"/>
<text text-anchor="middle" x="438.5" y="-229.83" font-family="sans-serif" font-size="14.00">graph</text>
</g>
<!-- graph&#45;&gt;hash -->
<g id="edge38" class="edge">
<title>graph&#45;&gt;hash</title>
<path fill="none" stroke="black" d="M465.77,-241.53C502.34,-253.23 568,-279.61 602.75,-326.13 645.59,-383.49 593.62,-427.56 638.75,-483.13 667.52,-518.56 696.71,-497.19 732,-526.13 771.19,-558.27 803.07,-608.53 820.61,-639.84"/>
<polygon fill="black" stroke="black" points="817.4,-641.26 825.27,-648.35 823.54,-637.9 817.4,-641.26"/>
</g>
<!-- parse -->
<g id="node34" class="node">
<title>parse</title>
<polygon fill="none" stroke="black" points="1117.38,-905.13 1063.38,-905.13 1063.38,-869.13 1117.38,-869.13 1117.38,-905.13"/>
<text text-anchor="middle" x="1090.38" y="-882.83" font-family="sans-serif" font-size="14.00">parse</text>
</g>
<!-- graph&#45;&gt;parse -->
<g id="edge39" class="edge">
<title>graph&#45;&gt;parse</title>
<path fill="none" stroke="black" d="M441.21,-215.73C445.51,-181.46 460.11,-108.49 508,-77.13 699.9,48.51 901.7,23.59 1014.5,-176.13 1081.93,-295.52 1088.74,-738.39 1089.34,-857.48"/>
<polygon fill="black" stroke="black" points="1085.84,-857.38 1089.38,-867.37 1092.84,-857.35 1085.84,-857.38"/>
</g>
<!-- rand -->
<g id="node41" class="node">
<title>rand</title>
<polygon fill="none" stroke="black" points="1004.62,-686.13 950.62,-686.13 950.62,-650.13 1004.62,-650.13 1004.62,-686.13"/>
<text text-anchor="middle" x="977.62" y="-663.83" font-family="sans-serif" font-size="14.00">rand</text>
</g>
<!-- hash&#45;&gt;rand -->
<g id="edge40" class="edge">
<title>hash&#45;&gt;rand</title>
<path fill="none" stroke="black" d="M863.57,-668.13C884.86,-668.13 915.19,-668.13 939.07,-668.13"/>
<polygon fill="black" stroke="black" points="939.04,-671.63 949.04,-668.13 939.04,-664.63 939.04,-671.63"/>
</g>
<!-- haskell -->
<g id="node16" class="node">
<title>haskell</title>
<polygon fill="none" stroke="black" points="469.75,-1820.13 407.25,-1820.13 407.25,-1784.13 469.75,-1784.13 469.75,-1820.13"/>
<text text-anchor="middle" x="438.5" y="-1797.83" font-family="sans-serif" font-size="14.00">haskell</text>
</g>
<!-- hol&#45;api -->
<g id="node18" class="node">
<title>hol&#45;api</title>
<polygon fill="none" stroke="black" points="586.62,-1858.13 524.12,-1858.13 524.12,-1822.13 586.62,-1822.13 586.62,-1858.13"/>
<text text-anchor="middle" x="555.38" y="-1835.83" font-family="sans-serif" font-size="14.00">hol&#45;api</text>
</g>
<!-- haskell&#45;&gt;hol&#45;api -->
<g id="edge41" class="edge">
<title>haskell&#45;&gt;hol&#45;api</title>
<path fill="none" stroke="black" d="M469.98,-1812.22C483.22,-1816.6 498.94,-1821.79 513.2,-1826.51"/>
<polygon fill="black" stroke="black" points="511.72,-1829.71 522.31,-1829.53 513.92,-1823.06 511.72,-1829.71"/>
</g>
<!-- haskell&#45;&gt;hol&#45;eval -->
<g id="edge42" class="edge">
<title>haskell&#45;&gt;hol&#45;eval</title>
<path fill="none" stroke="black" d="M470.15,-1789.71C504.1,-1775.24 559.73,-1749.43 602.75,-1719.13 620.74,-1706.46 620.32,-1697.16 638.75,-1685.13 686.93,-1653.69 749,-1629.86 790.38,-1615.97"/>
<polygon fill="black" stroke="black" points="791.37,-1619.33 799.78,-1612.88 789.18,-1612.68 791.37,-1619.33"/>
</g>
<!-- haskell&#45;&gt;init -->
<g id="edge43" class="edge">
<title>haskell&#45;&gt;init</title>
<path fill="none" stroke="black" d="M466.45,-1783.63C501.18,-1758.81 561.93,-1711.92 602.75,-1661.13 633.64,-1622.69 658.71,-1570.85 672.57,-1539"/>
<polygon fill="black" stroke="black" points="675.69,-1540.58 676.4,-1530.01 669.26,-1537.84 675.69,-1540.58"/>
</g>
<!-- haskell&#45;&gt;types -->
<g id="edge44" class="edge">
<title>haskell&#45;&gt;types</title>
<path fill="none" stroke="black" d="M446.28,-1820.27C469.51,-1879 551.91,-2060.13 684.38,-2060.13 684.38,-2060.13 684.38,-2060.13 1194.25,-2060.13 1403.2,-2060.13 1418.12,-1693.53 1417.99,-1585.65"/>
<polygon fill="black" stroke="black" points="1421.49,-1585.86 1417.93,-1575.88 1414.49,-1585.9 1421.49,-1585.86"/>
</g>
<!-- hol&#45;&gt;core -->
<g id="edge45" class="edge">
<title>hol&#45;&gt;core</title>
<path fill="none" stroke="black" d="M863.75,-1853.15C876.96,-1847.81 892.67,-1840.11 904.75,-1830.13 928.37,-1810.61 948.32,-1781.7 961.17,-1760.33"/>
<polygon fill="black" stroke="black" points="964.11,-1762.23 966.12,-1751.83 958.06,-1758.71 964.11,-1762.23"/>
</g>
<!-- hol&#45;api&#45;&gt;core -->
<g id="edge46" class="edge">
<title>hol&#45;api&#45;&gt;core</title>
<path fill="none" stroke="black" d="M586.73,-1856.85C651.01,-1889.75 803.24,-1954.3 904.75,-1889.13 948.57,-1861 966.01,-1798.76 972.7,-1761.65"/>
<polygon fill="black" stroke="black" points="976.11,-1762.49 974.27,-1752.06 969.2,-1761.36 976.11,-1762.49"/>
</g>
<!-- hol&#45;api&#45;&gt;hol&#45;eval -->
<g id="edge47" class="edge">
<title>hol&#45;api&#45;&gt;hol&#45;eval</title>
<path fill="none" stroke="black" d="M585.08,-1821.8C591.1,-1817.55 597.28,-1812.88 602.75,-1808.13 620.57,-1792.67 621.73,-1785.46 638.75,-1769.13 693.95,-1716.17 763.02,-1659.54 802.88,-1627.71"/>
<polygon fill="black" stroke="black" points="805.05,-1630.46 810.7,-1621.49 800.69,-1624.98 805.05,-1630.46"/>
</g>
<!-- inductive -->
<g id="node20" class="node">
<title>inductive</title>
<polygon fill="none" stroke="black" points="874.75,-1750.13 798,-1750.13 798,-1714.13 874.75,-1714.13 874.75,-1750.13"/>
<text text-anchor="middle" x="836.38" y="-1727.83" font-family="sans-serif" font-size="14.00">inductive</text>
</g>
<!-- hol&#45;api&#45;&gt;inductive -->
<g id="edge48" class="edge">
<title>hol&#45;api&#45;&gt;inductive</title>
<path fill="none" stroke="black" d="M587.03,-1828.27C635.3,-1809.58 729.45,-1773.14 786.94,-1750.88"/>
<polygon fill="black" stroke="black" points="788.1,-1754.18 796.16,-1747.31 785.57,-1747.66 788.1,-1754.18"/>
</g>
<!-- hol&#45;api&#45;&gt;init -->
<g id="edge49" class="edge">
<title>hol&#45;api&#45;&gt;init</title>
<path fill="none" stroke="black" d="M564.55,-1821.91C574.06,-1800.54 590.07,-1763.98 602.75,-1732.13 630.1,-1663.46 659.34,-1581.61 674.29,-1539.06"/>
<polygon fill="black" stroke="black" points="677.53,-1540.41 677.53,-1529.81 670.92,-1538.09 677.53,-1540.41"/>
</g>
<!-- hol&#45;api&#45;&gt;pure -->
<g id="edge50" class="edge">
<title>hol&#45;api&#45;&gt;pure</title>
<path fill="none" stroke="black" d="M572.45,-1858.4C587.81,-1874.64 612.47,-1897.67 638.75,-1910.13 719.03,-1948.19 746.53,-1946.13 835.38,-1946.13 835.38,-1946.13 835.38,-1946.13 978.62,-1946.13 1094.41,-1946.13 1160.43,-1789.42 1183.17,-1723.16"/>
<polygon fill="black" stroke="black" points="1186.48,-1724.29 1186.32,-1713.69 1179.84,-1722.07 1186.48,-1724.29"/>
</g>
<!-- hol&#45;api&#45;&gt;types -->
<g id="edge51" class="edge">
<title>hol&#45;api&#45;&gt;types</title>
<path fill="none" stroke="black" d="M566.28,-1858.43C579.63,-1881.26 605.6,-1919.76 638.75,-1940.13 715.05,-1987.01 745.82,-1984.13 835.38,-1984.13 835.38,-1984.13 835.38,-1984.13 1194.25,-1984.13 1374.28,-1984.13 1409.37,-1682.77 1416,-1585.8"/>
<polygon fill="black" stroke="black" points="1419.48,-1586.23 1416.61,-1576.03 1412.5,-1585.8 1419.48,-1586.23"/>
</g>
<!-- hol&#45;eval&#45;&gt;core -->
<g id="edge52" class="edge">
<title>hol&#45;eval&#45;&gt;core</title>
<path fill="none" stroke="black" d="M871.8,-1613.54C883.25,-1618.54 895.44,-1625.32 904.75,-1634.13 929.03,-1657.09 919.98,-1673.96 940.75,-1700.13 942.31,-1702.1 944,-1704.04 945.76,-1705.94"/>
<polygon fill="black" stroke="black" points="943.19,-1708.32 952.76,-1712.88 948.12,-1703.35 943.19,-1708.32"/>
</g>
<!-- hol&#45;eval&#45;&gt;pure -->
<g id="edge53" class="edge">
<title>hol&#45;eval&#45;&gt;pure</title>
<path fill="none" stroke="black" d="M871.72,-1611.04C938.62,-1628.38 1085.87,-1666.55 1155.01,-1684.48"/>
<polygon fill="black" stroke="black" points="1153.78,-1687.77 1164.34,-1686.9 1155.54,-1681 1153.78,-1687.77"/>
</g>
<!-- hol&#45;eval&#45;&gt;pure&#45;eval -->
<g id="edge54" class="edge">
<title>hol&#45;eval&#45;&gt;pure&#45;eval</title>
<path fill="none" stroke="black" d="M871.62,-1602.13C914.73,-1602.13 989.13,-1602.13 1038.79,-1602.13"/>
<polygon fill="black" stroke="black" points="1038.72,-1605.63 1048.72,-1602.13 1038.72,-1598.63 1038.72,-1605.63"/>
</g>
<!-- hol&#45;eval&#45;&gt;sexp -->
<g id="edge55" class="edge">
<title>hol&#45;eval&#45;&gt;sexp</title>
<path fill="none" stroke="black" d="M871.7,-1595.65C883.83,-1591.68 896.5,-1585.31 904.75,-1575.13 952.69,-1516 970.32,-1277.32 975.13,-1192.9"/>
<polygon fill="black" stroke="black" points="978.61,-1193.29 975.66,-1183.11 971.62,-1192.91 978.61,-1193.29"/>
</g>
<!-- hol&#45;eval&#45;&gt;types -->
<g id="edge56" class="edge">
<title>hol&#45;eval&#45;&gt;types</title>
<path fill="none" stroke="black" d="M871.66,-1591.81C919.81,-1578.25 1010.44,-1556.13 1089.38,-1556.13 1089.38,-1556.13 1089.38,-1556.13 1194.25,-1556.13 1259.4,-1556.13 1335.24,-1556.13 1379.65,-1556.13"/>
<polygon fill="black" stroke="black" points="1379.52,-1559.63 1389.52,-1556.13 1379.52,-1552.63 1379.52,-1559.63"/>
</g>
<!-- init&#45;&gt;core -->
<g id="edge57" class="edge">
<title>init&#45;&gt;core</title>
<path fill="none" stroke="black" d="M712.54,-1527.2C719.5,-1532.64 726.58,-1539.1 732,-1546.13 756.53,-1578 738.12,-1602.22 768,-1629.13 815.34,-1671.77 848.84,-1641.58 904.75,-1672.13 909.59,-1674.78 929.52,-1691.5 947.16,-1706.61"/>
<polygon fill="black" stroke="black" points="944.56,-1708.99 954.42,-1712.85 949.12,-1703.68 944.56,-1708.99"/>
</g>
<!-- init&#45;&gt;grammar -->
<g id="edge58" class="edge">
<title>init&#45;&gt;grammar</title>
<path fill="none" stroke="black" d="M712.64,-1510.13C761.54,-1510.13 867.16,-1510.13 928.95,-1510.13"/>
<polygon fill="black" stroke="black" points="928.82,-1513.63 938.82,-1510.13 928.82,-1506.63 928.82,-1513.63"/>
</g>
<!-- init&#45;&gt;hash -->
<g id="edge59" class="edge">
<title>init&#45;&gt;hash</title>
<path fill="none" stroke="black" d="M690.94,-1491.63C700.11,-1453.83 720.82,-1364.9 732,-1289.13 758.18,-1111.67 733.44,-1063.15 768,-887.13 781.66,-817.56 808.96,-738.7 824.28,-697.22"/>
<polygon fill="black" stroke="black" points="827.52,-698.55 827.74,-687.96 820.96,-696.11 827.52,-698.55"/>
</g>
<!-- init&#45;&gt;hol -->
<g id="edge60" class="edge">
<title>init&#45;&gt;hol</title>
<path fill="none" stroke="black" d="M690.65,-1528.58C700.8,-1570.75 728.49,-1676.92 768,-1759.13 780.97,-1786.11 799.91,-1814.4 814.42,-1834.49"/>
<polygon fill="black" stroke="black" points="811.5,-1836.44 820.24,-1842.44 817.15,-1832.3 811.5,-1836.44"/>
</g>
<!-- init&#45;&gt;hol&#45;eval -->
<g id="edge61" class="edge">
<title>init&#45;&gt;hol&#45;eval</title>
<path fill="none" stroke="black" d="M709.62,-1528.4C716.81,-1534.07 724.74,-1540.35 732,-1546.13 748.06,-1558.94 750.27,-1564.75 768,-1575.13 775.1,-1579.29 782.97,-1583.08 790.74,-1586.43"/>
<polygon fill="black" stroke="black" points="789.22,-1589.59 799.81,-1590.13 791.87,-1583.11 789.22,-1589.59"/>
</g>
<!-- init&#45;&gt;inductive -->
<g id="edge62" class="edge">
<title>init&#45;&gt;inductive</title>
<path fill="none" stroke="black" d="M694.2,-1528.39C707.28,-1557.91 735.37,-1617.34 768,-1662.13 779.41,-1677.79 794.14,-1693.49 806.91,-1706.04"/>
<polygon fill="black" stroke="black" points="804.25,-1708.33 813.88,-1712.75 809.11,-1703.29 804.25,-1708.33"/>
</g>
<!-- metamath -->
<g id="node29" class="node">
<title>metamath</title>
<polygon fill="none" stroke="black" points="876.62,-1078.13 796.12,-1078.13 796.12,-1042.13 876.62,-1042.13 876.62,-1078.13"/>
<text text-anchor="middle" x="836.38" y="-1055.83" font-family="sans-serif" font-size="14.00">metamath</text>
</g>
<!-- init&#45;&gt;metamath -->
<g id="edge63" class="edge">
<title>init&#45;&gt;metamath</title>
<path fill="none" stroke="black" d="M692.49,-1491.65C715.58,-1421.92 797.53,-1174.41 825.75,-1089.21"/>
<polygon fill="black" stroke="black" points="828.99,-1090.55 828.81,-1079.95 822.35,-1088.35 828.99,-1090.55"/>
</g>
<!-- init&#45;&gt;sexp -->
<g id="edge64" class="edge">
<title>init&#45;&gt;sexp</title>
<path fill="none" stroke="black" d="M688.83,-1491.89C694.94,-1453.52 714.45,-1363.98 768,-1315.13 815.07,-1272.2 853.89,-1310.5 904.75,-1272.13 932.49,-1251.2 952.79,-1216.25 964.6,-1191.57"/>
<polygon fill="black" stroke="black" points="967.66,-1193.3 968.65,-1182.75 961.3,-1190.38 967.66,-1193.3"/>
</g>
<!-- spectec -->
<g id="node49" class="node">
<title>spectec</title>
<polygon fill="none" stroke="black" points="871,-1566.13 801.75,-1566.13 801.75,-1530.13 871,-1530.13 871,-1566.13"/>
<text text-anchor="middle" x="836.38" y="-1543.83" font-family="sans-serif" font-size="14.00">spectec</text>
</g>
<!-- init&#45;&gt;spectec -->
<g id="edge65" class="edge">
<title>init&#45;&gt;spectec</title>
<path fill="none" stroke="black" d="M712.67,-1516.84C734.21,-1522.33 765.18,-1530.23 790.61,-1536.72"/>
<polygon fill="black" stroke="black" points="789.47,-1540.04 800.02,-1539.12 791.2,-1533.25 789.47,-1540.04"/>
</g>
<!-- init&#45;&gt;types -->
<g id="edge66" class="edge">
<title>init&#45;&gt;types</title>
<path fill="none" stroke="black" d="M712.57,-1503.15C763.19,-1490.28 878.16,-1464.13 976.62,-1464.13 976.62,-1464.13 976.62,-1464.13 1194.25,-1464.13 1265.08,-1464.13 1339.66,-1504.21 1382.19,-1531.46"/>
<polygon fill="black" stroke="black" points="1380.23,-1534.36 1390.51,-1536.91 1384.06,-1528.5 1380.23,-1534.36"/>
</g>
<!-- json -->
<g id="node22" class="node">
<title>json</title>
<polygon fill="none" stroke="black" points="863.38,-328.13 809.38,-328.13 809.38,-292.13 863.38,-292.13 863.38,-328.13"/>
<text text-anchor="middle" x="836.38" y="-305.83" font-family="sans-serif" font-size="14.00">json</text>
</g>
<!-- kernel -->
<g id="node23" class="node">
<title>kernel</title>
<polygon fill="none" stroke="black" points="584,-1196.13 526.75,-1196.13 526.75,-1160.13 584,-1160.13 584,-1196.13"/>
<text text-anchor="middle" x="555.38" y="-1173.83" font-family="sans-serif" font-size="14.00">kernel</text>
</g>
<!-- kernel&#45;&gt;hash -->
<g id="edge67" class="edge">
<title>kernel&#45;&gt;hash</title>
<path fill="none" stroke="black" d="M572.77,-1159.88C611.68,-1116.31 708.12,-1006.67 732,-964.13 758.71,-916.56 806.98,-761.99 826.66,-697.16"/>
<polygon fill="black" stroke="black" points="829.9,-698.53 829.45,-687.95 823.2,-696.51 829.9,-698.53"/>
</g>
<!-- kernel&#45;&gt;init -->
<g id="edge68" class="edge">
<title>kernel&#45;&gt;init</title>
<path fill="none" stroke="black" d="M565.21,-1196.55C574.89,-1217 590.67,-1251.12 602.75,-1281.13 631.33,-1352.12 660.37,-1437.41 674.88,-1481.15"/>
<polygon fill="black" stroke="black" points="671.48,-1482 677.94,-1490.4 678.12,-1479.81 671.48,-1482"/>
</g>
<!-- kernel&#45;&gt;object -->
<g id="edge69" class="edge">
<title>kernel&#45;&gt;object</title>
<path fill="none" stroke="black" d="M564.97,-1159.73C586.83,-1112.93 644.67,-989.13 670.99,-932.78"/>
<polygon fill="black" stroke="black" points="674.11,-934.37 675.17,-923.83 667.77,-931.41 674.11,-934.37"/>
</g>
<!-- kernel&#45;&gt;sexp -->
<g id="edge70" class="edge">
<title>kernel&#45;&gt;sexp</title>
<path fill="none" stroke="black" d="M584.44,-1176.6C624.95,-1174.43 702.2,-1170.47 768,-1168.13 827.77,-1166 897.22,-1164.54 939,-1163.77"/>
<polygon fill="black" stroke="black" points="938.82,-1167.27 948.76,-1163.59 938.7,-1160.28 938.82,-1167.27"/>
</g>
<!-- kernel&#45;&gt;store -->
<g id="edge71" class="edge">
<title>kernel&#45;&gt;store</title>
<path fill="none" stroke="black" d="M558.13,-1159.84C568.83,-1048.41 625.39,-464.55 638.75,-429.13 643.79,-415.76 652.23,-402.57 660.49,-391.59"/>
<polygon fill="black" stroke="black" points="663.22,-393.78 666.67,-383.76 657.73,-389.44 663.22,-393.78"/>
</g>
<!-- kv -->
<g id="node24" class="node">
<title>kv</title>
<polygon fill="none" stroke="black" points="226.12,-84.13 172.12,-84.13 172.12,-48.13 226.12,-48.13 226.12,-84.13"/>
<text text-anchor="middle" x="199.12" y="-61.83" font-family="sans-serif" font-size="14.00">kv</text>
</g>
<!-- lean -->
<g id="node25" class="node">
<title>lean</title>
<polygon fill="none" stroke="black" points="87.5,-955.13 33.5,-955.13 33.5,-919.13 87.5,-919.13 87.5,-955.13"/>
<text text-anchor="middle" x="60.5" y="-932.83" font-family="sans-serif" font-size="14.00">lean</text>
</g>
<!-- lisp -->
<g id="node26" class="node">
<title>lisp</title>
<polygon fill="none" stroke="black" points="465.5,-1629.13 411.5,-1629.13 411.5,-1593.13 465.5,-1593.13 465.5,-1629.13"/>
<text text-anchor="middle" x="438.5" y="-1606.83" font-family="sans-serif" font-size="14.00">lisp</text>
</g>
<!-- lisp&#45;&gt;core -->
<g id="edge72" class="edge">
<title>lisp&#45;&gt;core</title>
<path fill="none" stroke="black" d="M461.27,-1629.5C474.24,-1639.78 491.36,-1652.28 508,-1661.13 601.47,-1710.84 634.25,-1701.48 732,-1742.13 748.34,-1748.93 750.73,-1755.26 768,-1759.13 827.31,-1772.43 844.95,-1769.99 904.75,-1759.13 916.46,-1757.01 928.73,-1753.08 939.77,-1748.87"/>
<polygon fill="black" stroke="black" points="940.94,-1752.17 948.91,-1745.18 938.33,-1745.68 940.94,-1752.17"/>
</g>
<!-- lisp&#45;&gt;hol&#45;api -->
<g id="edge73" class="edge">
<title>lisp&#45;&gt;hol&#45;api</title>
<path fill="none" stroke="black" d="M448.71,-1629.49C468.66,-1669.26 516.03,-1763.69 539.98,-1811.43"/>
<polygon fill="black" stroke="black" points="536.83,-1812.97 544.45,-1820.34 543.09,-1809.83 536.83,-1812.97"/>
</g>
<!-- lisp&#45;&gt;hol&#45;eval -->
<g id="edge74" class="edge">
<title>lisp&#45;&gt;hol&#45;eval</title>
<path fill="none" stroke="black" d="M465.84,-1609.33C478.57,-1608.52 494.07,-1607.64 508,-1607.13 608.53,-1603.43 726.53,-1602.46 789.8,-1602.21"/>
<polygon fill="black" stroke="black" points="789.45,-1605.71 799.44,-1602.18 789.43,-1598.71 789.45,-1605.71"/>
</g>
<!-- lisp&#45;&gt;init -->
<g id="edge75" class="edge">
<title>lisp&#45;&gt;init</title>
<path fill="none" stroke="black" d="M465.72,-1595.8C478.29,-1588.75 493.69,-1580.55 508,-1574.13 555,-1553.05 611.24,-1533.59 647.36,-1521.8"/>
<polygon fill="black" stroke="black" points="648.02,-1525.26 656.46,-1518.85 645.87,-1518.6 648.02,-1525.26"/>
</g>
<!-- repl&#45;core -->
<g id="node43" class="node">
<title>repl&#45;core</title>
<polygon fill="none" stroke="black" points="594.5,-1652.13 516.25,-1652.13 516.25,-1616.13 594.5,-1616.13 594.5,-1652.13"/>
<text text-anchor="middle" x="555.38" y="-1629.83" font-family="sans-serif" font-size="14.00">repl&#45;core</text>
</g>
<!-- lisp&#45;&gt;repl&#45;core -->
<g id="edge76" class="edge">
<title>lisp&#45;&gt;repl&#45;core</title>
<path fill="none" stroke="black" d="M465.85,-1616.41C477.45,-1618.73 491.46,-1621.53 504.88,-1624.22"/>
<polygon fill="black" stroke="black" points="503.97,-1627.61 514.46,-1626.14 505.34,-1620.75 503.97,-1627.61"/>
</g>
<!-- lisp&#45;&gt;sexp -->
<g id="edge77" class="edge">
<title>lisp&#45;&gt;sexp</title>
<path fill="none" stroke="black" d="M440.95,-1592.96C446.23,-1530.93 466.4,-1328.7 508,-1281.13 528.01,-1258.25 738.37,-1202.91 768,-1196.13 827.18,-1182.59 897.06,-1172.76 939.06,-1167.51"/>
<polygon fill="black" stroke="black" points="939.39,-1170.99 948.88,-1166.3 938.53,-1164.05 939.39,-1170.99"/>
</g>
<!-- llm -->
<g id="node27" class="node">
<title>llm</title>
<polygon fill="none" stroke="black" points="226.12,-534.13 172.12,-534.13 172.12,-498.13 226.12,-498.13 226.12,-534.13"/>
<text text-anchor="middle" x="199.12" y="-511.83" font-family="sans-serif" font-size="14.00">llm</text>
</g>
<!-- llm&#45;&gt;proto -->
<g id="edge78" class="edge">
<title>llm&#45;&gt;proto</title>
<path fill="none" stroke="black" d="M199.91,-534.5C200.23,-586.38 207.48,-736.37 277.25,-831.13 279.77,-834.56 282.87,-837.63 286.24,-840.37"/>
<polygon fill="black" stroke="black" points="284.17,-843.19 294.39,-845.98 288.14,-837.42 284.17,-843.19"/>
</g>
<!-- lsp&#45;&gt;sexp -->
<g id="edge79" class="edge">
<title>lsp&#45;&gt;sexp</title>
<path fill="none" stroke="black" d="M863.75,-1011.97C877.29,-1016.06 893.29,-1022.7 904.75,-1033.13 930.62,-1056.68 923.76,-1072.55 940.75,-1103.13 946.57,-1113.61 953.23,-1124.92 959.23,-1134.88"/>
<polygon fill="black" stroke="black" points="956.2,-1136.64 964.38,-1143.37 962.18,-1133 956.2,-1136.64"/>
</g>
<!-- lsp&#45;&gt;wasm -->
<g id="edge80" class="edge">
<title>lsp&#45;&gt;wasm</title>
<path fill="none" stroke="black" d="M863.59,-988.22C878.32,-976.62 895.56,-960.16 904.75,-941.13 920.45,-908.64 963.8,-366.78 974.31,-232.87"/>
<polygon fill="black" stroke="black" points="977.78,-233.3 975.08,-223.06 970.81,-232.76 977.78,-233.3"/>
</g>
<!-- metamath&#45;&gt;parse -->
<g id="edge81" class="edge">
<title>metamath&#45;&gt;parse</title>
<path fill="none" stroke="black" d="M877.11,-1046.42C886.42,-1042.6 896.14,-1038.12 904.75,-1033.13 965.22,-998.1 1027.28,-944.72 1061.83,-913.14"/>
<polygon fill="black" stroke="black" points="1063.91,-915.98 1068.89,-906.63 1059.17,-910.84 1063.91,-915.98"/>
</g>
<!-- metamath&#45;&gt;sexp -->
<g id="edge82" class="edge">
<title>metamath&#45;&gt;sexp</title>
<path fill="none" stroke="black" d="M877.09,-1076.28C886.51,-1080.83 896.27,-1086.19 904.75,-1092.13 922.71,-1104.72 940.27,-1121.95 953.54,-1136.29"/>
<polygon fill="black" stroke="black" points="950.9,-1138.58 960.2,-1143.65 956.09,-1133.88 950.9,-1138.58"/>
</g>
<!-- multiformat -->
<g id="node30" class="node">
<title>multiformat</title>
<polygon fill="none" stroke="black" points="730.5,-474.13 640.25,-474.13 640.25,-438.13 730.5,-438.13 730.5,-474.13"/>
<text text-anchor="middle" x="685.38" y="-451.83" font-family="sans-serif" font-size="14.00">multiformat</text>
</g>
<!-- multiformat&#45;&gt;acset -->
<g id="edge83" class="edge">
<title>multiformat&#45;&gt;acset</title>
<path fill="none" stroke="black" d="M730.68,-469.81C752.25,-476.47 777.88,-484.38 798.39,-490.71"/>
<polygon fill="black" stroke="black" points="797.16,-494 807.74,-493.6 799.22,-487.31 797.16,-494"/>
</g>
<!-- multiformat&#45;&gt;hash -->
<g id="edge84" class="edge">
<title>multiformat&#45;&gt;hash</title>
<path fill="none" stroke="black" d="M716.4,-474.34C721.95,-478.47 727.43,-483.13 732,-488.13 774.58,-534.75 807.3,-601.87 823.71,-639.59"/>
<polygon fill="black" stroke="black" points="820.35,-640.64 827.49,-648.46 826.79,-637.89 820.35,-640.64"/>
</g>
<!-- multiformat&#45;&gt;parse -->
<g id="edge85" class="edge">
<title>multiformat&#45;&gt;parse</title>
<path fill="none" stroke="black" d="M730.79,-449.28C777.49,-444.39 851.44,-443.42 904.75,-475.13 1044.75,-558.42 1079.12,-778.02 1087.09,-857.71"/>
<polygon fill="black" stroke="black" points="1083.58,-857.7 1087.99,-867.33 1090.55,-857.05 1083.58,-857.7"/>
</g>
<!-- object&#45;&gt;hash -->
<g id="edge86" class="edge">
<title>object&#45;&gt;hash</title>
<path fill="none" stroke="black" d="M714.32,-891.05C720.66,-887.19 726.99,-882.53 732,-877.13 781.93,-823.31 813,-740.84 826.87,-697.34"/>
<polygon fill="black" stroke="black" points="830.19,-698.44 829.81,-687.85 823.51,-696.37 830.19,-698.44"/>
</g>
<!-- object&#45;&gt;parse -->
<g id="edge87" class="edge">
<title>object&#45;&gt;parse</title>
<path fill="none" stroke="black" d="M714.48,-896.79C730.12,-893.08 750,-888.99 768,-887.13 870.24,-876.6 991.75,-881.22 1051.86,-884.65"/>
<polygon fill="black" stroke="black" points="1051.34,-888.12 1061.53,-885.22 1051.75,-881.13 1051.34,-888.12"/>
</g>
<!-- opentheory&#45;&gt;hol -->
<g id="edge88" class="edge">
<title>opentheory&#45;&gt;hol</title>
<path fill="none" stroke="black" d="M369.01,-1870.59C424.07,-1869.89 520.28,-1868.61 602.75,-1867.13 671.53,-1865.9 751.73,-1864.09 797.73,-1863.02"/>
<polygon fill="black" stroke="black" points="797.78,-1866.52 807.7,-1862.79 797.62,-1859.53 797.78,-1866.52"/>
</g>
<!-- parquet -->
<g id="node33" class="node">
<title>parquet</title>
<polygon fill="none" stroke="black" points="472,-572.13 405,-572.13 405,-536.13 472,-536.13 472,-572.13"/>
<text text-anchor="middle" x="438.5" y="-549.83" font-family="sans-serif" font-size="14.00">parquet</text>
</g>
<!-- parquet&#45;&gt;arrow -->
<g id="edge89" class="edge">
<title>parquet&#45;&gt;arrow</title>
<path fill="none" stroke="black" d="M472.42,-560.44C486.33,-563.1 502.61,-566.22 516.98,-568.97"/>
<polygon fill="black" stroke="black" points="516.04,-572.35 526.52,-570.8 517.36,-565.48 516.04,-572.35"/>
</g>
<!-- proptest -->
<g id="node35" class="node">
<title>proptest</title>
<polygon fill="none" stroke="black" points="95.88,-1009.13 25.12,-1009.13 25.12,-973.13 95.88,-973.13 95.88,-1009.13"/>
<text text-anchor="middle" x="60.5" y="-986.83" font-family="sans-serif" font-size="14.00">proptest</text>
</g>
<!-- pure&#45;trusted -->
<g id="node39" class="node">
<title>pure&#45;trusted</title>
<polygon fill="#ffd6d6" stroke="black" points="1355.5,-1712.13 1256.25,-1712.13 1256.25,-1676.13 1355.5,-1676.13 1355.5,-1712.13"/>
<text text-anchor="middle" x="1305.88" y="-1689.83" font-family="sans-serif" font-size="14.00">pure&#45;trusted</text>
</g>
<!-- pure&#45;&gt;pure&#45;trusted -->
<g id="edge90" class="edge">
<title>pure&#45;&gt;pure&#45;trusted</title>
<path fill="none" stroke="black" d="M1220.75,-1694.13C1228.04,-1694.13 1236.27,-1694.13 1244.64,-1694.13"/>
<polygon fill="black" stroke="black" points="1244.57,-1697.63 1254.57,-1694.13 1244.57,-1690.63 1244.57,-1697.63"/>
</g>
<!-- pure&#45;eval&#45;&gt;pure -->
<g id="edge91" class="edge">
<title>pure&#45;eval&#45;&gt;pure</title>
<path fill="none" stroke="black" d="M1111.3,-1620.31C1126.27,-1633.95 1146.97,-1652.83 1163.69,-1668.08"/>
<polygon fill="black" stroke="black" points="1161.15,-1670.51 1170.9,-1674.66 1165.87,-1665.33 1161.15,-1670.51"/>
</g>
<!-- pure&#45;eval&#45;&gt;types -->
<g id="edge92" class="edge">
<title>pure&#45;eval&#45;&gt;types</title>
<path fill="none" stroke="black" d="M1130.49,-1598.65C1182.21,-1593.75 1276.08,-1583.87 1355.5,-1570.13 1363.48,-1568.75 1371.98,-1567.01 1380.05,-1565.23"/>
<polygon fill="black" stroke="black" points="1380.62,-1568.69 1389.59,-1563.06 1379.06,-1561.87 1380.62,-1568.69"/>
</g>
<!-- pure&#45;trusted&#45;&gt;types -->
<g id="edge93" class="edge">
<title>pure&#45;trusted&#45;&gt;types</title>
<path fill="none" stroke="black" d="M1339.38,-1675.77C1345.12,-1671.71 1350.77,-1667.12 1355.5,-1662.13 1377.19,-1639.27 1394.5,-1607.47 1405.26,-1584.67"/>
<polygon fill="black" stroke="black" points="1408.4,-1586.21 1409.38,-1575.66 1402.04,-1583.3 1408.4,-1586.21"/>
</g>
<!-- python -->
<g id="node40" class="node">
<title>python</title>
<polygon fill="none" stroke="black" points="91.38,-336.13 29.62,-336.13 29.62,-300.13 91.38,-300.13 91.38,-336.13"/>
<text text-anchor="middle" x="60.5" y="-313.83" font-family="sans-serif" font-size="14.00">python</text>
</g>
<!-- python&#45;&gt;crypto&#45;sig -->
<g id="edge94" class="edge">
<title>python&#45;&gt;crypto&#45;sig</title>
<path fill="none" stroke="black" d="M91.82,-307.92C107.72,-302.57 127.63,-295.87 145.92,-289.71"/>
<polygon fill="black" stroke="black" points="146.95,-293.05 155.31,-286.55 144.72,-286.42 146.95,-293.05"/>
</g>
<!-- python&#45;&gt;git -->
<g id="edge95" class="edge">
<title>python&#45;&gt;git</title>
<path fill="none" stroke="black" d="M78.05,-299.88C95.61,-282 125.17,-255.9 157,-245.13 192.47,-233.13 207.03,-229.94 241.25,-245.13 329.27,-284.21 394.55,-384.42 422.5,-433.79"/>
<polygon fill="black" stroke="black" points="419.4,-435.41 427.31,-442.46 425.52,-432.02 419.4,-435.41"/>
</g>
<!-- python&#45;&gt;graph -->
<g id="edge96" class="edge">
<title>python&#45;&gt;graph</title>
<path fill="none" stroke="black" d="M71.23,-300.02C85.94,-274.8 116.49,-230.16 157,-212.13 238,-176.08 345.13,-202.21 400.64,-220.47"/>
<polygon fill="black" stroke="black" points="399.32,-223.72 409.91,-223.62 401.57,-217.09 399.32,-223.72"/>
</g>
<!-- python&#45;&gt;hash -->
<g id="edge97" class="edge">
<title>python&#45;&gt;hash</title>
<path fill="none" stroke="black" d="M91.8,-317.8C127.86,-318.02 189.68,-320.34 241.25,-332.13 409.37,-370.58 464.35,-370.24 602.75,-473.13 623.58,-488.62 617.82,-503.78 638.75,-519.13 674.44,-545.32 695.38,-529.26 732,-554.13 766.69,-577.69 797.7,-615.21 816.5,-640.72"/>
<polygon fill="black" stroke="black" points="813.52,-642.57 822.21,-648.63 819.19,-638.47 813.52,-642.57"/>
</g>
<!-- python&#45;&gt;kv -->
<g id="edge98" class="edge">
<title>python&#45;&gt;kv</title>
<path fill="none" stroke="black" d="M66.12,-299.71C76.83,-259.74 106.36,-163.45 157,-98.13 158.97,-95.59 161.2,-93.13 163.56,-90.78"/>
<polygon fill="black" stroke="black" points="165.7,-93.56 170.84,-84.29 161.05,-88.33 165.7,-93.56"/>
</g>
<!-- python&#45;&gt;llm -->
<g id="edge99" class="edge">
<title>python&#45;&gt;llm</title>
<path fill="none" stroke="black" d="M74.11,-336.4C98.15,-371.25 150.69,-447.39 179.05,-488.49"/>
<polygon fill="black" stroke="black" points="176.13,-490.42 184.69,-496.66 181.89,-486.44 176.13,-490.42"/>
</g>
<!-- python&#45;&gt;object -->
<g id="edge100" class="edge">
<title>python&#45;&gt;object</title>
<path fill="none" stroke="black" d="M88.75,-336.58C128.3,-364.8 201.26,-422.46 241.25,-489.13 272.09,-540.55 242.88,-570.01 277.25,-619.13 375.12,-759.01 564.92,-852.92 646.07,-888.36"/>
<polygon fill="black" stroke="black" points="644.36,-891.43 654.93,-892.18 647.13,-885 644.36,-891.43"/>
</g>
<!-- python&#45;&gt;repl -->
<g id="edge101" class="edge">
<title>python&#45;&gt;repl</title>
<path fill="none" stroke="black" d="M91.63,-320.76C130.99,-325.73 199.75,-339.95 241.25,-380.13 292.97,-430.21 312.06,-516.82 318.75,-562.29"/>
<polygon fill="black" stroke="black" points="315.28,-562.76 320.09,-572.2 322.22,-561.82 315.28,-562.76"/>
</g>
<!-- sat -->
<g id="node44" class="node">
<title>sat</title>
<polygon fill="none" stroke="black" points="863.38,-932.13 809.38,-932.13 809.38,-896.13 863.38,-896.13 863.38,-932.13"/>
<text text-anchor="middle" x="836.38" y="-909.83" font-family="sans-serif" font-size="14.00">sat</text>
</g>
<!-- python&#45;&gt;sat -->
<g id="edge102" class="edge">
<title>python&#45;&gt;sat</title>
<path fill="none" stroke="black" d="M63.25,-336.51C72.54,-432.53 117.18,-873.96 157,-919.13 289.9,-1069.88 403,-1017.27 602.75,-995.13 661.26,-988.65 676.56,-985.95 732,-966.13 755.09,-957.88 779.66,-945.67 799.06,-935.16"/>
<polygon fill="black" stroke="black" points="800.58,-938.32 807.65,-930.42 797.2,-932.19 800.58,-938.32"/>
</g>
<!-- python&#45;&gt;serve -->
<g id="edge103" class="edge">
<title>python&#45;&gt;serve</title>
<path fill="none" stroke="black" d="M65.89,-336.58C85.68,-419.74 166.7,-760.1 191.12,-862.71"/>
<polygon fill="black" stroke="black" points="187.68,-863.36 193.4,-872.28 194.49,-861.74 187.68,-863.36"/>
</g>
<!-- python&#45;&gt;sexp -->
<g id="edge104" class="edge">
<title>python&#45;&gt;sexp</title>
<path fill="none" stroke="black" d="M63.48,-336.38C74.35,-435.9 127.45,-910.79 157,-969.13 203.59,-1061.13 219,-1132.13 322.12,-1132.13 322.12,-1132.13 322.12,-1132.13 439.5,-1132.13 627.29,-1132.13 851.39,-1151.25 938.96,-1159.46"/>
<polygon fill="black" stroke="black" points="938.59,-1162.94 948.88,-1160.4 939.26,-1155.97 938.59,-1162.94"/>
</g>
<!-- python&#45;&gt;shell -->
<g id="edge105" class="edge">
<title>python&#45;&gt;shell</title>
<path fill="none" stroke="black" d="M63.89,-336.58C72.18,-400.79 100.33,-620.44 121,-802.13 129.69,-878.5 102.9,-1091.53 157,-1146.13 190.18,-1179.62 331.89,-1180.85 400.28,-1179.39"/>
<polygon fill="black" stroke="black" points="399.95,-1182.9 409.86,-1179.15 399.78,-1175.9 399.95,-1182.9"/>
</g>
<!-- python&#45;&gt;store -->
<g id="edge106" class="edge">
<title>python&#45;&gt;store</title>
<path fill="none" stroke="black" d="M70.04,-299.67C84.05,-271.49 114.66,-218.1 157,-190.13 220.01,-148.51 246.61,-150.13 322.12,-150.13 322.12,-150.13 322.12,-150.13 439.5,-150.13 525.53,-150.13 546.91,-188.69 602.75,-254.13 628.85,-284.72 612.15,-306.98 638.75,-337.13 641.68,-340.45 645.12,-343.48 648.78,-346.21"/>
<polygon fill="black" stroke="black" points="646.6,-348.96 656.87,-351.53 650.44,-343.11 646.6,-348.96"/>
</g>
<!-- python&#45;&gt;wasm -->
<g id="edge107" class="edge">
<title>python&#45;&gt;wasm</title>
<path fill="none" stroke="black" d="M61.56,-299.79C62.79,-249.04 73.85,-106.07 157,-39.13 214.54,7.19 248.25,-20.13 322.12,-20.13 322.12,-20.13 322.12,-20.13 439.5,-20.13 648.81,-20.13 728.97,20.49 904.75,-93.13 912.8,-98.33 941.24,-144.09 959.84,-174.92"/>
<polygon fill="black" stroke="black" points="956.8,-176.66 964.95,-183.43 962.8,-173.06 956.8,-176.66"/>
</g>
<!-- wasm&#45;store -->
<g id="node57" class="node">
<title>wasm&#45;store</title>
<polygon fill="none" stroke="black" points="602.75,-122.13 508,-122.13 508,-86.13 602.75,-86.13 602.75,-122.13"/>
<text text-anchor="middle" x="555.38" y="-99.83" font-family="sans-serif" font-size="14.00">wasm&#45;store</text>
</g>
<!-- python&#45;&gt;wasm&#45;store -->
<g id="edge108" class="edge">
<title>python&#45;&gt;wasm&#45;store</title>
<path fill="none" stroke="black" d="M65.03,-299.76C73.41,-261.77 98.35,-174.89 157,-136.13 260.4,-67.8 413.59,-79.41 496.31,-92.55"/>
<polygon fill="black" stroke="black" points="495.57,-95.98 506.01,-94.16 496.72,-89.07 495.57,-95.98"/>
</g>
<!-- repl&#45;&gt;arrow -->
<g id="edge109" class="edge">
<title>repl&#45;&gt;arrow</title>
<path fill="none" stroke="black" d="M350.54,-590.3C391.29,-587.47 469.66,-582.02 516.46,-578.77"/>
<polygon fill="black" stroke="black" points="516.67,-582.26 526.41,-578.08 516.19,-575.28 516.67,-582.26"/>
</g>
<!-- repl&#45;&gt;forsp -->
<g id="edge110" class="edge">
<title>repl&#45;&gt;forsp</title>
<path fill="none" stroke="black" d="M349.74,-610.48C413.13,-655.87 577.35,-773.48 649.5,-825.16"/>
<polygon fill="black" stroke="black" points="647.25,-827.85 657.41,-830.82 651.32,-822.16 647.25,-827.85"/>
</g>
<!-- repl&#45;&gt;git -->
<g id="edge111" class="edge">
<title>repl&#45;&gt;git</title>
<path fill="none" stroke="black" d="M340.63,-573.98C349.25,-564.35 359.87,-552.25 369,-541.13 385.7,-520.8 387.58,-513.86 405,-494.13 406.66,-492.25 408.41,-490.35 410.2,-488.45"/>
<polygon fill="black" stroke="black" points="412.6,-491 417.08,-481.4 407.59,-486.11 412.6,-491"/>
</g>
<!-- repl&#45;&gt;graph -->
<g id="edge112" class="edge">
<title>repl&#45;&gt;graph</title>
<path fill="none" stroke="black" d="M329.9,-573.89C348.33,-515.71 405.78,-334.28 428.31,-263.15"/>
<polygon fill="black" stroke="black" points="431.59,-264.37 431.28,-253.78 424.92,-262.26 431.59,-264.37"/>
</g>
<!-- repl&#45;&gt;hash -->
<g id="edge113" class="edge">
<title>repl&#45;&gt;hash</title>
<path fill="none" stroke="black" d="M339.95,-573.79C354.88,-557.99 378.83,-536.34 405,-527.13 433.09,-517.24 442.33,-524.65 472,-527.13 530.72,-532.04 551.62,-519.84 602.75,-549.13 624.38,-561.52 618.48,-577.62 638.75,-592.13 688.26,-627.57 756.45,-649.05 798.14,-659.74"/>
<polygon fill="black" stroke="black" points="797.14,-663.1 807.69,-662.11 798.83,-656.3 797.14,-663.1"/>
</g>
<!-- repl&#45;&gt;init -->
<g id="edge114" class="edge">
<title>repl&#45;&gt;init</title>
<path fill="none" stroke="black" d="M329.41,-610.36C349.55,-680.11 422.76,-936.87 472,-1151.13 490.67,-1232.34 456.32,-1269.77 508,-1335.13 536.68,-1371.41 571.28,-1344.25 602.75,-1378.13 634.32,-1412.13 610.99,-1438.95 638.75,-1476.13 641.76,-1480.16 645.37,-1483.93 649.23,-1487.38"/>
<polygon fill="black" stroke="black" points="646.78,-1489.91 656.76,-1493.47 651.18,-1484.46 646.78,-1489.91"/>
</g>
<!-- repl&#45;&gt;object -->
<g id="edge115" class="edge">
<title>repl&#45;&gt;object</title>
<path fill="none" stroke="black" d="M341.79,-610.54C387.91,-658.03 516.84,-787.27 638.75,-877.13 641.32,-879.03 644.03,-880.9 646.8,-882.73"/>
<polygon fill="black" stroke="black" points="644.69,-885.54 655.02,-887.92 648.43,-879.62 644.69,-885.54"/>
</g>
<!-- repl&#45;&gt;parquet -->
<g id="edge116" class="edge">
<title>repl&#45;&gt;parquet</title>
<path fill="none" stroke="black" d="M350.42,-583.32C363.35,-578.99 379.27,-573.65 393.95,-568.73"/>
<polygon fill="black" stroke="black" points="395.05,-572.05 403.42,-565.55 392.83,-565.41 395.05,-572.05"/>
</g>
<!-- repl&#45;&gt;shell -->
<g id="edge117" class="edge">
<title>repl&#45;&gt;shell</title>
<path fill="none" stroke="black" d="M329,-610.42C337.73,-643.52 356.3,-715.63 369,-777.13 397.5,-915.18 423.19,-1081.7 433.14,-1148.4"/>
<polygon fill="black" stroke="black" points="429.66,-1148.79 434.59,-1158.16 436.58,-1147.76 429.66,-1148.79"/>
</g>
<!-- repl&#45;&gt;wasm -->
<g id="edge118" class="edge">
<title>repl&#45;&gt;wasm</title>
<path fill="none" stroke="black" d="M330.03,-573.84C340.85,-542.52 366.35,-477.89 405,-435.13 488.1,-343.2 523.14,-327.76 638.75,-283.13 750.47,-240 790.99,-277.56 904.75,-240.13 916.67,-236.21 929.03,-230.51 940.08,-224.76"/>
<polygon fill="black" stroke="black" points="941.74,-227.84 948.87,-220 938.41,-221.68 941.74,-227.84"/>
</g>
<!-- sat&#45;&gt;parse -->
<g id="edge119" class="edge">
<title>sat&#45;&gt;parse</title>
<path fill="none" stroke="black" d="M863.87,-911.29C908.89,-906.47 1000.43,-896.66 1051.97,-891.14"/>
<polygon fill="black" stroke="black" points="1052.16,-894.64 1061.73,-890.09 1051.42,-887.68 1052.16,-894.64"/>
</g>
<!-- sat&#45;&gt;types -->
<g id="edge120" class="edge">
<title>sat&#45;&gt;types</title>
<path fill="none" stroke="black" d="M863.57,-920.69C876.44,-924.49 891.91,-929.97 904.75,-937.13 997.57,-988.91 983.09,-1089.13 1089.38,-1089.13 1089.38,-1089.13 1089.38,-1089.13 1194.25,-1089.13 1388.98,-1089.13 1414,-1423.73 1417.1,-1526.48"/>
<polygon fill="black" stroke="black" points="1413.6,-1526.4 1417.34,-1536.31 1420.59,-1526.23 1413.6,-1526.4"/>
</g>
<!-- sat&#45;&gt;wasm -->
<g id="edge121" class="edge">
<title>sat&#45;&gt;wasm</title>
<path fill="none" stroke="black" d="M844.12,-895.64C857.53,-858.26 887.69,-770.8 904.75,-695.13 943.86,-521.68 966.56,-308.83 973.94,-232.28"/>
<polygon fill="black" stroke="black" points="977.39,-232.98 974.85,-222.69 970.42,-232.32 977.39,-232.98"/>
</g>
<!-- serve&#45;&gt;core -->
<g id="edge122" class="edge">
<title>serve&#45;&gt;core</title>
<path fill="none" stroke="black" d="M201.07,-910.58C207.99,-1035.79 255.69,-1756.13 437.5,-1756.13 437.5,-1756.13 437.5,-1756.13 556.38,-1756.13 711.52,-1756.13 755.85,-1821.7 904.75,-1778.13 919.45,-1773.83 933.99,-1765.5 946.12,-1757.1"/>
<polygon fill="black" stroke="black" points="948.03,-1760.04 954.05,-1751.32 943.91,-1754.38 948.03,-1760.04"/>
</g>
<!-- serve&#45;&gt;git -->
<g id="edge123" class="edge">
<title>serve&#45;&gt;git</title>
<path fill="none" stroke="black" d="M199.85,-873.94C199.93,-821.11 206.52,-665.14 277.25,-565.13 308.1,-521.51 363.83,-491.93 400.76,-476.03"/>
<polygon fill="black" stroke="black" points="401.82,-479.38 409.7,-472.31 399.12,-472.92 401.82,-479.38"/>
</g>
<!-- serve&#45;&gt;hash -->
<g id="edge124" class="edge">
<title>serve&#45;&gt;hash</title>
<path fill="none" stroke="black" d="M226.42,-904.62C309.48,-942.07 570.33,-1044.07 732,-931.13 771.96,-903.22 812.16,-760.2 828.16,-697.57"/>
<polygon fill="black" stroke="black" points="831.53,-698.54 830.58,-687.98 824.74,-696.83 831.53,-698.54"/>
</g>
<!-- serve&#45;&gt;init -->
<g id="edge125" class="edge">
<title>serve&#45;&gt;init</title>
<path fill="none" stroke="black" d="M205.01,-910.4C215.16,-946.67 240.69,-1029.66 277.25,-1092.13 358.53,-1231.01 393.4,-1258.17 508,-1371.13 552.99,-1415.47 611.68,-1459.37 648.71,-1485.62"/>
<polygon fill="black" stroke="black" points="646.66,-1488.45 656.85,-1491.35 650.69,-1482.73 646.66,-1488.45"/>
</g>
<!-- serve&#45;&gt;metamath -->
<g id="edge126" class="edge">
<title>serve&#45;&gt;metamath</title>
<path fill="none" stroke="black" d="M218.37,-910.41C251.84,-942.51 326.82,-1007.88 405,-1032.13 537.03,-1073.09 702.46,-1069.54 784.45,-1064.37"/>
<polygon fill="black" stroke="black" points="784.43,-1067.88 794.18,-1063.72 783.97,-1060.89 784.43,-1067.88"/>
</g>
<!-- serve&#45;&gt;object -->
<g id="edge127" class="edge">
<title>serve&#45;&gt;object</title>
<path fill="none" stroke="black" d="M226.53,-896.56C290.92,-906.78 461.07,-930.19 602.75,-918.13 616.71,-916.94 631.87,-914.63 645.3,-912.22"/>
<polygon fill="black" stroke="black" points="645.9,-915.67 655.08,-910.39 644.61,-908.79 645.9,-915.67"/>
</g>
<!-- serve&#45;&gt;proto -->
<g id="edge128" class="edge">
<title>serve&#45;&gt;proto</title>
<path fill="none" stroke="black" d="M226.6,-884.75C243.62,-880.01 266,-873.77 284.82,-868.53"/>
<polygon fill="black" stroke="black" points="285.55,-871.96 294.25,-865.9 283.67,-865.21 285.55,-871.96"/>
</g>
<!-- serve&#45;&gt;repl -->
<g id="edge129" class="edge">
<title>serve&#45;&gt;repl</title>
<path fill="none" stroke="black" d="M207.57,-873.82C228.08,-823.4 285.48,-682.25 310.37,-621.05"/>
<polygon fill="black" stroke="black" points="313.52,-622.57 314.05,-611.99 307.04,-619.94 313.52,-622.57"/>
</g>
<!-- serve&#45;&gt;shell -->
<g id="edge130" class="edge">
<title>serve&#45;&gt;shell</title>
<path fill="none" stroke="black" d="M207.89,-910.52C220.19,-938.44 245.98,-992.47 277.25,-1032.13 315.01,-1080.02 369.16,-1125.77 403.83,-1152.91"/>
<polygon fill="black" stroke="black" points="401.39,-1155.44 411.44,-1158.8 405.68,-1149.91 401.39,-1155.44"/>
</g>
<!-- serve&#45;&gt;store -->
<g id="edge131" class="edge">
<title>serve&#45;&gt;store</title>
<path fill="none" stroke="black" d="M201.33,-874.03C206.35,-803.63 227.67,-549.05 277.25,-488.13 370.06,-374.09 564.59,-362.42 646.61,-362.88"/>
<polygon fill="black" stroke="black" points="646.54,-366.37 656.59,-363 646.63,-359.38 646.54,-366.37"/>
</g>
<!-- sexp&#45;&gt;parse -->
<g id="edge132" class="edge">
<title>sexp&#45;&gt;parse</title>
<path fill="none" stroke="black" d="M985.89,-1145.02C1004.7,-1098.14 1055.12,-972.5 1077.91,-915.71"/>
<polygon fill="black" stroke="black" points="1081.04,-917.3 1081.52,-906.71 1074.55,-914.69 1081.04,-917.3"/>
</g>
<!-- shell&#45;&gt;hol -->
<g id="edge133" class="edge">
<title>shell&#45;&gt;hol</title>
<path fill="none" stroke="black" d="M445.07,-1196.59C455.69,-1231 480.25,-1306.98 508,-1368.13 557.55,-1477.33 573.18,-1503.74 638.75,-1604.13 696.23,-1692.14 774.41,-1788.96 812.55,-1834.96"/>
<polygon fill="black" stroke="black" points="809.79,-1837.11 818.88,-1842.56 815.17,-1832.63 809.79,-1837.11"/>
</g>
<!-- shell&#45;&gt;kernel -->
<g id="edge134" class="edge">
<title>shell&#45;&gt;kernel</title>
<path fill="none" stroke="black" d="M465.85,-1178.13C480.46,-1178.13 498.9,-1178.13 515.17,-1178.13"/>
<polygon fill="black" stroke="black" points="515.03,-1181.63 525.03,-1178.13 515.03,-1174.63 515.03,-1181.63"/>
</g>
<!-- smt&#45;&gt;sat -->
<g id="edge135" class="edge">
<title>smt&#45;&gt;sat</title>
<path fill="none" stroke="black" d="M691.11,-1243.67C706.33,-1184.58 753.89,-1002.57 768,-979.13 776.84,-964.46 789.82,-950.84 802.04,-939.91"/>
<polygon fill="black" stroke="black" points="804.28,-942.6 809.58,-933.43 799.71,-937.29 804.28,-942.6"/>
</g>
<!-- smt&#45;&gt;sexp -->
<g id="edge136" class="edge">
<title>smt&#45;&gt;sexp</title>
<path fill="none" stroke="black" d="M712.64,-1255.44C754.05,-1244.62 836.78,-1221.87 904.75,-1196.13 916.43,-1191.71 928.88,-1186.27 940.08,-1181.08"/>
<polygon fill="black" stroke="black" points="941.44,-1184.31 949,-1176.88 938.46,-1177.98 941.44,-1184.31"/>
</g>
<!-- smt&#45;&gt;types -->
<g id="edge137" class="edge">
<title>smt&#45;&gt;types</title>
<path fill="none" stroke="black" d="M694.35,-1280.28C706.36,-1305.14 731.6,-1349.01 768,-1369.13 849.49,-1414.18 883.52,-1388.13 976.62,-1388.13 976.62,-1388.13 976.62,-1388.13 1194.25,-1388.13 1266.71,-1388.13 1298.08,-1367.94 1355.5,-1412.13 1391.62,-1439.93 1407.01,-1492.97 1413.34,-1526.34"/>
<polygon fill="black" stroke="black" points="1409.89,-1526.9 1415.03,-1536.16 1416.79,-1525.72 1409.89,-1526.9"/>
</g>
<!-- spectec&#45;&gt;grammar -->
<g id="edge138" class="edge">
<title>spectec&#45;&gt;grammar</title>
<path fill="none" stroke="black" d="M871.44,-1538.84C888.94,-1534.06 910.54,-1528.17 929.6,-1522.97"/>
<polygon fill="black" stroke="black" points="930.29,-1526.4 939.02,-1520.39 928.45,-1519.65 930.29,-1526.4"/>
</g>
<!-- store&#45;&gt;hash -->
<g id="edge139" class="edge">
<title>store&#45;&gt;hash</title>
<path fill="none" stroke="black" d="M701.36,-382.62C711.02,-395.19 723.36,-412.49 732,-429.13 753.76,-471.06 749.67,-485.6 768,-529.13 784.44,-568.19 806.26,-611.99 820.55,-639.8"/>
<polygon fill="black" stroke="black" points="817.41,-641.36 825.12,-648.63 823.63,-638.14 817.41,-641.36"/>
</g>
<!-- store&#45;&gt;json -->
<g id="edge140" class="edge">
<title>store&#45;&gt;json</title>
<path fill="none" stroke="black" d="M712.67,-354.6C736.43,-345.99 771.65,-333.23 798.27,-323.58"/>
<polygon fill="black" stroke="black" points="799.46,-326.87 807.67,-320.17 797.08,-320.29 799.46,-326.87"/>
</g>
<!-- store&#45;&gt;sqlite -->
<g id="edge141" class="edge">
<title>store&#45;&gt;sqlite</title>
<path fill="none" stroke="black" d="M712.67,-364.13C736.32,-364.13 771.33,-364.13 797.91,-364.13"/>
<polygon fill="black" stroke="black" points="797.58,-367.63 807.58,-364.13 797.58,-360.63 797.58,-367.63"/>
</g>
<!-- tcb&#45;db -->
<g id="node52" class="node">
<title>tcb&#45;db</title>
<polygon fill="none" stroke="black" points="715.5,-328.13 655.25,-328.13 655.25,-292.13 715.5,-292.13 715.5,-328.13"/>
<text text-anchor="middle" x="685.38" y="-305.83" font-family="sans-serif" font-size="14.00">tcb&#45;db</text>
</g>
<!-- tcb&#45;db&#45;&gt;json -->
<g id="edge142" class="edge">
<title>tcb&#45;db&#45;&gt;json</title>
<path fill="none" stroke="black" d="M715.81,-310.13C739.24,-310.13 772.19,-310.13 797.57,-310.13"/>
<polygon fill="black" stroke="black" points="797.48,-313.63 807.48,-310.13 797.48,-306.63 797.48,-313.63"/>
</g>
<!-- tcb&#45;db&#45;&gt;sqlite -->
<g id="edge143" class="edge">
<title>tcb&#45;db&#45;&gt;sqlite</title>
<path fill="none" stroke="black" d="M715.81,-320.8C739.45,-329.37 772.79,-341.45 798.26,-350.68"/>
<polygon fill="black" stroke="black" points="796.98,-353.94 807.57,-354.06 799.36,-347.36 796.98,-353.94"/>
</g>
<!-- wasm&#45;build&#45;guest -->
<g id="node55" class="node">
<title>wasm&#45;build&#45;guest</title>
<polygon fill="none" stroke="black" points="904.75,-198.13 768,-198.13 768,-162.13 904.75,-162.13 904.75,-198.13"/>
<text text-anchor="middle" x="836.38" y="-175.83" font-family="sans-serif" font-size="14.00">wasm&#45;build&#45;guest</text>
</g>
<!-- wasm&#45;build&#45;guest&#45;&gt;wasm -->
<g id="edge144" class="edge">
<title>wasm&#45;build&#45;guest&#45;&gt;wasm</title>
<path fill="none" stroke="black" d="M904.96,-191.3C916.64,-193.22 928.4,-195.17 938.92,-196.9"/>
<polygon fill="black" stroke="black" points="938.26,-200.34 948.7,-198.52 939.4,-193.44 938.26,-200.34"/>
</g>
<!-- wasm&#45;spec -->
<g id="node56" class="node">
<title>wasm&#45;spec</title>
<polygon fill="none" stroke="black" points="732,-160.13 638.75,-160.13 638.75,-124.13 732,-124.13 732,-160.13"/>
<text text-anchor="middle" x="685.38" y="-137.83" font-family="sans-serif" font-size="14.00">wasm&#45;spec</text>
</g>
<!-- wasm&#45;spec&#45;&gt;hash -->
<g id="edge145" class="edge">
<title>wasm&#45;spec&#45;&gt;hash</title>
<path fill="none" stroke="black" d="M693.44,-160.55C703.4,-187.22 721.54,-238.28 732,-283.13 757.1,-390.74 735.52,-423.52 768,-529.13 780.44,-569.59 803.15,-613 818.74,-640.34"/>
<polygon fill="black" stroke="black" points="815.53,-641.78 823.57,-648.68 821.59,-638.27 815.53,-641.78"/>
</g>
<!-- wasm&#45;spec&#45;&gt;wasm -->
<g id="edge146" class="edge">
<title>wasm&#45;spec&#45;&gt;wasm</title>
<path fill="none" stroke="black" d="M732.5,-137.24C777.67,-134.1 847.81,-133.69 904.75,-153.13 920.34,-158.46 935.61,-168.23 948.04,-177.74"/>
<polygon fill="black" stroke="black" points="945.77,-180.41 955.77,-183.93 950.15,-174.95 945.77,-180.41"/>
</g>
<!-- wasm&#45;store&#45;&gt;json -->
<g id="edge147" class="edge">
<title>wasm&#45;store&#45;&gt;json</title>
<path fill="none" stroke="black" d="M584.29,-122.47C590.49,-126.8 596.94,-131.5 602.75,-136.13 619.72,-149.66 621.9,-155.45 638.75,-169.13 692.98,-213.16 759.72,-259.49 799.84,-286.54"/>
<polygon fill="black" stroke="black" points="797.69,-289.32 807.94,-291.99 801.59,-283.51 797.69,-289.32"/>
</g>
<!-- wasm&#45;store&#45;&gt;store -->
<g id="edge148" class="edge">
<title>wasm&#45;store&#45;&gt;store</title>
<path fill="none" stroke="black" d="M590.25,-122.63C595.05,-126.53 599.47,-131.03 602.75,-136.13 651.88,-212.44 587,-262.58 638.75,-337.13 641.47,-341.04 644.95,-344.48 648.78,-347.47"/>
<polygon fill="black" stroke="black" points="646.6,-350.23 656.87,-352.82 650.46,-344.39 646.6,-350.23"/>
</g>
<!-- wasm&#45;store&#45;&gt;wasm -->
<g id="edge149" class="edge">
<title>wasm&#45;store&#45;&gt;wasm</title>
<path fill="none" stroke="black" d="M602.97,-97.7C672.37,-90.27 805.38,-84.43 904.75,-131.13 925.86,-141.05 944.32,-159.9 957.25,-175.83"/>
<polygon fill="black" stroke="black" points="954.37,-177.83 963.27,-183.58 959.9,-173.53 954.37,-177.83"/>
</g>
<!-- web&#45;kernel -->
<g id="node58" class="node">
<title>web&#45;kernel</title>
<polygon fill="none" stroke="black" points="369,-1820.13 277.25,-1820.13 277.25,-1784.13 369,-1784.13 369,-1820.13"/>
<text text-anchor="middle" x="323.12" y="-1797.83" font-family="sans-serif" font-size="14.00">web&#45;kernel</text>
</g>
<!-- web&#45;kernel&#45;&gt;haskell -->
<g id="edge150" class="edge">
<title>web&#45;kernel&#45;&gt;haskell</title>
<path fill="none" stroke="black" d="M369.26,-1802.13C377.92,-1802.13 386.96,-1802.13 395.51,-1802.13"/>
<polygon fill="black" stroke="black" points="395.29,-1805.63 405.29,-1802.13 395.29,-1798.63 395.29,-1805.63"/>
</g>
<!-- web&#45;kernel&#45;&gt;hol&#45;api -->
<g id="edge151" class="edge">
<title>web&#45;kernel&#45;&gt;hol&#45;api</title>
<path fill="none" stroke="black" d="M369.35,-1819.43C380.83,-1823.21 393.24,-1826.78 405,-1829.13 440.79,-1836.31 482.24,-1838.92 512.38,-1839.82"/>
<polygon fill="black" stroke="black" points="512.16,-1843.31 522.24,-1840.06 512.32,-1836.32 512.16,-1843.31"/>
</g>
<!-- web&#45;kernel&#45;&gt;kernel -->
<g id="edge152" class="edge">
<title>web&#45;kernel&#45;&gt;kernel</title>
<path fill="none" stroke="black" d="M328.34,-1783.76C345.07,-1712.46 410.69,-1448.16 508,-1248.13 515.1,-1233.55 524.78,-1218.42 533.47,-1205.97"/>
<polygon fill="black" stroke="black" points="536.3,-1208.03 539.27,-1197.86 530.61,-1203.96 536.3,-1208.03"/>
</g>
</g>
</svg>
