<?xml version="1.0" encoding="UTF-8" standalone="no"?>
<!DOCTYPE svg PUBLIC "-//W3C//DTD SVG 1.1//EN"
 "http://www.w3.org/Graphics/SVG/1.1/DTD/svg11.dtd">
<!-- Generated by graphviz version 12.2.1 (0)
 -->
<!-- Title: deps Pages: 1 -->
<svg width="1478pt" height="2376pt"
 viewBox="0.00 0.00 1477.50 2376.17" xmlns="http://www.w3.org/2000/svg" xmlns:xlink="http://www.w3.org/1999/xlink">
<g id="graph0" class="graph" transform="scale(1 1) rotate(0) translate(4 2372.17)">
<title>deps</title>
<polygon fill="white" stroke="none" points="-4,4 -4,-2372.17 1473.5,-2372.17 1473.5,4 -4,4"/>
<!-- covalence -->
<g id="node1" class="node">
<title>covalence</title>
<polygon fill="none" stroke="black" points="102.62,-929.17 18.38,-929.17 18.38,-893.17 102.62,-893.17 102.62,-929.17"/>
<text text-anchor="middle" x="60.5" y="-906.87" font-family="sans-serif" font-size="14.00">covalence</text>
</g>
<!-- client -->
<g id="node5" class="node">
<title>client</title>
<polygon fill="none" stroke="black" points="350.12,-853.17 296.12,-853.17 296.12,-817.17 350.12,-817.17 350.12,-853.17"/>
<text text-anchor="middle" x="323.12" y="-830.87" font-family="sans-serif" font-size="14.00">client</text>
</g>
<!-- covalence&#45;&gt;client -->
<g id="edge1" class="edge">
<title>covalence&#45;&gt;client</title>
<path fill="none" stroke="black" d="M89.13,-892.7C107.58,-881.24 132.82,-867.22 157,-859.17 199.29,-845.09 250.39,-839.26 284.44,-836.86"/>
<polygon fill="black" stroke="black" points="284.46,-840.36 294.22,-836.24 284.01,-833.38 284.46,-840.36"/>
</g>
<!-- fuse -->
<g id="node11" class="node">
<title>fuse</title>
<polygon fill="none" stroke="black" points="606.38,-723.17 552.38,-723.17 552.38,-687.17 606.38,-687.17 606.38,-723.17"/>
<text text-anchor="middle" x="579.38" y="-700.87" font-family="sans-serif" font-size="14.00">fuse</text>
</g>
<!-- covalence&#45;&gt;fuse -->
<g id="edge2" class="edge">
<title>covalence&#45;&gt;fuse</title>
<path fill="none" stroke="black" d="M80.91,-892.73C99.25,-876.18 128.18,-852.22 157,-837.17 289.82,-767.79 465.47,-727.4 541.11,-712.18"/>
<polygon fill="black" stroke="black" points="541.34,-715.71 550.47,-710.33 539.98,-708.84 541.34,-715.71"/>
</g>
<!-- git -->
<g id="node12" class="node">
<title>git</title>
<polygon fill="none" stroke="black" points="477.5,-441.17 423.5,-441.17 423.5,-405.17 477.5,-405.17 477.5,-441.17"/>
<text text-anchor="middle" x="450.5" y="-418.87" font-family="sans-serif" font-size="14.00">git</text>
</g>
<!-- covalence&#45;&gt;git -->
<g id="edge3" class="edge">
<title>covalence&#45;&gt;git</title>
<path fill="none" stroke="black" d="M65.4,-893.1C80.43,-827.83 140.66,-601.92 277.25,-483.17 315.8,-449.66 374.16,-434.56 412.06,-427.97"/>
<polygon fill="black" stroke="black" points="412.31,-431.47 421.62,-426.43 411.2,-424.56 412.31,-431.47"/>
</g>
<!-- hash -->
<g id="node15" class="node">
<title>hash</title>
<polygon fill="none" stroke="black" points="887.38,-723.17 833.38,-723.17 833.38,-687.17 887.38,-687.17 887.38,-723.17"/>
<text text-anchor="middle" x="860.38" y="-700.87" font-family="sans-serif" font-size="14.00">hash</text>
</g>
<!-- covalence&#45;&gt;hash -->
<g id="edge4" class="edge">
<title>covalence&#45;&gt;hash</title>
<path fill="none" stroke="black" d="M102.71,-913.22C235.17,-919.05 647.75,-930.99 756,-860.17 802.85,-829.52 833.61,-769.46 848.61,-733.77"/>
<polygon fill="black" stroke="black" points="851.68,-735.52 852.2,-724.94 845.19,-732.89 851.68,-735.52"/>
</g>
<!-- hol -->
<g id="node17" class="node">
<title>hol</title>
<polygon fill="none" stroke="black" points="887.38,-2151.17 833.38,-2151.17 833.38,-2115.17 887.38,-2115.17 887.38,-2151.17"/>
<text text-anchor="middle" x="860.38" y="-2128.87" font-family="sans-serif" font-size="14.00">hol</text>
</g>
<!-- covalence&#45;&gt;hol -->
<g id="edge5" class="edge">
<title>covalence&#45;&gt;hol</title>
<path fill="none" stroke="black" d="M103.08,-922.78C110.12,-926.57 116.58,-931.58 121,-938.17 181.75,-1028.76 135.91,-1812.16 157,-1919.17 198.1,-2127.78 109.5,-2368.17 322.12,-2368.17 322.12,-2368.17 322.12,-2368.17 580.38,-2368.17 707.55,-2368.17 806.89,-2223.56 843.8,-2161.22"/>
<polygon fill="black" stroke="black" points="846.63,-2163.33 848.62,-2152.92 840.57,-2159.81 846.63,-2163.33"/>
</g>
<!-- init -->
<g id="node21" class="node">
<title>init</title>
<polygon fill="none" stroke="black" points="736.38,-1649.17 682.38,-1649.17 682.38,-1613.17 736.38,-1613.17 736.38,-1649.17"/>
<text text-anchor="middle" x="709.38" y="-1626.87" font-family="sans-serif" font-size="14.00">init</text>
</g>
<!-- covalence&#45;&gt;init -->
<g id="edge6" class="edge">
<title>covalence&#45;&gt;init</title>
<path fill="none" stroke="black" d="M103.1,-923.14C110.04,-926.9 116.46,-931.8 121,-938.17 171.1,-1008.53 131.93,-1242.52 157,-1325.17 201.74,-1472.68 167.98,-1630.17 322.12,-1630.17 322.12,-1630.17 322.12,-1630.17 451.5,-1630.17 529.53,-1630.17 620.9,-1630.64 670.92,-1630.93"/>
<polygon fill="black" stroke="black" points="670.59,-1634.43 680.61,-1630.99 670.63,-1627.43 670.59,-1634.43"/>
</g>
<!-- lsp -->
<g id="node31" class="node">
<title>lsp</title>
<polygon fill="none" stroke="black" points="887.38,-943.17 833.38,-943.17 833.38,-907.17 887.38,-907.17 887.38,-943.17"/>
<text text-anchor="middle" x="860.38" y="-920.87" font-family="sans-serif" font-size="14.00">lsp</text>
</g>
<!-- covalence&#45;&gt;lsp -->
<g id="edge7" class="edge">
<title>covalence&#45;&gt;lsp</title>
<path fill="none" stroke="black" d="M103.01,-926.86C109.34,-930.12 115.56,-933.89 121,-938.17 141.41,-954.22 133.66,-972.8 157,-984.17 190.66,-1000.57 204.03,-988.26 241.25,-984.17 257.54,-982.38 260.96,-977.96 277.25,-976.17 317.78,-971.72 328.28,-974.05 369,-976.17 405.37,-978.06 495.63,-991.28 532,-993.17 574.05,-995.36 585.06,-999.14 626.75,-993.17 697.59,-983.03 776.99,-956.35 822.3,-939.58"/>
<polygon fill="black" stroke="black" points="823.5,-942.87 831.64,-936.08 821.05,-936.31 823.5,-942.87"/>
</g>
<!-- object -->
<g id="node34" class="node">
<title>object</title>
<polygon fill="none" stroke="black" points="738,-821.17 680.75,-821.17 680.75,-785.17 738,-785.17 738,-821.17"/>
<text text-anchor="middle" x="709.38" y="-798.87" font-family="sans-serif" font-size="14.00">object</text>
</g>
<!-- covalence&#45;&gt;object -->
<g id="edge8" class="edge">
<title>covalence&#45;&gt;object</title>
<path fill="none" stroke="black" d="M102.81,-910.44C197.39,-907.82 436.18,-895.86 626.75,-841.17 641.45,-836.95 656.84,-830.41 670.24,-823.93"/>
<polygon fill="black" stroke="black" points="671.78,-827.08 679.16,-819.47 668.65,-820.81 671.78,-827.08"/>
</g>
<!-- opentheory -->
<g id="node35" class="node">
<title>opentheory</title>
<polygon fill="none" stroke="black" points="496,-2261.17 405,-2261.17 405,-2225.17 496,-2225.17 496,-2261.17"/>
<text text-anchor="middle" x="450.5" y="-2238.87" font-family="sans-serif" font-size="14.00">opentheory</text>
</g>
<!-- covalence&#45;&gt;opentheory -->
<g id="edge9" class="edge">
<title>covalence&#45;&gt;opentheory</title>
<path fill="none" stroke="black" d="M103.01,-922.83C110.06,-926.62 116.53,-931.61 121,-938.17 165.21,-1003.09 146.82,-1566.29 157,-1644.17 190.39,-1899.6 92.81,-2031.34 277.25,-2211.17 307.55,-2240.71 355.78,-2247.59 393.51,-2247.72"/>
<polygon fill="black" stroke="black" points="393.39,-2251.23 403.33,-2247.59 393.29,-2244.23 393.39,-2251.23"/>
</g>
<!-- proto -->
<g id="node39" class="node">
<title>proto</title>
<polygon fill="none" stroke="black" points="350.12,-1021.17 296.12,-1021.17 296.12,-985.17 350.12,-985.17 350.12,-1021.17"/>
<text text-anchor="middle" x="323.12" y="-998.87" font-family="sans-serif" font-size="14.00">proto</text>
</g>
<!-- covalence&#45;&gt;proto -->
<g id="edge10" class="edge">
<title>covalence&#45;&gt;proto</title>
<path fill="none" stroke="black" d="M103.03,-925.3C109.57,-928.79 115.86,-933.04 121,-938.17 148.31,-965.43 124.55,-996.3 157,-1017.17 195.37,-1041.86 249.58,-1030.58 285.27,-1018.43"/>
<polygon fill="black" stroke="black" points="286.06,-1021.86 294.29,-1015.18 283.69,-1015.28 286.06,-1021.86"/>
</g>
<!-- repl -->
<g id="node45" class="node">
<title>repl</title>
<polygon fill="none" stroke="black" points="350.12,-723.17 296.12,-723.17 296.12,-687.17 350.12,-687.17 350.12,-723.17"/>
<text text-anchor="middle" x="323.12" y="-700.87" font-family="sans-serif" font-size="14.00">repl</text>
</g>
<!-- covalence&#45;&gt;repl -->
<g id="edge11" class="edge">
<title>covalence&#45;&gt;repl</title>
<path fill="none" stroke="black" d="M68.21,-892.98C80.78,-861.39 110.84,-796.31 157,-760.17 194.68,-730.68 248.93,-716.63 284.83,-710.2"/>
<polygon fill="black" stroke="black" points="285.02,-713.72 294.3,-708.62 283.86,-706.81 285.02,-713.72"/>
</g>
<!-- serve -->
<g id="node48" class="node">
<title>serve</title>
<polygon fill="none" stroke="black" points="226.12,-1105.17 172.12,-1105.17 172.12,-1069.17 226.12,-1069.17 226.12,-1105.17"/>
<text text-anchor="middle" x="199.12" y="-1082.87" font-family="sans-serif" font-size="14.00">serve</text>
</g>
<!-- covalence&#45;&gt;serve -->
<g id="edge12" class="edge">
<title>covalence&#45;&gt;serve</title>
<path fill="none" stroke="black" d="M103,-924.43C109.7,-928.03 116.05,-932.55 121,-938.17 156.94,-979.02 126.1,-1010.39 157,-1055.17 159,-1058.08 161.35,-1060.84 163.89,-1063.43"/>
<polygon fill="black" stroke="black" points="161.05,-1065.58 170.82,-1069.68 165.74,-1060.38 161.05,-1065.58"/>
</g>
<!-- shell -->
<g id="node50" class="node">
<title>shell</title>
<polygon fill="none" stroke="black" points="477.5,-1323.17 423.5,-1323.17 423.5,-1287.17 477.5,-1287.17 477.5,-1323.17"/>
<text text-anchor="middle" x="450.5" y="-1300.87" font-family="sans-serif" font-size="14.00">shell</text>
</g>
<!-- covalence&#45;&gt;shell -->
<g id="edge13" class="edge">
<title>covalence&#45;&gt;shell</title>
<path fill="none" stroke="black" d="M103.05,-923.17C110,-926.92 116.43,-931.82 121,-938.17 167.02,-1002.2 99.76,-1236.94 157,-1291.17 226.13,-1356.68 350.73,-1333.81 412.58,-1316.83"/>
<polygon fill="black" stroke="black" points="413.27,-1320.27 421.92,-1314.16 411.34,-1313.54 413.27,-1320.27"/>
</g>
<!-- store -->
<g id="node54" class="node">
<title>store</title>
<polygon fill="none" stroke="black" points="736.38,-241.17 682.38,-241.17 682.38,-205.17 736.38,-205.17 736.38,-241.17"/>
<text text-anchor="middle" x="709.38" y="-218.87" font-family="sans-serif" font-size="14.00">store</text>
</g>
<!-- covalence&#45;&gt;store -->
<g id="edge14" class="edge">
<title>covalence&#45;&gt;store</title>
<path fill="none" stroke="black" d="M62.46,-892.7C67.2,-808.41 90.54,-460.89 157,-379.17 287.42,-218.81 569.34,-215.99 670.93,-220.62"/>
<polygon fill="black" stroke="black" points="670.45,-224.1 680.62,-221.12 670.81,-217.11 670.45,-224.1"/>
</g>
<!-- wasm -->
<g id="node57" class="node">
<title>wasm</title>
<polygon fill="none" stroke="black" points="1028.75,-387.17 974.5,-387.17 974.5,-351.17 1028.75,-351.17 1028.75,-387.17"/>
<text text-anchor="middle" x="1001.62" y="-364.87" font-family="sans-serif" font-size="14.00">wasm</text>
</g>
<!-- covalence&#45;&gt;wasm -->
<g id="edge15" class="edge">
<title>covalence&#45;&gt;wasm</title>
<path fill="none" stroke="black" d="M61.52,-892.92C62.44,-833.5 72.19,-642.21 157,-518.17 193.8,-464.36 218.53,-462.5 277.25,-434.17 539.19,-307.82 638.29,-387.63 928.75,-373.17 939.75,-372.62 951.69,-371.98 962.63,-371.37"/>
<polygon fill="black" stroke="black" points="962.71,-374.87 972.49,-370.81 962.31,-367.88 962.71,-374.87"/>
</g>
<!-- acset -->
<g id="node2" class="node">
<title>acset</title>
<polygon fill="none" stroke="black" points="887.38,-1035.17 833.38,-1035.17 833.38,-999.17 887.38,-999.17 887.38,-1035.17"/>
<text text-anchor="middle" x="860.38" y="-1012.87" font-family="sans-serif" font-size="14.00">acset</text>
</g>
<!-- alethe -->
<g id="node3" class="node">
<title>alethe</title>
<polygon fill="none" stroke="black" points="607.62,-1488.17 551.12,-1488.17 551.12,-1452.17 607.62,-1452.17 607.62,-1488.17"/>
<text text-anchor="middle" x="579.38" y="-1465.87" font-family="sans-serif" font-size="14.00">alethe</text>
</g>
<!-- core -->
<g id="node6" class="node">
<title>core</title>
<polygon fill="#ffd6d6" stroke="black" points="1028.62,-2029.17 974.62,-2029.17 974.62,-1993.17 1028.62,-1993.17 1028.62,-2029.17"/>
<text text-anchor="middle" x="1001.62" y="-2006.87" font-family="sans-serif" font-size="14.00">core</text>
</g>
<!-- alethe&#45;&gt;core -->
<g id="edge16" class="edge">
<title>alethe&#45;&gt;core</title>
<path fill="none" stroke="black" d="M584.79,-1488.56C594.86,-1528.59 621.87,-1625.94 662.75,-1699.17 695.16,-1757.23 714.79,-1763.99 756,-1816.17 772.09,-1836.54 770.41,-1847.75 792,-1862.17 844.46,-1897.21 877.91,-1862.82 928.75,-1900.17 957.28,-1921.13 977.51,-1957.11 989.1,-1982.41"/>
<polygon fill="black" stroke="black" points="985.85,-1983.71 993.06,-1991.47 992.26,-1980.91 985.85,-1983.71"/>
</g>
<!-- hol&#45;eval -->
<g id="node19" class="node">
<title>hol&#45;eval</title>
<polygon fill="none" stroke="black" points="895.38,-1853.17 825.38,-1853.17 825.38,-1817.17 895.38,-1817.17 895.38,-1853.17"/>
<text text-anchor="middle" x="860.38" y="-1830.87" font-family="sans-serif" font-size="14.00">hol&#45;eval</text>
</g>
<!-- alethe&#45;&gt;hol&#45;eval -->
<g id="edge17" class="edge">
<title>alethe&#45;&gt;hol&#45;eval</title>
<path fill="none" stroke="black" d="M584.36,-1488.56C593.01,-1524.82 616.56,-1606.5 662.75,-1658.17 694.67,-1693.88 724.74,-1675.89 756,-1712.17 784.39,-1745.12 762.29,-1771.41 792,-1803.17 798.35,-1809.96 806.44,-1815.46 814.79,-1819.86"/>
<polygon fill="black" stroke="black" points="813.11,-1822.93 823.64,-1824.04 816.1,-1816.6 813.11,-1822.93"/>
</g>
<!-- alethe&#45;&gt;init -->
<g id="edge18" class="edge">
<title>alethe&#45;&gt;init</title>
<path fill="none" stroke="black" d="M607.9,-1485.57C614.67,-1490.26 621.47,-1495.87 626.75,-1502.17 651.52,-1531.75 641.49,-1548.97 662.75,-1581.17 668.15,-1589.35 674.87,-1597.5 681.48,-1604.78"/>
<polygon fill="black" stroke="black" points="678.66,-1606.89 688.07,-1611.77 683.76,-1602.09 678.66,-1606.89"/>
</g>
<!-- sexp -->
<g id="node49" class="node">
<title>sexp</title>
<polygon fill="none" stroke="black" points="1028.62,-1249.17 974.62,-1249.17 974.62,-1213.17 1028.62,-1213.17 1028.62,-1249.17"/>
<text text-anchor="middle" x="1001.62" y="-1226.87" font-family="sans-serif" font-size="14.00">sexp</text>
</g>
<!-- alethe&#45;&gt;sexp -->
<g id="edge19" class="edge">
<title>alethe&#45;&gt;sexp</title>
<path fill="none" stroke="black" d="M595.54,-1451.83C627.68,-1414.19 706.72,-1328 792,-1283.17 821.57,-1267.63 911.75,-1248.4 963.35,-1238.24"/>
<polygon fill="black" stroke="black" points="963.72,-1241.74 972.87,-1236.39 962.38,-1234.86 963.72,-1241.74"/>
</g>
<!-- smt -->
<g id="node51" class="node">
<title>smt</title>
<polygon fill="none" stroke="black" points="736.38,-1458.17 682.38,-1458.17 682.38,-1422.17 736.38,-1422.17 736.38,-1458.17"/>
<text text-anchor="middle" x="709.38" y="-1435.87" font-family="sans-serif" font-size="14.00">smt</text>
</g>
<!-- alethe&#45;&gt;smt -->
<g id="edge20" class="edge">
<title>alethe&#45;&gt;smt</title>
<path fill="none" stroke="black" d="M607.83,-1463.74C626.34,-1459.4 650.98,-1453.62 671.24,-1448.88"/>
<polygon fill="black" stroke="black" points="671.86,-1452.32 680.8,-1446.63 670.26,-1445.51 671.86,-1452.32"/>
</g>
<!-- types -->
<g id="node56" class="node">
<title>types</title>
<polygon fill="#ffd6d6" stroke="black" points="1469.5,-1788.17 1415.5,-1788.17 1415.5,-1752.17 1469.5,-1752.17 1469.5,-1788.17"/>
<text text-anchor="middle" x="1442.5" y="-1765.87" font-family="sans-serif" font-size="14.00">types</text>
</g>
<!-- alethe&#45;&gt;types -->
<g id="edge21" class="edge">
<title>alethe&#45;&gt;types</title>
<path fill="none" stroke="black" d="M607.95,-1482.35C623.82,-1489.16 644.24,-1497.58 662.75,-1504.17 855.39,-1572.8 908.88,-1597.17 1113.38,-1597.17 1113.38,-1597.17 1113.38,-1597.17 1218.25,-1597.17 1312.06,-1597.17 1390.34,-1693.8 1423.91,-1742.62"/>
<polygon fill="black" stroke="black" points="1420.88,-1744.38 1429.36,-1750.73 1426.69,-1740.48 1420.88,-1744.38"/>
</g>
<!-- arrow -->
<g id="node4" class="node">
<title>arrow</title>
<polygon fill="none" stroke="black" points="606.38,-593.17 552.38,-593.17 552.38,-557.17 606.38,-557.17 606.38,-593.17"/>
<text text-anchor="middle" x="579.38" y="-570.87" font-family="sans-serif" font-size="14.00">arrow</text>
</g>
<!-- client&#45;&gt;hash -->
<g id="edge22" class="edge">
<title>client&#45;&gt;hash</title>
<path fill="none" stroke="black" d="M350.42,-842.61C420.99,-861 618.49,-902.17 756,-830.17 797.06,-808.67 828.06,-763.15 844.95,-733.38"/>
<polygon fill="black" stroke="black" points="847.87,-735.35 849.61,-724.9 841.73,-731.98 847.87,-735.35"/>
</g>
<!-- client&#45;&gt;shell -->
<g id="edge23" class="edge">
<title>client&#45;&gt;shell</title>
<path fill="none" stroke="black" d="M331.1,-853.6C340.94,-880.26 358.83,-931.33 369,-976.17 394.72,-1089.51 364.91,-1126.09 405,-1235.17 410.49,-1250.1 419.53,-1265.18 428.03,-1277.5"/>
<polygon fill="black" stroke="black" points="425.1,-1279.42 433.77,-1285.51 430.78,-1275.34 425.1,-1279.42"/>
</g>
<!-- client&#45;&gt;store -->
<g id="edge24" class="edge">
<title>client&#45;&gt;store</title>
<path fill="none" stroke="black" d="M348.5,-816.81C419.67,-763.14 622.49,-609.81 626.75,-602.17 703.29,-464.79 578,-382.64 662.75,-250.17 665.37,-246.07 668.86,-242.51 672.74,-239.45"/>
<polygon fill="black" stroke="black" points="674.59,-242.42 681.02,-234 670.75,-236.57 674.59,-242.42"/>
</g>
<!-- pure -->
<g id="node40" class="node">
<title>pure</title>
<polygon fill="#ffd6d6" stroke="black" points="1244.25,-1899.17 1190.25,-1899.17 1190.25,-1863.17 1244.25,-1863.17 1244.25,-1899.17"/>
<text text-anchor="middle" x="1217.25" y="-1876.87" font-family="sans-serif" font-size="14.00">pure</text>
</g>
<!-- core&#45;&gt;pure -->
<g id="edge25" class="edge">
<title>core&#45;&gt;pure</title>
<path fill="none" stroke="black" d="M1028.82,-1995.23C1066.78,-1972.13 1137.21,-1929.27 1180.09,-1903.18"/>
<polygon fill="black" stroke="black" points="1181.83,-1906.22 1188.55,-1898.03 1178.19,-1900.24 1181.83,-1906.22"/>
</g>
<!-- pure&#45;eval -->
<g id="node41" class="node">
<title>pure&#45;eval</title>
<polygon fill="#ffd6d6" stroke="black" points="1154.25,-1853.17 1074.5,-1853.17 1074.5,-1817.17 1154.25,-1817.17 1154.25,-1853.17"/>
<text text-anchor="middle" x="1114.38" y="-1830.87" font-family="sans-serif" font-size="14.00">pure&#45;eval</text>
</g>
<!-- core&#45;&gt;pure&#45;eval -->
<g id="edge26" class="edge">
<title>core&#45;&gt;pure&#45;eval</title>
<path fill="none" stroke="black" d="M1014.06,-1993C1033.46,-1962.17 1072.94,-1899.44 1095.84,-1863.03"/>
<polygon fill="black" stroke="black" points="1098.67,-1865.12 1101.03,-1854.79 1092.74,-1861.39 1098.67,-1865.12"/>
</g>
<!-- core&#45;&gt;types -->
<g id="edge27" class="edge">
<title>core&#45;&gt;types</title>
<path fill="none" stroke="black" d="M1028.94,-2011.1C1095.66,-2009.56 1273.67,-1996.66 1379.5,-1906.17 1411.85,-1878.51 1428.2,-1830.45 1435.77,-1799.5"/>
<polygon fill="black" stroke="black" points="1439.12,-1800.56 1437.92,-1790.03 1432.29,-1799.01 1439.12,-1800.56"/>
</g>
<!-- core&#45;test&#45;guest -->
<g id="node7" class="node">
<title>core&#45;test&#45;guest</title>
<polygon fill="none" stroke="black" points="121,-983.17 0,-983.17 0,-947.17 121,-947.17 121,-983.17"/>
<text text-anchor="middle" x="60.5" y="-960.87" font-family="sans-serif" font-size="14.00">core&#45;test&#45;guest</text>
</g>
<!-- crypto&#45;sig -->
<g id="node8" class="node">
<title>crypto&#45;sig</title>
<polygon fill="none" stroke="black" points="241.25,-121.17 157,-121.17 157,-85.17 241.25,-85.17 241.25,-121.17"/>
<text text-anchor="middle" x="199.12" y="-98.87" font-family="sans-serif" font-size="14.00">crypto&#45;sig</text>
</g>
<!-- egglog -->
<g id="node9" class="node">
<title>egglog</title>
<polygon fill="none" stroke="black" points="890.88,-1463.17 829.88,-1463.17 829.88,-1427.17 890.88,-1427.17 890.88,-1463.17"/>
<text text-anchor="middle" x="860.38" y="-1440.87" font-family="sans-serif" font-size="14.00">egglog</text>
</g>
<!-- egglog&#45;&gt;sexp -->
<g id="edge28" class="edge">
<title>egglog&#45;&gt;sexp</title>
<path fill="none" stroke="black" d="M891.26,-1436.51C904.21,-1431.48 918.67,-1423.96 928.75,-1413.17 969.54,-1369.54 988.2,-1300 995.89,-1260.71"/>
<polygon fill="black" stroke="black" points="999.3,-1261.51 997.67,-1251.04 992.42,-1260.25 999.3,-1261.51"/>
</g>
<!-- egglog&#45;&gt;types -->
<g id="edge29" class="edge">
<title>egglog&#45;&gt;types</title>
<path fill="none" stroke="black" d="M891.24,-1445.17C938.43,-1445.17 1033.09,-1445.17 1113.38,-1445.17 1113.38,-1445.17 1113.38,-1445.17 1218.25,-1445.17 1290.71,-1445.17 1326.87,-1419.38 1379.5,-1469.17 1418.62,-1506.18 1434.6,-1672.01 1439.6,-1740.46"/>
<polygon fill="black" stroke="black" points="1436.09,-1740.45 1440.28,-1750.18 1443.08,-1739.96 1436.09,-1740.45"/>
</g>
<!-- forsp -->
<g id="node10" class="node">
<title>forsp</title>
<polygon fill="none" stroke="black" points="477.5,-1151.17 423.5,-1151.17 423.5,-1115.17 477.5,-1115.17 477.5,-1151.17"/>
<text text-anchor="middle" x="450.5" y="-1128.87" font-family="sans-serif" font-size="14.00">forsp</text>
</g>
<!-- forsp&#45;&gt;hash -->
<g id="edge30" class="edge">
<title>forsp&#45;&gt;hash</title>
<path fill="none" stroke="black" d="M477.95,-1115.91C514.21,-1091.44 580.15,-1043.96 626.75,-993.17 646.25,-971.92 640.41,-957.42 662.75,-939.17 697.41,-910.86 722.84,-931.22 756,-901.17 807.33,-854.66 837.6,-776.6 851.04,-734.39"/>
<polygon fill="black" stroke="black" points="854.35,-735.53 853.94,-724.94 847.66,-733.47 854.35,-735.53"/>
</g>
<!-- repl&#45;core -->
<g id="node46" class="node">
<title>repl&#45;core</title>
<polygon fill="none" stroke="black" points="618.5,-1233.17 540.25,-1233.17 540.25,-1197.17 618.5,-1197.17 618.5,-1233.17"/>
<text text-anchor="middle" x="579.38" y="-1210.87" font-family="sans-serif" font-size="14.00">repl&#45;core</text>
</g>
<!-- forsp&#45;&gt;repl&#45;core -->
<g id="edge31" class="edge">
<title>forsp&#45;&gt;repl&#45;core</title>
<path fill="none" stroke="black" d="M477.79,-1150.16C495.88,-1161.85 520.19,-1177.57 540.38,-1190.61"/>
<polygon fill="black" stroke="black" points="538.34,-1193.47 548.64,-1195.96 542.14,-1187.59 538.34,-1193.47"/>
</g>
<!-- forsp&#45;&gt;sexp -->
<g id="edge32" class="edge">
<title>forsp&#45;&gt;sexp</title>
<path fill="none" stroke="black" d="M477.84,-1130.72C565.86,-1122.99 848.71,-1101.83 928.75,-1141.17 955,-1154.07 974.72,-1181.62 986.8,-1202.86"/>
<polygon fill="black" stroke="black" points="983.72,-1204.51 991.55,-1211.65 989.88,-1201.19 983.72,-1204.51"/>
</g>
<!-- fuse&#45;&gt;hash -->
<g id="edge33" class="edge">
<title>fuse&#45;&gt;hash</title>
<path fill="none" stroke="black" d="M606.87,-705.17C656.65,-705.17 764.28,-705.17 821.62,-705.17"/>
<polygon fill="black" stroke="black" points="821.54,-708.67 831.54,-705.17 821.54,-701.67 821.54,-708.67"/>
</g>
<!-- fuse&#45;&gt;object -->
<g id="edge34" class="edge">
<title>fuse&#45;&gt;object</title>
<path fill="none" stroke="black" d="M606.62,-722.77C613.26,-727.36 620.33,-732.37 626.75,-737.17 644.08,-750.12 662.88,-765.26 678.07,-777.76"/>
<polygon fill="black" stroke="black" points="675.46,-780.14 685.4,-783.82 679.92,-774.75 675.46,-780.14"/>
</g>
<!-- fuse&#45;&gt;store -->
<g id="edge35" class="edge">
<title>fuse&#45;&gt;store</title>
<path fill="none" stroke="black" d="M596.13,-686.93C606.73,-673.55 619.96,-654.42 626.75,-635.17 655.34,-554.14 616.75,-322.75 662.75,-250.17 665.36,-246.06 668.83,-242.5 672.71,-239.43"/>
<polygon fill="black" stroke="black" points="674.56,-242.4 680.99,-233.98 670.71,-236.55 674.56,-242.4"/>
</g>
<!-- git&#45;&gt;hash -->
<g id="edge36" class="edge">
<title>git&#45;&gt;hash</title>
<path fill="none" stroke="black" d="M477.99,-426.29C535.24,-434.31 672.12,-460.42 756,-534.17 801.33,-574.03 832.8,-638.7 848.3,-676.05"/>
<polygon fill="black" stroke="black" points="845.05,-677.33 852.04,-685.3 851.54,-674.71 845.05,-677.33"/>
</g>
<!-- git&#45;&gt;object -->
<g id="edge37" class="edge">
<title>git&#45;&gt;object</title>
<path fill="none" stroke="black" d="M457.82,-441.26C466.99,-467.94 484.19,-519.5 496,-564.17 515.51,-638 482.83,-673.75 532,-732.17 541.32,-743.24 620.61,-772.46 669.66,-789.77"/>
<polygon fill="black" stroke="black" points="668.5,-793.07 679.09,-793.08 670.82,-786.46 668.5,-793.07"/>
</g>
<!-- sqlite -->
<g id="node53" class="node">
<title>sqlite</title>
<polygon fill="none" stroke="black" points="887.38,-199.17 833.38,-199.17 833.38,-163.17 887.38,-163.17 887.38,-199.17"/>
<text text-anchor="middle" x="860.38" y="-176.87" font-family="sans-serif" font-size="14.00">sqlite</text>
</g>
<!-- git&#45;&gt;sqlite -->
<g id="edge38" class="edge">
<title>git&#45;&gt;sqlite</title>
<path fill="none" stroke="black" d="M456.32,-404.7C465.75,-371.78 489.52,-302.5 532,-260.17 610.92,-181.53 753.74,-176.19 821.61,-178.6"/>
<polygon fill="black" stroke="black" points="821.33,-182.09 831.48,-179.04 821.64,-175.1 821.33,-182.09"/>
</g>
<!-- git&#45;&gt;store -->
<g id="edge39" class="edge">
<title>git&#45;&gt;store</title>
<path fill="none" stroke="black" d="M463.5,-404.88C477.94,-383.83 503.8,-349.11 532,-325.17 575.63,-288.14 634.56,-257.18 672.02,-239.4"/>
<polygon fill="black" stroke="black" points="673.04,-242.79 680.62,-235.38 670.08,-236.45 673.04,-242.79"/>
</g>
<!-- grammar -->
<g id="node13" class="node">
<title>grammar</title>
<polygon fill="none" stroke="black" points="1038.5,-1685.17 964.75,-1685.17 964.75,-1649.17 1038.5,-1649.17 1038.5,-1685.17"/>
<text text-anchor="middle" x="1001.62" y="-1662.87" font-family="sans-serif" font-size="14.00">grammar</text>
</g>
<!-- graph -->
<g id="node14" class="node">
<title>graph</title>
<polygon fill="none" stroke="black" points="736.38,-295.17 682.38,-295.17 682.38,-259.17 736.38,-259.17 736.38,-295.17"/>
<text text-anchor="middle" x="709.38" y="-272.87" font-family="sans-serif" font-size="14.00">graph</text>
</g>
<!-- graph&#45;&gt;hash -->
<g id="edge40" class="edge">
<title>graph&#45;&gt;hash</title>
<path fill="none" stroke="black" d="M736.77,-288.15C743.91,-292.25 751.02,-297.55 756,-304.17 801.13,-364.23 841.47,-593.49 854.76,-675.66"/>
<polygon fill="black" stroke="black" points="851.29,-676.07 856.32,-685.39 858.2,-674.97 851.29,-676.07"/>
</g>
<!-- parse -->
<g id="node37" class="node">
<title>parse</title>
<polygon fill="none" stroke="black" points="1141.38,-1089.17 1087.38,-1089.17 1087.38,-1053.17 1141.38,-1053.17 1141.38,-1089.17"/>
<text text-anchor="middle" x="1114.38" y="-1066.87" font-family="sans-serif" font-size="14.00">parse</text>
</g>
<!-- graph&#45;&gt;parse -->
<g id="edge41" class="edge">
<title>graph&#45;&gt;parse</title>
<path fill="none" stroke="black" d="M736.81,-272.6C800.91,-263.23 964.74,-249.83 1038.5,-342.17 1082.87,-397.73 1106.84,-912.11 1112.21,-1041.66"/>
<polygon fill="black" stroke="black" points="1108.7,-1041.61 1112.61,-1051.46 1115.7,-1041.32 1108.7,-1041.61"/>
</g>
<!-- rand -->
<g id="node44" class="node">
<title>rand</title>
<polygon fill="none" stroke="black" points="1028.62,-723.17 974.62,-723.17 974.62,-687.17 1028.62,-687.17 1028.62,-723.17"/>
<text text-anchor="middle" x="1001.62" y="-700.87" font-family="sans-serif" font-size="14.00">rand</text>
</g>
<!-- hash&#45;&gt;rand -->
<g id="edge42" class="edge">
<title>hash&#45;&gt;rand</title>
<path fill="none" stroke="black" d="M887.57,-705.17C908.86,-705.17 939.19,-705.17 963.07,-705.17"/>
<polygon fill="black" stroke="black" points="963.04,-708.67 973.04,-705.17 963.04,-701.67 963.04,-708.67"/>
</g>
<!-- haskell -->
<g id="node16" class="node">
<title>haskell</title>
<polygon fill="none" stroke="black" points="481.75,-1854.17 419.25,-1854.17 419.25,-1818.17 481.75,-1818.17 481.75,-1854.17"/>
<text text-anchor="middle" x="450.5" y="-1831.87" font-family="sans-serif" font-size="14.00">haskell</text>
</g>
<!-- hol&#45;api -->
<g id="node18" class="node">
<title>hol&#45;api</title>
<polygon fill="none" stroke="black" points="610.62,-2048.17 548.12,-2048.17 548.12,-2012.17 610.62,-2012.17 610.62,-2048.17"/>
<text text-anchor="middle" x="579.38" y="-2025.87" font-family="sans-serif" font-size="14.00">hol&#45;api</text>
</g>
<!-- haskell&#45;&gt;hol&#45;api -->
<g id="edge43" class="edge">
<title>haskell&#45;&gt;hol&#45;api</title>
<path fill="none" stroke="black" d="M457.17,-1854.43C467.78,-1886.39 493.13,-1953.31 532,-1998.17 534.23,-2000.75 536.72,-2003.22 539.35,-2005.56"/>
<polygon fill="black" stroke="black" points="536.92,-2008.1 546.91,-2011.64 541.31,-2002.65 536.92,-2008.1"/>
</g>
<!-- haskell&#45;&gt;hol&#45;eval -->
<g id="edge44" class="edge">
<title>haskell&#45;&gt;hol&#45;eval</title>
<path fill="none" stroke="black" d="M482.16,-1836.1C553.22,-1835.92 729.5,-1835.49 813.48,-1835.28"/>
<polygon fill="black" stroke="black" points="813.43,-1838.78 823.42,-1835.26 813.41,-1831.78 813.43,-1838.78"/>
</g>
<!-- haskell&#45;&gt;init -->
<g id="edge45" class="edge">
<title>haskell&#45;&gt;init</title>
<path fill="none" stroke="black" d="M456.51,-1817.68C465.97,-1786.25 489.42,-1722.42 532,-1687.17 553.29,-1669.55 625.61,-1650.32 670.76,-1639.61"/>
<polygon fill="black" stroke="black" points="671.47,-1643.04 680.41,-1637.35 669.88,-1636.22 671.47,-1643.04"/>
</g>
<!-- haskell&#45;&gt;types -->
<g id="edge46" class="edge">
<title>haskell&#45;&gt;types</title>
<path fill="none" stroke="black" d="M455.32,-1854.57C464.11,-1894.1 488.45,-1989.05 532,-2057.17 661.95,-2260.45 759.36,-2331.17 1000.62,-2331.17 1000.62,-2331.17 1000.62,-2331.17 1218.25,-2331.17 1259.98,-2331.17 1226.09,-2478.36 1379.5,-2154.17 1437.28,-2032.06 1442.62,-1866.31 1442.19,-1799.68"/>
<polygon fill="black" stroke="black" points="1445.69,-1799.9 1442.07,-1789.94 1438.69,-1799.99 1445.69,-1799.9"/>
</g>
<!-- hol&#45;&gt;core -->
<g id="edge47" class="edge">
<title>hol&#45;&gt;core</title>
<path fill="none" stroke="black" d="M887.58,-2123.98C900.75,-2118.58 916.47,-2110.9 928.75,-2101.17 950.77,-2083.72 970.27,-2058.31 983.38,-2038.94"/>
<polygon fill="black" stroke="black" points="986.23,-2040.98 988.81,-2030.7 980.39,-2037.13 986.23,-2040.98"/>
</g>
<!-- hol&#45;api&#45;&gt;core -->
<g id="edge48" class="edge">
<title>hol&#45;api&#45;&gt;core</title>
<path fill="none" stroke="black" d="M610.77,-2031.55C671.43,-2033.89 811.73,-2037.31 928.75,-2025.17 940.01,-2024 952.14,-2021.95 963.16,-2019.78"/>
<polygon fill="black" stroke="black" points="963.61,-2023.26 972.69,-2017.8 962.19,-2016.4 963.61,-2023.26"/>
</g>
<!-- hol&#45;api&#45;&gt;hol&#45;eval -->
<g id="edge49" class="edge">
<title>hol&#45;api&#45;&gt;hol&#45;eval</title>
<path fill="none" stroke="black" d="M601.17,-2011.86C617.51,-1997.76 641.05,-1978.05 662.75,-1962.17 715.05,-1923.89 778.5,-1884.02 818.91,-1859.39"/>
<polygon fill="black" stroke="black" points="820.64,-1862.44 827.37,-1854.26 817,-1856.45 820.64,-1862.44"/>
</g>
<!-- inductive -->
<g id="node20" class="node">
<title>inductive</title>
<polygon fill="none" stroke="black" points="898.75,-1945.17 822,-1945.17 822,-1909.17 898.75,-1909.17 898.75,-1945.17"/>
<text text-anchor="middle" x="860.38" y="-1922.87" font-family="sans-serif" font-size="14.00">inductive</text>
</g>
<!-- hol&#45;api&#45;&gt;inductive -->
<g id="edge50" class="edge">
<title>hol&#45;api&#45;&gt;inductive</title>
<path fill="none" stroke="black" d="M611.03,-2018.85C659.3,-2001.03 753.45,-1966.28 810.94,-1945.05"/>
<polygon fill="black" stroke="black" points="811.99,-1948.4 820.16,-1941.65 809.56,-1941.83 811.99,-1948.4"/>
</g>
<!-- hol&#45;api&#45;&gt;init -->
<g id="edge51" class="edge">
<title>hol&#45;api&#45;&gt;init</title>
<path fill="none" stroke="black" d="M586.29,-2011.73C606.68,-1948.17 674.14,-1737.9 699.03,-1660.29"/>
<polygon fill="black" stroke="black" points="702.34,-1661.45 702.06,-1650.86 695.67,-1659.31 702.34,-1661.45"/>
</g>
<!-- hol&#45;api&#45;&gt;pure -->
<g id="edge52" class="edge">
<title>hol&#45;api&#45;&gt;pure</title>
<path fill="none" stroke="black" d="M600.85,-2048.58C654.69,-2094.67 804.65,-2207.97 928.75,-2160.17 1057.9,-2110.42 1159.98,-1969.44 1199.04,-1909.12"/>
<polygon fill="black" stroke="black" points="1201.94,-1911.08 1204.37,-1900.77 1196.04,-1907.32 1201.94,-1911.08"/>
</g>
<!-- hol&#45;api&#45;&gt;types -->
<g id="edge53" class="edge">
<title>hol&#45;api&#45;&gt;types</title>
<path fill="none" stroke="black" d="M590.79,-2048.45C604.68,-2071.48 631.21,-2111.05 662.75,-2136.17 792.28,-2239.33 835.04,-2293.17 1000.62,-2293.17 1000.62,-2293.17 1000.62,-2293.17 1218.25,-2293.17 1326.37,-2293.17 1412.91,-1910.29 1435.64,-1799.73"/>
<polygon fill="black" stroke="black" points="1439.07,-1800.46 1437.63,-1789.96 1432.21,-1799.07 1439.07,-1800.46"/>
</g>
<!-- hol&#45;eval&#45;&gt;core -->
<g id="edge54" class="edge">
<title>hol&#45;eval&#45;&gt;core</title>
<path fill="none" stroke="black" d="M895.64,-1846.24C907.2,-1851.24 919.5,-1858.1 928.75,-1867.17 961.8,-1899.58 982.17,-1950.34 992.44,-1982.14"/>
<polygon fill="black" stroke="black" points="989.03,-1982.95 995.32,-1991.48 995.71,-1980.89 989.03,-1982.95"/>
</g>
<!-- hol&#45;eval&#45;&gt;pure -->
<g id="edge55" class="edge">
<title>hol&#45;eval&#45;&gt;pure</title>
<path fill="none" stroke="black" d="M895.82,-1839.91C915.92,-1842.65 941.77,-1846.15 964.75,-1849.17 1040.54,-1859.13 1129.25,-1870.3 1178.47,-1876.46"/>
<polygon fill="black" stroke="black" points="1177.95,-1879.92 1188.31,-1877.69 1178.82,-1872.98 1177.95,-1879.92"/>
</g>
<!-- hol&#45;eval&#45;&gt;pure&#45;eval -->
<g id="edge56" class="edge">
<title>hol&#45;eval&#45;&gt;pure&#45;eval</title>
<path fill="none" stroke="black" d="M895.62,-1835.17C938.73,-1835.17 1013.13,-1835.17 1062.79,-1835.17"/>
<polygon fill="black" stroke="black" points="1062.72,-1838.67 1072.72,-1835.17 1062.72,-1831.67 1062.72,-1838.67"/>
</g>
<!-- hol&#45;eval&#45;&gt;sexp -->
<g id="edge57" class="edge">
<title>hol&#45;eval&#45;&gt;sexp</title>
<path fill="none" stroke="black" d="M872.35,-1816.73C887.48,-1790.45 914.48,-1740.31 928.75,-1694.17 977.92,-1535.16 994.4,-1334.56 999.04,-1260.43"/>
<polygon fill="black" stroke="black" points="1002.52,-1260.96 999.62,-1250.77 995.53,-1260.54 1002.52,-1260.96"/>
</g>
<!-- hol&#45;eval&#45;&gt;types -->
<g id="edge58" class="edge">
<title>hol&#45;eval&#45;&gt;types</title>
<path fill="none" stroke="black" d="M895.66,-1824.85C943.81,-1811.29 1034.44,-1789.17 1113.38,-1789.17 1113.38,-1789.17 1113.38,-1789.17 1218.25,-1789.17 1283.63,-1789.17 1359.4,-1780.98 1403.73,-1775.35"/>
<polygon fill="black" stroke="black" points="1404.13,-1778.83 1413.6,-1774.07 1403.23,-1771.89 1404.13,-1778.83"/>
</g>
<!-- init&#45;&gt;core -->
<g id="edge59" class="edge">
<title>init&#45;&gt;core</title>
<path fill="none" stroke="black" d="M736.49,-1640C743.62,-1643.47 750.8,-1648.11 756,-1654.17 789.76,-1693.55 755.16,-1728.66 792,-1765.17 837.25,-1810.02 882.9,-1763.93 928.75,-1808.17 977.56,-1855.28 993.29,-1937.58 998.31,-1981.53"/>
<polygon fill="black" stroke="black" points="994.81,-1981.75 999.31,-1991.34 1001.78,-1981.04 994.81,-1981.75"/>
</g>
<!-- init&#45;&gt;grammar -->
<g id="edge60" class="edge">
<title>init&#45;&gt;grammar</title>
<path fill="none" stroke="black" d="M733.75,-1649.5C757.25,-1667.89 790.26,-1693.58 792,-1694.17 849.52,-1713.79 868.95,-1705.03 928.75,-1694.17 936.96,-1692.68 945.44,-1690.31 953.58,-1687.57"/>
<polygon fill="black" stroke="black" points="954.77,-1690.86 962.99,-1684.17 952.4,-1684.28 954.77,-1690.86"/>
</g>
<!-- init&#45;&gt;hash -->
<g id="edge61" class="edge">
<title>init&#45;&gt;hash</title>
<path fill="none" stroke="black" d="M716.86,-1612.76C727.12,-1582.72 746.9,-1521.08 756,-1467.17 798.19,-1217.31 741.78,-1146.54 792,-898.17 804.14,-838.12 830.55,-771.29 846.46,-734.13"/>
<polygon fill="black" stroke="black" points="849.66,-735.55 850.43,-724.98 843.24,-732.76 849.66,-735.55"/>
</g>
<!-- init&#45;&gt;hol -->
<g id="edge62" class="edge">
<title>init&#45;&gt;hol</title>
<path fill="none" stroke="black" d="M714.27,-1649.59C724.92,-1699.25 756.19,-1839.93 792,-1954.17 808.89,-2008.06 833.08,-2069.36 847.41,-2104.43"/>
<polygon fill="black" stroke="black" points="844.08,-2105.54 851.12,-2113.46 850.56,-2102.88 844.08,-2105.54"/>
</g>
<!-- init&#45;&gt;hol&#45;eval -->
<g id="edge63" class="edge">
<title>init&#45;&gt;hol&#45;eval</title>
<path fill="none" stroke="black" d="M736.76,-1647.38C743.9,-1652.88 751.02,-1659.58 756,-1667.17 790.31,-1719.45 752.05,-1755.07 792,-1803.17 798.06,-1810.47 806.16,-1816.21 814.65,-1820.68"/>
<polygon fill="black" stroke="black" points="813.16,-1823.85 823.7,-1824.9 816.12,-1817.51 813.16,-1823.85"/>
</g>
<!-- init&#45;&gt;inductive -->
<g id="edge64" class="edge">
<title>init&#45;&gt;inductive</title>
<path fill="none" stroke="black" d="M713.84,-1649.53C722.17,-1690.38 746.1,-1790.8 792,-1862.17 801.34,-1876.69 814.53,-1890.35 826.76,-1901.37"/>
<polygon fill="black" stroke="black" points="824.44,-1903.99 834.29,-1907.9 829.03,-1898.71 824.44,-1903.99"/>
</g>
<!-- k -->
<g id="node23" class="node">
<title>k</title>
<polygon fill="none" stroke="black" points="887.38,-1631.17 833.38,-1631.17 833.38,-1595.17 887.38,-1595.17 887.38,-1631.17"/>
<text text-anchor="middle" x="860.38" y="-1608.87" font-family="sans-serif" font-size="14.00">k</text>
</g>
<!-- init&#45;&gt;k -->
<g id="edge65" class="edge">
<title>init&#45;&gt;k</title>
<path fill="none" stroke="black" d="M736.67,-1628C760.32,-1625.14 795.33,-1620.91 821.91,-1617.7"/>
<polygon fill="black" stroke="black" points="822.08,-1621.2 831.59,-1616.53 821.24,-1614.25 822.08,-1621.2"/>
</g>
<!-- metamath -->
<g id="node32" class="node">
<title>metamath</title>
<polygon fill="none" stroke="black" points="900.62,-1089.17 820.12,-1089.17 820.12,-1053.17 900.62,-1053.17 900.62,-1089.17"/>
<text text-anchor="middle" x="860.38" y="-1066.87" font-family="sans-serif" font-size="14.00">metamath</text>
</g>
<!-- init&#45;&gt;metamath -->
<g id="edge66" class="edge">
<title>init&#45;&gt;metamath</title>
<path fill="none" stroke="black" d="M715.57,-1613C724.17,-1582.79 741.83,-1520.28 756,-1467.17 772.67,-1404.68 775.74,-1388.77 792,-1326.17 813.28,-1244.25 838.95,-1147.69 851.58,-1100.34"/>
<polygon fill="black" stroke="black" points="854.92,-1101.43 854.11,-1090.86 848.15,-1099.62 854.92,-1101.43"/>
</g>
<!-- init&#45;&gt;sexp -->
<g id="edge67" class="edge">
<title>init&#45;&gt;sexp</title>
<path fill="none" stroke="black" d="M721.96,-1612.75C732.03,-1596.11 746.47,-1570.71 756,-1547.17 778.35,-1492 749.89,-1460.24 792,-1418.17 836.63,-1373.59 880.35,-1420.63 928.75,-1380.17 966.01,-1349.03 985.4,-1294.04 994.28,-1260.28"/>
<polygon fill="black" stroke="black" points="997.63,-1261.31 996.63,-1250.76 990.83,-1259.63 997.63,-1261.31"/>
</g>
<!-- spectec -->
<g id="node52" class="node">
<title>spectec</title>
<polygon fill="none" stroke="black" points="895,-1685.17 825.75,-1685.17 825.75,-1649.17 895,-1649.17 895,-1685.17"/>
<text text-anchor="middle" x="860.38" y="-1662.87" font-family="sans-serif" font-size="14.00">spectec</text>
</g>
<!-- init&#45;&gt;spectec -->
<g id="edge68" class="edge">
<title>init&#45;&gt;spectec</title>
<path fill="none" stroke="black" d="M736.67,-1637.52C758.21,-1642.73 789.18,-1650.21 814.61,-1656.36"/>
<polygon fill="black" stroke="black" points="813.48,-1659.68 824.02,-1658.63 815.12,-1652.88 813.48,-1659.68"/>
</g>
<!-- init&#45;&gt;types -->
<g id="edge69" class="edge">
<title>init&#45;&gt;types</title>
<path fill="none" stroke="black" d="M736.62,-1641.26C743.43,-1644.68 750.41,-1648.98 756,-1654.17 778.78,-1675.34 766.39,-1696.54 792,-1714.17 869.56,-1767.57 906.46,-1751.17 1000.62,-1751.17 1000.62,-1751.17 1000.62,-1751.17 1218.25,-1751.17 1283.63,-1751.17 1359.4,-1759.36 1403.73,-1764.99"/>
<polygon fill="black" stroke="black" points="1403.23,-1768.45 1413.6,-1766.27 1404.13,-1761.51 1403.23,-1768.45"/>
</g>
<!-- json -->
<g id="node22" class="node">
<title>json</title>
<polygon fill="none" stroke="black" points="887.38,-145.17 833.38,-145.17 833.38,-109.17 887.38,-109.17 887.38,-145.17"/>
<text text-anchor="middle" x="860.38" y="-122.87" font-family="sans-serif" font-size="14.00">json</text>
</g>
<!-- k&#45;&gt;grammar -->
<g id="edge70" class="edge">
<title>k&#45;&gt;grammar</title>
<path fill="none" stroke="black" d="M887.57,-1623.33C906.19,-1630.55 931.7,-1640.44 953.79,-1649.01"/>
<polygon fill="black" stroke="black" points="952.3,-1652.19 962.89,-1652.54 954.84,-1645.66 952.3,-1652.19"/>
</g>
<!-- k&#45;&gt;parse -->
<g id="edge71" class="edge">
<title>k&#45;&gt;parse</title>
<path fill="none" stroke="black" d="M873.51,-1594.8C904.33,-1547.54 986.84,-1417.28 1038.5,-1300.17 1069.12,-1230.76 1093.94,-1144.76 1105.8,-1100.51"/>
<polygon fill="black" stroke="black" points="1109.17,-1101.47 1108.35,-1090.9 1102.4,-1099.67 1109.17,-1101.47"/>
</g>
<!-- k&#45;&gt;sexp -->
<g id="edge72" class="edge">
<title>k&#45;&gt;sexp</title>
<path fill="none" stroke="black" d="M871.26,-1594.88C885.31,-1568.37 911.29,-1517.49 928.75,-1472.17 957.49,-1397.59 981.88,-1306.44 993.45,-1260.55"/>
<polygon fill="black" stroke="black" points="996.78,-1261.65 995.8,-1251.1 989.98,-1259.96 996.78,-1261.65"/>
</g>
<!-- kernel -->
<g id="node24" class="node">
<title>kernel</title>
<polygon fill="none" stroke="black" points="608,-1287.17 550.75,-1287.17 550.75,-1251.17 608,-1251.17 608,-1287.17"/>
<text text-anchor="middle" x="579.38" y="-1264.87" font-family="sans-serif" font-size="14.00">kernel</text>
</g>
<!-- kernel&#45;&gt;hash -->
<g id="edge73" class="edge">
<title>kernel&#45;&gt;hash</title>
<path fill="none" stroke="black" d="M608.08,-1258.28C615.18,-1254.23 622.11,-1248.93 626.75,-1242.17 683.37,-1159.8 614.11,-1107.5 662.75,-1020.17 689.46,-972.21 723.4,-983.34 756,-939.17 804.62,-873.29 836.83,-780.93 851.05,-734.4"/>
<polygon fill="black" stroke="black" points="854.33,-735.64 853.84,-725.06 847.62,-733.63 854.33,-735.64"/>
</g>
<!-- kernel&#45;&gt;init -->
<g id="edge74" class="edge">
<title>kernel&#45;&gt;init</title>
<path fill="none" stroke="black" d="M586.9,-1287.62C607.74,-1346.57 672.84,-1530.66 698.16,-1602.27"/>
<polygon fill="black" stroke="black" points="694.73,-1603.07 701.36,-1611.33 701.33,-1600.74 694.73,-1603.07"/>
</g>
<!-- kernel&#45;&gt;object -->
<g id="edge75" class="edge">
<title>kernel&#45;&gt;object</title>
<path fill="none" stroke="black" d="M608.17,-1258.34C615.27,-1254.29 622.18,-1248.98 626.75,-1242.17 690.61,-1147.19 640.95,-1099.53 662.75,-987.17 673.47,-931.92 690.22,-868.39 700.17,-832.29"/>
<polygon fill="black" stroke="black" points="703.44,-833.61 702.74,-823.03 696.69,-831.73 703.44,-833.61"/>
</g>
<!-- kernel&#45;&gt;sexp -->
<g id="edge76" class="edge">
<title>kernel&#45;&gt;sexp</title>
<path fill="none" stroke="black" d="M608.38,-1259.99C648.52,-1247.37 724.96,-1225.29 792,-1217.17 852.34,-1209.87 868.25,-1211.33 928.75,-1217.17 940.02,-1218.26 952.15,-1220.28 963.17,-1222.46"/>
<polygon fill="black" stroke="black" points="962.19,-1225.83 972.7,-1224.45 963.62,-1218.98 962.19,-1225.83"/>
</g>
<!-- kernel&#45;&gt;store -->
<g id="edge77" class="edge">
<title>kernel&#45;&gt;store</title>
<path fill="none" stroke="black" d="M608.15,-1258.91C615.43,-1254.84 622.44,-1249.36 626.75,-1242.17 683.45,-1147.57 606.39,-344.98 662.75,-250.17 665.24,-245.99 668.64,-242.38 672.48,-239.29"/>
<polygon fill="black" stroke="black" points="674.33,-242.26 680.74,-233.83 670.47,-236.43 674.33,-242.26"/>
</g>
<!-- kernel&#45;sat -->
<g id="node25" class="node">
<title>kernel&#45;sat</title>
<polygon fill="none" stroke="black" points="621.12,-1732.17 537.62,-1732.17 537.62,-1696.17 621.12,-1696.17 621.12,-1732.17"/>
<text text-anchor="middle" x="579.38" y="-1709.87" font-family="sans-serif" font-size="14.00">kernel&#45;sat</text>
</g>
<!-- kernel&#45;sat&#45;&gt;core -->
<g id="edge78" class="edge">
<title>kernel&#45;sat&#45;&gt;core</title>
<path fill="none" stroke="black" d="M594.15,-1732.4C632.77,-1783.07 742.5,-1923.85 792,-1954.17 820.65,-1971.72 911.2,-1992.59 963.1,-2003.56"/>
<polygon fill="black" stroke="black" points="962.19,-2006.94 972.69,-2005.56 963.62,-2000.09 962.19,-2006.94"/>
</g>
<!-- kernel&#45;sat&#45;&gt;hol&#45;eval -->
<g id="edge79" class="edge">
<title>kernel&#45;sat&#45;&gt;hol&#45;eval</title>
<path fill="none" stroke="black" d="M621.49,-1712.62C659.48,-1713.15 715.93,-1719.12 756,-1746.17 780.83,-1762.94 769.58,-1783.29 792,-1803.17 798.68,-1809.09 806.64,-1814.14 814.71,-1818.36"/>
<polygon fill="black" stroke="black" points="813.02,-1821.43 823.55,-1822.62 816.05,-1815.13 813.02,-1821.43"/>
</g>
<!-- kernel&#45;sat&#45;&gt;init -->
<g id="edge80" class="edge">
<title>kernel&#45;sat&#45;&gt;init</title>
<path fill="none" stroke="black" d="M608.78,-1695.75C627.64,-1683.52 652.55,-1667.37 672.74,-1654.28"/>
<polygon fill="black" stroke="black" points="674.47,-1657.33 680.96,-1648.95 670.66,-1651.45 674.47,-1657.33"/>
</g>
<!-- sat -->
<g id="node47" class="node">
<title>sat</title>
<polygon fill="none" stroke="black" points="887.38,-1371.17 833.38,-1371.17 833.38,-1335.17 887.38,-1335.17 887.38,-1371.17"/>
<text text-anchor="middle" x="860.38" y="-1348.87" font-family="sans-serif" font-size="14.00">sat</text>
</g>
<!-- kernel&#45;sat&#45;&gt;sat -->
<g id="edge81" class="edge">
<title>kernel&#45;sat&#45;&gt;sat</title>
<path fill="none" stroke="black" d="M594.26,-1695.69C630.89,-1646.8 729.14,-1514.54 756,-1467.17 775.63,-1432.55 764.28,-1413.73 792,-1385.17 800.39,-1376.53 811.57,-1369.94 822.42,-1365.06"/>
<polygon fill="black" stroke="black" points="823.69,-1368.32 831.63,-1361.3 821.05,-1361.84 823.69,-1368.32"/>
</g>
<!-- kernel&#45;smt -->
<g id="node26" class="node">
<title>kernel&#45;smt</title>
<polygon fill="none" stroke="black" points="494.5,-2097.17 406.5,-2097.17 406.5,-2061.17 494.5,-2061.17 494.5,-2097.17"/>
<text text-anchor="middle" x="450.5" y="-2074.87" font-family="sans-serif" font-size="14.00">kernel&#45;smt</text>
</g>
<!-- kernel&#45;smt&#45;&gt;core -->
<g id="edge82" class="edge">
<title>kernel&#45;smt&#45;&gt;core</title>
<path fill="none" stroke="black" d="M481.93,-2097.6C561.91,-2143.42 781.95,-2252.34 928.75,-2160.17 970.49,-2133.96 988.57,-2075.94 995.95,-2040.53"/>
<polygon fill="black" stroke="black" points="999.34,-2041.44 997.78,-2030.96 992.46,-2040.12 999.34,-2041.44"/>
</g>
<!-- kernel&#45;smt&#45;&gt;hol&#45;api -->
<g id="edge83" class="edge">
<title>kernel&#45;smt&#45;&gt;hol&#45;api</title>
<path fill="none" stroke="black" d="M494.81,-2062.45C508.52,-2057.15 523.62,-2051.32 537.18,-2046.08"/>
<polygon fill="black" stroke="black" points="538.18,-2049.45 546.25,-2042.58 535.66,-2042.92 538.18,-2049.45"/>
</g>
<!-- kv -->
<g id="node27" class="node">
<title>kv</title>
<polygon fill="none" stroke="black" points="226.12,-251.17 172.12,-251.17 172.12,-215.17 226.12,-215.17 226.12,-251.17"/>
<text text-anchor="middle" x="199.12" y="-228.87" font-family="sans-serif" font-size="14.00">kv</text>
</g>
<!-- lean -->
<g id="node28" class="node">
<title>lean</title>
<polygon fill="none" stroke="black" points="87.5,-1037.17 33.5,-1037.17 33.5,-1001.17 87.5,-1001.17 87.5,-1037.17"/>
<text text-anchor="middle" x="60.5" y="-1014.87" font-family="sans-serif" font-size="14.00">lean</text>
</g>
<!-- lisp -->
<g id="node29" class="node">
<title>lisp</title>
<polygon fill="none" stroke="black" points="477.5,-1512.17 423.5,-1512.17 423.5,-1476.17 477.5,-1476.17 477.5,-1512.17"/>
<text text-anchor="middle" x="450.5" y="-1489.87" font-family="sans-serif" font-size="14.00">lisp</text>
</g>
<!-- lisp&#45;&gt;core -->
<g id="edge84" class="edge">
<title>lisp&#45;&gt;core</title>
<path fill="none" stroke="black" d="M452.66,-1512.43C456.51,-1560.73 472.24,-1694.33 532,-1784.17 613.5,-1906.7 655.69,-1933.72 792,-1989.17 848.28,-2012.07 919.8,-2014.46 962.8,-2013.36"/>
<polygon fill="black" stroke="black" points="962.75,-2016.86 972.62,-2013.02 962.51,-2009.87 962.75,-2016.86"/>
</g>
<!-- lisp&#45;&gt;hol&#45;api -->
<g id="edge85" class="edge">
<title>lisp&#45;&gt;hol&#45;api</title>
<path fill="none" stroke="black" d="M454.01,-1512.44C466.13,-1600.41 518.65,-1977 532,-1998.17 533.98,-2001.32 536.4,-2004.23 539.08,-2006.92"/>
<polygon fill="black" stroke="black" points="536.68,-2009.48 546.56,-2013.3 541.23,-2004.15 536.68,-2009.48"/>
</g>
<!-- lisp&#45;&gt;hol&#45;eval -->
<g id="edge86" class="edge">
<title>lisp&#45;&gt;hol&#45;eval</title>
<path fill="none" stroke="black" d="M451.91,-1512.36C453.93,-1557.78 465.64,-1677.12 532,-1741.17 609.83,-1816.29 743.57,-1832.05 813.6,-1834.93"/>
<polygon fill="black" stroke="black" points="813.46,-1838.43 823.57,-1835.26 813.69,-1831.43 813.46,-1838.43"/>
</g>
<!-- lisp&#45;&gt;init -->
<g id="edge87" class="edge">
<title>lisp&#45;&gt;init</title>
<path fill="none" stroke="black" d="M467.44,-1512.54C482.61,-1529.04 506.81,-1552.96 532,-1568.17 576.52,-1595.05 634.26,-1612.94 671.32,-1622.57"/>
<polygon fill="black" stroke="black" points="670.1,-1625.88 680.66,-1624.93 671.82,-1619.09 670.1,-1625.88"/>
</g>
<!-- lisp&#45;&gt;repl&#45;core -->
<g id="edge88" class="edge">
<title>lisp&#45;&gt;repl&#45;core</title>
<path fill="none" stroke="black" d="M456.57,-1475.69C471.77,-1420.76 516.8,-1261.11 532,-1242.17 532.24,-1241.87 532.49,-1241.57 532.73,-1241.28"/>
<polygon fill="black" stroke="black" points="535,-1243.95 539.82,-1234.52 530.17,-1238.89 535,-1243.95"/>
</g>
<!-- lisp&#45;&gt;sexp -->
<g id="edge89" class="edge">
<title>lisp&#45;&gt;sexp</title>
<path fill="none" stroke="black" d="M467.9,-1475.91C483.79,-1458.5 508.81,-1431.81 532,-1410.17 632.06,-1316.8 658.99,-1277.43 792,-1245.17 850.4,-1231.01 920.51,-1229.31 962.77,-1229.88"/>
<polygon fill="black" stroke="black" points="962.59,-1233.37 972.66,-1230.06 962.73,-1226.37 962.59,-1233.37"/>
</g>
<!-- lisp&#45;&gt;types -->
<g id="edge90" class="edge">
<title>lisp&#45;&gt;types</title>
<path fill="none" stroke="black" d="M473.07,-1475.71C488.39,-1463.86 510.07,-1449.53 532,-1443.17 572.44,-1431.44 586.45,-1430.97 626.75,-1443.17 645.15,-1448.74 645.02,-1459.74 662.75,-1467.17 725.28,-1493.38 972.5,-1559.17 1113.38,-1559.17 1113.38,-1559.17 1113.38,-1559.17 1218.25,-1559.17 1293.15,-1559.17 1324.7,-1557.11 1379.5,-1608.17 1417.31,-1643.4 1432.29,-1704.19 1438.05,-1740.45"/>
<polygon fill="black" stroke="black" points="1434.57,-1740.83 1439.46,-1750.23 1441.5,-1739.83 1434.57,-1740.83"/>
</g>
<!-- llm -->
<g id="node30" class="node">
<title>llm</title>
<polygon fill="none" stroke="black" points="226.12,-975.17 172.12,-975.17 172.12,-939.17 226.12,-939.17 226.12,-975.17"/>
<text text-anchor="middle" x="199.12" y="-952.87" font-family="sans-serif" font-size="14.00">llm</text>
</g>
<!-- llm&#45;&gt;proto -->
<g id="edge91" class="edge">
<title>llm&#45;&gt;proto</title>
<path fill="none" stroke="black" d="M226.6,-967.15C243.7,-973.6 266.21,-982.09 285.08,-989.2"/>
<polygon fill="black" stroke="black" points="283.7,-992.42 294.29,-992.68 286.17,-985.87 283.7,-992.42"/>
</g>
<!-- lsp&#45;&gt;sexp -->
<g id="edge92" class="edge">
<title>lsp&#45;&gt;sexp</title>
<path fill="none" stroke="black" d="M885.96,-943.52C900.3,-955.39 917.68,-971.98 928.75,-990.17 970.71,-1059.14 989.55,-1154.21 996.78,-1201.69"/>
<polygon fill="black" stroke="black" points="993.3,-1202.07 998.2,-1211.46 1000.23,-1201.06 993.3,-1202.07"/>
</g>
<!-- lsp&#45;&gt;wasm -->
<g id="edge93" class="edge">
<title>lsp&#45;&gt;wasm</title>
<path fill="none" stroke="black" d="M868.76,-906.81C882.21,-872.82 910.95,-797.58 928.75,-732.17 961.96,-610.13 986.6,-461.11 996.21,-398.79"/>
<polygon fill="black" stroke="black" points="999.65,-399.42 997.7,-389.01 992.73,-398.37 999.65,-399.42"/>
</g>
<!-- metamath&#45;&gt;parse -->
<g id="edge94" class="edge">
<title>metamath&#45;&gt;parse</title>
<path fill="none" stroke="black" d="M901.03,-1071.17C948.84,-1071.17 1028.62,-1071.17 1075.59,-1071.17"/>
<polygon fill="black" stroke="black" points="1075.55,-1074.67 1085.55,-1071.17 1075.55,-1067.67 1075.55,-1074.67"/>
</g>
<!-- metamath&#45;&gt;sexp -->
<g id="edge95" class="edge">
<title>metamath&#45;&gt;sexp</title>
<path fill="none" stroke="black" d="M900.98,-1085.04C910.81,-1089.75 920.8,-1095.75 928.75,-1103.17 958.51,-1130.97 979.12,-1173.93 990.41,-1202.3"/>
<polygon fill="black" stroke="black" points="987.03,-1203.26 993.87,-1211.34 993.57,-1200.75 987.03,-1203.26"/>
</g>
<!-- multiformat -->
<g id="node33" class="node">
<title>multiformat</title>
<polygon fill="none" stroke="black" points="754.5,-1065.17 664.25,-1065.17 664.25,-1029.17 754.5,-1029.17 754.5,-1065.17"/>
<text text-anchor="middle" x="709.38" y="-1042.87" font-family="sans-serif" font-size="14.00">multiformat</text>
</g>
<!-- multiformat&#45;&gt;acset -->
<g id="edge96" class="edge">
<title>multiformat&#45;&gt;acset</title>
<path fill="none" stroke="black" d="M754.68,-1038.25C776.15,-1033.93 801.64,-1028.8 822.1,-1024.68"/>
<polygon fill="black" stroke="black" points="822.59,-1028.15 831.71,-1022.74 821.21,-1021.29 822.59,-1028.15"/>
</g>
<!-- multiformat&#45;&gt;hash -->
<g id="edge97" class="edge">
<title>multiformat&#45;&gt;hash</title>
<path fill="none" stroke="black" d="M742.26,-1028.99C747.39,-1024.96 752.24,-1020.34 756,-1015.17 788,-971.17 775.03,-949.86 792,-898.17 811.21,-839.65 835.34,-771.78 848.89,-734.13"/>
<polygon fill="black" stroke="black" points="852.12,-735.47 852.22,-724.88 845.54,-733.1 852.12,-735.47"/>
</g>
<!-- multiformat&#45;&gt;parse -->
<g id="edge98" class="edge">
<title>multiformat&#45;&gt;parse</title>
<path fill="none" stroke="black" d="M729.3,-1028.84C744.76,-1015.22 767.93,-997.74 792,-990.17 849.98,-971.93 869.27,-977.7 928.75,-990.17 983.23,-1001.6 1041.28,-1030.09 1077.43,-1050.03"/>
<polygon fill="black" stroke="black" points="1075.27,-1052.84 1085.71,-1054.67 1078.7,-1046.73 1075.27,-1052.84"/>
</g>
<!-- object&#45;&gt;hash -->
<g id="edge99" class="edge">
<title>object&#45;&gt;hash</title>
<path fill="none" stroke="black" d="M738.4,-784.74C762.47,-768.91 797.32,-745.99 823.43,-728.81"/>
<polygon fill="black" stroke="black" points="825.28,-731.79 831.71,-723.37 821.43,-725.94 825.28,-731.79"/>
</g>
<!-- object&#45;&gt;parse -->
<g id="edge100" class="edge">
<title>object&#45;&gt;parse</title>
<path fill="none" stroke="black" d="M738.33,-812.1C781.28,-826.52 865.21,-857.48 928.75,-898.17 983.82,-933.44 990.99,-951.24 1038.5,-996.17 1055.15,-1011.92 1073.32,-1030.1 1087.59,-1044.61"/>
<polygon fill="black" stroke="black" points="1084.95,-1046.91 1094.45,-1051.61 1089.95,-1042.02 1084.95,-1046.91"/>
</g>
<!-- opentheory&#45;&gt;core -->
<g id="edge101" class="edge">
<title>opentheory&#45;&gt;core</title>
<path fill="none" stroke="black" d="M496.28,-2252.94C588.54,-2270.27 801.77,-2295.54 928.75,-2192.17 975.42,-2154.18 991.94,-2081.51 997.67,-2040.75"/>
<polygon fill="black" stroke="black" points="1001.13,-2041.31 998.91,-2030.95 994.19,-2040.43 1001.13,-2041.31"/>
</g>
<!-- opentheory&#45;&gt;hol -->
<g id="edge102" class="edge">
<title>opentheory&#45;&gt;hol</title>
<path fill="none" stroke="black" d="M496.35,-2240.6C556.85,-2236.03 667.26,-2223.79 756,-2192.17 779.87,-2183.67 804.59,-2169.77 823.87,-2157.6"/>
<polygon fill="black" stroke="black" points="825.65,-2160.62 832.15,-2152.26 821.85,-2154.74 825.65,-2160.62"/>
</g>
<!-- opentheory&#45;&gt;hol&#45;api -->
<g id="edge103" class="edge">
<title>opentheory&#45;&gt;hol&#45;api</title>
<path fill="none" stroke="black" d="M462.13,-2225.11C477.5,-2199.03 506.82,-2149.34 532,-2107.17 541.75,-2090.84 552.73,-2072.61 561.55,-2057.99"/>
<polygon fill="black" stroke="black" points="564.32,-2060.17 566.5,-2049.8 558.33,-2056.55 564.32,-2060.17"/>
</g>
<!-- opentheory&#45;&gt;hol&#45;eval -->
<g id="edge104" class="edge">
<title>opentheory&#45;&gt;hol&#45;eval</title>
<path fill="none" stroke="black" d="M471.92,-2224.8C522.16,-2179.26 655.01,-2056.79 756,-1945.17 773.18,-1926.18 774.75,-1919.1 792,-1900.17 804.19,-1886.8 818.51,-1872.77 830.82,-1861.18"/>
<polygon fill="black" stroke="black" points="832.93,-1863.99 837.85,-1854.61 828.15,-1858.88 832.93,-1863.99"/>
</g>
<!-- parquet -->
<g id="node36" class="node">
<title>parquet</title>
<polygon fill="none" stroke="black" points="484,-609.17 417,-609.17 417,-573.17 484,-573.17 484,-609.17"/>
<text text-anchor="middle" x="450.5" y="-586.87" font-family="sans-serif" font-size="14.00">parquet</text>
</g>
<!-- parquet&#45;&gt;arrow -->
<g id="edge105" class="edge">
<title>parquet&#45;&gt;arrow</title>
<path fill="none" stroke="black" d="M484.17,-587.05C501.52,-584.86 522.91,-582.17 540.93,-579.89"/>
<polygon fill="black" stroke="black" points="541.22,-583.39 550.7,-578.66 540.34,-576.44 541.22,-583.39"/>
</g>
<!-- proptest -->
<g id="node38" class="node">
<title>proptest</title>
<polygon fill="none" stroke="black" points="95.88,-1091.17 25.12,-1091.17 25.12,-1055.17 95.88,-1055.17 95.88,-1091.17"/>
<text text-anchor="middle" x="60.5" y="-1068.87" font-family="sans-serif" font-size="14.00">proptest</text>
</g>
<!-- pure&#45;trusted -->
<g id="node42" class="node">
<title>pure&#45;trusted</title>
<polygon fill="#ffd6d6" stroke="black" points="1379.5,-1897.17 1280.25,-1897.17 1280.25,-1861.17 1379.5,-1861.17 1379.5,-1897.17"/>
<text text-anchor="middle" x="1329.88" y="-1874.87" font-family="sans-serif" font-size="14.00">pure&#45;trusted</text>
</g>
<!-- pure&#45;&gt;pure&#45;trusted -->
<g id="edge106" class="edge">
<title>pure&#45;&gt;pure&#45;trusted</title>
<path fill="none" stroke="black" d="M1244.75,-1880.69C1252.04,-1880.56 1260.27,-1880.41 1268.64,-1880.26"/>
<polygon fill="black" stroke="black" points="1268.63,-1883.76 1278.57,-1880.08 1268.51,-1876.76 1268.63,-1883.76"/>
</g>
<!-- pure&#45;eval&#45;&gt;pure -->
<g id="edge107" class="edge">
<title>pure&#45;eval&#45;&gt;pure</title>
<path fill="none" stroke="black" d="M1154.66,-1853.09C1162.9,-1856.84 1171.54,-1860.79 1179.67,-1864.49"/>
<polygon fill="black" stroke="black" points="1178.05,-1867.6 1188.6,-1868.56 1180.96,-1861.23 1178.05,-1867.6"/>
</g>
<!-- pure&#45;eval&#45;&gt;types -->
<g id="edge108" class="edge">
<title>pure&#45;eval&#45;&gt;types</title>
<path fill="none" stroke="black" d="M1154.36,-1834.89C1206.74,-1833.51 1302.17,-1827.5 1379.5,-1803.17 1388.17,-1800.44 1397.05,-1796.51 1405.27,-1792.3"/>
<polygon fill="black" stroke="black" points="1406.82,-1795.44 1413.95,-1787.61 1403.49,-1789.28 1406.82,-1795.44"/>
</g>
<!-- pure&#45;trusted&#45;&gt;types -->
<g id="edge109" class="edge">
<title>pure&#45;trusted&#45;&gt;types</title>
<path fill="none" stroke="black" d="M1359.89,-1860.8C1366.6,-1856.04 1373.52,-1850.69 1379.5,-1845.17 1395.13,-1830.75 1410.38,-1812.38 1421.84,-1797.43"/>
<polygon fill="black" stroke="black" points="1424.34,-1799.93 1427.55,-1789.84 1418.74,-1795.73 1424.34,-1799.93"/>
</g>
<!-- python -->
<g id="node43" class="node">
<title>python</title>
<polygon fill="none" stroke="black" points="91.38,-373.17 29.62,-373.17 29.62,-337.17 91.38,-337.17 91.38,-373.17"/>
<text text-anchor="middle" x="60.5" y="-350.87" font-family="sans-serif" font-size="14.00">python</text>
</g>
<!-- python&#45;&gt;crypto&#45;sig -->
<g id="edge110" class="edge">
<title>python&#45;&gt;crypto&#45;sig</title>
<path fill="none" stroke="black" d="M66.12,-336.75C76.83,-296.78 106.36,-200.49 157,-135.17 158.7,-132.98 160.58,-130.86 162.57,-128.82"/>
<polygon fill="black" stroke="black" points="164.57,-131.74 169.57,-122.4 159.84,-126.58 164.57,-131.74"/>
</g>
<!-- python&#45;&gt;git -->
<g id="edge111" class="edge">
<title>python&#45;&gt;git</title>
<path fill="none" stroke="black" d="M66.89,-336.68C77.69,-303.41 105.51,-234.33 157,-206.17 189.85,-188.21 206.81,-191.49 241.25,-206.17 332.51,-245.08 403.01,-345.75 433.3,-395.09"/>
<polygon fill="black" stroke="black" points="430.21,-396.74 438.37,-403.5 436.21,-393.12 430.21,-396.74"/>
</g>
<!-- python&#45;&gt;graph -->
<g id="edge112" class="edge">
<title>python&#45;&gt;graph</title>
<path fill="none" stroke="black" d="M91.57,-347.5C150.98,-332.73 287.83,-300.61 405,-287.17 500.07,-276.27 612.91,-275.8 670.47,-276.45"/>
<polygon fill="black" stroke="black" points="670.33,-279.95 680.38,-276.58 670.43,-272.95 670.33,-279.95"/>
</g>
<!-- python&#45;&gt;hash -->
<g id="edge113" class="edge">
<title>python&#45;&gt;hash</title>
<path fill="none" stroke="black" d="M91.66,-356.19C211.93,-360.83 655.57,-383.92 756,-474.17 817.13,-529.11 844.12,-627.11 854.22,-675.9"/>
<polygon fill="black" stroke="black" points="850.73,-676.29 856.1,-685.43 857.6,-674.94 850.73,-676.29"/>
</g>
<!-- python&#45;&gt;kv -->
<g id="edge114" class="edge">
<title>python&#45;&gt;kv</title>
<path fill="none" stroke="black" d="M80.04,-336.7C98.94,-318.12 129.32,-288.89 157,-265.17 159.6,-262.95 162.32,-260.68 165.08,-258.44"/>
<polygon fill="black" stroke="black" points="167.08,-261.32 172.71,-252.35 162.71,-255.85 167.08,-261.32"/>
</g>
<!-- python&#45;&gt;llm -->
<g id="edge115" class="edge">
<title>python&#45;&gt;llm</title>
<path fill="none" stroke="black" d="M65.66,-373.52C85.13,-459.28 167.22,-820.98 191.4,-927.52"/>
<polygon fill="black" stroke="black" points="187.97,-928.22 193.59,-937.2 194.79,-926.67 187.97,-928.22"/>
</g>
<!-- python&#45;&gt;object -->
<g id="edge116" class="edge">
<title>python&#45;&gt;object</title>
<path fill="none" stroke="black" d="M65.93,-373.58C81.99,-435.9 143.32,-640.13 277.25,-732.17 400.02,-816.55 588.13,-813.25 669.09,-807.14"/>
<polygon fill="black" stroke="black" points="669.28,-810.64 678.96,-806.33 668.7,-803.66 669.28,-810.64"/>
</g>
<!-- python&#45;&gt;repl -->
<g id="edge117" class="edge">
<title>python&#45;&gt;repl</title>
<path fill="none" stroke="black" d="M75.15,-373.5C118.16,-431.26 251.07,-609.75 301.99,-678.13"/>
<polygon fill="black" stroke="black" points="298.93,-679.88 307.71,-685.81 304.55,-675.7 298.93,-679.88"/>
</g>
<!-- python&#45;&gt;sat -->
<g id="edge118" class="edge">
<title>python&#45;&gt;sat</title>
<path fill="none" stroke="black" d="M63.66,-373.43C71.64,-441.07 100.09,-683.79 121,-884.17 129.67,-967.22 107.62,-1190.84 157,-1258.17 236.12,-1366.05 687.54,-1359.21 821.75,-1354.7"/>
<polygon fill="black" stroke="black" points="821.63,-1358.2 831.5,-1354.35 821.39,-1351.21 821.63,-1358.2"/>
</g>
<!-- python&#45;&gt;serve -->
<g id="edge119" class="edge">
<title>python&#45;&gt;serve</title>
<path fill="none" stroke="black" d="M62.74,-373.5C68.22,-449.65 92.86,-748.08 157,-984.17 164.03,-1010.04 175.57,-1038.23 184.65,-1058.57"/>
<polygon fill="black" stroke="black" points="181.44,-1059.97 188.76,-1067.62 187.81,-1057.07 181.44,-1059.97"/>
</g>
<!-- python&#45;&gt;sexp -->
<g id="edge120" class="edge">
<title>python&#45;&gt;sexp</title>
<path fill="none" stroke="black" d="M63.51,-373.56C76.09,-488.19 143.79,-1100.16 157,-1114.17 233.93,-1195.71 293.95,-1144.82 405,-1160.17 636.55,-1192.19 699.68,-1161.61 928.75,-1208.17 940.31,-1210.52 952.62,-1214.06 963.73,-1217.66"/>
<polygon fill="black" stroke="black" points="962.34,-1220.89 972.93,-1220.76 964.57,-1214.25 962.34,-1220.89"/>
</g>
<!-- python&#45;&gt;shell -->
<g id="edge121" class="edge">
<title>python&#45;&gt;shell</title>
<path fill="none" stroke="black" d="M63.58,-373.44C71.28,-441.11 98.85,-683.92 121,-884.17 129.13,-957.71 109.88,-1158.12 157,-1215.17 220.57,-1292.14 348.39,-1304.61 411.9,-1305.79"/>
<polygon fill="black" stroke="black" points="411.8,-1309.29 421.83,-1305.88 411.87,-1302.29 411.8,-1309.29"/>
</g>
<!-- python&#45;&gt;store -->
<g id="edge122" class="edge">
<title>python&#45;&gt;store</title>
<path fill="none" stroke="black" d="M66.81,-336.82C77.74,-302.46 106.08,-228.46 157,-190.17 217.44,-144.73 246.51,-149.17 322.12,-149.17 322.12,-149.17 322.12,-149.17 451.5,-149.17 530.12,-149.17 552.71,-146.74 626.75,-173.17 643.66,-179.21 660.84,-189.06 675.05,-198.43"/>
<polygon fill="black" stroke="black" points="672.88,-201.19 683.12,-203.93 676.83,-195.4 672.88,-201.19"/>
</g>
<!-- python&#45;&gt;wasm -->
<g id="edge123" class="edge">
<title>python&#45;&gt;wasm</title>
<path fill="none" stroke="black" d="M61.34,-336.74C61.93,-283.49 71.28,-128.12 157,-48.17 212.15,3.26 246.72,-9.17 322.12,-9.17 322.12,-9.17 322.12,-9.17 710.38,-9.17 808.47,-9.17 857,25.71 928.75,-41.17 972.38,-81.84 992.18,-267.03 998.37,-339.74"/>
<polygon fill="black" stroke="black" points="994.85,-339.61 999.16,-349.29 1001.83,-339.03 994.85,-339.61"/>
</g>
<!-- wasm&#45;store -->
<g id="node60" class="node">
<title>wasm&#45;store</title>
<polygon fill="none" stroke="black" points="626.75,-79.17 532,-79.17 532,-43.17 626.75,-43.17 626.75,-79.17"/>
<text text-anchor="middle" x="579.38" y="-56.87" font-family="sans-serif" font-size="14.00">wasm&#45;store</text>
</g>
<!-- python&#45;&gt;wasm&#45;store -->
<g id="edge124" class="edge">
<title>python&#45;&gt;wasm&#45;store</title>
<path fill="none" stroke="black" d="M61.29,-336.86C61.79,-285.54 71.07,-139.93 157,-76.17 212.9,-34.7 418.28,-46.57 520.21,-55.41"/>
<polygon fill="black" stroke="black" points="519.74,-58.88 530.01,-56.28 520.36,-51.91 519.74,-58.88"/>
</g>
<!-- repl&#45;&gt;arrow -->
<g id="edge125" class="edge">
<title>repl&#45;&gt;arrow</title>
<path fill="none" stroke="black" d="M350.51,-690.32C366.22,-681.61 386.61,-670.51 405,-661.17 444.89,-640.92 455.94,-638.08 496,-618.17 511.23,-610.6 527.88,-601.98 542.21,-594.45"/>
<polygon fill="black" stroke="black" points="543.62,-597.66 550.83,-589.89 540.36,-591.47 543.62,-597.66"/>
</g>
<!-- repl&#45;&gt;forsp -->
<g id="edge126" class="edge">
<title>repl&#45;&gt;forsp</title>
<path fill="none" stroke="black" d="M333.19,-723.41C343.01,-743.71 358.67,-777.69 369,-808.17 405.15,-914.82 432.69,-1046.16 443.94,-1103.76"/>
<polygon fill="black" stroke="black" points="440.48,-1104.26 445.81,-1113.41 447.35,-1102.93 440.48,-1104.26"/>
</g>
<!-- repl&#45;&gt;git -->
<g id="edge127" class="edge">
<title>repl&#45;&gt;git</title>
<path fill="none" stroke="black" d="M328.46,-686.88C340.78,-635.94 376.91,-493.69 405,-455.17 407.64,-451.56 410.81,-448.19 414.23,-445.1"/>
<polygon fill="black" stroke="black" points="416.27,-447.95 421.89,-438.96 411.9,-442.48 416.27,-447.95"/>
</g>
<!-- repl&#45;&gt;graph -->
<g id="edge128" class="edge">
<title>repl&#45;&gt;graph</title>
<path fill="none" stroke="black" d="M329.84,-686.81C340.77,-653.53 367,-582 405,-531.17 407.86,-527.35 658.89,-306.98 662.75,-304.17 665.9,-301.88 669.25,-299.62 672.66,-297.42"/>
<polygon fill="black" stroke="black" points="674.3,-300.52 680.97,-292.28 670.62,-294.57 674.3,-300.52"/>
</g>
<!-- repl&#45;&gt;hash -->
<g id="edge129" class="edge">
<title>repl&#45;&gt;hash</title>
<path fill="none" stroke="black" d="M350.6,-700.62C389.99,-694.09 466.45,-682.41 532,-678.17 637.11,-671.37 760.95,-688.44 821.79,-698.47"/>
<polygon fill="black" stroke="black" points="821.15,-701.91 831.6,-700.12 822.32,-695.01 821.15,-701.91"/>
</g>
<!-- repl&#45;&gt;init -->
<g id="edge130" class="edge">
<title>repl&#45;&gt;init</title>
<path fill="none" stroke="black" d="M334.2,-723.53C344.75,-743.66 360.89,-777.23 369,-808.17 408.88,-960.29 335.09,-1019.31 405,-1160.17 429.6,-1209.75 470.41,-1196.1 496,-1245.17 548.31,-1345.49 464.13,-1406.65 532,-1497.17 559.74,-1534.17 589.61,-1512.62 626.75,-1540.17 646.23,-1554.62 646.58,-1563.1 662.75,-1581.17 669.51,-1588.72 676.89,-1596.86 683.71,-1604.34"/>
<polygon fill="black" stroke="black" points="681.04,-1606.59 690.37,-1611.61 686.2,-1601.87 681.04,-1606.59"/>
</g>
<!-- repl&#45;&gt;object -->
<g id="edge131" class="edge">
<title>repl&#45;&gt;object</title>
<path fill="none" stroke="black" d="M350.5,-713.86C389.77,-726.6 466.06,-750.64 532,-767.17 578.91,-778.93 633.56,-789.63 669.45,-796.25"/>
<polygon fill="black" stroke="black" points="668.45,-799.63 678.92,-797.98 669.71,-792.74 668.45,-799.63"/>
</g>
<!-- repl&#45;&gt;parquet -->
<g id="edge132" class="edge">
<title>repl&#45;&gt;parquet</title>
<path fill="none" stroke="black" d="M340.66,-686.69C356.45,-669.47 381.3,-643.45 405,-623.17 407.75,-620.82 410.66,-618.46 413.63,-616.15"/>
<polygon fill="black" stroke="black" points="415.49,-619.13 421.38,-610.32 411.28,-613.54 415.49,-619.13"/>
</g>
<!-- repl&#45;&gt;shell -->
<g id="edge133" class="edge">
<title>repl&#45;&gt;shell</title>
<path fill="none" stroke="black" d="M334.31,-723.5C344.95,-743.61 361.16,-777.16 369,-808.17 415.66,-992.82 344.15,-1054.7 405,-1235.17 410.08,-1250.25 419.06,-1265.35 427.63,-1277.64"/>
<polygon fill="black" stroke="black" points="424.73,-1279.6 433.45,-1285.62 430.39,-1275.48 424.73,-1279.6"/>
</g>
<!-- repl&#45;&gt;wasm -->
<g id="edge134" class="edge">
<title>repl&#45;&gt;wasm</title>
<path fill="none" stroke="black" d="M329.58,-687.12C339.58,-657.11 363.69,-597 405,-564.17 595.35,-412.9 703.34,-497.3 928.75,-406.17 940.6,-401.38 953.13,-395.31 964.34,-389.48"/>
<polygon fill="black" stroke="black" points="965.68,-392.73 972.87,-384.95 962.4,-386.55 965.68,-392.73"/>
</g>
<!-- sat&#45;&gt;parse -->
<g id="edge135" class="edge">
<title>sat&#45;&gt;parse</title>
<path fill="none" stroke="black" d="M887.64,-1345.59C925.89,-1333.28 996.87,-1305.43 1038.5,-1258.17 1079.33,-1211.82 1099.47,-1140.4 1108.02,-1100.57"/>
<polygon fill="black" stroke="black" points="1111.4,-1101.51 1109.97,-1091.01 1104.55,-1100.11 1111.4,-1101.51"/>
</g>
<!-- sat&#45;&gt;types -->
<g id="edge136" class="edge">
<title>sat&#45;&gt;types</title>
<path fill="none" stroke="black" d="M887.76,-1357.87C933.52,-1365.61 1030.65,-1380.17 1113.38,-1380.17 1113.38,-1380.17 1113.38,-1380.17 1218.25,-1380.17 1293.83,-1380.17 1329.95,-1377.11 1379.5,-1434.17 1419.38,-1480.1 1435.15,-1668.08 1439.85,-1741.03"/>
<polygon fill="black" stroke="black" points="1436.33,-1740.83 1440.44,-1750.59 1443.32,-1740.4 1436.33,-1740.83"/>
</g>
<!-- sat&#45;&gt;wasm -->
<g id="edge137" class="edge">
<title>sat&#45;&gt;wasm</title>
<path fill="none" stroke="black" d="M867.39,-1334.86C880.77,-1293.29 913.08,-1188.4 928.75,-1098.17 960.8,-913.58 945.94,-864.58 964.75,-678.17 975.11,-575.51 989.99,-453.98 996.87,-398.92"/>
<polygon fill="black" stroke="black" points="1000.33,-399.47 998.1,-389.11 993.38,-398.6 1000.33,-399.47"/>
</g>
<!-- serve&#45;&gt;core -->
<g id="edge138" class="edge">
<title>serve&#45;&gt;core</title>
<path fill="none" stroke="black" d="M200.76,-1105.52C205.56,-1232.03 240.56,-1973.76 405,-2106.17 471.6,-2159.8 348.71,-2211.04 928.75,-2043.17 940.58,-2039.75 953,-2034.76 964.12,-2029.75"/>
<polygon fill="black" stroke="black" points="965.37,-2033.02 972.95,-2025.62 962.41,-2026.68 965.37,-2033.02"/>
</g>
<!-- serve&#45;&gt;forsp -->
<g id="edge139" class="edge">
<title>serve&#45;&gt;forsp</title>
<path fill="none" stroke="black" d="M226.34,-1092.01C270.77,-1100.2 361.01,-1116.85 412.08,-1126.27"/>
<polygon fill="black" stroke="black" points="411.3,-1129.68 421.77,-1128.06 412.57,-1122.8 411.3,-1129.68"/>
</g>
<!-- serve&#45;&gt;git -->
<g id="edge140" class="edge">
<title>serve&#45;&gt;git</title>
<path fill="none" stroke="black" d="M209.46,-1068.74C219.21,-1048.54 234.06,-1014.92 241.25,-984.17 264.23,-885.84 221.57,-615.42 277.25,-531.17 302.63,-492.78 330.29,-508.07 369,-483.17 386.05,-472.21 388.77,-467.31 405,-455.17 407.97,-452.95 411.07,-450.66 414.19,-448.38"/>
<polygon fill="black" stroke="black" points="416.24,-451.22 422.27,-442.51 412.12,-445.55 416.24,-451.22"/>
</g>
<!-- serve&#45;&gt;hash -->
<g id="edge141" class="edge">
<title>serve&#45;&gt;hash</title>
<path fill="none" stroke="black" d="M209.23,-1068.68C218.79,-1048.44 233.48,-1014.78 241.25,-984.17 274.93,-851.44 214.06,-799.66 277.25,-678.17 312.37,-610.66 335.73,-595.68 405,-564.17 494.94,-523.25 532.26,-519.27 626.75,-548.17 710.96,-573.93 792.22,-641.57 832.71,-679.12"/>
<polygon fill="black" stroke="black" points="830.17,-681.53 839.85,-685.83 834.97,-676.43 830.17,-681.53"/>
</g>
<!-- serve&#45;&gt;init -->
<g id="edge142" class="edge">
<title>serve&#45;&gt;init</title>
<path fill="none" stroke="black" d="M226.3,-1099.73C267.38,-1119.67 344.8,-1158.24 369,-1177.17 387.84,-1191.91 386.93,-1201.5 405,-1217.17 441.79,-1249.07 470.13,-1236.92 496,-1278.17 556.82,-1375.13 460.15,-1444.07 532,-1533.17 560.18,-1568.12 587.47,-1546.43 626.75,-1568.17 645.43,-1578.51 664.41,-1592.89 679.37,-1605.3"/>
<polygon fill="black" stroke="black" points="677.08,-1607.94 686.97,-1611.74 681.6,-1602.6 677.08,-1607.94"/>
</g>
<!-- serve&#45;&gt;lisp -->
<g id="edge143" class="edge">
<title>serve&#45;&gt;lisp</title>
<path fill="none" stroke="black" d="M209.74,-1105.38C223.98,-1132.14 251.76,-1183.54 277.25,-1226.17 330.65,-1315.47 398.58,-1418.25 430.85,-1466.47"/>
<polygon fill="black" stroke="black" points="427.86,-1468.3 436.34,-1474.65 433.68,-1464.4 427.86,-1468.3"/>
</g>
<!-- serve&#45;&gt;metamath -->
<g id="edge144" class="edge">
<title>serve&#45;&gt;metamath</title>
<path fill="none" stroke="black" d="M226.46,-1086.61C306.21,-1084.89 552.15,-1079.51 756,-1074.17 773.21,-1073.72 792.03,-1073.19 808.83,-1072.7"/>
<polygon fill="black" stroke="black" points="808.7,-1076.2 818.59,-1072.41 808.49,-1069.2 808.7,-1076.2"/>
</g>
<!-- serve&#45;&gt;object -->
<g id="edge145" class="edge">
<title>serve&#45;&gt;object</title>
<path fill="none" stroke="black" d="M226.51,-1080.08C260.29,-1070.6 320.29,-1052.38 369,-1030.17 489.81,-975.1 520.25,-958.44 626.75,-879.17 646.8,-864.25 667.39,-845.05 682.87,-829.68"/>
<polygon fill="black" stroke="black" points="685.28,-832.22 689.84,-822.66 680.31,-827.29 685.28,-832.22"/>
</g>
<!-- serve&#45;&gt;proto -->
<g id="edge146" class="edge">
<title>serve&#45;&gt;proto</title>
<path fill="none" stroke="black" d="M226.6,-1068.94C244.1,-1056.89 267.27,-1040.94 286.4,-1027.77"/>
<polygon fill="black" stroke="black" points="288.21,-1030.77 294.46,-1022.22 284.24,-1025.01 288.21,-1030.77"/>
</g>
<!-- serve&#45;&gt;repl -->
<g id="edge147" class="edge">
<title>serve&#45;&gt;repl</title>
<path fill="none" stroke="black" d="M208.57,-1068.92C217.69,-1048.6 232.14,-1014.61 241.25,-984.17 264.14,-907.68 253.17,-884.3 277.25,-808.17 285.48,-782.16 298.11,-753.83 307.88,-733.47"/>
<polygon fill="black" stroke="black" points="310.92,-735.21 312.16,-724.69 304.63,-732.14 310.92,-735.21"/>
</g>
<!-- serve&#45;&gt;shell -->
<g id="edge148" class="edge">
<title>serve&#45;&gt;shell</title>
<path fill="none" stroke="black" d="M213.85,-1105.44C228.51,-1124.38 252.94,-1154.37 277.25,-1177.17 329.05,-1225.76 347.78,-1231.1 405,-1273.17 408.16,-1275.5 411.46,-1277.9 414.77,-1280.3"/>
<polygon fill="black" stroke="black" points="412.64,-1283.08 422.79,-1286.1 416.74,-1277.41 412.64,-1283.08"/>
</g>
<!-- serve&#45;&gt;store -->
<g id="edge149" class="edge">
<title>serve&#45;&gt;store</title>
<path fill="none" stroke="black" d="M209.51,-1068.75C219.3,-1048.56 234.19,-1014.95 241.25,-984.17 266.41,-874.51 226.7,-579.69 277.25,-479.17 344.33,-345.78 398.11,-326.25 532,-260.17 576.56,-238.18 633.71,-229.24 670.68,-225.61"/>
<polygon fill="black" stroke="black" points="670.78,-229.12 680.43,-224.75 670.16,-222.15 670.78,-229.12"/>
</g>
<!-- sexp&#45;&gt;parse -->
<g id="edge150" class="edge">
<title>sexp&#45;&gt;parse</title>
<path fill="none" stroke="black" d="M1015.33,-1212.82C1034.69,-1184.85 1071.71,-1131.37 1094.3,-1098.72"/>
<polygon fill="black" stroke="black" points="1097.14,-1100.77 1099.96,-1090.56 1091.39,-1096.79 1097.14,-1100.77"/>
</g>
<!-- shell&#45;&gt;hol -->
<g id="edge151" class="edge">
<title>shell&#45;&gt;hol</title>
<path fill="none" stroke="black" d="M457.4,-1323.44C466.83,-1353.23 485.31,-1414.28 496,-1467.17 520.32,-1587.56 482.68,-1628.69 532,-1741.17 602.88,-1902.82 761.47,-2050.1 828.51,-2107.61"/>
<polygon fill="black" stroke="black" points="825.94,-2110.02 835.82,-2113.83 830.47,-2104.68 825.94,-2110.02"/>
</g>
<!-- shell&#45;&gt;kernel -->
<g id="edge152" class="edge">
<title>shell&#45;&gt;kernel</title>
<path fill="none" stroke="black" d="M477.79,-1297.71C495.59,-1292.66 519.41,-1285.9 539.41,-1280.23"/>
<polygon fill="black" stroke="black" points="540.24,-1283.63 548.9,-1277.53 538.33,-1276.9 540.24,-1283.63"/>
</g>
<!-- smt&#45;&gt;sat -->
<g id="edge153" class="edge">
<title>smt&#45;&gt;sat</title>
<path fill="none" stroke="black" d="M735.48,-1421.82C751.32,-1410.62 772.41,-1396.34 792,-1385.17 801.77,-1379.6 812.66,-1374.13 822.79,-1369.33"/>
<polygon fill="black" stroke="black" points="824.03,-1372.61 831.62,-1365.23 821.08,-1366.27 824.03,-1372.61"/>
</g>
<!-- smt&#45;&gt;sexp -->
<g id="edge154" class="edge">
<title>smt&#45;&gt;sexp</title>
<path fill="none" stroke="black" d="M736.53,-1424.82C743.5,-1419.84 750.58,-1413.85 756,-1407.17 780.81,-1376.57 762.61,-1352.4 792,-1326.17 839.54,-1283.75 871.82,-1311.77 928.75,-1283.17 943.23,-1275.9 957.94,-1265.82 970.25,-1256.48"/>
<polygon fill="black" stroke="black" points="972.23,-1259.37 977.97,-1250.46 967.93,-1253.85 972.23,-1259.37"/>
</g>
<!-- smt&#45;&gt;types -->
<g id="edge155" class="edge">
<title>smt&#45;&gt;types</title>
<path fill="none" stroke="black" d="M736.51,-1453.05C752.2,-1460.1 772.77,-1468.2 792,-1472.17 931.96,-1501.11 970.46,-1483.17 1113.38,-1483.17 1113.38,-1483.17 1113.38,-1483.17 1218.25,-1483.17 1295.03,-1483.17 1327.94,-1488.28 1379.5,-1545.17 1429.81,-1600.68 1439.79,-1693.39 1441.45,-1740.59"/>
<polygon fill="black" stroke="black" points="1437.95,-1740.41 1441.68,-1750.32 1444.94,-1740.24 1437.95,-1740.41"/>
</g>
<!-- spectec&#45;&gt;grammar -->
<g id="edge156" class="edge">
<title>spectec&#45;&gt;grammar</title>
<path fill="none" stroke="black" d="M895.44,-1667.17C912.78,-1667.17 934.13,-1667.17 953.06,-1667.17"/>
<polygon fill="black" stroke="black" points="952.97,-1670.67 962.97,-1667.17 952.97,-1663.67 952.97,-1670.67"/>
</g>
<!-- store&#45;&gt;hash -->
<g id="edge157" class="edge">
<title>store&#45;&gt;hash</title>
<path fill="none" stroke="black" d="M736.42,-233.79C743.72,-237.92 751.01,-243.33 756,-250.17 768.84,-267.79 833.18,-577.52 853.33,-675.62"/>
<polygon fill="black" stroke="black" points="849.87,-676.18 855.31,-685.28 856.73,-674.78 849.87,-676.18"/>
</g>
<!-- store&#45;&gt;json -->
<g id="edge158" class="edge">
<title>store&#45;&gt;json</title>
<path fill="none" stroke="black" d="M728.5,-204.86C744.22,-189.74 768.15,-168.52 792,-154.17 801.44,-148.5 812.28,-143.55 822.48,-139.49"/>
<polygon fill="black" stroke="black" points="823.65,-142.79 831.77,-135.99 821.17,-136.24 823.65,-142.79"/>
</g>
<!-- store&#45;&gt;sqlite -->
<g id="edge159" class="edge">
<title>store&#45;&gt;sqlite</title>
<path fill="none" stroke="black" d="M736.67,-215.76C760.43,-209.06 795.65,-199.13 822.27,-191.63"/>
<polygon fill="black" stroke="black" points="822.96,-195.07 831.64,-188.99 821.06,-188.34 822.96,-195.07"/>
</g>
<!-- tcb&#45;db -->
<g id="node55" class="node">
<title>tcb&#45;db</title>
<polygon fill="none" stroke="black" points="739.5,-149.17 679.25,-149.17 679.25,-113.17 739.5,-113.17 739.5,-149.17"/>
<text text-anchor="middle" x="709.38" y="-126.87" font-family="sans-serif" font-size="14.00">tcb&#45;db</text>
</g>
<!-- tcb&#45;db&#45;&gt;json -->
<g id="edge160" class="edge">
<title>tcb&#45;db&#45;&gt;json</title>
<path fill="none" stroke="black" d="M739.81,-130.38C763.24,-129.75 796.19,-128.87 821.57,-128.19"/>
<polygon fill="black" stroke="black" points="821.58,-131.69 831.48,-127.92 821.39,-124.69 821.58,-131.69"/>
</g>
<!-- tcb&#45;db&#45;&gt;sqlite -->
<g id="edge161" class="edge">
<title>tcb&#45;db&#45;&gt;sqlite</title>
<path fill="none" stroke="black" d="M739.81,-141.05C763.45,-148.98 796.79,-160.17 822.26,-168.72"/>
<polygon fill="black" stroke="black" points="820.97,-171.97 831.56,-171.84 823.19,-165.34 820.97,-171.97"/>
</g>
<!-- wasm&#45;build&#45;guest -->
<g id="node58" class="node">
<title>wasm&#45;build&#45;guest</title>
<polygon fill="none" stroke="black" points="928.75,-364.17 792,-364.17 792,-328.17 928.75,-328.17 928.75,-364.17"/>
<text text-anchor="middle" x="860.38" y="-341.87" font-family="sans-serif" font-size="14.00">wasm&#45;build&#45;guest</text>
</g>
<!-- wasm&#45;build&#45;guest&#45;&gt;wasm -->
<g id="edge162" class="edge">
<title>wasm&#45;build&#45;guest&#45;&gt;wasm</title>
<path fill="none" stroke="black" d="M928.96,-357.33C940.64,-359.26 952.4,-361.21 962.92,-362.94"/>
<polygon fill="black" stroke="black" points="962.26,-366.38 972.7,-364.56 963.4,-359.48 962.26,-366.38"/>
</g>
<!-- wasm&#45;spec -->
<g id="node59" class="node">
<title>wasm&#45;spec</title>
<polygon fill="none" stroke="black" points="756,-349.17 662.75,-349.17 662.75,-313.17 756,-313.17 756,-349.17"/>
<text text-anchor="middle" x="709.38" y="-326.87" font-family="sans-serif" font-size="14.00">wasm&#45;spec</text>
</g>
<!-- wasm&#45;spec&#45;&gt;hash -->
<g id="edge163" class="edge">
<title>wasm&#45;spec&#45;&gt;hash</title>
<path fill="none" stroke="black" d="M724.1,-349.43C733.94,-363.14 746.99,-382.65 756,-401.17 802.8,-497.38 837.53,-620.19 851.98,-675.65"/>
<polygon fill="black" stroke="black" points="848.57,-676.45 854.46,-685.26 855.35,-674.71 848.57,-676.45"/>
</g>
<!-- wasm&#45;spec&#45;&gt;wasm -->
<g id="edge164" class="edge">
<title>wasm&#45;spec&#45;&gt;wasm</title>
<path fill="none" stroke="black" d="M756.29,-319.44C801.3,-310.05 871.33,-301.16 928.75,-319.17 944.58,-324.14 959.98,-333.96 972.44,-343.6"/>
<polygon fill="black" stroke="black" points="970.21,-346.29 980.18,-349.89 974.63,-340.86 970.21,-346.29"/>
</g>
<!-- wasm&#45;store&#45;&gt;json -->
<g id="edge165" class="edge">
<title>wasm&#45;store&#45;&gt;json</title>
<path fill="none" stroke="black" d="M627.07,-72.22C681.91,-85.19 771.74,-106.44 822.12,-118.36"/>
<polygon fill="black" stroke="black" points="821.13,-121.72 831.67,-120.62 822.74,-114.91 821.13,-121.72"/>
</g>
<!-- wasm&#45;store&#45;&gt;store -->
<g id="edge166" class="edge">
<title>wasm&#45;store&#45;&gt;store</title>
<path fill="none" stroke="black" d="M594.81,-79.44C617.28,-107.88 660.76,-162.9 686.91,-196.01"/>
<polygon fill="black" stroke="black" points="683.91,-197.86 692.86,-203.53 689.41,-193.52 683.91,-197.86"/>
</g>
<!-- wasm&#45;store&#45;&gt;wasm -->
<g id="edge167" class="edge">
<title>wasm&#45;store&#45;&gt;wasm</title>
<path fill="none" stroke="black" d="M626.98,-51.25C700.69,-38.51 844.41,-26.04 928.75,-100.17 964.82,-131.88 988.2,-276.41 996.86,-339.53"/>
<polygon fill="black" stroke="black" points="993.35,-339.72 998.14,-349.17 1000.29,-338.8 993.35,-339.72"/>
</g>
<!-- web&#45;kernel -->
<g id="node61" class="node">
<title>web&#45;kernel</title>
<polygon fill="none" stroke="black" points="369,-1512.17 277.25,-1512.17 277.25,-1476.17 369,-1476.17 369,-1512.17"/>
<text text-anchor="middle" x="323.12" y="-1489.87" font-family="sans-serif" font-size="14.00">web&#45;kernel</text>
</g>
<!-- web&#45;kernel&#45;&gt;forsp -->
<g id="edge168" class="edge">
<title>web&#45;kernel&#45;&gt;forsp</title>
<path fill="none" stroke="black" d="M330.51,-1475.77C350.93,-1416.99 414.69,-1233.4 439.49,-1161.99"/>
<polygon fill="black" stroke="black" points="442.65,-1163.56 442.63,-1152.96 436.04,-1161.26 442.65,-1163.56"/>
</g>
<!-- web&#45;kernel&#45;&gt;haskell -->
<g id="edge169" class="edge">
<title>web&#45;kernel&#45;&gt;haskell</title>
<path fill="none" stroke="black" d="M330.87,-1512.56C351.49,-1568.81 413.84,-1738.89 438.9,-1807.26"/>
<polygon fill="black" stroke="black" points="435.48,-1808.09 442.21,-1816.27 442.05,-1805.68 435.48,-1808.09"/>
</g>
<!-- web&#45;kernel&#45;&gt;hol&#45;api -->
<g id="edge170" class="edge">
<title>web&#45;kernel&#45;&gt;hol&#45;api</title>
<path fill="none" stroke="black" d="M324.74,-1512.62C327.3,-1568.65 340.29,-1740.48 405,-1863.17 437.31,-1924.43 500.44,-1976.36 540.95,-2005.37"/>
<polygon fill="black" stroke="black" points="538.8,-2008.13 548.99,-2011.02 542.82,-2002.41 538.8,-2008.13"/>
</g>
<!-- web&#45;kernel&#45;&gt;kernel -->
<g id="edge171" class="edge">
<title>web&#45;kernel&#45;&gt;kernel</title>
<path fill="none" stroke="black" d="M343.12,-1475.88C386.74,-1433.96 493.3,-1332.22 532,-1301.17 534.99,-1298.77 538.15,-1296.36 541.36,-1293.99"/>
<polygon fill="black" stroke="black" points="543.12,-1297.04 549.21,-1288.37 539.04,-1291.35 543.12,-1297.04"/>
</g>
<!-- web&#45;kernel&#45;&gt;lisp -->
<g id="edge172" class="edge">
<title>web&#45;kernel&#45;&gt;lisp</title>
<path fill="none" stroke="black" d="M369.39,-1494.17C383.38,-1494.17 398.64,-1494.17 412.05,-1494.17"/>
<polygon fill="black" stroke="black" points="411.76,-1497.67 421.76,-1494.17 411.76,-1490.67 411.76,-1497.67"/>
</g>
</g>
</svg>
