<?xml version="1.0" encoding="UTF-8" standalone="no"?>
<!DOCTYPE svg PUBLIC "-//W3C//DTD SVG 1.1//EN"
 "http://www.w3.org/Graphics/SVG/1.1/DTD/svg11.dtd">
<!-- Generated by graphviz version 12.2.1 (0)
 -->
<!-- Title: deps Pages: 1 -->
<svg width="1478pt" height="2397pt"
 viewBox="0.00 0.00 1477.50 2396.75" xmlns="http://www.w3.org/2000/svg" xmlns:xlink="http://www.w3.org/1999/xlink">
<g id="graph0" class="graph" transform="scale(1 1) rotate(0) translate(4 2392.75)">
<title>deps</title>
<polygon fill="white" stroke="none" points="-4,4 -4,-2392.75 1473.5,-2392.75 1473.5,4 -4,4"/>
<!-- covalence -->
<g id="node1" class="node">
<title>covalence</title>
<polygon fill="none" stroke="black" points="102.62,-859.75 18.38,-859.75 18.38,-823.75 102.62,-823.75 102.62,-859.75"/>
<text text-anchor="middle" x="60.5" y="-837.45" font-family="sans-serif" font-size="14.00">covalence</text>
</g>
<!-- client -->
<g id="node5" class="node">
<title>client</title>
<polygon fill="none" stroke="black" points="350.12,-836.75 296.12,-836.75 296.12,-800.75 350.12,-800.75 350.12,-836.75"/>
<text text-anchor="middle" x="323.12" y="-814.45" font-family="sans-serif" font-size="14.00">client</text>
</g>
<!-- covalence&#45;&gt;client -->
<g id="edge1" class="edge">
<title>covalence&#45;&gt;client</title>
<path fill="none" stroke="black" d="M103.08,-838.08C153.03,-833.67 236.1,-826.34 284.31,-822.08"/>
<polygon fill="black" stroke="black" points="284.61,-825.57 294.26,-821.2 283.99,-818.6 284.61,-825.57"/>
</g>
<!-- fuse -->
<g id="node11" class="node">
<title>fuse</title>
<polygon fill="none" stroke="black" points="606.38,-728.75 552.38,-728.75 552.38,-692.75 606.38,-692.75 606.38,-728.75"/>
<text text-anchor="middle" x="579.38" y="-706.45" font-family="sans-serif" font-size="14.00">fuse</text>
</g>
<!-- covalence&#45;&gt;fuse -->
<g id="edge2" class="edge">
<title>covalence&#45;&gt;fuse</title>
<path fill="none" stroke="black" d="M102.92,-831.25C201.23,-806.33 447.4,-743.94 541.24,-720.16"/>
<polygon fill="black" stroke="black" points="541.87,-723.61 550.7,-717.76 540.15,-716.82 541.87,-723.61"/>
</g>
<!-- git -->
<g id="node12" class="node">
<title>git</title>
<polygon fill="none" stroke="black" points="477.5,-484.75 423.5,-484.75 423.5,-448.75 477.5,-448.75 477.5,-484.75"/>
<text text-anchor="middle" x="450.5" y="-462.45" font-family="sans-serif" font-size="14.00">git</text>
</g>
<!-- covalence&#45;&gt;git -->
<g id="edge3" class="edge">
<title>covalence&#45;&gt;git</title>
<path fill="none" stroke="black" d="M64.73,-823.3C73.34,-778.11 100.15,-659.62 157,-578.75 196.97,-521.88 212.74,-504.63 277.25,-478.75 320.87,-461.24 375.66,-460.68 411.59,-462.87"/>
<polygon fill="black" stroke="black" points="411.27,-466.35 421.49,-463.59 411.77,-459.37 411.27,-466.35"/>
</g>
<!-- hash -->
<g id="node15" class="node">
<title>hash</title>
<polygon fill="none" stroke="black" points="887.38,-728.75 833.38,-728.75 833.38,-692.75 887.38,-692.75 887.38,-728.75"/>
<text text-anchor="middle" x="860.38" y="-706.45" font-family="sans-serif" font-size="14.00">hash</text>
</g>
<!-- covalence&#45;&gt;hash -->
<g id="edge4" class="edge">
<title>covalence&#45;&gt;hash</title>
<path fill="none" stroke="black" d="M102.84,-859.58C109,-862.51 115.22,-865.61 121,-868.75 137.69,-877.8 138.78,-886.42 157,-891.75 357.45,-950.31 420.69,-914.7 626.75,-880.75 685.14,-871.12 706.67,-881.44 756,-848.75 797.7,-821.11 829.01,-770.75 845.72,-739.11"/>
<polygon fill="black" stroke="black" points="848.69,-741 850.13,-730.5 842.46,-737.81 848.69,-741"/>
</g>
<!-- hol -->
<g id="node17" class="node">
<title>hol</title>
<polygon fill="none" stroke="black" points="887.38,-2018.75 833.38,-2018.75 833.38,-1982.75 887.38,-1982.75 887.38,-2018.75"/>
<text text-anchor="middle" x="860.38" y="-1996.45" font-family="sans-serif" font-size="14.00">hol</text>
</g>
<!-- covalence&#45;&gt;hol -->
<g id="edge5" class="edge">
<title>covalence&#45;&gt;hol</title>
<path fill="none" stroke="black" d="M103.12,-853.69C110.07,-857.45 116.48,-862.36 121,-868.75 174.1,-943.76 142.38,-1190.01 157,-1280.75 193.92,-1509.81 222.76,-1563.22 277.25,-1788.75 296.82,-1869.73 238.81,-1970.75 322.12,-1970.75 322.12,-1970.75 322.12,-1970.75 451.5,-1970.75 588.37,-1970.75 750.38,-1987.76 822.07,-1996.16"/>
<polygon fill="black" stroke="black" points="821.33,-1999.6 831.68,-1997.3 822.16,-1992.65 821.33,-1999.6"/>
</g>
<!-- lsp -->
<g id="node31" class="node">
<title>lsp</title>
<polygon fill="none" stroke="black" points="887.38,-940.75 833.38,-940.75 833.38,-904.75 887.38,-904.75 887.38,-940.75"/>
<text text-anchor="middle" x="860.38" y="-918.45" font-family="sans-serif" font-size="14.00">lsp</text>
</g>
<!-- covalence&#45;&gt;lsp -->
<g id="edge6" class="edge">
<title>covalence&#45;&gt;lsp</title>
<path fill="none" stroke="black" d="M103.09,-853.71C110.04,-857.47 116.46,-862.37 121,-868.75 170.98,-938.92 98.56,-1191.44 157,-1254.75 193.8,-1294.61 223.2,-1271.06 277.25,-1275.75 375.24,-1284.24 620.18,-1269.73 626.75,-1263.75 711.39,-1186.69 593.54,-1099.91 662.75,-1008.75 673.03,-995.21 768.51,-957.29 822.54,-936.62"/>
<polygon fill="black" stroke="black" points="823.56,-939.97 831.66,-933.14 821.07,-933.43 823.56,-939.97"/>
</g>
<!-- object -->
<g id="node34" class="node">
<title>object</title>
<polygon fill="none" stroke="black" points="738,-804.75 680.75,-804.75 680.75,-768.75 738,-768.75 738,-804.75"/>
<text text-anchor="middle" x="709.38" y="-782.45" font-family="sans-serif" font-size="14.00">object</text>
</g>
<!-- covalence&#45;&gt;object -->
<g id="edge7" class="edge">
<title>covalence&#45;&gt;object</title>
<path fill="none" stroke="black" d="M102.84,-859.58C109,-862.51 115.22,-865.61 121,-868.75 137.69,-877.8 138.78,-886.42 157,-891.75 301.62,-934 345.73,-902.61 496,-891.75 554.57,-887.51 574.61,-899.75 626.75,-872.75 652.98,-859.16 675.46,-833.78 690.14,-814.1"/>
<polygon fill="black" stroke="black" points="692.82,-816.36 695.82,-806.2 687.14,-812.27 692.82,-816.36"/>
</g>
<!-- opentheory -->
<g id="node35" class="node">
<title>opentheory</title>
<polygon fill="none" stroke="black" points="496,-2217.75 405,-2217.75 405,-2181.75 496,-2181.75 496,-2217.75"/>
<text text-anchor="middle" x="450.5" y="-2195.45" font-family="sans-serif" font-size="14.00">opentheory</text>
</g>
<!-- covalence&#45;&gt;opentheory -->
<g id="edge8" class="edge">
<title>covalence&#45;&gt;opentheory</title>
<path fill="none" stroke="black" d="M103.11,-853.33C110.15,-857.13 116.59,-862.14 121,-868.75 189.87,-971.94 99.2,-1874.97 157,-1984.75 208.03,-2081.68 324.62,-2146.11 394.21,-2177.47"/>
<polygon fill="black" stroke="black" points="392.59,-2180.59 403.16,-2181.43 395.43,-2174.19 392.59,-2180.59"/>
</g>
<!-- proto -->
<g id="node39" class="node">
<title>proto</title>
<polygon fill="none" stroke="black" points="350.12,-523.75 296.12,-523.75 296.12,-487.75 350.12,-487.75 350.12,-523.75"/>
<text text-anchor="middle" x="323.12" y="-501.45" font-family="sans-serif" font-size="14.00">proto</text>
</g>
<!-- covalence&#45;&gt;proto -->
<g id="edge9" class="edge">
<title>covalence&#45;&gt;proto</title>
<path fill="none" stroke="black" d="M71.58,-823.38C99.57,-773.49 182.4,-632.81 277.25,-537.75 280.19,-534.79 283.44,-531.92 286.79,-529.19"/>
<polygon fill="black" stroke="black" points="288.77,-532.07 294.59,-523.22 284.52,-526.51 288.77,-532.07"/>
</g>
<!-- repl -->
<g id="node45" class="node">
<title>repl</title>
<polygon fill="none" stroke="black" points="350.12,-698.75 296.12,-698.75 296.12,-662.75 350.12,-662.75 350.12,-698.75"/>
<text text-anchor="middle" x="323.12" y="-676.45" font-family="sans-serif" font-size="14.00">repl</text>
</g>
<!-- covalence&#45;&gt;repl -->
<g id="edge10" class="edge">
<title>covalence&#45;&gt;repl</title>
<path fill="none" stroke="black" d="M80.12,-823.47C98.58,-805.95 128.22,-779.49 157,-760.75 198.67,-733.61 250.92,-709.82 285.35,-695.39"/>
<polygon fill="black" stroke="black" points="286.57,-698.67 294.47,-691.61 283.89,-692.2 286.57,-698.67"/>
</g>
<!-- serve -->
<g id="node48" class="node">
<title>serve</title>
<polygon fill="none" stroke="black" points="226.12,-882.75 172.12,-882.75 172.12,-846.75 226.12,-846.75 226.12,-882.75"/>
<text text-anchor="middle" x="199.12" y="-860.45" font-family="sans-serif" font-size="14.00">serve</text>
</g>
<!-- covalence&#45;&gt;serve -->
<g id="edge11" class="edge">
<title>covalence&#45;&gt;serve</title>
<path fill="none" stroke="black" d="M102.86,-848.71C121.29,-851.81 142.83,-855.44 160.76,-858.46"/>
<polygon fill="black" stroke="black" points="160.02,-861.88 170.47,-860.09 161.19,-854.98 160.02,-861.88"/>
</g>
<!-- shell -->
<g id="node50" class="node">
<title>shell</title>
<polygon fill="none" stroke="black" points="477.5,-1254.75 423.5,-1254.75 423.5,-1218.75 477.5,-1218.75 477.5,-1254.75"/>
<text text-anchor="middle" x="450.5" y="-1232.45" font-family="sans-serif" font-size="14.00">shell</text>
</g>
<!-- covalence&#45;&gt;shell -->
<g id="edge12" class="edge">
<title>covalence&#45;&gt;shell</title>
<path fill="none" stroke="black" d="M103.05,-853.75C110,-857.5 116.43,-862.39 121,-868.75 166.9,-932.59 100.1,-1166.48 157,-1220.75 225.94,-1286.5 350.62,-1264.59 412.54,-1248.1"/>
<polygon fill="black" stroke="black" points="413.19,-1251.56 421.89,-1245.51 411.32,-1244.81 413.19,-1251.56"/>
</g>
<!-- store -->
<g id="node54" class="node">
<title>store</title>
<polygon fill="none" stroke="black" points="736.38,-332.75 682.38,-332.75 682.38,-296.75 736.38,-296.75 736.38,-332.75"/>
<text text-anchor="middle" x="709.38" y="-310.45" font-family="sans-serif" font-size="14.00">store</text>
</g>
<!-- covalence&#45;&gt;store -->
<g id="edge13" class="edge">
<title>covalence&#45;&gt;store</title>
<path fill="none" stroke="black" d="M61.45,-823.4C62.23,-767.13 71.84,-594.59 157,-491.75 196.11,-444.52 348.45,-394.47 405,-370.75 460.22,-347.58 473.33,-337.73 532,-325.75 579.13,-316.12 634.68,-314.16 670.67,-314.09"/>
<polygon fill="black" stroke="black" points="670.55,-317.59 680.56,-314.12 670.58,-310.59 670.55,-317.59"/>
</g>
<!-- wasm -->
<g id="node57" class="node">
<title>wasm</title>
<polygon fill="none" stroke="black" points="1028.75,-175.75 974.5,-175.75 974.5,-139.75 1028.75,-139.75 1028.75,-175.75"/>
<text text-anchor="middle" x="1001.62" y="-153.45" font-family="sans-serif" font-size="14.00">wasm</text>
</g>
<!-- covalence&#45;&gt;wasm -->
<g id="edge14" class="edge">
<title>covalence&#45;&gt;wasm</title>
<path fill="none" stroke="black" d="M63.09,-823.49C70.07,-746.74 100.32,-450.96 157,-379.75 362.09,-122.1 827.4,-141.97 962.93,-153.8"/>
<polygon fill="black" stroke="black" points="962.49,-157.28 972.77,-154.7 963.13,-150.31 962.49,-157.28"/>
</g>
<!-- acset -->
<g id="node2" class="node">
<title>acset</title>
<polygon fill="none" stroke="black" points="887.38,-1032.75 833.38,-1032.75 833.38,-996.75 887.38,-996.75 887.38,-1032.75"/>
<text text-anchor="middle" x="860.38" y="-1010.45" font-family="sans-serif" font-size="14.00">acset</text>
</g>
<!-- alethe -->
<g id="node3" class="node">
<title>alethe</title>
<polygon fill="none" stroke="black" points="607.62,-1684.75 551.12,-1684.75 551.12,-1648.75 607.62,-1648.75 607.62,-1684.75"/>
<text text-anchor="middle" x="579.38" y="-1662.45" font-family="sans-serif" font-size="14.00">alethe</text>
</g>
<!-- core -->
<g id="node6" class="node">
<title>core</title>
<polygon fill="#ffd6d6" stroke="black" points="1028.62,-2037.75 974.62,-2037.75 974.62,-2001.75 1028.62,-2001.75 1028.62,-2037.75"/>
<text text-anchor="middle" x="1001.62" y="-2015.45" font-family="sans-serif" font-size="14.00">core</text>
</g>
<!-- alethe&#45;&gt;core -->
<g id="edge15" class="edge">
<title>alethe&#45;&gt;core</title>
<path fill="none" stroke="black" d="M607.92,-1673.03C651.49,-1683.43 733.68,-1705.03 756,-1724.75 784.01,-1749.49 763.82,-1776.2 792,-1800.75 840.04,-1842.59 881.87,-1800.6 928.75,-1843.75 971.36,-1882.95 989.32,-1951.08 996.41,-1990.07"/>
<polygon fill="black" stroke="black" points="992.95,-1990.63 998.06,-1999.91 999.86,-1989.47 992.95,-1990.63"/>
</g>
<!-- hol&#45;eval -->
<g id="node19" class="node">
<title>hol&#45;eval</title>
<polygon fill="none" stroke="black" points="895.38,-2186.75 825.38,-2186.75 825.38,-2150.75 895.38,-2150.75 895.38,-2186.75"/>
<text text-anchor="middle" x="860.38" y="-2164.45" font-family="sans-serif" font-size="14.00">hol&#45;eval</text>
</g>
<!-- alethe&#45;&gt;hol&#45;eval -->
<g id="edge16" class="edge">
<title>alethe&#45;&gt;hol&#45;eval</title>
<path fill="none" stroke="black" d="M607.81,-1684.19C614.43,-1689.09 621.19,-1694.74 626.75,-1700.75 700.71,-1780.6 711.13,-1809.58 756,-1908.75 778.78,-1959.09 772.03,-1976.22 792,-2027.75 807.56,-2067.9 829.73,-2112.46 844.32,-2140.53"/>
<polygon fill="black" stroke="black" points="841.07,-2141.87 848.82,-2149.1 847.27,-2138.62 841.07,-2141.87"/>
</g>
<!-- init -->
<g id="node21" class="node">
<title>init</title>
<polygon fill="none" stroke="black" points="736.38,-1638.75 682.38,-1638.75 682.38,-1602.75 736.38,-1602.75 736.38,-1638.75"/>
<text text-anchor="middle" x="709.38" y="-1616.45" font-family="sans-serif" font-size="14.00">init</text>
</g>
<!-- alethe&#45;&gt;init -->
<g id="edge17" class="edge">
<title>alethe&#45;&gt;init</title>
<path fill="none" stroke="black" d="M607.83,-1656.88C626.43,-1650.2 651.21,-1641.29 671.52,-1633.99"/>
<polygon fill="black" stroke="black" points="672.62,-1637.31 680.85,-1630.64 670.25,-1630.73 672.62,-1637.31"/>
</g>
<!-- sexp -->
<g id="node49" class="node">
<title>sexp</title>
<polygon fill="none" stroke="black" points="1028.62,-1284.75 974.62,-1284.75 974.62,-1248.75 1028.62,-1248.75 1028.62,-1284.75"/>
<text text-anchor="middle" x="1001.62" y="-1262.45" font-family="sans-serif" font-size="14.00">sexp</text>
</g>
<!-- alethe&#45;&gt;sexp -->
<g id="edge18" class="edge">
<title>alethe&#45;&gt;sexp</title>
<path fill="none" stroke="black" d="M584.56,-1648.6C596.78,-1596.63 633.43,-1448.47 662.75,-1408.75 704.32,-1352.42 728.26,-1347.69 792,-1318.75 822.33,-1304.97 911.8,-1285.12 963.18,-1274.37"/>
<polygon fill="black" stroke="black" points="963.58,-1277.86 972.66,-1272.4 962.16,-1271.01 963.58,-1277.86"/>
</g>
<!-- smt -->
<g id="node51" class="node">
<title>smt</title>
<polygon fill="none" stroke="black" points="736.38,-1453.75 682.38,-1453.75 682.38,-1417.75 736.38,-1417.75 736.38,-1453.75"/>
<text text-anchor="middle" x="709.38" y="-1431.45" font-family="sans-serif" font-size="14.00">smt</text>
</g>
<!-- alethe&#45;&gt;smt -->
<g id="edge19" class="edge">
<title>alethe&#45;&gt;smt</title>
<path fill="none" stroke="black" d="M590.42,-1648.62C612.61,-1608.57 665.95,-1512.3 692.63,-1464.16"/>
<polygon fill="black" stroke="black" points="695.68,-1465.87 697.47,-1455.43 689.56,-1462.48 695.68,-1465.87"/>
</g>
<!-- types -->
<g id="node56" class="node">
<title>types</title>
<polygon fill="#ffd6d6" stroke="black" points="1469.5,-1823.75 1415.5,-1823.75 1415.5,-1787.75 1469.5,-1787.75 1469.5,-1823.75"/>
<text text-anchor="middle" x="1442.5" y="-1801.45" font-family="sans-serif" font-size="14.00">types</text>
</g>
<!-- alethe&#45;&gt;types -->
<g id="edge20" class="edge">
<title>alethe&#45;&gt;types</title>
<path fill="none" stroke="black" d="M607.95,-1664.07C643.78,-1661.76 707.48,-1661.69 756,-1683.75 776.03,-1692.85 773.1,-1706.47 792,-1717.75 875.86,-1767.8 902.96,-1786.75 1000.62,-1786.75 1000.62,-1786.75 1000.62,-1786.75 1218.25,-1786.75 1283.63,-1786.75 1359.4,-1794.94 1403.73,-1800.56"/>
<polygon fill="black" stroke="black" points="1403.23,-1804.03 1413.6,-1801.84 1404.13,-1797.09 1403.23,-1804.03"/>
</g>
<!-- arrow -->
<g id="node4" class="node">
<title>arrow</title>
<polygon fill="none" stroke="black" points="606.38,-598.75 552.38,-598.75 552.38,-562.75 606.38,-562.75 606.38,-598.75"/>
<text text-anchor="middle" x="579.38" y="-576.45" font-family="sans-serif" font-size="14.00">arrow</text>
</g>
<!-- client&#45;&gt;hash -->
<g id="edge21" class="edge">
<title>client&#45;&gt;hash</title>
<path fill="none" stroke="black" d="M350.5,-830.38C366.03,-836.59 386.24,-843.59 405,-846.75 559.52,-872.74 619.77,-891.16 756,-813.75 789.83,-794.52 820.28,-761.28 839.23,-737.77"/>
<polygon fill="black" stroke="black" points="841.78,-740.19 845.21,-730.16 836.28,-735.86 841.78,-740.19"/>
</g>
<!-- client&#45;&gt;shell -->
<g id="edge22" class="edge">
<title>client&#45;&gt;shell</title>
<path fill="none" stroke="black" d="M330.68,-836.95C340.33,-864.34 358.36,-917.94 369,-964.75 392.91,-1069.92 348.8,-1112.69 405,-1204.75 407.51,-1208.86 410.77,-1212.59 414.38,-1215.94"/>
<polygon fill="black" stroke="black" points="412.09,-1218.59 422.08,-1222.1 416.46,-1213.12 412.09,-1218.59"/>
</g>
<!-- client&#45;&gt;store -->
<g id="edge23" class="edge">
<title>client&#45;&gt;store</title>
<path fill="none" stroke="black" d="M350.48,-802.11C420.91,-757.41 609.41,-636.14 626.75,-607.75 688.93,-505.93 596.82,-441.18 662.75,-341.75 665.38,-337.78 668.81,-334.31 672.62,-331.3"/>
<polygon fill="black" stroke="black" points="674.3,-334.39 680.69,-325.94 670.43,-328.55 674.3,-334.39"/>
</g>
<!-- pure -->
<g id="node40" class="node">
<title>pure</title>
<polygon fill="#ffd6d6" stroke="black" points="1244.25,-2083.75 1190.25,-2083.75 1190.25,-2047.75 1244.25,-2047.75 1244.25,-2083.75"/>
<text text-anchor="middle" x="1217.25" y="-2061.45" font-family="sans-serif" font-size="14.00">pure</text>
</g>
<!-- core&#45;&gt;pure -->
<g id="edge24" class="edge">
<title>core&#45;&gt;pure</title>
<path fill="none" stroke="black" d="M1028.79,-2031.21C1042.22,-2036.67 1058.99,-2042.85 1074.5,-2046.75 1109.21,-2055.47 1149.77,-2060.39 1178.59,-2063.03"/>
<polygon fill="black" stroke="black" points="1178.02,-2066.49 1188.28,-2063.86 1178.62,-2059.52 1178.02,-2066.49"/>
</g>
<!-- pure&#45;eval -->
<g id="node41" class="node">
<title>pure&#45;eval</title>
<polygon fill="#ffd6d6" stroke="black" points="1154.25,-2037.75 1074.5,-2037.75 1074.5,-2001.75 1154.25,-2001.75 1154.25,-2037.75"/>
<text text-anchor="middle" x="1114.38" y="-2015.45" font-family="sans-serif" font-size="14.00">pure&#45;eval</text>
</g>
<!-- core&#45;&gt;pure&#45;eval -->
<g id="edge25" class="edge">
<title>core&#45;&gt;pure&#45;eval</title>
<path fill="none" stroke="black" d="M1028.87,-2019.75C1039.15,-2019.75 1051.3,-2019.75 1063.13,-2019.75"/>
<polygon fill="black" stroke="black" points="1062.79,-2023.25 1072.79,-2019.75 1062.79,-2016.25 1062.79,-2023.25"/>
</g>
<!-- core&#45;&gt;types -->
<g id="edge26" class="edge">
<title>core&#45;&gt;types</title>
<path fill="none" stroke="black" d="M1029.09,-2006.84C1104.17,-1970.23 1318.62,-1865.66 1404.89,-1823.6"/>
<polygon fill="black" stroke="black" points="1406.19,-1826.86 1413.64,-1819.33 1403.12,-1820.57 1406.19,-1826.86"/>
</g>
<!-- core&#45;test&#45;guest -->
<g id="node7" class="node">
<title>core&#45;test&#45;guest</title>
<polygon fill="none" stroke="black" points="121,-913.75 0,-913.75 0,-877.75 121,-877.75 121,-913.75"/>
<text text-anchor="middle" x="60.5" y="-891.45" font-family="sans-serif" font-size="14.00">core&#45;test&#45;guest</text>
</g>
<!-- crypto&#45;sig -->
<g id="node8" class="node">
<title>crypto&#45;sig</title>
<polygon fill="none" stroke="black" points="241.25,-256.75 157,-256.75 157,-220.75 241.25,-220.75 241.25,-256.75"/>
<text text-anchor="middle" x="199.12" y="-234.45" font-family="sans-serif" font-size="14.00">crypto&#45;sig</text>
</g>
<!-- egglog -->
<g id="node9" class="node">
<title>egglog</title>
<polygon fill="none" stroke="black" points="890.88,-1498.75 829.88,-1498.75 829.88,-1462.75 890.88,-1462.75 890.88,-1498.75"/>
<text text-anchor="middle" x="860.38" y="-1476.45" font-family="sans-serif" font-size="14.00">egglog</text>
</g>
<!-- egglog&#45;&gt;sexp -->
<g id="edge27" class="edge">
<title>egglog&#45;&gt;sexp</title>
<path fill="none" stroke="black" d="M891.26,-1472.08C904.21,-1467.05 918.67,-1459.53 928.75,-1448.75 969.54,-1405.12 988.2,-1335.57 995.89,-1296.29"/>
<polygon fill="black" stroke="black" points="999.3,-1297.08 997.67,-1286.62 992.42,-1295.82 999.3,-1297.08"/>
</g>
<!-- egglog&#45;&gt;types -->
<g id="edge28" class="edge">
<title>egglog&#45;&gt;types</title>
<path fill="none" stroke="black" d="M891.1,-1486.8C938.08,-1495.82 1032.49,-1511.75 1113.38,-1511.75 1113.38,-1511.75 1113.38,-1511.75 1218.25,-1511.75 1293.97,-1511.75 1328,-1511.24 1379.5,-1566.75 1434.18,-1625.68 1442.02,-1726.53 1442.3,-1776.25"/>
<polygon fill="black" stroke="black" points="1438.8,-1775.93 1442.25,-1785.94 1445.8,-1775.96 1438.8,-1775.93"/>
</g>
<!-- forsp -->
<g id="node10" class="node">
<title>forsp</title>
<polygon fill="none" stroke="black" points="477.5,-1112.75 423.5,-1112.75 423.5,-1076.75 477.5,-1076.75 477.5,-1112.75"/>
<text text-anchor="middle" x="450.5" y="-1090.45" font-family="sans-serif" font-size="14.00">forsp</text>
</g>
<!-- forsp&#45;&gt;hash -->
<g id="edge29" class="edge">
<title>forsp&#45;&gt;hash</title>
<path fill="none" stroke="black" d="M477.96,-1086.18C515.44,-1072.86 584.15,-1043.93 626.75,-998.75 652.39,-971.55 635.6,-948.43 662.75,-922.75 695.26,-891.99 722.09,-913.95 756,-884.75 802.77,-844.47 834.03,-777.54 849.04,-739.5"/>
<polygon fill="black" stroke="black" points="852.16,-741.14 852.47,-730.55 845.63,-738.63 852.16,-741.14"/>
</g>
<!-- repl&#45;core -->
<g id="node46" class="node">
<title>repl&#45;core</title>
<polygon fill="none" stroke="black" points="618.5,-1162.75 540.25,-1162.75 540.25,-1126.75 618.5,-1126.75 618.5,-1162.75"/>
<text text-anchor="middle" x="579.38" y="-1140.45" font-family="sans-serif" font-size="14.00">repl&#45;core</text>
</g>
<!-- forsp&#45;&gt;repl&#45;core -->
<g id="edge30" class="edge">
<title>forsp&#45;&gt;repl&#45;core</title>
<path fill="none" stroke="black" d="M477.79,-1105.11C492.7,-1110.98 511.83,-1118.52 529.4,-1125.44"/>
<polygon fill="black" stroke="black" points="528.09,-1128.69 538.67,-1129.1 530.65,-1122.18 528.09,-1128.69"/>
</g>
<!-- forsp&#45;&gt;sexp -->
<g id="edge31" class="edge">
<title>forsp&#45;&gt;sexp</title>
<path fill="none" stroke="black" d="M477.86,-1096.83C512.36,-1099.87 574.57,-1106.43 626.75,-1117.75 643.1,-1121.29 646.49,-1124.81 662.75,-1128.75 779.51,-1157.01 825.57,-1115.22 928.75,-1176.75 953.43,-1191.46 973.05,-1218.02 985.52,-1238.49"/>
<polygon fill="black" stroke="black" points="982.39,-1240.07 990.45,-1246.94 988.44,-1236.54 982.39,-1240.07"/>
</g>
<!-- fuse&#45;&gt;hash -->
<g id="edge32" class="edge">
<title>fuse&#45;&gt;hash</title>
<path fill="none" stroke="black" d="M606.87,-710.75C656.65,-710.75 764.28,-710.75 821.62,-710.75"/>
<polygon fill="black" stroke="black" points="821.54,-714.25 831.54,-710.75 821.54,-707.25 821.54,-714.25"/>
</g>
<!-- fuse&#45;&gt;object -->
<g id="edge33" class="edge">
<title>fuse&#45;&gt;object</title>
<path fill="none" stroke="black" d="M606.59,-726.31C625.07,-737.28 650.09,-752.14 670.71,-764.38"/>
<polygon fill="black" stroke="black" points="668.74,-767.28 679.12,-769.38 672.31,-761.26 668.74,-767.28"/>
</g>
<!-- fuse&#45;&gt;store -->
<g id="edge34" class="edge">
<title>fuse&#45;&gt;store</title>
<path fill="none" stroke="black" d="M606.45,-698.33C614.23,-693.33 621.95,-686.82 626.75,-678.75 703.76,-549.29 581.28,-468.44 662.75,-341.75 665.38,-337.65 668.87,-334.1 672.76,-331.03"/>
<polygon fill="black" stroke="black" points="674.61,-334 681.04,-325.59 670.76,-328.16 674.61,-334"/>
</g>
<!-- git&#45;&gt;hash -->
<g id="edge35" class="edge">
<title>git&#45;&gt;hash</title>
<path fill="none" stroke="black" d="M477.98,-465.43C534.64,-463.97 669.47,-467.88 756,-530.75 807.99,-568.52 837.71,-641 850.96,-681.52"/>
<polygon fill="black" stroke="black" points="847.55,-682.34 853.88,-690.83 854.23,-680.24 847.55,-682.34"/>
</g>
<!-- git&#45;&gt;object -->
<g id="edge36" class="edge">
<title>git&#45;&gt;object</title>
<path fill="none" stroke="black" d="M460.66,-484.93C470.55,-505.19 486.21,-539.13 496,-569.75 519.26,-642.48 479.64,-682.16 532,-737.75 550.68,-757.58 623.46,-772.83 669.49,-780.73"/>
<polygon fill="black" stroke="black" points="668.64,-784.14 679.08,-782.34 669.79,-777.24 668.64,-784.14"/>
</g>
<!-- sqlite -->
<g id="node53" class="node">
<title>sqlite</title>
<polygon fill="none" stroke="black" points="887.38,-294.75 833.38,-294.75 833.38,-258.75 887.38,-258.75 887.38,-294.75"/>
<text text-anchor="middle" x="860.38" y="-272.45" font-family="sans-serif" font-size="14.00">sqlite</text>
</g>
<!-- git&#45;&gt;sqlite -->
<g id="edge37" class="edge">
<title>git&#45;&gt;sqlite</title>
<path fill="none" stroke="black" d="M461.82,-448.61C475.54,-425.7 501.62,-386.1 532,-359.75 582.11,-316.27 598.99,-306.05 662.75,-287.75 716.32,-272.36 781.4,-272.11 821.6,-273.96"/>
<polygon fill="black" stroke="black" points="821.31,-277.45 831.48,-274.49 821.69,-270.46 821.31,-277.45"/>
</g>
<!-- git&#45;&gt;store -->
<g id="edge38" class="edge">
<title>git&#45;&gt;store</title>
<path fill="none" stroke="black" d="M477.54,-451.33C523.58,-424.09 619.42,-367.38 671.97,-336.29"/>
<polygon fill="black" stroke="black" points="673.75,-339.3 680.58,-331.2 670.19,-333.28 673.75,-339.3"/>
</g>
<!-- grammar -->
<g id="node13" class="node">
<title>grammar</title>
<polygon fill="none" stroke="black" points="1038.5,-1644.75 964.75,-1644.75 964.75,-1608.75 1038.5,-1608.75 1038.5,-1644.75"/>
<text text-anchor="middle" x="1001.62" y="-1622.45" font-family="sans-serif" font-size="14.00">grammar</text>
</g>
<!-- graph -->
<g id="node14" class="node">
<title>graph</title>
<polygon fill="none" stroke="black" points="736.38,-440.75 682.38,-440.75 682.38,-404.75 736.38,-404.75 736.38,-440.75"/>
<text text-anchor="middle" x="709.38" y="-418.45" font-family="sans-serif" font-size="14.00">graph</text>
</g>
<!-- graph&#45;&gt;hash -->
<g id="edge39" class="edge">
<title>graph&#45;&gt;hash</title>
<path fill="none" stroke="black" d="M736.42,-436.9C743.55,-441.79 750.75,-447.8 756,-454.75 785.26,-493.42 774.21,-512.63 792,-557.75 809.35,-601.75 831.92,-651.74 846.03,-682.26"/>
<polygon fill="black" stroke="black" points="842.79,-683.6 850.18,-691.2 849.14,-680.66 842.79,-683.6"/>
</g>
<!-- parse -->
<g id="node37" class="node">
<title>parse</title>
<polygon fill="none" stroke="black" points="1141.38,-1124.75 1087.38,-1124.75 1087.38,-1088.75 1141.38,-1088.75 1141.38,-1124.75"/>
<text text-anchor="middle" x="1114.38" y="-1102.45" font-family="sans-serif" font-size="14.00">parse</text>
</g>
<!-- graph&#45;&gt;parse -->
<g id="edge40" class="edge">
<title>graph&#45;&gt;parse</title>
<path fill="none" stroke="black" d="M736.63,-435.07C800.32,-466.47 963.31,-556.12 1038.5,-683.75 1078.28,-751.27 1103.21,-993.01 1110.86,-1077.41"/>
<polygon fill="black" stroke="black" points="1107.36,-1077.53 1111.73,-1087.18 1114.33,-1076.91 1107.36,-1077.53"/>
</g>
<!-- rand -->
<g id="node44" class="node">
<title>rand</title>
<polygon fill="none" stroke="black" points="1028.62,-728.75 974.62,-728.75 974.62,-692.75 1028.62,-692.75 1028.62,-728.75"/>
<text text-anchor="middle" x="1001.62" y="-706.45" font-family="sans-serif" font-size="14.00">rand</text>
</g>
<!-- hash&#45;&gt;rand -->
<g id="edge41" class="edge">
<title>hash&#45;&gt;rand</title>
<path fill="none" stroke="black" d="M887.57,-710.75C908.86,-710.75 939.19,-710.75 963.07,-710.75"/>
<polygon fill="black" stroke="black" points="963.04,-714.25 973.04,-710.75 963.04,-707.25 963.04,-714.25"/>
</g>
<!-- haskell -->
<g id="node16" class="node">
<title>haskell</title>
<polygon fill="none" stroke="black" points="481.75,-2156.75 419.25,-2156.75 419.25,-2120.75 481.75,-2120.75 481.75,-2156.75"/>
<text text-anchor="middle" x="450.5" y="-2134.45" font-family="sans-serif" font-size="14.00">haskell</text>
</g>
<!-- hol&#45;api -->
<g id="node18" class="node">
<title>hol&#45;api</title>
<polygon fill="none" stroke="black" points="610.62,-2133.75 548.12,-2133.75 548.12,-2097.75 610.62,-2097.75 610.62,-2133.75"/>
<text text-anchor="middle" x="579.38" y="-2111.45" font-family="sans-serif" font-size="14.00">hol&#45;api</text>
</g>
<!-- haskell&#45;&gt;hol&#45;api -->
<g id="edge42" class="edge">
<title>haskell&#45;&gt;hol&#45;api</title>
<path fill="none" stroke="black" d="M482.21,-2133.18C498.58,-2130.21 518.94,-2126.52 536.71,-2123.3"/>
<polygon fill="black" stroke="black" points="537.24,-2126.76 546.46,-2121.53 535.99,-2119.87 537.24,-2126.76"/>
</g>
<!-- haskell&#45;&gt;hol&#45;eval -->
<g id="edge43" class="edge">
<title>haskell&#45;&gt;hol&#45;eval</title>
<path fill="none" stroke="black" d="M481.9,-2142.04C522.91,-2146.4 598.27,-2154.06 662.75,-2158.75 714.3,-2162.5 773.55,-2165.3 813.43,-2166.98"/>
<polygon fill="black" stroke="black" points="813.25,-2170.47 823.38,-2167.39 813.53,-2163.48 813.25,-2170.47"/>
</g>
<!-- haskell&#45;&gt;init -->
<g id="edge44" class="edge">
<title>haskell&#45;&gt;init</title>
<path fill="none" stroke="black" d="M468,-2120.29C477.96,-2108.01 489.86,-2091.01 496,-2073.75 528.41,-1982.56 464.41,-1709.01 532,-1639.75 567.53,-1603.33 630.65,-1606 670.95,-1612.48"/>
<polygon fill="black" stroke="black" points="670.23,-1615.9 680.69,-1614.21 671.45,-1609.01 670.23,-1615.9"/>
</g>
<!-- haskell&#45;&gt;types -->
<g id="edge45" class="edge">
<title>haskell&#45;&gt;types</title>
<path fill="none" stroke="black" d="M477.83,-2157.13C560.97,-2214.86 815.04,-2388.75 859.38,-2388.75 859.38,-2388.75 859.38,-2388.75 1218.25,-2388.75 1308.66,-2388.75 1334.21,-2342.99 1379.5,-2264.75 1422.16,-2191.05 1436.67,-1925.14 1440.41,-1835.49"/>
<polygon fill="black" stroke="black" points="1443.9,-1835.7 1440.81,-1825.56 1436.91,-1835.42 1443.9,-1835.7"/>
</g>
<!-- hol&#45;&gt;core -->
<g id="edge46" class="edge">
<title>hol&#45;&gt;core</title>
<path fill="none" stroke="black" d="M887.57,-2004.32C908.96,-2007.24 939.47,-2011.4 963.4,-2014.67"/>
<polygon fill="black" stroke="black" points="962.67,-2018.1 973.05,-2015.98 963.62,-2011.16 962.67,-2018.1"/>
</g>
<!-- hol&#45;api&#45;&gt;core -->
<g id="edge47" class="edge">
<title>hol&#45;api&#45;&gt;core</title>
<path fill="none" stroke="black" d="M610.87,-2122.1C674.11,-2133.66 822.5,-2152.31 928.75,-2098.75 951.31,-2087.37 947.68,-2073.37 964.75,-2054.75 967.42,-2051.83 970.27,-2048.86 973.15,-2045.93"/>
<polygon fill="black" stroke="black" points="975.54,-2048.49 980.16,-2038.95 970.6,-2043.52 975.54,-2048.49"/>
</g>
<!-- hol&#45;api&#45;&gt;hol&#45;eval -->
<g id="edge48" class="edge">
<title>hol&#45;api&#45;&gt;hol&#45;eval</title>
<path fill="none" stroke="black" d="M610.74,-2124.17C626.23,-2128.29 645.41,-2133.13 662.75,-2136.75 714.21,-2147.47 773.88,-2156.74 813.87,-2162.5"/>
<polygon fill="black" stroke="black" points="813.21,-2165.95 823.61,-2163.89 814.2,-2159.02 813.21,-2165.95"/>
</g>
<!-- inductive -->
<g id="node20" class="node">
<title>inductive</title>
<polygon fill="none" stroke="black" points="898.75,-1888.75 822,-1888.75 822,-1852.75 898.75,-1852.75 898.75,-1888.75"/>
<text text-anchor="middle" x="860.38" y="-1866.45" font-family="sans-serif" font-size="14.00">inductive</text>
</g>
<!-- hol&#45;api&#45;&gt;inductive -->
<g id="edge49" class="edge">
<title>hol&#45;api&#45;&gt;inductive</title>
<path fill="none" stroke="black" d="M601.35,-2097.33C650.54,-2054.13 773.49,-1946.16 830.05,-1896.49"/>
<polygon fill="black" stroke="black" points="832.2,-1899.27 837.4,-1890.04 827.58,-1894.01 832.2,-1899.27"/>
</g>
<!-- hol&#45;api&#45;&gt;init -->
<g id="edge50" class="edge">
<title>hol&#45;api&#45;&gt;init</title>
<path fill="none" stroke="black" d="M585.08,-2097.54C604.31,-2023.18 677,-1742.09 700.79,-1650.09"/>
<polygon fill="black" stroke="black" points="704.13,-1651.14 703.25,-1640.58 697.35,-1649.39 704.13,-1651.14"/>
</g>
<!-- hol&#45;api&#45;&gt;pure -->
<g id="edge51" class="edge">
<title>hol&#45;api&#45;&gt;pure</title>
<path fill="none" stroke="black" d="M610.97,-2133.61C626.19,-2142 645.07,-2151.69 662.75,-2158.75 773.6,-2203.01 811.36,-2217.37 928.75,-2195.75 1034.24,-2176.31 1059.65,-2160.3 1154.25,-2109.75 1164.36,-2104.34 1174.74,-2097.54 1184.05,-2090.92"/>
<polygon fill="black" stroke="black" points="1186.09,-2093.76 1192.09,-2085.03 1181.95,-2088.12 1186.09,-2093.76"/>
</g>
<!-- hol&#45;api&#45;&gt;types -->
<g id="edge52" class="edge">
<title>hol&#45;api&#45;&gt;types</title>
<path fill="none" stroke="black" d="M593.11,-2133.93C628.94,-2182.69 736.04,-2312.75 859.38,-2312.75 859.38,-2312.75 859.38,-2312.75 1218.25,-2312.75 1428.24,-2312.75 1442.43,-1943.96 1442.06,-1835.44"/>
<polygon fill="black" stroke="black" points="1445.56,-1835.57 1441.98,-1825.6 1438.56,-1835.63 1445.56,-1835.57"/>
</g>
<!-- hol&#45;eval&#45;&gt;core -->
<g id="edge53" class="edge">
<title>hol&#45;eval&#45;&gt;core</title>
<path fill="none" stroke="black" d="M895.74,-2157.79C907.32,-2152.79 919.6,-2145.91 928.75,-2136.75 955.16,-2110.3 944.25,-2092 964.75,-2060.75 967.91,-2055.93 971.6,-2051.08 975.39,-2046.49"/>
<polygon fill="black" stroke="black" points="977.8,-2049.05 981.69,-2039.2 972.5,-2044.48 977.8,-2049.05"/>
</g>
<!-- hol&#45;eval&#45;&gt;pure -->
<g id="edge54" class="edge">
<title>hol&#45;eval&#45;&gt;pure</title>
<path fill="none" stroke="black" d="M895.72,-2158.78C962.62,-2139.36 1109.87,-2096.62 1179.01,-2076.55"/>
<polygon fill="black" stroke="black" points="1179.72,-2079.99 1188.35,-2073.84 1177.77,-2073.27 1179.72,-2079.99"/>
</g>
<!-- hol&#45;eval&#45;&gt;pure&#45;eval -->
<g id="edge55" class="edge">
<title>hol&#45;eval&#45;&gt;pure&#45;eval</title>
<path fill="none" stroke="black" d="M895.69,-2154.85C906.64,-2149.8 918.55,-2143.62 928.75,-2136.75 946.75,-2124.62 947.19,-2116.5 964.75,-2103.75 996.5,-2080.69 1035.16,-2059.01 1065.09,-2043.46"/>
<polygon fill="black" stroke="black" points="1066.65,-2046.59 1073.94,-2038.91 1063.45,-2040.37 1066.65,-2046.59"/>
</g>
<!-- hol&#45;eval&#45;&gt;sexp -->
<g id="edge56" class="edge">
<title>hol&#45;eval&#45;&gt;sexp</title>
<path fill="none" stroke="black" d="M872.81,-2150.43C888.47,-2124.32 916.11,-2074.35 928.75,-2027.75 978.72,-1843.51 946.53,-1789.77 964.75,-1599.75 975.5,-1487.62 990.53,-1354.5 997.2,-1296.37"/>
<polygon fill="black" stroke="black" points="1000.65,-1296.98 998.32,-1286.64 993.7,-1296.18 1000.65,-1296.98"/>
</g>
<!-- hol&#45;eval&#45;&gt;types -->
<g id="edge57" class="edge">
<title>hol&#45;eval&#45;&gt;types</title>
<path fill="none" stroke="black" d="M895.87,-2175.48C944.27,-2184.32 1035.17,-2198.75 1113.38,-2198.75 1113.38,-2198.75 1113.38,-2198.75 1218.25,-2198.75 1304.01,-2198.75 1331,-2163.48 1379.5,-2092.75 1434.84,-2012.03 1442.05,-1890.97 1442.19,-1835.47"/>
<polygon fill="black" stroke="black" points="1445.69,-1835.54 1442.13,-1825.56 1438.69,-1835.58 1445.69,-1835.54"/>
</g>
<!-- init&#45;&gt;core -->
<g id="edge58" class="edge">
<title>init&#45;&gt;core</title>
<path fill="none" stroke="black" d="M722.01,-1639.23C736.53,-1661.34 763.01,-1698.63 792,-1724.75 845.34,-1772.81 884.15,-1754.48 928.75,-1810.75 971.78,-1865.03 989.87,-1946.68 996.79,-1990.11"/>
<polygon fill="black" stroke="black" points="993.3,-1990.42 998.23,-1999.8 1000.22,-1989.39 993.3,-1990.42"/>
</g>
<!-- init&#45;&gt;grammar -->
<g id="edge59" class="edge">
<title>init&#45;&gt;grammar</title>
<path fill="none" stroke="black" d="M736.64,-1621.29C785.54,-1622.3 891.16,-1624.48 952.95,-1625.76"/>
<polygon fill="black" stroke="black" points="952.75,-1629.26 962.82,-1625.96 952.89,-1622.26 952.75,-1629.26"/>
</g>
<!-- init&#45;&gt;hash -->
<g id="edge60" class="edge">
<title>init&#45;&gt;hash</title>
<path fill="none" stroke="black" d="M717.04,-1602.56C727.36,-1573.48 746.99,-1514.5 756,-1462.75 799.28,-1213.98 740.27,-1142.9 792,-895.75 803.99,-838.44 830.1,-775 846.06,-739.29"/>
<polygon fill="black" stroke="black" points="849.1,-741.07 850.04,-730.51 842.73,-738.18 849.1,-741.07"/>
</g>
<!-- init&#45;&gt;hol -->
<g id="edge61" class="edge">
<title>init&#45;&gt;hol</title>
<path fill="none" stroke="black" d="M716.34,-1639.12C725.26,-1666.74 742.46,-1720.63 756,-1766.75 773.01,-1824.68 767.17,-1842.71 792,-1897.75 804.31,-1925.03 823.32,-1953.29 838.01,-1973.3"/>
<polygon fill="black" stroke="black" points="835.13,-1975.29 843.92,-1981.2 840.74,-1971.1 835.13,-1975.29"/>
</g>
<!-- init&#45;&gt;hol&#45;eval -->
<g id="edge62" class="edge">
<title>init&#45;&gt;hol&#45;eval</title>
<path fill="none" stroke="black" d="M713.43,-1639.1C725.05,-1708.25 767.04,-1952.88 792,-2027.75 805.62,-2068.6 828.25,-2112.99 843.48,-2140.84"/>
<polygon fill="black" stroke="black" points="840.28,-2142.28 848.19,-2149.33 846.41,-2138.89 840.28,-2142.28"/>
</g>
<!-- init&#45;&gt;inductive -->
<g id="edge63" class="edge">
<title>init&#45;&gt;inductive</title>
<path fill="none" stroke="black" d="M720.48,-1638.8C735.7,-1665.89 765.55,-1718.59 792,-1762.75 808.47,-1790.24 827.9,-1821.25 841.66,-1842.96"/>
<polygon fill="black" stroke="black" points="838.6,-1844.68 846.92,-1851.25 844.51,-1840.93 838.6,-1844.68"/>
</g>
<!-- k -->
<g id="node23" class="node">
<title>k</title>
<polygon fill="none" stroke="black" points="887.38,-1552.75 833.38,-1552.75 833.38,-1516.75 887.38,-1516.75 887.38,-1552.75"/>
<text text-anchor="middle" x="860.38" y="-1530.45" font-family="sans-serif" font-size="14.00">k</text>
</g>
<!-- init&#45;&gt;k -->
<g id="edge64" class="edge">
<title>init&#45;&gt;k</title>
<path fill="none" stroke="black" d="M736.67,-1605.57C760.75,-1591.67 796.59,-1570.98 823.33,-1555.55"/>
<polygon fill="black" stroke="black" points="824.87,-1558.7 831.78,-1550.67 821.37,-1552.64 824.87,-1558.7"/>
</g>
<!-- metamath -->
<g id="node32" class="node">
<title>metamath</title>
<polygon fill="none" stroke="black" points="900.62,-1124.75 820.12,-1124.75 820.12,-1088.75 900.62,-1088.75 900.62,-1124.75"/>
<text text-anchor="middle" x="860.38" y="-1102.45" font-family="sans-serif" font-size="14.00">metamath</text>
</g>
<!-- init&#45;&gt;metamath -->
<g id="edge65" class="edge">
<title>init&#45;&gt;metamath</title>
<path fill="none" stroke="black" d="M715.68,-1602.45C737.88,-1525.88 823.45,-1230.68 850.87,-1136.09"/>
<polygon fill="black" stroke="black" points="854.21,-1137.12 853.64,-1126.54 847.49,-1135.17 854.21,-1137.12"/>
</g>
<!-- init&#45;&gt;sexp -->
<g id="edge66" class="edge">
<title>init&#45;&gt;sexp</title>
<path fill="none" stroke="black" d="M722.26,-1602.52C731.99,-1587.19 745.77,-1564.52 756,-1543.75 775.04,-1505.1 759.92,-1482.5 792,-1453.75 838.98,-1411.65 880.35,-1456.2 928.75,-1415.75 966.01,-1384.61 985.4,-1329.61 994.28,-1295.85"/>
<polygon fill="black" stroke="black" points="997.63,-1296.89 996.63,-1286.34 990.83,-1295.21 997.63,-1296.89"/>
</g>
<!-- spectec -->
<g id="node52" class="node">
<title>spectec</title>
<polygon fill="none" stroke="black" points="895,-1682.75 825.75,-1682.75 825.75,-1646.75 895,-1646.75 895,-1682.75"/>
<text text-anchor="middle" x="860.38" y="-1660.45" font-family="sans-serif" font-size="14.00">spectec</text>
</g>
<!-- init&#45;&gt;spectec -->
<g id="edge67" class="edge">
<title>init&#45;&gt;spectec</title>
<path fill="none" stroke="black" d="M736.67,-1628.51C758.21,-1634.87 789.18,-1644.02 814.61,-1651.53"/>
<polygon fill="black" stroke="black" points="813.46,-1654.83 824.04,-1654.31 815.44,-1648.12 813.46,-1654.83"/>
</g>
<!-- init&#45;&gt;types -->
<g id="edge68" class="edge">
<title>init&#45;&gt;types</title>
<path fill="none" stroke="black" d="M736.68,-1637.76C743.2,-1642.36 750.03,-1647.52 756,-1652.75 773.76,-1668.27 770.84,-1681.31 792,-1691.75 875.51,-1732.92 907.52,-1710.75 1000.62,-1710.75 1000.62,-1710.75 1000.62,-1710.75 1218.25,-1710.75 1290,-1710.75 1365.11,-1752.81 1407.34,-1780.96"/>
<polygon fill="black" stroke="black" points="1405.36,-1783.84 1415.6,-1786.58 1409.3,-1778.05 1405.36,-1783.84"/>
</g>
<!-- json -->
<g id="node22" class="node">
<title>json</title>
<polygon fill="none" stroke="black" points="887.38,-240.75 833.38,-240.75 833.38,-204.75 887.38,-204.75 887.38,-240.75"/>
<text text-anchor="middle" x="860.38" y="-218.45" font-family="sans-serif" font-size="14.00">json</text>
</g>
<!-- k&#45;&gt;grammar -->
<g id="edge69" class="edge">
<title>k&#45;&gt;grammar</title>
<path fill="none" stroke="black" d="M887.57,-1552.05C908.89,-1566.14 939.27,-1586.21 963.17,-1602"/>
<polygon fill="black" stroke="black" points="961.1,-1604.83 971.38,-1607.42 964.96,-1598.99 961.1,-1604.83"/>
</g>
<!-- k&#45;&gt;parse -->
<g id="edge70" class="edge">
<title>k&#45;&gt;parse</title>
<path fill="none" stroke="black" d="M887.7,-1528.36C901.06,-1524.15 916.91,-1517.56 928.75,-1507.75 1049.78,-1407.45 1095.38,-1210.5 1108.73,-1136.12"/>
<polygon fill="black" stroke="black" points="1112.16,-1136.82 1110.41,-1126.37 1105.27,-1135.63 1112.16,-1136.82"/>
</g>
<!-- k&#45;&gt;sexp -->
<g id="edge71" class="edge">
<title>k&#45;&gt;sexp</title>
<path fill="none" stroke="black" d="M887.57,-1530C901.56,-1526.2 918.05,-1519.47 928.75,-1507.75 936.08,-1499.72 975.51,-1358.31 992.65,-1295.92"/>
<polygon fill="black" stroke="black" points="996.01,-1296.93 995.28,-1286.36 989.26,-1295.08 996.01,-1296.93"/>
</g>
<!-- kernel -->
<g id="node24" class="node">
<title>kernel</title>
<polygon fill="none" stroke="black" points="608,-1254.75 550.75,-1254.75 550.75,-1218.75 608,-1218.75 608,-1254.75"/>
<text text-anchor="middle" x="579.38" y="-1232.45" font-family="sans-serif" font-size="14.00">kernel</text>
</g>
<!-- kernel&#45;&gt;hash -->
<g id="edge72" class="edge">
<title>kernel&#45;&gt;hash</title>
<path fill="none" stroke="black" d="M596.8,-1218.47C606.99,-1206.13 619.49,-1188.99 626.75,-1171.75 661.96,-1088.1 608.82,-1043.74 662.75,-970.75 690.45,-933.26 723.4,-956.06 756,-922.75 808.19,-869.42 838.45,-784.6 851.57,-740.14"/>
<polygon fill="black" stroke="black" points="854.89,-741.27 854.26,-730.69 848.15,-739.35 854.89,-741.27"/>
</g>
<!-- kernel&#45;&gt;init -->
<g id="edge73" class="edge">
<title>kernel&#45;&gt;init</title>
<path fill="none" stroke="black" d="M595.13,-1255C605.39,-1268.54 618.63,-1287.86 626.75,-1306.75 654.85,-1372.12 644.87,-1393.87 662.75,-1462.75 674.51,-1508.03 689.91,-1560.08 699.47,-1591.68"/>
<polygon fill="black" stroke="black" points="696.01,-1592.35 702.27,-1600.9 702.71,-1590.31 696.01,-1592.35"/>
</g>
<!-- kernel&#45;&gt;object -->
<g id="edge74" class="edge">
<title>kernel&#45;&gt;object</title>
<path fill="none" stroke="black" d="M597.18,-1218.26C607.4,-1205.97 619.78,-1188.96 626.75,-1171.75 667.05,-1072.17 638.66,-1037.43 662.75,-932.75 672.27,-891.39 687.68,-844.78 697.92,-815.59"/>
<polygon fill="black" stroke="black" points="701.15,-816.96 701.19,-806.36 694.55,-814.62 701.15,-816.96"/>
</g>
<!-- kernel&#45;&gt;sexp -->
<g id="edge75" class="edge">
<title>kernel&#45;&gt;sexp</title>
<path fill="none" stroke="black" d="M608.49,-1236.64C667.86,-1236.74 810.32,-1238.57 928.75,-1252.75 939.99,-1254.09 952.11,-1256.2 963.14,-1258.37"/>
<polygon fill="black" stroke="black" points="962.17,-1261.74 972.66,-1260.32 963.57,-1254.88 962.17,-1261.74"/>
</g>
<!-- kernel&#45;&gt;store -->
<g id="edge76" class="edge">
<title>kernel&#45;&gt;store</title>
<path fill="none" stroke="black" d="M597.81,-1218.5C608.28,-1206.3 620.7,-1189.31 626.75,-1171.75 656.8,-1084.46 615.3,-420.92 662.75,-341.75 665.25,-337.57 668.67,-333.97 672.51,-330.88"/>
<polygon fill="black" stroke="black" points="674.36,-333.85 680.77,-325.42 670.5,-328.02 674.36,-333.85"/>
</g>
<!-- kernel&#45;sat -->
<g id="node25" class="node">
<title>kernel&#45;sat</title>
<polygon fill="none" stroke="black" points="621.12,-1745.75 537.62,-1745.75 537.62,-1709.75 621.12,-1709.75 621.12,-1745.75"/>
<text text-anchor="middle" x="579.38" y="-1723.45" font-family="sans-serif" font-size="14.00">kernel&#45;sat</text>
</g>
<!-- kernel&#45;sat&#45;&gt;core -->
<g id="edge77" class="edge">
<title>kernel&#45;sat&#45;&gt;core</title>
<path fill="none" stroke="black" d="M621.42,-1725.56C660.99,-1725.76 720.02,-1732.51 756,-1766.75 799.74,-1808.37 750.09,-1854.28 792,-1897.75 836.22,-1943.61 875.06,-1906.44 928.75,-1940.75 949.84,-1954.22 968.68,-1975.46 981.77,-1992.52"/>
<polygon fill="black" stroke="black" points="978.76,-1994.33 987.53,-2000.27 984.38,-1990.16 978.76,-1994.33"/>
</g>
<!-- kernel&#45;sat&#45;&gt;hol&#45;eval -->
<g id="edge78" class="edge">
<title>kernel&#45;sat&#45;&gt;hol&#45;eval</title>
<path fill="none" stroke="black" d="M586.05,-1746.23C597.12,-1780.47 623.99,-1855.19 662.75,-1908.75 695.8,-1954.42 720.51,-1950.94 756,-1994.75 794.09,-2041.75 827.71,-2104.24 845.64,-2140.12"/>
<polygon fill="black" stroke="black" points="842.45,-2141.58 850.02,-2149 848.73,-2138.48 842.45,-2141.58"/>
</g>
<!-- kernel&#45;sat&#45;&gt;init -->
<g id="edge79" class="edge">
<title>kernel&#45;sat&#45;&gt;init</title>
<path fill="none" stroke="black" d="M606.23,-1709.48C613,-1704.5 620.24,-1699.03 626.75,-1693.75 645.32,-1678.7 665.33,-1660.82 680.9,-1646.53"/>
<polygon fill="black" stroke="black" points="682.97,-1649.38 687.94,-1640.02 678.22,-1644.24 682.97,-1649.38"/>
</g>
<!-- sat -->
<g id="node47" class="node">
<title>sat</title>
<polygon fill="none" stroke="black" points="887.38,-1406.75 833.38,-1406.75 833.38,-1370.75 887.38,-1370.75 887.38,-1406.75"/>
<text text-anchor="middle" x="860.38" y="-1384.45" font-family="sans-serif" font-size="14.00">sat</text>
</g>
<!-- kernel&#45;sat&#45;&gt;sat -->
<g id="edge80" class="edge">
<title>kernel&#45;sat&#45;&gt;sat</title>
<path fill="none" stroke="black" d="M610.66,-1709.6C616.59,-1705 622.33,-1699.66 626.75,-1693.75 655.03,-1655.91 640.37,-1635.34 662.75,-1593.75 674.12,-1572.62 773.44,-1435.95 792,-1420.75 801.09,-1413.3 812.2,-1407.11 822.76,-1402.22"/>
<polygon fill="black" stroke="black" points="823.86,-1405.56 831.65,-1398.38 821.08,-1399.14 823.86,-1405.56"/>
</g>
<!-- kernel&#45;smt -->
<g id="node26" class="node">
<title>kernel&#45;smt</title>
<polygon fill="none" stroke="black" points="494.5,-2064.75 406.5,-2064.75 406.5,-2028.75 494.5,-2028.75 494.5,-2064.75"/>
<text text-anchor="middle" x="450.5" y="-2042.45" font-family="sans-serif" font-size="14.00">kernel&#45;smt</text>
</g>
<!-- kernel&#45;smt&#45;&gt;core -->
<g id="edge81" class="edge">
<title>kernel&#45;smt&#45;&gt;core</title>
<path fill="none" stroke="black" d="M494.9,-2056.13C579.88,-2072.75 773.51,-2101.91 928.75,-2060.75 941.75,-2057.3 954.84,-2050.89 966.24,-2044.15"/>
<polygon fill="black" stroke="black" points="967.85,-2047.27 974.48,-2039.01 964.14,-2041.34 967.85,-2047.27"/>
</g>
<!-- kernel&#45;smt&#45;&gt;hol&#45;api -->
<g id="edge82" class="edge">
<title>kernel&#45;smt&#45;&gt;hol&#45;api</title>
<path fill="none" stroke="black" d="M485.5,-2065.24C501.55,-2073.96 520.82,-2084.45 537.65,-2093.6"/>
<polygon fill="black" stroke="black" points="535.97,-2096.67 546.42,-2098.37 539.31,-2090.52 535.97,-2096.67"/>
</g>
<!-- kv -->
<g id="node27" class="node">
<title>kv</title>
<polygon fill="none" stroke="black" points="226.12,-126.75 172.12,-126.75 172.12,-90.75 226.12,-90.75 226.12,-126.75"/>
<text text-anchor="middle" x="199.12" y="-104.45" font-family="sans-serif" font-size="14.00">kv</text>
</g>
<!-- lean -->
<g id="node28" class="node">
<title>lean</title>
<polygon fill="none" stroke="black" points="87.5,-967.75 33.5,-967.75 33.5,-931.75 87.5,-931.75 87.5,-967.75"/>
<text text-anchor="middle" x="60.5" y="-945.45" font-family="sans-serif" font-size="14.00">lean</text>
</g>
<!-- lisp -->
<g id="node29" class="node">
<title>lisp</title>
<polygon fill="none" stroke="black" points="477.5,-1538.75 423.5,-1538.75 423.5,-1502.75 477.5,-1502.75 477.5,-1538.75"/>
<text text-anchor="middle" x="450.5" y="-1516.45" font-family="sans-serif" font-size="14.00">lisp</text>
</g>
<!-- lisp&#45;&gt;core -->
<g id="edge83" class="edge">
<title>lisp&#45;&gt;core</title>
<path fill="none" stroke="black" d="M452.72,-1539.22C456.55,-1582.61 471.97,-1692.08 532,-1754.75 605.99,-1831.99 680.28,-1767.2 756,-1842.75 786.79,-1873.46 759.86,-1904.44 792,-1933.75 838.79,-1976.41 871.11,-1947.52 928.75,-1973.75 941.6,-1979.59 954.85,-1987.46 966.41,-1995.04"/>
<polygon fill="black" stroke="black" points="964.18,-1997.75 974.43,-2000.44 968.09,-1991.95 964.18,-1997.75"/>
</g>
<!-- lisp&#45;&gt;hol&#45;api -->
<g id="edge84" class="edge">
<title>lisp&#45;&gt;hol&#45;api</title>
<path fill="none" stroke="black" d="M455.17,-1538.95C466.39,-1594.47 501.32,-1766.52 532,-1908.75 545.68,-1972.17 562.5,-2046.35 571.65,-2086.43"/>
<polygon fill="black" stroke="black" points="568.2,-2087.05 573.85,-2096.02 575.03,-2085.49 568.2,-2087.05"/>
</g>
<!-- lisp&#45;&gt;hol&#45;eval -->
<g id="edge85" class="edge">
<title>lisp&#45;&gt;hol&#45;eval</title>
<path fill="none" stroke="black" d="M452.94,-1539.2C457.55,-1589.43 475.09,-1731.58 532,-1832.75 609.61,-1970.71 758.08,-2092.86 825.07,-2143.68"/>
<polygon fill="black" stroke="black" points="822.67,-2146.25 832.76,-2149.46 826.87,-2140.66 822.67,-2146.25"/>
</g>
<!-- lisp&#45;&gt;init -->
<g id="edge86" class="edge">
<title>lisp&#45;&gt;init</title>
<path fill="none" stroke="black" d="M477.54,-1530.88C523.39,-1548.73 618.63,-1585.81 671.31,-1606.32"/>
<polygon fill="black" stroke="black" points="669.88,-1609.52 680.47,-1609.88 672.42,-1602.99 669.88,-1609.52"/>
</g>
<!-- lisp&#45;&gt;repl&#45;core -->
<g id="edge87" class="edge">
<title>lisp&#45;&gt;repl&#45;core</title>
<path fill="none" stroke="black" d="M453.85,-1502.42C460.68,-1453.14 483.19,-1314.37 532,-1209.75 538.18,-1196.5 547.14,-1183.13 555.54,-1171.99"/>
<polygon fill="black" stroke="black" points="558.07,-1174.45 561.46,-1164.41 552.55,-1170.14 558.07,-1174.45"/>
</g>
<!-- lisp&#45;&gt;sexp -->
<g id="edge88" class="edge">
<title>lisp&#45;&gt;sexp</title>
<path fill="none" stroke="black" d="M477.75,-1510.17C515.28,-1493.89 584.4,-1459.37 626.75,-1410.75 652.36,-1381.34 634.45,-1357.57 662.75,-1330.75 707.46,-1288.38 731.87,-1294.07 792,-1280.75 850.67,-1267.74 920.7,-1265.7 962.87,-1265.88"/>
<polygon fill="black" stroke="black" points="962.7,-1269.38 972.73,-1265.98 962.77,-1262.38 962.7,-1269.38"/>
</g>
<!-- lisp&#45;&gt;types -->
<g id="edge89" class="edge">
<title>lisp&#45;&gt;types</title>
<path fill="none" stroke="black" d="M464.86,-1502.43C480.8,-1480.58 508.29,-1442.96 532,-1410.75 573.96,-1353.74 599.66,-1348.14 626.75,-1282.75 668.2,-1182.69 596.21,-1127.19 662.75,-1041.75 672.31,-1029.47 776.89,-991.5 792,-987.75 882.36,-965.32 907.52,-968.75 1000.62,-968.75 1000.62,-968.75 1000.62,-968.75 1218.25,-968.75 1389.03,-968.75 1432.5,-1627.52 1440.14,-1776.18"/>
<polygon fill="black" stroke="black" points="1436.63,-1776.16 1440.62,-1785.97 1443.62,-1775.81 1436.63,-1776.16"/>
</g>
<!-- llm -->
<g id="node30" class="node">
<title>llm</title>
<polygon fill="none" stroke="black" points="226.12,-424.75 172.12,-424.75 172.12,-388.75 226.12,-388.75 226.12,-424.75"/>
<text text-anchor="middle" x="199.12" y="-402.45" font-family="sans-serif" font-size="14.00">llm</text>
</g>
<!-- llm&#45;&gt;proto -->
<g id="edge90" class="edge">
<title>llm&#45;&gt;proto</title>
<path fill="none" stroke="black" d="M222.79,-425.13C241.96,-440.69 269.63,-463.15 290.9,-480.41"/>
<polygon fill="black" stroke="black" points="288.44,-482.92 298.41,-486.5 292.85,-477.48 288.44,-482.92"/>
</g>
<!-- lsp&#45;&gt;sexp -->
<g id="edge91" class="edge">
<title>lsp&#45;&gt;sexp</title>
<path fill="none" stroke="black" d="M886.54,-941.22C900.9,-953.01 918.11,-969.49 928.75,-987.75 976.65,-1069.93 993.05,-1183.99 998.31,-1237.2"/>
<polygon fill="black" stroke="black" points="994.81,-1237.34 999.21,-1246.98 1001.78,-1236.7 994.81,-1237.34"/>
</g>
<!-- lsp&#45;&gt;wasm -->
<g id="edge92" class="edge">
<title>lsp&#45;&gt;wasm</title>
<path fill="none" stroke="black" d="M869.7,-904.27C884.11,-871.46 913.63,-800.55 928.75,-737.75 978.55,-530.9 994.99,-273.78 999.31,-187.52"/>
<polygon fill="black" stroke="black" points="1002.8,-187.72 999.79,-177.57 995.81,-187.39 1002.8,-187.72"/>
</g>
<!-- metamath&#45;&gt;parse -->
<g id="edge93" class="edge">
<title>metamath&#45;&gt;parse</title>
<path fill="none" stroke="black" d="M901.03,-1106.75C948.84,-1106.75 1028.62,-1106.75 1075.59,-1106.75"/>
<polygon fill="black" stroke="black" points="1075.55,-1110.25 1085.55,-1106.75 1075.55,-1103.25 1075.55,-1110.25"/>
</g>
<!-- metamath&#45;&gt;sexp -->
<g id="edge94" class="edge">
<title>metamath&#45;&gt;sexp</title>
<path fill="none" stroke="black" d="M900.98,-1120.62C910.81,-1125.32 920.8,-1131.32 928.75,-1138.75 958.51,-1166.54 979.12,-1209.51 990.41,-1237.88"/>
<polygon fill="black" stroke="black" points="987.03,-1238.83 993.87,-1246.92 993.57,-1236.33 987.03,-1238.83"/>
</g>
<!-- multiformat -->
<g id="node33" class="node">
<title>multiformat</title>
<polygon fill="none" stroke="black" points="754.5,-1086.75 664.25,-1086.75 664.25,-1050.75 754.5,-1050.75 754.5,-1086.75"/>
<text text-anchor="middle" x="709.38" y="-1064.45" font-family="sans-serif" font-size="14.00">multiformat</text>
</g>
<!-- multiformat&#45;&gt;acset -->
<g id="edge95" class="edge">
<title>multiformat&#45;&gt;acset</title>
<path fill="none" stroke="black" d="M754.68,-1052.69C776.25,-1044.87 801.88,-1035.58 822.39,-1028.15"/>
<polygon fill="black" stroke="black" points="823.56,-1031.45 831.77,-1024.75 821.17,-1024.87 823.56,-1031.45"/>
</g>
<!-- multiformat&#45;&gt;hash -->
<g id="edge96" class="edge">
<title>multiformat&#45;&gt;hash</title>
<path fill="none" stroke="black" d="M718.17,-1050.42C727.28,-1028.95 742.81,-992.3 756,-960.75 789.47,-880.68 828.47,-785.96 847.59,-739.45"/>
<polygon fill="black" stroke="black" points="850.76,-740.94 851.32,-730.36 844.29,-738.28 850.76,-740.94"/>
</g>
<!-- multiformat&#45;&gt;parse -->
<g id="edge97" class="edge">
<title>multiformat&#45;&gt;parse</title>
<path fill="none" stroke="black" d="M754.8,-1069.75C798.99,-1071.04 868.68,-1073.85 928.75,-1079.75 979.95,-1084.77 1038.68,-1093.95 1075.89,-1100.2"/>
<polygon fill="black" stroke="black" points="1075.24,-1103.64 1085.69,-1101.86 1076.41,-1096.74 1075.24,-1103.64"/>
</g>
<!-- object&#45;&gt;hash -->
<g id="edge98" class="edge">
<title>object&#45;&gt;hash</title>
<path fill="none" stroke="black" d="M738.4,-772.45C762.26,-760.28 796.7,-742.71 822.74,-729.43"/>
<polygon fill="black" stroke="black" points="824.31,-732.56 831.63,-724.9 821.13,-726.32 824.31,-732.56"/>
</g>
<!-- object&#45;&gt;parse -->
<g id="edge99" class="edge">
<title>object&#45;&gt;parse</title>
<path fill="none" stroke="black" d="M738.19,-796.59C781.69,-812.83 867.2,-848.23 928.75,-895.75 999.7,-950.52 1064.11,-1035.68 1094.68,-1079.16"/>
<polygon fill="black" stroke="black" points="1091.75,-1081.07 1100.33,-1087.29 1097.49,-1077.08 1091.75,-1081.07"/>
</g>
<!-- opentheory&#45;&gt;core -->
<g id="edge100" class="edge">
<title>opentheory&#45;&gt;core</title>
<path fill="none" stroke="black" d="M494.2,-2218.22C506.2,-2222.55 519.42,-2226.55 532,-2228.75 706.3,-2259.18 787.8,-2302.71 928.75,-2195.75 975.43,-2160.32 991.93,-2089.37 997.66,-2049.22"/>
<polygon fill="black" stroke="black" points="1001.1,-2049.92 998.9,-2039.55 994.16,-2049.03 1001.1,-2049.92"/>
</g>
<!-- opentheory&#45;&gt;hol -->
<g id="edge101" class="edge">
<title>opentheory&#45;&gt;hol</title>
<path fill="none" stroke="black" d="M496.15,-2188.34C532.23,-2178.39 583.88,-2162.47 626.75,-2142.75 700.68,-2108.73 780.27,-2056.32 824.55,-2025.59"/>
<polygon fill="black" stroke="black" points="826.54,-2028.47 832.73,-2019.88 822.53,-2022.74 826.54,-2028.47"/>
</g>
<!-- opentheory&#45;&gt;hol&#45;api -->
<g id="edge102" class="edge">
<title>opentheory&#45;&gt;hol&#45;api</title>
<path fill="none" stroke="black" d="M479.34,-2181.31C497.52,-2169.28 521.47,-2153.42 541.26,-2140.32"/>
<polygon fill="black" stroke="black" points="542.93,-2143.41 549.33,-2134.97 539.06,-2137.57 542.93,-2143.41"/>
</g>
<!-- opentheory&#45;&gt;hol&#45;eval -->
<g id="edge103" class="edge">
<title>opentheory&#45;&gt;hol&#45;eval</title>
<path fill="none" stroke="black" d="M496.45,-2208.97C507.99,-2210.95 520.41,-2212.75 532,-2213.75 573.96,-2217.37 584.83,-2217.76 626.75,-2213.75 692.57,-2207.44 767.45,-2191.31 814.06,-2180.18"/>
<polygon fill="black" stroke="black" points="814.62,-2183.64 823.52,-2177.89 812.98,-2176.84 814.62,-2183.64"/>
</g>
<!-- parquet -->
<g id="node36" class="node">
<title>parquet</title>
<polygon fill="none" stroke="black" points="484,-614.75 417,-614.75 417,-578.75 484,-578.75 484,-614.75"/>
<text text-anchor="middle" x="450.5" y="-592.45" font-family="sans-serif" font-size="14.00">parquet</text>
</g>
<!-- parquet&#45;&gt;arrow -->
<g id="edge104" class="edge">
<title>parquet&#45;&gt;arrow</title>
<path fill="none" stroke="black" d="M484.17,-592.63C501.52,-590.44 522.91,-587.74 540.93,-585.47"/>
<polygon fill="black" stroke="black" points="541.22,-588.96 550.7,-584.24 540.34,-582.01 541.22,-588.96"/>
</g>
<!-- proptest -->
<g id="node38" class="node">
<title>proptest</title>
<polygon fill="none" stroke="black" points="95.88,-1021.75 25.12,-1021.75 25.12,-985.75 95.88,-985.75 95.88,-1021.75"/>
<text text-anchor="middle" x="60.5" y="-999.45" font-family="sans-serif" font-size="14.00">proptest</text>
</g>
<!-- pure&#45;trusted -->
<g id="node42" class="node">
<title>pure&#45;trusted</title>
<polygon fill="#ffd6d6" stroke="black" points="1379.5,-2083.75 1280.25,-2083.75 1280.25,-2047.75 1379.5,-2047.75 1379.5,-2083.75"/>
<text text-anchor="middle" x="1329.88" y="-2061.45" font-family="sans-serif" font-size="14.00">pure&#45;trusted</text>
</g>
<!-- pure&#45;&gt;pure&#45;trusted -->
<g id="edge105" class="edge">
<title>pure&#45;&gt;pure&#45;trusted</title>
<path fill="none" stroke="black" d="M1244.75,-2065.75C1252.04,-2065.75 1260.27,-2065.75 1268.64,-2065.75"/>
<polygon fill="black" stroke="black" points="1268.57,-2069.25 1278.57,-2065.75 1268.57,-2062.25 1268.57,-2069.25"/>
</g>
<!-- pure&#45;eval&#45;&gt;pure -->
<g id="edge106" class="edge">
<title>pure&#45;eval&#45;&gt;pure</title>
<path fill="none" stroke="black" d="M1154.66,-2037.66C1162.9,-2041.42 1171.54,-2045.36 1179.67,-2049.07"/>
<polygon fill="black" stroke="black" points="1178.05,-2052.17 1188.6,-2053.14 1180.96,-2045.8 1178.05,-2052.17"/>
</g>
<!-- pure&#45;eval&#45;&gt;types -->
<g id="edge107" class="edge">
<title>pure&#45;eval&#45;&gt;types</title>
<path fill="none" stroke="black" d="M1154.7,-2010.32C1210.05,-1995.44 1311.72,-1962.04 1379.5,-1903.75 1401.7,-1884.65 1418.68,-1855.63 1429.22,-1834.11"/>
<polygon fill="black" stroke="black" points="1432.27,-1835.85 1433.35,-1825.31 1425.93,-1832.87 1432.27,-1835.85"/>
</g>
<!-- pure&#45;trusted&#45;&gt;types -->
<g id="edge108" class="edge">
<title>pure&#45;trusted&#45;&gt;types</title>
<path fill="none" stroke="black" d="M1346.37,-2047.41C1356.87,-2034.26 1370.43,-2015.76 1379.5,-1997.75 1406.93,-1943.29 1425.72,-1874.11 1434.94,-1835.42"/>
<polygon fill="black" stroke="black" points="1438.35,-1836.22 1437.2,-1825.68 1431.53,-1834.63 1438.35,-1836.22"/>
</g>
<!-- python -->
<g id="node43" class="node">
<title>python</title>
<polygon fill="none" stroke="black" points="91.38,-378.75 29.62,-378.75 29.62,-342.75 91.38,-342.75 91.38,-378.75"/>
<text text-anchor="middle" x="60.5" y="-356.45" font-family="sans-serif" font-size="14.00">python</text>
</g>
<!-- python&#45;&gt;crypto&#45;sig -->
<g id="edge109" class="edge">
<title>python&#45;&gt;crypto&#45;sig</title>
<path fill="none" stroke="black" d="M80.04,-342.28C98.94,-323.69 129.32,-294.46 157,-270.75 159.6,-268.52 162.32,-266.26 165.08,-264.01"/>
<polygon fill="black" stroke="black" points="167.08,-266.9 172.71,-257.93 162.71,-261.42 167.08,-266.9"/>
</g>
<!-- python&#45;&gt;git -->
<g id="edge110" class="edge">
<title>python&#45;&gt;git</title>
<path fill="none" stroke="black" d="M66.89,-342.25C77.69,-308.99 105.51,-239.9 157,-211.75 189.85,-193.78 207.42,-195.7 241.25,-211.75 341.95,-259.52 410.07,-382.47 436.82,-438.35"/>
<polygon fill="black" stroke="black" points="433.56,-439.65 440.97,-447.22 439.9,-436.68 433.56,-439.65"/>
</g>
<!-- python&#45;&gt;graph -->
<g id="edge111" class="edge">
<title>python&#45;&gt;graph</title>
<path fill="none" stroke="black" d="M91.8,-347.21C163.34,-317.15 347.82,-250.67 496,-292.75 579.8,-316.54 588.21,-350.67 662.75,-395.75 665.9,-397.65 669.18,-399.62 672.47,-401.59"/>
<polygon fill="black" stroke="black" points="670.58,-404.53 680.97,-406.64 674.16,-398.52 670.58,-404.53"/>
</g>
<!-- python&#45;&gt;hash -->
<g id="edge112" class="edge">
<title>python&#45;&gt;hash</title>
<path fill="none" stroke="black" d="M91.83,-363.08C127.65,-366.03 188.99,-371.72 241.25,-379.75 298.92,-388.6 710.32,-447.45 756,-483.75 788.84,-509.84 831.17,-626.43 849.83,-681.61"/>
<polygon fill="black" stroke="black" points="846.47,-682.59 852.96,-690.96 853.1,-680.37 846.47,-682.59"/>
</g>
<!-- python&#45;&gt;kv -->
<g id="edge113" class="edge">
<title>python&#45;&gt;kv</title>
<path fill="none" stroke="black" d="M66.12,-342.32C76.83,-302.36 106.36,-206.06 157,-140.75 158.97,-138.2 161.2,-135.74 163.56,-133.4"/>
<polygon fill="black" stroke="black" points="165.7,-136.17 170.84,-126.91 161.05,-130.95 165.7,-136.17"/>
</g>
<!-- python&#45;&gt;llm -->
<g id="edge114" class="edge">
<title>python&#45;&gt;llm</title>
<path fill="none" stroke="black" d="M91.82,-370.95C112.31,-377.85 139.48,-387 161.22,-394.32"/>
<polygon fill="black" stroke="black" points="160,-397.6 170.6,-397.48 162.23,-390.97 160,-397.6"/>
</g>
<!-- python&#45;&gt;object -->
<g id="edge115" class="edge">
<title>python&#45;&gt;object</title>
<path fill="none" stroke="black" d="M67.47,-379.17C87.23,-437.14 156.22,-617.28 277.25,-707.75 405.05,-803.27 467.23,-792.68 626.75,-789.75 640.57,-789.49 655.69,-789 669.13,-788.48"/>
<polygon fill="black" stroke="black" points="669.06,-791.99 678.91,-788.09 668.78,-784.99 669.06,-791.99"/>
</g>
<!-- python&#45;&gt;repl -->
<g id="edge116" class="edge">
<title>python&#45;&gt;repl</title>
<path fill="none" stroke="black" d="M76.26,-378.87C119.88,-432.42 248.38,-590.2 300.14,-653.76"/>
<polygon fill="black" stroke="black" points="297.22,-655.71 306.25,-661.25 302.65,-651.29 297.22,-655.71"/>
</g>
<!-- python&#45;&gt;sat -->
<g id="edge117" class="edge">
<title>python&#45;&gt;sat</title>
<path fill="none" stroke="black" d="M63.89,-378.91C71.95,-440.24 98.88,-645.27 121,-814.75 137.07,-937.85 99.66,-981.63 157,-1091.75 238.29,-1247.86 273.48,-1358.75 449.5,-1358.75 449.5,-1358.75 449.5,-1358.75 580.38,-1358.75 667.11,-1358.75 768.14,-1373.26 821.64,-1382.09"/>
<polygon fill="black" stroke="black" points="821,-1385.53 831.44,-1383.74 822.16,-1378.63 821,-1385.53"/>
</g>
<!-- python&#45;&gt;serve -->
<g id="edge118" class="edge">
<title>python&#45;&gt;serve</title>
<path fill="none" stroke="black" d="M65.29,-379.21C77,-435.48 114.39,-609.6 157,-750.75 165.84,-780.04 177.91,-812.84 186.69,-835.71"/>
<polygon fill="black" stroke="black" points="183.4,-836.91 190.27,-844.98 189.93,-834.39 183.4,-836.91"/>
</g>
<!-- python&#45;&gt;sexp -->
<g id="edge119" class="edge">
<title>python&#45;&gt;sexp</title>
<path fill="none" stroke="black" d="M63.22,-378.97C71.22,-461.44 106.6,-799.6 157,-891.75 256.81,-1074.23 331.53,-1116.27 532,-1171.75 704.28,-1219.42 756.67,-1189.35 928.75,-1237.75 940.31,-1241 952.55,-1245.51 963.58,-1250"/>
<polygon fill="black" stroke="black" points="962.18,-1253.21 972.75,-1253.86 964.89,-1246.75 962.18,-1253.21"/>
</g>
<!-- python&#45;&gt;shell -->
<g id="edge120" class="edge">
<title>python&#45;&gt;shell</title>
<path fill="none" stroke="black" d="M63.92,-378.92C78.03,-484.58 149.23,-1015.71 157,-1030.75 211.3,-1135.86 346.73,-1198.6 412.5,-1223.83"/>
<polygon fill="black" stroke="black" points="411.17,-1227.07 421.77,-1227.3 413.63,-1220.51 411.17,-1227.07"/>
</g>
<!-- python&#45;&gt;store -->
<g id="edge121" class="edge">
<title>python&#45;&gt;store</title>
<path fill="none" stroke="black" d="M66.76,-342.26C77.59,-307.65 105.79,-233.13 157,-194.75 217.42,-149.46 246.61,-154.75 322.12,-154.75 322.12,-154.75 322.12,-154.75 451.5,-154.75 534.12,-154.75 558.94,-169.54 626.75,-216.75 653.54,-235.4 676.54,-265.07 691.24,-286.88"/>
<polygon fill="black" stroke="black" points="688.16,-288.56 696.56,-295.01 694.01,-284.73 688.16,-288.56"/>
</g>
<!-- python&#45;&gt;wasm -->
<g id="edge122" class="edge">
<title>python&#45;&gt;wasm</title>
<path fill="none" stroke="black" d="M60.79,-342.32C59.73,-286.84 64.72,-120.09 157,-37.75 212.59,11.87 247.61,-8.75 322.12,-8.75 322.12,-8.75 322.12,-8.75 710.38,-8.75 807.97,-8.75 847.05,21.63 928.75,-31.75 963,-54.12 982.72,-98.83 992.56,-128.52"/>
<polygon fill="black" stroke="black" points="989.21,-129.51 995.52,-138.02 995.89,-127.43 989.21,-129.51"/>
</g>
<!-- wasm&#45;store -->
<g id="node60" class="node">
<title>wasm&#45;store</title>
<polygon fill="none" stroke="black" points="626.75,-84.75 532,-84.75 532,-48.75 626.75,-48.75 626.75,-84.75"/>
<text text-anchor="middle" x="579.38" y="-62.45" font-family="sans-serif" font-size="14.00">wasm&#45;store</text>
</g>
<!-- python&#45;&gt;wasm&#45;store -->
<g id="edge123" class="edge">
<title>python&#45;&gt;wasm&#45;store</title>
<path fill="none" stroke="black" d="M61.29,-342.43C61.79,-291.11 71.07,-145.5 157,-81.75 264.29,-2.15 432.76,-28.42 520.65,-50.06"/>
<polygon fill="black" stroke="black" points="519.71,-53.43 530.26,-52.5 521.43,-46.65 519.71,-53.43"/>
</g>
<!-- repl&#45;&gt;arrow -->
<g id="edge124" class="edge">
<title>repl&#45;&gt;arrow</title>
<path fill="none" stroke="black" d="M350.52,-673.43C384.68,-663.64 445.78,-645.02 496,-623.75 511.54,-617.16 528.13,-608.78 542.33,-601.17"/>
<polygon fill="black" stroke="black" points="543.75,-604.38 550.86,-596.52 540.4,-598.23 543.75,-604.38"/>
</g>
<!-- repl&#45;&gt;forsp -->
<g id="edge125" class="edge">
<title>repl&#45;&gt;forsp</title>
<path fill="none" stroke="black" d="M332.3,-698.95C341.89,-720.72 357.89,-758.42 369,-791.75 401.9,-890.39 430.53,-1010.56 442.94,-1065.18"/>
<polygon fill="black" stroke="black" points="439.52,-1065.95 445.14,-1074.94 446.35,-1064.41 439.52,-1065.95"/>
</g>
<!-- repl&#45;&gt;git -->
<g id="edge126" class="edge">
<title>repl&#45;&gt;git</title>
<path fill="none" stroke="black" d="M335,-662.49C344.2,-646.95 357.66,-624 369,-603.75 385.51,-574.25 387.92,-565.92 405,-536.75 413.21,-522.72 422.83,-507.46 431.02,-494.78"/>
<polygon fill="black" stroke="black" points="433.88,-496.79 436.4,-486.5 428.01,-492.98 433.88,-496.79"/>
</g>
<!-- repl&#45;&gt;graph -->
<g id="edge127" class="edge">
<title>repl&#45;&gt;graph</title>
<path fill="none" stroke="black" d="M333.68,-662.48C346.95,-638.55 372.98,-596.5 405,-569.75 488.5,-499.96 610.73,-454 671.4,-434.07"/>
<polygon fill="black" stroke="black" points="672.1,-437.52 680.54,-431.12 669.95,-430.86 672.1,-437.52"/>
</g>
<!-- repl&#45;&gt;hash -->
<g id="edge128" class="edge">
<title>repl&#45;&gt;hash</title>
<path fill="none" stroke="black" d="M350.47,-680.07C403.06,-678.94 524.76,-677.34 626.75,-683.75 695.81,-688.08 775.85,-698.59 821.76,-705.14"/>
<polygon fill="black" stroke="black" points="821.05,-708.57 831.44,-706.54 822.05,-701.65 821.05,-708.57"/>
</g>
<!-- repl&#45;&gt;init -->
<g id="edge129" class="edge">
<title>repl&#45;&gt;init</title>
<path fill="none" stroke="black" d="M333.37,-699.07C343.82,-720.66 360.48,-757.88 369,-791.75 404.99,-934.83 340.11,-989.25 405,-1121.75 429.75,-1172.27 460.69,-1165.94 496,-1209.75 513.31,-1231.22 614.23,-1396.17 626.75,-1420.75 656.73,-1479.6 684.09,-1552.13 698.25,-1591.67"/>
<polygon fill="black" stroke="black" points="694.9,-1592.69 701.54,-1600.94 701.49,-1590.35 694.9,-1592.69"/>
</g>
<!-- repl&#45;&gt;object -->
<g id="edge130" class="edge">
<title>repl&#45;&gt;object</title>
<path fill="none" stroke="black" d="M350.46,-694.94C389.08,-715.04 463.86,-751.27 532,-768.75 578.07,-780.56 632.79,-784.67 668.93,-786.07"/>
<polygon fill="black" stroke="black" points="668.81,-789.57 678.92,-786.4 669.04,-782.58 668.81,-789.57"/>
</g>
<!-- repl&#45;&gt;parquet -->
<g id="edge131" class="edge">
<title>repl&#45;&gt;parquet</title>
<path fill="none" stroke="black" d="M350.41,-663.14C368.43,-651.06 392.59,-634.88 412.54,-621.51"/>
<polygon fill="black" stroke="black" points="414.33,-624.52 420.69,-616.05 410.44,-618.71 414.33,-624.52"/>
</g>
<!-- repl&#45;&gt;shell -->
<g id="edge132" class="edge">
<title>repl&#45;&gt;shell</title>
<path fill="none" stroke="black" d="M333.5,-699.04C344.07,-720.6 360.85,-757.79 369,-791.75 390.5,-881.33 359.45,-1124.67 405,-1204.75 407.5,-1209.15 410.89,-1213.1 414.68,-1216.6"/>
<polygon fill="black" stroke="black" points="412.24,-1219.14 422.25,-1222.6 416.59,-1213.65 412.24,-1219.14"/>
</g>
<!-- repl&#45;&gt;wasm -->
<g id="edge133" class="edge">
<title>repl&#45;&gt;wasm</title>
<path fill="none" stroke="black" d="M329.78,-662.52C346.19,-609.84 393.39,-459.86 405,-439.75 483.83,-303.11 516.4,-254.62 662.75,-195.75 765.34,-154.48 898.72,-153.26 962.89,-155.57"/>
<polygon fill="black" stroke="black" points="962.39,-159.06 972.53,-155.98 962.68,-152.06 962.39,-159.06"/>
</g>
<!-- sat&#45;&gt;parse -->
<g id="edge134" class="edge">
<title>sat&#45;&gt;parse</title>
<path fill="none" stroke="black" d="M887.64,-1381.16C925.89,-1368.85 996.87,-1341.01 1038.5,-1293.75 1079.33,-1247.39 1099.47,-1175.97 1108.02,-1136.15"/>
<polygon fill="black" stroke="black" points="1111.4,-1137.08 1109.97,-1126.58 1104.55,-1135.68 1111.4,-1137.08"/>
</g>
<!-- sat&#45;&gt;types -->
<g id="edge135" class="edge">
<title>sat&#45;&gt;types</title>
<path fill="none" stroke="black" d="M887.86,-1401.8C933,-1422.79 1028.2,-1461.75 1113.38,-1461.75 1113.38,-1461.75 1113.38,-1461.75 1218.25,-1461.75 1293.02,-1461.75 1328.86,-1454.73 1379.5,-1509.75 1415.23,-1548.57 1433.07,-1708.89 1439.09,-1775.99"/>
<polygon fill="black" stroke="black" points="1435.6,-1776.22 1439.95,-1785.88 1442.57,-1775.62 1435.6,-1776.22"/>
</g>
<!-- sat&#45;&gt;wasm -->
<g id="edge136" class="edge">
<title>sat&#45;&gt;wasm</title>
<path fill="none" stroke="black" d="M867.47,-1370.44C881.01,-1328.9 913.63,-1224.07 928.75,-1133.75 936.77,-1085.87 987.75,-345.59 998.6,-187.36"/>
<polygon fill="black" stroke="black" points="1002.07,-187.93 999.26,-177.71 995.08,-187.45 1002.07,-187.93"/>
</g>
<!-- serve&#45;&gt;core -->
<g id="edge137" class="edge">
<title>serve&#45;&gt;core</title>
<path fill="none" stroke="black" d="M200.33,-882.83C202.41,-1023.18 224.59,-1932.75 449.5,-1932.75 449.5,-1932.75 449.5,-1932.75 580.38,-1932.75 683.47,-1932.75 691.19,-2006.16 792,-2027.75 850.8,-2040.34 921.01,-2033.25 963.14,-2026.7"/>
<polygon fill="black" stroke="black" points="963.45,-2030.2 972.75,-2025.13 962.32,-2023.29 963.45,-2030.2"/>
</g>
<!-- serve&#45;&gt;forsp -->
<g id="edge138" class="edge">
<title>serve&#45;&gt;forsp</title>
<path fill="none" stroke="black" d="M225.72,-883.05C240.52,-893.36 259.63,-906.24 277.25,-916.75 316.78,-940.31 335.3,-933.4 369,-964.75 400.37,-993.92 424.18,-1037.98 437.49,-1066.55"/>
<polygon fill="black" stroke="black" points="434.14,-1067.64 441.45,-1075.31 440.52,-1064.75 434.14,-1067.64"/>
</g>
<!-- serve&#45;&gt;git -->
<g id="edge139" class="edge">
<title>serve&#45;&gt;git</title>
<path fill="none" stroke="black" d="M201.04,-846.41C204.19,-801.62 217.95,-685.09 277.25,-613.75 306.67,-578.35 336.28,-598.11 369,-565.75 393.03,-541.98 382.7,-524.16 405,-498.75 407.8,-495.55 410.98,-492.5 414.31,-489.64"/>
<polygon fill="black" stroke="black" points="416.47,-492.4 422.18,-483.47 412.15,-486.89 416.47,-492.4"/>
</g>
<!-- serve&#45;&gt;hash -->
<g id="edge140" class="edge">
<title>serve&#45;&gt;hash</title>
<path fill="none" stroke="black" d="M202.4,-846.47C208.18,-806.95 226.72,-712.4 277.25,-653.75 307.56,-618.56 331.42,-631.03 369,-603.75 386.81,-590.82 385.1,-579.14 405,-569.75 494.35,-527.56 532.26,-524.84 626.75,-553.75 710.96,-579.5 792.22,-647.15 832.71,-684.69"/>
<polygon fill="black" stroke="black" points="830.17,-687.11 839.85,-691.41 834.97,-682.01 830.17,-687.11"/>
</g>
<!-- serve&#45;&gt;init -->
<g id="edge141" class="edge">
<title>serve&#45;&gt;init</title>
<path fill="none" stroke="black" d="M208.76,-882.86C221.59,-908.76 247.4,-957.17 277.25,-992.75 312.02,-1034.2 342.12,-1025.8 369,-1072.75 411.92,-1147.71 367.79,-1185.79 405,-1263.75 473.79,-1407.87 615.52,-1540.92 677.84,-1595.1"/>
<polygon fill="black" stroke="black" points="675.43,-1597.65 685.29,-1601.53 680,-1592.35 675.43,-1597.65"/>
</g>
<!-- serve&#45;&gt;lisp -->
<g id="edge142" class="edge">
<title>serve&#45;&gt;lisp</title>
<path fill="none" stroke="black" d="M207.05,-882.98C241.66,-974 395.77,-1379.39 438.49,-1491.78"/>
<polygon fill="black" stroke="black" points="435.12,-1492.77 441.95,-1500.88 441.67,-1490.29 435.12,-1492.77"/>
</g>
<!-- serve&#45;&gt;metamath -->
<g id="edge143" class="edge">
<title>serve&#45;&gt;metamath</title>
<path fill="none" stroke="black" d="M226.53,-873C241.42,-877.65 260.36,-883.54 277.25,-888.75 317.99,-901.3 330.1,-899.29 369,-916.75 508.49,-979.33 516.76,-1050.33 662.75,-1095.75 710.59,-1110.63 768.08,-1112.08 808.51,-1110.59"/>
<polygon fill="black" stroke="black" points="808.61,-1114.09 818.44,-1110.15 808.3,-1107.1 808.61,-1114.09"/>
</g>
<!-- serve&#45;&gt;object -->
<g id="edge144" class="edge">
<title>serve&#45;&gt;object</title>
<path fill="none" stroke="black" d="M226.6,-868.82C295.14,-878.28 483.03,-897.27 626.75,-846.75 647.28,-839.53 667.03,-825.28 681.96,-812.47"/>
<polygon fill="black" stroke="black" points="683.89,-815.43 689.03,-806.17 679.24,-810.21 683.89,-815.43"/>
</g>
<!-- serve&#45;&gt;proto -->
<g id="edge145" class="edge">
<title>serve&#45;&gt;proto</title>
<path fill="none" stroke="black" d="M202.74,-846.28C211.65,-785.06 242.29,-589.8 277.25,-537.75 279.95,-533.72 283.34,-530.04 287.04,-526.72"/>
<polygon fill="black" stroke="black" points="289.15,-529.51 294.86,-520.58 284.83,-524 289.15,-529.51"/>
</g>
<!-- serve&#45;&gt;repl -->
<g id="edge146" class="edge">
<title>serve&#45;&gt;repl</title>
<path fill="none" stroke="black" d="M212.27,-846.43C233.74,-814.05 278.5,-746.54 303.76,-708.45"/>
<polygon fill="black" stroke="black" points="306.58,-710.52 309.19,-700.25 300.75,-706.65 306.58,-710.52"/>
</g>
<!-- serve&#45;&gt;shell -->
<g id="edge147" class="edge">
<title>serve&#45;&gt;shell</title>
<path fill="none" stroke="black" d="M212.62,-883.12C226.62,-902.71 250.84,-933.73 277.25,-954.75 313.26,-983.4 341.79,-965.63 369,-1002.75 422.92,-1076.29 356.42,-1127.57 405,-1204.75 407.57,-1208.82 410.86,-1212.54 414.49,-1215.88"/>
<polygon fill="black" stroke="black" points="412.2,-1218.53 422.2,-1222.03 416.57,-1213.06 412.2,-1218.53"/>
</g>
<!-- serve&#45;&gt;store -->
<g id="edge148" class="edge">
<title>serve&#45;&gt;store</title>
<path fill="none" stroke="black" d="M202.61,-846.26C210.81,-787.75 238.71,-608.05 277.25,-565.75 306.44,-533.71 337.99,-563.02 369,-532.75 400.72,-501.78 376.82,-473.96 405,-439.75 447.41,-388.25 470.71,-386.09 532,-359.75 577.98,-339.98 634.56,-327.45 671.04,-320.77"/>
<polygon fill="black" stroke="black" points="671.41,-324.25 680.65,-319.06 670.19,-317.36 671.41,-324.25"/>
</g>
<!-- sexp&#45;&gt;parse -->
<g id="edge149" class="edge">
<title>sexp&#45;&gt;parse</title>
<path fill="none" stroke="black" d="M1015.33,-1248.39C1034.69,-1220.42 1071.71,-1166.94 1094.3,-1134.3"/>
<polygon fill="black" stroke="black" points="1097.14,-1136.34 1099.96,-1126.13 1091.39,-1132.36 1097.14,-1136.34"/>
</g>
<!-- shell&#45;&gt;hol -->
<g id="edge150" class="edge">
<title>shell&#45;&gt;hol</title>
<path fill="none" stroke="black" d="M454.9,-1255.1C462.65,-1297.2 482.05,-1404.03 496,-1493.75 505,-1551.6 495.79,-1708.74 532,-1754.75 598.15,-1838.8 680.28,-1767.2 756,-1842.75 786.79,-1873.46 768.08,-1897.42 792,-1933.75 801.95,-1948.86 815.75,-1963.32 828.26,-1974.91"/>
<polygon fill="black" stroke="black" points="825.75,-1977.37 835.53,-1981.44 830.43,-1972.16 825.75,-1977.37"/>
</g>
<!-- shell&#45;&gt;kernel -->
<g id="edge151" class="edge">
<title>shell&#45;&gt;kernel</title>
<path fill="none" stroke="black" d="M477.79,-1236.75C495.42,-1236.75 518.97,-1236.75 538.85,-1236.75"/>
<polygon fill="black" stroke="black" points="538.85,-1240.25 548.85,-1236.75 538.85,-1233.25 538.85,-1240.25"/>
</g>
<!-- smt&#45;&gt;sat -->
<g id="edge152" class="edge">
<title>smt&#45;&gt;sat</title>
<path fill="none" stroke="black" d="M736.67,-1427.45C760.43,-1419.96 795.65,-1408.85 822.27,-1400.45"/>
<polygon fill="black" stroke="black" points="823.17,-1403.84 831.65,-1397.49 821.06,-1397.16 823.17,-1403.84"/>
</g>
<!-- smt&#45;&gt;sexp -->
<g id="edge153" class="edge">
<title>smt&#45;&gt;sexp</title>
<path fill="none" stroke="black" d="M726.16,-1417.49C741.47,-1400.82 766.11,-1376.59 792,-1361.75 847.27,-1330.06 871.82,-1347.34 928.75,-1318.75 943.23,-1311.47 957.94,-1301.4 970.25,-1292.05"/>
<polygon fill="black" stroke="black" points="972.23,-1294.95 977.97,-1286.04 967.93,-1289.43 972.23,-1294.95"/>
</g>
<!-- smt&#45;&gt;types -->
<g id="edge154" class="edge">
<title>smt&#45;&gt;types</title>
<path fill="none" stroke="black" d="M716.37,-1454.16C726.74,-1482.71 750.95,-1536.95 792,-1561.75 871.7,-1609.89 907.52,-1580.75 1000.62,-1580.75 1000.62,-1580.75 1000.62,-1580.75 1218.25,-1580.75 1327.56,-1580.75 1401.65,-1716.21 1429.36,-1776.92"/>
<polygon fill="black" stroke="black" points="1426.12,-1778.24 1433.38,-1785.95 1432.51,-1775.39 1426.12,-1778.24"/>
</g>
<!-- spectec&#45;&gt;grammar -->
<g id="edge155" class="edge">
<title>spectec&#45;&gt;grammar</title>
<path fill="none" stroke="black" d="M895.44,-1655.45C912.94,-1650.67 934.54,-1644.78 953.6,-1639.58"/>
<polygon fill="black" stroke="black" points="954.29,-1643.02 963.02,-1637.01 952.45,-1636.26 954.29,-1643.02"/>
</g>
<!-- store&#45;&gt;hash -->
<g id="edge156" class="edge">
<title>store&#45;&gt;hash</title>
<path fill="none" stroke="black" d="M736.68,-325.79C743.82,-329.89 750.96,-335.18 756,-341.75 837.24,-447.56 854.64,-614 858.36,-681.17"/>
<polygon fill="black" stroke="black" points="854.86,-681.19 858.84,-691.01 861.85,-680.86 854.86,-681.19"/>
</g>
<!-- store&#45;&gt;json -->
<g id="edge157" class="edge">
<title>store&#45;&gt;json</title>
<path fill="none" stroke="black" d="M729.97,-296.42C745.8,-282.32 769.14,-263.04 792,-249.75 801.44,-244.26 812.21,-239.39 822.32,-235.35"/>
<polygon fill="black" stroke="black" points="823.44,-238.67 831.54,-231.85 820.95,-232.13 823.44,-238.67"/>
</g>
<!-- store&#45;&gt;sqlite -->
<g id="edge158" class="edge">
<title>store&#45;&gt;sqlite</title>
<path fill="none" stroke="black" d="M736.67,-308.04C760.43,-301.98 795.65,-293 822.27,-286.21"/>
<polygon fill="black" stroke="black" points="822.8,-289.69 831.63,-283.82 821.07,-282.9 822.8,-289.69"/>
</g>
<!-- tcb&#45;db -->
<g id="node55" class="node">
<title>tcb&#45;db</title>
<polygon fill="none" stroke="black" points="739.5,-240.75 679.25,-240.75 679.25,-204.75 739.5,-204.75 739.5,-240.75"/>
<text text-anchor="middle" x="709.38" y="-218.45" font-family="sans-serif" font-size="14.00">tcb&#45;db</text>
</g>
<!-- tcb&#45;db&#45;&gt;json -->
<g id="edge159" class="edge">
<title>tcb&#45;db&#45;&gt;json</title>
<path fill="none" stroke="black" d="M739.81,-222.75C763.24,-222.75 796.19,-222.75 821.57,-222.75"/>
<polygon fill="black" stroke="black" points="821.48,-226.25 831.48,-222.75 821.48,-219.25 821.48,-226.25"/>
</g>
<!-- tcb&#45;db&#45;&gt;sqlite -->
<g id="edge160" class="edge">
<title>tcb&#45;db&#45;&gt;sqlite</title>
<path fill="none" stroke="black" d="M739.81,-233.41C763.45,-241.98 796.79,-254.06 822.26,-263.3"/>
<polygon fill="black" stroke="black" points="820.98,-266.55 831.57,-266.67 823.36,-259.97 820.98,-266.55"/>
</g>
<!-- wasm&#45;build&#45;guest -->
<g id="node58" class="node">
<title>wasm&#45;build&#45;guest</title>
<polygon fill="none" stroke="black" points="928.75,-110.75 792,-110.75 792,-74.75 928.75,-74.75 928.75,-110.75"/>
<text text-anchor="middle" x="860.38" y="-88.45" font-family="sans-serif" font-size="14.00">wasm&#45;build&#45;guest</text>
</g>
<!-- wasm&#45;build&#45;guest&#45;&gt;wasm -->
<g id="edge161" class="edge">
<title>wasm&#45;build&#45;guest&#45;&gt;wasm</title>
<path fill="none" stroke="black" d="M900.91,-111.2C920.72,-120.45 944.55,-131.57 963.95,-140.63"/>
<polygon fill="black" stroke="black" points="962.3,-143.72 972.85,-144.78 965.27,-137.38 962.3,-143.72"/>
</g>
<!-- wasm&#45;spec -->
<g id="node59" class="node">
<title>wasm&#45;spec</title>
<polygon fill="none" stroke="black" points="756,-386.75 662.75,-386.75 662.75,-350.75 756,-350.75 756,-386.75"/>
<text text-anchor="middle" x="709.38" y="-364.45" font-family="sans-serif" font-size="14.00">wasm&#45;spec</text>
</g>
<!-- wasm&#45;spec&#45;&gt;hash -->
<g id="edge162" class="edge">
<title>wasm&#45;spec&#45;&gt;hash</title>
<path fill="none" stroke="black" d="M747.2,-387.13C750.45,-389.72 753.46,-392.59 756,-395.75 826.48,-483.48 849.6,-620.96 856.59,-681.01"/>
<polygon fill="black" stroke="black" points="853.09,-681.21 857.66,-690.77 860.05,-680.45 853.09,-681.21"/>
</g>
<!-- wasm&#45;spec&#45;&gt;wasm -->
<g id="edge163" class="edge">
<title>wasm&#45;spec&#45;&gt;wasm</title>
<path fill="none" stroke="black" d="M756.39,-365.71C804.43,-360.32 879.49,-345.35 928.75,-303.75 964.95,-273.17 984.57,-219.99 993.79,-186.95"/>
<polygon fill="black" stroke="black" points="997.08,-188.2 996.25,-177.63 990.32,-186.41 997.08,-188.2"/>
</g>
<!-- wasm&#45;store&#45;&gt;json -->
<g id="edge164" class="edge">
<title>wasm&#45;store&#45;&gt;json</title>
<path fill="none" stroke="black" d="M613.2,-85.1C665.71,-114.46 768.22,-171.78 822.93,-202.37"/>
<polygon fill="black" stroke="black" points="821.13,-205.37 831.56,-207.2 824.54,-199.26 821.13,-205.37"/>
</g>
<!-- wasm&#45;store&#45;&gt;store -->
<g id="edge165" class="edge">
<title>wasm&#45;store&#45;&gt;store</title>
<path fill="none" stroke="black" d="M593.7,-85.2C603.76,-99.75 617.4,-120.85 626.75,-140.75 648.45,-186.92 639.85,-204.16 662.75,-249.75 669.33,-262.84 678.3,-276.26 686.55,-287.48"/>
<polygon fill="black" stroke="black" points="683.51,-289.26 692.33,-295.13 689.1,-285.04 683.51,-289.26"/>
</g>
<!-- wasm&#45;store&#45;&gt;wasm -->
<g id="edge166" class="edge">
<title>wasm&#45;store&#45;&gt;wasm</title>
<path fill="none" stroke="black" d="M627.22,-54.18C696.95,-38.13 830.36,-17.76 928.75,-65.75 955.68,-78.88 975.47,-107.52 987.39,-129.38"/>
<polygon fill="black" stroke="black" points="984.21,-130.85 991.91,-138.12 990.43,-127.63 984.21,-130.85"/>
</g>
<!-- web&#45;kernel -->
<g id="node61" class="node">
<title>web&#45;kernel</title>
<polygon fill="none" stroke="black" points="369,-1538.75 277.25,-1538.75 277.25,-1502.75 369,-1502.75 369,-1538.75"/>
<text text-anchor="middle" x="323.12" y="-1516.45" font-family="sans-serif" font-size="14.00">web&#45;kernel</text>
</g>
<!-- web&#45;kernel&#45;&gt;forsp -->
<g id="edge167" class="edge">
<title>web&#45;kernel&#45;&gt;forsp</title>
<path fill="none" stroke="black" d="M328.14,-1502.31C338.86,-1453.85 369.74,-1319.13 405,-1209.75 414.59,-1179.98 427.73,-1146.73 437.24,-1123.67"/>
<polygon fill="black" stroke="black" points="440.39,-1125.21 441.01,-1114.63 433.93,-1122.52 440.39,-1125.21"/>
</g>
<!-- web&#45;kernel&#45;&gt;haskell -->
<g id="edge168" class="edge">
<title>web&#45;kernel&#45;&gt;haskell</title>
<path fill="none" stroke="black" d="M324.74,-1539.2C327.97,-1627.59 345.18,-2007.45 405,-2106.75 406.66,-2109.5 408.65,-2112.08 410.86,-2114.49"/>
<polygon fill="black" stroke="black" points="408.21,-2116.8 417.94,-2120.99 412.94,-2111.65 408.21,-2116.8"/>
</g>
<!-- web&#45;kernel&#45;&gt;hol&#45;api -->
<g id="edge169" class="edge">
<title>web&#45;kernel&#45;&gt;hol&#45;api</title>
<path fill="none" stroke="black" d="M324.16,-1538.98C324.69,-1625.4 331.3,-1992.9 405,-2073.75 422.42,-2092.85 490.87,-2104.9 536.37,-2110.97"/>
<polygon fill="black" stroke="black" points="535.82,-2114.43 546.18,-2112.23 536.71,-2107.49 535.82,-2114.43"/>
</g>
<!-- web&#45;kernel&#45;&gt;kernel -->
<g id="edge170" class="edge">
<title>web&#45;kernel&#45;&gt;kernel</title>
<path fill="none" stroke="black" d="M340.42,-1502.55C383.9,-1453.97 502.89,-1321.06 554.25,-1263.69"/>
<polygon fill="black" stroke="black" points="556.82,-1266.07 560.88,-1256.29 551.6,-1261.4 556.82,-1266.07"/>
</g>
<!-- web&#45;kernel&#45;&gt;lisp -->
<g id="edge171" class="edge">
<title>web&#45;kernel&#45;&gt;lisp</title>
<path fill="none" stroke="black" d="M369.39,-1520.75C383.38,-1520.75 398.64,-1520.75 412.05,-1520.75"/>
<polygon fill="black" stroke="black" points="411.76,-1524.25 421.76,-1520.75 411.76,-1517.25 411.76,-1524.25"/>
</g>
</g>
</svg>
