<?xml version="1.0" encoding="UTF-8" standalone="no"?>
<!DOCTYPE svg PUBLIC "-//W3C//DTD SVG 1.1//EN"
 "http://www.w3.org/Graphics/SVG/1.1/DTD/svg11.dtd">
<!-- Generated by graphviz version 12.2.1 (0)
 -->
<!-- Title: deps Pages: 1 -->
<svg width="1478pt" height="1998pt"
 viewBox="0.00 0.00 1477.50 1998.42" xmlns="http://www.w3.org/2000/svg" xmlns:xlink="http://www.w3.org/1999/xlink">
<g id="graph0" class="graph" transform="scale(1 1) rotate(0) translate(4 1994.42)">
<title>deps</title>
<polygon fill="white" stroke="none" points="-4,4 -4,-1994.42 1473.5,-1994.42 1473.5,4 -4,4"/>
<!-- covalence -->
<g id="node1" class="node">
<title>covalence</title>
<polygon fill="none" stroke="black" points="102.62,-1398 18.38,-1398 18.38,-1362 102.62,-1362 102.62,-1398"/>
<text text-anchor="middle" x="60.5" y="-1375.7" font-family="sans-serif" font-size="14.00">covalence</text>
</g>
<!-- client -->
<g id="node5" class="node">
<title>client</title>
<polygon fill="none" stroke="black" points="349.75,-1520 295.75,-1520 295.75,-1484 349.75,-1484 349.75,-1520"/>
<text text-anchor="middle" x="322.75" y="-1497.7" font-family="sans-serif" font-size="14.00">client</text>
</g>
<!-- covalence&#45;&gt;client -->
<g id="edge1" class="edge">
<title>covalence&#45;&gt;client</title>
<path fill="none" stroke="black" d="M102.95,-1394.69C109.43,-1398.11 115.72,-1402.19 121,-1407 144.84,-1428.72 130.79,-1451.22 157,-1470 194.34,-1496.76 248.19,-1502.69 284.04,-1503.31"/>
<polygon fill="black" stroke="black" points="283.93,-1506.81 293.94,-1503.33 283.95,-1499.81 283.93,-1506.81"/>
</g>
<!-- fuse -->
<g id="node11" class="node">
<title>fuse</title>
<polygon fill="none" stroke="black" points="606.38,-1638 552.38,-1638 552.38,-1602 606.38,-1602 606.38,-1638"/>
<text text-anchor="middle" x="579.38" y="-1615.7" font-family="sans-serif" font-size="14.00">fuse</text>
</g>
<!-- covalence&#45;&gt;fuse -->
<g id="edge2" class="edge">
<title>covalence&#45;&gt;fuse</title>
<path fill="none" stroke="black" d="M102.86,-1392.14C109.83,-1395.88 116.31,-1400.73 121,-1407 190.06,-1499.37 69.97,-1588.31 157,-1664 270.69,-1762.87 349.84,-1700.59 496,-1664 512.07,-1659.98 528.44,-1652.15 542.31,-1644.21"/>
<polygon fill="black" stroke="black" points="543.84,-1647.37 550.62,-1639.23 540.24,-1641.36 543.84,-1647.37"/>
</g>
<!-- git -->
<g id="node12" class="node">
<title>git</title>
<polygon fill="none" stroke="black" points="477.12,-1352 423.12,-1352 423.12,-1316 477.12,-1316 477.12,-1352"/>
<text text-anchor="middle" x="450.12" y="-1329.7" font-family="sans-serif" font-size="14.00">git</text>
</g>
<!-- covalence&#45;&gt;git -->
<g id="edge3" class="edge">
<title>covalence&#45;&gt;git</title>
<path fill="none" stroke="black" d="M102.96,-1391.05C163.14,-1405.06 277.39,-1424.02 368.25,-1394 388.93,-1387.17 408.63,-1372.78 423.41,-1359.81"/>
<polygon fill="black" stroke="black" points="425.38,-1362.75 430.4,-1353.42 420.65,-1357.58 425.38,-1362.75"/>
</g>
<!-- hash -->
<g id="node15" class="node">
<title>hash</title>
<polygon fill="none" stroke="black" points="887.38,-1638 833.38,-1638 833.38,-1602 887.38,-1602 887.38,-1638"/>
<text text-anchor="middle" x="860.38" y="-1615.7" font-family="sans-serif" font-size="14.00">hash</text>
</g>
<!-- covalence&#45;&gt;hash -->
<g id="edge4" class="edge">
<title>covalence&#45;&gt;hash</title>
<path fill="none" stroke="black" d="M102.95,-1392.07C109.91,-1395.82 116.37,-1400.69 121,-1407 199.15,-1513.48 97.15,-1584.25 157,-1702 202.42,-1791.35 221.52,-1856 321.75,-1856 321.75,-1856 321.75,-1856 580.38,-1856 659.16,-1856 692.18,-1878.19 756,-1832 817.34,-1787.61 844,-1696.75 854.08,-1649.7"/>
<polygon fill="black" stroke="black" points="857.5,-1650.45 856.04,-1639.95 850.63,-1649.06 857.5,-1650.45"/>
</g>
<!-- hol -->
<g id="node17" class="node">
<title>hol</title>
<polygon fill="none" stroke="black" points="887.38,-346 833.38,-346 833.38,-310 887.38,-310 887.38,-346"/>
<text text-anchor="middle" x="860.38" y="-323.7" font-family="sans-serif" font-size="14.00">hol</text>
</g>
<!-- covalence&#45;&gt;hol -->
<g id="edge5" class="edge">
<title>covalence&#45;&gt;hol</title>
<path fill="none" stroke="black" d="M65.16,-1361.7C75.08,-1311.65 102.97,-1168.16 121,-1048 140.74,-916.51 105.21,-873.46 157,-751 165.51,-730.87 386.92,-458.32 404.25,-445 453.54,-407.11 473.18,-408.14 532,-388 633.69,-353.19 760.44,-337.29 822.15,-331.2"/>
<polygon fill="black" stroke="black" points="822.12,-334.71 831.74,-330.28 821.45,-327.75 822.12,-334.71"/>
</g>
<!-- lsp -->
<g id="node27" class="node">
<title>lsp</title>
<polygon fill="none" stroke="black" points="887.38,-980 833.38,-980 833.38,-944 887.38,-944 887.38,-980"/>
<text text-anchor="middle" x="860.38" y="-957.7" font-family="sans-serif" font-size="14.00">lsp</text>
</g>
<!-- covalence&#45;&gt;lsp -->
<g id="edge6" class="edge">
<title>covalence&#45;&gt;lsp</title>
<path fill="none" stroke="black" d="M62.12,-1361.87C64.85,-1303.61 79.52,-1117.65 157,-991 232.85,-867.03 268.07,-827.75 404.25,-777 498.29,-741.95 720.93,-802.64 756,-828 782.45,-847.12 772.53,-865.81 792,-892 803.56,-907.55 818.31,-923.23 831.05,-935.8"/>
<polygon fill="black" stroke="black" points="828.38,-938.09 838,-942.53 833.25,-933.06 828.38,-938.09"/>
</g>
<!-- object -->
<g id="node30" class="node">
<title>object</title>
<polygon fill="none" stroke="black" points="738,-1529 680.75,-1529 680.75,-1493 738,-1493 738,-1529"/>
<text text-anchor="middle" x="709.38" y="-1506.7" font-family="sans-serif" font-size="14.00">object</text>
</g>
<!-- covalence&#45;&gt;object -->
<g id="edge7" class="edge">
<title>covalence&#45;&gt;object</title>
<path fill="none" stroke="black" d="M103.03,-1392.81C109.81,-1396.47 116.18,-1401.12 121,-1407 165.83,-1461.7 101.62,-1518.01 157,-1562 311.54,-1684.76 572.83,-1577.82 670.25,-1530.65"/>
<polygon fill="black" stroke="black" points="671.71,-1533.83 679.14,-1526.28 668.63,-1527.55 671.71,-1533.83"/>
</g>
<!-- opentheory -->
<g id="node31" class="node">
<title>opentheory</title>
<polygon fill="none" stroke="black" points="368.25,-714 277.25,-714 277.25,-678 368.25,-678 368.25,-714"/>
<text text-anchor="middle" x="322.75" y="-691.7" font-family="sans-serif" font-size="14.00">opentheory</text>
</g>
<!-- covalence&#45;&gt;opentheory -->
<g id="edge8" class="edge">
<title>covalence&#45;&gt;opentheory</title>
<path fill="none" stroke="black" d="M64.79,-1361.7C81.41,-1269.15 155.51,-856.94 157,-854 186.17,-796.7 244.54,-748.56 283.38,-720.99"/>
<polygon fill="black" stroke="black" points="285.36,-723.88 291.57,-715.3 281.36,-718.14 285.36,-723.88"/>
</g>
<!-- proto -->
<g id="node35" class="node">
<title>proto</title>
<polygon fill="none" stroke="black" points="349.75,-1352 295.75,-1352 295.75,-1316 349.75,-1316 349.75,-1352"/>
<text text-anchor="middle" x="322.75" y="-1329.7" font-family="sans-serif" font-size="14.00">proto</text>
</g>
<!-- covalence&#45;&gt;proto -->
<g id="edge9" class="edge">
<title>covalence&#45;&gt;proto</title>
<path fill="none" stroke="black" d="M103.03,-1372.66C153.01,-1363.83 236.2,-1349.12 284.29,-1340.62"/>
<polygon fill="black" stroke="black" points="284.71,-1344.1 293.94,-1338.91 283.49,-1337.21 284.71,-1344.1"/>
</g>
<!-- repl -->
<g id="node41" class="node">
<title>repl</title>
<polygon fill="none" stroke="black" points="349.75,-1046 295.75,-1046 295.75,-1010 349.75,-1010 349.75,-1046"/>
<text text-anchor="middle" x="322.75" y="-1023.7" font-family="sans-serif" font-size="14.00">repl</text>
</g>
<!-- covalence&#45;&gt;repl -->
<g id="edge10" class="edge">
<title>covalence&#45;&gt;repl</title>
<path fill="none" stroke="black" d="M66.59,-1361.67C77.56,-1325.16 106.57,-1242.53 157,-1192 186.7,-1162.25 209.86,-1176.97 241.25,-1149 270.89,-1122.59 294.5,-1082.94 308.3,-1056.3"/>
<polygon fill="black" stroke="black" points="311.38,-1057.96 312.75,-1047.45 305.13,-1054.81 311.38,-1057.96"/>
</g>
<!-- serve -->
<g id="node43" class="node">
<title>serve</title>
<polygon fill="none" stroke="black" points="226.12,-1237 172.12,-1237 172.12,-1201 226.12,-1201 226.12,-1237"/>
<text text-anchor="middle" x="199.12" y="-1214.7" font-family="sans-serif" font-size="14.00">serve</text>
</g>
<!-- covalence&#45;&gt;serve -->
<g id="edge11" class="edge">
<title>covalence&#45;&gt;serve</title>
<path fill="none" stroke="black" d="M74.62,-1361.55C92.33,-1337.05 125.33,-1292.82 157,-1258 160.87,-1253.74 165.12,-1249.39 169.38,-1245.22"/>
<polygon fill="black" stroke="black" points="171.57,-1247.96 176.37,-1238.52 166.73,-1242.91 171.57,-1247.96"/>
</g>
<!-- shell -->
<g id="node45" class="node">
<title>shell</title>
<polygon fill="none" stroke="black" points="477.12,-870 423.12,-870 423.12,-834 477.12,-834 477.12,-870"/>
<text text-anchor="middle" x="450.12" y="-847.7" font-family="sans-serif" font-size="14.00">shell</text>
</g>
<!-- covalence&#45;&gt;shell -->
<g id="edge12" class="edge">
<title>covalence&#45;&gt;shell</title>
<path fill="none" stroke="black" d="M66.28,-1361.79C83.85,-1297.92 150.58,-1081.16 277.25,-954 324.16,-906.9 346.4,-907.74 404.25,-875 407.04,-873.42 409.94,-871.83 412.87,-870.25"/>
<polygon fill="black" stroke="black" points="414.27,-873.47 421.49,-865.72 411.01,-867.28 414.27,-873.47"/>
</g>
<!-- store -->
<g id="node49" class="node">
<title>store</title>
<polygon fill="none" stroke="black" points="736.38,-1307 682.38,-1307 682.38,-1271 736.38,-1271 736.38,-1307"/>
<text text-anchor="middle" x="709.38" y="-1284.7" font-family="sans-serif" font-size="14.00">store</text>
</g>
<!-- covalence&#45;&gt;store -->
<g id="edge13" class="edge">
<title>covalence&#45;&gt;store</title>
<path fill="none" stroke="black" d="M102.92,-1398.24C125.98,-1408.23 151.18,-1418.83 157,-1420 193.71,-1427.38 203.81,-1420.59 241.25,-1420 297.72,-1419.11 312.72,-1426.29 368.25,-1416 487.87,-1393.83 513.79,-1371.16 626.75,-1326 641.72,-1320.02 657.94,-1312.82 671.94,-1306.37"/>
<polygon fill="black" stroke="black" points="673.2,-1309.64 680.8,-1302.25 670.25,-1303.29 673.2,-1309.64"/>
</g>
<!-- wasm -->
<g id="node52" class="node">
<title>wasm</title>
<polygon fill="none" stroke="black" points="1028.75,-1175 974.5,-1175 974.5,-1139 1028.75,-1139 1028.75,-1175"/>
<text text-anchor="middle" x="1001.62" y="-1152.7" font-family="sans-serif" font-size="14.00">wasm</text>
</g>
<!-- covalence&#45;&gt;wasm -->
<g id="edge14" class="edge">
<title>covalence&#45;&gt;wasm</title>
<path fill="none" stroke="black" d="M103.08,-1391.98C110.03,-1395.73 116.45,-1400.63 121,-1407 218.08,-1542.87 73.99,-1636.1 157,-1781 201.14,-1858.04 232.96,-1894 321.75,-1894 321.75,-1894 321.75,-1894 580.38,-1894 659.8,-1894 687.83,-1901.74 756,-1861 860.92,-1798.29 879.76,-1758.99 928.75,-1647 965.44,-1563.13 990.82,-1279.76 998.32,-1186.81"/>
<polygon fill="black" stroke="black" points="1001.8,-1187.23 999.1,-1176.98 994.82,-1186.67 1001.8,-1187.23"/>
</g>
<!-- acset -->
<g id="node2" class="node">
<title>acset</title>
<polygon fill="none" stroke="black" points="887.38,-1908 833.38,-1908 833.38,-1872 887.38,-1872 887.38,-1908"/>
<text text-anchor="middle" x="860.38" y="-1885.7" font-family="sans-serif" font-size="14.00">acset</text>
</g>
<!-- alethe -->
<g id="node3" class="node">
<title>alethe</title>
<polygon fill="none" stroke="black" points="607.62,-512 551.12,-512 551.12,-476 607.62,-476 607.62,-512"/>
<text text-anchor="middle" x="579.38" y="-489.7" font-family="sans-serif" font-size="14.00">alethe</text>
</g>
<!-- core -->
<g id="node6" class="node">
<title>core</title>
<polygon fill="#ffd6d6" stroke="black" points="1028.62,-244 974.62,-244 974.62,-208 1028.62,-208 1028.62,-244"/>
<text text-anchor="middle" x="1001.62" y="-221.7" font-family="sans-serif" font-size="14.00">core</text>
</g>
<!-- alethe&#45;&gt;core -->
<g id="edge15" class="edge">
<title>alethe&#45;&gt;core</title>
<path fill="none" stroke="black" d="M608.11,-488.02C644.1,-479.42 707.98,-461.32 756,-432 774.78,-420.53 773.02,-409.14 792,-398 846.95,-365.75 879.35,-395.24 928.75,-355 960.86,-328.84 981.07,-284.32 991.61,-255.04"/>
<polygon fill="black" stroke="black" points="994.88,-256.28 994.81,-245.69 988.26,-254.02 994.88,-256.28"/>
</g>
<!-- hol&#45;eval -->
<g id="node19" class="node">
<title>hol&#45;eval</title>
<polygon fill="none" stroke="black" points="895.38,-162 825.38,-162 825.38,-126 895.38,-126 895.38,-162"/>
<text text-anchor="middle" x="860.38" y="-139.7" font-family="sans-serif" font-size="14.00">hol&#45;eval</text>
</g>
<!-- alethe&#45;&gt;hol&#45;eval -->
<g id="edge16" class="edge">
<title>alethe&#45;&gt;hol&#45;eval</title>
<path fill="none" stroke="black" d="M594.98,-475.68C641.03,-417.91 783.31,-239.42 837.82,-171.04"/>
<polygon fill="black" stroke="black" points="840.47,-173.33 843.97,-163.33 835,-168.96 840.47,-173.33"/>
</g>
<!-- init -->
<g id="node21" class="node">
<title>init</title>
<polygon fill="none" stroke="black" points="736.38,-558 682.38,-558 682.38,-522 736.38,-522 736.38,-558"/>
<text text-anchor="middle" x="709.38" y="-535.7" font-family="sans-serif" font-size="14.00">init</text>
</g>
<!-- alethe&#45;&gt;init -->
<g id="edge17" class="edge">
<title>alethe&#45;&gt;init</title>
<path fill="none" stroke="black" d="M607.83,-503.87C626.43,-510.55 651.21,-519.46 671.52,-526.75"/>
<polygon fill="black" stroke="black" points="670.25,-530.02 680.85,-530.11 672.62,-523.43 670.25,-530.02"/>
</g>
<!-- sexp -->
<g id="node44" class="node">
<title>sexp</title>
<polygon fill="none" stroke="black" points="1028.62,-896 974.62,-896 974.62,-860 1028.62,-860 1028.62,-896"/>
<text text-anchor="middle" x="1001.62" y="-873.7" font-family="sans-serif" font-size="14.00">sexp</text>
</g>
<!-- alethe&#45;&gt;sexp -->
<g id="edge18" class="edge">
<title>alethe&#45;&gt;sexp</title>
<path fill="none" stroke="black" d="M590.31,-512.18C604.67,-537.7 632.8,-585.07 662.75,-621 699.24,-664.77 725.47,-660.88 756,-709 783.56,-752.44 754.89,-783.37 792,-819 804.48,-830.98 906.62,-856.18 963.21,-869.43"/>
<polygon fill="black" stroke="black" points="962.21,-872.79 972.74,-871.65 963.8,-865.98 962.21,-872.79"/>
</g>
<!-- smt -->
<g id="node46" class="node">
<title>smt</title>
<polygon fill="none" stroke="black" points="736.38,-612 682.38,-612 682.38,-576 736.38,-576 736.38,-612"/>
<text text-anchor="middle" x="709.38" y="-589.7" font-family="sans-serif" font-size="14.00">smt</text>
</g>
<!-- alethe&#45;&gt;smt -->
<g id="edge19" class="edge">
<title>alethe&#45;&gt;smt</title>
<path fill="none" stroke="black" d="M599.13,-512.5C615.29,-527.96 639.59,-550.12 662.75,-567 665.9,-569.29 669.25,-571.56 672.65,-573.76"/>
<polygon fill="black" stroke="black" points="670.62,-576.62 680.96,-578.9 674.3,-570.66 670.62,-576.62"/>
</g>
<!-- types -->
<g id="node51" class="node">
<title>types</title>
<polygon fill="#ffd6d6" stroke="black" points="1469.5,-328 1415.5,-328 1415.5,-292 1469.5,-292 1469.5,-328"/>
<text text-anchor="middle" x="1442.5" y="-305.7" font-family="sans-serif" font-size="14.00">types</text>
</g>
<!-- alethe&#45;&gt;types -->
<g id="edge20" class="edge">
<title>alethe&#45;&gt;types</title>
<path fill="none" stroke="black" d="M607.84,-490.13C642.48,-485.14 703.83,-475.91 756,-466 865.38,-445.23 889.29,-412 1000.62,-412 1000.62,-412 1000.62,-412 1218.25,-412 1291.98,-412 1368.03,-365.41 1409.58,-335.2"/>
<polygon fill="black" stroke="black" points="1411.49,-338.15 1417.43,-329.37 1407.31,-332.52 1411.49,-338.15"/>
</g>
<!-- arrow -->
<g id="node4" class="node">
<title>arrow</title>
<polygon fill="none" stroke="black" points="606.38,-1036 552.38,-1036 552.38,-1000 606.38,-1000 606.38,-1036"/>
<text text-anchor="middle" x="579.38" y="-1013.7" font-family="sans-serif" font-size="14.00">arrow</text>
</g>
<!-- client&#45;&gt;hash -->
<g id="edge21" class="edge">
<title>client&#45;&gt;hash</title>
<path fill="none" stroke="black" d="M340.37,-1520.45C356.42,-1538.09 381.55,-1565.29 404.25,-1588 443.76,-1627.53 463.72,-1628.37 496,-1674 518.99,-1706.49 498.68,-1734.24 532,-1756 615.35,-1810.44 666.81,-1800.24 756,-1756 800.88,-1733.74 831.54,-1681.65 847.2,-1648.78"/>
<polygon fill="black" stroke="black" points="850.33,-1650.37 851.31,-1639.82 843.96,-1647.45 850.33,-1650.37"/>
</g>
<!-- client&#45;&gt;shell -->
<g id="edge22" class="edge">
<title>client&#45;&gt;shell</title>
<path fill="none" stroke="black" d="M330.96,-1483.63C341.08,-1457.04 359.25,-1406.06 368.25,-1361 403.72,-1183.35 359.49,-1130.54 404.25,-955 410.95,-928.73 423.61,-900.61 433.77,-880.41"/>
<polygon fill="black" stroke="black" points="436.8,-882.17 438.27,-871.68 430.58,-878.97 436.8,-882.17"/>
</g>
<!-- client&#45;&gt;store -->
<g id="edge23" class="edge">
<title>client&#45;&gt;store</title>
<path fill="none" stroke="black" d="M350.11,-1499.74C384.5,-1496.2 446.17,-1487.83 496,-1470 558.46,-1447.66 576.69,-1441.53 626.75,-1398 634.24,-1391.49 666.99,-1346.67 688.66,-1316.56"/>
<polygon fill="black" stroke="black" points="691.39,-1318.77 694.38,-1308.6 685.7,-1314.68 691.39,-1318.77"/>
</g>
<!-- pure -->
<g id="node36" class="node">
<title>pure</title>
<polygon fill="#ffd6d6" stroke="black" points="1244.25,-118 1190.25,-118 1190.25,-82 1244.25,-82 1244.25,-118"/>
<text text-anchor="middle" x="1217.25" y="-95.7" font-family="sans-serif" font-size="14.00">pure</text>
</g>
<!-- core&#45;&gt;pure -->
<g id="edge24" class="edge">
<title>core&#45;&gt;pure</title>
<path fill="none" stroke="black" d="M1028.82,-210.55C1066.78,-188.16 1137.21,-146.62 1180.09,-121.33"/>
<polygon fill="black" stroke="black" points="1181.7,-124.44 1188.54,-116.35 1178.15,-118.41 1181.7,-124.44"/>
</g>
<!-- pure&#45;eval -->
<g id="node37" class="node">
<title>pure&#45;eval</title>
<polygon fill="#ffd6d6" stroke="black" points="1154.25,-244 1074.5,-244 1074.5,-208 1154.25,-208 1154.25,-244"/>
<text text-anchor="middle" x="1114.38" y="-221.7" font-family="sans-serif" font-size="14.00">pure&#45;eval</text>
</g>
<!-- core&#45;&gt;pure&#45;eval -->
<g id="edge25" class="edge">
<title>core&#45;&gt;pure&#45;eval</title>
<path fill="none" stroke="black" d="M1028.87,-226C1039.15,-226 1051.3,-226 1063.13,-226"/>
<polygon fill="black" stroke="black" points="1062.79,-229.5 1072.79,-226 1062.79,-222.5 1062.79,-229.5"/>
</g>
<!-- core&#45;&gt;types -->
<g id="edge26" class="edge">
<title>core&#45;&gt;types</title>
<path fill="none" stroke="black" d="M1028.8,-237.42C1042.24,-242.87 1059,-249.05 1074.5,-253 1207.15,-286.83 1244.84,-271.35 1379.5,-296 1387.47,-297.46 1395.96,-299.23 1404.03,-301.02"/>
<polygon fill="black" stroke="black" points="1403.04,-304.38 1413.57,-303.19 1404.6,-297.56 1403.04,-304.38"/>
</g>
<!-- core&#45;test&#45;guest -->
<g id="node7" class="node">
<title>core&#45;test&#45;guest</title>
<polygon fill="none" stroke="black" points="121,-1452 0,-1452 0,-1416 121,-1416 121,-1452"/>
<text text-anchor="middle" x="60.5" y="-1429.7" font-family="sans-serif" font-size="14.00">core&#45;test&#45;guest</text>
</g>
<!-- crypto&#45;sig -->
<g id="node8" class="node">
<title>crypto&#45;sig</title>
<polygon fill="none" stroke="black" points="241.25,-426 157,-426 157,-390 241.25,-390 241.25,-426"/>
<text text-anchor="middle" x="199.12" y="-403.7" font-family="sans-serif" font-size="14.00">crypto&#45;sig</text>
</g>
<!-- egglog -->
<g id="node9" class="node">
<title>egglog</title>
<polygon fill="none" stroke="black" points="890.88,-1962 829.88,-1962 829.88,-1926 890.88,-1926 890.88,-1962"/>
<text text-anchor="middle" x="860.38" y="-1939.7" font-family="sans-serif" font-size="14.00">egglog</text>
</g>
<!-- egglog&#45;&gt;sexp -->
<g id="edge27" class="edge">
<title>egglog&#45;&gt;sexp</title>
<path fill="none" stroke="black" d="M891.15,-1939.58C904.9,-1935.92 920.07,-1929.22 928.75,-1917 979.45,-1845.64 956.57,-1217.15 964.75,-1130 972.35,-1049.05 987.55,-954.29 995.51,-907.39"/>
<polygon fill="black" stroke="black" points="998.92,-908.21 997.16,-897.76 992.02,-907.03 998.92,-908.21"/>
</g>
<!-- egglog&#45;&gt;types -->
<g id="edge28" class="edge">
<title>egglog&#45;&gt;types</title>
<path fill="none" stroke="black" d="M891.35,-1933.2C903.2,-1928.62 916.8,-1922.97 928.75,-1917 1014.61,-1874.12 1017.4,-1805 1113.38,-1805 1113.38,-1805 1113.38,-1805 1218.25,-1805 1372.15,-1805 1431.46,-549.74 1440.3,-339.66"/>
<polygon fill="black" stroke="black" points="1443.79,-340.01 1440.71,-329.88 1436.8,-339.72 1443.79,-340.01"/>
</g>
<!-- forsp -->
<g id="node10" class="node">
<title>forsp</title>
<polygon fill="none" stroke="black" points="736.38,-1253 682.38,-1253 682.38,-1217 736.38,-1217 736.38,-1253"/>
<text text-anchor="middle" x="709.38" y="-1230.7" font-family="sans-serif" font-size="14.00">forsp</text>
</g>
<!-- forsp&#45;&gt;hash -->
<g id="edge29" class="edge">
<title>forsp&#45;&gt;hash</title>
<path fill="none" stroke="black" d="M736.65,-1246.07C743.78,-1250.17 750.93,-1255.45 756,-1262 776.71,-1288.76 832.61,-1510.88 852.35,-1591.18"/>
<polygon fill="black" stroke="black" points="848.85,-1591.61 854.63,-1600.48 855.65,-1589.94 848.85,-1591.61"/>
</g>
<!-- forsp&#45;&gt;sexp -->
<g id="edge30" class="edge">
<title>forsp&#45;&gt;sexp</title>
<path fill="none" stroke="black" d="M736.66,-1220.58C752.39,-1212.34 772.97,-1202.24 792,-1195 850.96,-1172.58 884.57,-1202.02 928.75,-1157 963.72,-1121.36 987.86,-971.64 996.79,-907.44"/>
<polygon fill="black" stroke="black" points="1000.24,-908.02 998.12,-897.64 993.31,-907.08 1000.24,-908.02"/>
</g>
<!-- fuse&#45;&gt;hash -->
<g id="edge31" class="edge">
<title>fuse&#45;&gt;hash</title>
<path fill="none" stroke="black" d="M606.87,-1620C656.65,-1620 764.28,-1620 821.62,-1620"/>
<polygon fill="black" stroke="black" points="821.54,-1623.5 831.54,-1620 821.54,-1616.5 821.54,-1623.5"/>
</g>
<!-- fuse&#45;&gt;object -->
<g id="edge32" class="edge">
<title>fuse&#45;&gt;object</title>
<path fill="none" stroke="black" d="M606.4,-1603.07C613.17,-1598.39 620.36,-1593.17 626.75,-1588 646.3,-1572.18 666.89,-1552.74 682.5,-1537.35"/>
<polygon fill="black" stroke="black" points="684.93,-1539.86 689.55,-1530.33 679.99,-1534.9 684.93,-1539.86"/>
</g>
<!-- fuse&#45;&gt;store -->
<g id="edge33" class="edge">
<title>fuse&#45;&gt;store</title>
<path fill="none" stroke="black" d="M584.01,-1601.52C593.18,-1557.17 619.63,-1441.89 662.75,-1354 669.2,-1340.85 678.16,-1327.42 686.43,-1316.2"/>
<polygon fill="black" stroke="black" points="688.97,-1318.65 692.23,-1308.57 683.39,-1314.41 688.97,-1318.65"/>
</g>
<!-- git&#45;&gt;hash -->
<g id="edge34" class="edge">
<title>git&#45;&gt;hash</title>
<path fill="none" stroke="black" d="M466.05,-1352.44C476.15,-1365.91 488.91,-1385.08 496,-1404 515.16,-1455.12 490.67,-1611.34 532,-1647 614.42,-1718.11 755.93,-1668.17 822.6,-1638.16"/>
<polygon fill="black" stroke="black" points="824.02,-1641.36 831.64,-1633.99 821.09,-1635 824.02,-1641.36"/>
</g>
<!-- git&#45;&gt;object -->
<g id="edge35" class="edge">
<title>git&#45;&gt;object</title>
<path fill="none" stroke="black" d="M477.21,-1351.95C523.5,-1383.8 620.1,-1450.26 672.58,-1486.37"/>
<polygon fill="black" stroke="black" points="670.37,-1489.1 680.59,-1491.88 674.34,-1483.33 670.37,-1489.1"/>
</g>
<!-- sqlite -->
<g id="node48" class="node">
<title>sqlite</title>
<polygon fill="none" stroke="black" points="887.38,-1332 833.38,-1332 833.38,-1296 887.38,-1296 887.38,-1332"/>
<text text-anchor="middle" x="860.38" y="-1309.7" font-family="sans-serif" font-size="14.00">sqlite</text>
</g>
<!-- git&#45;&gt;sqlite -->
<g id="edge36" class="edge">
<title>git&#45;&gt;sqlite</title>
<path fill="none" stroke="black" d="M477.61,-1332.84C511.99,-1331.33 573.86,-1328.57 626.75,-1326 695.53,-1322.66 775.74,-1318.45 821.73,-1316.01"/>
<polygon fill="black" stroke="black" points="821.9,-1319.51 831.7,-1315.48 821.53,-1312.52 821.9,-1319.51"/>
</g>
<!-- git&#45;&gt;store -->
<g id="edge37" class="edge">
<title>git&#45;&gt;store</title>
<path fill="none" stroke="black" d="M477.21,-1329.44C523.05,-1321.42 618.19,-1304.78 671.01,-1295.54"/>
<polygon fill="black" stroke="black" points="671.49,-1299.01 680.73,-1293.84 670.28,-1292.11 671.49,-1299.01"/>
</g>
<!-- grammar -->
<g id="node13" class="node">
<title>grammar</title>
<polygon fill="none" stroke="black" points="1038.5,-575 964.75,-575 964.75,-539 1038.5,-539 1038.5,-575"/>
<text text-anchor="middle" x="1001.62" y="-552.7" font-family="sans-serif" font-size="14.00">grammar</text>
</g>
<!-- graph -->
<g id="node14" class="node">
<title>graph</title>
<polygon fill="none" stroke="black" points="477.12,-1184 423.12,-1184 423.12,-1148 477.12,-1148 477.12,-1184"/>
<text text-anchor="middle" x="450.12" y="-1161.7" font-family="sans-serif" font-size="14.00">graph</text>
</g>
<!-- graph&#45;&gt;hash -->
<g id="edge38" class="edge">
<title>graph&#45;&gt;hash</title>
<path fill="none" stroke="black" d="M477.43,-1177.74C516.35,-1196.5 588.75,-1237.03 626.75,-1294 664.8,-1351.04 618.55,-1391.59 662.75,-1444 691.82,-1478.48 720.46,-1456.24 756,-1484 794.47,-1514.05 826.21,-1561.68 843.96,-1591.86"/>
<polygon fill="black" stroke="black" points="840.88,-1593.51 848.89,-1600.44 846.95,-1590.02 840.88,-1593.51"/>
</g>
<!-- parse -->
<g id="node33" class="node">
<title>parse</title>
<polygon fill="none" stroke="black" points="1141.38,-980 1087.38,-980 1087.38,-944 1141.38,-944 1141.38,-980"/>
<text text-anchor="middle" x="1114.38" y="-957.7" font-family="sans-serif" font-size="14.00">parse</text>
</g>
<!-- graph&#45;&gt;parse -->
<g id="edge39" class="edge">
<title>graph&#45;&gt;parse</title>
<path fill="none" stroke="black" d="M477.53,-1155.25C484.56,-1151.16 491.45,-1145.8 496,-1139 555.92,-1049.32 450.27,-969.38 532,-899 624.66,-819.2 673.5,-958.82 792,-989 892.42,-1014.57 1015.61,-989.06 1076.16,-972.96"/>
<polygon fill="black" stroke="black" points="1076.88,-976.39 1085.61,-970.38 1075.04,-969.64 1076.88,-976.39"/>
</g>
<!-- rand -->
<g id="node40" class="node">
<title>rand</title>
<polygon fill="none" stroke="black" points="1028.62,-1638 974.62,-1638 974.62,-1602 1028.62,-1602 1028.62,-1638"/>
<text text-anchor="middle" x="1001.62" y="-1615.7" font-family="sans-serif" font-size="14.00">rand</text>
</g>
<!-- hash&#45;&gt;rand -->
<g id="edge40" class="edge">
<title>hash&#45;&gt;rand</title>
<path fill="none" stroke="black" d="M887.57,-1620C908.86,-1620 939.19,-1620 963.07,-1620"/>
<polygon fill="black" stroke="black" points="963.04,-1623.5 973.04,-1620 963.04,-1616.5 963.04,-1623.5"/>
</g>
<!-- haskell -->
<g id="node16" class="node">
<title>haskell</title>
<polygon fill="none" stroke="black" points="481.38,-182 418.88,-182 418.88,-146 481.38,-146 481.38,-182"/>
<text text-anchor="middle" x="450.12" y="-159.7" font-family="sans-serif" font-size="14.00">haskell</text>
</g>
<!-- hol&#45;api -->
<g id="node18" class="node">
<title>hol&#45;api</title>
<polygon fill="none" stroke="black" points="610.62,-208 548.12,-208 548.12,-172 610.62,-172 610.62,-208"/>
<text text-anchor="middle" x="579.38" y="-185.7" font-family="sans-serif" font-size="14.00">hol&#45;api</text>
</g>
<!-- haskell&#45;&gt;hol&#45;api -->
<g id="edge41" class="edge">
<title>haskell&#45;&gt;hol&#45;api</title>
<path fill="none" stroke="black" d="M481.6,-170.23C498.09,-173.6 518.69,-177.81 536.64,-181.47"/>
<polygon fill="black" stroke="black" points="535.72,-184.86 546.22,-183.43 537.12,-178 535.72,-184.86"/>
</g>
<!-- haskell&#45;&gt;hol&#45;eval -->
<g id="edge42" class="edge">
<title>haskell&#45;&gt;hol&#45;eval</title>
<path fill="none" stroke="black" d="M481.81,-162.5C552.93,-159.01 729.38,-150.37 813.44,-146.25"/>
<polygon fill="black" stroke="black" points="813.57,-149.75 823.39,-145.76 813.23,-142.76 813.57,-149.75"/>
</g>
<!-- haskell&#45;&gt;init -->
<g id="edge43" class="edge">
<title>haskell&#45;&gt;init</title>
<path fill="none" stroke="black" d="M452.52,-182.22C458,-248.44 480.27,-474.93 532,-521 569.6,-554.49 631.1,-552.95 670.64,-547.47"/>
<polygon fill="black" stroke="black" points="671.08,-550.95 680.42,-545.95 670,-544.03 671.08,-550.95"/>
</g>
<!-- haskell&#45;&gt;types -->
<g id="edge44" class="edge">
<title>haskell&#45;&gt;types</title>
<path fill="none" stroke="black" d="M476.9,-145.51C539.28,-102.62 704.7,0 859.38,0 859.38,0 859.38,0 1218.25,0 1296.92,0 1328.77,-12.87 1379.5,-73 1430.57,-133.54 1440.15,-231.41 1441.57,-280.27"/>
<polygon fill="black" stroke="black" points="1438.07,-280.13 1441.75,-290.07 1445.07,-280 1438.07,-280.13"/>
</g>
<!-- hol&#45;&gt;core -->
<g id="edge45" class="edge">
<title>hol&#45;&gt;core</title>
<path fill="none" stroke="black" d="M887.61,-320.4C900.63,-315.92 916.22,-309.46 928.75,-301 948.24,-287.84 966.53,-268.62 979.77,-252.94"/>
<polygon fill="black" stroke="black" points="982.36,-255.3 986,-245.35 976.95,-250.86 982.36,-255.3"/>
</g>
<!-- hol&#45;api&#45;&gt;core -->
<g id="edge46" class="edge">
<title>hol&#45;api&#45;&gt;core</title>
<path fill="none" stroke="black" d="M610.76,-191.1C671.39,-193.53 811.64,-200.22 928.75,-214 940.03,-215.33 952.25,-217.2 963.35,-219.07"/>
<polygon fill="black" stroke="black" points="962.48,-222.47 972.93,-220.74 963.68,-215.58 962.48,-222.47"/>
</g>
<!-- hol&#45;api&#45;&gt;hol&#45;eval -->
<g id="edge47" class="edge">
<title>hol&#45;api&#45;&gt;hol&#45;eval</title>
<path fill="none" stroke="black" d="M610.88,-184.76C626.41,-182.11 645.58,-178.86 662.75,-176 714.45,-167.4 773.84,-157.77 813.7,-151.34"/>
<polygon fill="black" stroke="black" points="814.1,-154.82 823.42,-149.77 812.99,-147.91 814.1,-154.82"/>
</g>
<!-- inductive -->
<g id="node20" class="node">
<title>inductive</title>
<polygon fill="none" stroke="black" points="898.75,-292 822,-292 822,-256 898.75,-256 898.75,-292"/>
<text text-anchor="middle" x="860.38" y="-269.7" font-family="sans-serif" font-size="14.00">inductive</text>
</g>
<!-- hol&#45;api&#45;&gt;inductive -->
<g id="edge48" class="edge">
<title>hol&#45;api&#45;&gt;inductive</title>
<path fill="none" stroke="black" d="M603.88,-208.45C619.66,-219.89 641.4,-233.91 662.75,-242 710.98,-260.28 769.74,-268.12 810.4,-271.48"/>
<polygon fill="black" stroke="black" points="809.88,-274.95 820.12,-272.22 810.41,-267.97 809.88,-274.95"/>
</g>
<!-- hol&#45;api&#45;&gt;init -->
<g id="edge49" class="edge">
<title>hol&#45;api&#45;&gt;init</title>
<path fill="none" stroke="black" d="M587.08,-208.32C608.03,-265.62 672.41,-441.67 697.87,-511.26"/>
<polygon fill="black" stroke="black" points="694.5,-512.25 701.22,-520.44 701.07,-509.84 694.5,-512.25"/>
</g>
<!-- hol&#45;api&#45;&gt;pure -->
<g id="edge50" class="edge">
<title>hol&#45;api&#45;&gt;pure</title>
<path fill="none" stroke="black" d="M611.05,-177.02C626.46,-170.69 645.47,-163.12 662.75,-157 719.43,-136.91 732.8,-127.56 792,-117 915.78,-94.91 948.84,-106.22 1074.5,-102 1109.69,-100.82 1149.82,-100.33 1178.37,-100.13"/>
<polygon fill="black" stroke="black" points="1178.36,-103.63 1188.34,-100.07 1178.32,-96.63 1178.36,-103.63"/>
</g>
<!-- hol&#45;api&#45;&gt;types -->
<g id="edge51" class="edge">
<title>hol&#45;api&#45;&gt;types</title>
<path fill="none" stroke="black" d="M611.12,-198.24C626.54,-202.17 645.55,-206.72 662.75,-210 780,-232.33 810.99,-227.51 928.75,-247 993.83,-257.77 1009.42,-264.26 1074.5,-275 1125.74,-283.46 1138.61,-285.48 1190.25,-291 1265.8,-299.07 1354.48,-304.94 1403.7,-307.87"/>
<polygon fill="black" stroke="black" points="1403.35,-311.36 1413.53,-308.45 1403.76,-304.37 1403.35,-311.36"/>
</g>
<!-- hol&#45;eval&#45;&gt;core -->
<g id="edge52" class="edge">
<title>hol&#45;eval&#45;&gt;core</title>
<path fill="none" stroke="black" d="M895.87,-159.05C906.59,-164.08 918.33,-169.96 928.75,-176 941.72,-183.52 955.36,-192.67 967.24,-201.07"/>
<polygon fill="black" stroke="black" points="964.94,-203.74 975.11,-206.73 969.03,-198.05 964.94,-203.74"/>
</g>
<!-- hol&#45;eval&#45;&gt;pure -->
<g id="edge53" class="edge">
<title>hol&#45;eval&#45;&gt;pure</title>
<path fill="none" stroke="black" d="M895.78,-138.3C915.86,-135.06 941.71,-131.06 964.75,-128 1040.39,-117.94 1129.15,-108.64 1178.42,-103.7"/>
<polygon fill="black" stroke="black" points="1178.66,-107.2 1188.27,-102.72 1177.97,-100.23 1178.66,-107.2"/>
</g>
<!-- hol&#45;eval&#45;&gt;pure&#45;eval -->
<g id="edge54" class="edge">
<title>hol&#45;eval&#45;&gt;pure&#45;eval</title>
<path fill="none" stroke="black" d="M895.81,-154.19C931.61,-164.9 989.2,-182.47 1038.5,-199 1046.61,-201.72 1055.17,-204.7 1063.5,-207.66"/>
<polygon fill="black" stroke="black" points="1062.22,-210.92 1072.82,-211 1064.59,-204.33 1062.22,-210.92"/>
</g>
<!-- hol&#45;eval&#45;&gt;sexp -->
<g id="edge55" class="edge">
<title>hol&#45;eval&#45;&gt;sexp</title>
<path fill="none" stroke="black" d="M877.25,-162.28C893.22,-181.81 917.11,-214.4 928.75,-247 979.39,-388.86 947.63,-434.35 964.75,-584 975.84,-680.92 990.2,-795.66 996.89,-848.57"/>
<polygon fill="black" stroke="black" points="993.39,-848.79 998.11,-858.28 1000.33,-847.91 993.39,-848.79"/>
</g>
<!-- hol&#45;eval&#45;&gt;types -->
<g id="edge56" class="edge">
<title>hol&#45;eval&#45;&gt;types</title>
<path fill="none" stroke="black" d="M895.83,-141.18C983.53,-135.67 1219.57,-131.46 1379.5,-228 1400.55,-240.7 1416.89,-263.47 1427.5,-281.8"/>
<polygon fill="black" stroke="black" points="1424.33,-283.3 1432.21,-290.37 1430.47,-279.93 1424.33,-283.3"/>
</g>
<!-- init&#45;&gt;core -->
<g id="edge57" class="edge">
<title>init&#45;&gt;core</title>
<path fill="none" stroke="black" d="M731.65,-521.63C747.82,-507.97 770.8,-489.16 792,-474 850.41,-432.24 881.76,-442.28 928.75,-388 962.94,-348.5 983.4,-290.12 993.3,-255.29"/>
<polygon fill="black" stroke="black" points="996.6,-256.47 995.86,-245.91 989.85,-254.63 996.6,-256.47"/>
</g>
<!-- init&#45;&gt;grammar -->
<g id="edge58" class="edge">
<title>init&#45;&gt;grammar</title>
<path fill="none" stroke="black" d="M736.52,-548.52C752.37,-553.23 773.13,-558.61 792,-561 846.86,-567.94 910.47,-565.18 952.9,-561.82"/>
<polygon fill="black" stroke="black" points="953.09,-565.32 962.77,-561 952.51,-558.35 953.09,-565.32"/>
</g>
<!-- init&#45;&gt;hash -->
<g id="edge59" class="edge">
<title>init&#45;&gt;hash</title>
<path fill="none" stroke="black" d="M736.71,-549.85C744.21,-553.98 751.54,-559.59 756,-567 800.37,-640.78 779.84,-1255.77 792,-1341 805.19,-1433.48 835.2,-1540.13 850.31,-1590.61"/>
<polygon fill="black" stroke="black" points="846.96,-1591.62 853.21,-1600.18 853.66,-1589.59 846.96,-1591.62"/>
</g>
<!-- init&#45;&gt;hol -->
<g id="edge60" class="edge">
<title>init&#45;&gt;hol</title>
<path fill="none" stroke="black" d="M723.34,-521.56C749.6,-484.19 809.22,-399.37 840.07,-355.47"/>
<polygon fill="black" stroke="black" points="842.79,-357.68 845.68,-347.49 837.06,-353.66 842.79,-357.68"/>
</g>
<!-- init&#45;&gt;hol&#45;eval -->
<g id="edge61" class="edge">
<title>init&#45;&gt;hol&#45;eval</title>
<path fill="none" stroke="black" d="M713.42,-521.83C721.73,-474.8 747.21,-345.84 792,-247 804.35,-219.74 823.36,-191.47 838.04,-171.46"/>
<polygon fill="black" stroke="black" points="840.77,-173.66 843.95,-163.56 835.16,-169.47 840.77,-173.66"/>
</g>
<!-- init&#45;&gt;inductive -->
<g id="edge62" class="edge">
<title>init&#45;&gt;inductive</title>
<path fill="none" stroke="black" d="M711.54,-521.81C715.3,-478.01 730.72,-365.55 792,-301 797.36,-295.35 804.06,-290.86 811.14,-287.29"/>
<polygon fill="black" stroke="black" points="812.52,-290.5 820.29,-283.3 809.72,-284.09 812.52,-290.5"/>
</g>
<!-- metamath -->
<g id="node28" class="node">
<title>metamath</title>
<polygon fill="none" stroke="black" points="900.62,-774 820.12,-774 820.12,-738 900.62,-738 900.62,-774"/>
<text text-anchor="middle" x="860.38" y="-751.7" font-family="sans-serif" font-size="14.00">metamath</text>
</g>
<!-- init&#45;&gt;metamath -->
<g id="edge63" class="edge">
<title>init&#45;&gt;metamath</title>
<path fill="none" stroke="black" d="M736.44,-550.61C743.74,-554.73 751.03,-560.15 756,-567 799.31,-626.7 744.25,-672.79 792,-729 796.82,-734.68 803.01,-739.17 809.68,-742.73"/>
<polygon fill="black" stroke="black" points="807.76,-745.7 818.31,-746.67 810.66,-739.33 807.76,-745.7"/>
</g>
<!-- init&#45;&gt;sexp -->
<g id="edge64" class="edge">
<title>init&#45;&gt;sexp</title>
<path fill="none" stroke="black" d="M736.63,-553.36C788.51,-580.21 901.48,-641.02 928.75,-675 970.79,-727.4 989.23,-806.25 996.48,-848.61"/>
<polygon fill="black" stroke="black" points="992.99,-848.96 998.04,-858.28 999.9,-847.85 992.99,-848.96"/>
</g>
<!-- spectec -->
<g id="node47" class="node">
<title>spectec</title>
<polygon fill="none" stroke="black" points="895,-552 825.75,-552 825.75,-516 895,-516 895,-552"/>
<text text-anchor="middle" x="860.38" y="-529.7" font-family="sans-serif" font-size="14.00">spectec</text>
</g>
<!-- init&#45;&gt;spectec -->
<g id="edge65" class="edge">
<title>init&#45;&gt;spectec</title>
<path fill="none" stroke="black" d="M736.67,-538.94C758.12,-538.08 788.9,-536.84 814.27,-535.82"/>
<polygon fill="black" stroke="black" points="814.13,-539.33 823.98,-535.43 813.84,-532.33 814.13,-539.33"/>
</g>
<!-- init&#45;&gt;types -->
<g id="edge66" class="edge">
<title>init&#45;&gt;types</title>
<path fill="none" stroke="black" d="M736.56,-527.12C752.26,-519.98 772.84,-511.64 792,-507 882.49,-485.09 907.52,-488 1000.62,-488 1000.62,-488 1000.62,-488 1218.25,-488 1295.03,-488 1321.95,-476.83 1379.5,-426 1406.04,-402.56 1423.17,-364.96 1432.56,-338.95"/>
<polygon fill="black" stroke="black" points="1435.81,-340.28 1435.73,-329.68 1429.18,-338.01 1435.81,-340.28"/>
</g>
<!-- json -->
<g id="node22" class="node">
<title>json</title>
<polygon fill="none" stroke="black" points="887.38,-1148 833.38,-1148 833.38,-1112 887.38,-1112 887.38,-1148"/>
<text text-anchor="middle" x="860.38" y="-1125.7" font-family="sans-serif" font-size="14.00">json</text>
</g>
<!-- kernel -->
<g id="node23" class="node">
<title>kernel</title>
<polygon fill="none" stroke="black" points="608,-1128 550.75,-1128 550.75,-1092 608,-1092 608,-1128"/>
<text text-anchor="middle" x="579.38" y="-1105.7" font-family="sans-serif" font-size="14.00">kernel</text>
</g>
<!-- kernel&#45;&gt;hash -->
<g id="edge67" class="edge">
<title>kernel&#45;&gt;hash</title>
<path fill="none" stroke="black" d="M586.68,-1128.31C596.04,-1155.83 613.91,-1209.61 626.75,-1256 645.27,-1322.91 618.79,-1354.26 662.75,-1408 691.65,-1443.32 721.9,-1420.67 756,-1451 800.6,-1490.67 832.24,-1554.22 847.99,-1591.04"/>
<polygon fill="black" stroke="black" points="844.71,-1592.27 851.79,-1600.16 851.17,-1589.58 844.71,-1592.27"/>
</g>
<!-- kernel&#45;&gt;init -->
<g id="edge68" class="edge">
<title>kernel&#45;&gt;init</title>
<path fill="none" stroke="black" d="M597.62,-1091.68C608.02,-1079.46 620.43,-1062.47 626.75,-1045 663.02,-944.84 606.55,-657.49 662.75,-567 665.32,-562.87 668.77,-559.29 672.63,-556.21"/>
<polygon fill="black" stroke="black" points="674.49,-559.18 680.91,-550.76 670.63,-553.34 674.49,-559.18"/>
</g>
<!-- kernel&#45;&gt;object -->
<g id="edge69" class="edge">
<title>kernel&#45;&gt;object</title>
<path fill="none" stroke="black" d="M585.02,-1128.27C593.42,-1161.32 611.66,-1233.25 626.75,-1294 642.97,-1359.28 636.01,-1379.28 662.75,-1441 669.17,-1455.81 678.62,-1470.97 687.27,-1483.37"/>
<polygon fill="black" stroke="black" points="684.39,-1485.37 693.07,-1491.45 690.07,-1481.28 684.39,-1485.37"/>
</g>
<!-- kernel&#45;&gt;sexp -->
<g id="edge70" class="edge">
<title>kernel&#45;&gt;sexp</title>
<path fill="none" stroke="black" d="M597.16,-1091.68C630.71,-1056.14 709.91,-977.61 792,-935 821.82,-919.52 911.9,-897.83 963.42,-886.17"/>
<polygon fill="black" stroke="black" points="963.94,-889.64 972.93,-884.04 962.4,-882.81 963.94,-889.64"/>
</g>
<!-- kernel&#45;&gt;store -->
<g id="edge71" class="edge">
<title>kernel&#45;&gt;store</title>
<path fill="none" stroke="black" d="M608.5,-1124.93C615.26,-1129.63 621.91,-1135.36 626.75,-1142 659.52,-1187.02 628.44,-1218.15 662.75,-1262 665.54,-1265.57 668.95,-1268.76 672.63,-1271.59"/>
<polygon fill="black" stroke="black" points="670.61,-1274.46 680.88,-1277.06 674.47,-1268.62 670.61,-1274.46"/>
</g>
<!-- kv -->
<g id="node24" class="node">
<title>kv</title>
<polygon fill="none" stroke="black" points="226.12,-627 172.12,-627 172.12,-591 226.12,-591 226.12,-627"/>
<text text-anchor="middle" x="199.12" y="-604.7" font-family="sans-serif" font-size="14.00">kv</text>
</g>
<!-- lean -->
<g id="node25" class="node">
<title>lean</title>
<polygon fill="none" stroke="black" points="87.5,-1506 33.5,-1506 33.5,-1470 87.5,-1470 87.5,-1506"/>
<text text-anchor="middle" x="60.5" y="-1483.7" font-family="sans-serif" font-size="14.00">lean</text>
</g>
<!-- llm -->
<g id="node26" class="node">
<title>llm</title>
<polygon fill="none" stroke="black" points="226.12,-1303 172.12,-1303 172.12,-1267 226.12,-1267 226.12,-1303"/>
<text text-anchor="middle" x="199.12" y="-1280.7" font-family="sans-serif" font-size="14.00">llm</text>
</g>
<!-- llm&#45;&gt;proto -->
<g id="edge72" class="edge">
<title>llm&#45;&gt;proto</title>
<path fill="none" stroke="black" d="M226.52,-1295.63C243.57,-1302.5 266.01,-1311.54 284.82,-1319.12"/>
<polygon fill="black" stroke="black" points="283.42,-1322.33 294.01,-1322.82 286.04,-1315.84 283.42,-1322.33"/>
</g>
<!-- lsp&#45;&gt;sexp -->
<g id="edge73" class="edge">
<title>lsp&#45;&gt;sexp</title>
<path fill="none" stroke="black" d="M887.87,-950.77C900.52,-945.07 915.72,-937.72 928.75,-930 942.27,-921.99 956.42,-912.11 968.56,-903.12"/>
<polygon fill="black" stroke="black" points="970.31,-906.18 976.2,-897.37 966.1,-900.59 970.31,-906.18"/>
</g>
<!-- lsp&#45;&gt;wasm -->
<g id="edge74" class="edge">
<title>lsp&#45;&gt;wasm</title>
<path fill="none" stroke="black" d="M887.71,-969.57C901.4,-974.62 917.56,-982.49 928.75,-994 965.65,-1031.95 985.34,-1092.01 994.33,-1127.66"/>
<polygon fill="black" stroke="black" points="990.9,-1128.36 996.63,-1137.27 997.71,-1126.73 990.9,-1128.36"/>
</g>
<!-- metamath&#45;&gt;parse -->
<g id="edge75" class="edge">
<title>metamath&#45;&gt;parse</title>
<path fill="none" stroke="black" d="M900.9,-770.31C939.39,-785.72 997.88,-813.21 1038.5,-851 1064.3,-875 1085.79,-909.49 1099.04,-933.64"/>
<polygon fill="black" stroke="black" points="1095.85,-935.1 1103.65,-942.27 1102.03,-931.8 1095.85,-935.1"/>
</g>
<!-- metamath&#45;&gt;sexp -->
<g id="edge76" class="edge">
<title>metamath&#45;&gt;sexp</title>
<path fill="none" stroke="black" d="M900.91,-771.11C910.52,-775.75 920.43,-781.4 928.75,-788 950.77,-805.45 970.27,-830.86 983.38,-850.23"/>
<polygon fill="black" stroke="black" points="980.39,-852.04 988.81,-858.47 986.23,-848.19 980.39,-852.04"/>
</g>
<!-- multiformat -->
<g id="node29" class="node">
<title>multiformat</title>
<polygon fill="none" stroke="black" points="754.5,-1958 664.25,-1958 664.25,-1922 754.5,-1922 754.5,-1958"/>
<text text-anchor="middle" x="709.38" y="-1935.7" font-family="sans-serif" font-size="14.00">multiformat</text>
</g>
<!-- multiformat&#45;&gt;acset -->
<g id="edge77" class="edge">
<title>multiformat&#45;&gt;acset</title>
<path fill="none" stroke="black" d="M754.68,-1925.13C776.25,-1917.9 801.88,-1909.29 822.39,-1902.41"/>
<polygon fill="black" stroke="black" points="823.39,-1905.77 831.76,-1899.27 821.16,-1899.13 823.39,-1905.77"/>
</g>
<!-- multiformat&#45;&gt;hash -->
<g id="edge78" class="edge">
<title>multiformat&#45;&gt;hash</title>
<path fill="none" stroke="black" d="M723.75,-1921.56C733.41,-1907.77 746.4,-1888.22 756,-1870 796.55,-1793.03 832.54,-1696.56 849.34,-1649.11"/>
<polygon fill="black" stroke="black" points="852.58,-1650.43 852.59,-1639.84 845.98,-1648.11 852.58,-1650.43"/>
</g>
<!-- multiformat&#45;&gt;parse -->
<g id="edge79" class="edge">
<title>multiformat&#45;&gt;parse</title>
<path fill="none" stroke="black" d="M744.19,-1958.32C790.36,-1980.56 873.67,-2010.5 928.75,-1971 1093.61,-1852.78 1111.26,-1145.82 1113.15,-991.67"/>
<polygon fill="black" stroke="black" points="1116.65,-991.93 1113.25,-981.9 1109.65,-991.86 1116.65,-991.93"/>
</g>
<!-- object&#45;&gt;hash -->
<g id="edge80" class="edge">
<title>object&#45;&gt;hash</title>
<path fill="none" stroke="black" d="M735.65,-1529.49C760.31,-1547.53 797.99,-1575.09 825.29,-1595.06"/>
<polygon fill="black" stroke="black" points="823.11,-1597.81 833.25,-1600.89 827.25,-1592.16 823.11,-1597.81"/>
</g>
<!-- object&#45;&gt;parse -->
<g id="edge81" class="edge">
<title>object&#45;&gt;parse</title>
<path fill="none" stroke="black" d="M738.25,-1499.44C782.97,-1479.79 871.54,-1436.15 928.75,-1377 1040.92,-1261.02 1091.73,-1065.33 1107.6,-991.44"/>
<polygon fill="black" stroke="black" points="1111.01,-992.25 1109.63,-981.74 1104.16,-990.82 1111.01,-992.25"/>
</g>
<!-- opentheory&#45;&gt;hol -->
<g id="edge82" class="edge">
<title>opentheory&#45;&gt;hol</title>
<path fill="none" stroke="black" d="M332.27,-677.6C356.21,-627.94 429.14,-490.24 532,-420 538.14,-415.81 737.41,-361.22 822,-338.17"/>
<polygon fill="black" stroke="black" points="822.72,-341.6 831.45,-335.59 820.88,-334.85 822.72,-341.6"/>
</g>
<!-- parquet -->
<g id="node32" class="node">
<title>parquet</title>
<polygon fill="none" stroke="black" points="483.62,-1000 416.62,-1000 416.62,-964 483.62,-964 483.62,-1000"/>
<text text-anchor="middle" x="450.12" y="-977.7" font-family="sans-serif" font-size="14.00">parquet</text>
</g>
<!-- parquet&#45;&gt;arrow -->
<g id="edge83" class="edge">
<title>parquet&#45;&gt;arrow</title>
<path fill="none" stroke="black" d="M483.9,-991.27C501.38,-996.22 522.96,-1002.32 541.08,-1007.45"/>
<polygon fill="black" stroke="black" points="540.09,-1010.81 550.67,-1010.16 542,-1004.07 540.09,-1010.81"/>
</g>
<!-- proptest -->
<g id="node34" class="node">
<title>proptest</title>
<polygon fill="none" stroke="black" points="95.88,-1560 25.12,-1560 25.12,-1524 95.88,-1524 95.88,-1560"/>
<text text-anchor="middle" x="60.5" y="-1537.7" font-family="sans-serif" font-size="14.00">proptest</text>
</g>
<!-- pure&#45;trusted -->
<g id="node38" class="node">
<title>pure&#45;trusted</title>
<polygon fill="#ffd6d6" stroke="black" points="1379.5,-118 1280.25,-118 1280.25,-82 1379.5,-82 1379.5,-118"/>
<text text-anchor="middle" x="1329.88" y="-95.7" font-family="sans-serif" font-size="14.00">pure&#45;trusted</text>
</g>
<!-- pure&#45;&gt;pure&#45;trusted -->
<g id="edge84" class="edge">
<title>pure&#45;&gt;pure&#45;trusted</title>
<path fill="none" stroke="black" d="M1244.75,-100C1252.04,-100 1260.27,-100 1268.64,-100"/>
<polygon fill="black" stroke="black" points="1268.57,-103.5 1278.57,-100 1268.57,-96.5 1268.57,-103.5"/>
</g>
<!-- pure&#45;eval&#45;&gt;pure -->
<g id="edge85" class="edge">
<title>pure&#45;eval&#45;&gt;pure</title>
<path fill="none" stroke="black" d="M1139.82,-207.77C1144.85,-203.51 1149.92,-198.81 1154.25,-194 1172.43,-173.8 1189.14,-147.82 1200.63,-128.29"/>
<polygon fill="black" stroke="black" points="1203.58,-130.18 1205.54,-119.77 1197.51,-126.69 1203.58,-130.18"/>
</g>
<!-- pure&#45;eval&#45;&gt;types -->
<g id="edge86" class="edge">
<title>pure&#45;eval&#45;&gt;types</title>
<path fill="none" stroke="black" d="M1154.33,-223.96C1207.5,-222.64 1304.71,-225.56 1379.5,-258 1393.29,-263.98 1406.39,-274.05 1416.96,-283.75"/>
<polygon fill="black" stroke="black" points="1414.49,-286.23 1424.12,-290.65 1419.35,-281.19 1414.49,-286.23"/>
</g>
<!-- pure&#45;trusted&#45;&gt;types -->
<g id="edge87" class="edge">
<title>pure&#45;trusted&#45;&gt;types</title>
<path fill="none" stroke="black" d="M1365.19,-118.39C1370.5,-122.35 1375.52,-126.9 1379.5,-132 1414.44,-176.84 1430.51,-242.78 1437.23,-280.54"/>
<polygon fill="black" stroke="black" points="1433.75,-280.97 1438.85,-290.26 1440.66,-279.82 1433.75,-280.97"/>
</g>
<!-- python -->
<g id="node39" class="node">
<title>python</title>
<polygon fill="none" stroke="black" points="91.38,-1039 29.62,-1039 29.62,-1003 91.38,-1003 91.38,-1039"/>
<text text-anchor="middle" x="60.5" y="-1016.7" font-family="sans-serif" font-size="14.00">python</text>
</g>
<!-- python&#45;&gt;crypto&#45;sig -->
<g id="edge88" class="edge">
<title>python&#45;&gt;crypto&#45;sig</title>
<path fill="none" stroke="black" d="M62.72,-1002.73C68.8,-915.25 98.05,-539.19 157,-440 158.14,-438.08 159.45,-436.22 160.88,-434.45"/>
<polygon fill="black" stroke="black" points="163.34,-436.94 167.78,-427.32 158.31,-432.07 163.34,-436.94"/>
</g>
<!-- python&#45;&gt;git -->
<g id="edge89" class="edge">
<title>python&#45;&gt;git</title>
<path fill="none" stroke="black" d="M62.36,-1039.32C65.67,-1089.56 81.57,-1231.11 157,-1312 222.73,-1382.49 273.12,-1376.46 368.25,-1361 383.01,-1358.6 398.71,-1353.89 412.31,-1349.07"/>
<polygon fill="black" stroke="black" points="413.13,-1352.5 421.29,-1345.75 410.7,-1345.93 413.13,-1352.5"/>
</g>
<!-- python&#45;&gt;graph -->
<g id="edge90" class="edge">
<title>python&#45;&gt;graph</title>
<path fill="none" stroke="black" d="M91.8,-1028.17C159.11,-1044.37 319.01,-1084.35 368.25,-1110 386.47,-1119.49 387.41,-1127.23 404.25,-1139 407.07,-1140.97 410.03,-1142.94 413.03,-1144.88"/>
<polygon fill="black" stroke="black" points="411.02,-1147.75 421.36,-1150.08 414.73,-1141.81 411.02,-1147.75"/>
</g>
<!-- python&#45;&gt;hash -->
<g id="edge91" class="edge">
<title>python&#45;&gt;hash</title>
<path fill="none" stroke="black" d="M64.67,-1039.33C78.52,-1118.98 134.12,-1432.75 157,-1471 269.03,-1658.29 327.06,-1712.98 532,-1788 549.41,-1794.37 743.49,-1794.03 756,-1787 808.75,-1757.34 838.05,-1688.54 851.05,-1649.12"/>
<polygon fill="black" stroke="black" points="854.32,-1650.41 853.98,-1639.82 847.64,-1648.31 854.32,-1650.41"/>
</g>
<!-- python&#45;&gt;kv -->
<g id="edge92" class="edge">
<title>python&#45;&gt;kv</title>
<path fill="none" stroke="black" d="M61.98,-1002.71C64.3,-944.84 77.85,-762.36 157,-641 158.81,-638.23 160.94,-635.6 163.26,-633.12"/>
<polygon fill="black" stroke="black" points="165.62,-635.7 170.6,-626.35 160.88,-630.56 165.62,-635.7"/>
</g>
<!-- python&#45;&gt;llm -->
<g id="edge93" class="edge">
<title>python&#45;&gt;llm</title>
<path fill="none" stroke="black" d="M66.52,-1039.48C78.01,-1079.64 108.98,-1176.8 157,-1246 160.06,-1250.42 163.69,-1254.72 167.51,-1258.77"/>
<polygon fill="black" stroke="black" points="164.82,-1261.04 174.39,-1265.58 169.75,-1256.06 164.82,-1261.04"/>
</g>
<!-- python&#45;&gt;object -->
<g id="edge94" class="edge">
<title>python&#45;&gt;object</title>
<path fill="none" stroke="black" d="M61.92,-1039.44C64.87,-1118.51 88.5,-1429.36 277.25,-1529 344.51,-1564.51 576.33,-1532.36 669.33,-1517.55"/>
<polygon fill="black" stroke="black" points="669.66,-1521.04 678.98,-1515.99 668.55,-1514.13 669.66,-1521.04"/>
</g>
<!-- python&#45;&gt;repl -->
<g id="edge95" class="edge">
<title>python&#45;&gt;repl</title>
<path fill="none" stroke="black" d="M91.86,-1021.82C139.63,-1023.1 232.22,-1025.59 284.13,-1026.99"/>
<polygon fill="black" stroke="black" points="283.88,-1030.48 293.97,-1027.25 284.07,-1023.49 283.88,-1030.48"/>
</g>
<!-- sat -->
<g id="node42" class="node">
<title>sat</title>
<polygon fill="none" stroke="black" points="887.38,-720 833.38,-720 833.38,-684 887.38,-684 887.38,-720"/>
<text text-anchor="middle" x="860.38" y="-697.7" font-family="sans-serif" font-size="14.00">sat</text>
</g>
<!-- python&#45;&gt;sat -->
<g id="edge96" class="edge">
<title>python&#45;&gt;sat</title>
<path fill="none" stroke="black" d="M62.24,-1002.7C65.89,-923.08 84.76,-608.09 157,-549 185.98,-525.29 203.81,-548.63 241.25,-549 354.49,-550.11 384.7,-533.09 496,-554 556.84,-565.43 570.19,-576.83 626.75,-602 643.28,-609.36 646.37,-613.32 662.75,-621 717.45,-646.63 782.55,-672.59 822.41,-687.98"/>
<polygon fill="black" stroke="black" points="820.95,-691.17 831.54,-691.49 823.46,-684.64 820.95,-691.17"/>
</g>
<!-- python&#45;&gt;serve -->
<g id="edge97" class="edge">
<title>python&#45;&gt;serve</title>
<path fill="none" stroke="black" d="M74.11,-1039.27C98.15,-1074.12 150.69,-1150.25 179.05,-1191.36"/>
<polygon fill="black" stroke="black" points="176.13,-1193.28 184.69,-1199.53 181.89,-1189.31 176.13,-1193.28"/>
</g>
<!-- python&#45;&gt;sexp -->
<g id="edge98" class="edge">
<title>python&#45;&gt;sexp</title>
<path fill="none" stroke="black" d="M62.54,-1002.7C67.28,-926.56 89.59,-636.32 157,-582 186.16,-558.5 204.49,-574.85 241.25,-582 483.46,-629.09 570.69,-627.07 756,-790 780.51,-811.55 764.82,-835.94 792,-854 843.57,-888.27 918.53,-887.63 963.15,-883.32"/>
<polygon fill="black" stroke="black" points="963.28,-886.83 972.84,-882.26 962.52,-879.87 963.28,-886.83"/>
</g>
<!-- python&#45;&gt;shell -->
<g id="edge99" class="edge">
<title>python&#45;&gt;shell</title>
<path fill="none" stroke="black" d="M86.38,-1002.58C125.2,-974.68 203.4,-921.82 277.25,-892 321.66,-874.07 375.92,-863.12 411.45,-857.31"/>
<polygon fill="black" stroke="black" points="411.9,-860.79 421.24,-855.77 410.82,-853.87 411.9,-860.79"/>
</g>
<!-- python&#45;&gt;store -->
<g id="edge100" class="edge">
<title>python&#45;&gt;store</title>
<path fill="none" stroke="black" d="M91.56,-1036.54C110.34,-1046.23 135.05,-1058.91 157,-1070 266.55,-1125.35 289.86,-1148.52 404.25,-1193 500.15,-1230.29 529.3,-1223.96 626.75,-1257 641.54,-1262.01 657.58,-1268.15 671.5,-1273.7"/>
<polygon fill="black" stroke="black" points="670.15,-1276.93 680.73,-1277.43 672.77,-1270.44 670.15,-1276.93"/>
</g>
<!-- python&#45;&gt;wasm -->
<g id="edge101" class="edge">
<title>python&#45;&gt;wasm</title>
<path fill="none" stroke="black" d="M65.8,-1002.89C81.41,-941.75 141.49,-742.68 277.25,-669 312.8,-649.71 329.9,-656.15 368.25,-669 592.02,-744 590.95,-865.41 792,-989 849.66,-1024.44 877.16,-1012.2 928.75,-1056 952.97,-1076.56 973.16,-1106.99 985.91,-1129.08"/>
<polygon fill="black" stroke="black" points="982.71,-1130.53 990.65,-1137.55 988.82,-1127.11 982.71,-1130.53"/>
</g>
<!-- wasm&#45;store -->
<g id="node55" class="node">
<title>wasm&#45;store</title>
<polygon fill="none" stroke="black" points="626.75,-944 532,-944 532,-908 626.75,-908 626.75,-944"/>
<text text-anchor="middle" x="579.38" y="-921.7" font-family="sans-serif" font-size="14.00">wasm&#45;store</text>
</g>
<!-- python&#45;&gt;wasm&#45;store -->
<g id="edge102" class="edge">
<title>python&#45;&gt;wasm&#45;store</title>
<path fill="none" stroke="black" d="M72.18,-1002.89C87.83,-977.82 119.25,-932.62 157,-906 251.5,-839.35 289.77,-841.34 404.25,-825 444.62,-819.24 459.16,-807.51 496,-825 512.57,-832.87 541.18,-871.26 559.94,-898.37"/>
<polygon fill="black" stroke="black" points="556.98,-900.25 565.51,-906.53 562.76,-896.3 556.98,-900.25"/>
</g>
<!-- repl&#45;&gt;arrow -->
<g id="edge103" class="edge">
<title>repl&#45;&gt;arrow</title>
<path fill="none" stroke="black" d="M350.04,-1026.97C395.42,-1025.19 488.61,-1021.53 540.82,-1019.48"/>
<polygon fill="black" stroke="black" points="540.86,-1022.98 550.72,-1019.09 540.59,-1015.98 540.86,-1022.98"/>
</g>
<!-- repl&#45;&gt;forsp -->
<g id="edge104" class="edge">
<title>repl&#45;&gt;forsp</title>
<path fill="none" stroke="black" d="M350.03,-1031.18C419.85,-1039.86 606.07,-1064.52 626.75,-1083 668.26,-1120.11 630.16,-1157.85 662.75,-1203 665.7,-1207.08 669.33,-1210.83 673.25,-1214.2"/>
<polygon fill="black" stroke="black" points="670.86,-1216.78 680.93,-1220.07 675.11,-1211.22 670.86,-1216.78"/>
</g>
<!-- repl&#45;&gt;git -->
<g id="edge105" class="edge">
<title>repl&#45;&gt;git</title>
<path fill="none" stroke="black" d="M328.38,-1046.35C338.94,-1086.84 366.83,-1186.41 404.25,-1264 411.28,-1278.57 420.75,-1293.79 429.18,-1306.31"/>
<polygon fill="black" stroke="black" points="426.24,-1308.21 434.79,-1314.46 432,-1304.24 426.24,-1308.21"/>
</g>
<!-- repl&#45;&gt;graph -->
<g id="edge106" class="edge">
<title>repl&#45;&gt;graph</title>
<path fill="none" stroke="black" d="M350.15,-1043.56C356.64,-1048.25 363.18,-1053.82 368.25,-1060 392.74,-1089.82 378.57,-1110.21 404.25,-1139 407.02,-1142.1 410.22,-1144.95 413.63,-1147.55"/>
<polygon fill="black" stroke="black" points="411.42,-1150.28 421.67,-1152.97 415.33,-1144.48 411.42,-1150.28"/>
</g>
<!-- repl&#45;&gt;hash -->
<g id="edge107" class="edge">
<title>repl&#45;&gt;hash</title>
<path fill="none" stroke="black" d="M326.89,-1046.41C335.87,-1097.35 363.62,-1244.15 404.25,-1361 436.23,-1452.99 461.43,-1468.95 496,-1560 515.61,-1611.66 488.66,-1644.73 532,-1679 610.14,-1740.79 660.47,-1715.25 756,-1687 783.49,-1678.87 810.54,-1660.88 830.07,-1645.59"/>
<polygon fill="black" stroke="black" points="832.27,-1648.31 837.85,-1639.3 827.87,-1642.87 832.27,-1648.31"/>
</g>
<!-- repl&#45;&gt;init -->
<g id="edge108" class="edge">
<title>repl&#45;&gt;init</title>
<path fill="none" stroke="black" d="M349.97,-1011.1C356.46,-1006.12 363.05,-1000.29 368.25,-994 391.05,-966.43 378.63,-946.98 404.25,-922 436.5,-890.56 462.36,-908.94 496,-879 578.42,-805.66 578.9,-767.41 626.75,-668 647.42,-625.06 632.44,-603.77 662.75,-567 665.63,-563.5 669.09,-560.36 672.8,-557.55"/>
<polygon fill="black" stroke="black" points="674.65,-560.52 681.08,-552.1 670.81,-554.67 674.65,-560.52"/>
</g>
<!-- repl&#45;&gt;object -->
<g id="edge109" class="edge">
<title>repl&#45;&gt;object</title>
<path fill="none" stroke="black" d="M329.97,-1046.42C341.33,-1078.39 367.71,-1145.31 404.25,-1193 484.05,-1297.14 551.03,-1279.86 626.75,-1387 651.85,-1422.52 636.06,-1443.66 662.75,-1478 665.44,-1481.46 668.59,-1484.72 671.95,-1487.75"/>
<polygon fill="black" stroke="black" points="669.46,-1490.24 679.44,-1493.81 673.87,-1484.8 669.46,-1490.24"/>
</g>
<!-- repl&#45;&gt;parquet -->
<g id="edge110" class="edge">
<title>repl&#45;&gt;parquet</title>
<path fill="none" stroke="black" d="M350.03,-1018.36C366.12,-1012.45 387.1,-1004.76 405.61,-997.96"/>
<polygon fill="black" stroke="black" points="406.57,-1001.34 414.75,-994.61 404.16,-994.77 406.57,-1001.34"/>
</g>
<!-- repl&#45;&gt;shell -->
<g id="edge111" class="edge">
<title>repl&#45;&gt;shell</title>
<path fill="none" stroke="black" d="M350.19,-1013.16C356.83,-1008.4 363.43,-1002.62 368.25,-996 399.02,-953.73 373.4,-926.21 404.25,-884 407.04,-880.18 410.44,-876.63 414.09,-873.41"/>
<polygon fill="black" stroke="black" points="416.03,-876.33 421.74,-867.41 411.71,-870.83 416.03,-876.33"/>
</g>
<!-- repl&#45;&gt;wasm -->
<g id="edge112" class="edge">
<title>repl&#45;&gt;wasm</title>
<path fill="none" stroke="black" d="M349.31,-1009.67C355.67,-1004.79 362.36,-999.37 368.25,-994 385.69,-978.11 382.64,-964.46 404.25,-955 450.13,-934.91 592.6,-954.36 626.75,-991 682.08,-1050.36 611.02,-1107.47 662.75,-1170 691.28,-1204.48 719.54,-1182.05 756,-1208 775.76,-1222.06 769.91,-1239 792,-1249 847.37,-1274.07 874.12,-1275.64 928.75,-1249 930.6,-1248.1 959.17,-1211.13 979.72,-1184.34"/>
<polygon fill="black" stroke="black" points="982.37,-1186.63 985.68,-1176.57 976.82,-1182.37 982.37,-1186.63"/>
</g>
<!-- sat&#45;&gt;parse -->
<g id="edge113" class="edge">
<title>sat&#45;&gt;parse</title>
<path fill="none" stroke="black" d="M887.66,-709.57C925.92,-721.87 996.92,-749.69 1038.5,-797 1073.95,-837.33 1095.42,-897.24 1105.78,-932.69"/>
<polygon fill="black" stroke="black" points="1102.4,-933.57 1108.47,-942.25 1109.13,-931.67 1102.4,-933.57"/>
</g>
<!-- sat&#45;&gt;types -->
<g id="edge114" class="edge">
<title>sat&#45;&gt;types</title>
<path fill="none" stroke="black" d="M887.86,-701.3C933.77,-700.16 1031.11,-698 1113.38,-698 1113.38,-698 1113.38,-698 1218.25,-698 1290.99,-698 1328.1,-721.47 1379.5,-670 1425.87,-623.57 1437.78,-416.98 1440.65,-339.49"/>
<polygon fill="black" stroke="black" points="1444.14,-339.83 1440.98,-329.72 1437.14,-339.6 1444.14,-339.83"/>
</g>
<!-- sat&#45;&gt;wasm -->
<g id="edge115" class="edge">
<title>sat&#45;&gt;wasm</title>
<path fill="none" stroke="black" d="M887.81,-706.16C902.05,-709.79 918.71,-716.54 928.75,-729 941.38,-744.69 983.08,-1032.9 996.45,-1127.32"/>
<polygon fill="black" stroke="black" points="992.97,-1127.67 997.83,-1137.08 999.9,-1126.69 992.97,-1127.67"/>
</g>
<!-- serve&#45;&gt;core -->
<g id="edge116" class="edge">
<title>serve&#45;&gt;core</title>
<path fill="none" stroke="black" d="M200.55,-1200.84C203.97,-1070.65 231.77,-280.51 404.25,-137 583.57,12.21 723.35,-6.41 928.75,-117 960.01,-133.83 979.92,-170.87 990.67,-197.09"/>
<polygon fill="black" stroke="black" points="987.31,-198.09 994.18,-206.16 993.84,-195.57 987.31,-198.09"/>
</g>
<!-- serve&#45;&gt;git -->
<g id="edge117" class="edge">
<title>serve&#45;&gt;git</title>
<path fill="none" stroke="black" d="M226.52,-1214.58C261.9,-1210.11 325.23,-1207.44 368.25,-1236 396.09,-1254.48 382.08,-1277 404.25,-1302 407.17,-1305.29 410.48,-1308.43 413.96,-1311.37"/>
<polygon fill="black" stroke="black" points="411.55,-1313.93 421.6,-1317.29 415.84,-1308.4 411.55,-1313.93"/>
</g>
<!-- serve&#45;&gt;hash -->
<g id="edge118" class="edge">
<title>serve&#45;&gt;hash</title>
<path fill="none" stroke="black" d="M225.06,-1237.31C239.79,-1247.67 259.07,-1260.42 277.25,-1270 315.87,-1290.36 340.2,-1273.55 368.25,-1307 417.32,-1365.51 371.27,-1406.13 404.25,-1475 432.19,-1533.35 466,-1530.69 496,-1588 522.62,-1638.84 486.38,-1677.19 532,-1712 611.15,-1772.39 663.14,-1749.91 756,-1714 790.4,-1700.7 820.41,-1670.04 839.1,-1647.33"/>
<polygon fill="black" stroke="black" points="841.73,-1649.65 845.22,-1639.65 836.25,-1645.29 841.73,-1649.65"/>
</g>
<!-- serve&#45;&gt;init -->
<g id="edge119" class="edge">
<title>serve&#45;&gt;init</title>
<path fill="none" stroke="black" d="M201.95,-1200.62C207.28,-1153.13 225.87,-1023.53 277.25,-930 375.55,-751.07 587.67,-611.41 672.37,-560.68"/>
<polygon fill="black" stroke="black" points="673.94,-563.82 680.75,-555.71 670.37,-557.8 673.94,-563.82"/>
</g>
<!-- serve&#45;&gt;metamath -->
<g id="edge120" class="edge">
<title>serve&#45;&gt;metamath</title>
<path fill="none" stroke="black" d="M201.8,-1200.67C206.65,-1155.75 223.94,-1038.02 277.25,-958 306.15,-914.62 333.96,-923.26 368.25,-884 388.46,-860.86 378.67,-842.01 404.25,-825 530.2,-741.27 718.66,-743.63 808.38,-750.55"/>
<polygon fill="black" stroke="black" points="808.09,-754.04 818.34,-751.38 808.66,-747.06 808.09,-754.04"/>
</g>
<!-- serve&#45;&gt;object -->
<g id="edge121" class="edge">
<title>serve&#45;&gt;object</title>
<path fill="none" stroke="black" d="M226.6,-1224.81C268.47,-1234.46 347.36,-1254.64 368.25,-1274 398.95,-1302.44 376.87,-1329.35 404.25,-1361 476.2,-1444.16 605.06,-1485.82 669.48,-1502.27"/>
<polygon fill="black" stroke="black" points="668.34,-1505.6 678.89,-1504.6 670.03,-1498.8 668.34,-1505.6"/>
</g>
<!-- serve&#45;&gt;proto -->
<g id="edge122" class="edge">
<title>serve&#45;&gt;proto</title>
<path fill="none" stroke="black" d="M220.28,-1237.16C227.12,-1243.57 234.69,-1250.94 241.25,-1258 258.45,-1276.51 258.84,-1284.7 277.25,-1302 280.11,-1304.69 283.2,-1307.34 286.38,-1309.9"/>
<polygon fill="black" stroke="black" points="284.16,-1312.61 294.23,-1315.89 288.41,-1307.04 284.16,-1312.61"/>
</g>
<!-- serve&#45;&gt;repl -->
<g id="edge123" class="edge">
<title>serve&#45;&gt;repl</title>
<path fill="none" stroke="black" d="M226.47,-1201.31C231.76,-1197.02 236.99,-1192.17 241.25,-1187 274.39,-1146.77 298.77,-1090.64 311.57,-1056.95"/>
<polygon fill="black" stroke="black" points="314.75,-1058.45 314.94,-1047.86 308.19,-1056.02 314.75,-1058.45"/>
</g>
<!-- serve&#45;&gt;shell -->
<g id="edge124" class="edge">
<title>serve&#45;&gt;shell</title>
<path fill="none" stroke="black" d="M212.86,-1200.76C221.9,-1187.06 233.74,-1167.55 241.25,-1149 266.67,-1086.26 234.47,-1053.47 277.25,-1001 305.52,-966.33 336.44,-989.45 368.25,-958 394.26,-932.29 380.63,-911.93 404.25,-884 407.16,-880.56 410.51,-877.31 414.05,-874.29"/>
<polygon fill="black" stroke="black" points="416.12,-877.11 421.88,-868.21 411.83,-871.58 416.12,-877.11"/>
</g>
<!-- serve&#45;&gt;store -->
<g id="edge125" class="edge">
<title>serve&#45;&gt;store</title>
<path fill="none" stroke="black" d="M226.44,-1212.55C259.88,-1205.43 319.14,-1196.41 368.25,-1208 385.66,-1212.11 387.35,-1220.14 404.25,-1226 497.42,-1258.33 612.7,-1276.62 670.93,-1284.43"/>
<polygon fill="black" stroke="black" points="670.26,-1287.87 680.63,-1285.7 671.17,-1280.93 670.26,-1287.87"/>
</g>
<!-- sexp&#45;&gt;parse -->
<g id="edge126" class="edge">
<title>sexp&#45;&gt;parse</title>
<path fill="none" stroke="black" d="M1026.93,-896.43C1042.51,-908.25 1062.94,-923.75 1080.03,-936.71"/>
<polygon fill="black" stroke="black" points="1077.84,-939.44 1087.92,-942.69 1082.07,-933.86 1077.84,-939.44"/>
</g>
<!-- shell&#45;&gt;hol -->
<g id="edge127" class="edge">
<title>shell&#45;&gt;hol</title>
<path fill="none" stroke="black" d="M454.74,-833.55C469.63,-757.76 525.68,-474.04 532,-467 601.94,-389.07 669.25,-452.64 756,-394 776.65,-380.04 771.45,-365.1 792,-351 800.98,-344.84 811.76,-340.19 822.04,-336.75"/>
<polygon fill="black" stroke="black" points="822.88,-340.15 831.44,-333.91 820.85,-333.45 822.88,-340.15"/>
</g>
<!-- shell&#45;&gt;kernel -->
<g id="edge128" class="edge">
<title>shell&#45;&gt;kernel</title>
<path fill="none" stroke="black" d="M459.24,-870.16C468.36,-890.68 483.52,-925.12 496,-955 512.61,-994.75 511.34,-1007.19 532,-1045 539.11,-1058.02 548.39,-1071.51 556.77,-1082.81"/>
<polygon fill="black" stroke="black" points="553.78,-1084.67 562.62,-1090.52 559.36,-1080.44 553.78,-1084.67"/>
</g>
<!-- smt&#45;&gt;sat -->
<g id="edge129" class="edge">
<title>smt&#45;&gt;sat</title>
<path fill="none" stroke="black" d="M736.42,-610.44C743.08,-615.12 750.04,-620.47 756,-626 774.52,-643.19 772.11,-654.42 792,-670 801.08,-677.11 812,-683.15 822.37,-687.99"/>
<polygon fill="black" stroke="black" points="820.94,-691.19 831.51,-692 823.76,-684.78 820.94,-691.19"/>
</g>
<!-- smt&#45;&gt;sexp -->
<g id="edge130" class="edge">
<title>smt&#45;&gt;sexp</title>
<path fill="none" stroke="black" d="M722.84,-612.35C732.79,-627.57 746.56,-650.03 756,-671 777.46,-718.68 754.91,-746.15 792,-783 837.19,-827.91 871.82,-797.4 928.75,-826 943.23,-833.27 957.94,-843.35 970.25,-852.69"/>
<polygon fill="black" stroke="black" points="967.93,-855.32 977.97,-858.71 972.23,-849.8 967.93,-855.32"/>
</g>
<!-- smt&#45;&gt;types -->
<g id="edge131" class="edge">
<title>smt&#45;&gt;types</title>
<path fill="none" stroke="black" d="M736.78,-603.55C787.3,-620.94 901.43,-656 1000.62,-656 1000.62,-656 1000.62,-656 1218.25,-656 1368.49,-656 1422.51,-422.81 1437.04,-339.3"/>
<polygon fill="black" stroke="black" points="1440.47,-340.05 1438.66,-329.61 1433.56,-338.9 1440.47,-340.05"/>
</g>
<!-- spectec&#45;&gt;grammar -->
<g id="edge132" class="edge">
<title>spectec&#45;&gt;grammar</title>
<path fill="none" stroke="black" d="M895.44,-539.63C912.86,-542.5 934.33,-546.05 953.33,-549.19"/>
<polygon fill="black" stroke="black" points="952.55,-552.61 962.99,-550.78 953.69,-545.7 952.55,-552.61"/>
</g>
<!-- store&#45;&gt;hash -->
<g id="edge133" class="edge">
<title>store&#45;&gt;hash</title>
<path fill="none" stroke="black" d="M725.01,-1307.28C734.65,-1319.9 747.09,-1337.35 756,-1354 799.82,-1435.9 834.9,-1540.49 850.54,-1590.63"/>
<polygon fill="black" stroke="black" points="847.18,-1591.62 853.47,-1600.15 853.87,-1589.56 847.18,-1591.62"/>
</g>
<!-- store&#45;&gt;json -->
<g id="edge134" class="edge">
<title>store&#45;&gt;json</title>
<path fill="none" stroke="black" d="M736.76,-1276.65C743.57,-1272.63 750.52,-1267.71 756,-1262 779.4,-1237.61 771.59,-1221.95 792,-1195 802.68,-1180.89 816.47,-1167.03 828.78,-1155.75"/>
<polygon fill="black" stroke="black" points="830.77,-1158.67 835.89,-1149.4 826.1,-1153.45 830.77,-1158.67"/>
</g>
<!-- store&#45;&gt;sqlite -->
<g id="edge135" class="edge">
<title>store&#45;&gt;sqlite</title>
<path fill="none" stroke="black" d="M736.67,-1293.41C760.32,-1297.38 795.33,-1303.25 821.91,-1307.71"/>
<polygon fill="black" stroke="black" points="821.16,-1311.14 831.6,-1309.34 822.32,-1304.23 821.16,-1311.14"/>
</g>
<!-- tcb&#45;db -->
<g id="node50" class="node">
<title>tcb&#45;db</title>
<polygon fill="none" stroke="black" points="739.5,-1161 679.25,-1161 679.25,-1125 739.5,-1125 739.5,-1161"/>
<text text-anchor="middle" x="709.38" y="-1138.7" font-family="sans-serif" font-size="14.00">tcb&#45;db</text>
</g>
<!-- tcb&#45;db&#45;&gt;json -->
<g id="edge136" class="edge">
<title>tcb&#45;db&#45;&gt;json</title>
<path fill="none" stroke="black" d="M739.81,-1140.43C763.24,-1138.39 796.19,-1135.51 821.57,-1133.3"/>
<polygon fill="black" stroke="black" points="821.83,-1136.79 831.49,-1132.43 821.22,-1129.82 821.83,-1136.79"/>
</g>
<!-- tcb&#45;db&#45;&gt;sqlite -->
<g id="edge137" class="edge">
<title>tcb&#45;db&#45;&gt;sqlite</title>
<path fill="none" stroke="black" d="M723.18,-1161.27C738.64,-1182.92 765.83,-1219.74 792,-1249 804.06,-1262.48 818.37,-1276.53 830.7,-1288.1"/>
<polygon fill="black" stroke="black" points="828.04,-1290.41 837.75,-1294.65 832.8,-1285.28 828.04,-1290.41"/>
</g>
<!-- wasm&#45;build&#45;guest -->
<g id="node53" class="node">
<title>wasm&#45;build&#45;guest</title>
<polygon fill="none" stroke="black" points="928.75,-1240 792,-1240 792,-1204 928.75,-1204 928.75,-1240"/>
<text text-anchor="middle" x="860.38" y="-1217.7" font-family="sans-serif" font-size="14.00">wasm&#45;build&#45;guest</text>
</g>
<!-- wasm&#45;build&#45;guest&#45;&gt;wasm -->
<g id="edge138" class="edge">
<title>wasm&#45;build&#45;guest&#45;&gt;wasm</title>
<path fill="none" stroke="black" d="M900.91,-1203.55C920.72,-1194.3 944.55,-1183.17 963.95,-1174.12"/>
<polygon fill="black" stroke="black" points="965.27,-1177.37 972.85,-1169.97 962.3,-1171.02 965.27,-1177.37"/>
</g>
<!-- wasm&#45;spec -->
<g id="node54" class="node">
<title>wasm&#45;spec</title>
<polygon fill="none" stroke="black" points="756,-1399 662.75,-1399 662.75,-1363 756,-1363 756,-1399"/>
<text text-anchor="middle" x="709.38" y="-1376.7" font-family="sans-serif" font-size="14.00">wasm&#45;spec</text>
</g>
<!-- wasm&#45;spec&#45;&gt;hash -->
<g id="edge139" class="edge">
<title>wasm&#45;spec&#45;&gt;hash</title>
<path fill="none" stroke="black" d="M741.11,-1399.36C746.47,-1403.42 751.71,-1408.02 756,-1413 803.31,-1467.92 835.29,-1548.27 850.04,-1590.91"/>
<polygon fill="black" stroke="black" points="846.67,-1591.85 853.18,-1600.2 853.3,-1589.61 846.67,-1591.85"/>
</g>
<!-- wasm&#45;spec&#45;&gt;wasm -->
<g id="edge140" class="edge">
<title>wasm&#45;spec&#45;&gt;wasm</title>
<path fill="none" stroke="black" d="M756.26,-1384.81C804.55,-1386.3 880.14,-1381.1 928.75,-1341 976.06,-1301.97 992.35,-1227.67 997.87,-1186.43"/>
<polygon fill="black" stroke="black" points="1001.31,-1187.1 999.03,-1176.75 994.36,-1186.26 1001.31,-1187.1"/>
</g>
<!-- wasm&#45;store&#45;&gt;json -->
<g id="edge141" class="edge">
<title>wasm&#45;store&#45;&gt;json</title>
<path fill="none" stroke="black" d="M613.24,-944.5C618.28,-948.44 623.04,-952.96 626.75,-958 658.52,-1001.11 624.48,-1035.53 662.75,-1073 685.37,-1095.14 771.71,-1114.07 822.14,-1123.53"/>
<polygon fill="black" stroke="black" points="821.27,-1126.93 831.74,-1125.3 822.53,-1120.05 821.27,-1126.93"/>
</g>
<!-- wasm&#45;store&#45;&gt;store -->
<g id="edge142" class="edge">
<title>wasm&#45;store&#45;&gt;store</title>
<path fill="none" stroke="black" d="M597.29,-944.44C607.54,-956.72 619.93,-973.72 626.75,-991 671.35,-1104.02 595.73,-1160.65 662.75,-1262 665.38,-1265.97 668.81,-1269.44 672.61,-1272.45"/>
<polygon fill="black" stroke="black" points="670.42,-1275.2 680.68,-1277.81 674.29,-1269.37 670.42,-1275.2"/>
</g>
<!-- wasm&#45;store&#45;&gt;wasm -->
<g id="edge143" class="edge">
<title>wasm&#45;store&#45;&gt;wasm</title>
<path fill="none" stroke="black" d="M607.47,-944.4C655.59,-976.87 754.43,-1042.56 792,-1060 849.79,-1086.82 872.08,-1073.89 928.75,-1103 943.83,-1110.75 959.06,-1121.64 971.59,-1131.62"/>
<polygon fill="black" stroke="black" points="969.07,-1134.08 979.02,-1137.71 973.5,-1128.66 969.07,-1134.08"/>
</g>
<!-- web&#45;kernel -->
<g id="node56" class="node">
<title>web&#45;kernel</title>
<polygon fill="none" stroke="black" points="496,-1130 404.25,-1130 404.25,-1094 496,-1094 496,-1130"/>
<text text-anchor="middle" x="450.12" y="-1107.7" font-family="sans-serif" font-size="14.00">web&#45;kernel</text>
</g>
<!-- web&#45;kernel&#45;&gt;kernel -->
<g id="edge144" class="edge">
<title>web&#45;kernel&#45;&gt;kernel</title>
<path fill="none" stroke="black" d="M496.35,-1111.29C510.27,-1111.07 525.48,-1110.83 538.98,-1110.62"/>
<polygon fill="black" stroke="black" points="538.87,-1114.12 548.81,-1110.46 538.76,-1107.12 538.87,-1114.12"/>
</g>
</g>
</svg>
