<?xml version="1.0" encoding="UTF-8" standalone="no"?>
<!DOCTYPE svg PUBLIC "-//W3C//DTD SVG 1.1//EN"
 "http://www.w3.org/Graphics/SVG/1.1/DTD/svg11.dtd">
<!-- Generated by graphviz version 12.2.1 (0)
 -->
<!-- Title: deps Pages: 1 -->
<svg width="1475pt" height="2191pt"
 viewBox="0.00 0.00 1474.50 2190.94" xmlns="http://www.w3.org/2000/svg" xmlns:xlink="http://www.w3.org/1999/xlink">
<g id="graph0" class="graph" transform="scale(1 1) rotate(0) translate(4 2186.94)">
<title>deps</title>
<polygon fill="white" stroke="none" points="-4,4 -4,-2186.94 1470.5,-2186.94 1470.5,4 -4,4"/>
<!-- covalence -->
<g id="node1" class="node">
<title>covalence</title>
<polygon fill="none" stroke="black" points="102.62,-1251.56 18.38,-1251.56 18.38,-1215.56 102.62,-1215.56 102.62,-1251.56"/>
<text text-anchor="middle" x="60.5" y="-1229.26" font-family="sans-serif" font-size="14.00">covalence</text>
</g>
<!-- client -->
<g id="node5" class="node">
<title>client</title>
<polygon fill="none" stroke="black" points="350.12,-1232.56 296.12,-1232.56 296.12,-1196.56 350.12,-1196.56 350.12,-1232.56"/>
<text text-anchor="middle" x="323.12" y="-1210.26" font-family="sans-serif" font-size="14.00">client</text>
</g>
<!-- covalence&#45;&gt;client -->
<g id="edge1" class="edge">
<title>covalence&#45;&gt;client</title>
<path fill="none" stroke="black" d="M103.08,-1230.53C153.03,-1226.89 236.1,-1220.83 284.31,-1217.32"/>
<polygon fill="black" stroke="black" points="284.54,-1220.81 294.26,-1216.59 284.03,-1213.83 284.54,-1220.81"/>
</g>
<!-- fuse -->
<g id="node11" class="node">
<title>fuse</title>
<polygon fill="none" stroke="black" points="603.38,-1568.56 549.38,-1568.56 549.38,-1532.56 603.38,-1532.56 603.38,-1568.56"/>
<text text-anchor="middle" x="576.38" y="-1546.26" font-family="sans-serif" font-size="14.00">fuse</text>
</g>
<!-- covalence&#45;&gt;fuse -->
<g id="edge2" class="edge">
<title>covalence&#45;&gt;fuse</title>
<path fill="none" stroke="black" d="M69.51,-1251.93C84.07,-1284.19 117.12,-1352.26 157,-1401.56 188.53,-1440.54 206.14,-1440.78 241.25,-1476.56 258.47,-1494.11 256.63,-1505.18 277.25,-1518.56 357.9,-1570.9 477.34,-1564.38 537.64,-1556.68"/>
<polygon fill="black" stroke="black" points="537.94,-1560.17 547.38,-1555.35 536.99,-1553.24 537.94,-1560.17"/>
</g>
<!-- git -->
<g id="node12" class="node">
<title>git</title>
<polygon fill="none" stroke="black" points="476,-1735.56 422,-1735.56 422,-1699.56 476,-1699.56 476,-1735.56"/>
<text text-anchor="middle" x="449" y="-1713.26" font-family="sans-serif" font-size="14.00">git</text>
</g>
<!-- covalence&#45;&gt;git -->
<g id="edge3" class="edge">
<title>covalence&#45;&gt;git</title>
<path fill="none" stroke="black" d="M62.51,-1251.95C67.19,-1329.87 89.49,-1631.49 157,-1691.56 227.48,-1754.28 349.18,-1739.58 410.45,-1726.86"/>
<polygon fill="black" stroke="black" points="411.01,-1730.32 420.03,-1724.77 409.52,-1723.48 411.01,-1730.32"/>
</g>
<!-- hash -->
<g id="node15" class="node">
<title>hash</title>
<polygon fill="none" stroke="black" points="884.38,-1522.56 830.38,-1522.56 830.38,-1486.56 884.38,-1486.56 884.38,-1522.56"/>
<text text-anchor="middle" x="857.38" y="-1500.26" font-family="sans-serif" font-size="14.00">hash</text>
</g>
<!-- covalence&#45;&gt;hash -->
<g id="edge4" class="edge">
<title>covalence&#45;&gt;hash</title>
<path fill="none" stroke="black" d="M99.35,-1215.22C212.91,-1163.16 555.03,-1028.16 753,-1187.56 842.59,-1259.7 855.38,-1410.82 856.62,-1474.86"/>
<polygon fill="black" stroke="black" points="853.12,-1474.64 856.72,-1484.6 860.12,-1474.57 853.12,-1474.64"/>
</g>
<!-- hol -->
<g id="node17" class="node">
<title>hol</title>
<polygon fill="none" stroke="black" points="884.38,-252.56 830.38,-252.56 830.38,-216.56 884.38,-216.56 884.38,-252.56"/>
<text text-anchor="middle" x="857.38" y="-230.26" font-family="sans-serif" font-size="14.00">hol</text>
</g>
<!-- covalence&#45;&gt;hol -->
<g id="edge5" class="edge">
<title>covalence&#45;&gt;hol</title>
<path fill="none" stroke="black" d="M61.56,-1215.39C62.53,-1068.19 78.13,-76.56 322.12,-76.56 322.12,-76.56 322.12,-76.56 577.38,-76.56 682.97,-76.56 785.26,-163.31 831.17,-208.25"/>
<polygon fill="black" stroke="black" points="828.45,-210.48 838,-215.06 833.39,-205.52 828.45,-210.48"/>
</g>
<!-- lsp -->
<g id="node30" class="node">
<title>lsp</title>
<polygon fill="none" stroke="black" points="884.38,-1200.56 830.38,-1200.56 830.38,-1164.56 884.38,-1164.56 884.38,-1200.56"/>
<text text-anchor="middle" x="857.38" y="-1178.26" font-family="sans-serif" font-size="14.00">lsp</text>
</g>
<!-- covalence&#45;&gt;lsp -->
<g id="edge6" class="edge">
<title>covalence&#45;&gt;lsp</title>
<path fill="none" stroke="black" d="M63.68,-1215.28C71.89,-1149.9 103.21,-929.48 157,-888.56 374.56,-723.04 570.6,-836.94 753,-1040.56 788.73,-1080.45 752.63,-1116.25 789,-1155.56 797.02,-1164.23 808.2,-1170.18 819.16,-1174.22"/>
<polygon fill="black" stroke="black" points="817.87,-1177.49 828.47,-1177.21 820.01,-1170.82 817.87,-1177.49"/>
</g>
<!-- object -->
<g id="node33" class="node">
<title>object</title>
<polygon fill="none" stroke="black" points="735,-1278.56 677.75,-1278.56 677.75,-1242.56 735,-1242.56 735,-1278.56"/>
<text text-anchor="middle" x="706.38" y="-1256.26" font-family="sans-serif" font-size="14.00">object</text>
</g>
<!-- covalence&#45;&gt;object -->
<g id="edge7" class="edge">
<title>covalence&#45;&gt;object</title>
<path fill="none" stroke="black" d="M68,-1215.1C80.34,-1182.67 110.16,-1115.34 157,-1077.56 276.48,-981.19 357.66,-925.13 493,-997.56 518.43,-1011.17 511.67,-1028.5 529,-1051.56 580.18,-1119.67 646.26,-1194.97 681.21,-1233.93"/>
<polygon fill="black" stroke="black" points="678.29,-1235.91 687.58,-1241 683.49,-1231.23 678.29,-1235.91"/>
</g>
<!-- opentheory -->
<g id="node34" class="node">
<title>opentheory</title>
<polygon fill="none" stroke="black" points="368.62,-217.56 277.62,-217.56 277.62,-181.56 368.62,-181.56 368.62,-217.56"/>
<text text-anchor="middle" x="323.12" y="-195.26" font-family="sans-serif" font-size="14.00">opentheory</text>
</g>
<!-- covalence&#45;&gt;opentheory -->
<g id="edge8" class="edge">
<title>covalence&#45;&gt;opentheory</title>
<path fill="none" stroke="black" d="M63.34,-1215.21C73.76,-1115.95 130.15,-634.53 277.25,-272.56 283.68,-256.75 293.36,-240.44 302.09,-227.27"/>
<polygon fill="black" stroke="black" points="304.91,-229.34 307.65,-219.11 299.12,-225.4 304.91,-229.34"/>
</g>
<!-- proto -->
<g id="node38" class="node">
<title>proto</title>
<polygon fill="none" stroke="black" points="350.12,-1682.56 296.12,-1682.56 296.12,-1646.56 350.12,-1646.56 350.12,-1682.56"/>
<text text-anchor="middle" x="323.12" y="-1660.26" font-family="sans-serif" font-size="14.00">proto</text>
</g>
<!-- covalence&#45;&gt;proto -->
<g id="edge9" class="edge">
<title>covalence&#45;&gt;proto</title>
<path fill="none" stroke="black" d="M66.79,-1252.04C79.16,-1293.74 112.3,-1397.69 157,-1476.56 200.16,-1552.72 214.21,-1571.83 277.25,-1632.56 280.25,-1635.45 283.53,-1638.29 286.91,-1641"/>
<polygon fill="black" stroke="black" points="284.66,-1643.69 294.74,-1646.94 288.88,-1638.11 284.66,-1643.69"/>
</g>
<!-- repl -->
<g id="node44" class="node">
<title>repl</title>
<polygon fill="none" stroke="black" points="350.12,-1430.56 296.12,-1430.56 296.12,-1394.56 350.12,-1394.56 350.12,-1430.56"/>
<text text-anchor="middle" x="323.12" y="-1408.26" font-family="sans-serif" font-size="14.00">repl</text>
</g>
<!-- covalence&#45;&gt;repl -->
<g id="edge10" class="edge">
<title>covalence&#45;&gt;repl</title>
<path fill="none" stroke="black" d="M92.72,-1251.91C129.13,-1273.63 190.76,-1311.44 241.25,-1347.56 258.48,-1359.89 276.94,-1374.61 291.87,-1386.92"/>
<polygon fill="black" stroke="black" points="289.58,-1389.56 299.51,-1393.26 294.05,-1384.18 289.58,-1389.56"/>
</g>
<!-- serve -->
<g id="node47" class="node">
<title>serve</title>
<polygon fill="none" stroke="black" points="226.12,-1392.56 172.12,-1392.56 172.12,-1356.56 226.12,-1356.56 226.12,-1392.56"/>
<text text-anchor="middle" x="199.12" y="-1370.26" font-family="sans-serif" font-size="14.00">serve</text>
</g>
<!-- covalence&#45;&gt;serve -->
<g id="edge11" class="edge">
<title>covalence&#45;&gt;serve</title>
<path fill="none" stroke="black" d="M79.36,-1252C103.09,-1276.49 145.17,-1319.91 172.34,-1347.95"/>
<polygon fill="black" stroke="black" points="169.73,-1350.29 179.21,-1355.04 174.76,-1345.42 169.73,-1350.29"/>
</g>
<!-- shell -->
<g id="node49" class="node">
<title>shell</title>
<polygon fill="none" stroke="black" points="476,-1042.56 422,-1042.56 422,-1006.56 476,-1006.56 476,-1042.56"/>
<text text-anchor="middle" x="449" y="-1020.26" font-family="sans-serif" font-size="14.00">shell</text>
</g>
<!-- covalence&#45;&gt;shell -->
<g id="edge12" class="edge">
<title>covalence&#45;&gt;shell</title>
<path fill="none" stroke="black" d="M73.28,-1215.29C89.51,-1191.42 120.87,-1149.73 157,-1124.56 237.38,-1068.58 351.91,-1041.49 410.43,-1030.62"/>
<polygon fill="black" stroke="black" points="410.98,-1034.08 420.21,-1028.87 409.75,-1027.19 410.98,-1034.08"/>
</g>
<!-- store -->
<g id="node53" class="node">
<title>store</title>
<polygon fill="none" stroke="black" points="733.38,-1758.56 679.38,-1758.56 679.38,-1722.56 733.38,-1722.56 733.38,-1758.56"/>
<text text-anchor="middle" x="706.38" y="-1736.26" font-family="sans-serif" font-size="14.00">store</text>
</g>
<!-- covalence&#45;&gt;store -->
<g id="edge13" class="edge">
<title>covalence&#45;&gt;store</title>
<path fill="none" stroke="black" d="M62.41,-1252C66.8,-1333.05 88.43,-1656.63 157,-1725.56 304.54,-1873.88 421.39,-1839.66 623.75,-1786.56 640.34,-1782.21 657.1,-1773.64 671.09,-1765.07"/>
<polygon fill="black" stroke="black" points="672.93,-1768.04 679.47,-1759.7 669.16,-1762.15 672.93,-1768.04"/>
</g>
<!-- wasm -->
<g id="node56" class="node">
<title>wasm</title>
<polygon fill="none" stroke="black" points="1025.75,-2055.56 971.5,-2055.56 971.5,-2019.56 1025.75,-2019.56 1025.75,-2055.56"/>
<text text-anchor="middle" x="998.62" y="-2033.26" font-family="sans-serif" font-size="14.00">wasm</text>
</g>
<!-- covalence&#45;&gt;wasm -->
<g id="edge14" class="edge">
<title>covalence&#45;&gt;wasm</title>
<path fill="none" stroke="black" d="M62.94,-1251.91C69.77,-1335.71 100.96,-1681.79 157,-1772.56 265.28,-1947.97 333.33,-1984.71 529,-2049.56 568.97,-2062.81 581.69,-2051.59 623.75,-2049.56 697.45,-2046 715.3,-2037.12 789,-2033.56 849.71,-2030.63 865,-2031.87 925.75,-2033.56 936.76,-2033.87 948.71,-2034.44 959.64,-2035.05"/>
<polygon fill="black" stroke="black" points="959.31,-2038.54 969.5,-2035.64 959.73,-2031.55 959.31,-2038.54"/>
</g>
<!-- acset -->
<g id="node2" class="node">
<title>acset</title>
<polygon fill="none" stroke="black" points="884.38,-1888.56 830.38,-1888.56 830.38,-1852.56 884.38,-1852.56 884.38,-1888.56"/>
<text text-anchor="middle" x="857.38" y="-1866.26" font-family="sans-serif" font-size="14.00">acset</text>
</g>
<!-- alethe -->
<g id="node3" class="node">
<title>alethe</title>
<polygon fill="none" stroke="black" points="604.62,-802.56 548.12,-802.56 548.12,-766.56 604.62,-766.56 604.62,-802.56"/>
<text text-anchor="middle" x="576.38" y="-780.26" font-family="sans-serif" font-size="14.00">alethe</text>
</g>
<!-- core -->
<g id="node6" class="node">
<title>core</title>
<polygon fill="#ffd6d6" stroke="black" points="1025.62,-355.56 971.62,-355.56 971.62,-319.56 1025.62,-319.56 1025.62,-355.56"/>
<text text-anchor="middle" x="998.62" y="-333.26" font-family="sans-serif" font-size="14.00">core</text>
</g>
<!-- alethe&#45;&gt;core -->
<g id="edge15" class="edge">
<title>alethe&#45;&gt;core</title>
<path fill="none" stroke="black" d="M583.52,-766.15C595.69,-730.75 624.72,-651.24 659.75,-589.56 671.73,-568.47 768.99,-427.28 789,-413.56 840.94,-377.97 867.29,-399.96 925.75,-376.56 937.76,-371.76 950.32,-365.43 961.53,-359.28"/>
<polygon fill="black" stroke="black" points="963.07,-362.43 970.06,-354.47 959.63,-356.33 963.07,-362.43"/>
</g>
<!-- hol&#45;eval -->
<g id="node19" class="node">
<title>hol&#45;eval</title>
<polygon fill="none" stroke="black" points="892.38,-550.56 822.38,-550.56 822.38,-514.56 892.38,-514.56 892.38,-550.56"/>
<text text-anchor="middle" x="857.38" y="-528.26" font-family="sans-serif" font-size="14.00">hol&#45;eval</text>
</g>
<!-- alethe&#45;&gt;hol&#45;eval -->
<g id="edge16" class="edge">
<title>alethe&#45;&gt;hol&#45;eval</title>
<path fill="none" stroke="black" d="M604.66,-766.38C611.01,-761.97 617.69,-757.19 623.75,-752.56 653.61,-729.76 725.79,-669.47 753,-643.56 781.79,-616.15 812.58,-582.47 832.99,-559.45"/>
<polygon fill="black" stroke="black" points="835.55,-561.83 839.54,-552.01 830.3,-557.2 835.55,-561.83"/>
</g>
<!-- init -->
<g id="node21" class="node">
<title>init</title>
<polygon fill="none" stroke="black" points="733.38,-634.56 679.38,-634.56 679.38,-598.56 733.38,-598.56 733.38,-634.56"/>
<text text-anchor="middle" x="706.38" y="-612.26" font-family="sans-serif" font-size="14.00">init</text>
</g>
<!-- alethe&#45;&gt;init -->
<g id="edge17" class="edge">
<title>alethe&#45;&gt;init</title>
<path fill="none" stroke="black" d="M605.09,-768.57C611.7,-763.95 618.38,-758.52 623.75,-752.56 646.11,-727.73 642.61,-715.25 659.75,-686.56 668.14,-672.51 678,-657.25 686.4,-644.57"/>
<polygon fill="black" stroke="black" points="689.29,-646.55 691.93,-636.29 683.47,-642.66 689.29,-646.55"/>
</g>
<!-- sexp -->
<g id="node48" class="node">
<title>sexp</title>
<polygon fill="none" stroke="black" points="1025.62,-1043.56 971.62,-1043.56 971.62,-1007.56 1025.62,-1007.56 1025.62,-1043.56"/>
<text text-anchor="middle" x="998.62" y="-1021.26" font-family="sans-serif" font-size="14.00">sexp</text>
</g>
<!-- alethe&#45;&gt;sexp -->
<g id="edge18" class="edge">
<title>alethe&#45;&gt;sexp</title>
<path fill="none" stroke="black" d="M604.93,-794.17C651.56,-810.64 742.09,-843.54 753,-854.56 784.18,-886.06 756.86,-917.04 789,-947.56 835.39,-991.63 866.19,-969.18 925.75,-992.56 937.37,-997.13 949.81,-1002.61 961.01,-1007.79"/>
<polygon fill="black" stroke="black" points="959.4,-1010.9 969.94,-1011.97 962.37,-1004.56 959.4,-1010.9"/>
</g>
<!-- smt -->
<g id="node50" class="node">
<title>smt</title>
<polygon fill="none" stroke="black" points="733.38,-802.56 679.38,-802.56 679.38,-766.56 733.38,-766.56 733.38,-802.56"/>
<text text-anchor="middle" x="706.38" y="-780.26" font-family="sans-serif" font-size="14.00">smt</text>
</g>
<!-- alethe&#45;&gt;smt -->
<g id="edge19" class="edge">
<title>alethe&#45;&gt;smt</title>
<path fill="none" stroke="black" d="M604.83,-784.56C623.26,-784.56 647.75,-784.56 667.95,-784.56"/>
<polygon fill="black" stroke="black" points="667.76,-788.06 677.76,-784.56 667.76,-781.06 667.76,-788.06"/>
</g>
<!-- types -->
<g id="node55" class="node">
<title>types</title>
<polygon fill="#ffd6d6" stroke="black" points="1466.5,-554.56 1412.5,-554.56 1412.5,-518.56 1466.5,-518.56 1466.5,-554.56"/>
<text text-anchor="middle" x="1439.5" y="-532.26" font-family="sans-serif" font-size="14.00">types</text>
</g>
<!-- alethe&#45;&gt;types -->
<g id="edge20" class="edge">
<title>alethe&#45;&gt;types</title>
<path fill="none" stroke="black" d="M604.87,-774.23C620.72,-768.61 641.14,-761.93 659.75,-757.56 807.48,-722.91 845.89,-708.56 997.62,-708.56 997.62,-708.56 997.62,-708.56 1215.25,-708.56 1308.63,-708.56 1386.86,-612.97 1420.63,-564.31"/>
<polygon fill="black" stroke="black" points="1423.4,-566.46 1426.11,-556.22 1417.6,-562.53 1423.4,-566.46"/>
</g>
<!-- arrow -->
<g id="node4" class="node">
<title>arrow</title>
<polygon fill="none" stroke="black" points="603.38,-1400.56 549.38,-1400.56 549.38,-1364.56 603.38,-1364.56 603.38,-1400.56"/>
<text text-anchor="middle" x="576.38" y="-1378.26" font-family="sans-serif" font-size="14.00">arrow</text>
</g>
<!-- client&#45;&gt;hash -->
<g id="edge21" class="edge">
<title>client&#45;&gt;hash</title>
<path fill="none" stroke="black" d="M350.49,-1206.68C422.91,-1186.76 627.76,-1142.2 753,-1233.56 832,-1291.19 850.63,-1417.32 855.02,-1474.87"/>
<polygon fill="black" stroke="black" points="851.51,-1474.81 855.66,-1484.55 858.49,-1474.34 851.51,-1474.81"/>
</g>
<!-- client&#45;&gt;shell -->
<g id="edge22" class="edge">
<title>client&#45;&gt;shell</title>
<path fill="none" stroke="black" d="M336,-1196.34C357.73,-1163.02 404,-1092.05 429.75,-1052.56"/>
<polygon fill="black" stroke="black" points="432.62,-1054.56 435.15,-1044.27 426.76,-1050.74 432.62,-1054.56"/>
</g>
<!-- client&#45;&gt;store -->
<g id="edge23" class="edge">
<title>client&#45;&gt;store</title>
<path fill="none" stroke="black" d="M343.01,-1233.01C378.01,-1268.26 453.01,-1349.09 493,-1431.56 522.16,-1491.7 495.03,-1520.01 529,-1577.56 564.54,-1637.77 629.19,-1689.03 669.57,-1717.24"/>
<polygon fill="black" stroke="black" points="667.56,-1720.11 677.78,-1722.88 671.52,-1714.34 667.56,-1720.11"/>
</g>
<!-- pure -->
<g id="node39" class="node">
<title>pure</title>
<polygon fill="#ffd6d6" stroke="black" points="1241.25,-508.56 1187.25,-508.56 1187.25,-472.56 1241.25,-472.56 1241.25,-508.56"/>
<text text-anchor="middle" x="1214.25" y="-486.26" font-family="sans-serif" font-size="14.00">pure</text>
</g>
<!-- core&#45;&gt;pure -->
<g id="edge24" class="edge">
<title>core&#45;&gt;pure</title>
<path fill="none" stroke="black" d="M1025.39,-356.02C1063.67,-383.43 1135.63,-434.97 1178.52,-465.69"/>
<polygon fill="black" stroke="black" points="1176.32,-468.42 1186.49,-471.4 1180.4,-462.73 1176.32,-468.42"/>
</g>
<!-- pure&#45;eval -->
<g id="node40" class="node">
<title>pure&#45;eval</title>
<polygon fill="#ffd6d6" stroke="black" points="1151.25,-550.56 1071.5,-550.56 1071.5,-514.56 1151.25,-514.56 1151.25,-550.56"/>
<text text-anchor="middle" x="1111.38" y="-528.26" font-family="sans-serif" font-size="14.00">pure&#45;eval</text>
</g>
<!-- core&#45;&gt;pure&#45;eval -->
<g id="edge25" class="edge">
<title>core&#45;&gt;pure&#45;eval</title>
<path fill="none" stroke="black" d="M1010.04,-355.91C1029.46,-390.1 1071.3,-463.76 1094.34,-504.33"/>
<polygon fill="black" stroke="black" points="1091.17,-505.84 1099.16,-512.81 1097.26,-502.38 1091.17,-505.84"/>
</g>
<!-- core&#45;&gt;types -->
<g id="edge26" class="edge">
<title>core&#45;&gt;types</title>
<path fill="none" stroke="black" d="M1025.84,-337.32C1091.59,-338.02 1266.1,-348.07 1376.5,-430.56 1402.3,-449.84 1419.24,-483.28 1428.79,-507.45"/>
<polygon fill="black" stroke="black" points="1425.48,-508.58 1432.25,-516.73 1432.04,-506.14 1425.48,-508.58"/>
</g>
<!-- core&#45;test&#45;guest -->
<g id="node7" class="node">
<title>core&#45;test&#45;guest</title>
<polygon fill="none" stroke="black" points="121,-1858.56 0,-1858.56 0,-1822.56 121,-1822.56 121,-1858.56"/>
<text text-anchor="middle" x="60.5" y="-1836.26" font-family="sans-serif" font-size="14.00">core&#45;test&#45;guest</text>
</g>
<!-- crypto&#45;sig -->
<g id="node8" class="node">
<title>crypto&#45;sig</title>
<polygon fill="none" stroke="black" points="241.25,-2056.56 157,-2056.56 157,-2020.56 241.25,-2020.56 241.25,-2056.56"/>
<text text-anchor="middle" x="199.12" y="-2034.26" font-family="sans-serif" font-size="14.00">crypto&#45;sig</text>
</g>
<!-- egglog -->
<g id="node9" class="node">
<title>egglog</title>
<polygon fill="none" stroke="black" points="887.88,-810.56 826.88,-810.56 826.88,-774.56 887.88,-774.56 887.88,-810.56"/>
<text text-anchor="middle" x="857.38" y="-788.26" font-family="sans-serif" font-size="14.00">egglog</text>
</g>
<!-- egglog&#45;&gt;sexp -->
<g id="edge27" class="edge">
<title>egglog&#45;&gt;sexp</title>
<path fill="none" stroke="black" d="M888.08,-800.94C901.15,-805.94 915.76,-813.52 925.75,-824.56 970.42,-873.94 987.8,-953.03 994.18,-995.79"/>
<polygon fill="black" stroke="black" points="990.7,-996.15 995.53,-1005.58 997.63,-995.2 990.7,-996.15"/>
</g>
<!-- egglog&#45;&gt;types -->
<g id="edge28" class="edge">
<title>egglog&#45;&gt;types</title>
<path fill="none" stroke="black" d="M888.24,-791.78C935.42,-790.62 1030.08,-788.56 1110.38,-788.56 1110.38,-788.56 1110.38,-788.56 1215.25,-788.56 1287.99,-788.56 1322.61,-809.41 1376.5,-760.56 1405.27,-734.49 1425.82,-621.03 1434.25,-566.3"/>
<polygon fill="black" stroke="black" points="1437.71,-566.86 1435.73,-556.45 1430.79,-565.82 1437.71,-566.86"/>
</g>
<!-- forsp -->
<g id="node10" class="node">
<title>forsp</title>
<polygon fill="none" stroke="black" points="733.38,-1354.56 679.38,-1354.56 679.38,-1318.56 733.38,-1318.56 733.38,-1354.56"/>
<text text-anchor="middle" x="706.38" y="-1332.26" font-family="sans-serif" font-size="14.00">forsp</text>
</g>
<!-- forsp&#45;&gt;hash -->
<g id="edge29" class="edge">
<title>forsp&#45;&gt;hash</title>
<path fill="none" stroke="black" d="M723.6,-1354.86C749.91,-1384.53 802,-1443.26 832.53,-1477.68"/>
<polygon fill="black" stroke="black" points="829.91,-1479.99 839.16,-1485.15 835.14,-1475.35 829.91,-1479.99"/>
</g>
<!-- forsp&#45;&gt;sexp -->
<g id="edge30" class="edge">
<title>forsp&#45;&gt;sexp</title>
<path fill="none" stroke="black" d="M733.7,-1327.83C778.99,-1311.53 871.97,-1272.35 925.75,-1209.56 964.97,-1163.77 984.22,-1094.09 992.43,-1054.93"/>
<polygon fill="black" stroke="black" points="995.83,-1055.79 994.34,-1045.31 988.96,-1054.43 995.83,-1055.79"/>
</g>
<!-- fuse&#45;&gt;hash -->
<g id="edge31" class="edge">
<title>fuse&#45;&gt;hash</title>
<path fill="none" stroke="black" d="M603.87,-1546.19C653.76,-1537.97 761.73,-1520.17 818.98,-1510.73"/>
<polygon fill="black" stroke="black" points="819.26,-1514.23 828.56,-1509.15 818.12,-1507.32 819.26,-1514.23"/>
</g>
<!-- fuse&#45;&gt;object -->
<g id="edge32" class="edge">
<title>fuse&#45;&gt;object</title>
<path fill="none" stroke="black" d="M586.23,-1532.15C596.23,-1510.9 612.55,-1474.75 623.75,-1442.56 643.88,-1384.73 630.01,-1363.1 659.75,-1309.56 664.19,-1301.56 670.22,-1293.84 676.44,-1287"/>
<polygon fill="black" stroke="black" points="678.84,-1289.55 683.26,-1279.92 673.8,-1284.69 678.84,-1289.55"/>
</g>
<!-- fuse&#45;&gt;store -->
<g id="edge33" class="edge">
<title>fuse&#45;&gt;store</title>
<path fill="none" stroke="black" d="M589.65,-1568.78C612.15,-1602.17 660.11,-1673.37 686.68,-1712.82"/>
<polygon fill="black" stroke="black" points="683.62,-1714.53 692.11,-1720.87 689.42,-1710.62 683.62,-1714.53"/>
</g>
<!-- git&#45;&gt;hash -->
<g id="edge34" class="edge">
<title>git&#45;&gt;hash</title>
<path fill="none" stroke="black" d="M476.14,-1706.49C529.37,-1683.62 653.73,-1628.63 753,-1572.56 776.36,-1559.37 801.53,-1542.86 821.19,-1529.42"/>
<polygon fill="black" stroke="black" points="823.16,-1532.31 829.4,-1523.75 819.18,-1526.55 823.16,-1532.31"/>
</g>
<!-- git&#45;&gt;object -->
<g id="edge35" class="edge">
<title>git&#45;&gt;object</title>
<path fill="none" stroke="black" d="M469.93,-1699.16C478.16,-1690.58 487.13,-1679.8 493,-1668.56 523.77,-1609.72 499.02,-1582.81 529,-1523.56 558.74,-1464.78 591.04,-1466.75 623.75,-1409.56 647.2,-1368.56 635.15,-1349.89 659.75,-1309.56 664.6,-1301.61 670.89,-1293.83 677.23,-1286.9"/>
<polygon fill="black" stroke="black" points="679.74,-1289.35 684.15,-1279.71 674.7,-1284.49 679.74,-1289.35"/>
</g>
<!-- sqlite -->
<g id="node52" class="node">
<title>sqlite</title>
<polygon fill="none" stroke="black" points="884.38,-1796.56 830.38,-1796.56 830.38,-1760.56 884.38,-1760.56 884.38,-1796.56"/>
<text text-anchor="middle" x="857.38" y="-1774.26" font-family="sans-serif" font-size="14.00">sqlite</text>
</g>
<!-- git&#45;&gt;sqlite -->
<g id="edge36" class="edge">
<title>git&#45;&gt;sqlite</title>
<path fill="none" stroke="black" d="M476.43,-1727.26C491.65,-1732.6 511.23,-1739.03 529,-1743.56 586.25,-1758.16 601.08,-1760.57 659.75,-1767.56 714.67,-1774.11 778.69,-1776.78 818.39,-1777.85"/>
<polygon fill="black" stroke="black" points="818.29,-1781.35 828.37,-1778.1 818.46,-1774.35 818.29,-1781.35"/>
</g>
<!-- git&#45;&gt;store -->
<g id="edge37" class="edge">
<title>git&#45;&gt;store</title>
<path fill="none" stroke="black" d="M476.37,-1719.94C521.89,-1724.04 615.35,-1732.45 667.71,-1737.17"/>
<polygon fill="black" stroke="black" points="667.37,-1740.65 677.64,-1738.06 668,-1733.68 667.37,-1740.65"/>
</g>
<!-- grammar -->
<g id="node13" class="node">
<title>grammar</title>
<polygon fill="none" stroke="black" points="1035.5,-661.56 961.75,-661.56 961.75,-625.56 1035.5,-625.56 1035.5,-661.56"/>
<text text-anchor="middle" x="998.62" y="-639.26" font-family="sans-serif" font-size="14.00">grammar</text>
</g>
<!-- graph -->
<g id="node14" class="node">
<title>graph</title>
<polygon fill="none" stroke="black" points="476,-1659.56 422,-1659.56 422,-1623.56 476,-1623.56 476,-1659.56"/>
<text text-anchor="middle" x="449" y="-1637.26" font-family="sans-serif" font-size="14.00">graph</text>
</g>
<!-- graph&#45;&gt;hash -->
<g id="edge38" class="edge">
<title>graph&#45;&gt;hash</title>
<path fill="none" stroke="black" d="M476.49,-1633.46C529.33,-1617.21 651.51,-1579.1 753,-1543.56 775.2,-1535.79 799.85,-1526.52 819.51,-1518.96"/>
<polygon fill="black" stroke="black" points="820.68,-1522.26 828.75,-1515.4 818.16,-1515.73 820.68,-1522.26"/>
</g>
<!-- parse -->
<g id="node36" class="node">
<title>parse</title>
<polygon fill="none" stroke="black" points="1138.38,-1222.56 1084.38,-1222.56 1084.38,-1186.56 1138.38,-1186.56 1138.38,-1222.56"/>
<text text-anchor="middle" x="1111.38" y="-1200.26" font-family="sans-serif" font-size="14.00">parse</text>
</g>
<!-- graph&#45;&gt;parse -->
<g id="edge39" class="edge">
<title>graph&#45;&gt;parse</title>
<path fill="none" stroke="black" d="M476.34,-1646.89C522.52,-1655.76 621.19,-1672.56 705.38,-1672.56 705.38,-1672.56 705.38,-1672.56 858.38,-1672.56 1058.34,-1672.56 1100.34,-1337.25 1108.52,-1234.28"/>
<polygon fill="black" stroke="black" points="1112,-1234.65 1109.25,-1224.42 1105.02,-1234.13 1112,-1234.65"/>
</g>
<!-- rand -->
<g id="node43" class="node">
<title>rand</title>
<polygon fill="none" stroke="black" points="1025.62,-1522.56 971.62,-1522.56 971.62,-1486.56 1025.62,-1486.56 1025.62,-1522.56"/>
<text text-anchor="middle" x="998.62" y="-1500.26" font-family="sans-serif" font-size="14.00">rand</text>
</g>
<!-- hash&#45;&gt;rand -->
<g id="edge40" class="edge">
<title>hash&#45;&gt;rand</title>
<path fill="none" stroke="black" d="M884.57,-1504.56C905.86,-1504.56 936.19,-1504.56 960.07,-1504.56"/>
<polygon fill="black" stroke="black" points="960.04,-1508.06 970.04,-1504.56 960.04,-1501.06 960.04,-1508.06"/>
</g>
<!-- haskell -->
<g id="node16" class="node">
<title>haskell</title>
<polygon fill="none" stroke="black" points="480.25,-317.56 417.75,-317.56 417.75,-281.56 480.25,-281.56 480.25,-317.56"/>
<text text-anchor="middle" x="449" y="-295.26" font-family="sans-serif" font-size="14.00">haskell</text>
</g>
<!-- hol&#45;api -->
<g id="node18" class="node">
<title>hol&#45;api</title>
<polygon fill="none" stroke="black" points="607.62,-216.56 545.12,-216.56 545.12,-180.56 607.62,-180.56 607.62,-216.56"/>
<text text-anchor="middle" x="576.38" y="-194.26" font-family="sans-serif" font-size="14.00">hol&#45;api</text>
</g>
<!-- haskell&#45;&gt;hol&#45;api -->
<g id="edge41" class="edge">
<title>haskell&#45;&gt;hol&#45;api</title>
<path fill="none" stroke="black" d="M470.6,-281.35C491.97,-262.5 523.07,-235.17 529,-230.56 532.03,-228.21 535.21,-225.83 538.44,-223.48"/>
<polygon fill="black" stroke="black" points="540.18,-226.53 546.31,-217.88 536.13,-220.83 540.18,-226.53"/>
</g>
<!-- haskell&#45;&gt;hol&#45;eval -->
<g id="edge42" class="edge">
<title>haskell&#45;&gt;hol&#45;eval</title>
<path fill="none" stroke="black" d="M480.61,-311C515.96,-324.65 575.43,-348.98 623.75,-375.56 698.12,-416.48 779,-474.42 823.09,-507.26"/>
<polygon fill="black" stroke="black" points="820.87,-509.97 830.97,-513.16 825.06,-504.36 820.87,-509.97"/>
</g>
<!-- haskell&#45;&gt;init -->
<g id="edge43" class="edge">
<title>haskell&#45;&gt;init</title>
<path fill="none" stroke="black" d="M459.16,-317.77C468.69,-337.33 483.54,-369.52 493,-398.56 515.71,-468.28 479.61,-505.37 529,-559.56 533.85,-564.88 618.12,-590.62 668.39,-605.63"/>
<polygon fill="black" stroke="black" points="667.13,-608.91 677.72,-608.41 669.13,-602.2 667.13,-608.91"/>
</g>
<!-- haskell&#45;&gt;types -->
<g id="edge44" class="edge">
<title>haskell&#45;&gt;types</title>
<path fill="none" stroke="black" d="M460.51,-281.32C478.23,-250.76 513.62,-190.7 529,-171.56 597.39,-86.45 596.19,-0.56 705.38,-0.56 705.38,-0.56 705.38,-0.56 1215.25,-0.56 1290.02,-0.56 1328.1,8.44 1376.5,-48.56 1435.61,-118.18 1439.23,-412.09 1438.82,-506.93"/>
<polygon fill="black" stroke="black" points="1435.32,-506.68 1438.75,-516.7 1442.32,-506.72 1435.32,-506.68"/>
</g>
<!-- hol&#45;&gt;core -->
<g id="edge45" class="edge">
<title>hol&#45;&gt;core</title>
<path fill="none" stroke="black" d="M884.77,-244.65C897.69,-250.18 913.13,-257.72 925.75,-266.56 943.71,-279.15 961.27,-296.38 974.54,-310.72"/>
<polygon fill="black" stroke="black" points="971.9,-313.01 981.2,-318.08 977.09,-308.31 971.9,-313.01"/>
</g>
<!-- hol&#45;api&#45;&gt;core -->
<g id="edge46" class="edge">
<title>hol&#45;api&#45;&gt;core</title>
<path fill="none" stroke="black" d="M607.64,-190.04C671.72,-173.86 823.62,-145.54 925.75,-207.56 962.1,-229.64 981.45,-277.23 990.61,-308.29"/>
<polygon fill="black" stroke="black" points="987.21,-309.13 993.24,-317.84 993.96,-307.27 987.21,-309.13"/>
</g>
<!-- hol&#45;api&#45;&gt;hol&#45;eval -->
<g id="edge47" class="edge">
<title>hol&#45;api&#45;&gt;hol&#45;eval</title>
<path fill="none" stroke="black" d="M587.41,-217.04C601.67,-242.45 629.45,-288.95 659.75,-323.56 695.91,-364.87 718.17,-362.13 753,-404.56 773.46,-429.49 769.2,-442.11 789,-467.56 799.95,-481.63 813.88,-495.58 826.24,-506.92"/>
<polygon fill="black" stroke="black" points="823.58,-509.24 833.35,-513.32 828.26,-504.03 823.58,-509.24"/>
</g>
<!-- inductive -->
<g id="node20" class="node">
<title>inductive</title>
<polygon fill="none" stroke="black" points="895.75,-458.56 819,-458.56 819,-422.56 895.75,-422.56 895.75,-458.56"/>
<text text-anchor="middle" x="857.38" y="-436.26" font-family="sans-serif" font-size="14.00">inductive</text>
</g>
<!-- hol&#45;api&#45;&gt;inductive -->
<g id="edge48" class="edge">
<title>hol&#45;api&#45;&gt;inductive</title>
<path fill="none" stroke="black" d="M598.35,-216.75C647.42,-259.32 769.89,-365.55 826.64,-414.77"/>
<polygon fill="black" stroke="black" points="824.17,-417.26 834.02,-421.17 828.76,-411.97 824.17,-417.26"/>
</g>
<!-- hol&#45;api&#45;&gt;init -->
<g id="edge49" class="edge">
<title>hol&#45;api&#45;&gt;init</title>
<path fill="none" stroke="black" d="M582.96,-216.79C603.04,-282.39 671.76,-506.79 696.45,-587.42"/>
<polygon fill="black" stroke="black" points="693.05,-588.25 699.32,-596.79 699.74,-586.2 693.05,-588.25"/>
</g>
<!-- hol&#45;api&#45;&gt;pure -->
<g id="edge50" class="edge">
<title>hol&#45;api&#45;&gt;pure</title>
<path fill="none" stroke="black" d="M607.82,-183.13C623,-176.29 641.9,-169.01 659.75,-165.56 698.21,-158.15 896.2,-154.4 925.75,-166.56 1067.01,-224.72 1165.11,-394.58 1199.6,-462.26"/>
<polygon fill="black" stroke="black" points="1196.3,-463.48 1203.91,-470.86 1202.56,-460.35 1196.3,-463.48"/>
</g>
<!-- hol&#45;api&#45;&gt;types -->
<g id="edge51" class="edge">
<title>hol&#45;api&#45;&gt;types</title>
<path fill="none" stroke="black" d="M594.32,-180.21C635.08,-138.18 743.58,-38.56 856.38,-38.56 856.38,-38.56 856.38,-38.56 1215.25,-38.56 1421.89,-38.56 1438.48,-400.01 1438.86,-507.04"/>
<polygon fill="black" stroke="black" points="1435.36,-506.73 1438.84,-516.73 1442.36,-506.74 1435.36,-506.73"/>
</g>
<!-- hol&#45;eval&#45;&gt;core -->
<g id="edge52" class="edge">
<title>hol&#45;eval&#45;&gt;core</title>
<path fill="none" stroke="black" d="M892.54,-521.89C904.22,-516.9 916.63,-509.94 925.75,-500.56 935.67,-490.36 968.45,-410.63 986.12,-366.58"/>
<polygon fill="black" stroke="black" points="989.34,-367.95 989.8,-357.36 982.84,-365.35 989.34,-367.95"/>
</g>
<!-- hol&#45;eval&#45;&gt;pure -->
<g id="edge53" class="edge">
<title>hol&#45;eval&#45;&gt;pure</title>
<path fill="none" stroke="black" d="M892.68,-528C934.77,-522.44 1008.33,-512.9 1071.5,-505.56 1106.82,-501.46 1147.16,-497.23 1175.74,-494.32"/>
<polygon fill="black" stroke="black" points="1175.74,-497.84 1185.34,-493.35 1175.04,-490.87 1175.74,-497.84"/>
</g>
<!-- hol&#45;eval&#45;&gt;pure&#45;eval -->
<g id="edge54" class="edge">
<title>hol&#45;eval&#45;&gt;pure&#45;eval</title>
<path fill="none" stroke="black" d="M892.62,-532.56C935.73,-532.56 1010.13,-532.56 1059.79,-532.56"/>
<polygon fill="black" stroke="black" points="1059.72,-536.06 1069.72,-532.56 1059.72,-529.06 1059.72,-536.06"/>
</g>
<!-- hol&#45;eval&#45;&gt;sexp -->
<g id="edge55" class="edge">
<title>hol&#45;eval&#45;&gt;sexp</title>
<path fill="none" stroke="black" d="M873.75,-551.03C889.32,-570.72 912.89,-603.43 925.75,-635.56 976.93,-763.43 992.01,-929.61 996.16,-996.14"/>
<polygon fill="black" stroke="black" points="992.65,-996.08 996.73,-1005.86 999.64,-995.68 992.65,-996.08"/>
</g>
<!-- hol&#45;eval&#45;&gt;types -->
<g id="edge56" class="edge">
<title>hol&#45;eval&#45;&gt;types</title>
<path fill="none" stroke="black" d="M892.59,-517.43C950.71,-492.27 1066.7,-444.56 1110.38,-444.56 1110.38,-444.56 1110.38,-444.56 1215.25,-444.56 1287.41,-444.56 1312.9,-429.47 1376.5,-463.56 1395.68,-473.84 1411.45,-492.68 1422.28,-508.65"/>
<polygon fill="black" stroke="black" points="1419.2,-510.33 1427.56,-516.84 1425.09,-506.54 1419.2,-510.33"/>
</g>
<!-- init&#45;&gt;core -->
<g id="edge57" class="edge">
<title>init&#45;&gt;core</title>
<path fill="none" stroke="black" d="M733.5,-601.77C740.47,-596.94 747.56,-591.11 753,-584.56 777.66,-554.89 759.67,-530.63 789,-505.56 836.96,-464.58 876.24,-506.66 925.75,-467.56 958.63,-441.6 978.72,-396.25 989.02,-366.56"/>
<polygon fill="black" stroke="black" points="992.33,-367.68 992.13,-357.09 985.68,-365.49 992.33,-367.68"/>
</g>
<!-- init&#45;&gt;grammar -->
<g id="edge58" class="edge">
<title>init&#45;&gt;grammar</title>
<path fill="none" stroke="black" d="M733.61,-618.64C774.64,-621.94 856.45,-628.69 925.75,-635.56 933.65,-636.35 942.03,-637.23 950.17,-638.12"/>
<polygon fill="black" stroke="black" points="949.62,-641.58 959.94,-639.2 950.39,-634.62 949.62,-641.58"/>
</g>
<!-- init&#45;&gt;hash -->
<g id="edge59" class="edge">
<title>init&#45;&gt;hash</title>
<path fill="none" stroke="black" d="M714.84,-634.9C725.29,-661.45 744.02,-712.39 753,-757.56 792.29,-955.22 758.48,-1010.36 789,-1209.56 804.09,-1308.05 833.8,-1422.52 848.19,-1475.24"/>
<polygon fill="black" stroke="black" points="844.75,-1475.93 850.77,-1484.65 851.5,-1474.08 844.75,-1475.93"/>
</g>
<!-- init&#45;&gt;hol -->
<g id="edge60" class="edge">
<title>init&#45;&gt;hol</title>
<path fill="none" stroke="black" d="M714.56,-598.14C738.56,-536.61 816.05,-337.95 845.17,-263.29"/>
<polygon fill="black" stroke="black" points="848.34,-264.8 848.71,-254.21 841.82,-262.26 848.34,-264.8"/>
</g>
<!-- init&#45;&gt;hol&#45;eval -->
<g id="edge61" class="edge">
<title>init&#45;&gt;hol&#45;eval</title>
<path fill="none" stroke="black" d="M733.71,-598.61C749.46,-588.18 770.03,-575.06 789,-564.56 796.24,-560.55 804.07,-556.55 811.74,-552.8"/>
<polygon fill="black" stroke="black" points="813.16,-556 820.67,-548.53 810.14,-549.69 813.16,-556"/>
</g>
<!-- init&#45;&gt;inductive -->
<g id="edge62" class="edge">
<title>init&#45;&gt;inductive</title>
<path fill="none" stroke="black" d="M733.53,-602.49C740.66,-597.61 747.83,-591.57 753,-584.56 784.02,-542.47 754.56,-511.9 789,-472.56 794.4,-466.4 801.24,-461.33 808.48,-457.19"/>
<polygon fill="black" stroke="black" points="809.83,-460.43 817.16,-452.78 806.66,-454.19 809.83,-460.43"/>
</g>
<!-- metamath -->
<g id="node31" class="node">
<title>metamath</title>
<polygon fill="none" stroke="black" points="897.62,-1146.56 817.12,-1146.56 817.12,-1110.56 897.62,-1110.56 897.62,-1146.56"/>
<text text-anchor="middle" x="857.38" y="-1124.26" font-family="sans-serif" font-size="14.00">metamath</text>
</g>
<!-- init&#45;&gt;metamath -->
<g id="edge63" class="edge">
<title>init&#45;&gt;metamath</title>
<path fill="none" stroke="black" d="M713.77,-634.67C723.07,-661.36 740.59,-712.94 753,-757.56 771.84,-825.28 770.57,-843.73 789,-911.56 807.44,-979.41 832.86,-1057.98 846.61,-1099.44"/>
<polygon fill="black" stroke="black" points="843.2,-1100.3 849.68,-1108.68 849.84,-1098.09 843.2,-1100.3"/>
</g>
<!-- init&#45;&gt;sexp -->
<g id="edge64" class="edge">
<title>init&#45;&gt;sexp</title>
<path fill="none" stroke="black" d="M733.47,-624.79C740.77,-628.27 748.06,-633.07 753,-639.56 802.41,-704.48 733.47,-759.79 789,-819.56 831.93,-865.78 878.28,-816.03 925.75,-857.56 967.22,-893.85 985.51,-958.24 992.97,-995.89"/>
<polygon fill="black" stroke="black" points="989.51,-996.41 994.76,-1005.61 996.4,-995.15 989.51,-996.41"/>
</g>
<!-- spectec -->
<g id="node51" class="node">
<title>spectec</title>
<polygon fill="none" stroke="black" points="892,-680.56 822.75,-680.56 822.75,-644.56 892,-644.56 892,-680.56"/>
<text text-anchor="middle" x="857.38" y="-658.26" font-family="sans-serif" font-size="14.00">spectec</text>
</g>
<!-- init&#45;&gt;spectec -->
<g id="edge65" class="edge">
<title>init&#45;&gt;spectec</title>
<path fill="none" stroke="black" d="M733.67,-624.68C755.21,-631.33 786.18,-640.89 811.61,-648.74"/>
<polygon fill="black" stroke="black" points="810.46,-652.05 821.04,-651.65 812.52,-645.36 810.46,-652.05"/>
</g>
<!-- init&#45;&gt;types -->
<g id="edge66" class="edge">
<title>init&#45;&gt;types</title>
<path fill="none" stroke="black" d="M733.64,-610.79C784.38,-600.16 899.54,-578.56 997.62,-578.56 997.62,-578.56 997.62,-578.56 1215.25,-578.56 1281.68,-578.56 1357.35,-560.38 1401.33,-547.94"/>
<polygon fill="black" stroke="black" points="1402.25,-551.32 1410.88,-545.18 1400.31,-544.59 1402.25,-551.32"/>
</g>
<!-- json -->
<g id="node22" class="node">
<title>json</title>
<polygon fill="none" stroke="black" points="884.38,-1942.56 830.38,-1942.56 830.38,-1906.56 884.38,-1906.56 884.38,-1942.56"/>
<text text-anchor="middle" x="857.38" y="-1920.26" font-family="sans-serif" font-size="14.00">json</text>
</g>
<!-- kernel -->
<g id="node23" class="node">
<title>kernel</title>
<polygon fill="none" stroke="black" points="605,-1042.56 547.75,-1042.56 547.75,-1006.56 605,-1006.56 605,-1042.56"/>
<text text-anchor="middle" x="576.38" y="-1020.26" font-family="sans-serif" font-size="14.00">kernel</text>
</g>
<!-- kernel&#45;&gt;hash -->
<g id="edge67" class="edge">
<title>kernel&#45;&gt;hash</title>
<path fill="none" stroke="black" d="M605.4,-1030.36C649.65,-1040.06 732.79,-1060.69 753,-1082.56 759.86,-1089.98 827.7,-1380.79 849.6,-1475.25"/>
<polygon fill="black" stroke="black" points="846.14,-1475.83 851.8,-1484.78 852.96,-1474.25 846.14,-1475.83"/>
</g>
<!-- kernel&#45;&gt;init -->
<g id="edge68" class="edge">
<title>kernel&#45;&gt;init</title>
<path fill="none" stroke="black" d="M582.98,-1006.08C596.17,-962.66 630.29,-850.77 659.75,-757.56 672.02,-718.75 686.55,-674.06 695.86,-645.58"/>
<polygon fill="black" stroke="black" points="699.13,-646.82 698.92,-636.23 692.48,-644.64 699.13,-646.82"/>
</g>
<!-- kernel&#45;&gt;object -->
<g id="edge69" class="edge">
<title>kernel&#45;&gt;object</title>
<path fill="none" stroke="black" d="M587.21,-1042.69C609.4,-1083.62 663.53,-1183.42 690.13,-1232.45"/>
<polygon fill="black" stroke="black" points="686.94,-1233.92 694.79,-1241.04 693.1,-1230.58 686.94,-1233.92"/>
</g>
<!-- kernel&#45;&gt;sexp -->
<g id="edge70" class="edge">
<title>kernel&#45;&gt;sexp</title>
<path fill="none" stroke="black" d="M605.33,-1023.94C640.48,-1023.88 702.35,-1026.15 753,-1040.56 770.21,-1045.46 771.59,-1054.45 789,-1058.56 848.15,-1072.53 866.37,-1071.54 925.75,-1058.56 937.74,-1055.94 950.13,-1051.12 961.17,-1045.97"/>
<polygon fill="black" stroke="black" points="962.51,-1049.21 969.93,-1041.65 959.41,-1042.93 962.51,-1049.21"/>
</g>
<!-- kernel&#45;&gt;store -->
<g id="edge71" class="edge">
<title>kernel&#45;&gt;store</title>
<path fill="none" stroke="black" d="M580.67,-1042.98C597.99,-1139.9 678.62,-1590.93 700.11,-1711.08"/>
<polygon fill="black" stroke="black" points="696.63,-1711.55 701.84,-1720.78 703.52,-1710.32 696.63,-1711.55"/>
</g>
<!-- kernel&#45;sat -->
<g id="node24" class="node">
<title>kernel&#45;sat</title>
<polygon fill="none" stroke="black" points="618.12,-550.56 534.62,-550.56 534.62,-514.56 618.12,-514.56 618.12,-550.56"/>
<text text-anchor="middle" x="576.38" y="-528.26" font-family="sans-serif" font-size="14.00">kernel&#45;sat</text>
</g>
<!-- kernel&#45;sat&#45;&gt;core -->
<g id="edge72" class="edge">
<title>kernel&#45;sat&#45;&gt;core</title>
<path fill="none" stroke="black" d="M603.94,-514.4C610.44,-509.9 617.36,-505.08 623.75,-500.56 697.83,-448.12 705.96,-417.21 789,-380.56 845.44,-355.65 916.91,-344.95 959.86,-340.51"/>
<polygon fill="black" stroke="black" points="960.05,-344.01 969.67,-339.57 959.38,-337.04 960.05,-344.01"/>
</g>
<!-- kernel&#45;sat&#45;&gt;hol&#45;eval -->
<g id="edge73" class="edge">
<title>kernel&#45;sat&#45;&gt;hol&#45;eval</title>
<path fill="none" stroke="black" d="M618.54,-532.56C669.84,-532.56 757.22,-532.56 810.58,-532.56"/>
<polygon fill="black" stroke="black" points="810.56,-536.06 820.56,-532.56 810.56,-529.06 810.56,-536.06"/>
</g>
<!-- kernel&#45;sat&#45;&gt;init -->
<g id="edge74" class="edge">
<title>kernel&#45;sat&#45;&gt;init</title>
<path fill="none" stroke="black" d="M605.47,-551C624.31,-563.36 649.3,-579.76 669.57,-593.07"/>
<polygon fill="black" stroke="black" points="667.55,-595.93 677.83,-598.49 671.39,-590.07 667.55,-595.93"/>
</g>
<!-- sat -->
<g id="node46" class="node">
<title>sat</title>
<polygon fill="none" stroke="black" points="884.38,-902.56 830.38,-902.56 830.38,-866.56 884.38,-866.56 884.38,-902.56"/>
<text text-anchor="middle" x="857.38" y="-880.26" font-family="sans-serif" font-size="14.00">sat</text>
</g>
<!-- kernel&#45;sat&#45;&gt;sat -->
<g id="edge75" class="edge">
<title>kernel&#45;sat&#45;&gt;sat</title>
<path fill="none" stroke="black" d="M590.53,-550.83C606.58,-572.99 634.67,-611.38 659.75,-643.56 699.99,-695.19 720.25,-700.88 753,-757.56 775.59,-796.66 758.39,-819.37 789,-852.56 797.31,-861.58 808.7,-868.31 819.75,-873.2"/>
<polygon fill="black" stroke="black" points="818.13,-876.33 828.72,-876.79 820.73,-869.83 818.13,-876.33"/>
</g>
<!-- kernel&#45;smt -->
<g id="node25" class="node">
<title>kernel&#45;smt</title>
<polygon fill="none" stroke="black" points="493,-216.56 405,-216.56 405,-180.56 493,-180.56 493,-216.56"/>
<text text-anchor="middle" x="449" y="-194.26" font-family="sans-serif" font-size="14.00">kernel&#45;smt</text>
</g>
<!-- kernel&#45;smt&#45;&gt;core -->
<g id="edge76" class="edge">
<title>kernel&#45;smt&#45;&gt;core</title>
<path fill="none" stroke="black" d="M491.88,-180.08C580.47,-144.08 789.84,-75.69 925.75,-166.56 973.18,-198.27 989.39,-268 994.87,-307.93"/>
<polygon fill="black" stroke="black" points="991.39,-308.28 996.07,-317.79 998.33,-307.44 991.39,-308.28"/>
</g>
<!-- kernel&#45;smt&#45;&gt;hol&#45;api -->
<g id="edge77" class="edge">
<title>kernel&#45;smt&#45;&gt;hol&#45;api</title>
<path fill="none" stroke="black" d="M493.5,-198.56C506.49,-198.56 520.71,-198.56 533.59,-198.56"/>
<polygon fill="black" stroke="black" points="533.46,-202.06 543.46,-198.56 533.46,-195.06 533.46,-202.06"/>
</g>
<!-- kv -->
<g id="node26" class="node">
<title>kv</title>
<polygon fill="none" stroke="black" points="226.12,-2002.56 172.12,-2002.56 172.12,-1966.56 226.12,-1966.56 226.12,-2002.56"/>
<text text-anchor="middle" x="199.12" y="-1980.26" font-family="sans-serif" font-size="14.00">kv</text>
</g>
<!-- lean -->
<g id="node27" class="node">
<title>lean</title>
<polygon fill="none" stroke="black" points="87.5,-1912.56 33.5,-1912.56 33.5,-1876.56 87.5,-1876.56 87.5,-1912.56"/>
<text text-anchor="middle" x="60.5" y="-1890.26" font-family="sans-serif" font-size="14.00">lean</text>
</g>
<!-- lisp -->
<g id="node28" class="node">
<title>lisp</title>
<polygon fill="none" stroke="black" points="476,-443.56 422,-443.56 422,-407.56 476,-407.56 476,-443.56"/>
<text text-anchor="middle" x="449" y="-421.26" font-family="sans-serif" font-size="14.00">lisp</text>
</g>
<!-- lisp&#45;&gt;core -->
<g id="edge78" class="edge">
<title>lisp&#45;&gt;core</title>
<path fill="none" stroke="black" d="M474.89,-407.09C489.93,-396.64 509.84,-384.01 529,-375.56 638.6,-327.22 670.28,-320.48 789,-304.56 849.24,-296.49 866.37,-291.58 925.75,-304.56 937.74,-307.18 950.13,-312 961.17,-317.16"/>
<polygon fill="black" stroke="black" points="959.41,-320.19 969.93,-321.48 962.51,-313.92 959.41,-320.19"/>
</g>
<!-- lisp&#45;&gt;hol&#45;api -->
<g id="edge79" class="edge">
<title>lisp&#45;&gt;hol&#45;api</title>
<path fill="none" stroke="black" d="M458.37,-407.07C467.25,-387.27 481.55,-354.88 493,-326.56 510.08,-284.32 500.96,-266.48 529,-230.56 531.17,-227.79 533.64,-225.16 536.29,-222.69"/>
<polygon fill="black" stroke="black" points="538.01,-225.82 543.49,-216.75 533.55,-220.42 538.01,-225.82"/>
</g>
<!-- lisp&#45;&gt;hol&#45;eval -->
<g id="edge80" class="edge">
<title>lisp&#45;&gt;hol&#45;eval</title>
<path fill="none" stroke="black" d="M476.35,-432.5C544.2,-450.37 725.54,-498.11 810.84,-520.57"/>
<polygon fill="black" stroke="black" points="809.95,-523.96 820.51,-523.12 811.73,-517.19 809.95,-523.96"/>
</g>
<!-- lisp&#45;&gt;init -->
<g id="edge81" class="edge">
<title>lisp&#45;&gt;init</title>
<path fill="none" stroke="black" d="M452.87,-444.01C459.42,-479.25 478.93,-555.89 529,-592.56 569.33,-622.1 629.12,-623.89 667.67,-621.21"/>
<polygon fill="black" stroke="black" points="667.73,-624.71 677.4,-620.38 667.14,-617.74 667.73,-624.71"/>
</g>
<!-- repl&#45;core -->
<g id="node45" class="node">
<title>repl&#45;core</title>
<polygon fill="none" stroke="black" points="615.5,-420.56 537.25,-420.56 537.25,-384.56 615.5,-384.56 615.5,-420.56"/>
<text text-anchor="middle" x="576.38" y="-398.26" font-family="sans-serif" font-size="14.00">repl&#45;core</text>
</g>
<!-- lisp&#45;&gt;repl&#45;core -->
<g id="edge82" class="edge">
<title>lisp&#45;&gt;repl&#45;core</title>
<path fill="none" stroke="black" d="M476.28,-420.74C490.77,-418.08 509.23,-414.7 526.28,-411.57"/>
<polygon fill="black" stroke="black" points="526.54,-415.08 535.74,-409.83 525.27,-408.2 526.54,-415.08"/>
</g>
<!-- lisp&#45;&gt;sexp -->
<g id="edge83" class="edge">
<title>lisp&#45;&gt;sexp</title>
<path fill="none" stroke="black" d="M459.29,-444.02C469.24,-464.6 484.71,-499.14 493,-530.56 525.13,-652.3 454.2,-710.28 529,-811.56 556.47,-848.76 582.71,-833.26 623.75,-854.56 682.9,-885.26 704.57,-884.79 753,-930.56 773.96,-950.37 765.01,-968.55 789,-984.56 840.89,-1019.19 915.19,-1025.97 959.7,-1026.57"/>
<polygon fill="black" stroke="black" points="959.63,-1030.07 969.64,-1026.6 959.65,-1023.07 959.63,-1030.07"/>
</g>
<!-- llm -->
<g id="node29" class="node">
<title>llm</title>
<polygon fill="none" stroke="black" points="226.12,-1682.56 172.12,-1682.56 172.12,-1646.56 226.12,-1646.56 226.12,-1682.56"/>
<text text-anchor="middle" x="199.12" y="-1660.26" font-family="sans-serif" font-size="14.00">llm</text>
</g>
<!-- llm&#45;&gt;proto -->
<g id="edge84" class="edge">
<title>llm&#45;&gt;proto</title>
<path fill="none" stroke="black" d="M226.6,-1664.56C243.46,-1664.56 265.58,-1664.56 284.29,-1664.56"/>
<polygon fill="black" stroke="black" points="284.19,-1668.06 294.19,-1664.56 284.19,-1661.06 284.19,-1668.06"/>
</g>
<!-- lsp&#45;&gt;sexp -->
<g id="edge85" class="edge">
<title>lsp&#45;&gt;sexp</title>
<path fill="none" stroke="black" d="M884.63,-1176.58C898.13,-1172.46 914.13,-1165.82 925.75,-1155.56 956.98,-1127.98 977.42,-1083.44 988.25,-1054.33"/>
<polygon fill="black" stroke="black" points="991.49,-1055.65 991.55,-1045.05 984.9,-1053.3 991.49,-1055.65"/>
</g>
<!-- lsp&#45;&gt;wasm -->
<g id="edge86" class="edge">
<title>lsp&#45;&gt;wasm</title>
<path fill="none" stroke="black" d="M863.17,-1200.73C875.18,-1246.76 906.93,-1371.79 925.75,-1477.56 961.56,-1678.79 986.72,-1923.75 994.82,-2007.69"/>
<polygon fill="black" stroke="black" points="991.33,-2007.97 995.77,-2017.59 998.3,-2007.3 991.33,-2007.97"/>
</g>
<!-- metamath&#45;&gt;parse -->
<g id="edge87" class="edge">
<title>metamath&#45;&gt;parse</title>
<path fill="none" stroke="black" d="M898.03,-1140.52C946.05,-1155 1026.3,-1179.21 1073.19,-1193.35"/>
<polygon fill="black" stroke="black" points="1072.03,-1196.65 1082.62,-1196.19 1074.05,-1189.95 1072.03,-1196.65"/>
</g>
<!-- metamath&#45;&gt;sexp -->
<g id="edge88" class="edge">
<title>metamath&#45;&gt;sexp</title>
<path fill="none" stroke="black" d="M898.09,-1112.42C907.51,-1107.86 917.27,-1102.51 925.75,-1096.56 943.71,-1083.97 961.27,-1066.74 974.54,-1052.41"/>
<polygon fill="black" stroke="black" points="977.09,-1054.81 981.2,-1045.05 971.9,-1050.12 977.09,-1054.81"/>
</g>
<!-- multiformat -->
<g id="node32" class="node">
<title>multiformat</title>
<polygon fill="none" stroke="black" points="751.5,-1888.56 661.25,-1888.56 661.25,-1852.56 751.5,-1852.56 751.5,-1888.56"/>
<text text-anchor="middle" x="706.38" y="-1866.26" font-family="sans-serif" font-size="14.00">multiformat</text>
</g>
<!-- multiformat&#45;&gt;acset -->
<g id="edge89" class="edge">
<title>multiformat&#45;&gt;acset</title>
<path fill="none" stroke="black" d="M751.68,-1870.56C773.05,-1870.56 798.41,-1870.56 818.81,-1870.56"/>
<polygon fill="black" stroke="black" points="818.68,-1874.06 828.68,-1870.56 818.68,-1867.06 818.68,-1874.06"/>
</g>
<!-- multiformat&#45;&gt;hash -->
<g id="edge90" class="edge">
<title>multiformat&#45;&gt;hash</title>
<path fill="none" stroke="black" d="M721.05,-1852.28C730.87,-1838.56 743.91,-1819.05 753,-1800.56 798.97,-1707.04 834,-1587.85 848.74,-1533.69"/>
<polygon fill="black" stroke="black" points="852.04,-1534.88 851.26,-1524.32 845.28,-1533.06 852.04,-1534.88"/>
</g>
<!-- multiformat&#45;&gt;parse -->
<g id="edge91" class="edge">
<title>multiformat&#45;&gt;parse</title>
<path fill="none" stroke="black" d="M751.73,-1855.46C763.79,-1851.47 776.86,-1847.25 789,-1843.56 849.35,-1825.21 871.92,-1838.45 925.75,-1805.56 987.15,-1768.05 1004.23,-1751.36 1035.5,-1686.56 1074.64,-1605.44 1100.43,-1326.33 1108.03,-1234.28"/>
<polygon fill="black" stroke="black" points="1111.52,-1234.56 1108.84,-1224.31 1104.55,-1234 1111.52,-1234.56"/>
</g>
<!-- object&#45;&gt;hash -->
<g id="edge92" class="edge">
<title>object&#45;&gt;hash</title>
<path fill="none" stroke="black" d="M726.37,-1278.64C735.08,-1287.49 745.18,-1298.58 753,-1309.56 792.22,-1364.66 826.49,-1436.47 844,-1475.76"/>
<polygon fill="black" stroke="black" points="840.74,-1477.04 847.98,-1484.79 847.15,-1474.22 840.74,-1477.04"/>
</g>
<!-- object&#45;&gt;parse -->
<g id="edge93" class="edge">
<title>object&#45;&gt;parse</title>
<path fill="none" stroke="black" d="M735.39,-1256.67C806.34,-1246.81 993.1,-1220.86 1073.12,-1209.74"/>
<polygon fill="black" stroke="black" points="1073.2,-1213.26 1082.63,-1208.42 1072.24,-1206.33 1073.2,-1213.26"/>
</g>
<!-- opentheory&#45;&gt;hol -->
<g id="edge94" class="edge">
<title>opentheory&#45;&gt;hol</title>
<path fill="none" stroke="black" d="M368.77,-181.14C380.37,-177.18 392.98,-173.58 405,-171.56 500.88,-155.44 527.38,-158.74 623.75,-171.56 694.29,-180.95 773.79,-205.67 819.2,-221.21"/>
<polygon fill="black" stroke="black" points="817.96,-224.48 828.55,-224.45 820.25,-217.87 817.96,-224.48"/>
</g>
<!-- parquet -->
<g id="node35" class="node">
<title>parquet</title>
<polygon fill="none" stroke="black" points="482.5,-1476.56 415.5,-1476.56 415.5,-1440.56 482.5,-1440.56 482.5,-1476.56"/>
<text text-anchor="middle" x="449" y="-1454.26" font-family="sans-serif" font-size="14.00">parquet</text>
</g>
<!-- parquet&#45;&gt;arrow -->
<g id="edge95" class="edge">
<title>parquet&#45;&gt;arrow</title>
<path fill="none" stroke="black" d="M480.35,-1440.17C498.16,-1429.37 520.78,-1415.66 539.47,-1404.32"/>
<polygon fill="black" stroke="black" points="541.09,-1407.44 547.83,-1399.26 537.47,-1401.45 541.09,-1407.44"/>
</g>
<!-- proptest -->
<g id="node37" class="node">
<title>proptest</title>
<polygon fill="none" stroke="black" points="95.88,-1966.56 25.12,-1966.56 25.12,-1930.56 95.88,-1930.56 95.88,-1966.56"/>
<text text-anchor="middle" x="60.5" y="-1944.26" font-family="sans-serif" font-size="14.00">proptest</text>
</g>
<!-- pure&#45;trusted -->
<g id="node41" class="node">
<title>pure&#45;trusted</title>
<polygon fill="#ffd6d6" stroke="black" points="1376.5,-508.56 1277.25,-508.56 1277.25,-472.56 1376.5,-472.56 1376.5,-508.56"/>
<text text-anchor="middle" x="1326.88" y="-486.26" font-family="sans-serif" font-size="14.00">pure&#45;trusted</text>
</g>
<!-- pure&#45;&gt;pure&#45;trusted -->
<g id="edge96" class="edge">
<title>pure&#45;&gt;pure&#45;trusted</title>
<path fill="none" stroke="black" d="M1241.75,-490.56C1249.04,-490.56 1257.27,-490.56 1265.64,-490.56"/>
<polygon fill="black" stroke="black" points="1265.57,-494.06 1275.57,-490.56 1265.57,-487.06 1265.57,-494.06"/>
</g>
<!-- pure&#45;eval&#45;&gt;pure -->
<g id="edge97" class="edge">
<title>pure&#45;eval&#45;&gt;pure</title>
<path fill="none" stroke="black" d="M1151.66,-516.2C1159.8,-512.82 1168.35,-509.26 1176.4,-505.91"/>
<polygon fill="black" stroke="black" points="1177.7,-509.16 1185.58,-502.08 1175,-502.7 1177.7,-509.16"/>
</g>
<!-- pure&#45;eval&#45;&gt;types -->
<g id="edge98" class="edge">
<title>pure&#45;eval&#45;&gt;types</title>
<path fill="none" stroke="black" d="M1151.71,-533.05C1215.06,-533.82 1338.83,-535.34 1400.99,-536.1"/>
<polygon fill="black" stroke="black" points="1400.65,-539.6 1410.69,-536.22 1400.74,-532.6 1400.65,-539.6"/>
</g>
<!-- pure&#45;trusted&#45;&gt;types -->
<g id="edge99" class="edge">
<title>pure&#45;trusted&#45;&gt;types</title>
<path fill="none" stroke="black" d="M1372.23,-509.01C1382,-513.07 1392.24,-517.33 1401.67,-521.25"/>
<polygon fill="black" stroke="black" points="1400.31,-524.47 1410.89,-525.08 1403,-518.01 1400.31,-524.47"/>
</g>
<!-- python -->
<g id="node42" class="node">
<title>python</title>
<polygon fill="none" stroke="black" points="91.38,-1804.56 29.62,-1804.56 29.62,-1768.56 91.38,-1768.56 91.38,-1804.56"/>
<text text-anchor="middle" x="60.5" y="-1782.26" font-family="sans-serif" font-size="14.00">python</text>
</g>
<!-- python&#45;&gt;crypto&#45;sig -->
<g id="edge100" class="edge">
<title>python&#45;&gt;crypto&#45;sig</title>
<path fill="none" stroke="black" d="M91.85,-1793.98C102.57,-1798.06 113.75,-1804.26 121,-1813.56 173.85,-1881.34 112.78,-1932.83 158.39,-2010.52"/>
<polygon fill="black" stroke="black" points="155.37,-2012.29 163.68,-2018.85 161.27,-2008.53 155.37,-2012.29"/>
</g>
<!-- python&#45;&gt;git -->
<g id="edge101" class="edge">
<title>python&#45;&gt;git</title>
<path fill="none" stroke="black" d="M91.48,-1792.1C110.24,-1795.28 134.94,-1798.95 157,-1800.56 252.47,-1807.52 280.96,-1800.14 369,-1762.56 383.58,-1756.34 398.87,-1748.08 412.08,-1740.33"/>
<polygon fill="black" stroke="black" points="413.65,-1743.47 420.43,-1735.33 410.05,-1737.47 413.65,-1743.47"/>
</g>
<!-- python&#45;&gt;graph -->
<g id="edge102" class="edge">
<title>python&#45;&gt;graph</title>
<path fill="none" stroke="black" d="M91.72,-1780.04C147.97,-1767.29 271.83,-1736.36 369,-1691.56 384.18,-1684.56 399.94,-1675.1 413.34,-1666.29"/>
<polygon fill="black" stroke="black" points="415.05,-1669.37 421.39,-1660.88 411.14,-1663.56 415.05,-1669.37"/>
</g>
<!-- python&#45;&gt;hash -->
<g id="edge103" class="edge">
<title>python&#45;&gt;hash</title>
<path fill="none" stroke="black" d="M91.57,-1796.82C101.54,-1801.07 112.3,-1806.65 121,-1813.56 141.6,-1829.93 136.53,-1844.03 157,-1860.56 220.15,-1911.55 240.96,-1938.56 322.12,-1938.56 322.12,-1938.56 322.12,-1938.56 450,-1938.56 528.6,-1938.56 559.6,-1950.99 623.75,-1905.56 649.75,-1887.15 639.06,-1867.8 659.75,-1843.56 694.46,-1802.9 721.47,-1810.74 753,-1767.56 807.62,-1692.76 837.9,-1585.25 850.04,-1533.96"/>
<polygon fill="black" stroke="black" points="853.38,-1535.04 852.21,-1524.51 846.56,-1533.47 853.38,-1535.04"/>
</g>
<!-- python&#45;&gt;kv -->
<g id="edge104" class="edge">
<title>python&#45;&gt;kv</title>
<path fill="none" stroke="black" d="M91.8,-1794.38C102.38,-1798.5 113.48,-1804.62 121,-1813.56 162.07,-1862.41 121.95,-1899.23 157,-1952.56 158.82,-1955.33 160.95,-1957.95 163.28,-1960.43"/>
<polygon fill="black" stroke="black" points="160.91,-1963 170.63,-1967.19 165.65,-1957.85 160.91,-1963"/>
</g>
<!-- python&#45;&gt;llm -->
<g id="edge105" class="edge">
<title>python&#45;&gt;llm</title>
<path fill="none" stroke="black" d="M81.95,-1768.3C105.09,-1747.63 142.96,-1713.82 169.14,-1690.45"/>
<polygon fill="black" stroke="black" points="171.27,-1693.23 176.4,-1683.96 166.61,-1688.01 171.27,-1693.23"/>
</g>
<!-- python&#45;&gt;object -->
<g id="edge106" class="edge">
<title>python&#45;&gt;object</title>
<path fill="none" stroke="black" d="M65.22,-1768.35C75.01,-1723.05 104.45,-1602.71 157,-1515.56 197.64,-1448.16 214.62,-1433.23 277.25,-1385.56 374.13,-1311.82 409.96,-1303.1 529,-1277.56 575.35,-1267.62 629.8,-1263.49 665.81,-1261.77"/>
<polygon fill="black" stroke="black" points="665.92,-1265.27 675.76,-1261.34 665.62,-1258.28 665.92,-1265.27"/>
</g>
<!-- python&#45;&gt;repl -->
<g id="edge107" class="edge">
<title>python&#45;&gt;repl</title>
<path fill="none" stroke="black" d="M72.61,-1768.43C90.05,-1740.14 125.18,-1683.92 157,-1637.56 206.86,-1564.92 269.2,-1481.96 301.13,-1439.98"/>
<polygon fill="black" stroke="black" points="303.83,-1442.22 307.1,-1432.15 298.26,-1437.98 303.83,-1442.22"/>
</g>
<!-- python&#45;&gt;sat -->
<g id="edge108" class="edge">
<title>python&#45;&gt;sat</title>
<path fill="none" stroke="black" d="M62.77,-1768.34C69.34,-1677.49 101.28,-1273.62 157,-1162.56 225.23,-1026.57 265.5,-987.31 405,-926.56 547.42,-864.55 738.53,-873.19 818.6,-880.4"/>
<polygon fill="black" stroke="black" points="818.24,-883.89 828.53,-881.35 818.9,-876.92 818.24,-883.89"/>
</g>
<!-- python&#45;&gt;serve -->
<g id="edge109" class="edge">
<title>python&#45;&gt;serve</title>
<path fill="none" stroke="black" d="M67.04,-1768.21C81.29,-1721.17 120.69,-1592.57 157,-1486.56 166.76,-1458.06 178.71,-1425.8 187.2,-1403.25"/>
<polygon fill="black" stroke="black" points="190.39,-1404.72 190.65,-1394.13 183.84,-1402.24 190.39,-1404.72"/>
</g>
<!-- python&#45;&gt;sexp -->
<g id="edge110" class="edge">
<title>python&#45;&gt;sexp</title>
<path fill="none" stroke="black" d="M62.85,-1768.24C69.63,-1679.61 101.79,-1295.32 157,-1190.56 181.08,-1144.88 205.68,-1147.99 241.25,-1110.56 258.19,-1092.74 258.21,-1084.11 277.25,-1068.56 454.27,-924.03 561.2,-1000.31 789,-1018.56 848.64,-1023.34 918.12,-1024.87 959.95,-1025.35"/>
<polygon fill="black" stroke="black" points="959.69,-1028.85 969.72,-1025.45 959.76,-1021.85 959.69,-1028.85"/>
</g>
<!-- python&#45;&gt;shell -->
<g id="edge111" class="edge">
<title>python&#45;&gt;shell</title>
<path fill="none" stroke="black" d="M63.65,-1768.07C71.18,-1706.66 99.1,-1504.53 157,-1347.56 184.4,-1273.27 206.9,-1261.91 241.25,-1190.56 258.87,-1153.97 248.35,-1135.11 277.25,-1106.56 308.65,-1075.54 329.27,-1087.78 369,-1068.56 383.3,-1061.65 398.64,-1053.32 411.97,-1045.78"/>
<polygon fill="black" stroke="black" points="413.45,-1048.96 420.4,-1040.96 409.98,-1042.89 413.45,-1048.96"/>
</g>
<!-- python&#45;&gt;store -->
<g id="edge112" class="edge">
<title>python&#45;&gt;store</title>
<path fill="none" stroke="black" d="M91.81,-1800.2C159.18,-1830.46 315.93,-1900.56 322.12,-1900.56 322.12,-1900.56 322.12,-1900.56 450,-1900.56 527.96,-1900.56 563.5,-1926.03 623.75,-1876.56 661.55,-1845.53 630.3,-1811.61 659.75,-1772.56 662.78,-1768.54 666.47,-1764.84 670.41,-1761.48"/>
<polygon fill="black" stroke="black" points="672.27,-1764.46 678.11,-1755.63 668.03,-1758.89 672.27,-1764.46"/>
</g>
<!-- python&#45;&gt;wasm -->
<g id="edge113" class="edge">
<title>python&#45;&gt;wasm</title>
<path fill="none" stroke="black" d="M91.81,-1793.65C102.66,-1797.71 113.93,-1803.97 121,-1813.56 197,-1916.7 83.07,-1994.93 157,-2099.56 204.4,-2166.65 239.99,-2182.56 322.12,-2182.56 322.12,-2182.56 322.12,-2182.56 707.38,-2182.56 806.75,-2182.56 842.34,-2188.58 925.75,-2134.56 951.75,-2117.72 971.69,-2087.99 983.9,-2065.87"/>
<polygon fill="black" stroke="black" points="986.98,-2067.53 988.55,-2057.05 980.79,-2064.26 986.98,-2067.53"/>
</g>
<!-- wasm&#45;store -->
<g id="node59" class="node">
<title>wasm&#45;store</title>
<polygon fill="none" stroke="black" points="623.75,-2040.56 529,-2040.56 529,-2004.56 623.75,-2004.56 623.75,-2040.56"/>
<text text-anchor="middle" x="576.38" y="-2018.26" font-family="sans-serif" font-size="14.00">wasm&#45;store</text>
</g>
<!-- python&#45;&gt;wasm&#45;store -->
<g id="edge114" class="edge">
<title>python&#45;&gt;wasm&#45;store</title>
<path fill="none" stroke="black" d="M91.72,-1793.72C102.56,-1797.78 113.85,-1804.03 121,-1813.56 188.87,-1904.08 71.53,-1991.43 157,-2065.56 263.33,-2157.78 446.73,-2086.75 530.86,-2046.02"/>
<polygon fill="black" stroke="black" points="532.31,-2049.21 539.73,-2041.65 529.22,-2042.93 532.31,-2049.21"/>
</g>
<!-- repl&#45;&gt;arrow -->
<g id="edge115" class="edge">
<title>repl&#45;&gt;arrow</title>
<path fill="none" stroke="black" d="M350.54,-1409.41C395.31,-1404.06 486.22,-1393.21 537.67,-1387.06"/>
<polygon fill="black" stroke="black" points="537.92,-1390.56 547.44,-1385.9 537.09,-1383.61 537.92,-1390.56"/>
</g>
<!-- repl&#45;&gt;forsp -->
<g id="edge116" class="edge">
<title>repl&#45;&gt;forsp</title>
<path fill="none" stroke="black" d="M350.33,-1405.04C366.15,-1400.52 386.72,-1394.67 405,-1389.56 460.04,-1374.19 472.86,-1366.21 529,-1355.56 576.3,-1346.59 631.6,-1341.49 667.5,-1338.88"/>
<polygon fill="black" stroke="black" points="667.64,-1342.38 677.38,-1338.19 667.16,-1335.4 667.64,-1342.38"/>
</g>
<!-- repl&#45;&gt;git -->
<g id="edge117" class="edge">
<title>repl&#45;&gt;git</title>
<path fill="none" stroke="black" d="M329.4,-1430.74C345.37,-1485.6 392.87,-1647.04 405,-1668.56 409.45,-1676.47 415.33,-1684.22 421.31,-1691.15"/>
<polygon fill="black" stroke="black" points="418.5,-1693.27 427.82,-1698.31 423.68,-1688.56 418.5,-1693.27"/>
</g>
<!-- repl&#45;&gt;graph -->
<g id="edge118" class="edge">
<title>repl&#45;&gt;graph</title>
<path fill="none" stroke="black" d="M334.05,-1430.92C355.62,-1470.78 406.86,-1565.51 432.64,-1613.16"/>
<polygon fill="black" stroke="black" points="429.47,-1614.66 437.3,-1621.79 435.63,-1611.33 429.47,-1614.66"/>
</g>
<!-- repl&#45;&gt;hash -->
<g id="edge119" class="edge">
<title>repl&#45;&gt;hash</title>
<path fill="none" stroke="black" d="M337.83,-1430.99C352.28,-1448.75 376.83,-1474.5 405,-1485.56 423,-1492.63 733.72,-1489.12 753,-1490.56 774.94,-1492.2 799.33,-1495.44 818.91,-1498.38"/>
<polygon fill="black" stroke="black" points="818.21,-1501.82 828.63,-1499.89 819.28,-1494.9 818.21,-1501.82"/>
</g>
<!-- repl&#45;&gt;init -->
<g id="edge120" class="edge">
<title>repl&#45;&gt;init</title>
<path fill="none" stroke="black" d="M335.3,-1394.21C366.2,-1342.48 453.17,-1190.22 493,-1051.56 511.17,-988.3 490.05,-810.62 529,-757.56 556.37,-720.29 590.7,-746.91 623.75,-714.56 650.17,-688.7 633.86,-665.96 659.75,-639.56 662.65,-636.6 666.02,-633.96 669.58,-631.61"/>
<polygon fill="black" stroke="black" points="671.01,-634.82 677.96,-626.83 667.54,-628.74 671.01,-634.82"/>
</g>
<!-- repl&#45;&gt;object -->
<g id="edge121" class="edge">
<title>repl&#45;&gt;object</title>
<path fill="none" stroke="black" d="M348.62,-1394.08C364.16,-1382.98 385.04,-1369.19 405,-1359.56 494.72,-1316.3 608.12,-1284.64 666.58,-1269.86"/>
<polygon fill="black" stroke="black" points="667.2,-1273.32 676.05,-1267.5 665.5,-1266.52 667.2,-1273.32"/>
</g>
<!-- repl&#45;&gt;parquet -->
<g id="edge122" class="edge">
<title>repl&#45;&gt;parquet</title>
<path fill="none" stroke="black" d="M350.4,-1422.32C366.11,-1428.15 386.48,-1435.72 404.54,-1442.42"/>
<polygon fill="black" stroke="black" points="403.13,-1445.63 413.72,-1445.83 405.56,-1439.07 403.13,-1445.63"/>
</g>
<!-- repl&#45;&gt;shell -->
<g id="edge123" class="edge">
<title>repl&#45;&gt;shell</title>
<path fill="none" stroke="black" d="M329.07,-1394.12C337.45,-1362.8 354.89,-1297.2 369,-1241.56 385.54,-1176.36 379.08,-1156.63 405,-1094.56 411.11,-1079.92 420.04,-1064.78 428.17,-1052.35"/>
<polygon fill="black" stroke="black" points="430.93,-1054.52 433.61,-1044.27 425.12,-1050.61 430.93,-1054.52"/>
</g>
<!-- repl&#45;&gt;wasm -->
<g id="edge124" class="edge">
<title>repl&#45;&gt;wasm</title>
<path fill="none" stroke="black" d="M327.89,-1430.98C341.44,-1496.71 387.76,-1717.3 405,-1744.56 482.95,-1867.88 527.28,-1890.45 659.75,-1951.56 768.9,-2001.92 811.98,-1961.75 925.75,-2000.56 937.63,-2004.61 949.98,-2010.35 961.02,-2016.1"/>
<polygon fill="black" stroke="black" points="959.35,-2019.18 969.82,-2020.84 962.68,-2013.02 959.35,-2019.18"/>
</g>
<!-- sat&#45;&gt;parse -->
<g id="edge125" class="edge">
<title>sat&#45;&gt;parse</title>
<path fill="none" stroke="black" d="M884.58,-891.1C897.46,-894.9 912.92,-900.37 925.75,-907.56 981.03,-938.53 999.02,-946.76 1035.5,-998.56 1074.77,-1054.32 1095.75,-1132.98 1104.81,-1175.14"/>
<polygon fill="black" stroke="black" points="1101.35,-1175.69 1106.79,-1184.78 1108.2,-1174.28 1101.35,-1175.69"/>
</g>
<!-- sat&#45;&gt;types -->
<g id="edge126" class="edge">
<title>sat&#45;&gt;types</title>
<path fill="none" stroke="black" d="M884.73,-879.16C930.45,-870.28 1027.5,-853.56 1110.38,-853.56 1110.38,-853.56 1110.38,-853.56 1215.25,-853.56 1292.19,-853.56 1325.83,-848.47 1376.5,-790.56 1405.86,-757.01 1426.67,-625.36 1434.76,-565.94"/>
<polygon fill="black" stroke="black" points="1438.2,-566.62 1436.05,-556.24 1431.27,-565.7 1438.2,-566.62"/>
</g>
<!-- sat&#45;&gt;wasm -->
<g id="edge127" class="edge">
<title>sat&#45;&gt;wasm</title>
<path fill="none" stroke="black" d="M865.57,-902.78C879.78,-939.65 911.31,-1026.01 925.75,-1101.56 934.47,-1147.2 984.7,-1854.45 995.56,-2008.21"/>
<polygon fill="black" stroke="black" points="992.05,-2008.22 996.24,-2017.95 999.03,-2007.73 992.05,-2008.22"/>
</g>
<!-- serve&#45;&gt;core -->
<g id="edge128" class="edge">
<title>serve&#45;&gt;core</title>
<path fill="none" stroke="black" d="M201.2,-1356.08C208.76,-1233.37 257.8,-536.78 405,-398.56 485.37,-323.1 842.84,-331.02 960.17,-335.78"/>
<polygon fill="black" stroke="black" points="959.74,-339.26 969.88,-336.19 960.04,-332.27 959.74,-339.26"/>
</g>
<!-- serve&#45;&gt;git -->
<g id="edge129" class="edge">
<title>serve&#45;&gt;git</title>
<path fill="none" stroke="black" d="M207.65,-1392.97C219.82,-1421.5 245.65,-1477.4 277.25,-1518.56 311.28,-1562.9 334.51,-1560.58 369,-1604.56 389.14,-1630.24 386.14,-1641.93 405,-1668.56 410.34,-1676.1 416.64,-1683.8 422.75,-1690.81"/>
<polygon fill="black" stroke="black" points="420.01,-1693 429.28,-1698.11 425.22,-1688.33 420.01,-1693"/>
</g>
<!-- serve&#45;&gt;hash -->
<g id="edge130" class="edge">
<title>serve&#45;&gt;hash</title>
<path fill="none" stroke="black" d="M226.26,-1387.35C231.45,-1390.38 236.69,-1393.83 241.25,-1397.56 260.27,-1413.14 257.78,-1424.55 277.25,-1439.56 327.22,-1478.11 343.54,-1487.22 405,-1501.56 483.05,-1519.77 724.51,-1510.8 818.44,-1506.46"/>
<polygon fill="black" stroke="black" points="818.58,-1509.95 828.41,-1505.99 818.25,-1502.96 818.58,-1509.95"/>
</g>
<!-- serve&#45;&gt;init -->
<g id="edge131" class="edge">
<title>serve&#45;&gt;init</title>
<path fill="none" stroke="black" d="M203.38,-1356.08C211.71,-1311.17 236.08,-1193.3 277.25,-1102.56 362.18,-915.37 379.72,-855.88 529,-714.56 570.33,-675.44 630.24,-646.5 668.49,-630.58"/>
<polygon fill="black" stroke="black" points="669.8,-633.83 677.75,-626.82 667.17,-627.34 669.8,-633.83"/>
</g>
<!-- serve&#45;&gt;metamath -->
<g id="edge132" class="edge">
<title>serve&#45;&gt;metamath</title>
<path fill="none" stroke="black" d="M209.96,-1356.11C222.71,-1333.84 246.95,-1296.64 277.25,-1274.56 312.28,-1249.05 328.41,-1256.75 369,-1241.56 385.08,-1235.55 388.57,-1232.53 405,-1227.56 547.85,-1184.41 721.4,-1151.7 805.63,-1137.04"/>
<polygon fill="black" stroke="black" points="806.16,-1140.5 815.42,-1135.35 804.97,-1133.6 806.16,-1140.5"/>
</g>
<!-- serve&#45;&gt;object -->
<g id="edge133" class="edge">
<title>serve&#45;&gt;object</title>
<path fill="none" stroke="black" d="M226.5,-1360.31C260.28,-1341.74 320.28,-1307.74 369,-1274.56 385.75,-1263.15 385.83,-1253.14 405,-1246.56 494.58,-1215.83 608.03,-1235.68 666.54,-1249.86"/>
<polygon fill="black" stroke="black" points="665.47,-1253.2 676.02,-1252.24 667.17,-1246.41 665.47,-1253.2"/>
</g>
<!-- serve&#45;&gt;proto -->
<g id="edge134" class="edge">
<title>serve&#45;&gt;proto</title>
<path fill="none" stroke="black" d="M203.93,-1392.69C215.09,-1444.6 248.69,-1592.64 277.25,-1632.56 280.01,-1636.42 283.37,-1639.97 287.01,-1643.21"/>
<polygon fill="black" stroke="black" points="284.63,-1645.79 294.65,-1649.22 288.96,-1640.29 284.63,-1645.79"/>
</g>
<!-- serve&#45;&gt;repl -->
<g id="edge135" class="edge">
<title>serve&#45;&gt;repl</title>
<path fill="none" stroke="black" d="M226.6,-1382.81C243.62,-1388.11 266,-1395.08 284.82,-1400.94"/>
<polygon fill="black" stroke="black" points="283.67,-1404.25 294.26,-1403.88 285.75,-1397.57 283.67,-1404.25"/>
</g>
<!-- serve&#45;&gt;shell -->
<g id="edge136" class="edge">
<title>serve&#45;&gt;shell</title>
<path fill="none" stroke="black" d="M212.53,-1356.18C221.41,-1342.41 233.18,-1322.88 241.25,-1304.56 263.18,-1254.77 247.75,-1233.28 277.25,-1187.56 306.74,-1141.86 329.71,-1144.18 369,-1106.56 387.85,-1088.52 408.26,-1067.28 423.61,-1050.94"/>
<polygon fill="black" stroke="black" points="425.84,-1053.69 430.11,-1043.99 420.73,-1048.91 425.84,-1053.69"/>
</g>
<!-- serve&#45;&gt;store -->
<g id="edge137" class="edge">
<title>serve&#45;&gt;store</title>
<path fill="none" stroke="black" d="M208.19,-1392.85C216.74,-1412.43 230.46,-1444.49 241.25,-1472.56 258.64,-1517.83 247.66,-1537.15 277.25,-1575.56 307.28,-1614.55 339.19,-1598.4 369,-1637.56 399.39,-1677.49 364.25,-1715.28 405,-1744.56 483.94,-1801.29 607.17,-1773.29 668.34,-1753.87"/>
<polygon fill="black" stroke="black" points="669.17,-1757.28 677.58,-1750.84 666.99,-1750.63 669.17,-1757.28"/>
</g>
<!-- sexp&#45;&gt;parse -->
<g id="edge138" class="edge">
<title>sexp&#45;&gt;parse</title>
<path fill="none" stroke="black" d="M1011.06,-1044.04C1030.51,-1075.48 1070.14,-1139.53 1093.02,-1176.52"/>
<polygon fill="black" stroke="black" points="1089.97,-1178.23 1098.21,-1184.89 1095.92,-1174.55 1089.97,-1178.23"/>
</g>
<!-- shell&#45;&gt;hol -->
<g id="edge139" class="edge">
<title>shell&#45;&gt;hol</title>
<path fill="none" stroke="black" d="M451.02,-1006.13C455.82,-924.29 478.08,-593.9 529,-505.56 555.96,-458.79 583.3,-465.31 623.75,-429.56 640.47,-414.79 643.08,-409.4 659.75,-394.56 715.6,-344.86 783.91,-290.67 823.55,-259.83"/>
<polygon fill="black" stroke="black" points="825.56,-262.7 831.32,-253.8 821.27,-257.17 825.56,-262.7"/>
</g>
<!-- shell&#45;&gt;kernel -->
<g id="edge140" class="edge">
<title>shell&#45;&gt;kernel</title>
<path fill="none" stroke="black" d="M476.28,-1024.56C493.61,-1024.56 516.61,-1024.56 536.09,-1024.56"/>
<polygon fill="black" stroke="black" points="535.87,-1028.06 545.87,-1024.56 535.87,-1021.06 535.87,-1028.06"/>
</g>
<!-- smt&#45;&gt;sat -->
<g id="edge141" class="edge">
<title>smt&#45;&gt;sat</title>
<path fill="none" stroke="black" d="M733.54,-801.75C740.06,-806.34 746.92,-811.46 753,-816.56 770.33,-831.11 770.51,-839.52 789,-852.56 798.35,-859.16 809.26,-865.01 819.55,-869.85"/>
<polygon fill="black" stroke="black" points="818.02,-873 828.58,-873.89 820.88,-866.61 818.02,-873"/>
</g>
<!-- smt&#45;&gt;sexp -->
<g id="edge142" class="edge">
<title>smt&#45;&gt;sexp</title>
<path fill="none" stroke="black" d="M733.78,-799.13C740.75,-803.96 747.78,-809.84 753,-816.56 780.71,-852.21 756.17,-880.57 789,-911.56 835.33,-955.3 871.17,-921.7 925.75,-954.56 945.09,-966.21 963.16,-984.1 976.34,-999"/>
<polygon fill="black" stroke="black" points="973.36,-1000.9 982.52,-1006.22 978.67,-996.35 973.36,-1000.9"/>
</g>
<!-- smt&#45;&gt;types -->
<g id="edge143" class="edge">
<title>smt&#45;&gt;types</title>
<path fill="none" stroke="black" d="M733.66,-777.47C749.57,-773.42 770.33,-768.57 789,-765.56 880.92,-750.75 904.52,-746.56 997.62,-746.56 997.62,-746.56 997.62,-746.56 1215.25,-746.56 1287.71,-746.56 1321.01,-769.15 1376.5,-722.56 1423.24,-683.32 1434.92,-607.81 1437.73,-566.08"/>
<polygon fill="black" stroke="black" points="1441.21,-566.46 1438.24,-556.29 1434.22,-566.09 1441.21,-566.46"/>
</g>
<!-- spectec&#45;&gt;grammar -->
<g id="edge144" class="edge">
<title>spectec&#45;&gt;grammar</title>
<path fill="none" stroke="black" d="M892.44,-657.91C909.86,-655.54 931.33,-652.61 950.33,-650.02"/>
<polygon fill="black" stroke="black" points="950.54,-653.52 959.98,-648.7 949.6,-646.58 950.54,-653.52"/>
</g>
<!-- store&#45;&gt;hash -->
<g id="edge145" class="edge">
<title>store&#45;&gt;hash</title>
<path fill="none" stroke="black" d="M718.82,-1722.44C744.71,-1681.42 807.93,-1581.29 838.82,-1532.37"/>
<polygon fill="black" stroke="black" points="841.7,-1534.36 844.08,-1524.03 835.79,-1530.62 841.7,-1534.36"/>
</g>
<!-- store&#45;&gt;json -->
<g id="edge146" class="edge">
<title>store&#45;&gt;json</title>
<path fill="none" stroke="black" d="M715.05,-1759.06C730.7,-1796.06 766.69,-1877.35 789,-1897.56 797.52,-1905.29 808.54,-1910.94 819.18,-1915.01"/>
<polygon fill="black" stroke="black" points="817.99,-1918.3 828.58,-1918.21 820.25,-1911.67 817.99,-1918.3"/>
</g>
<!-- store&#45;&gt;sqlite -->
<g id="edge147" class="edge">
<title>store&#45;&gt;sqlite</title>
<path fill="none" stroke="black" d="M733.67,-1747.27C757.43,-1753.33 792.65,-1762.31 819.27,-1769.1"/>
<polygon fill="black" stroke="black" points="818.07,-1772.41 828.63,-1771.49 819.8,-1765.62 818.07,-1772.41"/>
</g>
<!-- tcb&#45;db -->
<g id="node54" class="node">
<title>tcb&#45;db</title>
<polygon fill="none" stroke="black" points="736.5,-1942.56 676.25,-1942.56 676.25,-1906.56 736.5,-1906.56 736.5,-1942.56"/>
<text text-anchor="middle" x="706.38" y="-1920.26" font-family="sans-serif" font-size="14.00">tcb&#45;db</text>
</g>
<!-- tcb&#45;db&#45;&gt;json -->
<g id="edge148" class="edge">
<title>tcb&#45;db&#45;&gt;json</title>
<path fill="none" stroke="black" d="M736.81,-1924.56C760.24,-1924.56 793.19,-1924.56 818.57,-1924.56"/>
<polygon fill="black" stroke="black" points="818.48,-1928.06 828.48,-1924.56 818.48,-1921.06 818.48,-1928.06"/>
</g>
<!-- tcb&#45;db&#45;&gt;sqlite -->
<g id="edge149" class="edge">
<title>tcb&#45;db&#45;&gt;sqlite</title>
<path fill="none" stroke="black" d="M736.75,-1909.83C742.48,-1906.25 748.19,-1902.12 753,-1897.56 773.94,-1877.72 770.51,-1865.7 789,-1843.56 800.51,-1829.78 814.64,-1815.78 826.98,-1804.33"/>
<polygon fill="black" stroke="black" points="829.04,-1807.18 834.06,-1797.86 824.32,-1802.01 829.04,-1807.18"/>
</g>
<!-- wasm&#45;build&#45;guest -->
<g id="node57" class="node">
<title>wasm&#45;build&#45;guest</title>
<polygon fill="none" stroke="black" points="925.75,-2078.56 789,-2078.56 789,-2042.56 925.75,-2042.56 925.75,-2078.56"/>
<text text-anchor="middle" x="857.38" y="-2056.26" font-family="sans-serif" font-size="14.00">wasm&#45;build&#45;guest</text>
</g>
<!-- wasm&#45;build&#45;guest&#45;&gt;wasm -->
<g id="edge150" class="edge">
<title>wasm&#45;build&#45;guest&#45;&gt;wasm</title>
<path fill="none" stroke="black" d="M925.96,-2049.4C937.64,-2047.47 949.4,-2045.53 959.92,-2043.79"/>
<polygon fill="black" stroke="black" points="960.4,-2047.26 969.7,-2042.18 959.26,-2040.35 960.4,-2047.26"/>
</g>
<!-- wasm&#45;spec -->
<g id="node58" class="node">
<title>wasm&#45;spec</title>
<polygon fill="none" stroke="black" points="753,-2116.56 659.75,-2116.56 659.75,-2080.56 753,-2080.56 753,-2116.56"/>
<text text-anchor="middle" x="706.38" y="-2094.26" font-family="sans-serif" font-size="14.00">wasm&#45;spec</text>
</g>
<!-- wasm&#45;spec&#45;&gt;hash -->
<g id="edge151" class="edge">
<title>wasm&#45;spec&#45;&gt;hash</title>
<path fill="none" stroke="black" d="M713.87,-2080.2C723.47,-2052.58 741.53,-1998.55 753,-1951.56 774.43,-1863.82 769.1,-1839.66 789,-1751.56 806.93,-1672.19 833.67,-1580.03 847.45,-1533.96"/>
<polygon fill="black" stroke="black" points="850.78,-1535.05 850.31,-1524.46 844.07,-1533.03 850.78,-1535.05"/>
</g>
<!-- wasm&#45;spec&#45;&gt;wasm -->
<g id="edge152" class="edge">
<title>wasm&#45;spec&#45;&gt;wasm</title>
<path fill="none" stroke="black" d="M753.5,-2103.45C798.67,-2106.59 868.81,-2107.01 925.75,-2087.56 941.34,-2082.24 956.61,-2072.46 969.04,-2062.96"/>
<polygon fill="black" stroke="black" points="971.15,-2065.75 976.77,-2056.76 966.77,-2060.29 971.15,-2065.75"/>
</g>
<!-- wasm&#45;store&#45;&gt;json -->
<g id="edge153" class="edge">
<title>wasm&#45;store&#45;&gt;json</title>
<path fill="none" stroke="black" d="M624.07,-2006.16C679.02,-1986.86 769.12,-1955.21 819.44,-1937.54"/>
<polygon fill="black" stroke="black" points="820.44,-1940.89 828.71,-1934.28 818.12,-1934.29 820.44,-1940.89"/>
</g>
<!-- wasm&#45;store&#45;&gt;store -->
<g id="edge154" class="edge">
<title>wasm&#45;store&#45;&gt;store</title>
<path fill="none" stroke="black" d="M585.58,-2004.49C607.24,-1956.76 666.15,-1826.99 692.42,-1769.1"/>
<polygon fill="black" stroke="black" points="695.5,-1770.78 696.45,-1760.22 689.13,-1767.88 695.5,-1770.78"/>
</g>
<!-- wasm&#45;store&#45;&gt;wasm -->
<g id="edge155" class="edge">
<title>wasm&#45;store&#45;&gt;wasm</title>
<path fill="none" stroke="black" d="M585.63,-2040.92C597.83,-2065.49 623.22,-2108 659.75,-2125.56 700.45,-2145.13 898.55,-2123.36 925.75,-2110.56 947.14,-2100.5 965.69,-2081.2 978.59,-2064.98"/>
<polygon fill="black" stroke="black" points="981.33,-2067.16 984.59,-2057.08 975.76,-2062.93 981.33,-2067.16"/>
</g>
<!-- web&#45;kernel -->
<g id="node60" class="node">
<title>web&#45;kernel</title>
<polygon fill="none" stroke="black" points="369,-317.56 277.25,-317.56 277.25,-281.56 369,-281.56 369,-317.56"/>
<text text-anchor="middle" x="323.12" y="-295.26" font-family="sans-serif" font-size="14.00">web&#45;kernel</text>
</g>
<!-- web&#45;kernel&#45;&gt;haskell -->
<g id="edge156" class="edge">
<title>web&#45;kernel&#45;&gt;haskell</title>
<path fill="none" stroke="black" d="M369.2,-299.56C381.23,-299.56 394.19,-299.56 406.05,-299.56"/>
<polygon fill="black" stroke="black" points="405.96,-303.06 415.96,-299.56 405.96,-296.06 405.96,-303.06"/>
</g>
<!-- web&#45;kernel&#45;&gt;hol&#45;api -->
<g id="edge157" class="edge">
<title>web&#45;kernel&#45;&gt;hol&#45;api</title>
<path fill="none" stroke="black" d="M369.33,-281.39C416.19,-262.55 488.8,-233.37 534.13,-215.14"/>
<polygon fill="black" stroke="black" points="535.38,-218.41 543.36,-211.43 532.77,-211.92 535.38,-218.41"/>
</g>
<!-- web&#45;kernel&#45;&gt;kernel -->
<g id="edge158" class="edge">
<title>web&#45;kernel&#45;&gt;kernel</title>
<path fill="none" stroke="black" d="M330.46,-317.85C364.3,-415.5 523.75,-875.59 565.4,-995.78"/>
<polygon fill="black" stroke="black" points="561.98,-996.6 568.56,-1004.9 568.59,-994.3 561.98,-996.6"/>
</g>
</g>
</svg>
