<?xml version="1.0" encoding="UTF-8" standalone="no"?>
<!DOCTYPE svg PUBLIC "-//W3C//DTD SVG 1.1//EN"
 "http://www.w3.org/Graphics/SVG/1.1/DTD/svg11.dtd">
<!-- Generated by graphviz version 12.2.1 (0)
 -->
<!-- Title: deps Pages: 1 -->
<svg width="1475pt" height="2310pt"
 viewBox="0.00 0.00 1474.50 2309.87" xmlns="http://www.w3.org/2000/svg" xmlns:xlink="http://www.w3.org/1999/xlink">
<g id="graph0" class="graph" transform="scale(1 1) rotate(0) translate(4 2305.87)">
<title>deps</title>
<polygon fill="white" stroke="none" points="-4,4 -4,-2305.87 1470.5,-2305.87 1470.5,4 -4,4"/>
<!-- covalence -->
<g id="node1" class="node">
<title>covalence</title>
<polygon fill="none" stroke="black" points="102.62,-917.87 18.38,-917.87 18.38,-881.87 102.62,-881.87 102.62,-917.87"/>
<text text-anchor="middle" x="60.5" y="-895.57" font-family="sans-serif" font-size="14.00">covalence</text>
</g>
<!-- client -->
<g id="node5" class="node">
<title>client</title>
<polygon fill="none" stroke="black" points="350.12,-1001.87 296.12,-1001.87 296.12,-965.87 350.12,-965.87 350.12,-1001.87"/>
<text text-anchor="middle" x="323.12" y="-979.57" font-family="sans-serif" font-size="14.00">client</text>
</g>
<!-- covalence&#45;&gt;client -->
<g id="edge1" class="edge">
<title>covalence&#45;&gt;client</title>
<path fill="none" stroke="black" d="M103,-918.18C109.07,-921.01 115.23,-923.97 121,-926.87 137.35,-935.11 139.89,-940.36 157,-946.87 199.24,-962.96 250.36,-973.07 284.42,-978.59"/>
<polygon fill="black" stroke="black" points="283.8,-982.03 294.21,-980.11 284.87,-975.11 283.8,-982.03"/>
</g>
<!-- fuse -->
<g id="node11" class="node">
<title>fuse</title>
<polygon fill="none" stroke="black" points="603.38,-719.87 549.38,-719.87 549.38,-683.87 603.38,-683.87 603.38,-719.87"/>
<text text-anchor="middle" x="576.38" y="-697.57" font-family="sans-serif" font-size="14.00">fuse</text>
</g>
<!-- covalence&#45;&gt;fuse -->
<g id="edge2" class="edge">
<title>covalence&#45;&gt;fuse</title>
<path fill="none" stroke="black" d="M72.15,-881.4C87.53,-856.46 118.41,-812.57 157,-789.87 282.41,-716.13 461.05,-703.72 537.88,-701.96"/>
<polygon fill="black" stroke="black" points="537.87,-705.46 547.8,-701.78 537.74,-698.46 537.87,-705.46"/>
</g>
<!-- git -->
<g id="node12" class="node">
<title>git</title>
<polygon fill="none" stroke="black" points="476,-383.87 422,-383.87 422,-347.87 476,-347.87 476,-383.87"/>
<text text-anchor="middle" x="449" y="-361.57" font-family="sans-serif" font-size="14.00">git</text>
</g>
<!-- covalence&#45;&gt;git -->
<g id="edge3" class="edge">
<title>covalence&#45;&gt;git</title>
<path fill="none" stroke="black" d="M65.9,-881.55C82.43,-816.32 146.63,-592.43 277.25,-463.87 316.49,-425.25 373.96,-396.43 411.18,-380.37"/>
<polygon fill="black" stroke="black" points="412.32,-383.69 420.18,-376.58 409.6,-377.24 412.32,-383.69"/>
</g>
<!-- hash -->
<g id="node15" class="node">
<title>hash</title>
<polygon fill="none" stroke="black" points="884.38,-817.87 830.38,-817.87 830.38,-781.87 884.38,-781.87 884.38,-817.87"/>
<text text-anchor="middle" x="857.38" y="-795.57" font-family="sans-serif" font-size="14.00">hash</text>
</g>
<!-- covalence&#45;&gt;hash -->
<g id="edge4" class="edge">
<title>covalence&#45;&gt;hash</title>
<path fill="none" stroke="black" d="M103.01,-915.56C109.34,-918.83 115.56,-922.6 121,-926.87 141.41,-942.92 135.67,-958.08 157,-972.87 235.66,-1027.43 274.11,-1023.5 369,-1010.87 485.28,-995.41 512.53,-979.16 623.75,-941.87 627.42,-940.64 749.7,-891.9 753,-889.87 782.3,-871.93 811.43,-845.6 831.26,-826.05"/>
<polygon fill="black" stroke="black" points="833.51,-828.76 838.1,-819.21 828.56,-823.81 833.51,-828.76"/>
</g>
<!-- hol -->
<g id="node17" class="node">
<title>hol</title>
<polygon fill="none" stroke="black" points="884.38,-2023.87 830.38,-2023.87 830.38,-1987.87 884.38,-1987.87 884.38,-2023.87"/>
<text text-anchor="middle" x="857.38" y="-2001.57" font-family="sans-serif" font-size="14.00">hol</text>
</g>
<!-- covalence&#45;&gt;hol -->
<g id="edge5" class="edge">
<title>covalence&#45;&gt;hol</title>
<path fill="none" stroke="black" d="M103.04,-911.51C110.08,-915.3 116.55,-920.3 121,-926.87 170.56,-1000.1 145.33,-1634.22 157,-1721.87 192.38,-1987.55 54.1,-2301.87 322.12,-2301.87 322.12,-2301.87 322.12,-2301.87 577.38,-2301.87 723.47,-2301.87 815.64,-2108.57 845.64,-2034.39"/>
<polygon fill="black" stroke="black" points="848.79,-2035.94 849.21,-2025.35 842.28,-2033.37 848.79,-2035.94"/>
</g>
<!-- lsp -->
<g id="node30" class="node">
<title>lsp</title>
<polygon fill="none" stroke="black" points="884.38,-983.87 830.38,-983.87 830.38,-947.87 884.38,-947.87 884.38,-983.87"/>
<text text-anchor="middle" x="857.38" y="-961.57" font-family="sans-serif" font-size="14.00">lsp</text>
</g>
<!-- covalence&#45;&gt;lsp -->
<g id="edge6" class="edge">
<title>covalence&#45;&gt;lsp</title>
<path fill="none" stroke="black" d="M102.92,-912.36C109.8,-916.06 116.23,-920.81 121,-926.87 173.87,-994.08 91.12,-1061.36 157,-1115.87 260.77,-1201.74 690.86,-1034.38 819.72,-981.29"/>
<polygon fill="black" stroke="black" points="820.91,-984.59 828.81,-977.53 818.23,-978.12 820.91,-984.59"/>
</g>
<!-- object -->
<g id="node33" class="node">
<title>object</title>
<polygon fill="none" stroke="black" points="735,-657.87 677.75,-657.87 677.75,-621.87 735,-621.87 735,-657.87"/>
<text text-anchor="middle" x="706.38" y="-635.57" font-family="sans-serif" font-size="14.00">object</text>
</g>
<!-- covalence&#45;&gt;object -->
<g id="edge7" class="edge">
<title>covalence&#45;&gt;object</title>
<path fill="none" stroke="black" d="M78.7,-881.62C96.56,-863.81 126.15,-837.35 157,-822.87 348.58,-733 439.45,-832.85 623.75,-728.87 650.11,-714 672.7,-687.6 687.39,-667.4"/>
<polygon fill="black" stroke="black" points="690.19,-669.49 693.08,-659.3 684.47,-665.47 690.19,-669.49"/>
</g>
<!-- opentheory -->
<g id="node34" class="node">
<title>opentheory</title>
<polygon fill="none" stroke="black" points="368.62,-2251.87 277.62,-2251.87 277.62,-2215.87 368.62,-2215.87 368.62,-2251.87"/>
<text text-anchor="middle" x="323.12" y="-2229.57" font-family="sans-serif" font-size="14.00">opentheory</text>
</g>
<!-- covalence&#45;&gt;opentheory -->
<g id="edge8" class="edge">
<title>covalence&#45;&gt;opentheory</title>
<path fill="none" stroke="black" d="M103.07,-911.86C110.02,-915.62 116.44,-920.51 121,-926.87 168.7,-993.51 147.62,-1212.47 157,-1293.87 203.6,-1698.28 67.43,-1853.03 277.25,-2201.87 278.53,-2204.01 280.02,-2206.04 281.65,-2207.96"/>
<polygon fill="black" stroke="black" points="278.91,-2210.18 288.51,-2214.67 283.81,-2205.18 278.91,-2210.18"/>
</g>
<!-- proto -->
<g id="node38" class="node">
<title>proto</title>
<polygon fill="none" stroke="black" points="350.12,-947.87 296.12,-947.87 296.12,-911.87 350.12,-911.87 350.12,-947.87"/>
<text text-anchor="middle" x="323.12" y="-925.57" font-family="sans-serif" font-size="14.00">proto</text>
</g>
<!-- covalence&#45;&gt;proto -->
<g id="edge9" class="edge">
<title>covalence&#45;&gt;proto</title>
<path fill="none" stroke="black" d="M103.11,-916.52C119.61,-922.28 138.92,-928.01 157,-930.87 200.44,-937.75 251.12,-936.02 284.75,-933.54"/>
<polygon fill="black" stroke="black" points="284.71,-937.05 294.39,-932.76 284.14,-930.08 284.71,-937.05"/>
</g>
<!-- repl -->
<g id="node44" class="node">
<title>repl</title>
<polygon fill="none" stroke="black" points="350.12,-665.87 296.12,-665.87 296.12,-629.87 350.12,-629.87 350.12,-665.87"/>
<text text-anchor="middle" x="323.12" y="-643.57" font-family="sans-serif" font-size="14.00">repl</text>
</g>
<!-- covalence&#45;&gt;repl -->
<g id="edge10" class="edge">
<title>covalence&#45;&gt;repl</title>
<path fill="none" stroke="black" d="M66.55,-881.55C77.34,-845.52 105.95,-764.89 157,-717.87 193.37,-684.38 248.17,-665.5 284.53,-656"/>
<polygon fill="black" stroke="black" points="285.31,-659.41 294.17,-653.6 283.62,-652.62 285.31,-659.41"/>
</g>
<!-- serve -->
<g id="node47" class="node">
<title>serve</title>
<polygon fill="none" stroke="black" points="226.12,-867.87 172.12,-867.87 172.12,-831.87 226.12,-831.87 226.12,-867.87"/>
<text text-anchor="middle" x="199.12" y="-845.57" font-family="sans-serif" font-size="14.00">serve</text>
</g>
<!-- covalence&#45;&gt;serve -->
<g id="edge11" class="edge">
<title>covalence&#45;&gt;serve</title>
<path fill="none" stroke="black" d="M102.86,-884.74C121.46,-877.93 143.24,-869.96 161.27,-863.36"/>
<polygon fill="black" stroke="black" points="162.35,-866.69 170.54,-859.97 159.94,-860.12 162.35,-866.69"/>
</g>
<!-- shell -->
<g id="node49" class="node">
<title>shell</title>
<polygon fill="none" stroke="black" points="476,-1246.87 422,-1246.87 422,-1210.87 476,-1210.87 476,-1246.87"/>
<text text-anchor="middle" x="449" y="-1224.57" font-family="sans-serif" font-size="14.00">shell</text>
</g>
<!-- covalence&#45;&gt;shell -->
<g id="edge12" class="edge">
<title>covalence&#45;&gt;shell</title>
<path fill="none" stroke="black" d="M102.88,-912C109.85,-915.74 116.33,-920.6 121,-926.87 191.97,-1022.22 72.59,-1108.19 157,-1191.87 224.61,-1258.91 348.66,-1247.77 410.67,-1236.88"/>
<polygon fill="black" stroke="black" points="411.17,-1240.35 420.36,-1235.08 409.89,-1233.47 411.17,-1240.35"/>
</g>
<!-- store -->
<g id="node53" class="node">
<title>store</title>
<polygon fill="none" stroke="black" points="733.38,-231.87 679.38,-231.87 679.38,-195.87 733.38,-195.87 733.38,-231.87"/>
<text text-anchor="middle" x="706.38" y="-209.57" font-family="sans-serif" font-size="14.00">store</text>
</g>
<!-- covalence&#45;&gt;store -->
<g id="edge13" class="edge">
<title>covalence&#45;&gt;store</title>
<path fill="none" stroke="black" d="M62.11,-881.39C64.81,-821.98 79.4,-632.23 157,-501.87 261.77,-325.88 329.74,-277.25 529,-229.87 575.9,-218.73 631.5,-215.23 667.56,-214.2"/>
<polygon fill="black" stroke="black" points="667.57,-217.7 677.49,-213.97 667.41,-210.7 667.57,-217.7"/>
</g>
<!-- wasm -->
<g id="node56" class="node">
<title>wasm</title>
<polygon fill="none" stroke="black" points="1025.75,-511.87 971.5,-511.87 971.5,-475.87 1025.75,-475.87 1025.75,-511.87"/>
<text text-anchor="middle" x="998.62" y="-489.57" font-family="sans-serif" font-size="14.00">wasm</text>
</g>
<!-- covalence&#45;&gt;wasm -->
<g id="edge14" class="edge">
<title>covalence&#45;&gt;wasm</title>
<path fill="none" stroke="black" d="M64.96,-881.54C82.22,-796.19 167.84,-437.79 405,-338.87 549.79,-278.49 623.36,-309.54 753,-397.87 774.17,-412.3 767.41,-429.1 789,-442.87 841.98,-476.68 915.63,-488.08 959.77,-491.92"/>
<polygon fill="black" stroke="black" points="959.38,-495.4 969.62,-492.68 959.92,-488.42 959.38,-495.4"/>
</g>
<!-- acset -->
<g id="node2" class="node">
<title>acset</title>
<polygon fill="none" stroke="black" points="884.38,-1075.87 830.38,-1075.87 830.38,-1039.87 884.38,-1039.87 884.38,-1075.87"/>
<text text-anchor="middle" x="857.38" y="-1053.57" font-family="sans-serif" font-size="14.00">acset</text>
</g>
<!-- alethe -->
<g id="node3" class="node">
<title>alethe</title>
<polygon fill="none" stroke="black" points="604.62,-1381.87 548.12,-1381.87 548.12,-1345.87 604.62,-1345.87 604.62,-1381.87"/>
<text text-anchor="middle" x="576.38" y="-1359.57" font-family="sans-serif" font-size="14.00">alethe</text>
</g>
<!-- core -->
<g id="node6" class="node">
<title>core</title>
<polygon fill="#ffd6d6" stroke="black" points="1025.62,-1958.87 971.62,-1958.87 971.62,-1922.87 1025.62,-1922.87 1025.62,-1958.87"/>
<text text-anchor="middle" x="998.62" y="-1936.57" font-family="sans-serif" font-size="14.00">core</text>
</g>
<!-- alethe&#45;&gt;core -->
<g id="edge15" class="edge">
<title>alethe&#45;&gt;core</title>
<path fill="none" stroke="black" d="M594.21,-1382.35C604.44,-1394.64 616.82,-1411.64 623.75,-1428.87 664.99,-1531.39 610.87,-1575.77 659.75,-1674.87 696.21,-1748.8 718.54,-1765.11 789,-1807.87 843.24,-1840.8 873.36,-1813.08 925.75,-1848.87 949.8,-1865.31 969.5,-1892.29 982.15,-1912.79"/>
<polygon fill="black" stroke="black" points="979.06,-1914.44 987.18,-1921.24 985.08,-1910.86 979.06,-1914.44"/>
</g>
<!-- hol&#45;eval -->
<g id="node19" class="node">
<title>hol&#45;eval</title>
<polygon fill="none" stroke="black" points="892.38,-1763.87 822.38,-1763.87 822.38,-1727.87 892.38,-1727.87 892.38,-1763.87"/>
<text text-anchor="middle" x="857.38" y="-1741.57" font-family="sans-serif" font-size="14.00">hol&#45;eval</text>
</g>
<!-- alethe&#45;&gt;hol&#45;eval -->
<g id="edge16" class="edge">
<title>alethe&#45;&gt;hol&#45;eval</title>
<path fill="none" stroke="black" d="M604.74,-1377.99C611.84,-1382.81 618.85,-1388.8 623.75,-1395.87 661.32,-1450.1 625.25,-1483.64 659.75,-1539.87 688.46,-1586.67 717.72,-1578.82 753,-1620.87 772.99,-1644.7 769.64,-1656.54 789,-1680.87 800.1,-1694.83 814.05,-1708.76 826.38,-1720.12"/>
<polygon fill="black" stroke="black" points="823.71,-1722.43 833.48,-1726.53 828.41,-1717.23 823.71,-1722.43"/>
</g>
<!-- init -->
<g id="node21" class="node">
<title>init</title>
<polygon fill="none" stroke="black" points="733.38,-1665.87 679.38,-1665.87 679.38,-1629.87 733.38,-1629.87 733.38,-1665.87"/>
<text text-anchor="middle" x="706.38" y="-1643.57" font-family="sans-serif" font-size="14.00">init</text>
</g>
<!-- alethe&#45;&gt;init -->
<g id="edge17" class="edge">
<title>alethe&#45;&gt;init</title>
<path fill="none" stroke="black" d="M604.97,-1377.83C612.07,-1382.65 619.03,-1388.68 623.75,-1395.87 669.01,-1464.8 628.67,-1501.5 659.75,-1577.87 665.83,-1592.82 675.25,-1608 683.95,-1620.38"/>
<polygon fill="black" stroke="black" points="681.09,-1622.41 689.8,-1628.43 686.75,-1618.29 681.09,-1622.41"/>
</g>
<!-- sexp -->
<g id="node48" class="node">
<title>sexp</title>
<polygon fill="none" stroke="black" points="1025.62,-1270.87 971.62,-1270.87 971.62,-1234.87 1025.62,-1234.87 1025.62,-1270.87"/>
<text text-anchor="middle" x="998.62" y="-1248.57" font-family="sans-serif" font-size="14.00">sexp</text>
</g>
<!-- alethe&#45;&gt;sexp -->
<g id="edge18" class="edge">
<title>alethe&#45;&gt;sexp</title>
<path fill="none" stroke="black" d="M604.87,-1358.5C676.08,-1344.44 865.19,-1306.3 925.75,-1285.87 937.48,-1281.92 949.87,-1276.65 960.99,-1271.49"/>
<polygon fill="black" stroke="black" points="962.32,-1274.74 969.84,-1267.28 959.31,-1268.42 962.32,-1274.74"/>
</g>
<!-- smt -->
<g id="node50" class="node">
<title>smt</title>
<polygon fill="none" stroke="black" points="733.38,-1411.87 679.38,-1411.87 679.38,-1375.87 733.38,-1375.87 733.38,-1411.87"/>
<text text-anchor="middle" x="706.38" y="-1389.57" font-family="sans-serif" font-size="14.00">smt</text>
</g>
<!-- alethe&#45;&gt;smt -->
<g id="edge19" class="edge">
<title>alethe&#45;&gt;smt</title>
<path fill="none" stroke="black" d="M604.83,-1370.31C623.34,-1374.65 647.98,-1380.42 668.24,-1385.17"/>
<polygon fill="black" stroke="black" points="667.26,-1388.54 677.8,-1387.41 668.86,-1381.72 667.26,-1388.54"/>
</g>
<!-- types -->
<g id="node55" class="node">
<title>types</title>
<polygon fill="#ffd6d6" stroke="black" points="1466.5,-1759.87 1412.5,-1759.87 1412.5,-1723.87 1466.5,-1723.87 1466.5,-1759.87"/>
<text text-anchor="middle" x="1439.5" y="-1737.57" font-family="sans-serif" font-size="14.00">types</text>
</g>
<!-- alethe&#45;&gt;types -->
<g id="edge20" class="edge">
<title>alethe&#45;&gt;types</title>
<path fill="none" stroke="black" d="M605.12,-1375.96C611.45,-1379.17 618,-1382.87 623.75,-1386.87 641.81,-1399.46 643.69,-1405.83 659.75,-1420.87 716.97,-1474.45 718.19,-1507.26 789,-1540.87 873.57,-1581.02 904.01,-1569.87 997.62,-1569.87 997.62,-1569.87 997.62,-1569.87 1215.25,-1569.87 1308.63,-1569.87 1386.86,-1665.47 1420.63,-1714.13"/>
<polygon fill="black" stroke="black" points="1417.6,-1715.9 1426.11,-1722.22 1423.4,-1711.97 1417.6,-1715.9"/>
</g>
<!-- arrow -->
<g id="node4" class="node">
<title>arrow</title>
<polygon fill="none" stroke="black" points="603.38,-627.87 549.38,-627.87 549.38,-591.87 603.38,-591.87 603.38,-627.87"/>
<text text-anchor="middle" x="576.38" y="-605.57" font-family="sans-serif" font-size="14.00">arrow</text>
</g>
<!-- client&#45;&gt;hash -->
<g id="edge21" class="edge">
<title>client&#45;&gt;hash</title>
<path fill="none" stroke="black" d="M350.32,-979.74C403.08,-970.97 525.49,-948.45 623.75,-913.87 683.85,-892.72 695.82,-879.97 753,-851.87 775.31,-840.91 800.21,-828.4 819.98,-818.39"/>
<polygon fill="black" stroke="black" points="821.41,-821.59 828.75,-813.95 818.25,-815.35 821.41,-821.59"/>
</g>
<!-- client&#45;&gt;shell -->
<g id="edge22" class="edge">
<title>client&#45;&gt;shell</title>
<path fill="none" stroke="black" d="M338.31,-1002.23C348.19,-1015.83 360.99,-1035.16 369,-1053.87 395.63,-1116.11 365.43,-1146.95 405,-1201.87 407.16,-1204.88 409.78,-1207.62 412.63,-1210.11"/>
<polygon fill="black" stroke="black" points="410.37,-1212.8 420.5,-1215.92 414.53,-1207.17 410.37,-1212.8"/>
</g>
<!-- client&#45;&gt;store -->
<g id="edge23" class="edge">
<title>client&#45;&gt;store</title>
<path fill="none" stroke="black" d="M350.46,-971.09C357,-967.13 363.67,-962.34 369,-956.87 469.58,-853.69 420.48,-769.68 529,-674.87 563.17,-645.02 595.59,-672.45 623.75,-636.87 690.41,-552.64 638.8,-503.23 659.75,-397.87 670.73,-342.68 687.39,-279.13 697.25,-243.01"/>
<polygon fill="black" stroke="black" points="700.52,-244.32 699.8,-233.75 693.77,-242.46 700.52,-244.32"/>
</g>
<!-- pure -->
<g id="node39" class="node">
<title>pure</title>
<polygon fill="#ffd6d6" stroke="black" points="1241.25,-1805.87 1187.25,-1805.87 1187.25,-1769.87 1241.25,-1769.87 1241.25,-1805.87"/>
<text text-anchor="middle" x="1214.25" y="-1783.57" font-family="sans-serif" font-size="14.00">pure</text>
</g>
<!-- core&#45;&gt;pure -->
<g id="edge24" class="edge">
<title>core&#45;&gt;pure</title>
<path fill="none" stroke="black" d="M1025.39,-1922.42C1063.67,-1895.01 1135.63,-1843.47 1178.52,-1812.75"/>
<polygon fill="black" stroke="black" points="1180.4,-1815.71 1186.49,-1807.04 1176.32,-1810.02 1180.4,-1815.71"/>
</g>
<!-- pure&#45;eval -->
<g id="node40" class="node">
<title>pure&#45;eval</title>
<polygon fill="#ffd6d6" stroke="black" points="1151.25,-1763.87 1071.5,-1763.87 1071.5,-1727.87 1151.25,-1727.87 1151.25,-1763.87"/>
<text text-anchor="middle" x="1111.38" y="-1741.57" font-family="sans-serif" font-size="14.00">pure&#45;eval</text>
</g>
<!-- core&#45;&gt;pure&#45;eval -->
<g id="edge25" class="edge">
<title>core&#45;&gt;pure&#45;eval</title>
<path fill="none" stroke="black" d="M1010.04,-1922.53C1029.46,-1888.34 1071.3,-1814.68 1094.34,-1774.11"/>
<polygon fill="black" stroke="black" points="1097.26,-1776.05 1099.16,-1765.63 1091.17,-1772.6 1097.26,-1776.05"/>
</g>
<!-- core&#45;&gt;types -->
<g id="edge26" class="edge">
<title>core&#45;&gt;types</title>
<path fill="none" stroke="black" d="M1025.84,-1941.11C1091.59,-1940.41 1266.1,-1930.37 1376.5,-1847.87 1402.3,-1828.59 1419.24,-1795.16 1428.79,-1770.98"/>
<polygon fill="black" stroke="black" points="1432.04,-1772.3 1432.25,-1761.71 1425.48,-1769.85 1432.04,-1772.3"/>
</g>
<!-- core&#45;test&#45;guest -->
<g id="node7" class="node">
<title>core&#45;test&#45;guest</title>
<polygon fill="none" stroke="black" points="121,-971.87 0,-971.87 0,-935.87 121,-935.87 121,-971.87"/>
<text text-anchor="middle" x="60.5" y="-949.57" font-family="sans-serif" font-size="14.00">core&#45;test&#45;guest</text>
</g>
<!-- crypto&#45;sig -->
<g id="node8" class="node">
<title>crypto&#45;sig</title>
<polygon fill="none" stroke="black" points="241.25,-235.87 157,-235.87 157,-199.87 241.25,-199.87 241.25,-235.87"/>
<text text-anchor="middle" x="199.12" y="-213.57" font-family="sans-serif" font-size="14.00">crypto&#45;sig</text>
</g>
<!-- egglog -->
<g id="node9" class="node">
<title>egglog</title>
<polygon fill="none" stroke="black" points="887.88,-1503.87 826.88,-1503.87 826.88,-1467.87 887.88,-1467.87 887.88,-1503.87"/>
<text text-anchor="middle" x="857.38" y="-1481.57" font-family="sans-serif" font-size="14.00">egglog</text>
</g>
<!-- egglog&#45;&gt;sexp -->
<g id="edge27" class="edge">
<title>egglog&#45;&gt;sexp</title>
<path fill="none" stroke="black" d="M888.08,-1477.5C901.15,-1472.5 915.76,-1464.92 925.75,-1453.87 970.42,-1404.49 987.8,-1325.41 994.18,-1282.65"/>
<polygon fill="black" stroke="black" points="997.63,-1283.24 995.53,-1272.85 990.7,-1282.28 997.63,-1283.24"/>
</g>
<!-- egglog&#45;&gt;types -->
<g id="edge28" class="edge">
<title>egglog&#45;&gt;types</title>
<path fill="none" stroke="black" d="M888.24,-1486.66C935.42,-1487.82 1030.08,-1489.87 1110.38,-1489.87 1110.38,-1489.87 1110.38,-1489.87 1215.25,-1489.87 1287.99,-1489.87 1322.61,-1469.02 1376.5,-1517.87 1405.27,-1543.95 1425.82,-1657.41 1434.25,-1712.13"/>
<polygon fill="black" stroke="black" points="1430.79,-1712.61 1435.73,-1721.98 1437.71,-1711.57 1430.79,-1712.61"/>
</g>
<!-- forsp -->
<g id="node10" class="node">
<title>forsp</title>
<polygon fill="none" stroke="black" points="476,-1192.87 422,-1192.87 422,-1156.87 476,-1156.87 476,-1192.87"/>
<text text-anchor="middle" x="449" y="-1170.57" font-family="sans-serif" font-size="14.00">forsp</text>
</g>
<!-- forsp&#45;&gt;hash -->
<g id="edge29" class="edge">
<title>forsp&#45;&gt;hash</title>
<path fill="none" stroke="black" d="M470.06,-1156.49C502.94,-1126.12 570.05,-1063.22 623.75,-1006.87 640.48,-989.32 639.99,-979.94 659.75,-965.87 696.21,-939.92 717.08,-954.57 753,-927.87 790.16,-900.25 821.71,-856.29 839.85,-827.76"/>
<polygon fill="black" stroke="black" points="842.81,-829.63 845.12,-819.29 836.86,-825.93 842.81,-829.63"/>
</g>
<!-- repl&#45;core -->
<g id="node45" class="node">
<title>repl&#45;core</title>
<polygon fill="none" stroke="black" points="615.5,-1473.87 537.25,-1473.87 537.25,-1437.87 615.5,-1437.87 615.5,-1473.87"/>
<text text-anchor="middle" x="576.38" y="-1451.57" font-family="sans-serif" font-size="14.00">repl&#45;core</text>
</g>
<!-- forsp&#45;&gt;repl&#45;core -->
<g id="edge30" class="edge">
<title>forsp&#45;&gt;repl&#45;core</title>
<path fill="none" stroke="black" d="M476.16,-1186.42C482.58,-1190.44 488.81,-1195.56 493,-1201.87 548.23,-1285.18 475.59,-1339.39 529,-1423.87 530.32,-1425.96 531.82,-1427.94 533.47,-1429.82"/>
<polygon fill="black" stroke="black" points="530.69,-1432 540.33,-1436.38 535.52,-1426.94 530.69,-1432"/>
</g>
<!-- forsp&#45;&gt;sexp -->
<g id="edge31" class="edge">
<title>forsp&#45;&gt;sexp</title>
<path fill="none" stroke="black" d="M476.36,-1178.07C548.46,-1186.9 754.91,-1212.77 925.75,-1239.87 937,-1241.66 949.2,-1243.79 960.3,-1245.81"/>
<polygon fill="black" stroke="black" points="959.43,-1249.21 969.9,-1247.57 960.7,-1242.32 959.43,-1249.21"/>
</g>
<!-- fuse&#45;&gt;hash -->
<g id="edge32" class="edge">
<title>fuse&#45;&gt;hash</title>
<path fill="none" stroke="black" d="M603.8,-697.84C639.19,-693.59 703.27,-689.96 753,-709.87 786.05,-723.11 815.78,-751.62 834.78,-773.03"/>
<polygon fill="black" stroke="black" points="832.08,-775.26 841.26,-780.55 837.39,-770.69 832.08,-775.26"/>
</g>
<!-- fuse&#45;&gt;object -->
<g id="edge33" class="edge">
<title>fuse&#45;&gt;object</title>
<path fill="none" stroke="black" d="M603.59,-689.18C621.9,-680.31 646.64,-668.32 667.14,-658.39"/>
<polygon fill="black" stroke="black" points="668.59,-661.58 676.06,-654.07 665.54,-655.28 668.59,-661.58"/>
</g>
<!-- fuse&#45;&gt;store -->
<g id="edge34" class="edge">
<title>fuse&#45;&gt;store</title>
<path fill="none" stroke="black" d="M603.82,-689.07C611.42,-684.12 618.95,-677.72 623.75,-669.87 687.4,-565.86 637.04,-517.68 659.75,-397.87 670.23,-342.58 687.07,-279.06 697.09,-242.98"/>
<polygon fill="black" stroke="black" points="700.35,-244.3 699.68,-233.72 693.61,-242.41 700.35,-244.3"/>
</g>
<!-- git&#45;&gt;hash -->
<g id="edge35" class="edge">
<title>git&#45;&gt;hash</title>
<path fill="none" stroke="black" d="M452.67,-384C463.16,-454.21 502.34,-705.47 529,-728.87 604.08,-794.8 656.85,-720.71 753,-747.87 776.43,-754.5 800.85,-766.5 820.07,-777.32"/>
<polygon fill="black" stroke="black" points="818.17,-780.26 828.58,-782.23 821.67,-774.2 818.17,-780.26"/>
</g>
<!-- git&#45;&gt;object -->
<g id="edge36" class="edge">
<title>git&#45;&gt;object</title>
<path fill="none" stroke="black" d="M476.27,-362.3C514.42,-358.73 584.84,-358.49 623.75,-397.87 690.29,-465.25 609.09,-527.87 659.75,-607.87 662.18,-611.72 665.26,-615.23 668.67,-618.4"/>
<polygon fill="black" stroke="black" points="666.45,-621.11 676.45,-624.64 670.83,-615.65 666.45,-621.11"/>
</g>
<!-- sqlite -->
<g id="node52" class="node">
<title>sqlite</title>
<polygon fill="none" stroke="black" points="884.38,-231.87 830.38,-231.87 830.38,-195.87 884.38,-195.87 884.38,-231.87"/>
<text text-anchor="middle" x="857.38" y="-209.57" font-family="sans-serif" font-size="14.00">sqlite</text>
</g>
<!-- git&#45;&gt;sqlite -->
<g id="edge37" class="edge">
<title>git&#45;&gt;sqlite</title>
<path fill="none" stroke="black" d="M476.35,-356.02C546.57,-329.76 738.33,-258.03 819.4,-227.7"/>
<polygon fill="black" stroke="black" points="820.53,-231.02 828.67,-224.24 818.07,-224.46 820.53,-231.02"/>
</g>
<!-- git&#45;&gt;store -->
<g id="edge38" class="edge">
<title>git&#45;&gt;store</title>
<path fill="none" stroke="black" d="M476.37,-350.18C522.36,-322.8 617.32,-266.29 669.34,-235.32"/>
<polygon fill="black" stroke="black" points="671.05,-238.38 677.85,-230.26 667.47,-232.36 671.05,-238.38"/>
</g>
<!-- grammar -->
<g id="node13" class="node">
<title>grammar</title>
<polygon fill="none" stroke="black" points="1035.5,-1652.87 961.75,-1652.87 961.75,-1616.87 1035.5,-1616.87 1035.5,-1652.87"/>
<text text-anchor="middle" x="998.62" y="-1630.57" font-family="sans-serif" font-size="14.00">grammar</text>
</g>
<!-- graph -->
<g id="node14" class="node">
<title>graph</title>
<polygon fill="none" stroke="black" points="733.38,-442.87 679.38,-442.87 679.38,-406.87 733.38,-406.87 733.38,-442.87"/>
<text text-anchor="middle" x="706.38" y="-420.57" font-family="sans-serif" font-size="14.00">graph</text>
</g>
<!-- graph&#45;&gt;hash -->
<g id="edge39" class="edge">
<title>graph&#45;&gt;hash</title>
<path fill="none" stroke="black" d="M714.66,-443.22C738.73,-503.78 815.77,-697.69 844.99,-771.23"/>
<polygon fill="black" stroke="black" points="841.6,-772.16 848.54,-780.16 848.1,-769.58 841.6,-772.16"/>
</g>
<!-- parse -->
<g id="node36" class="node">
<title>parse</title>
<polygon fill="none" stroke="black" points="1138.38,-1063.87 1084.38,-1063.87 1084.38,-1027.87 1138.38,-1027.87 1138.38,-1063.87"/>
<text text-anchor="middle" x="1111.38" y="-1041.57" font-family="sans-serif" font-size="14.00">parse</text>
</g>
<!-- graph&#45;&gt;parse -->
<g id="edge40" class="edge">
<title>graph&#45;&gt;parse</title>
<path fill="none" stroke="black" d="M733.64,-409.94C749.2,-401.96 769.6,-392.96 789,-388.87 901.44,-365.18 976.35,-368.36 1035.5,-466.87 1092.15,-561.22 1106.57,-912.12 1109.64,-1016.44"/>
<polygon fill="black" stroke="black" points="1106.13,-1016.23 1109.91,-1026.13 1113.13,-1016.03 1106.13,-1016.23"/>
</g>
<!-- rand -->
<g id="node43" class="node">
<title>rand</title>
<polygon fill="none" stroke="black" points="1025.62,-817.87 971.62,-817.87 971.62,-781.87 1025.62,-781.87 1025.62,-817.87"/>
<text text-anchor="middle" x="998.62" y="-795.57" font-family="sans-serif" font-size="14.00">rand</text>
</g>
<!-- hash&#45;&gt;rand -->
<g id="edge41" class="edge">
<title>hash&#45;&gt;rand</title>
<path fill="none" stroke="black" d="M884.57,-799.87C905.86,-799.87 936.19,-799.87 960.07,-799.87"/>
<polygon fill="black" stroke="black" points="960.04,-803.37 970.04,-799.87 960.04,-796.37 960.04,-803.37"/>
</g>
<!-- haskell -->
<g id="node16" class="node">
<title>haskell</title>
<polygon fill="none" stroke="black" points="480.25,-1988.87 417.75,-1988.87 417.75,-1952.87 480.25,-1952.87 480.25,-1988.87"/>
<text text-anchor="middle" x="449" y="-1966.57" font-family="sans-serif" font-size="14.00">haskell</text>
</g>
<!-- hol&#45;api -->
<g id="node18" class="node">
<title>hol&#45;api</title>
<polygon fill="none" stroke="black" points="607.62,-2034.87 545.12,-2034.87 545.12,-1998.87 607.62,-1998.87 607.62,-2034.87"/>
<text text-anchor="middle" x="576.38" y="-2012.57" font-family="sans-serif" font-size="14.00">hol&#45;api</text>
</g>
<!-- haskell&#45;&gt;hol&#45;api -->
<g id="edge42" class="edge">
<title>haskell&#45;&gt;hol&#45;api</title>
<path fill="none" stroke="black" d="M480.67,-1982.13C496.88,-1988.07 516.99,-1995.45 534.51,-2001.88"/>
<polygon fill="black" stroke="black" points="533.01,-2005.06 543.6,-2005.22 535.42,-1998.49 533.01,-2005.06"/>
</g>
<!-- haskell&#45;&gt;hol&#45;eval -->
<g id="edge43" class="edge">
<title>haskell&#45;&gt;hol&#45;eval</title>
<path fill="none" stroke="black" d="M473.52,-1952.47C511.29,-1923.49 588.46,-1866.52 659.75,-1827.87 709.79,-1800.75 770.72,-1776.6 811.37,-1761.66"/>
<polygon fill="black" stroke="black" points="812.39,-1765.01 820.59,-1758.3 809.99,-1758.43 812.39,-1765.01"/>
</g>
<!-- haskell&#45;&gt;init -->
<g id="edge44" class="edge">
<title>haskell&#45;&gt;init</title>
<path fill="none" stroke="black" d="M451.87,-1952.38C458.47,-1891.22 482.77,-1697.23 529,-1658.87 567.49,-1626.94 628.48,-1631.22 667.71,-1638.54"/>
<polygon fill="black" stroke="black" points="666.91,-1641.95 677.41,-1640.51 668.31,-1635.09 666.91,-1641.95"/>
</g>
<!-- haskell&#45;&gt;types -->
<g id="edge45" class="edge">
<title>haskell&#45;&gt;types</title>
<path fill="none" stroke="black" d="M462.28,-1989.2C506.88,-2053.35 667.63,-2263.87 856.38,-2263.87 856.38,-2263.87 856.38,-2263.87 1215.25,-2263.87 1297.11,-2263.87 1329.99,-2242.23 1376.5,-2174.87 1421.94,-2109.07 1434.58,-1858.45 1437.63,-1771.67"/>
<polygon fill="black" stroke="black" points="1441.12,-1771.94 1437.96,-1761.83 1434.13,-1771.71 1441.12,-1771.94"/>
</g>
<!-- hol&#45;&gt;core -->
<g id="edge46" class="edge">
<title>hol&#45;&gt;core</title>
<path fill="none" stroke="black" d="M884.57,-1993.65C906.25,-1983.53 937.3,-1969.03 961.37,-1957.8"/>
<polygon fill="black" stroke="black" points="962.6,-1961.09 970.18,-1953.69 959.64,-1954.74 962.6,-1961.09"/>
</g>
<!-- hol&#45;api&#45;&gt;core -->
<g id="edge47" class="edge">
<title>hol&#45;api&#45;&gt;core</title>
<path fill="none" stroke="black" d="M607.76,-2027.52C670.79,-2047.69 818.82,-2085.03 925.75,-2032.87 952.68,-2019.74 972.47,-1991.1 984.39,-1969.24"/>
<polygon fill="black" stroke="black" points="987.43,-1970.99 988.91,-1960.5 981.21,-1967.77 987.43,-1970.99"/>
</g>
<!-- hol&#45;api&#45;&gt;hol&#45;eval -->
<g id="edge48" class="edge">
<title>hol&#45;api&#45;&gt;hol&#45;eval</title>
<path fill="none" stroke="black" d="M607.79,-1998.62C613.45,-1994.5 619.05,-1989.85 623.75,-1984.87 644.85,-1962.55 640.23,-1949.59 659.75,-1925.87 710.47,-1864.25 782.09,-1803.97 823.43,-1771.18"/>
<polygon fill="black" stroke="black" points="825.38,-1774.1 831.08,-1765.16 821.05,-1768.6 825.38,-1774.1"/>
</g>
<!-- inductive -->
<g id="node20" class="node">
<title>inductive</title>
<polygon fill="none" stroke="black" points="895.75,-1893.87 819,-1893.87 819,-1857.87 895.75,-1857.87 895.75,-1893.87"/>
<text text-anchor="middle" x="857.38" y="-1871.57" font-family="sans-serif" font-size="14.00">inductive</text>
</g>
<!-- hol&#45;api&#45;&gt;inductive -->
<g id="edge49" class="edge">
<title>hol&#45;api&#45;&gt;inductive</title>
<path fill="none" stroke="black" d="M608.03,-2001.38C656.8,-1976.73 752.4,-1928.42 809.71,-1899.46"/>
<polygon fill="black" stroke="black" points="811.25,-1902.6 818.6,-1894.97 808.09,-1896.35 811.25,-1902.6"/>
</g>
<!-- hol&#45;api&#45;&gt;init -->
<g id="edge50" class="edge">
<title>hol&#45;api&#45;&gt;init</title>
<path fill="none" stroke="black" d="M583.72,-1998.58C604.41,-1938.94 669.99,-1749.87 695.29,-1676.95"/>
<polygon fill="black" stroke="black" points="698.52,-1678.31 698.49,-1667.71 691.91,-1676.01 698.52,-1678.31"/>
</g>
<!-- hol&#45;api&#45;&gt;pure -->
<g id="edge51" class="edge">
<title>hol&#45;api&#45;&gt;pure</title>
<path fill="none" stroke="black" d="M601.85,-2035.35C617.5,-2045.98 638.74,-2058.3 659.75,-2063.87 696.89,-2073.72 893.63,-2071.83 925.75,-2059.87 1053.58,-2012.28 1156.04,-1874.94 1195.61,-1815.66"/>
<polygon fill="black" stroke="black" points="1198.43,-1817.73 1201,-1807.45 1192.59,-1813.89 1198.43,-1817.73"/>
</g>
<!-- hol&#45;api&#45;&gt;types -->
<g id="edge52" class="edge">
<title>hol&#45;api&#45;&gt;types</title>
<path fill="none" stroke="black" d="M589.1,-2035.06C623.46,-2085.9 729.58,-2225.87 856.38,-2225.87 856.38,-2225.87 856.38,-2225.87 1215.25,-2225.87 1416.42,-2225.87 1436.92,-1876.85 1438.52,-1771.58"/>
<polygon fill="black" stroke="black" points="1442.02,-1771.8 1438.62,-1761.77 1435.02,-1771.74 1442.02,-1771.8"/>
</g>
<!-- hol&#45;eval&#45;&gt;core -->
<g id="edge53" class="edge">
<title>hol&#45;eval&#45;&gt;core</title>
<path fill="none" stroke="black" d="M892.54,-1756.55C904.22,-1761.54 916.63,-1768.5 925.75,-1777.87 935.67,-1788.07 968.45,-1867.8 986.12,-1911.86"/>
<polygon fill="black" stroke="black" points="982.84,-1913.09 989.8,-1921.07 989.34,-1910.49 982.84,-1913.09"/>
</g>
<!-- hol&#45;eval&#45;&gt;pure -->
<g id="edge54" class="edge">
<title>hol&#45;eval&#45;&gt;pure</title>
<path fill="none" stroke="black" d="M892.81,-1750.69C912.91,-1753.46 938.75,-1756.96 961.75,-1759.87 1010.48,-1766.06 1022.69,-1767.4 1071.5,-1772.87 1106.84,-1776.84 1147.17,-1781.08 1175.75,-1784.04"/>
<polygon fill="black" stroke="black" points="1175.04,-1787.48 1185.35,-1785.03 1175.76,-1780.52 1175.04,-1787.48"/>
</g>
<!-- hol&#45;eval&#45;&gt;pure&#45;eval -->
<g id="edge55" class="edge">
<title>hol&#45;eval&#45;&gt;pure&#45;eval</title>
<path fill="none" stroke="black" d="M892.62,-1745.87C935.73,-1745.87 1010.13,-1745.87 1059.79,-1745.87"/>
<polygon fill="black" stroke="black" points="1059.72,-1749.37 1069.72,-1745.87 1059.72,-1742.37 1059.72,-1749.37"/>
</g>
<!-- hol&#45;eval&#45;&gt;sexp -->
<g id="edge56" class="edge">
<title>hol&#45;eval&#45;&gt;sexp</title>
<path fill="none" stroke="black" d="M884.45,-1727.45C898.95,-1715.78 915.98,-1699.42 925.75,-1680.87 962.65,-1610.83 987.41,-1367.33 995.09,-1282.39"/>
<polygon fill="black" stroke="black" points="998.56,-1282.82 995.96,-1272.55 991.59,-1282.2 998.56,-1282.82"/>
</g>
<!-- hol&#45;eval&#45;&gt;types -->
<g id="edge57" class="edge">
<title>hol&#45;eval&#45;&gt;types</title>
<path fill="none" stroke="black" d="M892.67,-1757.51C903.28,-1761.13 915.01,-1765.15 925.75,-1768.87 1007.94,-1797.37 1023.38,-1833.87 1110.38,-1833.87 1110.38,-1833.87 1110.38,-1833.87 1215.25,-1833.87 1287.41,-1833.87 1312.9,-1848.96 1376.5,-1814.87 1395.68,-1804.6 1411.45,-1785.76 1422.28,-1769.79"/>
<polygon fill="black" stroke="black" points="1425.09,-1771.9 1427.56,-1761.59 1419.2,-1768.11 1425.09,-1771.9"/>
</g>
<!-- init&#45;&gt;core -->
<g id="edge58" class="edge">
<title>init&#45;&gt;core</title>
<path fill="none" stroke="black" d="M714.47,-1666.03C726.01,-1693.22 751.4,-1744.38 789,-1772.87 839.78,-1811.36 876.08,-1775.97 925.75,-1815.87 957.11,-1841.07 977.41,-1883.87 988.19,-1912.26"/>
<polygon fill="black" stroke="black" points="984.77,-1913.1 991.47,-1921.31 991.35,-1910.71 984.77,-1913.1"/>
</g>
<!-- init&#45;&gt;grammar -->
<g id="edge59" class="edge">
<title>init&#45;&gt;grammar</title>
<path fill="none" stroke="black" d="M733.52,-1639.36C749.37,-1634.64 770.13,-1629.26 789,-1626.87 843.89,-1619.93 907.5,-1624.11 949.91,-1628.62"/>
<polygon fill="black" stroke="black" points="949.45,-1632.09 959.78,-1629.72 950.23,-1625.13 949.45,-1632.09"/>
</g>
<!-- init&#45;&gt;hash -->
<g id="edge60" class="edge">
<title>init&#45;&gt;hash</title>
<path fill="none" stroke="black" d="M711.88,-1629.47C721.12,-1590.99 742.26,-1499.13 753,-1420.87 782.22,-1208.05 733.16,-1146.31 789,-938.87 799.94,-898.23 822.79,-855.18 838.83,-827.95"/>
<polygon fill="black" stroke="black" points="841.69,-829.99 843.83,-819.62 835.69,-826.39 841.69,-829.99"/>
</g>
<!-- init&#45;&gt;hol -->
<g id="edge61" class="edge">
<title>init&#45;&gt;hol</title>
<path fill="none" stroke="black" d="M711.42,-1666.13C721.28,-1708.89 748.72,-1818.31 789,-1902.87 801.87,-1929.9 820.83,-1958.19 835.36,-1978.26"/>
<polygon fill="black" stroke="black" points="832.45,-1980.22 841.19,-1986.2 838.09,-1976.07 832.45,-1980.22"/>
</g>
<!-- init&#45;&gt;hol&#45;eval -->
<g id="edge62" class="edge">
<title>init&#45;&gt;hol&#45;eval</title>
<path fill="none" stroke="black" d="M733.44,-1665.18C739.96,-1669.77 746.85,-1674.86 753,-1679.87 770.05,-1693.79 770.84,-1701.45 789,-1713.87 796.06,-1718.71 803.96,-1723.17 811.8,-1727.14"/>
<polygon fill="black" stroke="black" points="810.11,-1730.21 820.63,-1731.41 813.15,-1723.91 810.11,-1730.21"/>
</g>
<!-- init&#45;&gt;inductive -->
<g id="edge63" class="edge">
<title>init&#45;&gt;inductive</title>
<path fill="none" stroke="black" d="M714.64,-1665.89C727.32,-1696.27 755.38,-1758.94 789,-1805.87 800.28,-1821.62 815,-1837.33 827.8,-1849.86"/>
<polygon fill="black" stroke="black" points="825.15,-1852.17 834.79,-1856.56 829.99,-1847.11 825.15,-1852.17"/>
</g>
<!-- metamath -->
<g id="node31" class="node">
<title>metamath</title>
<polygon fill="none" stroke="black" points="897.62,-1129.87 817.12,-1129.87 817.12,-1093.87 897.62,-1093.87 897.62,-1129.87"/>
<text text-anchor="middle" x="857.38" y="-1107.57" font-family="sans-serif" font-size="14.00">metamath</text>
</g>
<!-- init&#45;&gt;metamath -->
<g id="edge64" class="edge">
<title>init&#45;&gt;metamath</title>
<path fill="none" stroke="black" d="M712.5,-1629.42C734.51,-1550.26 821.05,-1238.93 848.19,-1141.31"/>
<polygon fill="black" stroke="black" points="851.56,-1142.28 850.86,-1131.71 844.81,-1140.4 851.56,-1142.28"/>
</g>
<!-- init&#45;&gt;sexp -->
<g id="edge65" class="edge">
<title>init&#45;&gt;sexp</title>
<path fill="none" stroke="black" d="M714.28,-1629.46C731.37,-1584.31 775.23,-1470.88 789,-1458.87 836.55,-1417.42 878.28,-1462.41 925.75,-1420.87 967.22,-1384.59 985.51,-1320.2 992.97,-1282.55"/>
<polygon fill="black" stroke="black" points="996.4,-1283.29 994.76,-1272.82 989.51,-1282.03 996.4,-1283.29"/>
</g>
<!-- spectec -->
<g id="node51" class="node">
<title>spectec</title>
<polygon fill="none" stroke="black" points="892,-1671.87 822.75,-1671.87 822.75,-1635.87 892,-1635.87 892,-1671.87"/>
<text text-anchor="middle" x="857.38" y="-1649.57" font-family="sans-serif" font-size="14.00">spectec</text>
</g>
<!-- init&#45;&gt;spectec -->
<g id="edge66" class="edge">
<title>init&#45;&gt;spectec</title>
<path fill="none" stroke="black" d="M733.67,-1648.93C755.12,-1649.8 785.9,-1651.04 811.27,-1652.06"/>
<polygon fill="black" stroke="black" points="810.84,-1655.54 820.98,-1652.45 811.13,-1648.55 810.84,-1655.54"/>
</g>
<!-- init&#45;&gt;types -->
<g id="edge67" class="edge">
<title>init&#45;&gt;types</title>
<path fill="none" stroke="black" d="M733.56,-1660.76C749.26,-1667.89 769.84,-1676.24 789,-1680.87 879.49,-1702.78 904.52,-1699.87 997.62,-1699.87 997.62,-1699.87 997.62,-1699.87 1215.25,-1699.87 1281.68,-1699.87 1357.35,-1718.06 1401.33,-1730.5"/>
<polygon fill="black" stroke="black" points="1400.31,-1733.84 1410.88,-1733.26 1402.25,-1727.12 1400.31,-1733.84"/>
</g>
<!-- json -->
<g id="node22" class="node">
<title>json</title>
<polygon fill="none" stroke="black" points="884.38,-177.87 830.38,-177.87 830.38,-141.87 884.38,-141.87 884.38,-177.87"/>
<text text-anchor="middle" x="857.38" y="-155.57" font-family="sans-serif" font-size="14.00">json</text>
</g>
<!-- kernel -->
<g id="node23" class="node">
<title>kernel</title>
<polygon fill="none" stroke="black" points="605,-1251.87 547.75,-1251.87 547.75,-1215.87 605,-1215.87 605,-1251.87"/>
<text text-anchor="middle" x="576.38" y="-1229.57" font-family="sans-serif" font-size="14.00">kernel</text>
</g>
<!-- kernel&#45;&gt;hash -->
<g id="edge68" class="edge">
<title>kernel&#45;&gt;hash</title>
<path fill="none" stroke="black" d="M585.24,-1215.44C604.78,-1169.7 654.36,-1054.19 659.75,-1046.87 692.32,-1002.69 717.37,-1007.64 753,-965.87 790.64,-921.75 824.08,-862.6 842.16,-828.12"/>
<polygon fill="black" stroke="black" points="845.08,-830.09 846.57,-819.6 838.87,-826.87 845.08,-830.09"/>
</g>
<!-- kernel&#45;&gt;init -->
<g id="edge69" class="edge">
<title>kernel&#45;&gt;init</title>
<path fill="none" stroke="black" d="M586.7,-1252.1C596.82,-1272.4 612.96,-1306.37 623.75,-1336.87 659.55,-1438.12 687.64,-1562.83 699.39,-1618.56"/>
<polygon fill="black" stroke="black" points="695.93,-1619.12 701.4,-1628.2 702.78,-1617.69 695.93,-1619.12"/>
</g>
<!-- kernel&#45;&gt;object -->
<g id="edge70" class="edge">
<title>kernel&#45;&gt;object</title>
<path fill="none" stroke="black" d="M581.35,-1215.45C599.71,-1130.22 676.48,-773.99 699.08,-669.07"/>
<polygon fill="black" stroke="black" points="702.45,-670.08 701.13,-659.57 695.6,-668.61 702.45,-670.08"/>
</g>
<!-- kernel&#45;&gt;sexp -->
<g id="edge71" class="edge">
<title>kernel&#45;&gt;sexp</title>
<path fill="none" stroke="black" d="M605.27,-1235.14C678.57,-1238.45 876.66,-1247.41 959.94,-1251.17"/>
<polygon fill="black" stroke="black" points="959.7,-1254.66 969.85,-1251.62 960.02,-1247.67 959.7,-1254.66"/>
</g>
<!-- kernel&#45;&gt;store -->
<g id="edge72" class="edge">
<title>kernel&#45;&gt;store</title>
<path fill="none" stroke="black" d="M579.03,-1215.41C589.4,-1100.1 645.39,-481.23 659.75,-397.87 669.31,-342.41 686.45,-278.95 696.79,-242.92"/>
<polygon fill="black" stroke="black" points="700.04,-244.26 699.46,-233.68 693.32,-242.31 700.04,-244.26"/>
</g>
<!-- kernel&#45;sat -->
<g id="node24" class="node">
<title>kernel&#45;sat</title>
<polygon fill="none" stroke="black" points="618.12,-1703.87 534.62,-1703.87 534.62,-1667.87 618.12,-1667.87 618.12,-1703.87"/>
<text text-anchor="middle" x="576.38" y="-1681.57" font-family="sans-serif" font-size="14.00">kernel&#45;sat</text>
</g>
<!-- kernel&#45;sat&#45;&gt;core -->
<g id="edge73" class="edge">
<title>kernel&#45;sat&#45;&gt;core</title>
<path fill="none" stroke="black" d="M588.74,-1704.12C616.72,-1747.24 693.62,-1855.36 789,-1902.87 844.27,-1930.41 916.68,-1938.17 960.03,-1940.26"/>
<polygon fill="black" stroke="black" points="959.81,-1943.75 969.94,-1940.65 960.09,-1936.76 959.81,-1943.75"/>
</g>
<!-- kernel&#45;sat&#45;&gt;hol&#45;eval -->
<g id="edge74" class="edge">
<title>kernel&#45;sat&#45;&gt;hol&#45;eval</title>
<path fill="none" stroke="black" d="M618.38,-1692.34C654.1,-1698.21 707.2,-1707.52 753,-1717.87 772.13,-1722.2 793.05,-1727.72 811.04,-1732.71"/>
<polygon fill="black" stroke="black" points="810.07,-1736.07 820.64,-1735.4 811.96,-1729.33 810.07,-1736.07"/>
</g>
<!-- kernel&#45;sat&#45;&gt;init -->
<g id="edge75" class="edge">
<title>kernel&#45;sat&#45;&gt;init</title>
<path fill="none" stroke="black" d="M618.58,-1673.64C634.58,-1668.89 652.76,-1663.5 668.33,-1658.87"/>
<polygon fill="black" stroke="black" points="669.1,-1662.29 677.69,-1656.09 667.11,-1655.58 669.1,-1662.29"/>
</g>
<!-- sat -->
<g id="node46" class="node">
<title>sat</title>
<polygon fill="none" stroke="black" points="884.38,-1411.87 830.38,-1411.87 830.38,-1375.87 884.38,-1375.87 884.38,-1411.87"/>
<text text-anchor="middle" x="857.38" y="-1389.57" font-family="sans-serif" font-size="14.00">sat</text>
</g>
<!-- kernel&#45;sat&#45;&gt;sat -->
<g id="edge76" class="edge">
<title>kernel&#45;sat&#45;&gt;sat</title>
<path fill="none" stroke="black" d="M588.26,-1667.46C616.29,-1621.36 695.38,-1499.37 789,-1425.87 798.07,-1418.75 808.99,-1412.71 819.36,-1407.87"/>
<polygon fill="black" stroke="black" points="820.75,-1411.08 828.5,-1403.86 817.93,-1404.67 820.75,-1411.08"/>
</g>
<!-- kernel&#45;smt -->
<g id="node25" class="node">
<title>kernel&#45;smt</title>
<polygon fill="none" stroke="black" points="493,-2110.87 405,-2110.87 405,-2074.87 493,-2074.87 493,-2110.87"/>
<text text-anchor="middle" x="449" y="-2088.57" font-family="sans-serif" font-size="14.00">kernel&#45;smt</text>
</g>
<!-- kernel&#45;smt&#45;&gt;core -->
<g id="edge77" class="edge">
<title>kernel&#45;smt&#45;&gt;core</title>
<path fill="none" stroke="black" d="M493.33,-2102.23C581.96,-2118.87 787.27,-2144.47 925.75,-2059.87 958.7,-2039.75 978.53,-1998.31 988.78,-1970.06"/>
<polygon fill="black" stroke="black" points="992.07,-1971.24 991.99,-1960.65 985.45,-1968.98 992.07,-1971.24"/>
</g>
<!-- kernel&#45;smt&#45;&gt;hol&#45;api -->
<g id="edge78" class="edge">
<title>kernel&#45;smt&#45;&gt;hol&#45;api</title>
<path fill="none" stroke="black" d="M480.35,-2074.48C496.86,-2064.47 517.49,-2051.96 535.31,-2041.16"/>
<polygon fill="black" stroke="black" points="536.84,-2044.33 543.58,-2036.15 533.21,-2038.34 536.84,-2044.33"/>
</g>
<!-- kv -->
<g id="node26" class="node">
<title>kv</title>
<polygon fill="none" stroke="black" points="226.12,-105.87 172.12,-105.87 172.12,-69.87 226.12,-69.87 226.12,-105.87"/>
<text text-anchor="middle" x="199.12" y="-83.57" font-family="sans-serif" font-size="14.00">kv</text>
</g>
<!-- lean -->
<g id="node27" class="node">
<title>lean</title>
<polygon fill="none" stroke="black" points="87.5,-1025.87 33.5,-1025.87 33.5,-989.87 87.5,-989.87 87.5,-1025.87"/>
<text text-anchor="middle" x="60.5" y="-1003.57" font-family="sans-serif" font-size="14.00">lean</text>
</g>
<!-- lisp -->
<g id="node28" class="node">
<title>lisp</title>
<polygon fill="none" stroke="black" points="476,-1684.87 422,-1684.87 422,-1648.87 476,-1648.87 476,-1684.87"/>
<text text-anchor="middle" x="449" y="-1662.57" font-family="sans-serif" font-size="14.00">lisp</text>
</g>
<!-- lisp&#45;&gt;core -->
<g id="edge79" class="edge">
<title>lisp&#45;&gt;core</title>
<path fill="none" stroke="black" d="M464.32,-1685.22C506.77,-1737.83 638.42,-1888.3 789,-1933.87 846.7,-1951.34 917.51,-1949.06 960.03,-1945.32"/>
<polygon fill="black" stroke="black" points="960.11,-1948.83 969.72,-1944.39 959.44,-1941.87 960.11,-1948.83"/>
</g>
<!-- lisp&#45;&gt;hol&#45;api -->
<g id="edge80" class="edge">
<title>lisp&#45;&gt;hol&#45;api</title>
<path fill="none" stroke="black" d="M453.14,-1685.25C461.38,-1731.02 486.04,-1853.22 529,-1946.87 535.76,-1961.62 545.41,-1976.77 554.15,-1989.18"/>
<polygon fill="black" stroke="black" points="551.31,-1991.23 560.01,-1997.27 556.98,-1987.12 551.31,-1991.23"/>
</g>
<!-- lisp&#45;&gt;hol&#45;eval -->
<g id="edge81" class="edge">
<title>lisp&#45;&gt;hol&#45;eval</title>
<path fill="none" stroke="black" d="M475.01,-1685.17C489.93,-1695.1 509.68,-1706.6 529,-1712.87 625.67,-1744.26 746.11,-1747.96 810.57,-1747.29"/>
<polygon fill="black" stroke="black" points="810.48,-1750.8 820.43,-1747.15 810.38,-1743.8 810.48,-1750.8"/>
</g>
<!-- lisp&#45;&gt;init -->
<g id="edge82" class="edge">
<title>lisp&#45;&gt;init</title>
<path fill="none" stroke="black" d="M476.15,-1649.25C490.96,-1640.34 510.24,-1630.45 529,-1625.87 576.2,-1614.36 632.07,-1625.33 668.08,-1635.48"/>
<polygon fill="black" stroke="black" points="667,-1638.82 677.58,-1638.29 668.99,-1632.1 667,-1638.82"/>
</g>
<!-- lisp&#45;&gt;repl&#45;core -->
<g id="edge83" class="edge">
<title>lisp&#45;&gt;repl&#45;core</title>
<path fill="none" stroke="black" d="M460.91,-1648.52C482.86,-1611.58 532.5,-1528.04 558.61,-1484.1"/>
<polygon fill="black" stroke="black" points="561.53,-1486.02 563.63,-1475.64 555.51,-1482.45 561.53,-1486.02"/>
</g>
<!-- lisp&#45;&gt;sexp -->
<g id="edge84" class="edge">
<title>lisp&#45;&gt;sexp</title>
<path fill="none" stroke="black" d="M451.82,-1648.45C458.41,-1585.57 483.09,-1380.93 529,-1336.87 560.23,-1306.91 853.99,-1269.76 959.84,-1257.23"/>
<polygon fill="black" stroke="black" points="960.19,-1260.71 969.71,-1256.07 959.37,-1253.76 960.19,-1260.71"/>
</g>
<!-- llm -->
<g id="node29" class="node">
<title>llm</title>
<polygon fill="none" stroke="black" points="226.12,-921.87 172.12,-921.87 172.12,-885.87 226.12,-885.87 226.12,-921.87"/>
<text text-anchor="middle" x="199.12" y="-899.57" font-family="sans-serif" font-size="14.00">llm</text>
</g>
<!-- llm&#45;&gt;proto -->
<g id="edge85" class="edge">
<title>llm&#45;&gt;proto</title>
<path fill="none" stroke="black" d="M226.6,-909.52C243.54,-913.13 265.79,-917.87 284.55,-921.87"/>
<polygon fill="black" stroke="black" points="283.71,-925.27 294.22,-923.93 285.17,-918.42 283.71,-925.27"/>
</g>
<!-- lsp&#45;&gt;sexp -->
<g id="edge86" class="edge">
<title>lsp&#45;&gt;sexp</title>
<path fill="none" stroke="black" d="M882.81,-984.32C897.09,-996.22 914.47,-1012.82 925.75,-1030.87 964.77,-1093.35 984.62,-1179.07 992.85,-1223.5"/>
<polygon fill="black" stroke="black" points="989.36,-1223.91 994.56,-1233.14 996.26,-1222.68 989.36,-1223.91"/>
</g>
<!-- lsp&#45;&gt;wasm -->
<g id="edge87" class="edge">
<title>lsp&#45;&gt;wasm</title>
<path fill="none" stroke="black" d="M869,-947.59C883.7,-921.58 910.19,-872 925.75,-826.87 963.26,-718.07 985.27,-582.27 993.68,-523.38"/>
<polygon fill="black" stroke="black" points="997.09,-524.23 995.01,-513.84 990.16,-523.26 997.09,-524.23"/>
</g>
<!-- metamath&#45;&gt;parse -->
<g id="edge88" class="edge">
<title>metamath&#45;&gt;parse</title>
<path fill="none" stroke="black" d="M898.03,-1101.49C946.05,-1088.91 1026.3,-1067.89 1073.19,-1055.61"/>
<polygon fill="black" stroke="black" points="1073.81,-1059.07 1082.6,-1053.15 1072.04,-1052.3 1073.81,-1059.07"/>
</g>
<!-- metamath&#45;&gt;sexp -->
<g id="edge89" class="edge">
<title>metamath&#45;&gt;sexp</title>
<path fill="none" stroke="black" d="M897.98,-1126.3C907.7,-1130.98 917.64,-1136.82 925.75,-1143.87 951.56,-1166.31 971.92,-1200.17 984.28,-1224.19"/>
<polygon fill="black" stroke="black" points="981.13,-1225.71 988.71,-1233.1 987.39,-1222.59 981.13,-1225.71"/>
</g>
<!-- multiformat -->
<g id="node32" class="node">
<title>multiformat</title>
<polygon fill="none" stroke="black" points="751.5,-1091.87 661.25,-1091.87 661.25,-1055.87 751.5,-1055.87 751.5,-1091.87"/>
<text text-anchor="middle" x="706.38" y="-1069.57" font-family="sans-serif" font-size="14.00">multiformat</text>
</g>
<!-- multiformat&#45;&gt;acset -->
<g id="edge90" class="edge">
<title>multiformat&#45;&gt;acset</title>
<path fill="none" stroke="black" d="M751.68,-1069.12C773.05,-1066.82 798.41,-1064.1 818.81,-1061.91"/>
<polygon fill="black" stroke="black" points="819.12,-1065.4 828.69,-1060.85 818.37,-1058.44 819.12,-1065.4"/>
</g>
<!-- multiformat&#45;&gt;hash -->
<g id="edge91" class="edge">
<title>multiformat&#45;&gt;hash</title>
<path fill="none" stroke="black" d="M720.14,-1055.5C729.61,-1041.58 742.63,-1021.84 753,-1003.87 788.19,-942.89 824.23,-868.51 843.06,-828.55"/>
<polygon fill="black" stroke="black" points="846.17,-830.15 847.25,-819.61 839.84,-827.17 846.17,-830.15"/>
</g>
<!-- multiformat&#45;&gt;parse -->
<g id="edge92" class="edge">
<title>multiformat&#45;&gt;parse</title>
<path fill="none" stroke="black" d="M734.35,-1055.39C749.65,-1046.05 769.56,-1035.68 789,-1030.87 889.35,-1006.06 1012.57,-1024.96 1073.15,-1037.34"/>
<polygon fill="black" stroke="black" points="1072.07,-1040.69 1082.57,-1039.33 1073.51,-1033.84 1072.07,-1040.69"/>
</g>
<!-- object&#45;&gt;hash -->
<g id="edge93" class="edge">
<title>object&#45;&gt;hash</title>
<path fill="none" stroke="black" d="M735.36,-657.64C741.42,-661.99 747.63,-666.85 753,-671.87 770.86,-688.56 811.03,-740.12 835.7,-772.49"/>
<polygon fill="black" stroke="black" points="832.77,-774.41 841.61,-780.25 838.34,-770.17 832.77,-774.41"/>
</g>
<!-- object&#45;&gt;parse -->
<g id="edge94" class="edge">
<title>object&#45;&gt;parse</title>
<path fill="none" stroke="black" d="M735.41,-642.93C798.72,-651.35 953.62,-680.77 1035.5,-772.87 1098.19,-843.39 1108.96,-961.67 1110.43,-1016.42"/>
<polygon fill="black" stroke="black" points="1106.93,-1016.26 1110.6,-1026.2 1113.93,-1016.14 1106.93,-1016.26"/>
</g>
<!-- opentheory&#45;&gt;hol -->
<g id="edge95" class="edge">
<title>opentheory&#45;&gt;hol</title>
<path fill="none" stroke="black" d="M367.23,-2215.41C469.24,-2171.71 724.01,-2062.57 819.48,-2021.68"/>
<polygon fill="black" stroke="black" points="820.85,-2024.9 828.66,-2017.75 818.09,-2018.47 820.85,-2024.9"/>
</g>
<!-- parquet -->
<g id="node35" class="node">
<title>parquet</title>
<polygon fill="none" stroke="black" points="482.5,-665.87 415.5,-665.87 415.5,-629.87 482.5,-629.87 482.5,-665.87"/>
<text text-anchor="middle" x="449" y="-643.57" font-family="sans-serif" font-size="14.00">parquet</text>
</g>
<!-- parquet&#45;&gt;arrow -->
<g id="edge96" class="edge">
<title>parquet&#45;&gt;arrow</title>
<path fill="none" stroke="black" d="M482.94,-637.89C499.84,-632.77 520.5,-626.51 538,-621.2"/>
<polygon fill="black" stroke="black" points="538.96,-624.57 547.52,-618.32 536.93,-617.87 538.96,-624.57"/>
</g>
<!-- proptest -->
<g id="node37" class="node">
<title>proptest</title>
<polygon fill="none" stroke="black" points="95.88,-1079.87 25.12,-1079.87 25.12,-1043.87 95.88,-1043.87 95.88,-1079.87"/>
<text text-anchor="middle" x="60.5" y="-1057.57" font-family="sans-serif" font-size="14.00">proptest</text>
</g>
<!-- pure&#45;trusted -->
<g id="node41" class="node">
<title>pure&#45;trusted</title>
<polygon fill="#ffd6d6" stroke="black" points="1376.5,-1805.87 1277.25,-1805.87 1277.25,-1769.87 1376.5,-1769.87 1376.5,-1805.87"/>
<text text-anchor="middle" x="1326.88" y="-1783.57" font-family="sans-serif" font-size="14.00">pure&#45;trusted</text>
</g>
<!-- pure&#45;&gt;pure&#45;trusted -->
<g id="edge97" class="edge">
<title>pure&#45;&gt;pure&#45;trusted</title>
<path fill="none" stroke="black" d="M1241.75,-1787.87C1249.04,-1787.87 1257.27,-1787.87 1265.64,-1787.87"/>
<polygon fill="black" stroke="black" points="1265.57,-1791.37 1275.57,-1787.87 1265.57,-1784.37 1265.57,-1791.37"/>
</g>
<!-- pure&#45;eval&#45;&gt;pure -->
<g id="edge98" class="edge">
<title>pure&#45;eval&#45;&gt;pure</title>
<path fill="none" stroke="black" d="M1151.66,-1762.23C1159.8,-1765.62 1168.35,-1769.18 1176.4,-1772.53"/>
<polygon fill="black" stroke="black" points="1175,-1775.74 1185.58,-1776.35 1177.7,-1769.28 1175,-1775.74"/>
</g>
<!-- pure&#45;eval&#45;&gt;types -->
<g id="edge99" class="edge">
<title>pure&#45;eval&#45;&gt;types</title>
<path fill="none" stroke="black" d="M1151.71,-1745.39C1215.06,-1744.62 1338.83,-1743.1 1400.99,-1742.33"/>
<polygon fill="black" stroke="black" points="1400.74,-1745.84 1410.69,-1742.22 1400.65,-1738.84 1400.74,-1745.84"/>
</g>
<!-- pure&#45;trusted&#45;&gt;types -->
<g id="edge100" class="edge">
<title>pure&#45;trusted&#45;&gt;types</title>
<path fill="none" stroke="black" d="M1372.23,-1769.43C1382,-1765.37 1392.24,-1761.11 1401.67,-1757.19"/>
<polygon fill="black" stroke="black" points="1403,-1760.43 1410.89,-1753.36 1400.31,-1753.96 1403,-1760.43"/>
</g>
<!-- python -->
<g id="node42" class="node">
<title>python</title>
<polygon fill="none" stroke="black" points="91.38,-357.87 29.62,-357.87 29.62,-321.87 91.38,-321.87 91.38,-357.87"/>
<text text-anchor="middle" x="60.5" y="-335.57" font-family="sans-serif" font-size="14.00">python</text>
</g>
<!-- python&#45;&gt;crypto&#45;sig -->
<g id="edge101" class="edge">
<title>python&#45;&gt;crypto&#45;sig</title>
<path fill="none" stroke="black" d="M80.04,-321.4C98.94,-302.82 129.32,-273.59 157,-249.87 159.6,-247.65 162.32,-245.39 165.08,-243.14"/>
<polygon fill="black" stroke="black" points="167.08,-246.03 172.71,-237.06 162.71,-240.55 167.08,-246.03"/>
</g>
<!-- python&#45;&gt;git -->
<g id="edge102" class="edge">
<title>python&#45;&gt;git</title>
<path fill="none" stroke="black" d="M66.89,-321.38C77.69,-288.11 105.51,-219.03 157,-190.87 189.85,-172.91 206.09,-177.99 241.25,-190.87 322.15,-220.52 393.16,-297.38 426.99,-338.68"/>
<polygon fill="black" stroke="black" points="424.26,-340.87 433.26,-346.46 429.71,-336.48 424.26,-340.87"/>
</g>
<!-- python&#45;&gt;graph -->
<g id="edge103" class="edge">
<title>python&#45;&gt;graph</title>
<path fill="none" stroke="black" d="M91.57,-333.32C178.59,-315.89 436.36,-275.13 623.75,-357.87 645.4,-367.43 665.97,-384.39 681.05,-398.85"/>
<polygon fill="black" stroke="black" points="678.19,-400.95 687.75,-405.5 683.12,-395.98 678.19,-400.95"/>
</g>
<!-- python&#45;&gt;hash -->
<g id="edge104" class="edge">
<title>python&#45;&gt;hash</title>
<path fill="none" stroke="black" d="M68.5,-358.35C90.53,-414.12 163.75,-582.55 277.25,-674.87 442.3,-809.13 718.7,-808.04 818.77,-802.67"/>
<polygon fill="black" stroke="black" points="818.79,-806.17 828.57,-802.09 818.38,-799.19 818.79,-806.17"/>
</g>
<!-- python&#45;&gt;kv -->
<g id="edge105" class="edge">
<title>python&#45;&gt;kv</title>
<path fill="none" stroke="black" d="M66.12,-321.45C76.83,-281.49 106.36,-185.19 157,-119.87 158.97,-117.33 161.2,-114.87 163.56,-112.53"/>
<polygon fill="black" stroke="black" points="165.7,-115.3 170.84,-106.04 161.05,-110.08 165.7,-115.3"/>
</g>
<!-- python&#45;&gt;llm -->
<g id="edge106" class="edge">
<title>python&#45;&gt;llm</title>
<path fill="none" stroke="black" d="M62.82,-358.23C69.16,-442.06 98.49,-788.14 157,-876.87 158.76,-879.55 160.89,-882.02 163.24,-884.29"/>
<polygon fill="black" stroke="black" points="160.71,-886.74 170.69,-890.28 165.09,-881.28 160.71,-886.74"/>
</g>
<!-- python&#45;&gt;object -->
<g id="edge107" class="edge">
<title>python&#45;&gt;object</title>
<path fill="none" stroke="black" d="M91.6,-341.68C183.2,-348.71 462.12,-381.67 623.75,-527.87 652.67,-554.03 634.9,-577.83 659.75,-607.87 662.37,-611.04 665.38,-614.04 668.57,-616.84"/>
<polygon fill="black" stroke="black" points="666.12,-619.36 676.14,-622.82 670.46,-613.87 666.12,-619.36"/>
</g>
<!-- python&#45;&gt;repl -->
<g id="edge108" class="edge">
<title>python&#45;&gt;repl</title>
<path fill="none" stroke="black" d="M77.15,-358.29C108.38,-395.06 180.67,-480.19 241.25,-551.87 260.92,-575.15 283.24,-601.65 299.44,-620.9"/>
<polygon fill="black" stroke="black" points="296.55,-622.9 305.66,-628.3 301.9,-618.39 296.55,-622.9"/>
</g>
<!-- python&#45;&gt;sat -->
<g id="edge109" class="edge">
<title>python&#45;&gt;sat</title>
<path fill="none" stroke="black" d="M63.57,-358.36C75.96,-468.37 140.18,-1033.24 157,-1065.87 190.46,-1130.8 219.06,-1133.73 277.25,-1177.87 330.25,-1218.08 344.32,-1228.6 405,-1255.87 481.68,-1290.34 725.42,-1358.21 819.15,-1383.8"/>
<polygon fill="black" stroke="black" points="818.05,-1387.12 828.62,-1386.37 819.89,-1380.37 818.05,-1387.12"/>
</g>
<!-- python&#45;&gt;serve -->
<g id="edge110" class="edge">
<title>python&#45;&gt;serve</title>
<path fill="none" stroke="black" d="M66.44,-358.33C86.9,-434.71 165.07,-726.5 190.26,-820.5"/>
<polygon fill="black" stroke="black" points="186.83,-821.23 192.8,-829.98 193.59,-819.42 186.83,-821.23"/>
</g>
<!-- python&#45;&gt;sexp -->
<g id="edge111" class="edge">
<title>python&#45;&gt;sexp</title>
<path fill="none" stroke="black" d="M62.51,-358.25C67.67,-447.13 93.43,-832.12 157,-930.87 191.75,-984.85 219.35,-983.15 277.25,-1010.87 549.88,-1141.43 646.26,-1100.73 925.75,-1215.87 937.57,-1220.75 950.08,-1226.84 961.3,-1232.66"/>
<polygon fill="black" stroke="black" points="959.36,-1235.59 969.83,-1237.18 962.64,-1229.41 959.36,-1235.59"/>
</g>
<!-- python&#45;&gt;shell -->
<g id="edge112" class="edge">
<title>python&#45;&gt;shell</title>
<path fill="none" stroke="black" d="M63.42,-358.1C74.13,-458.59 126.92,-942.51 157,-1001.87 212.15,-1110.7 346.23,-1183.21 411.33,-1213.23"/>
<polygon fill="black" stroke="black" points="409.6,-1216.29 420.16,-1217.23 412.49,-1209.92 409.6,-1216.29"/>
</g>
<!-- python&#45;&gt;store -->
<g id="edge113" class="edge">
<title>python&#45;&gt;store</title>
<path fill="none" stroke="black" d="M67.36,-321.46C79.03,-287.65 108.31,-215.45 157,-174.87 200.6,-138.54 221.33,-141.57 277.25,-131.87 428.99,-105.56 488.28,-58.64 623.75,-131.87 649.45,-145.77 638.63,-166.69 659.75,-186.87 662.79,-189.78 666.2,-192.51 669.75,-195.03"/>
<polygon fill="black" stroke="black" points="667.74,-197.9 678.04,-200.38 671.53,-192.02 667.74,-197.9"/>
</g>
<!-- python&#45;&gt;wasm -->
<g id="edge114" class="edge">
<title>python&#45;&gt;wasm</title>
<path fill="none" stroke="black" d="M61.2,-321.75C61.39,-268.67 69.69,-112.46 157,-34.87 212.82,14.72 247.45,-3.87 322.12,-3.87 322.12,-3.87 322.12,-3.87 707.38,-3.87 807.57,-3.87 858.05,13.99 925.75,-59.87 980.28,-119.36 993.76,-376.34 996.8,-464.25"/>
<polygon fill="black" stroke="black" points="993.3,-464.1 997.12,-473.99 1000.29,-463.88 993.3,-464.1"/>
</g>
<!-- wasm&#45;store -->
<g id="node59" class="node">
<title>wasm&#45;store</title>
<polygon fill="none" stroke="black" points="623.75,-79.87 529,-79.87 529,-43.87 623.75,-43.87 623.75,-79.87"/>
<text text-anchor="middle" x="576.38" y="-57.57" font-family="sans-serif" font-size="14.00">wasm&#45;store</text>
</g>
<!-- python&#45;&gt;wasm&#45;store -->
<g id="edge115" class="edge">
<title>python&#45;&gt;wasm&#45;store</title>
<path fill="none" stroke="black" d="M61.17,-321.41C61.38,-269.68 69.95,-123.09 157,-60.87 213.12,-20.77 416.26,-40.72 517.37,-53.69"/>
<polygon fill="black" stroke="black" points="516.72,-57.14 527.09,-54.96 517.63,-50.2 516.72,-57.14"/>
</g>
<!-- repl&#45;&gt;arrow -->
<g id="edge116" class="edge">
<title>repl&#45;&gt;arrow</title>
<path fill="none" stroke="black" d="M350.62,-637.11C366.19,-631.27 386.41,-624.52 405,-620.87 450.02,-612.06 502.87,-609.88 537.63,-609.54"/>
<polygon fill="black" stroke="black" points="537.63,-613.04 547.62,-609.49 537.6,-606.04 537.63,-613.04"/>
</g>
<!-- repl&#45;&gt;forsp -->
<g id="edge117" class="edge">
<title>repl&#45;&gt;forsp</title>
<path fill="none" stroke="black" d="M328.46,-666.32C346.84,-744.5 418.39,-1048.9 441.07,-1145.37"/>
<polygon fill="black" stroke="black" points="437.66,-1146.17 443.35,-1155.1 444.47,-1144.57 437.66,-1146.17"/>
</g>
<!-- repl&#45;&gt;git -->
<g id="edge118" class="edge">
<title>repl&#45;&gt;git</title>
<path fill="none" stroke="black" d="M332.06,-629.81C353.03,-582.07 410.04,-452.3 435.46,-394.41"/>
<polygon fill="black" stroke="black" points="438.54,-396.11 439.36,-385.54 432.13,-393.29 438.54,-396.11"/>
</g>
<!-- repl&#45;&gt;graph -->
<g id="edge119" class="edge">
<title>repl&#45;&gt;graph</title>
<path fill="none" stroke="black" d="M330.06,-629.47C340.46,-600.14 364.79,-542.96 405,-511.87 484.73,-450.24 606.76,-432.24 667.83,-427.01"/>
<polygon fill="black" stroke="black" points="668,-430.51 677.69,-426.24 667.45,-423.53 668,-430.51"/>
</g>
<!-- repl&#45;&gt;hash -->
<g id="edge120" class="edge">
<title>repl&#45;&gt;hash</title>
<path fill="none" stroke="black" d="M350.57,-665.99C388.32,-690.89 460.68,-735.08 529,-756.87 624.64,-787.39 653.48,-772.69 753,-785.87 774.81,-788.76 799.2,-792.06 818.81,-794.73"/>
<polygon fill="black" stroke="black" points="818.16,-798.18 828.54,-796.06 819.1,-791.24 818.16,-798.18"/>
</g>
<!-- repl&#45;&gt;init -->
<g id="edge121" class="edge">
<title>repl&#45;&gt;init</title>
<path fill="none" stroke="black" d="M331.63,-666.14C357.88,-730.76 446.54,-955.03 493,-1147.87 518.57,-1254.02 461.35,-1305.18 529,-1390.87 557.11,-1426.49 594.45,-1394.23 623.75,-1428.87 672.22,-1486.18 626.55,-1526.56 659.75,-1593.87 664.53,-1603.57 671.43,-1613 678.42,-1621.18"/>
<polygon fill="black" stroke="black" points="675.64,-1623.32 684.93,-1628.41 680.84,-1618.63 675.64,-1623.32"/>
</g>
<!-- repl&#45;&gt;object -->
<g id="edge122" class="edge">
<title>repl&#45;&gt;object</title>
<path fill="none" stroke="black" d="M350.27,-632.27C365.72,-623.66 385.94,-613.41 405,-606.87 497.52,-575.16 530.45,-553.52 623.75,-582.87 624.11,-582.99 648.18,-599.81 670.09,-615.15"/>
<polygon fill="black" stroke="black" points="667.84,-617.84 678.04,-620.71 671.85,-612.11 667.84,-617.84"/>
</g>
<!-- repl&#45;&gt;parquet -->
<g id="edge123" class="edge">
<title>repl&#45;&gt;parquet</title>
<path fill="none" stroke="black" d="M350.4,-647.87C365.89,-647.87 385.91,-647.87 403.78,-647.87"/>
<polygon fill="black" stroke="black" points="403.63,-651.37 413.63,-647.87 403.63,-644.37 403.63,-651.37"/>
</g>
<!-- repl&#45;&gt;shell -->
<g id="edge124" class="edge">
<title>repl&#45;&gt;shell</title>
<path fill="none" stroke="black" d="M327.68,-666.06C335.75,-707.8 355.8,-813.72 369,-902.87 378.8,-969.08 369.17,-1145.35 405,-1201.87 407.03,-1205.08 409.59,-1207.96 412.45,-1210.55"/>
<polygon fill="black" stroke="black" points="410.35,-1213.35 420.45,-1216.53 414.54,-1207.75 410.35,-1213.35"/>
</g>
<!-- repl&#45;&gt;wasm -->
<g id="edge125" class="edge">
<title>repl&#45;&gt;wasm</title>
<path fill="none" stroke="black" d="M341.94,-629.45C361.23,-609.85 391.12,-580.61 405,-572.87 473.61,-534.63 496.82,-525.87 575.38,-525.87 575.38,-525.87 575.38,-525.87 707.38,-525.87 798.53,-525.87 904.82,-510.09 960.02,-500.69"/>
<polygon fill="black" stroke="black" points="960.57,-504.15 969.83,-498.99 959.38,-497.25 960.57,-504.15"/>
</g>
<!-- sat&#45;&gt;parse -->
<g id="edge126" class="edge">
<title>sat&#45;&gt;parse</title>
<path fill="none" stroke="black" d="M884.73,-1384.17C923.76,-1368.43 996.49,-1333.57 1035.5,-1279.87 1081.74,-1216.23 1100.22,-1122.82 1106.93,-1075.58"/>
<polygon fill="black" stroke="black" points="1110.38,-1076.22 1108.23,-1065.84 1103.44,-1075.3 1110.38,-1076.22"/>
</g>
<!-- sat&#45;&gt;types -->
<g id="edge127" class="edge">
<title>sat&#45;&gt;types</title>
<path fill="none" stroke="black" d="M884.57,-1401.89C930.05,-1415.07 1026.77,-1439.87 1110.38,-1439.87 1110.38,-1439.87 1110.38,-1439.87 1215.25,-1439.87 1289.31,-1439.87 1324.68,-1428.97 1376.5,-1481.87 1408.54,-1514.59 1428.03,-1651.37 1435.27,-1712.33"/>
<polygon fill="black" stroke="black" points="1431.76,-1712.43 1436.39,-1721.96 1438.71,-1711.62 1431.76,-1712.43"/>
</g>
<!-- sat&#45;&gt;wasm -->
<g id="edge128" class="edge">
<title>sat&#45;&gt;wasm</title>
<path fill="none" stroke="black" d="M864.31,-1375.55C877.53,-1333.95 909.52,-1229 925.75,-1138.87 954.72,-978.01 943.33,-935.28 961.75,-772.87 972.1,-681.68 986.59,-574.02 993.56,-523.22"/>
<polygon fill="black" stroke="black" points="996.98,-524.02 994.88,-513.63 990.05,-523.06 996.98,-524.02"/>
</g>
<!-- serve&#45;&gt;core -->
<g id="edge129" class="edge">
<title>serve&#45;&gt;core</title>
<path fill="none" stroke="black" d="M226.5,-861.9C232.33,-865.83 237.79,-870.79 241.25,-876.87 286.16,-955.87 262.08,-1604.28 277.25,-1693.87 316.02,-1922.92 215.7,-2187.87 448,-2187.87 448,-2187.87 448,-2187.87 707.38,-2187.87 812.35,-2187.87 850.11,-2170.66 925.75,-2097.87 962.53,-2062.48 982.18,-2004.73 991.21,-1970.01"/>
<polygon fill="black" stroke="black" points="994.52,-1971.2 993.52,-1960.65 987.73,-1969.52 994.52,-1971.2"/>
</g>
<!-- serve&#45;&gt;git -->
<g id="edge130" class="edge">
<title>serve&#45;&gt;git</title>
<path fill="none" stroke="black" d="M203.41,-831.68C215.43,-765.7 257.42,-541.54 277.25,-515.87 305.39,-479.46 333.71,-497.41 369,-467.87 394.47,-446.56 416.94,-415.71 431.34,-393.53"/>
<polygon fill="black" stroke="black" points="434.16,-395.61 436.56,-385.29 428.25,-391.86 434.16,-395.61"/>
</g>
<!-- serve&#45;&gt;hash -->
<g id="edge131" class="edge">
<title>serve&#45;&gt;hash</title>
<path fill="none" stroke="black" d="M226.33,-852.54C312.81,-861.21 585.84,-887.35 623.75,-875.87 642.15,-870.3 642.22,-859.77 659.75,-851.87 712.49,-828.11 778.26,-813.47 818.77,-806"/>
<polygon fill="black" stroke="black" points="819.28,-809.47 828.51,-804.27 818.05,-802.58 819.28,-809.47"/>
</g>
<!-- serve&#45;&gt;init -->
<g id="edge132" class="edge">
<title>serve&#45;&gt;init</title>
<path fill="none" stroke="black" d="M226.45,-862.48C232.13,-866.35 237.54,-871.14 241.25,-876.87 296.05,-961.52 240.69,-1006.9 277.25,-1100.87 350.97,-1290.37 397.9,-1327.45 529,-1482.87 574.61,-1536.95 636.7,-1591.41 673.74,-1622.26"/>
<polygon fill="black" stroke="black" points="671.49,-1624.94 681.43,-1628.62 675.96,-1619.55 671.49,-1624.94"/>
</g>
<!-- serve&#45;&gt;metamath -->
<g id="edge133" class="edge">
<title>serve&#45;&gt;metamath</title>
<path fill="none" stroke="black" d="M226.32,-857.08C267.03,-868.44 343.49,-890.52 369,-902.87 509.71,-971.02 511.69,-1050.68 659.75,-1100.87 707.2,-1116.96 764.75,-1118.24 805.29,-1116.38"/>
<polygon fill="black" stroke="black" points="805.47,-1119.88 815.27,-1115.84 805.09,-1112.89 805.47,-1119.88"/>
</g>
<!-- serve&#45;&gt;object -->
<g id="edge134" class="edge">
<title>serve&#45;&gt;object</title>
<path fill="none" stroke="black" d="M201.14,-831.42C204.46,-788.64 218.52,-681.67 277.25,-620.87 385.64,-508.68 482.4,-498.87 623.75,-564.87 646.33,-575.42 641.39,-591.02 659.75,-607.87 662.46,-610.36 665.37,-612.81 668.36,-615.19"/>
<polygon fill="black" stroke="black" points="666.15,-617.91 676.25,-621.13 670.36,-612.32 666.15,-617.91"/>
</g>
<!-- serve&#45;&gt;proto -->
<g id="edge135" class="edge">
<title>serve&#45;&gt;proto</title>
<path fill="none" stroke="black" d="M226.6,-867.23C244.02,-878.66 267.05,-893.76 286.14,-906.28"/>
<polygon fill="black" stroke="black" points="284.16,-909.16 294.44,-911.72 288,-903.31 284.16,-909.16"/>
</g>
<!-- serve&#45;&gt;repl -->
<g id="edge136" class="edge">
<title>serve&#45;&gt;repl</title>
<path fill="none" stroke="black" d="M211.17,-831.59C232.57,-796.15 279.83,-717.91 305.21,-675.88"/>
<polygon fill="black" stroke="black" points="308.06,-677.93 310.24,-667.56 302.07,-674.31 308.06,-677.93"/>
</g>
<!-- serve&#45;&gt;shell -->
<g id="edge137" class="edge">
<title>serve&#45;&gt;shell</title>
<path fill="none" stroke="black" d="M226.46,-863.05C232,-866.86 237.35,-871.48 241.25,-876.87 277.39,-926.84 251.77,-954.72 277.25,-1010.87 319.45,-1103.87 331.75,-1130.71 405,-1201.87 407.31,-1204.12 409.84,-1206.28 412.48,-1208.32"/>
<polygon fill="black" stroke="black" points="410.27,-1211.05 420.46,-1213.94 414.3,-1205.32 410.27,-1211.05"/>
</g>
<!-- serve&#45;&gt;store -->
<g id="edge138" class="edge">
<title>serve&#45;&gt;store</title>
<path fill="none" stroke="black" d="M200.05,-831.69C200.55,-774.08 207.88,-591.84 277.25,-463.87 360.28,-310.71 579.66,-243.46 667.86,-222.02"/>
<polygon fill="black" stroke="black" points="668.53,-225.46 677.45,-219.75 666.92,-218.65 668.53,-225.46"/>
</g>
<!-- sexp&#45;&gt;parse -->
<g id="edge139" class="edge">
<title>sexp&#45;&gt;parse</title>
<path fill="none" stroke="black" d="M1009.45,-1234.5C1028.83,-1198.29 1072.07,-1117.47 1095.16,-1074.31"/>
<polygon fill="black" stroke="black" points="1098.22,-1076.01 1099.85,-1065.54 1092.05,-1072.7 1098.22,-1076.01"/>
</g>
<!-- shell&#45;&gt;hol -->
<g id="edge140" class="edge">
<title>shell&#45;&gt;hol</title>
<path fill="none" stroke="black" d="M451.57,-1247.2C458.43,-1324.99 487.4,-1627.78 529,-1712.87 594.3,-1846.44 749.94,-1946.47 820.5,-1986.6"/>
<polygon fill="black" stroke="black" points="818.52,-1989.5 828.96,-1991.34 821.95,-1983.4 818.52,-1989.5"/>
</g>
<!-- shell&#45;&gt;kernel -->
<g id="edge141" class="edge">
<title>shell&#45;&gt;kernel</title>
<path fill="none" stroke="black" d="M476.28,-1229.92C493.61,-1230.61 516.61,-1231.53 536.09,-1232.31"/>
<polygon fill="black" stroke="black" points="535.74,-1235.8 545.87,-1232.7 536.02,-1228.8 535.74,-1235.8"/>
</g>
<!-- smt&#45;&gt;sat -->
<g id="edge142" class="edge">
<title>smt&#45;&gt;sat</title>
<path fill="none" stroke="black" d="M733.67,-1393.87C757.32,-1393.87 792.33,-1393.87 818.91,-1393.87"/>
<polygon fill="black" stroke="black" points="818.58,-1397.37 828.58,-1393.87 818.58,-1390.37 818.58,-1397.37"/>
</g>
<!-- smt&#45;&gt;sexp -->
<g id="edge143" class="edge">
<title>smt&#45;&gt;sexp</title>
<path fill="none" stroke="black" d="M733.81,-1385.02C749.77,-1379.7 770.53,-1372.83 789,-1366.87 849.63,-1347.31 871.17,-1356.74 925.75,-1323.87 945.09,-1312.23 963.16,-1294.34 976.34,-1279.43"/>
<polygon fill="black" stroke="black" points="978.67,-1282.09 982.52,-1272.22 973.36,-1277.53 978.67,-1282.09"/>
</g>
<!-- smt&#45;&gt;types -->
<g id="edge144" class="edge">
<title>smt&#45;&gt;types</title>
<path fill="none" stroke="black" d="M714.03,-1412.18C725,-1439.4 749.66,-1489.82 789,-1512.87 869.32,-1559.96 904.52,-1531.87 997.62,-1531.87 997.62,-1531.87 997.62,-1531.87 1215.25,-1531.87 1287.71,-1531.87 1321.01,-1509.29 1376.5,-1555.87 1423.24,-1595.12 1434.92,-1670.63 1437.73,-1712.36"/>
<polygon fill="black" stroke="black" points="1434.22,-1712.35 1438.24,-1722.15 1441.21,-1711.98 1434.22,-1712.35"/>
</g>
<!-- spectec&#45;&gt;grammar -->
<g id="edge145" class="edge">
<title>spectec&#45;&gt;grammar</title>
<path fill="none" stroke="black" d="M892.44,-1649.23C909.86,-1646.85 931.33,-1643.92 950.33,-1641.33"/>
<polygon fill="black" stroke="black" points="950.54,-1644.83 959.98,-1640.01 949.6,-1637.9 950.54,-1644.83"/>
</g>
<!-- store&#45;&gt;hash -->
<g id="edge146" class="edge">
<title>store&#45;&gt;hash</title>
<path fill="none" stroke="black" d="M712,-232.06C733.35,-316.04 822.54,-666.79 848.96,-770.73"/>
<polygon fill="black" stroke="black" points="845.5,-771.32 851.36,-780.15 852.29,-769.6 845.5,-771.32"/>
</g>
<!-- store&#45;&gt;json -->
<g id="edge147" class="edge">
<title>store&#45;&gt;json</title>
<path fill="none" stroke="black" d="M733.67,-204.34C757.43,-195.73 792.65,-182.97 819.27,-173.32"/>
<polygon fill="black" stroke="black" points="820.46,-176.61 828.67,-169.92 818.08,-170.03 820.46,-176.61"/>
</g>
<!-- store&#45;&gt;sqlite -->
<g id="edge148" class="edge">
<title>store&#45;&gt;sqlite</title>
<path fill="none" stroke="black" d="M733.67,-213.87C757.32,-213.87 792.33,-213.87 818.91,-213.87"/>
<polygon fill="black" stroke="black" points="818.58,-217.37 828.58,-213.87 818.58,-210.37 818.58,-217.37"/>
</g>
<!-- tcb&#45;db -->
<g id="node54" class="node">
<title>tcb&#45;db</title>
<polygon fill="none" stroke="black" points="736.5,-177.87 676.25,-177.87 676.25,-141.87 736.5,-141.87 736.5,-177.87"/>
<text text-anchor="middle" x="706.38" y="-155.57" font-family="sans-serif" font-size="14.00">tcb&#45;db</text>
</g>
<!-- tcb&#45;db&#45;&gt;json -->
<g id="edge149" class="edge">
<title>tcb&#45;db&#45;&gt;json</title>
<path fill="none" stroke="black" d="M736.81,-159.87C760.24,-159.87 793.19,-159.87 818.57,-159.87"/>
<polygon fill="black" stroke="black" points="818.48,-163.37 828.48,-159.87 818.48,-156.37 818.48,-163.37"/>
</g>
<!-- tcb&#45;db&#45;&gt;sqlite -->
<g id="edge150" class="edge">
<title>tcb&#45;db&#45;&gt;sqlite</title>
<path fill="none" stroke="black" d="M736.81,-170.54C760.45,-179.11 793.79,-191.19 819.26,-200.42"/>
<polygon fill="black" stroke="black" points="817.98,-203.68 828.57,-203.8 820.36,-197.1 817.98,-203.68"/>
</g>
<!-- wasm&#45;build&#45;guest -->
<g id="node57" class="node">
<title>wasm&#45;build&#45;guest</title>
<polygon fill="none" stroke="black" points="925.75,-433.87 789,-433.87 789,-397.87 925.75,-397.87 925.75,-433.87"/>
<text text-anchor="middle" x="857.38" y="-411.57" font-family="sans-serif" font-size="14.00">wasm&#45;build&#45;guest</text>
</g>
<!-- wasm&#45;build&#45;guest&#45;&gt;wasm -->
<g id="edge151" class="edge">
<title>wasm&#45;build&#45;guest&#45;&gt;wasm</title>
<path fill="none" stroke="black" d="M899.41,-434.35C908.2,-438.59 917.37,-443.23 925.75,-447.87 937.67,-454.49 950.32,-462.29 961.62,-469.58"/>
<polygon fill="black" stroke="black" points="959.6,-472.44 969.88,-474.97 963.42,-466.57 959.6,-472.44"/>
</g>
<!-- wasm&#45;spec -->
<g id="node58" class="node">
<title>wasm&#45;spec</title>
<polygon fill="none" stroke="black" points="753,-598.87 659.75,-598.87 659.75,-562.87 753,-562.87 753,-598.87"/>
<text text-anchor="middle" x="706.38" y="-576.57" font-family="sans-serif" font-size="14.00">wasm&#45;spec</text>
</g>
<!-- wasm&#45;spec&#45;&gt;hash -->
<g id="edge152" class="edge">
<title>wasm&#45;spec&#45;&gt;hash</title>
<path fill="none" stroke="black" d="M737.46,-599.03C743.01,-603.16 748.47,-607.84 753,-612.87 796.67,-661.47 829.18,-731.7 845.22,-770.81"/>
<polygon fill="black" stroke="black" points="841.94,-772.04 848.91,-780.02 848.44,-769.44 841.94,-772.04"/>
</g>
<!-- wasm&#45;spec&#45;&gt;wasm -->
<g id="edge153" class="edge">
<title>wasm&#45;spec&#45;&gt;wasm</title>
<path fill="none" stroke="black" d="M753.11,-577.41C798.3,-572.82 868.73,-562.48 925.75,-539.87 939.2,-534.54 952.85,-526.58 964.58,-518.78"/>
<polygon fill="black" stroke="black" points="966.46,-521.74 972.7,-513.18 962.48,-515.98 966.46,-521.74"/>
</g>
<!-- wasm&#45;store&#45;&gt;json -->
<g id="edge154" class="edge">
<title>wasm&#45;store&#45;&gt;json</title>
<path fill="none" stroke="black" d="M624.07,-78.28C679.02,-97.58 769.12,-129.23 819.44,-146.9"/>
<polygon fill="black" stroke="black" points="818.12,-150.15 828.71,-150.16 820.44,-143.54 818.12,-150.15"/>
</g>
<!-- wasm&#45;store&#45;&gt;store -->
<g id="edge155" class="edge">
<title>wasm&#45;store&#45;&gt;store</title>
<path fill="none" stroke="black" d="M609.48,-80.22C614.73,-84.22 619.75,-88.81 623.75,-93.87 651.21,-128.67 631.1,-153.06 659.75,-186.87 662.61,-190.25 666.01,-193.32 669.64,-196.06"/>
<polygon fill="black" stroke="black" points="667.45,-198.81 677.72,-201.4 671.31,-192.97 667.45,-198.81"/>
</g>
<!-- wasm&#45;store&#45;&gt;wasm -->
<g id="edge156" class="edge">
<title>wasm&#45;store&#45;&gt;wasm</title>
<path fill="none" stroke="black" d="M623.96,-56.09C699.28,-49.61 847.3,-49.26 925.75,-132.87 970.99,-181.09 990.05,-387.23 995.7,-464.48"/>
<polygon fill="black" stroke="black" points="992.19,-464.49 996.39,-474.22 999.18,-464 992.19,-464.49"/>
</g>
<!-- web&#45;kernel -->
<g id="node60" class="node">
<title>web&#45;kernel</title>
<polygon fill="none" stroke="black" points="369,-1684.87 277.25,-1684.87 277.25,-1648.87 369,-1648.87 369,-1684.87"/>
<text text-anchor="middle" x="323.12" y="-1662.57" font-family="sans-serif" font-size="14.00">web&#45;kernel</text>
</g>
<!-- web&#45;kernel&#45;&gt;forsp -->
<g id="edge157" class="edge">
<title>web&#45;kernel&#45;&gt;forsp</title>
<path fill="none" stroke="black" d="M325.34,-1648.44C330.72,-1571.62 354.31,-1277.39 405,-1201.87 407.18,-1198.63 409.89,-1195.7 412.89,-1193.07"/>
<polygon fill="black" stroke="black" points="414.69,-1196.09 420.67,-1187.35 410.54,-1190.46 414.69,-1196.09"/>
</g>
<!-- web&#45;kernel&#45;&gt;haskell -->
<g id="edge158" class="edge">
<title>web&#45;kernel&#45;&gt;haskell</title>
<path fill="none" stroke="black" d="M331.5,-1684.98C352.2,-1735.76 410.91,-1879.86 436.19,-1941.89"/>
<polygon fill="black" stroke="black" points="432.92,-1943.14 439.93,-1951.08 439.4,-1940.5 432.92,-1943.14"/>
</g>
<!-- web&#45;kernel&#45;&gt;hol&#45;api -->
<g id="edge159" class="edge">
<title>web&#45;kernel&#45;&gt;hol&#45;api</title>
<path fill="none" stroke="black" d="M325.87,-1685.06C332.31,-1748.09 356.9,-1955.6 405,-1997.87 439.84,-2028.5 495.42,-2028.88 533.57,-2024.48"/>
<polygon fill="black" stroke="black" points="533.85,-2027.98 543.3,-2023.2 532.93,-2021.04 533.85,-2027.98"/>
</g>
<!-- web&#45;kernel&#45;&gt;kernel -->
<g id="edge160" class="edge">
<title>web&#45;kernel&#45;&gt;kernel</title>
<path fill="none" stroke="black" d="M329.82,-1648.62C349.33,-1588.29 418.48,-1391.99 529,-1265.87 531.89,-1262.58 535.19,-1259.45 538.67,-1256.54"/>
<polygon fill="black" stroke="black" points="540.52,-1259.53 546.35,-1250.69 536.27,-1253.97 540.52,-1259.53"/>
</g>
<!-- web&#45;kernel&#45;&gt;lisp -->
<g id="edge161" class="edge">
<title>web&#45;kernel&#45;&gt;lisp</title>
<path fill="none" stroke="black" d="M369.2,-1666.87C382.65,-1666.87 397.25,-1666.87 410.19,-1666.87"/>
<polygon fill="black" stroke="black" points="410.01,-1670.37 420.01,-1666.87 410.01,-1663.37 410.01,-1670.37"/>
</g>
</g>
</svg>
