<?xml version="1.0" encoding="UTF-8" standalone="no"?>
<!DOCTYPE svg PUBLIC "-//W3C//DTD SVG 1.1//EN"
 "http://www.w3.org/Graphics/SVG/1.1/DTD/svg11.dtd">
<!-- Generated by graphviz version 12.2.1 (0)
 -->
<!-- Title: deps Pages: 1 -->
<svg width="1454pt" height="2147pt"
 viewBox="0.00 0.00 1453.50 2146.92" xmlns="http://www.w3.org/2000/svg" xmlns:xlink="http://www.w3.org/1999/xlink">
<g id="graph0" class="graph" transform="scale(1 1) rotate(0) translate(4 2142.92)">
<title>deps</title>
<polygon fill="white" stroke="none" points="-4,4 -4,-2142.92 1449.5,-2142.92 1449.5,4 -4,4"/>
<!-- covalence -->
<g id="node1" class="node">
<title>covalence</title>
<polygon fill="none" stroke="black" points="102.62,-865.92 18.38,-865.92 18.38,-829.92 102.62,-829.92 102.62,-865.92"/>
<text text-anchor="middle" x="60.5" y="-843.62" font-family="sans-serif" font-size="14.00">covalence</text>
</g>
<!-- client -->
<g id="node5" class="node">
<title>client</title>
<polygon fill="none" stroke="black" points="350.12,-1048.92 296.12,-1048.92 296.12,-1012.92 350.12,-1012.92 350.12,-1048.92"/>
<text text-anchor="middle" x="323.12" y="-1026.62" font-family="sans-serif" font-size="14.00">client</text>
</g>
<!-- covalence&#45;&gt;client -->
<g id="edge1" class="edge">
<title>covalence&#45;&gt;client</title>
<path fill="none" stroke="black" d="M103.08,-861.11C109.77,-864.72 116.1,-869.26 121,-874.92 158.57,-918.3 114.62,-960.23 157,-998.92 191.54,-1030.45 247.5,-1035.05 284.55,-1034.08"/>
<polygon fill="black" stroke="black" points="284.51,-1037.59 294.35,-1033.66 284.21,-1030.59 284.51,-1037.59"/>
</g>
<!-- fuse -->
<g id="node11" class="node">
<title>fuse</title>
<polygon fill="none" stroke="black" points="582.38,-674.92 528.38,-674.92 528.38,-638.92 582.38,-638.92 582.38,-674.92"/>
<text text-anchor="middle" x="555.38" y="-652.62" font-family="sans-serif" font-size="14.00">fuse</text>
</g>
<!-- covalence&#45;&gt;fuse -->
<g id="edge2" class="edge">
<title>covalence&#45;&gt;fuse</title>
<path fill="none" stroke="black" d="M70.34,-829.7C84.56,-802.52 115.19,-751.9 157,-726.92 274.02,-657.01 442.74,-652.94 516.95,-655"/>
<polygon fill="black" stroke="black" points="516.4,-658.49 526.51,-655.33 516.64,-651.49 516.4,-658.49"/>
</g>
<!-- git -->
<g id="node12" class="node">
<title>git</title>
<polygon fill="none" stroke="black" points="465.5,-636.92 411.5,-636.92 411.5,-600.92 465.5,-600.92 465.5,-636.92"/>
<text text-anchor="middle" x="438.5" y="-614.62" font-family="sans-serif" font-size="14.00">git</text>
</g>
<!-- covalence&#45;&gt;git -->
<g id="edge3" class="edge">
<title>covalence&#45;&gt;git</title>
<path fill="none" stroke="black" d="M67.28,-829.45C78.74,-796.01 107.57,-725.51 157,-688.92 230.63,-634.42 341.85,-622.05 399.63,-619.44"/>
<polygon fill="black" stroke="black" points="399.74,-622.94 409.61,-619.07 399.49,-615.94 399.74,-622.94"/>
</g>
<!-- hash -->
<g id="node15" class="node">
<title>hash</title>
<polygon fill="none" stroke="black" points="863.38,-739.92 809.38,-739.92 809.38,-703.92 863.38,-703.92 863.38,-739.92"/>
<text text-anchor="middle" x="836.38" y="-717.62" font-family="sans-serif" font-size="14.00">hash</text>
</g>
<!-- covalence&#45;&gt;hash -->
<g id="edge4" class="edge">
<title>covalence&#45;&gt;hash</title>
<path fill="none" stroke="black" d="M102.95,-859.99C109.91,-863.74 116.37,-868.61 121,-874.92 199.39,-981.78 65.36,-1075.18 157,-1170.92 222.44,-1239.29 276.68,-1211.76 369,-1190.92 418.45,-1179.76 431.37,-1172.24 472,-1141.92 491.17,-1127.62 491.13,-1118.88 508,-1101.92 563.41,-1046.2 572.67,-1025.44 638.75,-982.92 676.67,-958.52 699.6,-974.29 732,-942.92 788.13,-888.58 817.04,-797.82 828.82,-751.33"/>
<polygon fill="black" stroke="black" points="832.19,-752.26 831.15,-741.72 825.39,-750.61 832.19,-752.26"/>
</g>
<!-- hol -->
<g id="node17" class="node">
<title>hol</title>
<polygon fill="none" stroke="black" points="863.38,-2024.92 809.38,-2024.92 809.38,-1988.92 863.38,-1988.92 863.38,-2024.92"/>
<text text-anchor="middle" x="836.38" y="-2002.62" font-family="sans-serif" font-size="14.00">hol</text>
</g>
<!-- covalence&#45;&gt;hol -->
<g id="edge5" class="edge">
<title>covalence&#45;&gt;hol</title>
<path fill="none" stroke="black" d="M103.05,-859.92C110.01,-863.67 116.43,-868.56 121,-874.92 167.26,-939.32 145.38,-1151.48 157,-1229.92 185.03,-1419.19 130.8,-2074.92 322.12,-2074.92 322.12,-2074.92 322.12,-2074.92 556.38,-2074.92 645.28,-2074.92 745.69,-2041.93 798.45,-2021.9"/>
<polygon fill="black" stroke="black" points="799.49,-2025.26 807.55,-2018.39 796.96,-2018.73 799.49,-2025.26"/>
</g>
<!-- lsp -->
<g id="node27" class="node">
<title>lsp</title>
<polygon fill="none" stroke="black" points="863.38,-1038.92 809.38,-1038.92 809.38,-1002.92 863.38,-1002.92 863.38,-1038.92"/>
<text text-anchor="middle" x="836.38" y="-1016.62" font-family="sans-serif" font-size="14.00">lsp</text>
</g>
<!-- covalence&#45;&gt;lsp -->
<g id="edge6" class="edge">
<title>covalence&#45;&gt;lsp</title>
<path fill="none" stroke="black" d="M103.02,-859.94C109.97,-863.69 116.41,-868.58 121,-874.92 164.5,-935.04 103.45,-1155.55 157,-1206.92 195.65,-1244 223.72,-1213.14 277.25,-1214.92 424.19,-1219.8 482.67,-1240.75 602.75,-1155.92 626.31,-1139.28 616.44,-1120.21 638.75,-1101.92 686.48,-1062.79 755.72,-1040.22 798.02,-1029.27"/>
<polygon fill="black" stroke="black" points="798.62,-1032.73 807.47,-1026.92 796.92,-1025.94 798.62,-1032.73"/>
</g>
<!-- object -->
<g id="node30" class="node">
<title>object</title>
<polygon fill="none" stroke="black" points="714,-506.92 656.75,-506.92 656.75,-470.92 714,-470.92 714,-506.92"/>
<text text-anchor="middle" x="685.38" y="-484.62" font-family="sans-serif" font-size="14.00">object</text>
</g>
<!-- covalence&#45;&gt;object -->
<g id="edge7" class="edge">
<title>covalence&#45;&gt;object</title>
<path fill="none" stroke="black" d="M62.91,-829.48C69.7,-755.76 106.12,-481.88 277.25,-391.92 405.35,-324.58 474.91,-315.09 602.75,-382.92 634.71,-399.88 657.99,-435.44 671.33,-460.69"/>
<polygon fill="black" stroke="black" points="668.12,-462.09 675.75,-469.44 674.37,-458.94 668.12,-462.09"/>
</g>
<!-- opentheory -->
<g id="node31" class="node">
<title>opentheory</title>
<polygon fill="none" stroke="black" points="368.62,-2138.92 277.62,-2138.92 277.62,-2102.92 368.62,-2102.92 368.62,-2138.92"/>
<text text-anchor="middle" x="323.12" y="-2116.62" font-family="sans-serif" font-size="14.00">opentheory</text>
</g>
<!-- covalence&#45;&gt;opentheory -->
<g id="edge8" class="edge">
<title>covalence&#45;&gt;opentheory</title>
<path fill="none" stroke="black" d="M103.12,-859.5C110.16,-863.3 116.6,-868.31 121,-874.92 195.77,-987.26 69.6,-1986.1 157,-2088.92 183.22,-2119.77 229.48,-2126.59 266.38,-2126.36"/>
<polygon fill="black" stroke="black" points="266.07,-2129.87 275.98,-2126.12 265.9,-2122.87 266.07,-2129.87"/>
</g>
<!-- proto -->
<g id="node35" class="node">
<title>proto</title>
<polygon fill="none" stroke="black" points="350.12,-804.92 296.12,-804.92 296.12,-768.92 350.12,-768.92 350.12,-804.92"/>
<text text-anchor="middle" x="323.12" y="-782.62" font-family="sans-serif" font-size="14.00">proto</text>
</g>
<!-- covalence&#45;&gt;proto -->
<g id="edge9" class="edge">
<title>covalence&#45;&gt;proto</title>
<path fill="none" stroke="black" d="M103.08,-838.19C153.14,-826.47 236.45,-806.97 284.61,-795.7"/>
<polygon fill="black" stroke="black" points="285.36,-799.12 294.3,-793.43 283.76,-792.3 285.36,-799.12"/>
</g>
<!-- repl -->
<g id="node41" class="node">
<title>repl</title>
<polygon fill="none" stroke="black" points="350.12,-510.92 296.12,-510.92 296.12,-474.92 350.12,-474.92 350.12,-510.92"/>
<text text-anchor="middle" x="323.12" y="-488.62" font-family="sans-serif" font-size="14.00">repl</text>
</g>
<!-- covalence&#45;&gt;repl -->
<g id="edge10" class="edge">
<title>covalence&#45;&gt;repl</title>
<path fill="none" stroke="black" d="M64.06,-829.73C71.21,-784.7 95.11,-666.31 157,-591.92 191.53,-550.41 248.24,-521.86 285.38,-506.45"/>
<polygon fill="black" stroke="black" points="286.4,-509.82 294.37,-502.84 283.78,-503.32 286.4,-509.82"/>
</g>
<!-- serve -->
<g id="node43" class="node">
<title>serve</title>
<polygon fill="none" stroke="black" points="226.12,-879.92 172.12,-879.92 172.12,-843.92 226.12,-843.92 226.12,-879.92"/>
<text text-anchor="middle" x="199.12" y="-857.62" font-family="sans-serif" font-size="14.00">serve</text>
</g>
<!-- covalence&#45;&gt;serve -->
<g id="edge11" class="edge">
<title>covalence&#45;&gt;serve</title>
<path fill="none" stroke="black" d="M102.86,-852.16C121.2,-854.04 142.63,-856.23 160.51,-858.07"/>
<polygon fill="black" stroke="black" points="160.15,-861.55 170.45,-859.08 160.86,-854.58 160.15,-861.55"/>
</g>
<!-- shell -->
<g id="node45" class="node">
<title>shell</title>
<polygon fill="none" stroke="black" points="465.5,-1132.92 411.5,-1132.92 411.5,-1096.92 465.5,-1096.92 465.5,-1132.92"/>
<text text-anchor="middle" x="438.5" y="-1110.62" font-family="sans-serif" font-size="14.00">shell</text>
</g>
<!-- covalence&#45;&gt;shell -->
<g id="edge12" class="edge">
<title>covalence&#45;&gt;shell</title>
<path fill="none" stroke="black" d="M102.85,-860.06C109.82,-863.81 116.31,-868.66 121,-874.92 189.35,-966.18 83.31,-1041.92 157,-1128.92 218.87,-1201.96 278.28,-1197.45 369,-1166.92 384.79,-1161.61 399.82,-1151.05 411.77,-1140.83"/>
<polygon fill="black" stroke="black" points="414.05,-1143.48 419.13,-1134.18 409.36,-1138.28 414.05,-1143.48"/>
</g>
<!-- store -->
<g id="node49" class="node">
<title>store</title>
<polygon fill="none" stroke="black" points="712.38,-739.92 658.38,-739.92 658.38,-703.92 712.38,-703.92 712.38,-739.92"/>
<text text-anchor="middle" x="685.38" y="-717.62" font-family="sans-serif" font-size="14.00">store</text>
</g>
<!-- covalence&#45;&gt;store -->
<g id="edge13" class="edge">
<title>covalence&#45;&gt;store</title>
<path fill="none" stroke="black" d="M98.32,-829.55C115.9,-821.04 137.35,-811.04 157,-802.92 209.46,-781.24 221.4,-770.05 277.25,-759.92 419.61,-734.1 460.94,-783.63 602.75,-754.92 617.88,-751.86 633.78,-746.07 647.48,-740.19"/>
<polygon fill="black" stroke="black" points="648.87,-743.41 656.56,-736.13 646.01,-737.02 648.87,-743.41"/>
</g>
<!-- wasm -->
<g id="node52" class="node">
<title>wasm</title>
<polygon fill="none" stroke="black" points="1004.75,-228.92 950.5,-228.92 950.5,-192.92 1004.75,-192.92 1004.75,-228.92"/>
<text text-anchor="middle" x="977.62" y="-206.62" font-family="sans-serif" font-size="14.00">wasm</text>
</g>
<!-- covalence&#45;&gt;wasm -->
<g id="edge14" class="edge">
<title>covalence&#45;&gt;wasm</title>
<path fill="none" stroke="black" d="M63.51,-829.64C71.92,-756.06 106.12,-482.32 157,-413.92 358.14,-143.5 601.99,-435.97 904.75,-287.92 927.21,-276.94 946.17,-255.73 958.97,-238.35"/>
<polygon fill="black" stroke="black" points="961.67,-240.61 964.56,-230.41 955.94,-236.58 961.67,-240.61"/>
</g>
<!-- acset -->
<g id="node2" class="node">
<title>acset</title>
<polygon fill="none" stroke="black" points="863.38,-1130.92 809.38,-1130.92 809.38,-1094.92 863.38,-1094.92 863.38,-1130.92"/>
<text text-anchor="middle" x="836.38" y="-1108.62" font-family="sans-serif" font-size="14.00">acset</text>
</g>
<!-- alethe -->
<g id="node3" class="node">
<title>alethe</title>
<polygon fill="none" stroke="black" points="583.62,-1623.92 527.12,-1623.92 527.12,-1587.92 583.62,-1587.92 583.62,-1623.92"/>
<text text-anchor="middle" x="555.38" y="-1601.62" font-family="sans-serif" font-size="14.00">alethe</text>
</g>
<!-- core -->
<g id="node6" class="node">
<title>core</title>
<polygon fill="#ffd6d6" stroke="black" points="1004.62,-1788.92 950.62,-1788.92 950.62,-1752.92 1004.62,-1752.92 1004.62,-1788.92"/>
<text text-anchor="middle" x="977.62" y="-1766.62" font-family="sans-serif" font-size="14.00">core</text>
</g>
<!-- alethe&#45;&gt;core -->
<g id="edge15" class="edge">
<title>alethe&#45;&gt;core</title>
<path fill="none" stroke="black" d="M576.42,-1624.36C611.95,-1655.83 689.67,-1719.29 768,-1747.92 825.09,-1768.79 896.36,-1772.22 939.09,-1772.09"/>
<polygon fill="black" stroke="black" points="938.88,-1775.59 948.84,-1771.98 938.8,-1768.59 938.88,-1775.59"/>
</g>
<!-- hol&#45;eval -->
<g id="node19" class="node">
<title>hol&#45;eval</title>
<polygon fill="none" stroke="black" points="871.38,-1704.92 801.38,-1704.92 801.38,-1668.92 871.38,-1668.92 871.38,-1704.92"/>
<text text-anchor="middle" x="836.38" y="-1682.62" font-family="sans-serif" font-size="14.00">hol&#45;eval</text>
</g>
<!-- alethe&#45;&gt;hol&#45;eval -->
<g id="edge16" class="edge">
<title>alethe&#45;&gt;hol&#45;eval</title>
<path fill="none" stroke="black" d="M583.89,-1613.91C632.06,-1627.89 732.1,-1656.94 790.44,-1673.87"/>
<polygon fill="black" stroke="black" points="789.14,-1677.14 799.72,-1676.57 791.09,-1670.42 789.14,-1677.14"/>
</g>
<!-- init -->
<g id="node21" class="node">
<title>init</title>
<polygon fill="none" stroke="black" points="712.38,-1559.92 658.38,-1559.92 658.38,-1523.92 712.38,-1523.92 712.38,-1559.92"/>
<text text-anchor="middle" x="685.38" y="-1537.62" font-family="sans-serif" font-size="14.00">init</text>
</g>
<!-- alethe&#45;&gt;init -->
<g id="edge17" class="edge">
<title>alethe&#45;&gt;init</title>
<path fill="none" stroke="black" d="M583.83,-1592.19C602.6,-1582.81 627.67,-1570.27 648.08,-1560.07"/>
<polygon fill="black" stroke="black" points="649.54,-1563.25 656.92,-1555.65 646.41,-1556.99 649.54,-1563.25"/>
</g>
<!-- sexp -->
<g id="node44" class="node">
<title>sexp</title>
<polygon fill="none" stroke="black" points="1004.62,-1268.92 950.62,-1268.92 950.62,-1232.92 1004.62,-1232.92 1004.62,-1268.92"/>
<text text-anchor="middle" x="977.62" y="-1246.62" font-family="sans-serif" font-size="14.00">sexp</text>
</g>
<!-- alethe&#45;&gt;sexp -->
<g id="edge18" class="edge">
<title>alethe&#45;&gt;sexp</title>
<path fill="none" stroke="black" d="M566.23,-1587.72C592.69,-1540.43 670.01,-1412.39 768,-1340.92 820.54,-1302.6 845.51,-1315.72 904.75,-1288.92 916.57,-1283.57 929.16,-1277.17 940.45,-1271.16"/>
<polygon fill="black" stroke="black" points="941.92,-1274.34 949.06,-1266.51 938.6,-1268.18 941.92,-1274.34"/>
</g>
<!-- smt -->
<g id="node46" class="node">
<title>smt</title>
<polygon fill="none" stroke="black" points="712.38,-1314.92 658.38,-1314.92 658.38,-1278.92 712.38,-1278.92 712.38,-1314.92"/>
<text text-anchor="middle" x="685.38" y="-1292.62" font-family="sans-serif" font-size="14.00">smt</text>
</g>
<!-- alethe&#45;&gt;smt -->
<g id="edge19" class="edge">
<title>alethe&#45;&gt;smt</title>
<path fill="none" stroke="black" d="M557.69,-1587.6C561.9,-1540.42 578.5,-1412.59 638.75,-1328.92 641.69,-1324.83 645.32,-1321.09 649.24,-1317.71"/>
<polygon fill="black" stroke="black" points="651.1,-1320.7 656.92,-1311.84 646.85,-1315.13 651.1,-1320.7"/>
</g>
<!-- types -->
<g id="node51" class="node">
<title>types</title>
<polygon fill="#ffd6d6" stroke="black" points="1445.5,-1692.92 1391.5,-1692.92 1391.5,-1656.92 1445.5,-1656.92 1445.5,-1692.92"/>
<text text-anchor="middle" x="1418.5" y="-1670.62" font-family="sans-serif" font-size="14.00">types</text>
</g>
<!-- alethe&#45;&gt;types -->
<g id="edge20" class="edge">
<title>alethe&#45;&gt;types</title>
<path fill="none" stroke="black" d="M565.75,-1624.14C579.05,-1648.44 605.52,-1691.45 638.75,-1717.92 747.35,-1804.44 802.3,-1787.42 940.75,-1797.92 1124.77,-1811.87 1203.05,-1881.92 1355.5,-1777.92 1381.55,-1760.15 1398.44,-1727.48 1407.92,-1703.69"/>
<polygon fill="black" stroke="black" points="1411.11,-1705.16 1411.34,-1694.56 1404.55,-1702.7 1411.11,-1705.16"/>
</g>
<!-- arrow -->
<g id="node4" class="node">
<title>arrow</title>
<polygon fill="none" stroke="black" points="582.38,-506.92 528.38,-506.92 528.38,-470.92 582.38,-470.92 582.38,-506.92"/>
<text text-anchor="middle" x="555.38" y="-484.62" font-family="sans-serif" font-size="14.00">arrow</text>
</g>
<!-- client&#45;&gt;hash -->
<g id="edge21" class="edge">
<title>client&#45;&gt;hash</title>
<path fill="none" stroke="black" d="M350.43,-1025.61C430.72,-1009 670.84,-956.2 732,-906.92 783.22,-865.65 813.32,-791.8 826.81,-751"/>
<polygon fill="black" stroke="black" points="830.1,-752.22 829.8,-741.63 823.43,-750.1 830.1,-752.22"/>
</g>
<!-- client&#45;&gt;shell -->
<g id="edge22" class="edge">
<title>client&#45;&gt;shell</title>
<path fill="none" stroke="black" d="M350.32,-1049.4C356.47,-1053.8 362.99,-1058.5 369,-1062.92 380.65,-1071.49 393.29,-1081.02 404.51,-1089.56"/>
<polygon fill="black" stroke="black" points="402.26,-1092.25 412.34,-1095.54 406.51,-1086.69 402.26,-1092.25"/>
</g>
<!-- client&#45;&gt;store -->
<g id="edge23" class="edge">
<title>client&#45;&gt;store</title>
<path fill="none" stroke="black" d="M350.32,-1015.87C402.17,-985.32 520.03,-911.98 602.75,-830.92 628.05,-806.13 651.69,-773.02 666.96,-749.82"/>
<polygon fill="black" stroke="black" points="669.84,-751.8 672.34,-741.5 663.97,-748 669.84,-751.8"/>
</g>
<!-- pure -->
<g id="node36" class="node">
<title>pure</title>
<polygon fill="#ffd6d6" stroke="black" points="1220.25,-1738.92 1166.25,-1738.92 1166.25,-1702.92 1220.25,-1702.92 1220.25,-1738.92"/>
<text text-anchor="middle" x="1193.25" y="-1716.62" font-family="sans-serif" font-size="14.00">pure</text>
</g>
<!-- core&#45;&gt;pure -->
<g id="edge24" class="edge">
<title>core&#45;&gt;pure</title>
<path fill="none" stroke="black" d="M1004.82,-1764.79C1042.38,-1756 1111.73,-1739.77 1154.72,-1729.7"/>
<polygon fill="black" stroke="black" points="1155.43,-1733.13 1164.37,-1727.45 1153.83,-1726.32 1155.43,-1733.13"/>
</g>
<!-- pure&#45;eval -->
<g id="node37" class="node">
<title>pure&#45;eval</title>
<polygon fill="#ffd6d6" stroke="black" points="1130.25,-1692.92 1050.5,-1692.92 1050.5,-1656.92 1130.25,-1656.92 1130.25,-1692.92"/>
<text text-anchor="middle" x="1090.38" y="-1670.62" font-family="sans-serif" font-size="14.00">pure&#45;eval</text>
</g>
<!-- core&#45;&gt;pure&#45;eval -->
<g id="edge25" class="edge">
<title>core&#45;&gt;pure&#45;eval</title>
<path fill="none" stroke="black" d="M999.72,-1752.64C1016.73,-1737.89 1040.86,-1716.97 1059.8,-1700.56"/>
<polygon fill="black" stroke="black" points="1061.95,-1703.32 1067.22,-1694.13 1057.37,-1698.03 1061.95,-1703.32"/>
</g>
<!-- core&#45;&gt;types -->
<g id="edge26" class="edge">
<title>core&#45;&gt;types</title>
<path fill="none" stroke="black" d="M1005.09,-1776.03C1069.24,-1787.03 1236.49,-1807.45 1355.5,-1747.92 1375.08,-1738.13 1390.92,-1719.09 1401.69,-1702.92"/>
<polygon fill="black" stroke="black" points="1404.56,-1704.93 1406.92,-1694.61 1398.63,-1701.21 1404.56,-1704.93"/>
</g>
<!-- core&#45;test&#45;guest -->
<g id="node7" class="node">
<title>core&#45;test&#45;guest</title>
<polygon fill="none" stroke="black" points="121,-919.92 0,-919.92 0,-883.92 121,-883.92 121,-919.92"/>
<text text-anchor="middle" x="60.5" y="-897.62" font-family="sans-serif" font-size="14.00">core&#45;test&#45;guest</text>
</g>
<!-- crypto&#45;sig -->
<g id="node8" class="node">
<title>crypto&#45;sig</title>
<polygon fill="none" stroke="black" points="241.25,-94.92 157,-94.92 157,-58.92 241.25,-58.92 241.25,-94.92"/>
<text text-anchor="middle" x="199.12" y="-72.62" font-family="sans-serif" font-size="14.00">crypto&#45;sig</text>
</g>
<!-- egglog -->
<g id="node9" class="node">
<title>egglog</title>
<polygon fill="none" stroke="black" points="866.88,-1428.92 805.88,-1428.92 805.88,-1392.92 866.88,-1392.92 866.88,-1428.92"/>
<text text-anchor="middle" x="836.38" y="-1406.62" font-family="sans-serif" font-size="14.00">egglog</text>
</g>
<!-- egglog&#45;&gt;sexp -->
<g id="edge27" class="edge">
<title>egglog&#45;&gt;sexp</title>
<path fill="none" stroke="black" d="M867.29,-1401.33C879.93,-1396.18 894.15,-1388.82 904.75,-1378.92 934.51,-1351.12 955.12,-1308.16 966.41,-1279.79"/>
<polygon fill="black" stroke="black" points="969.57,-1281.34 969.87,-1270.75 963.03,-1278.84 969.57,-1281.34"/>
</g>
<!-- egglog&#45;&gt;types -->
<g id="edge28" class="edge">
<title>egglog&#45;&gt;types</title>
<path fill="none" stroke="black" d="M867.24,-1411.7C914.42,-1412.86 1009.08,-1414.92 1089.38,-1414.92 1089.38,-1414.92 1089.38,-1414.92 1194.25,-1414.92 1266.99,-1414.92 1301.82,-1393.83 1355.5,-1442.92 1385.31,-1470.18 1405.51,-1589.1 1413.58,-1645.3"/>
<polygon fill="black" stroke="black" points="1410.09,-1645.68 1414.94,-1655.1 1417.03,-1644.71 1410.09,-1645.68"/>
</g>
<!-- forsp -->
<g id="node10" class="node">
<title>forsp</title>
<polygon fill="none" stroke="black" points="712.38,-864.92 658.38,-864.92 658.38,-828.92 712.38,-828.92 712.38,-864.92"/>
<text text-anchor="middle" x="685.38" y="-842.62" font-family="sans-serif" font-size="14.00">forsp</text>
</g>
<!-- forsp&#45;&gt;hash -->
<g id="edge29" class="edge">
<title>forsp&#45;&gt;hash</title>
<path fill="none" stroke="black" d="M708.36,-828.48C733.93,-807.03 776.28,-771.5 804.98,-747.42"/>
<polygon fill="black" stroke="black" points="807.21,-750.11 812.62,-741.01 802.71,-744.75 807.21,-750.11"/>
</g>
<!-- forsp&#45;&gt;sexp -->
<g id="edge30" class="edge">
<title>forsp&#45;&gt;sexp</title>
<path fill="none" stroke="black" d="M695.24,-865.32C707.95,-889.73 733.65,-932.44 768,-955.92 820.08,-991.51 860.11,-949.35 904.75,-993.92 967.26,-1056.33 976.53,-1168.32 977.19,-1221.43"/>
<polygon fill="black" stroke="black" points="973.68,-1221.21 977.2,-1231.2 980.68,-1221.2 973.68,-1221.21"/>
</g>
<!-- fuse&#45;&gt;hash -->
<g id="edge31" class="edge">
<title>fuse&#45;&gt;hash</title>
<path fill="none" stroke="black" d="M582.64,-662.24C617.04,-669.29 679.2,-682.32 732,-694.92 754.02,-700.18 778.54,-706.56 798.17,-711.8"/>
<polygon fill="black" stroke="black" points="797.08,-715.13 807.65,-714.34 798.9,-708.37 797.08,-715.13"/>
</g>
<!-- fuse&#45;&gt;object -->
<g id="edge32" class="edge">
<title>fuse&#45;&gt;object</title>
<path fill="none" stroke="black" d="M570.32,-638.62C592.82,-609.08 637.29,-550.72 663.56,-516.24"/>
<polygon fill="black" stroke="black" points="666.26,-518.48 669.53,-508.4 660.69,-514.23 666.26,-518.48"/>
</g>
<!-- fuse&#45;&gt;store -->
<g id="edge33" class="edge">
<title>fuse&#45;&gt;store</title>
<path fill="none" stroke="black" d="M582.59,-670.23C601.48,-679.83 627.23,-692.9 648.09,-703.5"/>
<polygon fill="black" stroke="black" points="646.35,-706.53 656.85,-707.94 649.52,-700.29 646.35,-706.53"/>
</g>
<!-- git&#45;&gt;hash -->
<g id="edge34" class="edge">
<title>git&#45;&gt;hash</title>
<path fill="none" stroke="black" d="M465.76,-618.76C498.22,-619.01 555.02,-620.88 602.75,-629.92 661.96,-641.14 676.1,-648.41 732,-670.92 754.82,-680.11 779.55,-692.23 799.11,-702.35"/>
<polygon fill="black" stroke="black" points="797.28,-705.34 807.77,-706.88 800.53,-699.14 797.28,-705.34"/>
</g>
<!-- git&#45;&gt;object -->
<g id="edge35" class="edge">
<title>git&#45;&gt;object</title>
<path fill="none" stroke="black" d="M462,-600.47C465.37,-597.63 468.79,-594.72 472,-591.92 488.35,-577.65 489.61,-570.45 508,-558.92 531.67,-544.08 601.41,-518.17 645.77,-502.38"/>
<polygon fill="black" stroke="black" points="646.78,-505.74 655.04,-499.1 644.44,-499.14 646.78,-505.74"/>
</g>
<!-- sqlite -->
<g id="node48" class="node">
<title>sqlite</title>
<polygon fill="none" stroke="black" points="863.38,-552.92 809.38,-552.92 809.38,-516.92 863.38,-516.92 863.38,-552.92"/>
<text text-anchor="middle" x="836.38" y="-530.62" font-family="sans-serif" font-size="14.00">sqlite</text>
</g>
<!-- git&#45;&gt;sqlite -->
<g id="edge36" class="edge">
<title>git&#45;&gt;sqlite</title>
<path fill="none" stroke="black" d="M465.95,-609.58C478.58,-605.34 493.96,-600.49 508,-596.92 611.8,-570.53 736.71,-549.88 797.89,-540.47"/>
<polygon fill="black" stroke="black" points="798.39,-543.94 807.75,-538.97 797.34,-537.02 798.39,-543.94"/>
</g>
<!-- git&#45;&gt;store -->
<g id="edge37" class="edge">
<title>git&#45;&gt;store</title>
<path fill="none" stroke="black" d="M458.18,-637.12C477.42,-655.8 505.01,-682.34 508,-683.92 552.12,-707.21 609.61,-716.23 646.75,-719.72"/>
<polygon fill="black" stroke="black" points="646.29,-723.19 656.55,-720.54 646.88,-716.22 646.29,-723.19"/>
</g>
<!-- grammar -->
<g id="node13" class="node">
<title>grammar</title>
<polygon fill="none" stroke="black" points="1014.5,-1539.92 940.75,-1539.92 940.75,-1503.92 1014.5,-1503.92 1014.5,-1539.92"/>
<text text-anchor="middle" x="977.62" y="-1517.62" font-family="sans-serif" font-size="14.00">grammar</text>
</g>
<!-- graph -->
<g id="node14" class="node">
<title>graph</title>
<polygon fill="none" stroke="black" points="465.5,-186.92 411.5,-186.92 411.5,-150.92 465.5,-150.92 465.5,-186.92"/>
<text text-anchor="middle" x="438.5" y="-164.62" font-family="sans-serif" font-size="14.00">graph</text>
</g>
<!-- graph&#45;&gt;hash -->
<g id="edge38" class="edge">
<title>graph&#45;&gt;hash</title>
<path fill="none" stroke="black" d="M465.79,-175.51C500.07,-185.09 560.61,-205.46 602.75,-238.92 623.91,-255.72 620.44,-268.05 638.75,-287.92 675.95,-328.29 704.72,-321.28 732,-368.92 775.36,-444.64 742.92,-478.34 768,-561.92 782.26,-609.44 806.03,-661.99 821.19,-693.47"/>
<polygon fill="black" stroke="black" points="817.98,-694.86 825.5,-702.32 824.27,-691.79 817.98,-694.86"/>
</g>
<!-- parse -->
<g id="node33" class="node">
<title>parse</title>
<polygon fill="none" stroke="black" points="1117.38,-1058.92 1063.38,-1058.92 1063.38,-1022.92 1117.38,-1022.92 1117.38,-1058.92"/>
<text text-anchor="middle" x="1090.38" y="-1036.62" font-family="sans-serif" font-size="14.00">parse</text>
</g>
<!-- graph&#45;&gt;parse -->
<g id="edge39" class="edge">
<title>graph&#45;&gt;parse</title>
<path fill="none" stroke="black" d="M445.74,-150.55C455.04,-126.4 475.07,-84.96 508,-66.92 710.63,44.08 914.06,24.15 1014.5,-183.92 1087.22,-334.57 1090.01,-877.75 1089.57,-1011.17"/>
<polygon fill="black" stroke="black" points="1086.07,-1010.91 1089.52,-1020.93 1093.07,-1010.94 1086.07,-1010.91"/>
</g>
<!-- rand -->
<g id="node40" class="node">
<title>rand</title>
<polygon fill="none" stroke="black" points="1004.62,-739.92 950.62,-739.92 950.62,-703.92 1004.62,-703.92 1004.62,-739.92"/>
<text text-anchor="middle" x="977.62" y="-717.62" font-family="sans-serif" font-size="14.00">rand</text>
</g>
<!-- hash&#45;&gt;rand -->
<g id="edge40" class="edge">
<title>hash&#45;&gt;rand</title>
<path fill="none" stroke="black" d="M863.57,-721.92C884.86,-721.92 915.19,-721.92 939.07,-721.92"/>
<polygon fill="black" stroke="black" points="939.04,-725.42 949.04,-721.92 939.04,-718.42 939.04,-725.42"/>
</g>
<!-- haskell -->
<g id="node16" class="node">
<title>haskell</title>
<polygon fill="none" stroke="black" points="469.75,-1704.92 407.25,-1704.92 407.25,-1668.92 469.75,-1668.92 469.75,-1704.92"/>
<text text-anchor="middle" x="438.5" y="-1682.62" font-family="sans-serif" font-size="14.00">haskell</text>
</g>
<!-- hol&#45;api -->
<g id="node18" class="node">
<title>hol&#45;api</title>
<polygon fill="none" stroke="black" points="586.62,-1750.92 524.12,-1750.92 524.12,-1714.92 586.62,-1714.92 586.62,-1750.92"/>
<text text-anchor="middle" x="555.38" y="-1728.62" font-family="sans-serif" font-size="14.00">hol&#45;api</text>
</g>
<!-- haskell&#45;&gt;hol&#45;api -->
<g id="edge41" class="edge">
<title>haskell&#45;&gt;hol&#45;api</title>
<path fill="none" stroke="black" d="M469.98,-1699.13C483.22,-1704.43 498.94,-1710.72 513.2,-1716.43"/>
<polygon fill="black" stroke="black" points="511.76,-1719.63 522.34,-1720.09 514.36,-1713.13 511.76,-1719.63"/>
</g>
<!-- haskell&#45;&gt;hol&#45;eval -->
<g id="edge42" class="edge">
<title>haskell&#45;&gt;hol&#45;eval</title>
<path fill="none" stroke="black" d="M470.23,-1686.92C539.49,-1686.92 708.07,-1686.92 789.65,-1686.92"/>
<polygon fill="black" stroke="black" points="789.52,-1690.42 799.52,-1686.92 789.52,-1683.42 789.52,-1690.42"/>
</g>
<!-- haskell&#45;&gt;init -->
<g id="edge43" class="edge">
<title>haskell&#45;&gt;init</title>
<path fill="none" stroke="black" d="M445.82,-1668.81C455.32,-1644.37 475.7,-1601.31 508,-1578.92 549.48,-1550.17 608.71,-1542.96 646.86,-1541.56"/>
<polygon fill="black" stroke="black" points="646.55,-1545.07 656.47,-1541.33 646.38,-1538.07 646.55,-1545.07"/>
</g>
<!-- haskell&#45;&gt;types -->
<g id="edge44" class="edge">
<title>haskell&#45;&gt;types</title>
<path fill="none" stroke="black" d="M444.63,-1705.27C453.92,-1736.48 475.6,-1801.08 508,-1847.92 553.73,-1914.04 572.49,-1927.4 638.75,-1972.92 765.95,-2060.3 822.31,-2052.92 976.62,-2052.92 976.62,-2052.92 976.62,-2052.92 1194.25,-2052.92 1283.06,-2052.92 1306.34,-2008.88 1355.5,-1934.92 1403.89,-1862.11 1414.64,-1755.65 1416.94,-1704.51"/>
<polygon fill="black" stroke="black" points="1420.42,-1704.95 1417.29,-1694.83 1413.43,-1704.7 1420.42,-1704.95"/>
</g>
<!-- hol&#45;&gt;core -->
<g id="edge45" class="edge">
<title>hol&#45;&gt;core</title>
<path fill="none" stroke="black" d="M858.59,-1988.65C873.01,-1975.4 891.76,-1956.44 904.75,-1936.92 934.31,-1892.53 956.28,-1834 967.72,-1799.61"/>
<polygon fill="black" stroke="black" points="970.96,-1800.96 970.72,-1790.37 964.3,-1798.79 970.96,-1800.96"/>
</g>
<!-- hol&#45;api&#45;&gt;core -->
<g id="edge46" class="edge">
<title>hol&#45;api&#45;&gt;core</title>
<path fill="none" stroke="black" d="M577.78,-1751.22C593.5,-1763.41 616.01,-1778.34 638.75,-1784.92 744.41,-1815.48 876.37,-1793.81 939.55,-1780"/>
<polygon fill="black" stroke="black" points="940.06,-1783.47 949.05,-1777.85 938.52,-1776.64 940.06,-1783.47"/>
</g>
<!-- hol&#45;api&#45;&gt;hol&#45;eval -->
<g id="edge47" class="edge">
<title>hol&#45;api&#45;&gt;hol&#45;eval</title>
<path fill="none" stroke="black" d="M587.03,-1727.87C636.16,-1719.76 732.81,-1703.83 789.97,-1694.41"/>
<polygon fill="black" stroke="black" points="790.4,-1697.88 799.7,-1692.8 789.26,-1690.98 790.4,-1697.88"/>
</g>
<!-- inductive -->
<g id="node20" class="node">
<title>inductive</title>
<polygon fill="none" stroke="black" points="874.75,-1650.92 798,-1650.92 798,-1614.92 874.75,-1614.92 874.75,-1650.92"/>
<text text-anchor="middle" x="836.38" y="-1628.62" font-family="sans-serif" font-size="14.00">inductive</text>
</g>
<!-- hol&#45;api&#45;&gt;inductive -->
<g id="edge48" class="edge">
<title>hol&#45;api&#45;&gt;inductive</title>
<path fill="none" stroke="black" d="M586.79,-1720.79C602.29,-1714.69 621.47,-1707.26 638.75,-1700.92 688.96,-1682.49 746.87,-1662.63 786.78,-1649.16"/>
<polygon fill="black" stroke="black" points="787.74,-1652.53 796.1,-1646.02 785.5,-1645.9 787.74,-1652.53"/>
</g>
<!-- hol&#45;api&#45;&gt;init -->
<g id="edge49" class="edge">
<title>hol&#45;api&#45;&gt;init</title>
<path fill="none" stroke="black" d="M568.65,-1714.61C591.2,-1680.95 639.36,-1609.09 665.89,-1569.51"/>
<polygon fill="black" stroke="black" points="668.64,-1571.69 671.3,-1561.44 662.82,-1567.79 668.64,-1571.69"/>
</g>
<!-- hol&#45;api&#45;&gt;pure -->
<g id="edge50" class="edge">
<title>hol&#45;api&#45;&gt;pure</title>
<path fill="none" stroke="black" d="M586.65,-1745.26C592.31,-1748.29 597.95,-1751.85 602.75,-1755.92 623.63,-1773.64 614.48,-1793.25 638.75,-1805.92 786.83,-1883.22 851.06,-1832.4 1014.5,-1797.92 1067.62,-1786.71 1081.08,-1781.92 1130.25,-1758.92 1138.87,-1754.89 1147.79,-1749.94 1156.08,-1744.96"/>
<polygon fill="black" stroke="black" points="1157.87,-1747.97 1164.53,-1739.73 1154.19,-1742.01 1157.87,-1747.97"/>
</g>
<!-- hol&#45;api&#45;&gt;types -->
<g id="edge51" class="edge">
<title>hol&#45;api&#45;&gt;types</title>
<path fill="none" stroke="black" d="M586.87,-1744.25C592.64,-1747.39 598.27,-1751.25 602.75,-1755.92 630.01,-1784.36 609.98,-1810 638.75,-1836.92 755.56,-1946.21 816.66,-1960.92 976.62,-1960.92 976.62,-1960.92 976.62,-1960.92 1194.25,-1960.92 1273.1,-1960.92 1303.95,-1946.59 1355.5,-1886.92 1401.1,-1834.14 1413.2,-1749.33 1416.39,-1704.66"/>
<polygon fill="black" stroke="black" points="1419.88,-1704.88 1416.98,-1694.69 1412.89,-1704.47 1419.88,-1704.88"/>
</g>
<!-- hol&#45;eval&#45;&gt;core -->
<g id="edge52" class="edge">
<title>hol&#45;eval&#45;&gt;core</title>
<path fill="none" stroke="black" d="M871.59,-1701.69C882.41,-1706.75 894.28,-1712.72 904.75,-1718.92 918.27,-1726.93 932.42,-1736.81 944.56,-1745.8"/>
<polygon fill="black" stroke="black" points="942.1,-1748.33 952.2,-1751.55 946.31,-1742.74 942.1,-1748.33"/>
</g>
<!-- hol&#45;eval&#45;&gt;pure -->
<g id="edge53" class="edge">
<title>hol&#45;eval&#45;&gt;pure</title>
<path fill="none" stroke="black" d="M871.72,-1690.21C938.48,-1696.61 1085.26,-1710.67 1154.58,-1717.31"/>
<polygon fill="black" stroke="black" points="1154.01,-1720.77 1164.3,-1718.24 1154.68,-1713.8 1154.01,-1720.77"/>
</g>
<!-- hol&#45;eval&#45;&gt;pure&#45;eval -->
<g id="edge54" class="edge">
<title>hol&#45;eval&#45;&gt;pure&#45;eval</title>
<path fill="none" stroke="black" d="M871.62,-1685.29C914.73,-1683.24 989.13,-1679.69 1038.79,-1677.33"/>
<polygon fill="black" stroke="black" points="1038.9,-1680.83 1048.72,-1676.86 1038.57,-1673.84 1038.9,-1680.83"/>
</g>
<!-- hol&#45;eval&#45;&gt;sexp -->
<g id="edge55" class="edge">
<title>hol&#45;eval&#45;&gt;sexp</title>
<path fill="none" stroke="black" d="M871.69,-1680.43C883.82,-1676.46 896.49,-1670.1 904.75,-1659.92 916.84,-1645.02 958.55,-1371.93 972.23,-1280.48"/>
<polygon fill="black" stroke="black" points="975.67,-1281.2 973.68,-1270.8 968.74,-1280.17 975.67,-1281.2"/>
</g>
<!-- hol&#45;eval&#45;&gt;types -->
<g id="edge56" class="edge">
<title>hol&#45;eval&#45;&gt;types</title>
<path fill="none" stroke="black" d="M871.86,-1673.76C919.87,-1656.65 1009.91,-1628.92 1089.38,-1628.92 1089.38,-1628.92 1089.38,-1628.92 1194.25,-1628.92 1260.87,-1628.92 1336.41,-1648.81 1380.33,-1662.43"/>
<polygon fill="black" stroke="black" points="1379.03,-1665.69 1389.62,-1665.37 1381.14,-1659.02 1379.03,-1665.69"/>
</g>
<!-- init&#45;&gt;core -->
<g id="edge57" class="edge">
<title>init&#45;&gt;core</title>
<path fill="none" stroke="black" d="M689.83,-1560.33C697.42,-1595.6 718.97,-1672.85 768,-1713.92 781.23,-1725 883.04,-1749.56 939.39,-1762.53"/>
<polygon fill="black" stroke="black" points="938.34,-1765.88 948.87,-1764.7 939.9,-1759.05 938.34,-1765.88"/>
</g>
<!-- init&#45;&gt;grammar -->
<g id="edge58" class="edge">
<title>init&#45;&gt;grammar</title>
<path fill="none" stroke="black" d="M712.63,-1530.43C728.36,-1524.18 748.94,-1517.1 768,-1513.92 822.74,-1504.79 886.62,-1509.44 929.14,-1514.66"/>
<polygon fill="black" stroke="black" points="928.67,-1518.13 939.03,-1515.94 929.57,-1511.18 928.67,-1518.13"/>
</g>
<!-- init&#45;&gt;hash -->
<g id="edge59" class="edge">
<title>init&#45;&gt;hash</title>
<path fill="none" stroke="black" d="M690.98,-1523.68C700.2,-1486.41 721.02,-1398.71 732,-1323.92 759.33,-1137.68 726.62,-1085.55 768,-901.92 780.44,-846.7 805.98,-785.62 821.79,-750.7"/>
<polygon fill="black" stroke="black" points="824.94,-752.24 825.93,-741.7 818.57,-749.32 824.94,-752.24"/>
</g>
<!-- init&#45;&gt;hol -->
<g id="edge60" class="edge">
<title>init&#45;&gt;hol</title>
<path fill="none" stroke="black" d="M692.22,-1560.15C715,-1631.26 798.03,-1890.38 826.06,-1977.85"/>
<polygon fill="black" stroke="black" points="822.65,-1978.67 829.03,-1987.12 829.31,-1976.53 822.65,-1978.67"/>
</g>
<!-- init&#45;&gt;hol&#45;eval -->
<g id="edge61" class="edge">
<title>init&#45;&gt;hol&#45;eval</title>
<path fill="none" stroke="black" d="M703.83,-1560.29C712.78,-1570.16 723.54,-1582.76 732,-1594.92 750.87,-1622.02 743.24,-1638.07 768,-1659.92 774.5,-1665.66 782.38,-1670.26 790.42,-1673.93"/>
<polygon fill="black" stroke="black" points="789,-1677.13 799.59,-1677.66 791.64,-1670.65 789,-1677.13"/>
</g>
<!-- init&#45;&gt;inductive -->
<g id="edge62" class="edge">
<title>init&#45;&gt;inductive</title>
<path fill="none" stroke="black" d="M709.53,-1560.4C725.46,-1572.68 747.39,-1588.71 768,-1600.92 774.14,-1604.56 780.76,-1608.11 787.37,-1611.45"/>
<polygon fill="black" stroke="black" points="785.8,-1614.58 796.32,-1615.83 788.88,-1608.29 785.8,-1614.58"/>
</g>
<!-- metamath -->
<g id="node28" class="node">
<title>metamath</title>
<polygon fill="none" stroke="black" points="876.62,-1184.92 796.12,-1184.92 796.12,-1148.92 876.62,-1148.92 876.62,-1184.92"/>
<text text-anchor="middle" x="836.38" y="-1162.62" font-family="sans-serif" font-size="14.00">metamath</text>
</g>
<!-- init&#45;&gt;metamath -->
<g id="edge63" class="edge">
<title>init&#45;&gt;metamath</title>
<path fill="none" stroke="black" d="M693.66,-1523.58C717.73,-1463.02 794.77,-1269.1 823.99,-1195.56"/>
<polygon fill="black" stroke="black" points="827.1,-1197.22 827.54,-1186.63 820.6,-1194.63 827.1,-1197.22"/>
</g>
<!-- init&#45;&gt;sexp -->
<g id="edge64" class="edge">
<title>init&#45;&gt;sexp</title>
<path fill="none" stroke="black" d="M690.83,-1523.62C699.77,-1490.79 722.99,-1421.78 768,-1383.92 816.76,-1342.91 852.19,-1376.94 904.75,-1340.92 928.21,-1324.85 947.78,-1298.86 960.55,-1278.93"/>
<polygon fill="black" stroke="black" points="963.52,-1280.78 965.8,-1270.43 957.57,-1277.1 963.52,-1280.78"/>
</g>
<!-- spectec -->
<g id="node47" class="node">
<title>spectec</title>
<polygon fill="none" stroke="black" points="871,-1558.92 801.75,-1558.92 801.75,-1522.92 871,-1522.92 871,-1558.92"/>
<text text-anchor="middle" x="836.38" y="-1536.62" font-family="sans-serif" font-size="14.00">spectec</text>
</g>
<!-- init&#45;&gt;spectec -->
<g id="edge65" class="edge">
<title>init&#45;&gt;spectec</title>
<path fill="none" stroke="black" d="M712.67,-1541.74C734.12,-1541.6 764.9,-1541.39 790.27,-1541.22"/>
<polygon fill="black" stroke="black" points="790,-1544.72 799.98,-1541.16 789.95,-1537.72 790,-1544.72"/>
</g>
<!-- init&#45;&gt;types -->
<g id="edge66" class="edge">
<title>init&#45;&gt;types</title>
<path fill="none" stroke="black" d="M712.83,-1551.96C728.62,-1557.54 749.2,-1564.12 768,-1567.92 859.26,-1586.38 883.52,-1586.92 976.62,-1586.92 976.62,-1586.92 976.62,-1586.92 1194.25,-1586.92 1268.42,-1586.92 1288.53,-1598.04 1355.5,-1629.92 1366.6,-1635.2 1377.77,-1642.54 1387.51,-1649.76"/>
<polygon fill="black" stroke="black" points="1385.11,-1652.32 1395.17,-1655.65 1389.38,-1646.78 1385.11,-1652.32"/>
</g>
<!-- json -->
<g id="node22" class="node">
<title>json</title>
<polygon fill="none" stroke="black" points="863.38,-224.92 809.38,-224.92 809.38,-188.92 863.38,-188.92 863.38,-224.92"/>
<text text-anchor="middle" x="836.38" y="-202.62" font-family="sans-serif" font-size="14.00">json</text>
</g>
<!-- kernel -->
<g id="node23" class="node">
<title>kernel</title>
<polygon fill="none" stroke="black" points="584,-1146.92 526.75,-1146.92 526.75,-1110.92 584,-1110.92 584,-1146.92"/>
<text text-anchor="middle" x="555.38" y="-1124.62" font-family="sans-serif" font-size="14.00">kernel</text>
</g>
<!-- kernel&#45;&gt;hash -->
<g id="edge67" class="edge">
<title>kernel&#45;&gt;hash</title>
<path fill="none" stroke="black" d="M581.31,-1110.64C624.31,-1078.72 709.95,-1013.34 732,-982.92 746.33,-963.14 801.61,-814.3 824.91,-750.65"/>
<polygon fill="black" stroke="black" points="828.09,-752.17 828.23,-741.57 821.51,-749.76 828.09,-752.17"/>
</g>
<!-- kernel&#45;&gt;init -->
<g id="edge68" class="edge">
<title>kernel&#45;&gt;init</title>
<path fill="none" stroke="black" d="M571.09,-1147.19C581.33,-1160.74 594.57,-1180.06 602.75,-1198.92 627.62,-1256.23 664.73,-1440.24 678.74,-1512.45"/>
<polygon fill="black" stroke="black" points="675.24,-1512.78 680.58,-1521.94 682.12,-1511.46 675.24,-1512.78"/>
</g>
<!-- kernel&#45;&gt;object -->
<g id="edge69" class="edge">
<title>kernel&#45;&gt;object</title>
<path fill="none" stroke="black" d="M559.63,-1110.69C570.34,-1050.94 605.7,-855.68 638.75,-694.92 651.71,-631.87 668.38,-558.3 677.56,-518.38"/>
<polygon fill="black" stroke="black" points="680.92,-519.35 679.76,-508.82 674.1,-517.78 680.92,-519.35"/>
</g>
<!-- kernel&#45;&gt;sexp -->
<g id="edge70" class="edge">
<title>kernel&#45;&gt;sexp</title>
<path fill="none" stroke="black" d="M576.1,-1147.29C591.87,-1160.93 615.16,-1178.83 638.75,-1188.92 749.21,-1236.15 786.68,-1214.77 904.75,-1236.92 915.97,-1239.03 928.16,-1241.38 939.27,-1243.54"/>
<polygon fill="black" stroke="black" points="938.38,-1246.94 948.87,-1245.42 939.73,-1240.07 938.38,-1246.94"/>
</g>
<!-- kernel&#45;&gt;store -->
<g id="edge71" class="edge">
<title>kernel&#45;&gt;store</title>
<path fill="none" stroke="black" d="M561.03,-1110.71C576.91,-1048.71 628.52,-848.1 638.75,-819.92 647.46,-795.92 659.8,-769.75 669.45,-750.49"/>
<polygon fill="black" stroke="black" points="672.54,-752.15 673.95,-741.65 666.3,-748.97 672.54,-752.15"/>
</g>
<!-- kv -->
<g id="node24" class="node">
<title>kv</title>
<polygon fill="none" stroke="black" points="226.12,-262.92 172.12,-262.92 172.12,-226.92 226.12,-226.92 226.12,-262.92"/>
<text text-anchor="middle" x="199.12" y="-240.62" font-family="sans-serif" font-size="14.00">kv</text>
</g>
<!-- lean -->
<g id="node25" class="node">
<title>lean</title>
<polygon fill="none" stroke="black" points="87.5,-973.92 33.5,-973.92 33.5,-937.92 87.5,-937.92 87.5,-973.92"/>
<text text-anchor="middle" x="60.5" y="-951.62" font-family="sans-serif" font-size="14.00">lean</text>
</g>
<!-- llm -->
<g id="node26" class="node">
<title>llm</title>
<polygon fill="none" stroke="black" points="226.12,-636.92 172.12,-636.92 172.12,-600.92 226.12,-600.92 226.12,-636.92"/>
<text text-anchor="middle" x="199.12" y="-614.62" font-family="sans-serif" font-size="14.00">llm</text>
</g>
<!-- llm&#45;&gt;proto -->
<g id="edge72" class="edge">
<title>llm&#45;&gt;proto</title>
<path fill="none" stroke="black" d="M213.41,-637.22C234.86,-666.76 277.24,-725.12 302.28,-759.6"/>
<polygon fill="black" stroke="black" points="299.26,-761.38 307.96,-767.42 304.92,-757.27 299.26,-761.38"/>
</g>
<!-- lsp&#45;&gt;sexp -->
<g id="edge73" class="edge">
<title>lsp&#45;&gt;sexp</title>
<path fill="none" stroke="black" d="M860.55,-1039.22C874.71,-1051.32 892.42,-1068.17 904.75,-1085.92 935.02,-1129.5 956.75,-1187.86 967.96,-1222.22"/>
<polygon fill="black" stroke="black" points="964.53,-1222.98 970.9,-1231.45 971.2,-1220.86 964.53,-1222.98"/>
</g>
<!-- lsp&#45;&gt;wasm -->
<g id="edge74" class="edge">
<title>lsp&#45;&gt;wasm</title>
<path fill="none" stroke="black" d="M863.6,-1003.01C878.33,-991.41 895.56,-974.95 904.75,-955.92 920.6,-923.08 963.92,-374.94 974.35,-240.51"/>
<polygon fill="black" stroke="black" points="977.83,-240.9 975.11,-230.66 970.85,-240.36 977.83,-240.9"/>
</g>
<!-- metamath&#45;&gt;parse -->
<g id="edge75" class="edge">
<title>metamath&#45;&gt;parse</title>
<path fill="none" stroke="black" d="M876.88,-1151.94C886.11,-1148.21 895.84,-1144.08 904.75,-1139.92 957.47,-1115.31 1016.39,-1082.81 1053.18,-1061.88"/>
<polygon fill="black" stroke="black" points="1054.68,-1065.05 1061.63,-1057.05 1051.21,-1058.97 1054.68,-1065.05"/>
</g>
<!-- metamath&#45;&gt;sexp -->
<g id="edge76" class="edge">
<title>metamath&#45;&gt;sexp</title>
<path fill="none" stroke="black" d="M876.84,-1184.18C886.16,-1188.66 895.95,-1193.71 904.75,-1198.92 918.27,-1206.93 932.42,-1216.81 944.56,-1225.8"/>
<polygon fill="black" stroke="black" points="942.1,-1228.33 952.2,-1231.55 946.31,-1222.74 942.1,-1228.33"/>
</g>
<!-- multiformat -->
<g id="node29" class="node">
<title>multiformat</title>
<polygon fill="none" stroke="black" points="730.5,-1146.92 640.25,-1146.92 640.25,-1110.92 730.5,-1110.92 730.5,-1146.92"/>
<text text-anchor="middle" x="685.38" y="-1124.62" font-family="sans-serif" font-size="14.00">multiformat</text>
</g>
<!-- multiformat&#45;&gt;acset -->
<g id="edge77" class="edge">
<title>multiformat&#45;&gt;acset</title>
<path fill="none" stroke="black" d="M730.68,-1124.16C752.05,-1121.87 777.41,-1119.14 797.81,-1116.95"/>
<polygon fill="black" stroke="black" points="798.12,-1120.44 807.69,-1115.89 797.37,-1113.48 798.12,-1120.44"/>
</g>
<!-- multiformat&#45;&gt;hash -->
<g id="edge78" class="edge">
<title>multiformat&#45;&gt;hash</title>
<path fill="none" stroke="black" d="M700.88,-1110.63C710.98,-1097.07 724.01,-1077.75 732,-1058.92 759.98,-993.02 747.41,-970.48 768,-901.92 784.33,-847.56 808.7,-785.98 823.22,-750.76"/>
<polygon fill="black" stroke="black" points="826.38,-752.27 826.99,-741.7 819.92,-749.59 826.38,-752.27"/>
</g>
<!-- multiformat&#45;&gt;parse -->
<g id="edge79" class="edge">
<title>multiformat&#45;&gt;parse</title>
<path fill="none" stroke="black" d="M715.14,-1110.62C730.31,-1101.8 749.55,-1091.87 768,-1085.92 867.28,-1053.9 991.06,-1044.66 1051.97,-1041.99"/>
<polygon fill="black" stroke="black" points="1051.92,-1045.5 1061.78,-1041.61 1051.65,-1038.51 1051.92,-1045.5"/>
</g>
<!-- object&#45;&gt;hash -->
<g id="edge80" class="edge">
<title>object&#45;&gt;hash</title>
<path fill="none" stroke="black" d="M698.45,-507.3C707.68,-521.4 720.7,-541.35 732,-558.92 762.42,-606.23 797.38,-661.57 817.86,-694.07"/>
<polygon fill="black" stroke="black" points="814.88,-695.9 823.17,-702.5 820.8,-692.17 814.88,-695.9"/>
</g>
<!-- object&#45;&gt;parse -->
<g id="edge81" class="edge">
<title>object&#45;&gt;parse</title>
<path fill="none" stroke="black" d="M714.43,-483.71C758.64,-477.07 845.55,-470.52 904.75,-507.92 986.22,-559.39 979.48,-605.14 1014.5,-694.92 1058.28,-807.14 1078.91,-950.34 1086.18,-1011.3"/>
<polygon fill="black" stroke="black" points="1082.7,-1011.66 1087.32,-1021.19 1089.65,-1010.85 1082.7,-1011.66"/>
</g>
<!-- opentheory&#45;&gt;hol -->
<g id="edge82" class="edge">
<title>opentheory&#45;&gt;hol</title>
<path fill="none" stroke="black" d="M368.86,-2125.68C446.01,-2132.12 607.72,-2137.76 732,-2088.92 762.64,-2076.88 791.46,-2052.51 810.85,-2033.45"/>
<polygon fill="black" stroke="black" points="813.21,-2036.05 817.75,-2026.47 808.23,-2031.13 813.21,-2036.05"/>
</g>
<!-- parquet -->
<g id="node32" class="node">
<title>parquet</title>
<polygon fill="none" stroke="black" points="472,-582.92 405,-582.92 405,-546.92 472,-546.92 472,-582.92"/>
<text text-anchor="middle" x="438.5" y="-560.62" font-family="sans-serif" font-size="14.00">parquet</text>
</g>
<!-- parquet&#45;&gt;arrow -->
<g id="edge83" class="edge">
<title>parquet&#45;&gt;arrow</title>
<path fill="none" stroke="black" d="M467.31,-546.52C482.74,-536.31 502.1,-523.51 518.64,-512.56"/>
<polygon fill="black" stroke="black" points="520.34,-515.64 526.74,-507.2 516.47,-509.8 520.34,-515.64"/>
</g>
<!-- proptest -->
<g id="node34" class="node">
<title>proptest</title>
<polygon fill="none" stroke="black" points="95.88,-1027.92 25.12,-1027.92 25.12,-991.92 95.88,-991.92 95.88,-1027.92"/>
<text text-anchor="middle" x="60.5" y="-1005.62" font-family="sans-serif" font-size="14.00">proptest</text>
</g>
<!-- pure&#45;trusted -->
<g id="node38" class="node">
<title>pure&#45;trusted</title>
<polygon fill="#ffd6d6" stroke="black" points="1355.5,-1738.92 1256.25,-1738.92 1256.25,-1702.92 1355.5,-1702.92 1355.5,-1738.92"/>
<text text-anchor="middle" x="1305.88" y="-1716.62" font-family="sans-serif" font-size="14.00">pure&#45;trusted</text>
</g>
<!-- pure&#45;&gt;pure&#45;trusted -->
<g id="edge84" class="edge">
<title>pure&#45;&gt;pure&#45;trusted</title>
<path fill="none" stroke="black" d="M1220.75,-1720.92C1228.04,-1720.92 1236.27,-1720.92 1244.64,-1720.92"/>
<polygon fill="black" stroke="black" points="1244.57,-1724.42 1254.57,-1720.92 1244.57,-1717.42 1244.57,-1724.42"/>
</g>
<!-- pure&#45;eval&#45;&gt;pure -->
<g id="edge85" class="edge">
<title>pure&#45;eval&#45;&gt;pure</title>
<path fill="none" stroke="black" d="M1130.66,-1692.84C1138.9,-1696.59 1147.54,-1700.53 1155.67,-1704.24"/>
<polygon fill="black" stroke="black" points="1154.05,-1707.35 1164.6,-1708.31 1156.96,-1700.98 1154.05,-1707.35"/>
</g>
<!-- pure&#45;eval&#45;&gt;types -->
<g id="edge86" class="edge">
<title>pure&#45;eval&#45;&gt;types</title>
<path fill="none" stroke="black" d="M1130.71,-1674.92C1194.06,-1674.92 1317.83,-1674.92 1379.99,-1674.92"/>
<polygon fill="black" stroke="black" points="1379.69,-1678.42 1389.69,-1674.92 1379.69,-1671.42 1379.69,-1678.42"/>
</g>
<!-- pure&#45;trusted&#45;&gt;types -->
<g id="edge87" class="edge">
<title>pure&#45;trusted&#45;&gt;types</title>
<path fill="none" stroke="black" d="M1351.23,-1702.48C1361,-1698.41 1371.24,-1694.16 1380.67,-1690.24"/>
<polygon fill="black" stroke="black" points="1382,-1693.47 1389.89,-1686.4 1379.31,-1687.01 1382,-1693.47"/>
</g>
<!-- python -->
<g id="node39" class="node">
<title>python</title>
<polygon fill="none" stroke="black" points="91.38,-476.92 29.62,-476.92 29.62,-440.92 91.38,-440.92 91.38,-476.92"/>
<text text-anchor="middle" x="60.5" y="-454.62" font-family="sans-serif" font-size="14.00">python</text>
</g>
<!-- python&#45;&gt;crypto&#45;sig -->
<g id="edge88" class="edge">
<title>python&#45;&gt;crypto&#45;sig</title>
<path fill="none" stroke="black" d="M62.48,-440.53C66.21,-385.56 83.29,-219.5 157,-108.92 158.39,-106.84 159.95,-104.84 161.64,-102.92"/>
<polygon fill="black" stroke="black" points="163.89,-105.61 168.6,-96.12 159,-100.61 163.89,-105.61"/>
</g>
<!-- python&#45;&gt;git -->
<g id="edge89" class="edge">
<title>python&#45;&gt;git</title>
<path fill="none" stroke="black" d="M91.63,-471.74C160.07,-500.86 326.98,-571.89 401.06,-603.41"/>
<polygon fill="black" stroke="black" points="399.32,-606.48 409.9,-607.17 402.07,-600.04 399.32,-606.48"/>
</g>
<!-- python&#45;&gt;graph -->
<g id="edge90" class="edge">
<title>python&#45;&gt;graph</title>
<path fill="none" stroke="black" d="M61.48,-440.65C62.53,-390.14 73.14,-248.17 157,-184.92 228.56,-130.95 341.9,-146.21 400.18,-159.13"/>
<polygon fill="black" stroke="black" points="399.07,-162.46 409.6,-161.32 400.65,-155.64 399.07,-162.46"/>
</g>
<!-- python&#45;&gt;hash -->
<g id="edge91" class="edge">
<title>python&#45;&gt;hash</title>
<path fill="none" stroke="black" d="M67.83,-440.69C79.81,-409.19 108.98,-345.06 157,-314.92 241.38,-261.95 518.43,-213.86 602.75,-266.92 634.04,-286.61 619.3,-310.48 638.75,-341.92 674.29,-399.36 699.44,-402.75 732,-461.92 754.77,-503.3 750.83,-517.92 768,-561.92 786.13,-608.39 808.98,-661.64 822.86,-693.49"/>
<polygon fill="black" stroke="black" points="819.56,-694.67 826.77,-702.43 825.97,-691.86 819.56,-694.67"/>
</g>
<!-- python&#45;&gt;kv -->
<g id="edge92" class="edge">
<title>python&#45;&gt;kv</title>
<path fill="none" stroke="black" d="M68.08,-440.61C81.14,-405.97 112.94,-329.62 157,-276.92 159.01,-274.51 161.24,-272.17 163.57,-269.92"/>
<polygon fill="black" stroke="black" points="165.5,-272.89 170.7,-263.66 160.88,-267.63 165.5,-272.89"/>
</g>
<!-- python&#45;&gt;llm -->
<g id="edge93" class="edge">
<title>python&#45;&gt;llm</title>
<path fill="none" stroke="black" d="M72.79,-477.07C89.41,-503.02 122.26,-551.47 157,-586.92 159.2,-589.16 161.55,-591.38 163.98,-593.55"/>
<polygon fill="black" stroke="black" points="161.36,-595.92 171.27,-599.67 165.87,-590.56 161.36,-595.92"/>
</g>
<!-- python&#45;&gt;object -->
<g id="edge94" class="edge">
<title>python&#45;&gt;object</title>
<path fill="none" stroke="black" d="M62.25,-440.55C65.28,-393.72 80.5,-269.89 157,-217.92 187.97,-196.88 204.13,-213.03 241.25,-217.92 323.71,-228.79 539.65,-260.73 602.75,-314.92 632.94,-340.85 621.9,-360.86 638.75,-396.92 648.8,-418.42 660.73,-442.44 669.87,-460.54"/>
<polygon fill="black" stroke="black" points="666.7,-462.03 674.35,-469.36 672.95,-458.86 666.7,-462.03"/>
</g>
<!-- python&#45;&gt;repl -->
<g id="edge95" class="edge">
<title>python&#45;&gt;repl</title>
<path fill="none" stroke="black" d="M91.65,-462.85C139.39,-469.08 232.27,-481.2 284.37,-487.99"/>
<polygon fill="black" stroke="black" points="283.89,-491.46 294.26,-489.28 284.8,-484.52 283.89,-491.46"/>
</g>
<!-- sat -->
<g id="node42" class="node">
<title>sat</title>
<polygon fill="none" stroke="black" points="863.38,-946.92 809.38,-946.92 809.38,-910.92 863.38,-910.92 863.38,-946.92"/>
<text text-anchor="middle" x="836.38" y="-924.62" font-family="sans-serif" font-size="14.00">sat</text>
</g>
<!-- python&#45;&gt;sat -->
<g id="edge96" class="edge">
<title>python&#45;&gt;sat</title>
<path fill="none" stroke="black" d="M63.23,-477.28C70.54,-551.13 101.09,-825.56 157,-888.92 323.19,-1077.27 682.17,-979.99 798.31,-941.91"/>
<polygon fill="black" stroke="black" points="799.28,-945.28 807.65,-938.79 797.06,-938.64 799.28,-945.28"/>
</g>
<!-- python&#45;&gt;serve -->
<g id="edge97" class="edge">
<title>python&#45;&gt;serve</title>
<path fill="none" stroke="black" d="M67.73,-477.28C89.42,-541.27 161.8,-754.78 188.3,-832.93"/>
<polygon fill="black" stroke="black" points="184.85,-833.67 191.38,-842.02 191.48,-831.42 184.85,-833.67"/>
</g>
<!-- python&#45;&gt;sexp -->
<g id="edge98" class="edge">
<title>python&#45;&gt;sexp</title>
<path fill="none" stroke="black" d="M64.58,-477.37C73.47,-530.62 99.86,-689.17 121,-820.92 137.39,-923.08 97.28,-966.43 157,-1050.92 320.83,-1282.73 485.86,-1205.68 768,-1236.92 827.57,-1243.51 897.07,-1247.43 938.92,-1249.37"/>
<polygon fill="black" stroke="black" points="938.55,-1252.86 948.7,-1249.81 938.87,-1245.87 938.55,-1252.86"/>
</g>
<!-- python&#45;&gt;shell -->
<g id="edge99" class="edge">
<title>python&#45;&gt;shell</title>
<path fill="none" stroke="black" d="M64.58,-477.39C80.17,-570.8 149.97,-987.37 157,-998.92 191.96,-1056.42 215.29,-1064.66 277.25,-1090.92 316.99,-1107.76 366.65,-1113.04 400.07,-1114.56"/>
<polygon fill="black" stroke="black" points="399.54,-1118.04 409.65,-1114.9 399.78,-1111.05 399.54,-1118.04"/>
</g>
<!-- python&#45;&gt;store -->
<g id="edge100" class="edge">
<title>python&#45;&gt;store</title>
<path fill="none" stroke="black" d="M83.82,-477.24C146.1,-527.04 328.96,-664.4 508,-712.92 554.53,-725.53 610.43,-726.05 646.65,-724.57"/>
<polygon fill="black" stroke="black" points="646.8,-728.06 656.62,-724.08 646.46,-721.07 646.8,-728.06"/>
</g>
<!-- python&#45;&gt;wasm -->
<g id="edge101" class="edge">
<title>python&#45;&gt;wasm</title>
<path fill="none" stroke="black" d="M63.24,-440.81C70.49,-369.23 100.55,-107.16 157,-49.92 210.09,3.92 246.51,-8.92 322.12,-8.92 322.12,-8.92 322.12,-8.92 556.38,-8.92 714.39,-8.92 777.54,13.81 904.75,-79.92 939.01,-105.16 958.88,-151.85 968.73,-182.13"/>
<polygon fill="black" stroke="black" points="965.29,-182.87 971.58,-191.4 971.99,-180.82 965.29,-182.87"/>
</g>
<!-- wasm&#45;store -->
<g id="node55" class="node">
<title>wasm&#45;store</title>
<polygon fill="none" stroke="black" points="602.75,-148.92 508,-148.92 508,-112.92 602.75,-112.92 602.75,-148.92"/>
<text text-anchor="middle" x="555.38" y="-126.62" font-family="sans-serif" font-size="14.00">wasm&#45;store</text>
</g>
<!-- python&#45;&gt;wasm&#45;store -->
<g id="edge102" class="edge">
<title>python&#45;&gt;wasm&#45;store</title>
<path fill="none" stroke="black" d="M64.29,-440.76C74.03,-379.81 108.67,-184.2 157,-146.92 255.53,-70.93 412.26,-94 496.42,-114.32"/>
<polygon fill="black" stroke="black" points="495.54,-117.7 506.09,-116.73 497.23,-110.91 495.54,-117.7"/>
</g>
<!-- repl&#45;&gt;arrow -->
<g id="edge103" class="edge">
<title>repl&#45;&gt;arrow</title>
<path fill="none" stroke="black" d="M350.35,-493.73C366.17,-494.18 386.74,-494.69 405,-494.92 434.78,-495.29 442.24,-496 472,-494.92 486.67,-494.39 502.77,-493.32 516.82,-492.23"/>
<polygon fill="black" stroke="black" points="516.87,-495.74 526.55,-491.45 516.3,-488.76 516.87,-495.74"/>
</g>
<!-- repl&#45;&gt;forsp -->
<g id="edge104" class="edge">
<title>repl&#45;&gt;forsp</title>
<path fill="none" stroke="black" d="M330.54,-511.04C341.95,-541.45 368.09,-603.56 405,-645.92 477.42,-729.05 590.58,-796.76 648.13,-828.1"/>
<polygon fill="black" stroke="black" points="646.41,-831.15 656.87,-832.81 649.73,-824.98 646.41,-831.15"/>
</g>
<!-- repl&#45;&gt;git -->
<g id="edge105" class="edge">
<title>repl&#45;&gt;git</title>
<path fill="none" stroke="black" d="M350.48,-508.68C357.03,-513.37 363.69,-518.89 369,-524.92 391.35,-550.29 383.6,-565.75 405,-591.92 405.08,-592.01 405.15,-592.1 405.23,-592.2"/>
<polygon fill="black" stroke="black" points="402.6,-594.51 412.03,-599.34 407.67,-589.69 402.6,-594.51"/>
</g>
<!-- repl&#45;&gt;graph -->
<g id="edge106" class="edge">
<title>repl&#45;&gt;graph</title>
<path fill="none" stroke="black" d="M330.55,-474.57C349.37,-420.77 404.54,-263.12 427.4,-197.79"/>
<polygon fill="black" stroke="black" points="430.65,-199.09 430.65,-188.5 424.04,-196.78 430.65,-199.09"/>
</g>
<!-- repl&#45;&gt;hash -->
<g id="edge107" class="edge">
<title>repl&#45;&gt;hash</title>
<path fill="none" stroke="black" d="M350.3,-486.27C410.99,-471.44 559.41,-438.72 602.75,-461.92 628.18,-475.53 620.72,-493.4 638.75,-515.92 694.13,-585.1 768.36,-658.4 807.89,-696.13"/>
<polygon fill="black" stroke="black" points="805.02,-698.23 814.68,-702.58 809.84,-693.16 805.02,-698.23"/>
</g>
<!-- repl&#45;&gt;init -->
<g id="edge108" class="edge">
<title>repl&#45;&gt;init</title>
<path fill="none" stroke="black" d="M327.68,-511.17C346.34,-605.85 434.94,-1041.18 508,-1155.92 537.76,-1202.65 573.2,-1190.05 602.75,-1236.92 632.19,-1283.62 665.83,-1445.62 678.84,-1512.6"/>
<polygon fill="black" stroke="black" points="675.34,-1512.94 680.67,-1522.1 682.21,-1511.62 675.34,-1512.94"/>
</g>
<!-- repl&#45;&gt;object -->
<g id="edge109" class="edge">
<title>repl&#45;&gt;object</title>
<path fill="none" stroke="black" d="M350.29,-477.56C400.17,-450.34 511.97,-399.14 602.75,-428.92 623.57,-435.75 643.45,-450.13 658.38,-463.11"/>
<polygon fill="black" stroke="black" points="655.68,-465.39 665.44,-469.5 660.38,-460.2 655.68,-465.39"/>
</g>
<!-- repl&#45;&gt;parquet -->
<g id="edge110" class="edge">
<title>repl&#45;&gt;parquet</title>
<path fill="none" stroke="black" d="M350.42,-509.62C364.83,-518.77 382.96,-530.28 398.94,-540.43"/>
<polygon fill="black" stroke="black" points="396.97,-543.32 407.28,-545.73 400.72,-537.41 396.97,-543.32"/>
</g>
<!-- repl&#45;&gt;shell -->
<g id="edge111" class="edge">
<title>repl&#45;&gt;shell</title>
<path fill="none" stroke="black" d="M327.36,-511.35C334.95,-554.66 354.32,-666.35 369,-759.92 386.19,-869.52 380.95,-898.62 405,-1006.92 411.04,-1034.14 420.42,-1064.5 427.55,-1086.08"/>
<polygon fill="black" stroke="black" points="424.17,-1086.99 430.67,-1095.36 430.8,-1084.76 424.17,-1086.99"/>
</g>
<!-- repl&#45;&gt;wasm -->
<g id="edge112" class="edge">
<title>repl&#45;&gt;wasm</title>
<path fill="none" stroke="black" d="M334.05,-474.43C358.74,-428.15 424.36,-303.33 472,-195.92 489.8,-155.78 471.73,-128.67 508,-103.92 571.48,-60.59 715.6,-41.73 904.75,-134.92 926.88,-145.82 945.76,-166.56 958.61,-183.61"/>
<polygon fill="black" stroke="black" points="955.54,-185.34 964.23,-191.4 961.22,-181.24 955.54,-185.34"/>
</g>
<!-- sat&#45;&gt;parse -->
<g id="edge113" class="edge">
<title>sat&#45;&gt;parse</title>
<path fill="none" stroke="black" d="M863.87,-940.69C909.17,-960.83 1001.59,-1001.91 1052.94,-1024.73"/>
<polygon fill="black" stroke="black" points="1051.3,-1027.83 1061.85,-1028.69 1054.14,-1021.43 1051.3,-1027.83"/>
</g>
<!-- sat&#45;&gt;types -->
<g id="edge114" class="edge">
<title>sat&#45;&gt;types</title>
<path fill="none" stroke="black" d="M863.83,-931.71C909.69,-936.29 1006.96,-944.92 1089.38,-944.92 1089.38,-944.92 1089.38,-944.92 1194.25,-944.92 1343.32,-944.92 1402.79,-1508.63 1415.02,-1645.33"/>
<polygon fill="black" stroke="black" points="1411.51,-1645.35 1415.87,-1655 1418.49,-1644.73 1411.51,-1645.35"/>
</g>
<!-- sat&#45;&gt;wasm -->
<g id="edge115" class="edge">
<title>sat&#45;&gt;wasm</title>
<path fill="none" stroke="black" d="M845.88,-910.45C860.32,-878.32 889.5,-809.77 904.75,-748.92 952.35,-558.95 970.03,-322.84 975,-240.72"/>
<polygon fill="black" stroke="black" points="978.49,-241.01 975.58,-230.82 971.5,-240.6 978.49,-241.01"/>
</g>
<!-- serve&#45;&gt;core -->
<g id="edge116" class="edge">
<title>serve&#45;&gt;core</title>
<path fill="none" stroke="black" d="M200.84,-880.26C204.77,-976.43 225.57,-1423.02 277.25,-1549.92 312.1,-1635.49 332.27,-1656.94 405,-1713.92 536.19,-1816.69 601.35,-1806.63 768,-1807.92 828.78,-1808.39 845.68,-1822.23 904.75,-1807.92 916.84,-1804.99 929.18,-1799.65 940.14,-1793.92"/>
<polygon fill="black" stroke="black" points="941.8,-1797.01 948.86,-1789.11 938.41,-1790.88 941.8,-1797.01"/>
</g>
<!-- serve&#45;&gt;git -->
<g id="edge117" class="edge">
<title>serve&#45;&gt;git</title>
<path fill="none" stroke="black" d="M226.6,-861.62C263.28,-859.78 329.49,-851.1 369,-813.92 416.08,-769.63 430.82,-691.11 435.42,-648.47"/>
<polygon fill="black" stroke="black" points="438.89,-649 436.35,-638.71 431.92,-648.34 438.89,-649"/>
</g>
<!-- serve&#45;&gt;hash -->
<g id="edge118" class="edge">
<title>serve&#45;&gt;hash</title>
<path fill="none" stroke="black" d="M226.44,-866.6C241.3,-869.01 260.25,-871.69 277.25,-872.92 378.04,-880.21 642.68,-921.19 732,-873.92 781.08,-847.94 811.2,-787.06 825.46,-750.72"/>
<polygon fill="black" stroke="black" points="828.6,-752.3 828.84,-741.71 822.05,-749.84 828.6,-752.3"/>
</g>
<!-- serve&#45;&gt;init -->
<g id="edge119" class="edge">
<title>serve&#45;&gt;init</title>
<path fill="none" stroke="black" d="M203.62,-880.21C211.87,-920.46 235.08,-1018.87 277.25,-1090.92 385.81,-1276.37 579.41,-1452.27 653.95,-1516.38"/>
<polygon fill="black" stroke="black" points="651.41,-1518.81 661.29,-1522.65 655.96,-1513.49 651.41,-1518.81"/>
</g>
<!-- serve&#45;&gt;metamath -->
<g id="edge120" class="edge">
<title>serve&#45;&gt;metamath</title>
<path fill="none" stroke="black" d="M226.55,-872.7C295.04,-901.6 481.41,-986.55 602.75,-1101.92 623.65,-1121.8 613.71,-1141.6 638.75,-1155.92 683.11,-1181.28 742.69,-1180.78 784.6,-1175.97"/>
<polygon fill="black" stroke="black" points="784.95,-1179.45 794.42,-1174.71 784.06,-1172.51 784.95,-1179.45"/>
</g>
<!-- serve&#45;&gt;object -->
<g id="edge121" class="edge">
<title>serve&#45;&gt;object</title>
<path fill="none" stroke="black" d="M203.66,-843.44C218.56,-765.54 275.63,-467.73 277.25,-465.92 374.84,-356.84 466.02,-363.7 602.75,-415.92 627.1,-425.22 648.78,-445.5 663.67,-462.32"/>
<polygon fill="black" stroke="black" points="660.69,-464.23 669.83,-469.58 666.02,-459.69 660.69,-464.23"/>
</g>
<!-- serve&#45;&gt;proto -->
<g id="edge122" class="edge">
<title>serve&#45;&gt;proto</title>
<path fill="none" stroke="black" d="M226.6,-845.65C244.02,-834.93 267.05,-820.77 286.14,-809.04"/>
<polygon fill="black" stroke="black" points="287.73,-812.17 294.42,-803.95 284.06,-806.21 287.73,-812.17"/>
</g>
<!-- serve&#45;&gt;repl -->
<g id="edge123" class="edge">
<title>serve&#45;&gt;repl</title>
<path fill="none" stroke="black" d="M206.17,-843.62C225.89,-783.99 288.4,-594.92 312.51,-522"/>
<polygon fill="black" stroke="black" points="315.75,-523.36 315.56,-512.77 309.1,-521.16 315.75,-523.36"/>
</g>
<!-- serve&#45;&gt;shell -->
<g id="edge124" class="edge">
<title>serve&#45;&gt;shell</title>
<path fill="none" stroke="black" d="M202.28,-880.37C207.71,-918.77 225.47,-1007.83 277.25,-1057.92 295.1,-1075.19 358.66,-1094.37 400.17,-1105.5"/>
<polygon fill="black" stroke="black" points="399.21,-1108.86 409.77,-1108.03 400.99,-1102.09 399.21,-1108.86"/>
</g>
<!-- serve&#45;&gt;store -->
<g id="edge125" class="edge">
<title>serve&#45;&gt;store</title>
<path fill="none" stroke="black" d="M226.29,-862.69C293.01,-863.58 473.36,-859.21 602.75,-792.92 624.61,-781.72 645.44,-763.43 660.58,-748.22"/>
<polygon fill="black" stroke="black" points="662.9,-750.87 667.33,-741.24 657.86,-746 662.9,-750.87"/>
</g>
<!-- sexp&#45;&gt;parse -->
<g id="edge126" class="edge">
<title>sexp&#45;&gt;parse</title>
<path fill="none" stroke="black" d="M988.26,-1232.65C1007.61,-1195.96 1051.31,-1113.09 1074.42,-1069.29"/>
<polygon fill="black" stroke="black" points="1077.41,-1071.11 1078.98,-1060.63 1071.22,-1067.85 1077.41,-1071.11"/>
</g>
<!-- shell&#45;&gt;hol -->
<g id="edge127" class="edge">
<title>shell&#45;&gt;hol</title>
<path fill="none" stroke="black" d="M440.15,-1133.29C443.64,-1225.79 461.66,-1640.81 508,-1759.92 543.46,-1851.07 560.2,-1878.65 638.75,-1936.92 687.3,-1972.94 756.06,-1991.74 798.09,-2000.47"/>
<polygon fill="black" stroke="black" points="797.22,-2003.86 807.71,-2002.37 798.58,-1996.99 797.22,-2003.86"/>
</g>
<!-- shell&#45;&gt;kernel -->
<g id="edge128" class="edge">
<title>shell&#45;&gt;kernel</title>
<path fill="none" stroke="black" d="M465.85,-1118.13C480.46,-1119.91 498.9,-1122.16 515.17,-1124.14"/>
<polygon fill="black" stroke="black" points="514.69,-1127.61 525.04,-1125.34 515.54,-1120.66 514.69,-1127.61"/>
</g>
<!-- smt&#45;&gt;sat -->
<g id="edge129" class="edge">
<title>smt&#45;&gt;sat</title>
<path fill="none" stroke="black" d="M692.83,-1278.83C702.22,-1252.16 719.83,-1200.61 732,-1155.92 751.38,-1084.75 731.93,-1058.25 768,-993.92 776.32,-979.09 789.08,-965.53 801.28,-954.67"/>
<polygon fill="black" stroke="black" points="803.48,-957.39 808.83,-948.25 798.95,-952.06 803.48,-957.39"/>
</g>
<!-- smt&#45;&gt;sexp -->
<g id="edge130" class="edge">
<title>smt&#45;&gt;sexp</title>
<path fill="none" stroke="black" d="M712.66,-1293.47C753.74,-1288 835.63,-1276.71 904.75,-1264.92 916,-1263 928.21,-1260.7 939.31,-1258.53"/>
<polygon fill="black" stroke="black" points="939.78,-1262.01 948.91,-1256.63 938.42,-1255.14 939.78,-1262.01"/>
</g>
<!-- smt&#45;&gt;types -->
<g id="edge131" class="edge">
<title>smt&#45;&gt;types</title>
<path fill="none" stroke="black" d="M690.96,-1314.93C699.93,-1346 722.95,-1409.14 768,-1437.92 846.46,-1488.04 883.52,-1456.92 976.62,-1456.92 976.62,-1456.92 976.62,-1456.92 1194.25,-1456.92 1301.6,-1456.92 1376.53,-1587.55 1404.9,-1646.57"/>
<polygon fill="black" stroke="black" points="1401.6,-1647.77 1409.01,-1655.34 1407.94,-1644.8 1401.6,-1647.77"/>
</g>
<!-- spectec&#45;&gt;grammar -->
<g id="edge132" class="edge">
<title>spectec&#45;&gt;grammar</title>
<path fill="none" stroke="black" d="M871.44,-1536.27C888.86,-1533.9 910.33,-1530.97 929.33,-1528.37"/>
<polygon fill="black" stroke="black" points="929.54,-1531.88 938.98,-1527.06 928.6,-1524.94 929.54,-1531.88"/>
</g>
<!-- store&#45;&gt;hash -->
<g id="edge133" class="edge">
<title>store&#45;&gt;hash</title>
<path fill="none" stroke="black" d="M712.67,-721.92C736.32,-721.92 771.33,-721.92 797.91,-721.92"/>
<polygon fill="black" stroke="black" points="797.58,-725.42 807.58,-721.92 797.58,-718.42 797.58,-725.42"/>
</g>
<!-- store&#45;&gt;json -->
<g id="edge134" class="edge">
<title>store&#45;&gt;json</title>
<path fill="none" stroke="black" d="M691.03,-703.57C699.99,-667.71 719.84,-585.75 732,-515.92 742.84,-453.68 729.35,-283.89 768,-233.92 775.48,-224.25 786.96,-218.03 798.34,-214.04"/>
<polygon fill="black" stroke="black" points="799.05,-217.48 807.64,-211.28 797.05,-210.77 799.05,-217.48"/>
</g>
<!-- store&#45;&gt;sqlite -->
<g id="edge135" class="edge">
<title>store&#45;&gt;sqlite</title>
<path fill="none" stroke="black" d="M700.93,-703.65C727.3,-670.55 783.09,-600.54 813.87,-561.91"/>
<polygon fill="black" stroke="black" points="816.32,-564.45 819.81,-554.45 810.85,-560.09 816.32,-564.45"/>
</g>
<!-- tcb&#45;db -->
<g id="node50" class="node">
<title>tcb&#45;db</title>
<polygon fill="none" stroke="black" points="715.5,-278.92 655.25,-278.92 655.25,-242.92 715.5,-242.92 715.5,-278.92"/>
<text text-anchor="middle" x="685.38" y="-256.62" font-family="sans-serif" font-size="14.00">tcb&#45;db</text>
</g>
<!-- tcb&#45;db&#45;&gt;json -->
<g id="edge136" class="edge">
<title>tcb&#45;db&#45;&gt;json</title>
<path fill="none" stroke="black" d="M715.81,-250.25C739.45,-241.68 772.79,-229.6 798.26,-220.37"/>
<polygon fill="black" stroke="black" points="799.36,-223.69 807.57,-217 796.98,-217.11 799.36,-223.69"/>
</g>
<!-- tcb&#45;db&#45;&gt;sqlite -->
<g id="edge137" class="edge">
<title>tcb&#45;db&#45;&gt;sqlite</title>
<path fill="none" stroke="black" d="M699.14,-279.29C708.61,-293.22 721.63,-312.95 732,-330.92 767.19,-391.9 803.23,-466.28 822.06,-506.24"/>
<polygon fill="black" stroke="black" points="818.84,-507.62 826.25,-515.19 825.17,-504.65 818.84,-507.62"/>
</g>
<!-- wasm&#45;build&#45;guest -->
<g id="node53" class="node">
<title>wasm&#45;build&#45;guest</title>
<polygon fill="none" stroke="black" points="904.75,-278.92 768,-278.92 768,-242.92 904.75,-242.92 904.75,-278.92"/>
<text text-anchor="middle" x="836.38" y="-256.62" font-family="sans-serif" font-size="14.00">wasm&#45;build&#45;guest</text>
</g>
<!-- wasm&#45;build&#45;guest&#45;&gt;wasm -->
<g id="edge138" class="edge">
<title>wasm&#45;build&#45;guest&#45;&gt;wasm</title>
<path fill="none" stroke="black" d="M888.83,-242.44C905.66,-236.4 924.02,-229.81 939.57,-224.22"/>
<polygon fill="black" stroke="black" points="940.69,-227.54 948.92,-220.87 938.33,-220.95 940.69,-227.54"/>
</g>
<!-- wasm&#45;spec -->
<g id="node54" class="node">
<title>wasm&#45;spec</title>
<polygon fill="none" stroke="black" points="732,-224.92 638.75,-224.92 638.75,-188.92 732,-188.92 732,-224.92"/>
<text text-anchor="middle" x="685.38" y="-202.62" font-family="sans-serif" font-size="14.00">wasm&#45;spec</text>
</g>
<!-- wasm&#45;spec&#45;&gt;hash -->
<g id="edge139" class="edge">
<title>wasm&#45;spec&#45;&gt;hash</title>
<path fill="none" stroke="black" d="M724.33,-225.17C727.27,-227.76 729.9,-230.67 732,-233.92 771.75,-295.54 749.58,-490.94 768,-561.92 780.46,-609.94 804.75,-662.35 820.51,-693.66"/>
<polygon fill="black" stroke="black" points="817.34,-695.15 825,-702.46 823.57,-691.96 817.34,-695.15"/>
</g>
<!-- wasm&#45;spec&#45;&gt;wasm -->
<g id="edge140" class="edge">
<title>wasm&#45;spec&#45;&gt;wasm</title>
<path fill="none" stroke="black" d="M732.35,-188.88C743.82,-185.17 756.21,-181.82 768,-179.92 828,-170.25 845.23,-167.63 904.75,-179.92 916.65,-182.38 929.01,-186.9 940.05,-191.75"/>
<polygon fill="black" stroke="black" points="938.26,-194.77 948.8,-195.8 941.2,-188.42 938.26,-194.77"/>
</g>
<!-- wasm&#45;store&#45;&gt;json -->
<g id="edge141" class="edge">
<title>wasm&#45;store&#45;&gt;json</title>
<path fill="none" stroke="black" d="M603.07,-143.64C657.91,-158.58 747.74,-183.05 798.12,-196.77"/>
<polygon fill="black" stroke="black" points="797.11,-200.12 807.68,-199.38 798.95,-193.37 797.11,-200.12"/>
</g>
<!-- wasm&#45;store&#45;&gt;store -->
<g id="edge142" class="edge">
<title>wasm&#45;store&#45;&gt;store</title>
<path fill="none" stroke="black" d="M560.27,-149.36C572,-204.83 608.07,-375 638.75,-515.92 652.44,-578.82 668.84,-652.44 677.77,-692.42"/>
<polygon fill="black" stroke="black" points="674.31,-692.99 679.91,-701.99 681.14,-691.46 674.31,-692.99"/>
</g>
<!-- wasm&#45;store&#45;&gt;wasm -->
<g id="edge143" class="edge">
<title>wasm&#45;store&#45;&gt;wasm</title>
<path fill="none" stroke="black" d="M603.1,-129.54C671.27,-128.92 801.12,-133.08 904.75,-167.92 917.76,-172.29 930.94,-179.28 942.4,-186.37"/>
<polygon fill="black" stroke="black" points="940.41,-189.25 950.71,-191.74 944.21,-183.37 940.41,-189.25"/>
</g>
<!-- web&#45;kernel -->
<g id="node56" class="node">
<title>web&#45;kernel</title>
<polygon fill="none" stroke="black" points="369,-1540.92 277.25,-1540.92 277.25,-1504.92 369,-1504.92 369,-1540.92"/>
<text text-anchor="middle" x="323.12" y="-1518.62" font-family="sans-serif" font-size="14.00">web&#45;kernel</text>
</g>
<!-- web&#45;kernel&#45;&gt;haskell -->
<g id="edge144" class="edge">
<title>web&#45;kernel&#45;&gt;haskell</title>
<path fill="none" stroke="black" d="M336.91,-1541.41C356.83,-1570.23 395.4,-1626.02 418.56,-1659.52"/>
<polygon fill="black" stroke="black" points="415.51,-1661.26 424.07,-1667.5 421.27,-1657.28 415.51,-1661.26"/>
</g>
<!-- web&#45;kernel&#45;&gt;kernel -->
<g id="edge145" class="edge">
<title>web&#45;kernel&#45;&gt;kernel</title>
<path fill="none" stroke="black" d="M334.92,-1504.45C371.86,-1441.24 493.35,-1233.35 537.85,-1157.2"/>
<polygon fill="black" stroke="black" points="540.81,-1159.06 542.84,-1148.66 534.77,-1155.53 540.81,-1159.06"/>
</g>
</g>
</svg>
