<?xml version="1.0" encoding="UTF-8" standalone="no"?>
<!DOCTYPE svg PUBLIC "-//W3C//DTD SVG 1.1//EN"
 "http://www.w3.org/Graphics/SVG/1.1/DTD/svg11.dtd">
<!-- Generated by graphviz version 12.2.1 (0)
 -->
<!-- Title: deps Pages: 1 -->
<svg width="1454pt" height="1875pt"
 viewBox="0.00 0.00 1453.50 1874.90" xmlns="http://www.w3.org/2000/svg" xmlns:xlink="http://www.w3.org/1999/xlink">
<g id="graph0" class="graph" transform="scale(1 1) rotate(0) translate(4 1870.9)">
<title>deps</title>
<polygon fill="white" stroke="none" points="-4,4 -4,-1870.9 1449.5,-1870.9 1449.5,4 -4,4"/>
<!-- covalence -->
<g id="node1" class="node">
<title>covalence</title>
<polygon fill="none" stroke="black" points="102.62,-925.9 18.38,-925.9 18.38,-889.9 102.62,-889.9 102.62,-925.9"/>
<text text-anchor="middle" x="60.5" y="-903.6" font-family="sans-serif" font-size="14.00">covalence</text>
</g>
<!-- client -->
<g id="node5" class="node">
<title>client</title>
<polygon fill="none" stroke="black" points="350.12,-1146.9 296.12,-1146.9 296.12,-1110.9 350.12,-1110.9 350.12,-1146.9"/>
<text text-anchor="middle" x="323.12" y="-1124.6" font-family="sans-serif" font-size="14.00">client</text>
</g>
<!-- covalence&#45;&gt;client -->
<g id="edge1" class="edge">
<title>covalence&#45;&gt;client</title>
<path fill="none" stroke="black" d="M103.08,-920.67C109.85,-924.34 116.21,-929 121,-934.9 167.48,-992.17 104.14,-1045.47 157,-1096.9 190.61,-1129.61 247.05,-1133.87 284.44,-1132.51"/>
<polygon fill="black" stroke="black" points="284.54,-1136.01 294.34,-1131.98 284.17,-1129.02 284.54,-1136.01"/>
</g>
<!-- fuse -->
<g id="node11" class="node">
<title>fuse</title>
<polygon fill="none" stroke="black" points="582.38,-864.9 528.38,-864.9 528.38,-828.9 582.38,-828.9 582.38,-864.9"/>
<text text-anchor="middle" x="555.38" y="-842.6" font-family="sans-serif" font-size="14.00">fuse</text>
</g>
<!-- covalence&#45;&gt;fuse -->
<g id="edge2" class="edge">
<title>covalence&#45;&gt;fuse</title>
<path fill="none" stroke="black" d="M102.98,-905.18C139.46,-902.61 193.96,-898.34 241.25,-892.9 341.09,-881.42 458.1,-862.86 516.78,-853.2"/>
<polygon fill="black" stroke="black" points="517.27,-856.67 526.56,-851.59 516.13,-849.77 517.27,-856.67"/>
</g>
<!-- git -->
<g id="node12" class="node">
<title>git</title>
<polygon fill="none" stroke="black" points="465.5,-521.9 411.5,-521.9 411.5,-485.9 465.5,-485.9 465.5,-521.9"/>
<text text-anchor="middle" x="438.5" y="-499.6" font-family="sans-serif" font-size="14.00">git</text>
</g>
<!-- covalence&#45;&gt;git -->
<g id="edge3" class="edge">
<title>covalence&#45;&gt;git</title>
<path fill="none" stroke="black" d="M63.17,-889.51C68.39,-842.29 88.39,-715.25 157,-640.9 184.86,-610.72 214.29,-633.9 241.25,-602.9 278.63,-559.93 231.67,-514.06 277.25,-479.9 312.85,-453.23 365.62,-468.67 400.76,-484.37"/>
<polygon fill="black" stroke="black" points="399.15,-487.48 409.69,-488.56 402.13,-481.14 399.15,-487.48"/>
</g>
<!-- hash -->
<g id="node15" class="node">
<title>hash</title>
<polygon fill="none" stroke="black" points="863.38,-769.9 809.38,-769.9 809.38,-733.9 863.38,-733.9 863.38,-769.9"/>
<text text-anchor="middle" x="836.38" y="-747.6" font-family="sans-serif" font-size="14.00">hash</text>
</g>
<!-- covalence&#45;&gt;hash -->
<g id="edge4" class="edge">
<title>covalence&#45;&gt;hash</title>
<path fill="none" stroke="black" d="M103.04,-925.4C109.17,-928.37 115.32,-931.58 121,-934.9 216.75,-991.03 211.14,-1082.9 322.12,-1082.9 322.12,-1082.9 322.12,-1082.9 439.5,-1082.9 519.53,-1082.9 532.97,-1046.1 602.75,-1006.9 619.52,-997.49 621.55,-991.51 638.75,-982.9 678.06,-963.23 698.8,-978.72 732,-949.9 784.98,-903.92 814.71,-824.04 827.59,-781.14"/>
<polygon fill="black" stroke="black" points="830.88,-782.36 830.29,-771.79 824.15,-780.42 830.88,-782.36"/>
</g>
<!-- hol -->
<g id="node17" class="node">
<title>hol</title>
<polygon fill="none" stroke="black" points="863.38,-1572.9 809.38,-1572.9 809.38,-1536.9 863.38,-1536.9 863.38,-1572.9"/>
<text text-anchor="middle" x="836.38" y="-1550.6" font-family="sans-serif" font-size="14.00">hol</text>
</g>
<!-- covalence&#45;&gt;hol -->
<g id="edge5" class="edge">
<title>covalence&#45;&gt;hol</title>
<path fill="none" stroke="black" d="M103.11,-919.86C110.06,-923.62 116.47,-928.52 121,-934.9 172.42,-1007.31 121.97,-1251.3 157,-1332.9 200.87,-1435.1 210.92,-1520.9 322.12,-1520.9 322.12,-1520.9 322.12,-1520.9 439.5,-1520.9 571.55,-1520.9 727.47,-1539.91 797.72,-1549.51"/>
<polygon fill="black" stroke="black" points="797.15,-1552.96 807.54,-1550.86 798.11,-1546.03 797.15,-1552.96"/>
</g>
<!-- lsp -->
<g id="node27" class="node">
<title>lsp</title>
<polygon fill="none" stroke="black" points="863.38,-625.9 809.38,-625.9 809.38,-589.9 863.38,-589.9 863.38,-625.9"/>
<text text-anchor="middle" x="836.38" y="-603.6" font-family="sans-serif" font-size="14.00">lsp</text>
</g>
<!-- covalence&#45;&gt;lsp -->
<g id="edge6" class="edge">
<title>covalence&#45;&gt;lsp</title>
<path fill="none" stroke="black" d="M72.45,-889.64C88.9,-863.02 121.83,-812.72 157,-775.9 190.05,-741.31 215.29,-749.09 241.25,-708.9 276.58,-654.22 233.5,-615.12 277.25,-566.9 306.37,-534.81 335.21,-561.03 369,-533.9 392.37,-515.15 378.76,-491.37 405,-476.9 431.08,-462.53 442.74,-471.4 472,-476.9 511.17,-484.27 601.41,-528.98 638.75,-542.9 693.75,-563.42 758.57,-584.2 798.32,-596.57"/>
<polygon fill="black" stroke="black" points="797.04,-599.84 807.63,-599.46 799.11,-593.15 797.04,-599.84"/>
</g>
<!-- object -->
<g id="node30" class="node">
<title>object</title>
<polygon fill="none" stroke="black" points="714,-940.9 656.75,-940.9 656.75,-904.9 714,-904.9 714,-940.9"/>
<text text-anchor="middle" x="685.38" y="-918.6" font-family="sans-serif" font-size="14.00">object</text>
</g>
<!-- covalence&#45;&gt;object -->
<g id="edge7" class="edge">
<title>covalence&#45;&gt;object</title>
<path fill="none" stroke="black" d="M102.94,-920.38C109.81,-924.08 116.24,-928.83 121,-934.9 174.82,-1003.59 96.68,-1064.85 157,-1127.9 194.93,-1167.56 222.73,-1149.64 277.25,-1155.9 317.76,-1160.56 329.85,-1167.32 369,-1155.9 487.27,-1121.41 507.23,-1084.72 602.75,-1006.9 624.1,-989.51 645.7,-967.02 661.31,-949.69"/>
<polygon fill="black" stroke="black" points="663.87,-952.08 667.89,-942.28 658.63,-947.43 663.87,-952.08"/>
</g>
<!-- opentheory -->
<g id="node31" class="node">
<title>opentheory</title>
<polygon fill="none" stroke="black" points="368.62,-1605.9 277.62,-1605.9 277.62,-1569.9 368.62,-1569.9 368.62,-1605.9"/>
<text text-anchor="middle" x="323.12" y="-1583.6" font-family="sans-serif" font-size="14.00">opentheory</text>
</g>
<!-- covalence&#45;&gt;opentheory -->
<g id="edge8" class="edge">
<title>covalence&#45;&gt;opentheory</title>
<path fill="none" stroke="black" d="M102.96,-919.59C110.01,-923.38 116.5,-928.36 121,-934.9 196.68,-1044.97 75.1,-1429.39 157,-1534.9 182.6,-1567.88 228.91,-1580.68 265.98,-1585.49"/>
<polygon fill="black" stroke="black" points="265.33,-1588.94 275.66,-1586.57 266.11,-1581.98 265.33,-1588.94"/>
</g>
<!-- proto -->
<g id="node35" class="node">
<title>proto</title>
<polygon fill="none" stroke="black" points="350.12,-524.9 296.12,-524.9 296.12,-488.9 350.12,-488.9 350.12,-524.9"/>
<text text-anchor="middle" x="323.12" y="-502.6" font-family="sans-serif" font-size="14.00">proto</text>
</g>
<!-- covalence&#45;&gt;proto -->
<g id="edge9" class="edge">
<title>covalence&#45;&gt;proto</title>
<path fill="none" stroke="black" d="M71.37,-889.68C87.94,-859.48 122.9,-797.48 157,-747.9 191.3,-698.04 212.06,-693.93 241.25,-640.9 264.43,-598.79 248.34,-577.31 277.25,-538.9 280.1,-535.12 283.52,-531.6 287.2,-528.39"/>
<polygon fill="black" stroke="black" points="289.14,-531.31 294.86,-522.4 284.83,-525.8 289.14,-531.31"/>
</g>
<!-- repl -->
<g id="node41" class="node">
<title>repl</title>
<polygon fill="none" stroke="black" points="350.12,-696.9 296.12,-696.9 296.12,-660.9 350.12,-660.9 350.12,-696.9"/>
<text text-anchor="middle" x="323.12" y="-674.6" font-family="sans-serif" font-size="14.00">repl</text>
</g>
<!-- covalence&#45;&gt;repl -->
<g id="edge10" class="edge">
<title>covalence&#45;&gt;repl</title>
<path fill="none" stroke="black" d="M86.82,-889.56C134.71,-854.82 234.41,-782.34 241.25,-775.9 264.14,-754.38 286.75,-726.56 302.21,-706.23"/>
<polygon fill="black" stroke="black" points="304.88,-708.51 308.09,-698.41 299.29,-704.3 304.88,-708.51"/>
</g>
<!-- serve -->
<g id="node43" class="node">
<title>serve</title>
<polygon fill="none" stroke="black" points="226.12,-883.9 172.12,-883.9 172.12,-847.9 226.12,-847.9 226.12,-883.9"/>
<text text-anchor="middle" x="199.12" y="-861.6" font-family="sans-serif" font-size="14.00">serve</text>
</g>
<!-- covalence&#45;&gt;serve -->
<g id="edge11" class="edge">
<title>covalence&#45;&gt;serve</title>
<path fill="none" stroke="black" d="M102.86,-895.19C121.38,-889.5 143.04,-882.84 161.02,-877.31"/>
<polygon fill="black" stroke="black" points="161.98,-880.68 170.51,-874.39 159.92,-873.99 161.98,-880.68"/>
</g>
<!-- shell -->
<g id="node45" class="node">
<title>shell</title>
<polygon fill="none" stroke="black" points="465.5,-1298.9 411.5,-1298.9 411.5,-1262.9 465.5,-1262.9 465.5,-1298.9"/>
<text text-anchor="middle" x="438.5" y="-1276.6" font-family="sans-serif" font-size="14.00">shell</text>
</g>
<!-- covalence&#45;&gt;shell -->
<g id="edge12" class="edge">
<title>covalence&#45;&gt;shell</title>
<path fill="none" stroke="black" d="M103.07,-919.89C110.02,-923.64 116.44,-928.54 121,-934.9 168.82,-1001.72 96.14,-1247.7 157,-1302.9 224.1,-1363.76 341.19,-1324.9 400.63,-1298.86"/>
<polygon fill="black" stroke="black" points="401.97,-1302.09 409.65,-1294.79 399.09,-1295.71 401.97,-1302.09"/>
</g>
<!-- store -->
<g id="node49" class="node">
<title>store</title>
<polygon fill="none" stroke="black" points="712.38,-349.9 658.38,-349.9 658.38,-313.9 712.38,-313.9 712.38,-349.9"/>
<text text-anchor="middle" x="685.38" y="-327.6" font-family="sans-serif" font-size="14.00">store</text>
</g>
<!-- covalence&#45;&gt;store -->
<g id="edge13" class="edge">
<title>covalence&#45;&gt;store</title>
<path fill="none" stroke="black" d="M63.37,-889.62C69.42,-837.13 91.98,-682.83 157,-574.9 183.8,-530.41 204.98,-531.09 241.25,-493.9 316.54,-416.72 315.51,-375.04 405,-314.9 479.28,-264.99 517.16,-250.76 602.75,-276.9 605.51,-277.75 628.15,-293.06 648.88,-307.31"/>
<polygon fill="black" stroke="black" points="646.73,-310.08 656.95,-312.87 650.7,-304.31 646.73,-310.08"/>
</g>
<!-- wasm -->
<g id="node52" class="node">
<title>wasm</title>
<polygon fill="none" stroke="black" points="1004.75,-192.9 950.5,-192.9 950.5,-156.9 1004.75,-156.9 1004.75,-192.9"/>
<text text-anchor="middle" x="977.62" y="-170.6" font-family="sans-serif" font-size="14.00">wasm</text>
</g>
<!-- covalence&#45;&gt;wasm -->
<g id="edge14" class="edge">
<title>covalence&#45;&gt;wasm</title>
<path fill="none" stroke="black" d="M62.93,-889.43C67.69,-838.65 86.96,-694.63 157,-602.9 183.99,-567.55 212.71,-583.02 241.25,-548.9 268.1,-516.81 251.71,-495.05 277.25,-461.9 400.45,-301.98 451.21,-261.62 638.75,-186.9 741.16,-146.11 875.16,-158.71 939.28,-168.32"/>
<polygon fill="black" stroke="black" points="938.5,-171.74 948.92,-169.83 939.58,-164.83 938.5,-171.74"/>
</g>
<!-- acset -->
<g id="node2" class="node">
<title>acset</title>
<polygon fill="none" stroke="black" points="863.38,-533.9 809.38,-533.9 809.38,-497.9 863.38,-497.9 863.38,-533.9"/>
<text text-anchor="middle" x="836.38" y="-511.6" font-family="sans-serif" font-size="14.00">acset</text>
</g>
<!-- alethe -->
<g id="node3" class="node">
<title>alethe</title>
<polygon fill="none" stroke="black" points="583.62,-1428.9 527.12,-1428.9 527.12,-1392.9 583.62,-1392.9 583.62,-1428.9"/>
<text text-anchor="middle" x="555.38" y="-1406.6" font-family="sans-serif" font-size="14.00">alethe</text>
</g>
<!-- core -->
<g id="node6" class="node">
<title>core</title>
<polygon fill="#ffd6d6" stroke="black" points="1004.62,-1602.9 950.62,-1602.9 950.62,-1566.9 1004.62,-1566.9 1004.62,-1602.9"/>
<text text-anchor="middle" x="977.62" y="-1580.6" font-family="sans-serif" font-size="14.00">core</text>
</g>
<!-- alethe&#45;&gt;core -->
<g id="edge15" class="edge">
<title>alethe&#45;&gt;core</title>
<path fill="none" stroke="black" d="M583.9,-1416.71C644.55,-1430.24 793.16,-1467.34 904.75,-1527.9 920.29,-1536.34 935.88,-1548.18 948.54,-1558.89"/>
<polygon fill="black" stroke="black" points="946.22,-1561.51 956.06,-1565.43 950.81,-1556.22 946.22,-1561.51"/>
</g>
<!-- hol&#45;eval -->
<g id="node19" class="node">
<title>hol&#45;eval</title>
<polygon fill="none" stroke="black" points="871.38,-1718.9 801.38,-1718.9 801.38,-1682.9 871.38,-1682.9 871.38,-1718.9"/>
<text text-anchor="middle" x="836.38" y="-1696.6" font-family="sans-serif" font-size="14.00">hol&#45;eval</text>
</g>
<!-- alethe&#45;&gt;hol&#45;eval -->
<g id="edge16" class="edge">
<title>alethe&#45;&gt;hol&#45;eval</title>
<path fill="none" stroke="black" d="M571.98,-1429.24C603.07,-1465.9 674.65,-1551.08 732,-1624.9 748.58,-1646.25 746.64,-1657.35 768,-1673.9 774.79,-1679.16 782.74,-1683.53 790.74,-1687.12"/>
<polygon fill="black" stroke="black" points="789.23,-1690.28 799.82,-1690.82 791.88,-1683.8 789.23,-1690.28"/>
</g>
<!-- init -->
<g id="node21" class="node">
<title>init</title>
<polygon fill="none" stroke="black" points="712.38,-1344.9 658.38,-1344.9 658.38,-1308.9 712.38,-1308.9 712.38,-1344.9"/>
<text text-anchor="middle" x="685.38" y="-1322.6" font-family="sans-serif" font-size="14.00">init</text>
</g>
<!-- alethe&#45;&gt;init -->
<g id="edge17" class="edge">
<title>alethe&#45;&gt;init</title>
<path fill="none" stroke="black" d="M583.83,-1392.88C602.86,-1380.4 628.36,-1363.66 648.92,-1350.17"/>
<polygon fill="black" stroke="black" points="650.57,-1353.28 657.01,-1344.86 646.73,-1347.42 650.57,-1353.28"/>
</g>
<!-- sexp -->
<g id="node44" class="node">
<title>sexp</title>
<polygon fill="none" stroke="black" points="1004.62,-1076.9 950.62,-1076.9 950.62,-1040.9 1004.62,-1040.9 1004.62,-1076.9"/>
<text text-anchor="middle" x="977.62" y="-1054.6" font-family="sans-serif" font-size="14.00">sexp</text>
</g>
<!-- alethe&#45;&gt;sexp -->
<g id="edge18" class="edge">
<title>alethe&#45;&gt;sexp</title>
<path fill="none" stroke="black" d="M567.44,-1392.68C582.02,-1369.55 609.27,-1329.14 638.75,-1299.9 675.17,-1263.79 699.95,-1271.95 732,-1231.9 757.13,-1200.51 737.58,-1175.2 768,-1148.9 815.63,-1107.72 848.05,-1139.28 904.75,-1111.9 919.66,-1104.71 934.64,-1094.29 947.03,-1084.6"/>
<polygon fill="black" stroke="black" points="949.2,-1087.34 954.78,-1078.34 944.8,-1081.9 949.2,-1087.34"/>
</g>
<!-- smt -->
<g id="node46" class="node">
<title>smt</title>
<polygon fill="none" stroke="black" points="712.38,-1222.9 658.38,-1222.9 658.38,-1186.9 712.38,-1186.9 712.38,-1222.9"/>
<text text-anchor="middle" x="685.38" y="-1200.6" font-family="sans-serif" font-size="14.00">smt</text>
</g>
<!-- alethe&#45;&gt;smt -->
<g id="edge19" class="edge">
<title>alethe&#45;&gt;smt</title>
<path fill="none" stroke="black" d="M561.57,-1392.65C571.86,-1358.92 597.49,-1285.83 638.75,-1236.9 641.84,-1233.24 645.44,-1229.8 649.23,-1226.63"/>
<polygon fill="black" stroke="black" points="651.25,-1229.5 657.1,-1220.67 647.02,-1223.92 651.25,-1229.5"/>
</g>
<!-- types -->
<g id="node51" class="node">
<title>types</title>
<polygon fill="#ffd6d6" stroke="black" points="1445.5,-1564.9 1391.5,-1564.9 1391.5,-1528.9 1445.5,-1528.9 1445.5,-1564.9"/>
<text text-anchor="middle" x="1418.5" y="-1542.6" font-family="sans-serif" font-size="14.00">types</text>
</g>
<!-- alethe&#45;&gt;types -->
<g id="edge20" class="edge">
<title>alethe&#45;&gt;types</title>
<path fill="none" stroke="black" d="M583.88,-1413.34C650.96,-1419.07 828.31,-1432.9 976.62,-1432.9 976.62,-1432.9 976.62,-1432.9 1194.25,-1432.9 1271.37,-1432.9 1348.69,-1487.52 1388.98,-1521.15"/>
<polygon fill="black" stroke="black" points="1386.68,-1523.78 1396.56,-1527.61 1391.22,-1518.45 1386.68,-1523.78"/>
</g>
<!-- arrow -->
<g id="node4" class="node">
<title>arrow</title>
<polygon fill="none" stroke="black" points="582.38,-696.9 528.38,-696.9 528.38,-660.9 582.38,-660.9 582.38,-696.9"/>
<text text-anchor="middle" x="555.38" y="-674.6" font-family="sans-serif" font-size="14.00">arrow</text>
</g>
<!-- client&#45;&gt;hash -->
<g id="edge21" class="edge">
<title>client&#45;&gt;hash</title>
<path fill="none" stroke="black" d="M350.49,-1133.67C403.68,-1141.76 525.35,-1152.32 602.75,-1096.9 633.14,-1075.15 611.6,-1046.59 638.75,-1020.9 671.26,-990.15 699.82,-1014.01 732,-982.9 790.82,-926.04 818.77,-829.67 829.63,-781.36"/>
<polygon fill="black" stroke="black" points="833.04,-782.16 831.72,-771.65 826.2,-780.69 833.04,-782.16"/>
</g>
<!-- client&#45;&gt;shell -->
<g id="edge22" class="edge">
<title>client&#45;&gt;shell</title>
<path fill="none" stroke="black" d="M350.45,-1143.96C357.15,-1148.72 363.89,-1154.45 369,-1160.9 395.24,-1194.03 381.46,-1213.81 405,-1248.9 406.19,-1250.68 407.49,-1252.44 408.87,-1254.16"/>
<polygon fill="black" stroke="black" points="405.93,-1256.12 415.18,-1261.28 411.17,-1251.48 405.93,-1256.12"/>
</g>
<!-- client&#45;&gt;store -->
<g id="edge23" class="edge">
<title>client&#45;&gt;store</title>
<path fill="none" stroke="black" d="M333.75,-1110.52C359.59,-1061.67 433.61,-925.18 508,-819.9 546.02,-766.1 576.81,-766.46 602.75,-705.9 657.19,-578.81 589.53,-526.11 638.75,-396.9 643.84,-383.55 652.28,-370.36 660.53,-359.38"/>
<polygon fill="black" stroke="black" points="663.27,-361.57 666.71,-351.55 657.77,-357.23 663.27,-361.57"/>
</g>
<!-- pure -->
<g id="node36" class="node">
<title>pure</title>
<polygon fill="#ffd6d6" stroke="black" points="1220.25,-1648.9 1166.25,-1648.9 1166.25,-1612.9 1220.25,-1612.9 1220.25,-1648.9"/>
<text text-anchor="middle" x="1193.25" y="-1626.6" font-family="sans-serif" font-size="14.00">pure</text>
</g>
<!-- core&#45;&gt;pure -->
<g id="edge24" class="edge">
<title>core&#45;&gt;pure</title>
<path fill="none" stroke="black" d="M1005.09,-1585.93C1035.71,-1587.64 1087.4,-1592.15 1130.25,-1603.9 1138.67,-1606.21 1147.44,-1609.46 1155.63,-1612.91"/>
<polygon fill="black" stroke="black" points="1154.06,-1616.04 1164.62,-1616.88 1156.88,-1609.63 1154.06,-1616.04"/>
</g>
<!-- pure&#45;eval -->
<g id="node37" class="node">
<title>pure&#45;eval</title>
<polygon fill="#ffd6d6" stroke="black" points="1130.25,-1648.9 1050.5,-1648.9 1050.5,-1612.9 1130.25,-1612.9 1130.25,-1648.9"/>
<text text-anchor="middle" x="1090.38" y="-1626.6" font-family="sans-serif" font-size="14.00">pure&#45;eval</text>
</g>
<!-- core&#45;&gt;pure&#45;eval -->
<g id="edge25" class="edge">
<title>core&#45;&gt;pure&#45;eval</title>
<path fill="none" stroke="black" d="M1004.87,-1595.81C1015.36,-1600.16 1027.8,-1605.33 1039.86,-1610.34"/>
<polygon fill="black" stroke="black" points="1038.33,-1613.49 1048.91,-1614.1 1041.01,-1607.03 1038.33,-1613.49"/>
</g>
<!-- core&#45;&gt;types -->
<g id="edge26" class="edge">
<title>core&#45;&gt;types</title>
<path fill="none" stroke="black" d="M1005.09,-1582.61C1079.78,-1576.15 1292.44,-1557.73 1379.57,-1550.19"/>
<polygon fill="black" stroke="black" points="1379.83,-1553.68 1389.49,-1549.33 1379.23,-1546.7 1379.83,-1553.68"/>
</g>
<!-- core&#45;test&#45;guest -->
<g id="node7" class="node">
<title>core&#45;test&#45;guest</title>
<polygon fill="none" stroke="black" points="121,-979.9 0,-979.9 0,-943.9 121,-943.9 121,-979.9"/>
<text text-anchor="middle" x="60.5" y="-957.6" font-family="sans-serif" font-size="14.00">core&#45;test&#45;guest</text>
</g>
<!-- crypto&#45;sig -->
<g id="node8" class="node">
<title>crypto&#45;sig</title>
<polygon fill="none" stroke="black" points="241.25,-72.9 157,-72.9 157,-36.9 241.25,-36.9 241.25,-72.9"/>
<text text-anchor="middle" x="199.12" y="-50.6" font-family="sans-serif" font-size="14.00">crypto&#45;sig</text>
</g>
<!-- egglog -->
<g id="node9" class="node">
<title>egglog</title>
<polygon fill="none" stroke="black" points="866.88,-1236.9 805.88,-1236.9 805.88,-1200.9 866.88,-1200.9 866.88,-1236.9"/>
<text text-anchor="middle" x="836.38" y="-1214.6" font-family="sans-serif" font-size="14.00">egglog</text>
</g>
<!-- egglog&#45;&gt;sexp -->
<g id="edge27" class="edge">
<title>egglog&#45;&gt;sexp</title>
<path fill="none" stroke="black" d="M867.29,-1209.32C879.93,-1204.17 894.15,-1196.8 904.75,-1186.9 934.51,-1159.11 955.12,-1116.14 966.41,-1087.77"/>
<polygon fill="black" stroke="black" points="969.57,-1089.32 969.87,-1078.73 963.03,-1086.82 969.57,-1089.32"/>
</g>
<!-- egglog&#45;&gt;types -->
<g id="edge28" class="edge">
<title>egglog&#45;&gt;types</title>
<path fill="none" stroke="black" d="M867.24,-1219.68C914.42,-1220.85 1009.08,-1222.9 1089.38,-1222.9 1089.38,-1222.9 1089.38,-1222.9 1194.25,-1222.9 1266.99,-1222.9 1303.19,-1200.37 1355.5,-1250.9 1393.54,-1287.65 1410.1,-1449.87 1415.44,-1517.33"/>
<polygon fill="black" stroke="black" points="1411.94,-1517.55 1416.19,-1527.26 1418.92,-1517.02 1411.94,-1517.55"/>
</g>
<!-- forsp -->
<g id="node10" class="node">
<title>forsp</title>
<polygon fill="none" stroke="black" points="712.38,-818.9 658.38,-818.9 658.38,-782.9 712.38,-782.9 712.38,-818.9"/>
<text text-anchor="middle" x="685.38" y="-796.6" font-family="sans-serif" font-size="14.00">forsp</text>
</g>
<!-- forsp&#45;&gt;hash -->
<g id="edge29" class="edge">
<title>forsp&#45;&gt;hash</title>
<path fill="none" stroke="black" d="M712.67,-792.26C736.43,-784.44 771.65,-772.86 798.27,-764.11"/>
<polygon fill="black" stroke="black" points="799.25,-767.47 807.65,-761.02 797.06,-760.82 799.25,-767.47"/>
</g>
<!-- forsp&#45;&gt;sexp -->
<g id="edge30" class="edge">
<title>forsp&#45;&gt;sexp</title>
<path fill="none" stroke="black" d="M712.71,-814.08C756.42,-836.87 845.02,-887.1 904.75,-947.9 929.03,-972.62 949.65,-1006.76 962.5,-1030.63"/>
<polygon fill="black" stroke="black" points="959.39,-1032.24 967.14,-1039.47 965.59,-1028.98 959.39,-1032.24"/>
</g>
<!-- fuse&#45;&gt;hash -->
<g id="edge31" class="edge">
<title>fuse&#45;&gt;hash</title>
<path fill="none" stroke="black" d="M582.67,-848.24C617.91,-849.1 681.84,-847.41 732,-827.9 760.99,-816.63 789.1,-795.05 808.68,-777.76"/>
<polygon fill="black" stroke="black" points="810.87,-780.49 815.92,-771.18 806.16,-775.31 810.87,-780.49"/>
</g>
<!-- fuse&#45;&gt;object -->
<g id="edge32" class="edge">
<title>fuse&#45;&gt;object</title>
<path fill="none" stroke="black" d="M582.59,-862.47C601.07,-873.44 626.09,-888.3 646.71,-900.54"/>
<polygon fill="black" stroke="black" points="644.74,-903.44 655.12,-905.54 648.31,-897.42 644.74,-903.44"/>
</g>
<!-- fuse&#45;&gt;store -->
<g id="edge33" class="edge">
<title>fuse&#45;&gt;store</title>
<path fill="none" stroke="black" d="M572.12,-828.66C582.72,-815.28 595.95,-796.15 602.75,-776.9 659.29,-616.96 580.06,-556.07 638.75,-396.9 643.69,-383.5 652.11,-370.29 660.38,-359.32"/>
<polygon fill="black" stroke="black" points="663.12,-361.51 666.58,-351.5 657.63,-357.16 663.12,-361.51"/>
</g>
<!-- git&#45;&gt;hash -->
<g id="edge34" class="edge">
<title>git&#45;&gt;hash</title>
<path fill="none" stroke="black" d="M465.95,-513.52C499.35,-526.28 557.87,-550.77 602.75,-580.9 620.77,-593 620.41,-602.29 638.75,-613.9 676.56,-637.84 694.51,-627.46 732,-651.9 763.25,-672.28 793.24,-702.94 812.79,-724.93"/>
<polygon fill="black" stroke="black" points="810.04,-727.11 819.26,-732.34 815.32,-722.51 810.04,-727.11"/>
</g>
<!-- git&#45;&gt;object -->
<g id="edge35" class="edge">
<title>git&#45;&gt;object</title>
<path fill="none" stroke="black" d="M457.15,-522.16C462.83,-529.08 468.55,-537.36 472,-545.9 499.47,-613.89 460.51,-818.04 508,-873.9 525.65,-894.66 598.78,-909.6 645.16,-917.19"/>
<polygon fill="black" stroke="black" points="644.4,-920.62 654.82,-918.73 645.5,-913.7 644.4,-920.62"/>
</g>
<!-- sqlite -->
<g id="node48" class="node">
<title>sqlite</title>
<polygon fill="none" stroke="black" points="863.38,-334.9 809.38,-334.9 809.38,-298.9 863.38,-298.9 863.38,-334.9"/>
<text text-anchor="middle" x="836.38" y="-312.6" font-family="sans-serif" font-size="14.00">sqlite</text>
</g>
<!-- git&#45;&gt;sqlite -->
<g id="edge36" class="edge">
<title>git&#45;&gt;sqlite</title>
<path fill="none" stroke="black" d="M465.83,-496.78C499.62,-486.81 559.09,-466.42 602.75,-435.9 622.08,-422.39 619.36,-410.34 638.75,-396.9 675.53,-371.41 691.44,-377.82 732,-358.9 748.4,-351.26 751.39,-347.07 768,-339.9 777.65,-335.74 788.32,-331.81 798.27,-328.41"/>
<polygon fill="black" stroke="black" points="799.27,-331.76 807.66,-325.29 797.07,-325.12 799.27,-331.76"/>
</g>
<!-- git&#45;&gt;store -->
<g id="edge37" class="edge">
<title>git&#45;&gt;store</title>
<path fill="none" stroke="black" d="M465.6,-485.55C503.67,-458.79 576.64,-407.51 638.75,-363.9 642.12,-361.54 645.62,-359.08 649.13,-356.62"/>
<polygon fill="black" stroke="black" points="650.9,-359.65 657.08,-351.05 646.88,-353.92 650.9,-359.65"/>
</g>
<!-- grammar -->
<g id="node13" class="node">
<title>grammar</title>
<polygon fill="none" stroke="black" points="1014.5,-1385.9 940.75,-1385.9 940.75,-1349.9 1014.5,-1349.9 1014.5,-1385.9"/>
<text text-anchor="middle" x="977.62" y="-1363.6" font-family="sans-serif" font-size="14.00">grammar</text>
</g>
<!-- graph -->
<g id="node14" class="node">
<title>graph</title>
<polygon fill="none" stroke="black" points="465.5,-590.9 411.5,-590.9 411.5,-554.9 465.5,-554.9 465.5,-590.9"/>
<text text-anchor="middle" x="438.5" y="-568.6" font-family="sans-serif" font-size="14.00">graph</text>
</g>
<!-- graph&#45;&gt;hash -->
<g id="edge38" class="edge">
<title>graph&#45;&gt;hash</title>
<path fill="none" stroke="black" d="M465.82,-576.46C499.34,-581.82 558.25,-594.11 602.75,-618.9 621.71,-629.47 620.91,-639.54 638.75,-651.9 642.38,-654.42 743.02,-705.31 798.87,-733.5"/>
<polygon fill="black" stroke="black" points="797.22,-736.58 807.72,-737.96 800.37,-730.33 797.22,-736.58"/>
</g>
<!-- parse -->
<g id="node33" class="node">
<title>parse</title>
<polygon fill="none" stroke="black" points="1117.38,-714.9 1063.38,-714.9 1063.38,-678.9 1117.38,-678.9 1117.38,-714.9"/>
<text text-anchor="middle" x="1090.38" y="-692.6" font-family="sans-serif" font-size="14.00">parse</text>
</g>
<!-- graph&#45;&gt;parse -->
<g id="edge39" class="edge">
<title>graph&#45;&gt;parse</title>
<path fill="none" stroke="black" d="M465.79,-557.78C502.91,-537.38 573.44,-502.11 638.75,-488.9 754.63,-465.48 795.24,-444.36 904.75,-488.9 989.16,-523.24 1049.45,-620 1075.31,-668.48"/>
<polygon fill="black" stroke="black" points="1072.16,-670 1079.89,-677.26 1078.37,-666.77 1072.16,-670"/>
</g>
<!-- rand -->
<g id="node40" class="node">
<title>rand</title>
<polygon fill="none" stroke="black" points="1004.62,-769.9 950.62,-769.9 950.62,-733.9 1004.62,-733.9 1004.62,-769.9"/>
<text text-anchor="middle" x="977.62" y="-747.6" font-family="sans-serif" font-size="14.00">rand</text>
</g>
<!-- hash&#45;&gt;rand -->
<g id="edge40" class="edge">
<title>hash&#45;&gt;rand</title>
<path fill="none" stroke="black" d="M863.57,-751.9C884.86,-751.9 915.19,-751.9 939.07,-751.9"/>
<polygon fill="black" stroke="black" points="939.04,-755.4 949.04,-751.9 939.04,-748.4 939.04,-755.4"/>
</g>
<!-- haskell -->
<g id="node16" class="node">
<title>haskell</title>
<polygon fill="none" stroke="black" points="469.75,-1698.9 407.25,-1698.9 407.25,-1662.9 469.75,-1662.9 469.75,-1698.9"/>
<text text-anchor="middle" x="438.5" y="-1676.6" font-family="sans-serif" font-size="14.00">haskell</text>
</g>
<!-- hol&#45;api -->
<g id="node18" class="node">
<title>hol&#45;api</title>
<polygon fill="none" stroke="black" points="586.62,-1736.9 524.12,-1736.9 524.12,-1700.9 586.62,-1700.9 586.62,-1736.9"/>
<text text-anchor="middle" x="555.38" y="-1714.6" font-family="sans-serif" font-size="14.00">hol&#45;api</text>
</g>
<!-- haskell&#45;&gt;hol&#45;api -->
<g id="edge41" class="edge">
<title>haskell&#45;&gt;hol&#45;api</title>
<path fill="none" stroke="black" d="M469.98,-1690.99C483.22,-1695.37 498.94,-1700.57 513.2,-1705.28"/>
<polygon fill="black" stroke="black" points="511.72,-1708.48 522.31,-1708.3 513.92,-1701.83 511.72,-1708.48"/>
</g>
<!-- haskell&#45;&gt;hol&#45;eval -->
<g id="edge42" class="edge">
<title>haskell&#45;&gt;hol&#45;eval</title>
<path fill="none" stroke="black" d="M470.23,-1682.46C539.49,-1685.96 708.07,-1694.47 789.65,-1698.59"/>
<polygon fill="black" stroke="black" points="789.36,-1702.08 799.52,-1699.09 789.71,-1695.09 789.36,-1702.08"/>
</g>
<!-- haskell&#45;&gt;init -->
<g id="edge43" class="edge">
<title>haskell&#45;&gt;init</title>
<path fill="none" stroke="black" d="M462.11,-1662.62C465.96,-1658.5 469.52,-1653.86 472,-1648.9 525.2,-1542.62 431.74,-1475.07 508,-1383.9 525.94,-1362.46 600.79,-1343.86 647.03,-1334.13"/>
<polygon fill="black" stroke="black" points="647.54,-1337.6 656.63,-1332.16 646.13,-1330.74 647.54,-1337.6"/>
</g>
<!-- haskell&#45;&gt;types -->
<g id="edge44" class="edge">
<title>haskell&#45;&gt;types</title>
<path fill="none" stroke="black" d="M451.06,-1699.08C482.41,-1745.88 574.13,-1866.9 684.38,-1866.9 684.38,-1866.9 684.38,-1866.9 1194.25,-1866.9 1275.68,-1866.9 1305.06,-1843.83 1355.5,-1779.9 1403.45,-1719.14 1414.48,-1624.6 1416.9,-1576.78"/>
<polygon fill="black" stroke="black" points="1420.4,-1577.05 1417.3,-1566.91 1413.4,-1576.76 1420.4,-1577.05"/>
</g>
<!-- hol&#45;&gt;core -->
<g id="edge45" class="edge">
<title>hol&#45;&gt;core</title>
<path fill="none" stroke="black" d="M863.57,-1560.55C884.96,-1565.16 915.47,-1571.73 939.4,-1576.88"/>
<polygon fill="black" stroke="black" points="938.56,-1580.28 949.07,-1578.97 940.03,-1573.44 938.56,-1580.28"/>
</g>
<!-- hol&#45;api&#45;&gt;core -->
<g id="edge46" class="edge">
<title>hol&#45;api&#45;&gt;core</title>
<path fill="none" stroke="black" d="M586.7,-1729.92C650.92,-1751.21 803.04,-1790.62 904.75,-1727.9 944.84,-1703.18 963.35,-1648.5 971.29,-1614.38"/>
<polygon fill="black" stroke="black" points="974.68,-1615.24 973.35,-1604.72 967.84,-1613.77 974.68,-1615.24"/>
</g>
<!-- hol&#45;api&#45;&gt;hol&#45;eval -->
<g id="edge47" class="edge">
<title>hol&#45;api&#45;&gt;hol&#45;eval</title>
<path fill="none" stroke="black" d="M587.03,-1716.93C636.16,-1713.76 732.81,-1707.52 789.97,-1703.83"/>
<polygon fill="black" stroke="black" points="789.93,-1707.34 799.68,-1703.21 789.48,-1700.36 789.93,-1707.34"/>
</g>
<!-- inductive -->
<g id="node20" class="node">
<title>inductive</title>
<polygon fill="none" stroke="black" points="874.75,-1664.9 798,-1664.9 798,-1628.9 874.75,-1628.9 874.75,-1664.9"/>
<text text-anchor="middle" x="836.38" y="-1642.6" font-family="sans-serif" font-size="14.00">inductive</text>
</g>
<!-- hol&#45;api&#45;&gt;inductive -->
<g id="edge48" class="edge">
<title>hol&#45;api&#45;&gt;inductive</title>
<path fill="none" stroke="black" d="M587.03,-1710.99C635.2,-1698.56 729.05,-1674.34 786.58,-1659.5"/>
<polygon fill="black" stroke="black" points="787.3,-1662.92 796.11,-1657.04 785.55,-1656.15 787.3,-1662.92"/>
</g>
<!-- hol&#45;api&#45;&gt;init -->
<g id="edge49" class="edge">
<title>hol&#45;api&#45;&gt;init</title>
<path fill="none" stroke="black" d="M562.38,-1700.52C582.83,-1637.89 649.9,-1432.49 674.88,-1355.97"/>
<polygon fill="black" stroke="black" points="678.14,-1357.28 677.92,-1346.68 671.48,-1355.1 678.14,-1357.28"/>
</g>
<!-- hol&#45;api&#45;&gt;pure -->
<g id="edge50" class="edge">
<title>hol&#45;api&#45;&gt;pure</title>
<path fill="none" stroke="black" d="M580.08,-1737.28C595.77,-1748.24 617.34,-1761.12 638.75,-1766.9 676.15,-1777 872.72,-1765.05 904.75,-1758.9 1008.9,-1738.91 1037.48,-1732.29 1130.25,-1680.9 1142.32,-1674.22 1154.4,-1665.15 1164.65,-1656.57"/>
<polygon fill="black" stroke="black" points="1166.72,-1659.41 1171.99,-1650.22 1162.14,-1654.11 1166.72,-1659.41"/>
</g>
<!-- hol&#45;api&#45;&gt;types -->
<g id="edge51" class="edge">
<title>hol&#45;api&#45;&gt;types</title>
<path fill="none" stroke="black" d="M575.07,-1737.3C590.81,-1751.77 614.56,-1771.36 638.75,-1782.9 719.75,-1821.55 745.63,-1828.9 835.38,-1828.9 835.38,-1828.9 835.38,-1828.9 1194.25,-1828.9 1282.28,-1828.9 1301.99,-1783.8 1355.5,-1713.9 1387.59,-1671.98 1404.45,-1611.72 1412.13,-1576.21"/>
<polygon fill="black" stroke="black" points="1415.5,-1577.16 1414.08,-1566.66 1408.65,-1575.75 1415.5,-1577.16"/>
</g>
<!-- hol&#45;eval&#45;&gt;core -->
<g id="edge52" class="edge">
<title>hol&#45;eval&#45;&gt;core</title>
<path fill="none" stroke="black" d="M871.69,-1691.59C883,-1687.42 895.13,-1681.65 904.75,-1673.9 926.93,-1656.05 922.62,-1642.86 940.75,-1620.9 943.38,-1617.72 946.24,-1614.5 949.17,-1611.36"/>
<polygon fill="black" stroke="black" points="951.45,-1614.04 955.89,-1604.42 946.42,-1609.17 951.45,-1614.04"/>
</g>
<!-- hol&#45;eval&#45;&gt;pure -->
<g id="edge53" class="edge">
<title>hol&#45;eval&#45;&gt;pure</title>
<path fill="none" stroke="black" d="M871.82,-1698.81C927.2,-1694.79 1039.08,-1683.95 1130.25,-1657.9 1138.65,-1655.5 1147.4,-1652.22 1155.59,-1648.77"/>
<polygon fill="black" stroke="black" points="1156.84,-1652.04 1164.58,-1644.8 1154.02,-1645.64 1156.84,-1652.04"/>
</g>
<!-- hol&#45;eval&#45;&gt;pure&#45;eval -->
<g id="edge54" class="edge">
<title>hol&#45;eval&#45;&gt;pure&#45;eval</title>
<path fill="none" stroke="black" d="M871.43,-1687.01C891.4,-1679.22 917.24,-1669.72 940.75,-1662.9 973.09,-1653.53 1010.1,-1645.55 1039.1,-1639.91"/>
<polygon fill="black" stroke="black" points="1039.55,-1643.38 1048.71,-1638.07 1038.23,-1636.51 1039.55,-1643.38"/>
</g>
<!-- hol&#45;eval&#45;&gt;sexp -->
<g id="edge55" class="edge">
<title>hol&#45;eval&#45;&gt;sexp</title>
<path fill="none" stroke="black" d="M871.7,-1694.81C883.99,-1690.88 896.76,-1684.45 904.75,-1673.9 949.72,-1614.59 932.05,-1414.83 940.75,-1340.9 951.59,-1248.79 965.85,-1139.94 972.66,-1088.57"/>
<polygon fill="black" stroke="black" points="976.11,-1089.24 973.95,-1078.87 969.17,-1088.32 976.11,-1089.24"/>
</g>
<!-- hol&#45;eval&#45;&gt;types -->
<g id="edge56" class="edge">
<title>hol&#45;eval&#45;&gt;types</title>
<path fill="none" stroke="black" d="M871.56,-1712.57C919.6,-1727.9 1010.08,-1752.9 1089.38,-1752.9 1089.38,-1752.9 1089.38,-1752.9 1194.25,-1752.9 1277.43,-1752.9 1297.36,-1717.39 1355.5,-1657.9 1378.67,-1634.19 1396,-1600.09 1406.36,-1575.95"/>
<polygon fill="black" stroke="black" points="1409.59,-1577.3 1410.18,-1566.72 1403.12,-1574.62 1409.59,-1577.3"/>
</g>
<!-- init&#45;&gt;core -->
<g id="edge57" class="edge">
<title>init&#45;&gt;core</title>
<path fill="none" stroke="black" d="M707.55,-1345.18C723.86,-1359.08 747.07,-1378.56 768,-1394.9 827.34,-1441.25 850.39,-1442.81 904.75,-1494.9 924.67,-1513.99 943.99,-1538.64 957.57,-1557.32"/>
<polygon fill="black" stroke="black" points="954.58,-1559.15 963.25,-1565.25 960.28,-1555.08 954.58,-1559.15"/>
</g>
<!-- init&#45;&gt;grammar -->
<g id="edge58" class="edge">
<title>init&#45;&gt;grammar</title>
<path fill="none" stroke="black" d="M712.59,-1344.75C731.8,-1357.41 756.45,-1372.7 768,-1375.9 821.75,-1390.8 886.27,-1384.9 929.19,-1377.82"/>
<polygon fill="black" stroke="black" points="929.68,-1381.28 938.93,-1376.11 928.48,-1374.39 929.68,-1381.28"/>
</g>
<!-- init&#45;&gt;hash -->
<g id="edge59" class="edge">
<title>init&#45;&gt;hash</title>
<path fill="none" stroke="black" d="M697.32,-1308.69C707.96,-1290.07 723.72,-1259.98 732,-1231.9 768.01,-1109.87 739.17,-1071.83 768,-947.9 782.21,-886.82 808.3,-818.06 823.51,-780.39"/>
<polygon fill="black" stroke="black" points="826.57,-782.16 827.1,-771.58 820.08,-779.52 826.57,-782.16"/>
</g>
<!-- init&#45;&gt;hol -->
<g id="edge60" class="edge">
<title>init&#45;&gt;hol</title>
<path fill="none" stroke="black" d="M693.64,-1344.92C706.32,-1375.3 734.38,-1437.97 768,-1484.9 779.28,-1500.65 794,-1516.36 806.8,-1528.89"/>
<polygon fill="black" stroke="black" points="804.15,-1531.2 813.79,-1535.59 808.99,-1526.14 804.15,-1531.2"/>
</g>
<!-- init&#45;&gt;hol&#45;eval -->
<g id="edge61" class="edge">
<title>init&#45;&gt;hol&#45;eval</title>
<path fill="none" stroke="black" d="M695.74,-1345.12C706.18,-1366.19 722.78,-1402.19 732,-1434.9 761.13,-1538.3 701.33,-1589.68 768,-1673.9 773.78,-1681.21 781.85,-1686.55 790.39,-1690.44"/>
<polygon fill="black" stroke="black" points="788.93,-1693.63 799.51,-1693.97 791.45,-1687.1 788.93,-1693.63"/>
</g>
<!-- init&#45;&gt;inductive -->
<g id="edge62" class="edge">
<title>init&#45;&gt;inductive</title>
<path fill="none" stroke="black" d="M695.21,-1345.29C705.15,-1366.51 721.31,-1402.64 732,-1434.9 753.16,-1498.75 734.48,-1523.59 768,-1581.9 776.47,-1596.64 789.27,-1610.19 801.45,-1621.06"/>
<polygon fill="black" stroke="black" points="799.1,-1623.66 808.98,-1627.49 803.65,-1618.34 799.1,-1623.66"/>
</g>
<!-- metamath -->
<g id="node28" class="node">
<title>metamath</title>
<polygon fill="none" stroke="black" points="876.62,-992.9 796.12,-992.9 796.12,-956.9 876.62,-956.9 876.62,-992.9"/>
<text text-anchor="middle" x="836.38" y="-970.6" font-family="sans-serif" font-size="14.00">metamath</text>
</g>
<!-- init&#45;&gt;metamath -->
<g id="edge63" class="edge">
<title>init&#45;&gt;metamath</title>
<path fill="none" stroke="black" d="M695.65,-1308.5C705.14,-1289.48 720.12,-1258.86 732,-1231.9 768.09,-1150.01 806.33,-1051.38 824.53,-1003.62"/>
<polygon fill="black" stroke="black" points="827.69,-1005.15 827.97,-994.56 821.15,-1002.67 827.69,-1005.15"/>
</g>
<!-- init&#45;&gt;sexp -->
<g id="edge64" class="edge">
<title>init&#45;&gt;sexp</title>
<path fill="none" stroke="black" d="M701.25,-1308.51C710.63,-1296.48 722.7,-1280.21 732,-1264.9 750.79,-1233.99 740.53,-1215.45 768,-1191.9 816.37,-1150.44 852.19,-1184.92 904.75,-1148.9 928.21,-1132.83 947.78,-1106.84 960.55,-1086.91"/>
<polygon fill="black" stroke="black" points="963.52,-1088.76 965.8,-1078.42 957.57,-1085.09 963.52,-1088.76"/>
</g>
<!-- spectec -->
<g id="node47" class="node">
<title>spectec</title>
<polygon fill="none" stroke="black" points="871,-1366.9 801.75,-1366.9 801.75,-1330.9 871,-1330.9 871,-1366.9"/>
<text text-anchor="middle" x="836.38" y="-1344.6" font-family="sans-serif" font-size="14.00">spectec</text>
</g>
<!-- init&#45;&gt;spectec -->
<g id="edge65" class="edge">
<title>init&#45;&gt;spectec</title>
<path fill="none" stroke="black" d="M712.67,-1330.79C734.12,-1333.95 764.9,-1338.5 790.27,-1342.24"/>
<polygon fill="black" stroke="black" points="789.59,-1345.68 799.99,-1343.68 790.61,-1338.76 789.59,-1345.68"/>
</g>
<!-- init&#45;&gt;types -->
<g id="edge66" class="edge">
<title>init&#45;&gt;types</title>
<path fill="none" stroke="black" d="M712.73,-1323.26C763.62,-1316.54 879.04,-1302.9 976.62,-1302.9 976.62,-1302.9 976.62,-1302.9 1194.25,-1302.9 1309.62,-1302.9 1381.42,-1453.23 1406.97,-1517.89"/>
<polygon fill="black" stroke="black" points="1403.67,-1519.07 1410.53,-1527.15 1410.21,-1516.56 1403.67,-1519.07"/>
</g>
<!-- json -->
<g id="node22" class="node">
<title>json</title>
<polygon fill="none" stroke="black" points="863.38,-257.9 809.38,-257.9 809.38,-221.9 863.38,-221.9 863.38,-257.9"/>
<text text-anchor="middle" x="836.38" y="-235.6" font-family="sans-serif" font-size="14.00">json</text>
</g>
<!-- kernel -->
<g id="node23" class="node">
<title>kernel</title>
<polygon fill="none" stroke="black" points="584,-1260.9 526.75,-1260.9 526.75,-1224.9 584,-1224.9 584,-1260.9"/>
<text text-anchor="middle" x="555.38" y="-1238.6" font-family="sans-serif" font-size="14.00">kernel</text>
</g>
<!-- kernel&#45;&gt;hash -->
<g id="edge67" class="edge">
<title>kernel&#45;&gt;hash</title>
<path fill="none" stroke="black" d="M572.1,-1224.54C610.39,-1179.57 707.18,-1064.45 732,-1020.9 756.5,-977.93 804.83,-840.83 825.56,-780.67"/>
<polygon fill="black" stroke="black" points="828.78,-782.07 828.72,-771.47 822.16,-779.79 828.78,-782.07"/>
</g>
<!-- kernel&#45;&gt;init -->
<g id="edge68" class="edge">
<title>kernel&#45;&gt;init</title>
<path fill="none" stroke="black" d="M584.47,-1261.34C603.31,-1273.71 628.3,-1290.1 648.57,-1303.41"/>
<polygon fill="black" stroke="black" points="646.55,-1306.27 656.83,-1308.83 650.39,-1300.42 646.55,-1306.27"/>
</g>
<!-- kernel&#45;&gt;object -->
<g id="edge69" class="edge">
<title>kernel&#45;&gt;object</title>
<path fill="none" stroke="black" d="M564.47,-1224.65C573.89,-1203.24 589.83,-1166.66 602.75,-1134.9 629.25,-1069.79 658.42,-992.58 673.69,-951.68"/>
<polygon fill="black" stroke="black" points="676.88,-953.16 677.09,-942.56 670.32,-950.71 676.88,-953.16"/>
</g>
<!-- kernel&#45;&gt;sexp -->
<g id="edge70" class="edge">
<title>kernel&#45;&gt;sexp</title>
<path fill="none" stroke="black" d="M584.29,-1224.56C590.49,-1220.24 596.94,-1215.54 602.75,-1210.9 619.72,-1197.37 620.68,-1189.93 638.75,-1177.9 676.75,-1152.63 698.25,-1165.62 732,-1134.9 755.56,-1113.46 740.93,-1089.72 768,-1072.9 820.22,-1040.46 894.66,-1044.82 939.06,-1051.48"/>
<polygon fill="black" stroke="black" points="938.28,-1054.9 948.71,-1053.06 939.41,-1047.99 938.28,-1054.9"/>
</g>
<!-- kernel&#45;&gt;store -->
<g id="edge71" class="edge">
<title>kernel&#45;&gt;store</title>
<path fill="none" stroke="black" d="M559.02,-1224.51C566.67,-1170.69 589.19,-1008.81 602.75,-873.9 613.38,-768.14 602.93,-496.99 638.75,-396.9 643.56,-383.45 651.96,-370.24 660.25,-359.27"/>
<polygon fill="black" stroke="black" points="662.98,-361.46 666.46,-351.45 657.5,-357.1 662.98,-361.46"/>
</g>
<!-- kv -->
<g id="node24" class="node">
<title>kv</title>
<polygon fill="none" stroke="black" points="226.12,-202.9 172.12,-202.9 172.12,-166.9 226.12,-166.9 226.12,-202.9"/>
<text text-anchor="middle" x="199.12" y="-180.6" font-family="sans-serif" font-size="14.00">kv</text>
</g>
<!-- lean -->
<g id="node25" class="node">
<title>lean</title>
<polygon fill="none" stroke="black" points="87.5,-1033.9 33.5,-1033.9 33.5,-997.9 87.5,-997.9 87.5,-1033.9"/>
<text text-anchor="middle" x="60.5" y="-1011.6" font-family="sans-serif" font-size="14.00">lean</text>
</g>
<!-- llm -->
<g id="node26" class="node">
<title>llm</title>
<polygon fill="none" stroke="black" points="226.12,-484.9 172.12,-484.9 172.12,-448.9 226.12,-448.9 226.12,-484.9"/>
<text text-anchor="middle" x="199.12" y="-462.6" font-family="sans-serif" font-size="14.00">llm</text>
</g>
<!-- llm&#45;&gt;proto -->
<g id="edge72" class="edge">
<title>llm&#45;&gt;proto</title>
<path fill="none" stroke="black" d="M226.6,-475.58C243.62,-481.17 266,-488.5 284.82,-494.67"/>
<polygon fill="black" stroke="black" points="283.67,-497.98 294.27,-497.77 285.85,-491.33 283.67,-497.98"/>
</g>
<!-- lsp&#45;&gt;sexp -->
<g id="edge73" class="edge">
<title>lsp&#45;&gt;sexp</title>
<path fill="none" stroke="black" d="M850.23,-626.05C865.43,-648.32 890.44,-687.71 904.75,-724.9 946.29,-832.89 966.25,-970.23 973.41,-1029.49"/>
<polygon fill="black" stroke="black" points="969.89,-1029.57 974.53,-1039.09 976.84,-1028.75 969.89,-1029.57"/>
</g>
<!-- lsp&#45;&gt;wasm -->
<g id="edge74" class="edge">
<title>lsp&#45;&gt;wasm</title>
<path fill="none" stroke="black" d="M862.94,-589.66C877.44,-577.94 894.66,-561.47 904.75,-542.9 966.69,-429.01 975.76,-269.6 976.73,-204.42"/>
<polygon fill="black" stroke="black" points="980.23,-204.58 976.82,-194.55 973.23,-204.52 980.23,-204.58"/>
</g>
<!-- metamath&#45;&gt;parse -->
<g id="edge75" class="edge">
<title>metamath&#45;&gt;parse</title>
<path fill="none" stroke="black" d="M871.81,-956.54C910.55,-934.49 973.4,-894.35 1014.5,-845.9 1045.52,-809.33 1067.75,-757.7 1079.57,-725.81"/>
<polygon fill="black" stroke="black" points="1082.85,-727.04 1082.94,-716.45 1076.26,-724.67 1082.85,-727.04"/>
</g>
<!-- metamath&#45;&gt;sexp -->
<g id="edge76" class="edge">
<title>metamath&#45;&gt;sexp</title>
<path fill="none" stroke="black" d="M876.84,-992.16C886.16,-996.65 895.95,-1001.69 904.75,-1006.9 918.27,-1014.91 932.42,-1024.79 944.56,-1033.78"/>
<polygon fill="black" stroke="black" points="942.1,-1036.31 952.2,-1039.53 946.31,-1030.72 942.1,-1036.31"/>
</g>
<!-- multiformat -->
<g id="node29" class="node">
<title>multiformat</title>
<polygon fill="none" stroke="black" points="730.5,-533.9 640.25,-533.9 640.25,-497.9 730.5,-497.9 730.5,-533.9"/>
<text text-anchor="middle" x="685.38" y="-511.6" font-family="sans-serif" font-size="14.00">multiformat</text>
</g>
<!-- multiformat&#45;&gt;acset -->
<g id="edge77" class="edge">
<title>multiformat&#45;&gt;acset</title>
<path fill="none" stroke="black" d="M730.68,-515.9C752.05,-515.9 777.41,-515.9 797.81,-515.9"/>
<polygon fill="black" stroke="black" points="797.68,-519.4 807.68,-515.9 797.68,-512.4 797.68,-519.4"/>
</g>
<!-- multiformat&#45;&gt;hash -->
<g id="edge78" class="edge">
<title>multiformat&#45;&gt;hash</title>
<path fill="none" stroke="black" d="M698.49,-534.26C707.74,-548.34 720.78,-568.29 732,-585.9 762.92,-634.43 798.2,-691.45 818.52,-724.46"/>
<polygon fill="black" stroke="black" points="815.32,-725.92 823.54,-732.61 821.28,-722.26 815.32,-725.92"/>
</g>
<!-- multiformat&#45;&gt;parse -->
<g id="edge79" class="edge">
<title>multiformat&#45;&gt;parse</title>
<path fill="none" stroke="black" d="M730.73,-531.01C742.79,-535 755.86,-539.21 768,-542.9 828.35,-561.26 847.05,-555.41 904.75,-580.9 961.17,-605.83 1020.56,-646.02 1056.29,-671.94"/>
<polygon fill="black" stroke="black" points="1053.92,-674.55 1064.06,-677.64 1058.06,-668.9 1053.92,-674.55"/>
</g>
<!-- object&#45;&gt;hash -->
<g id="edge80" class="edge">
<title>object&#45;&gt;hash</title>
<path fill="none" stroke="black" d="M699.53,-904.47C715.1,-883.03 742.18,-846.85 768,-817.9 780.22,-804.2 794.66,-789.84 807.03,-778.03"/>
<polygon fill="black" stroke="black" points="809.25,-780.75 814.11,-771.33 804.44,-775.66 809.25,-780.75"/>
</g>
<!-- object&#45;&gt;parse -->
<g id="edge81" class="edge">
<title>object&#45;&gt;parse</title>
<path fill="none" stroke="black" d="M714.31,-915C773.57,-897.34 914.66,-850.51 1014.5,-778.9 1035.84,-763.6 1055.68,-741.35 1069.56,-723.9"/>
<polygon fill="black" stroke="black" points="1071.97,-726.51 1075.33,-716.46 1066.44,-722.22 1071.97,-726.51"/>
</g>
<!-- opentheory&#45;&gt;hol -->
<g id="edge82" class="edge">
<title>opentheory&#45;&gt;hol</title>
<path fill="none" stroke="black" d="M369.05,-1585C468.49,-1578.59 705.69,-1563.27 797.85,-1557.33"/>
<polygon fill="black" stroke="black" points="797.85,-1560.83 807.6,-1556.7 797.4,-1553.85 797.85,-1560.83"/>
</g>
<!-- parquet -->
<g id="node32" class="node">
<title>parquet</title>
<polygon fill="none" stroke="black" points="472,-696.9 405,-696.9 405,-660.9 472,-660.9 472,-696.9"/>
<text text-anchor="middle" x="438.5" y="-674.6" font-family="sans-serif" font-size="14.00">parquet</text>
</g>
<!-- parquet&#45;&gt;arrow -->
<g id="edge83" class="edge">
<title>parquet&#45;&gt;arrow</title>
<path fill="none" stroke="black" d="M472.42,-678.9C486.2,-678.9 502.29,-678.9 516.55,-678.9"/>
<polygon fill="black" stroke="black" points="516.5,-682.4 526.5,-678.9 516.5,-675.4 516.5,-682.4"/>
</g>
<!-- proptest -->
<g id="node34" class="node">
<title>proptest</title>
<polygon fill="none" stroke="black" points="95.88,-1087.9 25.12,-1087.9 25.12,-1051.9 95.88,-1051.9 95.88,-1087.9"/>
<text text-anchor="middle" x="60.5" y="-1065.6" font-family="sans-serif" font-size="14.00">proptest</text>
</g>
<!-- pure&#45;trusted -->
<g id="node38" class="node">
<title>pure&#45;trusted</title>
<polygon fill="#ffd6d6" stroke="black" points="1355.5,-1648.9 1256.25,-1648.9 1256.25,-1612.9 1355.5,-1612.9 1355.5,-1648.9"/>
<text text-anchor="middle" x="1305.88" y="-1626.6" font-family="sans-serif" font-size="14.00">pure&#45;trusted</text>
</g>
<!-- pure&#45;&gt;pure&#45;trusted -->
<g id="edge84" class="edge">
<title>pure&#45;&gt;pure&#45;trusted</title>
<path fill="none" stroke="black" d="M1220.75,-1630.9C1228.04,-1630.9 1236.27,-1630.9 1244.64,-1630.9"/>
<polygon fill="black" stroke="black" points="1244.57,-1634.4 1254.57,-1630.9 1244.57,-1627.4 1244.57,-1634.4"/>
</g>
<!-- pure&#45;eval&#45;&gt;pure -->
<g id="edge85" class="edge">
<title>pure&#45;eval&#45;&gt;pure</title>
<path fill="none" stroke="black" d="M1130.66,-1630.9C1138.53,-1630.9 1146.77,-1630.9 1154.57,-1630.9"/>
<polygon fill="black" stroke="black" points="1154.47,-1634.4 1164.47,-1630.9 1154.47,-1627.4 1154.47,-1634.4"/>
</g>
<!-- pure&#45;eval&#45;&gt;types -->
<g id="edge86" class="edge">
<title>pure&#45;eval&#45;&gt;types</title>
<path fill="none" stroke="black" d="M1130.71,-1615.69C1142.08,-1611.58 1154.58,-1607.32 1166.25,-1603.9 1168.85,-1603.14 1311.38,-1570.9 1380.58,-1555.25"/>
<polygon fill="black" stroke="black" points="1380.96,-1558.75 1389.94,-1553.13 1379.42,-1551.92 1380.96,-1558.75"/>
</g>
<!-- pure&#45;trusted&#45;&gt;types -->
<g id="edge87" class="edge">
<title>pure&#45;trusted&#45;&gt;types</title>
<path fill="none" stroke="black" d="M1336.05,-1612.49C1342.55,-1608.17 1349.34,-1603.49 1355.5,-1598.9 1366.48,-1590.73 1378.09,-1581.24 1388.25,-1572.63"/>
<polygon fill="black" stroke="black" points="1390.29,-1575.49 1395.61,-1566.32 1385.74,-1570.17 1390.29,-1575.49"/>
</g>
<!-- python -->
<g id="node39" class="node">
<title>python</title>
<polygon fill="none" stroke="black" points="91.38,-400.9 29.62,-400.9 29.62,-364.9 91.38,-364.9 91.38,-400.9"/>
<text text-anchor="middle" x="60.5" y="-378.6" font-family="sans-serif" font-size="14.00">python</text>
</g>
<!-- python&#45;&gt;crypto&#45;sig -->
<g id="edge88" class="edge">
<title>python&#45;&gt;crypto&#45;sig</title>
<path fill="none" stroke="black" d="M63.61,-364.59C70.02,-315.49 92.89,-178.47 157,-86.9 158.43,-84.86 160.04,-82.88 161.76,-80.98"/>
<polygon fill="black" stroke="black" points="164,-83.68 168.78,-74.23 159.15,-78.63 164,-83.68"/>
</g>
<!-- python&#45;&gt;git -->
<g id="edge89" class="edge">
<title>python&#45;&gt;git</title>
<path fill="none" stroke="black" d="M91.85,-377.6C149.94,-369.05 279.02,-357.96 369,-408.9 395.15,-423.71 413.94,-453.09 425.15,-475.28"/>
<polygon fill="black" stroke="black" points="421.92,-476.62 429.39,-484.13 428.23,-473.6 421.92,-476.62"/>
</g>
<!-- python&#45;&gt;graph -->
<g id="edge90" class="edge">
<title>python&#45;&gt;graph</title>
<path fill="none" stroke="black" d="M91.44,-385.95C149.93,-393.17 281.3,-415.85 369,-479.9 391.4,-496.27 388.51,-508.59 405,-530.9 408.54,-535.69 412.36,-540.74 416.1,-545.61"/>
<polygon fill="black" stroke="black" points="413.27,-547.67 422.16,-553.44 418.81,-543.39 413.27,-547.67"/>
</g>
<!-- python&#45;&gt;hash -->
<g id="edge91" class="edge">
<title>python&#45;&gt;hash</title>
<path fill="none" stroke="black" d="M91.75,-375.3C148.05,-362.6 272,-341.48 369,-373.9 486.99,-413.34 510.82,-444.08 602.75,-527.9 621.68,-545.16 618.44,-557.3 638.75,-572.9 674.65,-600.49 696.54,-585.75 732,-613.9 770.59,-644.54 802.29,-692.83 820.01,-723.4"/>
<polygon fill="black" stroke="black" points="816.96,-725.13 824.93,-732.11 823.05,-721.68 816.96,-725.13"/>
</g>
<!-- python&#45;&gt;kv -->
<g id="edge92" class="edge">
<title>python&#45;&gt;kv</title>
<path fill="none" stroke="black" d="M69.23,-364.49C83.36,-332.2 115.76,-264.32 157,-216.9 159.06,-214.54 161.32,-212.22 163.68,-209.99"/>
<polygon fill="black" stroke="black" points="165.59,-212.96 170.84,-203.76 161,-207.68 165.59,-212.96"/>
</g>
<!-- python&#45;&gt;llm -->
<g id="edge93" class="edge">
<title>python&#45;&gt;llm</title>
<path fill="none" stroke="black" d="M91.48,-401.34C112.33,-414.15 140.21,-431.3 162.24,-444.84"/>
<polygon fill="black" stroke="black" points="160.26,-447.73 170.61,-449.99 163.92,-441.77 160.26,-447.73"/>
</g>
<!-- python&#45;&gt;object -->
<g id="edge94" class="edge">
<title>python&#45;&gt;object</title>
<path fill="none" stroke="black" d="M68.62,-401.36C102.06,-484.95 252.7,-828.36 508,-931.9 552.55,-949.97 608.68,-942.53 645.5,-934.05"/>
<polygon fill="black" stroke="black" points="645.93,-937.55 654.81,-931.78 644.26,-930.75 645.93,-937.55"/>
</g>
<!-- python&#45;&gt;repl -->
<g id="edge95" class="edge">
<title>python&#45;&gt;repl</title>
<path fill="none" stroke="black" d="M76.95,-401.06C95.75,-423.12 128.52,-461.4 157,-493.9 206.7,-550.62 265.69,-616.33 297.99,-652.17"/>
<polygon fill="black" stroke="black" points="295.3,-654.41 304.59,-659.5 300.5,-649.73 295.3,-654.41"/>
</g>
<!-- sat -->
<g id="node42" class="node">
<title>sat</title>
<polygon fill="none" stroke="black" points="863.38,-426.9 809.38,-426.9 809.38,-390.9 863.38,-390.9 863.38,-426.9"/>
<text text-anchor="middle" x="836.38" y="-404.6" font-family="sans-serif" font-size="14.00">sat</text>
</g>
<!-- python&#45;&gt;sat -->
<g id="edge96" class="edge">
<title>python&#45;&gt;sat</title>
<path fill="none" stroke="black" d="M90.21,-364.62C108.68,-353.53 133.54,-339.85 157,-330.9 344.45,-259.45 404.95,-226.46 602.75,-259.9 632.74,-264.97 706.56,-288.23 732,-304.9 751.73,-317.84 751.5,-327.04 768,-343.9 780.74,-356.93 795.25,-371.02 807.53,-382.73"/>
<polygon fill="black" stroke="black" points="804.87,-385.03 814.53,-389.38 809.69,-379.96 804.87,-385.03"/>
</g>
<!-- python&#45;&gt;serve -->
<g id="edge97" class="edge">
<title>python&#45;&gt;serve</title>
<path fill="none" stroke="black" d="M66.06,-401.09C79.3,-453.57 119.17,-609.66 157,-737.9 167.08,-772.07 179.76,-811 188.35,-836.86"/>
<polygon fill="black" stroke="black" points="185.03,-837.95 191.51,-846.32 191.67,-835.73 185.03,-837.95"/>
</g>
<!-- python&#45;&gt;sexp -->
<g id="edge98" class="edge">
<title>python&#45;&gt;sexp</title>
<path fill="none" stroke="black" d="M62.95,-401.19C69.68,-482.37 99.97,-809.81 157,-892.9 181.9,-929.18 208.91,-915.07 241.25,-944.9 261.11,-963.23 254.65,-979.09 277.25,-993.9 325.94,-1025.82 347.28,-1015.26 405,-1022.9 625.37,-1052.08 684.32,-1014.19 904.75,-1042.9 916.04,-1044.37 928.17,-1046.76 939.2,-1049.24"/>
<polygon fill="black" stroke="black" points="938.19,-1052.6 948.73,-1051.49 939.8,-1045.79 938.19,-1052.6"/>
</g>
<!-- python&#45;&gt;shell -->
<g id="edge99" class="edge">
<title>python&#45;&gt;shell</title>
<path fill="none" stroke="black" d="M62.72,-401.31C67.85,-472.76 90.59,-738.07 157,-944.9 194.33,-1061.15 193.27,-1103.27 277.25,-1191.9 311.96,-1228.54 365.17,-1253.94 400.63,-1267.97"/>
<polygon fill="black" stroke="black" points="399.02,-1271.1 409.61,-1271.41 401.53,-1264.56 399.02,-1271.1"/>
</g>
<!-- python&#45;&gt;store -->
<g id="edge100" class="edge">
<title>python&#45;&gt;store</title>
<path fill="none" stroke="black" d="M63.21,-364.6C68.38,-320.74 88.01,-209.49 157,-157.9 216.17,-113.67 248.25,-138.9 322.12,-138.9 322.12,-138.9 322.12,-138.9 439.5,-138.9 524.59,-138.9 537.67,-184.09 602.75,-238.9 626.05,-258.53 648.58,-284.95 664.05,-304.61"/>
<polygon fill="black" stroke="black" points="661.23,-306.69 670.12,-312.46 666.77,-302.41 661.23,-306.69"/>
</g>
<!-- python&#45;&gt;wasm -->
<g id="edge101" class="edge">
<title>python&#45;&gt;wasm</title>
<path fill="none" stroke="black" d="M63.7,-364.76C72.1,-298.82 104.3,-73.32 157,-27.9 212.96,20.32 248.25,-8.9 322.12,-8.9 322.12,-8.9 322.12,-8.9 686.38,-8.9 785.21,-8.9 824.18,6.34 904.75,-50.9 937.52,-74.19 957.55,-117.47 967.88,-146.23"/>
<polygon fill="black" stroke="black" points="964.46,-147.06 970.99,-155.41 971.09,-144.81 964.46,-147.06"/>
</g>
<!-- wasm&#45;store -->
<g id="node55" class="node">
<title>wasm&#45;store</title>
<polygon fill="none" stroke="black" points="602.75,-110.9 508,-110.9 508,-74.9 602.75,-74.9 602.75,-110.9"/>
<text text-anchor="middle" x="555.38" y="-88.6" font-family="sans-serif" font-size="14.00">wasm&#45;store</text>
</g>
<!-- python&#45;&gt;wasm&#45;store -->
<g id="edge102" class="edge">
<title>python&#45;&gt;wasm&#45;store</title>
<path fill="none" stroke="black" d="M62,-364.73C64.39,-316.44 78.19,-184.6 157,-124.9 256.42,-49.59 412.79,-64.45 496.66,-79.86"/>
<polygon fill="black" stroke="black" points="495.79,-83.25 506.27,-81.69 497.1,-76.38 495.79,-83.25"/>
</g>
<!-- repl&#45;&gt;arrow -->
<g id="edge103" class="edge">
<title>repl&#45;&gt;arrow</title>
<path fill="none" stroke="black" d="M350.54,-690.12C366.08,-696.11 386.3,-702.86 405,-705.9 434.39,-710.68 442.59,-710.6 472,-705.9 487.24,-703.47 503.5,-698.65 517.5,-693.75"/>
<polygon fill="black" stroke="black" points="518.58,-697.08 526.77,-690.36 516.18,-690.51 518.58,-697.08"/>
</g>
<!-- repl&#45;&gt;forsp -->
<g id="edge104" class="edge">
<title>repl&#45;&gt;forsp</title>
<path fill="none" stroke="black" d="M350.4,-694.71C365.89,-703.56 386.11,-714.31 405,-721.9 488.88,-755.61 592.34,-780.86 646.79,-792.96"/>
<polygon fill="black" stroke="black" points="645.96,-796.36 656.47,-795.09 647.46,-789.53 645.96,-796.36"/>
</g>
<!-- repl&#45;&gt;git -->
<g id="edge105" class="edge">
<title>repl&#45;&gt;git</title>
<path fill="none" stroke="black" d="M350.16,-663.73C357.02,-658.75 363.91,-652.72 369,-645.9 397.25,-608.05 382.27,-587.31 405,-545.9 407.69,-541.01 410.92,-536.08 414.29,-531.41"/>
<polygon fill="black" stroke="black" points="417.07,-533.54 420.36,-523.47 411.51,-529.29 417.07,-533.54"/>
</g>
<!-- repl&#45;&gt;graph -->
<g id="edge106" class="edge">
<title>repl&#45;&gt;graph</title>
<path fill="none" stroke="black" d="M350.39,-660.84C356.66,-656.19 363.21,-651.04 369,-645.9 385.15,-631.58 401.76,-613.97 414.57,-599.63"/>
<polygon fill="black" stroke="black" points="417.03,-602.14 421.02,-592.32 411.78,-597.5 417.03,-602.14"/>
</g>
<!-- repl&#45;&gt;hash -->
<g id="edge107" class="edge">
<title>repl&#45;&gt;hash</title>
<path fill="none" stroke="black" d="M350.39,-668.22C401.38,-649.19 516.36,-614.75 602.75,-651.9 624.12,-661.1 619.03,-677.57 638.75,-689.9 688.99,-721.33 756.48,-738.04 797.9,-745.92"/>
<polygon fill="black" stroke="black" points="797.15,-749.34 807.62,-747.69 798.4,-742.46 797.15,-749.34"/>
</g>
<!-- repl&#45;&gt;init -->
<g id="edge108" class="edge">
<title>repl&#45;&gt;init</title>
<path fill="none" stroke="black" d="M324.1,-697.34C325.03,-777.53 339.49,-1099.54 508,-1269.9 527.61,-1289.73 601.51,-1308.84 647.2,-1319.11"/>
<polygon fill="black" stroke="black" points="646.16,-1322.47 656.68,-1321.2 647.67,-1315.63 646.16,-1322.47"/>
</g>
<!-- repl&#45;&gt;object -->
<g id="edge109" class="edge">
<title>repl&#45;&gt;object</title>
<path fill="none" stroke="black" d="M350.45,-695.47C356.85,-700.08 363.45,-705.36 369,-710.9 444.25,-786.17 415.84,-852.67 508,-905.9 550.13,-930.24 607.51,-930.99 645.23,-928.02"/>
<polygon fill="black" stroke="black" points="645.12,-931.54 654.76,-927.14 644.48,-924.57 645.12,-931.54"/>
</g>
<!-- repl&#45;&gt;parquet -->
<g id="edge110" class="edge">
<title>repl&#45;&gt;parquet</title>
<path fill="none" stroke="black" d="M350.42,-678.9C363.22,-678.9 378.96,-678.9 393.52,-678.9"/>
<polygon fill="black" stroke="black" points="393.35,-682.4 403.35,-678.9 393.35,-675.4 393.35,-682.4"/>
</g>
<!-- repl&#45;&gt;shell -->
<g id="edge111" class="edge">
<title>repl&#45;&gt;shell</title>
<path fill="none" stroke="black" d="M326.02,-697.24C335.62,-789.26 379.46,-1198.26 405,-1248.9 405.86,-1250.61 406.84,-1252.27 407.92,-1253.89"/>
<polygon fill="black" stroke="black" points="404.98,-1255.82 413.97,-1261.43 410.44,-1251.44 404.98,-1255.82"/>
</g>
<!-- repl&#45;&gt;wasm -->
<g id="edge112" class="edge">
<title>repl&#45;&gt;wasm</title>
<path fill="none" stroke="black" d="M336.09,-660.69C345.95,-645.07 359.77,-621.69 369,-599.9 391.22,-547.45 377.46,-526.76 405,-476.9 480.78,-339.73 499.67,-285.14 638.75,-212.9 690.21,-186.17 861.72,-178.09 938.68,-175.78"/>
<polygon fill="black" stroke="black" points="938.78,-179.27 948.67,-175.49 938.58,-172.28 938.78,-179.27"/>
</g>
<!-- sat&#45;&gt;parse -->
<g id="edge113" class="edge">
<title>sat&#45;&gt;parse</title>
<path fill="none" stroke="black" d="M863.69,-408.38C902,-409.09 973.05,-416.16 1014.5,-455.9 1073.95,-512.92 1086.46,-616.16 1088.92,-666.99"/>
<polygon fill="black" stroke="black" points="1085.42,-667.06 1089.28,-676.93 1092.41,-666.81 1085.42,-667.06"/>
</g>
<!-- sat&#45;&gt;types -->
<g id="edge114" class="edge">
<title>sat&#45;&gt;types</title>
<path fill="none" stroke="black" d="M863.83,-406.29C909.7,-401.99 1006.98,-393.9 1089.38,-393.9 1089.38,-393.9 1089.38,-393.9 1194.25,-393.9 1312.28,-393.9 1399.45,-1337.27 1415.01,-1517.39"/>
<polygon fill="black" stroke="black" points="1411.52,-1517.62 1415.86,-1527.28 1418.49,-1517.02 1411.52,-1517.62"/>
</g>
<!-- sat&#45;&gt;wasm -->
<g id="edge115" class="edge">
<title>sat&#45;&gt;wasm</title>
<path fill="none" stroke="black" d="M863.72,-401.78C877.58,-396.83 893.9,-388.92 904.75,-376.9 949.7,-327.14 966.98,-247.39 973.27,-204.5"/>
<polygon fill="black" stroke="black" points="976.73,-205.06 974.6,-194.68 969.79,-204.12 976.73,-205.06"/>
</g>
<!-- serve&#45;&gt;core -->
<g id="edge116" class="edge">
<title>serve&#45;&gt;core</title>
<path fill="none" stroke="black" d="M199.96,-884.26C200.18,-942.41 206.77,-1126.3 277.25,-1254.9 345.5,-1379.43 394.05,-1391.17 508,-1475.9 608.14,-1550.37 644.24,-1565.91 768,-1581.9 827.31,-1589.57 896.89,-1588.6 938.82,-1586.94"/>
<polygon fill="black" stroke="black" points="938.79,-1590.44 948.63,-1586.51 938.49,-1583.45 938.79,-1590.44"/>
</g>
<!-- serve&#45;&gt;git -->
<g id="edge117" class="edge">
<title>serve&#45;&gt;git</title>
<path fill="none" stroke="black" d="M209.44,-847.62C218.35,-829.67 231.8,-801.35 241.25,-775.9 261.23,-722.11 240.72,-696.16 277.25,-651.9 306.41,-616.57 335.42,-636.07 369,-604.9 391.51,-584.01 387.57,-571.2 405,-545.9 408.31,-541.09 411.98,-536.09 415.62,-531.28"/>
<polygon fill="black" stroke="black" points="418.22,-533.64 421.56,-523.59 412.68,-529.36 418.22,-533.64"/>
</g>
<!-- serve&#45;&gt;hash -->
<g id="edge118" class="edge">
<title>serve&#45;&gt;hash</title>
<path fill="none" stroke="black" d="M226.17,-859.53C293.82,-843.18 480.88,-799.23 638.75,-773.9 693.89,-765.06 758.29,-758.57 797.95,-755.02"/>
<polygon fill="black" stroke="black" points="798.02,-758.53 807.68,-754.17 797.41,-751.56 798.02,-758.53"/>
</g>
<!-- serve&#45;&gt;init -->
<g id="edge119" class="edge">
<title>serve&#45;&gt;init</title>
<path fill="none" stroke="black" d="M200.72,-884.25C203.17,-936.18 215.49,-1087.21 277.25,-1191.9 316.21,-1257.96 334.44,-1277.86 405,-1307.9 485.63,-1342.24 591.24,-1337.64 646.67,-1331.91"/>
<polygon fill="black" stroke="black" points="646.97,-1335.4 656.52,-1330.82 646.2,-1328.44 646.97,-1335.4"/>
</g>
<!-- serve&#45;&gt;metamath -->
<g id="edge120" class="edge">
<title>serve&#45;&gt;metamath</title>
<path fill="none" stroke="black" d="M214.76,-884.05C236.84,-911.43 276.25,-960.2 277.25,-960.9 326.46,-995.32 345.87,-994.42 405,-1004.9 540.94,-1029.02 704.25,-1002.85 785.03,-986.31"/>
<polygon fill="black" stroke="black" points="785.32,-989.83 794.39,-984.36 783.88,-982.98 785.32,-989.83"/>
</g>
<!-- serve&#45;&gt;object -->
<g id="edge121" class="edge">
<title>serve&#45;&gt;object</title>
<path fill="none" stroke="black" d="M222.93,-884.33C258.99,-912.15 332.55,-963.67 405,-982.9 489.95,-1005.45 519.62,-1011.43 602.75,-982.9 621.92,-976.33 622.45,-966.95 638.75,-954.9 641.88,-952.59 645.15,-950.22 648.44,-947.85"/>
<polygon fill="black" stroke="black" points="650.32,-950.82 656.44,-942.17 646.26,-945.11 650.32,-950.82"/>
</g>
<!-- serve&#45;&gt;proto -->
<g id="edge122" class="edge">
<title>serve&#45;&gt;proto</title>
<path fill="none" stroke="black" d="M204.66,-847.59C219.46,-788.06 266.01,-602.38 277.25,-576.9 283.73,-562.21 293.06,-547.07 301.53,-534.64"/>
<polygon fill="black" stroke="black" points="304.32,-536.75 307.2,-526.56 298.59,-532.73 304.32,-536.75"/>
</g>
<!-- serve&#45;&gt;repl -->
<g id="edge123" class="edge">
<title>serve&#45;&gt;repl</title>
<path fill="none" stroke="black" d="M220.8,-847.43C227.84,-840.5 235.39,-832.26 241.25,-823.9 262.47,-793.62 259.24,-781.19 277.25,-748.9 285.18,-734.68 294.84,-719.39 303.16,-706.75"/>
<polygon fill="black" stroke="black" points="306.02,-708.77 308.65,-698.5 300.2,-704.89 306.02,-708.77"/>
</g>
<!-- serve&#45;&gt;shell -->
<g id="edge124" class="edge">
<title>serve&#45;&gt;shell</title>
<path fill="none" stroke="black" d="M199.92,-884.26C200.31,-933.95 207.92,-1072.96 277.25,-1155.9 306.13,-1190.46 334.34,-1170.15 369,-1198.9 390.08,-1216.39 387.18,-1228.11 405,-1248.9 406.59,-1250.76 408.27,-1252.63 410,-1254.49"/>
<polygon fill="black" stroke="black" points="407.18,-1256.62 416.65,-1261.38 412.22,-1251.76 407.18,-1256.62"/>
</g>
<!-- serve&#45;&gt;store -->
<g id="edge125" class="edge">
<title>serve&#45;&gt;store</title>
<path fill="none" stroke="black" d="M210.03,-847.43C219.26,-829.57 232.82,-801.52 241.25,-775.9 265.54,-702.13 227.64,-664.66 277.25,-604.9 305.44,-570.94 337.98,-598.3 369,-566.9 399.28,-536.26 380.09,-512.05 405,-476.9 440.15,-427.31 454.95,-416.59 508,-386.9 552.45,-362.03 609.63,-346.85 646.64,-338.91"/>
<polygon fill="black" stroke="black" points="647.33,-342.34 656.42,-336.89 645.92,-335.48 647.33,-342.34"/>
</g>
<!-- sexp&#45;&gt;parse -->
<g id="edge126" class="edge">
<title>sexp&#45;&gt;parse</title>
<path fill="none" stroke="black" d="M984.27,-1040.45C1002.27,-981.63 1058.39,-798.17 1080.4,-726.25"/>
<polygon fill="black" stroke="black" points="1083.72,-727.35 1083.3,-716.76 1077.03,-725.3 1083.72,-727.35"/>
</g>
<!-- shell&#45;&gt;hol -->
<g id="edge127" class="edge">
<title>shell&#45;&gt;hol</title>
<path fill="none" stroke="black" d="M442.47,-1299.26C448.7,-1331.84 466.17,-1399.92 508,-1437.9 585.52,-1508.29 633.96,-1474.14 732,-1510.9 754.5,-1519.34 779.28,-1529.85 798.94,-1538.48"/>
<polygon fill="black" stroke="black" points="797.34,-1541.6 807.9,-1542.44 800.17,-1535.19 797.34,-1541.6"/>
</g>
<!-- shell&#45;&gt;kernel -->
<g id="edge128" class="edge">
<title>shell&#45;&gt;kernel</title>
<path fill="none" stroke="black" d="M465.85,-1272.19C480.6,-1267.31 499.26,-1261.14 515.64,-1255.72"/>
<polygon fill="black" stroke="black" points="516.71,-1259.05 525.1,-1252.59 514.51,-1252.4 516.71,-1259.05"/>
</g>
<!-- smt&#45;&gt;sat -->
<g id="edge129" class="edge">
<title>smt&#45;&gt;sat</title>
<path fill="none" stroke="black" d="M690.33,-1186.44C699.15,-1144.58 720.56,-1039.12 732,-949.9 745.07,-847.98 729.03,-583.99 768,-488.9 776.35,-468.54 791.89,-449.52 805.95,-435.15"/>
<polygon fill="black" stroke="black" points="808.23,-437.81 812.91,-428.3 803.33,-432.82 808.23,-437.81"/>
</g>
<!-- smt&#45;&gt;sexp -->
<g id="edge130" class="edge">
<title>smt&#45;&gt;sexp</title>
<path fill="none" stroke="black" d="M712.73,-1188.78C719.39,-1184.09 726.27,-1178.67 732,-1172.9 751.82,-1152.97 745.24,-1137.4 768,-1120.9 795.45,-1101.01 886.91,-1078.55 939.16,-1066.89"/>
<polygon fill="black" stroke="black" points="939.81,-1070.33 948.83,-1064.76 938.31,-1063.49 939.81,-1070.33"/>
</g>
<!-- smt&#45;&gt;types -->
<g id="edge131" class="edge">
<title>smt&#45;&gt;types</title>
<path fill="none" stroke="black" d="M712.55,-1221.22C728.08,-1230.08 748.48,-1240.33 768,-1245.9 857.53,-1271.47 883.52,-1264.9 976.62,-1264.9 976.62,-1264.9 976.62,-1264.9 1194.25,-1264.9 1269.42,-1264.9 1303.53,-1261.59 1355.5,-1315.9 1408.96,-1371.77 1417.45,-1468.59 1418.11,-1517.22"/>
<polygon fill="black" stroke="black" points="1414.61,-1516.99 1418.13,-1526.98 1421.61,-1516.97 1414.61,-1516.99"/>
</g>
<!-- spectec&#45;&gt;grammar -->
<g id="edge132" class="edge">
<title>spectec&#45;&gt;grammar</title>
<path fill="none" stroke="black" d="M871.44,-1353.55C888.86,-1355.93 910.33,-1358.86 929.33,-1361.45"/>
<polygon fill="black" stroke="black" points="928.6,-1364.88 938.98,-1362.77 929.54,-1357.95 928.6,-1364.88"/>
</g>
<!-- store&#45;&gt;hash -->
<g id="edge133" class="edge">
<title>store&#45;&gt;hash</title>
<path fill="none" stroke="black" d="M702.68,-350.16C712.77,-362.5 725.08,-379.63 732,-396.9 771.79,-496.21 732.7,-533.92 768,-634.9 779.39,-667.48 799.96,-701.28 815.38,-724.12"/>
<polygon fill="black" stroke="black" points="812.43,-726.01 820.99,-732.26 818.2,-722.04 812.43,-726.01"/>
</g>
<!-- store&#45;&gt;json -->
<g id="edge134" class="edge">
<title>store&#45;&gt;json</title>
<path fill="none" stroke="black" d="M712.67,-315.67C736.75,-300.8 772.59,-278.67 799.33,-262.16"/>
<polygon fill="black" stroke="black" points="801.13,-265.16 807.8,-256.93 797.46,-259.2 801.13,-265.16"/>
</g>
<!-- store&#45;&gt;sqlite -->
<g id="edge135" class="edge">
<title>store&#45;&gt;sqlite</title>
<path fill="none" stroke="black" d="M712.67,-329.26C736.32,-326.88 771.33,-323.35 797.91,-320.68"/>
<polygon fill="black" stroke="black" points="797.99,-324.19 807.59,-319.7 797.29,-317.22 797.99,-324.19"/>
</g>
<!-- tcb&#45;db -->
<g id="node50" class="node">
<title>tcb&#45;db</title>
<polygon fill="none" stroke="black" points="715.5,-257.9 655.25,-257.9 655.25,-221.9 715.5,-221.9 715.5,-257.9"/>
<text text-anchor="middle" x="685.38" y="-235.6" font-family="sans-serif" font-size="14.00">tcb&#45;db</text>
</g>
<!-- tcb&#45;db&#45;&gt;json -->
<g id="edge136" class="edge">
<title>tcb&#45;db&#45;&gt;json</title>
<path fill="none" stroke="black" d="M715.81,-239.9C739.24,-239.9 772.19,-239.9 797.57,-239.9"/>
<polygon fill="black" stroke="black" points="797.48,-243.4 807.48,-239.9 797.48,-236.4 797.48,-243.4"/>
</g>
<!-- tcb&#45;db&#45;&gt;sqlite -->
<g id="edge137" class="edge">
<title>tcb&#45;db&#45;&gt;sqlite</title>
<path fill="none" stroke="black" d="M715.81,-255.12C739.67,-267.44 773.39,-284.87 798.94,-298.08"/>
<polygon fill="black" stroke="black" points="797.16,-301.09 807.65,-302.58 800.37,-294.88 797.16,-301.09"/>
</g>
<!-- wasm&#45;build&#45;guest -->
<g id="node53" class="node">
<title>wasm&#45;build&#45;guest</title>
<polygon fill="none" stroke="black" points="904.75,-127.9 768,-127.9 768,-91.9 904.75,-91.9 904.75,-127.9"/>
<text text-anchor="middle" x="836.38" y="-105.6" font-family="sans-serif" font-size="14.00">wasm&#45;build&#45;guest</text>
</g>
<!-- wasm&#45;build&#45;guest&#45;&gt;wasm -->
<g id="edge138" class="edge">
<title>wasm&#45;build&#45;guest&#45;&gt;wasm</title>
<path fill="none" stroke="black" d="M876.91,-128.36C896.72,-137.6 920.55,-148.73 939.95,-157.78"/>
<polygon fill="black" stroke="black" points="938.3,-160.88 948.85,-161.94 941.27,-154.54 938.3,-160.88"/>
</g>
<!-- wasm&#45;spec -->
<g id="node54" class="node">
<title>wasm&#45;spec</title>
<polygon fill="none" stroke="black" points="732,-441.9 638.75,-441.9 638.75,-405.9 732,-405.9 732,-441.9"/>
<text text-anchor="middle" x="685.38" y="-419.6" font-family="sans-serif" font-size="14.00">wasm&#45;spec</text>
</g>
<!-- wasm&#45;spec&#45;&gt;hash -->
<g id="edge139" class="edge">
<title>wasm&#45;spec&#45;&gt;hash</title>
<path fill="none" stroke="black" d="M702.15,-442.39C712.03,-454.81 724.29,-471.96 732,-488.9 759.67,-549.74 743.08,-572.89 768,-634.9 780.94,-667.11 801.46,-701.21 816.45,-724.23"/>
<polygon fill="black" stroke="black" points="813.43,-726.01 821.87,-732.42 819.27,-722.15 813.43,-726.01"/>
</g>
<!-- wasm&#45;spec&#45;&gt;wasm -->
<g id="edge140" class="edge">
<title>wasm&#45;spec&#45;&gt;wasm</title>
<path fill="none" stroke="black" d="M718.24,-405.59C733.05,-397.58 751.08,-388.53 768,-381.9 826.74,-358.91 857.32,-385.49 904.75,-343.9 946.5,-307.3 964.71,-242.29 972.08,-204.46"/>
<polygon fill="black" stroke="black" points="975.52,-205.15 973.85,-194.69 968.63,-203.91 975.52,-205.15"/>
</g>
<!-- wasm&#45;store&#45;&gt;json -->
<g id="edge141" class="edge">
<title>wasm&#45;store&#45;&gt;json</title>
<path fill="none" stroke="black" d="M591.43,-111.37C644.53,-139.35 744.87,-192.22 798.83,-220.65"/>
<polygon fill="black" stroke="black" points="797.16,-223.73 807.64,-225.29 800.43,-217.53 797.16,-223.73"/>
</g>
<!-- wasm&#45;store&#45;&gt;store -->
<g id="edge142" class="edge">
<title>wasm&#45;store&#45;&gt;store</title>
<path fill="none" stroke="black" d="M589.47,-111.23C594.49,-115.19 599.18,-119.76 602.75,-124.9 639.92,-178.36 611.6,-207.73 638.75,-266.9 644.75,-279.99 653.45,-293.21 661.64,-304.29"/>
<polygon fill="black" stroke="black" points="658.85,-306.4 667.71,-312.2 664.41,-302.14 658.85,-306.4"/>
</g>
<!-- wasm&#45;store&#45;&gt;wasm -->
<g id="edge143" class="edge">
<title>wasm&#45;store&#45;&gt;wasm</title>
<path fill="none" stroke="black" d="M603.21,-78.47C672.92,-59.77 806.32,-34.89 904.75,-82.9 931.68,-96.04 951.47,-124.68 963.39,-146.54"/>
<polygon fill="black" stroke="black" points="960.21,-148 967.91,-155.28 966.43,-144.79 960.21,-148"/>
</g>
<!-- web&#45;kernel -->
<g id="node56" class="node">
<title>web&#45;kernel</title>
<polygon fill="none" stroke="black" points="369,-1698.9 277.25,-1698.9 277.25,-1662.9 369,-1662.9 369,-1698.9"/>
<text text-anchor="middle" x="323.12" y="-1676.6" font-family="sans-serif" font-size="14.00">web&#45;kernel</text>
</g>
<!-- web&#45;kernel&#45;&gt;haskell -->
<g id="edge144" class="edge">
<title>web&#45;kernel&#45;&gt;haskell</title>
<path fill="none" stroke="black" d="M369.26,-1680.9C377.92,-1680.9 386.96,-1680.9 395.51,-1680.9"/>
<polygon fill="black" stroke="black" points="395.29,-1684.4 405.29,-1680.9 395.29,-1677.4 395.29,-1684.4"/>
</g>
<!-- web&#45;kernel&#45;&gt;hol&#45;api -->
<g id="edge145" class="edge">
<title>web&#45;kernel&#45;&gt;hol&#45;api</title>
<path fill="none" stroke="black" d="M369.35,-1698.2C380.83,-1701.98 393.24,-1705.55 405,-1707.9 440.79,-1715.08 482.24,-1717.69 512.38,-1718.59"/>
<polygon fill="black" stroke="black" points="512.16,-1722.09 522.24,-1718.83 512.32,-1715.09 512.16,-1722.09"/>
</g>
<!-- web&#45;kernel&#45;&gt;kernel -->
<g id="edge146" class="edge">
<title>web&#45;kernel&#45;&gt;kernel</title>
<path fill="none" stroke="black" d="M337.58,-1662.56C346.87,-1649.55 359.27,-1631.52 369,-1614.9 406.79,-1550.36 504.94,-1346.41 540.91,-1271.16"/>
<polygon fill="black" stroke="black" points="543.94,-1272.92 545.1,-1262.39 537.63,-1269.9 543.94,-1272.92"/>
</g>
</g>
</svg>
