<?xml version="1.0" encoding="UTF-8" standalone="no"?>
<!DOCTYPE svg PUBLIC "-//W3C//DTD SVG 1.1//EN"
 "http://www.w3.org/Graphics/SVG/1.1/DTD/svg11.dtd">
<!-- Generated by graphviz version 12.2.1 (0)
 -->
<!-- Title: deps Pages: 1 -->
<svg width="1531pt" height="2703pt"
 viewBox="0.00 0.00 1531.00 2702.68" xmlns="http://www.w3.org/2000/svg" xmlns:xlink="http://www.w3.org/1999/xlink">
<g id="graph0" class="graph" transform="scale(1 1) rotate(0) translate(4 2698.68)">
<title>deps</title>
<polygon fill="white" stroke="none" points="-4,4 -4,-2698.68 1527,-2698.68 1527,4 -4,4"/>
<!-- covalence -->
<g id="node1" class="node">
<title>covalence</title>
<polygon fill="none" stroke="black" points="102.62,-1726.1 18.38,-1726.1 18.38,-1690.1 102.62,-1690.1 102.62,-1726.1"/>
<text text-anchor="middle" x="60.5" y="-1703.8" font-family="sans-serif" font-size="14.00">covalence</text>
</g>
<!-- client -->
<g id="node5" class="node">
<title>client</title>
<polygon fill="none" stroke="black" points="350.12,-1722.1 296.12,-1722.1 296.12,-1686.1 350.12,-1686.1 350.12,-1722.1"/>
<text text-anchor="middle" x="323.12" y="-1699.8" font-family="sans-serif" font-size="14.00">client</text>
</g>
<!-- covalence&#45;&gt;client -->
<g id="edge1" class="edge">
<title>covalence&#45;&gt;client</title>
<path fill="none" stroke="black" d="M102.81,-1693.74C119.43,-1688.67 138.91,-1683.61 157,-1681.1 194.09,-1675.96 204.16,-1675.93 241.25,-1681.1 255.82,-1683.13 271.45,-1687.13 285.05,-1691.23"/>
<polygon fill="black" stroke="black" points="283.9,-1694.53 294.49,-1694.2 286,-1687.86 283.9,-1694.53"/>
</g>
<!-- fuse -->
<g id="node13" class="node">
<title>fuse</title>
<polygon fill="none" stroke="black" points="612.75,-2118.1 558.75,-2118.1 558.75,-2082.1 612.75,-2082.1 612.75,-2118.1"/>
<text text-anchor="middle" x="585.75" y="-2095.8" font-family="sans-serif" font-size="14.00">fuse</text>
</g>
<!-- covalence&#45;&gt;fuse -->
<g id="edge2" class="edge">
<title>covalence&#45;&gt;fuse</title>
<path fill="none" stroke="black" d="M62.71,-1726.56C66.9,-1775.86 84.73,-1912.27 157,-1992.1 184.57,-2022.55 203.9,-2013.01 241.25,-2030.1 314.21,-2063.48 326.65,-2088.81 405,-2106.1 453.28,-2116.76 510.62,-2111.94 547.32,-2106.71"/>
<polygon fill="black" stroke="black" points="547.62,-2110.2 556.98,-2105.24 546.57,-2103.28 547.62,-2110.2"/>
</g>
<!-- git -->
<g id="node14" class="node">
<title>git</title>
<polygon fill="none" stroke="black" points="477.5,-2213.1 423.5,-2213.1 423.5,-2177.1 477.5,-2177.1 477.5,-2213.1"/>
<text text-anchor="middle" x="450.5" y="-2190.8" font-family="sans-serif" font-size="14.00">git</text>
</g>
<!-- covalence&#45;&gt;git -->
<g id="edge3" class="edge">
<title>covalence&#45;&gt;git</title>
<path fill="none" stroke="black" d="M62.06,-1726.45C64.98,-1808.52 81.41,-2140.7 157,-2203.1 194.85,-2234.35 342.23,-2213.86 412.21,-2201.94"/>
<polygon fill="black" stroke="black" points="412.4,-2205.46 421.65,-2200.3 411.2,-2198.56 412.4,-2205.46"/>
</g>
<!-- hash -->
<g id="node17" class="node">
<title>hash</title>
<polygon fill="none" stroke="black" points="900.12,-2046.1 846.12,-2046.1 846.12,-2010.1 900.12,-2010.1 900.12,-2046.1"/>
<text text-anchor="middle" x="873.12" y="-2023.8" font-family="sans-serif" font-size="14.00">hash</text>
</g>
<!-- covalence&#45;&gt;hash -->
<g id="edge4" class="edge">
<title>covalence&#45;&gt;hash</title>
<path fill="none" stroke="black" d="M73.07,-1726.55C102.14,-1771.55 182.7,-1888.12 277.25,-1955.1 453.26,-2079.78 734.27,-2050.41 834.83,-2034.72"/>
<polygon fill="black" stroke="black" points="835.1,-2038.22 844.41,-2033.17 833.98,-2031.31 835.1,-2038.22"/>
</g>
<!-- hol -->
<g id="node19" class="node">
<title>hol</title>
<polygon fill="none" stroke="black" points="900.12,-618.1 846.12,-618.1 846.12,-582.1 900.12,-582.1 900.12,-618.1"/>
<text text-anchor="middle" x="873.12" y="-595.8" font-family="sans-serif" font-size="14.00">hol</text>
</g>
<!-- covalence&#45;&gt;hol -->
<g id="edge5" class="edge">
<title>covalence&#45;&gt;hol</title>
<path fill="none" stroke="black" d="M62.05,-1689.79C66.7,-1551.6 104.7,-678.1 322.12,-678.1 322.12,-678.1 322.12,-678.1 451.5,-678.1 595.32,-678.1 762.23,-633.47 835.01,-611.73"/>
<polygon fill="black" stroke="black" points="835.86,-615.13 844.42,-608.89 833.83,-608.43 835.86,-615.13"/>
</g>
<!-- init -->
<g id="node23" class="node">
<title>init</title>
<polygon fill="none" stroke="black" points="749.12,-970.1 695.12,-970.1 695.12,-934.1 749.12,-934.1 749.12,-970.1"/>
<text text-anchor="middle" x="722.12" y="-947.8" font-family="sans-serif" font-size="14.00">init</text>
</g>
<!-- covalence&#45;&gt;init -->
<g id="edge6" class="edge">
<title>covalence&#45;&gt;init</title>
<path fill="none" stroke="black" d="M64.39,-1689.78C81.9,-1582.08 177.75,-1036.1 322.12,-1036.1 322.12,-1036.1 322.12,-1036.1 451.5,-1036.1 537.52,-1036.1 558.34,-1018.61 639.5,-990.1 648.5,-986.94 667.47,-978.16 684.86,-969.83"/>
<polygon fill="black" stroke="black" points="685.98,-973.18 693.46,-965.68 682.94,-966.87 685.98,-973.18"/>
</g>
<!-- lsp -->
<g id="node35" class="node">
<title>lsp</title>
<polygon fill="none" stroke="black" points="900.12,-1718.1 846.12,-1718.1 846.12,-1682.1 900.12,-1682.1 900.12,-1718.1"/>
<text text-anchor="middle" x="873.12" y="-1695.8" font-family="sans-serif" font-size="14.00">lsp</text>
</g>
<!-- covalence&#45;&gt;lsp -->
<g id="edge7" class="edge">
<title>covalence&#45;&gt;lsp</title>
<path fill="none" stroke="black" d="M61.02,-1689.63C60.81,-1637.17 68.26,-1486.95 157,-1423.1 334.62,-1295.29 493.68,-1357.95 639.5,-1521.1 673.5,-1559.14 639.84,-1593.61 675.5,-1630.1 718.42,-1674.02 790.68,-1690.47 834.62,-1696.57"/>
<polygon fill="black" stroke="black" points="834.09,-1700.03 844.45,-1697.81 834.97,-1693.08 834.09,-1700.03"/>
</g>
<!-- object -->
<g id="node39" class="node">
<title>object</title>
<polygon fill="none" stroke="black" points="750.75,-1962.1 693.5,-1962.1 693.5,-1926.1 750.75,-1926.1 750.75,-1962.1"/>
<text text-anchor="middle" x="722.12" y="-1939.8" font-family="sans-serif" font-size="14.00">object</text>
</g>
<!-- covalence&#45;&gt;object -->
<g id="edge8" class="edge">
<title>covalence&#45;&gt;object</title>
<path fill="none" stroke="black" d="M101.99,-1689.69C118.66,-1683.06 138.4,-1676.4 157,-1673.1 193.87,-1666.56 203.81,-1672.52 241.25,-1673.1 421.94,-1675.93 511.18,-1627.86 639.5,-1755.1 679.34,-1794.61 651.6,-1825.34 675.5,-1876.1 682.14,-1890.21 691.47,-1904.71 699.96,-1916.68"/>
<polygon fill="black" stroke="black" points="696.91,-1918.44 705.63,-1924.45 702.56,-1914.31 696.91,-1918.44"/>
</g>
<!-- opentheory -->
<g id="node40" class="node">
<title>opentheory</title>
<polygon fill="none" stroke="black" points="496,-582.1 405,-582.1 405,-546.1 496,-546.1 496,-582.1"/>
<text text-anchor="middle" x="450.5" y="-559.8" font-family="sans-serif" font-size="14.00">opentheory</text>
</g>
<!-- covalence&#45;&gt;opentheory -->
<g id="edge9" class="edge">
<title>covalence&#45;&gt;opentheory</title>
<path fill="none" stroke="black" d="M61.99,-1689.87C65.68,-1557.64 90.91,-748.16 157,-664.1 213.83,-591.82 325.62,-571.5 393.33,-565.96"/>
<polygon fill="black" stroke="black" points="393.4,-569.47 403.12,-565.25 392.89,-562.48 393.4,-569.47"/>
</g>
<!-- proto -->
<g id="node45" class="node">
<title>proto</title>
<polygon fill="none" stroke="black" points="350.12,-2194.1 296.12,-2194.1 296.12,-2158.1 350.12,-2158.1 350.12,-2194.1"/>
<text text-anchor="middle" x="323.12" y="-2171.8" font-family="sans-serif" font-size="14.00">proto</text>
</g>
<!-- covalence&#45;&gt;proto -->
<g id="edge10" class="edge">
<title>covalence&#45;&gt;proto</title>
<path fill="none" stroke="black" d="M63.58,-1726.54C70.06,-1778.05 93.43,-1926.47 157,-2030.1 189.78,-2083.55 248.25,-2128.39 286.09,-2153.75"/>
<polygon fill="black" stroke="black" points="284.16,-2156.67 294.44,-2159.24 288.01,-2150.82 284.16,-2156.67"/>
</g>
<!-- repl -->
<g id="node51" class="node">
<title>repl</title>
<polygon fill="none" stroke="black" points="350.12,-1904.1 296.12,-1904.1 296.12,-1868.1 350.12,-1868.1 350.12,-1904.1"/>
<text text-anchor="middle" x="323.12" y="-1881.8" font-family="sans-serif" font-size="14.00">repl</text>
</g>
<!-- covalence&#45;&gt;repl -->
<g id="edge11" class="edge">
<title>covalence&#45;&gt;repl</title>
<path fill="none" stroke="black" d="M88.41,-1726.48C135.67,-1758.76 233.57,-1825.62 286.43,-1861.72"/>
<polygon fill="black" stroke="black" points="284.27,-1864.48 294.5,-1867.23 288.22,-1858.7 284.27,-1864.48"/>
</g>
<!-- serve -->
<g id="node54" class="node">
<title>serve</title>
<polygon fill="none" stroke="black" points="226.12,-1726.1 172.12,-1726.1 172.12,-1690.1 226.12,-1690.1 226.12,-1726.1"/>
<text text-anchor="middle" x="199.12" y="-1703.8" font-family="sans-serif" font-size="14.00">serve</text>
</g>
<!-- covalence&#45;&gt;serve -->
<g id="edge12" class="edge">
<title>covalence&#45;&gt;serve</title>
<path fill="none" stroke="black" d="M102.86,-1708.1C121.2,-1708.1 142.63,-1708.1 160.51,-1708.1"/>
<polygon fill="black" stroke="black" points="160.44,-1711.6 170.44,-1708.1 160.44,-1704.6 160.44,-1711.6"/>
</g>
<!-- shell -->
<g id="node58" class="node">
<title>shell</title>
<polygon fill="none" stroke="black" points="477.5,-1500.1 423.5,-1500.1 423.5,-1464.1 477.5,-1464.1 477.5,-1500.1"/>
<text text-anchor="middle" x="450.5" y="-1477.8" font-family="sans-serif" font-size="14.00">shell</text>
</g>
<!-- covalence&#45;&gt;shell -->
<g id="edge13" class="edge">
<title>covalence&#45;&gt;shell</title>
<path fill="none" stroke="black" d="M61.84,-1689.85C63.87,-1641.42 76.82,-1509.61 157,-1454.1 234.78,-1400.25 353.38,-1439.12 412.83,-1464.63"/>
<polygon fill="black" stroke="black" points="411.27,-1467.76 421.83,-1468.6 414.1,-1461.36 411.27,-1467.76"/>
</g>
<!-- store -->
<g id="node62" class="node">
<title>store</title>
<polygon fill="none" stroke="black" points="749.12,-2286.1 695.12,-2286.1 695.12,-2250.1 749.12,-2250.1 749.12,-2286.1"/>
<text text-anchor="middle" x="722.12" y="-2263.8" font-family="sans-serif" font-size="14.00">store</text>
</g>
<!-- covalence&#45;&gt;store -->
<g id="edge14" class="edge">
<title>covalence&#45;&gt;store</title>
<path fill="none" stroke="black" d="M62.18,-1726.38C65.65,-1809.75 84.25,-2152.96 157,-2225.1 277.17,-2344.26 363.41,-2276.38 532,-2291.1 579.6,-2295.26 592.17,-2297.64 639.5,-2291.1 654.2,-2289.07 669.97,-2285.07 683.7,-2280.97"/>
<polygon fill="black" stroke="black" points="684.73,-2284.32 693.24,-2278 682.65,-2277.64 684.73,-2284.32"/>
</g>
<!-- wasm -->
<g id="node65" class="node">
<title>wasm</title>
<polygon fill="none" stroke="black" points="1041.88,-2469.1 987.62,-2469.1 987.62,-2433.1 1041.88,-2433.1 1041.88,-2469.1"/>
<text text-anchor="middle" x="1014.75" y="-2446.8" font-family="sans-serif" font-size="14.00">wasm</text>
</g>
<!-- covalence&#45;&gt;wasm -->
<g id="edge15" class="edge">
<title>covalence&#45;&gt;wasm</title>
<path fill="none" stroke="black" d="M62.41,-1726.56C67,-1813.24 90.13,-2179.41 157,-2268.1 233.95,-2370.17 550.87,-2488.73 675.5,-2517.1 715.91,-2526.3 733.37,-2538.69 768.75,-2517.1 798.61,-2498.88 774.89,-2465.32 804.75,-2447.1 857.33,-2415.02 932.06,-2427.23 976.45,-2439.11"/>
<polygon fill="black" stroke="black" points="975.29,-2442.42 985.87,-2441.77 977.19,-2435.68 975.29,-2442.42"/>
</g>
<!-- acset -->
<g id="node2" class="node">
<title>acset</title>
<polygon fill="none" stroke="black" points="900.12,-1826.1 846.12,-1826.1 846.12,-1790.1 900.12,-1790.1 900.12,-1826.1"/>
<text text-anchor="middle" x="873.12" y="-1803.8" font-family="sans-serif" font-size="14.00">acset</text>
</g>
<!-- alethe -->
<g id="node3" class="node">
<title>alethe</title>
<polygon fill="none" stroke="black" points="614,-1230.1 557.5,-1230.1 557.5,-1194.1 614,-1194.1 614,-1230.1"/>
<text text-anchor="middle" x="585.75" y="-1207.8" font-family="sans-serif" font-size="14.00">alethe</text>
</g>
<!-- core -->
<g id="node7" class="node">
<title>core</title>
<polygon fill="#ffd6d6" stroke="black" points="1041.75,-618.1 987.75,-618.1 987.75,-582.1 1041.75,-582.1 1041.75,-618.1"/>
<text text-anchor="middle" x="1014.75" y="-595.8" font-family="sans-serif" font-size="14.00">core</text>
</g>
<!-- alethe&#45;&gt;core -->
<g id="edge16" class="edge">
<title>alethe&#45;&gt;core</title>
<path fill="none" stroke="black" d="M614.47,-1201.83C655.38,-1185.13 731.15,-1148.01 768.75,-1090.1 809.63,-1027.15 759.97,-985.34 804.75,-925.1 846.23,-869.29 898.16,-903.47 941.5,-849.1 994.12,-783.09 1008.42,-680.17 1012.3,-629.84"/>
<polygon fill="black" stroke="black" points="1015.78,-630.24 1012.96,-620.02 1008.8,-629.76 1015.78,-630.24"/>
</g>
<!-- hol&#45;eval -->
<g id="node21" class="node">
<title>hol&#45;eval</title>
<polygon fill="none" stroke="black" points="908.12,-840.1 838.12,-840.1 838.12,-804.1 908.12,-804.1 908.12,-840.1"/>
<text text-anchor="middle" x="873.12" y="-817.8" font-family="sans-serif" font-size="14.00">hol&#45;eval</text>
</g>
<!-- alethe&#45;&gt;hol&#45;eval -->
<g id="edge17" class="edge">
<title>alethe&#45;&gt;hol&#45;eval</title>
<path fill="none" stroke="black" d="M614.27,-1201.01C622.87,-1196.79 632.06,-1191.44 639.5,-1185.1 660.08,-1167.59 659.25,-1157.69 675.5,-1136.1 716.32,-1081.85 739.94,-1076.58 768.75,-1015.1 799.87,-948.71 759.01,-911.4 804.75,-854.1 810.79,-846.54 819.05,-840.66 827.71,-836.13"/>
<polygon fill="black" stroke="black" points="828.96,-839.41 836.58,-832.05 826.04,-833.05 828.96,-839.41"/>
</g>
<!-- alethe&#45;&gt;init -->
<g id="edge18" class="edge">
<title>alethe&#45;&gt;init</title>
<path fill="none" stroke="black" d="M614.35,-1203.09C623.48,-1198.9 632.96,-1193.04 639.5,-1185.1 676.26,-1140.48 656.22,-1114.6 675.5,-1060.1 685.15,-1032.81 698.16,-1002.51 707.82,-980.97"/>
<polygon fill="black" stroke="black" points="710.97,-982.5 711.9,-971.94 704.59,-979.61 710.97,-982.5"/>
</g>
<!-- sexp -->
<g id="node55" class="node">
<title>sexp</title>
<polygon fill="none" stroke="black" points="1041.75,-1390.1 987.75,-1390.1 987.75,-1354.1 1041.75,-1354.1 1041.75,-1390.1"/>
<text text-anchor="middle" x="1014.75" y="-1367.8" font-family="sans-serif" font-size="14.00">sexp</text>
</g>
<!-- alethe&#45;&gt;sexp -->
<g id="edge19" class="edge">
<title>alethe&#45;&gt;sexp</title>
<path fill="none" stroke="black" d="M614.47,-1226.01C655.4,-1246.22 734.73,-1284.11 804.75,-1310.1 863.62,-1331.95 933.96,-1351.52 976.18,-1362.59"/>
<polygon fill="black" stroke="black" points="975.29,-1365.97 985.85,-1365.1 977.05,-1359.2 975.29,-1365.97"/>
</g>
<!-- smt -->
<g id="node59" class="node">
<title>smt</title>
<polygon fill="none" stroke="black" points="749.12,-1588.1 695.12,-1588.1 695.12,-1552.1 749.12,-1552.1 749.12,-1588.1"/>
<text text-anchor="middle" x="722.12" y="-1565.8" font-family="sans-serif" font-size="14.00">smt</text>
</g>
<!-- alethe&#45;&gt;smt -->
<g id="edge20" class="edge">
<title>alethe&#45;&gt;smt</title>
<path fill="none" stroke="black" d="M603.59,-1230.44C615.14,-1243.87 630.02,-1263.02 639.5,-1282.1 683.56,-1370.81 707.26,-1487.06 716.49,-1540.67"/>
<polygon fill="black" stroke="black" points="712.99,-1540.95 718.09,-1550.23 719.89,-1539.79 712.99,-1540.95"/>
</g>
<!-- types -->
<g id="node64" class="node">
<title>types</title>
<polygon fill="#ffd6d6" stroke="black" points="1523,-924.1 1469,-924.1 1469,-888.1 1523,-888.1 1523,-924.1"/>
<text text-anchor="middle" x="1496" y="-901.8" font-family="sans-serif" font-size="14.00">types</text>
</g>
<!-- alethe&#45;&gt;types -->
<g id="edge21" class="edge">
<title>alethe&#45;&gt;types</title>
<path fill="none" stroke="black" d="M614.5,-1201.68C672.13,-1180.06 799.88,-1132.21 804.75,-1131.1 895.71,-1110.45 920.48,-1112.1 1013.75,-1112.1 1013.75,-1112.1 1013.75,-1112.1 1251.75,-1112.1 1334.54,-1112.1 1370.76,-1123.7 1433,-1069.1 1472.43,-1034.51 1486.89,-972.08 1492.11,-935.34"/>
<polygon fill="black" stroke="black" points="1495.53,-936.24 1493.32,-925.88 1488.58,-935.36 1495.53,-936.24"/>
</g>
<!-- arrow -->
<g id="node4" class="node">
<title>arrow</title>
<polygon fill="none" stroke="black" points="612.75,-1912.1 558.75,-1912.1 558.75,-1876.1 612.75,-1876.1 612.75,-1912.1"/>
<text text-anchor="middle" x="585.75" y="-1889.8" font-family="sans-serif" font-size="14.00">arrow</text>
</g>
<!-- client&#45;&gt;hash -->
<g id="edge22" class="edge">
<title>client&#45;&gt;hash</title>
<path fill="none" stroke="black" d="M350.39,-1699.9C409.83,-1691.99 555.97,-1681.69 639.5,-1755.1 681.65,-1792.14 638.38,-1834.03 675.5,-1876.1 705.45,-1910.05 731.84,-1890.88 768.75,-1917.1 801.92,-1940.66 832.7,-1976.21 851.9,-2000.7"/>
<polygon fill="black" stroke="black" points="849.12,-2002.82 857.99,-2008.61 854.66,-1998.55 849.12,-2002.82"/>
</g>
<!-- client&#45;&gt;shell -->
<g id="edge23" class="edge">
<title>client&#45;&gt;shell</title>
<path fill="none" stroke="black" d="M331.7,-1685.94C351.26,-1639.13 402.11,-1517.71 405,-1514.1 407.8,-1510.61 411.07,-1507.32 414.54,-1504.27"/>
<polygon fill="black" stroke="black" points="416.59,-1507.12 422.27,-1498.18 412.25,-1501.62 416.59,-1507.12"/>
</g>
<!-- client&#45;&gt;store -->
<g id="edge24" class="edge">
<title>client&#45;&gt;store</title>
<path fill="none" stroke="black" d="M329.58,-1722.56C345.88,-1777.46 393.72,-1937.29 405,-1959.1 447.99,-2042.24 465.59,-2061.14 532,-2127.1 580.21,-2175 645.39,-2220.04 685.27,-2245.81"/>
<polygon fill="black" stroke="black" points="683.26,-2248.68 693.57,-2251.12 687.03,-2242.78 683.26,-2248.68"/>
</g>
<!-- computation -->
<g id="node6" class="node">
<title>computation</title>
<polygon fill="none" stroke="black" points="922,-710.1 824.25,-710.1 824.25,-674.1 922,-674.1 922,-710.1"/>
<text text-anchor="middle" x="873.12" y="-687.8" font-family="sans-serif" font-size="14.00">computation</text>
</g>
<!-- logic&#45;api -->
<g id="node34" class="node">
<title>logic&#45;api</title>
<polygon fill="none" stroke="black" points="1052,-285.1 977.5,-285.1 977.5,-249.1 1052,-249.1 1052,-285.1"/>
<text text-anchor="middle" x="1014.75" y="-262.8" font-family="sans-serif" font-size="14.00">logic&#45;api</text>
</g>
<!-- computation&#45;&gt;logic&#45;api -->
<g id="edge25" class="edge">
<title>computation&#45;&gt;logic&#45;api</title>
<path fill="none" stroke="black" d="M899.65,-673.83C914.14,-662.11 931.36,-645.64 941.5,-627.1 1002.3,-515.99 1012.25,-360.49 1013.65,-296.44"/>
<polygon fill="black" stroke="black" points="1017.14,-296.8 1013.8,-286.74 1010.15,-296.69 1017.14,-296.8"/>
</g>
<!-- pure -->
<g id="node46" class="node">
<title>pure</title>
<polygon fill="#ffd6d6" stroke="black" points="1277.75,-794.1 1223.75,-794.1 1223.75,-758.1 1277.75,-758.1 1277.75,-794.1"/>
<text text-anchor="middle" x="1250.75" y="-771.8" font-family="sans-serif" font-size="14.00">pure</text>
</g>
<!-- core&#45;&gt;pure -->
<g id="edge26" class="edge">
<title>core&#45;&gt;pure</title>
<path fill="none" stroke="black" d="M1039.91,-618.27C1081.95,-649.89 1168.61,-715.07 1216.36,-750.99"/>
<polygon fill="black" stroke="black" points="1214.06,-753.64 1224.16,-756.85 1218.27,-748.05 1214.06,-753.64"/>
</g>
<!-- pure&#45;eval -->
<g id="node47" class="node">
<title>pure&#45;eval</title>
<polygon fill="#ffd6d6" stroke="black" points="1167.75,-840.1 1088,-840.1 1088,-804.1 1167.75,-804.1 1167.75,-840.1"/>
<text text-anchor="middle" x="1127.88" y="-817.8" font-family="sans-serif" font-size="14.00">pure&#45;eval</text>
</g>
<!-- core&#45;&gt;pure&#45;eval -->
<g id="edge27" class="edge">
<title>core&#45;&gt;pure&#45;eval</title>
<path fill="none" stroke="black" d="M1024.84,-618.27C1044.14,-656.81 1089.29,-747.02 1112.52,-793.42"/>
<polygon fill="black" stroke="black" points="1109.37,-794.95 1116.98,-802.33 1115.63,-791.82 1109.37,-794.95"/>
</g>
<!-- core&#45;&gt;types -->
<g id="edge28" class="edge">
<title>core&#45;&gt;types</title>
<path fill="none" stroke="black" d="M1042.15,-602.25C1114.5,-609.5 1318.2,-639.31 1433,-751.1 1468.11,-785.29 1483.88,-841.92 1490.55,-876.44"/>
<polygon fill="black" stroke="black" points="1487.08,-876.94 1492.28,-886.17 1493.98,-875.71 1487.08,-876.94"/>
</g>
<!-- core&#45;test&#45;guest -->
<g id="node8" class="node">
<title>core&#45;test&#45;guest</title>
<polygon fill="none" stroke="black" points="121,-2408.1 0,-2408.1 0,-2372.1 121,-2372.1 121,-2408.1"/>
<text text-anchor="middle" x="60.5" y="-2385.8" font-family="sans-serif" font-size="14.00">core&#45;test&#45;guest</text>
</g>
<!-- crypto&#45;sig -->
<g id="node9" class="node">
<title>crypto&#45;sig</title>
<polygon fill="none" stroke="black" points="241.25,-2568.1 157,-2568.1 157,-2532.1 241.25,-2532.1 241.25,-2568.1"/>
<text text-anchor="middle" x="199.12" y="-2545.8" font-family="sans-serif" font-size="14.00">crypto&#45;sig</text>
</g>
<!-- decimal&#45;api -->
<g id="node10" class="node">
<title>decimal&#45;api</title>
<polygon fill="none" stroke="black" points="1297.75,-140.1 1203.75,-140.1 1203.75,-104.1 1297.75,-104.1 1297.75,-140.1"/>
<text text-anchor="middle" x="1250.75" y="-117.8" font-family="sans-serif" font-size="14.00">decimal&#45;api</text>
</g>
<!-- decimal&#45;api&#45;&gt;types -->
<g id="edge29" class="edge">
<title>decimal&#45;api&#45;&gt;types</title>
<path fill="none" stroke="black" d="M1298.14,-116.05C1339.84,-113.46 1399.53,-117.38 1433,-154.1 1482.47,-208.38 1492.85,-744.6 1494.66,-876.77"/>
<polygon fill="black" stroke="black" points="1491.15,-876.48 1494.78,-886.43 1498.15,-876.38 1491.15,-876.48"/>
</g>
<!-- egglog -->
<g id="node11" class="node">
<title>egglog</title>
<polygon fill="none" stroke="black" points="903.62,-1230.1 842.62,-1230.1 842.62,-1194.1 903.62,-1194.1 903.62,-1230.1"/>
<text text-anchor="middle" x="873.12" y="-1207.8" font-family="sans-serif" font-size="14.00">egglog</text>
</g>
<!-- egglog&#45;&gt;sexp -->
<g id="edge30" class="edge">
<title>egglog&#45;&gt;sexp</title>
<path fill="none" stroke="black" d="M904.02,-1221.7C916.67,-1226.85 930.89,-1234.21 941.5,-1244.1 971.33,-1271.9 992.07,-1314.86 1003.45,-1343.23"/>
<polygon fill="black" stroke="black" points="1000.07,-1344.21 1006.94,-1352.28 1006.6,-1341.69 1000.07,-1344.21"/>
</g>
<!-- egglog&#45;&gt;types -->
<g id="edge31" class="edge">
<title>egglog&#45;&gt;types</title>
<path fill="none" stroke="black" d="M904.07,-1210.54C951.38,-1208.21 1046.31,-1204.1 1126.88,-1204.1 1126.88,-1204.1 1126.88,-1204.1 1251.75,-1204.1 1339.45,-1204.1 1375.2,-1192.06 1433,-1126.1 1481.01,-1071.31 1492.05,-981.95 1494.45,-935.79"/>
<polygon fill="black" stroke="black" points="1497.94,-936.15 1494.84,-926.02 1490.94,-935.87 1497.94,-936.15"/>
</g>
<!-- forsp -->
<g id="node12" class="node">
<title>forsp</title>
<polygon fill="none" stroke="black" points="477.5,-1592.1 423.5,-1592.1 423.5,-1556.1 477.5,-1556.1 477.5,-1592.1"/>
<text text-anchor="middle" x="450.5" y="-1569.8" font-family="sans-serif" font-size="14.00">forsp</text>
</g>
<!-- forsp&#45;&gt;hash -->
<g id="edge32" class="edge">
<title>forsp&#45;&gt;hash</title>
<path fill="none" stroke="black" d="M477.97,-1575.95C519.2,-1580.33 598.29,-1595.02 639.5,-1644.1 696.17,-1711.59 622.03,-1769.04 675.5,-1839.1 703.42,-1875.68 733.52,-1854.49 768.75,-1884.1 808.12,-1917.19 840.14,-1968.44 857.63,-2000.04"/>
<polygon fill="black" stroke="black" points="854.43,-2001.49 862.27,-2008.62 860.59,-1998.16 854.43,-2001.49"/>
</g>
<!-- repl&#45;core -->
<g id="node52" class="node">
<title>repl&#45;core</title>
<polygon fill="none" stroke="black" points="624.88,-1360.1 546.62,-1360.1 546.62,-1324.1 624.88,-1324.1 624.88,-1360.1"/>
<text text-anchor="middle" x="585.75" y="-1337.8" font-family="sans-serif" font-size="14.00">repl&#45;core</text>
</g>
<!-- forsp&#45;&gt;repl&#45;core -->
<g id="edge33" class="edge">
<title>forsp&#45;&gt;repl&#45;core</title>
<path fill="none" stroke="black" d="M477.67,-1559.06C484.31,-1554.3 490.98,-1548.57 496,-1542.1 522.93,-1507.42 514.35,-1490.31 532,-1450.1 544.05,-1422.64 559.2,-1391.97 570.17,-1370.36"/>
<polygon fill="black" stroke="black" points="573.22,-1372.08 574.64,-1361.58 566.98,-1368.9 573.22,-1372.08"/>
</g>
<!-- forsp&#45;&gt;sexp -->
<g id="edge34" class="edge">
<title>forsp&#45;&gt;sexp</title>
<path fill="none" stroke="black" d="M477.72,-1557.63C484.07,-1553.02 490.58,-1547.72 496,-1542.1 516.03,-1521.35 507.7,-1503.64 532,-1488.1 687.19,-1388.86 771.08,-1494.04 941.5,-1424.1 957.15,-1417.68 972.62,-1407.25 985.21,-1397.4"/>
<polygon fill="black" stroke="black" points="987.09,-1400.38 992.65,-1391.36 982.68,-1394.95 987.09,-1400.38"/>
</g>
<!-- fuse&#45;&gt;hash -->
<g id="edge35" class="edge">
<title>fuse&#45;&gt;hash</title>
<path fill="none" stroke="black" d="M613.25,-2100.11C649.2,-2099.48 715.1,-2095.98 768.75,-2080.1 792.26,-2073.14 816.86,-2061 836.15,-2050.19"/>
<polygon fill="black" stroke="black" points="837.76,-2053.3 844.69,-2045.29 834.28,-2047.23 837.76,-2053.3"/>
</g>
<!-- fuse&#45;&gt;object -->
<g id="edge36" class="edge">
<title>fuse&#45;&gt;object</title>
<path fill="none" stroke="black" d="M602.43,-2081.9C626.1,-2054.42 671.07,-2002.21 698.35,-1970.54"/>
<polygon fill="black" stroke="black" points="700.68,-1973.19 704.56,-1963.33 695.38,-1968.62 700.68,-1973.19"/>
</g>
<!-- fuse&#45;&gt;store -->
<g id="edge37" class="edge">
<title>fuse&#45;&gt;store</title>
<path fill="none" stroke="black" d="M601.39,-2118.4C625.11,-2148.07 672.09,-2206.8 699.62,-2241.22"/>
<polygon fill="black" stroke="black" points="696.58,-2243.02 705.56,-2248.64 702.05,-2238.65 696.58,-2243.02"/>
</g>
<!-- git&#45;&gt;hash -->
<g id="edge38" class="edge">
<title>git&#45;&gt;hash</title>
<path fill="none" stroke="black" d="M477.66,-2190.53C533.35,-2180.14 666.84,-2151.74 768.75,-2102.1 795.3,-2089.17 822.34,-2069.54 842.1,-2053.75"/>
<polygon fill="black" stroke="black" points="844.19,-2056.56 849.74,-2047.53 839.77,-2051.13 844.19,-2056.56"/>
</g>
<!-- git&#45;&gt;object -->
<g id="edge39" class="edge">
<title>git&#45;&gt;object</title>
<path fill="none" stroke="black" d="M460.54,-2176.99C473.77,-2151.69 500.31,-2105.28 532,-2073.1 577.79,-2026.6 642.65,-1986.68 683.28,-1964.03"/>
<polygon fill="black" stroke="black" points="684.9,-1967.13 691.98,-1959.24 681.53,-1960.99 684.9,-1967.13"/>
</g>
<!-- sqlite -->
<g id="node61" class="node">
<title>sqlite</title>
<polygon fill="none" stroke="black" points="900.12,-2286.1 846.12,-2286.1 846.12,-2250.1 900.12,-2250.1 900.12,-2286.1"/>
<text text-anchor="middle" x="873.12" y="-2263.8" font-family="sans-serif" font-size="14.00">sqlite</text>
</g>
<!-- git&#45;&gt;sqlite -->
<g id="edge40" class="edge">
<title>git&#45;&gt;sqlite</title>
<path fill="none" stroke="black" d="M477.99,-2197.93C532.67,-2203.99 661.84,-2219.46 768.75,-2241.1 790.94,-2245.59 815.47,-2251.94 835.06,-2257.35"/>
<polygon fill="black" stroke="black" points="833.94,-2260.67 844.51,-2260 835.83,-2253.93 833.94,-2260.67"/>
</g>
<!-- git&#45;&gt;store -->
<g id="edge41" class="edge">
<title>git&#45;&gt;store</title>
<path fill="none" stroke="black" d="M477.82,-2211.08C493.13,-2219.71 513.09,-2229.85 532,-2236.1 583,-2252.97 644.82,-2261.28 683.58,-2265.13"/>
<polygon fill="black" stroke="black" points="683.04,-2268.59 693.32,-2266.04 683.69,-2261.62 683.04,-2268.59"/>
</g>
<!-- grammar -->
<g id="node15" class="node">
<title>grammar</title>
<polygon fill="none" stroke="black" points="1051.62,-1084.1 977.88,-1084.1 977.88,-1048.1 1051.62,-1048.1 1051.62,-1084.1"/>
<text text-anchor="middle" x="1014.75" y="-1061.8" font-family="sans-serif" font-size="14.00">grammar</text>
</g>
<!-- grammar&#45;&gt;types -->
<g id="edge42" class="edge">
<title>grammar&#45;&gt;types</title>
<path fill="none" stroke="black" d="M1051.99,-1074.39C1129.53,-1089.95 1314.12,-1115.1 1433,-1034.1 1466.33,-1011.39 1482.36,-965.56 1489.61,-935.35"/>
<polygon fill="black" stroke="black" points="1493,-936.24 1491.72,-925.72 1486.16,-934.74 1493,-936.24"/>
</g>
<!-- graph -->
<g id="node16" class="node">
<title>graph</title>
<polygon fill="none" stroke="black" points="477.5,-2514.1 423.5,-2514.1 423.5,-2478.1 477.5,-2478.1 477.5,-2514.1"/>
<text text-anchor="middle" x="450.5" y="-2491.8" font-family="sans-serif" font-size="14.00">graph</text>
</g>
<!-- graph&#45;&gt;hash -->
<g id="edge43" class="edge">
<title>graph&#45;&gt;hash</title>
<path fill="none" stroke="black" d="M477.78,-2488.97C515.11,-2478.26 585.02,-2456.05 639.5,-2426.1 702.68,-2391.38 726.46,-2386.48 768.75,-2328.1 785.24,-2305.33 841.16,-2128.12 863.15,-2057.25"/>
<polygon fill="black" stroke="black" points="866.43,-2058.48 866.04,-2047.89 859.74,-2056.41 866.43,-2058.48"/>
</g>
<!-- parse -->
<g id="node42" class="node">
<title>parse</title>
<polygon fill="none" stroke="black" points="1154.88,-1794.1 1100.88,-1794.1 1100.88,-1758.1 1154.88,-1758.1 1154.88,-1794.1"/>
<text text-anchor="middle" x="1127.88" y="-1771.8" font-family="sans-serif" font-size="14.00">parse</text>
</g>
<!-- graph&#45;&gt;parse -->
<g id="edge44" class="edge">
<title>graph&#45;&gt;parse</title>
<path fill="none" stroke="black" d="M458.68,-2514.52C469.98,-2540.88 494.57,-2588.73 532,-2612.1 686.45,-2708.53 780.88,-2709.85 941.5,-2624.1 1013.29,-2585.78 1022.04,-2553.76 1052,-2478.1 1101.74,-2352.49 1121.34,-1922.65 1125.82,-1805.69"/>
<polygon fill="black" stroke="black" points="1129.31,-1806.11 1126.19,-1795.99 1122.31,-1805.85 1129.31,-1806.11"/>
</g>
<!-- rand -->
<g id="node50" class="node">
<title>rand</title>
<polygon fill="none" stroke="black" points="1041.75,-2046.1 987.75,-2046.1 987.75,-2010.1 1041.75,-2010.1 1041.75,-2046.1"/>
<text text-anchor="middle" x="1014.75" y="-2023.8" font-family="sans-serif" font-size="14.00">rand</text>
</g>
<!-- hash&#45;&gt;rand -->
<g id="edge45" class="edge">
<title>hash&#45;&gt;rand</title>
<path fill="none" stroke="black" d="M900.39,-2028.1C921.74,-2028.1 952.15,-2028.1 976.1,-2028.1"/>
<polygon fill="black" stroke="black" points="976.09,-2031.6 986.09,-2028.1 976.09,-2024.6 976.09,-2031.6"/>
</g>
<!-- haskell -->
<g id="node18" class="node">
<title>haskell</title>
<polygon fill="none" stroke="black" points="481.75,-810.1 419.25,-810.1 419.25,-774.1 481.75,-774.1 481.75,-810.1"/>
<text text-anchor="middle" x="450.5" y="-787.8" font-family="sans-serif" font-size="14.00">haskell</text>
</g>
<!-- hol&#45;api -->
<g id="node20" class="node">
<title>hol&#45;api</title>
<polygon fill="none" stroke="black" points="617,-422.1 554.5,-422.1 554.5,-386.1 617,-386.1 617,-422.1"/>
<text text-anchor="middle" x="585.75" y="-399.8" font-family="sans-serif" font-size="14.00">hol&#45;api</text>
</g>
<!-- haskell&#45;&gt;hol&#45;api -->
<g id="edge46" class="edge">
<title>haskell&#45;&gt;hol&#45;api</title>
<path fill="none" stroke="black" d="M457.84,-773.65C479.24,-711.34 548.93,-508.4 574.89,-432.81"/>
<polygon fill="black" stroke="black" points="578.1,-434.24 578.04,-423.65 571.48,-431.97 578.1,-434.24"/>
</g>
<!-- haskell&#45;&gt;hol&#45;eval -->
<g id="edge47" class="edge">
<title>haskell&#45;&gt;hol&#45;eval</title>
<path fill="none" stroke="black" d="M482.09,-794.28C555.2,-799.5 740.39,-812.71 826.63,-818.86"/>
<polygon fill="black" stroke="black" points="826.14,-822.33 836.37,-819.55 826.64,-815.35 826.14,-822.33"/>
</g>
<!-- haskell&#45;&gt;init -->
<g id="edge48" class="edge">
<title>haskell&#45;&gt;init</title>
<path fill="none" stroke="black" d="M455.33,-810.47C463.24,-843.2 484.75,-911.03 532,-941.1 577.71,-970.19 642.91,-966.4 683.58,-960"/>
<polygon fill="black" stroke="black" points="684.12,-963.45 693.38,-958.31 682.93,-956.56 684.12,-963.45"/>
</g>
<!-- haskell&#45;&gt;types -->
<g id="edge49" class="edge">
<title>haskell&#45;&gt;types</title>
<path fill="none" stroke="black" d="M456.42,-773.69C465.64,-738.49 485.52,-659.1 496,-591.1 538.82,-313.3 440.05,-0.1 721.12,-0.1 721.12,-0.1 721.12,-0.1 1251.75,-0.1 1337.63,-0.1 1381.35,1.52 1433,-67.1 1482.61,-133.01 1492.94,-735.98 1494.69,-876.79"/>
<polygon fill="black" stroke="black" points="1491.18,-876.43 1494.8,-886.39 1498.18,-876.35 1491.18,-876.43"/>
</g>
<!-- hol&#45;&gt;core -->
<g id="edge50" class="edge">
<title>hol&#45;&gt;core</title>
<path fill="none" stroke="black" d="M900.39,-600.1C921.74,-600.1 952.15,-600.1 976.1,-600.1"/>
<polygon fill="black" stroke="black" points="976.09,-603.6 986.09,-600.1 976.09,-596.6 976.09,-603.6"/>
</g>
<!-- hol&#45;api&#45;&gt;core -->
<g id="edge51" class="edge">
<title>hol&#45;api&#45;&gt;core</title>
<path fill="none" stroke="black" d="M617.25,-403C693.5,-400.85 890.02,-399.12 941.5,-436.1 985.62,-467.79 1003.17,-532.54 1009.86,-570.52"/>
<polygon fill="black" stroke="black" points="1006.4,-571.01 1011.44,-580.33 1013.31,-569.91 1006.4,-571.01"/>
</g>
<!-- hol&#45;api&#45;&gt;hol&#45;eval -->
<g id="edge52" class="edge">
<title>hol&#45;api&#45;&gt;hol&#45;eval</title>
<path fill="none" stroke="black" d="M612.02,-422.59C651.46,-452.78 727.38,-516.52 768.75,-588.1 798.96,-640.38 779.92,-664.06 804.75,-719.1 817.06,-746.39 836.07,-774.65 850.76,-794.65"/>
<polygon fill="black" stroke="black" points="847.88,-796.64 856.67,-802.56 853.49,-792.45 847.88,-796.64"/>
</g>
<!-- inductive -->
<g id="node22" class="node">
<title>inductive</title>
<polygon fill="none" stroke="black" points="911.5,-308.1 834.75,-308.1 834.75,-272.1 911.5,-272.1 911.5,-308.1"/>
<text text-anchor="middle" x="873.12" y="-285.8" font-family="sans-serif" font-size="14.00">inductive</text>
</g>
<!-- hol&#45;api&#45;&gt;inductive -->
<g id="edge53" class="edge">
<title>hol&#45;api&#45;&gt;inductive</title>
<path fill="none" stroke="black" d="M617.14,-387.92C634.09,-379.18 655.71,-368.49 675.5,-360.1 725.05,-339.09 783.29,-318.89 823.46,-305.64"/>
<polygon fill="black" stroke="black" points="824.44,-309 832.85,-302.56 822.26,-302.35 824.44,-309"/>
</g>
<!-- hol&#45;api&#45;&gt;init -->
<g id="edge54" class="edge">
<title>hol&#45;api&#45;&gt;init</title>
<path fill="none" stroke="black" d="M591.22,-422.33C610.87,-502.46 689.65,-823.75 713.95,-922.85"/>
<polygon fill="black" stroke="black" points="710.5,-923.45 716.28,-932.33 717.29,-921.78 710.5,-923.45"/>
</g>
<!-- hol&#45;api&#45;&gt;logic&#45;api -->
<g id="edge55" class="edge">
<title>hol&#45;api&#45;&gt;logic&#45;api</title>
<path fill="none" stroke="black" d="M589.47,-385.7C596.18,-347.7 617.43,-261.12 675.5,-225.1 710.72,-203.25 727.45,-221.59 768.75,-225.1 837.82,-230.98 916.66,-246.01 965.83,-256.4"/>
<polygon fill="black" stroke="black" points="965.07,-259.82 975.58,-258.49 966.53,-252.97 965.07,-259.82"/>
</g>
<!-- hol&#45;api&#45;&gt;pure -->
<g id="edge56" class="edge">
<title>hol&#45;api&#45;&gt;pure</title>
<path fill="none" stroke="black" d="M617.02,-395.77C680.59,-379.96 831.22,-351.5 941.5,-402.1 1099.35,-474.53 1203.04,-673.29 1237.3,-747.58"/>
<polygon fill="black" stroke="black" points="1234.08,-748.97 1241.4,-756.63 1240.46,-746.08 1234.08,-748.97"/>
</g>
<!-- hol&#45;api&#45;&gt;types -->
<g id="edge57" class="edge">
<title>hol&#45;api&#45;&gt;types</title>
<path fill="none" stroke="black" d="M592.95,-385.67C603.19,-355.01 624.03,-291.5 639.5,-237.1 657.31,-174.48 626.1,-137.51 675.5,-95.1 742.11,-37.91 784.33,-76.1 872.12,-76.1 872.12,-76.1 872.12,-76.1 1251.75,-76.1 1333.88,-76.1 1378.46,-50.7 1433,-112.1 1484.64,-170.24 1493.4,-739.33 1494.76,-876.48"/>
<polygon fill="black" stroke="black" points="1491.26,-876.21 1494.85,-886.18 1498.26,-876.14 1491.26,-876.21"/>
</g>
<!-- hol&#45;eval&#45;&gt;core -->
<g id="edge58" class="edge">
<title>hol&#45;eval&#45;&gt;core</title>
<path fill="none" stroke="black" d="M908.56,-811.68C920.27,-806.72 932.63,-799.71 941.5,-790.1 984,-744.06 1002.3,-670.49 1009.53,-629.72"/>
<polygon fill="black" stroke="black" points="1012.97,-630.36 1011.15,-619.92 1006.06,-629.22 1012.97,-630.36"/>
</g>
<!-- hol&#45;eval&#45;&gt;pure -->
<g id="edge59" class="edge">
<title>hol&#45;eval&#45;&gt;pure</title>
<path fill="none" stroke="black" d="M908.56,-817.66C950.82,-812.23 1024.66,-802.82 1088,-795.1 1130.5,-789.92 1179.3,-784.22 1212.09,-780.43"/>
<polygon fill="black" stroke="black" points="1212.37,-783.92 1221.9,-779.3 1211.57,-776.97 1212.37,-783.92"/>
</g>
<!-- hol&#45;eval&#45;&gt;pure&#45;eval -->
<g id="edge60" class="edge">
<title>hol&#45;eval&#45;&gt;pure&#45;eval</title>
<path fill="none" stroke="black" d="M908.48,-822.1C951.71,-822.1 1026.33,-822.1 1076.14,-822.1"/>
<polygon fill="black" stroke="black" points="1076.1,-825.6 1086.1,-822.1 1076.1,-818.6 1076.1,-825.6"/>
</g>
<!-- hol&#45;eval&#45;&gt;sexp -->
<g id="edge61" class="edge">
<title>hol&#45;eval&#45;&gt;sexp</title>
<path fill="none" stroke="black" d="M889.65,-840.51C905.33,-860.15 928.99,-892.82 941.5,-925.1 956.67,-964.25 996.84,-1249.36 1009.72,-1342.64"/>
<polygon fill="black" stroke="black" points="1006.21,-1342.84 1011.04,-1352.27 1013.14,-1341.89 1006.21,-1342.84"/>
</g>
<!-- hol&#45;eval&#45;&gt;types -->
<g id="edge62" class="edge">
<title>hol&#45;eval&#45;&gt;types</title>
<path fill="none" stroke="black" d="M908.52,-832.42C956.81,-845.99 1047.71,-868.1 1126.88,-868.1 1126.88,-868.1 1126.88,-868.1 1251.75,-868.1 1325.39,-868.1 1410.09,-885.31 1457.61,-896.57"/>
<polygon fill="black" stroke="black" points="1456.56,-899.92 1467.1,-898.86 1458.21,-893.11 1456.56,-899.92"/>
</g>
<!-- inductive&#45;&gt;logic&#45;api -->
<g id="edge63" class="edge">
<title>inductive&#45;&gt;logic&#45;api</title>
<path fill="none" stroke="black" d="M911.91,-283.88C928.6,-281.13 948.42,-277.86 966.11,-274.95"/>
<polygon fill="black" stroke="black" points="966.59,-278.42 975.89,-273.34 965.45,-271.51 966.59,-278.42"/>
</g>
<!-- init&#45;&gt;computation -->
<g id="edge64" class="edge">
<title>init&#45;&gt;computation</title>
<path fill="none" stroke="black" d="M728.76,-933.88C744.72,-882.73 789.97,-740.43 804.75,-724.1 807.7,-720.85 811.04,-717.89 814.64,-715.22"/>
<polygon fill="black" stroke="black" points="816.24,-718.35 822.71,-709.95 812.42,-712.48 816.24,-718.35"/>
</g>
<!-- init&#45;&gt;core -->
<g id="edge65" class="edge">
<title>init&#45;&gt;core</title>
<path fill="none" stroke="black" d="M727.69,-933.66C736.73,-900.93 760.03,-832.61 804.75,-795.1 853.56,-754.15 893.43,-793.91 941.5,-752.1 978.77,-719.68 998.33,-663.79 1007.31,-629.57"/>
<polygon fill="black" stroke="black" points="1010.69,-630.46 1009.69,-619.91 1003.9,-628.78 1010.69,-630.46"/>
</g>
<!-- init&#45;&gt;grammar -->
<g id="edge66" class="edge">
<title>init&#45;&gt;grammar</title>
<path fill="none" stroke="black" d="M749.43,-962.42C798.59,-981.7 905.02,-1023.45 966.79,-1047.68"/>
<polygon fill="black" stroke="black" points="965.41,-1050.9 976,-1051.29 967.97,-1044.38 965.41,-1050.9"/>
</g>
<!-- init&#45;&gt;hash -->
<g id="edge67" class="edge">
<title>init&#45;&gt;hash</title>
<path fill="none" stroke="black" d="M724.55,-970.46C733.82,-1089.31 785.72,-1747.56 804.75,-1835.1 817.76,-1894.97 843.87,-1961.87 859.49,-1999.08"/>
<polygon fill="black" stroke="black" points="856.25,-2000.41 863.38,-2008.24 862.69,-1997.67 856.25,-2000.41"/>
</g>
<!-- init&#45;&gt;hol -->
<g id="edge68" class="edge">
<title>init&#45;&gt;hol</title>
<path fill="none" stroke="black" d="M727.74,-933.8C742.81,-874.32 790.46,-688.92 804.75,-665.1 813.56,-650.41 826.54,-636.79 838.76,-625.86"/>
<polygon fill="black" stroke="black" points="841,-628.55 846.31,-619.38 836.44,-623.24 841,-628.55"/>
</g>
<!-- init&#45;&gt;hol&#45;eval -->
<g id="edge69" class="edge">
<title>init&#45;&gt;hol&#45;eval</title>
<path fill="none" stroke="black" d="M749.43,-936.72C756.24,-931.95 763.21,-926.31 768.75,-920.1 791.01,-895.19 780.47,-877.06 804.75,-854.1 811.3,-847.91 819.27,-842.72 827.4,-838.44"/>
<polygon fill="black" stroke="black" points="828.83,-841.64 836.33,-834.16 825.8,-835.33 828.83,-841.64"/>
</g>
<!-- init&#45;&gt;inductive -->
<g id="edge70" class="edge">
<title>init&#45;&gt;inductive</title>
<path fill="none" stroke="black" d="M726.89,-933.92C738.26,-879.26 773.35,-711.61 804.75,-573.1 825.83,-480.11 852.46,-370.36 864.99,-319.15"/>
<polygon fill="black" stroke="black" points="868.31,-320.29 867.29,-309.75 861.51,-318.63 868.31,-320.29"/>
</g>
<!-- k -->
<g id="node26" class="node">
<title>k</title>
<polygon fill="none" stroke="black" points="900.12,-1176.1 846.12,-1176.1 846.12,-1140.1 900.12,-1140.1 900.12,-1176.1"/>
<text text-anchor="middle" x="873.12" y="-1153.8" font-family="sans-serif" font-size="14.00">k</text>
</g>
<!-- init&#45;&gt;k -->
<g id="edge71" class="edge">
<title>init&#45;&gt;k</title>
<path fill="none" stroke="black" d="M736.35,-970.38C762.58,-1006.65 821.33,-1087.88 852.24,-1130.61"/>
<polygon fill="black" stroke="black" points="849.35,-1132.58 858.04,-1138.63 855.02,-1128.48 849.35,-1132.58"/>
</g>
<!-- init&#45;&gt;logic&#45;api -->
<g id="edge72" class="edge">
<title>init&#45;&gt;logic&#45;api</title>
<path fill="none" stroke="black" d="M725.08,-933.71C730.32,-894.15 748.3,-800.63 804.75,-752.1 852.16,-711.34 899.05,-765.01 941.5,-719.1 970.38,-687.87 1001.49,-392.69 1010.9,-296.93"/>
<polygon fill="black" stroke="black" points="1014.38,-297.33 1011.86,-287.04 1007.41,-296.65 1014.38,-297.33"/>
</g>
<!-- metamath -->
<g id="node36" class="node">
<title>metamath</title>
<polygon fill="none" stroke="black" points="913.38,-1512.1 832.88,-1512.1 832.88,-1476.1 913.38,-1476.1 913.38,-1512.1"/>
<text text-anchor="middle" x="873.12" y="-1489.8" font-family="sans-serif" font-size="14.00">metamath</text>
</g>
<!-- init&#45;&gt;metamath -->
<g id="edge73" class="edge">
<title>init&#45;&gt;metamath</title>
<path fill="none" stroke="black" d="M726.48,-970.57C736.32,-1023.82 766.87,-1182.03 804.75,-1310.1 821.25,-1365.88 845.77,-1429.24 860.23,-1465.16"/>
<polygon fill="black" stroke="black" points="856.98,-1466.46 863.98,-1474.41 863.47,-1463.83 856.98,-1466.46"/>
</g>
<!-- parsing&#45;api -->
<g id="node43" class="node">
<title>parsing&#45;api</title>
<polygon fill="none" stroke="black" points="919,-216.1 827.25,-216.1 827.25,-180.1 919,-180.1 919,-216.1"/>
<text text-anchor="middle" x="873.12" y="-193.8" font-family="sans-serif" font-size="14.00">parsing&#45;api</text>
</g>
<!-- init&#45;&gt;parsing&#45;api -->
<g id="edge74" class="edge">
<title>init&#45;&gt;parsing&#45;api</title>
<path fill="none" stroke="black" d="M723.64,-933.91C726.61,-837.52 743.64,-386.24 804.75,-263.1 812.25,-247.99 824.74,-234.44 836.95,-223.68"/>
<polygon fill="black" stroke="black" points="839.13,-226.42 844.55,-217.32 834.64,-221.06 839.13,-226.42"/>
</g>
<!-- init&#45;&gt;sexp -->
<g id="edge75" class="edge">
<title>init&#45;&gt;sexp</title>
<path fill="none" stroke="black" d="M725.53,-970.6C733.84,-1031.83 763.12,-1226.65 804.75,-1272.1 848.25,-1319.6 884.39,-1290.32 941.5,-1320.1 955.8,-1327.56 970.46,-1337.58 982.79,-1346.84"/>
<polygon fill="black" stroke="black" points="980.47,-1349.47 990.53,-1352.79 984.74,-1343.92 980.47,-1349.47"/>
</g>
<!-- spectec -->
<g id="node60" class="node">
<title>spectec</title>
<polygon fill="none" stroke="black" points="907.75,-970.1 838.5,-970.1 838.5,-934.1 907.75,-934.1 907.75,-970.1"/>
<text text-anchor="middle" x="873.12" y="-947.8" font-family="sans-serif" font-size="14.00">spectec</text>
</g>
<!-- init&#45;&gt;spectec -->
<g id="edge76" class="edge">
<title>init&#45;&gt;spectec</title>
<path fill="none" stroke="black" d="M749.42,-952.1C770.87,-952.1 801.65,-952.1 827.02,-952.1"/>
<polygon fill="black" stroke="black" points="826.73,-955.6 836.73,-952.1 826.73,-948.6 826.73,-955.6"/>
</g>
<!-- init&#45;&gt;types -->
<g id="edge77" class="edge">
<title>init&#45;&gt;types</title>
<path fill="none" stroke="black" d="M749.54,-941.65C765.32,-935.85 785.9,-929.02 804.75,-925.1 896.07,-906.11 920.48,-906.1 1013.75,-906.1 1013.75,-906.1 1013.75,-906.1 1251.75,-906.1 1324.55,-906.1 1409.61,-906.1 1457.4,-906.1"/>
<polygon fill="black" stroke="black" points="1457.21,-909.6 1467.21,-906.1 1457.21,-902.6 1457.21,-909.6"/>
</g>
<!-- json -->
<g id="node24" class="node">
<title>json</title>
<polygon fill="none" stroke="black" points="900.12,-2584.1 846.12,-2584.1 846.12,-2548.1 900.12,-2548.1 900.12,-2584.1"/>
<text text-anchor="middle" x="873.12" y="-2561.8" font-family="sans-serif" font-size="14.00">json</text>
</g>
<!-- json&#45;api -->
<g id="node25" class="node">
<title>json&#45;api</title>
<polygon fill="none" stroke="black" points="757.12,-140.1 687.12,-140.1 687.12,-104.1 757.12,-104.1 757.12,-140.1"/>
<text text-anchor="middle" x="722.12" y="-117.8" font-family="sans-serif" font-size="14.00">json&#45;api</text>
</g>
<!-- json&#45;api&#45;&gt;decimal&#45;api -->
<g id="edge78" class="edge">
<title>json&#45;api&#45;&gt;decimal&#45;api</title>
<path fill="none" stroke="black" d="M757.27,-122.1C845.57,-122.1 1082.18,-122.1 1192.12,-122.1"/>
<polygon fill="black" stroke="black" points="1192.11,-125.6 1202.11,-122.1 1192.11,-118.6 1192.11,-125.6"/>
</g>
<!-- json&#45;api&#45;&gt;inductive -->
<g id="edge79" class="edge">
<title>json&#45;api&#45;&gt;inductive</title>
<path fill="none" stroke="black" d="M736.58,-140.56C752.21,-161.65 779.15,-196.88 804.75,-225.1 816.91,-238.5 831.23,-252.54 843.54,-264.12"/>
<polygon fill="black" stroke="black" points="840.87,-266.43 850.58,-270.68 845.65,-261.3 840.87,-266.43"/>
</g>
<!-- json&#45;api&#45;&gt;parsing&#45;api -->
<g id="edge80" class="edge">
<title>json&#45;api&#45;&gt;parsing&#45;api</title>
<path fill="none" stroke="black" d="M756.28,-140.47C771.03,-148.51 788.67,-157.95 804.75,-166.1 810.45,-168.99 816.45,-171.95 822.43,-174.85"/>
<polygon fill="black" stroke="black" points="820.52,-177.82 831.05,-179 823.56,-171.51 820.52,-177.82"/>
</g>
<!-- json&#45;api&#45;&gt;types -->
<g id="edge81" class="edge">
<title>json&#45;api&#45;&gt;types</title>
<path fill="none" stroke="black" d="M757.38,-128.33C810.09,-138.15 908.43,-157.53 941.5,-171.1 995.06,-193.08 1007.96,-202.51 1052,-240.1 1248.25,-407.6 1311.41,-450.54 1433,-678.1 1468.15,-743.89 1484.65,-831.24 1491.25,-876.34"/>
<polygon fill="black" stroke="black" points="1487.77,-876.71 1492.62,-886.13 1494.7,-875.74 1487.77,-876.71"/>
</g>
<!-- k&#45;&gt;grammar -->
<g id="edge82" class="edge">
<title>k&#45;&gt;grammar</title>
<path fill="none" stroke="black" d="M900.39,-1140.8C921.77,-1126.71 952.23,-1106.63 976.2,-1090.85"/>
<polygon fill="black" stroke="black" points="978,-1093.85 984.43,-1085.42 974.15,-1088 978,-1093.85"/>
</g>
<!-- k&#45;&gt;parse -->
<g id="edge83" class="edge">
<title>k&#45;&gt;parse</title>
<path fill="none" stroke="black" d="M900.3,-1164.67C913.62,-1168.93 929.49,-1175.51 941.5,-1185.1 1009.04,-1239.02 1019.29,-1265.11 1052,-1345.1 1110.29,-1487.64 1123.22,-1674.78 1126.07,-1746.44"/>
<polygon fill="black" stroke="black" points="1122.56,-1746.3 1126.42,-1756.17 1129.56,-1746.05 1122.56,-1746.3"/>
</g>
<!-- k&#45;&gt;sexp -->
<g id="edge84" class="edge">
<title>k&#45;&gt;sexp</title>
<path fill="none" stroke="black" d="M900.3,-1163.27C914.11,-1167.19 930.43,-1173.89 941.5,-1185.1 984.92,-1229.07 1002.87,-1302 1009.79,-1342.57"/>
<polygon fill="black" stroke="black" points="1006.31,-1342.99 1011.33,-1352.32 1013.22,-1341.9 1006.31,-1342.99"/>
</g>
<!-- kernel -->
<g id="node27" class="node">
<title>kernel</title>
<polygon fill="none" stroke="black" points="614.38,-1566.1 557.12,-1566.1 557.12,-1530.1 614.38,-1530.1 614.38,-1566.1"/>
<text text-anchor="middle" x="585.75" y="-1543.8" font-family="sans-serif" font-size="14.00">kernel</text>
</g>
<!-- kernel&#45;&gt;hash -->
<g id="edge85" class="edge">
<title>kernel&#45;&gt;hash</title>
<path fill="none" stroke="black" d="M608.39,-1566.39C619.41,-1576.89 632.02,-1590.97 639.5,-1606.1 678.97,-1685.88 620.95,-1732.77 675.5,-1803.1 703.47,-1839.16 735.14,-1815.22 768.75,-1846.1 816,-1889.51 847.25,-1959.62 862.09,-1998.95"/>
<polygon fill="black" stroke="black" points="858.76,-2000.03 865.49,-2008.22 865.33,-1997.62 858.76,-2000.03"/>
</g>
<!-- kernel&#45;&gt;init -->
<g id="edge86" class="edge">
<title>kernel&#45;&gt;init</title>
<path fill="none" stroke="black" d="M592.79,-1529.7C603.25,-1497.43 624.99,-1428.42 639.5,-1369.1 674.73,-1225.12 704.94,-1050.26 716.31,-981.7"/>
<polygon fill="black" stroke="black" points="719.73,-982.45 717.9,-972.02 712.82,-981.32 719.73,-982.45"/>
</g>
<!-- kernel&#45;&gt;object -->
<g id="edge87" class="edge">
<title>kernel&#45;&gt;object</title>
<path fill="none" stroke="black" d="M594.96,-1566.44C606.15,-1591.97 626.32,-1639.86 639.5,-1682.1 660.43,-1749.2 653.74,-1769.26 675.5,-1836.1 684.46,-1863.63 697.54,-1893.9 707.41,-1915.37"/>
<polygon fill="black" stroke="black" points="704.2,-1916.78 711.59,-1924.36 710.55,-1913.82 704.2,-1916.78"/>
</g>
<!-- kernel&#45;&gt;sexp -->
<g id="edge88" class="edge">
<title>kernel&#45;&gt;sexp</title>
<path fill="none" stroke="black" d="M614.86,-1546.34C697.58,-1541.09 934.76,-1525.69 941.5,-1521.1 982.07,-1493.49 1000.66,-1436.45 1008.54,-1401.51"/>
<polygon fill="black" stroke="black" points="1011.9,-1402.56 1010.51,-1392.06 1005.05,-1401.13 1011.9,-1402.56"/>
</g>
<!-- kernel&#45;&gt;store -->
<g id="edge89" class="edge">
<title>kernel&#45;&gt;store</title>
<path fill="none" stroke="black" d="M590.14,-1566.26C608.18,-1662.94 692.99,-2117.32 715.58,-2238.4"/>
<polygon fill="black" stroke="black" points="712.13,-2238.99 717.41,-2248.18 719.01,-2237.7 712.13,-2238.99"/>
</g>
<!-- kernel&#45;sat -->
<g id="node28" class="node">
<title>kernel&#45;sat</title>
<polygon fill="none" stroke="black" points="627.5,-932.1 544,-932.1 544,-896.1 627.5,-896.1 627.5,-932.1"/>
<text text-anchor="middle" x="585.75" y="-909.8" font-family="sans-serif" font-size="14.00">kernel&#45;sat</text>
</g>
<!-- kernel&#45;sat&#45;&gt;core -->
<g id="edge90" class="edge">
<title>kernel&#45;sat&#45;&gt;core</title>
<path fill="none" stroke="black" d="M619.68,-895.63C660.19,-871.34 728.52,-824.99 768.75,-768.1 796.75,-728.51 769.36,-698.26 804.75,-665.1 850.78,-621.97 881.51,-646.6 941.5,-627.1 953.18,-623.3 965.76,-618.76 977.1,-614.5"/>
<polygon fill="black" stroke="black" points="978.01,-617.9 986.11,-611.07 975.51,-611.36 978.01,-617.9"/>
</g>
<!-- kernel&#45;sat&#45;&gt;hol&#45;eval -->
<g id="edge91" class="edge">
<title>kernel&#45;sat&#45;&gt;hol&#45;eval</title>
<path fill="none" stroke="black" d="M627.79,-912.53C665.79,-909.79 723.15,-902.33 768.75,-882.1 787.28,-873.88 787.49,-864.73 804.75,-854.1 811.96,-849.66 819.87,-845.4 827.67,-841.52"/>
<polygon fill="black" stroke="black" points="828.92,-844.8 836.42,-837.31 825.89,-838.5 828.92,-844.8"/>
</g>
<!-- kernel&#45;sat&#45;&gt;init -->
<g id="edge92" class="edge">
<title>kernel&#45;sat&#45;&gt;init</title>
<path fill="none" stroke="black" d="M627.8,-925.71C645.65,-930.76 666.42,-936.63 683.83,-941.56"/>
<polygon fill="black" stroke="black" points="682.69,-944.87 693.27,-944.22 684.6,-938.13 682.69,-944.87"/>
</g>
<!-- sat -->
<g id="node53" class="node">
<title>sat</title>
<polygon fill="none" stroke="black" points="900.12,-1772.1 846.12,-1772.1 846.12,-1736.1 900.12,-1736.1 900.12,-1772.1"/>
<text text-anchor="middle" x="873.12" y="-1749.8" font-family="sans-serif" font-size="14.00">sat</text>
</g>
<!-- kernel&#45;sat&#45;&gt;sat -->
<g id="edge93" class="edge">
<title>kernel&#45;sat&#45;&gt;sat</title>
<path fill="none" stroke="black" d="M592.28,-932.47C603.23,-969.61 627.62,-1056.44 639.5,-1131.1 655.82,-1233.67 632.22,-1502.68 675.5,-1597.1 709.45,-1671.17 736.81,-1682.13 804.75,-1727.1 813.93,-1733.18 824.7,-1738.25 834.89,-1742.3"/>
<polygon fill="black" stroke="black" points="833.62,-1745.56 844.21,-1745.76 836.06,-1739 833.62,-1745.56"/>
</g>
<!-- kernel&#45;smt -->
<g id="node29" class="node">
<title>kernel&#45;smt</title>
<polygon fill="none" stroke="black" points="494.5,-346.1 406.5,-346.1 406.5,-310.1 494.5,-310.1 494.5,-346.1"/>
<text text-anchor="middle" x="450.5" y="-323.8" font-family="sans-serif" font-size="14.00">kernel&#45;smt</text>
</g>
<!-- kernel&#45;smt&#45;&gt;core -->
<g id="edge94" class="edge">
<title>kernel&#45;smt&#45;&gt;core</title>
<path fill="none" stroke="black" d="M494.9,-321.22C588.06,-309.01 809.46,-294.14 941.5,-402.1 993.03,-444.23 1007.81,-526.46 1012.05,-570.53"/>
<polygon fill="black" stroke="black" points="1008.55,-570.69 1012.86,-580.37 1015.52,-570.12 1008.55,-570.69"/>
</g>
<!-- kernel&#45;smt&#45;&gt;hol&#45;api -->
<g id="edge95" class="edge">
<title>kernel&#45;smt&#45;&gt;hol&#45;api</title>
<path fill="none" stroke="black" d="M483.76,-346.5C501.99,-356.9 524.95,-370 544.37,-381.07"/>
<polygon fill="black" stroke="black" points="542.43,-383.99 552.85,-385.91 545.9,-377.91 542.43,-383.99"/>
</g>
<!-- kv -->
<g id="node30" class="node">
<title>kv</title>
<polygon fill="none" stroke="black" points="226.12,-2514.1 172.12,-2514.1 172.12,-2478.1 226.12,-2478.1 226.12,-2514.1"/>
<text text-anchor="middle" x="199.12" y="-2491.8" font-family="sans-serif" font-size="14.00">kv</text>
</g>
<!-- lean -->
<g id="node31" class="node">
<title>lean</title>
<polygon fill="none" stroke="black" points="87.5,-2462.1 33.5,-2462.1 33.5,-2426.1 87.5,-2426.1 87.5,-2462.1"/>
<text text-anchor="middle" x="60.5" y="-2439.8" font-family="sans-serif" font-size="14.00">lean</text>
</g>
<!-- lisp -->
<g id="node32" class="node">
<title>lisp</title>
<polygon fill="none" stroke="black" points="477.5,-970.1 423.5,-970.1 423.5,-934.1 477.5,-934.1 477.5,-970.1"/>
<text text-anchor="middle" x="450.5" y="-947.8" font-family="sans-serif" font-size="14.00">lisp</text>
</g>
<!-- lisp&#45;&gt;core -->
<g id="edge96" class="edge">
<title>lisp&#45;&gt;core</title>
<path fill="none" stroke="black" d="M456.26,-933.65C465.66,-900.42 489.48,-829.86 532,-786.1 569.54,-747.46 595.66,-761.4 639.5,-730.1 721.95,-671.24 710.67,-610.67 804.75,-573.1 861.19,-550.56 881.69,-562.29 941.5,-573.1 953.26,-575.23 965.6,-579.15 976.69,-583.36"/>
<polygon fill="black" stroke="black" points="975.3,-586.58 985.89,-587.05 977.91,-580.08 975.3,-586.58"/>
</g>
<!-- lisp&#45;&gt;hol&#45;api -->
<g id="edge97" class="edge">
<title>lisp&#45;&gt;hol&#45;api</title>
<path fill="none" stroke="black" d="M458.51,-933.84C468.05,-908.43 485.19,-860.82 496,-819.1 517.9,-734.64 513.91,-711.46 532,-626.1 546.68,-556.82 566.58,-476.04 577.25,-433.61"/>
<polygon fill="black" stroke="black" points="580.64,-434.47 579.7,-423.92 573.86,-432.76 580.64,-434.47"/>
</g>
<!-- lisp&#45;&gt;hol&#45;eval -->
<g id="edge98" class="edge">
<title>lisp&#45;&gt;hol&#45;eval</title>
<path fill="none" stroke="black" d="M468.9,-933.73C484.12,-918.8 507.55,-898.43 532,-887.1 630.28,-841.55 758.7,-827.92 826.16,-823.84"/>
<polygon fill="black" stroke="black" points="826.32,-827.34 836.12,-823.29 825.94,-820.35 826.32,-827.34"/>
</g>
<!-- lisp&#45;&gt;init -->
<g id="edge99" class="edge">
<title>lisp&#45;&gt;init</title>
<path fill="none" stroke="black" d="M477.96,-961.25C493.49,-966.13 513.62,-971.63 532,-974.1 579.35,-980.46 592.14,-980.37 639.5,-974.1 654.16,-972.16 669.93,-968.34 683.66,-964.42"/>
<polygon fill="black" stroke="black" points="684.62,-967.78 693.2,-961.57 682.61,-961.08 684.62,-967.78"/>
</g>
<!-- lisp&#45;&gt;repl&#45;core -->
<g id="edge100" class="edge">
<title>lisp&#45;&gt;repl&#45;core</title>
<path fill="none" stroke="black" d="M477.92,-965.69C484.9,-970.56 491.68,-976.71 496,-984.1 569.52,-1109.97 453.61,-1187.2 532,-1310.1 533.7,-1312.77 535.71,-1315.25 537.94,-1317.54"/>
<polygon fill="black" stroke="black" points="535.19,-1319.8 545.05,-1323.67 539.76,-1314.49 535.19,-1319.8"/>
</g>
<!-- lisp&#45;&gt;sexp -->
<g id="edge101" class="edge">
<title>lisp&#45;&gt;sexp</title>
<path fill="none" stroke="black" d="M455.59,-970.24C469.23,-1030.07 513.31,-1218.5 532,-1239.1 534.73,-1242.11 800.81,-1344.1 804.75,-1345.1 863.44,-1360.06 933.63,-1366.96 975.89,-1369.97"/>
<polygon fill="black" stroke="black" points="975.58,-1373.46 985.79,-1370.64 976.05,-1366.48 975.58,-1373.46"/>
</g>
<!-- sexpr&#45;api -->
<g id="node56" class="node">
<title>sexpr&#45;api</title>
<polygon fill="none" stroke="black" points="760.88,-270.1 683.38,-270.1 683.38,-234.1 760.88,-234.1 760.88,-270.1"/>
<text text-anchor="middle" x="722.12" y="-247.8" font-family="sans-serif" font-size="14.00">sexpr&#45;api</text>
</g>
<!-- lisp&#45;&gt;sexpr&#45;api -->
<g id="edge102" class="edge">
<title>lisp&#45;&gt;sexpr&#45;api</title>
<path fill="none" stroke="black" d="M458.46,-933.65C472.35,-896.83 504.57,-811.59 532,-740.1 599.02,-565.4 680.59,-355.99 709.94,-280.76"/>
<polygon fill="black" stroke="black" points="713.11,-282.25 713.49,-271.66 706.59,-279.71 713.11,-282.25"/>
</g>
<!-- lisp&#45;&gt;types -->
<g id="edge103" class="edge">
<title>lisp&#45;&gt;types</title>
<path fill="none" stroke="black" d="M455.84,-970.43C471.83,-1037.8 526.78,-1268.21 532,-1274.1 565.94,-1312.35 607.88,-1274.92 639.5,-1315.1 717.63,-1414.4 587.96,-1505.99 675.5,-1597.1 701.91,-1624.58 975.64,-1654.1 1013.75,-1654.1 1013.75,-1654.1 1013.75,-1654.1 1251.75,-1654.1 1361.04,-1654.1 1397.32,-1523.22 1433,-1426.1 1466.56,-1334.74 1487.35,-1032.44 1493.26,-935.97"/>
<polygon fill="black" stroke="black" points="1496.75,-936.21 1493.86,-926.02 1489.76,-935.79 1496.75,-936.21"/>
</g>
<!-- llm -->
<g id="node33" class="node">
<title>llm</title>
<polygon fill="none" stroke="black" points="226.12,-2194.1 172.12,-2194.1 172.12,-2158.1 226.12,-2158.1 226.12,-2194.1"/>
<text text-anchor="middle" x="199.12" y="-2171.8" font-family="sans-serif" font-size="14.00">llm</text>
</g>
<!-- llm&#45;&gt;proto -->
<g id="edge104" class="edge">
<title>llm&#45;&gt;proto</title>
<path fill="none" stroke="black" d="M226.6,-2176.1C243.46,-2176.1 265.58,-2176.1 284.29,-2176.1"/>
<polygon fill="black" stroke="black" points="284.19,-2179.6 294.19,-2176.1 284.19,-2172.6 284.19,-2179.6"/>
</g>
<!-- lsp&#45;&gt;sexp -->
<g id="edge105" class="edge">
<title>lsp&#45;&gt;sexp</title>
<path fill="none" stroke="black" d="M887.49,-1681.76C902.24,-1660.88 925.96,-1625.33 941.5,-1592.1 972.17,-1526.53 995.44,-1444.35 1006.55,-1401.38"/>
<polygon fill="black" stroke="black" points="1009.91,-1402.36 1008.98,-1391.81 1003.12,-1400.64 1009.91,-1402.36"/>
</g>
<!-- lsp&#45;&gt;wasm -->
<g id="edge106" class="edge">
<title>lsp&#45;&gt;wasm</title>
<path fill="none" stroke="black" d="M900.54,-1703.93C914.96,-1707.46 931.81,-1714.21 941.5,-1727.1 946.82,-1734.18 998.37,-2285.59 1010.98,-2421.22"/>
<polygon fill="black" stroke="black" points="1007.49,-2421.54 1011.9,-2431.17 1014.46,-2420.89 1007.49,-2421.54"/>
</g>
<!-- metamath&#45;&gt;parse -->
<g id="edge107" class="edge">
<title>metamath&#45;&gt;parse</title>
<path fill="none" stroke="black" d="M890.32,-1512.17C933.55,-1560.4 1051.84,-1692.38 1102.89,-1749.34"/>
<polygon fill="black" stroke="black" points="1100.2,-1751.58 1109.48,-1756.69 1105.41,-1746.91 1100.2,-1751.58"/>
</g>
<!-- metamath&#45;&gt;sexp -->
<g id="edge108" class="edge">
<title>metamath&#45;&gt;sexp</title>
<path fill="none" stroke="black" d="M913.65,-1478.97C923.26,-1474.34 933.17,-1468.69 941.5,-1462.1 963.59,-1444.64 983.19,-1419.24 996.39,-1399.87"/>
<polygon fill="black" stroke="black" points="999.24,-1401.89 1001.85,-1391.62 993.41,-1398.03 999.24,-1401.89"/>
</g>
<!-- multiformat -->
<g id="node37" class="node">
<title>multiformat</title>
<polygon fill="none" stroke="black" points="767.25,-1794.1 677,-1794.1 677,-1758.1 767.25,-1758.1 767.25,-1794.1"/>
<text text-anchor="middle" x="722.12" y="-1771.8" font-family="sans-serif" font-size="14.00">multiformat</text>
</g>
<!-- multiformat&#45;&gt;acset -->
<g id="edge109" class="edge">
<title>multiformat&#45;&gt;acset</title>
<path fill="none" stroke="black" d="M767.43,-1785.62C788.9,-1790.23 814.39,-1795.7 834.85,-1800.1"/>
<polygon fill="black" stroke="black" points="833.95,-1803.48 844.46,-1802.16 835.42,-1796.64 833.95,-1803.48"/>
</g>
<!-- multiformat&#45;&gt;hash -->
<g id="edge110" class="edge">
<title>multiformat&#45;&gt;hash</title>
<path fill="none" stroke="black" d="M753.95,-1794.38C759.31,-1798.45 764.52,-1803.07 768.75,-1808.1 794.75,-1839.02 839.68,-1946.74 860.68,-1999.09"/>
<polygon fill="black" stroke="black" points="857.38,-2000.27 864.34,-2008.26 863.89,-1997.68 857.38,-2000.27"/>
</g>
<!-- multiformat&#45;&gt;parse -->
<g id="edge111" class="edge">
<title>multiformat&#45;&gt;parse</title>
<path fill="none" stroke="black" d="M761.98,-1794.58C764.32,-1796.03 766.59,-1797.54 768.75,-1799.1 787.08,-1812.36 783.84,-1826.44 804.75,-1835.1 903.07,-1875.82 1029.81,-1825.46 1090.86,-1795.43"/>
<polygon fill="black" stroke="black" points="1092.06,-1798.75 1099.43,-1791.13 1088.92,-1792.49 1092.06,-1798.75"/>
</g>
<!-- numerals -->
<g id="node38" class="node">
<title>numerals</title>
<polygon fill="none" stroke="black" points="624.12,-1176.1 547.38,-1176.1 547.38,-1140.1 624.12,-1140.1 624.12,-1176.1"/>
<text text-anchor="middle" x="585.75" y="-1153.8" font-family="sans-serif" font-size="14.00">numerals</text>
</g>
<!-- numerals&#45;&gt;grammar -->
<g id="edge112" class="edge">
<title>numerals&#45;&gt;grammar</title>
<path fill="none" stroke="black" d="M624.62,-1146.23C667.84,-1133.02 740.83,-1111.74 804.75,-1098.1 859.71,-1086.37 923.69,-1077.23 966.24,-1071.77"/>
<polygon fill="black" stroke="black" points="966.66,-1075.24 976.14,-1070.52 965.78,-1068.3 966.66,-1075.24"/>
</g>
<!-- numerals&#45;&gt;hol&#45;eval -->
<g id="edge113" class="edge">
<title>numerals&#45;&gt;hol&#45;eval</title>
<path fill="none" stroke="black" d="M624.53,-1139.72C630.08,-1135.81 635.33,-1131.27 639.5,-1126.1 670.23,-1088.05 642.66,-1058.35 675.5,-1022.1 706.14,-988.28 739.02,-1013.72 768.75,-979.1 806.42,-935.24 767.33,-898.17 804.75,-854.1 810.89,-846.87 819.03,-841.16 827.52,-836.69"/>
<polygon fill="black" stroke="black" points="828.99,-839.87 836.57,-832.47 826.03,-833.52 828.99,-839.87"/>
</g>
<!-- numerals&#45;&gt;init -->
<g id="edge114" class="edge">
<title>numerals&#45;&gt;init</title>
<path fill="none" stroke="black" d="M624.38,-1140.4C630.09,-1136.37 635.42,-1131.61 639.5,-1126.1 678.22,-1073.76 638.54,-1037.7 675.5,-984.1 678.36,-979.96 681.94,-976.18 685.83,-972.78"/>
<polygon fill="black" stroke="black" points="687.69,-975.77 693.49,-966.9 683.43,-970.21 687.69,-975.77"/>
</g>
<!-- numerals&#45;&gt;types -->
<g id="edge115" class="edge">
<title>numerals&#45;&gt;types</title>
<path fill="none" stroke="black" d="M615.19,-1139.86C638.66,-1124.91 669.11,-1105.79 675.5,-1103.1 863.47,-1023.91 922.9,-1020.1 1126.88,-1020.1 1126.88,-1020.1 1126.88,-1020.1 1251.75,-1020.1 1334.74,-1020.1 1419.89,-965.02 1464.09,-931.43"/>
<polygon fill="black" stroke="black" points="1466.19,-934.24 1471.95,-925.34 1461.9,-928.7 1466.19,-934.24"/>
</g>
<!-- object&#45;&gt;hash -->
<g id="edge116" class="edge">
<title>object&#45;&gt;hash</title>
<path fill="none" stroke="black" d="M751.15,-1959.9C775.11,-1973.41 809.76,-1992.94 835.84,-2007.64"/>
<polygon fill="black" stroke="black" points="833.98,-2010.61 844.41,-2012.47 837.41,-2004.51 833.98,-2010.61"/>
</g>
<!-- object&#45;&gt;parse -->
<g id="edge117" class="edge">
<title>object&#45;&gt;parse</title>
<path fill="none" stroke="black" d="M751.04,-1939.2C809.7,-1928.08 948.86,-1897.36 1052,-1840.1 1070.2,-1830 1088.02,-1815.03 1101.71,-1802.11"/>
<polygon fill="black" stroke="black" points="1103.84,-1804.92 1108.58,-1795.45 1098.96,-1799.9 1103.84,-1804.92"/>
</g>
<!-- opentheory&#45;&gt;core -->
<g id="edge118" class="edge">
<title>opentheory&#45;&gt;core</title>
<path fill="none" stroke="black" d="M488.97,-545.69C574.39,-506.52 788.04,-424.58 941.5,-502.1 970,-516.5 990.03,-548.03 1001.65,-571.46"/>
<polygon fill="black" stroke="black" points="998.48,-572.95 1005.9,-580.52 1004.82,-569.98 998.48,-572.95"/>
</g>
<!-- opentheory&#45;&gt;hol -->
<g id="edge119" class="edge">
<title>opentheory&#45;&gt;hol</title>
<path fill="none" stroke="black" d="M496.47,-566.93C557.99,-570.94 671.84,-578.81 768.75,-588.1 790.6,-590.19 814.99,-593 834.59,-595.38"/>
<polygon fill="black" stroke="black" points="833.96,-598.83 844.31,-596.57 834.81,-591.88 833.96,-598.83"/>
</g>
<!-- opentheory&#45;&gt;hol&#45;api -->
<g id="edge120" class="edge">
<title>opentheory&#45;&gt;hol&#45;api</title>
<path fill="none" stroke="black" d="M459.67,-545.72C472.2,-519.06 498.32,-469.24 532,-436.1 535.85,-432.31 540.24,-428.77 544.79,-425.53"/>
<polygon fill="black" stroke="black" points="546.56,-428.55 553.01,-420.14 542.72,-422.7 546.56,-428.55"/>
</g>
<!-- opentheory&#45;&gt;hol&#45;eval -->
<g id="edge121" class="edge">
<title>opentheory&#45;&gt;hol&#45;eval</title>
<path fill="none" stroke="black" d="M481.41,-582.45C555.72,-628.03 748.73,-746.41 832.43,-797.75"/>
<polygon fill="black" stroke="black" points="830.44,-800.64 840.79,-802.88 834.1,-794.67 830.44,-800.64"/>
</g>
<!-- parquet -->
<g id="node41" class="node">
<title>parquet</title>
<polygon fill="none" stroke="black" points="484,-1950.1 417,-1950.1 417,-1914.1 484,-1914.1 484,-1950.1"/>
<text text-anchor="middle" x="450.5" y="-1927.8" font-family="sans-serif" font-size="14.00">parquet</text>
</g>
<!-- parquet&#45;&gt;arrow -->
<g id="edge122" class="edge">
<title>parquet&#45;&gt;arrow</title>
<path fill="none" stroke="black" d="M484.44,-1922.71C503.6,-1917.24 527.8,-1910.34 547.63,-1904.69"/>
<polygon fill="black" stroke="black" points="548.32,-1908.13 556.98,-1902.02 546.4,-1901.4 548.32,-1908.13"/>
</g>
<!-- parsing&#45;api&#45;&gt;logic&#45;api -->
<g id="edge123" class="edge">
<title>parsing&#45;api&#45;&gt;logic&#45;api</title>
<path fill="none" stroke="black" d="M913.41,-216.52C922.65,-220.92 932.44,-225.63 941.5,-230.1 950.13,-234.36 959.3,-238.98 968.1,-243.46"/>
<polygon fill="black" stroke="black" points="966.37,-246.51 976.86,-247.94 969.55,-240.27 966.37,-246.51"/>
</g>
<!-- proptest -->
<g id="node44" class="node">
<title>proptest</title>
<polygon fill="none" stroke="black" points="95.88,-2516.1 25.12,-2516.1 25.12,-2480.1 95.88,-2480.1 95.88,-2516.1"/>
<text text-anchor="middle" x="60.5" y="-2493.8" font-family="sans-serif" font-size="14.00">proptest</text>
</g>
<!-- pure&#45;trusted -->
<g id="node48" class="node">
<title>pure&#45;trusted</title>
<polygon fill="#ffd6d6" stroke="black" points="1433,-796.1 1333.75,-796.1 1333.75,-760.1 1433,-760.1 1433,-796.1"/>
<text text-anchor="middle" x="1383.38" y="-773.8" font-family="sans-serif" font-size="14.00">pure&#45;trusted</text>
</g>
<!-- pure&#45;&gt;pure&#45;trusted -->
<g id="edge124" class="edge">
<title>pure&#45;&gt;pure&#45;trusted</title>
<path fill="none" stroke="black" d="M1278.18,-776.51C1290.9,-776.7 1306.71,-776.94 1322.14,-777.18"/>
<polygon fill="black" stroke="black" points="1321.69,-780.67 1331.75,-777.33 1321.8,-773.67 1321.69,-780.67"/>
</g>
<!-- pure&#45;eval&#45;&gt;pure -->
<g id="edge125" class="edge">
<title>pure&#45;eval&#45;&gt;pure</title>
<path fill="none" stroke="black" d="M1168.12,-807.17C1182.51,-801.69 1198.74,-795.51 1212.91,-790.12"/>
<polygon fill="black" stroke="black" points="1213.77,-793.54 1221.87,-786.71 1211.28,-787 1213.77,-793.54"/>
</g>
<!-- pure&#45;eval&#45;&gt;types -->
<g id="edge126" class="edge">
<title>pure&#45;eval&#45;&gt;types</title>
<path fill="none" stroke="black" d="M1168.12,-819.11C1227.86,-816.1 1344.05,-816.35 1433,-854.1 1446.84,-859.98 1459.95,-870.03 1470.51,-879.74"/>
<polygon fill="black" stroke="black" points="1468.04,-882.22 1477.66,-886.66 1472.91,-877.19 1468.04,-882.22"/>
</g>
<!-- pure&#45;trusted&#45;&gt;types -->
<g id="edge127" class="edge">
<title>pure&#45;trusted&#45;&gt;types</title>
<path fill="none" stroke="black" d="M1414.59,-796.57C1421.04,-801.22 1427.54,-806.49 1433,-812.1 1452.07,-831.7 1468.81,-857.94 1480.07,-877.71"/>
<polygon fill="black" stroke="black" points="1476.95,-879.3 1484.86,-886.35 1483.07,-875.91 1476.95,-879.3"/>
</g>
<!-- python -->
<g id="node49" class="node">
<title>python</title>
<polygon fill="none" stroke="black" points="91.38,-2354.1 29.62,-2354.1 29.62,-2318.1 91.38,-2318.1 91.38,-2354.1"/>
<text text-anchor="middle" x="60.5" y="-2331.8" font-family="sans-serif" font-size="14.00">python</text>
</g>
<!-- python&#45;&gt;crypto&#45;sig -->
<g id="edge128" class="edge">
<title>python&#45;&gt;crypto&#45;sig</title>
<path fill="none" stroke="black" d="M91.64,-2343.68C102.34,-2347.78 113.55,-2353.95 121,-2363.1 167.01,-2419.64 115.51,-2463.17 157,-2523.1 157.14,-2523.3 157.28,-2523.5 157.43,-2523.7"/>
<polygon fill="black" stroke="black" points="154.64,-2525.84 163.99,-2530.81 159.78,-2521.09 154.64,-2525.84"/>
</g>
<!-- python&#45;&gt;git -->
<g id="edge129" class="edge">
<title>python&#45;&gt;git</title>
<path fill="none" stroke="black" d="M91.75,-2327.97C147.53,-2312.61 269.94,-2277.14 369,-2236.1 383.78,-2229.98 399.56,-2222.23 413.2,-2215.11"/>
<polygon fill="black" stroke="black" points="414.62,-2218.32 421.82,-2210.55 411.35,-2212.13 414.62,-2218.32"/>
</g>
<!-- python&#45;&gt;graph -->
<g id="edge130" class="edge">
<title>python&#45;&gt;graph</title>
<path fill="none" stroke="black" d="M91.82,-2345.58C101.92,-2349.79 112.7,-2355.54 121,-2363.1 144.84,-2384.82 131.2,-2406.76 157,-2426.1 234.16,-2483.94 352.23,-2494.76 412.02,-2496.3"/>
<polygon fill="black" stroke="black" points="411.59,-2499.79 421.65,-2496.47 411.72,-2492.79 411.59,-2499.79"/>
</g>
<!-- python&#45;&gt;hash -->
<g id="edge131" class="edge">
<title>python&#45;&gt;hash</title>
<path fill="none" stroke="black" d="M91.82,-2349.89C114.75,-2360.17 144.36,-2373.09 157,-2377.1 228.51,-2399.79 247.11,-2412.1 322.12,-2412.1 322.12,-2412.1 322.12,-2412.1 451.5,-2412.1 536.41,-2412.1 567.69,-2423.41 639.5,-2378.1 662.66,-2363.49 653.59,-2344.53 675.5,-2328.1 710.67,-2301.72 737.21,-2325.73 768.75,-2295.1 804.09,-2260.78 846.68,-2119.53 864.11,-2057.52"/>
<polygon fill="black" stroke="black" points="867.44,-2058.59 866.75,-2048.02 860.7,-2056.72 867.44,-2058.59"/>
</g>
<!-- python&#45;&gt;kv -->
<g id="edge132" class="edge">
<title>python&#45;&gt;kv</title>
<path fill="none" stroke="black" d="M91.69,-2344.41C102.13,-2348.57 113.17,-2354.58 121,-2363.1 153.26,-2398.18 129.08,-2425.48 157,-2464.1 158.89,-2466.71 161.05,-2469.22 163.37,-2471.59"/>
<polygon fill="black" stroke="black" points="160.82,-2474.01 170.57,-2478.13 165.52,-2468.82 160.82,-2474.01"/>
</g>
<!-- python&#45;&gt;llm -->
<g id="edge133" class="edge">
<title>python&#45;&gt;llm</title>
<path fill="none" stroke="black" d="M77.17,-2317.75C101.26,-2289.54 147.51,-2235.37 175.32,-2202.81"/>
<polygon fill="black" stroke="black" points="177.82,-2205.27 181.65,-2195.39 172.5,-2200.72 177.82,-2205.27"/>
</g>
<!-- python&#45;&gt;object -->
<g id="edge134" class="edge">
<title>python&#45;&gt;object</title>
<path fill="none" stroke="black" d="M63.14,-2318.06C70.84,-2245.17 110.4,-1970.94 277.25,-1859.1 344.21,-1814.22 570.81,-1797.91 639.5,-1840.1 669.65,-1858.62 652.52,-1884.2 675.5,-1911.1 678.2,-1914.26 681.26,-1917.28 684.49,-1920.12"/>
<polygon fill="black" stroke="black" points="682.12,-1922.71 692.1,-1926.24 686.5,-1917.25 682.12,-1922.71"/>
</g>
<!-- python&#45;&gt;repl -->
<g id="edge135" class="edge">
<title>python&#45;&gt;repl</title>
<path fill="none" stroke="black" d="M68.49,-2317.69C82.25,-2282.79 115.17,-2205.45 157,-2149.1 187.96,-2107.39 211.42,-2110.63 241.25,-2068.1 275.79,-2018.84 300.74,-1952.47 313.18,-1915"/>
<polygon fill="black" stroke="black" points="316.41,-1916.38 316.17,-1905.79 309.75,-1914.22 316.41,-1916.38"/>
</g>
<!-- python&#45;&gt;sat -->
<g id="edge136" class="edge">
<title>python&#45;&gt;sat</title>
<path fill="none" stroke="black" d="M63.33,-2317.67C71.13,-2242.19 103.66,-1957.42 157,-1887.1 320.75,-1671.2 712.42,-1723.79 834.88,-1746.46"/>
<polygon fill="black" stroke="black" points="833.91,-1749.84 844.38,-1748.27 835.21,-1742.96 833.91,-1749.84"/>
</g>
<!-- python&#45;&gt;serve -->
<g id="edge137" class="edge">
<title>python&#45;&gt;serve</title>
<path fill="none" stroke="black" d="M62.25,-2317.66C65.68,-2246.11 82.96,-1980.73 157,-1778.1 162.38,-1763.37 170.85,-1748.22 178.71,-1735.8"/>
<polygon fill="black" stroke="black" points="181.43,-1738.04 183.98,-1727.75 175.58,-1734.2 181.43,-1738.04"/>
</g>
<!-- python&#45;&gt;sexp -->
<g id="edge138" class="edge">
<title>python&#45;&gt;sexp</title>
<path fill="none" stroke="black" d="M63.34,-2317.8C74.75,-2205.05 135.95,-1608.36 157,-1576.1 191.04,-1523.93 221.24,-1531.36 277.25,-1504.1 523.5,-1384.27 863.64,-1372.29 976.04,-1371.79"/>
<polygon fill="black" stroke="black" points="975.89,-1375.29 985.89,-1371.78 975.88,-1368.29 975.89,-1375.29"/>
</g>
<!-- python&#45;&gt;shell -->
<g id="edge139" class="edge">
<title>python&#45;&gt;shell</title>
<path fill="none" stroke="black" d="M62.69,-2317.62C68.95,-2223.63 100.03,-1798.59 157,-1681.1 190.91,-1611.16 213.28,-1598.27 277.25,-1554.1 319.67,-1524.81 375.87,-1504.12 412.35,-1492.66"/>
<polygon fill="black" stroke="black" points="413.02,-1496.11 421.55,-1489.84 410.97,-1489.42 413.02,-1496.11"/>
</g>
<!-- python&#45;&gt;store -->
<g id="edge140" class="edge">
<title>python&#45;&gt;store</title>
<path fill="none" stroke="black" d="M91.79,-2343.43C140.16,-2354.47 237.99,-2374.1 322.12,-2374.1 322.12,-2374.1 322.12,-2374.1 451.5,-2374.1 535.73,-2374.1 567.12,-2393.18 639.5,-2350.1 663.03,-2336.1 656.02,-2319.34 675.5,-2300.1 678.66,-2296.98 682.16,-2293.95 685.77,-2291.07"/>
<polygon fill="black" stroke="black" points="687.71,-2293.99 693.63,-2285.2 683.52,-2288.38 687.71,-2293.99"/>
</g>
<!-- python&#45;&gt;wasm -->
<g id="edge141" class="edge">
<title>python&#45;&gt;wasm</title>
<path fill="none" stroke="black" d="M91.72,-2343.26C102.56,-2347.32 113.85,-2353.58 121,-2363.1 188.39,-2452.88 89.62,-2523.31 157,-2613.1 205.38,-2677.57 241.52,-2688.1 322.12,-2688.1 322.12,-2688.1 322.12,-2688.1 586.75,-2688.1 746.96,-2688.1 816.61,-2724.45 941.5,-2624.1 986.23,-2588.17 1003.61,-2519.7 1010.11,-2480.54"/>
<polygon fill="black" stroke="black" points="1013.53,-2481.3 1011.56,-2470.89 1006.61,-2480.25 1013.53,-2481.3"/>
</g>
<!-- wasm&#45;store -->
<g id="node68" class="node">
<title>wasm&#45;store</title>
<polygon fill="none" stroke="black" points="633.12,-2603.1 538.38,-2603.1 538.38,-2567.1 633.12,-2567.1 633.12,-2603.1"/>
<text text-anchor="middle" x="585.75" y="-2580.8" font-family="sans-serif" font-size="14.00">wasm&#45;store</text>
</g>
<!-- python&#45;&gt;wasm&#45;store -->
<g id="edge142" class="edge">
<title>python&#45;&gt;wasm&#45;store</title>
<path fill="none" stroke="black" d="M91.6,-2343.35C102.42,-2347.42 113.74,-2353.66 121,-2363.1 179.81,-2439.55 83.95,-2514.13 157,-2577.1 260.69,-2666.48 436.8,-2631.31 527.3,-2604.6"/>
<polygon fill="black" stroke="black" points="528.16,-2607.99 536.72,-2601.75 526.13,-2601.29 528.16,-2607.99"/>
</g>
<!-- repl&#45;&gt;arrow -->
<g id="edge143" class="edge">
<title>repl&#45;&gt;arrow</title>
<path fill="none" stroke="black" d="M350.55,-1886.91C396.99,-1888.34 493.38,-1891.3 546.89,-1892.94"/>
<polygon fill="black" stroke="black" points="546.64,-1896.43 556.74,-1893.24 546.85,-1889.44 546.64,-1896.43"/>
</g>
<!-- repl&#45;&gt;forsp -->
<g id="edge144" class="edge">
<title>repl&#45;&gt;forsp</title>
<path fill="none" stroke="black" d="M331.41,-1867.98C352.31,-1815.96 412.63,-1665.86 438.02,-1602.68"/>
<polygon fill="black" stroke="black" points="441.15,-1604.26 441.63,-1593.68 434.66,-1601.65 441.15,-1604.26"/>
</g>
<!-- repl&#45;&gt;git -->
<g id="edge145" class="edge">
<title>repl&#45;&gt;git</title>
<path fill="none" stroke="black" d="M331.59,-1904.51C352.63,-1956.35 412.49,-2103.9 437.89,-2166.48"/>
<polygon fill="black" stroke="black" points="434.5,-2167.44 441.5,-2175.39 440.99,-2164.81 434.5,-2167.44"/>
</g>
<!-- repl&#45;&gt;graph -->
<g id="edge146" class="edge">
<title>repl&#45;&gt;graph</title>
<path fill="none" stroke="black" d="M327.88,-1904.36C345.63,-1990.73 421.25,-2358.63 443.39,-2466.35"/>
<polygon fill="black" stroke="black" points="439.95,-2467.05 445.4,-2476.14 446.81,-2465.64 439.95,-2467.05"/>
</g>
<!-- repl&#45;&gt;hash -->
<g id="edge147" class="edge">
<title>repl&#45;&gt;hash</title>
<path fill="none" stroke="black" d="M338.72,-1904.4C353.5,-1921.54 377.97,-1946.36 405,-1959.1 414.77,-1963.71 725.24,-2007.52 834.52,-2022.84"/>
<polygon fill="black" stroke="black" points="833.76,-2026.27 844.14,-2024.19 834.73,-2019.34 833.76,-2026.27"/>
</g>
<!-- repl&#45;&gt;init -->
<g id="edge148" class="edge">
<title>repl&#45;&gt;init</title>
<path fill="none" stroke="black" d="M330.05,-1867.63C339.19,-1838.72 356.94,-1780.93 369,-1731.1 388.61,-1650.11 352.33,-1611.67 405,-1547.1 432.7,-1513.14 470,-1544.38 496,-1509.1 596.12,-1373.25 430.86,-1266.2 532,-1131.1 562.84,-1089.91 604.45,-1125.78 639.5,-1088.1 675.4,-1049.51 641.3,-1015.21 675.5,-975.1 678.25,-971.87 681.57,-969.05 685.14,-966.59"/>
<polygon fill="black" stroke="black" points="686.76,-969.7 693.68,-961.67 683.27,-963.63 686.76,-969.7"/>
</g>
<!-- repl&#45;&gt;object -->
<g id="edge149" class="edge">
<title>repl&#45;&gt;object</title>
<path fill="none" stroke="black" d="M350.28,-1876.37C406.49,-1857.15 541.61,-1820.05 639.5,-1867.1 662.58,-1878.2 656.83,-1894.57 675.5,-1912.1 678.18,-1914.62 681.07,-1917.09 684.05,-1919.48"/>
<polygon fill="black" stroke="black" points="681.83,-1922.19 691.92,-1925.44 686.06,-1916.61 681.83,-1922.19"/>
</g>
<!-- repl&#45;&gt;parquet -->
<g id="edge150" class="edge">
<title>repl&#45;&gt;parquet</title>
<path fill="none" stroke="black" d="M350.41,-1895.74C366.49,-1901.65 387.48,-1909.34 405.99,-1916.14"/>
<polygon fill="black" stroke="black" points="404.53,-1919.33 415.13,-1919.49 406.94,-1912.76 404.53,-1919.33"/>
</g>
<!-- repl&#45;&gt;shell -->
<g id="edge151" class="edge">
<title>repl&#45;&gt;shell</title>
<path fill="none" stroke="black" d="M330.22,-1867.67C339.6,-1838.82 357.66,-1781.1 369,-1731.1 390.63,-1635.76 353.41,-1597.14 405,-1514.1 407.54,-1510.01 410.82,-1506.28 414.44,-1502.94"/>
<polygon fill="black" stroke="black" points="416.52,-1505.76 422.15,-1496.78 412.15,-1500.29 416.52,-1505.76"/>
</g>
<!-- repl&#45;&gt;wasm -->
<g id="edge152" class="edge">
<title>repl&#45;&gt;wasm</title>
<path fill="none" stroke="black" d="M326.21,-1904.18C333.77,-1966.88 361.61,-2173.77 405,-2222.1 574.2,-2410.54 709.08,-2313.5 941.5,-2414.1 953.38,-2419.24 966.04,-2425.46 977.39,-2431.32"/>
<polygon fill="black" stroke="black" points="975.56,-2434.31 986.04,-2435.85 978.81,-2428.11 975.56,-2434.31"/>
</g>
<!-- sat&#45;&gt;parse -->
<g id="edge153" class="edge">
<title>sat&#45;&gt;parse</title>
<path fill="none" stroke="black" d="M900.22,-1756.37C945.15,-1760.28 1037.29,-1768.3 1089.19,-1772.82"/>
<polygon fill="black" stroke="black" points="1088.77,-1776.3 1099.03,-1773.68 1089.37,-1769.32 1088.77,-1776.3"/>
</g>
<!-- sat&#45;&gt;types -->
<g id="edge154" class="edge">
<title>sat&#45;&gt;types</title>
<path fill="none" stroke="black" d="M900.61,-1749.92C946.54,-1743.04 1044.01,-1730.1 1126.88,-1730.1 1126.88,-1730.1 1126.88,-1730.1 1251.75,-1730.1 1336.89,-1730.1 1380.72,-1735.3 1433,-1668.1 1478.69,-1609.37 1491.91,-1068.83 1494.48,-935.65"/>
<polygon fill="black" stroke="black" points="1497.98,-935.97 1494.67,-925.91 1490.98,-935.84 1497.98,-935.97"/>
</g>
<!-- sat&#45;&gt;wasm -->
<g id="edge155" class="edge">
<title>sat&#45;&gt;wasm</title>
<path fill="none" stroke="black" d="M900.51,-1757.96C914.91,-1761.5 931.76,-1768.25 941.5,-1781.1 951.36,-1794.11 998.99,-2294.18 1011,-2421.73"/>
<polygon fill="black" stroke="black" points="1007.48,-2421.75 1011.9,-2431.38 1014.45,-2421.09 1007.48,-2421.75"/>
</g>
<!-- serve&#45;&gt;core -->
<g id="edge156" class="edge">
<title>serve&#45;&gt;core</title>
<path fill="none" stroke="black" d="M200.53,-1689.68C203.02,-1585.57 218.18,-1070.47 277.25,-925.1 364.54,-710.29 462.95,-680.75 675.5,-588.1 784.66,-540.52 826.85,-523.94 941.5,-556.1 955.53,-560.04 969.54,-567.53 981.43,-575.23"/>
<polygon fill="black" stroke="black" points="979.4,-578.08 989.63,-580.83 983.34,-572.3 979.4,-578.08"/>
</g>
<!-- serve&#45;&gt;forsp -->
<g id="edge157" class="edge">
<title>serve&#45;&gt;forsp</title>
<path fill="none" stroke="black" d="M218.84,-1689.75C233.73,-1675.87 255.6,-1657.06 277.25,-1644.1 321.18,-1617.81 376.79,-1597.23 412.74,-1585.37"/>
<polygon fill="black" stroke="black" points="413.36,-1588.85 421.8,-1582.44 411.2,-1582.19 413.36,-1588.85"/>
</g>
<!-- serve&#45;&gt;git -->
<g id="edge158" class="edge">
<title>serve&#45;&gt;git</title>
<path fill="none" stroke="black" d="M202.28,-1726.39C208.36,-1773.06 228.48,-1899.41 277.25,-1992.1 297.57,-2030.72 381.63,-2122.81 424.34,-2168.48"/>
<polygon fill="black" stroke="black" points="421.63,-2170.71 431.02,-2175.61 426.74,-2165.92 421.63,-2170.71"/>
</g>
<!-- serve&#45;&gt;hash -->
<g id="edge159" class="edge">
<title>serve&#45;&gt;hash</title>
<path fill="none" stroke="black" d="M202.58,-1726.51C208.62,-1765.37 227.52,-1856.83 277.25,-1913.1 319.71,-1961.14 344.21,-1959.72 405,-1980.1 557.9,-2031.36 753.41,-2032.06 834.39,-2029.73"/>
<polygon fill="black" stroke="black" points="834.32,-2033.24 844.2,-2029.41 834.09,-2026.24 834.32,-2033.24"/>
</g>
<!-- serve&#45;&gt;init -->
<g id="edge160" class="edge">
<title>serve&#45;&gt;init</title>
<path fill="none" stroke="black" d="M208.96,-1689.74C256.2,-1591.78 478.97,-1133.4 532,-1088.1 570.53,-1055.19 601.79,-1083.95 639.5,-1050.1 667.01,-1025.4 649.61,-1001.5 675.5,-975.1 678.4,-972.14 681.77,-969.49 685.33,-967.15"/>
<polygon fill="black" stroke="black" points="686.76,-970.36 693.71,-962.37 683.29,-964.28 686.76,-970.36"/>
</g>
<!-- serve&#45;&gt;lisp -->
<g id="edge161" class="edge">
<title>serve&#45;&gt;lisp</title>
<path fill="none" stroke="black" d="M206.17,-1689.79C239.28,-1589.41 398.75,-1105.97 439.83,-981.42"/>
<polygon fill="black" stroke="black" points="443.14,-982.54 442.95,-971.95 436.5,-980.35 443.14,-982.54"/>
</g>
<!-- serve&#45;&gt;metamath -->
<g id="edge162" class="edge">
<title>serve&#45;&gt;metamath</title>
<path fill="none" stroke="black" d="M226.42,-1697.17C241.27,-1691.09 260.22,-1683.48 277.25,-1677.1 373.64,-1641.01 420.08,-1670.59 496,-1601.1 524.76,-1574.78 500.12,-1543.55 532,-1521.1 577.28,-1489.21 737.9,-1489.5 821.19,-1491.98"/>
<polygon fill="black" stroke="black" points="821.03,-1495.47 831.14,-1492.3 821.26,-1488.48 821.03,-1495.47"/>
</g>
<!-- serve&#45;&gt;object -->
<g id="edge163" class="edge">
<title>serve&#45;&gt;object</title>
<path fill="none" stroke="black" d="M226.34,-1716.72C241.17,-1721.39 260.12,-1727.02 277.25,-1731.1 356.81,-1750.04 578.21,-1741.95 639.5,-1796.1 679.95,-1831.85 643.7,-1868.48 675.5,-1912.1 677.98,-1915.51 680.94,-1918.68 684.14,-1921.6"/>
<polygon fill="black" stroke="black" points="681.85,-1924.25 691.84,-1927.78 686.24,-1918.79 681.85,-1924.25"/>
</g>
<!-- serve&#45;&gt;proto -->
<g id="edge164" class="edge">
<title>serve&#45;&gt;proto</title>
<path fill="none" stroke="black" d="M201.53,-1726.54C207.43,-1800.15 231.95,-2072.36 277.25,-2144.1 279.84,-2148.2 283.15,-2151.92 286.81,-2155.27"/>
<polygon fill="black" stroke="black" points="284.59,-2157.97 294.6,-2161.43 288.93,-2152.48 284.59,-2157.97"/>
</g>
<!-- serve&#45;&gt;repl -->
<g id="edge165" class="edge">
<title>serve&#45;&gt;repl</title>
<path fill="none" stroke="black" d="M226.33,-1725.91C231.63,-1730.19 236.9,-1735.01 241.25,-1740.1 245.54,-1745.11 284.67,-1816.9 306.89,-1857.91"/>
<polygon fill="black" stroke="black" points="303.71,-1859.39 311.55,-1866.52 309.87,-1856.06 303.71,-1859.39"/>
</g>
<!-- serve&#45;&gt;shell -->
<g id="edge166" class="edge">
<title>serve&#45;&gt;shell</title>
<path fill="none" stroke="black" d="M208.63,-1689.99C220.77,-1665.85 245.21,-1623.16 277.25,-1597.1 311.63,-1569.15 333.55,-1584.69 369,-1558.1 389.21,-1542.94 386.59,-1531.4 405,-1514.1 407.86,-1511.41 410.95,-1508.76 414.13,-1506.2"/>
<polygon fill="black" stroke="black" points="416.16,-1509.06 421.98,-1500.21 411.91,-1503.49 416.16,-1509.06"/>
</g>
<!-- serve&#45;&gt;store -->
<g id="edge167" class="edge">
<title>serve&#45;&gt;store</title>
<path fill="none" stroke="black" d="M200.31,-1726.49C201.61,-1781.51 211.13,-1948.2 277.25,-2064.1 304.8,-2112.38 335.76,-2104.54 369,-2149.1 390.63,-2178.1 377.54,-2198.55 405,-2222.1 484.46,-2290.25 618.6,-2282.91 683.59,-2274.35"/>
<polygon fill="black" stroke="black" points="683.98,-2277.83 693.4,-2272.97 683.01,-2270.9 683.98,-2277.83"/>
</g>
<!-- sexp&#45;&gt;parse -->
<g id="edge168" class="edge">
<title>sexp&#45;&gt;parse</title>
<path fill="none" stroke="black" d="M1020.81,-1390.51C1038.46,-1454.67 1097.36,-1668.79 1118.9,-1747.1"/>
<polygon fill="black" stroke="black" points="1115.48,-1747.87 1121.51,-1756.59 1122.23,-1746.02 1115.48,-1747.87"/>
</g>
<!-- sexp&#45;&gt;types -->
<g id="edge169" class="edge">
<title>sexp&#45;&gt;types</title>
<path fill="none" stroke="black" d="M1042.18,-1370.85C1116.42,-1365.81 1328.21,-1340.83 1433,-1218.1 1469.28,-1175.61 1486.94,-1005.36 1492.75,-935.87"/>
<polygon fill="black" stroke="black" points="1496.23,-936.25 1493.55,-926 1489.26,-935.68 1496.23,-936.25"/>
</g>
<!-- sexpr&#45;api&#45;&gt;inductive -->
<g id="edge170" class="edge">
<title>sexpr&#45;api&#45;&gt;inductive</title>
<path fill="none" stroke="black" d="M761.11,-261.79C780.1,-266.63 803.29,-272.55 823.56,-277.71"/>
<polygon fill="black" stroke="black" points="822.45,-281.04 833,-280.12 824.18,-274.26 822.45,-281.04"/>
</g>
<!-- sexpr&#45;parsing -->
<g id="node57" class="node">
<title>sexpr&#45;parsing</title>
<polygon fill="none" stroke="black" points="639.5,-228.1 532,-228.1 532,-192.1 639.5,-192.1 639.5,-228.1"/>
<text text-anchor="middle" x="585.75" y="-205.8" font-family="sans-serif" font-size="14.00">sexpr&#45;parsing</text>
</g>
<!-- sexpr&#45;parsing&#45;&gt;logic&#45;api -->
<g id="edge171" class="edge">
<title>sexpr&#45;parsing&#45;&gt;logic&#45;api</title>
<path fill="none" stroke="black" d="M594.38,-191.9C606.83,-164.93 634.31,-115.34 675.5,-95.1 712.7,-76.82 728.19,-86.57 768.75,-95.1 850.83,-112.36 875.76,-119.01 941.5,-171.1 965.25,-189.91 985.3,-218.28 998.21,-239.3"/>
<polygon fill="black" stroke="black" points="995.06,-240.86 1003.19,-247.66 1001.08,-237.28 995.06,-240.86"/>
</g>
<!-- sexpr&#45;parsing&#45;&gt;parsing&#45;api -->
<g id="edge172" class="edge">
<title>sexpr&#45;parsing&#45;&gt;parsing&#45;api</title>
<path fill="none" stroke="black" d="M639.99,-197.51C651.62,-195.26 663.92,-193.26 675.5,-192.1 722.67,-187.37 776.49,-189.53 815.88,-192.5"/>
<polygon fill="black" stroke="black" points="815.35,-195.97 825.6,-193.28 815.91,-188.99 815.35,-195.97"/>
</g>
<!-- sexpr&#45;parsing&#45;&gt;sexp -->
<g id="edge173" class="edge">
<title>sexpr&#45;parsing&#45;&gt;sexp</title>
<path fill="none" stroke="black" d="M593.06,-228.5C603.44,-259.13 624.48,-322.58 639.5,-377.1 705.95,-618.35 725.7,-678.59 768.75,-925.1 780.83,-994.29 758.22,-1186.49 804.75,-1239.1 846.17,-1285.94 889.58,-1237.27 941.5,-1272.1 968.06,-1289.92 988.22,-1320.99 1000.41,-1343.77"/>
<polygon fill="black" stroke="black" points="997.23,-1345.24 1004.9,-1352.55 1003.46,-1342.05 997.23,-1345.24"/>
</g>
<!-- sexpr&#45;parsing&#45;&gt;sexpr&#45;api -->
<g id="edge174" class="edge">
<title>sexpr&#45;parsing&#45;&gt;sexpr&#45;api</title>
<path fill="none" stroke="black" d="M639.86,-226.7C650.53,-230.04 661.7,-233.53 672.22,-236.81"/>
<polygon fill="black" stroke="black" points="670.87,-240.06 681.45,-239.7 672.95,-233.38 670.87,-240.06"/>
</g>
<!-- shell&#45;&gt;hol -->
<g id="edge175" class="edge">
<title>shell&#45;&gt;hol</title>
<path fill="none" stroke="black" d="M452.2,-1463.75C455.87,-1374.96 474.86,-990.1 532,-887.1 572.19,-814.65 604.42,-810.67 675.5,-768.1 713.89,-745.11 738.11,-762.72 768.75,-730.1 803.1,-693.53 769.35,-658.66 804.75,-623.1 812.84,-614.98 823.92,-609.72 834.75,-606.32"/>
<polygon fill="black" stroke="black" points="835.57,-609.72 844.35,-603.79 833.79,-602.95 835.57,-609.72"/>
</g>
<!-- shell&#45;&gt;kernel -->
<g id="edge176" class="edge">
<title>shell&#45;&gt;kernel</title>
<path fill="none" stroke="black" d="M477.83,-1495.14C497.47,-1504.87 524.6,-1518.31 546.61,-1529.21"/>
<polygon fill="black" stroke="black" points="544.77,-1532.2 555.28,-1533.51 547.87,-1525.93 544.77,-1532.2"/>
</g>
<!-- smt&#45;&gt;sat -->
<g id="edge177" class="edge">
<title>smt&#45;&gt;sat</title>
<path fill="none" stroke="black" d="M730.8,-1588.6C746.45,-1625.59 782.44,-1706.88 804.75,-1727.1 813.27,-1734.83 824.29,-1740.47 834.93,-1744.55"/>
<polygon fill="black" stroke="black" points="833.74,-1747.84 844.33,-1747.75 836,-1741.21 833.74,-1747.84"/>
</g>
<!-- smt&#45;&gt;sexp -->
<g id="edge178" class="edge">
<title>smt&#45;&gt;sexp</title>
<path fill="none" stroke="black" d="M749.32,-1576.33C793.6,-1585.25 884.03,-1596.27 941.5,-1554.1 990.64,-1518.04 1006.39,-1443.21 1011.41,-1401.61"/>
<polygon fill="black" stroke="black" points="1014.88,-1402.15 1012.45,-1391.84 1007.92,-1401.41 1014.88,-1402.15"/>
</g>
<!-- smt&#45;&gt;types -->
<g id="edge179" class="edge">
<title>smt&#45;&gt;types</title>
<path fill="none" stroke="black" d="M749.35,-1577.09C800.04,-1589.96 915.16,-1616.1 1013.75,-1616.1 1013.75,-1616.1 1013.75,-1616.1 1251.75,-1616.1 1398,-1616.1 1474.81,-1070.12 1491.5,-935.72"/>
<polygon fill="black" stroke="black" points="1494.96,-936.22 1492.7,-925.87 1488.02,-935.37 1494.96,-936.22"/>
</g>
<!-- spectec&#45;&gt;grammar -->
<g id="edge180" class="edge">
<title>spectec&#45;&gt;grammar</title>
<path fill="none" stroke="black" d="M908.2,-965.05C919.37,-970.11 931.47,-976.54 941.5,-984.1 961.95,-999.52 980.93,-1021.48 994.29,-1038.8"/>
<polygon fill="black" stroke="black" points="991.4,-1040.77 1000.21,-1046.66 996.99,-1036.56 991.4,-1040.77"/>
</g>
<!-- store&#45;&gt;hash -->
<g id="edge181" class="edge">
<title>store&#45;&gt;hash</title>
<path fill="none" stroke="black" d="M734.57,-2249.67C760.52,-2207.87 823.95,-2105.7 854.76,-2056.07"/>
<polygon fill="black" stroke="black" points="857.54,-2058.23 859.84,-2047.88 851.6,-2054.53 857.54,-2058.23"/>
</g>
<!-- store&#45;&gt;json -->
<g id="edge182" class="edge">
<title>store&#45;&gt;json</title>
<path fill="none" stroke="black" d="M729.03,-2286.5C745.68,-2338.19 792.63,-2482.2 804.75,-2501.1 814.07,-2515.63 827.25,-2529.3 839.49,-2540.31"/>
<polygon fill="black" stroke="black" points="837.18,-2542.94 847.02,-2546.84 841.76,-2537.65 837.18,-2542.94"/>
</g>
<!-- store&#45;&gt;sqlite -->
<g id="edge183" class="edge">
<title>store&#45;&gt;sqlite</title>
<path fill="none" stroke="black" d="M749.42,-2268.1C773.07,-2268.1 808.08,-2268.1 834.66,-2268.1"/>
<polygon fill="black" stroke="black" points="834.33,-2271.6 844.33,-2268.1 834.33,-2264.6 834.33,-2271.6"/>
</g>
<!-- tcb&#45;db -->
<g id="node63" class="node">
<title>tcb&#45;db</title>
<polygon fill="none" stroke="black" points="752.25,-2508.1 692,-2508.1 692,-2472.1 752.25,-2472.1 752.25,-2508.1"/>
<text text-anchor="middle" x="722.12" y="-2485.8" font-family="sans-serif" font-size="14.00">tcb&#45;db</text>
</g>
<!-- tcb&#45;db&#45;&gt;json -->
<g id="edge184" class="edge">
<title>tcb&#45;db&#45;&gt;json</title>
<path fill="none" stroke="black" d="M752.4,-2506.35C767.87,-2514.82 787.23,-2525.23 804.75,-2534.1 814.7,-2539.14 825.57,-2544.41 835.63,-2549.18"/>
<polygon fill="black" stroke="black" points="833.83,-2552.2 844.37,-2553.3 836.82,-2545.87 833.83,-2552.2"/>
</g>
<!-- tcb&#45;db&#45;&gt;sqlite -->
<g id="edge185" class="edge">
<title>tcb&#45;db&#45;&gt;sqlite</title>
<path fill="none" stroke="black" d="M752.39,-2476.04C758.25,-2472.36 764.05,-2468.03 768.75,-2463.1 793.6,-2437.06 837.65,-2344.22 859.34,-2296.65"/>
<polygon fill="black" stroke="black" points="862.41,-2298.34 863.35,-2287.79 856.04,-2295.45 862.41,-2298.34"/>
</g>
<!-- wasm&#45;build&#45;guest -->
<g id="node66" class="node">
<title>wasm&#45;build&#45;guest</title>
<polygon fill="none" stroke="black" points="941.5,-2492.1 804.75,-2492.1 804.75,-2456.1 941.5,-2456.1 941.5,-2492.1"/>
<text text-anchor="middle" x="873.12" y="-2469.8" font-family="sans-serif" font-size="14.00">wasm&#45;build&#45;guest</text>
</g>
<!-- wasm&#45;build&#45;guest&#45;&gt;wasm -->
<g id="edge186" class="edge">
<title>wasm&#45;build&#45;guest&#45;&gt;wasm</title>
<path fill="none" stroke="black" d="M941.89,-2462.94C953.6,-2461.01 965.39,-2459.07 975.94,-2457.33"/>
<polygon fill="black" stroke="black" points="976.45,-2460.79 985.75,-2455.71 975.32,-2453.88 976.45,-2460.79"/>
</g>
<!-- wasm&#45;spec -->
<g id="node67" class="node">
<title>wasm&#45;spec</title>
<polygon fill="none" stroke="black" points="768.75,-2454.1 675.5,-2454.1 675.5,-2418.1 768.75,-2418.1 768.75,-2454.1"/>
<text text-anchor="middle" x="722.12" y="-2431.8" font-family="sans-serif" font-size="14.00">wasm&#45;spec</text>
</g>
<!-- wasm&#45;spec&#45;&gt;hash -->
<g id="edge187" class="edge">
<title>wasm&#45;spec&#45;&gt;hash</title>
<path fill="none" stroke="black" d="M755.82,-2417.79C760.74,-2413.83 765.31,-2409.25 768.75,-2404.1 809.92,-2342.38 785.54,-2312.76 804.75,-2241.1 822.56,-2174.64 848.04,-2098 862.01,-2057.21"/>
<polygon fill="black" stroke="black" points="865.27,-2058.48 865.22,-2047.89 858.65,-2056.21 865.27,-2058.48"/>
</g>
<!-- wasm&#45;spec&#45;&gt;wasm -->
<g id="edge188" class="edge">
<title>wasm&#45;spec&#45;&gt;wasm</title>
<path fill="none" stroke="black" d="M756.74,-2454.53C760.9,-2457.23 765.01,-2460.12 768.75,-2463.1 786.94,-2477.61 783.38,-2491.91 804.75,-2501.1 860.58,-2525.12 883.49,-2519.22 941.5,-2501.1 957.55,-2496.09 973.18,-2486.12 985.77,-2476.4"/>
<polygon fill="black" stroke="black" points="987.62,-2479.4 993.18,-2470.38 983.21,-2473.96 987.62,-2479.4"/>
</g>
<!-- wasm&#45;store&#45;&gt;json -->
<g id="edge189" class="edge">
<title>wasm&#45;store&#45;&gt;json</title>
<path fill="none" stroke="black" d="M633.55,-2581.98C689.74,-2578.24 782.84,-2572.05 834.56,-2568.6"/>
<polygon fill="black" stroke="black" points="834.6,-2572.11 844.35,-2567.95 834.14,-2565.12 834.6,-2572.11"/>
</g>
<!-- wasm&#45;store&#45;&gt;store -->
<g id="edge190" class="edge">
<title>wasm&#45;store&#45;&gt;store</title>
<path fill="none" stroke="black" d="M594.56,-2566.69C616.96,-2513.83 681.6,-2361.33 708.82,-2297.13"/>
<polygon fill="black" stroke="black" points="712.03,-2298.53 712.71,-2287.96 705.58,-2295.8 712.03,-2298.53"/>
</g>
<!-- wasm&#45;store&#45;&gt;wasm -->
<g id="edge191" class="edge">
<title>wasm&#45;store&#45;&gt;wasm</title>
<path fill="none" stroke="black" d="M633.39,-2601.06C705.41,-2622.62 845.39,-2652.03 941.5,-2593.1 981.37,-2568.66 1000.09,-2514.57 1008.21,-2480.65"/>
<polygon fill="black" stroke="black" points="1011.59,-2481.57 1010.33,-2471.05 1004.75,-2480.06 1011.59,-2481.57"/>
</g>
<!-- web&#45;kernel -->
<g id="node69" class="node">
<title>web&#45;kernel</title>
<polygon fill="none" stroke="black" points="369,-970.1 277.25,-970.1 277.25,-934.1 369,-934.1 369,-970.1"/>
<text text-anchor="middle" x="323.12" y="-947.8" font-family="sans-serif" font-size="14.00">web&#45;kernel</text>
</g>
<!-- web&#45;kernel&#45;&gt;forsp -->
<g id="edge192" class="edge">
<title>web&#45;kernel&#45;&gt;forsp</title>
<path fill="none" stroke="black" d="M323.83,-970.17C323.28,-1041.42 326.81,-1308.85 405,-1509.1 410.19,-1522.4 418.55,-1535.67 426.63,-1546.71"/>
<polygon fill="black" stroke="black" points="423.8,-1548.77 432.65,-1554.59 429.36,-1544.52 423.8,-1548.77"/>
</g>
<!-- web&#45;kernel&#45;&gt;haskell -->
<g id="edge193" class="edge">
<title>web&#45;kernel&#45;&gt;haskell</title>
<path fill="none" stroke="black" d="M338.51,-933.75C360.52,-905.66 402.69,-851.84 428.24,-819.23"/>
<polygon fill="black" stroke="black" points="430.94,-821.46 434.35,-811.43 425.43,-817.14 430.94,-821.46"/>
</g>
<!-- web&#45;kernel&#45;&gt;hol&#45;api -->
<g id="edge194" class="edge">
<title>web&#45;kernel&#45;&gt;hol&#45;api</title>
<path fill="none" stroke="black" d="M325.99,-933.88C333.49,-863 363.09,-606.12 405,-537.1 437.88,-482.96 501.87,-443.8 543.95,-422.52"/>
<polygon fill="black" stroke="black" points="545.37,-425.73 552.79,-418.17 542.28,-419.45 545.37,-425.73"/>
</g>
<!-- web&#45;kernel&#45;&gt;kernel -->
<g id="edge195" class="edge">
<title>web&#45;kernel&#45;&gt;kernel</title>
<path fill="none" stroke="black" d="M332.21,-970.59C369.68,-1056.28 526.54,-1414.99 572.22,-1519.45"/>
<polygon fill="black" stroke="black" points="568.94,-1520.68 576.15,-1528.44 575.35,-1517.87 568.94,-1520.68"/>
</g>
<!-- web&#45;kernel&#45;&gt;lisp -->
<g id="edge196" class="edge">
<title>web&#45;kernel&#45;&gt;lisp</title>
<path fill="none" stroke="black" d="M369.39,-952.1C383.38,-952.1 398.64,-952.1 412.05,-952.1"/>
<polygon fill="black" stroke="black" points="411.76,-955.6 421.76,-952.1 411.76,-948.6 411.76,-955.6"/>
</g>
</g>
</svg>
