<?xml version="1.0" encoding="UTF-8" standalone="no"?>
<!DOCTYPE svg PUBLIC "-//W3C//DTD SVG 1.1//EN"
 "http://www.w3.org/Graphics/SVG/1.1/DTD/svg11.dtd">
<!-- Generated by graphviz version 12.2.1 (0)
 -->
<!-- Title: deps Pages: 1 -->
<svg width="1484pt" height="1799pt"
 viewBox="0.00 0.00 1484.25 1799.25" xmlns="http://www.w3.org/2000/svg" xmlns:xlink="http://www.w3.org/1999/xlink">
<g id="graph0" class="graph" transform="scale(1 1) rotate(0) translate(4 1795.25)">
<title>deps</title>
<polygon fill="white" stroke="none" points="-4,4 -4,-1795.25 1480.25,-1795.25 1480.25,4 -4,4"/>
<!-- covalence -->
<g id="node1" class="node">
<title>covalence</title>
<polygon fill="none" stroke="black" points="102.62,-802.5 18.38,-802.5 18.38,-766.5 102.62,-766.5 102.62,-802.5"/>
<text text-anchor="middle" x="60.5" y="-780.2" font-family="sans-serif" font-size="14.00">covalence</text>
</g>
<!-- client -->
<g id="node5" class="node">
<title>client</title>
<polygon fill="none" stroke="black" points="349.75,-737.5 295.75,-737.5 295.75,-701.5 349.75,-701.5 349.75,-737.5"/>
<text text-anchor="middle" x="322.75" y="-715.2" font-family="sans-serif" font-size="14.00">client</text>
</g>
<!-- covalence&#45;&gt;client -->
<g id="edge1" class="edge">
<title>covalence&#45;&gt;client</title>
<path fill="none" stroke="black" d="M102.94,-768.75C119.58,-762.81 139.04,-756.32 157,-751.5 200.17,-739.91 250.77,-730.72 284.38,-725.21"/>
<polygon fill="black" stroke="black" points="284.71,-728.71 294.03,-723.66 283.6,-721.8 284.71,-728.71"/>
</g>
<!-- fuse -->
<g id="node11" class="node">
<title>fuse</title>
<polygon fill="none" stroke="black" points="606.38,-981.5 552.38,-981.5 552.38,-945.5 606.38,-945.5 606.38,-981.5"/>
<text text-anchor="middle" x="579.38" y="-959.2" font-family="sans-serif" font-size="14.00">fuse</text>
</g>
<!-- covalence&#45;&gt;fuse -->
<g id="edge2" class="edge">
<title>covalence&#45;&gt;fuse</title>
<path fill="none" stroke="black" d="M102.98,-782.54C199.59,-778.83 435.96,-774.98 496,-822.5 536,-854.16 501.41,-890.67 532,-931.5 535.2,-935.78 539.15,-939.69 543.38,-943.19"/>
<polygon fill="black" stroke="black" points="540.97,-945.76 551.09,-948.9 545.13,-940.13 540.97,-945.76"/>
</g>
<!-- git -->
<g id="node12" class="node">
<title>git</title>
<polygon fill="none" stroke="black" points="477.12,-1355.5 423.12,-1355.5 423.12,-1319.5 477.12,-1319.5 477.12,-1355.5"/>
<text text-anchor="middle" x="450.12" y="-1333.2" font-family="sans-serif" font-size="14.00">git</text>
</g>
<!-- covalence&#45;&gt;git -->
<g id="edge3" class="edge">
<title>covalence&#45;&gt;git</title>
<path fill="none" stroke="black" d="M63.51,-802.65C69.76,-852.64 92.47,-994.98 157,-1091.5 195.63,-1149.28 218.64,-1154.13 277.25,-1191.5 314.97,-1215.55 336.18,-1203.31 368.25,-1234.5 393.61,-1259.17 381.18,-1278.68 404.25,-1305.5 407.12,-1308.83 410.4,-1312 413.86,-1314.95"/>
<polygon fill="black" stroke="black" points="411.44,-1317.51 421.48,-1320.9 415.74,-1311.99 411.44,-1317.51"/>
</g>
<!-- hash -->
<g id="node15" class="node">
<title>hash</title>
<polygon fill="none" stroke="black" points="887.38,-935.5 833.38,-935.5 833.38,-899.5 887.38,-899.5 887.38,-935.5"/>
<text text-anchor="middle" x="860.38" y="-913.2" font-family="sans-serif" font-size="14.00">hash</text>
</g>
<!-- covalence&#45;&gt;hash -->
<g id="edge4" class="edge">
<title>covalence&#45;&gt;hash</title>
<path fill="none" stroke="black" d="M77.99,-766.27C111.4,-730.86 191.28,-653.76 277.25,-625.5 343.57,-603.7 523.12,-640.29 626.75,-656.5 684.56,-665.55 714.78,-639.97 756,-681.5 817.77,-743.74 742.6,-803.05 792,-875.5 799.69,-886.78 811.5,-895.61 823.11,-902.21"/>
<polygon fill="black" stroke="black" points="821.31,-905.22 831.8,-906.73 824.55,-899.01 821.31,-905.22"/>
</g>
<!-- hol -->
<g id="node16" class="node">
<title>hol</title>
<polygon fill="none" stroke="black" points="887.38,-405.5 833.38,-405.5 833.38,-369.5 887.38,-369.5 887.38,-405.5"/>
<text text-anchor="middle" x="860.38" y="-383.2" font-family="sans-serif" font-size="14.00">hol</text>
</g>
<!-- covalence&#45;&gt;hol -->
<g id="edge5" class="edge">
<title>covalence&#45;&gt;hol</title>
<path fill="none" stroke="black" d="M63.07,-766.06C69.76,-691.93 98.24,-416.71 157,-356.5 209.7,-302.5 246.29,-315.5 321.75,-315.5 321.75,-315.5 321.75,-315.5 451.12,-315.5 589.81,-315.5 751.01,-356.29 822.27,-376.47"/>
<polygon fill="black" stroke="black" points="820.88,-379.71 831.46,-379.1 822.81,-372.98 820.88,-379.71"/>
</g>
<!-- lsp -->
<g id="node24" class="node">
<title>lsp</title>
<polygon fill="none" stroke="black" points="887.38,-497.5 833.38,-497.5 833.38,-461.5 887.38,-461.5 887.38,-497.5"/>
<text text-anchor="middle" x="860.38" y="-475.2" font-family="sans-serif" font-size="14.00">lsp</text>
</g>
<!-- covalence&#45;&gt;lsp -->
<g id="edge6" class="edge">
<title>covalence&#45;&gt;lsp</title>
<path fill="none" stroke="black" d="M63.56,-766.26C71.43,-699.97 102.05,-473.56 157,-431.5 262.17,-351.01 692.6,-441.19 822.25,-470.77"/>
<polygon fill="black" stroke="black" points="821.15,-474.1 831.68,-472.93 822.71,-467.28 821.15,-474.1"/>
</g>
<!-- object -->
<g id="node27" class="node">
<title>object</title>
<polygon fill="none" stroke="black" points="738,-1233.5 680.75,-1233.5 680.75,-1197.5 738,-1197.5 738,-1233.5"/>
<text text-anchor="middle" x="709.38" y="-1211.2" font-family="sans-serif" font-size="14.00">object</text>
</g>
<!-- covalence&#45;&gt;object -->
<g id="edge7" class="edge">
<title>covalence&#45;&gt;object</title>
<path fill="none" stroke="black" d="M67.1,-802.76C78.69,-837.92 108.36,-915.76 157,-963.5 215.66,-1021.08 239.56,-1047.5 321.75,-1047.5 321.75,-1047.5 321.75,-1047.5 451.12,-1047.5 533.19,-1047.5 564.24,-1051.33 626.75,-1104.5 653.4,-1127.17 641.39,-1146.8 662.75,-1174.5 666.83,-1179.8 671.66,-1184.96 676.61,-1189.74"/>
<polygon fill="black" stroke="black" points="674.11,-1192.19 683.85,-1196.35 678.83,-1187.02 674.11,-1192.19"/>
</g>
<!-- opentheory -->
<g id="node28" class="node">
<title>opentheory</title>
<polygon fill="none" stroke="black" points="368.25,-379.5 277.25,-379.5 277.25,-343.5 368.25,-343.5 368.25,-379.5"/>
<text text-anchor="middle" x="322.75" y="-357.2" font-family="sans-serif" font-size="14.00">opentheory</text>
</g>
<!-- covalence&#45;&gt;opentheory -->
<g id="edge8" class="edge">
<title>covalence&#45;&gt;opentheory</title>
<path fill="none" stroke="black" d="M63.39,-766.15C70.96,-696.04 101.49,-446.42 157,-393.5 185.64,-366.2 230.26,-358.86 265.84,-357.98"/>
<polygon fill="black" stroke="black" points="265.55,-361.48 275.53,-357.92 265.51,-354.48 265.55,-361.48"/>
</g>
<!-- proto -->
<g id="node31" class="node">
<title>proto</title>
<polygon fill="none" stroke="black" points="349.75,-1279.5 295.75,-1279.5 295.75,-1243.5 349.75,-1243.5 349.75,-1279.5"/>
<text text-anchor="middle" x="322.75" y="-1257.2" font-family="sans-serif" font-size="14.00">proto</text>
</g>
<!-- covalence&#45;&gt;proto -->
<g id="edge9" class="edge">
<title>covalence&#45;&gt;proto</title>
<path fill="none" stroke="black" d="M63.58,-802.76C72.01,-873.74 105.58,-1130.43 157,-1191.5 165.71,-1201.85 238.81,-1230.51 284.66,-1247.78"/>
<polygon fill="black" stroke="black" points="283.39,-1251.04 293.98,-1251.27 285.84,-1244.49 283.39,-1251.04"/>
</g>
<!-- repl -->
<g id="node37" class="node">
<title>repl</title>
<polygon fill="none" stroke="black" points="349.75,-1111.5 295.75,-1111.5 295.75,-1075.5 349.75,-1075.5 349.75,-1111.5"/>
<text text-anchor="middle" x="322.75" y="-1089.2" font-family="sans-serif" font-size="14.00">repl</text>
</g>
<!-- covalence&#45;&gt;repl -->
<g id="edge10" class="edge">
<title>covalence&#45;&gt;repl</title>
<path fill="none" stroke="black" d="M61.89,-802.74C64,-852.61 77.13,-992.11 157,-1061.5 192.13,-1092.02 247.55,-1096.91 284.27,-1096.28"/>
<polygon fill="black" stroke="black" points="284.1,-1099.79 293.98,-1095.95 283.86,-1092.79 284.1,-1099.79"/>
</g>
<!-- serve -->
<g id="node39" class="node">
<title>serve</title>
<polygon fill="none" stroke="black" points="226.12,-954.5 172.12,-954.5 172.12,-918.5 226.12,-918.5 226.12,-954.5"/>
<text text-anchor="middle" x="199.12" y="-932.2" font-family="sans-serif" font-size="14.00">serve</text>
</g>
<!-- covalence&#45;&gt;serve -->
<g id="edge11" class="edge">
<title>covalence&#45;&gt;serve</title>
<path fill="none" stroke="black" d="M77.98,-802.84C101.88,-829.43 146.32,-878.86 173.94,-909.59"/>
<polygon fill="black" stroke="black" points="171.29,-911.88 180.57,-916.98 176.49,-907.2 171.29,-911.88"/>
</g>
<!-- shell -->
<g id="node41" class="node">
<title>shell</title>
<polygon fill="none" stroke="black" points="477.12,-867.5 423.12,-867.5 423.12,-831.5 477.12,-831.5 477.12,-867.5"/>
<text text-anchor="middle" x="450.12" y="-845.2" font-family="sans-serif" font-size="14.00">shell</text>
</g>
<!-- covalence&#45;&gt;shell -->
<g id="edge12" class="edge">
<title>covalence&#45;&gt;shell</title>
<path fill="none" stroke="black" d="M102.75,-801.02C119.37,-807.07 138.86,-813.43 157,-817.5 246.97,-837.71 355.51,-845.33 411.55,-848.07"/>
<polygon fill="black" stroke="black" points="411.35,-851.56 421.5,-848.53 411.67,-844.57 411.35,-851.56"/>
</g>
<!-- store -->
<g id="node45" class="node">
<title>store</title>
<polygon fill="none" stroke="black" points="736.38,-1035.5 682.38,-1035.5 682.38,-999.5 736.38,-999.5 736.38,-1035.5"/>
<text text-anchor="middle" x="709.38" y="-1013.2" font-family="sans-serif" font-size="14.00">store</text>
</g>
<!-- covalence&#45;&gt;store -->
<g id="edge13" class="edge">
<title>covalence&#45;&gt;store</title>
<path fill="none" stroke="black" d="M102.87,-779.34C198.69,-768.24 432.52,-746.37 496,-788.5 525.48,-808.06 509.79,-831.96 532,-859.5 566.07,-901.73 590.23,-896.36 626.75,-936.5 646.16,-957.84 641.81,-970.66 662.75,-990.5 665.8,-993.39 669.22,-996.11 672.77,-998.63"/>
<polygon fill="black" stroke="black" points="670.76,-1001.5 681.07,-1003.98 674.56,-995.62 670.76,-1001.5"/>
</g>
<!-- wasm -->
<g id="node47" class="node">
<title>wasm</title>
<polygon fill="none" stroke="black" points="1032.12,-1019.5 977.88,-1019.5 977.88,-983.5 1032.12,-983.5 1032.12,-1019.5"/>
<text text-anchor="middle" x="1005" y="-997.2" font-family="sans-serif" font-size="14.00">wasm</text>
</g>
<!-- covalence&#45;&gt;wasm -->
<g id="edge14" class="edge">
<title>covalence&#45;&gt;wasm</title>
<path fill="none" stroke="black" d="M67.73,-766.25C79.64,-734.33 108.83,-668.71 157,-636.5 267.69,-562.49 659.19,-561.08 756,-652.5 818.49,-711.51 735.96,-777.34 792,-842.5 834,-891.34 881.7,-846.51 928.75,-890.5 958.42,-918.24 939,-943.09 964.75,-974.5 966.13,-976.18 967.63,-977.8 969.23,-979.35"/>
<polygon fill="black" stroke="black" points="966.7,-981.8 976.6,-985.57 971.21,-976.45 966.7,-981.8"/>
</g>
<!-- acset -->
<g id="node2" class="node">
<title>acset</title>
<polygon fill="none" stroke="black" points="887.38,-313.5 833.38,-313.5 833.38,-277.5 887.38,-277.5 887.38,-313.5"/>
<text text-anchor="middle" x="860.38" y="-291.2" font-family="sans-serif" font-size="14.00">acset</text>
</g>
<!-- alethe -->
<g id="node3" class="node">
<title>alethe</title>
<polygon fill="none" stroke="black" points="607.62,-191.5 551.12,-191.5 551.12,-155.5 607.62,-155.5 607.62,-191.5"/>
<text text-anchor="middle" x="579.38" y="-169.2" font-family="sans-serif" font-size="14.00">alethe</text>
</g>
<!-- core -->
<g id="node6" class="node">
<title>core</title>
<polygon fill="#ffd6d6" stroke="black" points="1032,-271.5 978,-271.5 978,-235.5 1032,-235.5 1032,-271.5"/>
<text text-anchor="middle" x="1005" y="-249.2" font-family="sans-serif" font-size="14.00">core</text>
</g>
<!-- alethe&#45;&gt;core -->
<g id="edge15" class="edge">
<title>alethe&#45;&gt;core</title>
<path fill="none" stroke="black" d="M607.81,-162.37C670.19,-138.99 825.28,-91.95 928.75,-155.5 958.9,-174.02 941.45,-199.87 964.75,-226.5 966.02,-227.96 967.39,-229.37 968.83,-230.74"/>
<polygon fill="black" stroke="black" points="966.5,-233.36 976.42,-237.08 970.99,-227.98 966.5,-233.36"/>
</g>
<!-- hol&#45;eval -->
<g id="node17" class="node">
<title>hol&#45;eval</title>
<polygon fill="none" stroke="black" points="895.38,-103.5 825.38,-103.5 825.38,-67.5 895.38,-67.5 895.38,-103.5"/>
<text text-anchor="middle" x="860.38" y="-81.2" font-family="sans-serif" font-size="14.00">hol&#45;eval</text>
</g>
<!-- alethe&#45;&gt;hol&#45;eval -->
<g id="edge16" class="edge">
<title>alethe&#45;&gt;hol&#45;eval</title>
<path fill="none" stroke="black" d="M601.6,-155.22C617.41,-142.6 640.1,-126.53 662.75,-117.5 712.02,-97.87 772.83,-90.27 813.66,-87.34"/>
<polygon fill="black" stroke="black" points="813.87,-90.83 823.63,-86.7 813.42,-83.85 813.87,-90.83"/>
</g>
<!-- init -->
<g id="node18" class="node">
<title>init</title>
<polygon fill="none" stroke="black" points="736.38,-585.5 682.38,-585.5 682.38,-549.5 736.38,-549.5 736.38,-585.5"/>
<text text-anchor="middle" x="709.38" y="-563.2" font-family="sans-serif" font-size="14.00">init</text>
</g>
<!-- alethe&#45;&gt;init -->
<g id="edge17" class="edge">
<title>alethe&#45;&gt;init</title>
<path fill="none" stroke="black" d="M586.38,-191.98C606.83,-254.92 673.9,-461.37 698.88,-538.28"/>
<polygon fill="black" stroke="black" points="695.5,-539.2 701.92,-547.63 702.16,-537.03 695.5,-539.2"/>
</g>
<!-- sexp -->
<g id="node40" class="node">
<title>sexp</title>
<polygon fill="#ffd6d6" stroke="black" points="1148.12,-581.5 1094.12,-581.5 1094.12,-545.5 1148.12,-545.5 1148.12,-581.5"/>
<text text-anchor="middle" x="1121.12" y="-559.2" font-family="sans-serif" font-size="14.00">sexp</text>
</g>
<!-- alethe&#45;&gt;sexp -->
<g id="edge18" class="edge">
<title>alethe&#45;&gt;sexp</title>
<path fill="none" stroke="black" d="M595.98,-191.71C611.2,-208.08 635.91,-231.24 662.75,-242.5 772.28,-288.47 830.29,-202.05 928.75,-268.5 957.42,-287.85 946.92,-307.86 964.75,-337.5 1009.29,-411.53 1068.75,-494.16 1099.6,-536"/>
<polygon fill="black" stroke="black" points="1096.79,-538.08 1105.55,-544.04 1102.41,-533.92 1096.79,-538.08"/>
</g>
<!-- smt -->
<g id="node42" class="node">
<title>smt</title>
<polygon fill="none" stroke="black" points="736.38,-233.5 682.38,-233.5 682.38,-197.5 736.38,-197.5 736.38,-233.5"/>
<text text-anchor="middle" x="709.38" y="-211.2" font-family="sans-serif" font-size="14.00">smt</text>
</g>
<!-- alethe&#45;&gt;smt -->
<g id="edge19" class="edge">
<title>alethe&#45;&gt;smt</title>
<path fill="none" stroke="black" d="M607.83,-182.51C626.43,-188.61 651.21,-196.74 671.52,-203.41"/>
<polygon fill="black" stroke="black" points="670.24,-206.67 680.83,-206.46 672.42,-200.02 670.24,-206.67"/>
</g>
<!-- types -->
<g id="node46" class="node">
<title>types</title>
<polygon fill="#ffd6d6" stroke="black" points="1476.25,-217.5 1422.25,-217.5 1422.25,-181.5 1476.25,-181.5 1476.25,-217.5"/>
<text text-anchor="middle" x="1449.25" y="-195.2" font-family="sans-serif" font-size="14.00">types</text>
</g>
<!-- alethe&#45;&gt;types -->
<g id="edge20" class="edge">
<title>alethe&#45;&gt;types</title>
<path fill="none" stroke="black" d="M595.86,-155.09C635.05,-110.72 743.29,-1.5 859.38,-1.5 859.38,-1.5 859.38,-1.5 1225,-1.5 1298.43,-1.5 1330.68,10.5 1386.25,-37.5 1425.63,-71.52 1440.1,-133.42 1445.34,-170.07"/>
<polygon fill="black" stroke="black" points="1441.81,-170.03 1446.55,-179.51 1448.75,-169.15 1441.81,-170.03"/>
</g>
<!-- arrow -->
<g id="node4" class="node">
<title>arrow</title>
<polygon fill="none" stroke="black" points="606.38,-1149.5 552.38,-1149.5 552.38,-1113.5 606.38,-1113.5 606.38,-1149.5"/>
<text text-anchor="middle" x="579.38" y="-1127.2" font-family="sans-serif" font-size="14.00">arrow</text>
</g>
<!-- client&#45;&gt;hash -->
<g id="edge21" class="edge">
<title>client&#45;&gt;hash</title>
<path fill="none" stroke="black" d="M339.48,-701.16C354.33,-685.37 378.17,-663.72 404.25,-654.5 442.7,-640.92 455.88,-647.19 496,-654.5 617.49,-676.64 672.05,-661.94 756,-752.5 794.72,-794.27 757.57,-830.12 792,-875.5 800.12,-886.2 811.82,-894.84 823.2,-901.44"/>
<polygon fill="black" stroke="black" points="821.22,-904.35 831.69,-906 824.53,-898.18 821.22,-904.35"/>
</g>
<!-- client&#45;&gt;shell -->
<g id="edge22" class="edge">
<title>client&#45;&gt;shell</title>
<path fill="none" stroke="black" d="M341.45,-737.85C362.92,-760.11 399.26,-797.8 423.72,-823.16"/>
<polygon fill="black" stroke="black" points="421.01,-825.39 430.47,-830.15 426.04,-820.53 421.01,-825.39"/>
</g>
<!-- client&#45;&gt;store -->
<g id="edge23" class="edge">
<title>client&#45;&gt;store</title>
<path fill="none" stroke="black" d="M350.11,-719.1C385.58,-719.69 449.6,-724.81 496,-751.5 515.31,-762.61 615.08,-884.52 626.75,-903.5 648.67,-939.15 635.33,-958.89 662.75,-990.5 665.65,-993.85 669.08,-996.89 672.72,-999.62"/>
<polygon fill="black" stroke="black" points="670.53,-1002.37 680.81,-1004.95 674.38,-996.53 670.53,-1002.37"/>
</g>
<!-- pure -->
<g id="node32" class="node">
<title>pure</title>
<polygon fill="#ffd6d6" stroke="black" points="1251,-217.5 1197,-217.5 1197,-181.5 1251,-181.5 1251,-217.5"/>
<text text-anchor="middle" x="1224" y="-195.2" font-family="sans-serif" font-size="14.00">pure</text>
</g>
<!-- core&#45;&gt;pure -->
<g id="edge24" class="edge">
<title>core&#45;&gt;pure</title>
<path fill="none" stroke="black" d="M1032.5,-250.83C1063.71,-247.24 1116.92,-239.73 1161,-226.5 1169.37,-223.99 1178.11,-220.66 1186.3,-217.19"/>
<polygon fill="black" stroke="black" points="1187.54,-220.47 1195.28,-213.23 1184.72,-214.06 1187.54,-220.47"/>
</g>
<!-- pure&#45;eval -->
<g id="node33" class="node">
<title>pure&#45;eval</title>
<polygon fill="#ffd6d6" stroke="black" points="1161,-217.5 1081.25,-217.5 1081.25,-181.5 1161,-181.5 1161,-217.5"/>
<text text-anchor="middle" x="1121.12" y="-195.2" font-family="sans-serif" font-size="14.00">pure&#45;eval</text>
</g>
<!-- core&#45;&gt;pure&#45;eval -->
<g id="edge25" class="edge">
<title>core&#45;&gt;pure&#45;eval</title>
<path fill="none" stroke="black" d="M1032.47,-240.98C1043.9,-235.57 1057.66,-229.06 1070.85,-222.82"/>
<polygon fill="black" stroke="black" points="1072.34,-225.98 1079.88,-218.54 1069.34,-219.66 1072.34,-225.98"/>
</g>
<!-- core&#45;&gt;sexp -->
<g id="edge26" class="edge">
<title>core&#45;&gt;sexp</title>
<path fill="none" stroke="black" d="M1032.35,-271.1C1037.2,-275.33 1041.81,-280.19 1045.25,-285.5 1096.94,-365.28 1113.15,-479.95 1118.07,-533.64"/>
<polygon fill="black" stroke="black" points="1114.58,-533.85 1118.9,-543.53 1121.55,-533.27 1114.58,-533.85"/>
</g>
<!-- core&#45;&gt;types -->
<g id="edge27" class="edge">
<title>core&#45;&gt;types</title>
<path fill="none" stroke="black" d="M1032.33,-258.45C1095.52,-269.18 1259.91,-290.27 1386.25,-246.5 1399.28,-241.99 1411.78,-233.6 1422.1,-225.14"/>
<polygon fill="black" stroke="black" points="1424.16,-227.98 1429.42,-218.78 1419.57,-222.7 1424.16,-227.98"/>
</g>
<!-- core&#45;test&#45;guest -->
<g id="node7" class="node">
<title>core&#45;test&#45;guest</title>
<polygon fill="none" stroke="black" points="121,-1553.5 0,-1553.5 0,-1517.5 121,-1517.5 121,-1553.5"/>
<text text-anchor="middle" x="60.5" y="-1531.2" font-family="sans-serif" font-size="14.00">core&#45;test&#45;guest</text>
</g>
<!-- crypto&#45;sig -->
<g id="node8" class="node">
<title>crypto&#45;sig</title>
<polygon fill="none" stroke="black" points="241.25,-1751.5 157,-1751.5 157,-1715.5 241.25,-1715.5 241.25,-1751.5"/>
<text text-anchor="middle" x="199.12" y="-1729.2" font-family="sans-serif" font-size="14.00">crypto&#45;sig</text>
</g>
<!-- egglog -->
<g id="node9" class="node">
<title>egglog</title>
<polygon fill="none" stroke="black" points="1035.5,-217.5 974.5,-217.5 974.5,-181.5 1035.5,-181.5 1035.5,-217.5"/>
<text text-anchor="middle" x="1005" y="-195.2" font-family="sans-serif" font-size="14.00">egglog</text>
</g>
<!-- egglog&#45;&gt;sexp -->
<g id="edge28" class="edge">
<title>egglog&#45;&gt;sexp</title>
<path fill="none" stroke="black" d="M1035.69,-216.16C1039.32,-219.21 1042.66,-222.66 1045.25,-226.5 1111.39,-324.55 1120.05,-471.69 1120.55,-533.97"/>
<polygon fill="black" stroke="black" points="1117.05,-533.75 1120.56,-543.75 1124.05,-533.74 1117.05,-533.75"/>
</g>
<!-- egglog&#45;&gt;types -->
<g id="edge29" class="edge">
<title>egglog&#45;&gt;types</title>
<path fill="none" stroke="black" d="M1035.74,-186.15C1049.33,-180.76 1065.8,-175.19 1081.25,-172.5 1214.8,-149.27 1253.54,-144.86 1386.25,-172.5 1394.72,-174.27 1403.45,-177.25 1411.59,-180.61"/>
<polygon fill="black" stroke="black" points="1409.94,-183.71 1420.5,-184.56 1412.78,-177.31 1409.94,-183.71"/>
</g>
<!-- forsp -->
<g id="node10" class="node">
<title>forsp</title>
<polygon fill="none" stroke="black" points="736.38,-1165.5 682.38,-1165.5 682.38,-1129.5 736.38,-1129.5 736.38,-1165.5"/>
<text text-anchor="middle" x="709.38" y="-1143.2" font-family="sans-serif" font-size="14.00">forsp</text>
</g>
<!-- forsp&#45;&gt;hash -->
<g id="edge30" class="edge">
<title>forsp&#45;&gt;hash</title>
<path fill="none" stroke="black" d="M721.95,-1129.38C737.73,-1104.72 766.9,-1059.21 792,-1020.5 808.58,-994.92 827.61,-965.87 841.2,-945.15"/>
<polygon fill="black" stroke="black" points="844.01,-947.25 846.57,-936.97 838.16,-943.41 844.01,-947.25"/>
</g>
<!-- forsp&#45;&gt;sexp -->
<g id="edge31" class="edge">
<title>forsp&#45;&gt;sexp</title>
<path fill="none" stroke="black" d="M736.82,-1150.25C779.17,-1153.57 864.03,-1155.72 928.75,-1128.5 991.65,-1102.05 1012.48,-1088.36 1045.25,-1028.5 1100.21,-928.1 1062.83,-886.47 1081.25,-773.5 1091.76,-709.02 1106.22,-633.83 1114.21,-593.21"/>
<polygon fill="black" stroke="black" points="1117.63,-593.97 1116.13,-583.48 1110.76,-592.61 1117.63,-593.97"/>
</g>
<!-- fuse&#45;&gt;hash -->
<g id="edge32" class="edge">
<title>fuse&#45;&gt;hash</title>
<path fill="none" stroke="black" d="M606.68,-953.23C622.66,-947.41 643.6,-940.51 662.75,-936.5 717.32,-925.07 781.87,-920.49 821.73,-918.68"/>
<polygon fill="black" stroke="black" points="821.66,-922.18 831.51,-918.27 821.37,-915.19 821.66,-922.18"/>
</g>
<!-- fuse&#45;&gt;object -->
<g id="edge33" class="edge">
<title>fuse&#45;&gt;object</title>
<path fill="none" stroke="black" d="M595,-981.81C605.19,-995.38 618.41,-1014.71 626.75,-1033.5 652.98,-1092.62 629.26,-1119.17 662.75,-1174.5 665.99,-1179.85 670.15,-1184.91 674.63,-1189.52"/>
<polygon fill="black" stroke="black" points="672.13,-1191.98 681.81,-1196.28 676.92,-1186.88 672.13,-1191.98"/>
</g>
<!-- fuse&#45;&gt;store -->
<g id="edge34" class="edge">
<title>fuse&#45;&gt;store</title>
<path fill="none" stroke="black" d="M606.59,-974.56C625.4,-982.49 650.99,-993.29 671.81,-1002.07"/>
<polygon fill="black" stroke="black" points="670.23,-1005.21 680.8,-1005.87 672.95,-998.76 670.23,-1005.21"/>
</g>
<!-- git&#45;&gt;hash -->
<g id="edge35" class="edge">
<title>git&#45;&gt;hash</title>
<path fill="none" stroke="black" d="M477.52,-1341.57C512.6,-1345.93 576.06,-1350.19 626.75,-1333.5 693.48,-1311.53 718.74,-1302.06 756,-1242.5 809.02,-1157.76 755.85,-1113.69 792,-1020.5 802.76,-992.77 821.74,-964.74 836.82,-944.93"/>
<polygon fill="black" stroke="black" points="839.54,-947.14 842.93,-937.1 834.02,-942.84 839.54,-947.14"/>
</g>
<!-- git&#45;&gt;object -->
<g id="edge36" class="edge">
<title>git&#45;&gt;object</title>
<path fill="none" stroke="black" d="M477.58,-1337.85C513.57,-1337.21 578.93,-1332.07 626.75,-1305.5 653.37,-1290.71 675.93,-1263.98 690.54,-1243.48"/>
<polygon fill="black" stroke="black" points="693.42,-1245.46 696.19,-1235.24 687.65,-1241.5 693.42,-1245.46"/>
</g>
<!-- sqlite -->
<g id="node44" class="node">
<title>sqlite</title>
<polygon fill="none" stroke="black" points="887.38,-1065.5 833.38,-1065.5 833.38,-1029.5 887.38,-1029.5 887.38,-1065.5"/>
<text text-anchor="middle" x="860.38" y="-1043.2" font-family="sans-serif" font-size="14.00">sqlite</text>
</g>
<!-- git&#45;&gt;sqlite -->
<g id="edge37" class="edge">
<title>git&#45;&gt;sqlite</title>
<path fill="none" stroke="black" d="M457.2,-1355.94C467.52,-1383.87 491.41,-1435.91 532,-1457.5 619.89,-1504.26 682.38,-1524.52 756,-1457.5 819.21,-1399.95 740.83,-1142.98 792,-1074.5 799.32,-1064.71 810.76,-1058.46 822.16,-1054.48"/>
<polygon fill="black" stroke="black" points="822.87,-1057.92 831.48,-1051.74 820.89,-1051.2 822.87,-1057.92"/>
</g>
<!-- git&#45;&gt;store -->
<g id="edge38" class="edge">
<title>git&#45;&gt;store</title>
<path fill="none" stroke="black" d="M472.34,-1319.13C507.23,-1288.24 577.72,-1222.95 626.75,-1158.5 654.51,-1122.01 679.84,-1075.2 694.69,-1045.77"/>
<polygon fill="black" stroke="black" points="697.67,-1047.63 699,-1037.12 691.41,-1044.51 697.67,-1047.63"/>
</g>
<!-- grammar -->
<g id="node13" class="node">
<title>grammar</title>
<polygon fill="none" stroke="black" points="1041.88,-696.5 968.12,-696.5 968.12,-660.5 1041.88,-660.5 1041.88,-696.5"/>
<text text-anchor="middle" x="1005" y="-674.2" font-family="sans-serif" font-size="14.00">grammar</text>
</g>
<!-- graph -->
<g id="node14" class="node">
<title>graph</title>
<polygon fill="none" stroke="black" points="477.12,-1545.5 423.12,-1545.5 423.12,-1509.5 477.12,-1509.5 477.12,-1545.5"/>
<text text-anchor="middle" x="450.12" y="-1523.2" font-family="sans-serif" font-size="14.00">graph</text>
</g>
<!-- graph&#45;&gt;hash -->
<g id="edge39" class="edge">
<title>graph&#45;&gt;hash</title>
<path fill="none" stroke="black" d="M477.32,-1528.93C513.88,-1529.64 580.87,-1526.13 626.75,-1495.5 714.77,-1436.74 719.52,-1394.85 756,-1295.5 798.49,-1179.79 749.19,-1136.09 792,-1020.5 802.33,-992.6 821.35,-964.59 836.56,-944.83"/>
<polygon fill="black" stroke="black" points="839.27,-947.04 842.72,-937.02 833.78,-942.7 839.27,-947.04"/>
</g>
<!-- parse -->
<g id="node30" class="node">
<title>parse</title>
<polygon fill="#ffd6d6" stroke="black" points="1251,-748.5 1197,-748.5 1197,-712.5 1251,-712.5 1251,-748.5"/>
<text text-anchor="middle" x="1224" y="-726.2" font-family="sans-serif" font-size="14.00">parse</text>
</g>
<!-- graph&#45;&gt;parse -->
<g id="edge40" class="edge">
<title>graph&#45;&gt;parse</title>
<path fill="none" stroke="black" d="M455.36,-1545.93C463.76,-1577.65 485.85,-1641.77 532,-1668.5 694.46,-1762.6 819.01,-1675.83 928.75,-1523.5 1116.14,-1263.38 1197.91,-870.2 1217.93,-760.08"/>
<polygon fill="black" stroke="black" points="1221.35,-760.86 1219.66,-750.4 1214.46,-759.63 1221.35,-760.86"/>
</g>
<!-- rand -->
<g id="node36" class="node">
<title>rand</title>
<polygon fill="none" stroke="black" points="1032,-965.5 978,-965.5 978,-929.5 1032,-929.5 1032,-965.5"/>
<text text-anchor="middle" x="1005" y="-943.2" font-family="sans-serif" font-size="14.00">rand</text>
</g>
<!-- hash&#45;&gt;rand -->
<g id="edge41" class="edge">
<title>hash&#45;&gt;rand</title>
<path fill="none" stroke="black" d="M887.87,-923.07C909.98,-927.72 941.77,-934.41 966.5,-939.61"/>
<polygon fill="black" stroke="black" points="965.66,-943.01 976.17,-941.65 967.1,-936.16 965.66,-943.01"/>
</g>
<!-- hol&#45;&gt;core -->
<g id="edge42" class="edge">
<title>hol&#45;&gt;core</title>
<path fill="none" stroke="black" d="M880.91,-369.15C905.66,-345.89 948.47,-305.67 976.51,-279.33"/>
<polygon fill="black" stroke="black" points="978.71,-282.06 983.6,-272.67 973.92,-276.96 978.71,-282.06"/>
</g>
<!-- hol&#45;eval&#45;&gt;core -->
<g id="edge43" class="edge">
<title>hol&#45;eval&#45;&gt;core</title>
<path fill="none" stroke="black" d="M895.7,-95.56C907.54,-100.51 920.01,-107.6 928.75,-117.5 962.51,-155.75 934.13,-185.69 964.75,-226.5 966.09,-228.29 967.58,-230 969.18,-231.63"/>
<polygon fill="black" stroke="black" points="966.85,-234.23 976.71,-238.1 971.41,-228.93 966.85,-234.23"/>
</g>
<!-- hol&#45;eval&#45;&gt;pure -->
<g id="edge44" class="edge">
<title>hol&#45;eval&#45;&gt;pure</title>
<path fill="none" stroke="black" d="M895.59,-92.39C932.77,-100.18 993.75,-113.84 1045.25,-129.5 1097.75,-145.47 1110.1,-151.98 1161,-172.5 1169.18,-175.8 1177.89,-179.48 1186.12,-183.05"/>
<polygon fill="black" stroke="black" points="1184.63,-186.21 1195.2,-187.01 1187.44,-179.8 1184.63,-186.21"/>
</g>
<!-- hol&#45;eval&#45;&gt;pure&#45;eval -->
<g id="edge45" class="edge">
<title>hol&#45;eval&#45;&gt;pure&#45;eval</title>
<path fill="none" stroke="black" d="M895.74,-100.64C940.53,-120.37 1019.18,-155.03 1070.46,-177.62"/>
<polygon fill="black" stroke="black" points="1069.02,-180.81 1079.58,-181.64 1071.84,-174.4 1069.02,-180.81"/>
</g>
<!-- hol&#45;eval&#45;&gt;types -->
<g id="edge46" class="edge">
<title>hol&#45;eval&#45;&gt;types</title>
<path fill="none" stroke="black" d="M895.69,-83.76C945.23,-81.41 1039.68,-77.5 1120.12,-77.5 1120.12,-77.5 1120.12,-77.5 1225,-77.5 1304.46,-77.5 1382.48,-137.74 1421.86,-173.56"/>
<polygon fill="black" stroke="black" points="1419.29,-175.96 1429,-180.21 1424.06,-170.83 1419.29,-175.96"/>
</g>
<!-- init&#45;&gt;core -->
<g id="edge47" class="edge">
<title>init&#45;&gt;core</title>
<path fill="none" stroke="black" d="M718.35,-549.38C730.52,-523.88 756.14,-477.69 792,-452.5 843.62,-416.25 880.6,-455.25 928.75,-414.5 969.45,-380.06 989.49,-318.76 998.22,-282.55"/>
<polygon fill="black" stroke="black" points="1001.54,-283.75 1000.33,-273.22 994.71,-282.2 1001.54,-283.75"/>
</g>
<!-- init&#45;&gt;grammar -->
<g id="edge48" class="edge">
<title>init&#45;&gt;grammar</title>
<path fill="none" stroke="black" d="M736.42,-582.37C743.38,-587.2 750.49,-593.01 756,-599.5 779.91,-627.7 760.89,-654.51 792,-674.5 841.11,-706.05 910.71,-700.05 956.59,-690.92"/>
<polygon fill="black" stroke="black" points="957.18,-694.37 966.23,-688.86 955.72,-687.52 957.18,-694.37"/>
</g>
<!-- init&#45;&gt;hash -->
<g id="edge49" class="edge">
<title>init&#45;&gt;hash</title>
<path fill="none" stroke="black" d="M725.4,-585.96C735.6,-599.44 748.55,-618.61 756,-637.5 789.95,-723.55 751.52,-759.32 792,-842.5 800.94,-860.88 815.74,-878.09 829.2,-891.39"/>
<polygon fill="black" stroke="black" points="826.59,-893.73 836.24,-898.09 831.41,-888.66 826.59,-893.73"/>
</g>
<!-- init&#45;&gt;hol -->
<g id="edge50" class="edge">
<title>init&#45;&gt;hol</title>
<path fill="none" stroke="black" d="M716.26,-549.24C726.91,-518.74 752.04,-457.11 792,-419.5 800.7,-411.31 811.88,-404.87 822.62,-399.98"/>
<polygon fill="black" stroke="black" points="823.83,-403.27 831.71,-396.18 821.13,-396.81 823.83,-403.27"/>
</g>
<!-- init&#45;&gt;hol&#45;eval -->
<g id="edge51" class="edge">
<title>init&#45;&gt;hol&#45;eval</title>
<path fill="none" stroke="black" d="M714.8,-549.14C726.27,-502.1 758.39,-373.56 792,-268.5 809.64,-213.36 833.77,-150.24 847.86,-114.39"/>
<polygon fill="black" stroke="black" points="851.08,-115.76 851.5,-105.17 844.57,-113.18 851.08,-115.76"/>
</g>
<!-- metamath -->
<g id="node25" class="node">
<title>metamath</title>
<polygon fill="none" stroke="black" points="1045.25,-581.5 964.75,-581.5 964.75,-545.5 1045.25,-545.5 1045.25,-581.5"/>
<text text-anchor="middle" x="1005" y="-559.2" font-family="sans-serif" font-size="14.00">metamath</text>
</g>
<!-- init&#45;&gt;metamath -->
<g id="edge52" class="edge">
<title>init&#45;&gt;metamath</title>
<path fill="none" stroke="black" d="M736.69,-567.14C785.32,-566.48 890.04,-565.05 953.01,-564.2"/>
<polygon fill="black" stroke="black" points="952.79,-567.7 962.74,-564.06 952.7,-560.7 952.79,-567.7"/>
</g>
<!-- init&#45;&gt;sexp -->
<g id="edge53" class="edge">
<title>init&#45;&gt;sexp</title>
<path fill="none" stroke="black" d="M736.87,-582C743.84,-586.83 750.84,-592.73 756,-599.5 784.87,-637.42 753.46,-672.48 792,-700.5 883.05,-766.7 948.85,-763.65 1045.25,-705.5 1085.6,-681.16 1105.31,-627.04 1114.04,-593.08"/>
<polygon fill="black" stroke="black" points="1117.42,-594.01 1116.34,-583.47 1110.61,-592.38 1117.42,-594.01"/>
</g>
<!-- spectec -->
<g id="node43" class="node">
<title>spectec</title>
<polygon fill="none" stroke="black" points="895,-665.5 825.75,-665.5 825.75,-629.5 895,-629.5 895,-665.5"/>
<text text-anchor="middle" x="860.38" y="-643.2" font-family="sans-serif" font-size="14.00">spectec</text>
</g>
<!-- init&#45;&gt;spectec -->
<g id="edge54" class="edge">
<title>init&#45;&gt;spectec</title>
<path fill="none" stroke="black" d="M736.51,-583.66C752.36,-593.27 773.12,-605.49 792,-615.5 799.48,-619.47 807.53,-623.49 815.37,-627.29"/>
<polygon fill="black" stroke="black" points="813.6,-630.32 824.13,-631.47 816.62,-624.01 813.6,-630.32"/>
</g>
<!-- init&#45;&gt;types -->
<g id="edge55" class="edge">
<title>init&#45;&gt;types</title>
<path fill="none" stroke="black" d="M736.64,-573.68C777.7,-583.38 859.56,-602.9 928.75,-620.5 980.68,-633.71 996.66,-628.93 1045.25,-651.5 1138.54,-694.84 1167.01,-816.89 1251,-757.5 1430.63,-630.48 1447.76,-325.59 1448.56,-229.22"/>
<polygon fill="black" stroke="black" points="1452.06,-229.31 1448.58,-219.3 1445.06,-229.29 1452.06,-229.31"/>
</g>
<!-- json -->
<g id="node19" class="node">
<title>json</title>
<polygon fill="none" stroke="black" points="887.38,-1211.5 833.38,-1211.5 833.38,-1175.5 887.38,-1175.5 887.38,-1211.5"/>
<text text-anchor="middle" x="860.38" y="-1189.2" font-family="sans-serif" font-size="14.00">json</text>
</g>
<!-- kernel -->
<g id="node20" class="node">
<title>kernel</title>
<polygon fill="none" stroke="black" points="608,-775.5 550.75,-775.5 550.75,-739.5 608,-739.5 608,-775.5"/>
<text text-anchor="middle" x="579.38" y="-753.2" font-family="sans-serif" font-size="14.00">kernel</text>
</g>
<!-- kernel&#45;&gt;hash -->
<g id="edge56" class="edge">
<title>kernel&#45;&gt;hash</title>
<path fill="none" stroke="black" d="M608.33,-754.92C646.04,-753 713.37,-755.22 756,-789.5 788.29,-815.47 765.15,-843.94 792,-875.5 800.48,-885.47 811.94,-893.82 822.99,-900.38"/>
<polygon fill="black" stroke="black" points="821.18,-903.37 831.62,-905.17 824.57,-897.25 821.18,-903.37"/>
</g>
<!-- kernel&#45;&gt;init -->
<g id="edge57" class="edge">
<title>kernel&#45;&gt;init</title>
<path fill="none" stroke="black" d="M608.18,-741.59C614.79,-736.97 621.45,-731.52 626.75,-725.5 661.21,-686.36 685.73,-630.09 698.43,-596.33"/>
<polygon fill="black" stroke="black" points="701.61,-597.82 701.76,-587.22 695.03,-595.41 701.61,-597.82"/>
</g>
<!-- kernel&#45;&gt;object -->
<g id="edge58" class="edge">
<title>kernel&#45;&gt;object</title>
<path fill="none" stroke="black" d="M585.82,-775.91C595.21,-808.19 614.62,-877.22 626.75,-936.5 648.19,-1041.31 611.98,-1080.33 662.75,-1174.5 665.66,-1179.89 669.56,-1184.93 673.86,-1189.5"/>
<polygon fill="black" stroke="black" points="671.18,-1191.77 680.82,-1196.15 676.01,-1186.71 671.18,-1191.77"/>
</g>
<!-- kernel&#45;&gt;sexp -->
<g id="edge59" class="edge">
<title>kernel&#45;&gt;sexp</title>
<path fill="none" stroke="black" d="M608.2,-755.64C624.16,-754.62 644.58,-753.38 662.75,-752.5 683.99,-751.47 1027.72,-750.53 1045.25,-738.5 1093.75,-705.21 1111,-633.6 1117.02,-593.06"/>
<polygon fill="black" stroke="black" points="1120.47,-593.67 1118.31,-583.29 1113.53,-592.74 1120.47,-593.67"/>
</g>
<!-- kernel&#45;&gt;store -->
<g id="edge60" class="edge">
<title>kernel&#45;&gt;store</title>
<path fill="none" stroke="black" d="M595.18,-775.73C605.47,-789.27 618.72,-808.58 626.75,-827.5 655.73,-895.8 619.23,-930.42 662.75,-990.5 665.54,-994.36 669.07,-997.76 672.93,-1000.73"/>
<polygon fill="black" stroke="black" points="670.76,-1003.5 681.04,-1006.07 674.61,-997.65 670.76,-1003.5"/>
</g>
<!-- kv -->
<g id="node21" class="node">
<title>kv</title>
<polygon fill="none" stroke="black" points="226.12,-1659.5 172.12,-1659.5 172.12,-1623.5 226.12,-1623.5 226.12,-1659.5"/>
<text text-anchor="middle" x="199.12" y="-1637.2" font-family="sans-serif" font-size="14.00">kv</text>
</g>
<!-- lean -->
<g id="node22" class="node">
<title>lean</title>
<polygon fill="none" stroke="black" points="87.5,-1607.5 33.5,-1607.5 33.5,-1571.5 87.5,-1571.5 87.5,-1607.5"/>
<text text-anchor="middle" x="60.5" y="-1585.2" font-family="sans-serif" font-size="14.00">lean</text>
</g>
<!-- llm -->
<g id="node23" class="node">
<title>llm</title>
<polygon fill="none" stroke="black" points="226.12,-1279.5 172.12,-1279.5 172.12,-1243.5 226.12,-1243.5 226.12,-1279.5"/>
<text text-anchor="middle" x="199.12" y="-1257.2" font-family="sans-serif" font-size="14.00">llm</text>
</g>
<!-- llm&#45;&gt;proto -->
<g id="edge61" class="edge">
<title>llm&#45;&gt;proto</title>
<path fill="none" stroke="black" d="M226.52,-1261.5C243.33,-1261.5 265.38,-1261.5 284.03,-1261.5"/>
<polygon fill="black" stroke="black" points="283.9,-1265 293.9,-1261.5 283.9,-1258 283.9,-1265"/>
</g>
<!-- lsp&#45;&gt;sexp -->
<g id="edge62" class="edge">
<title>lsp&#45;&gt;sexp</title>
<path fill="none" stroke="black" d="M887.68,-487.25C923.48,-497.88 989.48,-517.81 1045.25,-536.5 1057.69,-540.67 1071.2,-545.46 1083.28,-549.84"/>
<polygon fill="black" stroke="black" points="1081.88,-553.05 1092.47,-553.19 1084.28,-546.48 1081.88,-553.05"/>
</g>
<!-- lsp&#45;&gt;wasm -->
<g id="edge63" class="edge">
<title>lsp&#45;&gt;wasm</title>
<path fill="none" stroke="black" d="M872.69,-497.84C888.23,-524 915.7,-574 928.75,-620.5 971.47,-772.77 884.15,-838.44 964.75,-974.5 966.02,-976.64 967.53,-978.65 969.21,-980.53"/>
<polygon fill="black" stroke="black" points="966.53,-982.83 976.3,-986.93 971.22,-977.63 966.53,-982.83"/>
</g>
<!-- metamath&#45;&gt;parse -->
<g id="edge64" class="edge">
<title>metamath&#45;&gt;parse</title>
<path fill="none" stroke="black" d="M1029.64,-581.69C1068.5,-611.6 1146,-671.24 1190.17,-705.23"/>
<polygon fill="black" stroke="black" points="1187.8,-707.83 1197.86,-711.16 1192.07,-702.28 1187.8,-707.83"/>
</g>
<!-- metamath&#45;&gt;sexp -->
<g id="edge65" class="edge">
<title>metamath&#45;&gt;sexp</title>
<path fill="none" stroke="black" d="M1045.6,-563.5C1057.57,-563.5 1070.68,-563.5 1082.52,-563.5"/>
<polygon fill="black" stroke="black" points="1082.33,-567 1092.33,-563.5 1082.33,-560 1082.33,-567"/>
</g>
<!-- multiformat -->
<g id="node26" class="node">
<title>multiformat</title>
<polygon fill="none" stroke="black" points="754.5,-325.5 664.25,-325.5 664.25,-289.5 754.5,-289.5 754.5,-325.5"/>
<text text-anchor="middle" x="709.38" y="-303.2" font-family="sans-serif" font-size="14.00">multiformat</text>
</g>
<!-- multiformat&#45;&gt;acset -->
<g id="edge66" class="edge">
<title>multiformat&#45;&gt;acset</title>
<path fill="none" stroke="black" d="M754.68,-303.93C776.05,-302.21 801.41,-300.17 821.81,-298.53"/>
<polygon fill="black" stroke="black" points="822,-302.02 831.68,-297.73 821.43,-295.05 822,-302.02"/>
</g>
<!-- multiformat&#45;&gt;hash -->
<g id="edge67" class="edge">
<title>multiformat&#45;&gt;hash</title>
<path fill="none" stroke="black" d="M714.45,-325.84C723.06,-365.07 743.35,-460.08 756,-540.5 777,-674.03 736.23,-719.37 792,-842.5 800.37,-860.99 814.98,-878.11 828.46,-891.32"/>
<polygon fill="black" stroke="black" points="825.85,-893.67 835.54,-897.97 830.65,-888.57 825.85,-893.67"/>
</g>
<!-- multiformat&#45;&gt;parse -->
<g id="edge68" class="edge">
<title>multiformat&#45;&gt;parse</title>
<path fill="none" stroke="black" d="M754.74,-316.04C809.26,-326.91 898.27,-346.03 928.75,-360.5 1045.74,-416.05 1086.19,-430.78 1161,-536.5 1197.08,-587.49 1212.89,-660.48 1219.22,-700.83"/>
<polygon fill="black" stroke="black" points="1215.73,-701.13 1220.64,-710.51 1222.65,-700.11 1215.73,-701.13"/>
</g>
<!-- object&#45;&gt;hash -->
<g id="edge69" class="edge">
<title>object&#45;&gt;hash</title>
<path fill="none" stroke="black" d="M735.94,-1197.38C743.4,-1190.93 750.9,-1183.12 756,-1174.5 791.79,-1114 764.34,-1085.12 792,-1020.5 803.78,-992.98 822.84,-964.74 837.69,-944.81"/>
<polygon fill="black" stroke="black" points="840.41,-947.01 843.67,-936.93 834.83,-942.78 840.41,-947.01"/>
</g>
<!-- object&#45;&gt;parse -->
<g id="edge70" class="edge">
<title>object&#45;&gt;parse</title>
<path fill="none" stroke="black" d="M738.49,-1223.65C781.67,-1234.57 865.88,-1249.43 928.75,-1220.5 1001.05,-1187.23 1012.82,-1157.18 1045.25,-1084.5 1095.12,-972.74 1009.28,-910.49 1081.25,-811.5 1104.34,-779.74 1127.04,-793.2 1161,-773.5 1170.4,-768.05 1180.23,-761.61 1189.21,-755.4"/>
<polygon fill="black" stroke="black" points="1191.17,-758.3 1197.32,-749.68 1187.13,-752.58 1191.17,-758.3"/>
</g>
<!-- opentheory&#45;&gt;hol -->
<g id="edge71" class="edge">
<title>opentheory&#45;&gt;hol</title>
<path fill="none" stroke="black" d="M368.5,-363.67C471.81,-368.69 725.49,-381 821.62,-385.67"/>
<polygon fill="black" stroke="black" points="821.39,-389.16 831.55,-386.15 821.73,-382.17 821.39,-389.16"/>
</g>
<!-- parquet -->
<g id="node29" class="node">
<title>parquet</title>
<polygon fill="none" stroke="black" points="483.62,-1187.5 416.62,-1187.5 416.62,-1151.5 483.62,-1151.5 483.62,-1187.5"/>
<text text-anchor="middle" x="450.12" y="-1165.2" font-family="sans-serif" font-size="14.00">parquet</text>
</g>
<!-- parquet&#45;&gt;arrow -->
<g id="edge72" class="edge">
<title>parquet&#45;&gt;arrow</title>
<path fill="none" stroke="black" d="M483.9,-1159.71C501.46,-1154.47 523.16,-1147.99 541.33,-1142.56"/>
<polygon fill="black" stroke="black" points="542.09,-1145.99 550.67,-1139.77 540.09,-1139.28 542.09,-1145.99"/>
</g>
<!-- pure&#45;trusted -->
<g id="node34" class="node">
<title>pure&#45;trusted</title>
<polygon fill="#ffd6d6" stroke="black" points="1386.25,-217.5 1287,-217.5 1287,-181.5 1386.25,-181.5 1386.25,-217.5"/>
<text text-anchor="middle" x="1336.62" y="-195.2" font-family="sans-serif" font-size="14.00">pure&#45;trusted</text>
</g>
<!-- pure&#45;&gt;pure&#45;trusted -->
<g id="edge73" class="edge">
<title>pure&#45;&gt;pure&#45;trusted</title>
<path fill="none" stroke="black" d="M1251.5,-199.5C1258.79,-199.5 1267.02,-199.5 1275.39,-199.5"/>
<polygon fill="black" stroke="black" points="1275.32,-203 1285.32,-199.5 1275.32,-196 1275.32,-203"/>
</g>
<!-- pure&#45;eval&#45;&gt;pure -->
<g id="edge74" class="edge">
<title>pure&#45;eval&#45;&gt;pure</title>
<path fill="none" stroke="black" d="M1161.41,-199.5C1169.28,-199.5 1177.52,-199.5 1185.32,-199.5"/>
<polygon fill="black" stroke="black" points="1185.22,-203 1195.22,-199.5 1185.22,-196 1185.22,-203"/>
</g>
<!-- pure&#45;eval&#45;&gt;types -->
<g id="edge75" class="edge">
<title>pure&#45;eval&#45;&gt;types</title>
<path fill="none" stroke="black" d="M1161.45,-216.56C1172.72,-220.65 1185.16,-224.43 1197,-226.5 1279.85,-240.98 1303.91,-243.65 1386.25,-226.5 1394.72,-224.74 1403.45,-221.75 1411.59,-218.39"/>
<polygon fill="black" stroke="black" points="1412.78,-221.7 1420.5,-214.45 1409.94,-215.3 1412.78,-221.7"/>
</g>
<!-- pure&#45;trusted&#45;&gt;types -->
<g id="edge76" class="edge">
<title>pure&#45;trusted&#45;&gt;types</title>
<path fill="none" stroke="black" d="M1386.47,-199.5C1394.54,-199.5 1402.8,-199.5 1410.54,-199.5"/>
<polygon fill="black" stroke="black" points="1410.3,-203 1420.3,-199.5 1410.3,-196 1410.3,-203"/>
</g>
<!-- python -->
<g id="node35" class="node">
<title>python</title>
<polygon fill="none" stroke="black" points="91.38,-1499.5 29.62,-1499.5 29.62,-1463.5 91.38,-1463.5 91.38,-1499.5"/>
<text text-anchor="middle" x="60.5" y="-1477.2" font-family="sans-serif" font-size="14.00">python</text>
</g>
<!-- python&#45;&gt;crypto&#45;sig -->
<g id="edge77" class="edge">
<title>python&#45;&gt;crypto&#45;sig</title>
<path fill="none" stroke="black" d="M91.82,-1488.93C102.54,-1493.02 113.72,-1499.21 121,-1508.5 174.82,-1577.19 111.62,-1626.97 157,-1701.5 158.16,-1703.41 159.49,-1705.25 160.93,-1707.02"/>
<polygon fill="black" stroke="black" points="158.38,-1709.42 167.87,-1714.13 163.39,-1704.53 158.38,-1709.42"/>
</g>
<!-- python&#45;&gt;git -->
<g id="edge78" class="edge">
<title>python&#45;&gt;git</title>
<path fill="none" stroke="black" d="M71.25,-1463.01C85.99,-1437.13 116.58,-1390.9 157,-1369.5 239.47,-1325.84 353.21,-1328.23 411.44,-1333.16"/>
<polygon fill="black" stroke="black" points="410.87,-1336.62 421.15,-1334.06 411.52,-1329.65 410.87,-1336.62"/>
</g>
<!-- python&#45;&gt;graph -->
<g id="edge79" class="edge">
<title>python&#45;&gt;graph</title>
<path fill="none" stroke="black" d="M91.57,-1486.2C110.35,-1489.06 135.06,-1492.69 157,-1495.5 248.23,-1507.18 355.83,-1518.28 411.51,-1523.82"/>
<polygon fill="black" stroke="black" points="411.1,-1527.3 421.39,-1524.8 411.79,-1520.33 411.1,-1527.3"/>
</g>
<!-- python&#45;&gt;hash -->
<g id="edge80" class="edge">
<title>python&#45;&gt;hash</title>
<path fill="none" stroke="black" d="M91.87,-1494.75C180.82,-1531.4 445.85,-1624.96 626.75,-1524.5 697.98,-1484.95 721.35,-1468.24 756,-1394.5 827.01,-1243.36 736.69,-1178.06 792,-1020.5 801.85,-992.43 820.92,-964.43 836.26,-944.72"/>
<polygon fill="black" stroke="black" points="838.97,-946.93 842.49,-936.93 833.51,-942.56 838.97,-946.93"/>
</g>
<!-- python&#45;&gt;kv -->
<g id="edge81" class="edge">
<title>python&#45;&gt;kv</title>
<path fill="none" stroke="black" d="M91.69,-1489.81C102.13,-1493.97 113.17,-1499.98 121,-1508.5 153.26,-1543.58 129.08,-1570.88 157,-1609.5 158.89,-1612.11 161.05,-1614.62 163.37,-1616.99"/>
<polygon fill="black" stroke="black" points="160.82,-1619.41 170.57,-1623.53 165.52,-1614.22 160.82,-1619.41"/>
</g>
<!-- python&#45;&gt;llm -->
<g id="edge82" class="edge">
<title>python&#45;&gt;llm</title>
<path fill="none" stroke="black" d="M67.74,-1463.13C80.43,-1427.59 111.92,-1348.14 157,-1293.5 159,-1291.08 161.21,-1288.73 163.54,-1286.47"/>
<polygon fill="black" stroke="black" points="165.47,-1289.44 170.65,-1280.2 160.83,-1284.19 165.47,-1289.44"/>
</g>
<!-- python&#45;&gt;object -->
<g id="edge83" class="edge">
<title>python&#45;&gt;object</title>
<path fill="none" stroke="black" d="M91.75,-1476.92C205.87,-1459.56 604.92,-1397.91 626.75,-1381.5 671.66,-1347.76 693.3,-1282.63 702.51,-1244.76"/>
<polygon fill="black" stroke="black" points="705.83,-1245.95 704.64,-1235.42 699,-1244.39 705.83,-1245.95"/>
</g>
<!-- python&#45;&gt;repl -->
<g id="edge84" class="edge">
<title>python&#45;&gt;repl</title>
<path fill="none" stroke="black" d="M65.29,-1463.29C74.91,-1420.27 103.35,-1310.31 157,-1234.5 192.34,-1184.57 249.19,-1141.22 286,-1116.21"/>
<polygon fill="black" stroke="black" points="287.74,-1119.26 294.11,-1110.8 283.85,-1113.45 287.74,-1119.26"/>
</g>
<!-- sat -->
<g id="node38" class="node">
<title>sat</title>
<polygon fill="none" stroke="black" points="887.38,-833.5 833.38,-833.5 833.38,-797.5 887.38,-797.5 887.38,-833.5"/>
<text text-anchor="middle" x="860.38" y="-811.2" font-family="sans-serif" font-size="14.00">sat</text>
</g>
<!-- python&#45;&gt;sat -->
<g id="edge85" class="edge">
<title>python&#45;&gt;sat</title>
<path fill="none" stroke="black" d="M91.56,-1481.5C140.01,-1481.5 238.39,-1481.5 321.75,-1481.5 321.75,-1481.5 321.75,-1481.5 451.12,-1481.5 623.3,-1481.5 691.39,-1402.09 756,-1242.5 815.01,-1096.73 728.32,-1034.29 792,-890.5 800.22,-871.95 814.81,-854.81 828.32,-841.62"/>
<polygon fill="black" stroke="black" points="830.51,-844.37 835.42,-834.98 825.73,-839.26 830.51,-844.37"/>
</g>
<!-- python&#45;&gt;serve -->
<g id="edge86" class="edge">
<title>python&#45;&gt;serve</title>
<path fill="none" stroke="black" d="M66.12,-1463.06C86.21,-1382.92 166.01,-1064.6 190.76,-965.86"/>
<polygon fill="black" stroke="black" points="194.1,-966.96 193.13,-956.41 187.31,-965.26 194.1,-966.96"/>
</g>
<!-- python&#45;&gt;sexp -->
<g id="edge87" class="edge">
<title>python&#45;&gt;sexp</title>
<path fill="none" stroke="black" d="M91.72,-1488.65C102.56,-1492.72 113.85,-1498.97 121,-1508.5 188.87,-1599.02 76.63,-1680.87 157,-1760.5 209.47,-1812.5 247.88,-1782.5 321.75,-1782.5 321.75,-1782.5 321.75,-1782.5 580.38,-1782.5 755.27,-1782.5 822.32,-1738.28 928.75,-1599.5 1055.41,-1434.34 1108.12,-744.05 1118.26,-592.85"/>
<polygon fill="black" stroke="black" points="1121.72,-593.49 1118.89,-583.28 1114.74,-593.03 1121.72,-593.49"/>
</g>
<!-- python&#45;&gt;shell -->
<g id="edge88" class="edge">
<title>python&#45;&gt;shell</title>
<path fill="none" stroke="black" d="M68.33,-1463.22C80.88,-1432.24 110.66,-1369.65 157,-1337.5 236.19,-1282.56 301.67,-1358.19 368.25,-1288.5 382.61,-1273.47 429.71,-975.22 444.58,-879.09"/>
<polygon fill="black" stroke="black" points="448.01,-879.81 446.08,-869.4 441.1,-878.75 448.01,-879.81"/>
</g>
<!-- python&#45;&gt;store -->
<g id="edge89" class="edge">
<title>python&#45;&gt;store</title>
<path fill="none" stroke="black" d="M91.45,-1471.22C110.19,-1464.93 134.89,-1456.89 157,-1450.5 306.34,-1407.37 362.34,-1443.85 496,-1364.5 569.49,-1320.87 582.67,-1296.72 626.75,-1223.5 651.76,-1181.96 644.92,-1165.6 662.75,-1120.5 672.81,-1095.06 685.5,-1066.68 694.94,-1046.16"/>
<polygon fill="black" stroke="black" points="698.02,-1047.84 699.04,-1037.29 691.66,-1044.89 698.02,-1047.84"/>
</g>
<!-- python&#45;&gt;wasm -->
<g id="edge90" class="edge">
<title>python&#45;&gt;wasm</title>
<path fill="none" stroke="black" d="M91.73,-1492.62C101.5,-1496.88 112.09,-1502.24 121,-1508.5 139.77,-1521.69 137.54,-1533.35 157,-1545.5 387.11,-1689.13 502.32,-1758.56 756,-1662.5 848.16,-1627.6 879.94,-1609.11 928.75,-1523.5 977.46,-1438.07 997.41,-1128.47 1002.57,-1031.05"/>
<polygon fill="black" stroke="black" points="1006.05,-1031.43 1003.07,-1021.27 999.06,-1031.07 1006.05,-1031.43"/>
</g>
<!-- wasm&#45;store -->
<g id="node50" class="node">
<title>wasm&#45;store</title>
<polygon fill="none" stroke="black" points="626.75,-1659.5 532,-1659.5 532,-1623.5 626.75,-1623.5 626.75,-1659.5"/>
<text text-anchor="middle" x="579.38" y="-1637.2" font-family="sans-serif" font-size="14.00">wasm&#45;store</text>
</g>
<!-- python&#45;&gt;wasm&#45;store -->
<g id="edge91" class="edge">
<title>python&#45;&gt;wasm&#45;store</title>
<path fill="none" stroke="black" d="M91.64,-1489.08C102.34,-1493.18 113.55,-1499.35 121,-1508.5 167.01,-1565.04 100.08,-1622.97 157,-1668.5 211.55,-1712.14 418.46,-1675.83 520.61,-1654.43"/>
<polygon fill="black" stroke="black" points="521.11,-1657.9 530.16,-1652.4 519.66,-1651.05 521.11,-1657.9"/>
</g>
<!-- repl&#45;&gt;arrow -->
<g id="edge92" class="edge">
<title>repl&#45;&gt;arrow</title>
<path fill="none" stroke="black" d="M350.04,-1097.42C395.52,-1104.21 489,-1118.16 541.15,-1125.94"/>
<polygon fill="black" stroke="black" points="540.32,-1129.36 550.73,-1127.38 541.36,-1122.44 540.32,-1129.36"/>
</g>
<!-- repl&#45;&gt;forsp -->
<g id="edge93" class="edge">
<title>repl&#45;&gt;forsp</title>
<path fill="none" stroke="black" d="M349.98,-1109.2C356.47,-1113.9 363.05,-1119.43 368.25,-1125.5 391.27,-1152.37 374.1,-1177.98 404.25,-1196.5 448.48,-1223.67 600.49,-1181.46 671.41,-1159.47"/>
<polygon fill="black" stroke="black" points="672.12,-1162.91 680.62,-1156.58 670.03,-1156.23 672.12,-1162.91"/>
</g>
<!-- repl&#45;&gt;git -->
<g id="edge94" class="edge">
<title>repl&#45;&gt;git</title>
<path fill="none" stroke="black" d="M337.08,-1111.83C346.64,-1125.56 359.36,-1145.09 368.25,-1163.5 389.51,-1207.55 382.9,-1223.49 404.25,-1267.5 411.31,-1282.05 420.79,-1297.28 429.21,-1309.8"/>
<polygon fill="black" stroke="black" points="426.27,-1311.69 434.82,-1317.94 432.03,-1307.72 426.27,-1311.69"/>
</g>
<!-- repl&#45;&gt;graph -->
<g id="edge95" class="edge">
<title>repl&#45;&gt;graph</title>
<path fill="none" stroke="black" d="M329.72,-1111.69C338.47,-1138.48 355.15,-1190.19 368.25,-1234.5 370.17,-1241 421.13,-1425.88 441.15,-1498.56"/>
<polygon fill="black" stroke="black" points="437.65,-1499.05 443.69,-1507.76 444.4,-1497.19 437.65,-1499.05"/>
</g>
<!-- repl&#45;&gt;hash -->
<g id="edge96" class="edge">
<title>repl&#45;&gt;hash</title>
<path fill="none" stroke="black" d="M341.2,-1075.13C374.62,-1041.24 451.52,-969.36 532,-936.5 630.29,-896.37 759.1,-904.62 821.81,-912.06"/>
<polygon fill="black" stroke="black" points="821.22,-915.52 831.58,-913.29 822.09,-908.57 821.22,-915.52"/>
</g>
<!-- repl&#45;&gt;init -->
<g id="edge97" class="edge">
<title>repl&#45;&gt;init</title>
<path fill="none" stroke="black" d="M338.77,-1075.02C379.69,-1024.62 490.48,-887.75 496,-876.5 525.45,-816.51 497.26,-787.6 532,-730.5 561.1,-682.67 585.69,-685.55 626.75,-647.5 645.71,-629.93 666.52,-609.52 682.37,-593.72"/>
<polygon fill="black" stroke="black" points="684.51,-596.53 689.11,-586.98 679.56,-591.58 684.51,-596.53"/>
</g>
<!-- repl&#45;&gt;object -->
<g id="edge98" class="edge">
<title>repl&#45;&gt;object</title>
<path fill="none" stroke="black" d="M349.87,-1108.58C356.51,-1113.34 363.19,-1119.07 368.25,-1125.5 394.61,-1159.05 368.91,-1190.59 404.25,-1214.5 485.15,-1269.24 607.93,-1245.39 669.83,-1227.95"/>
<polygon fill="black" stroke="black" points="670.58,-1231.37 679.2,-1225.21 668.62,-1224.65 670.58,-1231.37"/>
</g>
<!-- repl&#45;&gt;parquet -->
<g id="edge99" class="edge">
<title>repl&#45;&gt;parquet</title>
<path fill="none" stroke="black" d="M350.03,-1109.43C367.15,-1119.81 389.82,-1133.55 409.15,-1145.27"/>
<polygon fill="black" stroke="black" points="407.25,-1148.21 417.62,-1150.4 410.88,-1142.22 407.25,-1148.21"/>
</g>
<!-- repl&#45;&gt;shell -->
<g id="edge100" class="edge">
<title>repl&#45;&gt;shell</title>
<path fill="none" stroke="black" d="M333.17,-1075.16C354.87,-1032.93 408.5,-928.57 434.51,-877.95"/>
<polygon fill="black" stroke="black" points="437.61,-879.56 439.07,-869.07 431.39,-876.36 437.61,-879.56"/>
</g>
<!-- repl&#45;&gt;wasm -->
<g id="edge101" class="edge">
<title>repl&#45;&gt;wasm</title>
<path fill="none" stroke="black" d="M350.05,-1094.74C419.03,-1097.09 609.88,-1097.91 756,-1044.5 774.06,-1037.9 773.86,-1026.89 792,-1020.5 850.3,-999.96 922.93,-998.15 966.26,-999.36"/>
<polygon fill="black" stroke="black" points="966.04,-1002.86 976.16,-999.72 966.29,-995.86 966.04,-1002.86"/>
</g>
<!-- sat&#45;&gt;parse -->
<g id="edge102" class="edge">
<title>sat&#45;&gt;parse</title>
<path fill="none" stroke="black" d="M887.76,-811.9C923.64,-806.79 989.74,-796.56 1045.25,-783.5 1059.03,-780.26 1137.79,-756.45 1185.73,-741.87"/>
<polygon fill="black" stroke="black" points="1186.62,-745.26 1195.17,-738.99 1184.58,-738.56 1186.62,-745.26"/>
</g>
<!-- sat&#45;&gt;types -->
<g id="edge103" class="edge">
<title>sat&#45;&gt;types</title>
<path fill="none" stroke="black" d="M887.56,-826.57C943.45,-849.79 1073.14,-901.5 1120.12,-901.5 1120.12,-901.5 1120.12,-901.5 1225,-901.5 1297.46,-901.5 1336.49,-930.16 1386.25,-877.5 1431.38,-829.75 1444.89,-353.49 1447.66,-229.1"/>
<polygon fill="black" stroke="black" points="1451.15,-229.45 1447.87,-219.38 1444.15,-229.3 1451.15,-229.45"/>
</g>
<!-- sat&#45;&gt;wasm -->
<g id="edge104" class="edge">
<title>sat&#45;&gt;wasm</title>
<path fill="none" stroke="black" d="M887.7,-822.24C901.73,-827.09 918.22,-835.04 928.75,-847.5 966.63,-892.3 930.56,-926.83 964.75,-974.5 966.05,-976.32 967.52,-978.05 969.09,-979.69"/>
<polygon fill="black" stroke="black" points="966.72,-982.27 976.56,-986.21 971.33,-977 966.72,-982.27"/>
</g>
<!-- serve&#45;&gt;core -->
<g id="edge105" class="edge">
<title>serve&#45;&gt;core</title>
<path fill="none" stroke="black" d="M200.02,-918.06C200.46,-860.46 207.66,-680.31 277.25,-554.5 391.61,-347.77 443.33,-276.07 662.75,-188.5 706.68,-170.97 907.3,-197.04 928.75,-204.5 933.32,-206.09 951.12,-217.64 968.27,-229.13"/>
<polygon fill="black" stroke="black" points="966.13,-231.91 976.38,-234.59 970.04,-226.1 966.13,-231.91"/>
</g>
<!-- serve&#45;&gt;git -->
<g id="edge106" class="edge">
<title>serve&#45;&gt;git</title>
<path fill="none" stroke="black" d="M202.11,-954.73C207.37,-995.09 225.05,-1093.19 277.25,-1153.5 307.18,-1188.07 338.47,-1166.8 368.25,-1201.5 400.11,-1238.62 374.95,-1266.33 404.25,-1305.5 407.09,-1309.29 410.51,-1312.82 414.17,-1316.03"/>
<polygon fill="black" stroke="black" points="411.8,-1318.62 421.84,-1322.02 416.12,-1313.11 411.8,-1318.62"/>
</g>
<!-- serve&#45;&gt;hash -->
<g id="edge107" class="edge">
<title>serve&#45;&gt;hash</title>
<path fill="none" stroke="black" d="M226.47,-932.23C306.27,-919.86 552.33,-885.83 756,-901.5 778,-903.19 802.39,-906.88 821.96,-910.29"/>
<polygon fill="black" stroke="black" points="821.21,-913.71 831.67,-912.04 822.45,-906.82 821.21,-913.71"/>
</g>
<!-- serve&#45;&gt;init -->
<g id="edge108" class="edge">
<title>serve&#45;&gt;init</title>
<path fill="none" stroke="black" d="M200.74,-918.26C203.21,-873.79 215.56,-758.59 277.25,-692.5 383.54,-578.62 586.68,-566.37 670.63,-566.47"/>
<polygon fill="black" stroke="black" points="670.35,-569.97 680.38,-566.55 670.41,-562.97 670.35,-569.97"/>
</g>
<!-- serve&#45;&gt;metamath -->
<g id="edge109" class="edge">
<title>serve&#45;&gt;metamath</title>
<path fill="none" stroke="black" d="M202.39,-918.12C210.11,-858.17 237.17,-669.69 277.25,-625.5 453.3,-431.41 819.59,-510.59 953.54,-548.07"/>
<polygon fill="black" stroke="black" points="952.25,-551.34 962.82,-550.71 954.16,-544.61 952.25,-551.34"/>
</g>
<!-- serve&#45;&gt;object -->
<g id="edge110" class="edge">
<title>serve&#45;&gt;object</title>
<path fill="none" stroke="black" d="M202.84,-954.93C209.19,-991.55 228.33,-1073.93 277.25,-1120.5 308.41,-1150.17 337.39,-1123.52 368.25,-1153.5 399.45,-1183.81 369.57,-1218.26 404.25,-1244.5 483.24,-1304.27 530.48,-1280.82 626.75,-1257.5 641.93,-1253.82 657.45,-1246.81 670.83,-1239.54"/>
<polygon fill="black" stroke="black" points="672.32,-1242.72 679.28,-1234.74 668.86,-1236.64 672.32,-1242.72"/>
</g>
<!-- serve&#45;&gt;proto -->
<g id="edge111" class="edge">
<title>serve&#45;&gt;proto</title>
<path fill="none" stroke="black" d="M203.84,-954.73C212.93,-997.45 238.4,-1106.79 277.25,-1191.5 283.98,-1206.17 293.34,-1221.4 301.74,-1233.9"/>
<polygon fill="black" stroke="black" points="298.79,-1235.79 307.35,-1242.03 304.55,-1231.81 298.79,-1235.79"/>
</g>
<!-- serve&#45;&gt;repl -->
<g id="edge112" class="edge">
<title>serve&#45;&gt;repl</title>
<path fill="none" stroke="black" d="M214.31,-954.82C235.65,-982.35 276.1,-1034.57 300.82,-1066.49"/>
<polygon fill="black" stroke="black" points="297.83,-1068.34 306.72,-1074.1 303.37,-1064.05 297.83,-1068.34"/>
</g>
<!-- serve&#45;&gt;shell -->
<g id="edge113" class="edge">
<title>serve&#45;&gt;shell</title>
<path fill="none" stroke="black" d="M226.28,-924.54C241.09,-917.96 260.04,-909.87 277.25,-903.5 323.04,-886.56 376.9,-870.2 411.95,-860.01"/>
<polygon fill="black" stroke="black" points="412.55,-863.48 421.19,-857.35 410.61,-856.76 412.55,-863.48"/>
</g>
<!-- serve&#45;&gt;store -->
<g id="edge114" class="edge">
<title>serve&#45;&gt;store</title>
<path fill="none" stroke="black" d="M226.36,-940.85C282.43,-950.14 418.12,-972.52 532,-990.5 579.83,-998.05 635.02,-1006.45 670.74,-1011.84"/>
<polygon fill="black" stroke="black" points="670.16,-1015.3 680.57,-1013.33 671.2,-1008.37 670.16,-1015.3"/>
</g>
<!-- sexp&#45;&gt;parse -->
<g id="edge115" class="edge">
<title>sexp&#45;&gt;parse</title>
<path fill="none" stroke="black" d="M1133.11,-581.69C1150.73,-610.85 1185.41,-668.27 1206.16,-702.63"/>
<polygon fill="black" stroke="black" points="1202.92,-704.03 1211.09,-710.78 1208.92,-700.41 1202.92,-704.03"/>
</g>
<!-- shell&#45;&gt;hol -->
<g id="edge116" class="edge">
<title>shell&#45;&gt;hol</title>
<path fill="none" stroke="black" d="M459.44,-831.03C472.96,-801.7 501.32,-743.15 532,-697.5 628,-554.65 646.05,-501.73 792,-410.5 801.24,-404.73 812.1,-400.2 822.37,-396.75"/>
<polygon fill="black" stroke="black" points="823.21,-400.16 831.74,-393.87 821.15,-393.47 823.21,-400.16"/>
</g>
<!-- shell&#45;&gt;kernel -->
<g id="edge117" class="edge">
<title>shell&#45;&gt;kernel</title>
<path fill="none" stroke="black" d="M475.39,-831.16C491.37,-819.17 512.81,-803.24 532,-789.5 535.2,-787.21 538.54,-784.85 541.89,-782.5"/>
<polygon fill="black" stroke="black" points="543.84,-785.41 550.05,-776.82 539.84,-779.66 543.84,-785.41"/>
</g>
<!-- smt&#45;&gt;sat -->
<g id="edge118" class="edge">
<title>smt&#45;&gt;sat</title>
<path fill="none" stroke="black" d="M727.25,-233.9C737.44,-246.16 749.64,-263.16 756,-280.5 816.55,-445.59 745.36,-504.96 792,-674.5 803.36,-715.79 826.32,-759.76 842.26,-787.42"/>
<polygon fill="black" stroke="black" points="839.14,-789.02 847.22,-795.87 845.18,-785.47 839.14,-789.02"/>
</g>
<!-- smt&#45;&gt;sexp -->
<g id="edge119" class="edge">
<title>smt&#45;&gt;sexp</title>
<path fill="none" stroke="black" d="M736.79,-211.6C779.84,-206.57 866.56,-202.03 928.75,-235.5 951.3,-247.64 947.93,-261.19 964.75,-280.5 998.92,-319.74 1017.62,-321.41 1045.25,-365.5 1079.73,-420.51 1102.27,-493.88 1112.94,-534.08"/>
<polygon fill="black" stroke="black" points="1109.54,-534.92 1115.43,-543.73 1116.32,-533.17 1109.54,-534.92"/>
</g>
<!-- smt&#45;&gt;types -->
<g id="edge120" class="edge">
<title>smt&#45;&gt;types</title>
<path fill="none" stroke="black" d="M713.94,-197.13C721.59,-163.23 743,-91.33 792,-58.5 870.59,-5.84 909.4,-39.5 1004,-39.5 1004,-39.5 1004,-39.5 1225,-39.5 1299.65,-39.5 1328.03,-39.78 1386.25,-86.5 1413.31,-108.22 1430.34,-145.08 1439.55,-170.78"/>
<polygon fill="black" stroke="black" points="1436.13,-171.58 1442.66,-179.93 1442.76,-169.34 1436.13,-171.58"/>
</g>
<!-- spectec&#45;&gt;grammar -->
<g id="edge121" class="edge">
<title>spectec&#45;&gt;grammar</title>
<path fill="none" stroke="black" d="M895.18,-654.85C913.51,-658.83 936.47,-663.82 956.56,-668.19"/>
<polygon fill="black" stroke="black" points="955.7,-671.58 966.22,-670.29 957.19,-664.74 955.7,-671.58"/>
</g>
<!-- store&#45;&gt;hash -->
<g id="edge122" class="edge">
<title>store&#45;&gt;hash</title>
<path fill="none" stroke="black" d="M736.65,-1002.44C743.05,-998.64 749.82,-994.5 756,-990.5 779.62,-975.21 805.47,-956.95 825.41,-942.52"/>
<polygon fill="black" stroke="black" points="827.44,-945.38 833.47,-936.66 823.32,-939.71 827.44,-945.38"/>
</g>
<!-- store&#45;&gt;json -->
<g id="edge123" class="edge">
<title>store&#45;&gt;json</title>
<path fill="none" stroke="black" d="M722.49,-1035.9C737.7,-1058.53 765.07,-1097.71 792,-1128.5 803.82,-1142.02 817.99,-1155.98 830.28,-1167.48"/>
<polygon fill="black" stroke="black" points="827.6,-1169.77 837.32,-1173.98 832.35,-1164.63 827.6,-1169.77"/>
</g>
<!-- store&#45;&gt;sqlite -->
<g id="edge124" class="edge">
<title>store&#45;&gt;sqlite</title>
<path fill="none" stroke="black" d="M736.67,-1022.79C760.32,-1027.56 795.33,-1034.61 821.91,-1039.96"/>
<polygon fill="black" stroke="black" points="821.11,-1043.37 831.61,-1041.91 822.5,-1036.51 821.11,-1043.37"/>
</g>
<!-- wasm&#45;build&#45;guest -->
<g id="node48" class="node">
<title>wasm&#45;build&#45;guest</title>
<polygon fill="none" stroke="black" points="928.75,-1119.5 792,-1119.5 792,-1083.5 928.75,-1083.5 928.75,-1119.5"/>
<text text-anchor="middle" x="860.38" y="-1097.2" font-family="sans-serif" font-size="14.00">wasm&#45;build&#45;guest</text>
</g>
<!-- wasm&#45;build&#45;guest&#45;&gt;wasm -->
<g id="edge125" class="edge">
<title>wasm&#45;build&#45;guest&#45;&gt;wasm</title>
<path fill="none" stroke="black" d="M913.54,-1083C918.83,-1080.42 923.99,-1077.59 928.75,-1074.5 948.4,-1061.74 967.32,-1043.36 981.27,-1028.23"/>
<polygon fill="black" stroke="black" points="983.79,-1030.67 987.87,-1020.89 978.58,-1025.99 983.79,-1030.67"/>
</g>
<!-- wasm&#45;spec -->
<g id="node49" class="node">
<title>wasm&#45;spec</title>
<polygon fill="none" stroke="black" points="756,-981.5 662.75,-981.5 662.75,-945.5 756,-945.5 756,-981.5"/>
<text text-anchor="middle" x="709.38" y="-959.2" font-family="sans-serif" font-size="14.00">wasm&#45;spec</text>
</g>
<!-- wasm&#45;spec&#45;&gt;hash -->
<g id="edge126" class="edge">
<title>wasm&#45;spec&#45;&gt;hash</title>
<path fill="none" stroke="black" d="M756.3,-949.32C777.41,-942.81 802.13,-935.17 822.07,-929.02"/>
<polygon fill="black" stroke="black" points="822.93,-932.42 831.45,-926.12 820.87,-925.73 822.93,-932.42"/>
</g>
<!-- wasm&#45;spec&#45;&gt;wasm -->
<g id="edge127" class="edge">
<title>wasm&#45;spec&#45;&gt;wasm</title>
<path fill="none" stroke="black" d="M756.09,-967.53C800.36,-971.66 869.32,-978.72 928.75,-987.5 941.1,-989.33 954.53,-991.7 966.57,-993.97"/>
<polygon fill="black" stroke="black" points="965.65,-997.35 976.13,-995.81 966.97,-990.48 965.65,-997.35"/>
</g>
<!-- wasm&#45;store&#45;&gt;json -->
<g id="edge128" class="edge">
<title>wasm&#45;store&#45;&gt;json</title>
<path fill="none" stroke="black" d="M627.23,-1645.01C666.65,-1645.28 721.9,-1638.99 756,-1606.5 812.3,-1552.87 845.88,-1308.47 856.06,-1223.06"/>
<polygon fill="black" stroke="black" points="859.51,-1223.72 857.19,-1213.38 852.55,-1222.91 859.51,-1223.72"/>
</g>
<!-- wasm&#45;store&#45;&gt;store -->
<g id="edge129" class="edge">
<title>wasm&#45;store&#45;&gt;store</title>
<path fill="none" stroke="black" d="M583.88,-1623.26C591.98,-1580.9 612.36,-1472.53 626.75,-1381.5 645.03,-1265.84 630.72,-1233.13 662.75,-1120.5 670.19,-1094.35 683,-1066.23 693.16,-1045.99"/>
<polygon fill="black" stroke="black" points="696.19,-1047.74 697.64,-1037.24 689.97,-1044.54 696.19,-1047.74"/>
</g>
<!-- wasm&#45;store&#45;&gt;wasm -->
<g id="edge130" class="edge">
<title>wasm&#45;store&#45;&gt;wasm</title>
<path fill="none" stroke="black" d="M627.09,-1653.77C665.11,-1660.9 718.45,-1664.08 756,-1638.5 968.99,-1493.42 999.08,-1136.13 1003.31,-1031.03"/>
<polygon fill="black" stroke="black" points="1006.8,-1031.39 1003.65,-1021.28 999.81,-1031.15 1006.8,-1031.39"/>
</g>
<!-- web&#45;kernel -->
<g id="node51" class="node">
<title>web&#45;kernel</title>
<polygon fill="none" stroke="black" points="496,-699.5 404.25,-699.5 404.25,-663.5 496,-663.5 496,-699.5"/>
<text text-anchor="middle" x="450.12" y="-677.2" font-family="sans-serif" font-size="14.00">web&#45;kernel</text>
</g>
<!-- web&#45;kernel&#45;&gt;kernel -->
<g id="edge131" class="edge">
<title>web&#45;kernel&#45;&gt;kernel</title>
<path fill="none" stroke="black" d="M481.93,-699.9C499.64,-710.47 522.01,-723.84 540.75,-735.03"/>
<polygon fill="black" stroke="black" points="538.78,-737.93 549.16,-740.05 542.37,-731.92 538.78,-737.93"/>
</g>
</g>
</svg>
