<?xml version="1.0" encoding="UTF-8" standalone="no"?>
<!DOCTYPE svg PUBLIC "-//W3C//DTD SVG 1.1//EN"
 "http://www.w3.org/Graphics/SVG/1.1/DTD/svg11.dtd">
<!-- Generated by graphviz version 12.2.1 (0)
 -->
<!-- Title: deps Pages: 1 -->
<svg width="1454pt" height="2390pt"
 viewBox="0.00 0.00 1453.50 2390.00" xmlns="http://www.w3.org/2000/svg" xmlns:xlink="http://www.w3.org/1999/xlink">
<g id="graph0" class="graph" transform="scale(1 1) rotate(0) translate(4 2386)">
<title>deps</title>
<polygon fill="white" stroke="none" points="-4,4 -4,-2386 1449.5,-2386 1449.5,4 -4,4"/>
<!-- covalence -->
<g id="node1" class="node">
<title>covalence</title>
<polygon fill="none" stroke="black" points="102.62,-1012 18.38,-1012 18.38,-976 102.62,-976 102.62,-1012"/>
<text text-anchor="middle" x="60.5" y="-989.7" font-family="sans-serif" font-size="14.00">covalence</text>
</g>
<!-- client -->
<g id="node5" class="node">
<title>client</title>
<polygon fill="none" stroke="black" points="350.12,-989 296.12,-989 296.12,-953 350.12,-953 350.12,-989"/>
<text text-anchor="middle" x="323.12" y="-966.7" font-family="sans-serif" font-size="14.00">client</text>
</g>
<!-- covalence&#45;&gt;client -->
<g id="edge1" class="edge">
<title>covalence&#45;&gt;client</title>
<path fill="none" stroke="black" d="M103.08,-990.33C153.03,-985.92 236.1,-978.59 284.31,-974.34"/>
<polygon fill="black" stroke="black" points="284.61,-977.82 294.26,-973.46 283.99,-970.85 284.61,-977.82"/>
</g>
<!-- fuse -->
<g id="node11" class="node">
<title>fuse</title>
<polygon fill="none" stroke="black" points="582.38,-803 528.38,-803 528.38,-767 582.38,-767 582.38,-803"/>
<text text-anchor="middle" x="555.38" y="-780.7" font-family="sans-serif" font-size="14.00">fuse</text>
</g>
<!-- covalence&#45;&gt;fuse -->
<g id="edge2" class="edge">
<title>covalence&#45;&gt;fuse</title>
<path fill="none" stroke="black" d="M84.33,-975.67C122.22,-946.12 201.44,-887.94 277.25,-855 359.09,-819.44 462.68,-799.3 517.09,-790.46"/>
<polygon fill="black" stroke="black" points="517.42,-793.95 526.75,-788.93 516.33,-787.04 517.42,-793.95"/>
</g>
<!-- git -->
<g id="node12" class="node">
<title>git</title>
<polygon fill="none" stroke="black" points="465.5,-528 411.5,-528 411.5,-492 465.5,-492 465.5,-528"/>
<text text-anchor="middle" x="438.5" y="-505.7" font-family="sans-serif" font-size="14.00">git</text>
</g>
<!-- covalence&#45;&gt;git -->
<g id="edge3" class="edge">
<title>covalence&#45;&gt;git</title>
<path fill="none" stroke="black" d="M61.41,-975.54C62.08,-918.95 71.41,-745.41 157,-642 183.55,-609.92 209.27,-627.67 241.25,-601 262,-583.69 254.9,-567.19 277.25,-552 314.33,-526.81 365.67,-516.72 400.16,-512.69"/>
<polygon fill="black" stroke="black" points="400.07,-516.21 409.65,-511.69 399.34,-509.25 400.07,-516.21"/>
</g>
<!-- hash -->
<g id="node15" class="node">
<title>hash</title>
<polygon fill="none" stroke="black" points="863.38,-849 809.38,-849 809.38,-813 863.38,-813 863.38,-849"/>
<text text-anchor="middle" x="836.38" y="-826.7" font-family="sans-serif" font-size="14.00">hash</text>
</g>
<!-- covalence&#45;&gt;hash -->
<g id="edge4" class="edge">
<title>covalence&#45;&gt;hash</title>
<path fill="none" stroke="black" d="M102.84,-1011.84C109,-1014.76 115.22,-1017.86 121,-1021 137.69,-1030.06 139.08,-1037.73 157,-1044 289.6,-1090.38 332.43,-1085.9 472,-1070 589.83,-1056.58 636.66,-1080.53 732,-1010 783.33,-972.02 813.25,-900.36 826.72,-860.19"/>
<polygon fill="black" stroke="black" points="830.04,-861.31 829.77,-850.72 823.37,-859.16 830.04,-861.31"/>
</g>
<!-- hol -->
<g id="node17" class="node">
<title>hol</title>
<polygon fill="none" stroke="black" points="863.38,-2088 809.38,-2088 809.38,-2052 863.38,-2052 863.38,-2088"/>
<text text-anchor="middle" x="836.38" y="-2065.7" font-family="sans-serif" font-size="14.00">hol</text>
</g>
<!-- covalence&#45;&gt;hol -->
<g id="edge5" class="edge">
<title>covalence&#45;&gt;hol</title>
<path fill="none" stroke="black" d="M103.07,-1005.98C110.03,-1009.74 116.45,-1014.63 121,-1021 169.18,-1088.38 144.98,-1310.05 157,-1392 184.55,-1579.79 132.32,-2230 322.12,-2230 322.12,-2230 322.12,-2230 439.5,-2230 582.22,-2230 734.18,-2139.5 800.76,-2094.63"/>
<polygon fill="black" stroke="black" points="802.41,-2097.74 808.7,-2089.21 798.47,-2091.95 802.41,-2097.74"/>
</g>
<!-- lsp -->
<g id="node29" class="node">
<title>lsp</title>
<polygon fill="none" stroke="black" points="863.38,-1086 809.38,-1086 809.38,-1050 863.38,-1050 863.38,-1086"/>
<text text-anchor="middle" x="836.38" y="-1063.7" font-family="sans-serif" font-size="14.00">lsp</text>
</g>
<!-- covalence&#45;&gt;lsp -->
<g id="edge6" class="edge">
<title>covalence&#45;&gt;lsp</title>
<path fill="none" stroke="black" d="M103.04,-1006.01C109.99,-1009.76 116.43,-1014.65 121,-1021 166.18,-1083.73 103.13,-1311.56 157,-1367 194.57,-1405.67 223.45,-1379.44 277.25,-1383 424.11,-1392.73 476.65,-1397.9 602.75,-1322 668.12,-1282.65 690.24,-1272.86 732,-1209 761.08,-1164.53 731.87,-1133.96 768,-1095 776.03,-1086.34 787.22,-1080.4 798.17,-1076.35"/>
<polygon fill="black" stroke="black" points="799.02,-1079.75 807.48,-1073.36 796.89,-1073.09 799.02,-1079.75"/>
</g>
<!-- object -->
<g id="node32" class="node">
<title>object</title>
<polygon fill="none" stroke="black" points="714,-1001 656.75,-1001 656.75,-965 714,-965 714,-1001"/>
<text text-anchor="middle" x="685.38" y="-978.7" font-family="sans-serif" font-size="14.00">object</text>
</g>
<!-- covalence&#45;&gt;object -->
<g id="edge7" class="edge">
<title>covalence&#45;&gt;object</title>
<path fill="none" stroke="black" d="M103.08,-1006.77C109.85,-1010.44 116.21,-1015.1 121,-1021 167.48,-1078.27 99.47,-1136.85 157,-1183 186.21,-1206.43 204.64,-1190.88 241.25,-1183 401.16,-1148.58 572.91,-1051.66 646.93,-1006.59"/>
<polygon fill="black" stroke="black" points="648.31,-1009.85 655.01,-1001.63 644.65,-1003.88 648.31,-1009.85"/>
</g>
<!-- opentheory -->
<g id="node33" class="node">
<title>opentheory</title>
<polygon fill="none" stroke="black" points="368.62,-2309 277.62,-2309 277.62,-2273 368.62,-2273 368.62,-2309"/>
<text text-anchor="middle" x="323.12" y="-2286.7" font-family="sans-serif" font-size="14.00">opentheory</text>
</g>
<!-- covalence&#45;&gt;opentheory -->
<g id="edge8" class="edge">
<title>covalence&#45;&gt;opentheory</title>
<path fill="none" stroke="black" d="M103.12,-1005.58C110.16,-1009.37 116.6,-1014.39 121,-1021 196.31,-1134.18 73.49,-2136.72 157,-2244 182.47,-2276.72 229.02,-2287.76 266.21,-2291.02"/>
<polygon fill="black" stroke="black" points="265.7,-2294.49 275.91,-2291.69 266.18,-2287.51 265.7,-2294.49"/>
</g>
<!-- proto -->
<g id="node37" class="node">
<title>proto</title>
<polygon fill="none" stroke="black" points="350.12,-597 296.12,-597 296.12,-561 350.12,-561 350.12,-597"/>
<text text-anchor="middle" x="323.12" y="-574.7" font-family="sans-serif" font-size="14.00">proto</text>
</g>
<!-- covalence&#45;&gt;proto -->
<g id="edge9" class="edge">
<title>covalence&#45;&gt;proto</title>
<path fill="none" stroke="black" d="M66.67,-975.8C78.78,-934.74 111.45,-832.51 157,-756 199.83,-684.06 215.93,-668 277.25,-611 280.3,-608.16 283.62,-605.36 287.01,-602.67"/>
<polygon fill="black" stroke="black" points="288.98,-605.57 294.87,-596.76 284.77,-599.98 288.98,-605.57"/>
</g>
<!-- repl -->
<g id="node43" class="node">
<title>repl</title>
<polygon fill="none" stroke="black" points="350.12,-727 296.12,-727 296.12,-691 350.12,-691 350.12,-727"/>
<text text-anchor="middle" x="323.12" y="-704.7" font-family="sans-serif" font-size="14.00">repl</text>
</g>
<!-- covalence&#45;&gt;repl -->
<g id="edge10" class="edge">
<title>covalence&#45;&gt;repl</title>
<path fill="none" stroke="black" d="M68.94,-975.68C82.74,-943.26 114.79,-874.77 157,-828 194.98,-785.92 250.2,-749.85 286.14,-728.78"/>
<polygon fill="black" stroke="black" points="287.51,-732.03 294.42,-724 284.01,-725.97 287.51,-732.03"/>
</g>
<!-- serve -->
<g id="node46" class="node">
<title>serve</title>
<polygon fill="none" stroke="black" points="226.12,-1035 172.12,-1035 172.12,-999 226.12,-999 226.12,-1035"/>
<text text-anchor="middle" x="199.12" y="-1012.7" font-family="sans-serif" font-size="14.00">serve</text>
</g>
<!-- covalence&#45;&gt;serve -->
<g id="edge11" class="edge">
<title>covalence&#45;&gt;serve</title>
<path fill="none" stroke="black" d="M102.86,-1000.96C121.29,-1004.07 142.83,-1007.69 160.76,-1010.71"/>
<polygon fill="black" stroke="black" points="160.02,-1014.13 170.47,-1012.34 161.19,-1007.23 160.02,-1014.13"/>
</g>
<!-- shell -->
<g id="node48" class="node">
<title>shell</title>
<polygon fill="none" stroke="black" points="465.5,-1363 411.5,-1363 411.5,-1327 465.5,-1327 465.5,-1363"/>
<text text-anchor="middle" x="438.5" y="-1340.7" font-family="sans-serif" font-size="14.00">shell</text>
</g>
<!-- covalence&#45;&gt;shell -->
<g id="edge12" class="edge">
<title>covalence&#45;&gt;shell</title>
<path fill="none" stroke="black" d="M102.99,-1006.05C109.95,-1009.8 116.39,-1014.67 121,-1021 162.35,-1077.77 105.43,-1287.32 157,-1335 223.39,-1396.37 340.89,-1374.04 400.54,-1357.09"/>
<polygon fill="black" stroke="black" points="401.27,-1360.52 409.87,-1354.34 399.29,-1353.81 401.27,-1360.52"/>
</g>
<!-- store -->
<g id="node52" class="node">
<title>store</title>
<polygon fill="none" stroke="black" points="712.38,-410 658.38,-410 658.38,-374 712.38,-374 712.38,-410"/>
<text text-anchor="middle" x="685.38" y="-387.7" font-family="sans-serif" font-size="14.00">store</text>
</g>
<!-- covalence&#45;&gt;store -->
<g id="edge13" class="edge">
<title>covalence&#45;&gt;store</title>
<path fill="none" stroke="black" d="M63.57,-975.72C72.08,-903.42 106.28,-638.23 157,-573 182.81,-539.81 204.1,-549.68 241.25,-530 357.11,-468.61 379.55,-430.32 508,-404 555.14,-394.34 610.69,-392.01 646.67,-391.66"/>
<polygon fill="black" stroke="black" points="646.58,-395.16 656.57,-391.61 646.55,-388.16 646.58,-395.16"/>
</g>
<!-- wasm -->
<g id="node55" class="node">
<title>wasm</title>
<polygon fill="none" stroke="black" points="1004.75,-327 950.5,-327 950.5,-291 1004.75,-291 1004.75,-327"/>
<text text-anchor="middle" x="977.62" y="-304.7" font-family="sans-serif" font-size="14.00">wasm</text>
</g>
<!-- covalence&#45;&gt;wasm -->
<g id="edge14" class="edge">
<title>covalence&#45;&gt;wasm</title>
<path fill="none" stroke="black" d="M63.72,-975.88C72.51,-906.62 106.9,-659.55 157,-601 183.36,-570.19 209.71,-591.48 241.25,-566 263.12,-548.34 256.59,-533.06 277.25,-514 404.98,-396.16 467.09,-392.04 638.75,-365 755.56,-346.6 792.32,-395.66 904.75,-359 920.41,-353.89 935.69,-344.15 948.11,-334.61"/>
<polygon fill="black" stroke="black" points="950.24,-337.39 955.83,-328.39 945.85,-331.94 950.24,-337.39"/>
</g>
<!-- acset -->
<g id="node2" class="node">
<title>acset</title>
<polygon fill="none" stroke="black" points="863.38,-1590 809.38,-1590 809.38,-1554 863.38,-1554 863.38,-1590"/>
<text text-anchor="middle" x="836.38" y="-1567.7" font-family="sans-serif" font-size="14.00">acset</text>
</g>
<!-- alethe -->
<g id="node3" class="node">
<title>alethe</title>
<polygon fill="none" stroke="black" points="583.62,-1807 527.12,-1807 527.12,-1771 583.62,-1771 583.62,-1807"/>
<text text-anchor="middle" x="555.38" y="-1784.7" font-family="sans-serif" font-size="14.00">alethe</text>
</g>
<!-- core -->
<g id="node6" class="node">
<title>core</title>
<polygon fill="#ffd6d6" stroke="black" points="1004.62,-1996 950.62,-1996 950.62,-1960 1004.62,-1960 1004.62,-1996"/>
<text text-anchor="middle" x="977.62" y="-1973.7" font-family="sans-serif" font-size="14.00">core</text>
</g>
<!-- alethe&#45;&gt;core -->
<g id="edge15" class="edge">
<title>alethe&#45;&gt;core</title>
<path fill="none" stroke="black" d="M583.04,-1807.33C622.17,-1833.57 698.08,-1882.11 768,-1913 772.04,-1914.79 880.9,-1948.46 939.72,-1966.62"/>
<polygon fill="black" stroke="black" points="938.4,-1969.87 948.98,-1969.48 940.46,-1963.18 938.4,-1969.87"/>
</g>
<!-- hol&#45;eval -->
<g id="node19" class="node">
<title>hol&#45;eval</title>
<polygon fill="none" stroke="black" points="871.38,-1904 801.38,-1904 801.38,-1868 871.38,-1868 871.38,-1904"/>
<text text-anchor="middle" x="836.38" y="-1881.7" font-family="sans-serif" font-size="14.00">hol&#45;eval</text>
</g>
<!-- alethe&#45;&gt;hol&#45;eval -->
<g id="edge16" class="edge">
<title>alethe&#45;&gt;hol&#45;eval</title>
<path fill="none" stroke="black" d="M583.99,-1794.58C619.05,-1802.06 681.09,-1816.69 732,-1836 748.73,-1842.34 751.92,-1846.16 768,-1854 775.36,-1857.59 783.2,-1861.36 790.83,-1865"/>
<polygon fill="black" stroke="black" points="789.13,-1868.07 799.67,-1869.2 792.14,-1861.75 789.13,-1868.07"/>
</g>
<!-- init -->
<g id="node21" class="node">
<title>init</title>
<polygon fill="none" stroke="black" points="712.38,-1726 658.38,-1726 658.38,-1690 712.38,-1690 712.38,-1726"/>
<text text-anchor="middle" x="685.38" y="-1703.7" font-family="sans-serif" font-size="14.00">init</text>
</g>
<!-- alethe&#45;&gt;init -->
<g id="edge17" class="edge">
<title>alethe&#45;&gt;init</title>
<path fill="none" stroke="black" d="M583.83,-1771.62C602.77,-1759.64 628.13,-1743.59 648.64,-1730.61"/>
<polygon fill="black" stroke="black" points="650.41,-1733.63 656.99,-1725.33 646.67,-1727.72 650.41,-1733.63"/>
</g>
<!-- sexp -->
<g id="node47" class="node">
<title>sexp</title>
<polygon fill="none" stroke="black" points="1004.62,-1300 950.62,-1300 950.62,-1264 1004.62,-1264 1004.62,-1300"/>
<text text-anchor="middle" x="977.62" y="-1277.7" font-family="sans-serif" font-size="14.00">sexp</text>
</g>
<!-- alethe&#45;&gt;sexp -->
<g id="edge18" class="edge">
<title>alethe&#45;&gt;sexp</title>
<path fill="none" stroke="black" d="M555.82,-1770.79C555.2,-1718.04 560.49,-1563.26 638.75,-1474 668.25,-1440.35 698.43,-1465.6 732,-1436 756.48,-1414.41 742.18,-1391.96 768,-1372 817.73,-1333.57 848.18,-1363.39 904.75,-1336 920.12,-1328.56 935.49,-1317.61 948.04,-1307.51"/>
<polygon fill="black" stroke="black" points="950.02,-1310.42 955.48,-1301.34 945.55,-1305.03 950.02,-1310.42"/>
</g>
<!-- smt -->
<g id="node49" class="node">
<title>smt</title>
<polygon fill="none" stroke="black" points="712.38,-1427 658.38,-1427 658.38,-1391 712.38,-1391 712.38,-1427"/>
<text text-anchor="middle" x="685.38" y="-1404.7" font-family="sans-serif" font-size="14.00">smt</text>
</g>
<!-- alethe&#45;&gt;smt -->
<g id="edge19" class="edge">
<title>alethe&#45;&gt;smt</title>
<path fill="none" stroke="black" d="M558.96,-1770.67C568.2,-1707.06 601.04,-1496.63 638.75,-1441 641.64,-1436.74 645.29,-1432.87 649.28,-1429.41"/>
<polygon fill="black" stroke="black" points="651.31,-1432.26 657.14,-1423.42 647.06,-1426.7 651.31,-1432.26"/>
</g>
<!-- types -->
<g id="node54" class="node">
<title>types</title>
<polygon fill="#ffd6d6" stroke="black" points="1445.5,-1881 1391.5,-1881 1391.5,-1845 1445.5,-1845 1445.5,-1881"/>
<text text-anchor="middle" x="1418.5" y="-1858.7" font-family="sans-serif" font-size="14.00">types</text>
</g>
<!-- alethe&#45;&gt;types -->
<g id="edge20" class="edge">
<title>alethe&#45;&gt;types</title>
<path fill="none" stroke="black" d="M583.9,-1790.44C651.02,-1793.83 828.45,-1802 976.62,-1802 976.62,-1802 976.62,-1802 1194.25,-1802 1262.03,-1802 1337.43,-1828.49 1380.97,-1846.56"/>
<polygon fill="black" stroke="black" points="1379.36,-1849.68 1389.94,-1850.36 1382.09,-1843.23 1379.36,-1849.68"/>
</g>
<!-- arrow -->
<g id="node4" class="node">
<title>arrow</title>
<polygon fill="none" stroke="black" points="582.38,-711 528.38,-711 528.38,-675 582.38,-675 582.38,-711"/>
<text text-anchor="middle" x="555.38" y="-688.7" font-family="sans-serif" font-size="14.00">arrow</text>
</g>
<!-- client&#45;&gt;hash -->
<g id="edge21" class="edge">
<title>client&#45;&gt;hash</title>
<path fill="none" stroke="black" d="M350.54,-963.77C435.21,-940.58 700.07,-868.05 798.26,-841.16"/>
<polygon fill="black" stroke="black" points="798.94,-844.61 807.66,-838.59 797.09,-837.85 798.94,-844.61"/>
</g>
<!-- client&#45;&gt;shell -->
<g id="edge22" class="edge">
<title>client&#45;&gt;shell</title>
<path fill="none" stroke="black" d="M327.5,-989.17C336.78,-1037.5 364.68,-1172.82 405,-1280 409.65,-1292.35 415.92,-1305.46 421.72,-1316.64"/>
<polygon fill="black" stroke="black" points="418.56,-1318.17 426.35,-1325.35 424.74,-1314.88 418.56,-1318.17"/>
</g>
<!-- client&#45;&gt;store -->
<g id="edge23" class="edge">
<title>client&#45;&gt;store</title>
<path fill="none" stroke="black" d="M335.45,-952.73C361.32,-912.35 428.68,-814.63 508,-758 544.93,-731.64 575.14,-756 602.75,-720 684.74,-613.09 565.17,-531.86 638.75,-419 641.35,-415.01 644.77,-411.53 648.56,-408.52"/>
<polygon fill="black" stroke="black" points="650.24,-411.6 656.63,-403.15 646.36,-405.77 650.24,-411.6"/>
</g>
<!-- pure -->
<g id="node38" class="node">
<title>pure</title>
<polygon fill="#ffd6d6" stroke="black" points="1220.25,-1950 1166.25,-1950 1166.25,-1914 1220.25,-1914 1220.25,-1950"/>
<text text-anchor="middle" x="1193.25" y="-1927.7" font-family="sans-serif" font-size="14.00">pure</text>
</g>
<!-- core&#45;&gt;pure -->
<g id="edge24" class="edge">
<title>core&#45;&gt;pure</title>
<path fill="none" stroke="black" d="M1004.95,-1972.56C1035.21,-1966.28 1086.36,-1955.59 1130.25,-1946 1138.24,-1944.26 1146.79,-1942.35 1154.92,-1940.52"/>
<polygon fill="black" stroke="black" points="1155.56,-1943.96 1164.55,-1938.34 1154.02,-1937.13 1155.56,-1943.96"/>
</g>
<!-- pure&#45;eval -->
<g id="node39" class="node">
<title>pure&#45;eval</title>
<polygon fill="#ffd6d6" stroke="black" points="1130.25,-1904 1050.5,-1904 1050.5,-1868 1130.25,-1868 1130.25,-1904"/>
<text text-anchor="middle" x="1090.38" y="-1881.7" font-family="sans-serif" font-size="14.00">pure&#45;eval</text>
</g>
<!-- core&#45;&gt;pure&#45;eval -->
<g id="edge25" class="edge">
<title>core&#45;&gt;pure&#45;eval</title>
<path fill="none" stroke="black" d="M1000.77,-1959.6C1017.3,-1945.88 1040.08,-1926.95 1058.41,-1911.72"/>
<polygon fill="black" stroke="black" points="1060.65,-1914.41 1066.1,-1905.33 1056.17,-1909.03 1060.65,-1914.41"/>
</g>
<!-- core&#45;&gt;types -->
<g id="edge26" class="edge">
<title>core&#45;&gt;types</title>
<path fill="none" stroke="black" d="M1005.09,-1984.1C1069.93,-1997.53 1239.88,-2023.46 1355.5,-1957 1380.44,-1942.66 1397.19,-1913.75 1406.93,-1891.76"/>
<polygon fill="black" stroke="black" points="1410.09,-1893.28 1410.69,-1882.71 1403.62,-1890.6 1410.09,-1893.28"/>
</g>
<!-- core&#45;test&#45;guest -->
<g id="node7" class="node">
<title>core&#45;test&#45;guest</title>
<polygon fill="none" stroke="black" points="121,-1066 0,-1066 0,-1030 121,-1030 121,-1066"/>
<text text-anchor="middle" x="60.5" y="-1043.7" font-family="sans-serif" font-size="14.00">core&#45;test&#45;guest</text>
</g>
<!-- crypto&#45;sig -->
<g id="node8" class="node">
<title>crypto&#45;sig</title>
<polygon fill="none" stroke="black" points="241.25,-163 157,-163 157,-127 241.25,-127 241.25,-163"/>
<text text-anchor="middle" x="199.12" y="-140.7" font-family="sans-serif" font-size="14.00">crypto&#45;sig</text>
</g>
<!-- egglog -->
<g id="node9" class="node">
<title>egglog</title>
<polygon fill="none" stroke="black" points="866.88,-1460 805.88,-1460 805.88,-1424 866.88,-1424 866.88,-1460"/>
<text text-anchor="middle" x="836.38" y="-1437.7" font-family="sans-serif" font-size="14.00">egglog</text>
</g>
<!-- egglog&#45;&gt;sexp -->
<g id="edge27" class="edge">
<title>egglog&#45;&gt;sexp</title>
<path fill="none" stroke="black" d="M867.29,-1432.41C879.93,-1427.26 894.15,-1419.9 904.75,-1410 934.51,-1382.2 955.12,-1339.24 966.41,-1310.87"/>
<polygon fill="black" stroke="black" points="969.57,-1312.42 969.87,-1301.83 963.03,-1309.92 969.57,-1312.42"/>
</g>
<!-- egglog&#45;&gt;types -->
<g id="edge28" class="edge">
<title>egglog&#45;&gt;types</title>
<path fill="none" stroke="black" d="M867.37,-1455C913.96,-1473.97 1006.92,-1507 1089.38,-1507 1089.38,-1507 1089.38,-1507 1194.25,-1507 1266.71,-1507 1303.33,-1480.72 1355.5,-1531 1398.79,-1572.72 1412.51,-1760.67 1416.26,-1833.78"/>
<polygon fill="black" stroke="black" points="1412.74,-1833.54 1416.72,-1843.36 1419.73,-1833.2 1412.74,-1833.54"/>
</g>
<!-- forsp -->
<g id="node10" class="node">
<title>forsp</title>
<polygon fill="none" stroke="black" points="465.5,-1271 411.5,-1271 411.5,-1235 465.5,-1235 465.5,-1271"/>
<text text-anchor="middle" x="438.5" y="-1248.7" font-family="sans-serif" font-size="14.00">forsp</text>
</g>
<!-- forsp&#45;&gt;hash -->
<g id="edge29" class="edge">
<title>forsp&#45;&gt;hash</title>
<path fill="none" stroke="black" d="M465.85,-1238.23C503.62,-1217.3 575.56,-1178.29 638.75,-1149 679.35,-1130.18 700.89,-1143.17 732,-1111 750.26,-1092.12 804.45,-927.48 826.19,-859.83"/>
<polygon fill="black" stroke="black" points="829.45,-861.15 829.17,-850.56 822.78,-859.01 829.45,-861.15"/>
</g>
<!-- repl&#45;core -->
<g id="node44" class="node">
<title>repl&#45;core</title>
<polygon fill="none" stroke="black" points="594.5,-1481 516.25,-1481 516.25,-1445 594.5,-1445 594.5,-1481"/>
<text text-anchor="middle" x="555.38" y="-1458.7" font-family="sans-serif" font-size="14.00">repl&#45;core</text>
</g>
<!-- forsp&#45;&gt;repl&#45;core -->
<g id="edge30" class="edge">
<title>forsp&#45;&gt;repl&#45;core</title>
<path fill="none" stroke="black" d="M449.49,-1271.27C469.56,-1307.96 514.9,-1390.83 538.86,-1434.63"/>
<polygon fill="black" stroke="black" points="535.73,-1436.2 543.6,-1443.3 541.87,-1432.84 535.73,-1436.2"/>
</g>
<!-- forsp&#45;&gt;sexp -->
<g id="edge31" class="edge">
<title>forsp&#45;&gt;sexp</title>
<path fill="none" stroke="black" d="M465.94,-1251.01C537.27,-1246.16 739.42,-1235.89 904.75,-1261 916.2,-1262.74 928.38,-1265.81 939.4,-1269.07"/>
<polygon fill="black" stroke="black" points="938.35,-1272.41 948.94,-1272.05 940.43,-1265.73 938.35,-1272.41"/>
</g>
<!-- fuse&#45;&gt;hash -->
<g id="edge32" class="edge">
<title>fuse&#45;&gt;hash</title>
<path fill="none" stroke="black" d="M582.87,-789.37C632.76,-797.59 740.73,-815.39 797.98,-824.83"/>
<polygon fill="black" stroke="black" points="797.12,-828.24 807.56,-826.41 798.26,-821.33 797.12,-828.24"/>
</g>
<!-- fuse&#45;&gt;object -->
<g id="edge33" class="edge">
<title>fuse&#45;&gt;object</title>
<path fill="none" stroke="black" d="M568.19,-803.27C590.71,-838.12 639.93,-914.25 666.51,-955.36"/>
<polygon fill="black" stroke="black" points="663.4,-957 671.77,-963.5 669.28,-953.2 663.4,-957"/>
</g>
<!-- fuse&#45;&gt;store -->
<g id="edge34" class="edge">
<title>fuse&#45;&gt;store</title>
<path fill="none" stroke="black" d="M582.45,-772.58C590.22,-767.59 597.95,-761.07 602.75,-753 679.14,-624.72 557.94,-544.55 638.75,-419 641.38,-414.91 644.88,-411.35 648.76,-408.29"/>
<polygon fill="black" stroke="black" points="650.61,-411.26 657.05,-402.84 646.77,-405.41 650.61,-411.26"/>
</g>
<!-- git&#45;&gt;hash -->
<g id="edge35" class="edge">
<title>git&#45;&gt;hash</title>
<path fill="none" stroke="black" d="M465.59,-511.48C521.28,-515.96 653.1,-533.79 732,-604 792.24,-657.61 819.54,-753.34 829.95,-801.55"/>
<polygon fill="black" stroke="black" points="826.5,-802.15 831.94,-811.24 833.36,-800.74 826.5,-802.15"/>
</g>
<!-- git&#45;&gt;object -->
<g id="edge36" class="edge">
<title>git&#45;&gt;object</title>
<path fill="none" stroke="black" d="M458.74,-528.22C463.84,-534.06 468.8,-540.87 472,-548 520.45,-656.05 454.56,-706.32 508,-812 540.23,-875.73 605.76,-929.25 647.24,-958.65"/>
<polygon fill="black" stroke="black" points="645.02,-961.37 655.22,-964.21 649.02,-955.63 645.02,-961.37"/>
</g>
<!-- sqlite -->
<g id="node51" class="node">
<title>sqlite</title>
<polygon fill="none" stroke="black" points="863.38,-258 809.38,-258 809.38,-222 863.38,-222 863.38,-258"/>
<text text-anchor="middle" x="836.38" y="-235.7" font-family="sans-serif" font-size="14.00">sqlite</text>
</g>
<!-- git&#45;&gt;sqlite -->
<g id="edge37" class="edge">
<title>git&#45;&gt;sqlite</title>
<path fill="none" stroke="black" d="M452.12,-491.69C464.83,-474.16 485.7,-447.69 508,-429 602.86,-349.51 735.62,-284.57 798.96,-255.88"/>
<polygon fill="black" stroke="black" points="800.17,-259.17 807.86,-251.89 797.3,-252.79 800.17,-259.17"/>
</g>
<!-- git&#45;&gt;store -->
<g id="edge38" class="edge">
<title>git&#45;&gt;store</title>
<path fill="none" stroke="black" d="M465.89,-497.8C498.25,-482.78 554.71,-456.39 602.75,-433 617.52,-425.81 633.7,-417.72 647.74,-410.65"/>
<polygon fill="black" stroke="black" points="649.29,-413.78 656.64,-406.14 646.14,-407.53 649.29,-413.78"/>
</g>
<!-- grammar -->
<g id="node13" class="node">
<title>grammar</title>
<polygon fill="none" stroke="black" points="1014.5,-1698 940.75,-1698 940.75,-1662 1014.5,-1662 1014.5,-1698"/>
<text text-anchor="middle" x="977.62" y="-1675.7" font-family="sans-serif" font-size="14.00">grammar</text>
</g>
<!-- graph -->
<g id="node14" class="node">
<title>graph</title>
<polygon fill="none" stroke="black" points="465.5,-593 411.5,-593 411.5,-557 465.5,-557 465.5,-593"/>
<text text-anchor="middle" x="438.5" y="-570.7" font-family="sans-serif" font-size="14.00">graph</text>
</g>
<!-- graph&#45;&gt;hash -->
<g id="edge39" class="edge">
<title>graph&#45;&gt;hash</title>
<path fill="none" stroke="black" d="M465.68,-578.87C533.41,-589.07 710.61,-616.98 732,-633 788.44,-675.26 816.86,-757.38 828.58,-801.41"/>
<polygon fill="black" stroke="black" points="825.17,-802.2 831.03,-811.04 831.96,-800.48 825.17,-802.2"/>
</g>
<!-- parse -->
<g id="node35" class="node">
<title>parse</title>
<polygon fill="none" stroke="black" points="1117.38,-1140 1063.38,-1140 1063.38,-1104 1117.38,-1104 1117.38,-1140"/>
<text text-anchor="middle" x="1090.38" y="-1117.7" font-family="sans-serif" font-size="14.00">parse</text>
</g>
<!-- graph&#45;&gt;parse -->
<g id="edge40" class="edge">
<title>graph&#45;&gt;parse</title>
<path fill="none" stroke="black" d="M465.95,-574.28C510.85,-573.13 604.87,-571 684.38,-571 684.38,-571 684.38,-571 837.38,-571 1068.78,-571 1088.57,-977.87 1089.56,-1092.35"/>
<polygon fill="black" stroke="black" points="1086.05,-1092.17 1089.59,-1102.15 1093.05,-1092.14 1086.05,-1092.17"/>
</g>
<!-- rand -->
<g id="node42" class="node">
<title>rand</title>
<polygon fill="none" stroke="black" points="1004.62,-849 950.62,-849 950.62,-813 1004.62,-813 1004.62,-849"/>
<text text-anchor="middle" x="977.62" y="-826.7" font-family="sans-serif" font-size="14.00">rand</text>
</g>
<!-- hash&#45;&gt;rand -->
<g id="edge41" class="edge">
<title>hash&#45;&gt;rand</title>
<path fill="none" stroke="black" d="M863.57,-831C884.86,-831 915.19,-831 939.07,-831"/>
<polygon fill="black" stroke="black" points="939.04,-834.5 949.04,-831 939.04,-827.5 939.04,-834.5"/>
</g>
<!-- haskell -->
<g id="node16" class="node">
<title>haskell</title>
<polygon fill="none" stroke="black" points="469.75,-1944 407.25,-1944 407.25,-1908 469.75,-1908 469.75,-1944"/>
<text text-anchor="middle" x="438.5" y="-1921.7" font-family="sans-serif" font-size="14.00">haskell</text>
</g>
<!-- hol&#45;api -->
<g id="node18" class="node">
<title>hol&#45;api</title>
<polygon fill="none" stroke="black" points="586.62,-2028 524.12,-2028 524.12,-1992 586.62,-1992 586.62,-2028"/>
<text text-anchor="middle" x="555.38" y="-2005.7" font-family="sans-serif" font-size="14.00">hol&#45;api</text>
</g>
<!-- haskell&#45;&gt;hol&#45;api -->
<g id="edge42" class="edge">
<title>haskell&#45;&gt;hol&#45;api</title>
<path fill="none" stroke="black" d="M463.08,-1944.32C476.2,-1954.4 492.88,-1967.05 508,-1978 511.19,-1980.31 514.52,-1982.68 517.87,-1985.04"/>
<polygon fill="black" stroke="black" points="515.81,-1987.87 526.01,-1990.73 519.82,-1982.13 515.81,-1987.87"/>
</g>
<!-- haskell&#45;&gt;hol&#45;eval -->
<g id="edge43" class="edge">
<title>haskell&#45;&gt;hol&#45;eval</title>
<path fill="none" stroke="black" d="M469.89,-1924.23C523.11,-1920.96 636.62,-1913.28 732,-1902 750.94,-1899.76 771.73,-1896.67 789.67,-1893.8"/>
<polygon fill="black" stroke="black" points="790.2,-1897.26 799.51,-1892.2 789.08,-1890.35 790.2,-1897.26"/>
</g>
<!-- haskell&#45;&gt;init -->
<g id="edge44" class="edge">
<title>haskell&#45;&gt;init</title>
<path fill="none" stroke="black" d="M442.01,-1907.57C447.6,-1873.76 464.21,-1801.67 508,-1762 518.49,-1752.5 598.64,-1730.36 647.21,-1717.57"/>
<polygon fill="black" stroke="black" points="647.98,-1720.99 656.76,-1715.07 646.2,-1714.22 647.98,-1720.99"/>
</g>
<!-- haskell&#45;&gt;types -->
<g id="edge45" class="edge">
<title>haskell&#45;&gt;types</title>
<path fill="none" stroke="black" d="M440.51,-1944.44C446.25,-2029.75 482.19,-2382 684.38,-2382 684.38,-2382 684.38,-2382 1194.25,-2382 1278.58,-2382 1309.19,-2352.48 1355.5,-2282 1397.93,-2217.42 1412.48,-1976.48 1416.33,-1892.28"/>
<polygon fill="black" stroke="black" points="1419.82,-1892.68 1416.76,-1882.54 1412.82,-1892.38 1419.82,-1892.68"/>
</g>
<!-- hol&#45;&gt;core -->
<g id="edge46" class="edge">
<title>hol&#45;&gt;core</title>
<path fill="none" stroke="black" d="M863.68,-2061.9C876.58,-2057.33 892.03,-2050.94 904.75,-2043 921.84,-2032.33 938.67,-2017.41 951.75,-2004.56"/>
<polygon fill="black" stroke="black" points="954.14,-2007.12 958.69,-1997.56 949.17,-2002.19 954.14,-2007.12"/>
</g>
<!-- hol&#45;api&#45;&gt;core -->
<g id="edge47" class="edge">
<title>hol&#45;api&#45;&gt;core</title>
<path fill="none" stroke="black" d="M581.7,-2028.24C641.58,-2068.94 795.08,-2158.88 904.75,-2097 938.71,-2077.84 958.43,-2035.47 968.36,-2006.82"/>
<polygon fill="black" stroke="black" points="971.58,-2008.25 971.34,-1997.66 964.92,-2006.08 971.58,-2008.25"/>
</g>
<!-- hol&#45;api&#45;&gt;hol&#45;eval -->
<g id="edge48" class="edge">
<title>hol&#45;api&#45;&gt;hol&#45;eval</title>
<path fill="none" stroke="black" d="M586.92,-1998.91C622.27,-1985.83 682.03,-1962.94 732,-1940 752.09,-1930.78 773.85,-1919.6 792.2,-1909.81"/>
<polygon fill="black" stroke="black" points="793.8,-1912.92 800.95,-1905.1 790.49,-1906.76 793.8,-1912.92"/>
</g>
<!-- inductive -->
<g id="node20" class="node">
<title>inductive</title>
<polygon fill="none" stroke="black" points="874.75,-2034 798,-2034 798,-1998 874.75,-1998 874.75,-2034"/>
<text text-anchor="middle" x="836.38" y="-2011.7" font-family="sans-serif" font-size="14.00">inductive</text>
</g>
<!-- hol&#45;api&#45;&gt;inductive -->
<g id="edge49" class="edge">
<title>hol&#45;api&#45;&gt;inductive</title>
<path fill="none" stroke="black" d="M586.86,-2012.75C602.38,-2014.02 621.55,-2015.37 638.75,-2016 688.94,-2017.83 746.39,-2017.55 786.17,-2016.99"/>
<polygon fill="black" stroke="black" points="786.21,-2020.49 796.15,-2016.84 786.1,-2013.49 786.21,-2020.49"/>
</g>
<!-- hol&#45;api&#45;&gt;init -->
<g id="edge50" class="edge">
<title>hol&#45;api&#45;&gt;init</title>
<path fill="none" stroke="black" d="M564.19,-1991.56C585.75,-1940.69 646.21,-1798.04 672.22,-1736.67"/>
<polygon fill="black" stroke="black" points="675.39,-1738.16 676.07,-1727.59 668.95,-1735.43 675.39,-1738.16"/>
</g>
<!-- hol&#45;api&#45;&gt;pure -->
<g id="edge51" class="edge">
<title>hol&#45;api&#45;&gt;pure</title>
<path fill="none" stroke="black" d="M568.28,-2028.18C582.52,-2048.36 608.3,-2080.29 638.75,-2097 742.85,-2154.12 791.03,-2156.18 904.75,-2122 1012.63,-2089.57 1117.34,-2002.07 1165.19,-1958.04"/>
<polygon fill="black" stroke="black" points="1167.41,-1960.76 1172.34,-1951.38 1162.64,-1955.64 1167.41,-1960.76"/>
</g>
<!-- hol&#45;api&#45;&gt;types -->
<g id="edge52" class="edge">
<title>hol&#45;api&#45;&gt;types</title>
<path fill="none" stroke="black" d="M564.97,-2028.12C577.9,-2053.8 604.54,-2101.01 638.75,-2131 712.32,-2195.5 737.53,-2230 835.38,-2230 835.38,-2230 835.38,-2230 1194.25,-2230 1351.84,-2230 1401.38,-1979.95 1413.87,-1892.65"/>
<polygon fill="black" stroke="black" points="1417.31,-1893.33 1415.19,-1882.95 1410.38,-1892.39 1417.31,-1893.33"/>
</g>
<!-- hol&#45;eval&#45;&gt;core -->
<g id="edge53" class="edge">
<title>hol&#45;eval&#45;&gt;core</title>
<path fill="none" stroke="black" d="M871.85,-1900.34C882.69,-1905.38 894.5,-1911.44 904.75,-1918 913.53,-1923.62 931.55,-1938.67 947.35,-1952.29"/>
<polygon fill="black" stroke="black" points="944.84,-1954.74 954.68,-1958.65 949.42,-1949.45 944.84,-1954.74"/>
</g>
<!-- hol&#45;eval&#45;&gt;pure -->
<g id="edge54" class="edge">
<title>hol&#45;eval&#45;&gt;pure</title>
<path fill="none" stroke="black" d="M871.82,-1890.74C891.92,-1893.48 917.77,-1896.98 940.75,-1900 1016.54,-1909.95 1105.25,-1921.13 1154.47,-1927.29"/>
<polygon fill="black" stroke="black" points="1153.95,-1930.75 1164.31,-1928.52 1154.82,-1923.81 1153.95,-1930.75"/>
</g>
<!-- hol&#45;eval&#45;&gt;pure&#45;eval -->
<g id="edge55" class="edge">
<title>hol&#45;eval&#45;&gt;pure&#45;eval</title>
<path fill="none" stroke="black" d="M871.62,-1886C914.73,-1886 989.13,-1886 1038.79,-1886"/>
<polygon fill="black" stroke="black" points="1038.72,-1889.5 1048.72,-1886 1038.72,-1882.5 1038.72,-1889.5"/>
</g>
<!-- hol&#45;eval&#45;&gt;sexp -->
<g id="edge56" class="edge">
<title>hol&#45;eval&#45;&gt;sexp</title>
<path fill="none" stroke="black" d="M845.67,-1867.58C859.77,-1835.55 888.47,-1767.27 904.75,-1707 944.04,-1561.49 966,-1381.88 973.57,-1311.89"/>
<polygon fill="black" stroke="black" points="977.05,-1312.32 974.62,-1302 970.09,-1311.58 977.05,-1312.32"/>
</g>
<!-- hol&#45;eval&#45;&gt;types -->
<g id="edge57" class="edge">
<title>hol&#45;eval&#45;&gt;types</title>
<path fill="none" stroke="black" d="M871.66,-1875.68C919.81,-1862.11 1010.44,-1840 1089.38,-1840 1089.38,-1840 1089.38,-1840 1194.25,-1840 1259.74,-1840 1335.48,-1849.92 1379.77,-1856.73"/>
<polygon fill="black" stroke="black" points="1379.21,-1860.18 1389.63,-1858.28 1380.3,-1853.27 1379.21,-1860.18"/>
</g>
<!-- init&#45;&gt;core -->
<g id="edge58" class="edge">
<title>init&#45;&gt;core</title>
<path fill="none" stroke="black" d="M705.71,-1726.27C721.77,-1741.02 745.54,-1761.91 768,-1778 825.42,-1819.15 854.59,-1809.27 904.75,-1859 931.3,-1885.32 952.03,-1923.35 964.27,-1949.28"/>
<polygon fill="black" stroke="black" points="961.01,-1950.58 968.35,-1958.21 967.37,-1947.66 961.01,-1950.58"/>
</g>
<!-- init&#45;&gt;grammar -->
<g id="edge59" class="edge">
<title>init&#45;&gt;grammar</title>
<path fill="none" stroke="black" d="M712.87,-1710.87C754.24,-1714.67 836.52,-1719.55 904.75,-1707 912.95,-1705.49 921.44,-1703.11 929.58,-1700.37"/>
<polygon fill="black" stroke="black" points="930.77,-1703.66 938.98,-1696.97 928.39,-1697.07 930.77,-1703.66"/>
</g>
<!-- init&#45;&gt;hash -->
<g id="edge60" class="edge">
<title>init&#45;&gt;hash</title>
<path fill="none" stroke="black" d="M692.19,-1689.57C702.13,-1657.22 722.26,-1587.98 732,-1528 766.8,-1313.77 726.56,-1254.04 768,-1041 780.9,-974.67 808.04,-899.98 823.65,-859.99"/>
<polygon fill="black" stroke="black" points="826.84,-861.43 827.26,-850.84 820.33,-858.86 826.84,-861.43"/>
</g>
<!-- init&#45;&gt;hol -->
<g id="edge61" class="edge">
<title>init&#45;&gt;hol</title>
<path fill="none" stroke="black" d="M688.63,-1726.4C696.65,-1789.24 725.65,-1994.15 768,-2043 775.8,-2052 787.02,-2058.03 798.08,-2062.06"/>
<polygon fill="black" stroke="black" points="796.91,-2065.37 807.5,-2065.01 799,-2058.68 796.91,-2065.37"/>
</g>
<!-- init&#45;&gt;hol&#45;eval -->
<g id="edge62" class="edge">
<title>init&#45;&gt;hol&#45;eval</title>
<path fill="none" stroke="black" d="M695.87,-1726.41C715.07,-1763.45 757.58,-1844.25 768,-1854 774.58,-1860.16 782.57,-1865.33 790.7,-1869.61"/>
<polygon fill="black" stroke="black" points="789.1,-1872.72 799.63,-1873.88 792.13,-1866.41 789.1,-1872.72"/>
</g>
<!-- init&#45;&gt;inductive -->
<g id="edge63" class="edge">
<title>init&#45;&gt;inductive</title>
<path fill="none" stroke="black" d="M692.3,-1726.36C704.38,-1762.9 733.65,-1846.88 768,-1913 781.88,-1939.72 800.9,-1968.24 815.19,-1988.48"/>
<polygon fill="black" stroke="black" points="812.24,-1990.37 820.9,-1996.47 817.94,-1986.3 812.24,-1990.37"/>
</g>
<!-- k -->
<g id="node23" class="node">
<title>k</title>
<polygon fill="none" stroke="black" points="863.38,-1644 809.38,-1644 809.38,-1608 863.38,-1608 863.38,-1644"/>
<text text-anchor="middle" x="836.38" y="-1621.7" font-family="sans-serif" font-size="14.00">k</text>
</g>
<!-- init&#45;&gt;k -->
<g id="edge64" class="edge">
<title>init&#45;&gt;k</title>
<path fill="none" stroke="black" d="M710.53,-1689.73C726.35,-1678.28 747.76,-1663.72 768,-1653 777.57,-1647.93 788.3,-1643.23 798.34,-1639.21"/>
<polygon fill="black" stroke="black" points="799.4,-1642.55 807.47,-1635.68 796.88,-1636.02 799.4,-1642.55"/>
</g>
<!-- metamath -->
<g id="node30" class="node">
<title>metamath</title>
<polygon fill="none" stroke="black" points="876.62,-1140 796.12,-1140 796.12,-1104 876.62,-1104 876.62,-1140"/>
<text text-anchor="middle" x="836.38" y="-1117.7" font-family="sans-serif" font-size="14.00">metamath</text>
</g>
<!-- init&#45;&gt;metamath -->
<g id="edge65" class="edge">
<title>init&#45;&gt;metamath</title>
<path fill="none" stroke="black" d="M691.08,-1689.61C699.4,-1657.05 717.22,-1587.11 732,-1528 748.21,-1463.16 751.62,-1446.79 768,-1382 789.18,-1298.23 815,-1199.51 827.64,-1151.37"/>
<polygon fill="black" stroke="black" points="831.02,-1152.29 830.18,-1141.73 824.25,-1150.51 831.02,-1152.29"/>
</g>
<!-- init&#45;&gt;sexp -->
<g id="edge66" class="edge">
<title>init&#45;&gt;sexp</title>
<path fill="none" stroke="black" d="M691,-1689.53C706.79,-1626.79 758.09,-1425.25 768,-1415 812.3,-1369.21 852.19,-1408.02 904.75,-1372 928.21,-1355.93 947.78,-1329.94 960.55,-1310.01"/>
<polygon fill="black" stroke="black" points="963.52,-1311.86 965.8,-1301.51 957.57,-1308.18 963.52,-1311.86"/>
</g>
<!-- spectec -->
<g id="node50" class="node">
<title>spectec</title>
<polygon fill="none" stroke="black" points="871,-1698 801.75,-1698 801.75,-1662 871,-1662 871,-1698"/>
<text text-anchor="middle" x="836.38" y="-1675.7" font-family="sans-serif" font-size="14.00">spectec</text>
</g>
<!-- init&#45;&gt;spectec -->
<g id="edge67" class="edge">
<title>init&#45;&gt;spectec</title>
<path fill="none" stroke="black" d="M712.67,-1703.06C734.12,-1699.03 764.9,-1693.24 790.27,-1688.48"/>
<polygon fill="black" stroke="black" points="790.82,-1691.93 800,-1686.65 789.53,-1685.05 790.82,-1691.93"/>
</g>
<!-- init&#45;&gt;types -->
<g id="edge68" class="edge">
<title>init&#45;&gt;types</title>
<path fill="none" stroke="black" d="M712.86,-1716.63C763.5,-1732.34 877.83,-1764 976.62,-1764 976.62,-1764 976.62,-1764 1194.25,-1764 1266.71,-1764 1292.4,-1752.38 1355.5,-1788 1374.87,-1798.93 1390.72,-1818.46 1401.54,-1834.85"/>
<polygon fill="black" stroke="black" points="1398.54,-1836.65 1406.81,-1843.26 1404.47,-1832.93 1398.54,-1836.65"/>
</g>
<!-- json -->
<g id="node22" class="node">
<title>json</title>
<polygon fill="none" stroke="black" points="863.38,-204 809.38,-204 809.38,-168 863.38,-168 863.38,-204"/>
<text text-anchor="middle" x="836.38" y="-181.7" font-family="sans-serif" font-size="14.00">json</text>
</g>
<!-- k&#45;&gt;grammar -->
<g id="edge69" class="edge">
<title>k&#45;&gt;grammar</title>
<path fill="none" stroke="black" d="M863.57,-1636.16C882.19,-1643.38 907.7,-1653.27 929.79,-1661.84"/>
<polygon fill="black" stroke="black" points="928.3,-1665.02 938.89,-1665.37 930.84,-1658.49 928.3,-1665.02"/>
</g>
<!-- k&#45;&gt;parse -->
<g id="edge70" class="edge">
<title>k&#45;&gt;parse</title>
<path fill="none" stroke="black" d="M863.63,-1618.43C876.66,-1613.97 892.24,-1607.5 904.75,-1599 963.44,-1559.09 981.66,-1545.92 1014.5,-1483 1073.22,-1370.52 1085.89,-1215.79 1088.63,-1151.68"/>
<polygon fill="black" stroke="black" points="1092.11,-1152.08 1088.99,-1141.96 1085.12,-1151.82 1092.11,-1152.08"/>
</g>
<!-- k&#45;&gt;sexp -->
<g id="edge71" class="edge">
<title>k&#45;&gt;sexp</title>
<path fill="none" stroke="black" d="M863.54,-1621.62C877.7,-1617.92 894.36,-1611.18 904.75,-1599 941.97,-1555.37 965.39,-1381.21 973.47,-1311.28"/>
<polygon fill="black" stroke="black" points="976.9,-1312.07 974.54,-1301.74 969.94,-1311.29 976.9,-1312.07"/>
</g>
<!-- kernel -->
<g id="node24" class="node">
<title>kernel</title>
<polygon fill="none" stroke="black" points="584,-1313 526.75,-1313 526.75,-1277 584,-1277 584,-1313"/>
<text text-anchor="middle" x="555.38" y="-1290.7" font-family="sans-serif" font-size="14.00">kernel</text>
</g>
<!-- kernel&#45;&gt;hash -->
<g id="edge72" class="edge">
<title>kernel&#45;&gt;hash</title>
<path fill="none" stroke="black" d="M584.32,-1278.87C622.96,-1255.18 692.4,-1207.42 732,-1149 734.12,-1145.88 800.93,-938.24 826,-860.21"/>
<polygon fill="black" stroke="black" points="829.32,-861.29 829.05,-850.7 822.66,-859.15 829.32,-861.29"/>
</g>
<!-- kernel&#45;&gt;init -->
<g id="edge73" class="edge">
<title>kernel&#45;&gt;init</title>
<path fill="none" stroke="black" d="M584.06,-1308.9C591.15,-1313.72 598.09,-1319.76 602.75,-1327 651.88,-1403.31 619.59,-1439.29 638.75,-1528 650.31,-1581.51 666.61,-1643.23 676.27,-1678.72"/>
<polygon fill="black" stroke="black" points="672.86,-1679.52 678.88,-1688.24 679.61,-1677.67 672.86,-1679.52"/>
</g>
<!-- kernel&#45;&gt;object -->
<g id="edge74" class="edge">
<title>kernel&#45;&gt;object</title>
<path fill="none" stroke="black" d="M563.81,-1276.88C585.15,-1224.86 646.73,-1074.76 672.65,-1011.57"/>
<polygon fill="black" stroke="black" points="675.79,-1013.15 676.34,-1002.57 669.31,-1010.5 675.79,-1013.15"/>
</g>
<!-- kernel&#45;&gt;sexp -->
<g id="edge75" class="edge">
<title>kernel&#45;&gt;sexp</title>
<path fill="none" stroke="black" d="M584.4,-1289.53C643.62,-1278.7 785.8,-1256.52 904.75,-1268 916.02,-1269.09 928.15,-1271.11 939.17,-1273.29"/>
<polygon fill="black" stroke="black" points="938.19,-1276.66 948.7,-1275.28 939.62,-1269.81 938.19,-1276.66"/>
</g>
<!-- kernel&#45;&gt;store -->
<g id="edge76" class="edge">
<title>kernel&#45;&gt;store</title>
<path fill="none" stroke="black" d="M558.17,-1276.58C564.42,-1212.47 585.76,-993.16 602.75,-812 610.94,-724.68 591.88,-493.12 638.75,-419 641.35,-414.89 644.82,-411.32 648.7,-408.25"/>
<polygon fill="black" stroke="black" points="650.55,-411.22 656.98,-402.8 646.7,-405.38 650.55,-411.22"/>
</g>
<!-- kv -->
<g id="node25" class="node">
<title>kv</title>
<polygon fill="none" stroke="black" points="226.12,-36 172.12,-36 172.12,0 226.12,0 226.12,-36"/>
<text text-anchor="middle" x="199.12" y="-13.7" font-family="sans-serif" font-size="14.00">kv</text>
</g>
<!-- lean -->
<g id="node26" class="node">
<title>lean</title>
<polygon fill="none" stroke="black" points="87.5,-1120 33.5,-1120 33.5,-1084 87.5,-1084 87.5,-1120"/>
<text text-anchor="middle" x="60.5" y="-1097.7" font-family="sans-serif" font-size="14.00">lean</text>
</g>
<!-- lisp -->
<g id="node27" class="node">
<title>lisp</title>
<polygon fill="none" stroke="black" points="465.5,-1795 411.5,-1795 411.5,-1759 465.5,-1759 465.5,-1795"/>
<text text-anchor="middle" x="438.5" y="-1772.7" font-family="sans-serif" font-size="14.00">lisp</text>
</g>
<!-- lisp&#45;&gt;core -->
<g id="edge77" class="edge">
<title>lisp&#45;&gt;core</title>
<path fill="none" stroke="black" d="M454.19,-1795.24C467.06,-1810.26 486.97,-1831.24 508,-1845 612,-1913.06 647.88,-1916.05 768,-1948 826.54,-1963.57 896.61,-1971.55 938.82,-1975.24"/>
<polygon fill="black" stroke="black" points="938.45,-1978.72 948.7,-1976.07 939.03,-1971.75 938.45,-1978.72"/>
</g>
<!-- lisp&#45;&gt;hol&#45;api -->
<g id="edge78" class="edge">
<title>lisp&#45;&gt;hol&#45;api</title>
<path fill="none" stroke="black" d="M444.19,-1795.44C455.58,-1839.25 485.43,-1948.16 508,-1978 510.12,-1980.8 512.55,-1983.44 515.17,-1985.91"/>
<polygon fill="black" stroke="black" points="512.91,-1988.58 522.84,-1992.26 517.37,-1983.19 512.91,-1988.58"/>
</g>
<!-- lisp&#45;&gt;hol&#45;eval -->
<g id="edge79" class="edge">
<title>lisp&#45;&gt;hol&#45;eval</title>
<path fill="none" stroke="black" d="M465.89,-1794.56C478.24,-1802.1 493.42,-1810.44 508,-1816 604.63,-1852.83 725.08,-1872.28 789.56,-1880.71"/>
<polygon fill="black" stroke="black" points="789.07,-1884.18 799.43,-1881.97 789.95,-1877.24 789.07,-1884.18"/>
</g>
<!-- lisp&#45;&gt;init -->
<g id="edge80" class="edge">
<title>lisp&#45;&gt;init</title>
<path fill="none" stroke="black" d="M459.84,-1758.7C472.71,-1748.2 490.23,-1735.79 508,-1729 553.62,-1711.58 610.29,-1707.67 646.88,-1707.23"/>
<polygon fill="black" stroke="black" points="646.52,-1710.73 656.51,-1707.2 646.5,-1703.73 646.52,-1710.73"/>
</g>
<!-- lisp&#45;&gt;repl&#45;core -->
<g id="edge81" class="edge">
<title>lisp&#45;&gt;repl&#45;core</title>
<path fill="none" stroke="black" d="M442.19,-1758.77C450.62,-1703.52 477.73,-1539 508,-1495 509.44,-1492.9 511.07,-1490.9 512.83,-1489"/>
<polygon fill="black" stroke="black" points="515.11,-1491.66 520.12,-1482.32 510.38,-1486.5 515.11,-1491.66"/>
</g>
<!-- lisp&#45;&gt;sexp -->
<g id="edge82" class="edge">
<title>lisp&#45;&gt;sexp</title>
<path fill="none" stroke="black" d="M451.72,-1758.53C480.84,-1713.89 555.47,-1596.02 602.75,-1490 623.36,-1443.79 605,-1419.7 638.75,-1382 669.19,-1348 695.75,-1366.73 732,-1339 751.8,-1323.86 745.78,-1307.3 768,-1296 822.39,-1268.34 895.3,-1270.97 938.96,-1276.04"/>
<polygon fill="black" stroke="black" points="938.33,-1279.48 948.69,-1277.28 939.21,-1272.54 938.33,-1279.48"/>
</g>
<!-- lisp&#45;&gt;types -->
<g id="edge83" class="edge">
<title>lisp&#45;&gt;types</title>
<path fill="none" stroke="black" d="M444.37,-1795.18C450.76,-1819.01 462.28,-1862.12 472,-1899 488.16,-1960.29 478.01,-1981.16 508,-2037 592.24,-2193.89 657.3,-2268 835.38,-2268 835.38,-2268 835.38,-2268 1194.25,-2268 1277.66,-2268 1307.32,-2240.08 1355.5,-2172 1387.41,-2126.92 1407.55,-1960.78 1414.64,-1892.55"/>
<polygon fill="black" stroke="black" points="1418.09,-1893.17 1415.62,-1882.87 1411.13,-1892.46 1418.09,-1893.17"/>
</g>
<!-- llm -->
<g id="node28" class="node">
<title>llm</title>
<polygon fill="none" stroke="black" points="226.12,-521 172.12,-521 172.12,-485 226.12,-485 226.12,-521"/>
<text text-anchor="middle" x="199.12" y="-498.7" font-family="sans-serif" font-size="14.00">llm</text>
</g>
<!-- llm&#45;&gt;proto -->
<g id="edge84" class="edge">
<title>llm&#45;&gt;proto</title>
<path fill="none" stroke="black" d="M226.6,-519.49C244.02,-530.35 267.05,-544.69 286.14,-556.58"/>
<polygon fill="black" stroke="black" points="284.08,-559.42 294.42,-561.74 287.78,-553.48 284.08,-559.42"/>
</g>
<!-- lsp&#45;&gt;sexp -->
<g id="edge85" class="edge">
<title>lsp&#45;&gt;sexp</title>
<path fill="none" stroke="black" d="M863.56,-1073.16C877.37,-1077.08 893.69,-1083.78 904.75,-1095 948.11,-1138.98 965.9,-1211.91 972.73,-1252.47"/>
<polygon fill="black" stroke="black" points="969.25,-1252.88 974.25,-1262.22 976.17,-1251.8 969.25,-1252.88"/>
</g>
<!-- lsp&#45;&gt;wasm -->
<g id="edge86" class="edge">
<title>lsp&#45;&gt;wasm</title>
<path fill="none" stroke="black" d="M844.46,-1049.77C858.19,-1013.71 888.52,-930.48 904.75,-858 948.55,-662.4 968.69,-421.2 974.65,-338.46"/>
<polygon fill="black" stroke="black" points="978.12,-338.95 975.33,-328.73 971.14,-338.46 978.12,-338.95"/>
</g>
<!-- metamath&#45;&gt;parse -->
<g id="edge87" class="edge">
<title>metamath&#45;&gt;parse</title>
<path fill="none" stroke="black" d="M877.03,-1122C924.84,-1122 1004.62,-1122 1051.59,-1122"/>
<polygon fill="black" stroke="black" points="1051.55,-1125.5 1061.55,-1122 1051.55,-1118.5 1051.55,-1125.5"/>
</g>
<!-- metamath&#45;&gt;sexp -->
<g id="edge88" class="edge">
<title>metamath&#45;&gt;sexp</title>
<path fill="none" stroke="black" d="M876.98,-1135.87C886.81,-1140.58 896.8,-1146.58 904.75,-1154 934.51,-1181.8 955.12,-1224.76 966.41,-1253.13"/>
<polygon fill="black" stroke="black" points="963.03,-1254.08 969.87,-1262.17 969.57,-1251.58 963.03,-1254.08"/>
</g>
<!-- multiformat -->
<g id="node31" class="node">
<title>multiformat</title>
<polygon fill="none" stroke="black" points="730.5,-1519 640.25,-1519 640.25,-1483 730.5,-1483 730.5,-1519"/>
<text text-anchor="middle" x="685.38" y="-1496.7" font-family="sans-serif" font-size="14.00">multiformat</text>
</g>
<!-- multiformat&#45;&gt;acset -->
<g id="edge89" class="edge">
<title>multiformat&#45;&gt;acset</title>
<path fill="none" stroke="black" d="M724.98,-1519.47C738.58,-1525.97 753.96,-1533.31 768,-1540 778.06,-1544.79 788.98,-1549.98 799.04,-1554.76"/>
<polygon fill="black" stroke="black" points="797.23,-1557.78 807.76,-1558.9 800.23,-1551.45 797.23,-1557.78"/>
</g>
<!-- multiformat&#45;&gt;hash -->
<g id="edge90" class="edge">
<title>multiformat&#45;&gt;hash</title>
<path fill="none" stroke="black" d="M703.25,-1482.6C713.44,-1470.34 725.64,-1453.35 732,-1436 792.69,-1270.49 732.86,-1213.75 768,-1041 781.47,-974.78 808.39,-900.05 823.81,-860.02"/>
<polygon fill="black" stroke="black" points="827.01,-861.46 827.38,-850.87 820.49,-858.91 827.01,-861.46"/>
</g>
<!-- multiformat&#45;&gt;parse -->
<g id="edge91" class="edge">
<title>multiformat&#45;&gt;parse</title>
<path fill="none" stroke="black" d="M730.91,-1504.48C777.71,-1505.98 851.75,-1502.05 904.75,-1469 1022.16,-1395.79 1069.41,-1220.86 1083.98,-1151.27"/>
<polygon fill="black" stroke="black" points="1087.35,-1152.27 1085.89,-1141.78 1080.48,-1150.89 1087.35,-1152.27"/>
</g>
<!-- object&#45;&gt;hash -->
<g id="edge92" class="edge">
<title>object&#45;&gt;hash</title>
<path fill="none" stroke="black" d="M704.35,-964.67C730.53,-937.96 779.29,-888.21 809.38,-857.52"/>
<polygon fill="black" stroke="black" points="811.78,-860.07 816.28,-850.48 806.78,-855.17 811.78,-860.07"/>
</g>
<!-- object&#45;&gt;parse -->
<g id="edge93" class="edge">
<title>object&#45;&gt;parse</title>
<path fill="none" stroke="black" d="M714.37,-988.98C756.32,-998.27 837.73,-1017.56 904.75,-1041 957.37,-1059.41 1015.98,-1086.27 1052.76,-1103.93"/>
<polygon fill="black" stroke="black" points="1051.1,-1107.02 1061.62,-1108.22 1054.15,-1100.71 1051.1,-1107.02"/>
</g>
<!-- opentheory&#45;&gt;hol -->
<g id="edge94" class="edge">
<title>opentheory&#45;&gt;hol</title>
<path fill="none" stroke="black" d="M368.91,-2292.51C448.98,-2293.03 618.84,-2283.99 732,-2206 772.59,-2178.03 804.05,-2129.05 821.12,-2098.13"/>
<polygon fill="black" stroke="black" points="823.99,-2100.19 825.64,-2089.73 817.82,-2096.88 823.99,-2100.19"/>
</g>
<!-- parquet -->
<g id="node34" class="node">
<title>parquet</title>
<polygon fill="none" stroke="black" points="472,-727 405,-727 405,-691 472,-691 472,-727"/>
<text text-anchor="middle" x="438.5" y="-704.7" font-family="sans-serif" font-size="14.00">parquet</text>
</g>
<!-- parquet&#45;&gt;arrow -->
<g id="edge95" class="edge">
<title>parquet&#45;&gt;arrow</title>
<path fill="none" stroke="black" d="M472.42,-704.42C486.33,-702.48 502.61,-700.21 516.98,-698.21"/>
<polygon fill="black" stroke="black" points="517.09,-701.73 526.51,-696.88 516.12,-694.79 517.09,-701.73"/>
</g>
<!-- proptest -->
<g id="node36" class="node">
<title>proptest</title>
<polygon fill="none" stroke="black" points="95.88,-1174 25.12,-1174 25.12,-1138 95.88,-1138 95.88,-1174"/>
<text text-anchor="middle" x="60.5" y="-1151.7" font-family="sans-serif" font-size="14.00">proptest</text>
</g>
<!-- pure&#45;trusted -->
<g id="node40" class="node">
<title>pure&#45;trusted</title>
<polygon fill="#ffd6d6" stroke="black" points="1355.5,-1948 1256.25,-1948 1256.25,-1912 1355.5,-1912 1355.5,-1948"/>
<text text-anchor="middle" x="1305.88" y="-1925.7" font-family="sans-serif" font-size="14.00">pure&#45;trusted</text>
</g>
<!-- pure&#45;&gt;pure&#45;trusted -->
<g id="edge96" class="edge">
<title>pure&#45;&gt;pure&#45;trusted</title>
<path fill="none" stroke="black" d="M1220.75,-1931.52C1228.04,-1931.39 1236.27,-1931.24 1244.64,-1931.09"/>
<polygon fill="black" stroke="black" points="1244.63,-1934.59 1254.57,-1930.91 1244.51,-1927.59 1244.63,-1934.59"/>
</g>
<!-- pure&#45;eval&#45;&gt;pure -->
<g id="edge97" class="edge">
<title>pure&#45;eval&#45;&gt;pure</title>
<path fill="none" stroke="black" d="M1130.66,-1903.92C1138.9,-1907.67 1147.54,-1911.61 1155.67,-1915.32"/>
<polygon fill="black" stroke="black" points="1154.05,-1918.43 1164.6,-1919.39 1156.96,-1912.06 1154.05,-1918.43"/>
</g>
<!-- pure&#45;eval&#45;&gt;types -->
<g id="edge98" class="edge">
<title>pure&#45;eval&#45;&gt;types</title>
<path fill="none" stroke="black" d="M1130.71,-1883.23C1194.06,-1878.76 1317.83,-1870.03 1379.99,-1865.65"/>
<polygon fill="black" stroke="black" points="1379.97,-1869.16 1389.7,-1864.96 1379.48,-1862.17 1379.97,-1869.16"/>
</g>
<!-- pure&#45;trusted&#45;&gt;types -->
<g id="edge99" class="edge">
<title>pure&#45;trusted&#45;&gt;types</title>
<path fill="none" stroke="black" d="M1337.4,-1911.51C1351.11,-1903.21 1367.4,-1893.34 1381.69,-1884.69"/>
<polygon fill="black" stroke="black" points="1383.17,-1887.88 1389.91,-1879.71 1379.55,-1881.89 1383.17,-1887.88"/>
</g>
<!-- python -->
<g id="node41" class="node">
<title>python</title>
<polygon fill="none" stroke="black" points="91.38,-437 29.62,-437 29.62,-401 91.38,-401 91.38,-437"/>
<text text-anchor="middle" x="60.5" y="-414.7" font-family="sans-serif" font-size="14.00">python</text>
</g>
<!-- python&#45;&gt;crypto&#45;sig -->
<g id="edge100" class="edge">
<title>python&#45;&gt;crypto&#45;sig</title>
<path fill="none" stroke="black" d="M65.23,-400.67C74.61,-357.95 102.45,-249.85 157,-177 158.5,-175 160.15,-173.06 161.91,-171.19"/>
<polygon fill="black" stroke="black" points="164.14,-173.9 169.03,-164.5 159.34,-168.8 164.14,-173.9"/>
</g>
<!-- python&#45;&gt;git -->
<g id="edge101" class="edge">
<title>python&#45;&gt;git</title>
<path fill="none" stroke="black" d="M91.64,-421.57C127.55,-424.97 189.22,-431.86 241.25,-443 299.17,-455.4 313.25,-460.98 369,-481 379.35,-484.72 390.4,-489.17 400.54,-493.46"/>
<polygon fill="black" stroke="black" points="399.14,-496.67 409.71,-497.41 401.91,-490.24 399.14,-496.67"/>
</g>
<!-- python&#45;&gt;graph -->
<g id="edge102" class="edge">
<title>python&#45;&gt;graph</title>
<path fill="none" stroke="black" d="M91.6,-426.95C127.73,-436.85 189.87,-455.05 241.25,-476 298.83,-499.48 362.61,-533.17 401.38,-554.57"/>
<polygon fill="black" stroke="black" points="399.39,-557.47 409.83,-559.26 402.78,-551.35 399.39,-557.47"/>
</g>
<!-- python&#45;&gt;hash -->
<g id="edge103" class="edge">
<title>python&#45;&gt;hash</title>
<path fill="none" stroke="black" d="M91.69,-414.65C195.78,-401.47 543.58,-372.83 732,-546 807.25,-615.16 827.82,-743.39 833.37,-801.27"/>
<polygon fill="black" stroke="black" points="829.86,-801.34 834.21,-811 836.83,-800.74 829.86,-801.34"/>
</g>
<!-- python&#45;&gt;kv -->
<g id="edge104" class="edge">
<title>python&#45;&gt;kv</title>
<path fill="none" stroke="black" d="M62.15,-400.84C64.95,-344.19 79.77,-167.51 157,-50 158.82,-47.24 160.95,-44.61 163.28,-42.14"/>
<polygon fill="black" stroke="black" points="165.64,-44.72 170.63,-35.37 160.9,-39.57 165.64,-44.72"/>
</g>
<!-- python&#45;&gt;llm -->
<g id="edge105" class="edge">
<title>python&#45;&gt;llm</title>
<path fill="none" stroke="black" d="M91.48,-437.43C112.33,-450.25 140.21,-467.39 162.24,-480.94"/>
<polygon fill="black" stroke="black" points="160.26,-483.83 170.61,-486.08 163.92,-477.86 160.26,-483.83"/>
</g>
<!-- python&#45;&gt;object -->
<g id="edge106" class="edge">
<title>python&#45;&gt;object</title>
<path fill="none" stroke="black" d="M70.58,-437.36C86.54,-469.05 121.31,-535.65 157,-588 278.81,-766.69 318.42,-820.94 508,-925 552.43,-949.39 608.82,-965.7 645.71,-974.65"/>
<polygon fill="black" stroke="black" points="644.49,-977.96 655.03,-976.85 646.1,-971.15 644.49,-977.96"/>
</g>
<!-- python&#45;&gt;repl -->
<g id="edge107" class="edge">
<title>python&#45;&gt;repl</title>
<path fill="none" stroke="black" d="M76.86,-437.24C95.57,-459.37 128.25,-497.73 157,-530 205.87,-584.86 264.48,-647.72 297.09,-682.44"/>
<polygon fill="black" stroke="black" points="294.36,-684.65 303.76,-689.54 299.46,-679.85 294.36,-684.65"/>
</g>
<!-- sat -->
<g id="node45" class="node">
<title>sat</title>
<polygon fill="none" stroke="black" points="863.38,-513 809.38,-513 809.38,-477 863.38,-477 863.38,-513"/>
<text text-anchor="middle" x="836.38" y="-490.7" font-family="sans-serif" font-size="14.00">sat</text>
</g>
<!-- python&#45;&gt;sat -->
<g id="edge108" class="edge">
<title>python&#45;&gt;sat</title>
<path fill="none" stroke="black" d="M72.39,-400.63C87.84,-376.41 118.57,-334.61 157,-315 282.06,-251.17 331.96,-280.88 472,-291 591.83,-299.66 636.4,-292.23 732,-365 769.35,-393.44 801.01,-438.28 819.1,-467.16"/>
<polygon fill="black" stroke="black" points="815.92,-468.67 824.13,-475.37 821.89,-465.02 815.92,-468.67"/>
</g>
<!-- python&#45;&gt;serve -->
<g id="edge109" class="edge">
<title>python&#45;&gt;serve</title>
<path fill="none" stroke="black" d="M65.66,-437.22C85.13,-522.42 167.22,-881.71 191.4,-987.55"/>
<polygon fill="black" stroke="black" points="187.95,-988.18 193.59,-997.15 194.77,-986.62 187.95,-988.18"/>
</g>
<!-- python&#45;&gt;sexp -->
<g id="edge110" class="edge">
<title>python&#45;&gt;sexp</title>
<path fill="none" stroke="black" d="M63.12,-437.47C71.93,-536.03 115.16,-997.3 157,-1044 386.55,-1300.23 584.5,-1118.37 904.75,-1244 916.72,-1248.7 929.28,-1254.86 940.48,-1260.86"/>
<polygon fill="black" stroke="black" points="938.56,-1263.8 949.01,-1265.54 941.93,-1257.66 938.56,-1263.8"/>
</g>
<!-- python&#45;&gt;shell -->
<g id="edge111" class="edge">
<title>python&#45;&gt;shell</title>
<path fill="none" stroke="black" d="M63.39,-437.36C75.08,-550.52 137.72,-1149.42 157,-1183 209.71,-1274.83 336.61,-1319.21 400.06,-1336.27"/>
<polygon fill="black" stroke="black" points="399.12,-1339.64 409.68,-1338.76 400.88,-1332.86 399.12,-1339.64"/>
</g>
<!-- python&#45;&gt;store -->
<g id="edge112" class="edge">
<title>python&#45;&gt;store</title>
<path fill="none" stroke="black" d="M85.13,-400.68C129.15,-368.46 227.8,-305 322.12,-305 322.12,-305 322.12,-305 439.5,-305 517.31,-305 601.41,-344.48 648.02,-370.25"/>
<polygon fill="black" stroke="black" points="646.18,-373.23 656.61,-375.1 649.62,-367.14 646.18,-373.23"/>
</g>
<!-- python&#45;&gt;wasm -->
<g id="edge113" class="edge">
<title>python&#45;&gt;wasm</title>
<path fill="none" stroke="black" d="M61.82,-400.52C63.73,-348.5 76.34,-199.38 157,-118 211.36,-63.16 244.91,-64 322.12,-64 322.12,-64 322.12,-64 686.38,-64 784.17,-64 829.18,-28.93 904.75,-91 961.97,-138 973.99,-231.63 976.28,-279.43"/>
<polygon fill="black" stroke="black" points="972.78,-279.43 976.63,-289.3 979.78,-279.18 972.78,-279.43"/>
</g>
<!-- wasm&#45;store -->
<g id="node58" class="node">
<title>wasm&#45;store</title>
<polygon fill="none" stroke="black" points="602.75,-200 508,-200 508,-164 602.75,-164 602.75,-200"/>
<text text-anchor="middle" x="555.38" y="-177.7" font-family="sans-serif" font-size="14.00">wasm&#45;store</text>
</g>
<!-- python&#45;&gt;wasm&#45;store -->
<g id="edge114" class="edge">
<title>python&#45;&gt;wasm&#45;store</title>
<path fill="none" stroke="black" d="M63.94,-400.71C70.51,-359.55 92.64,-259.78 157,-215 259.03,-144.01 413.42,-156.37 496.53,-170.08"/>
<polygon fill="black" stroke="black" points="495.83,-173.51 506.28,-171.76 497.02,-166.61 495.83,-173.51"/>
</g>
<!-- repl&#45;&gt;arrow -->
<g id="edge115" class="edge">
<title>repl&#45;&gt;arrow</title>
<path fill="none" stroke="black" d="M350.54,-697.78C366.08,-691.79 386.3,-685.04 405,-682 442.73,-675.87 486.38,-680.4 516.71,-685.38"/>
<polygon fill="black" stroke="black" points="516.09,-688.83 526.55,-687.1 517.3,-681.93 516.09,-688.83"/>
</g>
<!-- repl&#45;&gt;forsp -->
<g id="edge116" class="edge">
<title>repl&#45;&gt;forsp</title>
<path fill="none" stroke="black" d="M327.96,-727.41C344.62,-807.32 410.72,-1124.49 431.33,-1223.39"/>
<polygon fill="black" stroke="black" points="427.89,-1224.04 433.35,-1233.11 434.74,-1222.61 427.89,-1224.04"/>
</g>
<!-- repl&#45;&gt;git -->
<g id="edge117" class="edge">
<title>repl&#45;&gt;git</title>
<path fill="none" stroke="black" d="M350.49,-694.65C357.35,-689.83 364.16,-683.89 369,-677 403.18,-628.27 376.99,-600.52 405,-548 407,-544.26 409.41,-540.56 412.02,-537.02"/>
<polygon fill="black" stroke="black" points="414.69,-539.28 418.25,-529.31 409.25,-534.89 414.69,-539.28"/>
</g>
<!-- repl&#45;&gt;graph -->
<g id="edge118" class="edge">
<title>repl&#45;&gt;graph</title>
<path fill="none" stroke="black" d="M350.46,-693.22C357,-688.53 363.67,-683.01 369,-677 391.17,-652 385.67,-638.26 405,-611 407.14,-607.98 409.51,-604.93 411.96,-601.96"/>
<polygon fill="black" stroke="black" points="414.52,-604.35 418.43,-594.5 409.23,-599.76 414.52,-604.35"/>
</g>
<!-- repl&#45;&gt;hash -->
<g id="edge119" class="edge">
<title>repl&#45;&gt;hash</title>
<path fill="none" stroke="black" d="M350.37,-695.51C365.86,-688.18 386.07,-679.68 405,-675 490.4,-653.87 518.92,-639.29 602.75,-666 688.68,-693.38 770.09,-765.32 809.91,-804.56"/>
<polygon fill="black" stroke="black" points="807.38,-806.97 816.92,-811.56 812.32,-802.02 807.38,-806.97"/>
</g>
<!-- repl&#45;&gt;init -->
<g id="edge120" class="edge">
<title>repl&#45;&gt;init</title>
<path fill="none" stroke="black" d="M329.34,-727.45C357.49,-826.89 490.66,-1295.38 508,-1322 538.24,-1368.42 573.2,-1356.13 602.75,-1403 610.28,-1414.94 658.54,-1605.12 677.11,-1678.99"/>
<polygon fill="black" stroke="black" points="673.62,-1679.48 679.45,-1688.33 680.41,-1677.78 673.62,-1679.48"/>
</g>
<!-- repl&#45;&gt;object -->
<g id="edge121" class="edge">
<title>repl&#45;&gt;object</title>
<path fill="none" stroke="black" d="M340.94,-727.27C371.96,-760.37 441.12,-831.39 508,-881 552.93,-914.32 609.65,-945.4 646.45,-964.29"/>
<polygon fill="black" stroke="black" points="644.43,-967.18 654.93,-968.6 647.6,-960.94 644.43,-967.18"/>
</g>
<!-- repl&#45;&gt;parquet -->
<g id="edge122" class="edge">
<title>repl&#45;&gt;parquet</title>
<path fill="none" stroke="black" d="M350.42,-709C363.22,-709 378.96,-709 393.52,-709"/>
<polygon fill="black" stroke="black" points="393.35,-712.5 403.35,-709 393.35,-705.5 393.35,-712.5"/>
</g>
<!-- repl&#45;&gt;shell -->
<g id="edge123" class="edge">
<title>repl&#45;&gt;shell</title>
<path fill="none" stroke="black" d="M328.19,-727.49C336.77,-767.05 356.93,-862.86 369,-944 391.1,-1092.55 362.75,-1135.88 405,-1280 408.69,-1292.57 414.73,-1305.63 420.61,-1316.73"/>
<polygon fill="black" stroke="black" points="417.48,-1318.3 425.38,-1325.35 423.6,-1314.91 417.48,-1318.3"/>
</g>
<!-- repl&#45;&gt;wasm -->
<g id="edge124" class="edge">
<title>repl&#45;&gt;wasm</title>
<path fill="none" stroke="black" d="M332.95,-690.68C342.56,-670.3 358.03,-636.26 369,-606 440.49,-408.81 352.93,-296.24 508,-155 573.39,-95.44 831.8,-72.98 904.75,-123 956.31,-158.35 970.9,-236.39 975.01,-279.3"/>
<polygon fill="black" stroke="black" points="971.51,-279.46 975.81,-289.14 978.49,-278.89 971.51,-279.46"/>
</g>
<!-- sat&#45;&gt;parse -->
<g id="edge125" class="edge">
<title>sat&#45;&gt;parse</title>
<path fill="none" stroke="black" d="M863.84,-496.02C903.34,-499.07 977.08,-511 1014.5,-557 1082.22,-640.25 1088.94,-988.06 1089.41,-1092.33"/>
<polygon fill="black" stroke="black" points="1085.91,-1092.03 1089.43,-1102.02 1092.91,-1092.01 1085.91,-1092.03"/>
</g>
<!-- sat&#45;&gt;types -->
<g id="edge126" class="edge">
<title>sat&#45;&gt;types</title>
<path fill="none" stroke="black" d="M863.86,-495C909.77,-495 1007.12,-495 1089.38,-495 1089.38,-495 1089.38,-495 1194.25,-495 1334.79,-495 1404.74,-1634.16 1415.9,-1833.43"/>
<polygon fill="black" stroke="black" points="1412.39,-1833.39 1416.44,-1843.18 1419.38,-1833.01 1412.39,-1833.39"/>
</g>
<!-- sat&#45;&gt;wasm -->
<g id="edge127" class="edge">
<title>sat&#45;&gt;wasm</title>
<path fill="none" stroke="black" d="M850.98,-476.83C875.52,-444.05 927.32,-374.85 956.16,-336.34"/>
<polygon fill="black" stroke="black" points="958.87,-338.56 962.06,-328.46 953.26,-334.37 958.87,-338.56"/>
</g>
<!-- serve&#45;&gt;core -->
<g id="edge128" class="edge">
<title>serve&#45;&gt;core</title>
<path fill="none" stroke="black" d="M200.82,-1035.34C204.84,-1137.84 226.91,-1640.49 277.25,-1786 311.86,-1886.03 326,-1916.55 405,-1987 576.71,-2140.13 709.08,-2243.02 904.75,-2122 945.03,-2097.09 963.48,-2042.03 971.35,-2007.67"/>
<polygon fill="black" stroke="black" points="974.76,-2008.45 973.4,-1997.95 967.91,-2007.01 974.76,-2008.45"/>
</g>
<!-- serve&#45;&gt;forsp -->
<g id="edge129" class="edge">
<title>serve&#45;&gt;forsp</title>
<path fill="none" stroke="black" d="M218.36,-1035.13C260.04,-1076.57 362.44,-1178.38 411.06,-1226.71"/>
<polygon fill="black" stroke="black" points="408.57,-1229.18 418.13,-1233.74 413.51,-1224.21 408.57,-1229.18"/>
</g>
<!-- serve&#45;&gt;git -->
<g id="edge130" class="edge">
<title>serve&#45;&gt;git</title>
<path fill="none" stroke="black" d="M202.22,-998.69C209.69,-936.16 236.75,-732.14 277.25,-682 305.55,-646.97 338.15,-671.81 369,-639 398.79,-607.31 382.56,-585.26 405,-548 407.19,-544.37 409.73,-540.73 412.4,-537.24"/>
<polygon fill="black" stroke="black" points="415.06,-539.51 418.69,-529.55 409.65,-535.07 415.06,-539.51"/>
</g>
<!-- serve&#45;&gt;hash -->
<g id="edge131" class="edge">
<title>serve&#45;&gt;hash</title>
<path fill="none" stroke="black" d="M214.66,-998.56C228.86,-981.82 251.97,-957.71 277.25,-944 454.57,-847.81 703.82,-833.17 797.67,-831.19"/>
<polygon fill="black" stroke="black" points="797.64,-834.69 807.58,-831.02 797.52,-827.69 797.64,-834.69"/>
</g>
<!-- serve&#45;&gt;init -->
<g id="edge132" class="edge">
<title>serve&#45;&gt;init</title>
<path fill="none" stroke="black" d="M207.14,-1035.29C218.62,-1063.52 243.55,-1118.38 277.25,-1156 310.59,-1193.22 334.89,-1184.47 369,-1221 389.96,-1243.45 382.93,-1258.63 405,-1280 429.59,-1303.82 447.41,-1294.18 472,-1318 494.07,-1339.37 486.38,-1355.18 508,-1377 542.92,-1412.24 572.62,-1396.59 602.75,-1436 617.83,-1455.72 659.7,-1612.77 676.88,-1678.86"/>
<polygon fill="black" stroke="black" points="673.42,-1679.46 679.31,-1688.26 680.2,-1677.7 673.42,-1679.46"/>
</g>
<!-- serve&#45;&gt;lisp -->
<g id="edge133" class="edge">
<title>serve&#45;&gt;lisp</title>
<path fill="none" stroke="black" d="M200.69,-1035.3C204.21,-1144.27 224.81,-1704.81 277.25,-1758 308.66,-1789.87 363.25,-1789.37 399.88,-1784.48"/>
<polygon fill="black" stroke="black" points="400.23,-1787.97 409.59,-1783.01 399.17,-1781.05 400.23,-1787.97"/>
</g>
<!-- serve&#45;&gt;metamath -->
<g id="edge134" class="edge">
<title>serve&#45;&gt;metamath</title>
<path fill="none" stroke="black" d="M226.61,-1021.38C323.14,-1037.33 657.11,-1092.54 785.01,-1113.67"/>
<polygon fill="black" stroke="black" points="784.08,-1117.07 794.52,-1115.25 785.22,-1110.16 784.08,-1117.07"/>
</g>
<!-- serve&#45;&gt;object -->
<g id="edge135" class="edge">
<title>serve&#45;&gt;object</title>
<path fill="none" stroke="black" d="M226.59,-1016.78C291.11,-1016.02 461.53,-1012.56 602.75,-997 616.68,-995.47 631.83,-993.07 645.26,-990.69"/>
<polygon fill="black" stroke="black" points="645.84,-994.14 655.05,-988.9 644.58,-987.26 645.84,-994.14"/>
</g>
<!-- serve&#45;&gt;proto -->
<g id="edge136" class="edge">
<title>serve&#45;&gt;proto</title>
<path fill="none" stroke="black" d="M202.78,-998.69C213.74,-923.96 255.83,-644.46 277.25,-611 279.86,-606.92 283.2,-603.2 286.86,-599.86"/>
<polygon fill="black" stroke="black" points="288.98,-602.65 294.66,-593.71 284.64,-597.16 288.98,-602.65"/>
</g>
<!-- serve&#45;&gt;repl -->
<g id="edge137" class="edge">
<title>serve&#45;&gt;repl</title>
<path fill="none" stroke="black" d="M207.39,-998.66C227.82,-947.08 285.87,-800.52 310.67,-737.92"/>
<polygon fill="black" stroke="black" points="313.91,-739.24 314.34,-728.66 307.4,-736.66 313.91,-739.24"/>
</g>
<!-- serve&#45;&gt;shell -->
<g id="edge138" class="edge">
<title>serve&#45;&gt;shell</title>
<path fill="none" stroke="black" d="M203.52,-1035.24C211.24,-1073 233.01,-1161.18 277.25,-1221 310.9,-1266.5 365.54,-1303.78 401.5,-1325.21"/>
<polygon fill="black" stroke="black" points="399.41,-1328.04 409.81,-1330.06 402.94,-1321.99 399.41,-1328.04"/>
</g>
<!-- serve&#45;&gt;store -->
<g id="edge139" class="edge">
<title>serve&#45;&gt;store</title>
<path fill="none" stroke="black" d="M201.52,-998.6C207.04,-930.58 229.37,-694.33 277.25,-639 305.61,-606.23 339.3,-637.56 369,-606 408.04,-564.52 368.23,-526.5 405,-483 437.85,-444.14 460.03,-449.98 508,-433 554.8,-416.44 610.97,-404.71 647.15,-398.15"/>
<polygon fill="black" stroke="black" points="647.43,-401.66 656.66,-396.47 646.21,-394.76 647.43,-401.66"/>
</g>
<!-- sexp&#45;&gt;parse -->
<g id="edge140" class="edge">
<title>sexp&#45;&gt;parse</title>
<path fill="none" stroke="black" d="M991.33,-1263.65C1010.69,-1235.68 1047.71,-1182.2 1070.3,-1149.55"/>
<polygon fill="black" stroke="black" points="1073.14,-1151.6 1075.96,-1141.38 1067.39,-1147.61 1073.14,-1151.6"/>
</g>
<!-- shell&#45;&gt;hol -->
<g id="edge141" class="edge">
<title>shell&#45;&gt;hol</title>
<path fill="none" stroke="black" d="M440.48,-1363.45C444.83,-1440.41 464.13,-1735.45 508,-1816 581.37,-1950.71 637.18,-1962.89 768,-2043 777.39,-2048.75 788.22,-2053.72 798.42,-2057.78"/>
<polygon fill="black" stroke="black" points="797.12,-2061.03 807.71,-2061.27 799.59,-2054.48 797.12,-2061.03"/>
</g>
<!-- shell&#45;&gt;kernel -->
<g id="edge142" class="edge">
<title>shell&#45;&gt;kernel</title>
<path fill="none" stroke="black" d="M465.85,-1333.53C480.74,-1327.05 499.62,-1318.83 516.11,-1311.65"/>
<polygon fill="black" stroke="black" points="517.38,-1314.92 525.15,-1307.72 514.59,-1308.5 517.38,-1314.92"/>
</g>
<!-- smt&#45;&gt;sat -->
<g id="edge143" class="edge">
<title>smt&#45;&gt;sat</title>
<path fill="none" stroke="black" d="M688.31,-1390.6C696.2,-1316.67 727.45,-1034.16 768,-804 786.24,-700.48 814.88,-578.97 828.16,-524.28"/>
<polygon fill="black" stroke="black" points="831.5,-525.37 830.47,-514.83 824.7,-523.71 831.5,-525.37"/>
</g>
<!-- smt&#45;&gt;sexp -->
<g id="edge144" class="edge">
<title>smt&#45;&gt;sexp</title>
<path fill="none" stroke="black" d="M712.86,-1391.3C719.25,-1386.79 725.97,-1381.85 732,-1377 748.92,-1363.41 749.11,-1354.7 768,-1344 797.42,-1327.33 887.66,-1303.67 939.31,-1290.94"/>
<polygon fill="black" stroke="black" points="939.97,-1294.38 948.86,-1288.6 938.31,-1287.58 939.97,-1294.38"/>
</g>
<!-- smt&#45;&gt;types -->
<g id="edge145" class="edge">
<title>smt&#45;&gt;types</title>
<path fill="none" stroke="black" d="M706.37,-1427.3C722.06,-1440.72 745.01,-1458.37 768,-1469 901.22,-1530.59 942.6,-1545 1089.38,-1545 1089.38,-1545 1089.38,-1545 1194.25,-1545 1334.44,-1545 1394.15,-1754.59 1411.65,-1833.46"/>
<polygon fill="black" stroke="black" points="1408.19,-1834 1413.7,-1843.05 1415.03,-1832.54 1408.19,-1834"/>
</g>
<!-- spectec&#45;&gt;grammar -->
<g id="edge146" class="edge">
<title>spectec&#45;&gt;grammar</title>
<path fill="none" stroke="black" d="M871.44,-1680C888.78,-1680 910.13,-1680 929.06,-1680"/>
<polygon fill="black" stroke="black" points="928.97,-1683.5 938.97,-1680 928.97,-1676.5 928.97,-1683.5"/>
</g>
<!-- store&#45;&gt;hash -->
<g id="edge147" class="edge">
<title>store&#45;&gt;hash</title>
<path fill="none" stroke="black" d="M712.8,-402.96C719.94,-407.05 727.05,-412.36 732,-419 755.38,-450.32 810.93,-712.33 829.34,-801.45"/>
<polygon fill="black" stroke="black" points="825.88,-802.04 831.33,-811.13 832.74,-800.63 825.88,-802.04"/>
</g>
<!-- store&#45;&gt;json -->
<g id="edge148" class="edge">
<title>store&#45;&gt;json</title>
<path fill="none" stroke="black" d="M689.98,-373.64C697.91,-337.95 720.07,-258.75 768,-213 776.48,-204.91 787.69,-199.13 798.53,-195.06"/>
<polygon fill="black" stroke="black" points="799.31,-198.49 807.69,-192.01 797.1,-191.85 799.31,-198.49"/>
</g>
<!-- store&#45;&gt;sqlite -->
<g id="edge149" class="edge">
<title>store&#45;&gt;sqlite</title>
<path fill="none" stroke="black" d="M694.79,-373.93C707.49,-348.32 733.75,-301.35 768,-272 777,-264.29 788.17,-258 798.81,-253.11"/>
<polygon fill="black" stroke="black" points="799.97,-256.42 807.79,-249.27 797.22,-249.98 799.97,-256.42"/>
</g>
<!-- tcb&#45;db -->
<g id="node53" class="node">
<title>tcb&#45;db</title>
<polygon fill="none" stroke="black" points="715.5,-242 655.25,-242 655.25,-206 715.5,-206 715.5,-242"/>
<text text-anchor="middle" x="685.38" y="-219.7" font-family="sans-serif" font-size="14.00">tcb&#45;db</text>
</g>
<!-- tcb&#45;db&#45;&gt;json -->
<g id="edge150" class="edge">
<title>tcb&#45;db&#45;&gt;json</title>
<path fill="none" stroke="black" d="M715.81,-216.49C739.35,-210.49 772.49,-202.04 797.92,-195.55"/>
<polygon fill="black" stroke="black" points="798.7,-198.96 807.53,-193.1 796.97,-192.18 798.7,-198.96"/>
</g>
<!-- tcb&#45;db&#45;&gt;sqlite -->
<g id="edge151" class="edge">
<title>tcb&#45;db&#45;&gt;sqlite</title>
<path fill="none" stroke="black" d="M715.81,-227.16C739.24,-229.68 772.19,-233.22 797.57,-235.94"/>
<polygon fill="black" stroke="black" points="797.17,-239.42 807.49,-237.01 797.92,-232.46 797.17,-239.42"/>
</g>
<!-- wasm&#45;build&#45;guest -->
<g id="node56" class="node">
<title>wasm&#45;build&#45;guest</title>
<polygon fill="none" stroke="black" points="904.75,-350 768,-350 768,-314 904.75,-314 904.75,-350"/>
<text text-anchor="middle" x="836.38" y="-327.7" font-family="sans-serif" font-size="14.00">wasm&#45;build&#45;guest</text>
</g>
<!-- wasm&#45;build&#45;guest&#45;&gt;wasm -->
<g id="edge152" class="edge">
<title>wasm&#45;build&#45;guest&#45;&gt;wasm</title>
<path fill="none" stroke="black" d="M904.96,-320.84C916.64,-318.91 928.4,-316.97 938.92,-315.23"/>
<polygon fill="black" stroke="black" points="939.4,-318.7 948.7,-313.61 938.26,-311.79 939.4,-318.7"/>
</g>
<!-- wasm&#45;spec -->
<g id="node57" class="node">
<title>wasm&#45;spec</title>
<polygon fill="none" stroke="black" points="732,-464 638.75,-464 638.75,-428 732,-428 732,-464"/>
<text text-anchor="middle" x="685.38" y="-441.7" font-family="sans-serif" font-size="14.00">wasm&#45;spec</text>
</g>
<!-- wasm&#45;spec&#45;&gt;hash -->
<g id="edge153" class="edge">
<title>wasm&#45;spec&#45;&gt;hash</title>
<path fill="none" stroke="black" d="M718.32,-464.14C723.44,-468.17 728.28,-472.81 732,-478 805.93,-581.12 827.37,-736.82 833.27,-801.36"/>
<polygon fill="black" stroke="black" points="829.77,-801.48 834.1,-811.15 836.74,-800.89 829.77,-801.48"/>
</g>
<!-- wasm&#45;spec&#45;&gt;wasm -->
<g id="edge154" class="edge">
<title>wasm&#45;spec&#45;&gt;wasm</title>
<path fill="none" stroke="black" d="M723.24,-427.64C726.48,-425.05 729.48,-422.17 732,-419 765.04,-377.39 725.14,-336.41 768,-305 817.97,-268.38 894.27,-282.47 939.43,-295.86"/>
<polygon fill="black" stroke="black" points="938.17,-299.13 948.76,-298.77 940.25,-292.45 938.17,-299.13"/>
</g>
<!-- wasm&#45;store&#45;&gt;json -->
<g id="edge155" class="edge">
<title>wasm&#45;store&#45;&gt;json</title>
<path fill="none" stroke="black" d="M603.07,-182.67C657.79,-183.45 747.37,-184.74 797.8,-185.46"/>
<polygon fill="black" stroke="black" points="797.58,-188.96 807.63,-185.6 797.68,-181.96 797.58,-188.96"/>
</g>
<!-- wasm&#45;store&#45;&gt;store -->
<g id="edge156" class="edge">
<title>wasm&#45;store&#45;&gt;store</title>
<path fill="none" stroke="black" d="M567.51,-200.27C589.92,-237.04 640.6,-320.18 667.25,-363.91"/>
<polygon fill="black" stroke="black" points="664.19,-365.61 672.39,-372.33 670.17,-361.97 664.19,-365.61"/>
</g>
<!-- wasm&#45;store&#45;&gt;wasm -->
<g id="edge157" class="edge">
<title>wasm&#45;store&#45;&gt;wasm</title>
<path fill="none" stroke="black" d="M600.86,-163.57C671.32,-137.56 810.25,-99.49 904.75,-159 946.68,-185.4 964.69,-243.81 972.01,-279.45"/>
<polygon fill="black" stroke="black" points="968.54,-279.91 973.82,-289.1 975.42,-278.62 968.54,-279.91"/>
</g>
<!-- web&#45;kernel -->
<g id="node59" class="node">
<title>web&#45;kernel</title>
<polygon fill="none" stroke="black" points="369,-1749 277.25,-1749 277.25,-1713 369,-1713 369,-1749"/>
<text text-anchor="middle" x="323.12" y="-1726.7" font-family="sans-serif" font-size="14.00">web&#45;kernel</text>
</g>
<!-- web&#45;kernel&#45;&gt;forsp -->
<g id="edge158" class="edge">
<title>web&#45;kernel&#45;&gt;forsp</title>
<path fill="none" stroke="black" d="M325.91,-1712.84C332.04,-1654.28 354.67,-1465.65 405,-1318 409.23,-1305.6 415.37,-1292.57 421.18,-1281.46"/>
<polygon fill="black" stroke="black" points="424.18,-1283.27 425.86,-1272.8 418.02,-1279.94 424.18,-1283.27"/>
</g>
<!-- web&#45;kernel&#45;&gt;haskell -->
<g id="edge159" class="edge">
<title>web&#45;kernel&#45;&gt;haskell</title>
<path fill="none" stroke="black" d="M334.79,-1749.35C354.67,-1783.53 397.5,-1857.2 421.08,-1897.77"/>
<polygon fill="black" stroke="black" points="417.97,-1899.37 426.02,-1906.25 424.02,-1895.85 417.97,-1899.37"/>
</g>
<!-- web&#45;kernel&#45;&gt;hol&#45;api -->
<g id="edge160" class="edge">
<title>web&#45;kernel&#45;&gt;hol&#45;api</title>
<path fill="none" stroke="black" d="M325.71,-1749.2C330.28,-1790.9 347.14,-1894.26 405,-1953 433.84,-1982.28 479.28,-1996.75 512.47,-2003.76"/>
<polygon fill="black" stroke="black" points="511.69,-2007.17 522.17,-2005.65 513.02,-2000.3 511.69,-2007.17"/>
</g>
<!-- web&#45;kernel&#45;&gt;kernel -->
<g id="edge161" class="edge">
<title>web&#45;kernel&#45;&gt;kernel</title>
<path fill="none" stroke="black" d="M333.87,-1712.54C369.92,-1644.29 495.82,-1405.87 539.4,-1323.36"/>
<polygon fill="black" stroke="black" points="542.47,-1325.03 544.05,-1314.56 536.28,-1321.76 542.47,-1325.03"/>
</g>
<!-- web&#45;kernel&#45;&gt;lisp -->
<g id="edge162" class="edge">
<title>web&#45;kernel&#45;&gt;lisp</title>
<path fill="none" stroke="black" d="M369.26,-1749.31C379.69,-1753.54 390.66,-1758 400.69,-1762.07"/>
<polygon fill="black" stroke="black" points="399.14,-1765.21 409.72,-1765.73 401.77,-1758.73 399.14,-1765.21"/>
</g>
</g>
</svg>
