<?xml version="1.0" encoding="UTF-8" standalone="no"?>
<!DOCTYPE svg PUBLIC "-//W3C//DTD SVG 1.1//EN"
 "http://www.w3.org/Graphics/SVG/1.1/DTD/svg11.dtd">
<!-- Generated by graphviz version 12.2.1 (0)
 -->
<!-- Title: deps Pages: 1 -->
<svg width="1478pt" height="2560pt"
 viewBox="0.00 0.00 1477.50 2559.78" xmlns="http://www.w3.org/2000/svg" xmlns:xlink="http://www.w3.org/1999/xlink">
<g id="graph0" class="graph" transform="scale(1 1) rotate(0) translate(4 2555.78)">
<title>deps</title>
<polygon fill="white" stroke="none" points="-4,4 -4,-2555.78 1473.5,-2555.78 1473.5,4 -4,4"/>
<!-- covalence -->
<g id="node1" class="node">
<title>covalence</title>
<polygon fill="none" stroke="black" points="102.62,-1069.38 18.38,-1069.38 18.38,-1033.38 102.62,-1033.38 102.62,-1069.38"/>
<text text-anchor="middle" x="60.5" y="-1047.08" font-family="sans-serif" font-size="14.00">covalence</text>
</g>
<!-- client -->
<g id="node5" class="node">
<title>client</title>
<polygon fill="none" stroke="black" points="350.12,-1057.38 296.12,-1057.38 296.12,-1021.38 350.12,-1021.38 350.12,-1057.38"/>
<text text-anchor="middle" x="323.12" y="-1035.08" font-family="sans-serif" font-size="14.00">client</text>
</g>
<!-- covalence&#45;&gt;client -->
<g id="edge1" class="edge">
<title>covalence&#45;&gt;client</title>
<path fill="none" stroke="black" d="M103.08,-1049.46C153.03,-1047.16 236.1,-1043.34 284.31,-1041.12"/>
<polygon fill="black" stroke="black" points="284.43,-1044.62 294.26,-1040.66 284.11,-1037.62 284.43,-1044.62"/>
</g>
<!-- fuse -->
<g id="node11" class="node">
<title>fuse</title>
<polygon fill="none" stroke="black" points="606.38,-623.38 552.38,-623.38 552.38,-587.38 606.38,-587.38 606.38,-623.38"/>
<text text-anchor="middle" x="579.38" y="-601.08" font-family="sans-serif" font-size="14.00">fuse</text>
</g>
<!-- covalence&#45;&gt;fuse -->
<g id="edge2" class="edge">
<title>covalence&#45;&gt;fuse</title>
<path fill="none" stroke="black" d="M71.13,-1032.88C87.36,-1002.26 121.85,-939.55 157,-890.38 169.35,-873.1 385.71,-608.28 405,-599.38 448.3,-579.39 504.38,-586.42 540.85,-594.7"/>
<polygon fill="black" stroke="black" points="539.95,-598.08 550.49,-597.04 541.6,-591.28 539.95,-598.08"/>
</g>
<!-- git -->
<g id="node12" class="node">
<title>git</title>
<polygon fill="none" stroke="black" points="477.5,-547.38 423.5,-547.38 423.5,-511.38 477.5,-511.38 477.5,-547.38"/>
<text text-anchor="middle" x="450.5" y="-525.08" font-family="sans-serif" font-size="14.00">git</text>
</g>
<!-- covalence&#45;&gt;git -->
<g id="edge3" class="edge">
<title>covalence&#45;&gt;git</title>
<path fill="none" stroke="black" d="M61.34,-1033.02C61.83,-976.73 70.68,-804.32 157,-703.38 183.7,-672.16 212.66,-694.88 241.25,-665.38 270.37,-635.33 246.01,-606.22 277.25,-578.38 314.8,-544.92 373.67,-534.18 411.93,-530.81"/>
<polygon fill="black" stroke="black" points="411.87,-534.32 421.58,-530.09 411.35,-527.34 411.87,-534.32"/>
</g>
<!-- hash -->
<g id="node15" class="node">
<title>hash</title>
<polygon fill="none" stroke="black" points="887.38,-813.38 833.38,-813.38 833.38,-777.38 887.38,-777.38 887.38,-813.38"/>
<text text-anchor="middle" x="860.38" y="-791.08" font-family="sans-serif" font-size="14.00">hash</text>
</g>
<!-- covalence&#45;&gt;hash -->
<g id="edge4" class="edge">
<title>covalence&#45;&gt;hash</title>
<path fill="none" stroke="black" d="M100.55,-1069.74C117.5,-1076.75 137.83,-1083.88 157,-1087.38 179.76,-1091.53 354.83,-1088.42 369,-1085.38 490.96,-1059.24 518.83,-1036.9 626.75,-974.38 644.06,-964.35 645.21,-956.99 662.75,-947.38 701.57,-926.1 719.54,-937.49 756,-912.38 791.23,-888.11 822.32,-849.29 840.97,-823.09"/>
<polygon fill="black" stroke="black" points="843.79,-825.17 846.63,-814.96 838.05,-821.17 843.79,-825.17"/>
</g>
<!-- hol -->
<g id="node17" class="node">
<title>hol</title>
<polygon fill="none" stroke="black" points="887.38,-2385.38 833.38,-2385.38 833.38,-2349.38 887.38,-2349.38 887.38,-2385.38"/>
<text text-anchor="middle" x="860.38" y="-2363.08" font-family="sans-serif" font-size="14.00">hol</text>
</g>
<!-- covalence&#45;&gt;hol -->
<g id="edge5" class="edge">
<title>covalence&#45;&gt;hol</title>
<path fill="none" stroke="black" d="M103.02,-1063.02C110.07,-1066.81 116.54,-1071.81 121,-1078.38 167.62,-1147.03 145.25,-1742.23 157,-1824.38 201.46,-2135.24 8.1,-2511.38 322.12,-2511.38 322.12,-2511.38 322.12,-2511.38 451.5,-2511.38 596.44,-2511.38 754.67,-2429.53 823.77,-2389.24"/>
<polygon fill="black" stroke="black" points="825.17,-2392.48 832,-2384.39 821.61,-2386.45 825.17,-2392.48"/>
</g>
<!-- init -->
<g id="node21" class="node">
<title>init</title>
<polygon fill="none" stroke="black" points="736.38,-1647.38 682.38,-1647.38 682.38,-1611.38 736.38,-1611.38 736.38,-1647.38"/>
<text text-anchor="middle" x="709.38" y="-1625.08" font-family="sans-serif" font-size="14.00">init</text>
</g>
<!-- covalence&#45;&gt;init -->
<g id="edge6" class="edge">
<title>covalence&#45;&gt;init</title>
<path fill="none" stroke="black" d="M103.03,-1063.39C109.98,-1067.15 116.42,-1072.03 121,-1078.38 165.22,-1139.61 131.39,-1345.31 157,-1416.38 202.01,-1541.31 189.34,-1665.38 322.12,-1665.38 322.12,-1665.38 322.12,-1665.38 451.5,-1665.38 530.09,-1665.38 620.9,-1648.65 670.75,-1638"/>
<polygon fill="black" stroke="black" points="671.42,-1641.44 680.44,-1635.89 669.93,-1634.6 671.42,-1641.44"/>
</g>
<!-- lsp -->
<g id="node31" class="node">
<title>lsp</title>
<polygon fill="none" stroke="black" points="887.38,-1155.38 833.38,-1155.38 833.38,-1119.38 887.38,-1119.38 887.38,-1155.38"/>
<text text-anchor="middle" x="860.38" y="-1133.08" font-family="sans-serif" font-size="14.00">lsp</text>
</g>
<!-- covalence&#45;&gt;lsp -->
<g id="edge7" class="edge">
<title>covalence&#45;&gt;lsp</title>
<path fill="none" stroke="black" d="M102.84,-1063.93C109.72,-1067.63 116.18,-1072.36 121,-1078.38 170.08,-1139.69 102.38,-1194.95 157,-1251.38 209.52,-1305.63 246.61,-1291.38 322.12,-1291.38 322.12,-1291.38 322.12,-1291.38 451.5,-1291.38 529.85,-1291.38 552.98,-1298.76 626.75,-1272.38 709.37,-1242.83 714.18,-1204.89 792,-1164.38 801.6,-1159.38 812.35,-1154.69 822.39,-1150.67"/>
<polygon fill="black" stroke="black" points="823.45,-1154.02 831.51,-1147.14 820.92,-1147.49 823.45,-1154.02"/>
</g>
<!-- object -->
<g id="node35" class="node">
<title>object</title>
<polygon fill="none" stroke="black" points="738,-867.38 680.75,-867.38 680.75,-831.38 738,-831.38 738,-867.38"/>
<text text-anchor="middle" x="709.38" y="-845.08" font-family="sans-serif" font-size="14.00">object</text>
</g>
<!-- covalence&#45;&gt;object -->
<g id="edge8" class="edge">
<title>covalence&#45;&gt;object</title>
<path fill="none" stroke="black" d="M102.92,-1060.45C162.57,-1071.93 275.75,-1087.8 369,-1066.38 493.08,-1037.88 535.41,-1030.07 626.75,-941.38 651.56,-917.28 638.12,-896.67 662.75,-872.38 665.2,-869.96 667.95,-867.75 670.86,-865.74"/>
<polygon fill="black" stroke="black" points="672.41,-868.89 679.2,-860.75 668.82,-862.88 672.41,-868.89"/>
</g>
<!-- opentheory -->
<g id="node36" class="node">
<title>opentheory</title>
<polygon fill="none" stroke="black" points="496,-2415.38 405,-2415.38 405,-2379.38 496,-2379.38 496,-2415.38"/>
<text text-anchor="middle" x="450.5" y="-2393.08" font-family="sans-serif" font-size="14.00">opentheory</text>
</g>
<!-- covalence&#45;&gt;opentheory -->
<g id="edge9" class="edge">
<title>covalence&#45;&gt;opentheory</title>
<path fill="none" stroke="black" d="M102.96,-1063.06C110.01,-1066.85 116.5,-1071.83 121,-1078.38 158.9,-1133.5 142.18,-1614.14 157,-1679.38 220.94,-1960.9 383.06,-2274.69 433.96,-2369.06"/>
<polygon fill="black" stroke="black" points="430.78,-2370.53 438.62,-2377.65 436.93,-2367.19 430.78,-2370.53"/>
</g>
<!-- proto -->
<g id="node40" class="node">
<title>proto</title>
<polygon fill="none" stroke="black" points="350.12,-623.38 296.12,-623.38 296.12,-587.38 350.12,-587.38 350.12,-623.38"/>
<text text-anchor="middle" x="323.12" y="-601.08" font-family="sans-serif" font-size="14.00">proto</text>
</g>
<!-- covalence&#45;&gt;proto -->
<g id="edge10" class="edge">
<title>covalence&#45;&gt;proto</title>
<path fill="none" stroke="black" d="M62.77,-1033.01C67.13,-982.56 85.46,-839.74 157,-751.38 184.12,-717.88 211.06,-734.13 241.25,-703.38 264.66,-679.53 255.08,-662.38 277.25,-637.38 280.17,-634.09 283.48,-630.95 286.96,-628.01"/>
<polygon fill="black" stroke="black" points="288.84,-630.98 294.6,-622.09 284.55,-625.45 288.84,-630.98"/>
</g>
<!-- repl -->
<g id="node46" class="node">
<title>repl</title>
<polygon fill="none" stroke="black" points="350.12,-837.38 296.12,-837.38 296.12,-801.38 350.12,-801.38 350.12,-837.38"/>
<text text-anchor="middle" x="323.12" y="-815.08" font-family="sans-serif" font-size="14.00">repl</text>
</g>
<!-- covalence&#45;&gt;repl -->
<g id="edge11" class="edge">
<title>covalence&#45;&gt;repl</title>
<path fill="none" stroke="black" d="M81.95,-1033.17C127.99,-992.19 239.88,-892.59 293.09,-845.22"/>
<polygon fill="black" stroke="black" points="295.14,-848.09 300.28,-838.83 290.48,-842.86 295.14,-848.09"/>
</g>
<!-- serve -->
<g id="node49" class="node">
<title>serve</title>
<polygon fill="none" stroke="black" points="226.12,-1023.38 172.12,-1023.38 172.12,-987.38 226.12,-987.38 226.12,-1023.38"/>
<text text-anchor="middle" x="199.12" y="-1001.08" font-family="sans-serif" font-size="14.00">serve</text>
</g>
<!-- covalence&#45;&gt;serve -->
<g id="edge12" class="edge">
<title>covalence&#45;&gt;serve</title>
<path fill="none" stroke="black" d="M102.86,-1037.45C121.46,-1031.19 143.24,-1023.86 161.27,-1017.78"/>
<polygon fill="black" stroke="black" points="162.16,-1021.18 170.52,-1014.67 159.93,-1014.54 162.16,-1021.18"/>
</g>
<!-- shell -->
<g id="node51" class="node">
<title>shell</title>
<polygon fill="none" stroke="black" points="477.5,-1531.38 423.5,-1531.38 423.5,-1495.38 477.5,-1495.38 477.5,-1531.38"/>
<text text-anchor="middle" x="450.5" y="-1509.08" font-family="sans-serif" font-size="14.00">shell</text>
</g>
<!-- covalence&#45;&gt;shell -->
<g id="edge13" class="edge">
<title>covalence&#45;&gt;shell</title>
<path fill="none" stroke="black" d="M103.07,-1063.75C109.94,-1067.46 116.33,-1072.24 121,-1078.38 182.9,-1159.63 124.2,-1208.64 157,-1305.38 193.03,-1411.65 180.84,-1469.96 277.25,-1527.38 318.48,-1551.94 375.43,-1540.34 412.37,-1528.18"/>
<polygon fill="black" stroke="black" points="413.42,-1531.52 421.72,-1524.93 411.12,-1524.91 413.42,-1531.52"/>
</g>
<!-- store -->
<g id="node55" class="node">
<title>store</title>
<polygon fill="none" stroke="black" points="736.38,-356.38 682.38,-356.38 682.38,-320.38 736.38,-320.38 736.38,-356.38"/>
<text text-anchor="middle" x="709.38" y="-334.08" font-family="sans-serif" font-size="14.00">store</text>
</g>
<!-- covalence&#45;&gt;store -->
<g id="edge14" class="edge">
<title>covalence&#45;&gt;store</title>
<path fill="none" stroke="black" d="M62.9,-1032.96C67.89,-975.42 88.43,-795.06 157,-665.38 176.31,-628.86 371.09,-411.97 405,-388.38 454.8,-353.74 472.4,-349.69 532,-338.38 579.16,-329.43 634.71,-331.44 670.68,-334.34"/>
<polygon fill="black" stroke="black" points="670.31,-337.83 680.58,-335.22 670.93,-330.85 670.31,-337.83"/>
</g>
<!-- wasm -->
<g id="node58" class="node">
<title>wasm</title>
<polygon fill="none" stroke="black" points="1028.75,-228.38 974.5,-228.38 974.5,-192.38 1028.75,-192.38 1028.75,-228.38"/>
<text text-anchor="middle" x="1001.62" y="-206.08" font-family="sans-serif" font-size="14.00">wasm</text>
</g>
<!-- covalence&#45;&gt;wasm -->
<g id="edge15" class="edge">
<title>covalence&#45;&gt;wasm</title>
<path fill="none" stroke="black" d="M62.81,-1032.93C69.14,-947.92 98.64,-594.1 157,-502.38 219.72,-403.8 448.64,-255.17 662.75,-198.38 702.81,-187.75 715.46,-189.77 756,-198.38 773.13,-202.01 774.87,-210.74 792,-214.38 851.45,-226.99 868,-216.07 928.75,-214.38 939.76,-214.07 951.71,-213.5 962.64,-212.89"/>
<polygon fill="black" stroke="black" points="962.73,-216.39 972.5,-212.3 962.31,-209.4 962.73,-216.39"/>
</g>
<!-- acset -->
<g id="node2" class="node">
<title>acset</title>
<polygon fill="none" stroke="black" points="887.38,-1063.38 833.38,-1063.38 833.38,-1027.38 887.38,-1027.38 887.38,-1063.38"/>
<text text-anchor="middle" x="860.38" y="-1041.08" font-family="sans-serif" font-size="14.00">acset</text>
</g>
<!-- alethe -->
<g id="node3" class="node">
<title>alethe</title>
<polygon fill="none" stroke="black" points="607.62,-1871.38 551.12,-1871.38 551.12,-1835.38 607.62,-1835.38 607.62,-1871.38"/>
<text text-anchor="middle" x="579.38" y="-1849.08" font-family="sans-serif" font-size="14.00">alethe</text>
</g>
<!-- core -->
<g id="node6" class="node">
<title>core</title>
<polygon fill="#ffd6d6" stroke="black" points="1028.62,-2179.38 974.62,-2179.38 974.62,-2143.38 1028.62,-2143.38 1028.62,-2179.38"/>
<text text-anchor="middle" x="1001.62" y="-2157.08" font-family="sans-serif" font-size="14.00">core</text>
</g>
<!-- alethe&#45;&gt;core -->
<g id="edge16" class="edge">
<title>alethe&#45;&gt;core</title>
<path fill="none" stroke="black" d="M594.17,-1871.59C625.47,-1911.89 705.88,-2009.77 792,-2069.38 846.83,-2107.33 919.83,-2135.17 963.35,-2149.77"/>
<polygon fill="black" stroke="black" points="962.24,-2153.09 972.84,-2152.9 964.43,-2146.44 962.24,-2153.09"/>
</g>
<!-- hol&#45;eval -->
<g id="node19" class="node">
<title>hol&#45;eval</title>
<polygon fill="none" stroke="black" points="895.38,-2027.38 825.38,-2027.38 825.38,-1991.38 895.38,-1991.38 895.38,-2027.38"/>
<text text-anchor="middle" x="860.38" y="-2005.08" font-family="sans-serif" font-size="14.00">hol&#45;eval</text>
</g>
<!-- alethe&#45;&gt;hol&#45;eval -->
<g id="edge17" class="edge">
<title>alethe&#45;&gt;hol&#45;eval</title>
<path fill="none" stroke="black" d="M607.89,-1851.4C645.69,-1850.2 713.81,-1853.71 756,-1889.38 789.85,-1917.99 760.85,-1950.85 792,-1982.38 798.29,-1988.74 806.28,-1993.65 814.53,-1997.43"/>
<polygon fill="black" stroke="black" points="813.04,-2000.6 823.62,-2001.06 815.63,-1994.1 813.04,-2000.6"/>
</g>
<!-- alethe&#45;&gt;init -->
<g id="edge18" class="edge">
<title>alethe&#45;&gt;init</title>
<path fill="none" stroke="black" d="M591.61,-1835.13C601.12,-1819.59 615.03,-1796.64 626.75,-1776.38 650.44,-1735.42 676.86,-1687.4 693.05,-1657.67"/>
<polygon fill="black" stroke="black" points="696.1,-1659.38 697.8,-1648.93 689.95,-1656.04 696.1,-1659.38"/>
</g>
<!-- sexp -->
<g id="node50" class="node">
<title>sexp</title>
<polygon fill="none" stroke="black" points="1028.62,-1442.38 974.62,-1442.38 974.62,-1406.38 1028.62,-1406.38 1028.62,-1442.38"/>
<text text-anchor="middle" x="1001.62" y="-1420.08" font-family="sans-serif" font-size="14.00">sexp</text>
</g>
<!-- alethe&#45;&gt;sexp -->
<g id="edge19" class="edge">
<title>alethe&#45;&gt;sexp</title>
<path fill="none" stroke="black" d="M602.03,-1834.96C638.86,-1802.51 713.79,-1731.47 756,-1656.38 782.87,-1608.58 753.14,-1577.06 792,-1538.38 836.97,-1493.62 877.07,-1534.19 928.75,-1497.38 951.05,-1481.49 944.87,-1466.21 964.75,-1447.38 965.02,-1447.12 965.3,-1446.86 965.58,-1446.61"/>
<polygon fill="black" stroke="black" points="967.5,-1449.55 973.1,-1440.56 963.12,-1444.09 967.5,-1449.55"/>
</g>
<!-- smt -->
<g id="node52" class="node">
<title>smt</title>
<polygon fill="none" stroke="black" points="736.38,-1593.38 682.38,-1593.38 682.38,-1557.38 736.38,-1557.38 736.38,-1593.38"/>
<text text-anchor="middle" x="709.38" y="-1571.08" font-family="sans-serif" font-size="14.00">smt</text>
</g>
<!-- alethe&#45;&gt;smt -->
<g id="edge20" class="edge">
<title>alethe&#45;&gt;smt</title>
<path fill="none" stroke="black" d="M593.89,-1835.01C604.34,-1819.96 618.39,-1797.74 626.75,-1776.38 655.53,-1702.84 616.85,-1666.64 662.75,-1602.38 665.52,-1598.5 669.03,-1595.09 672.88,-1592.11"/>
<polygon fill="black" stroke="black" points="674.56,-1595.19 680.99,-1586.77 670.71,-1589.35 674.56,-1595.19"/>
</g>
<!-- types -->
<g id="node57" class="node">
<title>types</title>
<polygon fill="#ffd6d6" stroke="black" points="1469.5,-1851.38 1415.5,-1851.38 1415.5,-1815.38 1469.5,-1815.38 1469.5,-1851.38"/>
<text text-anchor="middle" x="1442.5" y="-1829.08" font-family="sans-serif" font-size="14.00">types</text>
</g>
<!-- alethe&#45;&gt;types -->
<g id="edge21" class="edge">
<title>alethe&#45;&gt;types</title>
<path fill="none" stroke="black" d="M587.01,-1871.73C598.87,-1902.89 625.95,-1967.17 662.75,-2012.38 772.21,-2146.84 827.24,-2207.38 1000.62,-2207.38 1000.62,-2207.38 1000.62,-2207.38 1218.25,-2207.38 1299.26,-2207.38 1330.57,-2186.94 1379.5,-2122.38 1410.5,-2081.47 1430.91,-1928.02 1438.35,-1862.9"/>
<polygon fill="black" stroke="black" points="1441.79,-1863.64 1439.42,-1853.32 1434.83,-1862.87 1441.79,-1863.64"/>
</g>
<!-- arrow -->
<g id="node4" class="node">
<title>arrow</title>
<polygon fill="none" stroke="black" points="606.38,-791.38 552.38,-791.38 552.38,-755.38 606.38,-755.38 606.38,-791.38"/>
<text text-anchor="middle" x="579.38" y="-769.08" font-family="sans-serif" font-size="14.00">arrow</text>
</g>
<!-- client&#45;&gt;hash -->
<g id="edge22" class="edge">
<title>client&#45;&gt;hash</title>
<path fill="none" stroke="black" d="M350.41,-1033.1C403.89,-1019.84 528.65,-986.47 626.75,-941.38 643.79,-933.55 646.21,-928.21 662.75,-919.38 703.01,-897.89 717.05,-900.17 756,-876.38 782.66,-860.09 810.39,-838.04 830.42,-821.05"/>
<polygon fill="black" stroke="black" points="832.59,-823.8 837.89,-814.63 828.03,-818.49 832.59,-823.8"/>
</g>
<!-- client&#45;&gt;shell -->
<g id="edge23" class="edge">
<title>client&#45;&gt;shell</title>
<path fill="none" stroke="black" d="M326.71,-1057.48C336.77,-1126.81 374.23,-1375.14 405,-1448.38 410.53,-1461.54 418.95,-1474.78 426.99,-1485.84"/>
<polygon fill="black" stroke="black" points="424.13,-1487.87 432.95,-1493.74 429.72,-1483.65 424.13,-1487.87"/>
</g>
<!-- client&#45;&gt;store -->
<g id="edge24" class="edge">
<title>client&#45;&gt;store</title>
<path fill="none" stroke="black" d="M328.39,-1020.88C341.45,-964.76 381.48,-797.13 405,-746.38 410.34,-734.85 653.69,-377.29 662.75,-368.38 665.77,-365.41 669.12,-362.57 672.6,-359.89"/>
<polygon fill="black" stroke="black" points="674.59,-362.77 680.72,-354.12 670.54,-357.06 674.59,-362.77"/>
</g>
<!-- pure -->
<g id="node41" class="node">
<title>pure</title>
<polygon fill="#ffd6d6" stroke="black" points="1244.25,-2073.38 1190.25,-2073.38 1190.25,-2037.38 1244.25,-2037.38 1244.25,-2073.38"/>
<text text-anchor="middle" x="1217.25" y="-2051.08" font-family="sans-serif" font-size="14.00">pure</text>
</g>
<!-- core&#45;&gt;pure -->
<g id="edge25" class="edge">
<title>core&#45;&gt;pure</title>
<path fill="none" stroke="black" d="M1029.06,-2155.04C1060.32,-2146.86 1113.27,-2130.84 1154.25,-2107.38 1166.82,-2100.18 1179.33,-2090.34 1189.78,-2081.16"/>
<polygon fill="black" stroke="black" points="1191.85,-2084 1196.91,-2074.69 1187.15,-2078.82 1191.85,-2084"/>
</g>
<!-- pure&#45;eval -->
<g id="node42" class="node">
<title>pure&#45;eval</title>
<polygon fill="#ffd6d6" stroke="black" points="1154.25,-2027.38 1074.5,-2027.38 1074.5,-1991.38 1154.25,-1991.38 1154.25,-2027.38"/>
<text text-anchor="middle" x="1114.38" y="-2005.08" font-family="sans-serif" font-size="14.00">pure&#45;eval</text>
</g>
<!-- core&#45;&gt;pure&#45;eval -->
<g id="edge26" class="edge">
<title>core&#45;&gt;pure&#45;eval</title>
<path fill="none" stroke="black" d="M1015.98,-2143.04C1035.28,-2116.57 1071.07,-2067.44 1093.48,-2036.69"/>
<polygon fill="black" stroke="black" points="1096.02,-2039.14 1099.08,-2029 1090.36,-2035.02 1096.02,-2039.14"/>
</g>
<!-- core&#45;&gt;types -->
<g id="edge27" class="edge">
<title>core&#45;&gt;types</title>
<path fill="none" stroke="black" d="M1029.04,-2164.35C1097.58,-2170.48 1282.52,-2176.58 1379.5,-2078.38 1409.58,-2047.92 1429.82,-1921.56 1437.75,-1863.19"/>
<polygon fill="black" stroke="black" points="1441.22,-1863.69 1439.06,-1853.32 1434.28,-1862.78 1441.22,-1863.69"/>
</g>
<!-- core&#45;test&#45;guest -->
<g id="node7" class="node">
<title>core&#45;test&#45;guest</title>
<polygon fill="none" stroke="black" points="121,-1123.38 0,-1123.38 0,-1087.38 121,-1087.38 121,-1123.38"/>
<text text-anchor="middle" x="60.5" y="-1101.08" font-family="sans-serif" font-size="14.00">core&#45;test&#45;guest</text>
</g>
<!-- crypto&#45;sig -->
<g id="node8" class="node">
<title>crypto&#45;sig</title>
<polygon fill="none" stroke="black" points="241.25,-341.38 157,-341.38 157,-305.38 241.25,-305.38 241.25,-341.38"/>
<text text-anchor="middle" x="199.12" y="-319.08" font-family="sans-serif" font-size="14.00">crypto&#45;sig</text>
</g>
<!-- egglog -->
<g id="node9" class="node">
<title>egglog</title>
<polygon fill="none" stroke="black" points="890.88,-1583.38 829.88,-1583.38 829.88,-1547.38 890.88,-1547.38 890.88,-1583.38"/>
<text text-anchor="middle" x="860.38" y="-1561.08" font-family="sans-serif" font-size="14.00">egglog</text>
</g>
<!-- egglog&#45;&gt;sexp -->
<g id="edge28" class="edge">
<title>egglog&#45;&gt;sexp</title>
<path fill="none" stroke="black" d="M891.29,-1555.29C903.79,-1550.08 917.9,-1542.81 928.75,-1533.38 942.69,-1521.26 968.01,-1480.39 984.58,-1452.29"/>
<polygon fill="black" stroke="black" points="987.46,-1454.3 989.48,-1443.9 981.41,-1450.77 987.46,-1454.3"/>
</g>
<!-- egglog&#45;&gt;types -->
<g id="edge29" class="edge">
<title>egglog&#45;&gt;types</title>
<path fill="none" stroke="black" d="M891.13,-1570.65C938.17,-1578.51 1032.63,-1592.38 1113.38,-1592.38 1113.38,-1592.38 1113.38,-1592.38 1218.25,-1592.38 1293.97,-1592.38 1326.14,-1593.65 1379.5,-1647.38 1422.09,-1690.26 1435.42,-1763.13 1439.6,-1803.77"/>
<polygon fill="black" stroke="black" points="1436.1,-1803.88 1440.47,-1813.53 1443.07,-1803.26 1436.1,-1803.88"/>
</g>
<!-- forsp -->
<g id="node10" class="node">
<title>forsp</title>
<polygon fill="none" stroke="black" points="477.5,-1187.38 423.5,-1187.38 423.5,-1151.38 477.5,-1151.38 477.5,-1187.38"/>
<text text-anchor="middle" x="450.5" y="-1165.08" font-family="sans-serif" font-size="14.00">forsp</text>
</g>
<!-- forsp&#45;&gt;hash -->
<g id="edge30" class="edge">
<title>forsp&#45;&gt;hash</title>
<path fill="none" stroke="black" d="M477.94,-1158.88C515.39,-1142.85 584.07,-1109.03 626.75,-1061.38 651.69,-1033.54 635.6,-1011.06 662.75,-985.38 695.26,-954.62 721.21,-975.53 756,-947.38 778.21,-929.41 819.9,-862.25 842.97,-823.48"/>
<polygon fill="black" stroke="black" points="845.84,-825.51 847.91,-815.12 839.81,-821.95 845.84,-825.51"/>
</g>
<!-- repl&#45;core -->
<g id="node47" class="node">
<title>repl&#45;core</title>
<polygon fill="none" stroke="black" points="618.5,-1263.38 540.25,-1263.38 540.25,-1227.38 618.5,-1227.38 618.5,-1263.38"/>
<text text-anchor="middle" x="579.38" y="-1241.08" font-family="sans-serif" font-size="14.00">repl&#45;core</text>
</g>
<!-- forsp&#45;&gt;repl&#45;core -->
<g id="edge31" class="edge">
<title>forsp&#45;&gt;repl&#45;core</title>
<path fill="none" stroke="black" d="M477.79,-1185.13C495.17,-1195.54 518.31,-1209.4 538.01,-1221.2"/>
<polygon fill="black" stroke="black" points="535.98,-1224.06 546.35,-1226.2 539.57,-1218.06 535.98,-1224.06"/>
</g>
<!-- forsp&#45;&gt;sexp -->
<g id="edge32" class="edge">
<title>forsp&#45;&gt;sexp</title>
<path fill="none" stroke="black" d="M477.82,-1171.38C514.21,-1175.26 580.62,-1186.49 626.75,-1218.38 648.98,-1233.75 639.82,-1253.07 662.75,-1267.38 764.67,-1330.97 828.47,-1249.22 928.75,-1315.38 957.92,-1334.62 978.03,-1370.23 989.4,-1395.5"/>
<polygon fill="black" stroke="black" points="986.13,-1396.75 993.29,-1404.56 992.57,-1393.99 986.13,-1396.75"/>
</g>
<!-- fuse&#45;&gt;hash -->
<g id="edge33" class="edge">
<title>fuse&#45;&gt;hash</title>
<path fill="none" stroke="black" d="M606.71,-611.62C642.85,-621.1 708.7,-641.65 756,-675.38 791.69,-700.83 823.02,-741.12 841.58,-767.9"/>
<polygon fill="black" stroke="black" points="838.46,-769.53 846.97,-775.84 844.25,-765.6 838.46,-769.53"/>
</g>
<!-- fuse&#45;&gt;object -->
<g id="edge34" class="edge">
<title>fuse&#45;&gt;object</title>
<path fill="none" stroke="black" d="M606.53,-618.36C614.12,-623.33 621.71,-629.68 626.75,-637.38 672.62,-707.47 614.47,-753.93 662.75,-822.38 665.05,-825.64 667.87,-828.56 670.98,-831.18"/>
<polygon fill="black" stroke="black" points="668.87,-833.97 679.06,-836.87 672.9,-828.25 668.87,-833.97"/>
</g>
<!-- fuse&#45;&gt;store -->
<g id="edge35" class="edge">
<title>fuse&#45;&gt;store</title>
<path fill="none" stroke="black" d="M595.21,-587.16C605.51,-573.63 618.77,-554.32 626.75,-535.38 656.23,-465.41 619.83,-431.01 662.75,-368.38 665.6,-364.22 669.24,-360.49 673.21,-357.2"/>
<polygon fill="black" stroke="black" points="674.96,-360.25 681.03,-351.57 670.87,-354.57 674.96,-360.25"/>
</g>
<!-- git&#45;&gt;hash -->
<g id="edge36" class="edge">
<title>git&#45;&gt;hash</title>
<path fill="none" stroke="black" d="M477.81,-531.18C534.7,-536.33 670.9,-555.63 756,-625.38 802.61,-663.58 833.7,-728.66 848.78,-766.25"/>
<polygon fill="black" stroke="black" points="845.51,-767.5 852.39,-775.56 852.03,-764.97 845.51,-767.5"/>
</g>
<!-- git&#45;&gt;object -->
<g id="edge37" class="edge">
<title>git&#45;&gt;object</title>
<path fill="none" stroke="black" d="M465.59,-547.74C481.53,-568.45 508.36,-603.05 532,-632.38 573.35,-683.67 591.31,-690.84 626.75,-746.38 646.85,-777.89 637.56,-794.76 662.75,-822.38 665.23,-825.1 668.05,-827.63 671.04,-829.96"/>
<polygon fill="black" stroke="black" points="668.89,-832.73 679.12,-835.5 672.85,-826.96 668.89,-832.73"/>
</g>
<!-- sqlite -->
<g id="node54" class="node">
<title>sqlite</title>
<polygon fill="none" stroke="black" points="887.38,-356.38 833.38,-356.38 833.38,-320.38 887.38,-320.38 887.38,-356.38"/>
<text text-anchor="middle" x="860.38" y="-334.08" font-family="sans-serif" font-size="14.00">sqlite</text>
</g>
<!-- git&#45;&gt;sqlite -->
<g id="edge38" class="edge">
<title>git&#45;&gt;sqlite</title>
<path fill="none" stroke="black" d="M477.63,-523.44C531.93,-510.41 659.91,-476.14 756,-422.38 784.48,-406.44 812.97,-382.55 832.81,-364.32"/>
<polygon fill="black" stroke="black" points="835,-367.06 839.92,-357.67 830.22,-361.95 835,-367.06"/>
</g>
<!-- git&#45;&gt;store -->
<g id="edge39" class="edge">
<title>git&#45;&gt;store</title>
<path fill="none" stroke="black" d="M463.34,-510.89C477.62,-489.66 503.33,-454.76 532,-431.38 575.22,-396.13 633.89,-368.42 671.45,-352.71"/>
<polygon fill="black" stroke="black" points="672.59,-356.03 680.52,-348.99 669.94,-349.55 672.59,-356.03"/>
</g>
<!-- grammar -->
<g id="node13" class="node">
<title>grammar</title>
<polygon fill="none" stroke="black" points="1038.5,-1679.38 964.75,-1679.38 964.75,-1643.38 1038.5,-1643.38 1038.5,-1679.38"/>
<text text-anchor="middle" x="1001.62" y="-1657.08" font-family="sans-serif" font-size="14.00">grammar</text>
</g>
<!-- grammar&#45;&gt;types -->
<g id="edge40" class="edge">
<title>grammar&#45;&gt;types</title>
<path fill="none" stroke="black" d="M1038.86,-1653.3C1111.14,-1639.39 1275.23,-1619.05 1379.5,-1693.38 1415.74,-1719.21 1431.1,-1771.14 1437.39,-1803.98"/>
<polygon fill="black" stroke="black" points="1433.9,-1804.38 1439.06,-1813.64 1440.8,-1803.19 1433.9,-1804.38"/>
</g>
<!-- graph -->
<g id="node14" class="node">
<title>graph</title>
<polygon fill="none" stroke="black" points="736.38,-813.38 682.38,-813.38 682.38,-777.38 736.38,-777.38 736.38,-813.38"/>
<text text-anchor="middle" x="709.38" y="-791.08" font-family="sans-serif" font-size="14.00">graph</text>
</g>
<!-- graph&#45;&gt;hash -->
<g id="edge41" class="edge">
<title>graph&#45;&gt;hash</title>
<path fill="none" stroke="black" d="M736.67,-795.38C760.32,-795.38 795.33,-795.38 821.91,-795.38"/>
<polygon fill="black" stroke="black" points="821.58,-798.88 831.58,-795.38 821.58,-791.88 821.58,-798.88"/>
</g>
<!-- parse -->
<g id="node38" class="node">
<title>parse</title>
<polygon fill="none" stroke="black" points="1141.38,-1209.38 1087.38,-1209.38 1087.38,-1173.38 1141.38,-1173.38 1141.38,-1209.38"/>
<text text-anchor="middle" x="1114.38" y="-1187.08" font-family="sans-serif" font-size="14.00">parse</text>
</g>
<!-- graph&#45;&gt;parse -->
<g id="edge42" class="edge">
<title>graph&#45;&gt;parse</title>
<path fill="none" stroke="black" d="M736.63,-804.98C779.82,-821.63 867.22,-858.96 928.75,-909.38 1016.62,-981.38 1077.39,-1106.34 1101.63,-1162.54"/>
<polygon fill="black" stroke="black" points="1098.41,-1163.9 1105.53,-1171.74 1104.85,-1161.17 1098.41,-1163.9"/>
</g>
<!-- rand -->
<g id="node45" class="node">
<title>rand</title>
<polygon fill="none" stroke="black" points="1028.62,-813.38 974.62,-813.38 974.62,-777.38 1028.62,-777.38 1028.62,-813.38"/>
<text text-anchor="middle" x="1001.62" y="-791.08" font-family="sans-serif" font-size="14.00">rand</text>
</g>
<!-- hash&#45;&gt;rand -->
<g id="edge43" class="edge">
<title>hash&#45;&gt;rand</title>
<path fill="none" stroke="black" d="M887.57,-795.38C908.86,-795.38 939.19,-795.38 963.07,-795.38"/>
<polygon fill="black" stroke="black" points="963.04,-798.88 973.04,-795.38 963.04,-791.88 963.04,-798.88"/>
</g>
<!-- haskell -->
<g id="node16" class="node">
<title>haskell</title>
<polygon fill="none" stroke="black" points="481.75,-1813.38 419.25,-1813.38 419.25,-1777.38 481.75,-1777.38 481.75,-1813.38"/>
<text text-anchor="middle" x="450.5" y="-1791.08" font-family="sans-serif" font-size="14.00">haskell</text>
</g>
<!-- hol&#45;api -->
<g id="node18" class="node">
<title>hol&#45;api</title>
<polygon fill="none" stroke="black" points="610.62,-2119.38 548.12,-2119.38 548.12,-2083.38 610.62,-2083.38 610.62,-2119.38"/>
<text text-anchor="middle" x="579.38" y="-2097.08" font-family="sans-serif" font-size="14.00">hol&#45;api</text>
</g>
<!-- haskell&#45;&gt;hol&#45;api -->
<g id="edge44" class="edge">
<title>haskell&#45;&gt;hol&#45;api</title>
<path fill="none" stroke="black" d="M456.55,-1813.8C472.96,-1873.52 524.21,-2058.61 532,-2069.38 534.12,-2072.31 536.6,-2075.06 539.28,-2077.63"/>
<polygon fill="black" stroke="black" points="536.73,-2080.06 546.66,-2083.78 541.22,-2074.68 536.73,-2080.06"/>
</g>
<!-- haskell&#45;&gt;hol&#45;eval -->
<g id="edge45" class="edge">
<title>haskell&#45;&gt;hol&#45;eval</title>
<path fill="none" stroke="black" d="M481.81,-1806.63C487.14,-1809.75 492.19,-1813.63 496,-1818.38 535.36,-1867.51 485.45,-1912.99 532,-1955.38 610.07,-2026.47 744.17,-2023.44 814.05,-2015.99"/>
<polygon fill="black" stroke="black" points="814.06,-2019.51 823.6,-2014.89 813.26,-2012.55 814.06,-2019.51"/>
</g>
<!-- haskell&#45;&gt;init -->
<g id="edge46" class="edge">
<title>haskell&#45;&gt;init</title>
<path fill="none" stroke="black" d="M468.39,-1777.13C483.83,-1761.21 507.88,-1738.23 532,-1722.38 570.65,-1696.98 585.9,-1701.05 626.75,-1679.38 641.99,-1671.29 658.29,-1661.54 672.29,-1652.81"/>
<polygon fill="black" stroke="black" points="674.15,-1655.77 680.74,-1647.47 670.42,-1649.85 674.15,-1655.77"/>
</g>
<!-- haskell&#45;&gt;types -->
<g id="edge47" class="edge">
<title>haskell&#45;&gt;types</title>
<path fill="none" stroke="black" d="M482.21,-1800.8C517.2,-1806.98 576.1,-1817.39 626.75,-1826.38 684.2,-1836.57 698.91,-1837.31 756,-1849.38 865.52,-1872.53 888.68,-1909.38 1000.62,-1909.38 1000.62,-1909.38 1000.62,-1909.38 1218.25,-1909.38 1287.09,-1909.38 1361.81,-1876.59 1404.98,-1854.09"/>
<polygon fill="black" stroke="black" points="1406.48,-1857.26 1413.67,-1849.47 1403.19,-1851.08 1406.48,-1857.26"/>
</g>
<!-- hol&#45;&gt;core -->
<g id="edge48" class="edge">
<title>hol&#45;&gt;core</title>
<path fill="none" stroke="black" d="M881.81,-2349.07C896.06,-2335.65 914.91,-2316.51 928.75,-2297.38 953.76,-2262.8 975.55,-2218.4 988.4,-2189.92"/>
<polygon fill="black" stroke="black" points="991.56,-2191.42 992.41,-2180.86 985.16,-2188.58 991.56,-2191.42"/>
</g>
<!-- hol&#45;api&#45;&gt;core -->
<g id="edge49" class="edge">
<title>hol&#45;api&#45;&gt;core</title>
<path fill="none" stroke="black" d="M586.67,-2119.83C597.32,-2147.77 621.83,-2199.83 662.75,-2221.38 762.62,-2273.96 899.72,-2215.85 964.25,-2182.09"/>
<polygon fill="black" stroke="black" points="965.83,-2185.22 973,-2177.42 962.53,-2179.04 965.83,-2185.22"/>
</g>
<!-- hol&#45;api&#45;&gt;hol&#45;eval -->
<g id="edge50" class="edge">
<title>hol&#45;api&#45;&gt;hol&#45;eval</title>
<path fill="none" stroke="black" d="M611.03,-2091.27C660.27,-2075.03 757.21,-2043.07 814.33,-2024.23"/>
<polygon fill="black" stroke="black" points="815.36,-2027.58 823.76,-2021.12 813.16,-2020.93 815.36,-2027.58"/>
</g>
<!-- inductive -->
<g id="node20" class="node">
<title>inductive</title>
<polygon fill="none" stroke="black" points="898.75,-1973.38 822,-1973.38 822,-1937.38 898.75,-1937.38 898.75,-1973.38"/>
<text text-anchor="middle" x="860.38" y="-1951.08" font-family="sans-serif" font-size="14.00">inductive</text>
</g>
<!-- hol&#45;api&#45;&gt;inductive -->
<g id="edge51" class="edge">
<title>hol&#45;api&#45;&gt;inductive</title>
<path fill="none" stroke="black" d="M602.54,-2082.91C618.63,-2070.03 641.25,-2052.96 662.75,-2040.38 717.09,-2008.57 734.04,-2006.98 792,-1982.38 798.32,-1979.7 805,-1976.93 811.6,-1974.24"/>
<polygon fill="black" stroke="black" points="812.48,-1977.66 820.44,-1970.67 809.86,-1971.17 812.48,-1977.66"/>
</g>
<!-- hol&#45;api&#45;&gt;init -->
<g id="edge52" class="edge">
<title>hol&#45;api&#45;&gt;init</title>
<path fill="none" stroke="black" d="M585.31,-2083.16C604.79,-2011.34 676.39,-1747.31 700.44,-1658.64"/>
<polygon fill="black" stroke="black" points="703.75,-1659.82 702.99,-1649.25 696.99,-1657.99 703.75,-1659.82"/>
</g>
<!-- hol&#45;api&#45;&gt;pure -->
<g id="edge53" class="edge">
<title>hol&#45;api&#45;&gt;pure</title>
<path fill="none" stroke="black" d="M611.04,-2099.16C716.35,-2091.54 1063.03,-2066.46 1178.47,-2058.11"/>
<polygon fill="black" stroke="black" points="1178.61,-2061.61 1188.33,-2057.4 1178.1,-2054.63 1178.61,-2061.61"/>
</g>
<!-- hol&#45;api&#45;&gt;types -->
<g id="edge54" class="edge">
<title>hol&#45;api&#45;&gt;types</title>
<path fill="none" stroke="black" d="M610.88,-2112C616.79,-2115.22 622.47,-2119.29 626.75,-2124.38 663.11,-2167.67 621.43,-2207.79 662.75,-2246.38 718.96,-2298.87 923.71,-2321.38 1000.62,-2321.38 1000.62,-2321.38 1000.62,-2321.38 1218.25,-2321.38 1421.01,-2321.38 1440.37,-1968.69 1441.62,-1862.98"/>
<polygon fill="black" stroke="black" points="1445.12,-1863.15 1441.69,-1853.13 1438.12,-1863.11 1445.12,-1863.15"/>
</g>
<!-- hol&#45;eval&#45;&gt;core -->
<g id="edge55" class="edge">
<title>hol&#45;eval&#45;&gt;core</title>
<path fill="none" stroke="black" d="M895.61,-2021C907.03,-2026.02 919.26,-2032.76 928.75,-2041.38 956.91,-2066.95 977.51,-2106.15 989.27,-2132.73"/>
<polygon fill="black" stroke="black" points="986.03,-2134.05 993.17,-2141.88 992.47,-2131.31 986.03,-2134.05"/>
</g>
<!-- hol&#45;eval&#45;&gt;pure -->
<g id="edge56" class="edge">
<title>hol&#45;eval&#45;&gt;pure</title>
<path fill="none" stroke="black" d="M895.82,-2014.11C915.92,-2016.86 941.77,-2020.36 964.75,-2023.38 1040.54,-2033.33 1129.25,-2044.51 1178.47,-2050.67"/>
<polygon fill="black" stroke="black" points="1177.95,-2054.13 1188.31,-2051.9 1178.82,-2047.18 1177.95,-2054.13"/>
</g>
<!-- hol&#45;eval&#45;&gt;pure&#45;eval -->
<g id="edge57" class="edge">
<title>hol&#45;eval&#45;&gt;pure&#45;eval</title>
<path fill="none" stroke="black" d="M895.62,-2009.38C938.73,-2009.38 1013.13,-2009.38 1062.79,-2009.38"/>
<polygon fill="black" stroke="black" points="1062.72,-2012.88 1072.72,-2009.38 1062.72,-2005.88 1062.72,-2012.88"/>
</g>
<!-- hol&#45;eval&#45;&gt;sexp -->
<g id="edge58" class="edge">
<title>hol&#45;eval&#45;&gt;sexp</title>
<path fill="none" stroke="black" d="M895.73,-2003.3C908.01,-1999.38 920.78,-1992.94 928.75,-1982.38 975.58,-1920.31 954.2,-1711.4 964.75,-1634.38 973.59,-1569.81 987.26,-1494.65 994.92,-1454.06"/>
<polygon fill="black" stroke="black" points="998.34,-1454.82 996.76,-1444.34 991.46,-1453.51 998.34,-1454.82"/>
</g>
<!-- hol&#45;eval&#45;&gt;types -->
<g id="edge59" class="edge">
<title>hol&#45;eval&#45;&gt;types</title>
<path fill="none" stroke="black" d="M895.53,-1997.26C943.52,-1981.34 1033.96,-1955.38 1113.38,-1955.38 1113.38,-1955.38 1113.38,-1955.38 1218.25,-1955.38 1291.31,-1955.38 1318.45,-1963.52 1379.5,-1923.38 1402.08,-1908.53 1418.72,-1882.35 1429.05,-1862.04"/>
<polygon fill="black" stroke="black" points="1432.16,-1863.65 1433.34,-1853.13 1425.85,-1860.62 1432.16,-1863.65"/>
</g>
<!-- init&#45;&gt;core -->
<g id="edge60" class="edge">
<title>init&#45;&gt;core</title>
<path fill="none" stroke="black" d="M736.53,-1637.56C743.84,-1641.04 751.11,-1645.85 756,-1652.38 808.86,-1722.9 741.56,-1775.11 792,-1847.38 832.43,-1905.31 885.02,-1872.91 928.75,-1928.38 977.21,-1989.85 993.16,-2084.07 998.29,-2131.67"/>
<polygon fill="black" stroke="black" points="994.79,-2131.87 999.25,-2141.48 1001.76,-2131.19 994.79,-2131.87"/>
</g>
<!-- init&#45;&gt;grammar -->
<g id="edge61" class="edge">
<title>init&#45;&gt;grammar</title>
<path fill="none" stroke="black" d="M736.56,-1647.58C755.76,-1660.5 780.4,-1676.11 792,-1679.38 845.96,-1694.59 910.62,-1684.94 953.5,-1674.87"/>
<polygon fill="black" stroke="black" points="954.11,-1678.32 962.99,-1672.53 952.44,-1671.52 954.11,-1678.32"/>
</g>
<!-- init&#45;&gt;hash -->
<g id="edge62" class="edge">
<title>init&#45;&gt;hash</title>
<path fill="none" stroke="black" d="M736.64,-1619.49C744.13,-1615.36 751.49,-1609.76 756,-1602.38 823.85,-1491.46 769.04,-1146.36 792,-1018.38 804.79,-947.09 832.65,-866.41 848.25,-824.37"/>
<polygon fill="black" stroke="black" points="851.44,-825.82 851.67,-815.23 844.88,-823.37 851.44,-825.82"/>
</g>
<!-- init&#45;&gt;hol -->
<g id="edge63" class="edge">
<title>init&#45;&gt;hol</title>
<path fill="none" stroke="black" d="M714.02,-1647.64C725.45,-1704.93 761.67,-1886.27 792,-2036.38 814.5,-2147.73 841.53,-2280.1 853.35,-2337.91"/>
<polygon fill="black" stroke="black" points="849.9,-2338.5 855.33,-2347.6 856.75,-2337.1 849.9,-2338.5"/>
</g>
<!-- init&#45;&gt;hol&#45;eval -->
<g id="edge64" class="edge">
<title>init&#45;&gt;hol&#45;eval</title>
<path fill="none" stroke="black" d="M736.49,-1642.21C743.98,-1647.16 751.36,-1653.56 756,-1661.38 829.24,-1784.85 705.04,-1868.15 792,-1982.38 797.7,-1989.86 805.8,-1995.28 814.42,-1999.19"/>
<polygon fill="black" stroke="black" points="813.07,-2002.42 823.66,-2002.73 815.57,-1995.88 813.07,-2002.42"/>
</g>
<!-- init&#45;&gt;inductive -->
<g id="edge65" class="edge">
<title>init&#45;&gt;inductive</title>
<path fill="none" stroke="black" d="M736.74,-1642.66C744.06,-1647.58 751.28,-1653.83 756,-1661.38 809.5,-1746.85 746.98,-1795.15 792,-1885.38 800.34,-1902.09 814.07,-1917.44 826.97,-1929.49"/>
<polygon fill="black" stroke="black" points="824.35,-1931.83 834.13,-1935.89 829.01,-1926.62 824.35,-1931.83"/>
</g>
<!-- k -->
<g id="node23" class="node">
<title>k</title>
<polygon fill="none" stroke="black" points="887.38,-1637.38 833.38,-1637.38 833.38,-1601.38 887.38,-1601.38 887.38,-1637.38"/>
<text text-anchor="middle" x="860.38" y="-1615.08" font-family="sans-serif" font-size="14.00">k</text>
</g>
<!-- init&#45;&gt;k -->
<g id="edge66" class="edge">
<title>init&#45;&gt;k</title>
<path fill="none" stroke="black" d="M736.67,-1627.61C760.32,-1626.03 795.33,-1623.68 821.91,-1621.89"/>
<polygon fill="black" stroke="black" points="821.84,-1625.4 831.58,-1621.24 821.37,-1618.42 821.84,-1625.4"/>
</g>
<!-- metamath -->
<g id="node32" class="node">
<title>metamath</title>
<polygon fill="none" stroke="black" points="900.62,-1263.38 820.12,-1263.38 820.12,-1227.38 900.62,-1227.38 900.62,-1263.38"/>
<text text-anchor="middle" x="860.38" y="-1241.08" font-family="sans-serif" font-size="14.00">metamath</text>
</g>
<!-- init&#45;&gt;metamath -->
<g id="edge67" class="edge">
<title>init&#45;&gt;metamath</title>
<path fill="none" stroke="black" d="M736.74,-1618.37C743.87,-1614.28 751,-1608.98 756,-1602.38 793.51,-1552.89 774.98,-1527.1 792,-1467.38 811.78,-1397.98 836.87,-1316.99 850.15,-1274.62"/>
<polygon fill="black" stroke="black" points="853.46,-1275.77 853.12,-1265.18 846.78,-1273.67 853.46,-1275.77"/>
</g>
<!-- init&#45;&gt;sexp -->
<g id="edge68" class="edge">
<title>init&#45;&gt;sexp</title>
<path fill="none" stroke="black" d="M736.82,-1617.79C743.79,-1613.73 750.81,-1608.59 756,-1602.38 785.48,-1567.09 758.78,-1537.17 792,-1505.38 838.13,-1461.24 869.78,-1485.85 928.75,-1461.38 940.56,-1456.48 953.07,-1450.38 964.28,-1444.55"/>
<polygon fill="black" stroke="black" points="965.62,-1447.81 972.82,-1440.03 962.34,-1441.62 965.62,-1447.81"/>
</g>
<!-- spectec -->
<g id="node53" class="node">
<title>spectec</title>
<polygon fill="none" stroke="black" points="895,-1805.38 825.75,-1805.38 825.75,-1769.38 895,-1769.38 895,-1805.38"/>
<text text-anchor="middle" x="860.38" y="-1783.08" font-family="sans-serif" font-size="14.00">spectec</text>
</g>
<!-- init&#45;&gt;spectec -->
<g id="edge69" class="edge">
<title>init&#45;&gt;spectec</title>
<path fill="none" stroke="black" d="M736.77,-1643.96C743.74,-1648.79 750.76,-1654.66 756,-1661.38 783.52,-1696.65 761.62,-1722.54 792,-1755.38 798.38,-1762.27 806.55,-1767.83 814.98,-1772.25"/>
<polygon fill="black" stroke="black" points="813.39,-1775.37 823.93,-1776.45 816.37,-1769.03 813.39,-1775.37"/>
</g>
<!-- init&#45;&gt;types -->
<g id="edge70" class="edge">
<title>init&#45;&gt;types</title>
<path fill="none" stroke="black" d="M736.86,-1637.9C744,-1641.36 751.1,-1646.08 756,-1652.38 801.3,-1710.59 736.62,-1765.66 792,-1814.38 826.95,-1845.13 954.07,-1833.38 1000.62,-1833.38 1000.62,-1833.38 1000.62,-1833.38 1218.25,-1833.38 1283.4,-1833.38 1359.24,-1833.38 1403.65,-1833.38"/>
<polygon fill="black" stroke="black" points="1403.52,-1836.88 1413.52,-1833.38 1403.52,-1829.88 1403.52,-1836.88"/>
</g>
<!-- json -->
<g id="node22" class="node">
<title>json</title>
<polygon fill="none" stroke="black" points="887.38,-113.38 833.38,-113.38 833.38,-77.38 887.38,-77.38 887.38,-113.38"/>
<text text-anchor="middle" x="860.38" y="-91.08" font-family="sans-serif" font-size="14.00">json</text>
</g>
<!-- k&#45;&gt;grammar -->
<g id="edge71" class="edge">
<title>k&#45;&gt;grammar</title>
<path fill="none" stroke="black" d="M887.57,-1627.28C906.1,-1632.87 931.47,-1640.52 953.48,-1647.16"/>
<polygon fill="black" stroke="black" points="952.27,-1650.45 962.86,-1649.99 954.29,-1643.75 952.27,-1650.45"/>
</g>
<!-- k&#45;&gt;parse -->
<g id="edge72" class="edge">
<title>k&#45;&gt;parse</title>
<path fill="none" stroke="black" d="M887.66,-1612.42C900.85,-1608.08 916.57,-1601.55 928.75,-1592.38 992.2,-1544.62 1002.47,-1522.15 1038.5,-1451.38 1078.37,-1373.07 1099.95,-1270.37 1108.68,-1220.74"/>
<polygon fill="black" stroke="black" points="1112.1,-1221.53 1110.33,-1211.08 1105.2,-1220.35 1112.1,-1221.53"/>
</g>
<!-- k&#45;&gt;sexp -->
<g id="edge73" class="edge">
<title>k&#45;&gt;sexp</title>
<path fill="none" stroke="black" d="M887.7,-1614.35C901.55,-1610.47 917.86,-1603.76 928.75,-1592.38 962.26,-1557.33 944.96,-1533.65 964.75,-1489.38 970.31,-1476.94 977.39,-1463.7 983.79,-1452.44"/>
<polygon fill="black" stroke="black" points="986.67,-1454.44 988.65,-1444.04 980.61,-1450.94 986.67,-1454.44"/>
</g>
<!-- kernel -->
<g id="node24" class="node">
<title>kernel</title>
<polygon fill="none" stroke="black" points="608,-1393.38 550.75,-1393.38 550.75,-1357.38 608,-1357.38 608,-1393.38"/>
<text text-anchor="middle" x="579.38" y="-1371.08" font-family="sans-serif" font-size="14.00">kernel</text>
</g>
<!-- kernel&#45;&gt;hash -->
<g id="edge74" class="edge">
<title>kernel&#45;&gt;hash</title>
<path fill="none" stroke="black" d="M590.52,-1356.99C601.19,-1336.82 617.67,-1303.23 626.75,-1272.38 657.08,-1169.33 600.12,-1120.65 662.75,-1033.38 689.93,-995.51 723.59,-1018.88 756,-985.38 781.99,-958.52 774.47,-942.39 792,-909.38 807.89,-879.44 827.82,-846.18 841.87,-823.35"/>
<polygon fill="black" stroke="black" points="844.8,-825.28 847.08,-814.93 838.84,-821.59 844.8,-825.28"/>
</g>
<!-- kernel&#45;&gt;init -->
<g id="edge75" class="edge">
<title>kernel&#45;&gt;init</title>
<path fill="none" stroke="black" d="M589.55,-1393.66C599.54,-1414 615.57,-1448.01 626.75,-1478.38 646.58,-1532.23 627.59,-1557.03 662.75,-1602.38 665.53,-1605.96 668.92,-1609.16 672.59,-1612"/>
<polygon fill="black" stroke="black" points="670.57,-1614.86 680.84,-1617.46 674.44,-1609.02 670.57,-1614.86"/>
</g>
<!-- kernel&#45;&gt;object -->
<g id="edge76" class="edge">
<title>kernel&#45;&gt;object</title>
<path fill="none" stroke="black" d="M590.64,-1357.02C601.41,-1336.89 617.98,-1303.32 626.75,-1272.38 660.6,-1152.93 636.13,-1116.64 662.75,-995.38 671.85,-953.93 687.36,-907.34 697.74,-878.18"/>
<polygon fill="black" stroke="black" points="700.96,-879.56 701.06,-868.96 694.38,-877.19 700.96,-879.56"/>
</g>
<!-- kernel&#45;&gt;sexp -->
<g id="edge77" class="edge">
<title>kernel&#45;&gt;sexp</title>
<path fill="none" stroke="black" d="M608.43,-1373.08C668.29,-1368.96 812.55,-1363.17 928.75,-1391.38 940.68,-1394.27 953.05,-1399.17 964.09,-1404.32"/>
<polygon fill="black" stroke="black" points="962.33,-1407.36 972.85,-1408.61 965.41,-1401.07 962.33,-1407.36"/>
</g>
<!-- kernel&#45;&gt;store -->
<g id="edge78" class="edge">
<title>kernel&#45;&gt;store</title>
<path fill="none" stroke="black" d="M591.18,-1357.16C602.42,-1337.15 619.37,-1303.68 626.75,-1272.38 649.81,-1174.53 613.28,-455.89 662.75,-368.38 665.29,-363.89 668.8,-359.96 672.76,-356.55"/>
<polygon fill="black" stroke="black" points="674.68,-359.48 680.73,-350.78 670.58,-353.81 674.68,-359.48"/>
</g>
<!-- kernel&#45;sat -->
<g id="node25" class="node">
<title>kernel&#45;sat</title>
<polygon fill="none" stroke="black" points="621.12,-1767.38 537.62,-1767.38 537.62,-1731.38 621.12,-1731.38 621.12,-1767.38"/>
<text text-anchor="middle" x="579.38" y="-1745.08" font-family="sans-serif" font-size="14.00">kernel&#45;sat</text>
</g>
<!-- kernel&#45;sat&#45;&gt;core -->
<g id="edge79" class="edge">
<title>kernel&#45;sat&#45;&gt;core</title>
<path fill="none" stroke="black" d="M599.74,-1767.66C634.65,-1801.46 708.91,-1877.12 756,-1952.38 777.54,-1986.81 760.97,-2010.17 792,-2036.38 839.77,-2076.72 876.19,-2035.52 928.75,-2069.38 953.39,-2085.24 973.12,-2112.53 985.63,-2133.28"/>
<polygon fill="black" stroke="black" points="982.55,-2134.94 990.58,-2141.84 988.6,-2131.43 982.55,-2134.94"/>
</g>
<!-- kernel&#45;sat&#45;&gt;hol&#45;eval -->
<g id="edge80" class="edge">
<title>kernel&#45;sat&#45;&gt;hol&#45;eval</title>
<path fill="none" stroke="black" d="M621.42,-1743.05C661.29,-1739.41 720.8,-1741.06 756,-1775.38 822.86,-1840.57 733.22,-1909.82 792,-1982.38 797.87,-1989.62 805.96,-1994.93 814.51,-1998.82"/>
<polygon fill="black" stroke="black" points="813.05,-2002 823.64,-2002.35 815.57,-1995.48 813.05,-2002"/>
</g>
<!-- kernel&#45;sat&#45;&gt;init -->
<g id="edge81" class="edge">
<title>kernel&#45;sat&#45;&gt;init</title>
<path fill="none" stroke="black" d="M609.07,-1731.04C615.09,-1726.79 621.28,-1722.12 626.75,-1717.38 648.55,-1698.51 670.63,-1674.33 686.32,-1656.09"/>
<polygon fill="black" stroke="black" points="688.69,-1658.71 692.5,-1648.82 683.35,-1654.18 688.69,-1658.71"/>
</g>
<!-- sat -->
<g id="node48" class="node">
<title>sat</title>
<polygon fill="none" stroke="black" points="887.38,-1209.38 833.38,-1209.38 833.38,-1173.38 887.38,-1173.38 887.38,-1209.38"/>
<text text-anchor="middle" x="860.38" y="-1187.08" font-family="sans-serif" font-size="14.00">sat</text>
</g>
<!-- kernel&#45;sat&#45;&gt;sat -->
<g id="edge82" class="edge">
<title>kernel&#45;sat&#45;&gt;sat</title>
<path fill="none" stroke="black" d="M585.54,-1731.1C609.65,-1646.92 713.22,-1297.31 792,-1218.38 800.28,-1210.08 811.43,-1204.25 822.28,-1200.19"/>
<polygon fill="black" stroke="black" points="823.07,-1203.61 831.48,-1197.16 820.88,-1196.97 823.07,-1203.61"/>
</g>
<!-- kernel&#45;smt -->
<g id="node26" class="node">
<title>kernel&#45;smt</title>
<polygon fill="none" stroke="black" points="494.5,-2252.38 406.5,-2252.38 406.5,-2216.38 494.5,-2216.38 494.5,-2252.38"/>
<text text-anchor="middle" x="450.5" y="-2230.08" font-family="sans-serif" font-size="14.00">kernel&#45;smt</text>
</g>
<!-- kernel&#45;smt&#45;&gt;core -->
<g id="edge83" class="edge">
<title>kernel&#45;smt&#45;&gt;core</title>
<path fill="none" stroke="black" d="M494.88,-2245.88C581.89,-2266.56 781.97,-2301.92 928.75,-2234.38 950.23,-2224.5 968.78,-2205.2 981.65,-2188.92"/>
<polygon fill="black" stroke="black" points="984.41,-2191.08 987.64,-2180.99 978.82,-2186.86 984.41,-2191.08"/>
</g>
<!-- kernel&#45;smt&#45;&gt;hol&#45;api -->
<g id="edge84" class="edge">
<title>kernel&#45;smt&#45;&gt;hol&#45;api</title>
<path fill="none" stroke="black" d="M463.73,-2215.89C478.4,-2194.55 504.46,-2159.08 532,-2133.38 534.49,-2131.05 537.17,-2128.76 539.93,-2126.55"/>
<polygon fill="black" stroke="black" points="541.84,-2129.49 547.71,-2120.67 537.62,-2123.9 541.84,-2129.49"/>
</g>
<!-- kv -->
<g id="node27" class="node">
<title>kv</title>
<polygon fill="none" stroke="black" points="226.12,-152.38 172.12,-152.38 172.12,-116.38 226.12,-116.38 226.12,-152.38"/>
<text text-anchor="middle" x="199.12" y="-130.08" font-family="sans-serif" font-size="14.00">kv</text>
</g>
<!-- lean -->
<g id="node28" class="node">
<title>lean</title>
<polygon fill="none" stroke="black" points="87.5,-1177.38 33.5,-1177.38 33.5,-1141.38 87.5,-1141.38 87.5,-1177.38"/>
<text text-anchor="middle" x="60.5" y="-1155.08" font-family="sans-serif" font-size="14.00">lean</text>
</g>
<!-- lisp -->
<g id="node29" class="node">
<title>lisp</title>
<polygon fill="none" stroke="black" points="477.5,-1439.38 423.5,-1439.38 423.5,-1403.38 477.5,-1403.38 477.5,-1439.38"/>
<text text-anchor="middle" x="450.5" y="-1417.08" font-family="sans-serif" font-size="14.00">lisp</text>
</g>
<!-- lisp&#45;&gt;core -->
<g id="edge85" class="edge">
<title>lisp&#45;&gt;core</title>
<path fill="none" stroke="black" d="M468.02,-1439.83C477.97,-1452.1 489.88,-1469.1 496,-1486.38 529.13,-1579.89 483.11,-1845.05 532,-1931.38 602.01,-2055.01 661.95,-2060.17 792,-2117.38 848.52,-2142.24 919.97,-2153.38 962.89,-2158.13"/>
<polygon fill="black" stroke="black" points="962.39,-2161.6 972.69,-2159.15 963.11,-2154.64 962.39,-2161.6"/>
</g>
<!-- lisp&#45;&gt;hol&#45;api -->
<g id="edge86" class="edge">
<title>lisp&#45;&gt;hol&#45;api</title>
<path fill="none" stroke="black" d="M468.13,-1439.79C478.13,-1452.05 490.04,-1469.05 496,-1486.38 538.18,-1609.13 468.15,-1956.36 532,-2069.38 533.94,-2072.8 536.41,-2075.94 539.2,-2078.8"/>
<polygon fill="black" stroke="black" points="536.71,-2081.28 546.59,-2085.13 541.27,-2075.97 536.71,-2081.28"/>
</g>
<!-- lisp&#45;&gt;hol&#45;eval -->
<g id="edge87" class="edge">
<title>lisp&#45;&gt;hol&#45;eval</title>
<path fill="none" stroke="black" d="M467.96,-1439.85C477.89,-1452.14 489.79,-1469.14 496,-1486.38 525.79,-1569.1 479.26,-1810.03 532,-1880.38 599.91,-1970.97 741.08,-1998 813.84,-2006.02"/>
<polygon fill="black" stroke="black" points="813.09,-2009.47 823.4,-2007 813.81,-2002.5 813.09,-2009.47"/>
</g>
<!-- lisp&#45;&gt;init -->
<g id="edge88" class="edge">
<title>lisp&#45;&gt;init</title>
<path fill="none" stroke="black" d="M477.94,-1436.22C484.58,-1440.98 491.18,-1446.76 496,-1453.38 526.77,-1495.65 495.72,-1527.73 532,-1565.38 551.59,-1585.7 625.49,-1607.84 671.19,-1620.02"/>
<polygon fill="black" stroke="black" points="670.13,-1623.36 680.69,-1622.51 671.9,-1616.59 670.13,-1623.36"/>
</g>
<!-- lisp&#45;&gt;repl&#45;core -->
<g id="edge89" class="edge">
<title>lisp&#45;&gt;repl&#45;core</title>
<path fill="none" stroke="black" d="M464.6,-1403.21C486.92,-1372.25 532.43,-1309.11 558.63,-1272.77"/>
<polygon fill="black" stroke="black" points="561.26,-1275.1 564.27,-1264.94 555.58,-1271.01 561.26,-1275.1"/>
</g>
<!-- lisp&#45;&gt;sexp -->
<g id="edge90" class="edge">
<title>lisp&#45;&gt;sexp</title>
<path fill="none" stroke="black" d="M477.82,-1427.13C493.47,-1430.26 513.77,-1433.8 532,-1435.38 573.96,-1439 584.67,-1436.9 626.75,-1435.38 700.34,-1432.71 718.41,-1426.05 792,-1423.38 852.74,-1421.18 867.97,-1422.95 928.75,-1423.38 939.84,-1423.45 951.89,-1423.6 962.9,-1423.75"/>
<polygon fill="black" stroke="black" points="962.78,-1427.25 972.83,-1423.9 962.88,-1420.25 962.78,-1427.25"/>
</g>
<!-- lisp&#45;&gt;types -->
<g id="edge91" class="edge">
<title>lisp&#45;&gt;types</title>
<path fill="none" stroke="black" d="M477.74,-1427.54C516.23,-1434.86 587.64,-1441.6 626.75,-1402.38 680.55,-1348.42 616.97,-1122.29 662.75,-1061.38 689.64,-1025.6 722.33,-1052.86 756,-1023.38 780.26,-1002.13 765.63,-978.95 792,-960.38 868.99,-906.15 906.46,-923.38 1000.62,-923.38 1000.62,-923.38 1000.62,-923.38 1218.25,-923.38 1296.2,-923.38 1334.21,-928.94 1379.5,-992.38 1427.55,-1059.67 1439.08,-1663.14 1441.12,-1804.05"/>
<polygon fill="black" stroke="black" points="1437.62,-1803.71 1441.26,-1813.66 1444.62,-1803.61 1437.62,-1803.71"/>
</g>
<!-- llm -->
<g id="node30" class="node">
<title>llm</title>
<polygon fill="none" stroke="black" points="226.12,-547.38 172.12,-547.38 172.12,-511.38 226.12,-511.38 226.12,-547.38"/>
<text text-anchor="middle" x="199.12" y="-525.08" font-family="sans-serif" font-size="14.00">llm</text>
</g>
<!-- llm&#45;&gt;proto -->
<g id="edge92" class="edge">
<title>llm&#45;&gt;proto</title>
<path fill="none" stroke="black" d="M226.6,-545.87C244.02,-556.72 267.05,-571.07 286.14,-582.96"/>
<polygon fill="black" stroke="black" points="284.08,-585.8 294.42,-588.12 287.78,-579.86 284.08,-585.8"/>
</g>
<!-- lsp&#45;&gt;sexp -->
<g id="edge93" class="edge">
<title>lsp&#45;&gt;sexp</title>
<path fill="none" stroke="black" d="M887.66,-1142.04C901.68,-1145.82 918.17,-1152.54 928.75,-1164.38 988.13,-1230.77 998.95,-1342.01 1000.59,-1394.82"/>
<polygon fill="black" stroke="black" points="997.08,-1394.62 1000.79,-1404.54 1004.08,-1394.47 997.08,-1394.62"/>
</g>
<!-- lsp&#45;&gt;wasm -->
<g id="edge94" class="edge">
<title>lsp&#45;&gt;wasm</title>
<path fill="none" stroke="black" d="M887.69,-1119.51C902.46,-1107.93 919.69,-1091.46 928.75,-1072.38 947.02,-1033.91 989.36,-386.62 998.75,-239.82"/>
<polygon fill="black" stroke="black" points="1002.23,-240.37 999.37,-230.16 995.24,-239.92 1002.23,-240.37"/>
</g>
<!-- metamath&#45;&gt;parse -->
<g id="edge95" class="edge">
<title>metamath&#45;&gt;parse</title>
<path fill="none" stroke="black" d="M901.03,-1236.88C948.94,-1226.61 1028.96,-1209.47 1075.89,-1199.41"/>
<polygon fill="black" stroke="black" points="1076.54,-1202.85 1085.58,-1197.33 1075.07,-1196.01 1076.54,-1202.85"/>
</g>
<!-- metamath&#45;&gt;sexp -->
<g id="edge96" class="edge">
<title>metamath&#45;&gt;sexp</title>
<path fill="none" stroke="black" d="M900.92,-1258.78C910.87,-1263.51 920.92,-1269.64 928.75,-1277.38 933.34,-1281.92 967.64,-1354.11 987.15,-1395.6"/>
<polygon fill="black" stroke="black" points="983.94,-1396.99 991.36,-1404.55 990.27,-1394.01 983.94,-1396.99"/>
</g>
<!-- multiformat -->
<g id="node33" class="node">
<title>multiformat</title>
<polygon fill="none" stroke="black" points="754.5,-1149.38 664.25,-1149.38 664.25,-1113.38 754.5,-1113.38 754.5,-1149.38"/>
<text text-anchor="middle" x="709.38" y="-1127.08" font-family="sans-serif" font-size="14.00">multiformat</text>
</g>
<!-- multiformat&#45;&gt;acset -->
<g id="edge97" class="edge">
<title>multiformat&#45;&gt;acset</title>
<path fill="none" stroke="black" d="M736.25,-1112.9C752.02,-1101.99 772.76,-1088.24 792,-1077.38 801.79,-1071.85 812.69,-1066.39 822.82,-1061.59"/>
<polygon fill="black" stroke="black" points="824.06,-1064.87 831.65,-1057.49 821.11,-1058.53 824.06,-1064.87"/>
</g>
<!-- multiformat&#45;&gt;hash -->
<g id="edge98" class="edge">
<title>multiformat&#45;&gt;hash</title>
<path fill="none" stroke="black" d="M718.39,-1113.31C742.89,-1058.05 816.99,-890.95 846.78,-823.78"/>
<polygon fill="black" stroke="black" points="849.86,-825.48 850.71,-814.92 843.46,-822.64 849.86,-825.48"/>
</g>
<!-- multiformat&#45;&gt;parse -->
<g id="edge99" class="edge">
<title>multiformat&#45;&gt;parse</title>
<path fill="none" stroke="black" d="M754.89,-1117.77C766.83,-1114.71 779.81,-1111.92 792,-1110.38 852.3,-1102.75 869.27,-1097.9 928.75,-1110.38 983.23,-1121.8 1041.28,-1150.3 1077.43,-1170.24"/>
<polygon fill="black" stroke="black" points="1075.27,-1173.04 1085.71,-1174.88 1078.7,-1166.94 1075.27,-1173.04"/>
</g>
<!-- numerals -->
<g id="node34" class="node">
<title>numerals</title>
<polygon fill="none" stroke="black" points="617.75,-1523.38 541,-1523.38 541,-1487.38 617.75,-1487.38 617.75,-1523.38"/>
<text text-anchor="middle" x="579.38" y="-1501.08" font-family="sans-serif" font-size="14.00">numerals</text>
</g>
<!-- numerals&#45;&gt;grammar -->
<g id="edge100" class="edge">
<title>numerals&#45;&gt;grammar</title>
<path fill="none" stroke="black" d="M617.96,-1504.78C657.08,-1506.17 717.85,-1514.28 756,-1548.38 790.59,-1579.3 754.93,-1618.47 792,-1646.38 838.14,-1681.11 907.46,-1678.48 953.35,-1671.5"/>
<polygon fill="black" stroke="black" points="953.71,-1674.99 963,-1669.9 952.56,-1668.09 953.71,-1674.99"/>
</g>
<!-- numerals&#45;&gt;hol&#45;eval -->
<g id="edge101" class="edge">
<title>numerals&#45;&gt;hol&#45;eval</title>
<path fill="none" stroke="black" d="M587.91,-1523.82C600.59,-1553.59 628.25,-1613.23 662.75,-1656.38 697.21,-1699.48 729.64,-1689.89 756,-1738.38 808.36,-1834.68 724.09,-1896.33 792,-1982.38 797.77,-1989.69 805.83,-1995.03 814.37,-1998.93"/>
<polygon fill="black" stroke="black" points="812.91,-2002.12 823.5,-2002.46 815.43,-1995.59 812.91,-2002.12"/>
</g>
<!-- numerals&#45;&gt;init -->
<g id="edge102" class="edge">
<title>numerals&#45;&gt;init</title>
<path fill="none" stroke="black" d="M611.44,-1523.83C616.92,-1527.88 622.28,-1532.45 626.75,-1537.38 648.93,-1561.85 639.73,-1578.7 662.75,-1602.38 665.68,-1605.39 669.02,-1608.19 672.52,-1610.76"/>
<polygon fill="black" stroke="black" points="670.49,-1613.6 680.77,-1616.15 674.32,-1607.75 670.49,-1613.6"/>
</g>
<!-- numerals&#45;&gt;types -->
<g id="edge103" class="edge">
<title>numerals&#45;&gt;types</title>
<path fill="none" stroke="black" d="M596.04,-1487.11C606.6,-1473.71 619.81,-1454.57 626.75,-1435.38 651.89,-1365.79 619.55,-1164.44 662.75,-1104.38 689.4,-1067.33 719.75,-1089.1 756,-1061.38 775.8,-1046.24 771.02,-1031.83 792,-1018.38 872.91,-966.49 904.5,-961.38 1000.62,-961.38 1000.62,-961.38 1000.62,-961.38 1218.25,-961.38 1396.27,-961.38 1434.25,-1652.03 1440.45,-1804.03"/>
<polygon fill="black" stroke="black" points="1436.94,-1803.8 1440.83,-1813.65 1443.93,-1803.52 1436.94,-1803.8"/>
</g>
<!-- object&#45;&gt;hash -->
<g id="edge104" class="edge">
<title>object&#45;&gt;hash</title>
<path fill="none" stroke="black" d="M738.4,-839.22C762.15,-830.61 796.4,-818.2 822.39,-808.78"/>
<polygon fill="black" stroke="black" points="823.34,-812.16 831.55,-805.46 820.96,-805.58 823.34,-812.16"/>
</g>
<!-- object&#45;&gt;parse -->
<g id="edge105" class="edge">
<title>object&#45;&gt;parse</title>
<path fill="none" stroke="black" d="M735.38,-867.83C776.43,-898.32 860.38,-961.51 928.75,-1018.38 979.03,-1060.19 990.99,-1071.44 1038.5,-1116.38 1055.15,-1132.13 1073.32,-1150.3 1087.59,-1164.82"/>
<polygon fill="black" stroke="black" points="1084.95,-1167.12 1094.45,-1171.82 1089.95,-1162.22 1084.95,-1167.12"/>
</g>
<!-- opentheory&#45;&gt;core -->
<g id="edge106" class="edge">
<title>opentheory&#45;&gt;core</title>
<path fill="none" stroke="black" d="M496.19,-2413.03C587.81,-2442.02 799.21,-2492.66 928.75,-2394.38 992.44,-2346.06 1001.28,-2242.22 1001.53,-2191.08"/>
<polygon fill="black" stroke="black" points="1005.03,-2191.34 1001.46,-2181.37 998.03,-2191.39 1005.03,-2191.34"/>
</g>
<!-- opentheory&#45;&gt;hol -->
<g id="edge107" class="edge">
<title>opentheory&#45;&gt;hol</title>
<path fill="none" stroke="black" d="M496.32,-2394.08C577.25,-2388.13 746.36,-2375.69 821.73,-2370.15"/>
<polygon fill="black" stroke="black" points="821.77,-2373.65 831.48,-2369.43 821.25,-2366.67 821.77,-2373.65"/>
</g>
<!-- opentheory&#45;&gt;hol&#45;api -->
<g id="edge108" class="edge">
<title>opentheory&#45;&gt;hol&#45;api</title>
<path fill="none" stroke="black" d="M457.79,-2378.98C466.65,-2352.91 483.14,-2303.69 496,-2261.38 513.19,-2204.84 497.64,-2181.46 532,-2133.38 534.1,-2130.43 536.57,-2127.67 539.25,-2125.1"/>
<polygon fill="black" stroke="black" points="541.18,-2128.04 546.61,-2118.94 536.69,-2122.68 541.18,-2128.04"/>
</g>
<!-- opentheory&#45;&gt;hol&#45;eval -->
<g id="edge109" class="edge">
<title>opentheory&#45;&gt;hol&#45;eval</title>
<path fill="none" stroke="black" d="M470.9,-2378.92C537.21,-2315.84 755.02,-2108.65 832.07,-2035.36"/>
<polygon fill="black" stroke="black" points="834.4,-2037.96 839.23,-2028.54 829.58,-2032.89 834.4,-2037.96"/>
</g>
<!-- parquet -->
<g id="node37" class="node">
<title>parquet</title>
<polygon fill="none" stroke="black" points="484,-791.38 417,-791.38 417,-755.38 484,-755.38 484,-791.38"/>
<text text-anchor="middle" x="450.5" y="-769.08" font-family="sans-serif" font-size="14.00">parquet</text>
</g>
<!-- parquet&#45;&gt;arrow -->
<g id="edge110" class="edge">
<title>parquet&#45;&gt;arrow</title>
<path fill="none" stroke="black" d="M484.17,-773.38C501.52,-773.38 522.91,-773.38 540.93,-773.38"/>
<polygon fill="black" stroke="black" points="540.69,-776.88 550.69,-773.38 540.69,-769.88 540.69,-776.88"/>
</g>
<!-- proptest -->
<g id="node39" class="node">
<title>proptest</title>
<polygon fill="none" stroke="black" points="95.88,-1231.38 25.12,-1231.38 25.12,-1195.38 95.88,-1195.38 95.88,-1231.38"/>
<text text-anchor="middle" x="60.5" y="-1209.08" font-family="sans-serif" font-size="14.00">proptest</text>
</g>
<!-- pure&#45;trusted -->
<g id="node43" class="node">
<title>pure&#45;trusted</title>
<polygon fill="#ffd6d6" stroke="black" points="1379.5,-2069.38 1280.25,-2069.38 1280.25,-2033.38 1379.5,-2033.38 1379.5,-2069.38"/>
<text text-anchor="middle" x="1329.88" y="-2047.08" font-family="sans-serif" font-size="14.00">pure&#45;trusted</text>
</g>
<!-- pure&#45;&gt;pure&#45;trusted -->
<g id="edge111" class="edge">
<title>pure&#45;&gt;pure&#45;trusted</title>
<path fill="none" stroke="black" d="M1244.75,-2054.42C1252.04,-2054.16 1260.27,-2053.86 1268.64,-2053.56"/>
<polygon fill="black" stroke="black" points="1268.7,-2057.06 1278.57,-2053.2 1268.45,-2050.06 1268.7,-2057.06"/>
</g>
<!-- pure&#45;eval&#45;&gt;pure -->
<g id="edge112" class="edge">
<title>pure&#45;eval&#45;&gt;pure</title>
<path fill="none" stroke="black" d="M1154.66,-2027.29C1162.9,-2031.05 1171.54,-2034.99 1179.67,-2038.7"/>
<polygon fill="black" stroke="black" points="1178.05,-2041.81 1188.6,-2042.77 1180.96,-2035.44 1178.05,-2041.81"/>
</g>
<!-- pure&#45;eval&#45;&gt;types -->
<g id="edge113" class="edge">
<title>pure&#45;eval&#45;&gt;types</title>
<path fill="none" stroke="black" d="M1154.7,-2014.27C1210.51,-2019.02 1313.25,-2019.4 1379.5,-1969.38 1413.66,-1943.59 1429.54,-1894.58 1436.51,-1862.98"/>
<polygon fill="black" stroke="black" points="1439.92,-1863.78 1438.47,-1853.28 1433.06,-1862.39 1439.92,-1863.78"/>
</g>
<!-- pure&#45;trusted&#45;&gt;types -->
<g id="edge114" class="edge">
<title>pure&#45;trusted&#45;&gt;types</title>
<path fill="none" stroke="black" d="M1361.7,-2032.96C1368.27,-2027.92 1374.67,-2021.99 1379.5,-2015.38 1413.85,-1968.36 1430.18,-1900.9 1437.09,-1862.7"/>
<polygon fill="black" stroke="black" points="1440.46,-1863.78 1438.69,-1853.33 1433.56,-1862.6 1440.46,-1863.78"/>
</g>
<!-- python -->
<g id="node44" class="node">
<title>python</title>
<polygon fill="none" stroke="black" points="91.38,-501.38 29.62,-501.38 29.62,-465.38 91.38,-465.38 91.38,-501.38"/>
<text text-anchor="middle" x="60.5" y="-479.08" font-family="sans-serif" font-size="14.00">python</text>
</g>
<!-- python&#45;&gt;crypto&#45;sig -->
<g id="edge115" class="edge">
<title>python&#45;&gt;crypto&#45;sig</title>
<path fill="none" stroke="black" d="M72.79,-465.22C89.41,-439.28 122.26,-390.82 157,-355.38 159.2,-353.14 161.55,-350.92 163.98,-348.75"/>
<polygon fill="black" stroke="black" points="165.87,-351.74 171.27,-342.63 161.36,-346.38 165.87,-351.74"/>
</g>
<!-- python&#45;&gt;git -->
<g id="edge116" class="edge">
<title>python&#45;&gt;git</title>
<path fill="none" stroke="black" d="M91.74,-486.35C127.48,-489.92 188.74,-496.2 241.25,-502.38 301.03,-509.41 370.31,-518.6 411.98,-524.24"/>
<polygon fill="black" stroke="black" points="411.35,-527.69 421.73,-525.57 412.29,-520.75 411.35,-527.69"/>
</g>
<!-- python&#45;&gt;graph -->
<g id="edge117" class="edge">
<title>python&#45;&gt;graph</title>
<path fill="none" stroke="black" d="M91.83,-479.76C163.79,-472.22 349.79,-458.95 496,-502.38 560.43,-521.52 583.34,-527.06 626.75,-578.38 674.13,-634.4 695.42,-720.66 703.75,-765.7"/>
<polygon fill="black" stroke="black" points="700.3,-766.25 705.47,-775.5 707.19,-765.05 700.3,-766.25"/>
</g>
<!-- python&#45;&gt;hash -->
<g id="edge118" class="edge">
<title>python&#45;&gt;hash</title>
<path fill="none" stroke="black" d="M85.13,-465.06C129.15,-432.84 227.8,-369.38 322.12,-369.38 322.12,-369.38 322.12,-369.38 451.5,-369.38 613.41,-369.38 650.54,-446.52 756,-569.38 807.7,-629.61 838.48,-720 851.71,-766.09"/>
<polygon fill="black" stroke="black" points="848.31,-766.91 854.36,-775.61 855.05,-765.04 848.31,-766.91"/>
</g>
<!-- python&#45;&gt;kv -->
<g id="edge119" class="edge">
<title>python&#45;&gt;kv</title>
<path fill="none" stroke="black" d="M63.14,-464.9C68.5,-413.33 89.23,-265.21 157,-166.38 159,-163.47 161.34,-160.7 163.87,-158.1"/>
<polygon fill="black" stroke="black" points="165.72,-161.15 170.79,-151.85 161.03,-155.96 165.72,-161.15"/>
</g>
<!-- python&#45;&gt;llm -->
<g id="edge120" class="edge">
<title>python&#45;&gt;llm</title>
<path fill="none" stroke="black" d="M91.82,-493.59C112.31,-500.48 139.48,-509.63 161.22,-516.95"/>
<polygon fill="black" stroke="black" points="160,-520.23 170.6,-520.11 162.23,-513.6 160,-520.23"/>
</g>
<!-- python&#45;&gt;object -->
<g id="edge121" class="edge">
<title>python&#45;&gt;object</title>
<path fill="none" stroke="black" d="M65.76,-501.75C81.26,-563.83 141.02,-766.37 277.25,-846.38 403.82,-920.71 589.47,-882.92 669.41,-861.17"/>
<polygon fill="black" stroke="black" points="670.27,-864.56 678.96,-858.5 668.38,-857.82 670.27,-864.56"/>
</g>
<!-- python&#45;&gt;repl -->
<g id="edge122" class="edge">
<title>python&#45;&gt;repl</title>
<path fill="none" stroke="black" d="M83.06,-501.67C101.9,-517.2 130.34,-539.58 157,-556.38 192.57,-578.79 213.35,-567.93 241.25,-599.38 290.83,-655.27 310.89,-744.15 318.27,-789.95"/>
<polygon fill="black" stroke="black" points="314.78,-790.28 319.74,-799.65 321.71,-789.24 314.78,-790.28"/>
</g>
<!-- python&#45;&gt;sat -->
<g id="edge123" class="edge">
<title>python&#45;&gt;sat</title>
<path fill="none" stroke="black" d="M63.3,-501.53C69.01,-551.48 90.49,-693.48 157,-787.38 210.56,-862.99 352.48,-1027.9 662.75,-1158.38 715.17,-1180.42 781.28,-1187.76 821.93,-1190.19"/>
<polygon fill="black" stroke="black" points="821.5,-1193.68 831.67,-1190.7 821.87,-1186.69 821.5,-1193.68"/>
</g>
<!-- python&#45;&gt;serve -->
<g id="edge124" class="edge">
<title>python&#45;&gt;serve</title>
<path fill="none" stroke="black" d="M63.36,-501.87C71.57,-581.03 106.46,-891.14 157,-973.38 158.84,-976.36 161.06,-979.18 163.51,-981.81"/>
<polygon fill="black" stroke="black" points="161.07,-984.32 170.8,-988.52 165.81,-979.17 161.07,-984.32"/>
</g>
<!-- python&#45;&gt;sexp -->
<g id="edge125" class="edge">
<title>python&#45;&gt;sexp</title>
<path fill="none" stroke="black" d="M63,-501.71C70.17,-586.21 102.85,-938.11 157,-1032.38 181.39,-1074.84 209.9,-1065.76 241.25,-1103.38 261.9,-1128.15 253.07,-1145.04 277.25,-1166.38 504.57,-1366.95 655.73,-1236.61 928.75,-1368.38 944.68,-1376.07 960.42,-1387.73 973.08,-1398.42"/>
<polygon fill="black" stroke="black" points="970.74,-1401.03 980.58,-1404.97 975.35,-1395.76 970.74,-1401.03"/>
</g>
<!-- python&#45;&gt;shell -->
<g id="edge126" class="edge">
<title>python&#45;&gt;shell</title>
<path fill="none" stroke="black" d="M62.65,-501.74C67.74,-577.36 90.97,-871.64 157,-1103.38 183.21,-1195.35 213.24,-1209.94 241.25,-1301.38 265.78,-1381.47 216.94,-1428.24 277.25,-1486.38 312.7,-1520.55 372.65,-1522.2 411.65,-1518.85"/>
<polygon fill="black" stroke="black" points="411.93,-1522.34 421.52,-1517.84 411.22,-1515.38 411.93,-1522.34"/>
</g>
<!-- python&#45;&gt;store -->
<g id="edge127" class="edge">
<title>python&#45;&gt;store</title>
<path fill="none" stroke="black" d="M64.71,-465.05C72.58,-426.26 96.77,-336.15 157,-296.38 331.34,-181.27 427.98,-215.06 626.75,-279.38 647.14,-285.98 666.72,-299.78 681.58,-312.38"/>
<polygon fill="black" stroke="black" points="679.25,-314.99 689.06,-318.99 683.89,-309.74 679.25,-314.99"/>
</g>
<!-- python&#45;&gt;wasm -->
<g id="edge128" class="edge">
<title>python&#45;&gt;wasm</title>
<path fill="none" stroke="black" d="M63.2,-465.28C70.36,-392.49 100.44,-122.13 157,-61.38 209.25,-5.25 245.45,-11.38 322.12,-11.38 322.12,-11.38 322.12,-11.38 710.38,-11.38 807.92,-11.38 850.67,25.09 928.75,-33.38 975.89,-68.67 992.21,-140.15 997.79,-180.65"/>
<polygon fill="black" stroke="black" points="994.3,-180.9 998.99,-190.4 1001.25,-180.05 994.3,-180.9"/>
</g>
<!-- wasm&#45;store -->
<g id="node61" class="node">
<title>wasm&#45;store</title>
<polygon fill="none" stroke="black" points="626.75,-107.38 532,-107.38 532,-71.38 626.75,-71.38 626.75,-107.38"/>
<text text-anchor="middle" x="579.38" y="-85.08" font-family="sans-serif" font-size="14.00">wasm&#45;store</text>
</g>
<!-- python&#45;&gt;wasm&#45;store -->
<g id="edge129" class="edge">
<title>python&#45;&gt;wasm&#45;store</title>
<path fill="none" stroke="black" d="M63.32,-465C70.57,-395.99 99.77,-153.89 157,-107.38 261.09,-22.8 431.94,-50.04 520.73,-72.38"/>
<polygon fill="black" stroke="black" points="519.64,-75.71 530.2,-74.83 521.4,-68.94 519.64,-75.71"/>
</g>
<!-- repl&#45;&gt;arrow -->
<g id="edge130" class="edge">
<title>repl&#45;&gt;arrow</title>
<path fill="none" stroke="black" d="M344.73,-801.12C352.37,-794.32 361.1,-786.52 369,-779.38 385.1,-764.82 384.77,-754.25 405,-746.38 449.9,-728.91 505.48,-743.33 541.42,-756.9"/>
<polygon fill="black" stroke="black" points="539.92,-760.07 550.5,-760.49 542.49,-753.56 539.92,-760.07"/>
</g>
<!-- repl&#45;&gt;forsp -->
<g id="edge131" class="edge">
<title>repl&#45;&gt;forsp</title>
<path fill="none" stroke="black" d="M330.69,-837.7C351.21,-894.99 414.28,-1071.05 439.21,-1140.64"/>
<polygon fill="black" stroke="black" points="435.82,-1141.58 442.49,-1149.81 442.41,-1139.21 435.82,-1141.58"/>
</g>
<!-- repl&#45;&gt;git -->
<g id="edge132" class="edge">
<title>repl&#45;&gt;git</title>
<path fill="none" stroke="black" d="M336.03,-800.99C345.73,-785.51 359.35,-762.56 369,-741.38 389.29,-696.87 387.68,-683.12 405,-637.38 415.28,-610.25 427.96,-579.71 437.16,-558.05"/>
<polygon fill="black" stroke="black" points="440.32,-559.56 441.02,-548.99 433.88,-556.81 440.32,-559.56"/>
</g>
<!-- repl&#45;&gt;graph -->
<g id="edge133" class="edge">
<title>repl&#45;&gt;graph</title>
<path fill="none" stroke="black" d="M350.54,-817.73C417.39,-813.55 593.47,-802.55 670.91,-797.72"/>
<polygon fill="black" stroke="black" points="670.76,-801.23 680.52,-797.12 670.32,-794.25 670.76,-801.23"/>
</g>
<!-- repl&#45;&gt;hash -->
<g id="edge134" class="edge">
<title>repl&#45;&gt;hash</title>
<path fill="none" stroke="black" d="M346.26,-800.96C353.74,-794.4 361.96,-786.8 369,-779.38 386.62,-760.79 381.92,-745.47 405,-734.38 547.63,-665.83 742.79,-740.55 822.85,-777.35"/>
<polygon fill="black" stroke="black" points="821.01,-780.35 831.55,-781.42 823.97,-774.01 821.01,-780.35"/>
</g>
<!-- repl&#45;&gt;init -->
<g id="edge135" class="edge">
<title>repl&#45;&gt;init</title>
<path fill="none" stroke="black" d="M328.61,-837.69C336.94,-871.92 355.21,-947.96 369,-1012.38 386.44,-1093.86 379.42,-1117.07 405,-1196.38 434.73,-1288.55 463.43,-1303.17 496,-1394.38 517.32,-1454.07 489.01,-1485.8 532,-1532.38 562.25,-1565.14 589.14,-1541.42 626.75,-1565.38 646.1,-1577.7 644.72,-1588.19 662.75,-1602.38 665.81,-1604.78 669.1,-1607.13 672.47,-1609.38"/>
<polygon fill="black" stroke="black" points="670.41,-1612.21 680.73,-1614.58 674.13,-1606.29 670.41,-1612.21"/>
</g>
<!-- repl&#45;&gt;object -->
<g id="edge136" class="edge">
<title>repl&#45;&gt;object</title>
<path fill="none" stroke="black" d="M350.54,-821.44C416.9,-826.62 590.92,-840.21 669.22,-846.32"/>
<polygon fill="black" stroke="black" points="668.74,-849.79 678.98,-847.08 669.28,-842.82 668.74,-849.79"/>
</g>
<!-- repl&#45;&gt;parquet -->
<g id="edge137" class="edge">
<title>repl&#45;&gt;parquet</title>
<path fill="none" stroke="black" d="M350.41,-809.73C366.49,-803.83 387.48,-796.13 405.99,-789.34"/>
<polygon fill="black" stroke="black" points="406.94,-792.72 415.13,-785.99 404.53,-786.15 406.94,-792.72"/>
</g>
<!-- repl&#45;&gt;shell -->
<g id="edge138" class="edge">
<title>repl&#45;&gt;shell</title>
<path fill="none" stroke="black" d="M329.37,-837.83C338.86,-871.98 358.83,-947.46 369,-1012.38 399.1,-1204.47 339.91,-1265.16 405,-1448.38 409.74,-1461.73 417.94,-1474.93 426.02,-1485.9"/>
<polygon fill="black" stroke="black" points="423.18,-1487.96 432.07,-1493.73 428.72,-1483.68 423.18,-1487.96"/>
</g>
<!-- repl&#45;&gt;wasm -->
<g id="edge139" class="edge">
<title>repl&#45;&gt;wasm</title>
<path fill="none" stroke="black" d="M328.55,-800.94C344.36,-735.26 397.49,-515.87 405,-502.38 444.6,-431.25 465.47,-417.3 532,-370.38 682.86,-263.97 755.7,-311.68 928.75,-247.38 940.51,-243.01 952.83,-237.17 963.88,-231.44"/>
<polygon fill="black" stroke="black" points="965.51,-234.53 972.68,-226.73 962.21,-228.36 965.51,-234.53"/>
</g>
<!-- sat&#45;&gt;parse -->
<g id="edge140" class="edge">
<title>sat&#45;&gt;parse</title>
<path fill="none" stroke="black" d="M887.87,-1191.38C932.89,-1191.38 1024.43,-1191.38 1075.97,-1191.38"/>
<polygon fill="black" stroke="black" points="1075.72,-1194.88 1085.72,-1191.38 1075.72,-1187.88 1075.72,-1194.88"/>
</g>
<!-- sat&#45;&gt;types -->
<g id="edge141" class="edge">
<title>sat&#45;&gt;types</title>
<path fill="none" stroke="black" d="M887.75,-1200.74C900.38,-1205.53 915.59,-1211.74 928.75,-1218.38 1014.85,-1261.81 1016.94,-1332.38 1113.38,-1332.38 1113.38,-1332.38 1113.38,-1332.38 1218.25,-1332.38 1425.93,-1332.38 1441.78,-1696 1441.93,-1803.68"/>
<polygon fill="black" stroke="black" points="1438.43,-1803.43 1441.89,-1813.44 1445.43,-1803.45 1438.43,-1803.43"/>
</g>
<!-- sat&#45;&gt;wasm -->
<g id="edge142" class="edge">
<title>sat&#45;&gt;wasm</title>
<path fill="none" stroke="black" d="M887.57,-1187.72C902.11,-1184.24 919.14,-1177.49 928.75,-1164.38 942.79,-1145.22 989.14,-398.33 998.84,-239.77"/>
<polygon fill="black" stroke="black" points="1002.31,-240.31 999.43,-230.11 995.32,-239.88 1002.31,-240.31"/>
</g>
<!-- serve&#45;&gt;core -->
<g id="edge143" class="edge">
<title>serve&#45;&gt;core</title>
<path fill="none" stroke="black" d="M199.96,-1023.68C199,-1174.5 199.98,-2211.89 405,-2424.38 566.66,-2591.93 756.86,-2592.42 928.75,-2435.38 964.91,-2402.35 988.31,-2254.87 996.92,-2191.01"/>
<polygon fill="black" stroke="black" points="1000.36,-2191.63 998.2,-2181.26 993.42,-2190.72 1000.36,-2191.63"/>
</g>
<!-- serve&#45;&gt;forsp -->
<g id="edge144" class="edge">
<title>serve&#45;&gt;forsp</title>
<path fill="none" stroke="black" d="M210.97,-1023.79C219.28,-1037.89 231.01,-1057.85 241.25,-1075.38 257.32,-1102.89 251.21,-1119.01 277.25,-1137.38 317.06,-1165.45 374.48,-1170.92 411.89,-1171.09"/>
<polygon fill="black" stroke="black" points="411.81,-1174.59 421.78,-1170.99 411.74,-1167.59 411.81,-1174.59"/>
</g>
<!-- serve&#45;&gt;git -->
<g id="edge145" class="edge">
<title>serve&#45;&gt;git</title>
<path fill="none" stroke="black" d="M200.96,-987.16C203.91,-942.08 217.28,-823.78 277.25,-751.38 306.61,-715.94 338.97,-738.25 369,-703.38 400.92,-666.32 383.74,-643.43 405,-599.38 412.01,-584.85 421.41,-569.63 429.77,-557.1"/>
<polygon fill="black" stroke="black" points="432.58,-559.19 435.32,-548.95 426.8,-555.24 432.58,-559.19"/>
</g>
<!-- serve&#45;&gt;hash -->
<g id="edge146" class="edge">
<title>serve&#45;&gt;hash</title>
<path fill="none" stroke="black" d="M204.98,-987.04C217.38,-941.19 251.11,-823.07 277.25,-792.38 307.5,-756.86 331.76,-769.48 369,-741.38 387.06,-727.75 384.16,-714.2 405,-705.38 548.75,-644.5 610.91,-660.78 756,-718.38 785.04,-729.91 813.15,-751.76 832.71,-769.25"/>
<polygon fill="black" stroke="black" points="830.22,-771.72 839.95,-775.9 834.96,-766.56 830.22,-771.72"/>
</g>
<!-- serve&#45;&gt;init -->
<g id="edge147" class="edge">
<title>serve&#45;&gt;init</title>
<path fill="none" stroke="black" d="M210.19,-1023.86C219.8,-1042.39 233.88,-1072.03 241.25,-1099.38 259.57,-1167.41 232.77,-1359.74 277.25,-1414.38 309.56,-1454.06 460.03,-1449.97 496,-1486.38 533.34,-1524.17 491.84,-1565.59 532,-1600.38 570.26,-1633.53 631.37,-1636.2 670.68,-1633.78"/>
<polygon fill="black" stroke="black" points="670.92,-1637.28 680.62,-1633.02 670.38,-1630.3 670.92,-1637.28"/>
</g>
<!-- serve&#45;&gt;lisp -->
<g id="edge148" class="edge">
<title>serve&#45;&gt;lisp</title>
<path fill="none" stroke="black" d="M204.58,-1023.72C212.42,-1056.21 229,-1126.04 241.25,-1185.38 259.07,-1271.69 216.54,-1316.49 277.25,-1380.38 311.79,-1416.73 372.25,-1423.4 411.57,-1423.46"/>
<polygon fill="black" stroke="black" points="411.59,-1426.96 421.53,-1423.31 411.48,-1419.96 411.59,-1426.96"/>
</g>
<!-- serve&#45;&gt;metamath -->
<g id="edge149" class="edge">
<title>serve&#45;&gt;metamath</title>
<path fill="none" stroke="black" d="M219.33,-1023.86C234.14,-1037.26 255.68,-1054.95 277.25,-1066.38 421.16,-1142.59 473.77,-1120.56 626.75,-1176.38 643.03,-1182.32 646.36,-1185.74 662.75,-1191.38 711.6,-1208.19 768.65,-1223.38 808.68,-1233.34"/>
<polygon fill="black" stroke="black" points="807.74,-1236.71 818.29,-1235.7 809.41,-1229.91 807.74,-1236.71"/>
</g>
<!-- serve&#45;&gt;object -->
<g id="edge150" class="edge">
<title>serve&#45;&gt;object</title>
<path fill="none" stroke="black" d="M226.41,-1003.46C295.26,-997.63 485.33,-976.16 626.75,-909.38 645.08,-900.72 646.45,-893.42 662.75,-881.38 665.88,-879.07 669.15,-876.69 672.44,-874.33"/>
<polygon fill="black" stroke="black" points="674.32,-877.29 680.44,-868.65 670.26,-871.58 674.32,-877.29"/>
</g>
<!-- serve&#45;&gt;proto -->
<g id="edge151" class="edge">
<title>serve&#45;&gt;proto</title>
<path fill="none" stroke="black" d="M202.17,-987.18C208.37,-936.21 229.5,-788.37 277.25,-675.38 283.5,-660.58 292.8,-645.43 301.31,-633.02"/>
<polygon fill="black" stroke="black" points="304.1,-635.13 307.02,-624.95 298.38,-631.09 304.1,-635.13"/>
</g>
<!-- serve&#45;&gt;repl -->
<g id="edge152" class="edge">
<title>serve&#45;&gt;repl</title>
<path fill="none" stroke="black" d="M212.05,-987.2C233.46,-954.56 278.55,-885.82 303.87,-847.21"/>
<polygon fill="black" stroke="black" points="306.77,-849.17 309.33,-838.89 300.92,-845.33 306.77,-849.17"/>
</g>
<!-- serve&#45;&gt;shell -->
<g id="edge153" class="edge">
<title>serve&#45;&gt;shell</title>
<path fill="none" stroke="black" d="M204.88,-1023.66C213.17,-1056.06 230.43,-1125.77 241.25,-1185.38 251.9,-1244.07 239.75,-1404.99 277.25,-1451.38 294.48,-1472.69 366.69,-1493.43 411.97,-1504.69"/>
<polygon fill="black" stroke="black" points="411.11,-1508.09 421.66,-1507.05 412.77,-1501.29 411.11,-1508.09"/>
</g>
<!-- serve&#45;&gt;store -->
<g id="edge154" class="edge">
<title>serve&#45;&gt;store</title>
<path fill="none" stroke="black" d="M200.74,-987.07C203.22,-937.35 215.61,-797.23 277.25,-703.38 305.56,-660.28 340.26,-675.19 369,-632.38 402.41,-582.6 375.31,-554.46 405,-502.38 445.32,-431.65 460.25,-408.84 532,-370.38 575.68,-346.96 633.28,-340.29 670.57,-338.6"/>
<polygon fill="black" stroke="black" points="670.53,-342.1 680.4,-338.26 670.29,-335.11 670.53,-342.1"/>
</g>
<!-- sexp&#45;&gt;parse -->
<g id="edge155" class="edge">
<title>sexp&#45;&gt;parse</title>
<path fill="none" stroke="black" d="M1011.32,-1406.09C1030.56,-1365.6 1076.9,-1268.12 1099.92,-1219.68"/>
<polygon fill="black" stroke="black" points="1102.94,-1221.48 1104.08,-1210.94 1096.62,-1218.47 1102.94,-1221.48"/>
</g>
<!-- sexp&#45;&gt;types -->
<g id="edge156" class="edge">
<title>sexp&#45;&gt;types</title>
<path fill="none" stroke="black" d="M1028.77,-1427.02C1097.46,-1435.39 1284.28,-1467.76 1379.5,-1578.38 1408.7,-1612.3 1429.6,-1744.34 1437.74,-1803.92"/>
<polygon fill="black" stroke="black" points="1434.24,-1804.2 1439.04,-1813.65 1441.18,-1803.27 1434.24,-1804.2"/>
</g>
<!-- shell&#45;&gt;hol -->
<g id="edge157" class="edge">
<title>shell&#45;&gt;hol</title>
<path fill="none" stroke="black" d="M455.2,-1531.86C463.5,-1573.78 483.79,-1679.33 496,-1768.38 517.84,-1927.69 472.5,-1979 532,-2128.38 567.14,-2216.6 585.86,-2241.65 662.75,-2297.38 711.56,-2332.75 779.96,-2351.71 821.89,-2360.65"/>
<polygon fill="black" stroke="black" points="820.99,-2364.04 831.49,-2362.61 822.39,-2357.18 820.99,-2364.04"/>
</g>
<!-- shell&#45;&gt;kernel -->
<g id="edge158" class="edge">
<title>shell&#45;&gt;kernel</title>
<path fill="none" stroke="black" d="M468.35,-1495.05C490.24,-1471.24 528.65,-1429.47 553.8,-1402.11"/>
<polygon fill="black" stroke="black" points="556.24,-1404.62 560.43,-1394.89 551.09,-1399.89 556.24,-1404.62"/>
</g>
<!-- smt&#45;&gt;sat -->
<g id="edge159" class="edge">
<title>smt&#45;&gt;sat</title>
<path fill="none" stroke="black" d="M714.8,-1556.94C723.05,-1522.49 741.27,-1445.98 756,-1381.38 772.49,-1309.04 744.01,-1274.95 792,-1218.38 799.76,-1209.22 811.08,-1203.15 822.23,-1199.12"/>
<polygon fill="black" stroke="black" points="823.21,-1202.48 831.73,-1196.19 821.15,-1195.79 823.21,-1202.48"/>
</g>
<!-- smt&#45;&gt;sexp -->
<g id="edge160" class="edge">
<title>smt&#45;&gt;sexp</title>
<path fill="none" stroke="black" d="M718.85,-1557.22C731.27,-1532.72 756.83,-1489.6 792,-1467.38 844.84,-1434 918.84,-1425.95 963.03,-1424.34"/>
<polygon fill="black" stroke="black" points="962.97,-1427.84 972.88,-1424.08 962.79,-1420.84 962.97,-1427.84"/>
</g>
<!-- smt&#45;&gt;types -->
<g id="edge161" class="edge">
<title>smt&#45;&gt;types</title>
<path fill="none" stroke="black" d="M736.42,-1587.32C743.38,-1591.39 750.5,-1596.44 756,-1602.38 780.59,-1628.91 762.27,-1654.77 792,-1675.38 909.98,-1757.13 969.84,-1707.38 1113.38,-1707.38 1113.38,-1707.38 1113.38,-1707.38 1218.25,-1707.38 1298.73,-1707.38 1376.9,-1770.24 1415.87,-1807.16"/>
<polygon fill="black" stroke="black" points="1413.32,-1809.56 1422.94,-1814 1418.19,-1804.53 1413.32,-1809.56"/>
</g>
<!-- spectec&#45;&gt;grammar -->
<g id="edge162" class="edge">
<title>spectec&#45;&gt;grammar</title>
<path fill="none" stroke="black" d="M895.42,-1774.98C906.7,-1769.93 918.89,-1763.36 928.75,-1755.38 951.56,-1736.91 971.29,-1709.78 984.28,-1689.41"/>
<polygon fill="black" stroke="black" points="987.19,-1691.36 989.47,-1681.02 981.23,-1687.68 987.19,-1691.36"/>
</g>
<!-- store&#45;&gt;hash -->
<g id="edge163" class="edge">
<title>store&#45;&gt;hash</title>
<path fill="none" stroke="black" d="M736.85,-351.06C743.99,-355.62 751.09,-361.4 756,-368.38 845.83,-496 858.1,-692.39 859.41,-766.09"/>
<polygon fill="black" stroke="black" points="855.91,-765.76 859.52,-775.71 862.91,-765.68 855.91,-765.76"/>
</g>
<!-- store&#45;&gt;json -->
<g id="edge164" class="edge">
<title>store&#45;&gt;json</title>
<path fill="none" stroke="black" d="M721.49,-320.12C731.53,-303.07 746.18,-276.67 756,-252.38 777.66,-198.78 754.58,-171.45 792,-127.38 800,-117.95 811.41,-111.11 822.57,-106.23"/>
<polygon fill="black" stroke="black" points="823.61,-109.57 831.66,-102.68 821.07,-103.05 823.61,-109.57"/>
</g>
<!-- store&#45;&gt;sqlite -->
<g id="edge165" class="edge">
<title>store&#45;&gt;sqlite</title>
<path fill="none" stroke="black" d="M736.67,-338.38C760.32,-338.38 795.33,-338.38 821.91,-338.38"/>
<polygon fill="black" stroke="black" points="821.58,-341.88 831.58,-338.38 821.58,-334.88 821.58,-341.88"/>
</g>
<!-- tcb&#45;db -->
<g id="node56" class="node">
<title>tcb&#45;db</title>
<polygon fill="none" stroke="black" points="739.5,-243.38 679.25,-243.38 679.25,-207.38 739.5,-207.38 739.5,-243.38"/>
<text text-anchor="middle" x="709.38" y="-221.08" font-family="sans-serif" font-size="14.00">tcb&#45;db</text>
</g>
<!-- tcb&#45;db&#45;&gt;json -->
<g id="edge166" class="edge">
<title>tcb&#45;db&#45;&gt;json</title>
<path fill="none" stroke="black" d="M722.01,-207.06C736.33,-185.68 762.43,-150.32 792,-127.38 801.11,-120.31 812.04,-114.28 822.41,-109.43"/>
<polygon fill="black" stroke="black" points="823.8,-112.65 831.54,-105.42 820.98,-106.24 823.8,-112.65"/>
</g>
<!-- tcb&#45;db&#45;&gt;sqlite -->
<g id="edge167" class="edge">
<title>tcb&#45;db&#45;&gt;sqlite</title>
<path fill="none" stroke="black" d="M734.65,-243.78C759.54,-262.66 798.44,-292.16 826.17,-313.2"/>
<polygon fill="black" stroke="black" points="823.83,-315.81 833.91,-319.06 828.06,-310.23 823.83,-315.81"/>
</g>
<!-- wasm&#45;build&#45;guest -->
<g id="node59" class="node">
<title>wasm&#45;build&#45;guest</title>
<polygon fill="none" stroke="black" points="928.75,-205.38 792,-205.38 792,-169.38 928.75,-169.38 928.75,-205.38"/>
<text text-anchor="middle" x="860.38" y="-183.08" font-family="sans-serif" font-size="14.00">wasm&#45;build&#45;guest</text>
</g>
<!-- wasm&#45;build&#45;guest&#45;&gt;wasm -->
<g id="edge168" class="edge">
<title>wasm&#45;build&#45;guest&#45;&gt;wasm</title>
<path fill="none" stroke="black" d="M928.96,-198.54C940.64,-200.47 952.4,-202.41 962.92,-204.15"/>
<polygon fill="black" stroke="black" points="962.26,-207.59 972.7,-205.77 963.4,-200.68 962.26,-207.59"/>
</g>
<!-- wasm&#45;spec -->
<g id="node60" class="node">
<title>wasm&#45;spec</title>
<polygon fill="none" stroke="black" points="756,-413.38 662.75,-413.38 662.75,-377.38 756,-377.38 756,-413.38"/>
<text text-anchor="middle" x="709.38" y="-391.08" font-family="sans-serif" font-size="14.00">wasm&#45;spec</text>
</g>
<!-- wasm&#45;spec&#45;&gt;hash -->
<g id="edge169" class="edge">
<title>wasm&#45;spec&#45;&gt;hash</title>
<path fill="none" stroke="black" d="M723.98,-413.86C733.89,-427.97 747.08,-448.19 756,-467.38 804.97,-572.74 839.22,-707.44 852.84,-766"/>
<polygon fill="black" stroke="black" points="849.37,-766.55 855.02,-775.51 856.19,-764.98 849.37,-766.55"/>
</g>
<!-- wasm&#45;spec&#45;&gt;wasm -->
<g id="edge170" class="edge">
<title>wasm&#45;spec&#45;&gt;wasm</title>
<path fill="none" stroke="black" d="M745.07,-377.18C749.26,-373.74 753.08,-369.81 756,-365.38 806.81,-288.08 721.16,-219.86 792,-160.38 838.54,-121.29 870.76,-142.19 928.75,-160.38 944.58,-165.34 959.98,-175.17 972.44,-184.8"/>
<polygon fill="black" stroke="black" points="970.21,-187.5 980.18,-191.09 974.63,-182.07 970.21,-187.5"/>
</g>
<!-- wasm&#45;store&#45;&gt;json -->
<g id="edge171" class="edge">
<title>wasm&#45;store&#45;&gt;json</title>
<path fill="none" stroke="black" d="M627.07,-90.38C681.79,-91.56 771.37,-93.49 821.8,-94.57"/>
<polygon fill="black" stroke="black" points="821.56,-98.07 831.63,-94.78 821.71,-91.07 821.56,-98.07"/>
</g>
<!-- wasm&#45;store&#45;&gt;store -->
<g id="edge172" class="edge">
<title>wasm&#45;store&#45;&gt;store</title>
<path fill="none" stroke="black" d="M589.4,-107.53C604.43,-137.69 635.63,-200.01 662.75,-252.38 672.79,-271.77 684.32,-293.49 693.27,-310.25"/>
<polygon fill="black" stroke="black" points="689.96,-311.48 697.76,-318.65 696.13,-308.18 689.96,-311.48"/>
</g>
<!-- wasm&#45;store&#45;&gt;wasm -->
<g id="edge173" class="edge">
<title>wasm&#45;store&#45;&gt;wasm</title>
<path fill="none" stroke="black" d="M626.45,-70.96C697.23,-45.9 834.41,-10.39 928.75,-68.38 968.55,-92.84 987.13,-146.92 995.16,-180.84"/>
<polygon fill="black" stroke="black" points="991.7,-181.41 997.25,-190.43 998.54,-179.91 991.7,-181.41"/>
</g>
<!-- web&#45;kernel -->
<g id="node62" class="node">
<title>web&#45;kernel</title>
<polygon fill="none" stroke="black" points="369,-1371.38 277.25,-1371.38 277.25,-1335.38 369,-1335.38 369,-1371.38"/>
<text text-anchor="middle" x="323.12" y="-1349.08" font-family="sans-serif" font-size="14.00">web&#45;kernel</text>
</g>
<!-- web&#45;kernel&#45;&gt;forsp -->
<g id="edge174" class="edge">
<title>web&#45;kernel&#45;&gt;forsp</title>
<path fill="none" stroke="black" d="M336.6,-1335.06C358.67,-1302.69 404.67,-1235.18 430.62,-1197.08"/>
<polygon fill="black" stroke="black" points="433.48,-1199.1 436.22,-1188.87 427.7,-1195.16 433.48,-1199.1"/>
</g>
<!-- web&#45;kernel&#45;&gt;haskell -->
<g id="edge175" class="edge">
<title>web&#45;kernel&#45;&gt;haskell</title>
<path fill="none" stroke="black" d="M329.35,-1371.81C348.85,-1440.55 417.44,-1682.37 441.27,-1766.37"/>
<polygon fill="black" stroke="black" points="437.88,-1767.24 443.98,-1775.9 444.61,-1765.33 437.88,-1767.24"/>
</g>
<!-- web&#45;kernel&#45;&gt;hol&#45;api -->
<g id="edge176" class="edge">
<title>web&#45;kernel&#45;&gt;hol&#45;api</title>
<path fill="none" stroke="black" d="M325.28,-1371.75C329.73,-1435.6 348.38,-1653.13 405,-1822.38 444.16,-1939.44 450.53,-1976.65 532,-2069.38 534.12,-2071.79 536.46,-2074.11 538.92,-2076.32"/>
<polygon fill="black" stroke="black" points="536.51,-2078.87 546.49,-2082.44 540.92,-2073.43 536.51,-2078.87"/>
</g>
<!-- web&#45;kernel&#45;&gt;kernel -->
<g id="edge177" class="edge">
<title>web&#45;kernel&#45;&gt;kernel</title>
<path fill="none" stroke="black" d="M369.29,-1357.29C417.59,-1361.47 493.43,-1368.03 539.27,-1371.99"/>
<polygon fill="black" stroke="black" points="538.75,-1375.46 549.01,-1372.84 539.35,-1368.49 538.75,-1375.46"/>
</g>
<!-- web&#45;kernel&#45;&gt;lisp -->
<g id="edge178" class="edge">
<title>web&#45;kernel&#45;&gt;lisp</title>
<path fill="none" stroke="black" d="M358.05,-1371.78C375.15,-1381.05 395.89,-1392.3 413.29,-1401.74"/>
<polygon fill="black" stroke="black" points="411.31,-1404.65 421.77,-1406.34 414.65,-1398.49 411.31,-1404.65"/>
</g>
</g>
</svg>
