<?xml version="1.0" encoding="UTF-8" standalone="no"?>
<!DOCTYPE svg PUBLIC "-//W3C//DTD SVG 1.1//EN"
 "http://www.w3.org/Graphics/SVG/1.1/DTD/svg11.dtd">
<!-- Generated by graphviz version 12.2.1 (0)
 -->
<!-- Title: deps Pages: 1 -->
<svg width="1531pt" height="2800pt"
 viewBox="0.00 0.00 1531.00 2799.74" xmlns="http://www.w3.org/2000/svg" xmlns:xlink="http://www.w3.org/1999/xlink">
<g id="graph0" class="graph" transform="scale(1 1) rotate(0) translate(4 2795.74)">
<title>deps</title>
<polygon fill="white" stroke="none" points="-4,4 -4,-2795.74 1527,-2795.74 1527,4 -4,4"/>
<!-- covalence -->
<g id="node1" class="node">
<title>covalence</title>
<polygon fill="none" stroke="black" points="102.62,-1766.86 18.38,-1766.86 18.38,-1730.86 102.62,-1730.86 102.62,-1766.86"/>
<text text-anchor="middle" x="60.5" y="-1744.56" font-family="sans-serif" font-size="14.00">covalence</text>
</g>
<!-- client -->
<g id="node6" class="node">
<title>client</title>
<polygon fill="none" stroke="black" points="350.12,-1901.86 296.12,-1901.86 296.12,-1865.86 350.12,-1865.86 350.12,-1901.86"/>
<text text-anchor="middle" x="323.12" y="-1879.56" font-family="sans-serif" font-size="14.00">client</text>
</g>
<!-- covalence&#45;&gt;client -->
<g id="edge1" class="edge">
<title>covalence&#45;&gt;client</title>
<path fill="none" stroke="black" d="M103.1,-1761.05C140.62,-1772.96 196.6,-1793.04 241.25,-1818.86 260.28,-1829.86 279.55,-1845.15 294.5,-1858.13"/>
<polygon fill="black" stroke="black" points="291.83,-1860.44 301.64,-1864.46 296.48,-1855.2 291.83,-1860.44"/>
</g>
<!-- fuse -->
<g id="node14" class="node">
<title>fuse</title>
<polygon fill="none" stroke="black" points="612.75,-2166.86 558.75,-2166.86 558.75,-2130.86 612.75,-2130.86 612.75,-2166.86"/>
<text text-anchor="middle" x="585.75" y="-2144.56" font-family="sans-serif" font-size="14.00">fuse</text>
</g>
<!-- covalence&#45;&gt;fuse -->
<g id="edge2" class="edge">
<title>covalence&#45;&gt;fuse</title>
<path fill="none" stroke="black" d="M74.9,-1767.25C106.51,-1811.14 187.16,-1926.13 241.25,-2029.86 260.6,-2066.96 243.71,-2091.83 277.25,-2116.86 357.67,-2176.87 484.62,-2166.3 547.26,-2156.23"/>
<polygon fill="black" stroke="black" points="547.77,-2159.69 557.04,-2154.56 546.6,-2152.79 547.77,-2159.69"/>
</g>
<!-- git -->
<g id="node15" class="node">
<title>git</title>
<polygon fill="none" stroke="black" points="477.5,-2342.86 423.5,-2342.86 423.5,-2306.86 477.5,-2306.86 477.5,-2342.86"/>
<text text-anchor="middle" x="450.5" y="-2320.56" font-family="sans-serif" font-size="14.00">git</text>
</g>
<!-- covalence&#45;&gt;git -->
<g id="edge3" class="edge">
<title>covalence&#45;&gt;git</title>
<path fill="none" stroke="black" d="M62.52,-1767.25C67.41,-1848.87 90.97,-2177.5 157,-2251.86 222.14,-2325.2 348.67,-2330.28 411.8,-2327.74"/>
<polygon fill="black" stroke="black" points="411.85,-2331.24 421.67,-2327.24 411.5,-2324.25 411.85,-2331.24"/>
</g>
<!-- hash -->
<g id="node18" class="node">
<title>hash</title>
<polygon fill="none" stroke="black" points="900.12,-2044.86 846.12,-2044.86 846.12,-2008.86 900.12,-2008.86 900.12,-2044.86"/>
<text text-anchor="middle" x="873.12" y="-2022.56" font-family="sans-serif" font-size="14.00">hash</text>
</g>
<!-- covalence&#45;&gt;hash -->
<g id="edge4" class="edge">
<title>covalence&#45;&gt;hash</title>
<path fill="none" stroke="black" d="M100.42,-1730.46C177.14,-1696.7 352.86,-1631.86 496,-1671.86 567.83,-1691.93 586.28,-1706.6 639.5,-1758.86 660.88,-1779.85 652.26,-1796.94 675.5,-1815.86 709.83,-1843.81 734.88,-1822.36 768.75,-1850.86 793.8,-1871.93 836.54,-1954.27 858.39,-1998.45"/>
<polygon fill="black" stroke="black" points="855.13,-1999.76 862.68,-2007.19 861.41,-1996.67 855.13,-1999.76"/>
</g>
<!-- hol -->
<g id="node20" class="node">
<title>hol</title>
<polygon fill="none" stroke="black" points="900.12,-610.86 846.12,-610.86 846.12,-574.86 900.12,-574.86 900.12,-610.86"/>
<text text-anchor="middle" x="873.12" y="-588.56" font-family="sans-serif" font-size="14.00">hol</text>
</g>
<!-- covalence&#45;&gt;hol -->
<g id="edge5" class="edge">
<title>covalence&#45;&gt;hol</title>
<path fill="none" stroke="black" d="M61.29,-1730.37C60.05,-1576.11 60.9,-508.86 322.12,-508.86 322.12,-508.86 322.12,-508.86 586.75,-508.86 679.28,-508.86 782.06,-550 835.43,-574.7"/>
<polygon fill="black" stroke="black" points="833.83,-577.81 844.37,-578.9 836.81,-571.48 833.83,-577.81"/>
</g>
<!-- init -->
<g id="node24" class="node">
<title>init</title>
<polygon fill="none" stroke="black" points="749.12,-1038.86 695.12,-1038.86 695.12,-1002.86 749.12,-1002.86 749.12,-1038.86"/>
<text text-anchor="middle" x="722.12" y="-1016.56" font-family="sans-serif" font-size="14.00">init</text>
</g>
<!-- covalence&#45;&gt;init -->
<g id="edge6" class="edge">
<title>covalence&#45;&gt;init</title>
<path fill="none" stroke="black" d="M64.68,-1730.68C83.43,-1626.2 183.64,-1106.86 322.12,-1106.86 322.12,-1106.86 322.12,-1106.86 451.5,-1106.86 538.08,-1106.86 557.74,-1084.32 639.5,-1055.86 654.47,-1050.65 670.58,-1043.98 684.5,-1037.86"/>
<polygon fill="black" stroke="black" points="685.57,-1041.21 693.28,-1033.94 682.72,-1034.82 685.57,-1041.21"/>
</g>
<!-- lsp -->
<g id="node36" class="node">
<title>lsp</title>
<polygon fill="none" stroke="black" points="900.12,-1710.86 846.12,-1710.86 846.12,-1674.86 900.12,-1674.86 900.12,-1710.86"/>
<text text-anchor="middle" x="873.12" y="-1688.56" font-family="sans-serif" font-size="14.00">lsp</text>
</g>
<!-- covalence&#45;&gt;lsp -->
<g id="edge7" class="edge">
<title>covalence&#45;&gt;lsp</title>
<path fill="none" stroke="black" d="M64.83,-1730.58C77.75,-1666.14 131.28,-1450.4 277.25,-1394.86 344.85,-1369.14 524.82,-1336.39 639.5,-1401.86 669.55,-1419.01 778.2,-1643.66 804.75,-1665.86 813.5,-1673.18 824.49,-1678.7 835.04,-1682.77"/>
<polygon fill="black" stroke="black" points="833.74,-1686.03 844.34,-1686.02 836.05,-1679.42 833.74,-1686.03"/>
</g>
<!-- object -->
<g id="node40" class="node">
<title>object</title>
<polygon fill="none" stroke="black" points="750.75,-1938.86 693.5,-1938.86 693.5,-1902.86 750.75,-1902.86 750.75,-1938.86"/>
<text text-anchor="middle" x="722.12" y="-1916.56" font-family="sans-serif" font-size="14.00">object</text>
</g>
<!-- covalence&#45;&gt;object -->
<g id="edge8" class="edge">
<title>covalence&#45;&gt;object</title>
<path fill="none" stroke="black" d="M64.05,-1730.6C70.81,-1690.05 93.22,-1592.78 157,-1550.86 282.95,-1468.07 373.73,-1453.73 496,-1541.86 537.05,-1571.44 509.29,-1604.65 532,-1649.86 557.55,-1700.73 657.14,-1835.58 700.62,-1893.64"/>
<polygon fill="black" stroke="black" points="697.63,-1895.49 706.43,-1901.39 703.23,-1891.29 697.63,-1895.49"/>
</g>
<!-- opentheory -->
<g id="node41" class="node">
<title>opentheory</title>
<polygon fill="none" stroke="black" points="496,-602.86 405,-602.86 405,-566.86 496,-566.86 496,-602.86"/>
<text text-anchor="middle" x="450.5" y="-580.56" font-family="sans-serif" font-size="14.00">opentheory</text>
</g>
<!-- covalence&#45;&gt;opentheory -->
<g id="edge9" class="edge">
<title>covalence&#45;&gt;opentheory</title>
<path fill="none" stroke="black" d="M63.03,-1730.38C69.75,-1652.27 98.9,-1341.66 157,-1092.86 196.32,-924.48 178.93,-865.1 277.25,-722.86 311.29,-673.6 367.95,-633.06 406.94,-608.95"/>
<polygon fill="black" stroke="black" points="408.42,-612.14 415.15,-603.96 404.78,-606.16 408.42,-612.14"/>
</g>
<!-- proto -->
<g id="node46" class="node">
<title>proto</title>
<polygon fill="none" stroke="black" points="350.12,-2280.86 296.12,-2280.86 296.12,-2244.86 350.12,-2244.86 350.12,-2280.86"/>
<text text-anchor="middle" x="323.12" y="-2258.56" font-family="sans-serif" font-size="14.00">proto</text>
</g>
<!-- covalence&#45;&gt;proto -->
<g id="edge10" class="edge">
<title>covalence&#45;&gt;proto</title>
<path fill="none" stroke="black" d="M65.98,-1767.34C83.21,-1835.42 150.63,-2076.22 277.25,-2230.86 280.1,-2234.34 283.42,-2237.62 286.94,-2240.66"/>
<polygon fill="black" stroke="black" points="284.71,-2243.36 294.74,-2246.76 289.02,-2237.84 284.71,-2243.36"/>
</g>
<!-- repl -->
<g id="node52" class="node">
<title>repl</title>
<polygon fill="none" stroke="black" points="350.12,-1998.86 296.12,-1998.86 296.12,-1962.86 350.12,-1962.86 350.12,-1998.86"/>
<text text-anchor="middle" x="323.12" y="-1976.56" font-family="sans-serif" font-size="14.00">repl</text>
</g>
<!-- covalence&#45;&gt;repl -->
<g id="edge11" class="edge">
<title>covalence&#45;&gt;repl</title>
<path fill="none" stroke="black" d="M86.47,-1767.13C105.42,-1780.67 132.32,-1799.24 157,-1813.86 193.17,-1835.28 209.99,-1828.75 241.25,-1856.86 243.36,-1858.75 280.97,-1916.92 304.15,-1952.91"/>
<polygon fill="black" stroke="black" points="301.08,-1954.62 309.44,-1961.13 306.97,-1950.83 301.08,-1954.62"/>
</g>
<!-- serve -->
<g id="node55" class="node">
<title>serve</title>
<polygon fill="none" stroke="black" points="226.12,-1766.86 172.12,-1766.86 172.12,-1730.86 226.12,-1730.86 226.12,-1766.86"/>
<text text-anchor="middle" x="199.12" y="-1744.56" font-family="sans-serif" font-size="14.00">serve</text>
</g>
<!-- covalence&#45;&gt;serve -->
<g id="edge12" class="edge">
<title>covalence&#45;&gt;serve</title>
<path fill="none" stroke="black" d="M102.86,-1748.86C121.2,-1748.86 142.63,-1748.86 160.51,-1748.86"/>
<polygon fill="black" stroke="black" points="160.44,-1752.36 170.44,-1748.86 160.44,-1745.36 160.44,-1752.36"/>
</g>
<!-- shell -->
<g id="node59" class="node">
<title>shell</title>
<polygon fill="none" stroke="black" points="477.5,-1586.86 423.5,-1586.86 423.5,-1550.86 477.5,-1550.86 477.5,-1586.86"/>
<text text-anchor="middle" x="450.5" y="-1564.56" font-family="sans-serif" font-size="14.00">shell</text>
</g>
<!-- covalence&#45;&gt;shell -->
<g id="edge13" class="edge">
<title>covalence&#45;&gt;shell</title>
<path fill="none" stroke="black" d="M66,-1730.53C75.75,-1695.2 102.48,-1618.22 157,-1584.86 236.92,-1535.96 353.28,-1549.15 412.26,-1560.39"/>
<polygon fill="black" stroke="black" points="411.28,-1563.77 421.77,-1562.3 412.66,-1556.9 411.28,-1563.77"/>
</g>
<!-- store -->
<g id="node63" class="node">
<title>store</title>
<polygon fill="none" stroke="black" points="749.12,-2462.86 695.12,-2462.86 695.12,-2426.86 749.12,-2426.86 749.12,-2462.86"/>
<text text-anchor="middle" x="722.12" y="-2440.56" font-family="sans-serif" font-size="14.00">store</text>
</g>
<!-- covalence&#45;&gt;store -->
<g id="edge14" class="edge">
<title>covalence&#45;&gt;store</title>
<path fill="none" stroke="black" d="M62.42,-1767.1C67.06,-1851.94 90.23,-2207.37 157,-2291.86 213.18,-2362.94 443.16,-2434.06 532,-2451.86 583.82,-2462.24 645.19,-2456.81 683.65,-2451.34"/>
<polygon fill="black" stroke="black" points="683.95,-2454.83 693.32,-2449.88 682.91,-2447.91 683.95,-2454.83"/>
</g>
<!-- wasm -->
<g id="node66" class="node">
<title>wasm</title>
<polygon fill="none" stroke="black" points="1041.88,-2566.86 987.62,-2566.86 987.62,-2530.86 1041.88,-2530.86 1041.88,-2566.86"/>
<text text-anchor="middle" x="1014.75" y="-2544.56" font-family="sans-serif" font-size="14.00">wasm</text>
</g>
<!-- covalence&#45;&gt;wasm -->
<g id="edge15" class="edge">
<title>covalence&#45;&gt;wasm</title>
<path fill="none" stroke="black" d="M62.36,-1767.2C66.82,-1855.86 89.78,-2239.73 157,-2334.86 325.37,-2573.11 492.8,-2667.54 768.75,-2572.86 787.92,-2566.28 785.58,-2551.44 804.75,-2544.86 862.24,-2525.13 880.75,-2543.18 941.5,-2544.86 952.78,-2545.17 965.03,-2545.75 976.19,-2546.38"/>
<polygon fill="black" stroke="black" points="975.64,-2549.86 985.83,-2546.95 976.06,-2542.87 975.64,-2549.86"/>
</g>
<!-- acset -->
<g id="node2" class="node">
<title>acset</title>
<polygon fill="none" stroke="black" points="900.12,-1856.86 846.12,-1856.86 846.12,-1820.86 900.12,-1820.86 900.12,-1856.86"/>
<text text-anchor="middle" x="873.12" y="-1834.56" font-family="sans-serif" font-size="14.00">acset</text>
</g>
<!-- alethe -->
<g id="node3" class="node">
<title>alethe</title>
<polygon fill="none" stroke="black" points="614,-1305.86 557.5,-1305.86 557.5,-1269.86 614,-1269.86 614,-1305.86"/>
<text text-anchor="middle" x="585.75" y="-1283.56" font-family="sans-serif" font-size="14.00">alethe</text>
</g>
<!-- core -->
<g id="node8" class="node">
<title>core</title>
<polygon fill="#ffd6d6" stroke="black" points="1041.75,-748.86 987.75,-748.86 987.75,-712.86 1041.75,-712.86 1041.75,-748.86"/>
<text text-anchor="middle" x="1014.75" y="-726.56" font-family="sans-serif" font-size="14.00">core</text>
</g>
<!-- alethe&#45;&gt;core -->
<g id="edge16" class="edge">
<title>alethe&#45;&gt;core</title>
<path fill="none" stroke="black" d="M614.42,-1274.97C622.68,-1270.79 631.62,-1265.91 639.5,-1260.86 701.09,-1221.33 729.96,-1220.91 768.75,-1158.86 808.54,-1095.21 759.97,-1054.1 804.75,-993.86 846.23,-938.05 895.85,-970.31 941.5,-917.86 981.77,-871.58 1000.84,-800.38 1008.81,-760.51"/>
<polygon fill="black" stroke="black" points="1012.25,-761.17 1010.66,-750.7 1005.37,-759.87 1012.25,-761.17"/>
</g>
<!-- hol&#45;eval -->
<g id="node22" class="node">
<title>hol&#45;eval</title>
<polygon fill="none" stroke="black" points="908.12,-908.86 838.12,-908.86 838.12,-872.86 908.12,-872.86 908.12,-908.86"/>
<text text-anchor="middle" x="873.12" y="-886.56" font-family="sans-serif" font-size="14.00">hol&#45;eval</text>
</g>
<!-- alethe&#45;&gt;hol&#45;eval -->
<g id="edge17" class="edge">
<title>alethe&#45;&gt;hol&#45;eval</title>
<path fill="none" stroke="black" d="M614.23,-1277.17C622.93,-1272.94 632.18,-1267.49 639.5,-1260.86 661.42,-1240.99 658.45,-1229.04 675.5,-1204.86 714.62,-1149.36 739.94,-1145.33 768.75,-1083.86 799.87,-1017.47 759.01,-980.16 804.75,-922.86 810.79,-915.29 819.05,-909.42 827.71,-904.89"/>
<polygon fill="black" stroke="black" points="828.96,-908.17 836.58,-900.81 826.04,-901.81 828.96,-908.17"/>
</g>
<!-- alethe&#45;&gt;init -->
<g id="edge18" class="edge">
<title>alethe&#45;&gt;init</title>
<path fill="none" stroke="black" d="M614.42,-1278.54C623.44,-1274.35 632.84,-1268.56 639.5,-1260.86 646.66,-1252.57 692.06,-1111.99 711.88,-1049.92"/>
<polygon fill="black" stroke="black" points="715.11,-1051.33 714.81,-1040.74 708.44,-1049.2 715.11,-1051.33"/>
</g>
<!-- sexp -->
<g id="node56" class="node">
<title>sexp</title>
<polygon fill="none" stroke="black" points="1041.75,-1496.86 987.75,-1496.86 987.75,-1460.86 1041.75,-1460.86 1041.75,-1496.86"/>
<text text-anchor="middle" x="1014.75" y="-1474.56" font-family="sans-serif" font-size="14.00">sexp</text>
</g>
<!-- alethe&#45;&gt;sexp -->
<g id="edge19" class="edge">
<title>alethe&#45;&gt;sexp</title>
<path fill="none" stroke="black" d="M610.33,-1306.24C628.13,-1320.04 653.21,-1339.32 675.5,-1355.86 716.48,-1386.27 728.4,-1391.61 768.75,-1422.86 785.22,-1435.61 785.64,-1444.57 804.75,-1452.86 860.86,-1477.2 932.88,-1480.83 976.06,-1480.42"/>
<polygon fill="black" stroke="black" points="975.99,-1483.93 985.92,-1480.24 975.86,-1476.93 975.99,-1483.93"/>
</g>
<!-- smt -->
<g id="node60" class="node">
<title>smt</title>
<polygon fill="none" stroke="black" points="749.12,-1346.86 695.12,-1346.86 695.12,-1310.86 749.12,-1310.86 749.12,-1346.86"/>
<text text-anchor="middle" x="722.12" y="-1324.56" font-family="sans-serif" font-size="14.00">smt</text>
</g>
<!-- alethe&#45;&gt;smt -->
<g id="edge20" class="edge">
<title>alethe&#45;&gt;smt</title>
<path fill="none" stroke="black" d="M614.27,-1296.25C634.41,-1302.4 661.95,-1310.8 684.03,-1317.54"/>
<polygon fill="black" stroke="black" points="682.98,-1320.88 693.57,-1320.45 685.02,-1314.18 682.98,-1320.88"/>
</g>
<!-- types -->
<g id="node65" class="node">
<title>types</title>
<polygon fill="#ffd6d6" stroke="black" points="1523,-992.86 1469,-992.86 1469,-956.86 1523,-956.86 1523,-992.86"/>
<text text-anchor="middle" x="1496" y="-970.56" font-family="sans-serif" font-size="14.00">types</text>
</g>
<!-- alethe&#45;&gt;types -->
<g id="edge21" class="edge">
<title>alethe&#45;&gt;types</title>
<path fill="none" stroke="black" d="M614.16,-1276.54C670.52,-1253.32 794.96,-1202.22 804.75,-1199.86 895.41,-1177.94 920.48,-1180.86 1013.75,-1180.86 1013.75,-1180.86 1013.75,-1180.86 1251.75,-1180.86 1339.98,-1180.86 1369.37,-1160.98 1433,-1099.86 1460.67,-1073.28 1477.83,-1031.75 1486.9,-1003.93"/>
<polygon fill="black" stroke="black" points="1490.24,-1004.97 1489.85,-994.38 1483.55,-1002.9 1490.24,-1004.97"/>
</g>
<!-- arrow -->
<g id="node4" class="node">
<title>arrow</title>
<polygon fill="none" stroke="black" points="612.75,-1998.86 558.75,-1998.86 558.75,-1962.86 612.75,-1962.86 612.75,-1998.86"/>
<text text-anchor="middle" x="585.75" y="-1976.56" font-family="sans-serif" font-size="14.00">arrow</text>
</g>
<!-- cfg&#45;parsing -->
<g id="node5" class="node">
<title>cfg&#45;parsing</title>
<polygon fill="none" stroke="black" points="768.75,-236.86 675.5,-236.86 675.5,-200.86 768.75,-200.86 768.75,-236.86"/>
<text text-anchor="middle" x="722.12" y="-214.56" font-family="sans-serif" font-size="14.00">cfg&#45;parsing</text>
</g>
<!-- grammar -->
<g id="node16" class="node">
<title>grammar</title>
<polygon fill="none" stroke="black" points="1051.62,-1061.86 977.88,-1061.86 977.88,-1025.86 1051.62,-1025.86 1051.62,-1061.86"/>
<text text-anchor="middle" x="1014.75" y="-1039.56" font-family="sans-serif" font-size="14.00">grammar</text>
</g>
<!-- cfg&#45;parsing&#45;&gt;grammar -->
<g id="edge22" class="edge">
<title>cfg&#45;parsing&#45;&gt;grammar</title>
<path fill="none" stroke="black" d="M735.24,-237.12C779.13,-303.43 927.98,-529.5 941.5,-565.86 957.2,-608.11 997.42,-916.02 1009.96,-1014"/>
<polygon fill="black" stroke="black" points="1006.48,-1014.41 1011.22,-1023.88 1013.43,-1013.52 1006.48,-1014.41"/>
</g>
<!-- parsing&#45;api -->
<g id="node44" class="node">
<title>parsing&#45;api</title>
<polygon fill="none" stroke="black" points="919,-236.86 827.25,-236.86 827.25,-200.86 919,-200.86 919,-236.86"/>
<text text-anchor="middle" x="873.12" y="-214.56" font-family="sans-serif" font-size="14.00">parsing&#45;api</text>
</g>
<!-- cfg&#45;parsing&#45;&gt;parsing&#45;api -->
<g id="edge23" class="edge">
<title>cfg&#45;parsing&#45;&gt;parsing&#45;api</title>
<path fill="none" stroke="black" d="M769.05,-218.86C783.7,-218.86 800.08,-218.86 815.41,-218.86"/>
<polygon fill="black" stroke="black" points="815.35,-222.36 825.35,-218.86 815.35,-215.36 815.35,-222.36"/>
</g>
<!-- client&#45;&gt;hash -->
<g id="edge24" class="edge">
<title>client&#45;&gt;hash</title>
<path fill="none" stroke="black" d="M350.48,-1888.91C404.85,-1899.52 533.3,-1925.47 639.5,-1953.86 709.24,-1972.5 789.3,-1998.7 834.98,-2014.12"/>
<polygon fill="black" stroke="black" points="833.8,-2017.41 844.39,-2017.31 836.05,-2010.78 833.8,-2017.41"/>
</g>
<!-- client&#45;&gt;shell -->
<g id="edge25" class="edge">
<title>client&#45;&gt;shell</title>
<path fill="none" stroke="black" d="M328.53,-1865.44C338.85,-1823.81 366.64,-1719.81 405,-1638.86 411.91,-1624.28 421.3,-1609.05 429.67,-1596.54"/>
<polygon fill="black" stroke="black" points="432.48,-1598.62 435.24,-1588.39 426.7,-1594.67 432.48,-1598.62"/>
</g>
<!-- client&#45;&gt;store -->
<g id="edge26" class="edge">
<title>client&#45;&gt;store</title>
<path fill="none" stroke="black" d="M335.88,-1901.95C351.6,-1926.11 380.33,-1970.25 405,-2007.86 524.74,-2190.4 517.41,-2267.31 675.5,-2417.86 678.55,-2420.76 681.96,-2423.48 685.51,-2426"/>
<polygon fill="black" stroke="black" points="683.5,-2428.87 693.8,-2431.35 687.29,-2422.99 683.5,-2428.87"/>
</g>
<!-- computation -->
<g id="node7" class="node">
<title>computation</title>
<polygon fill="none" stroke="black" points="922,-702.86 824.25,-702.86 824.25,-666.86 922,-666.86 922,-702.86"/>
<text text-anchor="middle" x="873.12" y="-680.56" font-family="sans-serif" font-size="14.00">computation</text>
</g>
<!-- logic&#45;api -->
<g id="node35" class="node">
<title>logic&#45;api</title>
<polygon fill="none" stroke="black" points="1052,-305.86 977.5,-305.86 977.5,-269.86 1052,-269.86 1052,-305.86"/>
<text text-anchor="middle" x="1014.75" y="-283.56" font-family="sans-serif" font-size="14.00">logic&#45;api</text>
</g>
<!-- computation&#45;&gt;logic&#45;api -->
<g id="edge27" class="edge">
<title>computation&#45;&gt;logic&#45;api</title>
<path fill="none" stroke="black" d="M899.54,-666.53C913.99,-654.78 931.21,-638.31 941.5,-619.86 997.82,-518.89 1010.25,-377.92 1012.99,-317.38"/>
<polygon fill="black" stroke="black" points="1016.48,-317.7 1013.36,-307.57 1009.48,-317.43 1016.48,-317.7"/>
</g>
<!-- pure -->
<g id="node47" class="node">
<title>pure</title>
<polygon fill="#ffd6d6" stroke="black" points="1277.75,-862.86 1223.75,-862.86 1223.75,-826.86 1277.75,-826.86 1277.75,-862.86"/>
<text text-anchor="middle" x="1250.75" y="-840.56" font-family="sans-serif" font-size="14.00">pure</text>
</g>
<!-- core&#45;&gt;pure -->
<g id="edge28" class="edge">
<title>core&#45;&gt;pure</title>
<path fill="none" stroke="black" d="M1042.14,-743.71C1084.03,-764.12 1165.86,-803.99 1213.31,-827.11"/>
<polygon fill="black" stroke="black" points="1211.58,-830.15 1222.1,-831.39 1214.64,-823.86 1211.58,-830.15"/>
</g>
<!-- pure&#45;eval -->
<g id="node48" class="node">
<title>pure&#45;eval</title>
<polygon fill="#ffd6d6" stroke="black" points="1167.75,-908.86 1088,-908.86 1088,-872.86 1167.75,-872.86 1167.75,-908.86"/>
<text text-anchor="middle" x="1127.88" y="-886.56" font-family="sans-serif" font-size="14.00">pure&#45;eval</text>
</g>
<!-- core&#45;&gt;pure&#45;eval -->
<g id="edge29" class="edge">
<title>core&#45;&gt;pure&#45;eval</title>
<path fill="none" stroke="black" d="M1028.5,-749.21C1047.92,-777.18 1085.07,-830.66 1107.74,-863.31"/>
<polygon fill="black" stroke="black" points="1104.83,-865.26 1113.41,-871.47 1110.58,-861.26 1104.83,-865.26"/>
</g>
<!-- core&#45;&gt;types -->
<g id="edge30" class="edge">
<title>core&#45;&gt;types</title>
<path fill="none" stroke="black" d="M1042.09,-728.58C1113.86,-723.87 1315.33,-720.7 1433,-819.86 1470.93,-851.82 1485.86,-910.33 1491.58,-945.6"/>
<polygon fill="black" stroke="black" points="1488.06,-945.71 1492.97,-955.1 1494.99,-944.7 1488.06,-945.71"/>
</g>
<!-- core&#45;test&#45;guest -->
<g id="node9" class="node">
<title>core&#45;test&#45;guest</title>
<polygon fill="none" stroke="black" points="121,-2380.86 0,-2380.86 0,-2344.86 121,-2344.86 121,-2380.86"/>
<text text-anchor="middle" x="60.5" y="-2358.56" font-family="sans-serif" font-size="14.00">core&#45;test&#45;guest</text>
</g>
<!-- crypto&#45;sig -->
<g id="node10" class="node">
<title>crypto&#45;sig</title>
<polygon fill="none" stroke="black" points="241.25,-2635.86 157,-2635.86 157,-2599.86 241.25,-2599.86 241.25,-2635.86"/>
<text text-anchor="middle" x="199.12" y="-2613.56" font-family="sans-serif" font-size="14.00">crypto&#45;sig</text>
</g>
<!-- decimal&#45;api -->
<g id="node11" class="node">
<title>decimal&#45;api</title>
<polygon fill="none" stroke="black" points="1297.75,-144.86 1203.75,-144.86 1203.75,-108.86 1297.75,-108.86 1297.75,-144.86"/>
<text text-anchor="middle" x="1250.75" y="-122.56" font-family="sans-serif" font-size="14.00">decimal&#45;api</text>
</g>
<!-- decimal&#45;api&#45;&gt;types -->
<g id="edge31" class="edge">
<title>decimal&#45;api&#45;&gt;types</title>
<path fill="none" stroke="black" d="M1298.2,-120.75C1339.94,-118.13 1399.65,-122.03 1433,-158.86 1486.75,-218.21 1493.91,-805.87 1494.86,-945.3"/>
<polygon fill="black" stroke="black" points="1491.36,-945.18 1494.92,-955.16 1498.36,-945.14 1491.36,-945.18"/>
</g>
<!-- egglog -->
<g id="node12" class="node">
<title>egglog</title>
<polygon fill="none" stroke="black" points="903.62,-1336.86 842.62,-1336.86 842.62,-1300.86 903.62,-1300.86 903.62,-1336.86"/>
<text text-anchor="middle" x="873.12" y="-1314.56" font-family="sans-serif" font-size="14.00">egglog</text>
</g>
<!-- egglog&#45;&gt;sexp -->
<g id="edge32" class="edge">
<title>egglog&#45;&gt;sexp</title>
<path fill="none" stroke="black" d="M904.02,-1328.46C916.67,-1333.61 930.89,-1340.97 941.5,-1350.86 971.33,-1378.66 992.07,-1421.62 1003.45,-1449.99"/>
<polygon fill="black" stroke="black" points="1000.07,-1450.96 1006.94,-1459.03 1006.6,-1448.44 1000.07,-1450.96"/>
</g>
<!-- egglog&#45;&gt;types -->
<g id="edge33" class="edge">
<title>egglog&#45;&gt;types</title>
<path fill="none" stroke="black" d="M904.08,-1318.08C951.4,-1316.91 1046.34,-1314.86 1126.88,-1314.86 1126.88,-1314.86 1126.88,-1314.86 1251.75,-1314.86 1333.26,-1314.86 1374.14,-1343.25 1433,-1286.86 1473.53,-1248.03 1488.78,-1074.2 1493.35,-1004.2"/>
<polygon fill="black" stroke="black" points="1496.82,-1004.85 1493.94,-994.65 1489.83,-1004.42 1496.82,-1004.85"/>
</g>
<!-- forsp -->
<g id="node13" class="node">
<title>forsp</title>
<polygon fill="none" stroke="black" points="477.5,-1716.86 423.5,-1716.86 423.5,-1680.86 477.5,-1680.86 477.5,-1716.86"/>
<text text-anchor="middle" x="450.5" y="-1694.56" font-family="sans-serif" font-size="14.00">forsp</text>
</g>
<!-- forsp&#45;&gt;hash -->
<g id="edge34" class="edge">
<title>forsp&#45;&gt;hash</title>
<path fill="none" stroke="black" d="M473.48,-1717.32C489.16,-1729.97 511.1,-1746.6 532,-1758.86 577.14,-1785.32 597.93,-1775.09 639.5,-1806.86 659.58,-1822.2 655.52,-1835.39 675.5,-1850.86 711.59,-1878.79 733.01,-1865.48 768.75,-1893.86 806.24,-1923.63 838.06,-1969.71 856.12,-1999.07"/>
<polygon fill="black" stroke="black" points="852.99,-2000.64 861.14,-2007.4 858.98,-1997.03 852.99,-2000.64"/>
</g>
<!-- repl&#45;core -->
<g id="node53" class="node">
<title>repl&#45;core</title>
<polygon fill="none" stroke="black" points="624.88,-1446.86 546.62,-1446.86 546.62,-1410.86 624.88,-1410.86 624.88,-1446.86"/>
<text text-anchor="middle" x="585.75" y="-1424.56" font-family="sans-serif" font-size="14.00">repl&#45;core</text>
</g>
<!-- forsp&#45;&gt;repl&#45;core -->
<g id="edge35" class="edge">
<title>forsp&#45;&gt;repl&#45;core</title>
<path fill="none" stroke="black" d="M477.75,-1684.54C484.56,-1679.72 491.29,-1673.78 496,-1666.86 532.65,-1613.04 508.13,-1585.43 532,-1524.86 541.41,-1500.97 555.57,-1475.58 566.84,-1456.92"/>
<polygon fill="black" stroke="black" points="569.71,-1458.93 571.97,-1448.58 563.75,-1455.26 569.71,-1458.93"/>
</g>
<!-- forsp&#45;&gt;sexp -->
<g id="edge36" class="edge">
<title>forsp&#45;&gt;sexp</title>
<path fill="none" stroke="black" d="M469.94,-1680.62C478.62,-1671.37 488.65,-1659.61 496,-1647.86 517.76,-1613.08 497.8,-1585.52 532,-1562.86 683.74,-1462.33 777.38,-1647.57 941.5,-1568.86 968.05,-1556.12 987.93,-1528.35 1000.04,-1507"/>
<polygon fill="black" stroke="black" points="1002.98,-1508.93 1004.64,-1498.47 996.82,-1505.61 1002.98,-1508.93"/>
</g>
<!-- fuse&#45;&gt;hash -->
<g id="edge37" class="edge">
<title>fuse&#45;&gt;hash</title>
<path fill="none" stroke="black" d="M613.1,-2148.59C649.73,-2147.28 717.36,-2141.38 768.75,-2116.86 800.32,-2101.79 829.72,-2074.35 849.03,-2053.72"/>
<polygon fill="black" stroke="black" points="851.49,-2056.21 855.65,-2046.47 846.32,-2051.5 851.49,-2056.21"/>
</g>
<!-- fuse&#45;&gt;object -->
<g id="edge38" class="edge">
<title>fuse&#45;&gt;object</title>
<path fill="none" stroke="black" d="M601.97,-2130.46C613.03,-2116.69 628,-2097.15 639.5,-2078.86 666.96,-2035.18 693.35,-1981.2 708.37,-1948.98"/>
<polygon fill="black" stroke="black" points="711.36,-1950.85 712.38,-1940.31 705,-1947.92 711.36,-1950.85"/>
</g>
<!-- fuse&#45;&gt;store -->
<g id="edge39" class="edge">
<title>fuse&#45;&gt;store</title>
<path fill="none" stroke="black" d="M588.39,-2167.28C593.41,-2214.07 612.3,-2339.31 675.5,-2417.86 678.34,-2421.39 681.77,-2424.56 685.47,-2427.38"/>
<polygon fill="black" stroke="black" points="683.46,-2430.25 693.74,-2432.83 687.32,-2424.4 683.46,-2430.25"/>
</g>
<!-- git&#45;&gt;hash -->
<g id="edge40" class="edge">
<title>git&#45;&gt;hash</title>
<path fill="none" stroke="black" d="M477.94,-2317.73C535.92,-2301.07 676.4,-2254.95 768.75,-2176.86 809.5,-2142.4 841.44,-2088.2 858.48,-2055.25"/>
<polygon fill="black" stroke="black" points="861.42,-2057.21 862.8,-2046.7 855.17,-2054.05 861.42,-2057.21"/>
</g>
<!-- git&#45;&gt;object -->
<g id="edge41" class="edge">
<title>git&#45;&gt;object</title>
<path fill="none" stroke="black" d="M477.92,-2313.64C484.73,-2309.58 491.42,-2304.36 496,-2297.86 541.97,-2232.58 495.21,-2192.72 532,-2121.86 564.09,-2060.05 591.79,-2058.58 639.5,-2007.86 658.65,-1987.5 680.28,-1964.44 696.47,-1947.17"/>
<polygon fill="black" stroke="black" points="698.62,-1949.99 702.91,-1940.31 693.51,-1945.21 698.62,-1949.99"/>
</g>
<!-- sqlite -->
<g id="node62" class="node">
<title>sqlite</title>
<polygon fill="none" stroke="black" points="900.12,-2459.86 846.12,-2459.86 846.12,-2423.86 900.12,-2423.86 900.12,-2459.86"/>
<text text-anchor="middle" x="873.12" y="-2437.56" font-family="sans-serif" font-size="14.00">sqlite</text>
</g>
<!-- git&#45;&gt;sqlite -->
<g id="edge42" class="edge">
<title>git&#45;&gt;sqlite</title>
<path fill="none" stroke="black" d="M477.71,-2323.6C533.49,-2321.86 667.15,-2322.76 768.75,-2363.86 798.03,-2375.7 826.31,-2398.04 845.86,-2415.78"/>
<polygon fill="black" stroke="black" points="843.4,-2418.27 853.1,-2422.52 848.17,-2413.15 843.4,-2418.27"/>
</g>
<!-- git&#45;&gt;store -->
<g id="edge43" class="edge">
<title>git&#45;&gt;store</title>
<path fill="none" stroke="black" d="M466.51,-2343.19C481.39,-2360.16 505.72,-2384.81 532,-2398.86 580.58,-2424.83 643.98,-2436.38 683.63,-2441.34"/>
<polygon fill="black" stroke="black" points="683.04,-2444.8 693.38,-2442.48 683.85,-2437.84 683.04,-2444.8"/>
</g>
<!-- grammar&#45;&gt;types -->
<g id="edge44" class="edge">
<title>grammar&#45;&gt;types</title>
<path fill="none" stroke="black" d="M1051.92,-1040.21C1124.49,-1032.65 1292.92,-1013.85 1433,-988.86 1440.97,-987.43 1449.47,-985.68 1457.54,-983.89"/>
<polygon fill="black" stroke="black" points="1458.11,-987.35 1467.08,-981.72 1456.55,-980.53 1458.11,-987.35"/>
</g>
<!-- graph -->
<g id="node17" class="node">
<title>graph</title>
<polygon fill="none" stroke="black" points="477.5,-2288.86 423.5,-2288.86 423.5,-2252.86 477.5,-2252.86 477.5,-2288.86"/>
<text text-anchor="middle" x="450.5" y="-2266.56" font-family="sans-serif" font-size="14.00">graph</text>
</g>
<!-- graph&#45;&gt;hash -->
<g id="edge45" class="edge">
<title>graph&#45;&gt;hash</title>
<path fill="none" stroke="black" d="M476.23,-2252.41C491.66,-2241.54 512.28,-2228.14 532,-2218.86 631.86,-2171.83 676.24,-2204.07 768.75,-2143.86 804.81,-2120.39 835.89,-2081.05 854.31,-2054.53"/>
<polygon fill="black" stroke="black" points="857.17,-2056.56 859.88,-2046.31 851.37,-2052.63 857.17,-2056.56"/>
</g>
<!-- parse -->
<g id="node43" class="node">
<title>parse</title>
<polygon fill="none" stroke="black" points="1154.88,-1802.86 1100.88,-1802.86 1100.88,-1766.86 1154.88,-1766.86 1154.88,-1802.86"/>
<text text-anchor="middle" x="1127.88" y="-1780.56" font-family="sans-serif" font-size="14.00">parse</text>
</g>
<!-- graph&#45;&gt;parse -->
<g id="edge46" class="edge">
<title>graph&#45;&gt;parse</title>
<path fill="none" stroke="black" d="M477.74,-2269.93C571.66,-2265.13 893.87,-2235.5 1052,-2053.86 1112.83,-1983.98 1124.57,-1868.52 1126.61,-1814.47"/>
<polygon fill="black" stroke="black" points="1130.1,-1814.62 1126.88,-1804.53 1123.11,-1814.43 1130.1,-1814.62"/>
</g>
<!-- rand -->
<g id="node51" class="node">
<title>rand</title>
<polygon fill="none" stroke="black" points="1041.75,-2044.86 987.75,-2044.86 987.75,-2008.86 1041.75,-2008.86 1041.75,-2044.86"/>
<text text-anchor="middle" x="1014.75" y="-2022.56" font-family="sans-serif" font-size="14.00">rand</text>
</g>
<!-- hash&#45;&gt;rand -->
<g id="edge47" class="edge">
<title>hash&#45;&gt;rand</title>
<path fill="none" stroke="black" d="M900.39,-2026.86C921.74,-2026.86 952.15,-2026.86 976.1,-2026.86"/>
<polygon fill="black" stroke="black" points="976.09,-2030.36 986.09,-2026.86 976.09,-2023.36 976.09,-2030.36"/>
</g>
<!-- haskell -->
<g id="node19" class="node">
<title>haskell</title>
<polygon fill="none" stroke="black" points="481.75,-830.86 419.25,-830.86 419.25,-794.86 481.75,-794.86 481.75,-830.86"/>
<text text-anchor="middle" x="450.5" y="-808.56" font-family="sans-serif" font-size="14.00">haskell</text>
</g>
<!-- hol&#45;api -->
<g id="node21" class="node">
<title>hol&#45;api</title>
<polygon fill="none" stroke="black" points="617,-480.86 554.5,-480.86 554.5,-444.86 617,-444.86 617,-480.86"/>
<text text-anchor="middle" x="585.75" y="-458.56" font-family="sans-serif" font-size="14.00">hol&#45;api</text>
</g>
<!-- haskell&#45;&gt;hol&#45;api -->
<g id="edge48" class="edge">
<title>haskell&#45;&gt;hol&#45;api</title>
<path fill="none" stroke="black" d="M458.48,-794.53C480.29,-737.24 547.31,-561.19 573.81,-491.59"/>
<polygon fill="black" stroke="black" points="577.02,-493.01 577.3,-482.42 570.48,-490.52 577.02,-493.01"/>
</g>
<!-- haskell&#45;&gt;hol&#45;eval -->
<g id="edge49" class="edge">
<title>haskell&#45;&gt;hol&#45;eval</title>
<path fill="none" stroke="black" d="M482.09,-818.53C555.2,-832.09 740.39,-866.43 826.63,-882.42"/>
<polygon fill="black" stroke="black" points="825.92,-885.85 836.39,-884.23 827.19,-878.97 825.92,-885.85"/>
</g>
<!-- haskell&#45;&gt;init -->
<g id="edge50" class="edge">
<title>haskell&#45;&gt;init</title>
<path fill="none" stroke="black" d="M453.26,-831.12C458.07,-869.84 475.11,-960.02 532,-1001.86 576.01,-1034.22 642.19,-1032.68 683.46,-1027.54"/>
<polygon fill="black" stroke="black" points="683.73,-1031.04 693.16,-1026.19 682.77,-1024.1 683.73,-1031.04"/>
</g>
<!-- haskell&#45;&gt;types -->
<g id="edge51" class="edge">
<title>haskell&#45;&gt;types</title>
<path fill="none" stroke="black" d="M456.38,-794.44C465.52,-759.22 485.28,-679.82 496,-611.86 540.82,-327.64 433.39,-4.86 721.12,-4.86 721.12,-4.86 721.12,-4.86 1251.75,-4.86 1334.15,-4.86 1379.12,18.49 1433,-43.86 1493.2,-113.52 1495.37,-793.78 1495.11,-945.12"/>
<polygon fill="black" stroke="black" points="1491.61,-945.08 1495.08,-955.09 1498.61,-945.1 1491.61,-945.08"/>
</g>
<!-- hol&#45;&gt;core -->
<g id="edge52" class="edge">
<title>hol&#45;&gt;core</title>
<path fill="none" stroke="black" d="M900.31,-601.54C913.63,-606.84 929.5,-614.58 941.5,-624.86 966.88,-646.59 987.33,-679.25 999.91,-702.57"/>
<polygon fill="black" stroke="black" points="996.69,-703.97 1004.42,-711.21 1002.89,-700.73 996.69,-703.97"/>
</g>
<!-- hol&#45;api&#45;&gt;core -->
<g id="edge53" class="edge">
<title>hol&#45;api&#45;&gt;core</title>
<path fill="none" stroke="black" d="M617.24,-461.42C693.93,-458.43 892.23,-454.86 941.5,-494.86 1004.33,-545.86 1013.78,-650.05 1014.41,-701.2"/>
<polygon fill="black" stroke="black" points="1010.91,-700.91 1014.42,-710.91 1017.91,-700.91 1010.91,-700.91"/>
</g>
<!-- hol&#45;api&#45;&gt;hol&#45;eval -->
<g id="edge54" class="edge">
<title>hol&#45;api&#45;&gt;hol&#45;eval</title>
<path fill="none" stroke="black" d="M604.34,-481.35C638.73,-518.09 716.1,-603.77 768.75,-684.86 807.59,-744.68 842.46,-821.06 860.06,-861.94"/>
<polygon fill="black" stroke="black" points="856.82,-863.27 863.96,-871.1 863.26,-860.53 856.82,-863.27"/>
</g>
<!-- inductive -->
<g id="node23" class="node">
<title>inductive</title>
<polygon fill="none" stroke="black" points="911.5,-328.86 834.75,-328.86 834.75,-292.86 911.5,-292.86 911.5,-328.86"/>
<text text-anchor="middle" x="873.12" y="-306.56" font-family="sans-serif" font-size="14.00">inductive</text>
</g>
<!-- hol&#45;api&#45;&gt;inductive -->
<g id="edge55" class="edge">
<title>hol&#45;api&#45;&gt;inductive</title>
<path fill="none" stroke="black" d="M592.13,-444.64C602.47,-413.24 628.4,-349.61 675.5,-321.86 720.2,-295.52 780.98,-296.54 823.09,-301.74"/>
<polygon fill="black" stroke="black" points="822.55,-305.2 832.94,-303.09 823.51,-298.26 822.55,-305.2"/>
</g>
<!-- hol&#45;api&#45;&gt;init -->
<g id="edge56" class="edge">
<title>hol&#45;api&#45;&gt;init</title>
<path fill="none" stroke="black" d="M590.06,-481.07C600.73,-539.01 635.81,-724.15 675.5,-874.86 686.31,-915.89 701.4,-962.58 711.22,-991.88"/>
<polygon fill="black" stroke="black" points="707.83,-992.78 714.34,-1001.14 714.46,-990.55 707.83,-992.78"/>
</g>
<!-- hol&#45;api&#45;&gt;logic&#45;api -->
<g id="edge57" class="edge">
<title>hol&#45;api&#45;&gt;logic&#45;api</title>
<path fill="none" stroke="black" d="M590.39,-444.56C598.57,-408.85 622,-330.28 675.5,-294.86 763.99,-236.27 896.08,-256.9 966.13,-274.11"/>
<polygon fill="black" stroke="black" points="965.21,-277.49 975.77,-276.56 966.94,-270.7 965.21,-277.49"/>
</g>
<!-- hol&#45;api&#45;&gt;pure -->
<g id="edge58" class="edge">
<title>hol&#45;api&#45;&gt;pure</title>
<path fill="none" stroke="black" d="M617.47,-457.49C669.64,-448.87 778.97,-432.86 872.12,-432.86 872.12,-432.86 872.12,-432.86 1015.75,-432.86 1191.88,-432.86 1237.08,-721.07 1247.15,-815.38"/>
<polygon fill="black" stroke="black" points="1243.65,-815.52 1248.13,-825.12 1250.61,-814.82 1243.65,-815.52"/>
</g>
<!-- hol&#45;api&#45;&gt;types -->
<g id="edge59" class="edge">
<title>hol&#45;api&#45;&gt;types</title>
<path fill="none" stroke="black" d="M593.01,-444.38C603.6,-412.66 625.3,-345.64 639.5,-287.86 659.8,-205.24 618.2,-162.74 675.5,-99.86 736.78,-32.6 781.14,-42.86 872.12,-42.86 872.12,-42.86 872.12,-42.86 1251.75,-42.86 1338.76,-42.86 1381.9,-46.43 1433,-116.86 1482.59,-185.2 1492.95,-802.42 1494.69,-945.39"/>
<polygon fill="black" stroke="black" points="1491.19,-945.18 1494.8,-955.14 1498.19,-945.1 1491.19,-945.18"/>
</g>
<!-- hol&#45;eval&#45;&gt;core -->
<g id="edge60" class="edge">
<title>hol&#45;eval&#45;&gt;core</title>
<path fill="none" stroke="black" d="M908.48,-879.37C919.92,-874.36 932.12,-867.6 941.5,-858.86 971.33,-831.06 992.07,-788.09 1003.45,-759.73"/>
<polygon fill="black" stroke="black" points="1006.6,-761.27 1006.94,-750.68 1000.07,-758.75 1006.6,-761.27"/>
</g>
<!-- hol&#45;eval&#45;&gt;pure -->
<g id="edge61" class="edge">
<title>hol&#45;eval&#45;&gt;pure</title>
<path fill="none" stroke="black" d="M908.56,-886.42C950.82,-880.99 1024.66,-871.58 1088,-863.86 1130.5,-858.68 1179.3,-852.98 1212.09,-849.19"/>
<polygon fill="black" stroke="black" points="1212.37,-852.68 1221.9,-848.05 1211.57,-845.73 1212.37,-852.68"/>
</g>
<!-- hol&#45;eval&#45;&gt;pure&#45;eval -->
<g id="edge62" class="edge">
<title>hol&#45;eval&#45;&gt;pure&#45;eval</title>
<path fill="none" stroke="black" d="M908.48,-890.86C951.71,-890.86 1026.33,-890.86 1076.14,-890.86"/>
<polygon fill="black" stroke="black" points="1076.1,-894.36 1086.1,-890.86 1076.1,-887.36 1076.1,-894.36"/>
</g>
<!-- hol&#45;eval&#45;&gt;sexp -->
<g id="edge63" class="edge">
<title>hol&#45;eval&#45;&gt;sexp</title>
<path fill="none" stroke="black" d="M889.73,-909.23C905.48,-928.85 929.19,-961.5 941.5,-993.86 1003.86,-1157.75 1012.64,-1371.89 1013.7,-1449.32"/>
<polygon fill="black" stroke="black" points="1010.19,-1449.06 1013.79,-1459.03 1017.19,-1448.99 1010.19,-1449.06"/>
</g>
<!-- hol&#45;eval&#45;&gt;types -->
<g id="edge64" class="edge">
<title>hol&#45;eval&#45;&gt;types</title>
<path fill="none" stroke="black" d="M908.52,-901.18C956.81,-914.74 1047.71,-936.86 1126.88,-936.86 1126.88,-936.86 1126.88,-936.86 1251.75,-936.86 1325.39,-936.86 1410.09,-954.07 1457.61,-965.33"/>
<polygon fill="black" stroke="black" points="1456.56,-968.67 1467.1,-967.62 1458.21,-961.87 1456.56,-968.67"/>
</g>
<!-- inductive&#45;&gt;logic&#45;api -->
<g id="edge65" class="edge">
<title>inductive&#45;&gt;logic&#45;api</title>
<path fill="none" stroke="black" d="M911.91,-304.63C928.6,-301.88 948.42,-298.62 966.11,-295.7"/>
<polygon fill="black" stroke="black" points="966.59,-299.17 975.89,-294.09 965.45,-292.27 966.59,-299.17"/>
</g>
<!-- init&#45;&gt;computation -->
<g id="edge66" class="edge">
<title>init&#45;&gt;computation</title>
<path fill="none" stroke="black" d="M728.21,-1002.59C739.49,-963.2 768.48,-867.79 804.75,-792.86 818.55,-764.35 838.01,-733.92 852.47,-712.65"/>
<polygon fill="black" stroke="black" points="855.28,-714.74 858.07,-704.52 849.51,-710.77 855.28,-714.74"/>
</g>
<!-- init&#45;&gt;core -->
<g id="edge67" class="edge">
<title>init&#45;&gt;core</title>
<path fill="none" stroke="black" d="M736.5,-1002.42C746.16,-988.63 759.15,-969.08 768.75,-950.86 788.26,-913.84 773.89,-892.12 804.75,-863.86 851.73,-820.82 888.9,-856.81 941.5,-820.86 965.13,-804.71 984.89,-778.55 997.74,-758.59"/>
<polygon fill="black" stroke="black" points="1000.54,-760.71 1002.84,-750.37 994.59,-757.02 1000.54,-760.71"/>
</g>
<!-- init&#45;&gt;grammar -->
<g id="edge68" class="edge">
<title>init&#45;&gt;grammar</title>
<path fill="none" stroke="black" d="M749.42,-1031.94C765.16,-1037.96 785.74,-1044.8 804.75,-1047.86 859.61,-1056.69 923.6,-1053.53 966.19,-1049.56"/>
<polygon fill="black" stroke="black" points="966.49,-1053.05 976.1,-1048.58 965.8,-1046.08 966.49,-1053.05"/>
</g>
<!-- init&#45;&gt;hash -->
<g id="edge69" class="edge">
<title>init&#45;&gt;hash</title>
<path fill="none" stroke="black" d="M726.74,-1039.18C735.4,-1083.88 757.5,-1202.16 768.75,-1301.86 796.91,-1551.45 747.48,-1621.3 804.75,-1865.86 816.12,-1914.42 840.72,-1967.09 856.84,-1998.51"/>
<polygon fill="black" stroke="black" points="853.72,-2000.11 861.45,-2007.35 859.93,-1996.87 853.72,-2000.11"/>
</g>
<!-- init&#45;&gt;hol -->
<g id="edge70" class="edge">
<title>init&#45;&gt;hol</title>
<path fill="none" stroke="black" d="M723.6,-1002.56C725.76,-947.03 737.79,-776.94 804.75,-657.86 813.08,-643.04 825.86,-629.48 838.05,-618.62"/>
<polygon fill="black" stroke="black" points="840.25,-621.34 845.6,-612.19 835.72,-616.01 840.25,-621.34"/>
</g>
<!-- init&#45;&gt;hol&#45;eval -->
<g id="edge71" class="edge">
<title>init&#45;&gt;hol&#45;eval</title>
<path fill="none" stroke="black" d="M749.43,-1005.47C756.24,-1000.71 763.21,-995.06 768.75,-988.86 791.01,-963.94 780.47,-945.81 804.75,-922.86 811.3,-916.66 819.27,-911.47 827.4,-907.2"/>
<polygon fill="black" stroke="black" points="828.83,-910.4 836.33,-902.92 825.8,-904.08 828.83,-910.4"/>
</g>
<!-- init&#45;&gt;inductive -->
<g id="edge72" class="edge">
<title>init&#45;&gt;inductive</title>
<path fill="none" stroke="black" d="M725.86,-1002.55C735.23,-940.75 767.45,-734.32 804.75,-565.86 823,-483.43 849.91,-387.46 863.54,-340.21"/>
<polygon fill="black" stroke="black" points="866.86,-341.32 866.28,-330.74 860.14,-339.37 866.86,-341.32"/>
</g>
<!-- k -->
<g id="node27" class="node">
<title>k</title>
<polygon fill="none" stroke="black" points="900.12,-1244.86 846.12,-1244.86 846.12,-1208.86 900.12,-1208.86 900.12,-1244.86"/>
<text text-anchor="middle" x="873.12" y="-1222.56" font-family="sans-serif" font-size="14.00">k</text>
</g>
<!-- init&#45;&gt;k -->
<g id="edge73" class="edge">
<title>init&#45;&gt;k</title>
<path fill="none" stroke="black" d="M736.35,-1039.14C762.58,-1075.41 821.33,-1156.63 852.24,-1199.37"/>
<polygon fill="black" stroke="black" points="849.35,-1201.34 858.04,-1207.39 855.02,-1197.24 849.35,-1201.34"/>
</g>
<!-- init&#45;&gt;logic&#45;api -->
<g id="edge74" class="edge">
<title>init&#45;&gt;logic&#45;api</title>
<path fill="none" stroke="black" d="M727.28,-1002.46C736.38,-965.24 760.81,-879.55 804.75,-820.86 851.33,-758.64 901.99,-778.79 941.5,-711.86 981.39,-644.29 1004.48,-401.9 1011.47,-317.27"/>
<polygon fill="black" stroke="black" points="1014.94,-317.73 1012.26,-307.48 1007.96,-317.16 1014.94,-317.73"/>
</g>
<!-- metamath -->
<g id="node37" class="node">
<title>metamath</title>
<polygon fill="none" stroke="black" points="913.38,-1656.86 832.88,-1656.86 832.88,-1620.86 913.38,-1620.86 913.38,-1656.86"/>
<text text-anchor="middle" x="873.12" y="-1634.56" font-family="sans-serif" font-size="14.00">metamath</text>
</g>
<!-- init&#45;&gt;metamath -->
<g id="edge75" class="edge">
<title>init&#45;&gt;metamath</title>
<path fill="none" stroke="black" d="M726.28,-1039.15C736.17,-1095.71 768.08,-1272.63 804.75,-1416.86 822.53,-1486.79 848.42,-1567.57 862.36,-1609.76"/>
<polygon fill="black" stroke="black" points="859.01,-1610.77 865.49,-1619.16 865.66,-1608.57 859.01,-1610.77"/>
</g>
<!-- init&#45;&gt;parsing&#45;api -->
<g id="edge76" class="edge">
<title>init&#45;&gt;parsing&#45;api</title>
<path fill="none" stroke="black" d="M723.49,-1002.41C725.72,-901.5 739.73,-416.14 804.75,-283.86 812.13,-268.83 824.48,-255.38 836.61,-244.66"/>
<polygon fill="black" stroke="black" points="838.74,-247.43 844.16,-238.33 834.25,-242.07 838.74,-247.43"/>
</g>
<!-- init&#45;&gt;sexp -->
<g id="edge77" class="edge">
<title>init&#45;&gt;sexp</title>
<path fill="none" stroke="black" d="M724.86,-1039.31C731.44,-1105.35 756.89,-1328.7 804.75,-1378.86 848.3,-1424.5 885.85,-1387.16 941.5,-1416.86 958.85,-1426.11 975.67,-1440.15 988.71,-1452.53"/>
<polygon fill="black" stroke="black" points="986.03,-1454.8 995.62,-1459.3 990.93,-1449.8 986.03,-1454.8"/>
</g>
<!-- spectec -->
<g id="node61" class="node">
<title>spectec</title>
<polygon fill="none" stroke="black" points="907.75,-1038.86 838.5,-1038.86 838.5,-1002.86 907.75,-1002.86 907.75,-1038.86"/>
<text text-anchor="middle" x="873.12" y="-1016.56" font-family="sans-serif" font-size="14.00">spectec</text>
</g>
<!-- init&#45;&gt;spectec -->
<g id="edge78" class="edge">
<title>init&#45;&gt;spectec</title>
<path fill="none" stroke="black" d="M749.42,-1020.86C770.87,-1020.86 801.65,-1020.86 827.02,-1020.86"/>
<polygon fill="black" stroke="black" points="826.73,-1024.36 836.73,-1020.86 826.73,-1017.36 826.73,-1024.36"/>
</g>
<!-- init&#45;&gt;types -->
<g id="edge79" class="edge">
<title>init&#45;&gt;types</title>
<path fill="none" stroke="black" d="M749.54,-1010.41C765.32,-1004.6 785.9,-997.78 804.75,-993.86 896.07,-974.87 920.48,-974.86 1013.75,-974.86 1013.75,-974.86 1013.75,-974.86 1251.75,-974.86 1324.55,-974.86 1409.61,-974.86 1457.4,-974.86"/>
<polygon fill="black" stroke="black" points="1457.21,-978.36 1467.21,-974.86 1457.21,-971.36 1457.21,-978.36"/>
</g>
<!-- json -->
<g id="node25" class="node">
<title>json</title>
<polygon fill="none" stroke="black" points="900.12,-2681.86 846.12,-2681.86 846.12,-2645.86 900.12,-2645.86 900.12,-2681.86"/>
<text text-anchor="middle" x="873.12" y="-2659.56" font-family="sans-serif" font-size="14.00">json</text>
</g>
<!-- json&#45;api -->
<g id="node26" class="node">
<title>json&#45;api</title>
<polygon fill="none" stroke="black" points="757.12,-144.86 687.12,-144.86 687.12,-108.86 757.12,-108.86 757.12,-144.86"/>
<text text-anchor="middle" x="722.12" y="-122.56" font-family="sans-serif" font-size="14.00">json&#45;api</text>
</g>
<!-- json&#45;api&#45;&gt;decimal&#45;api -->
<g id="edge80" class="edge">
<title>json&#45;api&#45;&gt;decimal&#45;api</title>
<path fill="none" stroke="black" d="M757.27,-126.86C845.57,-126.86 1082.18,-126.86 1192.12,-126.86"/>
<polygon fill="black" stroke="black" points="1192.11,-130.36 1202.11,-126.86 1192.11,-123.36 1192.11,-130.36"/>
</g>
<!-- json&#45;api&#45;&gt;inductive -->
<g id="edge81" class="edge">
<title>json&#45;api&#45;&gt;inductive</title>
<path fill="none" stroke="black" d="M736.22,-145.27C745.41,-158.24 757.93,-176.04 768.75,-191.86 785.04,-215.66 786.26,-223.72 804.75,-245.86 816.26,-259.64 830.39,-273.64 842.73,-285.09"/>
<polygon fill="black" stroke="black" points="840.07,-287.41 849.81,-291.56 844.79,-282.24 840.07,-287.41"/>
</g>
<!-- json&#45;api&#45;&gt;parsing&#45;api -->
<g id="edge82" class="edge">
<title>json&#45;api&#45;&gt;parsing&#45;api</title>
<path fill="none" stroke="black" d="M749.82,-145.25C756.07,-149.65 762.68,-154.37 768.75,-158.86 785.05,-170.9 787.49,-176.22 804.75,-186.86 809.52,-189.8 814.6,-192.66 819.75,-195.38"/>
<polygon fill="black" stroke="black" points="817.84,-198.33 828.34,-199.75 821.01,-192.09 817.84,-198.33"/>
</g>
<!-- json&#45;api&#45;&gt;types -->
<g id="edge83" class="edge">
<title>json&#45;api&#45;&gt;types</title>
<path fill="none" stroke="black" d="M757.3,-135.84C811.33,-149.22 920.01,-172.86 1013.75,-172.86 1013.75,-172.86 1013.75,-172.86 1251.75,-172.86 1416.46,-172.86 1480.09,-800.12 1492.6,-945.17"/>
<polygon fill="black" stroke="black" points="1489.11,-945.42 1493.44,-955.09 1496.09,-944.83 1489.11,-945.42"/>
</g>
<!-- k&#45;&gt;grammar -->
<g id="edge84" class="edge">
<title>k&#45;&gt;grammar</title>
<path fill="none" stroke="black" d="M888.02,-1208.64C912.63,-1176.39 963.99,-1109.07 992.87,-1071.22"/>
<polygon fill="black" stroke="black" points="995.5,-1073.55 998.78,-1063.47 989.93,-1069.3 995.5,-1073.55"/>
</g>
<!-- k&#45;&gt;parse -->
<g id="edge85" class="edge">
<title>k&#45;&gt;parse</title>
<path fill="none" stroke="black" d="M895.23,-1245.21C909.07,-1257.72 927.19,-1275.01 941.5,-1291.86 997.43,-1357.74 1017.33,-1372.7 1052,-1451.86 1098.37,-1557.73 1117.55,-1695.6 1124.05,-1755.23"/>
<polygon fill="black" stroke="black" points="1120.54,-1755.32 1125.06,-1764.9 1127.5,-1754.59 1120.54,-1755.32"/>
</g>
<!-- k&#45;&gt;sexp -->
<g id="edge86" class="edge">
<title>k&#45;&gt;sexp</title>
<path fill="none" stroke="black" d="M897.88,-1245.25C912.09,-1257.26 929.63,-1273.98 941.5,-1291.86 975.17,-1342.58 996.56,-1411.28 1006.73,-1449.72"/>
<polygon fill="black" stroke="black" points="1003.27,-1450.34 1009.15,-1459.16 1010.05,-1448.6 1003.27,-1450.34"/>
</g>
<!-- kernel -->
<g id="node28" class="node">
<title>kernel</title>
<polygon fill="none" stroke="black" points="614.38,-1640.86 557.12,-1640.86 557.12,-1604.86 614.38,-1604.86 614.38,-1640.86"/>
<text text-anchor="middle" x="585.75" y="-1618.56" font-family="sans-serif" font-size="14.00">kernel</text>
</g>
<!-- kernel&#45;&gt;hash -->
<g id="edge87" class="edge">
<title>kernel&#45;&gt;hash</title>
<path fill="none" stroke="black" d="M614.67,-1634.7C623.71,-1639.74 633.06,-1646.43 639.5,-1654.86 674.62,-1700.78 637.83,-1736 675.5,-1779.86 705.23,-1814.48 736.31,-1790.75 768.75,-1822.86 795.31,-1849.15 788.04,-1865.42 804.75,-1898.86 822.12,-1933.61 843.09,-1973.1 856.98,-1998.91"/>
<polygon fill="black" stroke="black" points="853.74,-2000.28 861.57,-2007.42 859.9,-1996.96 853.74,-2000.28"/>
</g>
<!-- kernel&#45;&gt;init -->
<g id="edge88" class="edge">
<title>kernel&#45;&gt;init</title>
<path fill="none" stroke="black" d="M593.34,-1604.53C604.13,-1574.01 625.74,-1510.71 639.5,-1455.86 677.31,-1305.08 706.34,-1120.96 716.85,-1050.35"/>
<polygon fill="black" stroke="black" points="720.27,-1051.16 718.26,-1040.76 713.34,-1050.14 720.27,-1051.16"/>
</g>
<!-- kernel&#45;&gt;object -->
<g id="edge89" class="edge">
<title>kernel&#45;&gt;object</title>
<path fill="none" stroke="black" d="M614.66,-1634.35C623.82,-1639.39 633.23,-1646.17 639.5,-1654.86 681.63,-1713.27 653.4,-1744.31 675.5,-1812.86 684.38,-1840.41 697.48,-1870.68 707.36,-1892.14"/>
<polygon fill="black" stroke="black" points="704.16,-1893.55 711.56,-1901.13 710.5,-1890.59 704.16,-1893.55"/>
</g>
<!-- kernel&#45;&gt;sexp -->
<g id="edge90" class="edge">
<title>kernel&#45;&gt;sexp</title>
<path fill="none" stroke="black" d="M614.63,-1630.93C651.27,-1642.12 717.06,-1664.26 768.75,-1692.86 786.25,-1702.54 785.78,-1713.53 804.75,-1719.86 862.41,-1739.08 893.59,-1757.26 941.5,-1719.86 993.5,-1679.26 957.92,-1638.86 977.5,-1575.86 984.73,-1552.61 994.45,-1526.81 1002.01,-1507.67"/>
<polygon fill="black" stroke="black" points="1005.15,-1509.23 1005.61,-1498.64 998.65,-1506.63 1005.15,-1509.23"/>
</g>
<!-- kernel&#45;&gt;store -->
<g id="edge91" class="edge">
<title>kernel&#45;&gt;store</title>
<path fill="none" stroke="black" d="M590.19,-1641.09C599.47,-1690.96 625.32,-1833.95 639.5,-1953.86 651.65,-2056.56 620.83,-2330.07 675.5,-2417.86 678.07,-2421.99 681.53,-2425.57 685.39,-2428.64"/>
<polygon fill="black" stroke="black" points="683.39,-2431.51 693.67,-2434.1 687.25,-2425.67 683.39,-2431.51"/>
</g>
<!-- kernel&#45;sat -->
<g id="node29" class="node">
<title>kernel&#45;sat</title>
<polygon fill="none" stroke="black" points="627.5,-992.86 544,-992.86 544,-956.86 627.5,-956.86 627.5,-992.86"/>
<text text-anchor="middle" x="585.75" y="-970.56" font-family="sans-serif" font-size="14.00">kernel&#45;sat</text>
</g>
<!-- kernel&#45;sat&#45;&gt;core -->
<g id="edge92" class="edge">
<title>kernel&#45;sat&#45;&gt;core</title>
<path fill="none" stroke="black" d="M608.48,-956.4C646.41,-924.81 728,-859.66 804.75,-816.86 862.16,-784.84 933.93,-757.9 976.69,-743.1"/>
<polygon fill="black" stroke="black" points="977.66,-746.47 985.99,-739.92 975.4,-739.84 977.66,-746.47"/>
</g>
<!-- kernel&#45;sat&#45;&gt;hol&#45;eval -->
<g id="edge93" class="edge">
<title>kernel&#45;sat&#45;&gt;hol&#45;eval</title>
<path fill="none" stroke="black" d="M627.74,-975.51C665.7,-974.72 723.03,-969.98 768.75,-950.86 787.45,-943.04 787.49,-933.49 804.75,-922.86 811.96,-918.42 819.87,-914.16 827.67,-910.28"/>
<polygon fill="black" stroke="black" points="828.92,-913.56 836.42,-906.07 825.89,-907.25 828.92,-913.56"/>
</g>
<!-- kernel&#45;sat&#45;&gt;init -->
<g id="edge94" class="edge">
<title>kernel&#45;sat&#45;&gt;init</title>
<path fill="none" stroke="black" d="M627.8,-988.91C645.65,-995.02 666.42,-1002.13 683.83,-1008.09"/>
<polygon fill="black" stroke="black" points="682.7,-1011.4 693.29,-1011.33 684.96,-1004.78 682.7,-1011.4"/>
</g>
<!-- sat -->
<g id="node54" class="node">
<title>sat</title>
<polygon fill="none" stroke="black" points="900.12,-1802.86 846.12,-1802.86 846.12,-1766.86 900.12,-1766.86 900.12,-1802.86"/>
<text text-anchor="middle" x="873.12" y="-1780.56" font-family="sans-serif" font-size="14.00">sat</text>
</g>
<!-- kernel&#45;sat&#45;&gt;sat -->
<g id="edge95" class="edge">
<title>kernel&#45;sat&#45;&gt;sat</title>
<path fill="none" stroke="black" d="M590.9,-993.22C607,-1064.4 665,-1320.01 675.5,-1355.86 723.77,-1520.61 711.78,-1575.54 804.75,-1719.86 814.1,-1734.37 827.29,-1748.03 839.52,-1759.05"/>
<polygon fill="black" stroke="black" points="837.21,-1761.67 847.05,-1765.58 841.79,-1756.38 837.21,-1761.67"/>
</g>
<!-- kernel&#45;smt -->
<g id="node30" class="node">
<title>kernel&#45;smt</title>
<polygon fill="none" stroke="black" points="494.5,-423.86 406.5,-423.86 406.5,-387.86 494.5,-387.86 494.5,-423.86"/>
<text text-anchor="middle" x="450.5" y="-401.56" font-family="sans-serif" font-size="14.00">kernel&#45;smt</text>
</g>
<!-- kernel&#45;smt&#45;&gt;core -->
<g id="edge96" class="edge">
<title>kernel&#45;smt&#45;&gt;core</title>
<path fill="none" stroke="black" d="M494.7,-396.12C588.46,-377.72 812.5,-348.98 941.5,-459.86 978.27,-491.46 1001.56,-637.92 1010.09,-701.39"/>
<polygon fill="black" stroke="black" points="1006.58,-701.61 1011.35,-711.07 1013.53,-700.7 1006.58,-701.61"/>
</g>
<!-- kernel&#45;smt&#45;&gt;hol&#45;api -->
<g id="edge97" class="edge">
<title>kernel&#45;smt&#45;&gt;hol&#45;api</title>
<path fill="none" stroke="black" d="M494.39,-424.21C510.22,-430.98 528.1,-438.62 543.75,-445.32"/>
<polygon fill="black" stroke="black" points="542.22,-448.47 552.79,-449.19 544.97,-442.03 542.22,-448.47"/>
</g>
<!-- kv -->
<g id="node31" class="node">
<title>kv</title>
<polygon fill="none" stroke="black" points="226.12,-2581.86 172.12,-2581.86 172.12,-2545.86 226.12,-2545.86 226.12,-2581.86"/>
<text text-anchor="middle" x="199.12" y="-2559.56" font-family="sans-serif" font-size="14.00">kv</text>
</g>
<!-- lean -->
<g id="node32" class="node">
<title>lean</title>
<polygon fill="none" stroke="black" points="87.5,-2434.86 33.5,-2434.86 33.5,-2398.86 87.5,-2398.86 87.5,-2434.86"/>
<text text-anchor="middle" x="60.5" y="-2412.56" font-family="sans-serif" font-size="14.00">lean</text>
</g>
<!-- lisp -->
<g id="node33" class="node">
<title>lisp</title>
<polygon fill="none" stroke="black" points="477.5,-1076.86 423.5,-1076.86 423.5,-1040.86 477.5,-1040.86 477.5,-1076.86"/>
<text text-anchor="middle" x="450.5" y="-1054.56" font-family="sans-serif" font-size="14.00">lisp</text>
</g>
<!-- lisp&#45;&gt;core -->
<g id="edge98" class="edge">
<title>lisp&#45;&gt;core</title>
<path fill="none" stroke="black" d="M456.85,-1040.75C466.98,-1009.14 491.6,-943.33 532,-901.86 628.39,-802.91 672.89,-794 804.75,-752.86 862.57,-734.82 933.28,-730.92 975.86,-730.41"/>
<polygon fill="black" stroke="black" points="975.85,-733.91 985.83,-730.36 975.81,-726.91 975.85,-733.91"/>
</g>
<!-- lisp&#45;&gt;hol&#45;api -->
<g id="edge99" class="edge">
<title>lisp&#45;&gt;hol&#45;api</title>
<path fill="none" stroke="black" d="M455.63,-1040.37C474.75,-954.85 554.67,-597.42 578.2,-492.15"/>
<polygon fill="black" stroke="black" points="581.57,-493.13 580.33,-482.61 574.74,-491.61 581.57,-493.13"/>
</g>
<!-- lisp&#45;&gt;hol&#45;eval -->
<g id="edge100" class="edge">
<title>lisp&#45;&gt;hol&#45;eval</title>
<path fill="none" stroke="black" d="M459.33,-1040.44C471.13,-1015.12 495.98,-970.17 532,-947.86 624.62,-890.47 757.42,-885.87 826.48,-888.01"/>
<polygon fill="black" stroke="black" points="826.17,-891.5 836.3,-888.38 826.44,-884.5 826.17,-891.5"/>
</g>
<!-- lisp&#45;&gt;init -->
<g id="edge101" class="edge">
<title>lisp&#45;&gt;init</title>
<path fill="none" stroke="black" d="M477.7,-1055.87C514.08,-1051.65 581.9,-1043.47 639.5,-1034.86 653.94,-1032.7 669.77,-1030.05 683.62,-1027.64"/>
<polygon fill="black" stroke="black" points="683.97,-1031.13 693.21,-1025.95 682.76,-1024.24 683.97,-1031.13"/>
</g>
<!-- lisp&#45;&gt;repl&#45;core -->
<g id="edge102" class="edge">
<title>lisp&#45;&gt;repl&#45;core</title>
<path fill="none" stroke="black" d="M453.94,-1077.29C460.84,-1125.6 483.28,-1259.02 532,-1358.86 539.52,-1374.26 550.63,-1389.67 560.73,-1402.09"/>
<polygon fill="black" stroke="black" points="557.75,-1403.98 566.86,-1409.4 563.11,-1399.49 557.75,-1403.98"/>
</g>
<!-- lisp&#45;&gt;sexp -->
<g id="edge103" class="edge">
<title>lisp&#45;&gt;sexp</title>
<path fill="none" stroke="black" d="M452.49,-1077.29C455.86,-1122.89 470.41,-1242.47 532,-1314.86 566.65,-1355.58 595.94,-1337.86 639.5,-1368.86 657.68,-1381.79 657.75,-1390.33 675.5,-1403.86 682.12,-1408.91 796.71,-1477.67 804.75,-1479.86 862.99,-1495.71 933.8,-1490.54 976.24,-1484.97"/>
<polygon fill="black" stroke="black" points="976.51,-1488.47 985.93,-1483.62 975.54,-1481.54 976.51,-1488.47"/>
</g>
<!-- sexpr&#45;api -->
<g id="node57" class="node">
<title>sexpr&#45;api</title>
<polygon fill="none" stroke="black" points="760.88,-366.86 683.38,-366.86 683.38,-330.86 760.88,-330.86 760.88,-366.86"/>
<text text-anchor="middle" x="722.12" y="-344.56" font-family="sans-serif" font-size="14.00">sexpr&#45;api</text>
</g>
<!-- lisp&#45;&gt;sexpr&#45;api -->
<g id="edge104" class="edge">
<title>lisp&#45;&gt;sexpr&#45;api</title>
<path fill="none" stroke="black" d="M458.04,-1040.39C471.59,-1002.26 503.78,-912.1 532,-836.86 597.7,-661.66 680.08,-452.55 709.79,-377.45"/>
<polygon fill="black" stroke="black" points="712.96,-378.96 713.38,-368.38 706.45,-376.39 712.96,-378.96"/>
</g>
<!-- lisp&#45;&gt;types -->
<g id="edge105" class="edge">
<title>lisp&#45;&gt;types</title>
<path fill="none" stroke="black" d="M453.6,-1077.25C460.82,-1141.27 484.8,-1360.31 496,-1541.86 499.93,-1605.6 491.28,-2641.66 532,-2690.86 560.92,-2725.8 799.63,-2785.86 1013.75,-2785.86 1013.75,-2785.86 1013.75,-2785.86 1251.75,-2785.86 1439.43,-2785.86 1487.99,-1238.4 1494.26,-1004.36"/>
<polygon fill="black" stroke="black" points="1497.75,-1004.68 1494.51,-994.59 1490.75,-1004.49 1497.75,-1004.68"/>
</g>
<!-- llm -->
<g id="node34" class="node">
<title>llm</title>
<polygon fill="none" stroke="black" points="226.12,-2242.86 172.12,-2242.86 172.12,-2206.86 226.12,-2206.86 226.12,-2242.86"/>
<text text-anchor="middle" x="199.12" y="-2220.56" font-family="sans-serif" font-size="14.00">llm</text>
</g>
<!-- llm&#45;&gt;proto -->
<g id="edge106" class="edge">
<title>llm&#45;&gt;proto</title>
<path fill="none" stroke="black" d="M226.6,-2233.1C243.62,-2238.41 266,-2245.38 284.82,-2251.24"/>
<polygon fill="black" stroke="black" points="283.67,-2254.55 294.26,-2254.18 285.75,-2247.86 283.67,-2254.55"/>
</g>
<!-- lsp&#45;&gt;sexp -->
<g id="edge107" class="edge">
<title>lsp&#45;&gt;sexp</title>
<path fill="none" stroke="black" d="M900.3,-1687.69C914.11,-1683.76 930.43,-1677.06 941.5,-1665.86 944.43,-1662.89 983.57,-1559.27 1002.99,-1507.59"/>
<polygon fill="black" stroke="black" points="1006.15,-1509.12 1006.39,-1498.52 999.6,-1506.66 1006.15,-1509.12"/>
</g>
<!-- lsp&#45;&gt;wasm -->
<g id="edge108" class="edge">
<title>lsp&#45;&gt;wasm</title>
<path fill="none" stroke="black" d="M900.38,-1710.75C915.13,-1722.34 932.36,-1738.81 941.5,-1757.86 958.31,-1792.9 1001.54,-2379.67 1011.63,-2519.24"/>
<polygon fill="black" stroke="black" points="1008.13,-2519.4 1012.34,-2529.12 1015.11,-2518.89 1008.13,-2519.4"/>
</g>
<!-- metamath&#45;&gt;parse -->
<g id="edge109" class="edge">
<title>metamath&#45;&gt;parse</title>
<path fill="none" stroke="black" d="M913.52,-1653.19C922.85,-1656.98 932.65,-1661.3 941.5,-1665.86 996.58,-1694.25 1056.19,-1734.37 1092.54,-1760"/>
<polygon fill="black" stroke="black" points="1090.29,-1762.69 1100.47,-1765.63 1094.34,-1756.99 1090.29,-1762.69"/>
</g>
<!-- metamath&#45;&gt;sexp -->
<g id="edge110" class="edge">
<title>metamath&#45;&gt;sexp</title>
<path fill="none" stroke="black" d="M913.72,-1624.98C923.55,-1620.27 933.54,-1614.27 941.5,-1606.86 971.33,-1579.06 992.07,-1536.09 1003.45,-1507.73"/>
<polygon fill="black" stroke="black" points="1006.6,-1509.27 1006.94,-1498.68 1000.07,-1506.75 1006.6,-1509.27"/>
</g>
<!-- multiformat -->
<g id="node38" class="node">
<title>multiformat</title>
<polygon fill="none" stroke="black" points="767.25,-1770.86 677,-1770.86 677,-1734.86 767.25,-1734.86 767.25,-1770.86"/>
<text text-anchor="middle" x="722.12" y="-1748.56" font-family="sans-serif" font-size="14.00">multiformat</text>
</g>
<!-- multiformat&#45;&gt;acset -->
<g id="edge111" class="edge">
<title>multiformat&#45;&gt;acset</title>
<path fill="none" stroke="black" d="M749.76,-1771.33C756.02,-1775.72 762.64,-1780.43 768.75,-1784.86 784.94,-1796.6 787.32,-1802.05 804.75,-1811.86 814.27,-1817.21 825.06,-1822.03 835.18,-1826.07"/>
<polygon fill="black" stroke="black" points="833.79,-1829.29 844.38,-1829.59 836.29,-1822.75 833.79,-1829.29"/>
</g>
<!-- multiformat&#45;&gt;hash -->
<g id="edge112" class="edge">
<title>multiformat&#45;&gt;hash</title>
<path fill="none" stroke="black" d="M754.98,-1771.06C760.11,-1775.09 764.98,-1779.71 768.75,-1784.86 800.16,-1827.71 784.29,-1849.82 804.75,-1898.86 819.62,-1934.51 840.94,-1973.52 855.6,-1998.99"/>
<polygon fill="black" stroke="black" points="852.43,-2000.51 860.48,-2007.4 858.48,-1996.99 852.43,-2000.51"/>
</g>
<!-- multiformat&#45;&gt;parse -->
<g id="edge113" class="edge">
<title>multiformat&#45;&gt;parse</title>
<path fill="none" stroke="black" d="M763.66,-1771.08C765.48,-1772.57 767.19,-1774.16 768.75,-1775.86 797.87,-1807.61 769.08,-1841.71 804.75,-1865.86 896.08,-1927.69 1030.75,-1851.91 1093.02,-1809.64"/>
<polygon fill="black" stroke="black" points="1094.9,-1812.59 1101.13,-1804.03 1090.92,-1806.84 1094.9,-1812.59"/>
</g>
<!-- numerals -->
<g id="node39" class="node">
<title>numerals</title>
<polygon fill="none" stroke="black" points="624.12,-1251.86 547.38,-1251.86 547.38,-1215.86 624.12,-1215.86 624.12,-1251.86"/>
<text text-anchor="middle" x="585.75" y="-1229.56" font-family="sans-serif" font-size="14.00">numerals</text>
</g>
<!-- numerals&#45;&gt;grammar -->
<g id="edge114" class="edge">
<title>numerals&#45;&gt;grammar</title>
<path fill="none" stroke="black" d="M623.44,-1215.39C629.26,-1211.44 634.87,-1206.91 639.5,-1201.86 663.94,-1175.19 647.24,-1151.45 675.5,-1128.86 722.99,-1090.89 882.74,-1080.46 941.5,-1064.86 949.57,-1062.71 958.12,-1060.33 966.4,-1057.96"/>
<polygon fill="black" stroke="black" points="967.37,-1061.33 976,-1055.19 965.43,-1054.6 967.37,-1061.33"/>
</g>
<!-- numerals&#45;&gt;hol&#45;eval -->
<g id="edge115" class="edge">
<title>numerals&#45;&gt;hol&#45;eval</title>
<path fill="none" stroke="black" d="M624.62,-1215.55C630.16,-1211.63 635.38,-1207.06 639.5,-1201.86 671.69,-1161.19 641.06,-1129.64 675.5,-1090.86 705.8,-1056.73 739.02,-1082.48 768.75,-1047.86 806.42,-1004 767.33,-966.93 804.75,-922.86 810.89,-915.63 819.03,-909.92 827.52,-905.45"/>
<polygon fill="black" stroke="black" points="828.99,-908.62 836.57,-901.23 826.03,-902.28 828.99,-908.62"/>
</g>
<!-- numerals&#45;&gt;init -->
<g id="edge116" class="edge">
<title>numerals&#45;&gt;init</title>
<path fill="none" stroke="black" d="M624.43,-1216.2C630.13,-1212.16 635.45,-1207.39 639.5,-1201.86 679.71,-1146.86 637.14,-1109.16 675.5,-1052.86 678.33,-1048.7 681.9,-1044.91 685.79,-1041.51"/>
<polygon fill="black" stroke="black" points="687.65,-1044.49 693.44,-1035.62 683.38,-1038.94 687.65,-1044.49"/>
</g>
<!-- numerals&#45;&gt;types -->
<g id="edge117" class="edge">
<title>numerals&#45;&gt;types</title>
<path fill="none" stroke="black" d="M620.78,-1215.44C673.17,-1188.85 777.48,-1142.86 872.12,-1142.86 872.12,-1142.86 872.12,-1142.86 1251.75,-1142.86 1349.67,-1142.86 1436.74,-1049.55 1474.75,-1002.01"/>
<polygon fill="black" stroke="black" points="1477.34,-1004.38 1480.75,-994.35 1471.83,-1000.06 1477.34,-1004.38"/>
</g>
<!-- object&#45;&gt;hash -->
<g id="edge118" class="edge">
<title>object&#45;&gt;hash</title>
<path fill="none" stroke="black" d="M749.21,-1939.09C755.61,-1943.58 762.43,-1948.38 768.75,-1952.86 791.65,-1969.09 817.32,-1987.46 837.34,-2001.83"/>
<polygon fill="black" stroke="black" points="835.29,-2004.67 845.45,-2007.66 839.37,-1998.98 835.29,-2004.67"/>
</g>
<!-- object&#45;&gt;parse -->
<g id="edge119" class="edge">
<title>object&#45;&gt;parse</title>
<path fill="none" stroke="black" d="M750.87,-1922.67C810.39,-1925.25 952.96,-1924.44 1052,-1866.86 1075.03,-1853.47 1095.01,-1830.65 1108.52,-1812.47"/>
<polygon fill="black" stroke="black" points="1111.3,-1814.6 1114.28,-1804.44 1105.61,-1810.53 1111.3,-1814.6"/>
</g>
<!-- opentheory&#45;&gt;core -->
<g id="edge120" class="edge">
<title>opentheory&#45;&gt;core</title>
<path fill="none" stroke="black" d="M496.26,-567.29C588.26,-534.35 801.66,-474.43 941.5,-565.86 987.54,-595.96 1004.42,-662.58 1010.48,-701.34"/>
<polygon fill="black" stroke="black" points="1007,-701.71 1011.85,-711.13 1013.93,-700.74 1007,-701.71"/>
</g>
<!-- opentheory&#45;&gt;hol -->
<g id="edge121" class="edge">
<title>opentheory&#45;&gt;hol</title>
<path fill="none" stroke="black" d="M496.12,-585.71C579.37,-587.29 756.98,-590.67 834.56,-592.14"/>
<polygon fill="black" stroke="black" points="834.11,-595.64 844.18,-592.33 834.25,-588.64 834.11,-595.64"/>
</g>
<!-- opentheory&#45;&gt;hol&#45;api -->
<g id="edge122" class="edge">
<title>opentheory&#45;&gt;hol&#45;api</title>
<path fill="none" stroke="black" d="M471.45,-566.59C494.02,-545.93 530.95,-512.12 556.48,-488.74"/>
<polygon fill="black" stroke="black" points="558.54,-491.6 563.55,-482.27 553.81,-486.44 558.54,-491.6"/>
</g>
<!-- opentheory&#45;&gt;hol&#45;eval -->
<g id="edge123" class="edge">
<title>opentheory&#45;&gt;hol&#45;eval</title>
<path fill="none" stroke="black" d="M476.86,-603.31C549.04,-655.81 755.61,-806.09 837.79,-865.88"/>
<polygon fill="black" stroke="black" points="835.36,-868.44 845.5,-871.49 839.48,-862.78 835.36,-868.44"/>
</g>
<!-- parquet -->
<g id="node42" class="node">
<title>parquet</title>
<polygon fill="none" stroke="black" points="484,-1998.86 417,-1998.86 417,-1962.86 484,-1962.86 484,-1998.86"/>
<text text-anchor="middle" x="450.5" y="-1976.56" font-family="sans-serif" font-size="14.00">parquet</text>
</g>
<!-- parquet&#45;&gt;arrow -->
<g id="edge124" class="edge">
<title>parquet&#45;&gt;arrow</title>
<path fill="none" stroke="black" d="M484.44,-1980.86C503.42,-1980.86 527.35,-1980.86 547.08,-1980.86"/>
<polygon fill="black" stroke="black" points="546.92,-1984.36 556.92,-1980.86 546.92,-1977.36 546.92,-1984.36"/>
</g>
<!-- parsing&#45;api&#45;&gt;logic&#45;api -->
<g id="edge125" class="edge">
<title>parsing&#45;api&#45;&gt;logic&#45;api</title>
<path fill="none" stroke="black" d="M913.41,-237.27C922.65,-241.67 932.44,-246.39 941.5,-250.86 950.13,-255.12 959.3,-259.73 968.1,-264.22"/>
<polygon fill="black" stroke="black" points="966.37,-267.26 976.86,-268.7 969.55,-261.03 966.37,-267.26"/>
</g>
<!-- proptest -->
<g id="node45" class="node">
<title>proptest</title>
<polygon fill="none" stroke="black" points="95.88,-2488.86 25.12,-2488.86 25.12,-2452.86 95.88,-2452.86 95.88,-2488.86"/>
<text text-anchor="middle" x="60.5" y="-2466.56" font-family="sans-serif" font-size="14.00">proptest</text>
</g>
<!-- pure&#45;trusted -->
<g id="node49" class="node">
<title>pure&#45;trusted</title>
<polygon fill="#ffd6d6" stroke="black" points="1433,-864.86 1333.75,-864.86 1333.75,-828.86 1433,-828.86 1433,-864.86"/>
<text text-anchor="middle" x="1383.38" y="-842.56" font-family="sans-serif" font-size="14.00">pure&#45;trusted</text>
</g>
<!-- pure&#45;&gt;pure&#45;trusted -->
<g id="edge126" class="edge">
<title>pure&#45;&gt;pure&#45;trusted</title>
<path fill="none" stroke="black" d="M1278.18,-845.26C1290.9,-845.46 1306.71,-845.7 1322.14,-845.94"/>
<polygon fill="black" stroke="black" points="1321.69,-849.43 1331.75,-846.08 1321.8,-842.43 1321.69,-849.43"/>
</g>
<!-- pure&#45;eval&#45;&gt;pure -->
<g id="edge127" class="edge">
<title>pure&#45;eval&#45;&gt;pure</title>
<path fill="none" stroke="black" d="M1168.12,-875.92C1182.51,-870.45 1198.74,-864.27 1212.91,-858.88"/>
<polygon fill="black" stroke="black" points="1213.77,-862.29 1221.87,-855.47 1211.28,-855.75 1213.77,-862.29"/>
</g>
<!-- pure&#45;eval&#45;&gt;types -->
<g id="edge128" class="edge">
<title>pure&#45;eval&#45;&gt;types</title>
<path fill="none" stroke="black" d="M1168.12,-887.87C1227.86,-884.86 1344.05,-885.11 1433,-922.86 1446.84,-928.73 1459.95,-938.78 1470.51,-948.49"/>
<polygon fill="black" stroke="black" points="1468.04,-950.97 1477.66,-955.42 1472.91,-945.95 1468.04,-950.97"/>
</g>
<!-- pure&#45;trusted&#45;&gt;types -->
<g id="edge129" class="edge">
<title>pure&#45;trusted&#45;&gt;types</title>
<path fill="none" stroke="black" d="M1414.59,-865.33C1421.04,-869.97 1427.54,-875.25 1433,-880.86 1452.07,-900.45 1468.81,-926.69 1480.07,-946.47"/>
<polygon fill="black" stroke="black" points="1476.95,-948.06 1484.86,-955.11 1483.07,-944.67 1476.95,-948.06"/>
</g>
<!-- python -->
<g id="node50" class="node">
<title>python</title>
<polygon fill="none" stroke="black" points="91.38,-2326.86 29.62,-2326.86 29.62,-2290.86 91.38,-2290.86 91.38,-2326.86"/>
<text text-anchor="middle" x="60.5" y="-2304.56" font-family="sans-serif" font-size="14.00">python</text>
</g>
<!-- python&#45;&gt;crypto&#45;sig -->
<g id="edge130" class="edge">
<title>python&#45;&gt;crypto&#45;sig</title>
<path fill="none" stroke="black" d="M91.73,-2316C102.57,-2320.07 113.86,-2326.32 121,-2335.86 187.44,-2424.63 101.42,-2490 158.4,-2589.74"/>
<polygon fill="black" stroke="black" points="155.37,-2591.51 163.58,-2598.21 161.35,-2587.86 155.37,-2591.51"/>
</g>
<!-- python&#45;&gt;git -->
<g id="edge131" class="edge">
<title>python&#45;&gt;git</title>
<path fill="none" stroke="black" d="M91.78,-2321.56C147.11,-2343.08 268.13,-2382.39 369,-2360.86 384,-2357.66 399.6,-2351.44 413.02,-2345.07"/>
<polygon fill="black" stroke="black" points="414.51,-2348.24 421.91,-2340.65 411.4,-2341.97 414.51,-2348.24"/>
</g>
<!-- python&#45;&gt;graph -->
<g id="edge132" class="edge">
<title>python&#45;&gt;graph</title>
<path fill="none" stroke="black" d="M91.79,-2308.69C147.14,-2308 268.2,-2304.76 369,-2289.86 383.32,-2287.74 398.84,-2284.35 412.39,-2281.01"/>
<polygon fill="black" stroke="black" points="412.96,-2284.48 421.78,-2278.62 411.23,-2277.69 412.96,-2284.48"/>
</g>
<!-- python&#45;&gt;hash -->
<g id="edge133" class="edge">
<title>python&#45;&gt;hash</title>
<path fill="none" stroke="black" d="M91.72,-2320.58C101.38,-2324.84 111.92,-2330.06 121,-2335.86 138.79,-2347.22 137.56,-2358.61 157,-2366.86 295.85,-2425.74 351.61,-2395.42 496,-2351.86 624.75,-2313.01 674.83,-2317.11 768.75,-2220.86 816.28,-2172.15 847.75,-2097.17 862.47,-2056.15"/>
<polygon fill="black" stroke="black" points="865.77,-2057.32 865.76,-2046.72 859.17,-2055.01 865.77,-2057.32"/>
</g>
<!-- python&#45;&gt;kv -->
<g id="edge134" class="edge">
<title>python&#45;&gt;kv</title>
<path fill="none" stroke="black" d="M91.84,-2316.28C102.56,-2320.36 113.74,-2326.56 121,-2335.86 175.53,-2405.65 111.04,-2456.15 157,-2531.86 158.82,-2534.85 161.03,-2537.68 163.47,-2540.31"/>
<polygon fill="black" stroke="black" points="161.03,-2542.82 170.75,-2547.03 165.77,-2537.67 161.03,-2542.82"/>
</g>
<!-- python&#45;&gt;llm -->
<g id="edge135" class="edge">
<title>python&#45;&gt;llm</title>
<path fill="none" stroke="black" d="M91.48,-2290.42C112.33,-2277.61 140.21,-2260.46 162.24,-2246.92"/>
<polygon fill="black" stroke="black" points="163.92,-2249.99 170.61,-2241.77 160.26,-2244.03 163.92,-2249.99"/>
</g>
<!-- python&#45;&gt;object -->
<g id="edge136" class="edge">
<title>python&#45;&gt;object</title>
<path fill="none" stroke="black" d="M65.66,-2290.44C80.84,-2228.3 139.68,-2026.19 277.25,-1953.86 411.54,-1883.25 600.94,-1901.54 681.92,-1913.9"/>
<polygon fill="black" stroke="black" points="681.15,-1917.32 691.57,-1915.43 682.24,-1910.4 681.15,-1917.32"/>
</g>
<!-- python&#45;&gt;repl -->
<g id="edge137" class="edge">
<title>python&#45;&gt;repl</title>
<path fill="none" stroke="black" d="M75.88,-2290.76C119.21,-2236.23 248.68,-2073.29 300.42,-2008.18"/>
<polygon fill="black" stroke="black" points="303.04,-2010.5 306.52,-2000.49 297.56,-2006.14 303.04,-2010.5"/>
</g>
<!-- python&#45;&gt;sat -->
<g id="edge138" class="edge">
<title>python&#45;&gt;sat</title>
<path fill="none" stroke="black" d="M63.41,-2290.55C69.57,-2237.99 92.4,-2083.44 157,-1974.86 195.28,-1910.51 213.29,-1895.8 277.25,-1856.86 436.4,-1759.96 491.52,-1755.34 675.5,-1725.86 716.42,-1719.3 728.69,-1715.23 768.75,-1725.86 772.52,-1726.86 807.89,-1747.25 836.22,-1763.79"/>
<polygon fill="black" stroke="black" points="834.18,-1766.65 844.58,-1768.67 837.71,-1760.6 834.18,-1766.65"/>
</g>
<!-- python&#45;&gt;serve -->
<g id="edge139" class="edge">
<title>python&#45;&gt;serve</title>
<path fill="none" stroke="black" d="M65.38,-2290.62C77.8,-2232.59 118.03,-2047.06 157,-1894.86 167.44,-1854.09 180.87,-1807.34 189.49,-1777.95"/>
<polygon fill="black" stroke="black" points="192.75,-1779.25 192.22,-1768.67 186.04,-1777.27 192.75,-1779.25"/>
</g>
<!-- python&#45;&gt;sexp -->
<g id="edge140" class="edge">
<title>python&#45;&gt;sexp</title>
<path fill="none" stroke="black" d="M63.07,-2290.55C71.97,-2188.56 117.02,-1693.14 157,-1638.86 367.05,-1353.69 592.45,-1558.91 941.5,-1498.86 952.92,-1496.89 965.14,-1493.87 976.22,-1490.77"/>
<polygon fill="black" stroke="black" points="977.2,-1494.13 985.82,-1487.98 975.24,-1487.41 977.2,-1494.13"/>
</g>
<!-- python&#45;&gt;shell -->
<g id="edge141" class="edge">
<title>python&#45;&gt;shell</title>
<path fill="none" stroke="black" d="M62.75,-2290.44C69.01,-2202.21 98.93,-1822.9 157,-1721.86 211.28,-1627.41 346.22,-1588.87 412.11,-1575.28"/>
<polygon fill="black" stroke="black" points="412.58,-1578.75 421.71,-1573.39 411.23,-1571.89 412.58,-1578.75"/>
</g>
<!-- python&#45;&gt;store -->
<g id="edge142" class="edge">
<title>python&#45;&gt;store</title>
<path fill="none" stroke="black" d="M91.8,-2316.68C102.38,-2320.8 113.48,-2326.91 121,-2335.86 162.07,-2384.7 113.08,-2428.56 157,-2474.86 195.58,-2515.52 222.64,-2500.24 277.25,-2512.86 434.98,-2549.3 494.25,-2622.33 639.5,-2550.86 656.65,-2542.42 685.49,-2501.01 703.9,-2472.52"/>
<polygon fill="black" stroke="black" points="706.69,-2474.65 709.12,-2464.33 700.79,-2470.88 706.69,-2474.65"/>
</g>
<!-- python&#45;&gt;wasm -->
<g id="edge143" class="edge">
<title>python&#45;&gt;wasm</title>
<path fill="none" stroke="black" d="M91.61,-2315.75C102.56,-2319.8 113.97,-2326.1 121,-2335.86 211.37,-2461.31 75.37,-2550.55 157,-2681.86 202.79,-2755.52 235.39,-2785.86 322.12,-2785.86 322.12,-2785.86 322.12,-2785.86 586.75,-2785.86 747.12,-2785.86 816.55,-2820.38 941.5,-2719.86 985.55,-2684.42 1003.16,-2617.25 1009.88,-2578.48"/>
<polygon fill="black" stroke="black" points="1013.32,-2579.11 1011.42,-2568.69 1006.4,-2578.02 1013.32,-2579.11"/>
</g>
<!-- wasm&#45;store -->
<g id="node69" class="node">
<title>wasm&#45;store</title>
<polygon fill="none" stroke="black" points="633.12,-2681.86 538.38,-2681.86 538.38,-2645.86 633.12,-2645.86 633.12,-2681.86"/>
<text text-anchor="middle" x="585.75" y="-2659.56" font-family="sans-serif" font-size="14.00">wasm&#45;store</text>
</g>
<!-- python&#45;&gt;wasm&#45;store -->
<g id="edge144" class="edge">
<title>python&#45;&gt;wasm&#45;store</title>
<path fill="none" stroke="black" d="M91.85,-2315.91C102.71,-2319.97 113.98,-2326.24 121,-2335.86 161.75,-2391.7 106.4,-2597.76 157,-2644.86 257.55,-2738.45 435.82,-2706.83 527.21,-2681.99"/>
<polygon fill="black" stroke="black" points="528.04,-2685.39 536.73,-2679.33 526.15,-2678.65 528.04,-2685.39"/>
</g>
<!-- repl&#45;&gt;arrow -->
<g id="edge145" class="edge">
<title>repl&#45;&gt;arrow</title>
<path fill="none" stroke="black" d="M350.54,-1992.08C366.08,-1998.07 386.3,-2004.82 405,-2007.86 444.92,-2014.35 456,-2013.81 496,-2007.86 513.31,-2005.28 531.9,-2000.03 547.58,-1994.84"/>
<polygon fill="black" stroke="black" points="548.68,-1998.16 556.99,-1991.6 546.4,-1991.55 548.68,-1998.16"/>
</g>
<!-- repl&#45;&gt;forsp -->
<g id="edge146" class="edge">
<title>repl&#45;&gt;forsp</title>
<path fill="none" stroke="black" d="M337.41,-1962.47C346.98,-1948.7 359.78,-1929.17 369,-1910.86 400.64,-1848.02 427.33,-1769.61 440.57,-1727.99"/>
<polygon fill="black" stroke="black" points="443.82,-1729.3 443.48,-1718.71 437.15,-1727.2 443.82,-1729.3"/>
</g>
<!-- repl&#45;&gt;git -->
<g id="edge147" class="edge">
<title>repl&#45;&gt;git</title>
<path fill="none" stroke="black" d="M328.64,-1999.33C344.99,-2066.14 400.39,-2291.64 405,-2297.86 407.51,-2301.25 410.6,-2304.31 413.95,-2307.03"/>
<polygon fill="black" stroke="black" points="411.82,-2309.81 422.03,-2312.63 415.8,-2304.06 411.82,-2309.81"/>
</g>
<!-- repl&#45;&gt;graph -->
<g id="edge148" class="edge">
<title>repl&#45;&gt;graph</title>
<path fill="none" stroke="black" d="M328.31,-1999.36C340.38,-2051.59 376.21,-2199 405,-2238.86 407.62,-2242.49 410.78,-2245.86 414.19,-2248.95"/>
<polygon fill="black" stroke="black" points="411.86,-2251.57 421.85,-2255.09 416.24,-2246.11 411.86,-2251.57"/>
</g>
<!-- repl&#45;&gt;hash -->
<g id="edge149" class="edge">
<title>repl&#45;&gt;hash</title>
<path fill="none" stroke="black" d="M350.48,-1999.06C365.68,-2008.45 385.57,-2018.95 405,-2023.86 560.5,-2063.16 754.54,-2043.53 834.76,-2032.56"/>
<polygon fill="black" stroke="black" points="834.83,-2036.09 844.25,-2031.23 833.86,-2029.15 834.83,-2036.09"/>
</g>
<!-- repl&#45;&gt;init -->
<g id="edge150" class="edge">
<title>repl&#45;&gt;init</title>
<path fill="none" stroke="black" d="M339.03,-1962.42C349.13,-1948.94 361.88,-1929.77 369,-1910.86 406.82,-1810.32 352.35,-1765.49 405,-1671.86 430.83,-1625.93 471.5,-1642.51 496,-1595.86 536.37,-1519 480.07,-1276.42 532,-1206.86 562.78,-1165.62 604.77,-1201.83 639.5,-1163.86 677.08,-1122.77 639.73,-1086.53 675.5,-1043.86 678.22,-1040.61 681.52,-1037.77 685.09,-1035.3"/>
<polygon fill="black" stroke="black" points="686.71,-1038.41 693.61,-1030.37 683.2,-1032.35 686.71,-1038.41"/>
</g>
<!-- repl&#45;&gt;object -->
<g id="edge151" class="edge">
<title>repl&#45;&gt;object</title>
<path fill="none" stroke="black" d="M350.31,-1970.5C365.95,-1964.72 386.34,-1957.9 405,-1953.86 503.34,-1932.58 621.97,-1924.87 682.1,-1922.2"/>
<polygon fill="black" stroke="black" points="681.96,-1925.7 691.81,-1921.79 681.67,-1918.71 681.96,-1925.7"/>
</g>
<!-- repl&#45;&gt;parquet -->
<g id="edge152" class="edge">
<title>repl&#45;&gt;parquet</title>
<path fill="none" stroke="black" d="M350.41,-1980.86C366.27,-1980.86 386.89,-1980.86 405.21,-1980.86"/>
<polygon fill="black" stroke="black" points="405.03,-1984.36 415.03,-1980.86 405.03,-1977.36 405.03,-1984.36"/>
</g>
<!-- repl&#45;&gt;shell -->
<g id="edge153" class="edge">
<title>repl&#45;&gt;shell</title>
<path fill="none" stroke="black" d="M339.14,-1962.46C349.28,-1948.99 362.05,-1929.84 369,-1910.86 410.91,-1796.34 363.31,-1753.45 405,-1638.86 410.44,-1623.91 419.47,-1608.83 427.98,-1596.51"/>
<polygon fill="black" stroke="black" points="430.74,-1598.67 433.73,-1588.51 425.05,-1594.59 430.74,-1598.67"/>
</g>
<!-- repl&#45;&gt;wasm -->
<g id="edge154" class="edge">
<title>repl&#45;&gt;wasm</title>
<path fill="none" stroke="black" d="M327.23,-1999.05C339.37,-2069.55 384.01,-2322.29 405,-2351.86 549.03,-2554.75 704.64,-2435.65 941.5,-2511.86 953.62,-2515.76 966.18,-2521.51 977.37,-2527.33"/>
<polygon fill="black" stroke="black" points="975.41,-2530.25 985.87,-2531.92 978.73,-2524.09 975.41,-2530.25"/>
</g>
<!-- sat&#45;&gt;parse -->
<g id="edge155" class="edge">
<title>sat&#45;&gt;parse</title>
<path fill="none" stroke="black" d="M900.22,-1784.86C945.15,-1784.86 1037.29,-1784.86 1089.19,-1784.86"/>
<polygon fill="black" stroke="black" points="1089.03,-1788.36 1099.03,-1784.86 1089.03,-1781.36 1089.03,-1788.36"/>
</g>
<!-- sat&#45;&gt;types -->
<g id="edge156" class="edge">
<title>sat&#45;&gt;types</title>
<path fill="none" stroke="black" d="M900.33,-1770.6C913.06,-1763.36 928.4,-1754.13 941.5,-1744.86 1029.15,-1682.8 1019.48,-1589.86 1126.88,-1589.86 1126.88,-1589.86 1126.88,-1589.86 1251.75,-1589.86 1374.7,-1589.86 1381.41,-1492.47 1433,-1380.86 1464.23,-1313.29 1485.76,-1085.89 1492.64,-1004.3"/>
<polygon fill="black" stroke="black" points="1496.12,-1004.7 1493.46,-994.44 1489.14,-1004.12 1496.12,-1004.7"/>
</g>
<!-- sat&#45;&gt;wasm -->
<g id="edge157" class="edge">
<title>sat&#45;&gt;wasm</title>
<path fill="none" stroke="black" d="M900.55,-1788.68C914.98,-1792.21 931.82,-1798.96 941.5,-1811.86 963.15,-1840.72 1002.39,-2385.71 1011.72,-2519.42"/>
<polygon fill="black" stroke="black" points="1008.21,-2519.47 1012.4,-2529.21 1015.2,-2518.99 1008.21,-2519.47"/>
</g>
<!-- serve&#45;&gt;core -->
<g id="edge158" class="edge">
<title>serve&#45;&gt;core</title>
<path fill="none" stroke="black" d="M200.57,-1730.43C204.34,-1593.27 236.43,-736.86 449.5,-736.86 449.5,-736.86 449.5,-736.86 586.75,-736.86 748.28,-736.86 792.43,-595.66 941.5,-657.86 963.72,-667.13 982.59,-686.92 995.47,-703.56"/>
<polygon fill="black" stroke="black" points="992.34,-705.21 1001.1,-711.18 997.97,-701.05 992.34,-705.21"/>
</g>
<!-- serve&#45;&gt;forsp -->
<g id="edge159" class="edge">
<title>serve&#45;&gt;forsp</title>
<path fill="none" stroke="black" d="M226.34,-1743.6C270.77,-1734.69 361.01,-1716.6 412.08,-1706.36"/>
<polygon fill="black" stroke="black" points="412.66,-1709.81 421.78,-1704.42 411.28,-1702.95 412.66,-1709.81"/>
</g>
<!-- serve&#45;&gt;git -->
<g id="edge160" class="edge">
<title>serve&#45;&gt;git</title>
<path fill="none" stroke="black" d="M202.47,-1767.13C211.11,-1832.61 242.46,-2054.98 277.25,-2116.86 304.64,-2165.58 337.91,-2156.42 369,-2202.86 394.12,-2240.38 376.13,-2263.14 405,-2297.86 407.56,-2300.94 410.57,-2303.76 413.8,-2306.32"/>
<polygon fill="black" stroke="black" points="411.8,-2309.2 422.02,-2312 415.78,-2303.44 411.8,-2309.2"/>
</g>
<!-- serve&#45;&gt;hash -->
<g id="edge161" class="edge">
<title>serve&#45;&gt;hash</title>
<path fill="none" stroke="black" d="M205.61,-1767.02C213.52,-1793.25 228.57,-1843.25 241.25,-1885.86 257.38,-1940.04 241.84,-1963.79 277.25,-2007.86 332.01,-2076.01 362.07,-2102.86 449.5,-2102.86 449.5,-2102.86 449.5,-2102.86 586.75,-2102.86 678.85,-2102.86 782.2,-2065.44 835.67,-2043.11"/>
<polygon fill="black" stroke="black" points="836.76,-2046.45 844.6,-2039.32 834.03,-2040.01 836.76,-2046.45"/>
</g>
<!-- serve&#45;&gt;init -->
<g id="edge162" class="edge">
<title>serve&#45;&gt;init</title>
<path fill="none" stroke="black" d="M209.53,-1730.66C258.28,-1636.52 481.91,-1207.58 532,-1163.86 570.77,-1130.02 602.09,-1156.2 639.5,-1120.86 666.96,-1094.91 649.19,-1070.96 675.5,-1043.86 678.39,-1040.88 681.74,-1038.23 685.3,-1035.87"/>
<polygon fill="black" stroke="black" points="686.73,-1039.09 693.68,-1031.09 683.26,-1033.01 686.73,-1039.09"/>
</g>
<!-- serve&#45;&gt;lisp -->
<g id="edge163" class="edge">
<title>serve&#45;&gt;lisp</title>
<path fill="none" stroke="black" d="M206.8,-1730.4C241.05,-1635.62 397.23,-1203.5 439.13,-1087.56"/>
<polygon fill="black" stroke="black" points="442.3,-1089.07 442.41,-1078.47 435.72,-1086.69 442.3,-1089.07"/>
</g>
<!-- serve&#45;&gt;metamath -->
<g id="edge164" class="edge">
<title>serve&#45;&gt;metamath</title>
<path fill="none" stroke="black" d="M226.31,-1750.53C290.89,-1754.08 455.49,-1759.53 496,-1725.86 542.1,-1687.53 484.28,-1632.16 532,-1595.86 576.38,-1562.09 738.03,-1600.8 821.49,-1623.97"/>
<polygon fill="black" stroke="black" points="820.45,-1627.31 831.03,-1626.65 822.34,-1620.58 820.45,-1627.31"/>
</g>
<!-- serve&#45;&gt;object -->
<g id="edge165" class="edge">
<title>serve&#45;&gt;object</title>
<path fill="none" stroke="black" d="M226.33,-1754.35C319.6,-1773.92 630.39,-1839.41 639.5,-1844.86 660.6,-1857.47 657.53,-1870.08 675.5,-1886.86 678.57,-1889.72 681.88,-1892.57 685.26,-1895.34"/>
<polygon fill="black" stroke="black" points="683.05,-1898.05 693.08,-1901.46 687.36,-1892.54 683.05,-1898.05"/>
</g>
<!-- serve&#45;&gt;proto -->
<g id="edge166" class="edge">
<title>serve&#45;&gt;proto</title>
<path fill="none" stroke="black" d="M202.65,-1767.17C214.52,-1852.82 264.68,-2210.58 277.25,-2230.86 279.8,-2234.97 283.1,-2238.71 286.75,-2242.07"/>
<polygon fill="black" stroke="black" points="284.52,-2244.76 294.53,-2248.23 288.87,-2239.28 284.52,-2244.76"/>
</g>
<!-- serve&#45;&gt;repl -->
<g id="edge167" class="edge">
<title>serve&#45;&gt;repl</title>
<path fill="none" stroke="black" d="M211.94,-1767.14C220.64,-1781.01 232.45,-1800.73 241.25,-1818.86 260.43,-1858.35 257.3,-1871.74 277.25,-1910.86 284.6,-1925.27 294.11,-1940.47 302.48,-1953.02"/>
<polygon fill="black" stroke="black" points="299.52,-1954.89 308.04,-1961.19 305.31,-1950.95 299.52,-1954.89"/>
</g>
<!-- serve&#45;&gt;shell -->
<g id="edge168" class="edge">
<title>serve&#45;&gt;shell</title>
<path fill="none" stroke="black" d="M225.41,-1730.61C270.31,-1698.2 364.02,-1630.56 414.88,-1593.85"/>
<polygon fill="black" stroke="black" points="416.86,-1596.73 422.92,-1588.04 412.77,-1591.06 416.86,-1596.73"/>
</g>
<!-- serve&#45;&gt;store -->
<g id="edge169" class="edge">
<title>serve&#45;&gt;store</title>
<path fill="none" stroke="black" d="M202.61,-1767.25C213.12,-1844.33 254.48,-2138.96 277.25,-2173.86 304.14,-2215.08 339.66,-2196.34 369,-2235.86 401.18,-2279.2 371.88,-2309.23 405,-2351.86 445.64,-2404.17 469.02,-2409.34 532,-2429.86 582.52,-2446.32 644.46,-2447.99 683.38,-2446.97"/>
<polygon fill="black" stroke="black" points="683.29,-2450.48 693.16,-2446.64 683.05,-2443.48 683.29,-2450.48"/>
</g>
<!-- sexp&#45;&gt;parse -->
<g id="edge170" class="edge">
<title>sexp&#45;&gt;parse</title>
<path fill="none" stroke="black" d="M1022.37,-1497.08C1040.98,-1548.32 1093.86,-1693.94 1116.44,-1756.13"/>
<polygon fill="black" stroke="black" points="1113.07,-1757.1 1119.77,-1765.31 1119.65,-1754.71 1113.07,-1757.1"/>
</g>
<!-- sexp&#45;&gt;types -->
<g id="edge171" class="edge">
<title>sexp&#45;&gt;types</title>
<path fill="none" stroke="black" d="M1042.04,-1478.01C1116.35,-1474.09 1329.29,-1452.1 1433,-1328.86 1474.38,-1279.68 1489.31,-1080.37 1493.57,-1004.43"/>
<polygon fill="black" stroke="black" points="1497.06,-1004.63 1494.1,-994.46 1490.07,-1004.26 1497.06,-1004.63"/>
</g>
<!-- sexpr&#45;api&#45;&gt;inductive -->
<g id="edge172" class="edge">
<title>sexpr&#45;api&#45;&gt;inductive</title>
<path fill="none" stroke="black" d="M761.11,-339.17C780.1,-334.33 803.29,-328.41 823.56,-323.24"/>
<polygon fill="black" stroke="black" points="824.18,-326.7 833,-320.84 822.45,-319.92 824.18,-326.7"/>
</g>
<!-- sexpr&#45;parsing -->
<g id="node58" class="node">
<title>sexpr&#45;parsing</title>
<polygon fill="none" stroke="black" points="639.5,-278.86 532,-278.86 532,-242.86 639.5,-242.86 639.5,-278.86"/>
<text text-anchor="middle" x="585.75" y="-256.56" font-family="sans-serif" font-size="14.00">sexpr&#45;parsing</text>
</g>
<!-- sexpr&#45;parsing&#45;&gt;logic&#45;api -->
<g id="edge173" class="edge">
<title>sexpr&#45;parsing&#45;&gt;logic&#45;api</title>
<path fill="none" stroke="black" d="M590.53,-242.37C598.83,-207.18 622.32,-131.27 675.5,-99.86 711.19,-78.78 728.54,-89.82 768.75,-99.86 853.15,-120.93 875.39,-135.32 941.5,-191.86 964.39,-211.43 984.44,-239.46 997.57,-260.18"/>
<polygon fill="black" stroke="black" points="994.42,-261.74 1002.65,-268.41 1000.38,-258.06 994.42,-261.74"/>
</g>
<!-- sexpr&#45;parsing&#45;&gt;parsing&#45;api -->
<g id="edge174" class="edge">
<title>sexpr&#45;parsing&#45;&gt;parsing&#45;api</title>
<path fill="none" stroke="black" d="M602.99,-242.66C619.36,-225.8 646.33,-201.86 675.5,-191.86 721.23,-176.17 775.9,-185.79 815.97,-197.69"/>
<polygon fill="black" stroke="black" points="814.83,-201 825.42,-200.63 816.91,-194.32 814.83,-201"/>
</g>
<!-- sexpr&#45;parsing&#45;&gt;sexp -->
<g id="edge175" class="edge">
<title>sexpr&#45;parsing&#45;&gt;sexp</title>
<path fill="none" stroke="black" d="M592.69,-279.14C602.9,-310.85 624.15,-378.21 639.5,-435.86 704.99,-681.86 727,-742.74 768.75,-993.86 781.65,-1071.42 753.02,-1286.64 804.75,-1345.86 845.88,-1392.95 889.58,-1344.02 941.5,-1378.86 968.06,-1396.68 988.22,-1427.74 1000.41,-1450.53"/>
<polygon fill="black" stroke="black" points="997.23,-1452 1004.9,-1459.3 1003.46,-1448.81 997.23,-1452"/>
</g>
<!-- sexpr&#45;parsing&#45;&gt;sexpr&#45;api -->
<g id="edge176" class="edge">
<title>sexpr&#45;parsing&#45;&gt;sexpr&#45;api</title>
<path fill="none" stroke="black" d="M614.92,-279.31C634.81,-292.33 661.68,-309.93 683.41,-324.16"/>
<polygon fill="black" stroke="black" points="681.44,-327.05 691.73,-329.61 685.28,-321.2 681.44,-327.05"/>
</g>
<!-- shell&#45;&gt;hol -->
<g id="edge177" class="edge">
<title>shell&#45;&gt;hol</title>
<path fill="none" stroke="black" d="M452.36,-1550.45C456.85,-1459.63 479.35,-1059.15 532,-947.86 603.6,-796.48 765.22,-668.63 836.83,-617.15"/>
<polygon fill="black" stroke="black" points="838.57,-620.21 844.68,-611.56 834.51,-614.5 838.57,-620.21"/>
</g>
<!-- shell&#45;&gt;kernel -->
<g id="edge178" class="edge">
<title>shell&#45;&gt;kernel</title>
<path fill="none" stroke="black" d="M477.83,-1579.53C497.29,-1587.41 524.11,-1598.28 546.01,-1607.16"/>
<polygon fill="black" stroke="black" points="544.65,-1610.38 555.24,-1610.9 547.28,-1603.9 544.65,-1610.38"/>
</g>
<!-- smt&#45;&gt;sat -->
<g id="edge179" class="edge">
<title>smt&#45;&gt;sat</title>
<path fill="none" stroke="black" d="M727.29,-1347.19C735.47,-1383.4 754.14,-1466.64 768.75,-1536.86 785.63,-1618.01 765.1,-1647.06 804.75,-1719.86 812.88,-1734.79 825.62,-1748.37 837.84,-1759.21"/>
<polygon fill="black" stroke="black" points="835.52,-1761.84 845.42,-1765.63 840.04,-1756.49 835.52,-1761.84"/>
</g>
<!-- smt&#45;&gt;sexp -->
<g id="edge180" class="edge">
<title>smt&#45;&gt;sexp</title>
<path fill="none" stroke="black" d="M738.14,-1347.22C757.17,-1370.08 789.35,-1407.29 804.75,-1416.86 833.52,-1434.72 924.21,-1457.91 976.18,-1470.25"/>
<polygon fill="black" stroke="black" points="975.26,-1473.63 985.79,-1472.51 976.86,-1466.81 975.26,-1473.63"/>
</g>
<!-- smt&#45;&gt;types -->
<g id="edge181" class="edge">
<title>smt&#45;&gt;types</title>
<path fill="none" stroke="black" d="M749.5,-1314.17C765.09,-1306.19 785.49,-1296.94 804.75,-1291.86 894.93,-1268.05 920.48,-1272.86 1013.75,-1272.86 1013.75,-1272.86 1013.75,-1272.86 1251.75,-1272.86 1339.45,-1272.86 1375.2,-1260.82 1433,-1194.86 1481.01,-1140.06 1492.05,-1050.71 1494.45,-1004.55"/>
<polygon fill="black" stroke="black" points="1497.94,-1004.91 1494.84,-994.78 1490.94,-1004.63 1497.94,-1004.91"/>
</g>
<!-- spectec&#45;&gt;grammar -->
<g id="edge182" class="edge">
<title>spectec&#45;&gt;grammar</title>
<path fill="none" stroke="black" d="M907.92,-1026.43C925.52,-1029.32 947.31,-1032.91 966.54,-1036.08"/>
<polygon fill="black" stroke="black" points="965.89,-1039.52 976.33,-1037.69 967.03,-1032.61 965.89,-1039.52"/>
</g>
<!-- store&#45;&gt;hash -->
<g id="edge183" class="edge">
<title>store&#45;&gt;hash</title>
<path fill="none" stroke="black" d="M749.5,-2433.86C756.63,-2429.76 763.75,-2424.46 768.75,-2417.86 854.25,-2304.8 869.19,-2126.9 871.68,-2056.74"/>
<polygon fill="black" stroke="black" points="875.18,-2056.91 871.97,-2046.81 868.18,-2056.71 875.18,-2056.91"/>
</g>
<!-- store&#45;&gt;json -->
<g id="edge184" class="edge">
<title>store&#45;&gt;json</title>
<path fill="none" stroke="black" d="M736.27,-2463.31C746.19,-2477.87 759.62,-2498.97 768.75,-2518.86 790.75,-2566.76 770.08,-2592.16 804.75,-2631.86 812.88,-2641.17 824.32,-2647.99 835.47,-2652.88"/>
<polygon fill="black" stroke="black" points="833.95,-2656.04 844.54,-2656.44 836.51,-2649.53 833.95,-2656.04"/>
</g>
<!-- store&#45;&gt;sqlite -->
<g id="edge185" class="edge">
<title>store&#45;&gt;sqlite</title>
<path fill="none" stroke="black" d="M749.42,-2444.33C773.07,-2443.85 808.08,-2443.15 834.66,-2442.61"/>
<polygon fill="black" stroke="black" points="834.4,-2446.12 844.33,-2442.42 834.26,-2439.12 834.4,-2446.12"/>
</g>
<!-- tcb&#45;db -->
<g id="node64" class="node">
<title>tcb&#45;db</title>
<polygon fill="none" stroke="black" points="752.25,-2563.86 692,-2563.86 692,-2527.86 752.25,-2527.86 752.25,-2563.86"/>
<text text-anchor="middle" x="722.12" y="-2541.56" font-family="sans-serif" font-size="14.00">tcb&#45;db</text>
</g>
<!-- tcb&#45;db&#45;&gt;json -->
<g id="edge186" class="edge">
<title>tcb&#45;db&#45;&gt;json</title>
<path fill="none" stroke="black" d="M737.14,-2564.21C752.24,-2583.04 777.75,-2612.28 804.75,-2631.86 814.09,-2638.63 825.08,-2644.56 835.45,-2649.42"/>
<polygon fill="black" stroke="black" points="833.99,-2652.6 844.55,-2653.47 836.84,-2646.21 833.99,-2652.6"/>
</g>
<!-- tcb&#45;db&#45;&gt;sqlite -->
<g id="edge187" class="edge">
<title>tcb&#45;db&#45;&gt;sqlite</title>
<path fill="none" stroke="black" d="M749.42,-2527.5C773.6,-2510.63 809.66,-2485.46 836.44,-2466.77"/>
<polygon fill="black" stroke="black" points="838.4,-2469.66 844.6,-2461.07 834.4,-2463.92 838.4,-2469.66"/>
</g>
<!-- wasm&#45;build&#45;guest -->
<g id="node67" class="node">
<title>wasm&#45;build&#45;guest</title>
<polygon fill="none" stroke="black" points="941.5,-2589.86 804.75,-2589.86 804.75,-2553.86 941.5,-2553.86 941.5,-2589.86"/>
<text text-anchor="middle" x="873.12" y="-2567.56" font-family="sans-serif" font-size="14.00">wasm&#45;build&#45;guest</text>
</g>
<!-- wasm&#45;build&#45;guest&#45;&gt;wasm -->
<g id="edge188" class="edge">
<title>wasm&#45;build&#45;guest&#45;&gt;wasm</title>
<path fill="none" stroke="black" d="M941.89,-2560.69C953.6,-2558.77 965.39,-2556.82 975.94,-2555.09"/>
<polygon fill="black" stroke="black" points="976.45,-2558.55 985.75,-2553.47 975.32,-2551.64 976.45,-2558.55"/>
</g>
<!-- wasm&#45;spec -->
<g id="node68" class="node">
<title>wasm&#45;spec</title>
<polygon fill="none" stroke="black" points="768.75,-2408.86 675.5,-2408.86 675.5,-2372.86 768.75,-2372.86 768.75,-2408.86"/>
<text text-anchor="middle" x="722.12" y="-2386.56" font-family="sans-serif" font-size="14.00">wasm&#45;spec</text>
</g>
<!-- wasm&#45;spec&#45;&gt;hash -->
<g id="edge189" class="edge">
<title>wasm&#45;spec&#45;&gt;hash</title>
<path fill="none" stroke="black" d="M730.96,-2372.55C740.12,-2351.1 755.69,-2314.46 768.75,-2282.86 802.72,-2200.63 841.78,-2103.06 860.68,-2055.62"/>
<polygon fill="black" stroke="black" points="863.82,-2057.2 864.27,-2046.62 857.32,-2054.61 863.82,-2057.2"/>
</g>
<!-- wasm&#45;spec&#45;&gt;wasm -->
<g id="edge190" class="edge">
<title>wasm&#45;spec&#45;&gt;wasm</title>
<path fill="none" stroke="black" d="M760.78,-2409.3C763.79,-2411.86 766.52,-2414.7 768.75,-2417.86 816.17,-2484.78 741.35,-2546.82 804.75,-2598.86 851.73,-2637.42 883.49,-2616.97 941.5,-2598.86 957.55,-2593.84 973.18,-2583.88 985.77,-2574.15"/>
<polygon fill="black" stroke="black" points="987.62,-2577.16 993.18,-2568.14 983.21,-2571.72 987.62,-2577.16"/>
</g>
<!-- wasm&#45;store&#45;&gt;json -->
<g id="edge191" class="edge">
<title>wasm&#45;store&#45;&gt;json</title>
<path fill="none" stroke="black" d="M633.55,-2663.86C689.74,-2663.86 782.84,-2663.86 834.56,-2663.86"/>
<polygon fill="black" stroke="black" points="834.34,-2667.36 844.34,-2663.86 834.34,-2660.36 834.34,-2667.36"/>
</g>
<!-- wasm&#45;store&#45;&gt;store -->
<g id="edge192" class="edge">
<title>wasm&#45;store&#45;&gt;store</title>
<path fill="none" stroke="black" d="M600.71,-2645.54C611.79,-2630.64 627.39,-2608.88 639.5,-2588.86 657.61,-2558.92 658.31,-2549.33 675.5,-2518.86 684.27,-2503.31 694.68,-2486.33 703.34,-2472.56"/>
<polygon fill="black" stroke="black" points="706.08,-2474.77 708.47,-2464.45 700.17,-2471.03 706.08,-2474.77"/>
</g>
<!-- wasm&#45;store&#45;&gt;wasm -->
<g id="edge193" class="edge">
<title>wasm&#45;store&#45;&gt;wasm</title>
<path fill="none" stroke="black" d="M629.85,-2682.28C700.67,-2709.45 843.56,-2750.91 941.5,-2690.86 981.37,-2666.41 1000.09,-2612.32 1008.21,-2578.4"/>
<polygon fill="black" stroke="black" points="1011.59,-2579.33 1010.33,-2568.81 1004.75,-2577.82 1011.59,-2579.33"/>
</g>
<!-- web&#45;kernel -->
<g id="node70" class="node">
<title>web&#45;kernel</title>
<polygon fill="none" stroke="black" points="369,-1076.86 277.25,-1076.86 277.25,-1040.86 369,-1040.86 369,-1076.86"/>
<text text-anchor="middle" x="323.12" y="-1054.56" font-family="sans-serif" font-size="14.00">web&#45;kernel</text>
</g>
<!-- web&#45;kernel&#45;&gt;forsp -->
<g id="edge194" class="edge">
<title>web&#45;kernel&#45;&gt;forsp</title>
<path fill="none" stroke="black" d="M325.18,-1077.3C329.48,-1146.63 348.34,-1397.8 405,-1595.86 412.45,-1621.89 424.93,-1650.02 434.78,-1670.3"/>
<polygon fill="black" stroke="black" points="431.54,-1671.65 439.12,-1679.06 437.82,-1668.54 431.54,-1671.65"/>
</g>
<!-- web&#45;kernel&#45;&gt;haskell -->
<g id="edge195" class="edge">
<title>web&#45;kernel&#45;&gt;haskell</title>
<path fill="none" stroke="black" d="M333.55,-1040.37C355.29,-997.7 409.1,-892.14 435.05,-841.22"/>
<polygon fill="black" stroke="black" points="438.03,-843.07 439.45,-832.58 431.79,-839.9 438.03,-843.07"/>
</g>
<!-- web&#45;kernel&#45;&gt;hol&#45;api -->
<g id="edge196" class="edge">
<title>web&#45;kernel&#45;&gt;hol&#45;api</title>
<path fill="none" stroke="black" d="M324.93,-1040.55C328.78,-960.04 347.61,-637.86 405,-557.86 438.27,-511.49 501.21,-485.8 543.07,-473.16"/>
<polygon fill="black" stroke="black" points="543.92,-476.56 552.56,-470.43 541.99,-469.83 543.92,-476.56"/>
</g>
<!-- web&#45;kernel&#45;&gt;kernel -->
<g id="edge197" class="edge">
<title>web&#45;kernel&#45;&gt;kernel</title>
<path fill="none" stroke="black" d="M332.65,-1077.3C370.7,-1159.65 525.2,-1494 571.55,-1594.29"/>
<polygon fill="black" stroke="black" points="568.28,-1595.57 575.66,-1603.18 574.64,-1592.63 568.28,-1595.57"/>
</g>
<!-- web&#45;kernel&#45;&gt;lisp -->
<g id="edge198" class="edge">
<title>web&#45;kernel&#45;&gt;lisp</title>
<path fill="none" stroke="black" d="M369.39,-1058.86C383.38,-1058.86 398.64,-1058.86 412.05,-1058.86"/>
<polygon fill="black" stroke="black" points="411.76,-1062.36 421.76,-1058.86 411.76,-1055.36 411.76,-1062.36"/>
</g>
</g>
</svg>
