<?xml version="1.0" encoding="UTF-8" standalone="no"?>
<!DOCTYPE svg PUBLIC "-//W3C//DTD SVG 1.1//EN"
 "http://www.w3.org/Graphics/SVG/1.1/DTD/svg11.dtd">
<!-- Generated by graphviz version 12.2.1 (0)
 -->
<!-- Title: deps Pages: 1 -->
<svg width="1478pt" height="1982pt"
 viewBox="0.00 0.00 1477.50 1982.05" xmlns="http://www.w3.org/2000/svg" xmlns:xlink="http://www.w3.org/1999/xlink">
<g id="graph0" class="graph" transform="scale(1 1) rotate(0) translate(4 1978.05)">
<title>deps</title>
<polygon fill="white" stroke="none" points="-4,4 -4,-1978.05 1473.5,-1978.05 1473.5,4 -4,4"/>
<!-- covalence -->
<g id="node1" class="node">
<title>covalence</title>
<polygon fill="none" stroke="black" points="102.62,-1437 18.38,-1437 18.38,-1401 102.62,-1401 102.62,-1437"/>
<text text-anchor="middle" x="60.5" y="-1414.7" font-family="sans-serif" font-size="14.00">covalence</text>
</g>
<!-- client -->
<g id="node5" class="node">
<title>client</title>
<polygon fill="none" stroke="black" points="349.75,-1456 295.75,-1456 295.75,-1420 349.75,-1420 349.75,-1456"/>
<text text-anchor="middle" x="322.75" y="-1433.7" font-family="sans-serif" font-size="14.00">client</text>
</g>
<!-- covalence&#45;&gt;client -->
<g id="edge1" class="edge">
<title>covalence&#45;&gt;client</title>
<path fill="none" stroke="black" d="M103.03,-1422.03C152.9,-1425.67 235.85,-1431.73 283.99,-1435.24"/>
<polygon fill="black" stroke="black" points="283.7,-1438.73 293.92,-1435.97 284.21,-1431.75 283.7,-1438.73"/>
</g>
<!-- fuse -->
<g id="node11" class="node">
<title>fuse</title>
<polygon fill="none" stroke="black" points="606.38,-1662 552.38,-1662 552.38,-1626 606.38,-1626 606.38,-1662"/>
<text text-anchor="middle" x="579.38" y="-1639.7" font-family="sans-serif" font-size="14.00">fuse</text>
</g>
<!-- covalence&#45;&gt;fuse -->
<g id="edge2" class="edge">
<title>covalence&#45;&gt;fuse</title>
<path fill="none" stroke="black" d="M102.92,-1431.1C109.88,-1434.84 116.35,-1439.7 121,-1446 195.56,-1546.91 62.79,-1643.13 157,-1726 270.13,-1825.51 356.74,-1783.5 496,-1726 522.65,-1715 545.21,-1690.74 559.94,-1671.44"/>
<polygon fill="black" stroke="black" points="562.75,-1673.54 565.83,-1663.4 557.1,-1669.4 562.75,-1673.54"/>
</g>
<!-- git -->
<g id="node12" class="node">
<title>git</title>
<polygon fill="none" stroke="black" points="477.12,-1492 423.12,-1492 423.12,-1456 477.12,-1456 477.12,-1492"/>
<text text-anchor="middle" x="450.12" y="-1469.7" font-family="sans-serif" font-size="14.00">git</text>
</g>
<!-- covalence&#45;&gt;git -->
<g id="edge3" class="edge">
<title>covalence&#45;&gt;git</title>
<path fill="none" stroke="black" d="M102.99,-1431.44C109.86,-1435.14 116.27,-1439.91 121,-1446 177.43,-1518.75 86.47,-1590.82 157,-1650 249.95,-1727.99 381.27,-1568.35 429.98,-1501.54"/>
<polygon fill="black" stroke="black" points="432.67,-1503.79 435.67,-1493.62 426.99,-1499.7 432.67,-1503.79"/>
</g>
<!-- hash -->
<g id="node15" class="node">
<title>hash</title>
<polygon fill="none" stroke="black" points="887.38,-1521 833.38,-1521 833.38,-1485 887.38,-1485 887.38,-1521"/>
<text text-anchor="middle" x="860.38" y="-1498.7" font-family="sans-serif" font-size="14.00">hash</text>
</g>
<!-- covalence&#45;&gt;hash -->
<g id="edge4" class="edge">
<title>covalence&#45;&gt;hash</title>
<path fill="none" stroke="black" d="M103,-1431.04C109.95,-1434.79 116.4,-1439.67 121,-1446 204.9,-1561.41 73.75,-1649.13 157,-1765 204.16,-1830.64 240.93,-1842 321.75,-1842 321.75,-1842 321.75,-1842 580.38,-1842 659.16,-1842 695.48,-1868.44 756,-1818 843.67,-1744.94 857.55,-1596.08 859.35,-1532.68"/>
<polygon fill="black" stroke="black" points="862.85,-1532.76 859.54,-1522.69 855.85,-1532.63 862.85,-1532.76"/>
</g>
<!-- hol -->
<g id="node17" class="node">
<title>hol</title>
<polygon fill="none" stroke="black" points="887.38,-36 833.38,-36 833.38,0 887.38,0 887.38,-36"/>
<text text-anchor="middle" x="860.38" y="-13.7" font-family="sans-serif" font-size="14.00">hol</text>
</g>
<!-- covalence&#45;&gt;hol -->
<g id="edge5" class="edge">
<title>covalence&#45;&gt;hol</title>
<path fill="none" stroke="black" d="M61.88,-1400.93C63.91,-1330.86 76.75,-1071.36 157,-878 181.98,-817.81 206.13,-812.89 241.25,-758 258.42,-731.16 256.14,-719.87 277.25,-696 310.87,-657.98 338.24,-667.93 368.25,-627 496.08,-452.67 400.65,-340.69 532,-169 604.98,-73.61 752.5,-36.38 821.8,-23.72"/>
<polygon fill="black" stroke="black" points="822.28,-27.19 831.53,-22.02 821.07,-20.29 822.28,-27.19"/>
</g>
<!-- lsp -->
<g id="node26" class="node">
<title>lsp</title>
<polygon fill="none" stroke="black" points="887.38,-870 833.38,-870 833.38,-834 887.38,-834 887.38,-870"/>
<text text-anchor="middle" x="860.38" y="-847.7" font-family="sans-serif" font-size="14.00">lsp</text>
</g>
<!-- covalence&#45;&gt;lsp -->
<g id="edge6" class="edge">
<title>covalence&#45;&gt;lsp</title>
<path fill="none" stroke="black" d="M61.36,-1400.71C61.64,-1336.38 69.33,-1116.31 157,-966 192.9,-904.46 216.59,-897.37 277.25,-860 329.04,-828.09 344.53,-820.54 404.25,-809 557.62,-779.36 744.18,-820.71 822.24,-841.42"/>
<polygon fill="black" stroke="black" points="820.93,-844.69 831.49,-843.92 822.75,-837.93 820.93,-844.69"/>
</g>
<!-- object -->
<g id="node29" class="node">
<title>object</title>
<polygon fill="none" stroke="black" points="738,-1521 680.75,-1521 680.75,-1485 738,-1485 738,-1521"/>
<text text-anchor="middle" x="709.38" y="-1498.7" font-family="sans-serif" font-size="14.00">object</text>
</g>
<!-- covalence&#45;&gt;object -->
<g id="edge7" class="edge">
<title>covalence&#45;&gt;object</title>
<path fill="none" stroke="black" d="M103.08,-1431.37C109.94,-1435.08 116.33,-1439.86 121,-1446 183.14,-1527.63 79.01,-1607.36 157,-1674 185.47,-1698.33 204.11,-1678.74 241.25,-1674 329.04,-1662.8 548.45,-1615.25 626.75,-1574 648.34,-1562.63 669.04,-1544.51 684.2,-1529.42"/>
<polygon fill="black" stroke="black" points="686.48,-1532.1 690.96,-1522.5 681.47,-1527.21 686.48,-1532.1"/>
</g>
<!-- opentheory -->
<g id="node30" class="node">
<title>opentheory</title>
<polygon fill="none" stroke="black" points="368.25,-618 277.25,-618 277.25,-582 368.25,-582 368.25,-618"/>
<text text-anchor="middle" x="322.75" y="-595.7" font-family="sans-serif" font-size="14.00">opentheory</text>
</g>
<!-- covalence&#45;&gt;opentheory -->
<g id="edge8" class="edge">
<title>covalence&#45;&gt;opentheory</title>
<path fill="none" stroke="black" d="M61.33,-1400.56C61.24,-1324.04 66.99,-1025.17 157,-803 181.33,-742.94 204.08,-737.09 241.25,-684 257.37,-660.97 257.55,-652.05 277.25,-632 279.5,-629.71 281.93,-627.47 284.46,-625.3"/>
<polygon fill="black" stroke="black" points="286.46,-628.18 292.09,-619.2 282.09,-622.71 286.46,-628.18"/>
</g>
<!-- proto -->
<g id="node34" class="node">
<title>proto</title>
<polygon fill="none" stroke="black" points="349.75,-1402 295.75,-1402 295.75,-1366 349.75,-1366 349.75,-1402"/>
<text text-anchor="middle" x="322.75" y="-1379.7" font-family="sans-serif" font-size="14.00">proto</text>
</g>
<!-- covalence&#45;&gt;proto -->
<g id="edge9" class="edge">
<title>covalence&#45;&gt;proto</title>
<path fill="none" stroke="black" d="M103.03,-1413.42C153.01,-1406.69 236.2,-1395.51 284.29,-1389.04"/>
<polygon fill="black" stroke="black" points="284.49,-1392.54 293.93,-1387.74 283.56,-1385.61 284.49,-1392.54"/>
</g>
<!-- repl -->
<g id="node40" class="node">
<title>repl</title>
<polygon fill="none" stroke="black" points="349.75,-1150 295.75,-1150 295.75,-1114 349.75,-1114 349.75,-1150"/>
<text text-anchor="middle" x="322.75" y="-1127.7" font-family="sans-serif" font-size="14.00">repl</text>
</g>
<!-- covalence&#45;&gt;repl -->
<g id="edge10" class="edge">
<title>covalence&#45;&gt;repl</title>
<path fill="none" stroke="black" d="M71.18,-1400.78C86.97,-1371.97 120.21,-1314.86 157,-1273 197.04,-1227.45 251.93,-1183.39 287.13,-1156.98"/>
<polygon fill="black" stroke="black" points="288.91,-1160.02 294.85,-1151.24 284.73,-1154.4 288.91,-1160.02"/>
</g>
<!-- serve -->
<g id="node42" class="node">
<title>serve</title>
<polygon fill="none" stroke="black" points="226.12,-1318 172.12,-1318 172.12,-1282 226.12,-1282 226.12,-1318"/>
<text text-anchor="middle" x="199.12" y="-1295.7" font-family="sans-serif" font-size="14.00">serve</text>
</g>
<!-- covalence&#45;&gt;serve -->
<g id="edge11" class="edge">
<title>covalence&#45;&gt;serve</title>
<path fill="none" stroke="black" d="M78.54,-1400.67C96.98,-1381.31 127.68,-1350.42 157,-1327 158.9,-1325.48 160.88,-1323.97 162.91,-1322.48"/>
<polygon fill="black" stroke="black" points="164.53,-1325.62 170.7,-1317.01 160.51,-1319.89 164.53,-1325.62"/>
</g>
<!-- shell -->
<g id="node44" class="node">
<title>shell</title>
<polygon fill="none" stroke="black" points="477.12,-854 423.12,-854 423.12,-818 477.12,-818 477.12,-854"/>
<text text-anchor="middle" x="450.12" y="-831.7" font-family="sans-serif" font-size="14.00">shell</text>
</g>
<!-- covalence&#45;&gt;shell -->
<g id="edge12" class="edge">
<title>covalence&#45;&gt;shell</title>
<path fill="none" stroke="black" d="M64.71,-1400.67C77.95,-1329.94 134.57,-1071.24 277.25,-922 314.71,-882.82 373.85,-858.73 412.06,-846.36"/>
<polygon fill="black" stroke="black" points="412.77,-849.8 421.28,-843.49 410.69,-843.12 412.77,-849.8"/>
</g>
<!-- store -->
<g id="node48" class="node">
<title>store</title>
<polygon fill="none" stroke="black" points="736.38,-1194 682.38,-1194 682.38,-1158 736.38,-1158 736.38,-1194"/>
<text text-anchor="middle" x="709.38" y="-1171.7" font-family="sans-serif" font-size="14.00">store</text>
</g>
<!-- covalence&#45;&gt;store -->
<g id="edge13" class="edge">
<title>covalence&#45;&gt;store</title>
<path fill="none" stroke="black" d="M102.93,-1436.97C162.81,-1460.34 276.45,-1494.83 368.25,-1465 411.03,-1451.1 495.26,-1371.95 532,-1346 573.72,-1316.54 594.09,-1320.26 626.75,-1281 651.94,-1250.71 635.83,-1228.76 662.75,-1200 665.61,-1196.95 668.95,-1194.21 672.49,-1191.77"/>
<polygon fill="black" stroke="black" points="674.06,-1194.91 680.87,-1186.79 670.49,-1188.89 674.06,-1194.91"/>
</g>
<!-- wasm -->
<g id="node51" class="node">
<title>wasm</title>
<polygon fill="none" stroke="black" points="1028.75,-1068 974.5,-1068 974.5,-1032 1028.75,-1032 1028.75,-1068"/>
<text text-anchor="middle" x="1001.62" y="-1045.7" font-family="sans-serif" font-size="14.00">wasm</text>
</g>
<!-- covalence&#45;&gt;wasm -->
<g id="edge14" class="edge">
<title>covalence&#45;&gt;wasm</title>
<path fill="none" stroke="black" d="M103.07,-1430.99C110.02,-1434.74 116.44,-1439.64 121,-1446 216.4,-1579.27 58.97,-1681.66 157,-1813 204.28,-1876.35 242.7,-1880 321.75,-1880 321.75,-1880 321.75,-1880 710.38,-1880 840.37,-1880 780.97,-1970.34 928.75,-1530 983.85,-1365.83 996.8,-1155.92 999.77,-1079.5"/>
<polygon fill="black" stroke="black" points="1003.25,-1080.03 1000.11,-1069.92 996.26,-1079.79 1003.25,-1080.03"/>
</g>
<!-- acset -->
<g id="node2" class="node">
<title>acset</title>
<polygon fill="none" stroke="black" points="887.38,-1944 833.38,-1944 833.38,-1908 887.38,-1908 887.38,-1944"/>
<text text-anchor="middle" x="860.38" y="-1921.7" font-family="sans-serif" font-size="14.00">acset</text>
</g>
<!-- alethe -->
<g id="node3" class="node">
<title>alethe</title>
<polygon fill="none" stroke="black" points="607.62,-301 551.12,-301 551.12,-265 607.62,-265 607.62,-301"/>
<text text-anchor="middle" x="579.38" y="-278.7" font-family="sans-serif" font-size="14.00">alethe</text>
</g>
<!-- core -->
<g id="node6" class="node">
<title>core</title>
<polygon fill="#ffd6d6" stroke="black" points="1028.62,-242 974.62,-242 974.62,-206 1028.62,-206 1028.62,-242"/>
<text text-anchor="middle" x="1001.62" y="-219.7" font-family="sans-serif" font-size="14.00">core</text>
</g>
<!-- alethe&#45;&gt;core -->
<g id="edge15" class="edge">
<title>alethe&#45;&gt;core</title>
<path fill="none" stroke="black" d="M607.96,-267.19C647.27,-245.75 722.4,-208.77 792,-197 851.93,-186.87 868.95,-186.14 928.75,-197 940.46,-199.13 952.73,-203.05 963.77,-207.26"/>
<polygon fill="black" stroke="black" points="962.33,-210.46 972.91,-210.95 964.94,-203.96 962.33,-210.46"/>
</g>
<!-- hol&#45;eval -->
<g id="node18" class="node">
<title>hol&#45;eval</title>
<polygon fill="none" stroke="black" points="895.38,-242 825.38,-242 825.38,-206 895.38,-206 895.38,-242"/>
<text text-anchor="middle" x="860.38" y="-219.7" font-family="sans-serif" font-size="14.00">hol&#45;eval</text>
</g>
<!-- alethe&#45;&gt;hol&#45;eval -->
<g id="edge16" class="edge">
<title>alethe&#45;&gt;hol&#45;eval</title>
<path fill="none" stroke="black" d="M607.89,-277.18C655.96,-267.02 755.68,-245.93 814.07,-233.58"/>
<polygon fill="black" stroke="black" points="814.63,-237.04 823.69,-231.55 813.18,-230.19 814.63,-237.04"/>
</g>
<!-- init -->
<g id="node20" class="node">
<title>init</title>
<polygon fill="none" stroke="black" points="736.38,-595 682.38,-595 682.38,-559 736.38,-559 736.38,-595"/>
<text text-anchor="middle" x="709.38" y="-572.7" font-family="sans-serif" font-size="14.00">init</text>
</g>
<!-- alethe&#45;&gt;init -->
<g id="edge17" class="edge">
<title>alethe&#45;&gt;init</title>
<path fill="none" stroke="black" d="M586.83,-301.47C599.87,-338.29 630.85,-423.18 662.75,-492 671.71,-511.32 683.02,-532.42 692.14,-548.76"/>
<polygon fill="black" stroke="black" points="689.07,-550.44 697.03,-557.43 695.17,-547 689.07,-550.44"/>
</g>
<!-- sexp -->
<g id="node43" class="node">
<title>sexp</title>
<polygon fill="none" stroke="black" points="1028.62,-732 974.62,-732 974.62,-696 1028.62,-696 1028.62,-732"/>
<text text-anchor="middle" x="1001.62" y="-709.7" font-family="sans-serif" font-size="14.00">sexp</text>
</g>
<!-- alethe&#45;&gt;sexp -->
<g id="edge18" class="edge">
<title>alethe&#45;&gt;sexp</title>
<path fill="none" stroke="black" d="M588.9,-301.25C613.18,-351.16 687.69,-491.01 792,-563 844.12,-598.97 877.97,-565.16 928.75,-603 957.13,-624.15 977.4,-660.09 989.03,-685.33"/>
<polygon fill="black" stroke="black" points="985.78,-686.63 993.01,-694.36 992.18,-683.8 985.78,-686.63"/>
</g>
<!-- smt -->
<g id="node45" class="node">
<title>smt</title>
<polygon fill="none" stroke="black" points="736.38,-326 682.38,-326 682.38,-290 736.38,-290 736.38,-326"/>
<text text-anchor="middle" x="709.38" y="-303.7" font-family="sans-serif" font-size="14.00">smt</text>
</g>
<!-- alethe&#45;&gt;smt -->
<g id="edge19" class="edge">
<title>alethe&#45;&gt;smt</title>
<path fill="none" stroke="black" d="M607.83,-288.36C626.34,-291.98 650.98,-296.79 671.24,-300.75"/>
<polygon fill="black" stroke="black" points="670.3,-304.13 680.79,-302.61 671.64,-297.26 670.3,-304.13"/>
</g>
<!-- types -->
<g id="node50" class="node">
<title>types</title>
<polygon fill="#ffd6d6" stroke="black" points="1469.5,-280 1415.5,-280 1415.5,-244 1469.5,-244 1469.5,-280"/>
<text text-anchor="middle" x="1442.5" y="-257.7" font-family="sans-serif" font-size="14.00">types</text>
</g>
<!-- alethe&#45;&gt;types -->
<g id="edge20" class="edge">
<title>alethe&#45;&gt;types</title>
<path fill="none" stroke="black" d="M597.69,-264.56C613.92,-247.64 639.13,-222.22 662.75,-202 676.34,-190.37 775.66,-113.27 792,-106 878.41,-67.54 906.04,-64 1000.62,-64 1000.62,-64 1000.62,-64 1218.25,-64 1291.49,-64 1323.89,-50.34 1379.5,-98 1419.54,-132.32 1433.78,-195.3 1438.8,-232.43"/>
<polygon fill="black" stroke="black" points="1435.29,-232.49 1439.95,-242 1442.24,-231.66 1435.29,-232.49"/>
</g>
<!-- arrow -->
<g id="node4" class="node">
<title>arrow</title>
<polygon fill="none" stroke="black" points="606.38,-1114 552.38,-1114 552.38,-1078 606.38,-1078 606.38,-1114"/>
<text text-anchor="middle" x="579.38" y="-1091.7" font-family="sans-serif" font-size="14.00">arrow</text>
</g>
<!-- client&#45;&gt;hash -->
<g id="edge21" class="edge">
<title>client&#45;&gt;hash</title>
<path fill="none" stroke="black" d="M337.92,-1456.35C382.56,-1514.06 518.17,-1688.4 532,-1695 623.08,-1738.43 674.51,-1717.51 756,-1658 800.79,-1625.3 831.95,-1566.88 847.65,-1531.86"/>
<polygon fill="black" stroke="black" points="850.83,-1533.32 851.6,-1522.76 844.41,-1530.54 850.83,-1533.32"/>
</g>
<!-- client&#45;&gt;shell -->
<g id="edge22" class="edge">
<title>client&#45;&gt;shell</title>
<path fill="none" stroke="black" d="M350.18,-1427.37C357.16,-1423.28 363.94,-1417.9 368.25,-1411 415.04,-1336.04 389.46,-1102.12 404.25,-1015 413.33,-961.51 430.04,-900.45 440.3,-865.25"/>
<polygon fill="black" stroke="black" points="443.62,-866.39 443.09,-855.8 436.9,-864.41 443.62,-866.39"/>
</g>
<!-- client&#45;&gt;store -->
<g id="edge23" class="edge">
<title>client&#45;&gt;store</title>
<path fill="none" stroke="black" d="M350.25,-1422.24C356.21,-1418.6 362.47,-1414.72 368.25,-1411 426.02,-1373.84 439.43,-1362.97 496,-1324 558.49,-1280.95 630.93,-1230.31 673.02,-1200.81"/>
<polygon fill="black" stroke="black" points="674.86,-1203.79 681.04,-1195.19 670.84,-1198.06 674.86,-1203.79"/>
</g>
<!-- pure -->
<g id="node35" class="node">
<title>pure</title>
<polygon fill="#ffd6d6" stroke="black" points="1244.25,-234 1190.25,-234 1190.25,-198 1244.25,-198 1244.25,-234"/>
<text text-anchor="middle" x="1217.25" y="-211.7" font-family="sans-serif" font-size="14.00">pure</text>
</g>
<!-- core&#45;&gt;pure -->
<g id="edge24" class="edge">
<title>core&#45;&gt;pure</title>
<path fill="none" stroke="black" d="M1028.82,-223.02C1066.3,-221.62 1135.43,-219.03 1178.45,-217.42"/>
<polygon fill="black" stroke="black" points="1178.47,-220.92 1188.33,-217.05 1178.2,-213.92 1178.47,-220.92"/>
</g>
<!-- pure&#45;eval -->
<g id="node36" class="node">
<title>pure&#45;eval</title>
<polygon fill="#ffd6d6" stroke="black" points="1154.25,-280 1074.5,-280 1074.5,-244 1154.25,-244 1154.25,-280"/>
<text text-anchor="middle" x="1114.38" y="-257.7" font-family="sans-serif" font-size="14.00">pure&#45;eval</text>
</g>
<!-- core&#45;&gt;pure&#45;eval -->
<g id="edge25" class="edge">
<title>core&#45;&gt;pure&#45;eval</title>
<path fill="none" stroke="black" d="M1028.87,-233.01C1039.25,-236.57 1051.55,-240.79 1063.49,-244.88"/>
<polygon fill="black" stroke="black" points="1062.28,-248.17 1072.87,-248.1 1064.55,-241.55 1062.28,-248.17"/>
</g>
<!-- core&#45;&gt;types -->
<g id="edge26" class="edge">
<title>core&#45;&gt;types</title>
<path fill="none" stroke="black" d="M1016.25,-242.3C1029.22,-258.06 1050.32,-279.69 1074.5,-289 1188.3,-332.82 1336.42,-296.29 1404.42,-274.86"/>
<polygon fill="black" stroke="black" points="1405.14,-278.31 1413.58,-271.91 1402.98,-271.65 1405.14,-278.31"/>
</g>
<!-- core&#45;test&#45;guest -->
<g id="node7" class="node">
<title>core&#45;test&#45;guest</title>
<polygon fill="none" stroke="black" points="121,-1491 0,-1491 0,-1455 121,-1455 121,-1491"/>
<text text-anchor="middle" x="60.5" y="-1468.7" font-family="sans-serif" font-size="14.00">core&#45;test&#45;guest</text>
</g>
<!-- crypto&#45;sig -->
<g id="node8" class="node">
<title>crypto&#45;sig</title>
<polygon fill="none" stroke="black" points="241.25,-675 157,-675 157,-639 241.25,-639 241.25,-675"/>
<text text-anchor="middle" x="199.12" y="-652.7" font-family="sans-serif" font-size="14.00">crypto&#45;sig</text>
</g>
<!-- egglog -->
<g id="node9" class="node">
<title>egglog</title>
<polygon fill="none" stroke="black" points="890.88,-518 829.88,-518 829.88,-482 890.88,-482 890.88,-518"/>
<text text-anchor="middle" x="860.38" y="-495.7" font-family="sans-serif" font-size="14.00">egglog</text>
</g>
<!-- egglog&#45;&gt;sexp -->
<g id="edge27" class="edge">
<title>egglog&#45;&gt;sexp</title>
<path fill="none" stroke="black" d="M891.26,-508.66C904.21,-513.69 918.67,-521.22 928.75,-532 969.54,-575.63 988.2,-645.17 995.89,-684.46"/>
<polygon fill="black" stroke="black" points="992.42,-684.92 997.67,-694.13 999.3,-683.66 992.42,-684.92"/>
</g>
<!-- egglog&#45;&gt;types -->
<g id="edge28" class="edge">
<title>egglog&#45;&gt;types</title>
<path fill="none" stroke="black" d="M891.24,-500C938.43,-500 1033.09,-500 1113.38,-500 1113.38,-500 1113.38,-500 1218.25,-500 1303.05,-500 1323.76,-461.91 1379.5,-398 1407.06,-366.41 1424.52,-320.53 1433.66,-290.97"/>
<polygon fill="black" stroke="black" points="1436.96,-292.17 1436.44,-281.59 1430.24,-290.19 1436.96,-292.17"/>
</g>
<!-- forsp -->
<g id="node10" class="node">
<title>forsp</title>
<polygon fill="none" stroke="black" points="736.38,-1098 682.38,-1098 682.38,-1062 736.38,-1062 736.38,-1098"/>
<text text-anchor="middle" x="709.38" y="-1075.7" font-family="sans-serif" font-size="14.00">forsp</text>
</g>
<!-- forsp&#45;&gt;hash -->
<g id="edge29" class="edge">
<title>forsp&#45;&gt;hash</title>
<path fill="none" stroke="black" d="M724.78,-1098.43C734.69,-1111.83 747.54,-1130.76 756,-1149 783.67,-1208.68 833.53,-1400.67 852.13,-1474.08"/>
<polygon fill="black" stroke="black" points="848.62,-1474.5 854.46,-1483.34 855.41,-1472.79 848.62,-1474.5"/>
</g>
<!-- forsp&#45;&gt;sexp -->
<g id="edge30" class="edge">
<title>forsp&#45;&gt;sexp</title>
<path fill="none" stroke="black" d="M736.85,-1085.51C782.37,-1093.31 875.69,-1101.68 928.75,-1053 974.31,-1011.19 993.05,-817.96 998.66,-743.43"/>
<polygon fill="black" stroke="black" points="1002.14,-743.87 999.37,-733.64 995.16,-743.36 1002.14,-743.87"/>
</g>
<!-- fuse&#45;&gt;hash -->
<g id="edge31" class="edge">
<title>fuse&#45;&gt;hash</title>
<path fill="none" stroke="black" d="M606.87,-1630.61C657.07,-1605.24 766.08,-1550.15 823.05,-1521.36"/>
<polygon fill="black" stroke="black" points="824.36,-1524.62 831.7,-1516.99 821.2,-1518.37 824.36,-1524.62"/>
</g>
<!-- fuse&#45;&gt;object -->
<g id="edge32" class="edge">
<title>fuse&#45;&gt;object</title>
<path fill="none" stroke="black" d="M606.54,-1628.12C613.46,-1623.36 620.69,-1617.83 626.75,-1612 652.28,-1587.44 675.88,-1554.29 691.07,-1531.02"/>
<polygon fill="black" stroke="black" points="693.98,-1532.98 696.43,-1522.67 688.08,-1529.2 693.98,-1532.98"/>
</g>
<!-- fuse&#45;&gt;store -->
<g id="edge33" class="edge">
<title>fuse&#45;&gt;store</title>
<path fill="none" stroke="black" d="M584.28,-1625.59C592.34,-1587.58 611.33,-1497.62 626.75,-1422 643.14,-1341.63 630.49,-1316.41 662.75,-1241 668.41,-1227.76 677.04,-1214.51 685.28,-1203.46"/>
<polygon fill="black" stroke="black" points="688.04,-1205.61 691.41,-1195.56 682.51,-1201.32 688.04,-1205.61"/>
</g>
<!-- git&#45;&gt;hash -->
<g id="edge34" class="edge">
<title>git&#45;&gt;hash</title>
<path fill="none" stroke="black" d="M455.9,-1492.48C467.92,-1537.37 500.68,-1650 532,-1671 640.23,-1743.56 783.82,-1593.85 837.71,-1529.99"/>
<polygon fill="black" stroke="black" points="840.33,-1532.32 844.03,-1522.39 834.95,-1527.84 840.33,-1532.32"/>
</g>
<!-- git&#45;&gt;object -->
<g id="edge35" class="edge">
<title>git&#45;&gt;object</title>
<path fill="none" stroke="black" d="M477.21,-1476.94C522.45,-1482.04 615.73,-1492.56 668.93,-1498.55"/>
<polygon fill="black" stroke="black" points="668.44,-1502.02 678.77,-1499.66 669.23,-1495.06 668.44,-1502.02"/>
</g>
<!-- sqlite -->
<g id="node47" class="node">
<title>sqlite</title>
<polygon fill="none" stroke="black" points="887.38,-1190 833.38,-1190 833.38,-1154 887.38,-1154 887.38,-1190"/>
<text text-anchor="middle" x="860.38" y="-1167.7" font-family="sans-serif" font-size="14.00">sqlite</text>
</g>
<!-- git&#45;&gt;sqlite -->
<g id="edge36" class="edge">
<title>git&#45;&gt;sqlite</title>
<path fill="none" stroke="black" d="M477.61,-1470.99C516.42,-1465.11 588.28,-1448.43 626.75,-1403 674.41,-1346.71 613.79,-1296.16 662.75,-1241 673.68,-1228.69 768.5,-1198.99 822.37,-1182.86"/>
<polygon fill="black" stroke="black" points="823.16,-1186.28 831.75,-1180.07 821.16,-1179.57 823.16,-1186.28"/>
</g>
<!-- git&#45;&gt;store -->
<g id="edge37" class="edge">
<title>git&#45;&gt;store</title>
<path fill="none" stroke="black" d="M477.61,-1462.01C516.43,-1443.05 588.3,-1402.44 626.75,-1346 662.44,-1293.62 626.59,-1260.06 662.75,-1208 665.62,-1203.87 669.21,-1200.09 673.11,-1196.7"/>
<polygon fill="black" stroke="black" points="674.97,-1199.68 680.77,-1190.82 670.71,-1194.13 674.97,-1199.68"/>
</g>
<!-- grammar -->
<g id="node13" class="node">
<title>grammar</title>
<polygon fill="none" stroke="black" points="1038.5,-472 964.75,-472 964.75,-436 1038.5,-436 1038.5,-472"/>
<text text-anchor="middle" x="1001.62" y="-449.7" font-family="sans-serif" font-size="14.00">grammar</text>
</g>
<!-- graph -->
<g id="node14" class="node">
<title>graph</title>
<polygon fill="none" stroke="black" points="477.12,-1206 423.12,-1206 423.12,-1170 477.12,-1170 477.12,-1206"/>
<text text-anchor="middle" x="450.12" y="-1183.7" font-family="sans-serif" font-size="14.00">graph</text>
</g>
<!-- graph&#45;&gt;hash -->
<g id="edge38" class="edge">
<title>graph&#45;&gt;hash</title>
<path fill="none" stroke="black" d="M477.57,-1197.29C514.13,-1211.08 580.79,-1239.74 626.75,-1280 647.62,-1298.28 641.58,-1313.07 662.75,-1331 697.86,-1360.75 719.89,-1347.47 756,-1376 791.96,-1404.41 823.62,-1447.4 842.14,-1475.34"/>
<polygon fill="black" stroke="black" points="839.14,-1477.15 847.53,-1483.63 845.01,-1473.34 839.14,-1477.15"/>
</g>
<!-- parse -->
<g id="node32" class="node">
<title>parse</title>
<polygon fill="none" stroke="black" points="1141.38,-881 1087.38,-881 1087.38,-845 1141.38,-845 1141.38,-881"/>
<text text-anchor="middle" x="1114.38" y="-858.7" font-family="sans-serif" font-size="14.00">parse</text>
</g>
<!-- graph&#45;&gt;parse -->
<g id="edge39" class="edge">
<title>graph&#45;&gt;parse</title>
<path fill="none" stroke="black" d="M477.61,-1177.3C484.64,-1173.22 491.52,-1167.85 496,-1161 563.73,-1057.49 439.66,-967.32 532,-885 540.23,-877.67 917.74,-879.56 928.75,-879 979.78,-876.41 1038.55,-870.87 1075.81,-867.05"/>
<polygon fill="black" stroke="black" points="1076.03,-870.54 1085.62,-866.03 1075.31,-863.58 1076.03,-870.54"/>
</g>
<!-- rand -->
<g id="node39" class="node">
<title>rand</title>
<polygon fill="none" stroke="black" points="1028.62,-1521 974.62,-1521 974.62,-1485 1028.62,-1485 1028.62,-1521"/>
<text text-anchor="middle" x="1001.62" y="-1498.7" font-family="sans-serif" font-size="14.00">rand</text>
</g>
<!-- hash&#45;&gt;rand -->
<g id="edge40" class="edge">
<title>hash&#45;&gt;rand</title>
<path fill="none" stroke="black" d="M887.57,-1503C908.86,-1503 939.19,-1503 963.07,-1503"/>
<polygon fill="black" stroke="black" points="963.04,-1506.5 973.04,-1503 963.04,-1499.5 963.04,-1506.5"/>
</g>
<!-- haskell -->
<g id="node16" class="node">
<title>haskell</title>
<polygon fill="none" stroke="black" points="610.62,-595 548.12,-595 548.12,-559 610.62,-559 610.62,-595"/>
<text text-anchor="middle" x="579.38" y="-572.7" font-family="sans-serif" font-size="14.00">haskell</text>
</g>
<!-- haskell&#45;&gt;init -->
<g id="edge41" class="edge">
<title>haskell&#45;&gt;init</title>
<path fill="none" stroke="black" d="M611.03,-577C629.04,-577 651.93,-577 670.99,-577"/>
<polygon fill="black" stroke="black" points="670.77,-580.5 680.77,-577 670.77,-573.5 670.77,-580.5"/>
</g>
<!-- hol&#45;&gt;core -->
<g id="edge42" class="edge">
<title>hol&#45;&gt;core</title>
<path fill="none" stroke="black" d="M873.73,-36.28C898.2,-72.47 952.93,-153.44 981.86,-196.24"/>
<polygon fill="black" stroke="black" points="978.95,-198.18 987.45,-204.51 984.75,-194.26 978.95,-198.18"/>
</g>
<!-- hol&#45;eval&#45;&gt;core -->
<g id="edge43" class="edge">
<title>hol&#45;eval&#45;&gt;core</title>
<path fill="none" stroke="black" d="M895.8,-224C916.22,-224 942.14,-224 963.09,-224"/>
<polygon fill="black" stroke="black" points="962.95,-227.5 972.95,-224 962.95,-220.5 962.95,-227.5"/>
</g>
<!-- hol&#45;eval&#45;&gt;pure -->
<g id="edge44" class="edge">
<title>hol&#45;eval&#45;&gt;pure</title>
<path fill="none" stroke="black" d="M895.87,-212.63C915.76,-206.67 941.38,-200 964.75,-197 1040.54,-187.27 1129.87,-199.63 1179.06,-208.49"/>
<polygon fill="black" stroke="black" points="1178.13,-211.88 1188.6,-210.26 1179.41,-205 1178.13,-211.88"/>
</g>
<!-- hol&#45;eval&#45;&gt;pure&#45;eval -->
<g id="edge45" class="edge">
<title>hol&#45;eval&#45;&gt;pure&#45;eval</title>
<path fill="none" stroke="black" d="M895.5,-234.58C915.48,-240.36 941.33,-247.11 964.75,-251 997.05,-256.37 1033.74,-259.12 1062.59,-260.52"/>
<polygon fill="black" stroke="black" points="1062.37,-264.02 1072.52,-260.97 1062.68,-257.03 1062.37,-264.02"/>
</g>
<!-- hol&#45;eval&#45;&gt;sexp -->
<g id="edge46" class="edge">
<title>hol&#45;eval&#45;&gt;sexp</title>
<path fill="none" stroke="black" d="M887.44,-242.43C901.94,-254.1 918.97,-270.46 928.75,-289 938.07,-306.67 981.89,-590.83 996.14,-684.39"/>
<polygon fill="black" stroke="black" points="992.64,-684.7 997.61,-694.06 999.56,-683.65 992.64,-684.7"/>
</g>
<!-- hol&#45;eval&#45;&gt;types -->
<g id="edge47" class="edge">
<title>hol&#45;eval&#45;&gt;types</title>
<path fill="none" stroke="black" d="M894.04,-205.57C941.02,-180.84 1031.06,-140 1113.38,-140 1113.38,-140 1113.38,-140 1218.25,-140 1293.15,-140 1316.88,-147.9 1379.5,-189 1397.46,-200.79 1413.08,-219.27 1424.15,-234.69"/>
<polygon fill="black" stroke="black" points="1421.02,-236.31 1429.58,-242.56 1426.78,-232.34 1421.02,-236.31"/>
</g>
<!-- inductive -->
<g id="node19" class="node">
<title>inductive</title>
<polygon fill="none" stroke="black" points="898.75,-648 822,-648 822,-612 898.75,-612 898.75,-648"/>
<text text-anchor="middle" x="860.38" y="-625.7" font-family="sans-serif" font-size="14.00">inductive</text>
</g>
<!-- init&#45;&gt;core -->
<g id="edge48" class="edge">
<title>init&#45;&gt;core</title>
<path fill="none" stroke="black" d="M709.83,-558.83C709.35,-508.4 715.18,-365.42 792,-289 836.72,-244.51 868.78,-270.55 928.75,-251 940.16,-247.28 952.43,-242.84 963.54,-238.64"/>
<polygon fill="black" stroke="black" points="964.7,-241.95 972.79,-235.11 962.19,-235.41 964.7,-241.95"/>
</g>
<!-- init&#45;&gt;grammar -->
<g id="edge49" class="edge">
<title>init&#45;&gt;grammar</title>
<path fill="none" stroke="black" d="M729.96,-558.62C738.4,-550.25 748.12,-540.01 756,-530 774.53,-506.46 766.44,-488.64 792,-473 840.8,-443.14 908.4,-442.8 953.27,-446.98"/>
<polygon fill="black" stroke="black" points="952.63,-450.43 962.94,-448 953.36,-443.47 952.63,-450.43"/>
</g>
<!-- init&#45;&gt;hash -->
<g id="edge50" class="edge">
<title>init&#45;&gt;hash</title>
<path fill="none" stroke="black" d="M712.23,-595.36C721.83,-689.75 766.38,-1121 792,-1253 807.75,-1334.16 835.64,-1427.74 850.1,-1474"/>
<polygon fill="black" stroke="black" points="846.68,-1474.78 853.02,-1483.26 853.36,-1472.67 846.68,-1474.78"/>
</g>
<!-- init&#45;&gt;hol -->
<g id="edge51" class="edge">
<title>init&#45;&gt;hol</title>
<path fill="none" stroke="black" d="M713.33,-558.57C722.44,-503.17 751.86,-333.6 792,-197 807.92,-142.81 832.43,-81.61 847.08,-46.64"/>
<polygon fill="black" stroke="black" points="850.22,-48.21 850.88,-37.64 843.77,-45.49 850.22,-48.21"/>
</g>
<!-- init&#45;&gt;hol&#45;eval -->
<g id="edge52" class="edge">
<title>init&#45;&gt;hol&#45;eval</title>
<path fill="none" stroke="black" d="M712.96,-558.61C721.85,-497.71 752.74,-303.75 792,-256 798.02,-248.68 806.11,-242.92 814.59,-238.44"/>
<polygon fill="black" stroke="black" points="816.06,-241.62 823.65,-234.23 813.11,-235.27 816.06,-241.62"/>
</g>
<!-- init&#45;&gt;inductive -->
<g id="edge53" class="edge">
<title>init&#45;&gt;inductive</title>
<path fill="none" stroke="black" d="M736.67,-586.35C757.19,-593.65 786.27,-604 810.97,-612.78"/>
<polygon fill="black" stroke="black" points="809.58,-616 820.17,-616.06 811.93,-609.41 809.58,-616"/>
</g>
<!-- metamath -->
<g id="node27" class="node">
<title>metamath</title>
<polygon fill="none" stroke="black" points="900.62,-778 820.12,-778 820.12,-742 900.62,-742 900.62,-778"/>
<text text-anchor="middle" x="860.38" y="-755.7" font-family="sans-serif" font-size="14.00">metamath</text>
</g>
<!-- init&#45;&gt;metamath -->
<g id="edge54" class="edge">
<title>init&#45;&gt;metamath</title>
<path fill="none" stroke="black" d="M722.35,-595.2C737.64,-618.03 765.31,-658.05 792,-690 804.6,-705.08 819.68,-720.93 832.38,-733.73"/>
<polygon fill="black" stroke="black" points="829.7,-736 839.26,-740.59 834.65,-731.05 829.7,-736"/>
</g>
<!-- init&#45;&gt;sexp -->
<g id="edge55" class="edge">
<title>init&#45;&gt;sexp</title>
<path fill="none" stroke="black" d="M724.31,-595.3C739.15,-613.56 764.29,-641.1 792,-657 821.14,-673.72 911.5,-694.92 963.24,-706.17"/>
<polygon fill="black" stroke="black" points="962.28,-709.54 972.79,-708.22 963.75,-702.7 962.28,-709.54"/>
</g>
<!-- spectec -->
<g id="node46" class="node">
<title>spectec</title>
<polygon fill="none" stroke="black" points="895,-426 825.75,-426 825.75,-390 895,-390 895,-426"/>
<text text-anchor="middle" x="860.38" y="-403.7" font-family="sans-serif" font-size="14.00">spectec</text>
</g>
<!-- init&#45;&gt;spectec -->
<g id="edge56" class="edge">
<title>init&#45;&gt;spectec</title>
<path fill="none" stroke="black" d="M731.32,-558.82C739.81,-550.65 749.19,-540.49 756,-530 779.45,-493.86 762.51,-471.41 792,-440 798.43,-433.15 806.62,-427.62 815.06,-423.2"/>
<polygon fill="black" stroke="black" points="816.45,-426.42 824.01,-419 813.47,-420.08 816.45,-426.42"/>
</g>
<!-- init&#45;&gt;types -->
<g id="edge57" class="edge">
<title>init&#45;&gt;types</title>
<path fill="none" stroke="black" d="M732.55,-558.82C741.02,-550.8 750.07,-540.76 756,-530 788.89,-470.34 739.6,-424.54 792,-381 801.68,-372.96 1231.74,-358.35 1244.25,-357 1304.8,-350.49 1326.47,-364.94 1379.5,-335 1398.45,-324.3 1414.22,-305.47 1425.12,-289.61"/>
<polygon fill="black" stroke="black" points="1427.89,-291.78 1430.43,-281.49 1422.03,-287.95 1427.89,-291.78"/>
</g>
<!-- json -->
<g id="node21" class="node">
<title>json</title>
<polygon fill="none" stroke="black" points="887.38,-1044 833.38,-1044 833.38,-1008 887.38,-1008 887.38,-1044"/>
<text text-anchor="middle" x="860.38" y="-1021.7" font-family="sans-serif" font-size="14.00">json</text>
</g>
<!-- kernel -->
<g id="node22" class="node">
<title>kernel</title>
<polygon fill="none" stroke="black" points="608,-1060 550.75,-1060 550.75,-1024 608,-1024 608,-1060"/>
<text text-anchor="middle" x="579.38" y="-1037.7" font-family="sans-serif" font-size="14.00">kernel</text>
</g>
<!-- kernel&#45;&gt;hash -->
<g id="edge58" class="edge">
<title>kernel&#45;&gt;hash</title>
<path fill="none" stroke="black" d="M608.09,-1052.88C615.19,-1056.93 622.12,-1062.24 626.75,-1069 684.24,-1152.9 601.33,-1213.93 662.75,-1295 690.31,-1331.38 721.74,-1307.85 756,-1338 799.93,-1376.65 831.71,-1438.47 847.69,-1474.45"/>
<polygon fill="black" stroke="black" points="844.36,-1475.56 851.54,-1483.35 850.78,-1472.78 844.36,-1475.56"/>
</g>
<!-- kernel&#45;&gt;init -->
<g id="edge59" class="edge">
<title>kernel&#45;&gt;init</title>
<path fill="none" stroke="black" d="M589.93,-1023.85C600.24,-1003.62 616.56,-969.71 626.75,-939 650.1,-868.58 646.46,-848.38 662.75,-776 676.33,-715.67 692.59,-645.15 701.57,-606.35"/>
<polygon fill="black" stroke="black" points="704.92,-607.38 703.77,-596.85 698.1,-605.8 704.92,-607.38"/>
</g>
<!-- kernel&#45;&gt;object -->
<g id="edge60" class="edge">
<title>kernel&#45;&gt;object</title>
<path fill="none" stroke="black" d="M608.18,-1052.83C615.28,-1056.87 622.18,-1062.19 626.75,-1069 691.49,-1165.52 640.05,-1214.02 662.75,-1328 673.08,-1379.87 689.57,-1439.25 699.64,-1473.8"/>
<polygon fill="black" stroke="black" points="696.19,-1474.46 702.37,-1483.07 702.9,-1472.48 696.19,-1474.46"/>
</g>
<!-- kernel&#45;&gt;sexp -->
<g id="edge61" class="edge">
<title>kernel&#45;&gt;sexp</title>
<path fill="none" stroke="black" d="M592.88,-1023.72C622.43,-981.93 700.98,-878.88 792,-825 846.28,-792.87 874.39,-819 928.75,-787 948.74,-775.23 967.01,-756.51 980.13,-740.97"/>
<polygon fill="black" stroke="black" points="982.67,-743.4 986.28,-733.44 977.24,-738.98 982.67,-743.4"/>
</g>
<!-- kernel&#45;&gt;store -->
<g id="edge62" class="edge">
<title>kernel&#45;&gt;store</title>
<path fill="none" stroke="black" d="M608.26,-1054.76C614.86,-1058.68 621.51,-1063.44 626.75,-1069 651.03,-1094.73 640.34,-1112.62 662.75,-1140 665.93,-1143.88 669.59,-1147.61 673.43,-1151.11"/>
<polygon fill="black" stroke="black" points="670.95,-1153.59 680.85,-1157.37 675.47,-1148.24 670.95,-1153.59"/>
</g>
<!-- kv -->
<g id="node23" class="node">
<title>kv</title>
<polygon fill="none" stroke="black" points="226.12,-488 172.12,-488 172.12,-452 226.12,-452 226.12,-488"/>
<text text-anchor="middle" x="199.12" y="-465.7" font-family="sans-serif" font-size="14.00">kv</text>
</g>
<!-- lean -->
<g id="node24" class="node">
<title>lean</title>
<polygon fill="none" stroke="black" points="87.5,-1545 33.5,-1545 33.5,-1509 87.5,-1509 87.5,-1545"/>
<text text-anchor="middle" x="60.5" y="-1522.7" font-family="sans-serif" font-size="14.00">lean</text>
</g>
<!-- llm -->
<g id="node25" class="node">
<title>llm</title>
<polygon fill="none" stroke="black" points="226.12,-1372 172.12,-1372 172.12,-1336 226.12,-1336 226.12,-1372"/>
<text text-anchor="middle" x="199.12" y="-1349.7" font-family="sans-serif" font-size="14.00">llm</text>
</g>
<!-- llm&#45;&gt;proto -->
<g id="edge63" class="edge">
<title>llm&#45;&gt;proto</title>
<path fill="none" stroke="black" d="M226.52,-1360.51C243.41,-1364.68 265.59,-1370.15 284.29,-1374.76"/>
<polygon fill="black" stroke="black" points="283.39,-1378.14 293.94,-1377.14 285.07,-1371.35 283.39,-1378.14"/>
</g>
<!-- lsp&#45;&gt;sexp -->
<g id="edge64" class="edge">
<title>lsp&#45;&gt;sexp</title>
<path fill="none" stroke="black" d="M887.57,-843.33C900.9,-838.04 916.76,-830.29 928.75,-820 954.06,-798.28 974.39,-765.61 986.89,-742.29"/>
<polygon fill="black" stroke="black" points="989.87,-744.14 991.37,-733.65 983.66,-740.91 989.87,-744.14"/>
</g>
<!-- lsp&#45;&gt;wasm -->
<g id="edge65" class="edge">
<title>lsp&#45;&gt;wasm</title>
<path fill="none" stroke="black" d="M881.66,-870.42C895.84,-883.89 914.67,-903.04 928.75,-922 952.53,-954.01 974.09,-994.7 987.26,-1021.5"/>
<polygon fill="black" stroke="black" points="984.04,-1022.89 991.55,-1030.37 990.34,-1019.85 984.04,-1022.89"/>
</g>
<!-- metamath&#45;&gt;parse -->
<g id="edge66" class="edge">
<title>metamath&#45;&gt;parse</title>
<path fill="none" stroke="black" d="M901.03,-776.21C949.15,-795.88 1029.64,-828.78 1076.48,-847.92"/>
<polygon fill="black" stroke="black" points="1075.08,-851.13 1085.66,-851.67 1077.73,-844.65 1075.08,-851.13"/>
</g>
<!-- metamath&#45;&gt;sexp -->
<g id="edge67" class="edge">
<title>metamath&#45;&gt;sexp</title>
<path fill="none" stroke="black" d="M900.91,-746.94C920.53,-740.46 944.11,-732.67 963.41,-726.29"/>
<polygon fill="black" stroke="black" points="964.38,-729.66 972.78,-723.2 962.19,-723.01 964.38,-729.66"/>
</g>
<!-- multiformat -->
<g id="node28" class="node">
<title>multiformat</title>
<polygon fill="none" stroke="black" points="754.5,-1944 664.25,-1944 664.25,-1908 754.5,-1908 754.5,-1944"/>
<text text-anchor="middle" x="709.38" y="-1921.7" font-family="sans-serif" font-size="14.00">multiformat</text>
</g>
<!-- multiformat&#45;&gt;acset -->
<g id="edge68" class="edge">
<title>multiformat&#45;&gt;acset</title>
<path fill="none" stroke="black" d="M754.68,-1926C776.05,-1926 801.41,-1926 821.81,-1926"/>
<polygon fill="black" stroke="black" points="821.68,-1929.5 831.68,-1926 821.68,-1922.5 821.68,-1929.5"/>
</g>
<!-- multiformat&#45;&gt;hash -->
<g id="edge69" class="edge">
<title>multiformat&#45;&gt;hash</title>
<path fill="none" stroke="black" d="M724.55,-1907.56C734.48,-1893.93 747.45,-1874.58 756,-1856 808.55,-1741.79 841.41,-1594.47 853.79,-1532.51"/>
<polygon fill="black" stroke="black" points="857.21,-1533.27 855.7,-1522.78 850.34,-1531.92 857.21,-1533.27"/>
</g>
<!-- multiformat&#45;&gt;parse -->
<g id="edge70" class="edge">
<title>multiformat&#45;&gt;parse</title>
<path fill="none" stroke="black" d="M745.84,-1944.5C792.77,-1966.11 875.72,-1994.02 928.75,-1953 1102.41,-1818.65 1113.13,-1053.84 1113.45,-892.77"/>
<polygon fill="black" stroke="black" points="1116.95,-892.95 1113.45,-882.95 1109.95,-892.95 1116.95,-892.95"/>
</g>
<!-- object&#45;&gt;hash -->
<g id="edge71" class="edge">
<title>object&#45;&gt;hash</title>
<path fill="none" stroke="black" d="M738.4,-1503C761.94,-1503 795.79,-1503 821.7,-1503"/>
<polygon fill="black" stroke="black" points="821.46,-1506.5 831.46,-1503 821.46,-1499.5 821.46,-1506.5"/>
</g>
<!-- object&#45;&gt;parse -->
<g id="edge72" class="edge">
<title>object&#45;&gt;parse</title>
<path fill="none" stroke="black" d="M732.31,-1484.66C774.22,-1448.85 866.96,-1365.78 928.75,-1282 990.09,-1198.83 996.92,-1171.61 1038.5,-1077 1066.74,-1012.74 1091.97,-934.17 1104.68,-892.41"/>
<polygon fill="black" stroke="black" points="1108.02,-893.44 1107.56,-882.85 1101.32,-891.42 1108.02,-893.44"/>
</g>
<!-- opentheory&#45;&gt;hol -->
<g id="edge73" class="edge">
<title>opentheory&#45;&gt;hol</title>
<path fill="none" stroke="black" d="M324.28,-581.66C327.65,-502.79 352.29,-190.2 532,-52 617.89,14.05 756.15,0.91 822.08,-10.35"/>
<polygon fill="black" stroke="black" points="821.19,-13.75 831.65,-12.07 822.43,-6.86 821.19,-13.75"/>
</g>
<!-- parquet -->
<g id="node31" class="node">
<title>parquet</title>
<polygon fill="none" stroke="black" points="483.62,-1152 416.62,-1152 416.62,-1116 483.62,-1116 483.62,-1152"/>
<text text-anchor="middle" x="450.12" y="-1129.7" font-family="sans-serif" font-size="14.00">parquet</text>
</g>
<!-- parquet&#45;&gt;arrow -->
<g id="edge74" class="edge">
<title>parquet&#45;&gt;arrow</title>
<path fill="none" stroke="black" d="M483.9,-1124.21C501.46,-1118.97 523.16,-1112.49 541.33,-1107.06"/>
<polygon fill="black" stroke="black" points="542.09,-1110.49 550.67,-1104.27 540.09,-1103.78 542.09,-1110.49"/>
</g>
<!-- proptest -->
<g id="node33" class="node">
<title>proptest</title>
<polygon fill="none" stroke="black" points="95.88,-1599 25.12,-1599 25.12,-1563 95.88,-1563 95.88,-1599"/>
<text text-anchor="middle" x="60.5" y="-1576.7" font-family="sans-serif" font-size="14.00">proptest</text>
</g>
<!-- pure&#45;trusted -->
<g id="node37" class="node">
<title>pure&#45;trusted</title>
<polygon fill="#ffd6d6" stroke="black" points="1379.5,-234 1280.25,-234 1280.25,-198 1379.5,-198 1379.5,-234"/>
<text text-anchor="middle" x="1329.88" y="-211.7" font-family="sans-serif" font-size="14.00">pure&#45;trusted</text>
</g>
<!-- pure&#45;&gt;pure&#45;trusted -->
<g id="edge75" class="edge">
<title>pure&#45;&gt;pure&#45;trusted</title>
<path fill="none" stroke="black" d="M1244.75,-216C1252.04,-216 1260.27,-216 1268.64,-216"/>
<polygon fill="black" stroke="black" points="1268.57,-219.5 1278.57,-216 1268.57,-212.5 1268.57,-219.5"/>
</g>
<!-- pure&#45;eval&#45;&gt;pure -->
<g id="edge76" class="edge">
<title>pure&#45;eval&#45;&gt;pure</title>
<path fill="none" stroke="black" d="M1154.66,-244.08C1162.9,-240.33 1171.54,-236.39 1179.67,-232.68"/>
<polygon fill="black" stroke="black" points="1180.96,-235.94 1188.6,-228.61 1178.05,-229.57 1180.96,-235.94"/>
</g>
<!-- pure&#45;eval&#45;&gt;types -->
<g id="edge77" class="edge">
<title>pure&#45;eval&#45;&gt;types</title>
<path fill="none" stroke="black" d="M1154.71,-262C1218.06,-262 1341.83,-262 1403.99,-262"/>
<polygon fill="black" stroke="black" points="1403.69,-265.5 1413.69,-262 1403.69,-258.5 1403.69,-265.5"/>
</g>
<!-- pure&#45;trusted&#45;&gt;types -->
<g id="edge78" class="edge">
<title>pure&#45;trusted&#45;&gt;types</title>
<path fill="none" stroke="black" d="M1375.23,-234.44C1385,-238.51 1395.24,-242.76 1404.67,-246.68"/>
<polygon fill="black" stroke="black" points="1403.31,-249.91 1413.89,-250.52 1406,-243.45 1403.31,-249.91"/>
</g>
<!-- python -->
<g id="node38" class="node">
<title>python</title>
<polygon fill="none" stroke="black" points="91.38,-873 29.62,-873 29.62,-837 91.38,-837 91.38,-873"/>
<text text-anchor="middle" x="60.5" y="-850.7" font-family="sans-serif" font-size="14.00">python</text>
</g>
<!-- python&#45;&gt;crypto&#45;sig -->
<g id="edge79" class="edge">
<title>python&#45;&gt;crypto&#45;sig</title>
<path fill="none" stroke="black" d="M69.23,-836.58C83.36,-804.3 115.76,-736.42 157,-689 158.87,-686.85 160.9,-684.74 163.03,-682.7"/>
<polygon fill="black" stroke="black" points="165.22,-685.44 170.42,-676.21 160.59,-680.18 165.22,-685.44"/>
</g>
<!-- python&#45;&gt;git -->
<g id="edge80" class="edge">
<title>python&#45;&gt;git</title>
<path fill="none" stroke="black" d="M62.95,-873.22C69.78,-955.65 100.81,-1293.41 157,-1381 192.2,-1435.87 215.6,-1443.81 277.25,-1465 321.43,-1480.18 375.74,-1480.18 411.34,-1477.87"/>
<polygon fill="black" stroke="black" points="411.43,-1481.38 421.14,-1477.14 410.91,-1474.4 411.43,-1481.38"/>
</g>
<!-- python&#45;&gt;graph -->
<g id="edge81" class="edge">
<title>python&#45;&gt;graph</title>
<path fill="none" stroke="black" d="M68.03,-873.19C88.72,-927.81 158.54,-1090.86 277.25,-1159 318.93,-1182.92 375.04,-1188.33 411.64,-1188.98"/>
<polygon fill="black" stroke="black" points="411.26,-1192.48 421.28,-1189.03 411.3,-1185.48 411.26,-1192.48"/>
</g>
<!-- python&#45;&gt;hash -->
<g id="edge82" class="edge">
<title>python&#45;&gt;hash</title>
<path fill="none" stroke="black" d="M62.41,-873.34C67.28,-966.57 92.62,-1387.87 157,-1499 275.35,-1703.28 390.96,-1758.83 626.75,-1747 684.41,-1744.11 709.18,-1767.79 756,-1734 823.29,-1685.44 847.56,-1582.81 855.66,-1532.31"/>
<polygon fill="black" stroke="black" points="859.07,-1533.13 857.09,-1522.73 852.15,-1532.1 859.07,-1533.13"/>
</g>
<!-- python&#45;&gt;kv -->
<g id="edge83" class="edge">
<title>python&#45;&gt;kv</title>
<path fill="none" stroke="black" d="M62.41,-836.84C65.96,-781.81 82.64,-613.81 157,-502 158.83,-499.25 160.98,-496.63 163.31,-494.16"/>
<polygon fill="black" stroke="black" points="165.68,-496.74 170.68,-487.4 160.94,-491.58 165.68,-496.74"/>
</g>
<!-- python&#45;&gt;llm -->
<g id="edge84" class="edge">
<title>python&#45;&gt;llm</title>
<path fill="none" stroke="black" d="M63.33,-873.44C71.3,-950.96 104.95,-1250.05 157,-1327 158.79,-1329.65 160.95,-1332.11 163.31,-1334.37"/>
<polygon fill="black" stroke="black" points="160.79,-1336.83 170.78,-1340.34 165.16,-1331.36 160.79,-1336.83"/>
</g>
<!-- python&#45;&gt;object -->
<g id="edge85" class="edge">
<title>python&#45;&gt;object</title>
<path fill="none" stroke="black" d="M62.77,-873.36C69.07,-960.44 98.96,-1331.77 157,-1430 204.45,-1510.3 228.48,-1560 321.75,-1560 321.75,-1560 321.75,-1560 451.12,-1560 529.43,-1560 551.54,-1567.81 626.75,-1546 641.83,-1541.63 657.33,-1534.3 670.71,-1526.92"/>
<polygon fill="black" stroke="black" points="672.24,-1530.08 679.18,-1522.07 668.76,-1524 672.24,-1530.08"/>
</g>
<!-- python&#45;&gt;repl -->
<g id="edge86" class="edge">
<title>python&#45;&gt;repl</title>
<path fill="none" stroke="black" d="M78.58,-873.17C123.34,-920.82 244.23,-1049.49 296.79,-1105.43"/>
<polygon fill="black" stroke="black" points="294.18,-1107.76 303.58,-1112.66 299.28,-1102.97 294.18,-1107.76"/>
</g>
<!-- sat -->
<g id="node41" class="node">
<title>sat</title>
<polygon fill="none" stroke="black" points="887.38,-334 833.38,-334 833.38,-298 887.38,-298 887.38,-334"/>
<text text-anchor="middle" x="860.38" y="-311.7" font-family="sans-serif" font-size="14.00">sat</text>
</g>
<!-- python&#45;&gt;sat -->
<g id="edge87" class="edge">
<title>python&#45;&gt;sat</title>
<path fill="none" stroke="black" d="M60.84,-836.51C59.99,-781.64 65.6,-618.65 157,-540 213.09,-491.74 247.75,-516 321.75,-516 321.75,-516 321.75,-516 580.38,-516 587.79,-516 752.37,-395.07 825.21,-341.28"/>
<polygon fill="black" stroke="black" points="827.26,-344.11 833.23,-335.36 823.1,-338.48 827.26,-344.11"/>
</g>
<!-- python&#45;&gt;serve -->
<g id="edge88" class="edge">
<title>python&#45;&gt;serve</title>
<path fill="none" stroke="black" d="M64.25,-873.14C73.02,-928.36 102.94,-1098.59 157,-1230 163.01,-1244.61 171.64,-1259.84 179.44,-1272.35"/>
<polygon fill="black" stroke="black" points="176.29,-1273.93 184.64,-1280.46 182.19,-1270.15 176.29,-1273.93"/>
</g>
<!-- python&#45;&gt;sexp -->
<g id="edge89" class="edge">
<title>python&#45;&gt;sexp</title>
<path fill="none" stroke="black" d="M63.28,-836.63C68.64,-791.33 88.78,-673.4 157,-610 197.96,-571.93 221.95,-581.31 277.25,-573 317.24,-566.99 328.18,-567.48 368.25,-573 562.04,-599.69 599.88,-655.17 792,-692 851.21,-703.35 921.09,-709.22 963.07,-711.95"/>
<polygon fill="black" stroke="black" points="962.69,-715.44 972.89,-712.56 963.12,-708.45 962.69,-715.44"/>
</g>
<!-- python&#45;&gt;shell -->
<g id="edge90" class="edge">
<title>python&#45;&gt;shell</title>
<path fill="none" stroke="black" d="M62.82,-836.51C67.12,-791.73 84.99,-677.66 157,-630 263.78,-559.32 388.22,-736.43 432.47,-807.79"/>
<polygon fill="black" stroke="black" points="429.42,-809.5 437.62,-816.21 435.39,-805.85 429.42,-809.5"/>
</g>
<!-- python&#45;&gt;store -->
<g id="edge91" class="edge">
<title>python&#45;&gt;store</title>
<path fill="none" stroke="black" d="M64.74,-873.25C73.23,-916.83 99.55,-1028.74 157,-1102 197.23,-1153.3 217.65,-1159.59 277.25,-1186 366.91,-1225.73 400.8,-1238.58 496,-1215 513.56,-1210.65 514.71,-1201.33 532,-1196 578.5,-1181.65 634.74,-1177.4 671.02,-1176.24"/>
<polygon fill="black" stroke="black" points="670.63,-1179.75 680.54,-1176 670.46,-1172.75 670.63,-1179.75"/>
</g>
<!-- python&#45;&gt;wasm -->
<g id="edge92" class="edge">
<title>python&#45;&gt;wasm</title>
<path fill="none" stroke="black" d="M79.79,-836.78C97.8,-820.05 126.9,-796.08 157,-784 296.9,-727.85 348.56,-741.61 496,-773 499.18,-773.68 926.2,-947.99 928.75,-950 953.53,-969.55 973.63,-999.8 986.21,-1021.92"/>
<polygon fill="black" stroke="black" points="982.99,-1023.33 990.88,-1030.41 989.13,-1019.96 982.99,-1023.33"/>
</g>
<!-- wasm&#45;store -->
<g id="node54" class="node">
<title>wasm&#45;store</title>
<polygon fill="none" stroke="black" points="626.75,-930 532,-930 532,-894 626.75,-894 626.75,-930"/>
<text text-anchor="middle" x="579.38" y="-907.7" font-family="sans-serif" font-size="14.00">wasm&#45;store</text>
</g>
<!-- python&#45;&gt;wasm&#45;store -->
<g id="edge93" class="edge">
<title>python&#45;&gt;wasm&#45;store</title>
<path fill="none" stroke="black" d="M91.68,-840.05C166.52,-805.31 364.14,-728.02 496,-809 526.15,-827.52 508.72,-853.36 532,-880 534.05,-882.35 536.31,-884.61 538.69,-886.76"/>
<polygon fill="black" stroke="black" points="536.03,-889.1 545.99,-892.72 540.46,-883.68 536.03,-889.1"/>
</g>
<!-- repl&#45;&gt;arrow -->
<g id="edge94" class="edge">
<title>repl&#45;&gt;arrow</title>
<path fill="none" stroke="black" d="M350.18,-1122.04C365.7,-1116.64 385.83,-1110.39 404.25,-1107 450.69,-1098.45 505.13,-1096.23 540.61,-1095.81"/>
<polygon fill="black" stroke="black" points="540.39,-1099.31 550.37,-1095.74 540.34,-1092.31 540.39,-1099.31"/>
</g>
<!-- repl&#45;&gt;forsp -->
<g id="edge95" class="edge">
<title>repl&#45;&gt;forsp</title>
<path fill="none" stroke="black" d="M327.31,-1113.5C334.84,-1080.21 355.81,-1010.98 404.25,-982 489.11,-931.23 542.48,-930.25 626.75,-982 656.9,-1000.52 638.56,-1027.18 662.75,-1053 665.63,-1056.07 668.93,-1058.9 672.41,-1061.49"/>
<polygon fill="black" stroke="black" points="670.36,-1064.32 680.63,-1066.9 674.21,-1058.48 670.36,-1064.32"/>
</g>
<!-- repl&#45;&gt;git -->
<g id="edge96" class="edge">
<title>repl&#45;&gt;git</title>
<path fill="none" stroke="black" d="M328.91,-1150.14C344.99,-1206.53 393.74,-1376.36 404.25,-1400 411.3,-1415.86 421.13,-1432.48 429.79,-1445.94"/>
<polygon fill="black" stroke="black" points="426.87,-1447.86 435.29,-1454.29 432.72,-1444.01 426.87,-1447.86"/>
</g>
<!-- repl&#45;&gt;graph -->
<g id="edge97" class="edge">
<title>repl&#45;&gt;graph</title>
<path fill="none" stroke="black" d="M350.03,-1143.74C368.17,-1151.84 392.53,-1162.72 412.56,-1171.67"/>
<polygon fill="black" stroke="black" points="410.94,-1174.78 421.49,-1175.66 413.79,-1168.38 410.94,-1174.78"/>
</g>
<!-- repl&#45;&gt;hash -->
<g id="edge98" class="edge">
<title>repl&#45;&gt;hash</title>
<path fill="none" stroke="black" d="M339.29,-1150.38C354.74,-1168.07 379.64,-1195 404.25,-1215 548.52,-1332.25 743.22,-1441.09 823,-1483.86"/>
<polygon fill="black" stroke="black" points="821.23,-1486.89 831.7,-1488.51 824.52,-1480.71 821.23,-1486.89"/>
</g>
<!-- repl&#45;&gt;init -->
<g id="edge99" class="edge">
<title>repl&#45;&gt;init</title>
<path fill="none" stroke="black" d="M328.37,-1113.72C338.03,-1077.96 362.98,-997.3 404.25,-941 435.89,-897.83 459.52,-902.16 496,-863 514.42,-843.23 515.93,-835.73 532,-814 588.13,-738.09 654.73,-648.81 687.73,-604.63"/>
<polygon fill="black" stroke="black" points="690.53,-606.73 693.71,-596.62 684.92,-602.54 690.53,-606.73"/>
</g>
<!-- repl&#45;&gt;object -->
<g id="edge100" class="edge">
<title>repl&#45;&gt;object</title>
<path fill="none" stroke="black" d="M330.07,-1150.26C341.33,-1180.89 367.21,-1243.45 404.25,-1286 483.36,-1376.87 607.79,-1450.12 670.12,-1483.48"/>
<polygon fill="black" stroke="black" points="668.48,-1486.57 678.95,-1488.15 671.75,-1480.38 668.48,-1486.57"/>
</g>
<!-- repl&#45;&gt;parquet -->
<g id="edge101" class="edge">
<title>repl&#45;&gt;parquet</title>
<path fill="none" stroke="black" d="M350.03,-1132.42C365.89,-1132.67 386.51,-1133 404.83,-1133.29"/>
<polygon fill="black" stroke="black" points="404.6,-1136.79 414.66,-1133.45 404.72,-1129.79 404.6,-1136.79"/>
</g>
<!-- repl&#45;&gt;shell -->
<g id="edge102" class="edge">
<title>repl&#45;&gt;shell</title>
<path fill="none" stroke="black" d="M328.76,-1113.56C339.78,-1074.26 368.02,-979.85 404.25,-906 411.37,-891.48 420.86,-876.26 429.27,-863.73"/>
<polygon fill="black" stroke="black" points="432.1,-865.81 434.87,-855.58 426.32,-861.85 432.1,-865.81"/>
</g>
<!-- repl&#45;&gt;wasm -->
<g id="edge103" class="edge">
<title>repl&#45;&gt;wasm</title>
<path fill="none" stroke="black" d="M330.08,-1113.56C340.6,-1086.21 364.53,-1035.88 404.25,-1015 491.78,-968.98 545.07,-959.25 626.75,-1015 663.02,-1039.75 626.48,-1082.25 662.75,-1107 696.98,-1130.36 714.63,-1109.51 756,-1107 833.2,-1102.32 854.7,-1108.31 928.75,-1086 940.7,-1082.4 953.07,-1076.92 964.11,-1071.32"/>
<polygon fill="black" stroke="black" points="965.69,-1074.44 972.89,-1066.67 962.42,-1068.25 965.69,-1074.44"/>
</g>
<!-- sat&#45;&gt;parse -->
<g id="edge104" class="edge">
<title>sat&#45;&gt;parse</title>
<path fill="none" stroke="black" d="M887.67,-324.59C927.31,-339 1001.62,-371.99 1038.5,-427 1083.59,-494.26 1105.2,-746.51 1111.42,-833.38"/>
<polygon fill="black" stroke="black" points="1107.92,-833.49 1112.1,-843.22 1114.9,-833 1107.92,-833.49"/>
</g>
<!-- sat&#45;&gt;types -->
<g id="edge105" class="edge">
<title>sat&#45;&gt;types</title>
<path fill="none" stroke="black" d="M887.67,-321.73C965.93,-337.51 1202.92,-376.06 1379.5,-307 1391.33,-302.37 1402.96,-294.94 1412.89,-287.43"/>
<polygon fill="black" stroke="black" points="1415.02,-290.21 1420.66,-281.25 1410.66,-284.74 1415.02,-290.21"/>
</g>
<!-- sat&#45;&gt;wasm -->
<g id="edge106" class="edge">
<title>sat&#45;&gt;wasm</title>
<path fill="none" stroke="black" d="M887.57,-333.92C902.3,-345.52 919.53,-361.99 928.75,-381 963.83,-453.34 956.11,-661.07 964.75,-741 975.83,-843.58 990.35,-965.15 997.01,-1020.23"/>
<polygon fill="black" stroke="black" points="993.52,-1020.54 998.2,-1030.05 1000.47,-1019.7 993.52,-1020.54"/>
</g>
<!-- serve&#45;&gt;core -->
<g id="edge107" class="edge">
<title>serve&#45;&gt;core</title>
<path fill="none" stroke="black" d="M201.52,-1281.72C207.75,-1202.7 234.65,-890.55 277.25,-803 339.54,-674.98 436.25,-698.22 496,-569 554.77,-441.9 447.61,-367.74 532,-256 639.96,-113.05 755.12,-140.93 928.75,-185 941.08,-188.13 953.58,-193.84 964.62,-199.95"/>
<polygon fill="black" stroke="black" points="962.6,-202.82 973,-204.84 966.13,-196.78 962.6,-202.82"/>
</g>
<!-- serve&#45;&gt;git -->
<g id="edge108" class="edge">
<title>serve&#45;&gt;git</title>
<path fill="none" stroke="black" d="M226.58,-1296.57C262.31,-1293.42 326.36,-1293.13 368.25,-1324 398.34,-1346.17 386.54,-1367.09 404.25,-1400 412.67,-1415.65 422.89,-1432.64 431.45,-1446.38"/>
<polygon fill="black" stroke="black" points="428.25,-1447.87 436.53,-1454.47 434.18,-1444.14 428.25,-1447.87"/>
</g>
<!-- serve&#45;&gt;hash -->
<g id="edge109" class="edge">
<title>serve&#45;&gt;hash</title>
<path fill="none" stroke="black" d="M226.49,-1313.16C232.03,-1316.97 237.37,-1321.59 241.25,-1327 278.21,-1378.5 247.76,-1408.89 277.25,-1465 351.92,-1607.09 381.39,-1665.48 532,-1721 625.9,-1755.62 675.12,-1756.94 756,-1698 812.31,-1656.97 840.78,-1575.85 852.55,-1532.29"/>
<polygon fill="black" stroke="black" points="855.89,-1533.34 855,-1522.78 849.12,-1531.59 855.89,-1533.34"/>
</g>
<!-- serve&#45;&gt;init -->
<g id="edge110" class="edge">
<title>serve&#45;&gt;init</title>
<path fill="none" stroke="black" d="M200.12,-1281.53C200.85,-1224.69 208.85,-1048.78 277.25,-926 371.96,-755.98 585.84,-636.89 671.69,-594.28"/>
<polygon fill="black" stroke="black" points="673.19,-597.45 680.63,-589.91 670.11,-591.16 673.19,-597.45"/>
</g>
<!-- serve&#45;&gt;metamath -->
<g id="edge111" class="edge">
<title>serve&#45;&gt;metamath</title>
<path fill="none" stroke="black" d="M205.44,-1281.75C216.16,-1246.3 242.38,-1166.21 277.25,-1105 322.88,-1024.9 333.22,-999.77 404.25,-941 528.52,-838.17 718.5,-788.35 808.59,-769.44"/>
<polygon fill="black" stroke="black" points="809.28,-772.88 818.37,-767.44 807.87,-766.02 809.28,-772.88"/>
</g>
<!-- serve&#45;&gt;object -->
<g id="edge112" class="edge">
<title>serve&#45;&gt;object</title>
<path fill="none" stroke="black" d="M226.53,-1308.22C272.61,-1322.67 363.28,-1351.6 368.25,-1357 412.95,-1405.52 352.57,-1460 404.25,-1501 481.12,-1561.99 606.65,-1535.48 669.69,-1516.37"/>
<polygon fill="black" stroke="black" points="670.41,-1519.82 678.9,-1513.49 668.31,-1513.14 670.41,-1519.82"/>
</g>
<!-- serve&#45;&gt;proto -->
<g id="edge113" class="edge">
<title>serve&#45;&gt;proto</title>
<path fill="none" stroke="black" d="M226.32,-1317C231.3,-1320.29 236.45,-1323.73 241.25,-1327 256.31,-1337.27 272.76,-1348.85 286.84,-1358.88"/>
<polygon fill="black" stroke="black" points="284.77,-1361.7 294.94,-1364.66 288.84,-1356 284.77,-1361.7"/>
</g>
<!-- serve&#45;&gt;repl -->
<g id="edge114" class="edge">
<title>serve&#45;&gt;repl</title>
<path fill="none" stroke="black" d="M226.22,-1282.09C231.52,-1277.82 236.83,-1273.02 241.25,-1268 270.51,-1234.77 294.87,-1189.39 308.88,-1160.38"/>
<polygon fill="black" stroke="black" points="311.97,-1162.03 313.09,-1151.5 305.65,-1159.04 311.97,-1162.03"/>
</g>
<!-- serve&#45;&gt;shell -->
<g id="edge115" class="edge">
<title>serve&#45;&gt;shell</title>
<path fill="none" stroke="black" d="M199.46,-1281.56C198.48,-1228.07 202.48,-1070.57 277.25,-974 305.24,-937.84 334.8,-957.18 368.25,-926 390.44,-905.31 383.49,-890.13 404.25,-868 407.26,-864.79 410.63,-861.71 414.14,-858.8"/>
<polygon fill="black" stroke="black" points="416.02,-861.77 421.82,-852.91 411.76,-856.22 416.02,-861.77"/>
</g>
<!-- serve&#45;&gt;store -->
<g id="edge116" class="edge">
<title>serve&#45;&gt;store</title>
<path fill="none" stroke="black" d="M226.35,-1297.56C278.59,-1292.24 398.97,-1277.6 496,-1248 512.75,-1242.89 515.63,-1238.21 532,-1232 579.29,-1214.05 635.13,-1196.99 671.12,-1186.52"/>
<polygon fill="black" stroke="black" points="671.97,-1189.92 680.61,-1183.78 670.03,-1183.19 671.97,-1189.92"/>
</g>
<!-- sexp&#45;&gt;parse -->
<g id="edge117" class="edge">
<title>sexp&#45;&gt;parse</title>
<path fill="none" stroke="black" d="M1016.21,-732.27C1035.39,-758.07 1070.56,-805.4 1092.91,-835.47"/>
<polygon fill="black" stroke="black" points="1090.01,-837.43 1098.78,-843.37 1095.62,-833.25 1090.01,-837.43"/>
</g>
<!-- shell&#45;&gt;hol -->
<g id="edge118" class="edge">
<title>shell&#45;&gt;hol</title>
<path fill="none" stroke="black" d="M454.56,-817.6C462.55,-774.35 482.74,-662.78 496,-569 505.81,-499.68 497.97,-317.18 532,-256 534.24,-251.97 788.09,-52.43 792,-50 801.63,-44.01 812.55,-38.37 822.76,-33.55"/>
<polygon fill="black" stroke="black" points="824.05,-36.81 831.68,-29.46 821.13,-30.44 824.05,-36.81"/>
</g>
<!-- shell&#45;&gt;kernel -->
<g id="edge119" class="edge">
<title>shell&#45;&gt;kernel</title>
<path fill="none" stroke="black" d="M462.42,-854.28C484.73,-890.4 534.57,-971.09 561.06,-1013.97"/>
<polygon fill="black" stroke="black" points="558.08,-1015.8 566.31,-1022.47 564.03,-1012.13 558.08,-1015.8"/>
</g>
<!-- smt&#45;&gt;sat -->
<g id="edge120" class="edge">
<title>smt&#45;&gt;sat</title>
<path fill="none" stroke="black" d="M736.67,-309.41C760.32,-310.68 795.33,-312.56 821.91,-313.99"/>
<polygon fill="black" stroke="black" points="821.41,-317.47 831.58,-314.51 821.78,-310.48 821.41,-317.47"/>
</g>
<!-- smt&#45;&gt;sexp -->
<g id="edge121" class="edge">
<title>smt&#45;&gt;sexp</title>
<path fill="none" stroke="black" d="M714.94,-326.16C727.14,-373.35 761.61,-498.16 792,-527 838.21,-570.86 880.28,-528.65 928.75,-570 964.15,-600.2 983.91,-652.05 993.4,-684.6"/>
<polygon fill="black" stroke="black" points="990.01,-685.47 996.04,-694.19 996.76,-683.62 990.01,-685.47"/>
</g>
<!-- smt&#45;&gt;types -->
<g id="edge122" class="edge">
<title>smt&#45;&gt;types</title>
<path fill="none" stroke="black" d="M719.96,-289.62C733.29,-265.57 759.5,-223.39 792,-197 871.09,-132.78 898.74,-102 1000.62,-102 1000.62,-102 1000.62,-102 1218.25,-102 1291.88,-102 1321.61,-94.51 1379.5,-140 1409.22,-163.35 1425.94,-204.79 1434.35,-232.82"/>
<polygon fill="black" stroke="black" points="1430.88,-233.42 1436.95,-242.11 1437.62,-231.53 1430.88,-233.42"/>
</g>
<!-- spectec&#45;&gt;grammar -->
<g id="edge123" class="edge">
<title>spectec&#45;&gt;grammar</title>
<path fill="none" stroke="black" d="M895.44,-419.25C912.94,-425.03 934.54,-432.17 953.6,-438.47"/>
<polygon fill="black" stroke="black" points="952.45,-441.77 963.04,-441.58 954.64,-435.12 952.45,-441.77"/>
</g>
<!-- store&#45;&gt;hash -->
<g id="edge124" class="edge">
<title>store&#45;&gt;hash</title>
<path fill="none" stroke="black" d="M724.98,-1194.3C734.61,-1206.92 747.05,-1224.37 756,-1241 799.35,-1321.52 834.53,-1424.21 850.34,-1473.71"/>
<polygon fill="black" stroke="black" points="846.96,-1474.63 853.31,-1483.11 853.64,-1472.52 846.96,-1474.63"/>
</g>
<!-- store&#45;&gt;json -->
<g id="edge125" class="edge">
<title>store&#45;&gt;json</title>
<path fill="none" stroke="black" d="M728.65,-1157.61C754.93,-1131.15 803.53,-1082.22 833.5,-1052.05"/>
<polygon fill="black" stroke="black" points="835.79,-1054.71 840.35,-1045.15 830.82,-1049.78 835.79,-1054.71"/>
</g>
<!-- store&#45;&gt;sqlite -->
<g id="edge126" class="edge">
<title>store&#45;&gt;sqlite</title>
<path fill="none" stroke="black" d="M736.67,-1175.29C760.32,-1174.66 795.33,-1173.72 821.91,-1173.01"/>
<polygon fill="black" stroke="black" points="821.68,-1176.51 831.58,-1172.75 821.49,-1169.52 821.68,-1176.51"/>
</g>
<!-- tcb&#45;db -->
<g id="node49" class="node">
<title>tcb&#45;db</title>
<polygon fill="none" stroke="black" points="739.5,-1044 679.25,-1044 679.25,-1008 739.5,-1008 739.5,-1044"/>
<text text-anchor="middle" x="709.38" y="-1021.7" font-family="sans-serif" font-size="14.00">tcb&#45;db</text>
</g>
<!-- tcb&#45;db&#45;&gt;json -->
<g id="edge127" class="edge">
<title>tcb&#45;db&#45;&gt;json</title>
<path fill="none" stroke="black" d="M739.81,-1026C763.24,-1026 796.19,-1026 821.57,-1026"/>
<polygon fill="black" stroke="black" points="821.48,-1029.5 831.48,-1026 821.48,-1022.5 821.48,-1029.5"/>
</g>
<!-- tcb&#45;db&#45;&gt;sqlite -->
<g id="edge128" class="edge">
<title>tcb&#45;db&#45;&gt;sqlite</title>
<path fill="none" stroke="black" d="M739.79,-1041.51C745.4,-1044.99 751.05,-1048.87 756,-1053 788.99,-1080.5 820.38,-1119.01 839.74,-1144.69"/>
<polygon fill="black" stroke="black" points="836.87,-1146.7 845.64,-1152.64 842.49,-1142.53 836.87,-1146.7"/>
</g>
<!-- wasm&#45;build&#45;guest -->
<g id="node52" class="node">
<title>wasm&#45;build&#45;guest</title>
<polygon fill="none" stroke="black" points="928.75,-1244 792,-1244 792,-1208 928.75,-1208 928.75,-1244"/>
<text text-anchor="middle" x="860.38" y="-1221.7" font-family="sans-serif" font-size="14.00">wasm&#45;build&#45;guest</text>
</g>
<!-- wasm&#45;build&#45;guest&#45;&gt;wasm -->
<g id="edge129" class="edge">
<title>wasm&#45;build&#45;guest&#45;&gt;wasm</title>
<path fill="none" stroke="black" d="M917.45,-1207.52C921.51,-1205.01 925.34,-1202.18 928.75,-1199 963.96,-1166.12 983.88,-1112.37 993.44,-1079.2"/>
<polygon fill="black" stroke="black" points="996.73,-1080.43 995.99,-1069.86 989.98,-1078.58 996.73,-1080.43"/>
</g>
<!-- wasm&#45;spec -->
<g id="node53" class="node">
<title>wasm&#45;spec</title>
<polygon fill="none" stroke="black" points="756,-1286 662.75,-1286 662.75,-1250 756,-1250 756,-1286"/>
<text text-anchor="middle" x="709.38" y="-1263.7" font-family="sans-serif" font-size="14.00">wasm&#45;spec</text>
</g>
<!-- wasm&#45;spec&#45;&gt;hash -->
<g id="edge130" class="edge">
<title>wasm&#45;spec&#45;&gt;hash</title>
<path fill="none" stroke="black" d="M741.07,-1286.39C746.45,-1290.45 751.69,-1295.03 756,-1300 802.58,-1353.64 834.68,-1431.94 849.7,-1473.89"/>
<polygon fill="black" stroke="black" points="846.37,-1474.99 852.98,-1483.28 852.98,-1472.68 846.37,-1474.99"/>
</g>
<!-- wasm&#45;spec&#45;&gt;wasm -->
<g id="edge131" class="edge">
<title>wasm&#45;spec&#45;&gt;wasm</title>
<path fill="none" stroke="black" d="M756.36,-1278.33C804.38,-1286.3 879.42,-1290.46 928.75,-1253 983.3,-1211.57 996.58,-1125.48 999.73,-1079.86"/>
<polygon fill="black" stroke="black" points="1003.22,-1080.09 1000.28,-1069.91 996.23,-1079.7 1003.22,-1080.09"/>
</g>
<!-- wasm&#45;store&#45;&gt;json -->
<g id="edge132" class="edge">
<title>wasm&#45;store&#45;&gt;json</title>
<path fill="none" stroke="black" d="M612.3,-930.48C627.34,-938.82 645.7,-948.46 662.75,-956 717.01,-979.99 782.29,-1001.93 822.3,-1014.62"/>
<polygon fill="black" stroke="black" points="821.1,-1017.91 831.69,-1017.58 823.2,-1011.24 821.1,-1017.91"/>
</g>
<!-- wasm&#45;store&#45;&gt;store -->
<g id="edge133" class="edge">
<title>wasm&#45;store&#45;&gt;store</title>
<path fill="none" stroke="black" d="M589.03,-930.48C598.57,-951.01 614.21,-985.17 626.75,-1015 643.77,-1055.48 642.53,-1068.03 662.75,-1107 670.11,-1121.18 679.69,-1136.07 688.17,-1148.37"/>
<polygon fill="black" stroke="black" points="685.19,-1150.21 693.8,-1156.38 690.91,-1146.19 685.19,-1150.21"/>
</g>
<!-- wasm&#45;store&#45;&gt;wasm -->
<g id="edge134" class="edge">
<title>wasm&#45;store&#45;&gt;wasm</title>
<path fill="none" stroke="black" d="M627.01,-918.02C695.62,-928.09 826.66,-952.06 928.75,-999 943.37,-1005.72 958.11,-1015.53 970.41,-1024.75"/>
<polygon fill="black" stroke="black" points="968.04,-1027.35 978.09,-1030.71 972.33,-1021.82 968.04,-1027.35"/>
</g>
<!-- web&#45;kernel -->
<g id="node55" class="node">
<title>web&#45;kernel</title>
<polygon fill="none" stroke="black" points="496,-1060 404.25,-1060 404.25,-1024 496,-1024 496,-1060"/>
<text text-anchor="middle" x="450.12" y="-1037.7" font-family="sans-serif" font-size="14.00">web&#45;kernel</text>
</g>
<!-- web&#45;kernel&#45;&gt;kernel -->
<g id="edge135" class="edge">
<title>web&#45;kernel&#45;&gt;kernel</title>
<path fill="none" stroke="black" d="M496.35,-1042C510.27,-1042 525.48,-1042 538.98,-1042"/>
<polygon fill="black" stroke="black" points="538.81,-1045.5 548.81,-1042 538.81,-1038.5 538.81,-1045.5"/>
</g>
</g>
</svg>
