<?xml version="1.0" encoding="UTF-8" standalone="no"?>
<!DOCTYPE svg PUBLIC "-//W3C//DTD SVG 1.1//EN"
 "http://www.w3.org/Graphics/SVG/1.1/DTD/svg11.dtd">
<!-- Generated by graphviz version 12.2.1 (0)
 -->
<!-- Title: deps Pages: 1 -->
<svg width="1475pt" height="2117pt"
 viewBox="0.00 0.00 1474.50 2117.34" xmlns="http://www.w3.org/2000/svg" xmlns:xlink="http://www.w3.org/1999/xlink">
<g id="graph0" class="graph" transform="scale(1 1) rotate(0) translate(4 2113.34)">
<title>deps</title>
<polygon fill="white" stroke="none" points="-4,4 -4,-2113.34 1470.5,-2113.34 1470.5,4 -4,4"/>
<!-- covalence -->
<g id="node1" class="node">
<title>covalence</title>
<polygon fill="none" stroke="black" points="102.62,-1057.34 18.38,-1057.34 18.38,-1021.34 102.62,-1021.34 102.62,-1057.34"/>
<text text-anchor="middle" x="60.5" y="-1035.04" font-family="sans-serif" font-size="14.00">covalence</text>
</g>
<!-- client -->
<g id="node5" class="node">
<title>client</title>
<polygon fill="none" stroke="black" points="350.12,-1225.34 296.12,-1225.34 296.12,-1189.34 350.12,-1189.34 350.12,-1225.34"/>
<text text-anchor="middle" x="323.12" y="-1203.04" font-family="sans-serif" font-size="14.00">client</text>
</g>
<!-- covalence&#45;&gt;client -->
<g id="edge1" class="edge">
<title>covalence&#45;&gt;client</title>
<path fill="none" stroke="black" d="M81.93,-1057.56C100.74,-1073.91 129.77,-1098.06 157,-1116.34 199.49,-1144.85 251.66,-1172.48 285.85,-1189.66"/>
<polygon fill="black" stroke="black" points="283.98,-1192.64 294.49,-1193.97 287.11,-1186.38 283.98,-1192.64"/>
</g>
<!-- fuse -->
<g id="node11" class="node">
<title>fuse</title>
<polygon fill="none" stroke="black" points="603.38,-1369.34 549.38,-1369.34 549.38,-1333.34 603.38,-1333.34 603.38,-1369.34"/>
<text text-anchor="middle" x="576.38" y="-1347.04" font-family="sans-serif" font-size="14.00">fuse</text>
</g>
<!-- covalence&#45;&gt;fuse -->
<g id="edge2" class="edge">
<title>covalence&#45;&gt;fuse</title>
<path fill="none" stroke="black" d="M73.93,-1057.67C90.88,-1081.83 123.03,-1124.84 157,-1155.34 274.89,-1261.19 459.95,-1320.38 538.33,-1341.9"/>
<polygon fill="black" stroke="black" points="537.07,-1345.19 547.63,-1344.41 538.89,-1338.43 537.07,-1345.19"/>
</g>
<!-- git -->
<g id="node12" class="node">
<title>git</title>
<polygon fill="none" stroke="black" points="476,-1553.34 422,-1553.34 422,-1517.34 476,-1517.34 476,-1553.34"/>
<text text-anchor="middle" x="449" y="-1531.04" font-family="sans-serif" font-size="14.00">git</text>
</g>
<!-- covalence&#45;&gt;git -->
<g id="edge3" class="edge">
<title>covalence&#45;&gt;git</title>
<path fill="none" stroke="black" d="M64.98,-1057.39C78.74,-1123.56 135.57,-1354.97 277.25,-1469.34 316.92,-1501.36 373.91,-1519.16 410.95,-1527.99"/>
<polygon fill="black" stroke="black" points="409.76,-1531.31 420.28,-1530.12 411.31,-1524.49 409.76,-1531.31"/>
</g>
<!-- hash -->
<g id="node15" class="node">
<title>hash</title>
<polygon fill="none" stroke="black" points="884.38,-1369.34 830.38,-1369.34 830.38,-1333.34 884.38,-1333.34 884.38,-1369.34"/>
<text text-anchor="middle" x="857.38" y="-1347.04" font-family="sans-serif" font-size="14.00">hash</text>
</g>
<!-- covalence&#45;&gt;hash -->
<g id="edge4" class="edge">
<title>covalence&#45;&gt;hash</title>
<path fill="none" stroke="black" d="M86.19,-1021C137.85,-984.89 261.49,-910.25 369,-936.34 415.65,-947.65 720.43,-1099.07 753,-1134.34 781.11,-1164.78 771.51,-1182.77 789,-1220.34 805.7,-1256.2 826.82,-1296.55 840.92,-1322.87"/>
<polygon fill="black" stroke="black" points="837.78,-1324.43 845.6,-1331.57 843.94,-1321.11 837.78,-1324.43"/>
</g>
<!-- hol -->
<g id="node17" class="node">
<title>hol</title>
<polygon fill="none" stroke="black" points="884.38,-463.34 830.38,-463.34 830.38,-427.34 884.38,-427.34 884.38,-463.34"/>
<text text-anchor="middle" x="857.38" y="-441.04" font-family="sans-serif" font-size="14.00">hol</text>
</g>
<!-- covalence&#45;&gt;hol -->
<g id="edge5" class="edge">
<title>covalence&#45;&gt;hol</title>
<path fill="none" stroke="black" d="M64.05,-1021.06C74.87,-950.75 123.76,-695.61 277.25,-575.34 362.39,-508.62 647.79,-497.45 753,-472.34 775.02,-467.08 799.54,-460.7 819.17,-455.46"/>
<polygon fill="black" stroke="black" points="819.9,-458.89 828.65,-452.92 818.08,-452.13 819.9,-458.89"/>
</g>
<!-- lsp -->
<g id="node30" class="node">
<title>lsp</title>
<polygon fill="none" stroke="black" points="884.38,-1211.34 830.38,-1211.34 830.38,-1175.34 884.38,-1175.34 884.38,-1211.34"/>
<text text-anchor="middle" x="857.38" y="-1189.04" font-family="sans-serif" font-size="14.00">lsp</text>
</g>
<!-- covalence&#45;&gt;lsp -->
<g id="edge6" class="edge">
<title>covalence&#45;&gt;lsp</title>
<path fill="none" stroke="black" d="M66.97,-1021.08C78.08,-987.3 106.61,-915.13 157,-878.34 279.33,-789.02 348.88,-774.73 493,-821.34 511.78,-827.41 511.93,-837.43 529,-847.34 569,-870.54 586.09,-863.49 623.75,-890.34 642.69,-903.84 643.05,-912.14 659.75,-928.34 699.59,-966.95 723.01,-964.65 753,-1011.34 782.4,-1057.11 760.52,-1081.98 789,-1128.34 797.97,-1142.93 810.98,-1156.53 823.17,-1167.48"/>
<polygon fill="black" stroke="black" points="820.84,-1170.08 830.7,-1173.97 825.41,-1164.78 820.84,-1170.08"/>
</g>
<!-- object -->
<g id="node33" class="node">
<title>object</title>
<polygon fill="none" stroke="black" points="735,-1179.34 677.75,-1179.34 677.75,-1143.34 735,-1143.34 735,-1179.34"/>
<text text-anchor="middle" x="706.38" y="-1157.04" font-family="sans-serif" font-size="14.00">object</text>
</g>
<!-- covalence&#45;&gt;object -->
<g id="edge7" class="edge">
<title>covalence&#45;&gt;object</title>
<path fill="none" stroke="black" d="M77.89,-1021.13C137.41,-957.21 346.33,-752.23 493,-852.34 529.27,-877.09 506.89,-906.4 529,-944.34 572.87,-1019.59 641.89,-1095.96 679.25,-1134.91"/>
<polygon fill="black" stroke="black" points="676.64,-1137.24 686.11,-1142 681.67,-1132.38 676.64,-1137.24"/>
</g>
<!-- opentheory -->
<g id="node34" class="node">
<title>opentheory</title>
<polygon fill="none" stroke="black" points="368.62,-508.34 277.62,-508.34 277.62,-472.34 368.62,-472.34 368.62,-508.34"/>
<text text-anchor="middle" x="323.12" y="-486.04" font-family="sans-serif" font-size="14.00">opentheory</text>
</g>
<!-- covalence&#45;&gt;opentheory -->
<g id="edge8" class="edge">
<title>covalence&#45;&gt;opentheory</title>
<path fill="none" stroke="black" d="M62.48,-1020.93C67.17,-939.28 90.02,-610.58 157,-537.34 184.5,-507.27 229.71,-495.91 265.89,-491.85"/>
<polygon fill="black" stroke="black" points="266.14,-495.34 275.77,-490.92 265.49,-488.38 266.14,-495.34"/>
</g>
<!-- proto -->
<g id="node38" class="node">
<title>proto</title>
<polygon fill="none" stroke="black" points="350.12,-981.34 296.12,-981.34 296.12,-945.34 350.12,-945.34 350.12,-981.34"/>
<text text-anchor="middle" x="323.12" y="-959.04" font-family="sans-serif" font-size="14.00">proto</text>
</g>
<!-- covalence&#45;&gt;proto -->
<g id="edge9" class="edge">
<title>covalence&#45;&gt;proto</title>
<path fill="none" stroke="black" d="M102.73,-1025.48C119.51,-1019.96 139.13,-1013.67 157,-1008.34 200.55,-995.34 251.01,-981.81 284.58,-973.02"/>
<polygon fill="black" stroke="black" points="285.45,-976.41 294.24,-970.5 283.68,-969.64 285.45,-976.41"/>
</g>
<!-- repl -->
<g id="node44" class="node">
<title>repl</title>
<polygon fill="none" stroke="black" points="350.12,-1415.34 296.12,-1415.34 296.12,-1379.34 350.12,-1379.34 350.12,-1415.34"/>
<text text-anchor="middle" x="323.12" y="-1393.04" font-family="sans-serif" font-size="14.00">repl</text>
</g>
<!-- covalence&#45;&gt;repl -->
<g id="edge10" class="edge">
<title>covalence&#45;&gt;repl</title>
<path fill="none" stroke="black" d="M68.83,-1057.76C83.04,-1092.34 116.52,-1168.6 157,-1225.34 197.78,-1282.5 257.01,-1339.42 292.34,-1371.33"/>
<polygon fill="black" stroke="black" points="289.87,-1373.81 299.66,-1377.88 294.54,-1368.6 289.87,-1373.81"/>
</g>
<!-- serve -->
<g id="node47" class="node">
<title>serve</title>
<polygon fill="none" stroke="black" points="226.12,-1107.34 172.12,-1107.34 172.12,-1071.34 226.12,-1071.34 226.12,-1107.34"/>
<text text-anchor="middle" x="199.12" y="-1085.04" font-family="sans-serif" font-size="14.00">serve</text>
</g>
<!-- covalence&#45;&gt;serve -->
<g id="edge11" class="edge">
<title>covalence&#45;&gt;serve</title>
<path fill="none" stroke="black" d="M102.86,-1054.47C121.46,-1061.28 143.24,-1069.25 161.27,-1075.85"/>
<polygon fill="black" stroke="black" points="159.94,-1079.09 170.54,-1079.24 162.35,-1072.52 159.94,-1079.09"/>
</g>
<!-- shell -->
<g id="node49" class="node">
<title>shell</title>
<polygon fill="none" stroke="black" points="476,-897.34 422,-897.34 422,-861.34 476,-861.34 476,-897.34"/>
<text text-anchor="middle" x="449" y="-875.04" font-family="sans-serif" font-size="14.00">shell</text>
</g>
<!-- covalence&#45;&gt;shell -->
<g id="edge12" class="edge">
<title>covalence&#45;&gt;shell</title>
<path fill="none" stroke="black" d="M76.35,-1020.9C108.28,-982.92 187.86,-896.89 277.25,-865.34 321.29,-849.79 375.53,-858.58 410.9,-867.7"/>
<polygon fill="black" stroke="black" points="409.66,-870.99 420.23,-870.25 411.5,-864.24 409.66,-870.99"/>
</g>
<!-- store -->
<g id="node53" class="node">
<title>store</title>
<polygon fill="none" stroke="black" points="733.38,-1773.34 679.38,-1773.34 679.38,-1737.34 733.38,-1737.34 733.38,-1773.34"/>
<text text-anchor="middle" x="706.38" y="-1751.04" font-family="sans-serif" font-size="14.00">store</text>
</g>
<!-- covalence&#45;&gt;store -->
<g id="edge13" class="edge">
<title>covalence&#45;&gt;store</title>
<path fill="none" stroke="black" d="M61.69,-1057.58C63.03,-1149.32 73.68,-1559.21 157,-1647.34 227.43,-1721.83 555.19,-1746.93 667.5,-1753.42"/>
<polygon fill="black" stroke="black" points="667.2,-1756.91 677.38,-1753.97 667.6,-1749.92 667.2,-1756.91"/>
</g>
<!-- wasm -->
<g id="node56" class="node">
<title>wasm</title>
<polygon fill="none" stroke="black" points="1025.75,-1826.34 971.5,-1826.34 971.5,-1790.34 1025.75,-1790.34 1025.75,-1826.34"/>
<text text-anchor="middle" x="998.62" y="-1804.04" font-family="sans-serif" font-size="14.00">wasm</text>
</g>
<!-- covalence&#45;&gt;wasm -->
<g id="edge14" class="edge">
<title>covalence&#45;&gt;wasm</title>
<path fill="none" stroke="black" d="M63.13,-1057.68C68.63,-1111.84 90.04,-1274.31 157,-1388.34 194.92,-1452.9 215.22,-1464.39 277.25,-1506.34 328.61,-1541.06 347.35,-1539.55 405,-1562.34 516.68,-1606.47 544.37,-1619.07 659.75,-1652.34 776.2,-1685.91 824.05,-1646.43 925.75,-1712.34 951.43,-1728.97 971.31,-1758.14 983.59,-1779.98"/>
<polygon fill="black" stroke="black" points="980.45,-1781.54 988.28,-1788.68 986.62,-1778.22 980.45,-1781.54"/>
</g>
<!-- acset -->
<g id="node2" class="node">
<title>acset</title>
<polygon fill="none" stroke="black" points="884.38,-1543.34 830.38,-1543.34 830.38,-1507.34 884.38,-1507.34 884.38,-1543.34"/>
<text text-anchor="middle" x="857.38" y="-1521.04" font-family="sans-serif" font-size="14.00">acset</text>
</g>
<!-- alethe -->
<g id="node3" class="node">
<title>alethe</title>
<polygon fill="none" stroke="black" points="604.62,-767.34 548.12,-767.34 548.12,-731.34 604.62,-731.34 604.62,-767.34"/>
<text text-anchor="middle" x="576.38" y="-745.04" font-family="sans-serif" font-size="14.00">alethe</text>
</g>
<!-- core -->
<g id="node6" class="node">
<title>core</title>
<polygon fill="#ffd6d6" stroke="black" points="1025.62,-363.34 971.62,-363.34 971.62,-327.34 1025.62,-327.34 1025.62,-363.34"/>
<text text-anchor="middle" x="998.62" y="-341.04" font-family="sans-serif" font-size="14.00">core</text>
</g>
<!-- alethe&#45;&gt;core -->
<g id="edge15" class="edge">
<title>alethe&#45;&gt;core</title>
<path fill="none" stroke="black" d="M605.02,-740.98C648.33,-727.51 729.64,-700.55 753,-681.34 776.14,-662.3 767.51,-645.22 789,-624.34 839.66,-575.1 880.67,-597.72 925.75,-543.34 967.38,-493.11 985.89,-416.74 993.29,-375.05"/>
<polygon fill="black" stroke="black" points="996.73,-375.7 994.92,-365.27 989.83,-374.55 996.73,-375.7"/>
</g>
<!-- hol&#45;eval -->
<g id="node19" class="node">
<title>hol&#45;eval</title>
<polygon fill="none" stroke="black" points="892.38,-241.34 822.38,-241.34 822.38,-205.34 892.38,-205.34 892.38,-241.34"/>
<text text-anchor="middle" x="857.38" y="-219.04" font-family="sans-serif" font-size="14.00">hol&#45;eval</text>
</g>
<!-- alethe&#45;&gt;hol&#45;eval -->
<g id="edge16" class="edge">
<title>alethe&#45;&gt;hol&#45;eval</title>
<path fill="none" stroke="black" d="M587.14,-730.92C628.7,-652.57 791,-346.59 841.38,-251.61"/>
<polygon fill="black" stroke="black" points="844.38,-253.41 845.98,-242.94 838.2,-250.13 844.38,-253.41"/>
</g>
<!-- init -->
<g id="node21" class="node">
<title>init</title>
<polygon fill="none" stroke="black" points="733.38,-672.34 679.38,-672.34 679.38,-636.34 733.38,-636.34 733.38,-672.34"/>
<text text-anchor="middle" x="706.38" y="-650.04" font-family="sans-serif" font-size="14.00">init</text>
</g>
<!-- alethe&#45;&gt;init -->
<g id="edge17" class="edge">
<title>alethe&#45;&gt;init</title>
<path fill="none" stroke="black" d="M604.7,-731.2C611.05,-726.79 617.71,-722 623.75,-717.34 640.46,-704.43 643.09,-699.3 659.75,-686.34 663,-683.81 666.42,-681.24 669.88,-678.71"/>
<polygon fill="black" stroke="black" points="671.68,-681.73 677.76,-673.06 667.6,-676.04 671.68,-681.73"/>
</g>
<!-- sexp -->
<g id="node48" class="node">
<title>sexp</title>
<polygon fill="none" stroke="black" points="1025.62,-1016.34 971.62,-1016.34 971.62,-980.34 1025.62,-980.34 1025.62,-1016.34"/>
<text text-anchor="middle" x="998.62" y="-994.04" font-family="sans-serif" font-size="14.00">sexp</text>
</g>
<!-- alethe&#45;&gt;sexp -->
<g id="edge18" class="edge">
<title>alethe&#45;&gt;sexp</title>
<path fill="none" stroke="black" d="M604.8,-767.34C611.15,-771.75 617.78,-776.58 623.75,-781.34 640.72,-794.86 641.94,-801.93 659.75,-814.34 697.99,-840.99 718.37,-831.14 753,-862.34 774.71,-881.89 766,-899.32 789,-917.34 839.71,-957.05 866.03,-941.2 925.75,-965.34 937.33,-970.01 949.75,-975.53 960.95,-980.7"/>
<polygon fill="black" stroke="black" points="959.34,-983.81 969.89,-984.88 962.31,-977.47 959.34,-983.81"/>
</g>
<!-- smt -->
<g id="node50" class="node">
<title>smt</title>
<polygon fill="none" stroke="black" points="733.38,-805.34 679.38,-805.34 679.38,-769.34 733.38,-769.34 733.38,-805.34"/>
<text text-anchor="middle" x="706.38" y="-783.04" font-family="sans-serif" font-size="14.00">smt</text>
</g>
<!-- alethe&#45;&gt;smt -->
<g id="edge19" class="edge">
<title>alethe&#45;&gt;smt</title>
<path fill="none" stroke="black" d="M604.83,-757.49C623.34,-762.98 647.98,-770.3 668.24,-776.31"/>
<polygon fill="black" stroke="black" points="667.24,-779.66 677.82,-779.16 669.23,-772.95 667.24,-779.66"/>
</g>
<!-- types -->
<g id="node55" class="node">
<title>types</title>
<polygon fill="#ffd6d6" stroke="black" points="1466.5,-393.34 1412.5,-393.34 1412.5,-357.34 1466.5,-357.34 1466.5,-393.34"/>
<text text-anchor="middle" x="1439.5" y="-371.04" font-family="sans-serif" font-size="14.00">types</text>
</g>
<!-- alethe&#45;&gt;types -->
<g id="edge20" class="edge">
<title>alethe&#45;&gt;types</title>
<path fill="none" stroke="black" d="M604.9,-747.78C672.01,-744.14 849.43,-735.34 997.62,-735.34 997.62,-735.34 997.62,-735.34 1215.25,-735.34 1298.2,-735.34 1327.23,-708.07 1376.5,-641.34 1429.94,-568.96 1438.22,-457.77 1438.93,-405.04"/>
<polygon fill="black" stroke="black" points="1442.43,-405.36 1438.97,-395.34 1435.43,-405.33 1442.43,-405.36"/>
</g>
<!-- arrow -->
<g id="node4" class="node">
<title>arrow</title>
<polygon fill="none" stroke="black" points="603.38,-1461.34 549.38,-1461.34 549.38,-1425.34 603.38,-1425.34 603.38,-1461.34"/>
<text text-anchor="middle" x="576.38" y="-1439.04" font-family="sans-serif" font-size="14.00">arrow</text>
</g>
<!-- client&#45;&gt;hash -->
<g id="edge21" class="edge">
<title>client&#45;&gt;hash</title>
<path fill="none" stroke="black" d="M350.43,-1209.61C383.88,-1212.84 443.26,-1219.69 493,-1231.34 557.25,-1246.38 740.6,-1310.34 819.52,-1338.24"/>
<polygon fill="black" stroke="black" points="817.91,-1341.38 828.51,-1341.42 820.25,-1334.78 817.91,-1341.38"/>
</g>
<!-- client&#45;&gt;shell -->
<g id="edge22" class="edge">
<title>client&#45;&gt;shell</title>
<path fill="none" stroke="black" d="M328.34,-1189.23C342.57,-1128.59 388.82,-935.04 405,-911.34 407.34,-907.91 410.17,-904.7 413.25,-901.74"/>
<polygon fill="black" stroke="black" points="415.27,-904.62 420.66,-895.49 410.76,-899.27 415.27,-904.62"/>
</g>
<!-- client&#45;&gt;store -->
<g id="edge23" class="edge">
<title>client&#45;&gt;store</title>
<path fill="none" stroke="black" d="M342.08,-1225.77C375.98,-1259.72 452.83,-1332.84 529,-1378.34 567.95,-1401.6 595.56,-1380.78 623.75,-1416.34 689.67,-1499.48 630,-1550.49 659.75,-1652.34 667.37,-1678.43 680.17,-1706.56 690.28,-1726.82"/>
<polygon fill="black" stroke="black" points="687.08,-1728.24 694.73,-1735.57 693.31,-1725.07 687.08,-1728.24"/>
</g>
<!-- pure -->
<g id="node39" class="node">
<title>pure</title>
<polygon fill="#ffd6d6" stroke="black" points="1241.25,-309.34 1187.25,-309.34 1187.25,-273.34 1241.25,-273.34 1241.25,-309.34"/>
<text text-anchor="middle" x="1214.25" y="-287.04" font-family="sans-serif" font-size="14.00">pure</text>
</g>
<!-- core&#45;&gt;pure -->
<g id="edge24" class="edge">
<title>core&#45;&gt;pure</title>
<path fill="none" stroke="black" d="M1026.09,-342.53C1056.7,-338.85 1108.38,-331.29 1151.25,-318.34 1159.61,-315.81 1168.35,-312.47 1176.54,-309.01"/>
<polygon fill="black" stroke="black" points="1177.79,-312.28 1185.53,-305.05 1174.96,-305.87 1177.79,-312.28"/>
</g>
<!-- pure&#45;eval -->
<g id="node40" class="node">
<title>pure&#45;eval</title>
<polygon fill="#ffd6d6" stroke="black" points="1151.25,-309.34 1071.5,-309.34 1071.5,-273.34 1151.25,-273.34 1151.25,-309.34"/>
<text text-anchor="middle" x="1111.38" y="-287.04" font-family="sans-serif" font-size="14.00">pure&#45;eval</text>
</g>
<!-- core&#45;&gt;pure&#45;eval -->
<g id="edge25" class="edge">
<title>core&#45;&gt;pure&#45;eval</title>
<path fill="none" stroke="black" d="M1025.87,-332.54C1036.77,-327.23 1049.76,-320.89 1062.26,-314.8"/>
<polygon fill="black" stroke="black" points="1063.76,-317.96 1071.22,-310.43 1060.7,-311.66 1063.76,-317.96"/>
</g>
<!-- core&#45;&gt;types -->
<g id="edge26" class="edge">
<title>core&#45;&gt;types</title>
<path fill="none" stroke="black" d="M1026.09,-347.14C1100.78,-352.25 1313.44,-366.79 1400.57,-372.74"/>
<polygon fill="black" stroke="black" points="1400.27,-376.23 1410.49,-373.42 1400.75,-369.25 1400.27,-376.23"/>
</g>
<!-- core&#45;test&#45;guest -->
<g id="node7" class="node">
<title>core&#45;test&#45;guest</title>
<polygon fill="none" stroke="black" points="121,-1819.34 0,-1819.34 0,-1783.34 121,-1783.34 121,-1819.34"/>
<text text-anchor="middle" x="60.5" y="-1797.04" font-family="sans-serif" font-size="14.00">core&#45;test&#45;guest</text>
</g>
<!-- crypto&#45;sig -->
<g id="node8" class="node">
<title>crypto&#45;sig</title>
<polygon fill="none" stroke="black" points="241.25,-1979.34 157,-1979.34 157,-1943.34 241.25,-1943.34 241.25,-1979.34"/>
<text text-anchor="middle" x="199.12" y="-1957.04" font-family="sans-serif" font-size="14.00">crypto&#45;sig</text>
</g>
<!-- egglog -->
<g id="node9" class="node">
<title>egglog</title>
<polygon fill="none" stroke="black" points="887.88,-837.34 826.88,-837.34 826.88,-801.34 887.88,-801.34 887.88,-837.34"/>
<text text-anchor="middle" x="857.38" y="-815.04" font-family="sans-serif" font-size="14.00">egglog</text>
</g>
<!-- egglog&#45;&gt;sexp -->
<g id="edge27" class="edge">
<title>egglog&#45;&gt;sexp</title>
<path fill="none" stroke="black" d="M888.22,-828.5C901,-833.61 915.34,-841.05 925.75,-851.34 959.39,-884.6 979.68,-936.8 989.75,-969.22"/>
<polygon fill="black" stroke="black" points="986.38,-970.15 992.58,-978.74 993.09,-968.16 986.38,-970.15"/>
</g>
<!-- egglog&#45;&gt;types -->
<g id="edge28" class="edge">
<title>egglog&#45;&gt;types</title>
<path fill="none" stroke="black" d="M888.24,-818.55C935.42,-817.39 1030.08,-815.34 1110.38,-815.34 1110.38,-815.34 1110.38,-815.34 1215.25,-815.34 1287.99,-815.34 1325.65,-839.35 1376.5,-787.34 1429.64,-732.99 1437.31,-490.2 1438.36,-405"/>
<polygon fill="black" stroke="black" points="1441.86,-405.16 1438.46,-395.13 1434.86,-405.1 1441.86,-405.16"/>
</g>
<!-- forsp -->
<g id="node10" class="node">
<title>forsp</title>
<polygon fill="none" stroke="black" points="733.38,-1271.34 679.38,-1271.34 679.38,-1235.34 733.38,-1235.34 733.38,-1271.34"/>
<text text-anchor="middle" x="706.38" y="-1249.04" font-family="sans-serif" font-size="14.00">forsp</text>
</g>
<!-- forsp&#45;&gt;hash -->
<g id="edge29" class="edge">
<title>forsp&#45;&gt;hash</title>
<path fill="none" stroke="black" d="M733.67,-1270.63C757.85,-1286.54 793.91,-1310.25 820.69,-1327.86"/>
<polygon fill="black" stroke="black" points="818.55,-1330.65 828.83,-1333.22 822.4,-1324.8 818.55,-1330.65"/>
</g>
<!-- forsp&#45;&gt;sexp -->
<g id="edge30" class="edge">
<title>forsp&#45;&gt;sexp</title>
<path fill="none" stroke="black" d="M719.9,-1234.88C734.31,-1215.05 759.76,-1184.03 789,-1166.34 842.97,-1133.68 876.24,-1167.43 925.75,-1128.34 958.63,-1102.37 978.72,-1057.02 989.02,-1027.33"/>
<polygon fill="black" stroke="black" points="992.33,-1028.45 992.13,-1017.86 985.68,-1026.27 992.33,-1028.45"/>
</g>
<!-- fuse&#45;&gt;hash -->
<g id="edge31" class="edge">
<title>fuse&#45;&gt;hash</title>
<path fill="none" stroke="black" d="M603.87,-1351.34C653.65,-1351.34 761.28,-1351.34 818.62,-1351.34"/>
<polygon fill="black" stroke="black" points="818.54,-1354.84 828.54,-1351.34 818.54,-1347.84 818.54,-1354.84"/>
</g>
<!-- fuse&#45;&gt;object -->
<g id="edge32" class="edge">
<title>fuse&#45;&gt;object</title>
<path fill="none" stroke="black" d="M589.61,-1332.93C598.97,-1318.82 612.2,-1298.87 623.75,-1281.34 639.82,-1256.94 643.36,-1250.52 659.75,-1226.34 668.15,-1213.94 677.64,-1200.37 685.77,-1188.84"/>
<polygon fill="black" stroke="black" points="688.44,-1191.14 691.36,-1180.95 682.72,-1187.09 688.44,-1191.14"/>
</g>
<!-- fuse&#45;&gt;store -->
<g id="edge33" class="edge">
<title>fuse&#45;&gt;store</title>
<path fill="none" stroke="black" d="M603.81,-1364.14C611.42,-1369.1 618.94,-1375.5 623.75,-1383.34 686.79,-1486.17 626.99,-1536.25 659.75,-1652.34 667.13,-1678.5 679.95,-1706.62 690.13,-1726.86"/>
<polygon fill="black" stroke="black" points="686.93,-1728.31 694.62,-1735.6 693.16,-1725.11 686.93,-1728.31"/>
</g>
<!-- git&#45;&gt;hash -->
<g id="edge34" class="edge">
<title>git&#45;&gt;hash</title>
<path fill="none" stroke="black" d="M476.28,-1534.61C511.44,-1532.75 575.01,-1526.19 623.75,-1503.34 642.61,-1494.49 642.39,-1484.84 659.75,-1473.34 698.61,-1447.59 713.22,-1449.63 753,-1425.34 777.55,-1410.34 803.91,-1391.43 823.86,-1376.48"/>
<polygon fill="black" stroke="black" points="825.75,-1379.44 831.62,-1370.62 821.53,-1373.85 825.75,-1379.44"/>
</g>
<!-- git&#45;&gt;object -->
<g id="edge35" class="edge">
<title>git&#45;&gt;object</title>
<path fill="none" stroke="black" d="M464.62,-1516.99C473.94,-1504.48 485.61,-1487.19 493,-1470.34 519.83,-1409.13 495.03,-1381.89 529,-1324.34 564.12,-1264.84 627.68,-1214.07 668.14,-1185.66"/>
<polygon fill="black" stroke="black" points="669.92,-1188.68 676.16,-1180.12 665.94,-1182.92 669.92,-1188.68"/>
</g>
<!-- sqlite -->
<g id="node52" class="node">
<title>sqlite</title>
<polygon fill="none" stroke="black" points="884.38,-1757.34 830.38,-1757.34 830.38,-1721.34 884.38,-1721.34 884.38,-1757.34"/>
<text text-anchor="middle" x="857.38" y="-1735.04" font-family="sans-serif" font-size="14.00">sqlite</text>
</g>
<!-- git&#45;&gt;sqlite -->
<g id="edge36" class="edge">
<title>git&#45;&gt;sqlite</title>
<path fill="none" stroke="black" d="M476.47,-1544.67C511.83,-1557.82 575.64,-1583.99 623.75,-1617.34 642.09,-1630.05 641.26,-1639.85 659.75,-1652.34 710.93,-1686.9 778.08,-1713.12 819.18,-1727.35"/>
<polygon fill="black" stroke="black" points="818.02,-1730.66 828.62,-1730.56 820.28,-1724.03 818.02,-1730.66"/>
</g>
<!-- git&#45;&gt;store -->
<g id="edge37" class="edge">
<title>git&#45;&gt;store</title>
<path fill="none" stroke="black" d="M467.25,-1553.76C486.57,-1574.3 516.77,-1606.11 529,-1617.34 584.11,-1667.92 600.04,-1678.27 659.75,-1723.34 663.03,-1725.81 666.48,-1728.35 669.95,-1730.86"/>
<polygon fill="black" stroke="black" points="667.68,-1733.54 677.86,-1736.49 671.75,-1727.84 667.68,-1733.54"/>
</g>
<!-- grammar -->
<g id="node13" class="node">
<title>grammar</title>
<polygon fill="none" stroke="black" points="1035.5,-646.34 961.75,-646.34 961.75,-610.34 1035.5,-610.34 1035.5,-646.34"/>
<text text-anchor="middle" x="998.62" y="-624.04" font-family="sans-serif" font-size="14.00">grammar</text>
</g>
<!-- graph -->
<g id="node14" class="node">
<title>graph</title>
<polygon fill="none" stroke="black" points="476,-1811.34 422,-1811.34 422,-1775.34 476,-1775.34 476,-1811.34"/>
<text text-anchor="middle" x="449" y="-1789.04" font-family="sans-serif" font-size="14.00">graph</text>
</g>
<!-- graph&#45;&gt;hash -->
<g id="edge38" class="edge">
<title>graph&#45;&gt;hash</title>
<path fill="none" stroke="black" d="M476.41,-1775.48C482.12,-1771.13 487.96,-1766.3 493,-1761.34 536.33,-1718.67 612.23,-1582.28 659.75,-1544.34 695.41,-1515.86 718.09,-1530.73 753,-1501.34 794.05,-1466.78 826.09,-1412.16 843.03,-1379.23"/>
<polygon fill="black" stroke="black" points="845.95,-1381.22 847.32,-1370.71 839.7,-1378.07 845.95,-1381.22"/>
</g>
<!-- parse -->
<g id="node36" class="node">
<title>parse</title>
<polygon fill="none" stroke="black" points="1138.38,-1440.34 1084.38,-1440.34 1084.38,-1404.34 1138.38,-1404.34 1138.38,-1440.34"/>
<text text-anchor="middle" x="1111.38" y="-1418.04" font-family="sans-serif" font-size="14.00">parse</text>
</g>
<!-- graph&#45;&gt;parse -->
<g id="edge39" class="edge">
<title>graph&#45;&gt;parse</title>
<path fill="none" stroke="black" d="M454.07,-1811.77C462.21,-1844 483.77,-1910.21 529,-1942.34 593.65,-1988.26 626.07,-1969.34 705.38,-1969.34 705.38,-1969.34 705.38,-1969.34 858.38,-1969.34 1088.39,-1969.34 1109.18,-1565.42 1110.47,-1451.77"/>
<polygon fill="black" stroke="black" points="1113.97,-1452.07 1110.54,-1442.05 1106.97,-1452.03 1113.97,-1452.07"/>
</g>
<!-- rand -->
<g id="node43" class="node">
<title>rand</title>
<polygon fill="none" stroke="black" points="1025.62,-1369.34 971.62,-1369.34 971.62,-1333.34 1025.62,-1333.34 1025.62,-1369.34"/>
<text text-anchor="middle" x="998.62" y="-1347.04" font-family="sans-serif" font-size="14.00">rand</text>
</g>
<!-- hash&#45;&gt;rand -->
<g id="edge40" class="edge">
<title>hash&#45;&gt;rand</title>
<path fill="none" stroke="black" d="M884.57,-1351.34C905.86,-1351.34 936.19,-1351.34 960.07,-1351.34"/>
<polygon fill="black" stroke="black" points="960.04,-1354.84 970.04,-1351.34 960.04,-1347.84 960.04,-1354.84"/>
</g>
<!-- haskell -->
<g id="node16" class="node">
<title>haskell</title>
<polygon fill="none" stroke="black" points="480.25,-205.34 417.75,-205.34 417.75,-169.34 480.25,-169.34 480.25,-205.34"/>
<text text-anchor="middle" x="449" y="-183.04" font-family="sans-serif" font-size="14.00">haskell</text>
</g>
<!-- hol&#45;api -->
<g id="node18" class="node">
<title>hol&#45;api</title>
<polygon fill="none" stroke="black" points="607.62,-226.34 545.12,-226.34 545.12,-190.34 607.62,-190.34 607.62,-226.34"/>
<text text-anchor="middle" x="576.38" y="-204.04" font-family="sans-serif" font-size="14.00">hol&#45;api</text>
</g>
<!-- haskell&#45;&gt;hol&#45;api -->
<g id="edge41" class="edge">
<title>haskell&#45;&gt;hol&#45;api</title>
<path fill="none" stroke="black" d="M480.67,-192.47C496.73,-195.16 516.61,-198.49 534.01,-201.41"/>
<polygon fill="black" stroke="black" points="533.09,-204.8 543.53,-203 534.24,-197.9 533.09,-204.8"/>
</g>
<!-- haskell&#45;&gt;hol&#45;eval -->
<g id="edge42" class="edge">
<title>haskell&#45;&gt;hol&#45;eval</title>
<path fill="none" stroke="black" d="M480.64,-179.6C535.96,-166.94 655.76,-145.47 753,-169.34 776.84,-175.19 801.28,-187.6 820.4,-199.06"/>
<polygon fill="black" stroke="black" points="818.54,-202.02 828.88,-204.3 822.22,-196.06 818.54,-202.02"/>
</g>
<!-- haskell&#45;&gt;init -->
<g id="edge43" class="edge">
<title>haskell&#45;&gt;init</title>
<path fill="none" stroke="black" d="M468.92,-205.74C504.07,-240.89 579.86,-321.32 623.75,-402.34 664.44,-477.45 689.06,-576.24 699.5,-624.8"/>
<polygon fill="black" stroke="black" points="696.07,-625.46 701.54,-634.53 702.92,-624.03 696.07,-625.46"/>
</g>
<!-- haskell&#45;&gt;types -->
<g id="edge44" class="edge">
<title>haskell&#45;&gt;types</title>
<path fill="none" stroke="black" d="M462.54,-169.02C496.04,-122.48 592.81,-3.34 705.38,-3.34 705.38,-3.34 705.38,-3.34 1215.25,-3.34 1288.59,-3.34 1325.47,14.34 1376.5,-38.34 1418.94,-82.15 1433.17,-272.04 1437.15,-345.84"/>
<polygon fill="black" stroke="black" points="1433.64,-345.73 1437.65,-355.53 1440.63,-345.37 1433.64,-345.73"/>
</g>
<!-- hol&#45;&gt;core -->
<g id="edge45" class="edge">
<title>hol&#45;&gt;core</title>
<path fill="none" stroke="black" d="M884.56,-437.66C897.57,-433.17 913.16,-426.71 925.75,-418.34 944.81,-405.65 962.88,-387.26 976.13,-372.12"/>
<polygon fill="black" stroke="black" points="978.55,-374.68 982.37,-364.79 973.22,-370.14 978.55,-374.68"/>
</g>
<!-- hol&#45;api&#45;&gt;core -->
<g id="edge46" class="edge">
<title>hol&#45;api&#45;&gt;core</title>
<path fill="none" stroke="black" d="M608.07,-214.24C682.03,-228.73 868.25,-266.77 925.75,-293.34 940.68,-300.23 955.66,-310.42 968.05,-319.96"/>
<polygon fill="black" stroke="black" points="965.79,-322.63 975.79,-326.12 970.14,-317.15 965.79,-322.63"/>
</g>
<!-- hol&#45;api&#45;&gt;hol&#45;eval -->
<g id="edge47" class="edge">
<title>hol&#45;api&#45;&gt;hol&#45;eval</title>
<path fill="none" stroke="black" d="M608.01,-194.77C623.24,-188.75 642.11,-182.35 659.75,-179.34 700.6,-172.35 712.39,-171.05 753,-179.34 773.19,-183.45 794.33,-191.67 812.19,-199.9"/>
<polygon fill="black" stroke="black" points="810.67,-203.05 821.21,-204.2 813.69,-196.73 810.67,-203.05"/>
</g>
<!-- inductive -->
<g id="node20" class="node">
<title>inductive</title>
<polygon fill="none" stroke="black" points="895.75,-409.34 819,-409.34 819,-373.34 895.75,-373.34 895.75,-409.34"/>
<text text-anchor="middle" x="857.38" y="-387.04" font-family="sans-serif" font-size="14.00">inductive</text>
</g>
<!-- hol&#45;api&#45;&gt;inductive -->
<g id="edge48" class="edge">
<title>hol&#45;api&#45;&gt;inductive</title>
<path fill="none" stroke="black" d="M605.4,-226.72C655.96,-259.88 762.4,-329.7 819.05,-366.86"/>
<polygon fill="black" stroke="black" points="816.82,-369.58 827.1,-372.13 820.66,-363.72 816.82,-369.58"/>
</g>
<!-- hol&#45;api&#45;&gt;init -->
<g id="edge49" class="edge">
<title>hol&#45;api&#45;&gt;init</title>
<path fill="none" stroke="black" d="M582.67,-226.68C591.29,-256.57 608.89,-317.61 623.75,-369.34 650.57,-462.73 682.23,-573.37 697,-625.03"/>
<polygon fill="black" stroke="black" points="693.6,-625.89 699.72,-634.54 700.33,-623.96 693.6,-625.89"/>
</g>
<!-- hol&#45;api&#45;&gt;pure -->
<g id="edge50" class="edge">
<title>hol&#45;api&#45;&gt;pure</title>
<path fill="none" stroke="black" d="M607.88,-189.92C622.93,-181.89 641.69,-173.4 659.75,-169.34 700.19,-160.25 711.68,-166.13 753,-169.34 932.41,-183.27 988.06,-166.5 1151.25,-242.34 1163.76,-248.15 1176.01,-256.95 1186.27,-265.51"/>
<polygon fill="black" stroke="black" points="1183.75,-267.95 1193.59,-271.88 1188.35,-262.67 1183.75,-267.95"/>
</g>
<!-- hol&#45;api&#45;&gt;types -->
<g id="edge51" class="edge">
<title>hol&#45;api&#45;&gt;types</title>
<path fill="none" stroke="black" d="M593.27,-190.15C632.96,-146.86 741.5,-41.34 856.38,-41.34 856.38,-41.34 856.38,-41.34 1215.25,-41.34 1290.28,-41.34 1325.77,-36.05 1376.5,-91.34 1410.56,-128.45 1429.2,-280.38 1435.76,-345.49"/>
<polygon fill="black" stroke="black" points="1432.28,-345.83 1436.73,-355.44 1439.24,-345.14 1432.28,-345.83"/>
</g>
<!-- hol&#45;eval&#45;&gt;core -->
<g id="edge52" class="edge">
<title>hol&#45;eval&#45;&gt;core</title>
<path fill="none" stroke="black" d="M892.67,-236.01C903.85,-241.05 915.91,-247.53 925.75,-255.34 931.93,-260.24 957.81,-293.31 976.75,-317.95"/>
<polygon fill="black" stroke="black" points="973.83,-319.89 982.7,-325.7 979.39,-315.63 973.83,-319.89"/>
</g>
<!-- hol&#45;eval&#45;&gt;pure -->
<g id="edge53" class="edge">
<title>hol&#45;eval&#45;&gt;pure</title>
<path fill="none" stroke="black" d="M892.82,-225.13C948.2,-228.68 1060.08,-238.62 1151.25,-264.34 1159.66,-266.71 1168.41,-269.98 1176.61,-273.43"/>
<polygon fill="black" stroke="black" points="1175.03,-276.56 1185.59,-277.4 1177.86,-270.16 1175.03,-276.56"/>
</g>
<!-- hol&#45;eval&#45;&gt;pure&#45;eval -->
<g id="edge54" class="edge">
<title>hol&#45;eval&#45;&gt;pure&#45;eval</title>
<path fill="none" stroke="black" d="M892.79,-233.15C912.88,-238.84 938.72,-246.09 961.75,-252.34 994.48,-261.22 1031.35,-270.9 1060.18,-278.39"/>
<polygon fill="black" stroke="black" points="1059.19,-281.75 1069.75,-280.87 1060.95,-274.97 1059.19,-281.75"/>
</g>
<!-- hol&#45;eval&#45;&gt;sexp -->
<g id="edge55" class="edge">
<title>hol&#45;eval&#45;&gt;sexp</title>
<path fill="none" stroke="black" d="M869.62,-241.7C885.06,-267.88 912.44,-317.92 925.75,-364.34 934.21,-393.84 981.9,-847.48 994.55,-968.73"/>
<polygon fill="black" stroke="black" points="991.05,-968.93 995.56,-978.51 998.01,-968.2 991.05,-968.93"/>
</g>
<!-- hol&#45;eval&#45;&gt;types -->
<g id="edge56" class="edge">
<title>hol&#45;eval&#45;&gt;types</title>
<path fill="none" stroke="black" d="M875.38,-205.1C913.45,-166.35 1010.1,-79.34 1110.38,-79.34 1110.38,-79.34 1110.38,-79.34 1215.25,-79.34 1348.14,-79.34 1411.89,-271.85 1431.58,-346.37"/>
<polygon fill="black" stroke="black" points="1428.13,-346.98 1433.99,-355.8 1434.91,-345.24 1428.13,-346.98"/>
</g>
<!-- init&#45;&gt;core -->
<g id="edge57" class="edge">
<title>init&#45;&gt;core</title>
<path fill="none" stroke="black" d="M733.75,-639.02C740.56,-634.25 747.51,-628.59 753,-622.34 775.81,-596.33 762.85,-575.98 789,-553.34 837.69,-511.17 878.32,-548.91 925.75,-505.34 964.13,-470.07 983.32,-410.45 991.82,-374.79"/>
<polygon fill="black" stroke="black" points="995.21,-375.69 993.98,-365.17 988.38,-374.16 995.21,-375.69"/>
</g>
<!-- init&#45;&gt;grammar -->
<g id="edge58" class="edge">
<title>init&#45;&gt;grammar</title>
<path fill="none" stroke="black" d="M733.55,-642.03C749.25,-635.34 769.83,-627.75 789,-624.34 843.61,-614.62 907.52,-617.96 950.07,-622.21"/>
<polygon fill="black" stroke="black" points="949.66,-625.68 959.98,-623.26 950.41,-618.72 949.66,-625.68"/>
</g>
<!-- init&#45;&gt;hash -->
<g id="edge59" class="edge">
<title>init&#45;&gt;hash</title>
<path fill="none" stroke="black" d="M717.57,-672.83C728.41,-693.49 745.07,-728.24 753,-760.34 802.2,-959.42 733,-1023.06 789,-1220.34 799.79,-1258.35 822.09,-1298.19 838.09,-1323.81"/>
<polygon fill="black" stroke="black" points="834.94,-1325.39 843.27,-1331.94 840.85,-1321.63 834.94,-1325.39"/>
</g>
<!-- init&#45;&gt;hol -->
<g id="edge60" class="edge">
<title>init&#45;&gt;hol</title>
<path fill="none" stroke="black" d="M733.47,-640.22C740.6,-635.34 747.79,-629.31 753,-622.34 783.04,-582.15 762.97,-558.23 789,-515.34 798.91,-499.01 813.23,-483.44 826.12,-471.14"/>
<polygon fill="black" stroke="black" points="828.24,-473.94 833.21,-464.59 823.49,-468.8 828.24,-473.94"/>
</g>
<!-- init&#45;&gt;hol&#45;eval -->
<g id="edge61" class="edge">
<title>init&#45;&gt;hol&#45;eval</title>
<path fill="none" stroke="black" d="M716.47,-636.04C726.66,-614.89 743.04,-578.83 753,-546.34 777.17,-467.5 763.02,-442.59 789,-364.34 802.57,-323.47 825.21,-279.07 840.46,-251.24"/>
<polygon fill="black" stroke="black" points="843.38,-253.19 845.17,-242.74 837.26,-249.79 843.38,-253.19"/>
</g>
<!-- init&#45;&gt;inductive -->
<g id="edge62" class="edge">
<title>init&#45;&gt;inductive</title>
<path fill="none" stroke="black" d="M716.01,-635.88C725.77,-614.6 741.76,-578.42 753,-546.34 772.54,-490.56 749.51,-462.3 789,-418.34 794.38,-412.34 801.28,-407.66 808.6,-404"/>
<polygon fill="black" stroke="black" points="809.55,-407.4 817.35,-400.23 806.78,-400.98 809.55,-407.4"/>
</g>
<!-- metamath -->
<g id="node31" class="node">
<title>metamath</title>
<polygon fill="none" stroke="black" points="897.62,-1119.34 817.12,-1119.34 817.12,-1083.34 897.62,-1083.34 897.62,-1119.34"/>
<text text-anchor="middle" x="857.38" y="-1097.04" font-family="sans-serif" font-size="14.00">metamath</text>
</g>
<!-- init&#45;&gt;metamath -->
<g id="edge63" class="edge">
<title>init&#45;&gt;metamath</title>
<path fill="none" stroke="black" d="M715.92,-672.47C725.6,-693.37 741.52,-728.91 753,-760.34 771.95,-812.24 772.98,-826.45 789,-879.34 809.93,-948.39 834.56,-1029.52 847.46,-1072"/>
<polygon fill="black" stroke="black" points="844.08,-1072.92 850.34,-1081.47 850.78,-1070.88 844.08,-1072.92"/>
</g>
<!-- init&#45;&gt;sexp -->
<g id="edge64" class="edge">
<title>init&#45;&gt;sexp</title>
<path fill="none" stroke="black" d="M715.34,-672.7C724.49,-693.81 739.93,-729.54 753,-760.34 769.19,-798.48 757.46,-819.47 789,-846.34 836.59,-886.88 875.31,-842.39 925.75,-879.34 956.56,-901.9 976.74,-942.02 987.66,-969.38"/>
<polygon fill="black" stroke="black" points="984.29,-970.37 991.11,-978.47 990.83,-967.88 984.29,-970.37"/>
</g>
<!-- spectec -->
<g id="node51" class="node">
<title>spectec</title>
<polygon fill="none" stroke="black" points="892,-669.34 822.75,-669.34 822.75,-633.34 892,-633.34 892,-669.34"/>
<text text-anchor="middle" x="857.38" y="-647.04" font-family="sans-serif" font-size="14.00">spectec</text>
</g>
<!-- init&#45;&gt;spectec -->
<g id="edge65" class="edge">
<title>init&#45;&gt;spectec</title>
<path fill="none" stroke="black" d="M733.67,-653.81C755.12,-653.37 785.9,-652.75 811.27,-652.24"/>
<polygon fill="black" stroke="black" points="811.05,-655.75 820.98,-652.05 810.91,-648.75 811.05,-655.75"/>
</g>
<!-- init&#45;&gt;types -->
<g id="edge66" class="edge">
<title>init&#45;&gt;types</title>
<path fill="none" stroke="black" d="M733.52,-663.44C749.38,-668.61 770.14,-674.74 789,-678.34 880.46,-695.77 904.52,-697.34 997.62,-697.34 997.62,-697.34 997.62,-697.34 1215.25,-697.34 1356.95,-697.34 1415.86,-484.14 1432.9,-404.7"/>
<polygon fill="black" stroke="black" points="1436.29,-405.55 1434.89,-395.05 1429.44,-404.14 1436.29,-405.55"/>
</g>
<!-- json -->
<g id="node22" class="node">
<title>json</title>
<polygon fill="none" stroke="black" points="884.38,-1903.34 830.38,-1903.34 830.38,-1867.34 884.38,-1867.34 884.38,-1903.34"/>
<text text-anchor="middle" x="857.38" y="-1881.04" font-family="sans-serif" font-size="14.00">json</text>
</g>
<!-- kernel -->
<g id="node23" class="node">
<title>kernel</title>
<polygon fill="none" stroke="black" points="605,-935.34 547.75,-935.34 547.75,-899.34 605,-899.34 605,-935.34"/>
<text text-anchor="middle" x="576.38" y="-913.04" font-family="sans-serif" font-size="14.00">kernel</text>
</g>
<!-- kernel&#45;&gt;hash -->
<g id="edge67" class="edge">
<title>kernel&#45;&gt;hash</title>
<path fill="none" stroke="black" d="M605.09,-933.33C611.7,-937.95 618.38,-943.37 623.75,-949.34 646.11,-974.17 639.2,-988.99 659.75,-1015.34 694.43,-1059.78 723.06,-1053.56 753,-1101.34 782.34,-1148.16 768.28,-1169.11 789,-1220.34 803.84,-1257.01 825.34,-1297.19 840.04,-1323.26"/>
<polygon fill="black" stroke="black" points="836.95,-1324.91 844.94,-1331.86 843.04,-1321.44 836.95,-1324.91"/>
</g>
<!-- kernel&#45;&gt;init -->
<g id="edge68" class="edge">
<title>kernel&#45;&gt;init</title>
<path fill="none" stroke="black" d="M586.38,-898.84C608.36,-853.67 664.93,-737.43 691.37,-683.11"/>
<polygon fill="black" stroke="black" points="694.49,-684.69 695.72,-674.17 688.2,-681.63 694.49,-684.69"/>
</g>
<!-- kernel&#45;&gt;object -->
<g id="edge69" class="edge">
<title>kernel&#45;&gt;object</title>
<path fill="none" stroke="black" d="M591.32,-935.58C601.31,-949.27 614.58,-968.78 623.75,-987.34 645.43,-1031.18 638.24,-1047.41 659.75,-1091.34 666.9,-1105.93 676.53,-1121.16 685.1,-1133.67"/>
<polygon fill="black" stroke="black" points="682.21,-1135.64 690.81,-1141.82 687.94,-1131.62 682.21,-1135.64"/>
</g>
<!-- kernel&#45;&gt;sexp -->
<g id="edge70" class="edge">
<title>kernel&#45;&gt;sexp</title>
<path fill="none" stroke="black" d="M605.42,-934.69C653.64,-964.15 750.76,-1021.69 789,-1031.34 847.93,-1046.2 866.37,-1044.31 925.75,-1031.34 937.74,-1028.71 950.13,-1023.9 961.17,-1018.74"/>
<polygon fill="black" stroke="black" points="962.51,-1021.98 969.93,-1014.42 959.41,-1015.7 962.51,-1021.98"/>
</g>
<!-- kernel&#45;&gt;store -->
<g id="edge71" class="edge">
<title>kernel&#45;&gt;store</title>
<path fill="none" stroke="black" d="M579.48,-935.59C586.09,-992.86 606.95,-1174.15 623.75,-1324.34 640.05,-1470.08 621.6,-1510.73 659.75,-1652.34 666.82,-1678.59 679.67,-1706.7 689.93,-1726.91"/>
<polygon fill="black" stroke="black" points="686.75,-1728.39 694.47,-1735.65 692.96,-1725.16 686.75,-1728.39"/>
</g>
<!-- kernel&#45;sat -->
<g id="node24" class="node">
<title>kernel&#45;sat</title>
<polygon fill="none" stroke="black" points="748.12,-2109.34 664.62,-2109.34 664.62,-2073.34 748.12,-2073.34 748.12,-2109.34"/>
<text text-anchor="middle" x="706.38" y="-2087.04" font-family="sans-serif" font-size="14.00">kernel&#45;sat</text>
</g>
<!-- sat -->
<g id="node46" class="node">
<title>sat</title>
<polygon fill="none" stroke="black" points="884.38,-2071.34 830.38,-2071.34 830.38,-2035.34 884.38,-2035.34 884.38,-2071.34"/>
<text text-anchor="middle" x="857.38" y="-2049.04" font-family="sans-serif" font-size="14.00">sat</text>
</g>
<!-- kernel&#45;sat&#45;&gt;sat -->
<g id="edge72" class="edge">
<title>kernel&#45;sat&#45;&gt;sat</title>
<path fill="none" stroke="black" d="M748.48,-2080.85C770.54,-2075.23 797.51,-2068.35 818.97,-2062.88"/>
<polygon fill="black" stroke="black" points="819.65,-2066.31 828.48,-2060.45 817.92,-2059.53 819.65,-2066.31"/>
</g>
<!-- kernel&#45;smt -->
<g id="node25" class="node">
<title>kernel&#45;smt</title>
<polygon fill="none" stroke="black" points="493,-316.34 405,-316.34 405,-280.34 493,-280.34 493,-316.34"/>
<text text-anchor="middle" x="449" y="-294.04" font-family="sans-serif" font-size="14.00">kernel&#45;smt</text>
</g>
<!-- kernel&#45;smt&#45;&gt;core -->
<g id="edge73" class="edge">
<title>kernel&#45;smt&#45;&gt;core</title>
<path fill="none" stroke="black" d="M493.43,-302.06C597.85,-311.03 861.62,-333.66 959.93,-342.1"/>
<polygon fill="black" stroke="black" points="959.57,-345.58 969.83,-342.95 960.17,-338.61 959.57,-345.58"/>
</g>
<!-- kernel&#45;smt&#45;&gt;hol&#45;api -->
<g id="edge74" class="edge">
<title>kernel&#45;smt&#45;&gt;hol&#45;api</title>
<path fill="none" stroke="black" d="M475.67,-279.91C494.35,-266.5 519.86,-248.19 540.4,-233.44"/>
<polygon fill="black" stroke="black" points="542.42,-236.3 548.51,-227.62 538.34,-230.61 542.42,-236.3"/>
</g>
<!-- kv -->
<g id="node26" class="node">
<title>kv</title>
<polygon fill="none" stroke="black" points="226.12,-1887.34 172.12,-1887.34 172.12,-1851.34 226.12,-1851.34 226.12,-1887.34"/>
<text text-anchor="middle" x="199.12" y="-1865.04" font-family="sans-serif" font-size="14.00">kv</text>
</g>
<!-- lean -->
<g id="node27" class="node">
<title>lean</title>
<polygon fill="none" stroke="black" points="87.5,-1873.34 33.5,-1873.34 33.5,-1837.34 87.5,-1837.34 87.5,-1873.34"/>
<text text-anchor="middle" x="60.5" y="-1851.04" font-family="sans-serif" font-size="14.00">lean</text>
</g>
<!-- lisp -->
<g id="node28" class="node">
<title>lisp</title>
<polygon fill="none" stroke="black" points="476,-409.34 422,-409.34 422,-373.34 476,-373.34 476,-409.34"/>
<text text-anchor="middle" x="449" y="-387.04" font-family="sans-serif" font-size="14.00">lisp</text>
</g>
<!-- lisp&#45;&gt;core -->
<g id="edge75" class="edge">
<title>lisp&#45;&gt;core</title>
<path fill="none" stroke="black" d="M476.41,-389.12C565.59,-381.63 855.79,-357.25 959.96,-348.5"/>
<polygon fill="black" stroke="black" points="959.98,-352.01 969.65,-347.69 959.39,-345.03 959.98,-352.01"/>
</g>
<!-- lisp&#45;&gt;hol&#45;api -->
<g id="edge76" class="edge">
<title>lisp&#45;&gt;hol&#45;api</title>
<path fill="none" stroke="black" d="M462.75,-372.88C471.6,-359.82 483.45,-341.77 493,-325.34 510.57,-295.08 508.48,-283.67 529,-255.34 534.2,-248.16 540.49,-241.02 546.74,-234.57"/>
<polygon fill="black" stroke="black" points="548.86,-237.4 553.47,-227.86 543.92,-232.44 548.86,-237.4"/>
</g>
<!-- lisp&#45;&gt;hol&#45;eval -->
<g id="edge77" class="edge">
<title>lisp&#45;&gt;hol&#45;eval</title>
<path fill="none" stroke="black" d="M470.17,-373.01C485.42,-359.93 507.35,-342.72 529,-331.34 623.7,-281.54 745.78,-248.63 810.82,-233.3"/>
<polygon fill="black" stroke="black" points="811.48,-236.74 820.43,-231.07 809.89,-229.92 811.48,-236.74"/>
</g>
<!-- lisp&#45;&gt;init -->
<g id="edge78" class="edge">
<title>lisp&#45;&gt;init</title>
<path fill="none" stroke="black" d="M467.96,-409.83C512.47,-455.67 628.01,-574.66 679.71,-627.9"/>
<polygon fill="black" stroke="black" points="676.91,-630.04 686.38,-634.78 681.93,-625.16 676.91,-630.04"/>
</g>
<!-- repl&#45;core -->
<g id="node45" class="node">
<title>repl&#45;core</title>
<polygon fill="none" stroke="black" points="615.5,-447.34 537.25,-447.34 537.25,-411.34 615.5,-411.34 615.5,-447.34"/>
<text text-anchor="middle" x="576.38" y="-425.04" font-family="sans-serif" font-size="14.00">repl&#45;core</text>
</g>
<!-- lisp&#45;&gt;repl&#45;core -->
<g id="edge79" class="edge">
<title>lisp&#45;&gt;repl&#45;core</title>
<path fill="none" stroke="black" d="M476.28,-399.3C490.77,-403.69 509.23,-409.29 526.28,-414.46"/>
<polygon fill="black" stroke="black" points="525.2,-417.78 535.78,-417.34 527.23,-411.09 525.2,-417.78"/>
</g>
<!-- lisp&#45;&gt;sexp -->
<g id="edge80" class="edge">
<title>lisp&#45;&gt;sexp</title>
<path fill="none" stroke="black" d="M461.32,-409.59C471.35,-426.69 485.54,-453.31 493,-478.34 512.05,-542.26 489.57,-722.54 529,-776.34 556.34,-813.63 585.17,-793.84 623.75,-819.34 641.86,-831.3 641.94,-839.93 659.75,-852.34 697.99,-878.99 718.37,-869.14 753,-900.34 774.71,-919.89 764.84,-938.91 789,-955.34 840.82,-990.58 915.45,-998 959.99,-999"/>
<polygon fill="black" stroke="black" points="959.89,-1002.5 969.93,-999.11 959.96,-995.5 959.89,-1002.5"/>
</g>
<!-- llm -->
<g id="node29" class="node">
<title>llm</title>
<polygon fill="none" stroke="black" points="226.12,-1053.34 172.12,-1053.34 172.12,-1017.34 226.12,-1017.34 226.12,-1053.34"/>
<text text-anchor="middle" x="199.12" y="-1031.04" font-family="sans-serif" font-size="14.00">llm</text>
</g>
<!-- llm&#45;&gt;proto -->
<g id="edge81" class="edge">
<title>llm&#45;&gt;proto</title>
<path fill="none" stroke="black" d="M226.6,-1019.71C243.94,-1009.48 266.84,-995.96 285.87,-984.73"/>
<polygon fill="black" stroke="black" points="287.57,-987.79 294.4,-979.7 284.01,-981.77 287.57,-987.79"/>
</g>
<!-- lsp&#45;&gt;sexp -->
<g id="edge82" class="edge">
<title>lsp&#45;&gt;sexp</title>
<path fill="none" stroke="black" d="M884.71,-1185.77C898.4,-1180.72 914.56,-1172.85 925.75,-1161.34 962.65,-1123.38 982.34,-1063.32 991.33,-1027.68"/>
<polygon fill="black" stroke="black" points="994.71,-1028.6 993.63,-1018.06 987.9,-1026.98 994.71,-1028.6"/>
</g>
<!-- lsp&#45;&gt;wasm -->
<g id="edge83" class="edge">
<title>lsp&#45;&gt;wasm</title>
<path fill="none" stroke="black" d="M870.23,-1211.58C885.59,-1236.16 912.04,-1281.73 925.75,-1324.34 979.33,-1490.91 993.22,-1702.77 996.6,-1779.2"/>
<polygon fill="black" stroke="black" points="993.09,-1778.92 997,-1788.77 1000.08,-1778.63 993.09,-1778.92"/>
</g>
<!-- metamath&#45;&gt;parse -->
<g id="edge84" class="edge">
<title>metamath&#45;&gt;parse</title>
<path fill="none" stroke="black" d="M885.57,-1119.8C923.36,-1146.6 992,-1199.53 1035.5,-1258.34 1067.11,-1301.06 1089.73,-1359.26 1101.38,-1393.61"/>
<polygon fill="black" stroke="black" points="1097.97,-1394.45 1104.43,-1402.85 1104.61,-1392.26 1097.97,-1394.45"/>
</g>
<!-- metamath&#45;&gt;sexp -->
<g id="edge85" class="edge">
<title>metamath&#45;&gt;sexp</title>
<path fill="none" stroke="black" d="M898.09,-1085.19C907.51,-1080.64 917.27,-1075.28 925.75,-1069.34 943.71,-1056.75 961.27,-1039.52 974.54,-1025.18"/>
<polygon fill="black" stroke="black" points="977.09,-1027.59 981.2,-1017.82 971.9,-1022.89 977.09,-1027.59"/>
</g>
<!-- multiformat -->
<g id="node32" class="node">
<title>multiformat</title>
<polygon fill="none" stroke="black" points="751.5,-1589.34 661.25,-1589.34 661.25,-1553.34 751.5,-1553.34 751.5,-1589.34"/>
<text text-anchor="middle" x="706.38" y="-1567.04" font-family="sans-serif" font-size="14.00">multiformat</text>
</g>
<!-- multiformat&#45;&gt;acset -->
<g id="edge86" class="edge">
<title>multiformat&#45;&gt;acset</title>
<path fill="none" stroke="black" d="M751.68,-1557.66C773.25,-1551 798.88,-1543.09 819.39,-1536.76"/>
<polygon fill="black" stroke="black" points="820.22,-1540.16 828.74,-1533.87 818.16,-1533.47 820.22,-1540.16"/>
</g>
<!-- multiformat&#45;&gt;hash -->
<g id="edge87" class="edge">
<title>multiformat&#45;&gt;hash</title>
<path fill="none" stroke="black" d="M737.47,-1553.19C743.02,-1549.06 748.48,-1544.38 753,-1539.34 796.91,-1490.37 829.42,-1419.51 845.38,-1380.26"/>
<polygon fill="black" stroke="black" points="848.61,-1381.6 849.05,-1371.01 842.1,-1379.01 848.61,-1381.6"/>
</g>
<!-- multiformat&#45;&gt;parse -->
<g id="edge88" class="edge">
<title>multiformat&#45;&gt;parse</title>
<path fill="none" stroke="black" d="M751.92,-1574.12C797.11,-1575.44 868.38,-1573.29 925.75,-1552.34 988.45,-1529.44 1049.43,-1479.48 1083.23,-1448.6"/>
<polygon fill="black" stroke="black" points="1085.56,-1451.21 1090.51,-1441.84 1080.8,-1446.07 1085.56,-1451.21"/>
</g>
<!-- object&#45;&gt;hash -->
<g id="edge89" class="edge">
<title>object&#45;&gt;hash</title>
<path fill="none" stroke="black" d="M735.18,-1176.93C741.67,-1181.56 748.11,-1187.09 753,-1193.34 780.32,-1228.23 764.48,-1249.42 789,-1286.34 798.55,-1300.72 811.78,-1314.35 823.98,-1325.39"/>
<polygon fill="black" stroke="black" points="821.65,-1328 831.48,-1331.94 826.25,-1322.73 821.65,-1328"/>
</g>
<!-- object&#45;&gt;parse -->
<g id="edge90" class="edge">
<title>object&#45;&gt;parse</title>
<path fill="none" stroke="black" d="M734.01,-1179.81C740.27,-1184.2 746.89,-1188.9 753,-1193.34 769.19,-1205.08 771.66,-1210.37 789,-1220.34 892.11,-1279.56 941.48,-1251.54 1035.5,-1324.34 1060.35,-1343.57 1081.31,-1372.96 1094.68,-1394.54"/>
<polygon fill="black" stroke="black" points="1091.52,-1396.07 1099.67,-1402.83 1097.52,-1392.46 1091.52,-1396.07"/>
</g>
<!-- opentheory&#45;&gt;hol -->
<g id="edge91" class="edge">
<title>opentheory&#45;&gt;hol</title>
<path fill="none" stroke="black" d="M369.05,-486.54C471.91,-477.84 723.03,-456.61 818.6,-448.53"/>
<polygon fill="black" stroke="black" points="818.81,-452.02 828.48,-447.69 818.22,-445.05 818.81,-452.02"/>
</g>
<!-- parquet -->
<g id="node35" class="node">
<title>parquet</title>
<polygon fill="none" stroke="black" points="482.5,-1461.34 415.5,-1461.34 415.5,-1425.34 482.5,-1425.34 482.5,-1461.34"/>
<text text-anchor="middle" x="449" y="-1439.04" font-family="sans-serif" font-size="14.00">parquet</text>
</g>
<!-- parquet&#45;&gt;arrow -->
<g id="edge92" class="edge">
<title>parquet&#45;&gt;arrow</title>
<path fill="none" stroke="black" d="M482.94,-1443.34C499.68,-1443.34 520.11,-1443.34 537.5,-1443.34"/>
<polygon fill="black" stroke="black" points="537.45,-1446.84 547.45,-1443.34 537.45,-1439.84 537.45,-1446.84"/>
</g>
<!-- proptest -->
<g id="node37" class="node">
<title>proptest</title>
<polygon fill="none" stroke="black" points="95.88,-1927.34 25.12,-1927.34 25.12,-1891.34 95.88,-1891.34 95.88,-1927.34"/>
<text text-anchor="middle" x="60.5" y="-1905.04" font-family="sans-serif" font-size="14.00">proptest</text>
</g>
<!-- pure&#45;trusted -->
<g id="node41" class="node">
<title>pure&#45;trusted</title>
<polygon fill="#ffd6d6" stroke="black" points="1376.5,-309.34 1277.25,-309.34 1277.25,-273.34 1376.5,-273.34 1376.5,-309.34"/>
<text text-anchor="middle" x="1326.88" y="-287.04" font-family="sans-serif" font-size="14.00">pure&#45;trusted</text>
</g>
<!-- pure&#45;&gt;pure&#45;trusted -->
<g id="edge93" class="edge">
<title>pure&#45;&gt;pure&#45;trusted</title>
<path fill="none" stroke="black" d="M1241.75,-291.34C1249.04,-291.34 1257.27,-291.34 1265.64,-291.34"/>
<polygon fill="black" stroke="black" points="1265.57,-294.84 1275.57,-291.34 1265.57,-287.84 1265.57,-294.84"/>
</g>
<!-- pure&#45;eval&#45;&gt;pure -->
<g id="edge94" class="edge">
<title>pure&#45;eval&#45;&gt;pure</title>
<path fill="none" stroke="black" d="M1151.66,-291.34C1159.53,-291.34 1167.77,-291.34 1175.57,-291.34"/>
<polygon fill="black" stroke="black" points="1175.47,-294.84 1185.47,-291.34 1175.47,-287.84 1175.47,-294.84"/>
</g>
<!-- pure&#45;eval&#45;&gt;types -->
<g id="edge95" class="edge">
<title>pure&#45;eval&#45;&gt;types</title>
<path fill="none" stroke="black" d="M1151.71,-306.55C1163.08,-310.66 1175.58,-314.92 1187.25,-318.34 1189.85,-319.1 1332.38,-351.34 1401.58,-366.99"/>
<polygon fill="black" stroke="black" points="1400.42,-370.32 1410.94,-369.11 1401.96,-363.49 1400.42,-370.32"/>
</g>
<!-- pure&#45;trusted&#45;&gt;types -->
<g id="edge96" class="edge">
<title>pure&#45;trusted&#45;&gt;types</title>
<path fill="none" stroke="black" d="M1357.05,-309.75C1363.55,-314.07 1370.34,-318.75 1376.5,-323.34 1387.48,-331.51 1399.09,-341 1409.25,-349.61"/>
<polygon fill="black" stroke="black" points="1406.74,-352.07 1416.61,-355.92 1411.29,-346.75 1406.74,-352.07"/>
</g>
<!-- python -->
<g id="node42" class="node">
<title>python</title>
<polygon fill="none" stroke="black" points="91.38,-1765.34 29.62,-1765.34 29.62,-1729.34 91.38,-1729.34 91.38,-1765.34"/>
<text text-anchor="middle" x="60.5" y="-1743.04" font-family="sans-serif" font-size="14.00">python</text>
</g>
<!-- python&#45;&gt;crypto&#45;sig -->
<g id="edge97" class="edge">
<title>python&#45;&gt;crypto&#45;sig</title>
<path fill="none" stroke="black" d="M91.61,-1754.94C102.3,-1759.04 113.52,-1765.21 121,-1774.34 165.83,-1829.04 118.9,-1869.75 157,-1929.34 158.21,-1931.22 159.56,-1933.04 161.03,-1934.79"/>
<polygon fill="black" stroke="black" points="158.51,-1937.22 168.04,-1941.86 163.48,-1932.29 158.51,-1937.22"/>
</g>
<!-- python&#45;&gt;git -->
<g id="edge98" class="edge">
<title>python&#45;&gt;git</title>
<path fill="none" stroke="black" d="M91.83,-1730.7C162.11,-1692.15 335.88,-1596.84 411.67,-1555.26"/>
<polygon fill="black" stroke="black" points="413.28,-1558.37 420.37,-1550.49 409.92,-1552.23 413.28,-1558.37"/>
</g>
<!-- python&#45;&gt;graph -->
<g id="edge99" class="edge">
<title>python&#45;&gt;graph</title>
<path fill="none" stroke="black" d="M91.57,-1752.03C110.36,-1754.89 135.06,-1758.52 157,-1761.34 247.88,-1772.99 355.07,-1784.1 410.53,-1789.65"/>
<polygon fill="black" stroke="black" points="410.07,-1793.12 420.37,-1790.63 410.77,-1786.16 410.07,-1793.12"/>
</g>
<!-- python&#45;&gt;hash -->
<g id="edge100" class="edge">
<title>python&#45;&gt;hash</title>
<path fill="none" stroke="black" d="M91.82,-1736.7C127.64,-1724.05 188.97,-1702.17 241.25,-1682.34 326.77,-1649.89 544.75,-1576.43 623.75,-1530.34 641.5,-1519.98 642.05,-1511.77 659.75,-1501.34 698.31,-1478.61 716.22,-1488.83 753,-1463.34 786.94,-1439.81 817.92,-1403.34 836.93,-1378.46"/>
<polygon fill="black" stroke="black" points="839.51,-1380.85 842.7,-1370.75 833.91,-1376.65 839.51,-1380.85"/>
</g>
<!-- python&#45;&gt;kv -->
<g id="edge101" class="edge">
<title>python&#45;&gt;kv</title>
<path fill="none" stroke="black" d="M91.82,-1756.81C101.92,-1761.02 112.7,-1766.77 121,-1774.34 144.84,-1796.05 135.87,-1812.97 157,-1837.34 159.06,-1839.71 161.31,-1842.02 163.67,-1844.25"/>
<polygon fill="black" stroke="black" points="160.99,-1846.56 170.83,-1850.49 165.59,-1841.28 160.99,-1846.56"/>
</g>
<!-- python&#45;&gt;llm -->
<g id="edge102" class="edge">
<title>python&#45;&gt;llm</title>
<path fill="none" stroke="black" d="M62.04,-1729.02C65.2,-1631.98 83.72,-1178.13 157,-1062.34 158.71,-1059.63 160.81,-1057.14 163.13,-1054.85"/>
<polygon fill="black" stroke="black" points="164.98,-1057.86 170.54,-1048.84 160.57,-1052.42 164.98,-1057.86"/>
</g>
<!-- python&#45;&gt;object -->
<g id="edge103" class="edge">
<title>python&#45;&gt;object</title>
<path fill="none" stroke="black" d="M61.65,-1728.94C63.41,-1646.98 82.68,-1313.29 277.25,-1180.34 398.01,-1097.82 585.76,-1130.83 666.41,-1150.6"/>
<polygon fill="black" stroke="black" points="665.49,-1153.97 676.04,-1153.03 667.2,-1147.19 665.49,-1153.97"/>
</g>
<!-- python&#45;&gt;repl -->
<g id="edge104" class="edge">
<title>python&#45;&gt;repl</title>
<path fill="none" stroke="black" d="M67,-1729.06C79.01,-1691.19 110.27,-1602.5 157,-1540.34 193.92,-1491.22 250.25,-1447 286.63,-1421.14"/>
<polygon fill="black" stroke="black" points="288.46,-1424.14 294.64,-1415.53 284.44,-1418.41 288.46,-1424.14"/>
</g>
<!-- python&#45;&gt;sat -->
<g id="edge105" class="edge">
<title>python&#45;&gt;sat</title>
<path fill="none" stroke="black" d="M91.71,-1754.5C102.55,-1758.56 113.84,-1764.82 121,-1774.34 187.67,-1863 78.54,-1942.91 157,-2021.34 209.45,-2073.76 247.96,-2045.34 322.12,-2045.34 322.12,-2045.34 322.12,-2045.34 577.38,-2045.34 663.87,-2045.34 765.39,-2049.23 818.93,-2051.58"/>
<polygon fill="black" stroke="black" points="818.57,-2055.07 828.71,-2052.02 818.88,-2048.07 818.57,-2055.07"/>
</g>
<!-- python&#45;&gt;serve -->
<g id="edge106" class="edge">
<title>python&#45;&gt;serve</title>
<path fill="none" stroke="black" d="M64.29,-1729.07C74.61,-1662.52 112.26,-1426.85 157,-1235.34 166.57,-1194.36 180.22,-1147.66 189.12,-1118.34"/>
<polygon fill="black" stroke="black" points="192.37,-1119.67 191.95,-1109.08 185.68,-1117.62 192.37,-1119.67"/>
</g>
<!-- python&#45;&gt;sexp -->
<g id="edge107" class="edge">
<title>python&#45;&gt;sexp</title>
<path fill="none" stroke="black" d="M62.52,-1728.91C69.06,-1613.92 106.27,-997.56 157,-932.34 221.73,-849.12 528.22,-802.73 623.75,-847.34 646.33,-857.88 639.62,-875.64 659.75,-890.34 695.9,-916.72 719.23,-898.97 753,-928.34 777.04,-949.25 761.7,-973.91 789,-990.34 841.61,-1021.98 915.92,-1015.25 960.19,-1007.08"/>
<polygon fill="black" stroke="black" points="960.69,-1010.55 969.82,-1005.17 959.33,-1003.68 960.69,-1010.55"/>
</g>
<!-- python&#45;&gt;shell -->
<g id="edge108" class="edge">
<title>python&#45;&gt;shell</title>
<path fill="none" stroke="black" d="M61.75,-1728.88C63.43,-1626.89 75.75,-1132.38 157,-1008.34 214.3,-920.86 345.88,-892.22 410.62,-883.23"/>
<polygon fill="black" stroke="black" points="410.93,-886.72 420.4,-881.97 410.04,-879.78 410.93,-886.72"/>
</g>
<!-- python&#45;&gt;store -->
<g id="edge109" class="edge">
<title>python&#45;&gt;store</title>
<path fill="none" stroke="black" d="M91.63,-1759.25C110.23,-1766.22 134.71,-1774.73 157,-1780.34 302.85,-1817 342.8,-1827.78 493,-1820.34 551.33,-1817.44 568.95,-1827.53 623.75,-1807.34 642.03,-1800.6 643.36,-1792.86 659.75,-1782.34 662.85,-1780.35 666.09,-1778.32 669.36,-1776.32"/>
<polygon fill="black" stroke="black" points="671.07,-1779.38 677.82,-1771.21 667.45,-1773.38 671.07,-1779.38"/>
</g>
<!-- python&#45;&gt;wasm -->
<g id="edge110" class="edge">
<title>python&#45;&gt;wasm</title>
<path fill="none" stroke="black" d="M91.6,-1754.58C102.42,-1758.66 113.74,-1764.9 121,-1774.34 179.81,-1850.78 87.05,-1921.94 157,-1988.34 210.58,-2039.19 248.25,-2007.34 322.12,-2007.34 322.12,-2007.34 322.12,-2007.34 707.38,-2007.34 808.64,-2007.34 847.26,-2006.32 925.75,-1942.34 959.32,-1914.97 979.38,-1867.66 989.46,-1837.19"/>
<polygon fill="black" stroke="black" points="992.73,-1838.45 992.39,-1827.86 986.05,-1836.36 992.73,-1838.45"/>
</g>
<!-- wasm&#45;store -->
<g id="node59" class="node">
<title>wasm&#45;store</title>
<polygon fill="none" stroke="black" points="623.75,-1933.34 529,-1933.34 529,-1897.34 623.75,-1897.34 623.75,-1933.34"/>
<text text-anchor="middle" x="576.38" y="-1911.04" font-family="sans-serif" font-size="14.00">wasm&#45;store</text>
</g>
<!-- python&#45;&gt;wasm&#45;store -->
<g id="edge111" class="edge">
<title>python&#45;&gt;wasm&#45;store</title>
<path fill="none" stroke="black" d="M91.64,-1755.29C102.2,-1759.43 113.33,-1765.52 121,-1774.34 158.1,-1816.99 112.5,-1861.47 157,-1896.34 211.42,-1938.98 415.86,-1928.75 517.4,-1920.67"/>
<polygon fill="black" stroke="black" points="517.48,-1924.18 527.16,-1919.87 516.91,-1917.2 517.48,-1924.18"/>
</g>
<!-- repl&#45;&gt;arrow -->
<g id="edge112" class="edge">
<title>repl&#45;&gt;arrow</title>
<path fill="none" stroke="black" d="M350.43,-1398.63C383.88,-1400.65 443.27,-1405.51 493,-1416.34 508.08,-1419.62 524.31,-1424.61 538.33,-1429.41"/>
<polygon fill="black" stroke="black" points="537.02,-1432.66 547.62,-1432.67 539.35,-1426.05 537.02,-1432.66"/>
</g>
<!-- repl&#45;&gt;forsp -->
<g id="edge113" class="edge">
<title>repl&#45;&gt;forsp</title>
<path fill="none" stroke="black" d="M350.5,-1387.81C383.78,-1375.75 442.73,-1354.27 493,-1335.34 554.63,-1312.13 625.99,-1284.4 668.32,-1267.86"/>
<polygon fill="black" stroke="black" points="669.49,-1271.16 677.53,-1264.26 666.94,-1264.64 669.49,-1271.16"/>
</g>
<!-- repl&#45;&gt;git -->
<g id="edge114" class="edge">
<title>repl&#45;&gt;git</title>
<path fill="none" stroke="black" d="M343.95,-1415.67C352.17,-1423.76 361.51,-1433.62 369,-1443.34 387.99,-1467.97 384.13,-1480.28 405,-1503.34 407.44,-1506.03 410.13,-1508.64 412.94,-1511.14"/>
<polygon fill="black" stroke="black" points="410.48,-1513.65 420.44,-1517.28 414.92,-1508.24 410.48,-1513.65"/>
</g>
<!-- repl&#45;&gt;graph -->
<g id="edge115" class="edge">
<title>repl&#45;&gt;graph</title>
<path fill="none" stroke="black" d="M329.85,-1415.64C349.58,-1478.72 414.86,-1687.41 438.96,-1764.44"/>
<polygon fill="black" stroke="black" points="435.56,-1765.28 441.88,-1773.78 442.24,-1763.19 435.56,-1765.28"/>
</g>
<!-- repl&#45;&gt;hash -->
<g id="edge116" class="edge">
<title>repl&#45;&gt;hash</title>
<path fill="none" stroke="black" d="M350.59,-1408.28C357,-1411.61 363.56,-1415.66 369,-1420.34 389.76,-1438.19 380.63,-1457.85 405,-1470.34 491.53,-1514.66 536.12,-1512.45 623.75,-1470.34 646.83,-1459.24 639.02,-1440.38 659.75,-1425.34 708.85,-1389.69 777.17,-1369.12 818.99,-1359.09"/>
<polygon fill="black" stroke="black" points="819.62,-1362.54 828.58,-1356.87 818.04,-1355.72 819.62,-1362.54"/>
</g>
<!-- repl&#45;&gt;init -->
<g id="edge117" class="edge">
<title>repl&#45;&gt;init</title>
<path fill="none" stroke="black" d="M331.51,-1378.89C357,-1314.65 442.52,-1094.39 493,-906.34 514.6,-825.86 475.45,-786.18 529,-722.34 563.84,-680.8 627.16,-664.56 667.69,-658.26"/>
<polygon fill="black" stroke="black" points="668.07,-661.74 677.48,-656.88 667.09,-654.81 668.07,-661.74"/>
</g>
<!-- repl&#45;&gt;object -->
<g id="edge118" class="edge">
<title>repl&#45;&gt;object</title>
<path fill="none" stroke="black" d="M340.37,-1379.01C372.84,-1343.42 449.52,-1264.48 529,-1219.34 573.07,-1194.31 629.54,-1178.14 666.55,-1169.4"/>
<polygon fill="black" stroke="black" points="666.94,-1172.9 675.9,-1167.26 665.38,-1166.08 666.94,-1172.9"/>
</g>
<!-- repl&#45;&gt;parquet -->
<g id="edge119" class="edge">
<title>repl&#45;&gt;parquet</title>
<path fill="none" stroke="black" d="M350.4,-1407.09C366.11,-1412.93 386.48,-1420.49 404.54,-1427.2"/>
<polygon fill="black" stroke="black" points="403.13,-1430.41 413.72,-1430.61 405.56,-1423.84 403.13,-1430.41"/>
</g>
<!-- repl&#45;&gt;shell -->
<g id="edge120" class="edge">
<title>repl&#45;&gt;shell</title>
<path fill="none" stroke="black" d="M330.2,-1378.98C339.88,-1349.04 358.75,-1287.66 369,-1234.34 396.25,-1092.49 333.1,-1036.61 405,-911.34 407.12,-907.65 409.85,-904.26 412.9,-901.18"/>
<polygon fill="black" stroke="black" points="415.11,-903.9 420.42,-894.73 410.55,-898.58 415.11,-903.9"/>
</g>
<!-- repl&#45;&gt;wasm -->
<g id="edge121" class="edge">
<title>repl&#45;&gt;wasm</title>
<path fill="none" stroke="black" d="M330.51,-1415.45C356.97,-1487.21 465.82,-1751.84 659.75,-1836.34 697.74,-1852.89 714.26,-1851.06 753,-1836.34 773.01,-1828.73 768.99,-1811.94 789,-1804.34 845.81,-1782.74 865,-1802.65 925.75,-1804.34 936.76,-1804.64 948.71,-1805.21 959.64,-1805.83"/>
<polygon fill="black" stroke="black" points="959.31,-1809.31 969.5,-1806.41 959.73,-1802.33 959.31,-1809.31"/>
</g>
<!-- sat&#45;&gt;parse -->
<g id="edge122" class="edge">
<title>sat&#45;&gt;parse</title>
<path fill="none" stroke="black" d="M884.6,-2051.09C924.14,-2046.21 998.33,-2030.87 1035.5,-1983.34 1101.07,-1899.47 1109.28,-1555.63 1110.26,-1452.02"/>
<polygon fill="black" stroke="black" points="1113.76,-1452.15 1110.33,-1442.12 1106.76,-1452.1 1113.76,-1452.15"/>
</g>
<!-- sat&#45;&gt;types -->
<g id="edge123" class="edge">
<title>sat&#45;&gt;types</title>
<path fill="none" stroke="black" d="M884.86,-2052.99C930.77,-2052.41 1028.12,-2051.34 1110.38,-2051.34 1110.38,-2051.34 1110.38,-2051.34 1215.25,-2051.34 1388.29,-2051.34 1431.96,-629.49 1437.78,-405.02"/>
<polygon fill="black" stroke="black" points="1441.28,-405.19 1438.03,-395.1 1434.28,-405.01 1441.28,-405.19"/>
</g>
<!-- sat&#45;&gt;wasm -->
<g id="edge124" class="edge">
<title>sat&#45;&gt;wasm</title>
<path fill="none" stroke="black" d="M884.8,-2046.28C898.68,-2041.35 915,-2033.44 925.75,-2021.34 973,-1968.15 989.4,-1882.71 994.93,-1837.92"/>
<polygon fill="black" stroke="black" points="998.39,-1838.51 996.03,-1828.18 991.43,-1837.73 998.39,-1838.51"/>
</g>
<!-- serve&#45;&gt;core -->
<g id="edge125" class="edge">
<title>serve&#45;&gt;core</title>
<path fill="none" stroke="black" d="M226.58,-1076.81C232.26,-1072.94 237.63,-1068.13 241.25,-1062.34 308.19,-955.18 215.08,-890.34 277.25,-780.34 359.58,-634.66 758.6,-515.78 789,-505.34 848.13,-485.01 875.84,-509.99 925.75,-472.34 958.42,-447.69 978.48,-403.57 988.84,-374.37"/>
<polygon fill="black" stroke="black" points="992.1,-375.64 991.97,-365.05 985.47,-373.41 992.1,-375.64"/>
</g>
<!-- serve&#45;&gt;git -->
<g id="edge126" class="edge">
<title>serve&#45;&gt;git</title>
<path fill="none" stroke="black" d="M199.74,-1107.57C199.51,-1161.24 205.25,-1321.39 277.25,-1424.34 286.24,-1437.18 364.75,-1485.52 412.12,-1514"/>
<polygon fill="black" stroke="black" points="410.05,-1516.83 420.43,-1518.97 413.65,-1510.83 410.05,-1516.83"/>
</g>
<!-- serve&#45;&gt;hash -->
<g id="edge127" class="edge">
<title>serve&#45;&gt;hash</title>
<path fill="none" stroke="black" d="M226.41,-1094.83C330.03,-1116.65 706.85,-1197.32 753,-1226.34 773.5,-1239.23 813.13,-1291.23 836.92,-1323.97"/>
<polygon fill="black" stroke="black" points="833.89,-1325.75 842.58,-1331.81 839.57,-1321.66 833.89,-1325.75"/>
</g>
<!-- serve&#45;&gt;init -->
<g id="edge128" class="edge">
<title>serve&#45;&gt;init</title>
<path fill="none" stroke="black" d="M226.4,-1076.11C231.94,-1072.31 237.3,-1067.7 241.25,-1062.34 275.75,-1015.42 248.69,-987.09 277.25,-936.34 358.03,-792.78 379.99,-734.55 529,-664.34 573.19,-643.52 630.66,-644.73 667.78,-648.62"/>
<polygon fill="black" stroke="black" points="667.23,-652.08 677.58,-649.78 668.05,-645.13 667.23,-652.08"/>
</g>
<!-- serve&#45;&gt;metamath -->
<g id="edge129" class="edge">
<title>serve&#45;&gt;metamath</title>
<path fill="none" stroke="black" d="M226.47,-1079.47C241.18,-1074.47 259.98,-1068.93 277.25,-1066.34 333.4,-1057.92 348.22,-1065.56 405,-1065.34 444.11,-1065.18 453.91,-1063.99 493,-1065.34 604.93,-1069.18 735.43,-1084.86 805.56,-1094.21"/>
<polygon fill="black" stroke="black" points="804.82,-1097.65 815.2,-1095.51 805.75,-1090.71 804.82,-1097.65"/>
</g>
<!-- serve&#45;&gt;object -->
<g id="edge130" class="edge">
<title>serve&#45;&gt;object</title>
<path fill="none" stroke="black" d="M226.46,-1084.59C294.63,-1073.45 481.45,-1050.25 623.75,-1101.34 642.83,-1108.18 643.45,-1117.29 659.75,-1129.34 662.88,-1131.65 666.15,-1134.02 669.44,-1136.39"/>
<polygon fill="black" stroke="black" points="667.26,-1139.13 677.44,-1142.07 671.32,-1133.42 667.26,-1139.13"/>
</g>
<!-- serve&#45;&gt;proto -->
<g id="edge131" class="edge">
<title>serve&#45;&gt;proto</title>
<path fill="none" stroke="black" d="M226.46,-1074.87C231.74,-1071.22 236.98,-1067 241.25,-1062.34 264.08,-1037.41 254.9,-1020.7 277.25,-995.34 280.16,-992.04 283.46,-988.89 286.94,-985.95"/>
<polygon fill="black" stroke="black" points="288.82,-988.92 294.57,-980.02 284.53,-983.39 288.82,-988.92"/>
</g>
<!-- serve&#45;&gt;repl -->
<g id="edge132" class="edge">
<title>serve&#45;&gt;repl</title>
<path fill="none" stroke="black" d="M207.39,-1107.68C227.82,-1159.25 285.87,-1305.82 310.67,-1368.42"/>
<polygon fill="black" stroke="black" points="307.4,-1369.67 314.34,-1377.68 313.91,-1367.09 307.4,-1369.67"/>
</g>
<!-- serve&#45;&gt;shell -->
<g id="edge133" class="edge">
<title>serve&#45;&gt;shell</title>
<path fill="none" stroke="black" d="M226.49,-1072.57C231.45,-1069.26 236.56,-1065.76 241.25,-1062.34 257.86,-1050.24 259.82,-1044.22 277.25,-1033.34 315.45,-1009.48 337.33,-1022.35 369,-990.34 396.14,-962.91 380.76,-941.35 405,-911.34 407.34,-908.44 410,-905.67 412.82,-903.05"/>
<polygon fill="black" stroke="black" points="415.02,-905.77 420.44,-896.67 410.53,-900.4 415.02,-905.77"/>
</g>
<!-- serve&#45;&gt;store -->
<g id="edge134" class="edge">
<title>serve&#45;&gt;store</title>
<path fill="none" stroke="black" d="M199.87,-1107.78C199.87,-1165.36 205.93,-1345.33 277.25,-1469.34 351.92,-1599.16 399.98,-1617.29 529,-1693.34 573.6,-1719.62 631.09,-1737.22 668.1,-1746.75"/>
<polygon fill="black" stroke="black" points="666.87,-1750.05 677.42,-1749.09 668.57,-1743.26 666.87,-1750.05"/>
</g>
<!-- sexp&#45;&gt;parse -->
<g id="edge135" class="edge">
<title>sexp&#45;&gt;parse</title>
<path fill="none" stroke="black" d="M1004.46,-1016.83C1021.88,-1083.52 1081.56,-1312.03 1102.8,-1393.33"/>
<polygon fill="black" stroke="black" points="1099.35,-1393.97 1105.26,-1402.76 1106.12,-1392.2 1099.35,-1393.97"/>
</g>
<!-- shell&#45;&gt;hol -->
<g id="edge136" class="edge">
<title>shell&#45;&gt;hol</title>
<path fill="none" stroke="black" d="M454.16,-860.92C462.99,-824.92 486.39,-743.99 529,-689.34 572.17,-633.96 744.57,-518.17 820.34,-468.63"/>
<polygon fill="black" stroke="black" points="822.21,-471.59 828.67,-463.2 818.39,-465.73 822.21,-471.59"/>
</g>
<!-- shell&#45;&gt;kernel -->
<g id="edge137" class="edge">
<title>shell&#45;&gt;kernel</title>
<path fill="none" stroke="black" d="M476.28,-887.3C493.69,-892.58 516.83,-899.59 536.37,-905.51"/>
<polygon fill="black" stroke="black" points="535.35,-908.86 545.94,-908.41 537.38,-902.16 535.35,-908.86"/>
</g>
<!-- smt&#45;&gt;sat -->
<g id="edge138" class="edge">
<title>smt&#45;&gt;sat</title>
<path fill="none" stroke="black" d="M710.35,-805.71C718.58,-857.33 741.8,-1008.14 753,-1134.34 768.29,-1306.73 746.85,-1744.47 789,-1912.34 799.43,-1953.87 822.61,-1997.79 838.85,-2025.36"/>
<polygon fill="black" stroke="black" points="835.77,-2027.02 843.92,-2033.79 841.77,-2023.42 835.77,-2027.02"/>
</g>
<!-- smt&#45;&gt;sexp -->
<g id="edge139" class="edge">
<title>smt&#45;&gt;sexp</title>
<path fill="none" stroke="black" d="M732.76,-805.62C739.71,-811.22 746.99,-817.67 753,-824.34 772.58,-846.02 766,-861.32 789,-879.34 839.71,-919.05 871.12,-893.21 925.75,-927.34 944.78,-939.22 962.73,-956.95 975.94,-971.72"/>
<polygon fill="black" stroke="black" points="972.94,-973.61 982.14,-978.87 978.23,-969.02 972.94,-973.61"/>
</g>
<!-- smt&#45;&gt;types -->
<g id="edge140" class="edge">
<title>smt&#45;&gt;types</title>
<path fill="none" stroke="black" d="M733.77,-785.21C784.73,-781.29 900.26,-773.34 997.62,-773.34 997.62,-773.34 997.62,-773.34 1215.25,-773.34 1287.71,-773.34 1324.84,-800.14 1376.5,-749.34 1425.26,-701.38 1435.71,-484.79 1437.92,-404.98"/>
<polygon fill="black" stroke="black" points="1441.41,-405.41 1438.16,-395.33 1434.41,-405.24 1441.41,-405.41"/>
</g>
<!-- spectec&#45;&gt;grammar -->
<g id="edge141" class="edge">
<title>spectec&#45;&gt;grammar</title>
<path fill="none" stroke="black" d="M892.44,-645.71C909.86,-642.83 931.33,-639.28 950.33,-636.15"/>
<polygon fill="black" stroke="black" points="950.69,-639.64 959.99,-634.55 949.55,-632.73 950.69,-639.64"/>
</g>
<!-- store&#45;&gt;hash -->
<g id="edge142" class="edge">
<title>store&#45;&gt;hash</title>
<path fill="none" stroke="black" d="M716.69,-1737.14C726.76,-1716.88 742.75,-1682.93 753,-1652.34 775.33,-1585.69 766.24,-1564.84 789,-1498.34 803.65,-1455.52 826.57,-1408.34 841.53,-1379.26"/>
<polygon fill="black" stroke="black" points="844.44,-1381.24 845.95,-1370.76 838.23,-1378.01 844.44,-1381.24"/>
</g>
<!-- store&#45;&gt;json -->
<g id="edge143" class="edge">
<title>store&#45;&gt;json</title>
<path fill="none" stroke="black" d="M733.48,-1767.23C740.45,-1771.29 747.54,-1776.35 753,-1782.34 778.19,-1809.95 761.77,-1832.73 789,-1858.34 797.54,-1866.36 808.76,-1872.12 819.6,-1876.2"/>
<polygon fill="black" stroke="black" points="818.16,-1879.41 828.75,-1879.26 820.38,-1872.77 818.16,-1879.41"/>
</g>
<!-- store&#45;&gt;sqlite -->
<g id="edge144" class="edge">
<title>store&#45;&gt;sqlite</title>
<path fill="none" stroke="black" d="M733.67,-1752.51C757.32,-1749.97 792.33,-1746.21 818.91,-1743.36"/>
<polygon fill="black" stroke="black" points="819.02,-1746.87 828.59,-1742.32 818.27,-1739.91 819.02,-1746.87"/>
</g>
<!-- tcb&#45;db -->
<g id="node54" class="node">
<title>tcb&#45;db</title>
<polygon fill="none" stroke="black" points="736.5,-1827.34 676.25,-1827.34 676.25,-1791.34 736.5,-1791.34 736.5,-1827.34"/>
<text text-anchor="middle" x="706.38" y="-1805.04" font-family="sans-serif" font-size="14.00">tcb&#45;db</text>
</g>
<!-- tcb&#45;db&#45;&gt;json -->
<g id="edge145" class="edge">
<title>tcb&#45;db&#45;&gt;json</title>
<path fill="none" stroke="black" d="M735.46,-1827.71C750.92,-1837.44 770.64,-1849.22 789,-1858.34 798.7,-1863.15 809.48,-1867.78 819.52,-1871.79"/>
<polygon fill="black" stroke="black" points="818.04,-1874.97 828.62,-1875.35 820.58,-1868.45 818.04,-1874.97"/>
</g>
<!-- tcb&#45;db&#45;&gt;sqlite -->
<g id="edge146" class="edge">
<title>tcb&#45;db&#45;&gt;sqlite</title>
<path fill="none" stroke="black" d="M736.81,-1795.51C760.56,-1784.35 794.09,-1768.6 819.6,-1756.61"/>
<polygon fill="black" stroke="black" points="821.06,-1759.79 828.62,-1752.37 818.09,-1753.46 821.06,-1759.79"/>
</g>
<!-- wasm&#45;build&#45;guest -->
<g id="node57" class="node">
<title>wasm&#45;build&#45;guest</title>
<polygon fill="none" stroke="black" points="925.75,-1849.34 789,-1849.34 789,-1813.34 925.75,-1813.34 925.75,-1849.34"/>
<text text-anchor="middle" x="857.38" y="-1827.04" font-family="sans-serif" font-size="14.00">wasm&#45;build&#45;guest</text>
</g>
<!-- wasm&#45;build&#45;guest&#45;&gt;wasm -->
<g id="edge147" class="edge">
<title>wasm&#45;build&#45;guest&#45;&gt;wasm</title>
<path fill="none" stroke="black" d="M925.96,-1820.17C937.64,-1818.24 949.4,-1816.3 959.92,-1814.56"/>
<polygon fill="black" stroke="black" points="960.4,-1818.03 969.7,-1812.95 959.26,-1811.12 960.4,-1818.03"/>
</g>
<!-- wasm&#45;spec -->
<g id="node58" class="node">
<title>wasm&#45;spec</title>
<polygon fill="none" stroke="black" points="753,-1643.34 659.75,-1643.34 659.75,-1607.34 753,-1607.34 753,-1643.34"/>
<text text-anchor="middle" x="706.38" y="-1621.04" font-family="sans-serif" font-size="14.00">wasm&#45;spec</text>
</g>
<!-- wasm&#45;spec&#45;&gt;hash -->
<g id="edge148" class="edge">
<title>wasm&#45;spec&#45;&gt;hash</title>
<path fill="none" stroke="black" d="M744.11,-1606.87C747.38,-1604.3 750.42,-1601.46 753,-1598.34 783.1,-1561.93 771.14,-1542.07 789,-1498.34 806.03,-1456.62 828.19,-1409.43 842.35,-1380.03"/>
<polygon fill="black" stroke="black" points="845.5,-1381.57 846.7,-1371.04 839.19,-1378.52 845.5,-1381.57"/>
</g>
<!-- wasm&#45;spec&#45;&gt;wasm -->
<g id="edge149" class="edge">
<title>wasm&#45;spec&#45;&gt;wasm</title>
<path fill="none" stroke="black" d="M753.44,-1620.22C801.17,-1617.43 875.66,-1620.35 925.75,-1657.34 965.62,-1686.77 984.28,-1744.09 992.28,-1779.02"/>
<polygon fill="black" stroke="black" points="988.79,-1779.4 994.29,-1788.45 995.63,-1777.94 988.79,-1779.4"/>
</g>
<!-- wasm&#45;store&#45;&gt;json -->
<g id="edge150" class="edge">
<title>wasm&#45;store&#45;&gt;json</title>
<path fill="none" stroke="black" d="M624.07,-1910.31C678.79,-1904.43 768.37,-1894.8 818.8,-1889.38"/>
<polygon fill="black" stroke="black" points="819.07,-1892.87 828.64,-1888.32 818.32,-1885.91 819.07,-1892.87"/>
</g>
<!-- wasm&#45;store&#45;&gt;store -->
<g id="edge151" class="edge">
<title>wasm&#45;store&#45;&gt;store</title>
<path fill="none" stroke="black" d="M609.6,-1897.08C614.83,-1893.06 619.82,-1888.46 623.75,-1883.34 652.76,-1845.53 629.44,-1819.11 659.75,-1782.34 662.63,-1778.84 666.09,-1775.69 669.8,-1772.88"/>
<polygon fill="black" stroke="black" points="671.65,-1775.86 678.08,-1767.44 667.81,-1770.01 671.65,-1775.86"/>
</g>
<!-- wasm&#45;store&#45;&gt;wasm -->
<g id="edge152" class="edge">
<title>wasm&#45;store&#45;&gt;wasm</title>
<path fill="none" stroke="black" d="M624.13,-1927.89C694.31,-1944.01 828.98,-1964.17 925.75,-1912.34 955.58,-1896.36 975.55,-1861.9 986.72,-1837.02"/>
<polygon fill="black" stroke="black" points="989.82,-1838.66 990.51,-1828.09 983.38,-1835.93 989.82,-1838.66"/>
</g>
<!-- web&#45;kernel -->
<g id="node60" class="node">
<title>web&#45;kernel</title>
<polygon fill="none" stroke="black" points="369,-251.34 277.25,-251.34 277.25,-215.34 369,-215.34 369,-251.34"/>
<text text-anchor="middle" x="323.12" y="-229.04" font-family="sans-serif" font-size="14.00">web&#45;kernel</text>
</g>
<!-- web&#45;kernel&#45;&gt;haskell -->
<g id="edge153" class="edge">
<title>web&#45;kernel&#45;&gt;haskell</title>
<path fill="none" stroke="black" d="M369.2,-216.6C381.48,-212.04 394.73,-207.12 406.79,-202.64"/>
<polygon fill="black" stroke="black" points="407.9,-205.96 416.05,-199.2 405.46,-199.4 407.9,-205.96"/>
</g>
<!-- web&#45;kernel&#45;&gt;hol&#45;api -->
<g id="edge154" class="edge">
<title>web&#45;kernel&#45;&gt;hol&#45;api</title>
<path fill="none" stroke="black" d="M369.33,-228.84C415.99,-224.19 488.18,-217.01 533.56,-212.5"/>
<polygon fill="black" stroke="black" points="533.65,-216 543.26,-211.53 532.96,-209.04 533.65,-216"/>
</g>
<!-- web&#45;kernel&#45;&gt;kernel -->
<g id="edge155" class="edge">
<title>web&#45;kernel&#45;&gt;kernel</title>
<path fill="none" stroke="black" d="M330.08,-251.41C353.72,-322.8 443.77,-591.95 529,-809.34 539.66,-836.51 552.89,-867.04 562.48,-888.69"/>
<polygon fill="black" stroke="black" points="559.25,-890.05 566.52,-897.76 565.65,-887.2 559.25,-890.05"/>
</g>
</g>
</svg>
