<?xml version="1.0" encoding="UTF-8" standalone="no"?>
<!DOCTYPE svg PUBLIC "-//W3C//DTD SVG 1.1//EN"
 "http://www.w3.org/Graphics/SVG/1.1/DTD/svg11.dtd">
<!-- Generated by graphviz version 12.2.1 (0)
 -->
<!-- Title: deps Pages: 1 -->
<svg width="1484pt" height="1886pt"
 viewBox="0.00 0.00 1484.25 1886.00" xmlns="http://www.w3.org/2000/svg" xmlns:xlink="http://www.w3.org/1999/xlink">
<g id="graph0" class="graph" transform="scale(1 1) rotate(0) translate(4 1882)">
<title>deps</title>
<polygon fill="white" stroke="none" points="-4,4 -4,-1882 1480.25,-1882 1480.25,4 -4,4"/>
<!-- covalence -->
<g id="node1" class="node">
<title>covalence</title>
<polygon fill="none" stroke="black" points="102.62,-598 18.38,-598 18.38,-562 102.62,-562 102.62,-598"/>
<text text-anchor="middle" x="60.5" y="-575.7" font-family="sans-serif" font-size="14.00">covalence</text>
</g>
<!-- client -->
<g id="node5" class="node">
<title>client</title>
<polygon fill="none" stroke="black" points="349.75,-796 295.75,-796 295.75,-760 349.75,-760 349.75,-796"/>
<text text-anchor="middle" x="322.75" y="-773.7" font-family="sans-serif" font-size="14.00">client</text>
</g>
<!-- covalence&#45;&gt;client -->
<g id="edge1" class="edge">
<title>covalence&#45;&gt;client</title>
<path fill="none" stroke="black" d="M84.69,-561.62C121.22,-535.06 192.94,-492.8 241.25,-528 312,-579.55 321.91,-694.38 322.44,-748.59"/>
<polygon fill="black" stroke="black" points="318.94,-748.27 322.42,-758.28 325.94,-748.28 318.94,-748.27"/>
</g>
<!-- fuse -->
<g id="node11" class="node">
<title>fuse</title>
<polygon fill="none" stroke="black" points="606.38,-1430 552.38,-1430 552.38,-1394 606.38,-1394 606.38,-1430"/>
<text text-anchor="middle" x="579.38" y="-1407.7" font-family="sans-serif" font-size="14.00">fuse</text>
</g>
<!-- covalence&#45;&gt;fuse -->
<g id="edge2" class="edge">
<title>covalence&#45;&gt;fuse</title>
<path fill="none" stroke="black" d="M61.8,-598.36C63.72,-695.58 76.93,-1150 157,-1260 248.81,-1386.13 455.47,-1407.92 540.61,-1411.45"/>
<polygon fill="black" stroke="black" points="540.41,-1414.94 550.52,-1411.79 540.65,-1407.94 540.41,-1414.94"/>
</g>
<!-- git -->
<g id="node12" class="node">
<title>git</title>
<polygon fill="none" stroke="black" points="477.12,-1262 423.12,-1262 423.12,-1226 477.12,-1226 477.12,-1262"/>
<text text-anchor="middle" x="450.12" y="-1239.7" font-family="sans-serif" font-size="14.00">git</text>
</g>
<!-- covalence&#45;&gt;git -->
<g id="edge3" class="edge">
<title>covalence&#45;&gt;git</title>
<path fill="none" stroke="black" d="M61.87,-598.16C63.84,-660.12 76.43,-867.4 157,-1012 216.87,-1119.45 348.69,-1195.16 412.75,-1227.09"/>
<polygon fill="black" stroke="black" points="410.92,-1230.09 421.44,-1231.34 414,-1223.8 410.92,-1230.09"/>
</g>
<!-- hash -->
<g id="node15" class="node">
<title>hash</title>
<polygon fill="none" stroke="black" points="887.38,-1308 833.38,-1308 833.38,-1272 887.38,-1272 887.38,-1308"/>
<text text-anchor="middle" x="860.38" y="-1285.7" font-family="sans-serif" font-size="14.00">hash</text>
</g>
<!-- covalence&#45;&gt;hash -->
<g id="edge4" class="edge">
<title>covalence&#45;&gt;hash</title>
<path fill="none" stroke="black" d="M61.03,-598.05C60.02,-665.68 63.45,-908.78 157,-1076 159.92,-1081.21 402.72,-1300.21 404.25,-1301 543.63,-1372.82 601.74,-1356.07 756,-1328 778.75,-1323.86 803.08,-1315.15 822.41,-1307.11"/>
<polygon fill="black" stroke="black" points="823.68,-1310.38 831.49,-1303.22 820.92,-1303.94 823.68,-1310.38"/>
</g>
<!-- hol -->
<g id="node16" class="node">
<title>hol</title>
<polygon fill="none" stroke="black" points="887.38,-124 833.38,-124 833.38,-88 887.38,-88 887.38,-124"/>
<text text-anchor="middle" x="860.38" y="-101.7" font-family="sans-serif" font-size="14.00">hol</text>
</g>
<!-- covalence&#45;&gt;hol -->
<g id="edge5" class="edge">
<title>covalence&#45;&gt;hol</title>
<path fill="none" stroke="black" d="M61.14,-561.68C60.21,-463.1 69.29,0 321.75,0 321.75,0 321.75,0 580.38,0 672.67,0 771.6,-51.32 823.25,-82.54"/>
<polygon fill="black" stroke="black" points="821.29,-85.45 831.65,-87.7 824.96,-79.48 821.29,-85.45"/>
</g>
<!-- lsp -->
<g id="node23" class="node">
<title>lsp</title>
<polygon fill="none" stroke="black" points="887.38,-612 833.38,-612 833.38,-576 887.38,-576 887.38,-612"/>
<text text-anchor="middle" x="860.38" y="-589.7" font-family="sans-serif" font-size="14.00">lsp</text>
</g>
<!-- covalence&#45;&gt;lsp -->
<g id="edge6" class="edge">
<title>covalence&#45;&gt;lsp</title>
<path fill="none" stroke="black" d="M65.62,-561.75C74.84,-525.79 100.88,-446.46 157,-414 238.27,-366.99 274.72,-405.74 368.25,-414 545.76,-429.67 613.81,-408.59 756,-516 776.16,-531.23 772.29,-544.19 792,-560 801.2,-567.38 812.25,-573.77 822.73,-578.96"/>
<polygon fill="black" stroke="black" points="821.01,-582.02 831.55,-583.1 823.98,-575.68 821.01,-582.02"/>
</g>
<!-- object -->
<g id="node26" class="node">
<title>object</title>
<polygon fill="none" stroke="black" points="738,-1476 680.75,-1476 680.75,-1440 738,-1440 738,-1476"/>
<text text-anchor="middle" x="709.38" y="-1453.7" font-family="sans-serif" font-size="14.00">object</text>
</g>
<!-- covalence&#45;&gt;object -->
<g id="edge7" class="edge">
<title>covalence&#45;&gt;object</title>
<path fill="none" stroke="black" d="M61.73,-598.29C63.33,-699.33 75.23,-1189.19 157,-1311 261.93,-1467.31 347.74,-1469.39 532,-1508 573.22,-1516.64 586.22,-1519.43 626.75,-1508 644.73,-1502.93 662.65,-1492.68 677.1,-1482.77"/>
<polygon fill="black" stroke="black" points="678.73,-1485.9 684.83,-1477.24 674.66,-1480.21 678.73,-1485.9"/>
</g>
<!-- opentheory -->
<g id="node27" class="node">
<title>opentheory</title>
<polygon fill="none" stroke="black" points="368.25,-228 277.25,-228 277.25,-192 368.25,-192 368.25,-228"/>
<text text-anchor="middle" x="322.75" y="-205.7" font-family="sans-serif" font-size="14.00">opentheory</text>
</g>
<!-- covalence&#45;&gt;opentheory -->
<g id="edge8" class="edge">
<title>covalence&#45;&gt;opentheory</title>
<path fill="none" stroke="black" d="M67.64,-561.71C80.61,-524.6 113.22,-438.67 157,-376 196.01,-320.15 254.65,-266.2 290.44,-235.66"/>
<polygon fill="black" stroke="black" points="292.48,-238.51 297.86,-229.38 287.96,-233.16 292.48,-238.51"/>
</g>
<!-- proto -->
<g id="node30" class="node">
<title>proto</title>
<polygon fill="none" stroke="black" points="349.75,-888 295.75,-888 295.75,-852 349.75,-852 349.75,-888"/>
<text text-anchor="middle" x="322.75" y="-865.7" font-family="sans-serif" font-size="14.00">proto</text>
</g>
<!-- covalence&#45;&gt;proto -->
<g id="edge9" class="edge">
<title>covalence&#45;&gt;proto</title>
<path fill="none" stroke="black" d="M74.25,-598.22C105.64,-642.36 190.43,-757.3 277.25,-838 280.13,-840.67 283.23,-843.31 286.41,-845.87"/>
<polygon fill="black" stroke="black" points="284.2,-848.58 294.27,-851.85 288.44,-843.01 284.2,-848.58"/>
</g>
<!-- repl -->
<g id="node36" class="node">
<title>repl</title>
<polygon fill="none" stroke="black" points="349.75,-1056 295.75,-1056 295.75,-1020 349.75,-1020 349.75,-1056"/>
<text text-anchor="middle" x="322.75" y="-1033.7" font-family="sans-serif" font-size="14.00">repl</text>
</g>
<!-- covalence&#45;&gt;repl -->
<g id="edge10" class="edge">
<title>covalence&#45;&gt;repl</title>
<path fill="none" stroke="black" d="M63.67,-598.2C72.28,-667.77 106.12,-915.88 157,-974 189.69,-1011.35 246.85,-1027.05 284.5,-1033.55"/>
<polygon fill="black" stroke="black" points="283.6,-1036.95 294.02,-1035.05 284.69,-1030.04 283.6,-1036.95"/>
</g>
<!-- serve -->
<g id="node38" class="node">
<title>serve</title>
<polygon fill="none" stroke="black" points="226.12,-965 172.12,-965 172.12,-929 226.12,-929 226.12,-965"/>
<text text-anchor="middle" x="199.12" y="-942.7" font-family="sans-serif" font-size="14.00">serve</text>
</g>
<!-- covalence&#45;&gt;serve -->
<g id="edge11" class="edge">
<title>covalence&#45;&gt;serve</title>
<path fill="none" stroke="black" d="M63.07,-598.43C68.3,-651.3 88.89,-806.41 157,-912 158.98,-915.07 161.31,-918.02 163.84,-920.81"/>
<polygon fill="black" stroke="black" points="161.2,-923.12 170.8,-927.62 166.1,-918.12 161.2,-923.12"/>
</g>
<!-- shell -->
<g id="node40" class="node">
<title>shell</title>
<polygon fill="none" stroke="black" points="477.12,-644 423.12,-644 423.12,-608 477.12,-608 477.12,-644"/>
<text text-anchor="middle" x="450.12" y="-621.7" font-family="sans-serif" font-size="14.00">shell</text>
</g>
<!-- covalence&#45;&gt;shell -->
<g id="edge12" class="edge">
<title>covalence&#45;&gt;shell</title>
<path fill="none" stroke="black" d="M79.25,-561.78C97.08,-544.9 126.25,-520.95 157,-511 192.63,-499.48 204.99,-501.64 241.25,-511 308.72,-528.42 377.68,-572.94 416.77,-601.2"/>
<polygon fill="black" stroke="black" points="414.23,-603.67 424.36,-606.76 418.37,-598.03 414.23,-603.67"/>
</g>
<!-- store -->
<g id="node44" class="node">
<title>store</title>
<polygon fill="none" stroke="black" points="736.38,-980 682.38,-980 682.38,-944 736.38,-944 736.38,-980"/>
<text text-anchor="middle" x="709.38" y="-957.7" font-family="sans-serif" font-size="14.00">store</text>
</g>
<!-- covalence&#45;&gt;store -->
<g id="edge13" class="edge">
<title>covalence&#45;&gt;store</title>
<path fill="none" stroke="black" d="M100.84,-598.48C141.3,-619.33 203.57,-656.85 241.25,-706 269.74,-743.16 244.93,-771.13 277.25,-805 307.51,-836.71 332.96,-817.01 368.25,-843 388.32,-857.78 383.12,-872.77 404.25,-886 448.93,-913.97 600.13,-943.13 671.06,-955.66"/>
<polygon fill="black" stroke="black" points="670.19,-959.06 680.64,-957.33 671.39,-952.16 670.19,-959.06"/>
</g>
<!-- wasm -->
<g id="node46" class="node">
<title>wasm</title>
<polygon fill="none" stroke="black" points="1032.12,-954 977.88,-954 977.88,-918 1032.12,-918 1032.12,-954"/>
<text text-anchor="middle" x="1005" y="-931.7" font-family="sans-serif" font-size="14.00">wasm</text>
</g>
<!-- covalence&#45;&gt;wasm -->
<g id="edge14" class="edge">
<title>covalence&#45;&gt;wasm</title>
<path fill="none" stroke="black" d="M76.05,-561.62C93.02,-541.8 123.12,-511.43 157,-499 245.58,-466.5 278.96,-489.5 368.25,-520 553.52,-583.28 627.76,-581.08 756,-729 786.39,-764.06 757.89,-795.54 792,-827 838.37,-869.76 873.81,-834 928.75,-865 939.71,-871.18 961.2,-891.86 978.42,-909.31"/>
<polygon fill="black" stroke="black" points="975.92,-911.76 985.41,-916.46 980.93,-906.86 975.92,-911.76"/>
</g>
<!-- acset -->
<g id="node2" class="node">
<title>acset</title>
<polygon fill="none" stroke="black" points="887.38,-1878 833.38,-1878 833.38,-1842 887.38,-1842 887.38,-1878"/>
<text text-anchor="middle" x="860.38" y="-1855.7" font-family="sans-serif" font-size="14.00">acset</text>
</g>
<!-- alethe -->
<g id="node3" class="node">
<title>alethe</title>
<polygon fill="none" stroke="black" points="607.62,-246 551.12,-246 551.12,-210 607.62,-210 607.62,-246"/>
<text text-anchor="middle" x="579.38" y="-223.7" font-family="sans-serif" font-size="14.00">alethe</text>
</g>
<!-- core -->
<g id="node6" class="node">
<title>core</title>
<polygon fill="#ffd6d6" stroke="black" points="1032,-238 978,-238 978,-202 1032,-202 1032,-238"/>
<text text-anchor="middle" x="1005" y="-215.7" font-family="sans-serif" font-size="14.00">core</text>
</g>
<!-- alethe&#45;&gt;core -->
<g id="edge15" class="edge">
<title>alethe&#45;&gt;core</title>
<path fill="none" stroke="black" d="M608.06,-222.1C623.98,-219.01 644.39,-215.55 662.75,-214 780.55,-204.06 810.62,-209.3 928.75,-214 940.93,-214.48 954.19,-215.41 966.14,-216.39"/>
<polygon fill="black" stroke="black" points="965.79,-219.87 976.06,-217.24 966.39,-212.9 965.79,-219.87"/>
</g>
<!-- init -->
<g id="node17" class="node">
<title>init</title>
<polygon fill="none" stroke="black" points="736.38,-436 682.38,-436 682.38,-400 736.38,-400 736.38,-436"/>
<text text-anchor="middle" x="709.38" y="-413.7" font-family="sans-serif" font-size="14.00">init</text>
</g>
<!-- alethe&#45;&gt;init -->
<g id="edge16" class="edge">
<title>alethe&#45;&gt;init</title>
<path fill="none" stroke="black" d="M592.65,-246.22C615.15,-279.61 663.11,-350.81 689.68,-390.26"/>
<polygon fill="black" stroke="black" points="686.62,-391.96 695.11,-398.3 692.42,-388.05 686.62,-391.96"/>
</g>
<!-- sexp -->
<g id="node39" class="node">
<title>sexp</title>
<polygon fill="#ffd6d6" stroke="black" points="1148.12,-604 1094.12,-604 1094.12,-568 1148.12,-568 1148.12,-604"/>
<text text-anchor="middle" x="1121.12" y="-581.7" font-family="sans-serif" font-size="14.00">sexp</text>
</g>
<!-- alethe&#45;&gt;sexp -->
<g id="edge17" class="edge">
<title>alethe&#45;&gt;sexp</title>
<path fill="none" stroke="black" d="M607.88,-226.77C689.5,-224.79 931.62,-231.19 1045.25,-368 1091.86,-424.12 1110.05,-510.85 1116.67,-556.14"/>
<polygon fill="black" stroke="black" points="1113.19,-556.56 1118.01,-566 1120.13,-555.62 1113.19,-556.56"/>
</g>
<!-- smt -->
<g id="node41" class="node">
<title>smt</title>
<polygon fill="none" stroke="black" points="736.38,-307 682.38,-307 682.38,-271 736.38,-271 736.38,-307"/>
<text text-anchor="middle" x="709.38" y="-284.7" font-family="sans-serif" font-size="14.00">smt</text>
</g>
<!-- alethe&#45;&gt;smt -->
<g id="edge18" class="edge">
<title>alethe&#45;&gt;smt</title>
<path fill="none" stroke="black" d="M607.83,-241.09C626.6,-250.03 651.67,-261.98 672.08,-271.7"/>
<polygon fill="black" stroke="black" points="670.37,-274.77 680.91,-275.91 673.38,-268.45 670.37,-274.77"/>
</g>
<!-- types -->
<g id="node45" class="node">
<title>types</title>
<polygon fill="#ffd6d6" stroke="black" points="1476.25,-283 1422.25,-283 1422.25,-247 1476.25,-247 1476.25,-283"/>
<text text-anchor="middle" x="1449.25" y="-260.7" font-family="sans-serif" font-size="14.00">types</text>
</g>
<!-- alethe&#45;&gt;types -->
<g id="edge19" class="edge">
<title>alethe&#45;&gt;types</title>
<path fill="none" stroke="black" d="M608.08,-218.42C687.03,-191.98 920.4,-120 1120.12,-120 1120.12,-120 1120.12,-120 1225,-120 1298.24,-120 1327.27,-110.58 1386.25,-154 1413.69,-174.2 1430.58,-210.4 1439.67,-235.95"/>
<polygon fill="black" stroke="black" points="1436.34,-237.04 1442.82,-245.42 1442.98,-234.82 1436.34,-237.04"/>
</g>
<!-- arrow -->
<g id="node4" class="node">
<title>arrow</title>
<polygon fill="none" stroke="black" points="606.38,-1056 552.38,-1056 552.38,-1020 606.38,-1020 606.38,-1056"/>
<text text-anchor="middle" x="579.38" y="-1033.7" font-family="sans-serif" font-size="14.00">arrow</text>
</g>
<!-- client&#45;&gt;hash -->
<g id="edge20" class="edge">
<title>client&#45;&gt;hash</title>
<path fill="none" stroke="black" d="M339.58,-796.35C349.39,-808.72 361.39,-825.86 368.25,-843 405.38,-935.8 359.1,-975.82 404.25,-1065 440.84,-1137.27 462.11,-1154.05 532,-1195 576.51,-1221.08 706.59,-1241.16 756,-1256 778.19,-1262.66 802.84,-1270.74 822.5,-1277.36"/>
<polygon fill="black" stroke="black" points="821.12,-1280.59 831.72,-1280.47 823.36,-1273.95 821.12,-1280.59"/>
</g>
<!-- client&#45;&gt;shell -->
<g id="edge21" class="edge">
<title>client&#45;&gt;shell</title>
<path fill="none" stroke="black" d="M349.85,-762.91C356.5,-758.15 363.18,-752.43 368.25,-746 394.42,-712.82 378.01,-691.13 404.25,-658 407.04,-654.47 410.33,-651.16 413.82,-648.1"/>
<polygon fill="black" stroke="black" points="415.9,-650.92 421.61,-641.99 411.58,-645.41 415.9,-650.92"/>
</g>
<!-- client&#45;&gt;store -->
<g id="edge22" class="edge">
<title>client&#45;&gt;store</title>
<path fill="none" stroke="black" d="M349.79,-794.65C356.15,-799.25 362.7,-804.51 368.25,-810 387.46,-829.01 381.41,-844.55 404.25,-859 489.37,-912.84 534.48,-861.63 626.75,-902 646.1,-910.46 665.25,-924.19 680.14,-936.38"/>
<polygon fill="black" stroke="black" points="677.77,-938.95 687.67,-942.73 682.28,-933.6 677.77,-938.95"/>
</g>
<!-- pure -->
<g id="node31" class="node">
<title>pure</title>
<polygon fill="#ffd6d6" stroke="black" points="1251,-260 1197,-260 1197,-224 1251,-224 1251,-260"/>
<text text-anchor="middle" x="1224" y="-237.7" font-family="sans-serif" font-size="14.00">pure</text>
</g>
<!-- core&#45;&gt;pure -->
<g id="edge23" class="edge">
<title>core&#45;&gt;pure</title>
<path fill="none" stroke="black" d="M1032.18,-222.65C1070.38,-226.53 1141.62,-233.75 1185.42,-238.19"/>
<polygon fill="black" stroke="black" points="1184.92,-241.66 1195.23,-239.18 1185.63,-234.69 1184.92,-241.66"/>
</g>
<!-- pure&#45;eval -->
<g id="node32" class="node">
<title>pure&#45;eval</title>
<polygon fill="#ffd6d6" stroke="black" points="1161,-298 1081.25,-298 1081.25,-262 1161,-262 1161,-298"/>
<text text-anchor="middle" x="1121.12" y="-275.7" font-family="sans-serif" font-size="14.00">pure&#45;eval</text>
</g>
<!-- core&#45;&gt;pure&#45;eval -->
<g id="edge24" class="edge">
<title>core&#45;&gt;pure&#45;eval</title>
<path fill="none" stroke="black" d="M1032.47,-233.92C1045.2,-240.61 1060.82,-248.82 1075.33,-256.45"/>
<polygon fill="black" stroke="black" points="1073.33,-259.35 1083.81,-260.91 1076.58,-253.15 1073.33,-259.35"/>
</g>
<!-- core&#45;&gt;sexp -->
<g id="edge25" class="edge">
<title>core&#45;&gt;sexp</title>
<path fill="none" stroke="black" d="M1018.06,-238.35C1026.65,-252.09 1037.92,-271.62 1045.25,-290 1082.76,-384.07 1105.98,-502.59 1115.35,-556.67"/>
<polygon fill="black" stroke="black" points="1111.87,-557.04 1116.99,-566.31 1118.77,-555.86 1111.87,-557.04"/>
</g>
<!-- core&#45;&gt;types -->
<g id="edge26" class="edge">
<title>core&#45;&gt;types</title>
<path fill="none" stroke="black" d="M1032.36,-213.61C1095.63,-199.53 1260.18,-170.5 1386.25,-215 1400.21,-219.93 1413.33,-229.47 1423.88,-238.92"/>
<polygon fill="black" stroke="black" points="1421.34,-241.33 1431,-245.68 1426.16,-236.25 1421.34,-241.33"/>
</g>
<!-- core&#45;test&#45;guest -->
<g id="node7" class="node">
<title>core&#45;test&#45;guest</title>
<polygon fill="none" stroke="black" points="121,-1470 0,-1470 0,-1434 121,-1434 121,-1470"/>
<text text-anchor="middle" x="60.5" y="-1447.7" font-family="sans-serif" font-size="14.00">core&#45;test&#45;guest</text>
</g>
<!-- crypto&#45;sig -->
<g id="node8" class="node">
<title>crypto&#45;sig</title>
<polygon fill="none" stroke="black" points="241.25,-1538 157,-1538 157,-1502 241.25,-1502 241.25,-1538"/>
<text text-anchor="middle" x="199.12" y="-1515.7" font-family="sans-serif" font-size="14.00">crypto&#45;sig</text>
</g>
<!-- egglog -->
<g id="node9" class="node">
<title>egglog</title>
<polygon fill="none" stroke="black" points="1035.5,-184 974.5,-184 974.5,-148 1035.5,-148 1035.5,-184"/>
<text text-anchor="middle" x="1005" y="-161.7" font-family="sans-serif" font-size="14.00">egglog</text>
</g>
<!-- egglog&#45;&gt;sexp -->
<g id="edge27" class="edge">
<title>egglog&#45;&gt;sexp</title>
<path fill="none" stroke="black" d="M1035.8,-182.59C1039.42,-185.65 1042.72,-189.12 1045.25,-193 1065.26,-223.66 1103.1,-470.43 1115.83,-556.51"/>
<polygon fill="black" stroke="black" points="1112.35,-556.89 1117.26,-566.28 1119.27,-555.87 1112.35,-556.89"/>
</g>
<!-- egglog&#45;&gt;types -->
<g id="edge28" class="edge">
<title>egglog&#45;&gt;types</title>
<path fill="none" stroke="black" d="M1035.96,-160.27C1103.02,-149.01 1268.54,-129.98 1386.25,-190 1406.51,-200.33 1422.6,-220.53 1433.31,-237.36"/>
<polygon fill="black" stroke="black" points="1430.05,-238.73 1438.2,-245.49 1436.04,-235.12 1430.05,-238.73"/>
</g>
<!-- forsp -->
<g id="node10" class="node">
<title>forsp</title>
<polygon fill="none" stroke="black" points="736.38,-774 682.38,-774 682.38,-738 736.38,-738 736.38,-774"/>
<text text-anchor="middle" x="709.38" y="-751.7" font-family="sans-serif" font-size="14.00">forsp</text>
</g>
<!-- forsp&#45;&gt;hash -->
<g id="edge29" class="edge">
<title>forsp&#45;&gt;hash</title>
<path fill="none" stroke="black" d="M714.95,-774.17C727.04,-821.94 761.01,-954.98 792,-1065 811.9,-1135.65 837.13,-1218.18 850.35,-1260.96"/>
<polygon fill="black" stroke="black" points="846.92,-1261.72 853.22,-1270.24 853.61,-1259.65 846.92,-1261.72"/>
</g>
<!-- forsp&#45;&gt;sexp -->
<g id="edge30" class="edge">
<title>forsp&#45;&gt;sexp</title>
<path fill="none" stroke="black" d="M736.81,-750.64C752.77,-747.45 773.53,-743.38 792,-740 904.3,-719.46 949.3,-758.87 1045.25,-697 1075.68,-677.38 1096.79,-640.55 1108.67,-614.71"/>
<polygon fill="black" stroke="black" points="1111.78,-616.34 1112.58,-605.78 1105.36,-613.53 1111.78,-616.34"/>
</g>
<!-- fuse&#45;&gt;hash -->
<g id="edge31" class="edge">
<title>fuse&#45;&gt;hash</title>
<path fill="none" stroke="black" d="M606.71,-1411.5C642.27,-1409.9 706.84,-1403.64 756,-1380 787.52,-1364.84 816.93,-1337.41 836.26,-1316.81"/>
<polygon fill="black" stroke="black" points="838.71,-1319.31 842.88,-1309.57 833.55,-1314.59 838.71,-1319.31"/>
</g>
<!-- fuse&#45;&gt;object -->
<g id="edge32" class="edge">
<title>fuse&#45;&gt;object</title>
<path fill="none" stroke="black" d="M606.59,-1421.42C624.81,-1427.97 649.41,-1436.81 669.86,-1444.16"/>
<polygon fill="black" stroke="black" points="668.41,-1447.36 679,-1447.44 670.77,-1440.77 668.41,-1447.36"/>
</g>
<!-- fuse&#45;&gt;store -->
<g id="edge33" class="edge">
<title>fuse&#45;&gt;store</title>
<path fill="none" stroke="black" d="M584.87,-1393.8C596.77,-1345.94 630.4,-1212.7 662.75,-1103 674.26,-1063.96 688.97,-1019.32 698.53,-990.92"/>
<polygon fill="black" stroke="black" points="701.79,-992.19 701.68,-981.59 695.16,-989.94 701.79,-992.19"/>
</g>
<!-- git&#45;&gt;hash -->
<g id="edge34" class="edge">
<title>git&#45;&gt;hash</title>
<path fill="none" stroke="black" d="M477.43,-1252.53C493.11,-1257.27 513.5,-1262.84 532,-1266 636.01,-1283.79 760.82,-1288.4 821.93,-1289.59"/>
<polygon fill="black" stroke="black" points="821.71,-1293.09 831.77,-1289.76 821.83,-1286.09 821.71,-1293.09"/>
</g>
<!-- git&#45;&gt;object -->
<g id="edge35" class="edge">
<title>git&#45;&gt;object</title>
<path fill="none" stroke="black" d="M477.27,-1257.86C484.29,-1262.73 491.25,-1268.82 496,-1276 536.93,-1337.88 476.73,-1389.5 532,-1439 568.98,-1472.12 629.33,-1471.06 668.95,-1465.74"/>
<polygon fill="black" stroke="black" points="669.42,-1469.21 678.78,-1464.25 668.37,-1462.29 669.42,-1469.21"/>
</g>
<!-- sqlite -->
<g id="node43" class="node">
<title>sqlite</title>
<polygon fill="none" stroke="black" points="887.38,-1002 833.38,-1002 833.38,-966 887.38,-966 887.38,-1002"/>
<text text-anchor="middle" x="860.38" y="-979.7" font-family="sans-serif" font-size="14.00">sqlite</text>
</g>
<!-- git&#45;&gt;sqlite -->
<g id="edge36" class="edge">
<title>git&#45;&gt;sqlite</title>
<path fill="none" stroke="black" d="M461.5,-1225.68C475.1,-1203.07 500.92,-1164.74 532,-1141 568.32,-1113.25 592.95,-1131.77 626.75,-1101 651.75,-1078.24 636.12,-1054.82 662.75,-1034 709.17,-997.72 778.88,-987.5 821.62,-984.78"/>
<polygon fill="black" stroke="black" points="821.6,-988.29 831.41,-984.27 821.24,-981.3 821.6,-988.29"/>
</g>
<!-- git&#45;&gt;store -->
<g id="edge37" class="edge">
<title>git&#45;&gt;store</title>
<path fill="none" stroke="black" d="M457.78,-1225.78C469.04,-1197.22 494.34,-1141.71 532,-1108 566.46,-1077.15 593.35,-1096.99 626.75,-1065 652.3,-1040.53 639.58,-1020.73 662.75,-994 665.82,-990.46 669.35,-987.12 673.07,-984.03"/>
<polygon fill="black" stroke="black" points="674.9,-987.03 680.74,-978.19 670.66,-981.46 674.9,-987.03"/>
</g>
<!-- grammar -->
<g id="node13" class="node">
<title>grammar</title>
<polygon fill="none" stroke="black" points="1041.88,-474 968.12,-474 968.12,-438 1041.88,-438 1041.88,-474"/>
<text text-anchor="middle" x="1005" y="-451.7" font-family="sans-serif" font-size="14.00">grammar</text>
</g>
<!-- graph -->
<g id="node14" class="node">
<title>graph</title>
<polygon fill="none" stroke="black" points="477.12,-1672 423.12,-1672 423.12,-1636 477.12,-1636 477.12,-1672"/>
<text text-anchor="middle" x="450.12" y="-1649.7" font-family="sans-serif" font-size="14.00">graph</text>
</g>
<!-- graph&#45;&gt;hash -->
<g id="edge38" class="edge">
<title>graph&#45;&gt;hash</title>
<path fill="none" stroke="black" d="M477.52,-1654.63C513.44,-1654.38 578.72,-1649.96 626.75,-1624 752.51,-1556.04 824.78,-1386.92 849.56,-1318.96"/>
<polygon fill="black" stroke="black" points="852.82,-1320.24 852.88,-1309.64 846.23,-1317.89 852.82,-1320.24"/>
</g>
<!-- parse -->
<g id="node29" class="node">
<title>parse</title>
<polygon fill="#ffd6d6" stroke="black" points="1251,-1158 1197,-1158 1197,-1122 1251,-1122 1251,-1158"/>
<text text-anchor="middle" x="1224" y="-1135.7" font-family="sans-serif" font-size="14.00">parse</text>
</g>
<!-- graph&#45;&gt;parse -->
<g id="edge39" class="edge">
<title>graph&#45;&gt;parse</title>
<path fill="none" stroke="black" d="M472.54,-1672.26C514.7,-1706.3 612.73,-1776 708.38,-1776 708.38,-1776 708.38,-1776 1006,-1776 1135.84,-1776 1203.95,-1295.18 1219.51,-1169.67"/>
<polygon fill="black" stroke="black" points="1222.97,-1170.2 1220.71,-1159.85 1216.02,-1169.35 1222.97,-1170.2"/>
</g>
<!-- rand -->
<g id="node35" class="node">
<title>rand</title>
<polygon fill="none" stroke="black" points="1032,-1308 978,-1308 978,-1272 1032,-1272 1032,-1308"/>
<text text-anchor="middle" x="1005" y="-1285.7" font-family="sans-serif" font-size="14.00">rand</text>
</g>
<!-- hash&#45;&gt;rand -->
<g id="edge40" class="edge">
<title>hash&#45;&gt;rand</title>
<path fill="none" stroke="black" d="M887.87,-1290C909.88,-1290 941.48,-1290 966.16,-1290"/>
<polygon fill="black" stroke="black" points="966.14,-1293.5 976.14,-1290 966.14,-1286.5 966.14,-1293.5"/>
</g>
<!-- hol&#45;&gt;core -->
<g id="edge41" class="edge">
<title>hol&#45;&gt;core</title>
<path fill="none" stroke="black" d="M881.87,-124.27C902.39,-142.31 935.08,-170.4 964.75,-193 965.9,-193.87 967.07,-194.75 968.26,-195.64"/>
<polygon fill="black" stroke="black" points="966.18,-198.45 976.34,-201.45 970.27,-192.77 966.18,-198.45"/>
</g>
<!-- init&#45;&gt;core -->
<g id="edge42" class="edge">
<title>init&#45;&gt;core</title>
<path fill="none" stroke="black" d="M736.69,-400.25C789.49,-364.65 908.41,-284.46 968.22,-244.13"/>
<polygon fill="black" stroke="black" points="970.05,-247.12 976.38,-238.62 966.13,-241.31 970.05,-247.12"/>
</g>
<!-- init&#45;&gt;grammar -->
<g id="edge43" class="edge">
<title>init&#45;&gt;grammar</title>
<path fill="none" stroke="black" d="M736.77,-418.93C778,-420.69 860.08,-425.42 928.75,-437 937.91,-438.55 947.6,-440.64 956.86,-442.87"/>
<polygon fill="black" stroke="black" points="955.87,-446.23 966.42,-445.26 957.57,-439.44 955.87,-446.23"/>
</g>
<!-- init&#45;&gt;hash -->
<g id="edge44" class="edge">
<title>init&#45;&gt;hash</title>
<path fill="none" stroke="black" d="M713.3,-436.19C720.93,-484.06 741.85,-617.48 756,-729 774.9,-877.99 762.33,-917.77 792,-1065 806.46,-1136.77 833.78,-1218.54 848.8,-1260.98"/>
<polygon fill="black" stroke="black" points="845.44,-1261.96 852.1,-1270.2 852.03,-1259.61 845.44,-1261.96"/>
</g>
<!-- init&#45;&gt;hol -->
<g id="edge45" class="edge">
<title>init&#45;&gt;hol</title>
<path fill="none" stroke="black" d="M719.03,-399.88C743.92,-347.75 815.85,-197.14 845.92,-134.18"/>
<polygon fill="black" stroke="black" points="848.89,-136.07 850.04,-125.54 842.58,-133.05 848.89,-136.07"/>
</g>
<!-- metamath -->
<g id="node24" class="node">
<title>metamath</title>
<polygon fill="none" stroke="black" points="1045.25,-688 964.75,-688 964.75,-652 1045.25,-652 1045.25,-688"/>
<text text-anchor="middle" x="1005" y="-665.7" font-family="sans-serif" font-size="14.00">metamath</text>
</g>
<!-- init&#45;&gt;metamath -->
<g id="edge46" class="edge">
<title>init&#45;&gt;metamath</title>
<path fill="none" stroke="black" d="M736.87,-433.22C743.68,-437.98 750.6,-443.67 756,-450 779.73,-477.83 764.3,-500.12 792,-524 840.26,-565.59 876.98,-529.86 928.75,-567 955.75,-586.36 976.94,-618.41 989.87,-641.62"/>
<polygon fill="black" stroke="black" points="986.69,-643.09 994.5,-650.25 992.86,-639.78 986.69,-643.09"/>
</g>
<!-- init&#45;&gt;sexp -->
<g id="edge47" class="edge">
<title>init&#45;&gt;sexp</title>
<path fill="none" stroke="black" d="M736.77,-434.91C743.29,-439.52 750.09,-444.7 756,-450 774.06,-466.19 771.24,-478.46 792,-491 845.51,-523.33 868.58,-507.02 928.75,-524 982.9,-539.28 1044.68,-559.88 1083.05,-573.06"/>
<polygon fill="black" stroke="black" points="1081.67,-576.28 1092.26,-576.23 1083.95,-569.67 1081.67,-576.28"/>
</g>
<!-- spectec -->
<g id="node42" class="node">
<title>spectec</title>
<polygon fill="none" stroke="black" points="895,-482 825.75,-482 825.75,-446 895,-446 895,-482"/>
<text text-anchor="middle" x="860.38" y="-459.7" font-family="sans-serif" font-size="14.00">spectec</text>
</g>
<!-- init&#45;&gt;spectec -->
<g id="edge48" class="edge">
<title>init&#45;&gt;spectec</title>
<path fill="none" stroke="black" d="M736.67,-426.12C758.21,-432.77 789.18,-442.33 814.61,-450.18"/>
<polygon fill="black" stroke="black" points="813.46,-453.49 824.04,-453.09 815.52,-446.8 813.46,-453.49"/>
</g>
<!-- init&#45;&gt;types -->
<g id="edge49" class="edge">
<title>init&#45;&gt;types</title>
<path fill="none" stroke="black" d="M736.6,-412.55C801.39,-399.6 974.29,-368 1120.12,-368 1120.12,-368 1120.12,-368 1225,-368 1299.05,-368 1375.26,-320.7 1416.7,-290.2"/>
<polygon fill="black" stroke="black" points="1418.63,-293.13 1424.52,-284.32 1414.43,-287.53 1418.63,-293.13"/>
</g>
<!-- json -->
<g id="node18" class="node">
<title>json</title>
<polygon fill="none" stroke="black" points="887.38,-1056 833.38,-1056 833.38,-1020 887.38,-1020 887.38,-1056"/>
<text text-anchor="middle" x="860.38" y="-1033.7" font-family="sans-serif" font-size="14.00">json</text>
</g>
<!-- kernel -->
<g id="node19" class="node">
<title>kernel</title>
<polygon fill="none" stroke="black" points="608,-850 550.75,-850 550.75,-814 608,-814 608,-850"/>
<text text-anchor="middle" x="579.38" y="-827.7" font-family="sans-serif" font-size="14.00">kernel</text>
</g>
<!-- kernel&#45;&gt;hash -->
<g id="edge50" class="edge">
<title>kernel&#45;&gt;hash</title>
<path fill="none" stroke="black" d="M585.19,-850.28C593.69,-882.64 611.88,-952.18 626.75,-1011 643.13,-1075.79 620.2,-1105.47 662.75,-1157 691.81,-1192.19 717.68,-1175.21 756,-1200 784.67,-1218.55 813.68,-1244.58 833.64,-1263.88"/>
<polygon fill="black" stroke="black" points="830.94,-1266.14 840.53,-1270.64 835.84,-1261.14 830.94,-1266.14"/>
</g>
<!-- kernel&#45;&gt;init -->
<g id="edge51" class="edge">
<title>kernel&#45;&gt;init</title>
<path fill="none" stroke="black" d="M586.04,-813.68C606.24,-748.35 674.83,-526.5 699.47,-446.8"/>
<polygon fill="black" stroke="black" points="702.72,-448.15 702.33,-437.56 696.03,-446.08 702.72,-448.15"/>
</g>
<!-- kernel&#45;&gt;object -->
<g id="edge52" class="edge">
<title>kernel&#45;&gt;object</title>
<path fill="none" stroke="black" d="M585.63,-850.45C594.73,-882.79 613.72,-951.91 626.75,-1011 661.2,-1167.21 692.29,-1356.4 703.72,-1428.32"/>
<polygon fill="black" stroke="black" points="700.25,-1428.77 705.27,-1438.1 707.17,-1427.68 700.25,-1428.77"/>
</g>
<!-- kernel&#45;&gt;sexp -->
<g id="edge53" class="edge">
<title>kernel&#45;&gt;sexp</title>
<path fill="none" stroke="black" d="M608.3,-824.21C665.52,-808.24 790.85,-773.26 792,-773 903.47,-747.62 952.92,-795.42 1045.25,-728 1083.1,-700.36 1103.53,-647.76 1113.1,-614.91"/>
<polygon fill="black" stroke="black" points="1116.37,-616.22 1115.64,-605.65 1109.62,-614.37 1116.37,-616.22"/>
</g>
<!-- kernel&#45;&gt;store -->
<g id="edge54" class="edge">
<title>kernel&#45;&gt;store</title>
<path fill="none" stroke="black" d="M608.29,-849.44C614.61,-853.87 621.12,-858.85 626.75,-864 650.32,-885.53 673.23,-913.89 688.75,-934.56"/>
<polygon fill="black" stroke="black" points="685.88,-936.57 694.64,-942.53 691.51,-932.41 685.88,-936.57"/>
</g>
<!-- kv -->
<g id="node20" class="node">
<title>kv</title>
<polygon fill="none" stroke="black" points="226.12,-1630 172.12,-1630 172.12,-1594 226.12,-1594 226.12,-1630"/>
<text text-anchor="middle" x="199.12" y="-1607.7" font-family="sans-serif" font-size="14.00">kv</text>
</g>
<!-- lean -->
<g id="node21" class="node">
<title>lean</title>
<polygon fill="none" stroke="black" points="87.5,-1524 33.5,-1524 33.5,-1488 87.5,-1488 87.5,-1524"/>
<text text-anchor="middle" x="60.5" y="-1501.7" font-family="sans-serif" font-size="14.00">lean</text>
</g>
<!-- llm -->
<g id="node22" class="node">
<title>llm</title>
<polygon fill="none" stroke="black" points="226.12,-903 172.12,-903 172.12,-867 226.12,-867 226.12,-903"/>
<text text-anchor="middle" x="199.12" y="-880.7" font-family="sans-serif" font-size="14.00">llm</text>
</g>
<!-- llm&#45;&gt;proto -->
<g id="edge55" class="edge">
<title>llm&#45;&gt;proto</title>
<path fill="none" stroke="black" d="M226.52,-881.75C243.33,-879.67 265.38,-876.95 284.03,-874.65"/>
<polygon fill="black" stroke="black" points="284.41,-878.13 293.91,-873.43 283.56,-871.18 284.41,-878.13"/>
</g>
<!-- lsp&#45;&gt;sexp -->
<g id="edge56" class="edge">
<title>lsp&#45;&gt;sexp</title>
<path fill="none" stroke="black" d="M887.61,-593.19C933.72,-591.76 1029.42,-588.8 1082.54,-587.16"/>
<polygon fill="black" stroke="black" points="1082.42,-590.67 1092.31,-586.86 1082.21,-583.67 1082.42,-590.67"/>
</g>
<!-- lsp&#45;&gt;wasm -->
<g id="edge57" class="edge">
<title>lsp&#45;&gt;wasm</title>
<path fill="none" stroke="black" d="M869.04,-612.39C892.5,-668.64 963.43,-838.72 991.94,-907.09"/>
<polygon fill="black" stroke="black" points="988.63,-908.24 995.71,-916.12 995.09,-905.55 988.63,-908.24"/>
</g>
<!-- metamath&#45;&gt;parse -->
<g id="edge58" class="edge">
<title>metamath&#45;&gt;parse</title>
<path fill="none" stroke="black" d="M1025.57,-688.33C1058.77,-720.56 1125.93,-790.93 1161,-864 1201.14,-947.62 1215.8,-1058.07 1220.73,-1110.26"/>
<polygon fill="black" stroke="black" points="1217.23,-1110.48 1221.6,-1120.14 1224.2,-1109.87 1217.23,-1110.48"/>
</g>
<!-- metamath&#45;&gt;sexp -->
<g id="edge59" class="edge">
<title>metamath&#45;&gt;sexp</title>
<path fill="none" stroke="black" d="M1031.05,-651.57C1047.25,-639.64 1068.55,-623.96 1086.25,-610.93"/>
<polygon fill="black" stroke="black" points="1087.94,-614.03 1093.92,-605.29 1083.79,-608.4 1087.94,-614.03"/>
</g>
<!-- multiformat -->
<g id="node25" class="node">
<title>multiformat</title>
<polygon fill="none" stroke="black" points="754.5,-1840 664.25,-1840 664.25,-1804 754.5,-1804 754.5,-1840"/>
<text text-anchor="middle" x="709.38" y="-1817.7" font-family="sans-serif" font-size="14.00">multiformat</text>
</g>
<!-- multiformat&#45;&gt;acset -->
<g id="edge60" class="edge">
<title>multiformat&#45;&gt;acset</title>
<path fill="none" stroke="black" d="M754.68,-1833.3C776.15,-1838.77 801.64,-1845.28 822.1,-1850.49"/>
<polygon fill="black" stroke="black" points="821.17,-1853.87 831.72,-1852.95 822.9,-1847.09 821.17,-1853.87"/>
</g>
<!-- multiformat&#45;&gt;hash -->
<g id="edge61" class="edge">
<title>multiformat&#45;&gt;hash</title>
<path fill="none" stroke="black" d="M724.91,-1803.72C735.02,-1790.17 748.06,-1770.85 756,-1752 821.32,-1597.03 848.26,-1394.65 856.45,-1319.64"/>
<polygon fill="black" stroke="black" points="859.91,-1320.15 857.48,-1309.84 852.95,-1319.41 859.91,-1320.15"/>
</g>
<!-- multiformat&#45;&gt;parse -->
<g id="edge62" class="edge">
<title>multiformat&#45;&gt;parse</title>
<path fill="none" stroke="black" d="M754.88,-1825.74C857.13,-1833.3 1104.38,-1845.26 1161,-1790 1205.95,-1746.13 1219.54,-1291 1222.38,-1169.62"/>
<polygon fill="black" stroke="black" points="1225.87,-1169.91 1222.6,-1159.83 1218.87,-1169.75 1225.87,-1169.91"/>
</g>
<!-- object&#45;&gt;hash -->
<g id="edge63" class="edge">
<title>object&#45;&gt;hash</title>
<path fill="none" stroke="black" d="M735.91,-1439.59C742.72,-1434.23 749.88,-1428.15 756,-1422 789.08,-1388.8 821.44,-1345.14 840.9,-1317.32"/>
<polygon fill="black" stroke="black" points="843.55,-1319.64 846.37,-1309.42 837.8,-1315.66 843.55,-1319.64"/>
</g>
<!-- object&#45;&gt;parse -->
<g id="edge64" class="edge">
<title>object&#45;&gt;parse</title>
<path fill="none" stroke="black" d="M738.18,-1450.28C797.93,-1432.88 941.53,-1386.58 1045.25,-1317 1109.6,-1273.83 1170.36,-1205.17 1201.44,-1167.3"/>
<polygon fill="black" stroke="black" points="1204.15,-1169.52 1207.73,-1159.55 1198.71,-1165.11 1204.15,-1169.52"/>
</g>
<!-- opentheory&#45;&gt;hol -->
<g id="edge65" class="edge">
<title>opentheory&#45;&gt;hol</title>
<path fill="none" stroke="black" d="M365.34,-191.55C406.89,-173.66 472.91,-146.69 532,-129 588.93,-111.95 603.65,-107.26 662.75,-101 703.96,-96.64 714.57,-100 756,-101 777.82,-101.53 802.21,-102.68 821.82,-103.75"/>
<polygon fill="black" stroke="black" points="821.35,-107.23 831.53,-104.29 821.74,-100.24 821.35,-107.23"/>
</g>
<!-- parquet -->
<g id="node28" class="node">
<title>parquet</title>
<polygon fill="none" stroke="black" points="483.62,-1056 416.62,-1056 416.62,-1020 483.62,-1020 483.62,-1056"/>
<text text-anchor="middle" x="450.12" y="-1033.7" font-family="sans-serif" font-size="14.00">parquet</text>
</g>
<!-- parquet&#45;&gt;arrow -->
<g id="edge66" class="edge">
<title>parquet&#45;&gt;arrow</title>
<path fill="none" stroke="black" d="M483.9,-1038C501.29,-1038 522.75,-1038 540.82,-1038"/>
<polygon fill="black" stroke="black" points="540.61,-1041.5 550.61,-1038 540.61,-1034.5 540.61,-1041.5"/>
</g>
<!-- pure&#45;trusted -->
<g id="node33" class="node">
<title>pure&#45;trusted</title>
<polygon fill="#ffd6d6" stroke="black" points="1386.25,-260 1287,-260 1287,-224 1386.25,-224 1386.25,-260"/>
<text text-anchor="middle" x="1336.62" y="-237.7" font-family="sans-serif" font-size="14.00">pure&#45;trusted</text>
</g>
<!-- pure&#45;&gt;pure&#45;trusted -->
<g id="edge67" class="edge">
<title>pure&#45;&gt;pure&#45;trusted</title>
<path fill="none" stroke="black" d="M1251.5,-242C1258.79,-242 1267.02,-242 1275.39,-242"/>
<polygon fill="black" stroke="black" points="1275.32,-245.5 1285.32,-242 1275.32,-238.5 1275.32,-245.5"/>
</g>
<!-- pure&#45;eval&#45;&gt;pure -->
<g id="edge68" class="edge">
<title>pure&#45;eval&#45;&gt;pure</title>
<path fill="none" stroke="black" d="M1161.41,-265.2C1169.55,-262.13 1178.1,-258.91 1186.15,-255.88"/>
<polygon fill="black" stroke="black" points="1187.19,-259.23 1195.31,-252.43 1184.72,-252.68 1187.19,-259.23"/>
</g>
<!-- pure&#45;eval&#45;&gt;types -->
<g id="edge69" class="edge">
<title>pure&#45;eval&#45;&gt;types</title>
<path fill="none" stroke="black" d="M1161.07,-278.66C1212.61,-276.81 1306.28,-273.24 1386.25,-269 1394.14,-268.58 1402.59,-268.07 1410.63,-267.57"/>
<polygon fill="black" stroke="black" points="1410.75,-271.06 1420.5,-266.92 1410.3,-264.08 1410.75,-271.06"/>
</g>
<!-- pure&#45;trusted&#45;&gt;types -->
<g id="edge70" class="edge">
<title>pure&#45;trusted&#45;&gt;types</title>
<path fill="none" stroke="black" d="M1386.47,-252.16C1394.54,-253.83 1402.8,-255.55 1410.54,-257.16"/>
<polygon fill="black" stroke="black" points="1409.82,-260.59 1420.33,-259.19 1411.25,-253.73 1409.82,-260.59"/>
</g>
<!-- python -->
<g id="node34" class="node">
<title>python</title>
<polygon fill="none" stroke="black" points="91.38,-1416 29.62,-1416 29.62,-1380 91.38,-1380 91.38,-1416"/>
<text text-anchor="middle" x="60.5" y="-1393.7" font-family="sans-serif" font-size="14.00">python</text>
</g>
<!-- python&#45;&gt;crypto&#45;sig -->
<g id="edge71" class="edge">
<title>python&#45;&gt;crypto&#45;sig</title>
<path fill="none" stroke="black" d="M91.82,-1407.48C101.92,-1411.69 112.7,-1417.44 121,-1425 144.84,-1446.72 135.87,-1463.64 157,-1488 158.87,-1490.15 160.9,-1492.26 163.02,-1494.3"/>
<polygon fill="black" stroke="black" points="160.59,-1496.82 170.41,-1500.8 165.21,-1491.56 160.59,-1496.82"/>
</g>
<!-- python&#45;&gt;git -->
<g id="edge72" class="edge">
<title>python&#45;&gt;git</title>
<path fill="none" stroke="black" d="M91.68,-1397.84C128.15,-1396.77 190.9,-1392.14 241.25,-1374 309.84,-1349.29 379.69,-1299.46 418.42,-1269.18"/>
<polygon fill="black" stroke="black" points="420.26,-1272.18 425.93,-1263.23 415.92,-1266.69 420.26,-1272.18"/>
</g>
<!-- python&#45;&gt;graph -->
<g id="edge73" class="edge">
<title>python&#45;&gt;graph</title>
<path fill="none" stroke="black" d="M91.71,-1405.16C102.55,-1409.23 113.84,-1415.48 121,-1425 187.67,-1513.67 73.09,-1599.43 157,-1672 228.79,-1734.08 351.33,-1695.99 412.35,-1670.85"/>
<polygon fill="black" stroke="black" points="413.42,-1674.2 421.26,-1667.08 410.69,-1667.76 413.42,-1674.2"/>
</g>
<!-- python&#45;&gt;hash -->
<g id="edge74" class="edge">
<title>python&#45;&gt;hash</title>
<path fill="none" stroke="black" d="M91.79,-1405.11C102.63,-1409.16 113.92,-1415.43 121,-1425 194.84,-1524.8 73.06,-1610.53 157,-1702 207.67,-1757.22 246.8,-1738 321.75,-1738 321.75,-1738 321.75,-1738 580.38,-1738 778.06,-1738 840.7,-1419.8 855.51,-1319.74"/>
<polygon fill="black" stroke="black" points="858.97,-1320.29 856.91,-1309.9 852.04,-1319.3 858.97,-1320.29"/>
</g>
<!-- python&#45;&gt;kv -->
<g id="edge75" class="edge">
<title>python&#45;&gt;kv</title>
<path fill="none" stroke="black" d="M91.61,-1405.6C102.3,-1409.71 113.52,-1415.88 121,-1425 165.83,-1479.7 118.9,-1520.42 157,-1580 158.78,-1582.79 160.89,-1585.43 163.2,-1587.91"/>
<polygon fill="black" stroke="black" points="160.81,-1590.47 170.53,-1594.7 165.57,-1585.33 160.81,-1590.47"/>
</g>
<!-- python&#45;&gt;llm -->
<g id="edge76" class="edge">
<title>python&#45;&gt;llm</title>
<path fill="none" stroke="black" d="M61,-1379.58C60.01,-1312.76 63.72,-1078.68 157,-920 158.9,-916.77 161.21,-913.69 163.76,-910.8"/>
<polygon fill="black" stroke="black" points="166.21,-913.3 170.85,-903.78 161.28,-908.32 166.21,-913.3"/>
</g>
<!-- python&#45;&gt;object -->
<g id="edge77" class="edge">
<title>python&#45;&gt;object</title>
<path fill="none" stroke="black" d="M91.6,-1405.25C102.42,-1409.32 113.74,-1415.56 121,-1425 179.81,-1501.44 83.36,-1576.71 157,-1639 185.59,-1663.18 203.89,-1641.56 241.25,-1639 284.39,-1636.05 592.25,-1612.06 626.75,-1586 658.51,-1562.01 640.36,-1536.91 662.75,-1504 667.45,-1497.1 673.26,-1490.33 679.14,-1484.19"/>
<polygon fill="black" stroke="black" points="681.41,-1486.87 686.04,-1477.34 676.48,-1481.91 681.41,-1486.87"/>
</g>
<!-- python&#45;&gt;repl -->
<g id="edge78" class="edge">
<title>python&#45;&gt;repl</title>
<path fill="none" stroke="black" d="M91.57,-1396.06C131.51,-1391.84 201.59,-1378.46 241.25,-1336 312.62,-1259.58 321.96,-1126.53 322.37,-1067.58"/>
<polygon fill="black" stroke="black" points="325.87,-1067.67 322.34,-1057.68 318.87,-1067.69 325.87,-1067.67"/>
</g>
<!-- sat -->
<g id="node37" class="node">
<title>sat</title>
<polygon fill="none" stroke="black" points="887.38,-818 833.38,-818 833.38,-782 887.38,-782 887.38,-818"/>
<text text-anchor="middle" x="860.38" y="-795.7" font-family="sans-serif" font-size="14.00">sat</text>
</g>
<!-- python&#45;&gt;sat -->
<g id="edge79" class="edge">
<title>python&#45;&gt;sat</title>
<path fill="none" stroke="black" d="M62.17,-1379.64C65.93,-1284.38 86.82,-846.54 157,-734 242.81,-596.39 338.16,-561.74 496,-599 630.87,-630.84 768.07,-728.18 828.06,-774.71"/>
<polygon fill="black" stroke="black" points="825.79,-777.38 835.82,-780.79 830.11,-771.87 825.79,-777.38"/>
</g>
<!-- python&#45;&gt;serve -->
<g id="edge80" class="edge">
<title>python&#45;&gt;serve</title>
<path fill="none" stroke="black" d="M67.03,-1379.76C88.05,-1310.35 163.2,-1062.28 189.2,-976.46"/>
<polygon fill="black" stroke="black" points="192.54,-977.5 192.09,-966.91 185.84,-975.47 192.54,-977.5"/>
</g>
<!-- python&#45;&gt;sexp -->
<g id="edge81" class="edge">
<title>python&#45;&gt;sexp</title>
<path fill="none" stroke="black" d="M61.35,-1379.66C60.85,-1274.99 63.14,-753.49 157,-631 192.1,-585.19 220.66,-593.32 277.25,-582 332.6,-570.93 347.8,-581.22 404.25,-581 445.03,-580.84 455.31,-578.26 496,-581 628.45,-589.91 659.55,-612.09 792,-621 852.64,-625.08 868.13,-625.4 928.75,-621 980.94,-617.21 993.87,-613.9 1045.25,-604 1057.59,-601.62 1070.95,-598.56 1082.93,-595.65"/>
<polygon fill="black" stroke="black" points="1083.59,-599.09 1092.45,-593.28 1081.9,-592.3 1083.59,-599.09"/>
</g>
<!-- python&#45;&gt;shell -->
<g id="edge82" class="edge">
<title>python&#45;&gt;shell</title>
<path fill="none" stroke="black" d="M61.51,-1379.81C62.2,-1309.27 70.76,-1048.35 157,-858 192.26,-780.17 210.28,-761.07 277.25,-708 318.7,-675.16 375.45,-651.34 412.2,-638.1"/>
<polygon fill="black" stroke="black" points="413.22,-641.45 421.5,-634.83 410.9,-634.84 413.22,-641.45"/>
</g>
<!-- python&#45;&gt;store -->
<g id="edge83" class="edge">
<title>python&#45;&gt;store</title>
<path fill="none" stroke="black" d="M65.42,-1379.79C80.14,-1316.24 138.56,-1103.19 277.25,-1011 342.33,-967.74 549.13,-981.08 626.75,-972 641.15,-970.31 656.97,-968.39 670.82,-966.69"/>
<polygon fill="black" stroke="black" points="670.92,-970.2 680.41,-965.5 670.06,-963.25 670.92,-970.2"/>
</g>
<!-- python&#45;&gt;wasm -->
<g id="edge84" class="edge">
<title>python&#45;&gt;wasm</title>
<path fill="none" stroke="black" d="M91.64,-1405.96C102.2,-1410.09 113.33,-1416.18 121,-1425 158.1,-1467.66 119.85,-1504.39 157,-1547 183.99,-1577.96 204.78,-1566.1 241.25,-1585 315.9,-1623.67 324.46,-1654.51 404.25,-1681 478.13,-1705.52 500.53,-1700 578.38,-1700 578.38,-1700 578.38,-1700 710.38,-1700 906.32,-1700 860.35,-1500.62 928.75,-1317 975.52,-1191.46 995.02,-1031.28 1001.41,-965.86"/>
<polygon fill="black" stroke="black" points="1004.89,-966.21 1002.34,-955.93 997.92,-965.56 1004.89,-966.21"/>
</g>
<!-- wasm&#45;store -->
<g id="node49" class="node">
<title>wasm&#45;store</title>
<polygon fill="none" stroke="black" points="626.75,-1186 532,-1186 532,-1150 626.75,-1150 626.75,-1186"/>
<text text-anchor="middle" x="579.38" y="-1163.7" font-family="sans-serif" font-size="14.00">wasm&#45;store</text>
</g>
<!-- python&#45;&gt;wasm&#45;store -->
<g id="edge85" class="edge">
<title>python&#45;&gt;wasm&#45;store</title>
<path fill="none" stroke="black" d="M91.74,-1401.25C127.74,-1404.34 189.5,-1407.15 241.25,-1397 365.2,-1372.68 400.5,-1353.67 496,-1271 521.52,-1248.91 544.97,-1218.1 560.26,-1195.95"/>
<polygon fill="black" stroke="black" points="563.14,-1197.93 565.85,-1187.69 557.35,-1194.01 563.14,-1197.93"/>
</g>
<!-- repl&#45;&gt;arrow -->
<g id="edge86" class="edge">
<title>repl&#45;&gt;arrow</title>
<path fill="none" stroke="black" d="M350.03,-1049.22C365.5,-1055.21 385.63,-1061.96 404.25,-1065 444.5,-1071.57 455.73,-1071.43 496,-1065 511.24,-1062.57 527.5,-1057.75 541.5,-1052.85"/>
<polygon fill="black" stroke="black" points="542.58,-1056.18 550.77,-1049.46 540.18,-1049.6 542.58,-1056.18"/>
</g>
<!-- repl&#45;&gt;forsp -->
<g id="edge87" class="edge">
<title>repl&#45;&gt;forsp</title>
<path fill="none" stroke="black" d="M332.43,-1019.62C342.19,-998.4 358,-962.28 368.25,-930 390.04,-861.35 349.15,-818.38 404.25,-772 480.22,-708.05 608.41,-729.32 671.31,-745.19"/>
<polygon fill="black" stroke="black" points="670.24,-748.53 680.8,-747.68 672.02,-741.76 670.24,-748.53"/>
</g>
<!-- repl&#45;&gt;git -->
<g id="edge88" class="edge">
<title>repl&#45;&gt;git</title>
<path fill="none" stroke="black" d="M339.66,-1056.47C349.01,-1068.07 360.48,-1083.68 368.25,-1099 392.09,-1146.01 373.2,-1169.41 404.25,-1212 407.04,-1215.83 410.43,-1219.37 414.08,-1222.6"/>
<polygon fill="black" stroke="black" points="411.7,-1225.18 421.73,-1228.6 416.02,-1219.67 411.7,-1225.18"/>
</g>
<!-- repl&#45;&gt;graph -->
<g id="edge89" class="edge">
<title>repl&#45;&gt;graph</title>
<path fill="none" stroke="black" d="M327.5,-1056.44C345.29,-1143.84 421.19,-1516.75 443.15,-1624.65"/>
<polygon fill="black" stroke="black" points="439.66,-1625.05 445.09,-1634.15 446.52,-1623.66 439.66,-1625.05"/>
</g>
<!-- repl&#45;&gt;hash -->
<g id="edge90" class="edge">
<title>repl&#45;&gt;hash</title>
<path fill="none" stroke="black" d="M350.18,-1047.4C356.82,-1050.81 363.43,-1055.28 368.25,-1061 402.25,-1101.28 368.72,-1135.06 404.25,-1174 425.02,-1196.77 502.5,-1219.08 532,-1228 634.74,-1259.06 760.52,-1277.66 821.98,-1285.55"/>
<polygon fill="black" stroke="black" points="821.17,-1288.98 831.53,-1286.76 822.05,-1282.03 821.17,-1288.98"/>
</g>
<!-- repl&#45;&gt;init -->
<g id="edge91" class="edge">
<title>repl&#45;&gt;init</title>
<path fill="none" stroke="black" d="M330.07,-1019.91C339.24,-993.23 356.44,-941.67 368.25,-897 387.76,-823.17 364.66,-794.3 404.25,-729 431.7,-683.72 456.02,-687.72 496,-653 555.33,-601.48 574.77,-592.93 626.75,-534 651.55,-505.88 675.72,-470.18 691.24,-445.86"/>
<polygon fill="black" stroke="black" points="694.16,-447.8 696.53,-437.47 688.24,-444.06 694.16,-447.8"/>
</g>
<!-- repl&#45;&gt;object -->
<g id="edge92" class="edge">
<title>repl&#45;&gt;object</title>
<path fill="none" stroke="black" d="M325.49,-1056.43C333.28,-1127.09 372.02,-1381.07 532,-1468 574.62,-1491.16 631.89,-1481.89 669.44,-1471.42"/>
<polygon fill="black" stroke="black" points="670.38,-1474.79 678.98,-1468.59 668.39,-1468.08 670.38,-1474.79"/>
</g>
<!-- repl&#45;&gt;parquet -->
<g id="edge93" class="edge">
<title>repl&#45;&gt;parquet</title>
<path fill="none" stroke="black" d="M350.03,-1038C365.89,-1038 386.51,-1038 404.83,-1038"/>
<polygon fill="black" stroke="black" points="404.66,-1041.5 414.66,-1038 404.66,-1034.5 404.66,-1041.5"/>
</g>
<!-- repl&#45;&gt;shell -->
<g id="edge94" class="edge">
<title>repl&#45;&gt;shell</title>
<path fill="none" stroke="black" d="M330.42,-1019.51C339.88,-992.77 357.26,-941.62 368.25,-897 389.95,-808.88 371.12,-780.49 404.25,-696 410.11,-681.05 419.36,-665.87 427.93,-653.49"/>
<polygon fill="black" stroke="black" points="430.72,-655.61 433.71,-645.44 425.03,-651.52 430.72,-655.61"/>
</g>
<!-- repl&#45;&gt;wasm -->
<g id="edge95" class="edge">
<title>repl&#45;&gt;wasm</title>
<path fill="none" stroke="black" d="M332.1,-1019.51C341.56,-998.19 357.1,-961.98 368.25,-930 387.29,-875.41 358.06,-839.77 404.25,-805 483.26,-745.53 532.33,-775.59 626.75,-805 711.94,-831.53 707.94,-889.08 792,-919 850.19,-939.71 922.85,-940.61 966.22,-938.75"/>
<polygon fill="black" stroke="black" points="966.32,-942.25 976.13,-938.25 965.97,-935.26 966.32,-942.25"/>
</g>
<!-- sat&#45;&gt;parse -->
<g id="edge96" class="edge">
<title>sat&#45;&gt;parse</title>
<path fill="none" stroke="black" d="M887.76,-811.23C925.71,-828.29 996.49,-863.62 1045.25,-909 1114.13,-973.1 1176.72,-1065.95 1205.82,-1111.97"/>
<polygon fill="black" stroke="black" points="1202.76,-1113.67 1211.04,-1120.29 1208.69,-1109.96 1202.76,-1113.67"/>
</g>
<!-- sat&#45;&gt;types -->
<g id="edge97" class="edge">
<title>sat&#45;&gt;types</title>
<path fill="none" stroke="black" d="M887.82,-799.32C934.64,-798.18 1035.21,-796 1120.12,-796 1120.12,-796 1120.12,-796 1225,-796 1334.76,-796 1420.43,-405.62 1442.62,-294.3"/>
<polygon fill="black" stroke="black" points="1446,-295.25 1444.5,-284.76 1439.14,-293.9 1446,-295.25"/>
</g>
<!-- sat&#45;&gt;wasm -->
<g id="edge98" class="edge">
<title>sat&#45;&gt;wasm</title>
<path fill="none" stroke="black" d="M887.81,-808.4C901.2,-813.62 917.05,-821.38 928.75,-832 951.78,-852.9 946.32,-866.95 964.75,-892 969.05,-897.84 973.98,-903.82 978.86,-909.42"/>
<polygon fill="black" stroke="black" points="976.09,-911.58 985.37,-916.69 981.3,-906.9 976.09,-911.58"/>
</g>
<!-- serve&#45;&gt;core -->
<g id="edge99" class="edge">
<title>serve&#45;&gt;core</title>
<path fill="none" stroke="black" d="M226.29,-929.88C232.12,-924.82 237.64,-918.79 241.25,-912 308.09,-786.45 234.27,-729.59 277.25,-594 348.45,-369.37 343.03,-269.78 532,-129 674.52,-22.82 785.4,26.06 928.75,-79 971.61,-110.41 933.14,-150.29 964.75,-193 966.08,-194.8 967.56,-196.51 969.16,-198.15"/>
<polygon fill="black" stroke="black" points="966.81,-200.74 976.66,-204.63 971.39,-195.45 966.81,-200.74"/>
</g>
<!-- serve&#45;&gt;git -->
<g id="edge100" class="edge">
<title>serve&#45;&gt;git</title>
<path fill="none" stroke="black" d="M210.77,-965.2C224.92,-988.91 251.19,-1031.32 277.25,-1065 314.03,-1112.52 329.72,-1118.88 368.25,-1165 385.12,-1185.19 385.33,-1193.71 404.25,-1212 407.25,-1214.9 410.52,-1217.73 413.9,-1220.45"/>
<polygon fill="black" stroke="black" points="411.64,-1223.13 421.73,-1226.39 415.88,-1217.56 411.64,-1223.13"/>
</g>
<!-- serve&#45;&gt;hash -->
<g id="edge101" class="edge">
<title>serve&#45;&gt;hash</title>
<path fill="none" stroke="black" d="M204.72,-965.42C220.45,-1023.93 278.28,-1205.58 404.25,-1271 543.56,-1343.35 740.44,-1314.93 821.88,-1298.51"/>
<polygon fill="black" stroke="black" points="822.48,-1301.96 831.55,-1296.49 821.05,-1295.11 822.48,-1301.96"/>
</g>
<!-- serve&#45;&gt;init -->
<g id="edge102" class="edge">
<title>serve&#45;&gt;init</title>
<path fill="none" stroke="black" d="M226.44,-929.35C232.12,-924.38 237.53,-918.51 241.25,-912 287.75,-830.51 230.17,-785.15 277.25,-704 368.36,-546.95 584.38,-459.6 671.25,-429.8"/>
<polygon fill="black" stroke="black" points="672.11,-433.2 680.48,-426.69 669.88,-426.57 672.11,-433.2"/>
</g>
<!-- serve&#45;&gt;metamath -->
<g id="edge103" class="edge">
<title>serve&#45;&gt;metamath</title>
<path fill="none" stroke="black" d="M226.56,-947.01C263.79,-945.52 331.24,-937.02 368.25,-897 420.1,-840.94 347.29,-779.86 404.25,-729 484.55,-657.3 823.31,-662.75 953.1,-667.64"/>
<polygon fill="black" stroke="black" points="952.63,-671.13 962.76,-668.02 952.9,-664.13 952.63,-671.13"/>
</g>
<!-- serve&#45;&gt;object -->
<g id="edge104" class="edge">
<title>serve&#45;&gt;object</title>
<path fill="none" stroke="black" d="M203.25,-965.28C211.01,-1007.51 233.74,-1114.26 277.25,-1193 361.2,-1344.92 374.06,-1417.01 532,-1489 576.67,-1509.36 633.34,-1492.81 670.21,-1477.13"/>
<polygon fill="black" stroke="black" points="671.42,-1480.43 679.14,-1473.17 668.58,-1474.03 671.42,-1480.43"/>
</g>
<!-- serve&#45;&gt;proto -->
<g id="edge105" class="edge">
<title>serve&#45;&gt;proto</title>
<path fill="none" stroke="black" d="M226.52,-930.29C243.89,-919.29 266.85,-904.76 285.87,-892.71"/>
<polygon fill="black" stroke="black" points="287.55,-895.79 294.13,-887.48 283.81,-889.88 287.55,-895.79"/>
</g>
<!-- serve&#45;&gt;repl -->
<g id="edge106" class="edge">
<title>serve&#45;&gt;repl</title>
<path fill="none" stroke="black" d="M224.74,-965.42C242.95,-979.04 267.98,-997.77 288.06,-1012.79"/>
<polygon fill="black" stroke="black" points="285.86,-1015.52 295.96,-1018.71 290.05,-1009.91 285.86,-1015.52"/>
</g>
<!-- serve&#45;&gt;shell -->
<g id="edge107" class="edge">
<title>serve&#45;&gt;shell</title>
<path fill="none" stroke="black" d="M226.22,-929.22C231.91,-924.25 237.38,-918.42 241.25,-912 279.13,-849.22 231.45,-808.26 277.25,-751 305.19,-716.07 333.87,-736.62 368.25,-708 389.3,-690.48 384.84,-677.32 404.25,-658 407.2,-655.06 410.45,-652.19 413.81,-649.46"/>
<polygon fill="black" stroke="black" points="415.79,-652.35 421.62,-643.5 411.54,-646.79 415.79,-652.35"/>
</g>
<!-- serve&#45;&gt;store -->
<g id="edge108" class="edge">
<title>serve&#45;&gt;store</title>
<path fill="none" stroke="black" d="M226.38,-947.77C310.29,-950.25 572.19,-957.98 670.54,-960.88"/>
<polygon fill="black" stroke="black" points="670.36,-964.38 680.46,-961.18 670.57,-957.38 670.36,-964.38"/>
</g>
<!-- sexp&#45;&gt;parse -->
<g id="edge109" class="edge">
<title>sexp&#45;&gt;parse</title>
<path fill="none" stroke="black" d="M1125.48,-604.43C1140.23,-685.45 1199.38,-1010.31 1217.62,-1110.45"/>
<polygon fill="black" stroke="black" points="1214.18,-1111.08 1219.41,-1120.29 1221.06,-1109.83 1214.18,-1111.08"/>
</g>
<!-- shell&#45;&gt;hol -->
<g id="edge110" class="edge">
<title>shell&#45;&gt;hol</title>
<path fill="none" stroke="black" d="M456.21,-607.58C465.18,-574.59 484,-503.14 496,-442 516.85,-335.73 467.76,-288.19 532,-201 599.7,-109.12 751.17,-101.76 821.79,-103.72"/>
<polygon fill="black" stroke="black" points="821.57,-107.21 831.69,-104.08 821.83,-100.22 821.57,-107.21"/>
</g>
<!-- shell&#45;&gt;kernel -->
<g id="edge111" class="edge">
<title>shell&#45;&gt;kernel</title>
<path fill="none" stroke="black" d="M462.42,-644.28C484.73,-680.4 534.57,-761.09 561.06,-803.97"/>
<polygon fill="black" stroke="black" points="558.08,-805.8 566.31,-812.47 564.03,-802.13 558.08,-805.8"/>
</g>
<!-- smt&#45;&gt;sat -->
<g id="edge112" class="edge">
<title>smt&#45;&gt;sat</title>
<path fill="none" stroke="black" d="M720.32,-307.23C730.78,-327.21 746.97,-360.5 756,-391 785.38,-490.21 765.64,-520.95 792,-621 806.35,-675.47 831.27,-736.35 846.45,-771.23"/>
<polygon fill="black" stroke="black" points="843.17,-772.47 850.4,-780.21 849.57,-769.65 843.17,-772.47"/>
</g>
<!-- smt&#45;&gt;sexp -->
<g id="edge113" class="edge">
<title>smt&#45;&gt;sexp</title>
<path fill="none" stroke="black" d="M736.48,-293.34C797.86,-304.8 953.06,-341.23 1045.25,-429 1082.48,-464.45 1103.31,-522.19 1113.08,-556.89"/>
<polygon fill="black" stroke="black" points="1109.62,-557.49 1115.59,-566.25 1116.38,-555.68 1109.62,-557.49"/>
</g>
<!-- smt&#45;&gt;types -->
<g id="edge114" class="edge">
<title>smt&#45;&gt;types</title>
<path fill="none" stroke="black" d="M736.61,-290.66C819.86,-295.83 1077.52,-311.07 1161,-307 1261.47,-302.11 1287.76,-305.45 1386.25,-285 1394.47,-283.29 1403.14,-280.89 1411.3,-278.35"/>
<polygon fill="black" stroke="black" points="1412.18,-281.74 1420.6,-275.31 1410,-275.09 1412.18,-281.74"/>
</g>
<!-- spectec&#45;&gt;grammar -->
<g id="edge115" class="edge">
<title>spectec&#45;&gt;grammar</title>
<path fill="none" stroke="black" d="M895.18,-462.1C913.42,-461.08 936.25,-459.8 956.28,-458.68"/>
<polygon fill="black" stroke="black" points="956.4,-462.18 966.19,-458.12 956.01,-455.19 956.4,-462.18"/>
</g>
<!-- store&#45;&gt;hash -->
<g id="edge116" class="edge">
<title>store&#45;&gt;hash</title>
<path fill="none" stroke="black" d="M718.6,-980.1C743.22,-1034.3 816.48,-1195.57 846.41,-1261.47"/>
<polygon fill="black" stroke="black" points="843.05,-1262.51 850.37,-1270.17 849.42,-1259.62 843.05,-1262.51"/>
</g>
<!-- store&#45;&gt;json -->
<g id="edge117" class="edge">
<title>store&#45;&gt;json</title>
<path fill="none" stroke="black" d="M736.61,-979.21C752.33,-989.15 772.9,-1001.52 792,-1011 801.7,-1015.82 812.48,-1020.44 822.52,-1024.46"/>
<polygon fill="black" stroke="black" points="821.04,-1027.64 831.62,-1028.01 823.58,-1021.12 821.04,-1027.64"/>
</g>
<!-- store&#45;&gt;sqlite -->
<g id="edge118" class="edge">
<title>store&#45;&gt;sqlite</title>
<path fill="none" stroke="black" d="M736.67,-965.88C760.32,-969.37 795.33,-974.54 821.91,-978.47"/>
<polygon fill="black" stroke="black" points="821.19,-981.9 831.6,-979.9 822.21,-974.98 821.19,-981.9"/>
</g>
<!-- wasm&#45;build&#45;guest -->
<g id="node47" class="node">
<title>wasm&#45;build&#45;guest</title>
<polygon fill="none" stroke="black" points="928.75,-910 792,-910 792,-874 928.75,-874 928.75,-910"/>
<text text-anchor="middle" x="860.38" y="-887.7" font-family="sans-serif" font-size="14.00">wasm&#45;build&#45;guest</text>
</g>
<!-- wasm&#45;build&#45;guest&#45;&gt;wasm -->
<g id="edge119" class="edge">
<title>wasm&#45;build&#45;guest&#45;&gt;wasm</title>
<path fill="none" stroke="black" d="M921.03,-910.41C936.57,-915.2 952.87,-920.23 966.87,-924.55"/>
<polygon fill="black" stroke="black" points="965.51,-927.79 976.1,-927.39 967.57,-921.1 965.51,-927.79"/>
</g>
<!-- wasm&#45;spec -->
<g id="node48" class="node">
<title>wasm&#45;spec</title>
<polygon fill="none" stroke="black" points="756,-1148 662.75,-1148 662.75,-1112 756,-1112 756,-1148"/>
<text text-anchor="middle" x="709.38" y="-1125.7" font-family="sans-serif" font-size="14.00">wasm&#45;spec</text>
</g>
<!-- wasm&#45;spec&#45;&gt;hash -->
<g id="edge120" class="edge">
<title>wasm&#45;spec&#45;&gt;hash</title>
<path fill="none" stroke="black" d="M739.32,-1148.46C745.07,-1152.63 750.91,-1157.24 756,-1162 789.27,-1193.09 821.19,-1235.1 840.54,-1262.37"/>
<polygon fill="black" stroke="black" points="837.61,-1264.28 846.21,-1270.46 843.34,-1260.26 837.61,-1264.28"/>
</g>
<!-- wasm&#45;spec&#45;&gt;wasm -->
<g id="edge121" class="edge">
<title>wasm&#45;spec&#45;&gt;wasm</title>
<path fill="none" stroke="black" d="M756.07,-1135.18C803.84,-1138.1 878.68,-1135.34 928.75,-1098 971.93,-1065.8 991.16,-1002.71 999.06,-965.48"/>
<polygon fill="black" stroke="black" points="1002.46,-966.34 1000.95,-955.86 995.59,-964.99 1002.46,-966.34"/>
</g>
<!-- wasm&#45;store&#45;&gt;json -->
<g id="edge122" class="edge">
<title>wasm&#45;store&#45;&gt;json</title>
<path fill="none" stroke="black" d="M611.47,-1149.57C616.94,-1145.52 622.3,-1140.94 626.75,-1136 649.11,-1111.17 635.49,-1089.32 662.75,-1070 709.85,-1036.63 779.12,-1033.17 821.63,-1034.8"/>
<polygon fill="black" stroke="black" points="821.45,-1038.3 831.61,-1035.32 821.81,-1031.31 821.45,-1038.3"/>
</g>
<!-- wasm&#45;store&#45;&gt;store -->
<g id="edge123" class="edge">
<title>wasm&#45;store&#45;&gt;store</title>
<path fill="none" stroke="black" d="M593.22,-1149.56C602.78,-1135.61 615.99,-1115.86 626.75,-1098 643.99,-1069.38 645.61,-1060.68 662.75,-1032 671.14,-1017.95 681,-1002.68 689.4,-990.01"/>
<polygon fill="black" stroke="black" points="692.29,-991.99 694.93,-981.73 686.47,-988.1 692.29,-991.99"/>
</g>
<!-- wasm&#45;store&#45;&gt;wasm -->
<g id="edge124" class="edge">
<title>wasm&#45;store&#45;&gt;wasm</title>
<path fill="none" stroke="black" d="M608.29,-1149.66C614.49,-1145.34 620.94,-1140.63 626.75,-1136 643.72,-1122.47 643.13,-1112.28 662.75,-1103 770.7,-1051.93 829.67,-1131.67 928.75,-1065 964.04,-1041.25 985,-994.97 995.51,-964.79"/>
<polygon fill="black" stroke="black" points="998.75,-966.12 998.56,-955.52 992.1,-963.93 998.75,-966.12"/>
</g>
<!-- web&#45;kernel -->
<g id="node50" class="node">
<title>web&#45;kernel</title>
<polygon fill="none" stroke="black" points="496,-850 404.25,-850 404.25,-814 496,-814 496,-850"/>
<text text-anchor="middle" x="450.12" y="-827.7" font-family="sans-serif" font-size="14.00">web&#45;kernel</text>
</g>
<!-- web&#45;kernel&#45;&gt;kernel -->
<g id="edge125" class="edge">
<title>web&#45;kernel&#45;&gt;kernel</title>
<path fill="none" stroke="black" d="M496.35,-832C510.27,-832 525.48,-832 538.98,-832"/>
<polygon fill="black" stroke="black" points="538.81,-835.5 548.81,-832 538.81,-828.5 538.81,-835.5"/>
</g>
</g>
</svg>
