<?xml version="1.0" encoding="UTF-8" standalone="no"?>
<!DOCTYPE svg PUBLIC "-//W3C//DTD SVG 1.1//EN"
 "http://www.w3.org/Graphics/SVG/1.1/DTD/svg11.dtd">
<!-- Generated by graphviz version 12.2.1 (0)
 -->
<!-- Title: deps Pages: 1 -->
<svg width="1454pt" height="2430pt"
 viewBox="0.00 0.00 1453.50 2430.23" xmlns="http://www.w3.org/2000/svg" xmlns:xlink="http://www.w3.org/1999/xlink">
<g id="graph0" class="graph" transform="scale(1 1) rotate(0) translate(4 2426.23)">
<title>deps</title>
<polygon fill="white" stroke="none" points="-4,4 -4,-2426.23 1449.5,-2426.23 1449.5,4 -4,4"/>
<!-- covalence -->
<g id="node1" class="node">
<title>covalence</title>
<polygon fill="none" stroke="black" points="102.62,-1374.72 18.38,-1374.72 18.38,-1338.72 102.62,-1338.72 102.62,-1374.72"/>
<text text-anchor="middle" x="60.5" y="-1352.42" font-family="sans-serif" font-size="14.00">covalence</text>
</g>
<!-- client -->
<g id="node5" class="node">
<title>client</title>
<polygon fill="none" stroke="black" points="350.12,-1157.72 296.12,-1157.72 296.12,-1121.72 350.12,-1121.72 350.12,-1157.72"/>
<text text-anchor="middle" x="323.12" y="-1135.42" font-family="sans-serif" font-size="14.00">client</text>
</g>
<!-- covalence&#45;&gt;client -->
<g id="edge1" class="edge">
<title>covalence&#45;&gt;client</title>
<path fill="none" stroke="black" d="M65.37,-1338.29C74.31,-1300.51 100.15,-1214.3 157,-1171.72 193.96,-1144.04 248.26,-1138.35 284.38,-1138.04"/>
<polygon fill="black" stroke="black" points="284.34,-1141.54 294.36,-1138.11 284.39,-1134.54 284.34,-1141.54"/>
</g>
<!-- fuse -->
<g id="node11" class="node">
<title>fuse</title>
<polygon fill="none" stroke="black" points="582.38,-1515.72 528.38,-1515.72 528.38,-1479.72 582.38,-1479.72 582.38,-1515.72"/>
<text text-anchor="middle" x="555.38" y="-1493.42" font-family="sans-serif" font-size="14.00">fuse</text>
</g>
<!-- covalence&#45;&gt;fuse -->
<g id="edge2" class="edge">
<title>covalence&#45;&gt;fuse</title>
<path fill="none" stroke="black" d="M102.94,-1362.51C139.62,-1368.07 194.45,-1377.43 241.25,-1389.72 343.14,-1416.48 459.55,-1460.25 517.52,-1482.98"/>
<polygon fill="black" stroke="black" points="515.99,-1486.13 526.58,-1486.54 518.56,-1479.62 515.99,-1486.13"/>
</g>
<!-- git -->
<g id="node12" class="node">
<title>git</title>
<polygon fill="none" stroke="black" points="465.5,-1599.72 411.5,-1599.72 411.5,-1563.72 465.5,-1563.72 465.5,-1599.72"/>
<text text-anchor="middle" x="438.5" y="-1577.42" font-family="sans-serif" font-size="14.00">git</text>
</g>
<!-- covalence&#45;&gt;git -->
<g id="edge3" class="edge">
<title>covalence&#45;&gt;git</title>
<path fill="none" stroke="black" d="M102.75,-1370.67C148.2,-1386.45 217.97,-1411.99 241.25,-1427.72 260.53,-1440.75 258.39,-1452.1 277.25,-1465.72 313.76,-1492.08 332.83,-1481.89 369,-1508.72 388.21,-1522.97 388.6,-1531.31 405,-1548.72 406.98,-1550.82 409.04,-1552.98 411.12,-1555.14"/>
<polygon fill="black" stroke="black" points="408.59,-1557.56 418.08,-1562.28 413.6,-1552.67 408.59,-1557.56"/>
</g>
<!-- hash -->
<g id="node15" class="node">
<title>hash</title>
<polygon fill="none" stroke="black" points="863.38,-1675.72 809.38,-1675.72 809.38,-1639.72 863.38,-1639.72 863.38,-1675.72"/>
<text text-anchor="middle" x="836.38" y="-1653.42" font-family="sans-serif" font-size="14.00">hash</text>
</g>
<!-- covalence&#45;&gt;hash -->
<g id="edge4" class="edge">
<title>covalence&#45;&gt;hash</title>
<path fill="none" stroke="black" d="M63.74,-1374.97C77.15,-1475.36 156.02,-1955.72 437.5,-1955.72 437.5,-1955.72 437.5,-1955.72 556.38,-1955.72 641.96,-1955.72 670.93,-1936.68 732,-1876.72 787.2,-1822.53 816.45,-1733.11 828.54,-1687.1"/>
<polygon fill="black" stroke="black" points="831.89,-1688.14 830.94,-1677.58 825.1,-1686.42 831.89,-1688.14"/>
</g>
<!-- hol -->
<g id="node17" class="node">
<title>hol</title>
<polygon fill="none" stroke="black" points="863.38,-297.72 809.38,-297.72 809.38,-261.72 863.38,-261.72 863.38,-297.72"/>
<text text-anchor="middle" x="836.38" y="-275.42" font-family="sans-serif" font-size="14.00">hol</text>
</g>
<!-- covalence&#45;&gt;hol -->
<g id="edge5" class="edge">
<title>covalence&#45;&gt;hol</title>
<path fill="none" stroke="black" d="M61.3,-1338.27C60.14,-1184.4 61.5,-119.72 322.12,-119.72 322.12,-119.72 322.12,-119.72 556.38,-119.72 662.56,-119.72 764.94,-208.01 810.58,-253.42"/>
<polygon fill="black" stroke="black" points="807.85,-255.63 817.36,-260.29 812.83,-250.71 807.85,-255.63"/>
</g>
<!-- lsp -->
<g id="node29" class="node">
<title>lsp</title>
<polygon fill="none" stroke="black" points="863.38,-1429.72 809.38,-1429.72 809.38,-1393.72 863.38,-1393.72 863.38,-1429.72"/>
<text text-anchor="middle" x="836.38" y="-1407.42" font-family="sans-serif" font-size="14.00">lsp</text>
</g>
<!-- covalence&#45;&gt;lsp -->
<g id="edge6" class="edge">
<title>covalence&#45;&gt;lsp</title>
<path fill="none" stroke="black" d="M102.96,-1351.83C154.32,-1346.2 244.55,-1337.72 322.12,-1337.72 322.12,-1337.72 322.12,-1337.72 439.5,-1337.72 530.91,-1337.72 548.87,-1372.04 638.75,-1388.72 693.68,-1398.92 758.14,-1405.44 797.87,-1408.84"/>
<polygon fill="black" stroke="black" points="797.36,-1412.31 807.62,-1409.65 797.94,-1405.33 797.36,-1412.31"/>
</g>
<!-- object -->
<g id="node32" class="node">
<title>object</title>
<polygon fill="none" stroke="black" points="714,-1591.72 656.75,-1591.72 656.75,-1555.72 714,-1555.72 714,-1591.72"/>
<text text-anchor="middle" x="685.38" y="-1569.42" font-family="sans-serif" font-size="14.00">object</text>
</g>
<!-- covalence&#45;&gt;object -->
<g id="edge7" class="edge">
<title>covalence&#45;&gt;object</title>
<path fill="none" stroke="black" d="M67.02,-1375.01C78.3,-1409.33 107.2,-1483.6 157,-1524.72 168.22,-1533.98 390.65,-1606.36 405,-1608.72 434.38,-1613.56 442.28,-1610.64 472,-1608.72 530.48,-1604.94 545.03,-1601.82 602.75,-1591.72 616.82,-1589.26 632.14,-1586.03 645.67,-1582.99"/>
<polygon fill="black" stroke="black" points="646.1,-1586.48 655.06,-1580.83 644.54,-1579.65 646.1,-1586.48"/>
</g>
<!-- opentheory -->
<g id="node33" class="node">
<title>opentheory</title>
<polygon fill="none" stroke="black" points="368.62,-80.72 277.62,-80.72 277.62,-44.72 368.62,-44.72 368.62,-80.72"/>
<text text-anchor="middle" x="323.12" y="-58.42" font-family="sans-serif" font-size="14.00">opentheory</text>
</g>
<!-- covalence&#45;&gt;opentheory -->
<g id="edge8" class="edge">
<title>covalence&#45;&gt;opentheory</title>
<path fill="none" stroke="black" d="M61.64,-1338.24C62.89,-1190.53 74.33,-204.65 157,-105.72 183.25,-74.31 229.29,-64.28 266.09,-61.7"/>
<polygon fill="black" stroke="black" points="265.87,-65.22 275.67,-61.2 265.5,-58.23 265.87,-65.22"/>
</g>
<!-- proto -->
<g id="node37" class="node">
<title>proto</title>
<polygon fill="none" stroke="black" points="350.12,-1553.72 296.12,-1553.72 296.12,-1517.72 350.12,-1517.72 350.12,-1553.72"/>
<text text-anchor="middle" x="323.12" y="-1531.42" font-family="sans-serif" font-size="14.00">proto</text>
</g>
<!-- covalence&#45;&gt;proto -->
<g id="edge9" class="edge">
<title>covalence&#45;&gt;proto</title>
<path fill="none" stroke="black" d="M83.9,-1375.05C102.79,-1390.1 130.85,-1411.48 157,-1427.72 192.72,-1449.9 206.72,-1446.74 241.25,-1470.72 259.08,-1483.1 260.38,-1490.06 277.25,-1503.72 280.32,-1506.2 283.56,-1508.72 286.85,-1511.19"/>
<polygon fill="black" stroke="black" points="284.74,-1513.99 294.87,-1517.08 288.88,-1508.34 284.74,-1513.99"/>
</g>
<!-- repl -->
<g id="node43" class="node">
<title>repl</title>
<polygon fill="none" stroke="black" points="350.12,-1797.72 296.12,-1797.72 296.12,-1761.72 350.12,-1761.72 350.12,-1797.72"/>
<text text-anchor="middle" x="323.12" y="-1775.42" font-family="sans-serif" font-size="14.00">repl</text>
</g>
<!-- covalence&#45;&gt;repl -->
<g id="edge10" class="edge">
<title>covalence&#45;&gt;repl</title>
<path fill="none" stroke="black" d="M68.79,-1375.08C83.44,-1411.18 118.37,-1493.49 157,-1557.72 201.68,-1631.99 265.41,-1711.86 299.14,-1752.53"/>
<polygon fill="black" stroke="black" points="296.39,-1754.7 305.48,-1760.14 301.77,-1750.22 296.39,-1754.7"/>
</g>
<!-- serve -->
<g id="node46" class="node">
<title>serve</title>
<polygon fill="none" stroke="black" points="226.12,-1309.72 172.12,-1309.72 172.12,-1273.72 226.12,-1273.72 226.12,-1309.72"/>
<text text-anchor="middle" x="199.12" y="-1287.42" font-family="sans-serif" font-size="14.00">serve</text>
</g>
<!-- covalence&#45;&gt;serve -->
<g id="edge11" class="edge">
<title>covalence&#45;&gt;serve</title>
<path fill="none" stroke="black" d="M100.29,-1338.27C119.5,-1329.13 142.57,-1318.15 161.49,-1309.15"/>
<polygon fill="black" stroke="black" points="162.9,-1312.35 170.43,-1304.9 159.9,-1306.03 162.9,-1312.35"/>
</g>
<!-- shell -->
<g id="node48" class="node">
<title>shell</title>
<polygon fill="none" stroke="black" points="465.5,-1027.72 411.5,-1027.72 411.5,-991.72 465.5,-991.72 465.5,-1027.72"/>
<text text-anchor="middle" x="438.5" y="-1005.42" font-family="sans-serif" font-size="14.00">shell</text>
</g>
<!-- covalence&#45;&gt;shell -->
<g id="edge12" class="edge">
<title>covalence&#45;&gt;shell</title>
<path fill="none" stroke="black" d="M63.56,-1338.48C71.43,-1272.19 102.05,-1045.78 157,-1003.72 228.4,-949.07 342.69,-976.36 400.88,-995.83"/>
<polygon fill="black" stroke="black" points="399.38,-999.01 409.97,-998.98 401.67,-992.4 399.38,-999.01"/>
</g>
<!-- store -->
<g id="node52" class="node">
<title>store</title>
<polygon fill="none" stroke="black" points="712.38,-1379.72 658.38,-1379.72 658.38,-1343.72 712.38,-1343.72 712.38,-1379.72"/>
<text text-anchor="middle" x="685.38" y="-1357.42" font-family="sans-serif" font-size="14.00">store</text>
</g>
<!-- covalence&#45;&gt;store -->
<g id="edge13" class="edge">
<title>covalence&#45;&gt;store</title>
<path fill="none" stroke="black" d="M73.74,-1338.29C89.79,-1315.97 120.28,-1279.53 157,-1264.72 248.84,-1227.68 336.99,-1195.1 602.75,-1301.72 621.56,-1309.27 622.45,-1317.68 638.75,-1329.72 642.06,-1332.16 645.52,-1334.68 649.01,-1337.17"/>
<polygon fill="black" stroke="black" points="646.74,-1339.86 656.92,-1342.79 650.79,-1334.15 646.74,-1339.86"/>
</g>
<!-- wasm -->
<g id="node55" class="node">
<title>wasm</title>
<polygon fill="none" stroke="black" points="1004.75,-2286.72 950.5,-2286.72 950.5,-2250.72 1004.75,-2250.72 1004.75,-2286.72"/>
<text text-anchor="middle" x="977.62" y="-2264.42" font-family="sans-serif" font-size="14.00">wasm</text>
</g>
<!-- covalence&#45;&gt;wasm -->
<g id="edge14" class="edge">
<title>covalence&#45;&gt;wasm</title>
<path fill="none" stroke="black" d="M62.51,-1374.88C66.53,-1436.91 84.96,-1645.05 157,-1797.72 232.89,-1958.55 279.87,-1985.36 405,-2111.72 529.18,-2237.13 592.58,-2253.28 768,-2272.72 827.44,-2279.31 896.98,-2275.74 938.87,-2272.37"/>
<polygon fill="black" stroke="black" points="939,-2275.87 948.67,-2271.54 938.41,-2268.89 939,-2275.87"/>
</g>
<!-- acset -->
<g id="node2" class="node">
<title>acset</title>
<polygon fill="none" stroke="black" points="863.38,-2171.72 809.38,-2171.72 809.38,-2135.72 863.38,-2135.72 863.38,-2171.72"/>
<text text-anchor="middle" x="836.38" y="-2149.42" font-family="sans-serif" font-size="14.00">acset</text>
</g>
<!-- alethe -->
<g id="node3" class="node">
<title>alethe</title>
<polygon fill="none" stroke="black" points="583.62,-593.72 527.12,-593.72 527.12,-557.72 583.62,-557.72 583.62,-593.72"/>
<text text-anchor="middle" x="555.38" y="-571.42" font-family="sans-serif" font-size="14.00">alethe</text>
</g>
<!-- core -->
<g id="node6" class="node">
<title>core</title>
<polygon fill="#ffd6d6" stroke="black" points="1004.62,-415.72 950.62,-415.72 950.62,-379.72 1004.62,-379.72 1004.62,-415.72"/>
<text text-anchor="middle" x="977.62" y="-393.42" font-family="sans-serif" font-size="14.00">core</text>
</g>
<!-- alethe&#45;&gt;core -->
<g id="edge15" class="edge">
<title>alethe&#45;&gt;core</title>
<path fill="none" stroke="black" d="M578.25,-557.41C623.41,-520 726.19,-436.98 768,-420.72 824.65,-398.68 896.06,-395.6 938.93,-396.13"/>
<polygon fill="black" stroke="black" points="938.65,-399.62 948.72,-396.33 938.8,-392.62 938.65,-399.62"/>
</g>
<!-- hol&#45;eval -->
<g id="node19" class="node">
<title>hol&#45;eval</title>
<polygon fill="none" stroke="black" points="871.38,-519.72 801.38,-519.72 801.38,-483.72 871.38,-483.72 871.38,-519.72"/>
<text text-anchor="middle" x="836.38" y="-497.42" font-family="sans-serif" font-size="14.00">hol&#45;eval</text>
</g>
<!-- alethe&#45;&gt;hol&#45;eval -->
<g id="edge16" class="edge">
<title>alethe&#45;&gt;hol&#45;eval</title>
<path fill="none" stroke="black" d="M584.05,-574.73C619.17,-572.84 681.28,-567.39 732,-551.72 749.09,-546.44 751.92,-541.56 768,-533.72 775.36,-530.13 783.2,-526.36 790.83,-522.72"/>
<polygon fill="black" stroke="black" points="792.14,-525.97 799.67,-518.52 789.13,-519.65 792.14,-525.97"/>
</g>
<!-- init -->
<g id="node21" class="node">
<title>init</title>
<polygon fill="none" stroke="black" points="712.38,-663.72 658.38,-663.72 658.38,-627.72 712.38,-627.72 712.38,-663.72"/>
<text text-anchor="middle" x="685.38" y="-641.42" font-family="sans-serif" font-size="14.00">init</text>
</g>
<!-- alethe&#45;&gt;init -->
<g id="edge17" class="edge">
<title>alethe&#45;&gt;init</title>
<path fill="none" stroke="black" d="M583.83,-590.74C602.69,-601.05 627.9,-614.84 648.36,-626.03"/>
<polygon fill="black" stroke="black" points="646.49,-628.99 656.94,-630.72 649.85,-622.85 646.49,-628.99"/>
</g>
<!-- sexp -->
<g id="node47" class="node">
<title>sexp</title>
<polygon fill="none" stroke="black" points="1004.62,-993.72 950.62,-993.72 950.62,-957.72 1004.62,-957.72 1004.62,-993.72"/>
<text text-anchor="middle" x="977.62" y="-971.42" font-family="sans-serif" font-size="14.00">sexp</text>
</g>
<!-- alethe&#45;&gt;sexp -->
<g id="edge18" class="edge">
<title>alethe&#45;&gt;sexp</title>
<path fill="none" stroke="black" d="M558.06,-594.03C563.01,-638.82 580.99,-755.71 638.75,-830.72 680.4,-884.81 705.94,-885.27 768,-913.72 825.3,-939.99 896.51,-958.35 939.17,-967.95"/>
<polygon fill="black" stroke="black" points="938.41,-971.37 948.93,-970.1 939.92,-964.53 938.41,-971.37"/>
</g>
<!-- smt -->
<g id="node49" class="node">
<title>smt</title>
<polygon fill="none" stroke="black" points="712.38,-821.72 658.38,-821.72 658.38,-785.72 712.38,-785.72 712.38,-821.72"/>
<text text-anchor="middle" x="685.38" y="-799.42" font-family="sans-serif" font-size="14.00">smt</text>
</g>
<!-- alethe&#45;&gt;smt -->
<g id="edge19" class="edge">
<title>alethe&#45;&gt;smt</title>
<path fill="none" stroke="black" d="M566.63,-593.99C588.92,-633.68 641.87,-728 668.5,-775.45"/>
<polygon fill="black" stroke="black" points="665.38,-777.03 673.33,-784.04 671.48,-773.61 665.38,-777.03"/>
</g>
<!-- types -->
<g id="node54" class="node">
<title>types</title>
<polygon fill="#ffd6d6" stroke="black" points="1445.5,-553.72 1391.5,-553.72 1391.5,-517.72 1445.5,-517.72 1445.5,-553.72"/>
<text text-anchor="middle" x="1418.5" y="-531.42" font-family="sans-serif" font-size="14.00">types</text>
</g>
<!-- alethe&#45;&gt;types -->
<g id="edge20" class="edge">
<title>alethe&#45;&gt;types</title>
<path fill="none" stroke="black" d="M567.27,-557.42C589.36,-520.35 637.43,-439.8 638.75,-438.72 671,-412.34 942.56,-325.72 976.62,-325.72 976.62,-325.72 976.62,-325.72 1194.25,-325.72 1277.43,-325.72 1297.81,-360.8 1355.5,-420.72 1379.51,-445.66 1396.93,-481.74 1407.08,-506.81"/>
<polygon fill="black" stroke="black" points="1403.79,-508.01 1410.68,-516.06 1410.32,-505.47 1403.79,-508.01"/>
</g>
<!-- arrow -->
<g id="node4" class="node">
<title>arrow</title>
<polygon fill="none" stroke="black" points="582.38,-1851.72 528.38,-1851.72 528.38,-1815.72 582.38,-1815.72 582.38,-1851.72"/>
<text text-anchor="middle" x="555.38" y="-1829.42" font-family="sans-serif" font-size="14.00">arrow</text>
</g>
<!-- client&#45;&gt;hash -->
<g id="edge21" class="edge">
<title>client&#45;&gt;hash</title>
<path fill="none" stroke="black" d="M328.67,-1158C344.25,-1217.45 400.54,-1408.19 508,-1524.72 587.25,-1610.66 729.91,-1642.35 797.67,-1652.94"/>
<polygon fill="black" stroke="black" points="797.13,-1656.4 807.54,-1654.4 798.16,-1649.47 797.13,-1656.4"/>
</g>
<!-- client&#45;&gt;shell -->
<g id="edge22" class="edge">
<title>client&#45;&gt;shell</title>
<path fill="none" stroke="black" d="M350.58,-1124.05C357.13,-1119.35 363.76,-1113.81 369,-1107.72 392.07,-1080.9 382.93,-1064.38 405,-1036.72 405.07,-1036.63 405.15,-1036.53 405.22,-1036.44"/>
<polygon fill="black" stroke="black" points="407.68,-1038.94 411.97,-1029.25 402.58,-1034.15 407.68,-1038.94"/>
</g>
<!-- client&#45;&gt;store -->
<g id="edge23" class="edge">
<title>client&#45;&gt;store</title>
<path fill="none" stroke="black" d="M350.35,-1143.09C404.36,-1151.33 529.1,-1177.24 602.75,-1247.72 631.51,-1275.24 613.52,-1298.93 638.75,-1329.72 641.79,-1333.43 645.35,-1336.89 649.13,-1340.08"/>
<polygon fill="black" stroke="black" points="646.91,-1342.78 656.98,-1346.06 651.15,-1337.21 646.91,-1342.78"/>
</g>
<!-- pure -->
<g id="node38" class="node">
<title>pure</title>
<polygon fill="#ffd6d6" stroke="black" points="1220.25,-461.72 1166.25,-461.72 1166.25,-425.72 1220.25,-425.72 1220.25,-461.72"/>
<text text-anchor="middle" x="1193.25" y="-439.42" font-family="sans-serif" font-size="14.00">pure</text>
</g>
<!-- core&#45;&gt;pure -->
<g id="edge24" class="edge">
<title>core&#45;&gt;pure</title>
<path fill="none" stroke="black" d="M1004.95,-403.16C1035.21,-409.44 1086.36,-420.13 1130.25,-429.72 1138.24,-431.47 1146.79,-433.37 1154.92,-435.2"/>
<polygon fill="black" stroke="black" points="1154.02,-438.59 1164.55,-437.38 1155.56,-431.76 1154.02,-438.59"/>
</g>
<!-- pure&#45;eval -->
<g id="node39" class="node">
<title>pure&#45;eval</title>
<polygon fill="#ffd6d6" stroke="black" points="1130.25,-507.72 1050.5,-507.72 1050.5,-471.72 1130.25,-471.72 1130.25,-507.72"/>
<text text-anchor="middle" x="1090.38" y="-485.42" font-family="sans-serif" font-size="14.00">pure&#45;eval</text>
</g>
<!-- core&#45;&gt;pure&#45;eval -->
<g id="edge25" class="edge">
<title>core&#45;&gt;pure&#45;eval</title>
<path fill="none" stroke="black" d="M1000.77,-416.12C1017.3,-429.84 1040.08,-448.77 1058.41,-464"/>
<polygon fill="black" stroke="black" points="1056.17,-466.69 1066.1,-470.39 1060.65,-461.31 1056.17,-466.69"/>
</g>
<!-- core&#45;&gt;types -->
<g id="edge26" class="edge">
<title>core&#45;&gt;types</title>
<path fill="none" stroke="black" d="M983.72,-416.14C992.38,-443.53 1012.81,-494.15 1050.5,-516.72 1155.75,-579.75 1309.96,-558.81 1380.18,-544.49"/>
<polygon fill="black" stroke="black" points="1380.57,-547.98 1389.63,-542.49 1379.12,-541.13 1380.57,-547.98"/>
</g>
<!-- core&#45;test&#45;guest -->
<g id="node7" class="node">
<title>core&#45;test&#45;guest</title>
<polygon fill="none" stroke="black" points="121,-1805.72 0,-1805.72 0,-1769.72 121,-1769.72 121,-1805.72"/>
<text text-anchor="middle" x="60.5" y="-1783.42" font-family="sans-serif" font-size="14.00">core&#45;test&#45;guest</text>
</g>
<!-- crypto&#45;sig -->
<g id="node8" class="node">
<title>crypto&#45;sig</title>
<polygon fill="none" stroke="black" points="241.25,-2149.72 157,-2149.72 157,-2113.72 241.25,-2113.72 241.25,-2149.72"/>
<text text-anchor="middle" x="199.12" y="-2127.42" font-family="sans-serif" font-size="14.00">crypto&#45;sig</text>
</g>
<!-- egglog -->
<g id="node9" class="node">
<title>egglog</title>
<polygon fill="none" stroke="black" points="866.88,-833.72 805.88,-833.72 805.88,-797.72 866.88,-797.72 866.88,-833.72"/>
<text text-anchor="middle" x="836.38" y="-811.42" font-family="sans-serif" font-size="14.00">egglog</text>
</g>
<!-- egglog&#45;&gt;sexp -->
<g id="edge27" class="edge">
<title>egglog&#45;&gt;sexp</title>
<path fill="none" stroke="black" d="M867.29,-825.31C879.93,-830.46 894.15,-837.82 904.75,-847.72 934.51,-875.52 955.12,-918.48 966.41,-946.85"/>
<polygon fill="black" stroke="black" points="963.03,-947.81 969.87,-955.89 969.57,-945.3 963.03,-947.81"/>
</g>
<!-- egglog&#45;&gt;types -->
<g id="edge28" class="edge">
<title>egglog&#45;&gt;types</title>
<path fill="none" stroke="black" d="M867.1,-809.67C914.08,-800.65 1008.49,-784.72 1089.38,-784.72 1089.38,-784.72 1089.38,-784.72 1194.25,-784.72 1269.97,-784.72 1302.48,-783.78 1355.5,-729.72 1399.89,-684.46 1412.52,-607.43 1416.09,-565.34"/>
<polygon fill="black" stroke="black" points="1419.58,-565.69 1416.8,-555.47 1412.59,-565.19 1419.58,-565.69"/>
</g>
<!-- forsp -->
<g id="node10" class="node">
<title>forsp</title>
<polygon fill="none" stroke="black" points="465.5,-1081.72 411.5,-1081.72 411.5,-1045.72 465.5,-1045.72 465.5,-1081.72"/>
<text text-anchor="middle" x="438.5" y="-1059.42" font-family="sans-serif" font-size="14.00">forsp</text>
</g>
<!-- forsp&#45;&gt;hash -->
<g id="edge29" class="edge">
<title>forsp&#45;&gt;hash</title>
<path fill="none" stroke="black" d="M449.81,-1082.15C478.15,-1132.47 560.38,-1275.95 638.75,-1388.72 677.1,-1443.9 692.19,-1453.59 732,-1507.72 762.8,-1549.61 796.68,-1599.57 816.98,-1629.95"/>
<polygon fill="black" stroke="black" points="814.02,-1631.82 822.48,-1638.2 819.84,-1627.94 814.02,-1631.82"/>
</g>
<!-- repl&#45;core -->
<g id="node44" class="node">
<title>repl&#45;core</title>
<polygon fill="none" stroke="black" points="594.5,-913.72 516.25,-913.72 516.25,-877.72 594.5,-877.72 594.5,-913.72"/>
<text text-anchor="middle" x="555.38" y="-891.42" font-family="sans-serif" font-size="14.00">repl&#45;core</text>
</g>
<!-- forsp&#45;&gt;repl&#45;core -->
<g id="edge30" class="edge">
<title>forsp&#45;&gt;repl&#45;core</title>
<path fill="none" stroke="black" d="M463.99,-1045.29C466.87,-1042.59 469.62,-1039.7 472,-1036.72 494.07,-1009.06 490.2,-996.3 508,-965.72 516.36,-951.36 526.46,-935.92 535.11,-923.2"/>
<polygon fill="black" stroke="black" points="537.74,-925.54 540.52,-915.31 531.97,-921.58 537.74,-925.54"/>
</g>
<!-- forsp&#45;&gt;sexp -->
<g id="edge31" class="edge">
<title>forsp&#45;&gt;sexp</title>
<path fill="none" stroke="black" d="M465.75,-1053.42C478.32,-1048.97 493.73,-1044.22 508,-1041.72 681.81,-1011.35 737.87,-1085.03 904.75,-1027.72 921.04,-1022.13 936.82,-1011.49 949.42,-1001.29"/>
<polygon fill="black" stroke="black" points="951.48,-1004.14 956.84,-995 946.95,-998.8 951.48,-1004.14"/>
</g>
<!-- fuse&#45;&gt;hash -->
<g id="edge32" class="edge">
<title>fuse&#45;&gt;hash</title>
<path fill="none" stroke="black" d="M582.86,-1500.56C618.87,-1505.39 684.27,-1517.68 732,-1546.72 767.31,-1568.2 798.18,-1605.06 816.78,-1630.38"/>
<polygon fill="black" stroke="black" points="813.74,-1632.14 822.41,-1638.22 819.43,-1628.06 813.74,-1632.14"/>
</g>
<!-- fuse&#45;&gt;object -->
<g id="edge33" class="edge">
<title>fuse&#45;&gt;object</title>
<path fill="none" stroke="black" d="M582.59,-1513.28C601.07,-1524.26 626.09,-1539.12 646.71,-1551.36"/>
<polygon fill="black" stroke="black" points="644.74,-1554.26 655.12,-1556.35 648.31,-1548.24 644.74,-1554.26"/>
</g>
<!-- fuse&#45;&gt;store -->
<g id="edge34" class="edge">
<title>fuse&#45;&gt;store</title>
<path fill="none" stroke="black" d="M582.46,-1481.75C589.38,-1476.99 596.62,-1471.48 602.75,-1465.72 627.4,-1442.54 650.73,-1411.57 666.08,-1389.47"/>
<polygon fill="black" stroke="black" points="668.95,-1391.48 671.7,-1381.25 663.17,-1387.53 668.95,-1391.48"/>
</g>
<!-- git&#45;&gt;hash -->
<g id="edge35" class="edge">
<title>git&#45;&gt;hash</title>
<path fill="none" stroke="black" d="M457.46,-1600.04C470.33,-1611.9 488.73,-1626.44 508,-1633.72 607.41,-1671.28 735.71,-1666.86 798.05,-1661.68"/>
<polygon fill="black" stroke="black" points="798.1,-1665.19 807.75,-1660.82 797.48,-1658.22 798.1,-1665.19"/>
</g>
<!-- git&#45;&gt;object -->
<g id="edge36" class="edge">
<title>git&#45;&gt;object</title>
<path fill="none" stroke="black" d="M465.71,-1580.86C508.77,-1579.46 594.73,-1576.65 645.1,-1575"/>
<polygon fill="black" stroke="black" points="645.09,-1578.51 654.97,-1574.68 644.86,-1571.51 645.09,-1578.51"/>
</g>
<!-- sqlite -->
<g id="node51" class="node">
<title>sqlite</title>
<polygon fill="none" stroke="black" points="863.38,-1287.72 809.38,-1287.72 809.38,-1251.72 863.38,-1251.72 863.38,-1287.72"/>
<text text-anchor="middle" x="836.38" y="-1265.42" font-family="sans-serif" font-size="14.00">sqlite</text>
</g>
<!-- git&#45;&gt;sqlite -->
<g id="edge37" class="edge">
<title>git&#45;&gt;sqlite</title>
<path fill="none" stroke="black" d="M448.55,-1563.43C455.53,-1548.84 465.14,-1527.78 472,-1508.72 492.16,-1452.71 478.57,-1431.46 508,-1379.72 549.61,-1306.56 561.37,-1275.84 638.75,-1242.72 691.13,-1220.31 757.87,-1238.11 798.57,-1253.53"/>
<polygon fill="black" stroke="black" points="797.08,-1256.7 807.67,-1257.12 799.65,-1250.19 797.08,-1256.7"/>
</g>
<!-- git&#45;&gt;store -->
<g id="edge38" class="edge">
<title>git&#45;&gt;store</title>
<path fill="none" stroke="black" d="M447.83,-1563.34C464.98,-1525.6 503.08,-1442.46 508,-1437.72 547.14,-1400.01 607.96,-1379.51 646.97,-1369.59"/>
<polygon fill="black" stroke="black" points="647.72,-1373.01 656.61,-1367.26 646.07,-1366.21 647.72,-1373.01"/>
</g>
<!-- grammar -->
<g id="node13" class="node">
<title>grammar</title>
<polygon fill="none" stroke="black" points="1014.5,-649.72 940.75,-649.72 940.75,-613.72 1014.5,-613.72 1014.5,-649.72"/>
<text text-anchor="middle" x="977.62" y="-627.42" font-family="sans-serif" font-size="14.00">grammar</text>
</g>
<!-- graph -->
<g id="node14" class="node">
<title>graph</title>
<polygon fill="none" stroke="black" points="465.5,-2057.72 411.5,-2057.72 411.5,-2021.72 465.5,-2021.72 465.5,-2057.72"/>
<text text-anchor="middle" x="438.5" y="-2035.42" font-family="sans-serif" font-size="14.00">graph</text>
</g>
<!-- graph&#45;&gt;hash -->
<g id="edge39" class="edge">
<title>graph&#45;&gt;hash</title>
<path fill="none" stroke="black" d="M465.59,-2036.87C529.9,-2029.32 693.61,-2006.83 732,-1969.72 812.97,-1891.46 830.53,-1748.45 834.33,-1687.03"/>
<polygon fill="black" stroke="black" points="837.81,-1687.56 834.84,-1677.39 830.82,-1687.19 837.81,-1687.56"/>
</g>
<!-- parse -->
<g id="node35" class="node">
<title>parse</title>
<polygon fill="none" stroke="black" points="1117.38,-1207.72 1063.38,-1207.72 1063.38,-1171.72 1117.38,-1171.72 1117.38,-1207.72"/>
<text text-anchor="middle" x="1090.38" y="-1185.42" font-family="sans-serif" font-size="14.00">parse</text>
</g>
<!-- graph&#45;&gt;parse -->
<g id="edge40" class="edge">
<title>graph&#45;&gt;parse</title>
<path fill="none" stroke="black" d="M465.82,-2045.08C510.54,-2053.71 604.28,-2069.72 684.38,-2069.72 684.38,-2069.72 684.38,-2069.72 837.38,-2069.72 1018.41,-2069.72 1076.81,-1372.73 1087.47,-1219.34"/>
<polygon fill="black" stroke="black" points="1090.94,-1219.82 1088.13,-1209.61 1083.96,-1219.35 1090.94,-1219.82"/>
</g>
<!-- rand -->
<g id="node42" class="node">
<title>rand</title>
<polygon fill="none" stroke="black" points="1004.62,-1675.72 950.62,-1675.72 950.62,-1639.72 1004.62,-1639.72 1004.62,-1675.72"/>
<text text-anchor="middle" x="977.62" y="-1653.42" font-family="sans-serif" font-size="14.00">rand</text>
</g>
<!-- hash&#45;&gt;rand -->
<g id="edge41" class="edge">
<title>hash&#45;&gt;rand</title>
<path fill="none" stroke="black" d="M863.57,-1657.72C884.86,-1657.72 915.19,-1657.72 939.07,-1657.72"/>
<polygon fill="black" stroke="black" points="939.04,-1661.22 949.04,-1657.72 939.04,-1654.22 939.04,-1661.22"/>
</g>
<!-- haskell -->
<g id="node16" class="node">
<title>haskell</title>
<polygon fill="none" stroke="black" points="469.75,-479.72 407.25,-479.72 407.25,-443.72 469.75,-443.72 469.75,-479.72"/>
<text text-anchor="middle" x="438.5" y="-457.42" font-family="sans-serif" font-size="14.00">haskell</text>
</g>
<!-- hol&#45;api -->
<g id="node18" class="node">
<title>hol&#45;api</title>
<polygon fill="none" stroke="black" points="586.62,-357.72 524.12,-357.72 524.12,-321.72 586.62,-321.72 586.62,-357.72"/>
<text text-anchor="middle" x="555.38" y="-335.42" font-family="sans-serif" font-size="14.00">hol&#45;api</text>
</g>
<!-- haskell&#45;&gt;hol&#45;api -->
<g id="edge42" class="edge">
<title>haskell&#45;&gt;hol&#45;api</title>
<path fill="none" stroke="black" d="M450.89,-443.47C463.41,-424.26 484.85,-393.82 508,-371.72 510.47,-369.37 513.12,-367.06 515.87,-364.83"/>
<polygon fill="black" stroke="black" points="517.79,-367.77 523.63,-358.93 513.55,-362.19 517.79,-367.77"/>
</g>
<!-- haskell&#45;&gt;hol&#45;eval -->
<g id="edge43" class="edge">
<title>haskell&#45;&gt;hol&#45;eval</title>
<path fill="none" stroke="black" d="M469.89,-463.49C523.11,-466.76 636.62,-474.44 732,-485.72 750.94,-487.96 771.73,-491.05 789.67,-493.93"/>
<polygon fill="black" stroke="black" points="789.08,-497.37 799.51,-495.53 790.2,-490.46 789.08,-497.37"/>
</g>
<!-- haskell&#45;&gt;init -->
<g id="edge44" class="edge">
<title>haskell&#45;&gt;init</title>
<path fill="none" stroke="black" d="M443.11,-479.96C450.1,-510.26 468.39,-570.77 508,-602.72 547.79,-634.82 607.97,-643.51 646.73,-645.56"/>
<polygon fill="black" stroke="black" points="646.38,-649.05 656.51,-645.95 646.65,-642.06 646.38,-649.05"/>
</g>
<!-- haskell&#45;&gt;types -->
<g id="edge45" class="edge">
<title>haskell&#45;&gt;types</title>
<path fill="none" stroke="black" d="M446.31,-443.65C457.45,-414.96 481.05,-357.64 508,-312.72 599.62,-160.03 657.3,-81.72 835.38,-81.72 835.38,-81.72 835.38,-81.72 1194.25,-81.72 1269.42,-81.72 1306.59,-75.65 1355.5,-132.72 1403.75,-189.02 1414.55,-423.01 1416.88,-506.2"/>
<polygon fill="black" stroke="black" points="1413.38,-506.14 1417.13,-516.05 1420.38,-505.96 1413.38,-506.14"/>
</g>
<!-- hol&#45;&gt;core -->
<g id="edge46" class="edge">
<title>hol&#45;&gt;core</title>
<path fill="none" stroke="black" d="M859.13,-298.16C882.64,-318.08 920.24,-349.94 946.56,-372.25"/>
<polygon fill="black" stroke="black" points="943.97,-374.64 953.87,-378.43 948.5,-369.3 943.97,-374.64"/>
</g>
<!-- hol&#45;api&#45;&gt;core -->
<g id="edge47" class="edge">
<title>hol&#45;api&#45;&gt;core</title>
<path fill="none" stroke="black" d="M581.16,-321.5C641.17,-279.8 797.22,-186 904.75,-252.72 945.33,-277.9 963.71,-333.56 971.48,-368.13"/>
<polygon fill="black" stroke="black" points="968.05,-368.82 973.5,-377.91 974.9,-367.41 968.05,-368.82"/>
</g>
<!-- hol&#45;api&#45;&gt;hol&#45;eval -->
<g id="edge48" class="edge">
<title>hol&#45;api&#45;&gt;hol&#45;eval</title>
<path fill="none" stroke="black" d="M587.06,-357.43C622.54,-378.17 682.43,-414 732,-447.72 748.54,-458.97 750.57,-464.92 768,-474.72 775.02,-478.67 782.73,-482.33 790.35,-485.59"/>
<polygon fill="black" stroke="black" points="789,-488.82 799.58,-489.37 791.65,-482.35 789,-488.82"/>
</g>
<!-- inductive -->
<g id="node20" class="node">
<title>inductive</title>
<polygon fill="none" stroke="black" points="874.75,-465.72 798,-465.72 798,-429.72 874.75,-429.72 874.75,-465.72"/>
<text text-anchor="middle" x="836.38" y="-443.42" font-family="sans-serif" font-size="14.00">inductive</text>
</g>
<!-- hol&#45;api&#45;&gt;inductive -->
<g id="edge49" class="edge">
<title>hol&#45;api&#45;&gt;inductive</title>
<path fill="none" stroke="black" d="M587.11,-330.88C623.42,-322.14 684.86,-312.83 732,-333.72 771.59,-351.27 802.49,-392.3 819.83,-420.04"/>
<polygon fill="black" stroke="black" points="816.65,-421.54 824.82,-428.29 822.64,-417.92 816.65,-421.54"/>
</g>
<!-- hol&#45;api&#45;&gt;init -->
<g id="edge50" class="edge">
<title>hol&#45;api&#45;&gt;init</title>
<path fill="none" stroke="black" d="M564,-357.95C585.43,-409.18 646.34,-554.8 672.36,-616.99"/>
<polygon fill="black" stroke="black" points="669.12,-618.32 676.21,-626.19 675.58,-615.62 669.12,-618.32"/>
</g>
<!-- hol&#45;api&#45;&gt;pure -->
<g id="edge51" class="edge">
<title>hol&#45;api&#45;&gt;pure</title>
<path fill="none" stroke="black" d="M565.78,-321.46C578.78,-298.32 604.54,-259.24 638.75,-240.72 742.88,-184.35 792.52,-187.98 904.75,-225.72 1019.01,-264.14 1123.95,-367.99 1169.02,-417.19"/>
<polygon fill="black" stroke="black" points="1166.15,-419.24 1175.46,-424.31 1171.35,-414.55 1166.15,-419.24"/>
</g>
<!-- hol&#45;api&#45;&gt;types -->
<g id="edge52" class="edge">
<title>hol&#45;api&#45;&gt;types</title>
<path fill="none" stroke="black" d="M561.81,-321.37C571.8,-290.93 596.1,-230.21 638.75,-198.72 762.83,-107.13 822.41,-119.72 976.62,-119.72 976.62,-119.72 976.62,-119.72 1194.25,-119.72 1369.75,-119.72 1407.85,-410.73 1415.62,-505.96"/>
<polygon fill="black" stroke="black" points="1412.12,-506.09 1416.36,-515.8 1419.1,-505.56 1412.12,-506.09"/>
</g>
<!-- hol&#45;eval&#45;&gt;core -->
<g id="edge53" class="edge">
<title>hol&#45;eval&#45;&gt;core</title>
<path fill="none" stroke="black" d="M871.7,-491.84C882.89,-487.65 894.94,-482.01 904.75,-474.72 925.32,-459.45 923.13,-448.31 940.75,-429.72 942.66,-427.71 944.68,-425.68 946.74,-423.67"/>
<polygon fill="black" stroke="black" points="948.81,-426.53 953.72,-417.14 944.03,-421.41 948.81,-426.53"/>
</g>
<!-- hol&#45;eval&#45;&gt;pure -->
<g id="edge54" class="edge">
<title>hol&#45;eval&#45;&gt;pure</title>
<path fill="none" stroke="black" d="M871.62,-494.93C913.65,-486.72 987.16,-472.76 1050.5,-462.72 1085.74,-457.14 1126.08,-451.84 1154.69,-448.26"/>
<polygon fill="black" stroke="black" points="1154.81,-451.77 1164.31,-447.07 1153.95,-444.82 1154.81,-451.77"/>
</g>
<!-- hol&#45;eval&#45;&gt;pure&#45;eval -->
<g id="edge55" class="edge">
<title>hol&#45;eval&#45;&gt;pure&#45;eval</title>
<path fill="none" stroke="black" d="M871.62,-500.09C914.73,-498.04 989.13,-494.49 1038.79,-492.13"/>
<polygon fill="black" stroke="black" points="1038.9,-495.63 1048.72,-491.66 1038.57,-488.64 1038.9,-495.63"/>
</g>
<!-- hol&#45;eval&#45;&gt;sexp -->
<g id="edge56" class="edge">
<title>hol&#45;eval&#45;&gt;sexp</title>
<path fill="none" stroke="black" d="M852.69,-520.21C868.22,-539.92 891.74,-572.64 904.75,-604.72 953.63,-725.24 969.91,-881.56 974.76,-945.98"/>
<polygon fill="black" stroke="black" points="971.26,-946.02 975.46,-955.74 978.24,-945.52 971.26,-946.02"/>
</g>
<!-- hol&#45;eval&#45;&gt;types -->
<g id="edge57" class="edge">
<title>hol&#45;eval&#45;&gt;types</title>
<path fill="none" stroke="black" d="M871.55,-518.06C919.2,-539.3 1008.84,-573.72 1089.38,-573.72 1089.38,-573.72 1089.38,-573.72 1194.25,-573.72 1266.19,-573.72 1285.42,-575.98 1355.5,-559.72 1363.77,-557.8 1372.41,-555 1380.52,-551.99"/>
<polygon fill="black" stroke="black" points="1381.73,-555.28 1389.76,-548.36 1379.17,-548.76 1381.73,-555.28"/>
</g>
<!-- init&#45;&gt;core -->
<g id="edge58" class="edge">
<title>init&#45;&gt;core</title>
<path fill="none" stroke="black" d="M711.84,-627.42C727.63,-616.44 748.55,-602.55 768,-591.72 826.46,-559.17 855.8,-574.35 904.75,-528.72 935.24,-500.3 955.77,-455.95 966.83,-426.86"/>
<polygon fill="black" stroke="black" points="970.08,-428.18 970.22,-417.58 963.5,-425.78 970.08,-428.18"/>
</g>
<!-- init&#45;&gt;grammar -->
<g id="edge59" class="edge">
<title>init&#45;&gt;grammar</title>
<path fill="none" stroke="black" d="M712.74,-628.52C728.16,-619.49 748.4,-609.37 768,-604.72 827.14,-590.7 844.95,-593.86 904.75,-604.72 912.96,-606.21 921.44,-608.59 929.58,-611.32"/>
<polygon fill="black" stroke="black" points="928.4,-614.61 938.99,-614.72 930.77,-608.03 928.4,-614.61"/>
</g>
<!-- init&#45;&gt;hash -->
<g id="edge60" class="edge">
<title>init&#45;&gt;hash</title>
<path fill="none" stroke="black" d="M694.55,-663.92C705.31,-688.81 723.8,-735.14 732,-776.72 789.02,-1065.81 716.29,-1148.64 768,-1438.72 780.44,-1508.52 808.22,-1587.29 823.95,-1628.7"/>
<polygon fill="black" stroke="black" points="820.64,-1629.86 827.5,-1637.94 827.18,-1627.35 820.64,-1629.86"/>
</g>
<!-- init&#45;&gt;hol -->
<g id="edge61" class="edge">
<title>init&#45;&gt;hol</title>
<path fill="none" stroke="black" d="M692.34,-627.41C705.08,-588.76 736.36,-496.22 768,-420.72 784.65,-381.01 806.55,-336.34 820.79,-308.12"/>
<polygon fill="black" stroke="black" points="823.76,-310.01 825.17,-299.51 817.52,-306.84 823.76,-310.01"/>
</g>
<!-- init&#45;&gt;hol&#45;eval -->
<g id="edge62" class="edge">
<title>init&#45;&gt;hol&#45;eval</title>
<path fill="none" stroke="black" d="M702.12,-627.47C711.17,-616.71 722.58,-602.71 732,-589.72 749.37,-565.77 745.78,-553.26 768,-533.72 774.7,-527.83 782.67,-522.79 790.75,-518.57"/>
<polygon fill="black" stroke="black" points="792.09,-521.81 799.59,-514.32 789.06,-515.5 792.09,-521.81"/>
</g>
<!-- init&#45;&gt;inductive -->
<g id="edge63" class="edge">
<title>init&#45;&gt;inductive</title>
<path fill="none" stroke="black" d="M695.37,-627.39C704.63,-608.47 719.44,-578.09 732,-551.72 748.25,-517.62 740.55,-500.67 768,-474.72 773.54,-469.49 780.22,-465.22 787.19,-461.75"/>
<polygon fill="black" stroke="black" points="788.38,-465.05 796.14,-457.84 785.57,-458.64 788.38,-465.05"/>
</g>
<!-- k -->
<g id="node23" class="node">
<title>k</title>
<polygon fill="none" stroke="black" points="863.38,-779.72 809.38,-779.72 809.38,-743.72 863.38,-743.72 863.38,-779.72"/>
<text text-anchor="middle" x="836.38" y="-757.42" font-family="sans-serif" font-size="14.00">k</text>
</g>
<!-- init&#45;&gt;k -->
<g id="edge64" class="edge">
<title>init&#45;&gt;k</title>
<path fill="none" stroke="black" d="M709.98,-664.1C735.05,-683.62 774.84,-714.59 802.86,-736.41"/>
<polygon fill="black" stroke="black" points="800.64,-739.12 810.68,-742.5 804.94,-733.59 800.64,-739.12"/>
</g>
<!-- metamath -->
<g id="node30" class="node">
<title>metamath</title>
<polygon fill="none" stroke="black" points="876.62,-1115.72 796.12,-1115.72 796.12,-1079.72 876.62,-1079.72 876.62,-1115.72"/>
<text text-anchor="middle" x="836.38" y="-1093.42" font-family="sans-serif" font-size="14.00">metamath</text>
</g>
<!-- init&#45;&gt;metamath -->
<g id="edge65" class="edge">
<title>init&#45;&gt;metamath</title>
<path fill="none" stroke="black" d="M692.86,-663.9C701.83,-689.15 718.46,-736.3 732,-776.72 767.95,-884 808.53,-1012.24 826.27,-1068.66"/>
<polygon fill="black" stroke="black" points="822.91,-1069.64 829.24,-1078.13 829.59,-1067.54 822.91,-1069.64"/>
</g>
<!-- init&#45;&gt;sexp -->
<g id="edge66" class="edge">
<title>init&#45;&gt;sexp</title>
<path fill="none" stroke="black" d="M692.84,-663.91C709.49,-710.32 753.51,-830.33 768,-842.72 815.52,-883.35 852.87,-840.82 904.75,-875.72 931.24,-893.54 951.29,-924.61 963.39,-947.39"/>
<polygon fill="black" stroke="black" points="960.2,-948.84 967.85,-956.16 966.44,-945.66 960.2,-948.84"/>
</g>
<!-- spectec -->
<g id="node50" class="node">
<title>spectec</title>
<polygon fill="none" stroke="black" points="871,-649.72 801.75,-649.72 801.75,-613.72 871,-613.72 871,-649.72"/>
<text text-anchor="middle" x="836.38" y="-627.42" font-family="sans-serif" font-size="14.00">spectec</text>
</g>
<!-- init&#45;&gt;spectec -->
<g id="edge67" class="edge">
<title>init&#45;&gt;spectec</title>
<path fill="none" stroke="black" d="M712.67,-643.25C734.12,-641.24 764.9,-638.34 790.27,-635.96"/>
<polygon fill="black" stroke="black" points="790.35,-639.47 799.98,-635.05 789.7,-632.5 790.35,-639.47"/>
</g>
<!-- init&#45;&gt;types -->
<g id="edge68" class="edge">
<title>init&#45;&gt;types</title>
<path fill="none" stroke="black" d="M712.68,-650.58C763.5,-659.53 878.78,-677.72 976.62,-677.72 976.62,-677.72 976.62,-677.72 1194.25,-677.72 1279.2,-677.72 1357.92,-603.62 1395.08,-562.48"/>
<polygon fill="black" stroke="black" points="1397.57,-564.94 1401.57,-555.13 1392.32,-560.3 1397.57,-564.94"/>
</g>
<!-- json -->
<g id="node22" class="node">
<title>json</title>
<polygon fill="none" stroke="black" points="863.38,-1375.72 809.38,-1375.72 809.38,-1339.72 863.38,-1339.72 863.38,-1375.72"/>
<text text-anchor="middle" x="836.38" y="-1353.42" font-family="sans-serif" font-size="14.00">json</text>
</g>
<!-- k&#45;&gt;grammar -->
<g id="edge69" class="edge">
<title>k&#45;&gt;grammar</title>
<path fill="none" stroke="black" d="M857.03,-743.37C880.98,-721.01 921.59,-683.1 948.76,-657.73"/>
<polygon fill="black" stroke="black" points="951.04,-660.39 955.96,-651.01 946.26,-655.28 951.04,-660.39"/>
</g>
<!-- k&#45;&gt;parse -->
<g id="edge70" class="edge">
<title>k&#45;&gt;parse</title>
<path fill="none" stroke="black" d="M863.57,-768.27C876.89,-772.53 892.75,-779.11 904.75,-788.72 972.05,-842.63 976.9,-871.12 1014.5,-948.72 1049.65,-1021.26 1072.95,-1114.01 1083.28,-1160.46"/>
<polygon fill="black" stroke="black" points="1079.81,-1160.98 1085.36,-1170.01 1086.65,-1159.5 1079.81,-1160.98"/>
</g>
<!-- k&#45;&gt;sexp -->
<g id="edge71" class="edge">
<title>k&#45;&gt;sexp</title>
<path fill="none" stroke="black" d="M863.56,-766.88C877.37,-770.8 893.69,-777.5 904.75,-788.72 910.58,-794.64 947.74,-895.87 966.22,-946.86"/>
<polygon fill="black" stroke="black" points="962.86,-947.87 969.56,-956.08 969.44,-945.49 962.86,-947.87"/>
</g>
<!-- kernel -->
<g id="node24" class="node">
<title>kernel</title>
<polygon fill="none" stroke="black" points="584,-1119.72 526.75,-1119.72 526.75,-1083.72 584,-1083.72 584,-1119.72"/>
<text text-anchor="middle" x="555.38" y="-1097.42" font-family="sans-serif" font-size="14.00">kernel</text>
</g>
<!-- kernel&#45;&gt;hash -->
<g id="edge72" class="edge">
<title>kernel&#45;&gt;hash</title>
<path fill="none" stroke="black" d="M584.35,-1116.08C591.28,-1120.84 598.06,-1126.74 602.75,-1133.72 644.15,-1195.28 590.92,-1240.01 638.75,-1296.72 667.6,-1330.93 701.6,-1301.88 732,-1334.72 737.21,-1340.34 802.35,-1550.58 826.47,-1628.8"/>
<polygon fill="black" stroke="black" points="822.99,-1629.37 829.28,-1637.89 829.68,-1627.3 822.99,-1629.37"/>
</g>
<!-- kernel&#45;&gt;init -->
<g id="edge73" class="edge">
<title>kernel&#45;&gt;init</title>
<path fill="none" stroke="black" d="M571.85,-1083.38C582.32,-1069.95 595.51,-1050.8 602.75,-1031.72 643.36,-924.71 611.8,-887.96 638.75,-776.72 647.44,-740.84 662.09,-700.95 672.44,-674.72"/>
<polygon fill="black" stroke="black" points="675.69,-676.03 676.15,-665.44 669.19,-673.42 675.69,-676.03"/>
</g>
<!-- kernel&#45;&gt;object -->
<g id="edge74" class="edge">
<title>kernel&#45;&gt;object</title>
<path fill="none" stroke="black" d="M561.31,-1119.93C580.79,-1191.76 652.39,-1455.79 676.44,-1544.46"/>
<polygon fill="black" stroke="black" points="672.99,-1545.11 678.99,-1553.85 679.75,-1543.28 672.99,-1545.11"/>
</g>
<!-- kernel&#45;&gt;sexp -->
<g id="edge75" class="edge">
<title>kernel&#45;&gt;sexp</title>
<path fill="none" stroke="black" d="M584.35,-1113.79C647.2,-1138.89 802.08,-1189.18 904.75,-1124.72 946.49,-1098.51 964.57,-1040.49 971.95,-1005.08"/>
<polygon fill="black" stroke="black" points="975.34,-1005.98 973.78,-995.51 968.46,-1004.67 975.34,-1005.98"/>
</g>
<!-- kernel&#45;&gt;store -->
<g id="edge76" class="edge">
<title>kernel&#45;&gt;store</title>
<path fill="none" stroke="black" d="M584.04,-1115.64C591.13,-1120.45 598.07,-1126.49 602.75,-1133.72 650.86,-1208.08 590.93,-1255.17 638.75,-1329.72 641.53,-1334.05 645.12,-1337.96 649.07,-1341.45"/>
<polygon fill="black" stroke="black" points="646.84,-1344.15 656.91,-1347.45 651.1,-1338.59 646.84,-1344.15"/>
</g>
<!-- kv -->
<g id="node25" class="node">
<title>kv</title>
<polygon fill="none" stroke="black" points="226.12,-2095.72 172.12,-2095.72 172.12,-2059.72 226.12,-2059.72 226.12,-2095.72"/>
<text text-anchor="middle" x="199.12" y="-2073.42" font-family="sans-serif" font-size="14.00">kv</text>
</g>
<!-- lean -->
<g id="node26" class="node">
<title>lean</title>
<polygon fill="none" stroke="black" points="87.5,-1859.72 33.5,-1859.72 33.5,-1823.72 87.5,-1823.72 87.5,-1859.72"/>
<text text-anchor="middle" x="60.5" y="-1837.42" font-family="sans-serif" font-size="14.00">lean</text>
</g>
<!-- lisp -->
<g id="node27" class="node">
<title>lisp</title>
<polygon fill="none" stroke="black" points="465.5,-677.72 411.5,-677.72 411.5,-641.72 465.5,-641.72 465.5,-677.72"/>
<text text-anchor="middle" x="438.5" y="-655.42" font-family="sans-serif" font-size="14.00">lisp</text>
</g>
<!-- lisp&#45;&gt;core -->
<g id="edge77" class="edge">
<title>lisp&#45;&gt;core</title>
<path fill="none" stroke="black" d="M443.05,-641.6C450.11,-610.04 468.73,-544.66 508,-505.72 597.47,-417.01 644.64,-418.37 768,-392.72 826.72,-380.51 896.74,-386.18 938.89,-391.72"/>
<polygon fill="black" stroke="black" points="938.37,-395.18 948.76,-393.09 939.34,-388.25 938.37,-395.18"/>
</g>
<!-- lisp&#45;&gt;hol&#45;api -->
<g id="edge78" class="edge">
<title>lisp&#45;&gt;hol&#45;api</title>
<path fill="none" stroke="black" d="M443.09,-641.26C454.86,-581.29 492.43,-394.47 508,-371.72 510.1,-368.65 512.6,-365.79 515.33,-363.14"/>
<polygon fill="black" stroke="black" points="517.48,-365.91 522.9,-356.81 512.99,-360.54 517.48,-365.91"/>
</g>
<!-- lisp&#45;&gt;hol&#45;eval -->
<g id="edge79" class="edge">
<title>lisp&#45;&gt;hol&#45;eval</title>
<path fill="none" stroke="black" d="M445.31,-641.24C454.34,-615.85 474.29,-570.82 508,-548.72 594.93,-491.74 722.62,-491.84 789.95,-496.79"/>
<polygon fill="black" stroke="black" points="789.26,-500.25 799.51,-497.57 789.82,-493.27 789.26,-500.25"/>
</g>
<!-- lisp&#45;&gt;init -->
<g id="edge80" class="edge">
<title>lisp&#45;&gt;init</title>
<path fill="none" stroke="black" d="M465.71,-658.22C509.23,-655.73 596.56,-650.74 646.69,-647.88"/>
<polygon fill="black" stroke="black" points="646.69,-651.38 656.48,-647.32 646.29,-644.39 646.69,-651.38"/>
</g>
<!-- lisp&#45;&gt;repl&#45;core -->
<g id="edge81" class="edge">
<title>lisp&#45;&gt;repl&#45;core</title>
<path fill="none" stroke="black" d="M445.79,-678.18C456.71,-709.39 480.65,-774.23 508,-825.72 515.66,-840.15 525.5,-855.35 534.14,-867.9"/>
<polygon fill="black" stroke="black" points="531.27,-869.9 539.88,-876.08 537.01,-865.88 531.27,-869.9"/>
</g>
<!-- lisp&#45;&gt;sexp -->
<g id="edge82" class="edge">
<title>lisp&#45;&gt;sexp</title>
<path fill="none" stroke="black" d="M451.67,-678.1C489.96,-733.86 614.51,-900.42 768,-950.72 825.54,-969.58 896.18,-974.49 938.74,-975.62"/>
<polygon fill="black" stroke="black" points="938.64,-979.11 948.71,-975.81 938.78,-972.12 938.64,-979.11"/>
</g>
<!-- llm -->
<g id="node28" class="node">
<title>llm</title>
<polygon fill="none" stroke="black" points="226.12,-1515.72 172.12,-1515.72 172.12,-1479.72 226.12,-1479.72 226.12,-1515.72"/>
<text text-anchor="middle" x="199.12" y="-1493.42" font-family="sans-serif" font-size="14.00">llm</text>
</g>
<!-- llm&#45;&gt;proto -->
<g id="edge83" class="edge">
<title>llm&#45;&gt;proto</title>
<path fill="none" stroke="black" d="M226.6,-1505.97C243.62,-1511.27 266,-1518.24 284.82,-1524.1"/>
<polygon fill="black" stroke="black" points="283.67,-1527.41 294.26,-1527.04 285.75,-1520.73 283.67,-1527.41"/>
</g>
<!-- lsp&#45;&gt;sexp -->
<g id="edge84" class="edge">
<title>lsp&#45;&gt;sexp</title>
<path fill="none" stroke="black" d="M863.77,-1407.53C878,-1403.89 894.66,-1397.15 904.75,-1384.72 952.34,-1326.09 970.17,-1089.57 975.08,-1005.53"/>
<polygon fill="black" stroke="black" points="978.57,-1005.75 975.64,-995.57 971.59,-1005.36 978.57,-1005.75"/>
</g>
<!-- lsp&#45;&gt;wasm -->
<g id="edge85" class="edge">
<title>lsp&#45;&gt;wasm</title>
<path fill="none" stroke="black" d="M844.33,-1430.16C858.12,-1467.46 888.93,-1554.78 904.75,-1630.72 952.88,-1861.81 970.56,-2147.15 975.24,-2238.86"/>
<polygon fill="black" stroke="black" points="971.74,-2238.93 975.73,-2248.74 978.73,-2238.58 971.74,-2238.93"/>
</g>
<!-- metamath&#45;&gt;parse -->
<g id="edge86" class="edge">
<title>metamath&#45;&gt;parse</title>
<path fill="none" stroke="black" d="M877.03,-1112.2C925.15,-1129.76 1005.64,-1159.15 1052.48,-1176.25"/>
<polygon fill="black" stroke="black" points="1051.05,-1179.45 1061.64,-1179.6 1053.45,-1172.88 1051.05,-1179.45"/>
</g>
<!-- metamath&#45;&gt;sexp -->
<g id="edge87" class="edge">
<title>metamath&#45;&gt;sexp</title>
<path fill="none" stroke="black" d="M876.91,-1082.61C886.52,-1077.97 896.43,-1072.32 904.75,-1065.72 926.77,-1048.27 946.27,-1022.86 959.38,-1003.49"/>
<polygon fill="black" stroke="black" points="962.23,-1005.53 964.81,-995.25 956.39,-1001.68 962.23,-1005.53"/>
</g>
<!-- multiformat -->
<g id="node31" class="node">
<title>multiformat</title>
<polygon fill="none" stroke="black" points="730.5,-2133.72 640.25,-2133.72 640.25,-2097.72 730.5,-2097.72 730.5,-2133.72"/>
<text text-anchor="middle" x="685.38" y="-2111.42" font-family="sans-serif" font-size="14.00">multiformat</text>
</g>
<!-- multiformat&#45;&gt;acset -->
<g id="edge88" class="edge">
<title>multiformat&#45;&gt;acset</title>
<path fill="none" stroke="black" d="M730.68,-2127.02C752.15,-2132.49 777.64,-2139 798.1,-2144.21"/>
<polygon fill="black" stroke="black" points="797.17,-2147.59 807.72,-2146.67 798.9,-2140.81 797.17,-2147.59"/>
</g>
<!-- multiformat&#45;&gt;hash -->
<g id="edge89" class="edge">
<title>multiformat&#45;&gt;hash</title>
<path fill="none" stroke="black" d="M700.69,-2097.35C710.68,-2083.74 723.68,-2064.41 732,-2045.72 788.6,-1918.63 819.78,-1753.88 830.77,-1687.43"/>
<polygon fill="black" stroke="black" points="834.21,-1688.13 832.35,-1677.7 827.3,-1687.01 834.21,-1688.13"/>
</g>
<!-- multiformat&#45;&gt;parse -->
<g id="edge90" class="edge">
<title>multiformat&#45;&gt;parse</title>
<path fill="none" stroke="black" d="M730.72,-2118.07C811.07,-2121.28 975.96,-2122.79 1014.5,-2083.72 1076.54,-2020.83 1087.42,-1367.28 1089.1,-1219.37"/>
<polygon fill="black" stroke="black" points="1092.59,-1219.67 1089.2,-1209.63 1085.59,-1219.59 1092.59,-1219.67"/>
</g>
<!-- object&#45;&gt;hash -->
<g id="edge91" class="edge">
<title>object&#45;&gt;hash</title>
<path fill="none" stroke="black" d="M714.4,-1589.52C738.36,-1603.03 773.01,-1622.56 799.09,-1637.26"/>
<polygon fill="black" stroke="black" points="797.23,-1640.23 807.66,-1642.09 800.66,-1634.13 797.23,-1640.23"/>
</g>
<!-- object&#45;&gt;parse -->
<g id="edge92" class="edge">
<title>object&#45;&gt;parse</title>
<path fill="none" stroke="black" d="M714.15,-1560.86C757.97,-1539.68 844.37,-1494.22 904.75,-1438.72 979.5,-1370.02 1044.35,-1267.35 1073.29,-1218.09"/>
<polygon fill="black" stroke="black" points="1076.31,-1219.85 1078.31,-1209.45 1070.26,-1216.33 1076.31,-1219.85"/>
</g>
<!-- opentheory&#45;&gt;hol -->
<g id="edge93" class="edge">
<title>opentheory&#45;&gt;hol</title>
<path fill="none" stroke="black" d="M369.03,-54.85C449.29,-43.33 619.45,-30.65 732,-105.72 759.8,-124.26 751.15,-142.87 768,-171.72 784.16,-199.4 803.64,-230.38 817.48,-252.04"/>
<polygon fill="black" stroke="black" points="814.44,-253.77 822.78,-260.3 820.33,-249.99 814.44,-253.77"/>
</g>
<!-- parquet -->
<g id="node34" class="node">
<title>parquet</title>
<polygon fill="none" stroke="black" points="472,-1813.72 405,-1813.72 405,-1777.72 472,-1777.72 472,-1813.72"/>
<text text-anchor="middle" x="438.5" y="-1791.42" font-family="sans-serif" font-size="14.00">parquet</text>
</g>
<!-- parquet&#45;&gt;arrow -->
<g id="edge94" class="edge">
<title>parquet&#45;&gt;arrow</title>
<path fill="none" stroke="black" d="M472.42,-1806.61C486.47,-1811.26 502.94,-1816.71 517.41,-1821.49"/>
<polygon fill="black" stroke="black" points="515.98,-1824.71 526.57,-1824.52 518.18,-1818.06 515.98,-1824.71"/>
</g>
<!-- proptest -->
<g id="node36" class="node">
<title>proptest</title>
<polygon fill="none" stroke="black" points="95.88,-1913.72 25.12,-1913.72 25.12,-1877.72 95.88,-1877.72 95.88,-1913.72"/>
<text text-anchor="middle" x="60.5" y="-1891.42" font-family="sans-serif" font-size="14.00">proptest</text>
</g>
<!-- pure&#45;trusted -->
<g id="node40" class="node">
<title>pure&#45;trusted</title>
<polygon fill="#ffd6d6" stroke="black" points="1355.5,-465.72 1256.25,-465.72 1256.25,-429.72 1355.5,-429.72 1355.5,-465.72"/>
<text text-anchor="middle" x="1305.88" y="-443.42" font-family="sans-serif" font-size="14.00">pure&#45;trusted</text>
</g>
<!-- pure&#45;&gt;pure&#45;trusted -->
<g id="edge95" class="edge">
<title>pure&#45;&gt;pure&#45;trusted</title>
<path fill="none" stroke="black" d="M1220.75,-444.68C1228.04,-444.94 1236.27,-445.24 1244.64,-445.54"/>
<polygon fill="black" stroke="black" points="1244.45,-449.04 1254.57,-445.9 1244.7,-442.04 1244.45,-449.04"/>
</g>
<!-- pure&#45;eval&#45;&gt;pure -->
<g id="edge96" class="edge">
<title>pure&#45;eval&#45;&gt;pure</title>
<path fill="none" stroke="black" d="M1130.66,-471.8C1138.9,-468.05 1147.54,-464.11 1155.67,-460.4"/>
<polygon fill="black" stroke="black" points="1156.96,-463.66 1164.6,-456.33 1154.05,-457.29 1156.96,-463.66"/>
</g>
<!-- pure&#45;eval&#45;&gt;types -->
<g id="edge97" class="edge">
<title>pure&#45;eval&#45;&gt;types</title>
<path fill="none" stroke="black" d="M1130.49,-493.21C1182.21,-498.1 1276.08,-507.98 1355.5,-521.72 1363.48,-523.1 1371.98,-524.84 1380.05,-526.62"/>
<polygon fill="black" stroke="black" points="1379.06,-529.99 1389.59,-528.79 1380.62,-523.16 1379.06,-529.99"/>
</g>
<!-- pure&#45;trusted&#45;&gt;types -->
<g id="edge98" class="edge">
<title>pure&#45;trusted&#45;&gt;types</title>
<path fill="none" stroke="black" d="M1334.25,-466.1C1341.28,-471.03 1348.76,-476.46 1355.5,-481.72 1366.83,-490.58 1378.85,-500.83 1389.26,-510.01"/>
<polygon fill="black" stroke="black" points="1386.65,-512.37 1396.44,-516.4 1391.3,-507.14 1386.65,-512.37"/>
</g>
<!-- python -->
<g id="node41" class="node">
<title>python</title>
<polygon fill="none" stroke="black" points="91.38,-1751.72 29.62,-1751.72 29.62,-1715.72 91.38,-1715.72 91.38,-1751.72"/>
<text text-anchor="middle" x="60.5" y="-1729.42" font-family="sans-serif" font-size="14.00">python</text>
</g>
<!-- python&#45;&gt;crypto&#45;sig -->
<g id="edge99" class="edge">
<title>python&#45;&gt;crypto&#45;sig</title>
<path fill="none" stroke="black" d="M91.6,-1740.62C102.56,-1744.66 113.97,-1750.97 121,-1760.72 208.78,-1882.5 83.19,-1969.29 158.48,-2103.68"/>
<polygon fill="black" stroke="black" points="155.37,-2105.32 163.48,-2112.14 161.4,-2101.75 155.37,-2105.32"/>
</g>
<!-- python&#45;&gt;git -->
<g id="edge100" class="edge">
<title>python&#45;&gt;git</title>
<path fill="none" stroke="black" d="M91.85,-1715.61C110.32,-1704.99 134.6,-1691.74 157,-1681.72 241.82,-1643.79 345.79,-1609.83 400.22,-1592.96"/>
<polygon fill="black" stroke="black" points="401.08,-1596.36 409.61,-1590.07 399.02,-1589.67 401.08,-1596.36"/>
</g>
<!-- python&#45;&gt;graph -->
<g id="edge101" class="edge">
<title>python&#45;&gt;graph</title>
<path fill="none" stroke="black" d="M91.71,-1740.88C102.55,-1744.95 113.84,-1751.2 121,-1760.72 187.67,-1849.39 77.34,-1930.51 157,-2007.72 222.16,-2070.89 339.8,-2059.42 399.92,-2048.24"/>
<polygon fill="black" stroke="black" points="400.52,-2051.69 409.66,-2046.32 399.17,-2044.82 400.52,-2051.69"/>
</g>
<!-- python&#45;&gt;hash -->
<g id="edge102" class="edge">
<title>python&#45;&gt;hash</title>
<path fill="none" stroke="black" d="M91.67,-1740.57C102.64,-1744.6 114.04,-1750.92 121,-1760.72 172.42,-1833.13 91.44,-2098.82 157,-2158.72 184.64,-2183.98 204.25,-2164.49 241.25,-2158.72 467.51,-2123.41 571.51,-2165.08 732,-2001.72 819.43,-1912.73 833.34,-1752.76 835.25,-1687.08"/>
<polygon fill="black" stroke="black" points="838.74,-1687.54 835.45,-1677.47 831.74,-1687.39 838.74,-1687.54"/>
</g>
<!-- python&#45;&gt;kv -->
<g id="edge103" class="edge">
<title>python&#45;&gt;kv</title>
<path fill="none" stroke="black" d="M91.81,-1740.81C102.65,-1744.87 113.93,-1751.13 121,-1760.72 196.76,-1863.49 93.83,-1934.77 157,-2045.72 158.84,-2048.94 161.14,-2051.96 163.71,-2054.74"/>
<polygon fill="black" stroke="black" points="161.2,-2057.19 170.93,-2061.38 165.94,-2052.03 161.2,-2057.19"/>
</g>
<!-- python&#45;&gt;llm -->
<g id="edge104" class="edge">
<title>python&#45;&gt;llm</title>
<path fill="none" stroke="black" d="M72.04,-1715.27C89.59,-1684.59 125.92,-1621.18 157,-1567.72 165.05,-1553.88 174.06,-1538.53 181.58,-1525.74"/>
<polygon fill="black" stroke="black" points="184.43,-1527.81 186.49,-1517.42 178.4,-1524.26 184.43,-1527.81"/>
</g>
<!-- python&#45;&gt;object -->
<g id="edge105" class="edge">
<title>python&#45;&gt;object</title>
<path fill="none" stroke="black" d="M91.62,-1743.92C101.59,-1748.16 112.34,-1753.75 121,-1760.72 227.59,-1846.46 185.33,-1993.72 322.12,-1993.72 322.12,-1993.72 322.12,-1993.72 439.5,-1993.72 620.43,-1993.72 670.05,-1699.26 681.41,-1603.45"/>
<polygon fill="black" stroke="black" points="684.88,-1603.87 682.52,-1593.54 677.92,-1603.09 684.88,-1603.87"/>
</g>
<!-- python&#45;&gt;repl -->
<g id="edge106" class="edge">
<title>python&#45;&gt;repl</title>
<path fill="none" stroke="black" d="M91.65,-1739.04C139.49,-1747.49 232.67,-1763.93 284.7,-1773.12"/>
<polygon fill="black" stroke="black" points="283.81,-1776.51 294.27,-1774.8 285.03,-1769.62 283.81,-1776.51"/>
</g>
<!-- sat -->
<g id="node45" class="node">
<title>sat</title>
<polygon fill="none" stroke="black" points="863.38,-1207.72 809.38,-1207.72 809.38,-1171.72 863.38,-1171.72 863.38,-1207.72"/>
<text text-anchor="middle" x="836.38" y="-1185.42" font-family="sans-serif" font-size="14.00">sat</text>
</g>
<!-- python&#45;&gt;sat -->
<g id="edge107" class="edge">
<title>python&#45;&gt;sat</title>
<path fill="none" stroke="black" d="M77.11,-1715.5C94.8,-1695.81 125.31,-1664.57 157,-1644.72 167.7,-1638.02 359.82,-1571.39 369,-1562.72 477.61,-1460.17 391.98,-1350.8 508,-1256.72 593.44,-1187.44 731.92,-1184.03 797.99,-1186.92"/>
<polygon fill="black" stroke="black" points="797.4,-1190.4 807.57,-1187.42 797.76,-1183.41 797.4,-1190.4"/>
</g>
<!-- python&#45;&gt;serve -->
<g id="edge108" class="edge">
<title>python&#45;&gt;serve</title>
<path fill="none" stroke="black" d="M67.2,-1715.29C88.45,-1646.55 163.19,-1404.73 189.16,-1320.73"/>
<polygon fill="black" stroke="black" points="192.5,-1321.77 192.11,-1311.19 185.81,-1319.71 192.5,-1321.77"/>
</g>
<!-- python&#45;&gt;sexp -->
<g id="edge109" class="edge">
<title>python&#45;&gt;sexp</title>
<path fill="none" stroke="black" d="M64.88,-1715.55C74.44,-1663.8 102.21,-1511.16 121,-1383.72 130.41,-1319.91 122.59,-1150.27 157,-1095.72 190.86,-1042.05 219.36,-1044.72 277.25,-1018.72 331.06,-994.55 346.62,-991.15 405,-982.72 459.96,-974.79 849.22,-977.44 904.75,-976.72 915.84,-976.58 927.89,-976.41 938.9,-976.26"/>
<polygon fill="black" stroke="black" points="938.88,-979.76 948.83,-976.12 938.78,-972.76 938.88,-979.76"/>
</g>
<!-- python&#45;&gt;shell -->
<g id="edge110" class="edge">
<title>python&#45;&gt;shell</title>
<path fill="none" stroke="black" d="M64.37,-1715.39C76.38,-1639.59 123.49,-1350.54 157,-1264.72 194.58,-1168.46 197.01,-1130.84 277.25,-1065.72 313.13,-1036.61 365.16,-1022.15 400.11,-1015.32"/>
<polygon fill="black" stroke="black" points="400.56,-1018.79 409.77,-1013.55 399.3,-1011.91 400.56,-1018.79"/>
</g>
<!-- python&#45;&gt;store -->
<g id="edge111" class="edge">
<title>python&#45;&gt;store</title>
<path fill="none" stroke="black" d="M91.84,-1733.92C167.59,-1732.7 366.47,-1718.6 472,-1608.72 515.91,-1563 467.8,-1519.73 508,-1470.72 537.69,-1434.53 562.96,-1449.37 602.75,-1424.72 620.64,-1413.63 639.32,-1399.44 654.29,-1387.33"/>
<polygon fill="black" stroke="black" points="656.41,-1390.12 661.92,-1381.07 651.97,-1384.71 656.41,-1390.12"/>
</g>
<!-- python&#45;&gt;wasm -->
<g id="edge112" class="edge">
<title>python&#45;&gt;wasm</title>
<path fill="none" stroke="black" d="M91.7,-1740.55C102.66,-1744.59 114.06,-1750.9 121,-1760.72 174.82,-1836.85 125.45,-2090.99 157,-2178.72 200.69,-2300.21 193.02,-2417.72 322.12,-2417.72 322.12,-2417.72 322.12,-2417.72 686.38,-2417.72 784.53,-2417.72 822.81,-2438.76 904.75,-2384.72 936.04,-2364.09 956.1,-2324.65 966.87,-2297.54"/>
<polygon fill="black" stroke="black" points="970.01,-2299.12 970.26,-2288.53 963.46,-2296.66 970.01,-2299.12"/>
</g>
<!-- wasm&#45;store -->
<g id="node58" class="node">
<title>wasm&#45;store</title>
<polygon fill="none" stroke="black" points="602.75,-1759.72 508,-1759.72 508,-1723.72 602.75,-1723.72 602.75,-1759.72"/>
<text text-anchor="middle" x="555.38" y="-1737.42" font-family="sans-serif" font-size="14.00">wasm&#45;store</text>
</g>
<!-- python&#45;&gt;wasm&#45;store -->
<g id="edge113" class="edge">
<title>python&#45;&gt;wasm&#45;store</title>
<path fill="none" stroke="black" d="M91.59,-1734.21C171.67,-1735.51 391.05,-1739.07 496.4,-1740.78"/>
<polygon fill="black" stroke="black" points="496.19,-1744.28 506.24,-1740.94 496.3,-1737.28 496.19,-1744.28"/>
</g>
<!-- repl&#45;&gt;arrow -->
<g id="edge114" class="edge">
<title>repl&#45;&gt;arrow</title>
<path fill="none" stroke="black" d="M350.62,-1797.42C365.86,-1806.66 385.75,-1817.16 405,-1822.72 441.83,-1833.36 485.78,-1835.39 516.44,-1835.2"/>
<polygon fill="black" stroke="black" points="516.44,-1838.7 526.38,-1835.05 516.33,-1831.7 516.44,-1838.7"/>
</g>
<!-- repl&#45;&gt;forsp -->
<g id="edge115" class="edge">
<title>repl&#45;&gt;forsp</title>
<path fill="none" stroke="black" d="M328.39,-1761.22C336.91,-1723.86 356.3,-1636.66 369,-1562.72 399.5,-1385.2 425.27,-1170.3 434.17,-1093.1"/>
<polygon fill="black" stroke="black" points="437.62,-1093.75 435.28,-1083.42 430.66,-1092.95 437.62,-1093.75"/>
</g>
<!-- repl&#45;&gt;git -->
<g id="edge116" class="edge">
<title>repl&#45;&gt;git</title>
<path fill="none" stroke="black" d="M334.59,-1761.45C354.46,-1726.75 397.77,-1651.11 421.37,-1609.88"/>
<polygon fill="black" stroke="black" points="424.38,-1611.68 426.31,-1601.26 418.3,-1608.2 424.38,-1611.68"/>
</g>
<!-- repl&#45;&gt;graph -->
<g id="edge117" class="edge">
<title>repl&#45;&gt;graph</title>
<path fill="none" stroke="black" d="M332.1,-1798C351.53,-1842.57 401.47,-1957.1 424.95,-2010.94"/>
<polygon fill="black" stroke="black" points="421.73,-2012.3 428.93,-2020.07 428.14,-2009.51 421.73,-2012.3"/>
</g>
<!-- repl&#45;&gt;hash -->
<g id="edge118" class="edge">
<title>repl&#45;&gt;hash</title>
<path fill="none" stroke="black" d="M342.7,-1798.12C358.1,-1812.28 381.23,-1831.16 405,-1841.72 485.68,-1877.58 520.08,-1891.72 602.75,-1860.72 697.6,-1825.16 779.18,-1731.47 815.39,-1684.86"/>
<polygon fill="black" stroke="black" points="818.01,-1687.2 821.3,-1677.14 812.45,-1682.95 818.01,-1687.2"/>
</g>
<!-- repl&#45;&gt;init -->
<g id="edge119" class="edge">
<title>repl&#45;&gt;init</title>
<path fill="none" stroke="black" d="M328.13,-1761.34C349.46,-1663.91 450.95,-1207.33 508,-1074.72 539.46,-1001.59 571.78,-996.06 602.75,-922.72 628.75,-861.15 619.74,-840.79 638.75,-776.72 649.25,-741.32 663.54,-701.34 673.31,-674.96"/>
<polygon fill="black" stroke="black" points="676.58,-676.21 676.8,-665.62 670.02,-673.76 676.58,-676.21"/>
</g>
<!-- repl&#45;&gt;object -->
<g id="edge120" class="edge">
<title>repl&#45;&gt;object</title>
<path fill="none" stroke="black" d="M350.62,-1775.2C366.37,-1772.74 386.76,-1769.96 405,-1768.72 405,-1768.72 602.75,-1768.72 602.75,-1768.72 658.58,-1731.56 676.3,-1648.09 681.86,-1603.36"/>
<polygon fill="black" stroke="black" points="685.32,-1603.92 682.94,-1593.6 678.37,-1603.16 685.32,-1603.92"/>
</g>
<!-- repl&#45;&gt;parquet -->
<g id="edge121" class="edge">
<title>repl&#45;&gt;parquet</title>
<path fill="none" stroke="black" d="M350.42,-1783.43C363.22,-1785.24 378.96,-1787.46 393.52,-1789.51"/>
<polygon fill="black" stroke="black" points="392.97,-1792.97 403.36,-1790.9 393.95,-1786.04 392.97,-1792.97"/>
</g>
<!-- repl&#45;&gt;shell -->
<g id="edge122" class="edge">
<title>repl&#45;&gt;shell</title>
<path fill="none" stroke="black" d="M328.82,-1761.29C338.11,-1724.05 358.82,-1637.04 369,-1562.72 384.45,-1449.93 353.48,-1158.18 406.34,-1038.08"/>
<polygon fill="black" stroke="black" points="409.34,-1039.91 410.52,-1029.39 403.03,-1036.88 409.34,-1039.91"/>
</g>
<!-- repl&#45;&gt;wasm -->
<g id="edge123" class="edge">
<title>repl&#45;&gt;wasm</title>
<path fill="none" stroke="black" d="M324.58,-1798C326.68,-1846.89 338.54,-1982.66 405,-2066.72 541.08,-2238.85 834.59,-2264.59 938.89,-2268.22"/>
<polygon fill="black" stroke="black" points="938.48,-2271.71 948.58,-2268.5 938.69,-2264.71 938.48,-2271.71"/>
</g>
<!-- sat&#45;&gt;parse -->
<g id="edge124" class="edge">
<title>sat&#45;&gt;parse</title>
<path fill="none" stroke="black" d="M863.87,-1189.72C908.89,-1189.72 1000.43,-1189.72 1051.97,-1189.72"/>
<polygon fill="black" stroke="black" points="1051.72,-1193.22 1061.72,-1189.72 1051.72,-1186.22 1051.72,-1193.22"/>
</g>
<!-- sat&#45;&gt;types -->
<g id="edge125" class="edge">
<title>sat&#45;&gt;types</title>
<path fill="none" stroke="black" d="M863.55,-1181.36C908.99,-1167.61 1005.65,-1141.72 1089.38,-1141.72 1089.38,-1141.72 1089.38,-1141.72 1194.25,-1141.72 1318.5,-1141.72 1394.95,-687.48 1413.23,-565.54"/>
<polygon fill="black" stroke="black" points="1416.69,-566.09 1414.69,-555.69 1409.76,-565.07 1416.69,-566.09"/>
</g>
<!-- sat&#45;&gt;wasm -->
<g id="edge126" class="edge">
<title>sat&#45;&gt;wasm</title>
<path fill="none" stroke="black" d="M863.69,-1203.17C878.46,-1212.22 895.69,-1225.62 904.75,-1242.72 916.75,-1265.38 965.1,-2073.75 974.89,-2239.29"/>
<polygon fill="black" stroke="black" points="971.38,-2239.2 975.46,-2248.97 978.37,-2238.78 971.38,-2239.2"/>
</g>
<!-- serve&#45;&gt;core -->
<g id="edge127" class="edge">
<title>serve&#45;&gt;core</title>
<path fill="none" stroke="black" d="M199.92,-1273.6C198.43,-1126.6 191.56,-132.73 277.25,-35.72 325.22,18.59 365.04,-5.72 437.5,-5.72 437.5,-5.72 437.5,-5.72 556.38,-5.72 739.5,-5.72 800.81,-74.96 904.75,-225.72 936.24,-271.4 957.79,-333.04 968.59,-368.77"/>
<polygon fill="black" stroke="black" points="965.11,-369.35 971.29,-377.96 971.83,-367.38 965.11,-369.35"/>
</g>
<!-- serve&#45;&gt;forsp -->
<g id="edge128" class="edge">
<title>serve&#45;&gt;forsp</title>
<path fill="none" stroke="black" d="M226.54,-1277.45C262.56,-1256.92 327.34,-1216.04 369,-1166.72 391.83,-1139.69 384.12,-1124.28 405,-1095.72 406.3,-1093.95 407.69,-1092.18 409.16,-1090.44"/>
<polygon fill="black" stroke="black" points="411.63,-1092.93 415.8,-1083.19 406.46,-1088.2 411.63,-1092.93"/>
</g>
<!-- serve&#45;&gt;git -->
<g id="edge129" class="edge">
<title>serve&#45;&gt;git</title>
<path fill="none" stroke="black" d="M206.65,-1310.17C217.47,-1338.54 241.54,-1393.2 277.25,-1427.72 310.34,-1459.71 336.85,-1442.79 369,-1475.72 394.27,-1501.6 384.04,-1519.24 405,-1548.72 406.59,-1550.96 408.33,-1553.18 410.16,-1555.36"/>
<polygon fill="black" stroke="black" points="407.16,-1557.27 416.47,-1562.34 412.36,-1552.57 407.16,-1557.27"/>
</g>
<!-- serve&#45;&gt;hash -->
<g id="edge130" class="edge">
<title>serve&#45;&gt;hash</title>
<path fill="none" stroke="black" d="M205.12,-1310.13C213.71,-1342.41 231.3,-1411.44 241.25,-1470.72 253.68,-1544.78 238.91,-1742.15 277.25,-1806.72 321.49,-1881.22 350.86,-1917.72 437.5,-1917.72 437.5,-1917.72 437.5,-1917.72 556.38,-1917.72 644.7,-1917.72 667.48,-1885.04 732,-1824.72 775,-1784.52 807.02,-1722.59 823.31,-1686.52"/>
<polygon fill="black" stroke="black" points="826.41,-1688.16 827.24,-1677.6 820.01,-1685.33 826.41,-1688.16"/>
</g>
<!-- serve&#45;&gt;init -->
<g id="edge131" class="edge">
<title>serve&#45;&gt;init</title>
<path fill="none" stroke="black" d="M203.71,-1273.31C211.99,-1233.74 235.04,-1138.6 277.25,-1069.72 333.52,-977.89 573.74,-749.28 656.34,-671.84"/>
<polygon fill="black" stroke="black" points="658.71,-674.42 663.62,-665.03 653.93,-669.31 658.71,-674.42"/>
</g>
<!-- serve&#45;&gt;lisp -->
<g id="edge132" class="edge">
<title>serve&#45;&gt;lisp</title>
<path fill="none" stroke="black" d="M205.13,-1273.32C216.62,-1231.67 246.25,-1127.11 277.25,-1041.72 325.98,-907.48 395.53,-751.65 424.28,-688.5"/>
<polygon fill="black" stroke="black" points="427.41,-690.07 428.38,-679.52 421.04,-687.17 427.41,-690.07"/>
</g>
<!-- serve&#45;&gt;metamath -->
<g id="edge133" class="edge">
<title>serve&#45;&gt;metamath</title>
<path fill="none" stroke="black" d="M226.37,-1284.18C261.05,-1273.43 323.12,-1251.43 369,-1219.72 442.44,-1168.96 425.89,-1109.75 508,-1074.72 556.39,-1054.08 705.32,-1075.18 784.56,-1088.55"/>
<polygon fill="black" stroke="black" points="783.78,-1091.97 794.23,-1090.2 784.96,-1085.07 783.78,-1091.97"/>
</g>
<!-- serve&#45;&gt;object -->
<g id="edge134" class="edge">
<title>serve&#45;&gt;object</title>
<path fill="none" stroke="black" d="M223.32,-1310.07C289.49,-1362.32 476.46,-1509.12 508,-1524.72 552.47,-1546.72 608.29,-1560.11 645.08,-1567.21"/>
<polygon fill="black" stroke="black" points="644.36,-1570.64 654.83,-1569.02 645.64,-1563.75 644.36,-1570.64"/>
</g>
<!-- serve&#45;&gt;proto -->
<g id="edge135" class="edge">
<title>serve&#45;&gt;proto</title>
<path fill="none" stroke="black" d="M207.23,-1310.19C219.87,-1342.46 247.74,-1410.87 277.25,-1465.72 284.97,-1480.06 294.6,-1495.36 302.96,-1507.99"/>
<polygon fill="black" stroke="black" points="300.01,-1509.87 308.49,-1516.21 305.82,-1505.96 300.01,-1509.87"/>
</g>
<!-- serve&#45;&gt;repl -->
<g id="edge136" class="edge">
<title>serve&#45;&gt;repl</title>
<path fill="none" stroke="black" d="M204.68,-1309.96C223.09,-1383.57 291.98,-1659.15 314.76,-1750.27"/>
<polygon fill="black" stroke="black" points="311.35,-1751.07 317.18,-1759.92 318.15,-1749.37 311.35,-1751.07"/>
</g>
<!-- serve&#45;&gt;shell -->
<g id="edge137" class="edge">
<title>serve&#45;&gt;shell</title>
<path fill="none" stroke="black" d="M203.52,-1273.33C210.94,-1237.95 231.68,-1159.74 277.25,-1112.72 308.59,-1080.38 331.58,-1094.78 369,-1069.72 387.03,-1057.64 388.65,-1050.99 405,-1036.72 405.5,-1036.28 406.01,-1035.84 406.52,-1035.4"/>
<polygon fill="black" stroke="black" points="408.51,-1038.3 413.85,-1029.15 403.97,-1032.98 408.51,-1038.3"/>
</g>
<!-- serve&#45;&gt;store -->
<g id="edge138" class="edge">
<title>serve&#45;&gt;store</title>
<path fill="none" stroke="black" d="M226.57,-1290.62C291.73,-1288.59 464.76,-1287.38 602.75,-1323.72 618.17,-1327.78 634.26,-1334.64 648.04,-1341.42"/>
<polygon fill="black" stroke="black" points="646.23,-1344.43 656.73,-1345.85 649.41,-1338.19 646.23,-1344.43"/>
</g>
<!-- sexp&#45;&gt;parse -->
<g id="edge139" class="edge">
<title>sexp&#45;&gt;parse</title>
<path fill="none" stroke="black" d="M988.07,-993.97C1007.4,-1031.32 1051.6,-1116.72 1074.7,-1161.36"/>
<polygon fill="black" stroke="black" points="1071.56,-1162.9 1079.26,-1170.18 1077.77,-1159.69 1071.56,-1162.9"/>
</g>
<!-- shell&#45;&gt;hol -->
<g id="edge140" class="edge">
<title>shell&#45;&gt;hol</title>
<path fill="none" stroke="black" d="M440.77,-991.25C446.19,-915.58 468.93,-629.37 508,-548.72 576.18,-408.01 634.38,-392.92 768,-311.72 777.69,-305.83 788.64,-300.23 798.84,-295.4"/>
<polygon fill="black" stroke="black" points="800.13,-298.66 807.76,-291.31 797.21,-292.3 800.13,-298.66"/>
</g>
<!-- shell&#45;&gt;kernel -->
<g id="edge141" class="edge">
<title>shell&#45;&gt;kernel</title>
<path fill="none" stroke="black" d="M462.47,-1028.12C479.69,-1041.91 503.46,-1060.95 522.52,-1076.21"/>
<polygon fill="black" stroke="black" points="520.27,-1078.89 530.26,-1082.41 524.65,-1073.43 520.27,-1078.89"/>
</g>
<!-- smt&#45;&gt;sat -->
<g id="edge142" class="edge">
<title>smt&#45;&gt;sat</title>
<path fill="none" stroke="black" d="M687.54,-822.07C691.51,-873.32 707.79,-1021.04 768,-1124.72 776.54,-1139.42 789.35,-1152.96 801.52,-1163.84"/>
<polygon fill="black" stroke="black" points="799.17,-1166.43 809.04,-1170.28 803.72,-1161.12 799.17,-1166.43"/>
</g>
<!-- smt&#45;&gt;sexp -->
<g id="edge143" class="edge">
<title>smt&#45;&gt;sexp</title>
<path fill="none" stroke="black" d="M703.27,-822.21C718.77,-838.24 743.06,-861.1 768,-875.72 823.57,-908.29 847.67,-893.87 904.75,-923.72 919,-931.17 933.58,-941.19 945.85,-950.45"/>
<polygon fill="black" stroke="black" points="943.49,-953.05 953.54,-956.4 947.77,-947.51 943.49,-953.05"/>
</g>
<!-- smt&#45;&gt;types -->
<g id="edge144" class="edge">
<title>smt&#45;&gt;types</title>
<path fill="none" stroke="black" d="M701.79,-785.48C716.83,-769.07 741.3,-745.89 768,-734.72 853.89,-698.78 883.52,-715.72 976.62,-715.72 976.62,-715.72 976.62,-715.72 1194.25,-715.72 1272.2,-715.72 1297.56,-698.87 1355.5,-646.72 1380.54,-624.18 1397.76,-589.06 1407.58,-564.38"/>
<polygon fill="black" stroke="black" points="1410.77,-565.86 1411.04,-555.27 1404.22,-563.37 1410.77,-565.86"/>
</g>
<!-- spectec&#45;&gt;grammar -->
<g id="edge145" class="edge">
<title>spectec&#45;&gt;grammar</title>
<path fill="none" stroke="black" d="M871.44,-631.72C888.78,-631.72 910.13,-631.72 929.06,-631.72"/>
<polygon fill="black" stroke="black" points="928.97,-635.22 938.97,-631.72 928.97,-628.22 928.97,-635.22"/>
</g>
<!-- store&#45;&gt;hash -->
<g id="edge146" class="edge">
<title>store&#45;&gt;hash</title>
<path fill="none" stroke="black" d="M695.47,-1379.79C720.57,-1429.64 790.91,-1569.38 821.2,-1629.57"/>
<polygon fill="black" stroke="black" points="817.91,-1630.8 825.53,-1638.16 824.16,-1627.65 817.91,-1630.8"/>
</g>
<!-- store&#45;&gt;json -->
<g id="edge147" class="edge">
<title>store&#45;&gt;json</title>
<path fill="none" stroke="black" d="M712.67,-1361.01C736.32,-1360.38 771.33,-1359.44 797.91,-1358.73"/>
<polygon fill="black" stroke="black" points="797.68,-1362.23 807.58,-1358.47 797.49,-1355.24 797.68,-1362.23"/>
</g>
<!-- store&#45;&gt;sqlite -->
<g id="edge148" class="edge">
<title>store&#45;&gt;sqlite</title>
<path fill="none" stroke="black" d="M712.67,-1345.48C736.75,-1330.62 772.59,-1308.49 799.33,-1291.97"/>
<polygon fill="black" stroke="black" points="801.13,-1294.98 807.8,-1286.74 797.46,-1289.02 801.13,-1294.98"/>
</g>
<!-- tcb&#45;db -->
<g id="node53" class="node">
<title>tcb&#45;db</title>
<polygon fill="none" stroke="black" points="715.5,-1287.72 655.25,-1287.72 655.25,-1251.72 715.5,-1251.72 715.5,-1287.72"/>
<text text-anchor="middle" x="685.38" y="-1265.42" font-family="sans-serif" font-size="14.00">tcb&#45;db</text>
</g>
<!-- tcb&#45;db&#45;&gt;json -->
<g id="edge149" class="edge">
<title>tcb&#45;db&#45;&gt;json</title>
<path fill="none" stroke="black" d="M715.81,-1287.11C739.77,-1301.26 773.69,-1321.29 799.28,-1336.41"/>
<polygon fill="black" stroke="black" points="797.3,-1339.3 807.69,-1341.37 800.86,-1333.27 797.3,-1339.3"/>
</g>
<!-- tcb&#45;db&#45;&gt;sqlite -->
<g id="edge150" class="edge">
<title>tcb&#45;db&#45;&gt;sqlite</title>
<path fill="none" stroke="black" d="M715.81,-1269.72C739.24,-1269.72 772.19,-1269.72 797.57,-1269.72"/>
<polygon fill="black" stroke="black" points="797.48,-1273.22 807.48,-1269.72 797.48,-1266.22 797.48,-1273.22"/>
</g>
<!-- wasm&#45;build&#45;guest -->
<g id="node56" class="node">
<title>wasm&#45;build&#45;guest</title>
<polygon fill="none" stroke="black" points="904.75,-2351.72 768,-2351.72 768,-2315.72 904.75,-2315.72 904.75,-2351.72"/>
<text text-anchor="middle" x="836.38" y="-2329.42" font-family="sans-serif" font-size="14.00">wasm&#45;build&#45;guest</text>
</g>
<!-- wasm&#45;build&#45;guest&#45;&gt;wasm -->
<g id="edge151" class="edge">
<title>wasm&#45;build&#45;guest&#45;&gt;wasm</title>
<path fill="none" stroke="black" d="M876.91,-2315.27C896.72,-2306.02 920.55,-2294.9 939.95,-2285.84"/>
<polygon fill="black" stroke="black" points="941.27,-2289.09 948.85,-2281.69 938.3,-2282.75 941.27,-2289.09"/>
</g>
<!-- wasm&#45;spec -->
<g id="node57" class="node">
<title>wasm&#45;spec</title>
<polygon fill="none" stroke="black" points="732,-2187.72 638.75,-2187.72 638.75,-2151.72 732,-2151.72 732,-2187.72"/>
<text text-anchor="middle" x="685.38" y="-2165.42" font-family="sans-serif" font-size="14.00">wasm&#45;spec</text>
</g>
<!-- wasm&#45;spec&#45;&gt;hash -->
<g id="edge152" class="edge">
<title>wasm&#45;spec&#45;&gt;hash</title>
<path fill="none" stroke="black" d="M723.99,-2151.24C727,-2148.7 729.74,-2145.86 732,-2142.72 785.56,-2068.21 821.6,-1781.48 832.16,-1687.64"/>
<polygon fill="black" stroke="black" points="835.64,-1688.03 833.26,-1677.7 828.68,-1687.26 835.64,-1688.03"/>
</g>
<!-- wasm&#45;spec&#45;&gt;wasm -->
<g id="edge153" class="edge">
<title>wasm&#45;spec&#45;&gt;wasm</title>
<path fill="none" stroke="black" d="M732.15,-2181.59C776.76,-2193.61 846.23,-2213.56 904.75,-2235.72 916.33,-2240.11 928.67,-2245.5 939.8,-2250.64"/>
<polygon fill="black" stroke="black" points="938.12,-2253.72 948.66,-2254.81 941.1,-2247.39 938.12,-2253.72"/>
</g>
<!-- wasm&#45;store&#45;&gt;json -->
<g id="edge154" class="edge">
<title>wasm&#45;store&#45;&gt;json</title>
<path fill="none" stroke="black" d="M562.21,-1723.46C573.94,-1687.97 602.4,-1607.84 638.75,-1546.72 685.83,-1467.56 694.08,-1439.67 768,-1384.72 777.08,-1377.97 788.08,-1372.63 798.54,-1368.55"/>
<polygon fill="black" stroke="black" points="799.49,-1371.93 807.71,-1365.25 797.12,-1365.34 799.49,-1371.93"/>
</g>
<!-- wasm&#45;store&#45;&gt;store -->
<g id="edge155" class="edge">
<title>wasm&#45;store&#45;&gt;store</title>
<path fill="none" stroke="black" d="M559.12,-1723.57C566.95,-1674.72 591.89,-1537.04 638.75,-1431.72 645.31,-1416.98 654.79,-1401.83 663.4,-1389.41"/>
<polygon fill="black" stroke="black" points="666.21,-1391.5 669.18,-1381.33 660.52,-1387.43 666.21,-1391.5"/>
</g>
<!-- wasm&#45;store&#45;&gt;wasm -->
<g id="edge156" class="edge">
<title>wasm&#45;store&#45;&gt;wasm</title>
<path fill="none" stroke="black" d="M573.52,-1760.07C583.88,-1772.32 596.28,-1789.31 602.75,-1806.72 692.27,-2047.56 536.82,-2248.57 768,-2360.72 822.68,-2387.25 850.12,-2387.36 904.75,-2360.72 931.68,-2347.59 951.47,-2318.95 963.39,-2297.09"/>
<polygon fill="black" stroke="black" points="966.43,-2298.83 967.91,-2288.34 960.21,-2295.62 966.43,-2298.83"/>
</g>
<!-- web&#45;kernel -->
<g id="node59" class="node">
<title>web&#45;kernel</title>
<polygon fill="none" stroke="black" points="369,-677.72 277.25,-677.72 277.25,-641.72 369,-641.72 369,-677.72"/>
<text text-anchor="middle" x="323.12" y="-655.42" font-family="sans-serif" font-size="14.00">web&#45;kernel</text>
</g>
<!-- web&#45;kernel&#45;&gt;forsp -->
<g id="edge157" class="edge">
<title>web&#45;kernel&#45;&gt;forsp</title>
<path fill="none" stroke="black" d="M323.95,-678.14C324.23,-734.2 330.98,-906.35 406.15,-1035.86"/>
<polygon fill="black" stroke="black" points="403.01,-1037.42 411.15,-1044.2 409.01,-1033.83 403.01,-1037.42"/>
</g>
<!-- web&#45;kernel&#45;&gt;haskell -->
<g id="edge158" class="edge">
<title>web&#45;kernel&#45;&gt;haskell</title>
<path fill="none" stroke="black" d="M334.59,-641.45C354.46,-606.75 397.77,-531.11 421.37,-489.88"/>
<polygon fill="black" stroke="black" points="424.38,-491.68 426.31,-481.26 418.3,-488.2 424.38,-491.68"/>
</g>
<!-- web&#45;kernel&#45;&gt;hol&#45;api -->
<g id="edge159" class="edge">
<title>web&#45;kernel&#45;&gt;hol&#45;api</title>
<path fill="none" stroke="black" d="M326.6,-641.44C332.95,-600.41 353.14,-499.55 405,-434.72 433.76,-398.77 480,-372.37 513.42,-356.65"/>
<polygon fill="black" stroke="black" points="514.76,-359.88 522.41,-352.55 511.86,-353.51 514.76,-359.88"/>
</g>
<!-- web&#45;kernel&#45;&gt;kernel -->
<g id="edge160" class="edge">
<title>web&#45;kernel&#45;&gt;kernel</title>
<path fill="none" stroke="black" d="M333.73,-678.15C369.68,-747.18 496.54,-990.69 539.8,-1073.73"/>
<polygon fill="black" stroke="black" points="536.56,-1075.11 544.29,-1082.36 542.77,-1071.87 536.56,-1075.11"/>
</g>
<!-- web&#45;kernel&#45;&gt;lisp -->
<g id="edge161" class="edge">
<title>web&#45;kernel&#45;&gt;lisp</title>
<path fill="none" stroke="black" d="M369.26,-659.72C379.36,-659.72 389.96,-659.72 399.73,-659.72"/>
<polygon fill="black" stroke="black" points="399.61,-663.22 409.61,-659.72 399.61,-656.22 399.61,-663.22"/>
</g>
</g>
</svg>
