<?xml version="1.0" encoding="UTF-8" standalone="no"?>
<!DOCTYPE svg PUBLIC "-//W3C//DTD SVG 1.1//EN"
 "http://www.w3.org/Graphics/SVG/1.1/DTD/svg11.dtd">
<!-- Generated by graphviz version 12.2.1 (0)
 -->
<!-- Title: deps Pages: 1 -->
<svg width="1454pt" height="2166pt"
 viewBox="0.00 0.00 1453.50 2165.58" xmlns="http://www.w3.org/2000/svg" xmlns:xlink="http://www.w3.org/1999/xlink">
<g id="graph0" class="graph" transform="scale(1 1) rotate(0) translate(4 2161.58)">
<title>deps</title>
<polygon fill="white" stroke="none" points="-4,4 -4,-2161.58 1449.5,-2161.58 1449.5,4 -4,4"/>
<!-- covalence -->
<g id="node1" class="node">
<title>covalence</title>
<polygon fill="none" stroke="black" points="102.62,-886.58 18.38,-886.58 18.38,-850.58 102.62,-850.58 102.62,-886.58"/>
<text text-anchor="middle" x="60.5" y="-864.28" font-family="sans-serif" font-size="14.00">covalence</text>
</g>
<!-- client -->
<g id="node5" class="node">
<title>client</title>
<polygon fill="none" stroke="black" points="350.12,-816.58 296.12,-816.58 296.12,-780.58 350.12,-780.58 350.12,-816.58"/>
<text text-anchor="middle" x="323.12" y="-794.28" font-family="sans-serif" font-size="14.00">client</text>
</g>
<!-- covalence&#45;&gt;client -->
<g id="edge1" class="edge">
<title>covalence&#45;&gt;client</title>
<path fill="none" stroke="black" d="M102.8,-850.78C119.42,-844.1 138.9,-836.85 157,-831.58 200.06,-819.04 250.81,-809.68 284.57,-804.19"/>
<polygon fill="black" stroke="black" points="284.94,-807.67 294.27,-802.65 283.84,-800.76 284.94,-807.67"/>
</g>
<!-- fuse -->
<g id="node11" class="node">
<title>fuse</title>
<polygon fill="none" stroke="black" points="582.38,-627.58 528.38,-627.58 528.38,-591.58 582.38,-591.58 582.38,-627.58"/>
<text text-anchor="middle" x="555.38" y="-605.28" font-family="sans-serif" font-size="14.00">fuse</text>
</g>
<!-- covalence&#45;&gt;fuse -->
<g id="edge2" class="edge">
<title>covalence&#45;&gt;fuse</title>
<path fill="none" stroke="black" d="M73.56,-850.44C90.33,-826.07 122.55,-782.28 157,-751.58 204.38,-709.36 218.8,-699.29 277.25,-674.58 359.09,-639.98 462.68,-621.92 517.09,-614.23"/>
<polygon fill="black" stroke="black" points="517.31,-617.73 526.75,-612.91 516.36,-610.8 517.31,-617.73"/>
</g>
<!-- git -->
<g id="node12" class="node">
<title>git</title>
<polygon fill="none" stroke="black" points="465.5,-478.58 411.5,-478.58 411.5,-442.58 465.5,-442.58 465.5,-478.58"/>
<text text-anchor="middle" x="438.5" y="-456.28" font-family="sans-serif" font-size="14.00">git</text>
</g>
<!-- covalence&#45;&gt;git -->
<g id="edge3" class="edge">
<title>covalence&#45;&gt;git</title>
<path fill="none" stroke="black" d="M63.93,-850.39C70.78,-805.37 94.05,-687.2 157,-614.58 224.34,-536.89 340.92,-491.04 400.34,-471.6"/>
<polygon fill="black" stroke="black" points="401.19,-475.01 409.65,-468.63 399.06,-468.34 401.19,-475.01"/>
</g>
<!-- hash -->
<g id="node15" class="node">
<title>hash</title>
<polygon fill="none" stroke="black" points="863.38,-803.58 809.38,-803.58 809.38,-767.58 863.38,-767.58 863.38,-803.58"/>
<text text-anchor="middle" x="836.38" y="-781.28" font-family="sans-serif" font-size="14.00">hash</text>
</g>
<!-- covalence&#45;&gt;hash -->
<g id="edge4" class="edge">
<title>covalence&#45;&gt;hash</title>
<path fill="none" stroke="black" d="M102.83,-865.67C208.08,-858.02 494.7,-835.69 732,-803.58 753.93,-800.61 778.32,-796.41 797.91,-792.81"/>
<polygon fill="black" stroke="black" points="798.44,-796.27 807.63,-790.99 797.16,-789.39 798.44,-796.27"/>
</g>
<!-- hol -->
<g id="node17" class="node">
<title>hol</title>
<polygon fill="none" stroke="black" points="863.38,-1901.58 809.38,-1901.58 809.38,-1865.58 863.38,-1865.58 863.38,-1901.58"/>
<text text-anchor="middle" x="836.38" y="-1879.28" font-family="sans-serif" font-size="14.00">hol</text>
</g>
<!-- covalence&#45;&gt;hol -->
<g id="edge5" class="edge">
<title>covalence&#45;&gt;hol</title>
<path fill="none" stroke="black" d="M102.82,-880.36C109.89,-884.14 116.41,-889.1 121,-895.58 174.46,-971.15 141.01,-1219.4 157,-1310.58 206.18,-1591.03 37.39,-1929.58 322.12,-1929.58 322.12,-1929.58 322.12,-1929.58 556.38,-1929.58 643.96,-1929.58 744.97,-1907.24 798.16,-1893.69"/>
<polygon fill="black" stroke="black" points="798.8,-1897.14 807.6,-1891.25 797.05,-1890.37 798.8,-1897.14"/>
</g>
<!-- lsp -->
<g id="node28" class="node">
<title>lsp</title>
<polygon fill="none" stroke="black" points="863.38,-977.58 809.38,-977.58 809.38,-941.58 863.38,-941.58 863.38,-977.58"/>
<text text-anchor="middle" x="836.38" y="-955.28" font-family="sans-serif" font-size="14.00">lsp</text>
</g>
<!-- covalence&#45;&gt;lsp -->
<g id="edge6" class="edge">
<title>covalence&#45;&gt;lsp</title>
<path fill="none" stroke="black" d="M103.08,-882.2C109.69,-885.76 115.99,-890.17 121,-895.58 152.8,-929.94 122.58,-962.84 157,-994.58 197.74,-1032.15 222.33,-1020.18 277.25,-1027.58 473.03,-1053.95 708.07,-996.13 797.94,-970.75"/>
<polygon fill="black" stroke="black" points="798.8,-974.14 807.45,-968.03 796.88,-967.41 798.8,-974.14"/>
</g>
<!-- object -->
<g id="node31" class="node">
<title>object</title>
<polygon fill="none" stroke="black" points="714,-893.58 656.75,-893.58 656.75,-857.58 714,-857.58 714,-893.58"/>
<text text-anchor="middle" x="685.38" y="-871.28" font-family="sans-serif" font-size="14.00">object</text>
</g>
<!-- covalence&#45;&gt;object -->
<g id="edge7" class="edge">
<title>covalence&#45;&gt;object</title>
<path fill="none" stroke="black" d="M103.01,-883.21C109.48,-886.63 115.75,-890.73 121,-895.58 145.26,-917.98 128.55,-943.81 157,-960.58 327.95,-1061.32 419.05,-1010.58 602.75,-935.58 621.52,-927.92 622.45,-919.62 638.75,-907.58 641.88,-905.27 645.15,-902.89 648.44,-900.53"/>
<polygon fill="black" stroke="black" points="650.32,-903.49 656.44,-894.85 646.26,-897.78 650.32,-903.49"/>
</g>
<!-- opentheory -->
<g id="node32" class="node">
<title>opentheory</title>
<polygon fill="none" stroke="black" points="368.62,-2065.58 277.62,-2065.58 277.62,-2029.58 368.62,-2029.58 368.62,-2065.58"/>
<text text-anchor="middle" x="323.12" y="-2043.28" font-family="sans-serif" font-size="14.00">opentheory</text>
</g>
<!-- covalence&#45;&gt;opentheory -->
<g id="edge8" class="edge">
<title>covalence&#45;&gt;opentheory</title>
<path fill="none" stroke="black" d="M103.09,-880.17C110.14,-883.97 116.59,-888.98 121,-895.58 185.78,-992.42 98.95,-1842.56 157,-1943.58 180.84,-1985.06 228.63,-2012.43 266.69,-2028.62"/>
<polygon fill="black" stroke="black" points="265.15,-2031.78 275.73,-2032.33 267.8,-2025.3 265.15,-2031.78"/>
</g>
<!-- proto -->
<g id="node36" class="node">
<title>proto</title>
<polygon fill="none" stroke="black" points="350.12,-909.58 296.12,-909.58 296.12,-873.58 350.12,-873.58 350.12,-909.58"/>
<text text-anchor="middle" x="323.12" y="-887.28" font-family="sans-serif" font-size="14.00">proto</text>
</g>
<!-- covalence&#45;&gt;proto -->
<g id="edge9" class="edge">
<title>covalence&#45;&gt;proto</title>
<path fill="none" stroke="black" d="M103.08,-872.25C153.03,-876.66 236.1,-883.99 284.31,-888.24"/>
<polygon fill="black" stroke="black" points="283.99,-891.73 294.26,-889.12 284.61,-884.75 283.99,-891.73"/>
</g>
<!-- repl -->
<g id="node42" class="node">
<title>repl</title>
<polygon fill="none" stroke="black" points="350.12,-719.58 296.12,-719.58 296.12,-683.58 350.12,-683.58 350.12,-719.58"/>
<text text-anchor="middle" x="323.12" y="-697.28" font-family="sans-serif" font-size="14.00">repl</text>
</g>
<!-- covalence&#45;&gt;repl -->
<g id="edge10" class="edge">
<title>covalence&#45;&gt;repl</title>
<path fill="none" stroke="black" d="M89.89,-850.39C137.61,-819.81 233.8,-758.17 286.17,-724.62"/>
<polygon fill="black" stroke="black" points="287.92,-727.66 294.45,-719.31 284.14,-721.76 287.92,-727.66"/>
</g>
<!-- serve -->
<g id="node45" class="node">
<title>serve</title>
<polygon fill="none" stroke="black" points="226.12,-951.58 172.12,-951.58 172.12,-915.58 226.12,-915.58 226.12,-951.58"/>
<text text-anchor="middle" x="199.12" y="-929.28" font-family="sans-serif" font-size="14.00">serve</text>
</g>
<!-- covalence&#45;&gt;serve -->
<g id="edge11" class="edge">
<title>covalence&#45;&gt;serve</title>
<path fill="none" stroke="black" d="M102.55,-887C108.75,-889.84 115.05,-892.76 121,-895.58 134.28,-901.86 148.75,-908.93 161.53,-915.25"/>
<polygon fill="black" stroke="black" points="159.94,-918.37 170.46,-919.68 163.05,-912.1 159.94,-918.37"/>
</g>
<!-- shell -->
<g id="node47" class="node">
<title>shell</title>
<polygon fill="none" stroke="black" points="465.5,-1321.58 411.5,-1321.58 411.5,-1285.58 465.5,-1285.58 465.5,-1321.58"/>
<text text-anchor="middle" x="438.5" y="-1299.28" font-family="sans-serif" font-size="14.00">shell</text>
</g>
<!-- covalence&#45;&gt;shell -->
<g id="edge12" class="edge">
<title>covalence&#45;&gt;shell</title>
<path fill="none" stroke="black" d="M103.09,-880.55C110.04,-884.31 116.45,-889.21 121,-895.58 170.26,-964.63 97.17,-1215.45 157,-1275.58 221.21,-1340.11 340.2,-1325.65 400.46,-1312.91"/>
<polygon fill="black" stroke="black" points="400.87,-1316.41 409.88,-1310.82 399.36,-1309.58 400.87,-1316.41"/>
</g>
<!-- store -->
<g id="node51" class="node">
<title>store</title>
<polygon fill="none" stroke="black" points="712.38,-329.58 658.38,-329.58 658.38,-293.58 712.38,-293.58 712.38,-329.58"/>
<text text-anchor="middle" x="685.38" y="-307.28" font-family="sans-serif" font-size="14.00">store</text>
</g>
<!-- covalence&#45;&gt;store -->
<g id="edge13" class="edge">
<title>covalence&#45;&gt;store</title>
<path fill="none" stroke="black" d="M62.97,-850.36C67.94,-798.11 87.9,-645 157,-542.58 263.39,-384.87 322.43,-339.47 508,-297.58 555.18,-286.93 611.05,-294.68 647.07,-302.22"/>
<polygon fill="black" stroke="black" points="646.03,-305.57 656.55,-304.31 647.54,-298.74 646.03,-305.57"/>
</g>
<!-- wasm -->
<g id="node54" class="node">
<title>wasm</title>
<polygon fill="none" stroke="black" points="1004.75,-172.58 950.5,-172.58 950.5,-136.58 1004.75,-136.58 1004.75,-172.58"/>
<text text-anchor="middle" x="977.62" y="-150.28" font-family="sans-serif" font-size="14.00">wasm</text>
</g>
<!-- covalence&#45;&gt;wasm -->
<g id="edge14" class="edge">
<title>covalence&#45;&gt;wasm</title>
<path fill="none" stroke="black" d="M61.91,-850.2C64.04,-787.45 77.07,-577.44 157,-429.58 209.9,-331.71 405.39,-115.59 508,-72.58 616.09,-27.27 653.63,-90.98 768,-116.58 827.31,-129.85 896.89,-141.81 938.82,-148.63"/>
<polygon fill="black" stroke="black" points="938.22,-152.08 948.65,-150.21 939.33,-145.16 938.22,-152.08"/>
</g>
<!-- acset -->
<g id="node2" class="node">
<title>acset</title>
<polygon fill="none" stroke="black" points="863.38,-1083.58 809.38,-1083.58 809.38,-1047.58 863.38,-1047.58 863.38,-1083.58"/>
<text text-anchor="middle" x="836.38" y="-1061.28" font-family="sans-serif" font-size="14.00">acset</text>
</g>
<!-- alethe -->
<g id="node3" class="node">
<title>alethe</title>
<polygon fill="none" stroke="black" points="583.62,-1620.58 527.12,-1620.58 527.12,-1584.58 583.62,-1584.58 583.62,-1620.58"/>
<text text-anchor="middle" x="555.38" y="-1598.28" font-family="sans-serif" font-size="14.00">alethe</text>
</g>
<!-- core -->
<g id="node6" class="node">
<title>core</title>
<polygon fill="#ffd6d6" stroke="black" points="1004.62,-1893.58 950.62,-1893.58 950.62,-1857.58 1004.62,-1857.58 1004.62,-1893.58"/>
<text text-anchor="middle" x="977.62" y="-1871.28" font-family="sans-serif" font-size="14.00">core</text>
</g>
<!-- alethe&#45;&gt;core -->
<g id="edge15" class="edge">
<title>alethe&#45;&gt;core</title>
<path fill="none" stroke="black" d="M568.88,-1620.8C598.45,-1662.45 677.02,-1765.13 768,-1818.58 771.77,-1820.79 880.3,-1849.91 939.29,-1865.64"/>
<polygon fill="black" stroke="black" points="938.36,-1869.02 948.92,-1868.21 940.16,-1862.25 938.36,-1869.02"/>
</g>
<!-- hol&#45;eval -->
<g id="node19" class="node">
<title>hol&#45;eval</title>
<polygon fill="none" stroke="black" points="871.38,-1755.58 801.38,-1755.58 801.38,-1719.58 871.38,-1719.58 871.38,-1755.58"/>
<text text-anchor="middle" x="836.38" y="-1733.28" font-family="sans-serif" font-size="14.00">hol&#45;eval</text>
</g>
<!-- alethe&#45;&gt;hol&#45;eval -->
<g id="edge16" class="edge">
<title>alethe&#45;&gt;hol&#45;eval</title>
<path fill="none" stroke="black" d="M583.96,-1603.88C620.94,-1606.9 687.13,-1616.83 732,-1649.58 755.9,-1667.02 745.78,-1686.04 768,-1705.58 774.7,-1711.47 782.67,-1716.51 790.75,-1720.73"/>
<polygon fill="black" stroke="black" points="789.06,-1723.8 799.59,-1724.98 792.09,-1717.49 789.06,-1723.8"/>
</g>
<!-- init -->
<g id="node21" class="node">
<title>init</title>
<polygon fill="none" stroke="black" points="712.38,-1559.58 658.38,-1559.58 658.38,-1523.58 712.38,-1523.58 712.38,-1559.58"/>
<text text-anchor="middle" x="685.38" y="-1537.28" font-family="sans-serif" font-size="14.00">init</text>
</g>
<!-- alethe&#45;&gt;init -->
<g id="edge17" class="edge">
<title>alethe&#45;&gt;init</title>
<path fill="none" stroke="black" d="M583.83,-1589.49C602.6,-1580.55 627.67,-1568.6 648.08,-1558.87"/>
<polygon fill="black" stroke="black" points="649.38,-1562.13 656.91,-1554.67 646.37,-1555.81 649.38,-1562.13"/>
</g>
<!-- sexp -->
<g id="node46" class="node">
<title>sexp</title>
<polygon fill="none" stroke="black" points="1004.62,-1278.58 950.62,-1278.58 950.62,-1242.58 1004.62,-1242.58 1004.62,-1278.58"/>
<text text-anchor="middle" x="977.62" y="-1256.28" font-family="sans-serif" font-size="14.00">sexp</text>
</g>
<!-- alethe&#45;&gt;sexp -->
<g id="edge18" class="edge">
<title>alethe&#45;&gt;sexp</title>
<path fill="none" stroke="black" d="M559.31,-1584.12C566.37,-1545.15 587.65,-1453.5 638.75,-1397.58 724.38,-1303.87 785.54,-1337.19 904.75,-1293.58 916.48,-1289.29 928.94,-1283.88 940.14,-1278.69"/>
<polygon fill="black" stroke="black" points="941.51,-1281.92 949.06,-1274.48 938.52,-1275.59 941.51,-1281.92"/>
</g>
<!-- smt -->
<g id="node48" class="node">
<title>smt</title>
<polygon fill="none" stroke="black" points="712.38,-1442.58 658.38,-1442.58 658.38,-1406.58 712.38,-1406.58 712.38,-1442.58"/>
<text text-anchor="middle" x="685.38" y="-1420.28" font-family="sans-serif" font-size="14.00">smt</text>
</g>
<!-- alethe&#45;&gt;smt -->
<g id="edge19" class="edge">
<title>alethe&#45;&gt;smt</title>
<path fill="none" stroke="black" d="M569.59,-1584.2C592.17,-1552.81 638.27,-1488.7 664.66,-1452"/>
<polygon fill="black" stroke="black" points="667.35,-1454.25 670.35,-1444.09 661.67,-1450.16 667.35,-1454.25"/>
</g>
<!-- types -->
<g id="node53" class="node">
<title>types</title>
<polygon fill="#ffd6d6" stroke="black" points="1445.5,-1721.58 1391.5,-1721.58 1391.5,-1685.58 1445.5,-1685.58 1445.5,-1721.58"/>
<text text-anchor="middle" x="1418.5" y="-1699.28" font-family="sans-serif" font-size="14.00">types</text>
</g>
<!-- alethe&#45;&gt;types -->
<g id="edge20" class="edge">
<title>alethe&#45;&gt;types</title>
<path fill="none" stroke="black" d="M583.84,-1602.26C618.48,-1602.16 679.83,-1602.92 732,-1608.58 841.9,-1620.5 866.08,-1653.58 976.62,-1653.58 976.62,-1653.58 976.62,-1653.58 1194.25,-1653.58 1261.11,-1653.58 1336.58,-1675.2 1380.42,-1690.01"/>
<polygon fill="black" stroke="black" points="1379.1,-1693.25 1389.69,-1693.21 1381.38,-1686.64 1379.1,-1693.25"/>
</g>
<!-- arrow -->
<g id="node4" class="node">
<title>arrow</title>
<polygon fill="none" stroke="black" points="582.38,-757.58 528.38,-757.58 528.38,-721.58 582.38,-721.58 582.38,-757.58"/>
<text text-anchor="middle" x="555.38" y="-735.28" font-family="sans-serif" font-size="14.00">arrow</text>
</g>
<!-- client&#45;&gt;hash -->
<g id="edge21" class="edge">
<title>client&#45;&gt;hash</title>
<path fill="none" stroke="black" d="M350.54,-797.91C435.04,-795.76 699,-789.05 797.66,-786.54"/>
<polygon fill="black" stroke="black" points="797.7,-790.04 807.61,-786.28 797.52,-783.04 797.7,-790.04"/>
</g>
<!-- client&#45;&gt;shell -->
<g id="edge22" class="edge">
<title>client&#45;&gt;shell</title>
<path fill="none" stroke="black" d="M340.17,-816.83C350.23,-829.37 362.49,-846.89 369,-864.58 420.12,-1003.45 375.55,-1050.56 405,-1195.58 410.52,-1222.74 419.87,-1252.89 427.13,-1274.41"/>
<polygon fill="black" stroke="black" points="423.75,-1275.36 430.31,-1283.68 430.37,-1273.09 423.75,-1275.36"/>
</g>
<!-- client&#45;&gt;store -->
<g id="edge23" class="edge">
<title>client&#45;&gt;store</title>
<path fill="none" stroke="black" d="M350.58,-789.2C388.55,-775.23 455.73,-748.48 472,-728.58 514.29,-676.83 481.75,-644.04 508,-582.58 550.59,-482.85 578.53,-466.76 638.75,-376.58 647.06,-364.13 656.54,-350.54 664.68,-339.03"/>
<polygon fill="black" stroke="black" points="667.35,-341.32 670.29,-331.15 661.64,-337.27 667.35,-341.32"/>
</g>
<!-- pure -->
<g id="node37" class="node">
<title>pure</title>
<polygon fill="#ffd6d6" stroke="black" points="1220.25,-1767.58 1166.25,-1767.58 1166.25,-1731.58 1220.25,-1731.58 1220.25,-1767.58"/>
<text text-anchor="middle" x="1193.25" y="-1745.28" font-family="sans-serif" font-size="14.00">pure</text>
</g>
<!-- core&#45;&gt;pure -->
<g id="edge24" class="edge">
<title>core&#45;&gt;pure</title>
<path fill="none" stroke="black" d="M1004.82,-1860.13C1042.78,-1837.74 1113.21,-1796.2 1156.09,-1770.91"/>
<polygon fill="black" stroke="black" points="1157.7,-1774.02 1164.54,-1765.92 1154.15,-1767.99 1157.7,-1774.02"/>
</g>
<!-- pure&#45;eval -->
<g id="node38" class="node">
<title>pure&#45;eval</title>
<polygon fill="#ffd6d6" stroke="black" points="1130.25,-1721.58 1050.5,-1721.58 1050.5,-1685.58 1130.25,-1685.58 1130.25,-1721.58"/>
<text text-anchor="middle" x="1090.38" y="-1699.28" font-family="sans-serif" font-size="14.00">pure&#45;eval</text>
</g>
<!-- core&#45;&gt;pure&#45;eval -->
<g id="edge25" class="edge">
<title>core&#45;&gt;pure&#45;eval</title>
<path fill="none" stroke="black" d="M990.48,-1857.17C1009.96,-1826.91 1048.87,-1766.49 1071.64,-1731.12"/>
<polygon fill="black" stroke="black" points="1074.32,-1733.43 1076.79,-1723.13 1068.43,-1729.64 1074.32,-1733.43"/>
</g>
<!-- core&#45;&gt;types -->
<g id="edge26" class="edge">
<title>core&#45;&gt;types</title>
<path fill="none" stroke="black" d="M1004.96,-1881.26C1070.96,-1893.94 1246.04,-1917.58 1355.5,-1839.58 1390.54,-1814.61 1406.2,-1764.93 1412.88,-1733.02"/>
<polygon fill="black" stroke="black" points="1416.31,-1733.72 1414.75,-1723.24 1409.44,-1732.41 1416.31,-1733.72"/>
</g>
<!-- core&#45;test&#45;guest -->
<g id="node7" class="node">
<title>core&#45;test&#45;guest</title>
<polygon fill="none" stroke="black" points="121,-940.58 0,-940.58 0,-904.58 121,-904.58 121,-940.58"/>
<text text-anchor="middle" x="60.5" y="-918.28" font-family="sans-serif" font-size="14.00">core&#45;test&#45;guest</text>
</g>
<!-- crypto&#45;sig -->
<g id="node8" class="node">
<title>crypto&#45;sig</title>
<polygon fill="none" stroke="black" points="241.25,-253.58 157,-253.58 157,-217.58 241.25,-217.58 241.25,-253.58"/>
<text text-anchor="middle" x="199.12" y="-231.28" font-family="sans-serif" font-size="14.00">crypto&#45;sig</text>
</g>
<!-- egglog -->
<g id="node9" class="node">
<title>egglog</title>
<polygon fill="none" stroke="black" points="866.88,-1457.58 805.88,-1457.58 805.88,-1421.58 866.88,-1421.58 866.88,-1457.58"/>
<text text-anchor="middle" x="836.38" y="-1435.28" font-family="sans-serif" font-size="14.00">egglog</text>
</g>
<!-- egglog&#45;&gt;sexp -->
<g id="edge27" class="edge">
<title>egglog&#45;&gt;sexp</title>
<path fill="none" stroke="black" d="M867.22,-1430.41C880,-1425.31 894.34,-1417.87 904.75,-1407.58 938.39,-1374.31 958.68,-1322.11 968.75,-1289.7"/>
<polygon fill="black" stroke="black" points="972.09,-1290.75 971.58,-1280.17 965.38,-1288.76 972.09,-1290.75"/>
</g>
<!-- egglog&#45;&gt;types -->
<g id="edge28" class="edge">
<title>egglog&#45;&gt;types</title>
<path fill="none" stroke="black" d="M867.24,-1440.36C914.42,-1441.52 1009.08,-1443.58 1089.38,-1443.58 1089.38,-1443.58 1089.38,-1443.58 1194.25,-1443.58 1266.99,-1443.58 1301.82,-1422.49 1355.5,-1471.58 1385.31,-1498.84 1405.51,-1617.76 1413.58,-1673.96"/>
<polygon fill="black" stroke="black" points="1410.09,-1674.34 1414.94,-1683.76 1417.03,-1673.37 1410.09,-1674.34"/>
</g>
<!-- forsp -->
<g id="node10" class="node">
<title>forsp</title>
<polygon fill="none" stroke="black" points="465.5,-1115.58 411.5,-1115.58 411.5,-1079.58 465.5,-1079.58 465.5,-1115.58"/>
<text text-anchor="middle" x="438.5" y="-1093.28" font-family="sans-serif" font-size="14.00">forsp</text>
</g>
<!-- forsp&#45;&gt;hash -->
<g id="edge29" class="edge">
<title>forsp&#45;&gt;hash</title>
<path fill="none" stroke="black" d="M465.74,-1088.86C521.14,-1069.33 651.55,-1017.26 732,-935.58 769.09,-897.92 801.8,-845.51 820.05,-813.65"/>
<polygon fill="black" stroke="black" points="823.07,-815.44 824.93,-805.01 816.97,-812 823.07,-815.44"/>
</g>
<!-- forsp&#45;&gt;sexp -->
<g id="edge30" class="edge">
<title>forsp&#45;&gt;sexp</title>
<path fill="none" stroke="black" d="M465.92,-1099.11C563.09,-1104.79 895.43,-1124.63 904.75,-1130.58 940.6,-1153.47 960.09,-1200.82 969.42,-1231.62"/>
<polygon fill="black" stroke="black" points="966,-1232.4 972.1,-1241.07 972.74,-1230.49 966,-1232.4"/>
</g>
<!-- fuse&#45;&gt;hash -->
<g id="edge31" class="edge">
<title>fuse&#45;&gt;hash</title>
<path fill="none" stroke="black" d="M582.68,-608.46C619.06,-608.15 685.51,-612.16 732,-641.58 776.16,-669.52 807.22,-723.75 823.13,-757.1"/>
<polygon fill="black" stroke="black" points="819.94,-758.55 827.31,-766.17 826.3,-755.62 819.94,-758.55"/>
</g>
<!-- fuse&#45;&gt;object -->
<g id="edge32" class="edge">
<title>fuse&#45;&gt;object</title>
<path fill="none" stroke="black" d="M569.98,-627.99C579.81,-641.77 593.01,-661.31 602.75,-679.58 633.21,-736.71 660.3,-807.72 674.3,-846.66"/>
<polygon fill="black" stroke="black" points="670.9,-847.54 677.55,-855.79 677.5,-845.19 670.9,-847.54"/>
</g>
<!-- fuse&#45;&gt;store -->
<g id="edge33" class="edge">
<title>fuse&#45;&gt;store</title>
<path fill="none" stroke="black" d="M582.6,-596.64C590.2,-591.68 597.77,-585.31 602.75,-577.58 651.88,-501.27 603.86,-460.36 638.75,-376.58 644.34,-363.15 653.07,-349.76 661.4,-338.65"/>
<polygon fill="black" stroke="black" points="663.9,-341.13 667.3,-331.09 658.38,-336.82 663.9,-341.13"/>
</g>
<!-- git&#45;&gt;hash -->
<g id="edge34" class="edge">
<title>git&#45;&gt;hash</title>
<path fill="none" stroke="black" d="M465.62,-462.13C521.37,-466.76 653.31,-484.98 732,-555.58 792.83,-610.15 819.92,-707.44 830.12,-756.12"/>
<polygon fill="black" stroke="black" points="826.69,-756.79 832.07,-765.91 833.55,-755.42 826.69,-756.79"/>
</g>
<!-- git&#45;&gt;object -->
<g id="edge35" class="edge">
<title>git&#45;&gt;object</title>
<path fill="none" stroke="black" d="M461,-479.04C465.14,-483.45 469.08,-488.39 472,-493.58 504.12,-550.71 472.59,-581.43 508,-636.58 537.16,-682.01 568.83,-670.59 602.75,-712.58 636.43,-754.27 661.27,-812.14 674.23,-846.53"/>
<polygon fill="black" stroke="black" points="670.91,-847.64 677.64,-855.82 677.48,-845.22 670.91,-847.64"/>
</g>
<!-- sqlite -->
<g id="node50" class="node">
<title>sqlite</title>
<polygon fill="none" stroke="black" points="863.38,-329.58 809.38,-329.58 809.38,-293.58 863.38,-293.58 863.38,-329.58"/>
<text text-anchor="middle" x="836.38" y="-307.28" font-family="sans-serif" font-size="14.00">sqlite</text>
</g>
<!-- git&#45;&gt;sqlite -->
<g id="edge36" class="edge">
<title>git&#45;&gt;sqlite</title>
<path fill="none" stroke="black" d="M465.98,-448.62C503.89,-431.68 576.02,-400.13 638.75,-376.58 693.71,-355.95 758.54,-335.19 798.3,-322.87"/>
<polygon fill="black" stroke="black" points="799.09,-326.28 807.62,-319.99 797.03,-319.59 799.09,-326.28"/>
</g>
<!-- git&#45;&gt;store -->
<g id="edge37" class="edge">
<title>git&#45;&gt;store</title>
<path fill="none" stroke="black" d="M447.03,-442.33C457.38,-419.52 478.17,-380.88 508,-359.58 549.66,-329.82 608.85,-318.51 646.93,-314.21"/>
<polygon fill="black" stroke="black" points="646.93,-317.73 656.53,-313.24 646.23,-310.76 646.93,-317.73"/>
</g>
<!-- grammar -->
<g id="node13" class="node">
<title>grammar</title>
<polygon fill="none" stroke="black" points="1014.5,-1568.58 940.75,-1568.58 940.75,-1532.58 1014.5,-1532.58 1014.5,-1568.58"/>
<text text-anchor="middle" x="977.62" y="-1546.28" font-family="sans-serif" font-size="14.00">grammar</text>
</g>
<!-- graph -->
<g id="node14" class="node">
<title>graph</title>
<polygon fill="none" stroke="black" points="465.5,-538.58 411.5,-538.58 411.5,-502.58 465.5,-502.58 465.5,-538.58"/>
<text text-anchor="middle" x="438.5" y="-516.28" font-family="sans-serif" font-size="14.00">graph</text>
</g>
<!-- graph&#45;&gt;hash -->
<g id="edge38" class="edge">
<title>graph&#45;&gt;hash</title>
<path fill="none" stroke="black" d="M465.88,-522.02C520.99,-526.3 649.99,-543.02 732,-607.58 781.71,-646.71 812.1,-716.84 826.12,-756.38"/>
<polygon fill="black" stroke="black" points="822.76,-757.38 829.31,-765.71 829.39,-755.11 822.76,-757.38"/>
</g>
<!-- parse -->
<g id="node34" class="node">
<title>parse</title>
<polygon fill="none" stroke="black" points="1117.38,-971.58 1063.38,-971.58 1063.38,-935.58 1117.38,-935.58 1117.38,-971.58"/>
<text text-anchor="middle" x="1090.38" y="-949.28" font-family="sans-serif" font-size="14.00">parse</text>
</g>
<!-- graph&#45;&gt;parse -->
<g id="edge39" class="edge">
<title>graph&#45;&gt;parse</title>
<path fill="none" stroke="black" d="M465.8,-514.68C510.47,-505.19 604.16,-487.58 684.38,-487.58 684.38,-487.58 684.38,-487.58 837.38,-487.58 1036.68,-487.58 1079.13,-821.46 1087.47,-923.99"/>
<polygon fill="black" stroke="black" points="1083.97,-924.09 1088.21,-933.8 1090.95,-923.57 1083.97,-924.09"/>
</g>
<!-- rand -->
<g id="node41" class="node">
<title>rand</title>
<polygon fill="none" stroke="black" points="1004.62,-803.58 950.62,-803.58 950.62,-767.58 1004.62,-767.58 1004.62,-803.58"/>
<text text-anchor="middle" x="977.62" y="-781.28" font-family="sans-serif" font-size="14.00">rand</text>
</g>
<!-- hash&#45;&gt;rand -->
<g id="edge40" class="edge">
<title>hash&#45;&gt;rand</title>
<path fill="none" stroke="black" d="M863.57,-785.58C884.86,-785.58 915.19,-785.58 939.07,-785.58"/>
<polygon fill="black" stroke="black" points="939.04,-789.08 949.04,-785.58 939.04,-782.08 939.04,-789.08"/>
</g>
<!-- haskell -->
<g id="node16" class="node">
<title>haskell</title>
<polygon fill="none" stroke="black" points="469.75,-1811.58 407.25,-1811.58 407.25,-1775.58 469.75,-1775.58 469.75,-1811.58"/>
<text text-anchor="middle" x="438.5" y="-1789.28" font-family="sans-serif" font-size="14.00">haskell</text>
</g>
<!-- hol&#45;api -->
<g id="node18" class="node">
<title>hol&#45;api</title>
<polygon fill="none" stroke="black" points="586.62,-1898.58 524.12,-1898.58 524.12,-1862.58 586.62,-1862.58 586.62,-1898.58"/>
<text text-anchor="middle" x="555.38" y="-1876.28" font-family="sans-serif" font-size="14.00">hol&#45;api</text>
</g>
<!-- haskell&#45;&gt;hol&#45;api -->
<g id="edge41" class="edge">
<title>haskell&#45;&gt;hol&#45;api</title>
<path fill="none" stroke="black" d="M461.7,-1812.08C474.95,-1822.95 492.22,-1836.82 508,-1848.58 511.15,-1850.93 514.46,-1853.33 517.8,-1855.71"/>
<polygon fill="black" stroke="black" points="515.73,-1858.54 525.93,-1861.42 519.76,-1852.81 515.73,-1858.54"/>
</g>
<!-- haskell&#45;&gt;hol&#45;eval -->
<g id="edge42" class="edge">
<title>haskell&#45;&gt;hol&#45;eval</title>
<path fill="none" stroke="black" d="M470.24,-1790.39C503.09,-1786.89 556.68,-1780.92 602.75,-1774.58 667.92,-1765.61 743.04,-1753.3 789.88,-1745.39"/>
<polygon fill="black" stroke="black" points="790.38,-1748.86 799.66,-1743.73 789.21,-1741.96 790.38,-1748.86"/>
</g>
<!-- haskell&#45;&gt;init -->
<g id="edge43" class="edge">
<title>haskell&#45;&gt;init</title>
<path fill="none" stroke="black" d="M450.07,-1775.31C457.09,-1762.56 466.07,-1744.95 472,-1728.58 495.78,-1662.89 457.61,-1623.96 508,-1575.58 527.45,-1556.9 601.12,-1547.94 646.87,-1544.1"/>
<polygon fill="black" stroke="black" points="646.93,-1547.6 656.62,-1543.32 646.37,-1540.62 646.93,-1547.6"/>
</g>
<!-- haskell&#45;&gt;types -->
<g id="edge44" class="edge">
<title>haskell&#45;&gt;types</title>
<path fill="none" stroke="black" d="M442.5,-1811.88C455.72,-1885.69 515.86,-2157.58 684.38,-2157.58 684.38,-2157.58 684.38,-2157.58 1194.25,-2157.58 1383.96,-2157.58 1412.47,-1834.4 1416.75,-1733.38"/>
<polygon fill="black" stroke="black" points="1420.24,-1733.57 1417.11,-1723.45 1413.25,-1733.32 1420.24,-1733.57"/>
</g>
<!-- hol&#45;&gt;core -->
<g id="edge45" class="edge">
<title>hol&#45;&gt;core</title>
<path fill="none" stroke="black" d="M863.57,-1882.07C884.86,-1880.85 915.19,-1879.11 939.07,-1877.74"/>
<polygon fill="black" stroke="black" points="939.26,-1881.23 949.04,-1877.16 938.86,-1874.24 939.26,-1881.23"/>
</g>
<!-- hol&#45;api&#45;&gt;core -->
<g id="edge46" class="edge">
<title>hol&#45;api&#45;&gt;core</title>
<path fill="none" stroke="black" d="M586.84,-1896.92C648.81,-1927.84 793.11,-1988.02 904.75,-1943.58 925.56,-1935.29 943.82,-1917.8 956.73,-1902.64"/>
<polygon fill="black" stroke="black" points="959.15,-1905.21 962.73,-1895.24 953.71,-1900.8 959.15,-1905.21"/>
</g>
<!-- hol&#45;api&#45;&gt;hol&#45;eval -->
<g id="edge47" class="edge">
<title>hol&#45;api&#45;&gt;hol&#45;eval</title>
<path fill="none" stroke="black" d="M579.31,-1862.2C595.37,-1849.81 617.66,-1833.61 638.75,-1821.58 693.28,-1790.47 710.13,-1788.93 768,-1764.58 775.26,-1761.52 783,-1758.35 790.54,-1755.3"/>
<polygon fill="black" stroke="black" points="791.63,-1758.63 799.6,-1751.65 789.02,-1752.14 791.63,-1758.63"/>
</g>
<!-- inductive -->
<g id="node20" class="node">
<title>inductive</title>
<polygon fill="none" stroke="black" points="874.75,-1809.58 798,-1809.58 798,-1773.58 874.75,-1773.58 874.75,-1809.58"/>
<text text-anchor="middle" x="836.38" y="-1787.28" font-family="sans-serif" font-size="14.00">inductive</text>
</g>
<!-- hol&#45;api&#45;&gt;inductive -->
<g id="edge48" class="edge">
<title>hol&#45;api&#45;&gt;inductive</title>
<path fill="none" stroke="black" d="M587.03,-1870.8C635.3,-1855.4 729.45,-1825.37 786.94,-1807.03"/>
<polygon fill="black" stroke="black" points="787.67,-1810.47 796.13,-1804.1 785.54,-1803.8 787.67,-1810.47"/>
</g>
<!-- hol&#45;api&#45;&gt;init -->
<g id="edge49" class="edge">
<title>hol&#45;api&#45;&gt;init</title>
<path fill="none" stroke="black" d="M564.84,-1862.37C574.48,-1841.39 590.47,-1805.8 602.75,-1774.58 631.26,-1702.08 660.43,-1615.07 674.96,-1570.71"/>
<polygon fill="black" stroke="black" points="678.25,-1571.91 678.02,-1561.32 671.59,-1569.74 678.25,-1571.91"/>
</g>
<!-- hol&#45;api&#45;&gt;pure -->
<g id="edge50" class="edge">
<title>hol&#45;api&#45;&gt;pure</title>
<path fill="none" stroke="black" d="M572.34,-1898.94C587.63,-1915.18 612.23,-1938.05 638.75,-1949.58 747.36,-1996.81 790.31,-1996.09 904.75,-1965.58 1019.42,-1935.01 1042.27,-1902.22 1130.25,-1822.58 1145.52,-1808.76 1160.53,-1791.22 1171.95,-1776.8"/>
<polygon fill="black" stroke="black" points="1174.61,-1779.08 1177.98,-1769.04 1169.08,-1774.79 1174.61,-1779.08"/>
</g>
<!-- hol&#45;api&#45;&gt;types -->
<g id="edge51" class="edge">
<title>hol&#45;api&#45;&gt;types</title>
<path fill="none" stroke="black" d="M568.77,-1898.77C604.11,-1948.25 710.9,-2081.58 835.38,-2081.58 835.38,-2081.58 835.38,-2081.58 1194.25,-2081.58 1355.83,-2081.58 1402.9,-1822.34 1414.3,-1733.23"/>
<polygon fill="black" stroke="black" points="1417.74,-1733.92 1415.47,-1723.57 1410.8,-1733.07 1417.74,-1733.92"/>
</g>
<!-- hol&#45;eval&#45;&gt;core -->
<g id="edge52" class="edge">
<title>hol&#45;eval&#45;&gt;core</title>
<path fill="none" stroke="black" d="M871.69,-1745.85C883.26,-1749.97 895.55,-1755.97 904.75,-1764.58 931.75,-1789.84 919.4,-1809.39 940.75,-1839.58 943.01,-1842.77 945.56,-1845.94 948.24,-1849"/>
<polygon fill="black" stroke="black" points="945.54,-1851.23 954.94,-1856.13 950.64,-1846.44 945.54,-1851.23"/>
</g>
<!-- hol&#45;eval&#45;&gt;pure -->
<g id="edge53" class="edge">
<title>hol&#45;eval&#45;&gt;pure</title>
<path fill="none" stroke="black" d="M871.72,-1738.74C938.48,-1741 1085.26,-1745.96 1154.58,-1748.3"/>
<polygon fill="black" stroke="black" points="1154.18,-1751.79 1164.29,-1748.63 1154.42,-1744.8 1154.18,-1751.79"/>
</g>
<!-- hol&#45;eval&#45;&gt;pure&#45;eval -->
<g id="edge54" class="edge">
<title>hol&#45;eval&#45;&gt;pure&#45;eval</title>
<path fill="none" stroke="black" d="M871.62,-1732.96C914.82,-1727.13 989.44,-1717.06 1039.11,-1710.36"/>
<polygon fill="black" stroke="black" points="1039.29,-1713.87 1048.73,-1709.06 1038.35,-1706.93 1039.29,-1713.87"/>
</g>
<!-- hol&#45;eval&#45;&gt;sexp -->
<g id="edge55" class="edge">
<title>hol&#45;eval&#45;&gt;sexp</title>
<path fill="none" stroke="black" d="M845.12,-1719.29C858.52,-1687.18 886.35,-1618.4 904.75,-1558.58 934.56,-1461.63 959.82,-1343.87 970.78,-1290.02"/>
<polygon fill="black" stroke="black" points="974.17,-1290.91 972.72,-1280.41 967.31,-1289.52 974.17,-1290.91"/>
</g>
<!-- hol&#45;eval&#45;&gt;types -->
<g id="edge56" class="edge">
<title>hol&#45;eval&#45;&gt;types</title>
<path fill="none" stroke="black" d="M871.59,-1750.94C935.14,-1775.56 1067.02,-1825.58 1089.38,-1825.58 1089.38,-1825.58 1089.38,-1825.58 1194.25,-1825.58 1269.15,-1825.58 1292.88,-1817.68 1355.5,-1776.58 1373.46,-1764.79 1389.08,-1746.31 1400.15,-1730.89"/>
<polygon fill="black" stroke="black" points="1402.78,-1733.24 1405.58,-1723.02 1397.02,-1729.27 1402.78,-1733.24"/>
</g>
<!-- init&#45;&gt;core -->
<g id="edge57" class="edge">
<title>init&#45;&gt;core</title>
<path fill="none" stroke="black" d="M700.68,-1559.89C716.02,-1578.77 741.73,-1608.38 768,-1629.58 822.98,-1673.93 857.99,-1657.63 904.75,-1710.58 940.06,-1750.56 960.24,-1810.58 969.76,-1846.15"/>
<polygon fill="black" stroke="black" points="966.35,-1846.92 972.22,-1855.74 973.13,-1845.18 966.35,-1846.92"/>
</g>
<!-- init&#45;&gt;grammar -->
<g id="edge58" class="edge">
<title>init&#45;&gt;grammar</title>
<path fill="none" stroke="black" d="M712.63,-1548.48C728.53,-1552.3 749.28,-1556.65 768,-1558.58 828.46,-1564.81 844.07,-1561.95 904.75,-1558.58 912.67,-1558.14 921.07,-1557.43 929.21,-1556.61"/>
<polygon fill="black" stroke="black" points="929.42,-1560.11 938.99,-1555.55 928.67,-1553.15 929.42,-1560.11"/>
</g>
<!-- init&#45;&gt;hash -->
<g id="edge59" class="edge">
<title>init&#45;&gt;hash</title>
<path fill="none" stroke="black" d="M698.49,-1523.17C709.38,-1505.58 724.73,-1477.92 732,-1451.58 793.5,-1228.69 710.91,-1156.64 768,-932.58 779.11,-888.97 802.73,-842.33 818.83,-813.56"/>
<polygon fill="black" stroke="black" points="821.73,-815.54 823.64,-805.12 815.65,-812.08 821.73,-815.54"/>
</g>
<!-- init&#45;&gt;hol -->
<g id="edge60" class="edge">
<title>init&#45;&gt;hol</title>
<path fill="none" stroke="black" d="M688.5,-1560.05C694.53,-1606.54 714.85,-1730.9 768,-1818.58 776.88,-1833.23 789.87,-1846.84 802.08,-1857.77"/>
<polygon fill="black" stroke="black" points="799.76,-1860.39 809.62,-1864.26 804.32,-1855.08 799.76,-1860.39"/>
</g>
<!-- init&#45;&gt;hol&#45;eval -->
<g id="edge61" class="edge">
<title>init&#45;&gt;hol&#45;eval</title>
<path fill="none" stroke="black" d="M699.89,-1559.94C709.63,-1573.7 722.64,-1593.23 732,-1611.58 752.33,-1651.43 737.62,-1672.74 768,-1705.58 774.31,-1712.4 782.39,-1717.92 790.74,-1722.32"/>
<polygon fill="black" stroke="black" points="789.05,-1725.39 799.59,-1726.5 792.04,-1719.06 789.05,-1725.39"/>
</g>
<!-- init&#45;&gt;inductive -->
<g id="edge62" class="edge">
<title>init&#45;&gt;inductive</title>
<path fill="none" stroke="black" d="M688.07,-1559.8C692.89,-1601.55 710.3,-1705.1 768,-1764.58 773.42,-1770.17 780.16,-1774.63 787.25,-1778.19"/>
<polygon fill="black" stroke="black" points="785.84,-1781.39 796.4,-1782.17 788.63,-1774.97 785.84,-1781.39"/>
</g>
<!-- metamath -->
<g id="node29" class="node">
<title>metamath</title>
<polygon fill="none" stroke="black" points="876.62,-1175.58 796.12,-1175.58 796.12,-1139.58 876.62,-1139.58 876.62,-1175.58"/>
<text text-anchor="middle" x="836.38" y="-1153.28" font-family="sans-serif" font-size="14.00">metamath</text>
</g>
<!-- init&#45;&gt;metamath -->
<g id="edge63" class="edge">
<title>init&#45;&gt;metamath</title>
<path fill="none" stroke="black" d="M696.53,-1523.3C706.3,-1505.35 721.13,-1477.03 732,-1451.58 772.5,-1356.75 809.99,-1240.17 826.51,-1186.78"/>
<polygon fill="black" stroke="black" points="829.85,-1187.82 829.44,-1177.24 823.16,-1185.77 829.85,-1187.82"/>
</g>
<!-- init&#45;&gt;sexp -->
<g id="edge64" class="edge">
<title>init&#45;&gt;sexp</title>
<path fill="none" stroke="black" d="M696.01,-1523.09C712.93,-1491.22 748.1,-1427.89 768,-1412.58 818.5,-1373.74 853.89,-1407.95 904.75,-1369.58 932.49,-1348.65 952.79,-1313.7 964.6,-1289.02"/>
<polygon fill="black" stroke="black" points="967.66,-1290.74 968.65,-1280.2 961.3,-1287.82 967.66,-1290.74"/>
</g>
<!-- spectec -->
<g id="node49" class="node">
<title>spectec</title>
<polygon fill="none" stroke="black" points="871,-1549.58 801.75,-1549.58 801.75,-1513.58 871,-1513.58 871,-1549.58"/>
<text text-anchor="middle" x="836.38" y="-1527.28" font-family="sans-serif" font-size="14.00">spectec</text>
</g>
<!-- init&#45;&gt;spectec -->
<g id="edge65" class="edge">
<title>init&#45;&gt;spectec</title>
<path fill="none" stroke="black" d="M712.67,-1539.81C734.12,-1538.37 764.9,-1536.31 790.27,-1534.61"/>
<polygon fill="black" stroke="black" points="790.24,-1538.12 799.98,-1533.95 789.77,-1531.13 790.24,-1538.12"/>
</g>
<!-- init&#45;&gt;types -->
<g id="edge66" class="edge">
<title>init&#45;&gt;types</title>
<path fill="none" stroke="black" d="M712.76,-1553.73C728.52,-1560.62 749.1,-1568.96 768,-1574.58 858.57,-1601.52 882.13,-1615.58 976.62,-1615.58 976.62,-1615.58 976.62,-1615.58 1194.25,-1615.58 1266.71,-1615.58 1291.05,-1606.47 1355.5,-1639.58 1372.27,-1648.19 1387.13,-1663.11 1398.09,-1676.38"/>
<polygon fill="black" stroke="black" points="1395.16,-1678.32 1404.09,-1684.01 1400.66,-1673.99 1395.16,-1678.32"/>
</g>
<!-- json -->
<g id="node22" class="node">
<title>json</title>
<polygon fill="none" stroke="black" points="863.38,-237.58 809.38,-237.58 809.38,-201.58 863.38,-201.58 863.38,-237.58"/>
<text text-anchor="middle" x="836.38" y="-215.28" font-family="sans-serif" font-size="14.00">json</text>
</g>
<!-- kernel -->
<g id="node23" class="node">
<title>kernel</title>
<polygon fill="none" stroke="black" points="584,-1267.58 526.75,-1267.58 526.75,-1231.58 584,-1231.58 584,-1267.58"/>
<text text-anchor="middle" x="555.38" y="-1245.28" font-family="sans-serif" font-size="14.00">kernel</text>
</g>
<!-- kernel&#45;&gt;hash -->
<g id="edge67" class="edge">
<title>kernel&#45;&gt;hash</title>
<path fill="none" stroke="black" d="M559.52,-1231.28C566.87,-1193.59 588.52,-1106.46 638.75,-1054.58 670.49,-1021.79 699.8,-1043.92 732,-1011.58 759.22,-984.23 751.96,-967.67 768,-932.58 786.83,-891.37 808.7,-843.7 822.28,-814.09"/>
<polygon fill="black" stroke="black" points="825.44,-815.6 826.43,-805.05 819.08,-812.68 825.44,-815.6"/>
</g>
<!-- kernel&#45;&gt;init -->
<g id="edge68" class="edge">
<title>kernel&#45;&gt;init</title>
<path fill="none" stroke="black" d="M584.39,-1263.91C591.32,-1268.67 598.09,-1274.58 602.75,-1281.58 645.57,-1345.85 613.07,-1378.74 638.75,-1451.58 646.32,-1473.06 657.97,-1495.93 667.6,-1513.25"/>
<polygon fill="black" stroke="black" points="664.55,-1514.97 672.54,-1521.93 670.64,-1511.51 664.55,-1514.97"/>
</g>
<!-- kernel&#45;&gt;object -->
<g id="edge69" class="edge">
<title>kernel&#45;&gt;object</title>
<path fill="none" stroke="black" d="M562.64,-1231.29C583.27,-1171.01 649.22,-978.28 674.44,-904.6"/>
<polygon fill="black" stroke="black" points="677.71,-905.86 677.64,-895.27 671.09,-903.6 677.71,-905.86"/>
</g>
<!-- kernel&#45;&gt;sexp -->
<g id="edge70" class="edge">
<title>kernel&#45;&gt;sexp</title>
<path fill="none" stroke="black" d="M584.27,-1250.31C657.57,-1252.23 855.66,-1257.41 938.94,-1259.59"/>
<polygon fill="black" stroke="black" points="938.76,-1263.09 948.85,-1259.85 938.95,-1256.09 938.76,-1263.09"/>
</g>
<!-- kernel&#45;&gt;store -->
<g id="edge71" class="edge">
<title>kernel&#45;&gt;store</title>
<path fill="none" stroke="black" d="M558.17,-1231.16C564.4,-1167.04 585.69,-947.74 602.75,-766.58 619.07,-593.27 578.73,-539.97 638.75,-376.58 643.68,-363.17 652.09,-349.96 660.36,-338.99"/>
<polygon fill="black" stroke="black" points="663.1,-341.18 666.57,-331.17 657.61,-336.83 663.1,-341.18"/>
</g>
<!-- kv -->
<g id="node24" class="node">
<title>kv</title>
<polygon fill="none" stroke="black" points="226.12,-161.58 172.12,-161.58 172.12,-125.58 226.12,-125.58 226.12,-161.58"/>
<text text-anchor="middle" x="199.12" y="-139.28" font-family="sans-serif" font-size="14.00">kv</text>
</g>
<!-- lean -->
<g id="node25" class="node">
<title>lean</title>
<polygon fill="none" stroke="black" points="87.5,-994.58 33.5,-994.58 33.5,-958.58 87.5,-958.58 87.5,-994.58"/>
<text text-anchor="middle" x="60.5" y="-972.28" font-family="sans-serif" font-size="14.00">lean</text>
</g>
<!-- lisp -->
<g id="node26" class="node">
<title>lisp</title>
<polygon fill="none" stroke="black" points="465.5,-1719.58 411.5,-1719.58 411.5,-1683.58 465.5,-1683.58 465.5,-1719.58"/>
<text text-anchor="middle" x="438.5" y="-1697.28" font-family="sans-serif" font-size="14.00">lisp</text>
</g>
<!-- lisp&#45;&gt;core -->
<g id="edge72" class="edge">
<title>lisp&#45;&gt;core</title>
<path fill="none" stroke="black" d="M453.81,-1720.02C466.76,-1735.86 486.96,-1758.6 508,-1774.58 611.85,-1853.46 641.36,-1879.46 768,-1910.58 827.02,-1925.08 845.53,-1924.23 904.75,-1910.58 916.84,-1907.79 929.26,-1902.68 940.29,-1897.21"/>
<polygon fill="black" stroke="black" points="941.82,-1900.36 949.06,-1892.62 938.57,-1894.16 941.82,-1900.36"/>
</g>
<!-- lisp&#45;&gt;hol&#45;api -->
<g id="edge73" class="edge">
<title>lisp&#45;&gt;hol&#45;api</title>
<path fill="none" stroke="black" d="M448.99,-1719.95C455.61,-1732.9 464.55,-1750.7 472,-1766.58 488.91,-1802.61 482.66,-1817.89 508,-1848.58 510.24,-1851.29 512.77,-1853.88 515.46,-1856.32"/>
<polygon fill="black" stroke="black" points="512.75,-1858.62 522.72,-1862.21 517.16,-1853.19 512.75,-1858.62"/>
</g>
<!-- lisp&#45;&gt;hol&#45;eval -->
<g id="edge74" class="edge">
<title>lisp&#45;&gt;hol&#45;eval</title>
<path fill="none" stroke="black" d="M465.74,-1695.64C517.46,-1684.95 635.86,-1665.55 732,-1687.58 754.46,-1692.73 777.72,-1703.42 796.47,-1713.6"/>
<polygon fill="black" stroke="black" points="794.63,-1716.58 805.07,-1718.42 798.06,-1710.48 794.63,-1716.58"/>
</g>
<!-- lisp&#45;&gt;init -->
<g id="edge75" class="edge">
<title>lisp&#45;&gt;init</title>
<path fill="none" stroke="black" d="M441.12,-1683.25C445.26,-1648.71 459.63,-1574.6 508,-1542.58 549.19,-1515.31 608.5,-1522.01 646.74,-1530.7"/>
<polygon fill="black" stroke="black" points="645.87,-1534.09 656.42,-1533.06 647.54,-1527.29 645.87,-1534.09"/>
</g>
<!-- repl&#45;core -->
<g id="node43" class="node">
<title>repl&#45;core</title>
<polygon fill="none" stroke="black" points="594.5,-1765.58 516.25,-1765.58 516.25,-1729.58 594.5,-1729.58 594.5,-1765.58"/>
<text text-anchor="middle" x="555.38" y="-1743.28" font-family="sans-serif" font-size="14.00">repl&#45;core</text>
</g>
<!-- lisp&#45;&gt;repl&#45;core -->
<g id="edge76" class="edge">
<title>lisp&#45;&gt;repl&#45;core</title>
<path fill="none" stroke="black" d="M465.85,-1712.13C477.56,-1716.82 491.74,-1722.5 505.28,-1727.92"/>
<polygon fill="black" stroke="black" points="503.95,-1731.16 514.54,-1731.63 506.56,-1724.66 503.95,-1731.16"/>
</g>
<!-- lisp&#45;&gt;sexp -->
<g id="edge77" class="edge">
<title>lisp&#45;&gt;sexp</title>
<path fill="none" stroke="black" d="M443.37,-1683.13C457.3,-1621.6 511.02,-1422.19 638.75,-1330.58 686.79,-1296.12 861.58,-1273.19 939.13,-1264.49"/>
<polygon fill="black" stroke="black" points="939.22,-1268 948.77,-1263.43 938.45,-1261.04 939.22,-1268"/>
</g>
<!-- llm -->
<g id="node27" class="node">
<title>llm</title>
<polygon fill="none" stroke="black" points="226.12,-659.58 172.12,-659.58 172.12,-623.58 226.12,-623.58 226.12,-659.58"/>
<text text-anchor="middle" x="199.12" y="-637.28" font-family="sans-serif" font-size="14.00">llm</text>
</g>
<!-- llm&#45;&gt;proto -->
<g id="edge78" class="edge">
<title>llm&#45;&gt;proto</title>
<path fill="none" stroke="black" d="M206.42,-659.89C218.3,-693.62 245.71,-767.43 277.25,-825.58 284.37,-838.71 293.46,-852.49 301.58,-864.04"/>
<polygon fill="black" stroke="black" points="298.57,-865.84 307.24,-871.92 304.25,-861.76 298.57,-865.84"/>
</g>
<!-- lsp&#45;&gt;sexp -->
<g id="edge79" class="edge">
<title>lsp&#45;&gt;sexp</title>
<path fill="none" stroke="black" d="M856.89,-978.08C871.8,-993.14 891.91,-1015.61 904.75,-1038.58 940.6,-1102.72 961.73,-1187.41 971,-1231.33"/>
<polygon fill="black" stroke="black" points="967.52,-1231.76 972.95,-1240.86 974.37,-1230.36 967.52,-1231.76"/>
</g>
<!-- lsp&#45;&gt;wasm -->
<g id="edge80" class="edge">
<title>lsp&#45;&gt;wasm</title>
<path fill="none" stroke="black" d="M848.11,-941.28C863.46,-914.18 891.31,-861.29 904.75,-812.58 969.78,-576.96 976.36,-278.64 976.73,-184.46"/>
<polygon fill="black" stroke="black" points="980.23,-184.55 976.75,-174.55 973.23,-184.54 980.23,-184.55"/>
</g>
<!-- metamath&#45;&gt;parse -->
<g id="edge81" class="edge">
<title>metamath&#45;&gt;parse</title>
<path fill="none" stroke="black" d="M864.65,-1139.14C900.2,-1114.72 963.8,-1069.69 1014.5,-1026.58 1031.73,-1011.93 1049.91,-994.25 1064.05,-979.97"/>
<polygon fill="black" stroke="black" points="1066.31,-982.66 1070.81,-973.07 1061.31,-977.76 1066.31,-982.66"/>
</g>
<!-- metamath&#45;&gt;sexp -->
<g id="edge82" class="edge">
<title>metamath&#45;&gt;sexp</title>
<path fill="none" stroke="black" d="M877.09,-1173.73C886.51,-1178.28 896.27,-1183.63 904.75,-1189.58 922.71,-1202.17 940.27,-1219.4 953.54,-1233.73"/>
<polygon fill="black" stroke="black" points="950.9,-1236.02 960.2,-1241.09 956.09,-1231.33 950.9,-1236.02"/>
</g>
<!-- multiformat -->
<g id="node30" class="node">
<title>multiformat</title>
<polygon fill="none" stroke="black" points="730.5,-1099.58 640.25,-1099.58 640.25,-1063.58 730.5,-1063.58 730.5,-1099.58"/>
<text text-anchor="middle" x="685.38" y="-1077.28" font-family="sans-serif" font-size="14.00">multiformat</text>
</g>
<!-- multiformat&#45;&gt;acset -->
<g id="edge83" class="edge">
<title>multiformat&#45;&gt;acset</title>
<path fill="none" stroke="black" d="M730.68,-1076.82C752.05,-1074.53 777.41,-1071.8 797.81,-1069.61"/>
<polygon fill="black" stroke="black" points="798.12,-1073.1 807.69,-1068.55 797.37,-1066.14 798.12,-1073.1"/>
</g>
<!-- multiformat&#45;&gt;hash -->
<g id="edge84" class="edge">
<title>multiformat&#45;&gt;hash</title>
<path fill="none" stroke="black" d="M718.26,-1063.4C723.39,-1059.37 728.24,-1054.74 732,-1049.58 764,-1005.58 748.62,-983.42 768,-932.58 784.05,-890.48 806.45,-843.39 820.94,-814.11"/>
<polygon fill="black" stroke="black" points="824.07,-815.68 825.4,-805.17 817.81,-812.55 824.07,-815.68"/>
</g>
<!-- multiformat&#45;&gt;parse -->
<g id="edge85" class="edge">
<title>multiformat&#45;&gt;parse</title>
<path fill="none" stroke="black" d="M717.38,-1063.12C732.31,-1054.79 750.69,-1045.33 768,-1038.58 867.52,-999.78 991.11,-972.66 1051.95,-960.6"/>
<polygon fill="black" stroke="black" points="1052.28,-964.11 1061.43,-958.75 1050.94,-957.24 1052.28,-964.11"/>
</g>
<!-- object&#45;&gt;hash -->
<g id="edge86" class="edge">
<title>object&#45;&gt;hash</title>
<path fill="none" stroke="black" d="M714.4,-858.65C738.47,-844.11 773.32,-823.06 799.43,-807.29"/>
<polygon fill="black" stroke="black" points="800.93,-810.47 807.68,-802.31 797.31,-804.48 800.93,-810.47"/>
</g>
<!-- object&#45;&gt;parse -->
<g id="edge87" class="edge">
<title>object&#45;&gt;parse</title>
<path fill="none" stroke="black" d="M714.39,-881C785.34,-894.73 972.1,-930.88 1052.12,-946.37"/>
<polygon fill="black" stroke="black" points="1051.16,-949.75 1061.64,-948.21 1052.49,-942.87 1051.16,-949.75"/>
</g>
<!-- opentheory&#45;&gt;hol -->
<g id="edge88" class="edge">
<title>opentheory&#45;&gt;hol</title>
<path fill="none" stroke="black" d="M368.86,-2040.35C445.32,-2027.1 605.15,-1995.39 732,-1943.58 755.56,-1933.96 780.26,-1919.79 799.62,-1907.63"/>
<polygon fill="black" stroke="black" points="801.4,-1910.65 807.94,-1902.31 797.63,-1904.75 801.4,-1910.65"/>
</g>
<!-- parquet -->
<g id="node33" class="node">
<title>parquet</title>
<polygon fill="none" stroke="black" points="472,-719.58 405,-719.58 405,-683.58 472,-683.58 472,-719.58"/>
<text text-anchor="middle" x="438.5" y="-697.28" font-family="sans-serif" font-size="14.00">parquet</text>
</g>
<!-- parquet&#45;&gt;arrow -->
<g id="edge89" class="edge">
<title>parquet&#45;&gt;arrow</title>
<path fill="none" stroke="black" d="M472.42,-712.47C486.47,-717.12 502.94,-722.56 517.41,-727.35"/>
<polygon fill="black" stroke="black" points="515.98,-730.56 526.57,-730.38 518.18,-723.92 515.98,-730.56"/>
</g>
<!-- proptest -->
<g id="node35" class="node">
<title>proptest</title>
<polygon fill="none" stroke="black" points="95.88,-1048.58 25.12,-1048.58 25.12,-1012.58 95.88,-1012.58 95.88,-1048.58"/>
<text text-anchor="middle" x="60.5" y="-1026.28" font-family="sans-serif" font-size="14.00">proptest</text>
</g>
<!-- pure&#45;trusted -->
<g id="node39" class="node">
<title>pure&#45;trusted</title>
<polygon fill="#ffd6d6" stroke="black" points="1355.5,-1767.58 1256.25,-1767.58 1256.25,-1731.58 1355.5,-1731.58 1355.5,-1767.58"/>
<text text-anchor="middle" x="1305.88" y="-1745.28" font-family="sans-serif" font-size="14.00">pure&#45;trusted</text>
</g>
<!-- pure&#45;&gt;pure&#45;trusted -->
<g id="edge90" class="edge">
<title>pure&#45;&gt;pure&#45;trusted</title>
<path fill="none" stroke="black" d="M1220.75,-1749.58C1228.04,-1749.58 1236.27,-1749.58 1244.64,-1749.58"/>
<polygon fill="black" stroke="black" points="1244.57,-1753.08 1254.57,-1749.58 1244.57,-1746.08 1244.57,-1753.08"/>
</g>
<!-- pure&#45;eval&#45;&gt;pure -->
<g id="edge91" class="edge">
<title>pure&#45;eval&#45;&gt;pure</title>
<path fill="none" stroke="black" d="M1130.66,-1721.49C1138.9,-1725.25 1147.54,-1729.19 1155.67,-1732.9"/>
<polygon fill="black" stroke="black" points="1154.05,-1736.01 1164.6,-1736.97 1156.96,-1729.64 1154.05,-1736.01"/>
</g>
<!-- pure&#45;eval&#45;&gt;types -->
<g id="edge92" class="edge">
<title>pure&#45;eval&#45;&gt;types</title>
<path fill="none" stroke="black" d="M1130.71,-1703.58C1194.06,-1703.58 1317.83,-1703.58 1379.99,-1703.58"/>
<polygon fill="black" stroke="black" points="1379.69,-1707.08 1389.69,-1703.58 1379.69,-1700.08 1379.69,-1707.08"/>
</g>
<!-- pure&#45;trusted&#45;&gt;types -->
<g id="edge93" class="edge">
<title>pure&#45;trusted&#45;&gt;types</title>
<path fill="none" stroke="black" d="M1351.23,-1731.13C1361,-1727.07 1371.24,-1722.82 1380.67,-1718.9"/>
<polygon fill="black" stroke="black" points="1382,-1722.13 1389.89,-1715.06 1379.31,-1715.67 1382,-1722.13"/>
</g>
<!-- python -->
<g id="node40" class="node">
<title>python</title>
<polygon fill="none" stroke="black" points="91.38,-413.58 29.62,-413.58 29.62,-377.58 91.38,-377.58 91.38,-413.58"/>
<text text-anchor="middle" x="60.5" y="-391.28" font-family="sans-serif" font-size="14.00">python</text>
</g>
<!-- python&#45;&gt;crypto&#45;sig -->
<g id="edge94" class="edge">
<title>python&#45;&gt;crypto&#45;sig</title>
<path fill="none" stroke="black" d="M72.79,-377.42C89.41,-351.48 122.26,-303.03 157,-267.58 159.2,-265.34 161.55,-263.12 163.98,-260.95"/>
<polygon fill="black" stroke="black" points="165.87,-263.94 171.27,-254.83 161.36,-258.58 165.87,-263.94"/>
</g>
<!-- python&#45;&gt;git -->
<g id="edge95" class="edge">
<title>python&#45;&gt;git</title>
<path fill="none" stroke="black" d="M91.82,-398.94C127.63,-403.07 188.96,-410.64 241.25,-419.58 296.87,-429.09 360.75,-443 400.12,-451.92"/>
<polygon fill="black" stroke="black" points="399.27,-455.31 409.79,-454.12 400.82,-448.49 399.27,-455.31"/>
</g>
<!-- python&#45;&gt;graph -->
<g id="edge96" class="edge">
<title>python&#45;&gt;graph</title>
<path fill="none" stroke="black" d="M91.63,-405.6C159.93,-428.3 326.3,-483.61 400.6,-508.31"/>
<polygon fill="black" stroke="black" points="399.26,-511.55 409.85,-511.39 401.47,-504.91 399.26,-511.55"/>
</g>
<!-- python&#45;&gt;hash -->
<g id="edge97" class="edge">
<title>python&#45;&gt;hash</title>
<path fill="none" stroke="black" d="M91.8,-389.64C196.26,-371.06 545.1,-325.09 732,-497.58 807.99,-567.71 828.19,-697.7 833.5,-755.97"/>
<polygon fill="black" stroke="black" points="830,-756.08 834.3,-765.76 836.98,-755.51 830,-756.08"/>
</g>
<!-- python&#45;&gt;kv -->
<g id="edge98" class="edge">
<title>python&#45;&gt;kv</title>
<path fill="none" stroke="black" d="M66.12,-377.15C76.83,-337.19 106.36,-240.9 157,-175.58 158.97,-173.03 161.2,-170.57 163.56,-168.23"/>
<polygon fill="black" stroke="black" points="165.7,-171.01 170.84,-161.74 161.05,-165.78 165.7,-171.01"/>
</g>
<!-- python&#45;&gt;llm -->
<g id="edge99" class="edge">
<title>python&#45;&gt;llm</title>
<path fill="none" stroke="black" d="M66.33,-413.79C77.36,-452.83 107.32,-546.17 157,-609.58 158.99,-612.12 161.22,-614.57 163.59,-616.9"/>
<polygon fill="black" stroke="black" points="161.08,-619.36 170.88,-623.39 165.73,-614.13 161.08,-619.36"/>
</g>
<!-- python&#45;&gt;object -->
<g id="edge100" class="edge">
<title>python&#45;&gt;object</title>
<path fill="none" stroke="black" d="M69.92,-413.75C84.64,-444.27 117.29,-506.8 157,-550.58 188.59,-585.41 214.18,-576.13 241.25,-614.58 271.84,-658.02 241.59,-689.19 277.25,-728.58 286.61,-738.92 494.83,-822.99 508,-827.58 554.51,-843.79 609.45,-857.99 645.51,-866.66"/>
<polygon fill="black" stroke="black" points="644.5,-870.02 655.04,-868.92 646.12,-863.2 644.5,-870.02"/>
</g>
<!-- python&#45;&gt;repl -->
<g id="edge101" class="edge">
<title>python&#45;&gt;repl</title>
<path fill="none" stroke="black" d="M81.29,-413.83C115.7,-446.04 187.98,-515.79 241.25,-581.58 265.57,-611.61 289.86,-648.87 305.38,-673.84"/>
<polygon fill="black" stroke="black" points="302.25,-675.43 310.47,-682.11 308.21,-671.76 302.25,-675.43"/>
</g>
<!-- sat -->
<g id="node44" class="node">
<title>sat</title>
<polygon fill="none" stroke="black" points="863.38,-429.58 809.38,-429.58 809.38,-393.58 863.38,-393.58 863.38,-429.58"/>
<text text-anchor="middle" x="836.38" y="-407.28" font-family="sans-serif" font-size="14.00">sat</text>
</g>
<!-- python&#45;&gt;sat -->
<g id="edge102" class="edge">
<title>python&#45;&gt;sat</title>
<path fill="none" stroke="black" d="M74.24,-377.44C90.58,-355.86 121.15,-320.82 157,-305.58 274.67,-255.54 619.27,-224.25 732,-284.58 757.43,-298.19 750.16,-315.91 768,-338.58 780.72,-354.74 796.21,-371.69 809.13,-385.18"/>
<polygon fill="black" stroke="black" points="806.27,-387.26 815.74,-392.01 811.3,-382.39 806.27,-387.26"/>
</g>
<!-- python&#45;&gt;serve -->
<g id="edge103" class="edge">
<title>python&#45;&gt;serve</title>
<path fill="none" stroke="black" d="M66.12,-413.79C86.17,-492.73 165.67,-805.79 190.61,-903.97"/>
<polygon fill="black" stroke="black" points="187.21,-904.8 193.06,-913.63 193.99,-903.08 187.21,-904.8"/>
</g>
<!-- python&#45;&gt;sexp -->
<g id="edge104" class="edge">
<title>python&#45;&gt;sexp</title>
<path fill="none" stroke="black" d="M63.79,-413.82C75.38,-505.34 128.17,-912.04 157,-960.58 252.12,-1120.73 326.84,-1146.28 508,-1189.58 590.3,-1209.25 842.84,-1243.14 938.95,-1255.71"/>
<polygon fill="black" stroke="black" points="938.27,-1259.15 948.64,-1256.97 939.17,-1252.2 938.27,-1259.15"/>
</g>
<!-- python&#45;&gt;shell -->
<g id="edge105" class="edge">
<title>python&#45;&gt;shell</title>
<path fill="none" stroke="black" d="M64.14,-413.82C72.89,-474.5 101.44,-675.16 121,-841.58 130.23,-920.11 109,-1132.74 157,-1195.58 216.22,-1273.11 338.54,-1295 400.21,-1301.17"/>
<polygon fill="black" stroke="black" points="399.57,-1304.62 409.84,-1302.04 400.2,-1297.65 399.57,-1304.62"/>
</g>
<!-- python&#45;&gt;store -->
<g id="edge106" class="edge">
<title>python&#45;&gt;store</title>
<path fill="none" stroke="black" d="M64.45,-377.23C71.86,-337.98 95.28,-246.36 157,-208.58 195.59,-184.95 438.26,-170.26 602.75,-245.58 622.76,-254.74 621.7,-265.67 638.75,-279.58 642.02,-282.24 645.49,-284.93 649.01,-287.55"/>
<polygon fill="black" stroke="black" points="646.93,-290.36 657.09,-293.39 651.04,-284.69 646.93,-290.36"/>
</g>
<!-- python&#45;&gt;wasm -->
<g id="edge107" class="edge">
<title>python&#45;&gt;wasm</title>
<path fill="none" stroke="black" d="M61.73,-377.39C63.35,-323.97 75.19,-165.61 157,-74.58 210.16,-15.42 242.59,-5.58 322.12,-5.58 322.12,-5.58 322.12,-5.58 686.38,-5.58 784.34,-5.58 822.91,18.27 904.75,-35.58 936.82,-56.68 956.79,-97.51 967.31,-125.4"/>
<polygon fill="black" stroke="black" points="963.97,-126.44 970.62,-134.68 970.56,-124.08 963.97,-126.44"/>
</g>
<!-- wasm&#45;store -->
<g id="node57" class="node">
<title>wasm&#45;store</title>
<polygon fill="none" stroke="black" points="602.75,-117.58 508,-117.58 508,-81.58 602.75,-81.58 602.75,-117.58"/>
<text text-anchor="middle" x="555.38" y="-95.28" font-family="sans-serif" font-size="14.00">wasm&#45;store</text>
</g>
<!-- python&#45;&gt;wasm&#45;store -->
<g id="edge108" class="edge">
<title>python&#45;&gt;wasm&#45;store</title>
<path fill="none" stroke="black" d="M61.31,-377.3C61.88,-326.06 71.3,-180.64 157,-116.58 256.68,-42.07 412.94,-64.04 496.73,-83.58"/>
<polygon fill="black" stroke="black" points="495.8,-86.95 506.34,-85.89 497.43,-80.15 495.8,-86.95"/>
</g>
<!-- repl&#45;&gt;arrow -->
<g id="edge109" class="edge">
<title>repl&#45;&gt;arrow</title>
<path fill="none" stroke="black" d="M350.59,-688.33C380.83,-675.08 431.38,-658.78 472,-674.58 492.23,-682.45 491.03,-694.05 508,-707.58 511.43,-710.31 515.08,-713.07 518.77,-715.76"/>
<polygon fill="black" stroke="black" points="516.5,-718.44 526.68,-721.38 520.56,-712.74 516.5,-718.44"/>
</g>
<!-- repl&#45;&gt;forsp -->
<g id="edge110" class="edge">
<title>repl&#45;&gt;forsp</title>
<path fill="none" stroke="black" d="M338.49,-719.86C348.46,-733.42 361.29,-752.74 369,-771.58 411.55,-875.51 428.96,-1009.35 434.89,-1067.92"/>
<polygon fill="black" stroke="black" points="431.39,-1068.11 435.84,-1077.73 438.36,-1067.44 431.39,-1068.11"/>
</g>
<!-- repl&#45;&gt;git -->
<g id="edge111" class="edge">
<title>repl&#45;&gt;git</title>
<path fill="none" stroke="black" d="M336.13,-683.14C346.02,-667.32 359.86,-643.65 369,-621.58 391.61,-566.98 375.33,-544.69 405,-493.58 406.25,-491.43 407.66,-489.32 409.2,-487.27"/>
<polygon fill="black" stroke="black" points="411.66,-489.78 415.46,-479.89 406.32,-485.25 411.66,-489.78"/>
</g>
<!-- repl&#45;&gt;graph -->
<g id="edge112" class="edge">
<title>repl&#45;&gt;graph</title>
<path fill="none" stroke="black" d="M335.62,-683.23C355.57,-651.38 396.7,-585.71 420.14,-548.29"/>
<polygon fill="black" stroke="black" points="422.83,-550.59 425.17,-540.26 416.9,-546.88 422.83,-550.59"/>
</g>
<!-- repl&#45;&gt;hash -->
<g id="edge113" class="edge">
<title>repl&#45;&gt;hash</title>
<path fill="none" stroke="black" d="M350.44,-686.04C365.79,-677.89 385.84,-668.75 405,-664.58 434.1,-658.24 442.61,-659.81 472,-664.58 595.78,-684.65 734.39,-740.81 798.81,-769"/>
<polygon fill="black" stroke="black" points="797.28,-772.15 807.84,-772.99 800.1,-765.75 797.28,-772.15"/>
</g>
<!-- repl&#45;&gt;init -->
<g id="edge114" class="edge">
<title>repl&#45;&gt;init</title>
<path fill="none" stroke="black" d="M339.31,-719.92C349.54,-733.35 362.34,-752.5 369,-771.58 420.97,-920.47 351.13,-976.36 405,-1124.58 432.87,-1201.28 453.61,-1215.74 508,-1276.58 544.93,-1317.88 570.8,-1312.32 602.75,-1357.58 628.55,-1394.13 620.61,-1410.68 638.75,-1451.58 648.04,-1472.53 659.76,-1495.58 668.99,-1513.1"/>
<polygon fill="black" stroke="black" points="665.88,-1514.71 673.66,-1521.9 672.06,-1511.42 665.88,-1514.71"/>
</g>
<!-- repl&#45;&gt;object -->
<g id="edge115" class="edge">
<title>repl&#45;&gt;object</title>
<path fill="none" stroke="black" d="M350.62,-714.37C413.65,-744.82 572.76,-821.67 646.18,-857.13"/>
<polygon fill="black" stroke="black" points="644.48,-860.19 655,-861.39 647.52,-853.89 644.48,-860.19"/>
</g>
<!-- repl&#45;&gt;parquet -->
<g id="edge116" class="edge">
<title>repl&#45;&gt;parquet</title>
<path fill="none" stroke="black" d="M350.42,-701.58C363.22,-701.58 378.96,-701.58 393.52,-701.58"/>
<polygon fill="black" stroke="black" points="393.35,-705.08 403.35,-701.58 393.35,-698.08 393.35,-705.08"/>
</g>
<!-- repl&#45;&gt;shell -->
<g id="edge117" class="edge">
<title>repl&#45;&gt;shell</title>
<path fill="none" stroke="black" d="M339.41,-719.88C349.69,-733.3 362.5,-752.44 369,-771.58 429.82,-950.66 369.56,-1009.81 405,-1195.58 410.19,-1222.81 419.58,-1252.94 426.94,-1274.45"/>
<polygon fill="black" stroke="black" points="423.57,-1275.42 430.17,-1283.71 430.18,-1273.12 423.57,-1275.42"/>
</g>
<!-- repl&#45;&gt;wasm -->
<g id="edge118" class="edge">
<title>repl&#45;&gt;wasm</title>
<path fill="none" stroke="black" d="M326.82,-683.27C334.03,-638.3 356.57,-519.81 405,-433.58 478.07,-303.48 503.71,-256.06 638.75,-192.58 691.17,-167.94 861.78,-158.74 938.57,-155.8"/>
<polygon fill="black" stroke="black" points="938.68,-159.29 948.54,-155.43 938.42,-152.3 938.68,-159.29"/>
</g>
<!-- sat&#45;&gt;parse -->
<g id="edge119" class="edge">
<title>sat&#45;&gt;parse</title>
<path fill="none" stroke="black" d="M863.71,-412.7C903.04,-415.9 976.55,-428.01 1014.5,-473.58 1072.09,-542.74 1085.7,-830.18 1088.63,-923.9"/>
<polygon fill="black" stroke="black" points="1085.13,-923.9 1088.92,-933.8 1092.13,-923.7 1085.13,-923.9"/>
</g>
<!-- sat&#45;&gt;types -->
<g id="edge120" class="edge">
<title>sat&#45;&gt;types</title>
<path fill="none" stroke="black" d="M863.86,-411.58C909.77,-411.58 1007.12,-411.58 1089.38,-411.58 1089.38,-411.58 1089.38,-411.58 1194.25,-411.58 1326.78,-411.58 1402.94,-1480.81 1415.61,-1673.88"/>
<polygon fill="black" stroke="black" points="1412.11,-1674.05 1416.25,-1683.8 1419.1,-1673.6 1412.11,-1674.05"/>
</g>
<!-- sat&#45;&gt;wasm -->
<g id="edge121" class="edge">
<title>sat&#45;&gt;wasm</title>
<path fill="none" stroke="black" d="M863.55,-403.07C877.53,-397.31 894.02,-388.39 904.75,-375.58 952.31,-318.79 968.62,-229.79 974.04,-183.99"/>
<polygon fill="black" stroke="black" points="977.49,-184.62 975.09,-174.3 970.54,-183.87 977.49,-184.62"/>
</g>
<!-- serve&#45;&gt;core -->
<g id="edge122" class="edge">
<title>serve&#45;&gt;core</title>
<path fill="none" stroke="black" d="M200.21,-952.07C200.95,-1057.67 208.1,-1584.88 277.25,-1728.58 382.28,-1946.84 526.25,-1950.67 768,-1965.58 828.66,-1969.32 850.39,-1992.76 904.75,-1965.58 928.6,-1953.65 924.08,-1938.39 940.75,-1917.58 944.72,-1912.62 949.04,-1907.41 953.26,-1902.42"/>
<polygon fill="black" stroke="black" points="955.84,-1904.79 959.67,-1894.92 950.51,-1900.25 955.84,-1904.79"/>
</g>
<!-- serve&#45;&gt;git -->
<g id="edge123" class="edge">
<title>serve&#45;&gt;git</title>
<path fill="none" stroke="black" d="M202.63,-915.17C209.23,-871.08 229.97,-756.98 277.25,-674.58 306.95,-622.83 336.26,-626.46 369,-576.58 391.06,-542.96 382.51,-526.91 405,-493.58 406.39,-491.52 407.91,-489.48 409.53,-487.48"/>
<polygon fill="black" stroke="black" points="411.96,-490.01 415.96,-480.2 406.71,-485.38 411.96,-490.01"/>
</g>
<!-- serve&#45;&gt;hash -->
<g id="edge124" class="edge">
<title>serve&#45;&gt;hash</title>
<path fill="none" stroke="black" d="M226.57,-942.21C241.31,-946.57 260.1,-951.39 277.25,-953.58 317.7,-958.74 328.23,-954.17 369,-953.58 414.79,-952.91 426.32,-953.86 472,-950.58 589.21,-942.16 631.73,-963.85 732,-902.58 768.91,-880.02 799.98,-840.11 818.14,-813.25"/>
<polygon fill="black" stroke="black" points="821.05,-815.21 823.63,-804.93 815.2,-811.36 821.05,-815.21"/>
</g>
<!-- serve&#45;&gt;init -->
<g id="edge125" class="edge">
<title>serve&#45;&gt;init</title>
<path fill="none" stroke="black" d="M208.84,-951.98C221.06,-976.02 245.41,-1018.04 277.25,-1043.58 311.68,-1071.19 339.09,-1049.12 369,-1081.58 404.43,-1120.03 380.16,-1147.57 405,-1193.58 427.52,-1235.29 444.09,-1238.25 472,-1276.58 489.2,-1300.2 490.57,-1308.13 508,-1331.58 558.95,-1400.15 625.13,-1475.76 660.15,-1514.86"/>
<polygon fill="black" stroke="black" points="657.25,-1516.86 666.53,-1521.96 662.45,-1512.18 657.25,-1516.86"/>
</g>
<!-- serve&#45;&gt;metamath -->
<g id="edge126" class="edge">
<title>serve&#45;&gt;metamath</title>
<path fill="none" stroke="black" d="M226.35,-944.79C262.74,-961.51 328.6,-996.18 369,-1043.58 394.55,-1073.56 372.81,-1101.86 405,-1124.58 520.14,-1205.83 698.36,-1185.52 784.85,-1169.01"/>
<polygon fill="black" stroke="black" points="785.32,-1172.49 794.45,-1167.11 783.96,-1165.62 785.32,-1172.49"/>
</g>
<!-- serve&#45;&gt;object -->
<g id="edge127" class="edge">
<title>serve&#45;&gt;object</title>
<path fill="none" stroke="black" d="M226.54,-935.72C291.63,-940.25 464.5,-947.8 602.75,-913.58 617.48,-909.93 632.77,-903.59 646.08,-897.12"/>
<polygon fill="black" stroke="black" points="647.6,-900.28 654.93,-892.63 644.43,-894.03 647.6,-900.28"/>
</g>
<!-- serve&#45;&gt;proto -->
<g id="edge128" class="edge">
<title>serve&#45;&gt;proto</title>
<path fill="none" stroke="black" d="M226.6,-924.47C243.7,-918.58 266.21,-910.83 285.08,-904.33"/>
<polygon fill="black" stroke="black" points="285.96,-907.73 294.27,-901.17 283.68,-901.11 285.96,-907.73"/>
</g>
<!-- serve&#45;&gt;repl -->
<g id="edge129" class="edge">
<title>serve&#45;&gt;repl</title>
<path fill="none" stroke="black" d="M207.96,-915.22C221.15,-884.79 249.11,-822.22 277.25,-771.58 285.16,-757.34 294.82,-742.05 303.14,-729.41"/>
<polygon fill="black" stroke="black" points="306,-731.43 308.64,-721.17 300.18,-727.55 306,-731.43"/>
</g>
<!-- serve&#45;&gt;shell -->
<g id="edge130" class="edge">
<title>serve&#45;&gt;shell</title>
<path fill="none" stroke="black" d="M208.86,-952.03C234.45,-1005.02 313.21,-1160.94 405,-1271.58 406.56,-1273.46 408.22,-1275.35 409.93,-1277.23"/>
<polygon fill="black" stroke="black" points="407.1,-1279.34 416.54,-1284.14 412.16,-1274.5 407.1,-1279.34"/>
</g>
<!-- serve&#45;&gt;store -->
<g id="edge131" class="edge">
<title>serve&#45;&gt;store</title>
<path fill="none" stroke="black" d="M202.78,-915.52C212.32,-851.77 246.03,-637.89 277.25,-576.58 294.7,-542.31 473.2,-334.96 508,-318.58 552.16,-297.79 609.64,-300.16 646.77,-304.92"/>
<polygon fill="black" stroke="black" points="646.18,-308.37 656.57,-306.31 647.16,-301.44 646.18,-308.37"/>
</g>
<!-- sexp&#45;&gt;parse -->
<g id="edge132" class="edge">
<title>sexp&#45;&gt;parse</title>
<path fill="none" stroke="black" d="M985.22,-1242.29C1003.77,-1190.89 1056.47,-1044.8 1078.98,-982.4"/>
<polygon fill="black" stroke="black" points="1082.2,-983.79 1082.3,-973.19 1075.61,-981.41 1082.2,-983.79"/>
</g>
<!-- shell&#45;&gt;hol -->
<g id="edge133" class="edge">
<title>shell&#45;&gt;hol</title>
<path fill="none" stroke="black" d="M439.65,-1321.82C440.82,-1373.48 449.38,-1523.87 508,-1629.58 536.32,-1680.64 563.14,-1677.68 602.75,-1720.58 619.89,-1739.14 620.07,-1747.56 638.75,-1764.58 689.94,-1811.21 707.84,-1817.3 768,-1851.58 777.77,-1857.15 788.66,-1862.62 798.8,-1867.42"/>
<polygon fill="black" stroke="black" points="797.08,-1870.48 807.63,-1871.52 800.03,-1864.13 797.08,-1870.48"/>
</g>
<!-- shell&#45;&gt;kernel -->
<g id="edge134" class="edge">
<title>shell&#45;&gt;kernel</title>
<path fill="none" stroke="black" d="M465.85,-1291.19C480.88,-1284.12 499.98,-1275.15 516.58,-1267.34"/>
<polygon fill="black" stroke="black" points="517.61,-1270.73 525.17,-1263.31 514.63,-1264.39 517.61,-1270.73"/>
</g>
<!-- smt&#45;&gt;sat -->
<g id="edge135" class="edge">
<title>smt&#45;&gt;sat</title>
<path fill="none" stroke="black" d="M689.31,-1406.09C696.99,-1357.46 718,-1221.9 732,-1108.58 751.18,-953.38 745.07,-913.26 768,-758.58 785.55,-640.17 815.47,-500.74 828.72,-441.08"/>
<polygon fill="black" stroke="black" points="832.12,-441.91 830.88,-431.39 825.29,-440.39 832.12,-441.91"/>
</g>
<!-- smt&#45;&gt;sexp -->
<g id="edge136" class="edge">
<title>smt&#45;&gt;sexp</title>
<path fill="none" stroke="black" d="M712.64,-1408.64C728.37,-1399.46 748.95,-1388.1 768,-1379.58 826.8,-1353.27 850.12,-1365.71 904.75,-1331.58 923.78,-1319.69 941.73,-1301.96 954.94,-1287.19"/>
<polygon fill="black" stroke="black" points="957.23,-1289.89 961.14,-1280.05 951.94,-1285.3 957.23,-1289.89"/>
</g>
<!-- smt&#45;&gt;types -->
<g id="edge137" class="edge">
<title>smt&#45;&gt;types</title>
<path fill="none" stroke="black" d="M712.86,-1441.52C728.32,-1450.55 748.57,-1460.93 768,-1466.58 857.4,-1492.58 883.52,-1485.58 976.62,-1485.58 976.62,-1485.58 976.62,-1485.58 1194.25,-1485.58 1301.6,-1485.58 1376.53,-1616.21 1404.9,-1675.23"/>
<polygon fill="black" stroke="black" points="1401.6,-1676.43 1409.01,-1684 1407.94,-1673.46 1401.6,-1676.43"/>
</g>
<!-- spectec&#45;&gt;grammar -->
<g id="edge138" class="edge">
<title>spectec&#45;&gt;grammar</title>
<path fill="none" stroke="black" d="M871.44,-1536.23C888.86,-1538.6 910.33,-1541.53 929.33,-1544.13"/>
<polygon fill="black" stroke="black" points="928.6,-1547.56 938.98,-1545.44 929.54,-1540.62 928.6,-1547.56"/>
</g>
<!-- store&#45;&gt;hash -->
<g id="edge139" class="edge">
<title>store&#45;&gt;hash</title>
<path fill="none" stroke="black" d="M702.12,-330.08C711.98,-342.51 724.24,-359.66 732,-376.58 793.46,-510.67 822.2,-686.93 831.66,-756.01"/>
<polygon fill="black" stroke="black" points="828.17,-756.31 832.96,-765.76 835.11,-755.38 828.17,-756.31"/>
</g>
<!-- store&#45;&gt;json -->
<g id="edge140" class="edge">
<title>store&#45;&gt;json</title>
<path fill="none" stroke="black" d="M712.67,-295.34C736.75,-280.48 772.59,-258.34 799.33,-241.83"/>
<polygon fill="black" stroke="black" points="801.13,-244.83 807.8,-236.6 797.46,-238.88 801.13,-244.83"/>
</g>
<!-- store&#45;&gt;sqlite -->
<g id="edge141" class="edge">
<title>store&#45;&gt;sqlite</title>
<path fill="none" stroke="black" d="M712.67,-311.58C736.32,-311.58 771.33,-311.58 797.91,-311.58"/>
<polygon fill="black" stroke="black" points="797.58,-315.08 807.58,-311.58 797.58,-308.08 797.58,-315.08"/>
</g>
<!-- tcb&#45;db -->
<g id="node52" class="node">
<title>tcb&#45;db</title>
<polygon fill="none" stroke="black" points="715.5,-237.58 655.25,-237.58 655.25,-201.58 715.5,-201.58 715.5,-237.58"/>
<text text-anchor="middle" x="685.38" y="-215.28" font-family="sans-serif" font-size="14.00">tcb&#45;db</text>
</g>
<!-- tcb&#45;db&#45;&gt;json -->
<g id="edge142" class="edge">
<title>tcb&#45;db&#45;&gt;json</title>
<path fill="none" stroke="black" d="M715.81,-219.58C739.24,-219.58 772.19,-219.58 797.57,-219.58"/>
<polygon fill="black" stroke="black" points="797.48,-223.08 807.48,-219.58 797.48,-216.08 797.48,-223.08"/>
</g>
<!-- tcb&#45;db&#45;&gt;sqlite -->
<g id="edge143" class="edge">
<title>tcb&#45;db&#45;&gt;sqlite</title>
<path fill="none" stroke="black" d="M715.81,-237.75C739.77,-252.55 773.69,-273.49 799.28,-289.29"/>
<polygon fill="black" stroke="black" points="797.36,-292.22 807.71,-294.49 801.04,-286.26 797.36,-292.22"/>
</g>
<!-- wasm&#45;build&#45;guest -->
<g id="node55" class="node">
<title>wasm&#45;build&#45;guest</title>
<polygon fill="none" stroke="black" points="904.75,-107.58 768,-107.58 768,-71.58 904.75,-71.58 904.75,-107.58"/>
<text text-anchor="middle" x="836.38" y="-85.28" font-family="sans-serif" font-size="14.00">wasm&#45;build&#45;guest</text>
</g>
<!-- wasm&#45;build&#45;guest&#45;&gt;wasm -->
<g id="edge144" class="edge">
<title>wasm&#45;build&#45;guest&#45;&gt;wasm</title>
<path fill="none" stroke="black" d="M876.91,-108.03C896.72,-117.28 920.55,-128.4 939.95,-137.46"/>
<polygon fill="black" stroke="black" points="938.3,-140.55 948.85,-141.61 941.27,-134.21 938.3,-140.55"/>
</g>
<!-- wasm&#45;spec -->
<g id="node56" class="node">
<title>wasm&#45;spec</title>
<polygon fill="none" stroke="black" points="732,-421.58 638.75,-421.58 638.75,-385.58 732,-385.58 732,-421.58"/>
<text text-anchor="middle" x="685.38" y="-399.28" font-family="sans-serif" font-size="14.00">wasm&#45;spec</text>
</g>
<!-- wasm&#45;spec&#45;&gt;hash -->
<g id="edge145" class="edge">
<title>wasm&#45;spec&#45;&gt;hash</title>
<path fill="none" stroke="black" d="M718.31,-421.73C723.44,-425.75 728.27,-430.39 732,-435.58 805.47,-537.81 827.17,-692.19 833.2,-756.18"/>
<polygon fill="black" stroke="black" points="829.69,-756.23 834.05,-765.88 836.66,-755.62 829.69,-756.23"/>
</g>
<!-- wasm&#45;spec&#45;&gt;wasm -->
<g id="edge146" class="edge">
<title>wasm&#45;spec&#45;&gt;wasm</title>
<path fill="none" stroke="black" d="M732.25,-392.21C792.41,-376.97 891.87,-350.43 904.75,-338.58 949.56,-297.35 966.79,-224.8 973.14,-184.21"/>
<polygon fill="black" stroke="black" points="976.58,-184.84 974.53,-174.44 969.65,-183.85 976.58,-184.84"/>
</g>
<!-- wasm&#45;store&#45;&gt;json -->
<g id="edge147" class="edge">
<title>wasm&#45;store&#45;&gt;json</title>
<path fill="none" stroke="black" d="M599.36,-118.07C654.01,-141.57 747.44,-181.76 798.83,-203.86"/>
<polygon fill="black" stroke="black" points="797.17,-206.95 807.74,-207.69 799.93,-200.52 797.17,-206.95"/>
</g>
<!-- wasm&#45;store&#45;&gt;store -->
<g id="edge148" class="edge">
<title>wasm&#45;store&#45;&gt;store</title>
<path fill="none" stroke="black" d="M565.94,-118.03C580.73,-146.22 610.4,-201.51 638.75,-246.58 646.66,-259.16 656,-272.67 664.17,-284.1"/>
<polygon fill="black" stroke="black" points="661.11,-285.85 669.8,-291.92 666.79,-281.76 661.11,-285.85"/>
</g>
<!-- wasm&#45;store&#45;&gt;wasm -->
<g id="edge149" class="edge">
<title>wasm&#45;store&#45;&gt;wasm</title>
<path fill="none" stroke="black" d="M598.84,-81.13C667.09,-54.43 803.75,-13.32 904.75,-62.58 931.68,-75.71 951.47,-104.35 963.39,-126.21"/>
<polygon fill="black" stroke="black" points="960.21,-127.68 967.91,-134.95 966.43,-124.46 960.21,-127.68"/>
</g>
<!-- web&#45;kernel -->
<g id="node58" class="node">
<title>web&#45;kernel</title>
<polygon fill="none" stroke="black" points="369,-1719.58 277.25,-1719.58 277.25,-1683.58 369,-1683.58 369,-1719.58"/>
<text text-anchor="middle" x="323.12" y="-1697.28" font-family="sans-serif" font-size="14.00">web&#45;kernel</text>
</g>
<!-- web&#45;kernel&#45;&gt;forsp -->
<g id="edge150" class="edge">
<title>web&#45;kernel&#45;&gt;forsp</title>
<path fill="none" stroke="black" d="M327.58,-1683.17C343.75,-1597.03 412,-1233.42 431.98,-1126.97"/>
<polygon fill="black" stroke="black" points="435.39,-1127.8 433.79,-1117.33 428.51,-1126.51 435.39,-1127.8"/>
</g>
<!-- web&#45;kernel&#45;&gt;haskell -->
<g id="edge151" class="edge">
<title>web&#45;kernel&#45;&gt;haskell</title>
<path fill="none" stroke="black" d="M346.8,-1719.97C363.79,-1733.76 387.25,-1752.81 406.06,-1768.07"/>
<polygon fill="black" stroke="black" points="403.72,-1770.68 413.69,-1774.26 408.13,-1765.24 403.72,-1770.68"/>
</g>
<!-- web&#45;kernel&#45;&gt;hol&#45;api -->
<g id="edge152" class="edge">
<title>web&#45;kernel&#45;&gt;hol&#45;api</title>
<path fill="none" stroke="black" d="M332.22,-1719.79C344.51,-1745.53 370.17,-1792.54 405,-1820.58 436.84,-1846.21 481.05,-1862.14 513.11,-1871.09"/>
<polygon fill="black" stroke="black" points="511.87,-1874.38 522.44,-1873.57 513.68,-1867.62 511.87,-1874.38"/>
</g>
<!-- web&#45;kernel&#45;&gt;kernel -->
<g id="edge153" class="edge">
<title>web&#45;kernel&#45;&gt;kernel</title>
<path fill="none" stroke="black" d="M331.89,-1683.23C355.75,-1627.37 431.08,-1454.91 508,-1319.58 516.21,-1305.14 526.3,-1289.68 534.97,-1276.98"/>
<polygon fill="black" stroke="black" points="537.6,-1279.32 540.41,-1269.11 531.84,-1275.34 537.6,-1279.32"/>
</g>
<!-- web&#45;kernel&#45;&gt;lisp -->
<g id="edge154" class="edge">
<title>web&#45;kernel&#45;&gt;lisp</title>
<path fill="none" stroke="black" d="M369.26,-1701.58C379.36,-1701.58 389.96,-1701.58 399.73,-1701.58"/>
<polygon fill="black" stroke="black" points="399.61,-1705.08 409.61,-1701.58 399.61,-1698.08 399.61,-1705.08"/>
</g>
</g>
</svg>
