<?xml version="1.0" encoding="UTF-8" standalone="no"?>
<!DOCTYPE svg PUBLIC "-//W3C//DTD SVG 1.1//EN"
 "http://www.w3.org/Graphics/SVG/1.1/DTD/svg11.dtd">
<!-- Generated by graphviz version 12.2.1 (0)
 -->
<!-- Title: deps Pages: 1 -->
<svg width="1478pt" height="1791pt"
 viewBox="0.00 0.00 1477.50 1791.12" xmlns="http://www.w3.org/2000/svg" xmlns:xlink="http://www.w3.org/1999/xlink">
<g id="graph0" class="graph" transform="scale(1 1) rotate(0) translate(4 1787.12)">
<title>deps</title>
<polygon fill="white" stroke="none" points="-4,4 -4,-1787.12 1473.5,-1787.12 1473.5,4 -4,4"/>
<!-- covalence -->
<g id="node1" class="node">
<title>covalence</title>
<polygon fill="none" stroke="black" points="102.62,-844.69 18.38,-844.69 18.38,-808.69 102.62,-808.69 102.62,-844.69"/>
<text text-anchor="middle" x="60.5" y="-822.39" font-family="sans-serif" font-size="14.00">covalence</text>
</g>
<!-- client -->
<g id="node5" class="node">
<title>client</title>
<polygon fill="none" stroke="black" points="349.75,-768.69 295.75,-768.69 295.75,-732.69 349.75,-732.69 349.75,-768.69"/>
<text text-anchor="middle" x="322.75" y="-746.39" font-family="sans-serif" font-size="14.00">client</text>
</g>
<!-- covalence&#45;&gt;client -->
<g id="edge1" class="edge">
<title>covalence&#45;&gt;client</title>
<path fill="none" stroke="black" d="M103.03,-814.56C153.11,-799.94 236.55,-775.57 284.6,-761.54"/>
<polygon fill="black" stroke="black" points="285.36,-764.96 293.98,-758.8 283.4,-758.24 285.36,-764.96"/>
</g>
<!-- fuse -->
<g id="node11" class="node">
<title>fuse</title>
<polygon fill="none" stroke="black" points="606.38,-1142.69 552.38,-1142.69 552.38,-1106.69 606.38,-1106.69 606.38,-1142.69"/>
<text text-anchor="middle" x="579.38" y="-1120.39" font-family="sans-serif" font-size="14.00">fuse</text>
</g>
<!-- covalence&#45;&gt;fuse -->
<g id="edge2" class="edge">
<title>covalence&#45;&gt;fuse</title>
<path fill="none" stroke="black" d="M76.88,-845.08C121.18,-896.47 255.5,-1041.14 404.25,-1092.69 449.78,-1108.47 504.85,-1116.92 540.7,-1121.11"/>
<polygon fill="black" stroke="black" points="540.25,-1124.58 550.57,-1122.2 541.02,-1117.62 540.25,-1124.58"/>
</g>
<!-- git -->
<g id="node12" class="node">
<title>git</title>
<polygon fill="none" stroke="black" points="477.12,-1272.69 423.12,-1272.69 423.12,-1236.69 477.12,-1236.69 477.12,-1272.69"/>
<text text-anchor="middle" x="450.12" y="-1250.39" font-family="sans-serif" font-size="14.00">git</text>
</g>
<!-- covalence&#45;&gt;git -->
<g id="edge3" class="edge">
<title>covalence&#45;&gt;git</title>
<path fill="none" stroke="black" d="M64.99,-844.9C74.18,-889.55 102.21,-1006.81 157,-1088.69 197.28,-1148.89 214.68,-1162.2 277.25,-1198.69 320.06,-1223.65 375.45,-1239.13 411.62,-1247.32"/>
<polygon fill="black" stroke="black" points="410.65,-1250.69 421.16,-1249.41 412.14,-1243.85 410.65,-1250.69"/>
</g>
<!-- hash -->
<g id="node15" class="node">
<title>hash</title>
<polygon fill="none" stroke="black" points="887.38,-1086.69 833.38,-1086.69 833.38,-1050.69 887.38,-1050.69 887.38,-1086.69"/>
<text text-anchor="middle" x="860.38" y="-1064.39" font-family="sans-serif" font-size="14.00">hash</text>
</g>
<!-- covalence&#45;&gt;hash -->
<g id="edge4" class="edge">
<title>covalence&#45;&gt;hash</title>
<path fill="none" stroke="black" d="M88.18,-808.36C127.45,-782.73 204.09,-737.75 277.25,-723.69 431.54,-694.03 475.28,-734.99 626.75,-776.69 685.39,-792.83 711.69,-780.02 756,-821.69 772.86,-837.54 826.03,-978.15 848.83,-1039.86"/>
<polygon fill="black" stroke="black" points="845.45,-1040.83 852.19,-1049 852.02,-1038.41 845.45,-1040.83"/>
</g>
<!-- hol -->
<g id="node17" class="node">
<title>hol</title>
<polygon fill="none" stroke="black" points="887.38,-158.69 833.38,-158.69 833.38,-122.69 887.38,-122.69 887.38,-158.69"/>
<text text-anchor="middle" x="860.38" y="-136.39" font-family="sans-serif" font-size="14.00">hol</text>
</g>
<!-- covalence&#45;&gt;hol -->
<g id="edge5" class="edge">
<title>covalence&#45;&gt;hol</title>
<path fill="none" stroke="black" d="M62.71,-808.34C68.85,-718.7 98.67,-326.89 157,-221.69 204.02,-136.89 224.79,-78.69 321.75,-78.69 321.75,-78.69 321.75,-78.69 580.38,-78.69 668.85,-78.69 769.44,-108.77 822.34,-127.03"/>
<polygon fill="black" stroke="black" points="820.86,-130.22 831.45,-130.23 823.17,-123.61 820.86,-130.22"/>
</g>
<!-- lsp -->
<g id="node26" class="node">
<title>lsp</title>
<polygon fill="none" stroke="black" points="887.38,-846.69 833.38,-846.69 833.38,-810.69 887.38,-810.69 887.38,-846.69"/>
<text text-anchor="middle" x="860.38" y="-824.39" font-family="sans-serif" font-size="14.00">lsp</text>
</g>
<!-- covalence&#45;&gt;lsp -->
<g id="edge6" class="edge">
<title>covalence&#45;&gt;lsp</title>
<path fill="none" stroke="black" d="M62.07,-808.38C65.02,-726.48 81.54,-394.96 157,-332.69 392.77,-138.13 585.37,-417.06 756,-670.69 780.74,-707.46 767.48,-726.77 792,-763.69 801.55,-778.07 814.78,-791.71 826.98,-802.74"/>
<polygon fill="black" stroke="black" points="824.65,-805.35 834.48,-809.3 829.25,-800.08 824.65,-805.35"/>
</g>
<!-- object -->
<g id="node29" class="node">
<title>object</title>
<polygon fill="none" stroke="black" points="738,-928.69 680.75,-928.69 680.75,-892.69 738,-892.69 738,-928.69"/>
<text text-anchor="middle" x="709.38" y="-906.39" font-family="sans-serif" font-size="14.00">object</text>
</g>
<!-- covalence&#45;&gt;object -->
<g id="edge7" class="edge">
<title>covalence&#45;&gt;object</title>
<path fill="none" stroke="black" d="M61.41,-808.24C62.23,-755.69 72.18,-604.1 157,-527.69 270.06,-425.84 380.11,-381.08 496,-479.69 572.13,-544.47 490.25,-610.87 532,-701.69 567.01,-777.85 637.61,-848.36 678.07,-884.8"/>
<polygon fill="black" stroke="black" points="675.53,-887.22 685.33,-891.25 680.18,-881.99 675.53,-887.22"/>
</g>
<!-- opentheory -->
<g id="node30" class="node">
<title>opentheory</title>
<polygon fill="none" stroke="black" points="368.25,-211.69 277.25,-211.69 277.25,-175.69 368.25,-175.69 368.25,-211.69"/>
<text text-anchor="middle" x="322.75" y="-189.39" font-family="sans-serif" font-size="14.00">opentheory</text>
</g>
<!-- covalence&#45;&gt;opentheory -->
<g id="edge8" class="edge">
<title>covalence&#45;&gt;opentheory</title>
<path fill="none" stroke="black" d="M62.78,-808.46C68.94,-725.23 97.59,-381.67 157,-294.69 183.26,-256.24 229.48,-229.79 266.29,-213.64"/>
<polygon fill="black" stroke="black" points="267.65,-216.86 275.49,-209.74 264.92,-210.41 267.65,-216.86"/>
</g>
<!-- proto -->
<g id="node34" class="node">
<title>proto</title>
<polygon fill="none" stroke="black" points="349.75,-1189.69 295.75,-1189.69 295.75,-1153.69 349.75,-1153.69 349.75,-1189.69"/>
<text text-anchor="middle" x="322.75" y="-1167.39" font-family="sans-serif" font-size="14.00">proto</text>
</g>
<!-- covalence&#45;&gt;proto -->
<g id="edge9" class="edge">
<title>covalence&#45;&gt;proto</title>
<path fill="none" stroke="black" d="M67.05,-844.93C79.14,-882.74 110.54,-971.32 157,-1033.69 193.11,-1082.17 249.51,-1124.56 286.04,-1149.15"/>
<polygon fill="black" stroke="black" points="283.8,-1151.87 294.07,-1154.47 287.67,-1146.03 283.8,-1151.87"/>
</g>
<!-- repl -->
<g id="node40" class="node">
<title>repl</title>
<polygon fill="none" stroke="black" points="349.75,-966.69 295.75,-966.69 295.75,-930.69 349.75,-930.69 349.75,-966.69"/>
<text text-anchor="middle" x="322.75" y="-944.39" font-family="sans-serif" font-size="14.00">repl</text>
</g>
<!-- covalence&#45;&gt;repl -->
<g id="edge10" class="edge">
<title>covalence&#45;&gt;repl</title>
<path fill="none" stroke="black" d="M102.82,-828.52C140.89,-831.74 197.9,-840.59 241.25,-864.69 266.17,-878.55 288.08,-902.66 302.73,-921.51"/>
<polygon fill="black" stroke="black" points="299.79,-923.43 308.6,-929.32 305.39,-919.23 299.79,-923.43"/>
</g>
<!-- serve -->
<g id="node42" class="node">
<title>serve</title>
<polygon fill="none" stroke="black" points="226.12,-909.69 172.12,-909.69 172.12,-873.69 226.12,-873.69 226.12,-909.69"/>
<text text-anchor="middle" x="199.12" y="-887.39" font-family="sans-serif" font-size="14.00">serve</text>
</g>
<!-- covalence&#45;&gt;serve -->
<g id="edge11" class="edge">
<title>covalence&#45;&gt;serve</title>
<path fill="none" stroke="black" d="M100.29,-845.14C119.5,-854.28 142.57,-865.26 161.49,-874.26"/>
<polygon fill="black" stroke="black" points="159.9,-877.38 170.43,-878.51 162.9,-871.06 159.9,-877.38"/>
</g>
<!-- shell -->
<g id="node44" class="node">
<title>shell</title>
<polygon fill="none" stroke="black" points="477.12,-524.69 423.12,-524.69 423.12,-488.69 477.12,-488.69 477.12,-524.69"/>
<text text-anchor="middle" x="450.12" y="-502.39" font-family="sans-serif" font-size="14.00">shell</text>
</g>
<!-- covalence&#45;&gt;shell -->
<g id="edge12" class="edge">
<title>covalence&#45;&gt;shell</title>
<path fill="none" stroke="black" d="M62.84,-808.36C67.24,-762.04 85.43,-639.53 157,-576.69 229.75,-512.82 350.59,-504.77 411.53,-505.17"/>
<polygon fill="black" stroke="black" points="411.32,-508.67 421.37,-505.33 411.43,-501.67 411.32,-508.67"/>
</g>
<!-- store -->
<g id="node48" class="node">
<title>store</title>
<polygon fill="none" stroke="black" points="736.38,-1468.69 682.38,-1468.69 682.38,-1432.69 736.38,-1432.69 736.38,-1468.69"/>
<text text-anchor="middle" x="709.38" y="-1446.39" font-family="sans-serif" font-size="14.00">store</text>
</g>
<!-- covalence&#45;&gt;store -->
<g id="edge13" class="edge">
<title>covalence&#45;&gt;store</title>
<path fill="none" stroke="black" d="M63.19,-844.88C68.72,-896.35 89.92,-1045.78 157,-1146.69 274.09,-1322.83 332.46,-1369.55 532,-1439.69 577.84,-1455.8 634.46,-1456.19 670.98,-1454.14"/>
<polygon fill="black" stroke="black" points="670.83,-1457.66 680.58,-1453.51 670.37,-1450.67 670.83,-1457.66"/>
</g>
<!-- wasm -->
<g id="node51" class="node">
<title>wasm</title>
<polygon fill="none" stroke="black" points="1028.75,-1625.69 974.5,-1625.69 974.5,-1589.69 1028.75,-1589.69 1028.75,-1625.69"/>
<text text-anchor="middle" x="1001.62" y="-1603.39" font-family="sans-serif" font-size="14.00">wasm</text>
</g>
<!-- covalence&#45;&gt;wasm -->
<g id="edge14" class="edge">
<title>covalence&#45;&gt;wasm</title>
<path fill="none" stroke="black" d="M61.62,-844.9C63.41,-963.98 89.53,-1626.69 449.12,-1626.69 449.12,-1626.69 449.12,-1626.69 710.38,-1626.69 801.17,-1626.69 907.61,-1617.32 962.93,-1611.74"/>
<polygon fill="black" stroke="black" points="963.15,-1615.23 972.74,-1610.73 962.44,-1608.27 963.15,-1615.23"/>
</g>
<!-- acset -->
<g id="node2" class="node">
<title>acset</title>
<polygon fill="none" stroke="black" points="887.38,-1284.69 833.38,-1284.69 833.38,-1248.69 887.38,-1248.69 887.38,-1284.69"/>
<text text-anchor="middle" x="860.38" y="-1262.39" font-family="sans-serif" font-size="14.00">acset</text>
</g>
<!-- alethe -->
<g id="node3" class="node">
<title>alethe</title>
<polygon fill="none" stroke="black" points="607.62,-363.69 551.12,-363.69 551.12,-327.69 607.62,-327.69 607.62,-363.69"/>
<text text-anchor="middle" x="579.38" y="-341.39" font-family="sans-serif" font-size="14.00">alethe</text>
</g>
<!-- core -->
<g id="node6" class="node">
<title>core</title>
<polygon fill="#ffd6d6" stroke="black" points="1028.62,-238.69 974.62,-238.69 974.62,-202.69 1028.62,-202.69 1028.62,-238.69"/>
<text text-anchor="middle" x="1001.62" y="-216.39" font-family="sans-serif" font-size="14.00">core</text>
</g>
<!-- alethe&#45;&gt;core -->
<g id="edge15" class="edge">
<title>alethe&#45;&gt;core</title>
<path fill="none" stroke="black" d="M608.09,-340.58C644.63,-332.82 709.69,-315.38 756,-282.69 776.64,-268.12 769.65,-250.48 792,-238.69 846.19,-210.09 919.46,-211.35 963.19,-215.54"/>
<polygon fill="black" stroke="black" points="962.62,-219 972.93,-216.59 963.36,-212.04 962.62,-219"/>
</g>
<!-- hol&#45;eval -->
<g id="node18" class="node">
<title>hol&#45;eval</title>
<polygon fill="none" stroke="black" points="895.38,-104.69 825.38,-104.69 825.38,-68.69 895.38,-68.69 895.38,-104.69"/>
<text text-anchor="middle" x="860.38" y="-82.39" font-family="sans-serif" font-size="14.00">hol&#45;eval</text>
</g>
<!-- alethe&#45;&gt;hol&#45;eval -->
<g id="edge16" class="edge">
<title>alethe&#45;&gt;hol&#45;eval</title>
<path fill="none" stroke="black" d="M601.22,-327.26C635.58,-296.35 705.34,-231.27 756,-168.69 774.38,-145.98 769.4,-132.2 792,-113.69 798.64,-108.25 806.52,-103.79 814.51,-100.18"/>
<polygon fill="black" stroke="black" points="815.64,-103.5 823.58,-96.48 813,-97.02 815.64,-103.5"/>
</g>
<!-- init -->
<g id="node20" class="node">
<title>init</title>
<polygon fill="none" stroke="black" points="736.38,-394.69 682.38,-394.69 682.38,-358.69 736.38,-358.69 736.38,-394.69"/>
<text text-anchor="middle" x="709.38" y="-372.39" font-family="sans-serif" font-size="14.00">init</text>
</g>
<!-- alethe&#45;&gt;init -->
<g id="edge17" class="edge">
<title>alethe&#45;&gt;init</title>
<path fill="none" stroke="black" d="M607.83,-352.34C626.34,-356.82 650.98,-362.79 671.24,-367.7"/>
<polygon fill="black" stroke="black" points="670.26,-371.06 680.8,-370.01 671.91,-364.26 670.26,-371.06"/>
</g>
<!-- sexp -->
<g id="node43" class="node">
<title>sexp</title>
<polygon fill="none" stroke="black" points="1028.62,-708.69 974.62,-708.69 974.62,-672.69 1028.62,-672.69 1028.62,-708.69"/>
<text text-anchor="middle" x="1001.62" y="-686.39" font-family="sans-serif" font-size="14.00">sexp</text>
</g>
<!-- alethe&#45;&gt;sexp -->
<g id="edge18" class="edge">
<title>alethe&#45;&gt;sexp</title>
<path fill="none" stroke="black" d="M589.84,-363.8C603.24,-387.97 629.83,-430.83 662.75,-457.69 698.11,-486.54 726.37,-465.97 756,-500.69 794.36,-545.64 750.52,-586.6 792,-628.69 804.19,-641.06 906.45,-667.64 963.14,-681.64"/>
<polygon fill="black" stroke="black" points="962.15,-685 972.7,-683.98 963.82,-678.2 962.15,-685"/>
</g>
<!-- smt -->
<g id="node45" class="node">
<title>smt</title>
<polygon fill="none" stroke="black" points="736.38,-448.69 682.38,-448.69 682.38,-412.69 736.38,-412.69 736.38,-448.69"/>
<text text-anchor="middle" x="709.38" y="-426.39" font-family="sans-serif" font-size="14.00">smt</text>
</g>
<!-- alethe&#45;&gt;smt -->
<g id="edge19" class="edge">
<title>alethe&#45;&gt;smt</title>
<path fill="none" stroke="black" d="M605.26,-363.98C621.42,-375.67 643.07,-390.97 662.75,-403.69 665.84,-405.69 669.08,-407.72 672.35,-409.73"/>
<polygon fill="black" stroke="black" points="670.43,-412.66 680.8,-414.84 674.05,-406.67 670.43,-412.66"/>
</g>
<!-- types -->
<g id="node50" class="node">
<title>types</title>
<polygon fill="#ffd6d6" stroke="black" points="1469.5,-256.69 1415.5,-256.69 1415.5,-220.69 1469.5,-220.69 1469.5,-256.69"/>
<text text-anchor="middle" x="1442.5" y="-234.39" font-family="sans-serif" font-size="14.00">types</text>
</g>
<!-- alethe&#45;&gt;types -->
<g id="edge20" class="edge">
<title>alethe&#45;&gt;types</title>
<path fill="none" stroke="black" d="M586,-327.2C596.92,-293.33 623.42,-220.11 662.75,-168.69 708.4,-109 722.66,-88.66 792,-59.69 877.91,-23.8 907.52,-40.69 1000.62,-40.69 1000.62,-40.69 1000.62,-40.69 1218.25,-40.69 1292.31,-40.69 1324,-33.65 1379.5,-82.69 1416.78,-115.63 1431.91,-174 1437.85,-209.25"/>
<polygon fill="black" stroke="black" points="1434.34,-209.39 1439.31,-218.74 1441.25,-208.33 1434.34,-209.39"/>
</g>
<!-- arrow -->
<g id="node4" class="node">
<title>arrow</title>
<polygon fill="none" stroke="black" points="606.38,-974.69 552.38,-974.69 552.38,-938.69 606.38,-938.69 606.38,-974.69"/>
<text text-anchor="middle" x="579.38" y="-952.39" font-family="sans-serif" font-size="14.00">arrow</text>
</g>
<!-- client&#45;&gt;hash -->
<g id="edge21" class="edge">
<title>client&#45;&gt;hash</title>
<path fill="none" stroke="black" d="M350.18,-751.88C423.24,-756.47 630.75,-778.59 756,-883.69 806.26,-925.86 836.66,-999.04 850.48,-1039.57"/>
<polygon fill="black" stroke="black" points="847.09,-1040.48 853.54,-1048.89 853.74,-1038.29 847.09,-1040.48"/>
</g>
<!-- client&#45;&gt;shell -->
<g id="edge22" class="edge">
<title>client&#45;&gt;shell</title>
<path fill="none" stroke="black" d="M350.23,-736.53C357.04,-731.71 363.71,-725.73 368.25,-718.69 412.44,-650.11 359.92,-607.18 404.25,-538.69 406.88,-534.62 410.23,-530.91 413.9,-527.58"/>
<polygon fill="black" stroke="black" points="416.02,-530.37 421.7,-521.42 411.68,-524.87 416.02,-530.37"/>
</g>
<!-- client&#45;&gt;store -->
<g id="edge23" class="edge">
<title>client&#45;&gt;store</title>
<path fill="none" stroke="black" d="M343.7,-769.14C380.18,-804.11 457.43,-884.04 496,-967.69 530.89,-1043.36 502.41,-1073.79 532,-1151.69 572.82,-1259.13 650.7,-1372.43 687.77,-1423.23"/>
<polygon fill="black" stroke="black" points="684.77,-1425.05 693.52,-1431.04 690.41,-1420.91 684.77,-1425.05"/>
</g>
<!-- pure -->
<g id="node35" class="node">
<title>pure</title>
<polygon fill="#ffd6d6" stroke="black" points="1244.25,-214.69 1190.25,-214.69 1190.25,-178.69 1244.25,-178.69 1244.25,-214.69"/>
<text text-anchor="middle" x="1217.25" y="-192.39" font-family="sans-serif" font-size="14.00">pure</text>
</g>
<!-- core&#45;&gt;pure -->
<g id="edge24" class="edge">
<title>core&#45;&gt;pure</title>
<path fill="none" stroke="black" d="M1028.82,-217.75C1066.3,-213.54 1135.43,-205.77 1178.45,-200.94"/>
<polygon fill="black" stroke="black" points="1178.79,-204.42 1188.34,-199.83 1178.01,-197.46 1178.79,-204.42"/>
</g>
<!-- pure&#45;eval -->
<g id="node36" class="node">
<title>pure&#45;eval</title>
<polygon fill="#ffd6d6" stroke="black" points="1154.25,-146.69 1074.5,-146.69 1074.5,-110.69 1154.25,-110.69 1154.25,-146.69"/>
<text text-anchor="middle" x="1114.38" y="-124.39" font-family="sans-serif" font-size="14.00">pure&#45;eval</text>
</g>
<!-- core&#45;&gt;pure&#45;eval -->
<g id="edge25" class="edge">
<title>core&#45;&gt;pure&#45;eval</title>
<path fill="none" stroke="black" d="M1024.77,-202.29C1041.3,-188.57 1064.08,-169.64 1082.41,-154.41"/>
<polygon fill="black" stroke="black" points="1084.65,-157.1 1090.1,-148.02 1080.17,-151.72 1084.65,-157.1"/>
</g>
<!-- core&#45;&gt;types -->
<g id="edge26" class="edge">
<title>core&#45;&gt;types</title>
<path fill="none" stroke="black" d="M1029.09,-221.78C1103.78,-224.84 1316.44,-233.56 1403.57,-237.13"/>
<polygon fill="black" stroke="black" points="1403.35,-240.63 1413.49,-237.54 1403.64,-233.63 1403.35,-240.63"/>
</g>
<!-- core&#45;test&#45;guest -->
<g id="node7" class="node">
<title>core&#45;test&#45;guest</title>
<polygon fill="none" stroke="black" points="121,-1507.69 0,-1507.69 0,-1471.69 121,-1471.69 121,-1507.69"/>
<text text-anchor="middle" x="60.5" y="-1485.39" font-family="sans-serif" font-size="14.00">core&#45;test&#45;guest</text>
</g>
<!-- crypto&#45;sig -->
<g id="node8" class="node">
<title>crypto&#45;sig</title>
<polygon fill="none" stroke="black" points="241.25,-1690.69 157,-1690.69 157,-1654.69 241.25,-1654.69 241.25,-1690.69"/>
<text text-anchor="middle" x="199.12" y="-1668.39" font-family="sans-serif" font-size="14.00">crypto&#45;sig</text>
</g>
<!-- egglog -->
<g id="node9" class="node">
<title>egglog</title>
<polygon fill="none" stroke="black" points="890.88,-494.69 829.88,-494.69 829.88,-458.69 890.88,-458.69 890.88,-494.69"/>
<text text-anchor="middle" x="860.38" y="-472.39" font-family="sans-serif" font-size="14.00">egglog</text>
</g>
<!-- egglog&#45;&gt;sexp -->
<g id="edge27" class="edge">
<title>egglog&#45;&gt;sexp</title>
<path fill="none" stroke="black" d="M891.26,-482.95C904.2,-486.99 918.66,-493.46 928.75,-503.69 972.11,-547.67 989.9,-620.6 996.73,-661.16"/>
<polygon fill="black" stroke="black" points="993.25,-661.57 998.25,-670.91 1000.17,-660.49 993.25,-661.57"/>
</g>
<!-- egglog&#45;&gt;types -->
<g id="edge28" class="edge">
<title>egglog&#45;&gt;types</title>
<path fill="none" stroke="black" d="M891.24,-475.91C938.42,-474.75 1033.08,-472.69 1113.38,-472.69 1113.38,-472.69 1113.38,-472.69 1218.25,-472.69 1290.99,-472.69 1325.06,-492.94 1379.5,-444.69 1430.58,-399.42 1440.33,-313.81 1441.72,-268.52"/>
<polygon fill="black" stroke="black" points="1445.22,-268.71 1441.89,-258.66 1438.22,-268.59 1445.22,-268.71"/>
</g>
<!-- forsp -->
<g id="node10" class="node">
<title>forsp</title>
<polygon fill="none" stroke="black" points="736.38,-715.69 682.38,-715.69 682.38,-679.69 736.38,-679.69 736.38,-715.69"/>
<text text-anchor="middle" x="709.38" y="-693.39" font-family="sans-serif" font-size="14.00">forsp</text>
</g>
<!-- forsp&#45;&gt;hash -->
<g id="edge29" class="edge">
<title>forsp&#45;&gt;hash</title>
<path fill="none" stroke="black" d="M736.45,-711.16C743.75,-716.09 751.04,-722.3 756,-729.69 796.37,-789.86 771.25,-819.27 792,-888.69 808.25,-943.07 832.65,-1004.65 847.2,-1039.85"/>
<polygon fill="black" stroke="black" points="843.89,-1041.03 850.97,-1048.92 850.36,-1038.34 843.89,-1041.03"/>
</g>
<!-- forsp&#45;&gt;sexp -->
<g id="edge30" class="edge">
<title>forsp&#45;&gt;sexp</title>
<path fill="none" stroke="black" d="M736.68,-711.66C743.81,-716.54 750.95,-722.6 756,-729.69 789.78,-777.13 745.5,-820.62 792,-855.69 840.52,-892.29 877.91,-889 928.75,-855.69 974.72,-825.57 991.45,-758.95 997.42,-720.21"/>
<polygon fill="black" stroke="black" points="1000.87,-720.8 998.77,-710.42 993.94,-719.84 1000.87,-720.8"/>
</g>
<!-- fuse&#45;&gt;hash -->
<g id="edge31" class="edge">
<title>fuse&#45;&gt;hash</title>
<path fill="none" stroke="black" d="M606.87,-1119.37C656.76,-1109.36 764.73,-1087.69 821.98,-1076.2"/>
<polygon fill="black" stroke="black" points="822.45,-1079.67 831.57,-1074.27 821.08,-1072.81 822.45,-1079.67"/>
</g>
<!-- fuse&#45;&gt;object -->
<g id="edge32" class="edge">
<title>fuse&#45;&gt;object</title>
<path fill="none" stroke="black" d="M591.29,-1106.44C613.68,-1069.01 664.93,-983.33 691.58,-938.77"/>
<polygon fill="black" stroke="black" points="694.58,-940.57 696.71,-930.19 688.58,-936.97 694.58,-940.57"/>
</g>
<!-- fuse&#45;&gt;store -->
<g id="edge33" class="edge">
<title>fuse&#45;&gt;store</title>
<path fill="none" stroke="black" d="M606.56,-1137.65C614.15,-1142.62 621.74,-1148.98 626.75,-1156.69 673.84,-1229.11 637.09,-1265.21 662.75,-1347.69 670.83,-1373.65 683.59,-1401.79 693.56,-1422.09"/>
<polygon fill="black" stroke="black" points="690.34,-1423.48 697.95,-1430.86 696.6,-1420.35 690.34,-1423.48"/>
</g>
<!-- git&#45;&gt;hash -->
<g id="edge34" class="edge">
<title>git&#45;&gt;hash</title>
<path fill="none" stroke="black" d="M477.39,-1247.48C531.4,-1232.1 658.12,-1193.26 756,-1141.69 781.67,-1128.16 808.37,-1109.16 828.21,-1093.94"/>
<polygon fill="black" stroke="black" points="830.15,-1096.86 835.89,-1087.95 825.85,-1091.34 830.15,-1096.86"/>
</g>
<!-- git&#45;&gt;object -->
<g id="edge35" class="edge">
<title>git&#45;&gt;object</title>
<path fill="none" stroke="black" d="M477.48,-1243.3C484.34,-1239.24 491.16,-1234.06 496,-1227.69 532.27,-1179.95 502.57,-1149.92 532,-1097.69 552.39,-1061.51 636.33,-979.12 680.66,-936.81"/>
<polygon fill="black" stroke="black" points="683.04,-939.38 687.87,-929.96 678.21,-934.31 683.04,-939.38"/>
</g>
<!-- sqlite -->
<g id="node47" class="node">
<title>sqlite</title>
<polygon fill="none" stroke="black" points="887.38,-1506.69 833.38,-1506.69 833.38,-1470.69 887.38,-1470.69 887.38,-1506.69"/>
<text text-anchor="middle" x="860.38" y="-1484.39" font-family="sans-serif" font-size="14.00">sqlite</text>
</g>
<!-- git&#45;&gt;sqlite -->
<g id="edge36" class="edge">
<title>git&#45;&gt;sqlite</title>
<path fill="none" stroke="black" d="M477.34,-1271.51C516.83,-1296.58 594.26,-1344.64 662.75,-1380.69 703.13,-1401.95 718,-1398.41 756,-1423.69 774.07,-1435.71 774,-1444.57 792,-1456.69 801.49,-1463.08 812.45,-1468.87 822.73,-1473.71"/>
<polygon fill="black" stroke="black" points="821.19,-1476.85 831.74,-1477.78 824.07,-1470.47 821.19,-1476.85"/>
</g>
<!-- git&#45;&gt;store -->
<g id="edge37" class="edge">
<title>git&#45;&gt;store</title>
<path fill="none" stroke="black" d="M459.28,-1272.94C471.64,-1298.75 497.38,-1345.98 532,-1374.69 554.12,-1393.04 626.43,-1421.14 671.3,-1437.54"/>
<polygon fill="black" stroke="black" points="670.06,-1440.81 680.65,-1440.92 672.44,-1434.23 670.06,-1440.81"/>
</g>
<!-- grammar -->
<g id="node13" class="node">
<title>grammar</title>
<polygon fill="none" stroke="black" points="1038.5,-383.69 964.75,-383.69 964.75,-347.69 1038.5,-347.69 1038.5,-383.69"/>
<text text-anchor="middle" x="1001.62" y="-361.39" font-family="sans-serif" font-size="14.00">grammar</text>
</g>
<!-- graph -->
<g id="node14" class="node">
<title>graph</title>
<polygon fill="none" stroke="black" points="477.12,-1218.69 423.12,-1218.69 423.12,-1182.69 477.12,-1182.69 477.12,-1218.69"/>
<text text-anchor="middle" x="450.12" y="-1196.39" font-family="sans-serif" font-size="14.00">graph</text>
</g>
<!-- graph&#45;&gt;hash -->
<g id="edge38" class="edge">
<title>graph&#45;&gt;hash</title>
<path fill="none" stroke="black" d="M477.6,-1194.32C530.98,-1181.19 655,-1149.3 756,-1112.69 778.44,-1104.56 803.04,-1094.15 822.61,-1085.5"/>
<polygon fill="black" stroke="black" points="823.83,-1088.78 831.54,-1081.51 820.98,-1082.39 823.83,-1088.78"/>
</g>
<!-- parse -->
<g id="node32" class="node">
<title>parse</title>
<polygon fill="none" stroke="black" points="1141.38,-1059.69 1087.38,-1059.69 1087.38,-1023.69 1141.38,-1023.69 1141.38,-1059.69"/>
<text text-anchor="middle" x="1114.38" y="-1037.39" font-family="sans-serif" font-size="14.00">parse</text>
</g>
<!-- graph&#45;&gt;parse -->
<g id="edge39" class="edge">
<title>graph&#45;&gt;parse</title>
<path fill="none" stroke="black" d="M477.4,-1212.44C513.45,-1229.35 579.21,-1263.02 626.75,-1303.69 645.95,-1320.12 639.92,-1336.87 662.75,-1347.69 700.2,-1365.44 715.03,-1353.94 756,-1347.69 835.52,-1335.55 863.31,-1340.48 928.75,-1293.69 1013.19,-1233.32 1074.56,-1122.37 1100.16,-1070.21"/>
<polygon fill="black" stroke="black" points="1103.23,-1071.9 1104.42,-1061.37 1096.93,-1068.86 1103.23,-1071.9"/>
</g>
<!-- rand -->
<g id="node39" class="node">
<title>rand</title>
<polygon fill="none" stroke="black" points="1028.62,-1086.69 974.62,-1086.69 974.62,-1050.69 1028.62,-1050.69 1028.62,-1086.69"/>
<text text-anchor="middle" x="1001.62" y="-1064.39" font-family="sans-serif" font-size="14.00">rand</text>
</g>
<!-- hash&#45;&gt;rand -->
<g id="edge40" class="edge">
<title>hash&#45;&gt;rand</title>
<path fill="none" stroke="black" d="M887.57,-1068.69C908.86,-1068.69 939.19,-1068.69 963.07,-1068.69"/>
<polygon fill="black" stroke="black" points="963.04,-1072.19 973.04,-1068.69 963.04,-1065.19 963.04,-1072.19"/>
</g>
<!-- haskell -->
<g id="node16" class="node">
<title>haskell</title>
<polygon fill="none" stroke="black" points="610.62,-50.69 548.12,-50.69 548.12,-14.69 610.62,-14.69 610.62,-50.69"/>
<text text-anchor="middle" x="579.38" y="-28.39" font-family="sans-serif" font-size="14.00">haskell</text>
</g>
<!-- haskell&#45;&gt;hol&#45;eval -->
<g id="edge41" class="edge">
<title>haskell&#45;&gt;hol&#45;eval</title>
<path fill="none" stroke="black" d="M610.88,-37.97C645.96,-44.1 705.22,-54.66 756,-64.69 774.99,-68.44 795.89,-72.84 813.89,-76.71"/>
<polygon fill="black" stroke="black" points="812.98,-80.09 823.49,-78.78 814.45,-73.25 812.98,-80.09"/>
</g>
<!-- haskell&#45;&gt;init -->
<g id="edge42" class="edge">
<title>haskell&#45;&gt;init</title>
<path fill="none" stroke="black" d="M587.26,-51.18C608.36,-107.9 672.26,-279.64 697.73,-348.09"/>
<polygon fill="black" stroke="black" points="694.32,-348.95 701.09,-357.1 700.88,-346.51 694.32,-348.95"/>
</g>
<!-- haskell&#45;&gt;types -->
<g id="edge43" class="edge">
<title>haskell&#45;&gt;types</title>
<path fill="none" stroke="black" d="M610.81,-27.26C661.97,-18.61 768.52,-2.69 859.38,-2.69 859.38,-2.69 859.38,-2.69 1218.25,-2.69 1291.49,-2.69 1325.43,12.72 1379.5,-36.69 1428.76,-81.7 1439.32,-164.73 1441.3,-209.03"/>
<polygon fill="black" stroke="black" points="1437.8,-209.03 1441.62,-218.92 1444.8,-208.81 1437.8,-209.03"/>
</g>
<!-- hol&#45;&gt;core -->
<g id="edge44" class="edge">
<title>hol&#45;&gt;core</title>
<path fill="none" stroke="black" d="M887.74,-152.13C900.37,-157.89 915.57,-165.21 928.75,-172.69 941.09,-179.69 954.11,-188.07 965.64,-195.85"/>
<polygon fill="black" stroke="black" points="963.44,-198.58 973.67,-201.34 967.39,-192.81 963.44,-198.58"/>
</g>
<!-- hol&#45;eval&#45;&gt;core -->
<g id="edge45" class="edge">
<title>hol&#45;eval&#45;&gt;core</title>
<path fill="none" stroke="black" d="M895.69,-94.96C907.26,-99.08 919.55,-105.08 928.75,-113.69 955.75,-138.95 942.52,-159.14 964.75,-188.69 966.22,-190.64 967.82,-192.56 969.5,-194.44"/>
<polygon fill="black" stroke="black" points="966.69,-196.57 976.2,-201.23 971.67,-191.65 966.69,-196.57"/>
</g>
<!-- hol&#45;eval&#45;&gt;pure -->
<g id="edge46" class="edge">
<title>hol&#45;eval&#45;&gt;pure</title>
<path fill="none" stroke="black" d="M895.66,-99.54C915.7,-106.91 941.54,-116.16 964.75,-123.69 1040.22,-148.17 1129.67,-173.2 1178.96,-186.65"/>
<polygon fill="black" stroke="black" points="1177.99,-190.01 1188.56,-189.26 1179.83,-183.26 1177.99,-190.01"/>
</g>
<!-- hol&#45;eval&#45;&gt;pure&#45;eval -->
<g id="edge47" class="edge">
<title>hol&#45;eval&#45;&gt;pure&#45;eval</title>
<path fill="none" stroke="black" d="M895.62,-92.4C938.82,-99.6 1013.44,-112.03 1063.11,-120.31"/>
<polygon fill="black" stroke="black" points="1062.3,-123.73 1072.74,-121.92 1063.45,-116.82 1062.3,-123.73"/>
</g>
<!-- hol&#45;eval&#45;&gt;sexp -->
<g id="edge48" class="edge">
<title>hol&#45;eval&#45;&gt;sexp</title>
<path fill="none" stroke="black" d="M895.61,-92.85C907.89,-96.79 920.67,-103.21 928.75,-113.69 930.88,-116.45 982.75,-543.26 997.02,-660.94"/>
<polygon fill="black" stroke="black" points="993.53,-661.24 998.21,-670.74 1000.48,-660.39 993.53,-661.24"/>
</g>
<!-- hol&#45;eval&#45;&gt;types -->
<g id="edge49" class="edge">
<title>hol&#45;eval&#45;&gt;types</title>
<path fill="none" stroke="black" d="M895.61,-85.8C944.08,-84.62 1035.49,-82.69 1113.38,-82.69 1113.38,-82.69 1113.38,-82.69 1218.25,-82.69 1293.83,-82.69 1320.44,-89.53 1379.5,-136.69 1403.57,-155.92 1420.6,-187.21 1430.64,-210.08"/>
<polygon fill="black" stroke="black" points="1427.34,-211.26 1434.42,-219.14 1433.8,-208.56 1427.34,-211.26"/>
</g>
<!-- inductive -->
<g id="node19" class="node">
<title>inductive</title>
<polygon fill="none" stroke="black" points="898.75,-548.69 822,-548.69 822,-512.69 898.75,-512.69 898.75,-548.69"/>
<text text-anchor="middle" x="860.38" y="-526.39" font-family="sans-serif" font-size="14.00">inductive</text>
</g>
<!-- init&#45;&gt;core -->
<g id="edge50" class="edge">
<title>init&#45;&gt;core</title>
<path fill="none" stroke="black" d="M725.05,-358.35C744.02,-335.05 776.46,-296.65 792,-286.69 820.61,-268.34 911.18,-243.39 963.09,-230.04"/>
<polygon fill="black" stroke="black" points="963.87,-233.45 972.7,-227.59 962.14,-226.67 963.87,-233.45"/>
</g>
<!-- init&#45;&gt;grammar -->
<g id="edge51" class="edge">
<title>init&#45;&gt;grammar</title>
<path fill="none" stroke="black" d="M736.63,-377.15C777.67,-377.69 859.5,-378.01 928.75,-373.69 936.67,-373.2 945.06,-372.46 953.21,-371.63"/>
<polygon fill="black" stroke="black" points="953.42,-375.12 962.98,-370.57 952.67,-368.17 953.42,-375.12"/>
</g>
<!-- init&#45;&gt;hash -->
<g id="edge52" class="edge">
<title>init&#45;&gt;hash</title>
<path fill="none" stroke="black" d="M736.56,-386.62C744.05,-390.76 751.42,-396.35 756,-403.69 809.35,-489.17 772.68,-756.8 792,-855.69 805.16,-923.05 832.32,-999.05 847.83,-1039.57"/>
<polygon fill="black" stroke="black" points="844.55,-1040.78 851.43,-1048.84 851.08,-1038.26 844.55,-1040.78"/>
</g>
<!-- init&#45;&gt;hol -->
<g id="edge53" class="edge">
<title>init&#45;&gt;hol</title>
<path fill="none" stroke="black" d="M721.82,-358.56C747.71,-317.55 810.93,-217.42 841.82,-168.5"/>
<polygon fill="black" stroke="black" points="844.7,-170.48 847.08,-160.16 838.79,-166.75 844.7,-170.48"/>
</g>
<!-- init&#45;&gt;hol&#45;eval -->
<g id="edge54" class="edge">
<title>init&#45;&gt;hol&#45;eval</title>
<path fill="none" stroke="black" d="M715.05,-358.51C729.69,-302.04 774.73,-132.4 792,-113.69 798.13,-107.05 806.11,-102.01 814.43,-98.2"/>
<polygon fill="black" stroke="black" points="815.62,-101.49 823.62,-94.55 813.04,-94.98 815.62,-101.49"/>
</g>
<!-- init&#45;&gt;inductive -->
<g id="edge55" class="edge">
<title>init&#45;&gt;inductive</title>
<path fill="none" stroke="black" d="M736.86,-388.25C743.83,-392.31 750.84,-397.45 756,-403.69 786.1,-440.09 759.2,-469.7 792,-503.69 797.41,-509.29 804.13,-513.77 811.22,-517.33"/>
<polygon fill="black" stroke="black" points="809.81,-520.53 820.37,-521.31 812.6,-514.11 809.81,-520.53"/>
</g>
<!-- metamath -->
<g id="node27" class="node">
<title>metamath</title>
<polygon fill="none" stroke="black" points="900.62,-754.69 820.12,-754.69 820.12,-718.69 900.62,-718.69 900.62,-754.69"/>
<text text-anchor="middle" x="860.38" y="-732.39" font-family="sans-serif" font-size="14.00">metamath</text>
</g>
<!-- init&#45;&gt;metamath -->
<g id="edge56" class="edge">
<title>init&#45;&gt;metamath</title>
<path fill="none" stroke="black" d="M736.56,-387.21C743.86,-391.33 751.13,-396.77 756,-403.69 804.72,-472.9 766.08,-510.12 792,-590.69 805.71,-633.29 828.67,-679.79 843.92,-708.6"/>
<polygon fill="black" stroke="black" points="840.63,-709.88 848.44,-717.04 846.8,-706.57 840.63,-709.88"/>
</g>
<!-- init&#45;&gt;sexp -->
<g id="edge57" class="edge">
<title>init&#45;&gt;sexp</title>
<path fill="none" stroke="black" d="M736.87,-387.6C744.01,-391.69 751.1,-397.01 756,-403.69 797.58,-460.36 742.48,-507.81 792,-557.69 836.05,-602.06 876.87,-555.79 928.75,-590.69 955.24,-608.51 975.29,-639.58 987.39,-662.36"/>
<polygon fill="black" stroke="black" points="984.2,-663.81 991.85,-671.13 990.44,-660.63 984.2,-663.81"/>
</g>
<!-- spectec -->
<g id="node46" class="node">
<title>spectec</title>
<polygon fill="none" stroke="black" points="895,-364.69 825.75,-364.69 825.75,-328.69 895,-328.69 895,-364.69"/>
<text text-anchor="middle" x="860.38" y="-342.39" font-family="sans-serif" font-size="14.00">spectec</text>
</g>
<!-- init&#45;&gt;spectec -->
<g id="edge58" class="edge">
<title>init&#45;&gt;spectec</title>
<path fill="none" stroke="black" d="M736.67,-371.4C758.12,-367.08 788.9,-360.88 814.27,-355.77"/>
<polygon fill="black" stroke="black" points="814.89,-359.22 824.01,-353.81 813.51,-352.35 814.89,-359.22"/>
</g>
<!-- init&#45;&gt;types -->
<g id="edge59" class="edge">
<title>init&#45;&gt;types</title>
<path fill="none" stroke="black" d="M730.15,-358.41C745.72,-345.2 768.62,-328.23 792,-319.69 879.45,-287.75 907.52,-300.69 1000.62,-300.69 1000.62,-300.69 1000.62,-300.69 1218.25,-300.69 1285.93,-300.69 1361.07,-273.91 1404.64,-255.55"/>
<polygon fill="black" stroke="black" points="1405.82,-258.85 1413.62,-251.69 1403.05,-252.43 1405.82,-258.85"/>
</g>
<!-- json -->
<g id="node21" class="node">
<title>json</title>
<polygon fill="none" stroke="black" points="887.38,-1560.69 833.38,-1560.69 833.38,-1524.69 887.38,-1524.69 887.38,-1560.69"/>
<text text-anchor="middle" x="860.38" y="-1538.39" font-family="sans-serif" font-size="14.00">json</text>
</g>
<!-- kernel -->
<g id="node22" class="node">
<title>kernel</title>
<polygon fill="none" stroke="black" points="608,-692.69 550.75,-692.69 550.75,-656.69 608,-656.69 608,-692.69"/>
<text text-anchor="middle" x="579.38" y="-670.39" font-family="sans-serif" font-size="14.00">kernel</text>
</g>
<!-- kernel&#45;&gt;hash -->
<g id="edge60" class="edge">
<title>kernel&#45;&gt;hash</title>
<path fill="none" stroke="black" d="M608.13,-692.62C623.89,-702.52 644.14,-714.79 662.75,-724.69 703.04,-746.12 725.87,-733.41 756,-767.69 791.36,-807.92 774.88,-831.94 792,-882.69 810.91,-938.72 834.86,-1003.53 848.52,-1039.95"/>
<polygon fill="black" stroke="black" points="845.08,-1040.76 851.88,-1048.89 851.64,-1038.3 845.08,-1040.76"/>
</g>
<!-- kernel&#45;&gt;init -->
<g id="edge61" class="edge">
<title>kernel&#45;&gt;init</title>
<path fill="none" stroke="black" d="M595.63,-656.27C606,-642.79 619.16,-623.63 626.75,-604.69 660.51,-520.45 611,-478.24 662.75,-403.69 665.47,-399.78 668.95,-396.34 672.78,-393.35"/>
<polygon fill="black" stroke="black" points="674.46,-396.44 680.87,-388.01 670.6,-390.6 674.46,-396.44"/>
</g>
<!-- kernel&#45;&gt;object -->
<g id="edge62" class="edge">
<title>kernel&#45;&gt;object</title>
<path fill="none" stroke="black" d="M608.11,-689.92C614.87,-694.62 621.62,-700.27 626.75,-706.69 669.4,-760.12 692.34,-838.73 702.26,-881.07"/>
<polygon fill="black" stroke="black" points="698.84,-881.78 704.44,-890.77 705.67,-880.25 698.84,-881.78"/>
</g>
<!-- kernel&#45;&gt;sexp -->
<g id="edge63" class="edge">
<title>kernel&#45;&gt;sexp</title>
<path fill="none" stroke="black" d="M608.45,-664.78C645.69,-653.54 711.85,-640.44 756,-670.69 792.56,-695.74 755.44,-738.64 792,-763.69 842.14,-798.04 872.69,-787.17 928.75,-763.69 950.9,-754.42 969.67,-734.62 982.48,-717.98"/>
<polygon fill="black" stroke="black" points="984.97,-720.5 988.06,-710.37 979.32,-716.36 984.97,-720.5"/>
</g>
<!-- kernel&#45;&gt;store -->
<g id="edge64" class="edge">
<title>kernel&#45;&gt;store</title>
<path fill="none" stroke="black" d="M584.35,-693.15C593.23,-735.03 614.82,-840.49 626.75,-929.69 651.46,-1114.51 616.36,-1167.09 662.75,-1347.69 669.51,-1374.02 682.39,-1402.13 692.74,-1422.32"/>
<polygon fill="black" stroke="black" points="689.57,-1423.82 697.32,-1431.04 695.77,-1420.56 689.57,-1423.82"/>
</g>
<!-- kv -->
<g id="node23" class="node">
<title>kv</title>
<polygon fill="none" stroke="black" points="226.12,-1744.69 172.12,-1744.69 172.12,-1708.69 226.12,-1708.69 226.12,-1744.69"/>
<text text-anchor="middle" x="199.12" y="-1722.39" font-family="sans-serif" font-size="14.00">kv</text>
</g>
<!-- lean -->
<g id="node24" class="node">
<title>lean</title>
<polygon fill="none" stroke="black" points="87.5,-1561.69 33.5,-1561.69 33.5,-1525.69 87.5,-1525.69 87.5,-1561.69"/>
<text text-anchor="middle" x="60.5" y="-1539.39" font-family="sans-serif" font-size="14.00">lean</text>
</g>
<!-- llm -->
<g id="node25" class="node">
<title>llm</title>
<polygon fill="none" stroke="black" points="226.12,-1369.69 172.12,-1369.69 172.12,-1333.69 226.12,-1333.69 226.12,-1369.69"/>
<text text-anchor="middle" x="199.12" y="-1347.39" font-family="sans-serif" font-size="14.00">llm</text>
</g>
<!-- llm&#45;&gt;proto -->
<g id="edge65" class="edge">
<title>llm&#45;&gt;proto</title>
<path fill="none" stroke="black" d="M212.46,-1333.44C233.86,-1301.77 277.98,-1236.47 303.13,-1199.25"/>
<polygon fill="black" stroke="black" points="305.84,-1201.49 308.54,-1191.24 300.04,-1197.57 305.84,-1201.49"/>
</g>
<!-- lsp&#45;&gt;sexp -->
<g id="edge66" class="edge">
<title>lsp&#45;&gt;sexp</title>
<path fill="none" stroke="black" d="M887.57,-820.02C900.9,-814.73 916.76,-806.98 928.75,-796.69 954.06,-774.97 974.39,-742.3 986.89,-718.98"/>
<polygon fill="black" stroke="black" points="989.87,-720.83 991.37,-710.34 983.66,-717.6 989.87,-720.83"/>
</g>
<!-- lsp&#45;&gt;wasm -->
<g id="edge67" class="edge">
<title>lsp&#45;&gt;wasm</title>
<path fill="none" stroke="black" d="M868.47,-847.19C882.23,-883.77 912.6,-968.2 928.75,-1041.69 973.23,-1244.09 993.01,-1493.69 998.76,-1578.16"/>
<polygon fill="black" stroke="black" points="995.25,-1578.15 999.4,-1587.89 1002.23,-1577.68 995.25,-1578.15"/>
</g>
<!-- metamath&#45;&gt;parse -->
<g id="edge68" class="edge">
<title>metamath&#45;&gt;parse</title>
<path fill="none" stroke="black" d="M881.89,-755.01C895.66,-767.64 913.91,-785.09 928.75,-801.69 993.87,-874.53 1061.75,-968.11 1094.06,-1013.92"/>
<polygon fill="black" stroke="black" points="1091.1,-1015.79 1099.71,-1021.97 1096.83,-1011.77 1091.1,-1015.79"/>
</g>
<!-- metamath&#45;&gt;sexp -->
<g id="edge69" class="edge">
<title>metamath&#45;&gt;sexp</title>
<path fill="none" stroke="black" d="M900.91,-723.63C920.53,-717.15 944.11,-709.36 963.41,-702.98"/>
<polygon fill="black" stroke="black" points="964.38,-706.35 972.78,-699.89 962.19,-699.7 964.38,-706.35"/>
</g>
<!-- multiformat -->
<g id="node28" class="node">
<title>multiformat</title>
<polygon fill="none" stroke="black" points="754.5,-1284.69 664.25,-1284.69 664.25,-1248.69 754.5,-1248.69 754.5,-1284.69"/>
<text text-anchor="middle" x="709.38" y="-1262.39" font-family="sans-serif" font-size="14.00">multiformat</text>
</g>
<!-- multiformat&#45;&gt;acset -->
<g id="edge70" class="edge">
<title>multiformat&#45;&gt;acset</title>
<path fill="none" stroke="black" d="M754.68,-1266.69C776.05,-1266.69 801.41,-1266.69 821.81,-1266.69"/>
<polygon fill="black" stroke="black" points="821.68,-1270.19 831.68,-1266.69 821.68,-1263.19 821.68,-1270.19"/>
</g>
<!-- multiformat&#45;&gt;hash -->
<g id="edge71" class="edge">
<title>multiformat&#45;&gt;hash</title>
<path fill="none" stroke="black" d="M741.29,-1248.48C746.64,-1244.41 751.82,-1239.77 756,-1234.69 781.04,-1204.27 771.6,-1187.39 792,-1153.69 804.59,-1132.89 821.61,-1111.46 835.4,-1095.31"/>
<polygon fill="black" stroke="black" points="837.77,-1097.92 841.68,-1088.07 832.49,-1093.33 837.77,-1097.92"/>
</g>
<!-- multiformat&#45;&gt;parse -->
<g id="edge72" class="edge">
<title>multiformat&#45;&gt;parse</title>
<path fill="none" stroke="black" d="M750.28,-1248.2C813.08,-1218.6 938.17,-1157.57 1038.5,-1095.69 1052.77,-1086.89 1067.88,-1076.26 1080.76,-1066.78"/>
<polygon fill="black" stroke="black" points="1082.56,-1069.8 1088.49,-1061.01 1078.38,-1064.18 1082.56,-1069.8"/>
</g>
<!-- object&#45;&gt;hash -->
<g id="edge73" class="edge">
<title>object&#45;&gt;hash</title>
<path fill="none" stroke="black" d="M727.76,-929.12C754.11,-957.07 804.3,-1010.29 834.51,-1042.33"/>
<polygon fill="black" stroke="black" points="831.66,-1044.4 841.06,-1049.27 836.75,-1039.6 831.66,-1044.4"/>
</g>
<!-- object&#45;&gt;parse -->
<g id="edge74" class="edge">
<title>object&#45;&gt;parse</title>
<path fill="none" stroke="black" d="M738.39,-919.8C809.48,-942.91 996.87,-1003.82 1076.61,-1029.74"/>
<polygon fill="black" stroke="black" points="1075.09,-1032.93 1085.68,-1032.69 1077.26,-1026.27 1075.09,-1032.93"/>
</g>
<!-- opentheory&#45;&gt;hol -->
<g id="edge75" class="edge">
<title>opentheory&#45;&gt;hol</title>
<path fill="none" stroke="black" d="M368.5,-189.26C471.81,-179.04 725.49,-153.94 821.62,-144.43"/>
<polygon fill="black" stroke="black" points="821.95,-147.91 831.56,-143.44 821.26,-140.94 821.95,-147.91"/>
</g>
<!-- parquet -->
<g id="node31" class="node">
<title>parquet</title>
<polygon fill="none" stroke="black" points="483.62,-1012.69 416.62,-1012.69 416.62,-976.69 483.62,-976.69 483.62,-1012.69"/>
<text text-anchor="middle" x="450.12" y="-990.39" font-family="sans-serif" font-size="14.00">parquet</text>
</g>
<!-- parquet&#45;&gt;arrow -->
<g id="edge76" class="edge">
<title>parquet&#45;&gt;arrow</title>
<path fill="none" stroke="black" d="M483.9,-984.9C501.46,-979.66 523.16,-973.18 541.33,-967.75"/>
<polygon fill="black" stroke="black" points="542.09,-971.18 550.67,-964.96 540.09,-964.47 542.09,-971.18"/>
</g>
<!-- proptest -->
<g id="node33" class="node">
<title>proptest</title>
<polygon fill="none" stroke="black" points="95.88,-1615.69 25.12,-1615.69 25.12,-1579.69 95.88,-1579.69 95.88,-1615.69"/>
<text text-anchor="middle" x="60.5" y="-1593.39" font-family="sans-serif" font-size="14.00">proptest</text>
</g>
<!-- pure&#45;trusted -->
<g id="node37" class="node">
<title>pure&#45;trusted</title>
<polygon fill="#ffd6d6" stroke="black" points="1379.5,-218.69 1280.25,-218.69 1280.25,-182.69 1379.5,-182.69 1379.5,-218.69"/>
<text text-anchor="middle" x="1329.88" y="-196.39" font-family="sans-serif" font-size="14.00">pure&#45;trusted</text>
</g>
<!-- pure&#45;&gt;pure&#45;trusted -->
<g id="edge77" class="edge">
<title>pure&#45;&gt;pure&#45;trusted</title>
<path fill="none" stroke="black" d="M1244.75,-197.65C1252.04,-197.91 1260.27,-198.21 1268.64,-198.51"/>
<polygon fill="black" stroke="black" points="1268.45,-202.01 1278.57,-198.87 1268.7,-195.01 1268.45,-202.01"/>
</g>
<!-- pure&#45;eval&#45;&gt;pure -->
<g id="edge78" class="edge">
<title>pure&#45;eval&#45;&gt;pure</title>
<path fill="none" stroke="black" d="M1142.67,-147.09C1154.39,-154.99 1168.23,-164.32 1180.74,-172.75"/>
<polygon fill="black" stroke="black" points="1178.47,-175.44 1188.72,-178.13 1182.38,-169.64 1178.47,-175.44"/>
</g>
<!-- pure&#45;eval&#45;&gt;types -->
<g id="edge79" class="edge">
<title>pure&#45;eval&#45;&gt;types</title>
<path fill="none" stroke="black" d="M1154.54,-127.85C1208.37,-128.31 1306.81,-135.02 1379.5,-173.69 1396.39,-182.68 1411.33,-197.98 1422.31,-211.48"/>
<polygon fill="black" stroke="black" points="1419.44,-213.48 1428.33,-219.24 1424.97,-209.19 1419.44,-213.48"/>
</g>
<!-- pure&#45;trusted&#45;&gt;types -->
<g id="edge80" class="edge">
<title>pure&#45;trusted&#45;&gt;types</title>
<path fill="none" stroke="black" d="M1379.72,-217.47C1387.98,-220.31 1396.44,-223.21 1404.34,-225.92"/>
<polygon fill="black" stroke="black" points="1403.03,-229.18 1413.63,-229.12 1405.31,-222.56 1403.03,-229.18"/>
</g>
<!-- python -->
<g id="node38" class="node">
<title>python</title>
<polygon fill="none" stroke="black" points="91.38,-1453.69 29.62,-1453.69 29.62,-1417.69 91.38,-1417.69 91.38,-1453.69"/>
<text text-anchor="middle" x="60.5" y="-1431.39" font-family="sans-serif" font-size="14.00">python</text>
</g>
<!-- python&#45;&gt;crypto&#45;sig -->
<g id="edge81" class="edge">
<title>python&#45;&gt;crypto&#45;sig</title>
<path fill="none" stroke="black" d="M91.75,-1443.18C102.46,-1447.27 113.65,-1453.46 121,-1462.69 171.26,-1525.85 114.5,-1572.07 157,-1640.69 158.18,-1642.59 159.51,-1644.43 160.96,-1646.19"/>
<polygon fill="black" stroke="black" points="158.42,-1648.6 167.93,-1653.28 163.42,-1643.69 158.42,-1648.6"/>
</g>
<!-- python&#45;&gt;git -->
<g id="edge82" class="edge">
<title>python&#45;&gt;git</title>
<path fill="none" stroke="black" d="M91.58,-1442.24C150.28,-1453.26 281.94,-1469.05 368.25,-1411.69 412.49,-1382.29 433.89,-1320.77 443.1,-1284.08"/>
<polygon fill="black" stroke="black" points="446.46,-1285.12 445.33,-1274.58 439.64,-1283.52 446.46,-1285.12"/>
</g>
<!-- python&#45;&gt;graph -->
<g id="edge83" class="edge">
<title>python&#45;&gt;graph</title>
<path fill="none" stroke="black" d="M91.79,-1430.33C128.92,-1422.82 192.87,-1406.85 241.25,-1378.69 326.6,-1329.01 325.3,-1287.01 404.25,-1227.69 407.16,-1225.51 410.25,-1223.34 413.4,-1221.25"/>
<polygon fill="black" stroke="black" points="415.05,-1224.35 421.63,-1216.04 411.3,-1218.44 415.05,-1224.35"/>
</g>
<!-- python&#45;&gt;hash -->
<g id="edge84" class="edge">
<title>python&#45;&gt;hash</title>
<path fill="none" stroke="black" d="M91.48,-1447.69C110.02,-1454.46 134.5,-1462.24 157,-1465.69 250.35,-1480.01 280.95,-1478.71 368.25,-1442.69 515.2,-1382.05 531.44,-1329.3 662.75,-1239.69 704.06,-1211.5 717.77,-1208.94 756,-1176.69 785.95,-1151.43 816.52,-1118.4 836.57,-1095.56"/>
<polygon fill="black" stroke="black" points="839.06,-1098.03 842.98,-1088.18 833.78,-1093.43 839.06,-1098.03"/>
</g>
<!-- python&#45;&gt;kv -->
<g id="edge85" class="edge">
<title>python&#45;&gt;kv</title>
<path fill="none" stroke="black" d="M91.68,-1442.88C102.51,-1446.94 113.81,-1453.19 121,-1462.69 185.29,-1547.65 99.48,-1610.01 157,-1699.69 158.73,-1702.39 160.83,-1704.87 163.17,-1707.15"/>
<polygon fill="black" stroke="black" points="160.62,-1709.59 170.59,-1713.16 165.02,-1704.15 160.62,-1709.59"/>
</g>
<!-- python&#45;&gt;llm -->
<g id="edge86" class="edge">
<title>python&#45;&gt;llm</title>
<path fill="none" stroke="black" d="M91.48,-1417.26C112.33,-1404.44 140.21,-1387.3 162.24,-1373.75"/>
<polygon fill="black" stroke="black" points="163.92,-1376.83 170.61,-1368.61 160.26,-1370.86 163.92,-1376.83"/>
</g>
<!-- python&#45;&gt;object -->
<g id="edge87" class="edge">
<title>python&#45;&gt;object</title>
<path fill="none" stroke="black" d="M61.98,-1417.3C65.16,-1338.4 89.6,-1027.79 277.25,-921.69 404.91,-849.51 589.6,-881.34 669.32,-900.28"/>
<polygon fill="black" stroke="black" points="668.28,-903.63 678.83,-902.6 669.95,-896.83 668.28,-903.63"/>
</g>
<!-- python&#45;&gt;repl -->
<g id="edge88" class="edge">
<title>python&#45;&gt;repl</title>
<path fill="none" stroke="black" d="M71.9,-1417.45C99.9,-1368.17 179.02,-1228.12 241.25,-1109.69 265.41,-1063.71 292.13,-1009.57 307.9,-977.24"/>
<polygon fill="black" stroke="black" points="310.92,-979.05 312.15,-968.52 304.63,-975.98 310.92,-979.05"/>
</g>
<!-- sat -->
<g id="node41" class="node">
<title>sat</title>
<polygon fill="none" stroke="black" points="887.38,-1414.69 833.38,-1414.69 833.38,-1378.69 887.38,-1378.69 887.38,-1414.69"/>
<text text-anchor="middle" x="860.38" y="-1392.39" font-family="sans-serif" font-size="14.00">sat</text>
</g>
<!-- python&#45;&gt;sat -->
<g id="edge89" class="edge">
<title>python&#45;&gt;sat</title>
<path fill="none" stroke="black" d="M91.84,-1444.27C102.17,-1448.44 113.1,-1454.39 121,-1462.69 150.99,-1494.19 123.78,-1525.61 157,-1553.69 214.17,-1602.01 246.89,-1588.69 321.75,-1588.69 321.75,-1588.69 321.75,-1588.69 451.12,-1588.69 532.92,-1588.69 550.9,-1564.3 626.75,-1533.69 643.34,-1527 646.46,-1523.07 662.75,-1515.69 703.52,-1497.22 717.29,-1500.15 756,-1477.69 783.19,-1461.91 811.08,-1439.63 831.03,-1422.43"/>
<polygon fill="black" stroke="black" points="833.24,-1425.14 838.46,-1415.92 828.63,-1419.88 833.24,-1425.14"/>
</g>
<!-- python&#45;&gt;serve -->
<g id="edge90" class="edge">
<title>python&#45;&gt;serve</title>
<path fill="none" stroke="black" d="M66.12,-1417.28C86.21,-1337.29 166.01,-1019.55 190.76,-921"/>
<polygon fill="black" stroke="black" points="194.09,-922.12 193.13,-911.56 187.3,-920.41 194.09,-922.12"/>
</g>
<!-- python&#45;&gt;sexp -->
<g id="edge91" class="edge">
<title>python&#45;&gt;sexp</title>
<path fill="none" stroke="black" d="M63.23,-1417.22C73.37,-1309.63 125.84,-766.2 157,-698.69 225.6,-550.06 254.61,-492.06 404.25,-425.69 441.53,-409.16 456.73,-414.69 496,-425.69 626.21,-462.15 666.69,-482.16 756,-583.69 782.02,-613.27 760.36,-641.22 792,-664.69 841.92,-701.72 917.73,-700.99 962.91,-696.35"/>
<polygon fill="black" stroke="black" points="963.21,-699.84 972.74,-695.21 962.41,-692.89 963.21,-699.84"/>
</g>
<!-- python&#45;&gt;shell -->
<g id="edge92" class="edge">
<title>python&#45;&gt;shell</title>
<path fill="none" stroke="black" d="M61.92,-1417.23C64.13,-1344.43 77.58,-1071.05 157,-864.69 222.31,-694.98 267.92,-659.03 404.25,-538.69 407.21,-536.08 410.38,-533.48 413.62,-530.95"/>
<polygon fill="black" stroke="black" points="415.67,-533.78 421.58,-524.99 411.48,-528.18 415.67,-533.78"/>
</g>
<!-- python&#45;&gt;store -->
<g id="edge93" class="edge">
<title>python&#45;&gt;store</title>
<path fill="none" stroke="black" d="M91.82,-1445.17C101.92,-1449.38 112.7,-1455.13 121,-1462.69 144.84,-1484.41 130.4,-1507.45 157,-1525.69 218.08,-1567.58 247.69,-1550.69 321.75,-1550.69 321.75,-1550.69 321.75,-1550.69 451.12,-1550.69 534.78,-1550.69 623.98,-1504.18 672.25,-1474.6"/>
<polygon fill="black" stroke="black" points="674,-1477.63 680.63,-1469.37 670.29,-1471.7 674,-1477.63"/>
</g>
<!-- python&#45;&gt;wasm -->
<g id="edge94" class="edge">
<title>python&#45;&gt;wasm</title>
<path fill="none" stroke="black" d="M91.82,-1442.77C102.67,-1446.83 113.94,-1453.09 121,-1462.69 198.19,-1567.69 64.47,-1661.92 157,-1753.69 209.33,-1805.59 248.04,-1772.69 321.75,-1772.69 321.75,-1772.69 321.75,-1772.69 580.38,-1772.69 682.41,-1772.69 696.2,-1718.81 792,-1683.69 851.82,-1661.76 869.29,-1663.58 928.75,-1640.69 940.31,-1636.24 952.64,-1630.83 963.77,-1625.69"/>
<polygon fill="black" stroke="black" points="965.07,-1628.95 972.63,-1621.53 962.1,-1622.61 965.07,-1628.95"/>
</g>
<!-- wasm&#45;store -->
<g id="node54" class="node">
<title>wasm&#45;store</title>
<polygon fill="none" stroke="black" points="626.75,-1690.69 532,-1690.69 532,-1654.69 626.75,-1654.69 626.75,-1690.69"/>
<text text-anchor="middle" x="579.38" y="-1668.39" font-family="sans-serif" font-size="14.00">wasm&#45;store</text>
</g>
<!-- python&#45;&gt;wasm&#45;store -->
<g id="edge95" class="edge">
<title>python&#45;&gt;wasm&#45;store</title>
<path fill="none" stroke="black" d="M91.81,-1443.5C102.39,-1447.62 113.49,-1453.74 121,-1462.69 162.3,-1511.9 112.82,-1556.04 157,-1602.69 205.73,-1654.15 416.59,-1667.79 520.31,-1671.4"/>
<polygon fill="black" stroke="black" points="520.19,-1674.89 530.3,-1671.72 520.42,-1667.9 520.19,-1674.89"/>
</g>
<!-- repl&#45;&gt;arrow -->
<g id="edge96" class="edge">
<title>repl&#45;&gt;arrow</title>
<path fill="none" stroke="black" d="M350.04,-949.52C395.42,-950.94 488.61,-953.87 540.82,-955.51"/>
<polygon fill="black" stroke="black" points="540.61,-959.01 550.71,-955.82 540.83,-952.01 540.61,-959.01"/>
</g>
<!-- repl&#45;&gt;forsp -->
<g id="edge97" class="edge">
<title>repl&#45;&gt;forsp</title>
<path fill="none" stroke="black" d="M330.21,-930.55C339.4,-904.32 356.46,-854.18 368.25,-810.69 387.66,-739.08 346.41,-694.15 404.25,-647.69 481.35,-585.76 531.57,-620.86 626.75,-647.69 644.73,-652.76 662.65,-663.01 677.1,-672.92"/>
<polygon fill="black" stroke="black" points="674.66,-675.48 684.83,-678.45 678.73,-669.79 674.66,-675.48"/>
</g>
<!-- repl&#45;&gt;git -->
<g id="edge98" class="edge">
<title>repl&#45;&gt;git</title>
<path fill="none" stroke="black" d="M335.1,-967.01C345.23,-984.16 359.75,-1010.8 368.25,-1035.69 396.31,-1117.85 354.71,-1156.39 404.25,-1227.69 406.8,-1231.37 410.03,-1234.63 413.59,-1237.49"/>
<polygon fill="black" stroke="black" points="411.4,-1240.24 421.63,-1242.98 415.34,-1234.45 411.4,-1240.24"/>
</g>
<!-- repl&#45;&gt;graph -->
<g id="edge99" class="edge">
<title>repl&#45;&gt;graph</title>
<path fill="none" stroke="black" d="M333.22,-966.97C342.29,-984.55 356.32,-1011.87 368.25,-1035.69 392.12,-1083.36 419.29,-1139.1 435.28,-1172.07"/>
<polygon fill="black" stroke="black" points="432.08,-1173.49 439.59,-1180.97 438.38,-1170.44 432.08,-1173.49"/>
</g>
<!-- repl&#45;&gt;hash -->
<g id="edge100" class="edge">
<title>repl&#45;&gt;hash</title>
<path fill="none" stroke="black" d="M341.29,-967.07C360.33,-986.56 389.92,-1015.38 404.25,-1021.69 547.94,-1085.01 600,-1036.82 756,-1054.69 777.86,-1057.19 802.25,-1060.47 821.85,-1063.23"/>
<polygon fill="black" stroke="black" points="821.18,-1066.67 831.57,-1064.61 822.16,-1059.74 821.18,-1066.67"/>
</g>
<!-- repl&#45;&gt;init -->
<g id="edge101" class="edge">
<title>repl&#45;&gt;init</title>
<path fill="none" stroke="black" d="M330.44,-930.61C339.93,-904.46 357.34,-854.41 368.25,-810.69 390.23,-722.64 355.52,-686.25 404.25,-609.69 436.74,-558.64 583.55,-495.07 626.75,-452.69 646.04,-433.77 642.72,-421.83 662.75,-403.69 665.79,-400.93 669.16,-398.32 672.65,-395.88"/>
<polygon fill="black" stroke="black" points="674.23,-399.02 680.75,-390.67 670.45,-393.13 674.23,-399.02"/>
</g>
<!-- repl&#45;&gt;object -->
<g id="edge102" class="edge">
<title>repl&#45;&gt;object</title>
<path fill="none" stroke="black" d="M350.19,-946.08C416.62,-939.51 590.81,-922.31 669.18,-914.56"/>
<polygon fill="black" stroke="black" points="669.35,-918.06 678.96,-913.6 668.66,-911.1 669.35,-918.06"/>
</g>
<!-- repl&#45;&gt;parquet -->
<g id="edge103" class="edge">
<title>repl&#45;&gt;parquet</title>
<path fill="none" stroke="black" d="M350.03,-958.33C366.12,-964.24 387.1,-971.93 405.61,-978.73"/>
<polygon fill="black" stroke="black" points="404.16,-981.92 414.75,-982.08 406.57,-975.35 404.16,-981.92"/>
</g>
<!-- repl&#45;&gt;shell -->
<g id="edge104" class="edge">
<title>repl&#45;&gt;shell</title>
<path fill="none" stroke="black" d="M329.03,-930.33C337.88,-899.14 355.96,-833.72 368.25,-777.69 387.69,-689.04 371.12,-661.18 404.25,-576.69 410.11,-561.74 419.36,-546.56 427.93,-534.18"/>
<polygon fill="black" stroke="black" points="430.72,-536.3 433.71,-526.13 425.03,-532.21 430.72,-536.3"/>
</g>
<!-- repl&#45;&gt;wasm -->
<g id="edge105" class="edge">
<title>repl&#45;&gt;wasm</title>
<path fill="none" stroke="black" d="M327.94,-967.11C343.39,-1034.89 396.69,-1267.31 404.25,-1281.69 484.34,-1433.91 509.85,-1490.93 662.75,-1569.69 714.3,-1596.25 885.76,-1604.42 962.7,-1606.79"/>
<polygon fill="black" stroke="black" points="962.59,-1610.29 972.68,-1607.08 962.79,-1603.29 962.59,-1610.29"/>
</g>
<!-- sat&#45;&gt;parse -->
<g id="edge106" class="edge">
<title>sat&#45;&gt;parse</title>
<path fill="none" stroke="black" d="M887.85,-1400.13C926.35,-1403.54 997.65,-1403.58 1038.5,-1364.69 1080.96,-1324.26 1103.26,-1143.64 1110.59,-1071.55"/>
<polygon fill="black" stroke="black" points="1114.07,-1071.98 1111.57,-1061.68 1107.1,-1071.29 1114.07,-1071.98"/>
</g>
<!-- sat&#45;&gt;types -->
<g id="edge107" class="edge">
<title>sat&#45;&gt;types</title>
<path fill="none" stroke="black" d="M887.74,-1401.92C933.47,-1410.51 1030.54,-1426.69 1113.38,-1426.69 1113.38,-1426.69 1113.38,-1426.69 1218.25,-1426.69 1339.93,-1426.69 1424.37,-451.66 1439.18,-268.24"/>
<polygon fill="black" stroke="black" points="1442.66,-268.63 1439.97,-258.38 1435.68,-268.07 1442.66,-268.63"/>
</g>
<!-- sat&#45;&gt;wasm -->
<g id="edge108" class="edge">
<title>sat&#45;&gt;wasm</title>
<path fill="none" stroke="black" d="M887.87,-1404.11C901.6,-1409.12 917.75,-1416.99 928.75,-1428.69 968.89,-1471.38 987.74,-1539.34 995.65,-1578.08"/>
<polygon fill="black" stroke="black" points="992.2,-1578.68 997.52,-1587.85 999.07,-1577.37 992.2,-1578.68"/>
</g>
<!-- serve&#45;&gt;core -->
<g id="edge109" class="edge">
<title>serve&#45;&gt;core</title>
<path fill="none" stroke="black" d="M199.61,-873.33C198.86,-816.07 202.95,-637.39 277.25,-517.69 417.85,-291.17 530.63,-262.26 792,-209.69 850.99,-197.82 921.14,-205.96 963.21,-213.15"/>
<polygon fill="black" stroke="black" points="962.35,-216.55 972.81,-214.87 963.58,-209.66 962.35,-216.55"/>
</g>
<!-- serve&#45;&gt;git -->
<g id="edge110" class="edge">
<title>serve&#45;&gt;git</title>
<path fill="none" stroke="black" d="M206.73,-909.85C217.67,-937.78 241.88,-991.6 277.25,-1025.69 310.17,-1057.42 340.3,-1037.5 368.25,-1073.69 411.21,-1129.32 362.87,-1170.87 404.25,-1227.69 406.88,-1231.31 410.16,-1234.53 413.74,-1237.38"/>
<polygon fill="black" stroke="black" points="411.57,-1240.14 421.81,-1242.85 415.5,-1234.34 411.57,-1240.14"/>
</g>
<!-- serve&#45;&gt;hash -->
<g id="edge111" class="edge">
<title>serve&#45;&gt;hash</title>
<path fill="none" stroke="black" d="M222.68,-909.94C228.94,-915.4 235.57,-921.57 241.25,-927.69 259.38,-947.24 257.11,-958.21 277.25,-975.69 312.1,-1005.94 328.79,-1001.76 368.25,-1025.69 384.69,-1035.66 386.2,-1043.05 404.25,-1049.69 480.41,-1077.7 726.95,-1073.01 821.75,-1070.05"/>
<polygon fill="black" stroke="black" points="821.66,-1073.56 831.54,-1069.73 821.44,-1066.56 821.66,-1073.56"/>
</g>
<!-- serve&#45;&gt;init -->
<g id="edge112" class="edge">
<title>serve&#45;&gt;init</title>
<path fill="none" stroke="black" d="M205.37,-873.37C216.37,-836.09 243.61,-749.12 277.25,-680.69 300.56,-633.28 362.74,-512.37 404.25,-479.69 485.72,-415.55 609.36,-390.24 670.88,-381.19"/>
<polygon fill="black" stroke="black" points="671.05,-384.7 680.47,-379.85 670.08,-377.77 671.05,-384.7"/>
</g>
<!-- serve&#45;&gt;metamath -->
<g id="edge113" class="edge">
<title>serve&#45;&gt;metamath</title>
<path fill="none" stroke="black" d="M226.51,-877.08C269.04,-853 349.87,-804.96 368.25,-777.69 410.93,-714.37 344.87,-657.7 404.25,-609.69 526.53,-510.83 628.83,-555.21 756,-647.69 780.23,-665.31 769.58,-684.81 792,-704.69 797.28,-709.37 803.36,-713.51 809.66,-717.12"/>
<polygon fill="black" stroke="black" points="807.85,-720.12 818.33,-721.67 811.1,-713.92 807.85,-720.12"/>
</g>
<!-- serve&#45;&gt;object -->
<g id="edge114" class="edge">
<title>serve&#45;&gt;object</title>
<path fill="none" stroke="black" d="M226.27,-883.36C294.02,-863.1 480.19,-815.97 626.75,-858.69 645.28,-864.09 663.61,-875.11 678.19,-885.62"/>
<polygon fill="black" stroke="black" points="675.89,-888.27 685.99,-891.48 680.1,-882.67 675.89,-888.27"/>
</g>
<!-- serve&#45;&gt;proto -->
<g id="edge115" class="edge">
<title>serve&#45;&gt;proto</title>
<path fill="none" stroke="black" d="M205.37,-909.93C216.37,-947.05 243.6,-1033.62 277.25,-1101.69 284.4,-1116.15 293.82,-1131.37 302.14,-1143.9"/>
<polygon fill="black" stroke="black" points="299.17,-1145.75 307.68,-1152.06 304.96,-1141.82 299.17,-1145.75"/>
</g>
<!-- serve&#45;&gt;repl -->
<g id="edge116" class="edge">
<title>serve&#45;&gt;repl</title>
<path fill="none" stroke="black" d="M226.52,-904.06C243.65,-912.09 266.22,-922.66 285.08,-931.51"/>
<polygon fill="black" stroke="black" points="283.5,-934.63 294.04,-935.7 286.47,-928.29 283.5,-934.63"/>
</g>
<!-- serve&#45;&gt;shell -->
<g id="edge117" class="edge">
<title>serve&#45;&gt;shell</title>
<path fill="none" stroke="black" d="M204.12,-873.39C212.32,-839.72 234.03,-767.39 277.25,-723.69 308.71,-691.89 339.82,-715.22 368.25,-680.69 409.63,-630.43 367.5,-592.43 404.25,-538.69 406.92,-534.78 410.24,-531.19 413.85,-527.93"/>
<polygon fill="black" stroke="black" points="415.8,-530.86 421.47,-521.91 411.45,-525.37 415.8,-530.86"/>
</g>
<!-- serve&#45;&gt;store -->
<g id="edge118" class="edge">
<title>serve&#45;&gt;store</title>
<path fill="none" stroke="black" d="M205.53,-910.09C215.81,-943.09 240.49,-1013.54 277.25,-1063.69 309.26,-1107.36 339.94,-1098.54 368.25,-1144.69 401.17,-1198.35 373.04,-1227.02 404.25,-1281.69 444.26,-1351.76 461.45,-1371.54 532,-1410.69 575.72,-1434.96 633.31,-1444.51 670.58,-1448.27"/>
<polygon fill="black" stroke="black" points="670.15,-1451.74 680.42,-1449.16 670.78,-1444.77 670.15,-1451.74"/>
</g>
<!-- sexp&#45;&gt;parse -->
<g id="edge119" class="edge">
<title>sexp&#45;&gt;parse</title>
<path fill="none" stroke="black" d="M1008.42,-709.07C1026.55,-766.52 1082.26,-943.08 1104.28,-1012.87"/>
<polygon fill="black" stroke="black" points="1100.83,-1013.57 1107.18,-1022.05 1107.51,-1011.46 1100.83,-1013.57"/>
</g>
<!-- shell&#45;&gt;hol -->
<g id="edge120" class="edge">
<title>shell&#45;&gt;hol</title>
<path fill="none" stroke="black" d="M458.82,-488.36C478.43,-441.74 528.92,-322.07 532,-318.69 615.05,-227.65 755.76,-173.54 822.34,-151.81"/>
<polygon fill="black" stroke="black" points="823.22,-155.2 831.68,-148.82 821.09,-148.53 823.22,-155.2"/>
</g>
<!-- shell&#45;&gt;kernel -->
<g id="edge121" class="edge">
<title>shell&#45;&gt;kernel</title>
<path fill="none" stroke="black" d="M464.99,-524.99C487.36,-554.53 531.56,-612.89 557.68,-647.37"/>
<polygon fill="black" stroke="black" points="554.79,-649.35 563.62,-655.21 560.37,-645.12 554.79,-649.35"/>
</g>
<!-- smt&#45;&gt;sat -->
<g id="edge122" class="edge">
<title>smt&#45;&gt;sat</title>
<path fill="none" stroke="black" d="M714.69,-448.93C723.94,-488.86 745.69,-587.13 756,-670.69 772.99,-808.32 748.58,-1161.99 792,-1293.69 801.36,-1322.07 820.6,-1350.18 836.13,-1369.85"/>
<polygon fill="black" stroke="black" points="833.2,-1371.79 842.22,-1377.35 838.64,-1367.38 833.2,-1371.79"/>
</g>
<!-- smt&#45;&gt;sexp -->
<g id="edge123" class="edge">
<title>smt&#45;&gt;sexp</title>
<path fill="none" stroke="black" d="M736.7,-444.64C743.83,-449.52 750.96,-455.59 756,-462.69 790.18,-510.9 751.56,-547.6 792,-590.69 836.08,-637.66 871.67,-608.83 928.75,-638.69 943,-646.14 957.58,-656.16 969.85,-665.42"/>
<polygon fill="black" stroke="black" points="967.49,-668.02 977.54,-671.37 971.77,-662.48 967.49,-668.02"/>
</g>
<!-- smt&#45;&gt;types -->
<g id="edge124" class="edge">
<title>smt&#45;&gt;types</title>
<path fill="none" stroke="black" d="M736.79,-430.69C787.79,-430.69 903.37,-430.69 1000.62,-430.69 1000.62,-430.69 1000.62,-430.69 1218.25,-430.69 1317.46,-430.69 1394.55,-320.36 1426.04,-266.97"/>
<polygon fill="black" stroke="black" points="1429.01,-268.82 1430.97,-258.41 1422.95,-265.33 1429.01,-268.82"/>
</g>
<!-- spectec&#45;&gt;grammar -->
<g id="edge125" class="edge">
<title>spectec&#45;&gt;grammar</title>
<path fill="none" stroke="black" d="M895.44,-351.34C912.86,-353.71 934.33,-356.65 953.33,-359.24"/>
<polygon fill="black" stroke="black" points="952.6,-362.67 962.98,-360.55 953.54,-355.73 952.6,-362.67"/>
</g>
<!-- store&#45;&gt;hash -->
<g id="edge126" class="edge">
<title>store&#45;&gt;hash</title>
<path fill="none" stroke="black" d="M719.16,-1432.31C728.76,-1411.87 744.35,-1377.78 756,-1347.69 774.27,-1300.51 774.72,-1287.24 792,-1239.69 810.31,-1189.3 833.6,-1131.4 847.46,-1097.55"/>
<polygon fill="black" stroke="black" points="850.64,-1099.02 851.2,-1088.44 844.16,-1096.36 850.64,-1099.02"/>
</g>
<!-- store&#45;&gt;json -->
<g id="edge127" class="edge">
<title>store&#45;&gt;json</title>
<path fill="none" stroke="black" d="M729.97,-1469.01C745.8,-1483.12 769.14,-1502.39 792,-1515.69 801.44,-1521.18 812.21,-1526.05 822.32,-1530.08"/>
<polygon fill="black" stroke="black" points="820.95,-1533.3 831.54,-1533.59 823.44,-1526.76 820.95,-1533.3"/>
</g>
<!-- store&#45;&gt;sqlite -->
<g id="edge128" class="edge">
<title>store&#45;&gt;sqlite</title>
<path fill="none" stroke="black" d="M736.67,-1457.4C760.43,-1463.46 795.65,-1472.44 822.27,-1479.23"/>
<polygon fill="black" stroke="black" points="821.07,-1482.53 831.63,-1481.61 822.8,-1475.75 821.07,-1482.53"/>
</g>
<!-- tcb&#45;db -->
<g id="node49" class="node">
<title>tcb&#45;db</title>
<polygon fill="none" stroke="black" points="739.5,-1560.69 679.25,-1560.69 679.25,-1524.69 739.5,-1524.69 739.5,-1560.69"/>
<text text-anchor="middle" x="709.38" y="-1538.39" font-family="sans-serif" font-size="14.00">tcb&#45;db</text>
</g>
<!-- tcb&#45;db&#45;&gt;json -->
<g id="edge129" class="edge">
<title>tcb&#45;db&#45;&gt;json</title>
<path fill="none" stroke="black" d="M739.81,-1542.69C763.24,-1542.69 796.19,-1542.69 821.57,-1542.69"/>
<polygon fill="black" stroke="black" points="821.48,-1546.19 831.48,-1542.69 821.48,-1539.19 821.48,-1546.19"/>
</g>
<!-- tcb&#45;db&#45;&gt;sqlite -->
<g id="edge130" class="edge">
<title>tcb&#45;db&#45;&gt;sqlite</title>
<path fill="none" stroke="black" d="M739.81,-1532.02C763.45,-1523.45 796.79,-1511.37 822.26,-1502.14"/>
<polygon fill="black" stroke="black" points="823.36,-1505.46 831.57,-1498.77 820.98,-1498.88 823.36,-1505.46"/>
</g>
<!-- wasm&#45;build&#45;guest -->
<g id="node52" class="node">
<title>wasm&#45;build&#45;guest</title>
<polygon fill="none" stroke="black" points="928.75,-1728.69 792,-1728.69 792,-1692.69 928.75,-1692.69 928.75,-1728.69"/>
<text text-anchor="middle" x="860.38" y="-1706.39" font-family="sans-serif" font-size="14.00">wasm&#45;build&#45;guest</text>
</g>
<!-- wasm&#45;build&#45;guest&#45;&gt;wasm -->
<g id="edge131" class="edge">
<title>wasm&#45;build&#45;guest&#45;&gt;wasm</title>
<path fill="none" stroke="black" d="M905.7,-1692.26C913.64,-1688.23 921.65,-1683.67 928.75,-1678.69 946.71,-1666.1 964.27,-1648.87 977.54,-1634.54"/>
<polygon fill="black" stroke="black" points="980.09,-1636.94 984.2,-1627.18 974.9,-1632.24 980.09,-1636.94"/>
</g>
<!-- wasm&#45;spec -->
<g id="node53" class="node">
<title>wasm&#45;spec</title>
<polygon fill="none" stroke="black" points="756,-1338.69 662.75,-1338.69 662.75,-1302.69 756,-1302.69 756,-1338.69"/>
<text text-anchor="middle" x="709.38" y="-1316.39" font-family="sans-serif" font-size="14.00">wasm&#45;spec</text>
</g>
<!-- wasm&#45;spec&#45;&gt;hash -->
<g id="edge132" class="edge">
<title>wasm&#45;spec&#45;&gt;hash</title>
<path fill="none" stroke="black" d="M746.39,-1302.34C749.88,-1299.72 753.17,-1296.83 756,-1293.69 783.74,-1262.91 828.33,-1150.89 848.65,-1097.44"/>
<polygon fill="black" stroke="black" points="851.81,-1098.98 852.07,-1088.39 845.26,-1096.51 851.81,-1098.98"/>
</g>
<!-- wasm&#45;spec&#45;&gt;wasm -->
<g id="edge133" class="edge">
<title>wasm&#45;spec&#45;&gt;wasm</title>
<path fill="none" stroke="black" d="M722.86,-1339.09C741.11,-1365.51 774.79,-1412.27 792,-1423.69 844.56,-1458.57 880.19,-1421.43 928.75,-1461.69 965.33,-1492.01 984.87,-1545.5 993.97,-1578.63"/>
<polygon fill="black" stroke="black" points="990.49,-1579.16 996.38,-1587.97 997.26,-1577.41 990.49,-1579.16"/>
</g>
<!-- wasm&#45;store&#45;&gt;json -->
<g id="edge134" class="edge">
<title>wasm&#45;store&#45;&gt;json</title>
<path fill="none" stroke="black" d="M620.05,-1654.2C674.24,-1628.95 770.63,-1584.04 823.02,-1559.63"/>
<polygon fill="black" stroke="black" points="824.24,-1562.92 831.82,-1555.53 821.28,-1556.58 824.24,-1562.92"/>
</g>
<!-- wasm&#45;store&#45;&gt;store -->
<g id="edge135" class="edge">
<title>wasm&#45;store&#45;&gt;store</title>
<path fill="none" stroke="black" d="M589.03,-1654.38C603.29,-1624.65 633.1,-1564.31 662.75,-1515.69 670.49,-1503 679.8,-1489.47 687.99,-1478.06"/>
<polygon fill="black" stroke="black" points="690.61,-1480.41 693.65,-1470.26 684.95,-1476.29 690.61,-1480.41"/>
</g>
<!-- wasm&#45;store&#45;&gt;wasm -->
<g id="edge136" class="edge">
<title>wasm&#45;store&#45;&gt;wasm</title>
<path fill="none" stroke="black" d="M610.24,-1690.99C673.57,-1727.22 824.08,-1799.42 928.75,-1737.69 965.39,-1716.08 984.65,-1668.36 993.72,-1637.14"/>
<polygon fill="black" stroke="black" points="997.08,-1638.1 996.31,-1627.53 990.33,-1636.27 997.08,-1638.1"/>
</g>
<!-- web&#45;kernel -->
<g id="node55" class="node">
<title>web&#45;kernel</title>
<polygon fill="none" stroke="black" points="496,-692.69 404.25,-692.69 404.25,-656.69 496,-656.69 496,-692.69"/>
<text text-anchor="middle" x="450.12" y="-670.39" font-family="sans-serif" font-size="14.00">web&#45;kernel</text>
</g>
<!-- web&#45;kernel&#45;&gt;kernel -->
<g id="edge137" class="edge">
<title>web&#45;kernel&#45;&gt;kernel</title>
<path fill="none" stroke="black" d="M496.35,-674.69C510.27,-674.69 525.48,-674.69 538.98,-674.69"/>
<polygon fill="black" stroke="black" points="538.81,-678.19 548.81,-674.69 538.81,-671.19 538.81,-678.19"/>
</g>
</g>
</svg>
