<?xml version="1.0" encoding="UTF-8" standalone="no"?>
<!DOCTYPE svg PUBLIC "-//W3C//DTD SVG 1.1//EN"
 "http://www.w3.org/Graphics/SVG/1.1/DTD/svg11.dtd">
<!-- Generated by graphviz version 12.2.1 (0)
 -->
<!-- Title: deps Pages: 1 -->
<svg width="1518pt" height="2618pt"
 viewBox="0.00 0.00 1518.25 2618.00" xmlns="http://www.w3.org/2000/svg" xmlns:xlink="http://www.w3.org/1999/xlink">
<g id="graph0" class="graph" transform="scale(1 1) rotate(0) translate(4 2614)">
<title>deps</title>
<polygon fill="white" stroke="none" points="-4,4 -4,-2614 1514.25,-2614 1514.25,4 -4,4"/>
<!-- covalence -->
<g id="node1" class="node">
<title>covalence</title>
<polygon fill="none" stroke="black" points="102.62,-1040 18.38,-1040 18.38,-1004 102.62,-1004 102.62,-1040"/>
<text text-anchor="middle" x="60.5" y="-1017.7" font-family="sans-serif" font-size="14.00">covalence</text>
</g>
<!-- client -->
<g id="node5" class="node">
<title>client</title>
<polygon fill="none" stroke="black" points="350.12,-956 296.12,-956 296.12,-920 350.12,-920 350.12,-956"/>
<text text-anchor="middle" x="323.12" y="-933.7" font-family="sans-serif" font-size="14.00">client</text>
</g>
<!-- covalence&#45;&gt;client -->
<g id="edge1" class="edge">
<title>covalence&#45;&gt;client</title>
<path fill="none" stroke="black" d="M103.08,-1008.6C153.24,-992.43 236.8,-965.5 284.92,-949.99"/>
<polygon fill="black" stroke="black" points="285.89,-953.36 294.33,-946.96 283.74,-946.69 285.89,-953.36"/>
</g>
<!-- fuse -->
<g id="node13" class="node">
<title>fuse</title>
<polygon fill="none" stroke="black" points="606.38,-712 552.38,-712 552.38,-676 606.38,-676 606.38,-712"/>
<text text-anchor="middle" x="579.38" y="-689.7" font-family="sans-serif" font-size="14.00">fuse</text>
</g>
<!-- covalence&#45;&gt;fuse -->
<g id="edge2" class="edge">
<title>covalence&#45;&gt;fuse</title>
<path fill="none" stroke="black" d="M75.66,-1003.76C93.45,-981.41 125.47,-942.94 157,-914 258.12,-821.2 279.77,-786.15 405,-730 449.3,-710.14 504.91,-701.08 541.03,-697.06"/>
<polygon fill="black" stroke="black" points="540.94,-700.59 550.53,-696.08 540.22,-693.62 540.94,-700.59"/>
</g>
<!-- git -->
<g id="node14" class="node">
<title>git</title>
<polygon fill="none" stroke="black" points="477.5,-560 423.5,-560 423.5,-524 477.5,-524 477.5,-560"/>
<text text-anchor="middle" x="450.5" y="-537.7" font-family="sans-serif" font-size="14.00">git</text>
</g>
<!-- covalence&#45;&gt;git -->
<g id="edge3" class="edge">
<title>covalence&#45;&gt;git</title>
<path fill="none" stroke="black" d="M62.75,-1003.78C67.07,-953.03 85.38,-807.86 157,-717 225.63,-629.94 350.45,-576.58 412.47,-554.22"/>
<polygon fill="black" stroke="black" points="413.6,-557.54 421.87,-550.91 411.27,-550.94 413.6,-557.54"/>
</g>
<!-- hash -->
<g id="node17" class="node">
<title>hash</title>
<polygon fill="none" stroke="black" points="887.38,-926 833.38,-926 833.38,-890 887.38,-890 887.38,-926"/>
<text text-anchor="middle" x="860.38" y="-903.7" font-family="sans-serif" font-size="14.00">hash</text>
</g>
<!-- covalence&#45;&gt;hash -->
<g id="edge4" class="edge">
<title>covalence&#45;&gt;hash</title>
<path fill="none" stroke="black" d="M102.77,-1017.67C210.57,-1006.12 509.39,-972.51 756,-930 777.97,-926.21 802.36,-921.07 821.94,-916.7"/>
<polygon fill="black" stroke="black" points="822.68,-920.12 831.66,-914.51 821.14,-913.3 822.68,-920.12"/>
</g>
<!-- hol -->
<g id="node19" class="node">
<title>hol</title>
<polygon fill="none" stroke="black" points="887.38,-2354 833.38,-2354 833.38,-2318 887.38,-2318 887.38,-2354"/>
<text text-anchor="middle" x="860.38" y="-2331.7" font-family="sans-serif" font-size="14.00">hol</text>
</g>
<!-- covalence&#45;&gt;hol -->
<g id="edge5" class="edge">
<title>covalence&#45;&gt;hol</title>
<path fill="none" stroke="black" d="M103.07,-1033.61C110.11,-1037.41 116.57,-1042.41 121,-1049 177.54,-1133.05 142.15,-1859.79 157,-1960 199.69,-2248.03 30.95,-2594 322.12,-2594 322.12,-2594 322.12,-2594 580.38,-2594 714.43,-2594 811.44,-2431.47 845.77,-2364.41"/>
<polygon fill="black" stroke="black" points="848.88,-2366 850.23,-2355.5 842.63,-2362.87 848.88,-2366"/>
</g>
<!-- init -->
<g id="node23" class="node">
<title>init</title>
<polygon fill="none" stroke="black" points="736.38,-1768 682.38,-1768 682.38,-1732 736.38,-1732 736.38,-1768"/>
<text text-anchor="middle" x="709.38" y="-1745.7" font-family="sans-serif" font-size="14.00">init</text>
</g>
<!-- covalence&#45;&gt;init -->
<g id="edge6" class="edge">
<title>covalence&#45;&gt;init</title>
<path fill="none" stroke="black" d="M102.89,-1033.73C109.95,-1037.52 116.46,-1042.49 121,-1049 183.58,-1138.74 124.84,-1435.43 157,-1540 200.15,-1680.29 175.35,-1826 322.12,-1826 322.12,-1826 322.12,-1826 451.5,-1826 532.79,-1826 622.82,-1790.57 671.76,-1768.1"/>
<polygon fill="black" stroke="black" points="673.19,-1771.29 680.77,-1763.88 670.23,-1764.95 673.19,-1771.29"/>
</g>
<!-- lsp -->
<g id="node35" class="node">
<title>lsp</title>
<polygon fill="none" stroke="black" points="887.38,-1200 833.38,-1200 833.38,-1164 887.38,-1164 887.38,-1200"/>
<text text-anchor="middle" x="860.38" y="-1177.7" font-family="sans-serif" font-size="14.00">lsp</text>
</g>
<!-- covalence&#45;&gt;lsp -->
<g id="edge7" class="edge">
<title>covalence&#45;&gt;lsp</title>
<path fill="none" stroke="black" d="M103.04,-1034.01C109.99,-1037.76 116.42,-1042.65 121,-1049 166.06,-1111.54 99.74,-1342.4 157,-1394 255.23,-1482.51 -170.65,-1546.87 756,-1220 778.11,-1212.2 802.76,-1203.15 822.44,-1195.85"/>
<polygon fill="black" stroke="black" points="823.53,-1199.17 831.68,-1192.4 821.09,-1192.61 823.53,-1199.17"/>
</g>
<!-- object -->
<g id="node39" class="node">
<title>object</title>
<polygon fill="none" stroke="black" points="738,-1010 680.75,-1010 680.75,-974 738,-974 738,-1010"/>
<text text-anchor="middle" x="709.38" y="-987.7" font-family="sans-serif" font-size="14.00">object</text>
</g>
<!-- covalence&#45;&gt;object -->
<g id="edge8" class="edge">
<title>covalence&#45;&gt;object</title>
<path fill="none" stroke="black" d="M102.76,-1031.79C153.91,-1043.05 243.93,-1060 322.12,-1060 322.12,-1060 322.12,-1060 451.5,-1060 530.12,-1060 552.01,-1060.38 626.75,-1036 641.75,-1031.11 657.23,-1023.51 670.62,-1016"/>
<polygon fill="black" stroke="black" points="672.21,-1019.12 679.11,-1011.08 668.7,-1013.07 672.21,-1019.12"/>
</g>
<!-- opentheory -->
<g id="node40" class="node">
<title>opentheory</title>
<polygon fill="none" stroke="black" points="496,-2400 405,-2400 405,-2364 496,-2364 496,-2400"/>
<text text-anchor="middle" x="450.5" y="-2377.7" font-family="sans-serif" font-size="14.00">opentheory</text>
</g>
<!-- covalence&#45;&gt;opentheory -->
<g id="edge9" class="edge">
<title>covalence&#45;&gt;opentheory</title>
<path fill="none" stroke="black" d="M103.04,-1033.63C110.08,-1037.43 116.55,-1042.42 121,-1049 170.32,-1121.85 134.32,-1754.99 157,-1840 214.37,-2054.99 371.75,-2278.6 428.64,-2354.75"/>
<polygon fill="black" stroke="black" points="425.65,-2356.61 434.46,-2362.49 431.24,-2352.4 425.65,-2356.61"/>
</g>
<!-- proto -->
<g id="node45" class="node">
<title>proto</title>
<polygon fill="none" stroke="black" points="350.12,-727 296.12,-727 296.12,-691 350.12,-691 350.12,-727"/>
<text text-anchor="middle" x="323.12" y="-704.7" font-family="sans-serif" font-size="14.00">proto</text>
</g>
<!-- covalence&#45;&gt;proto -->
<g id="edge10" class="edge">
<title>covalence&#45;&gt;proto</title>
<path fill="none" stroke="black" d="M62.95,-1003.81C67.63,-957.18 86.46,-832.25 157,-764 191.68,-730.44 247.36,-717.35 284.34,-712.25"/>
<polygon fill="black" stroke="black" points="284.64,-715.74 294.13,-711.04 283.78,-708.79 284.64,-715.74"/>
</g>
<!-- repl -->
<g id="node51" class="node">
<title>repl</title>
<polygon fill="none" stroke="black" points="350.12,-895 296.12,-895 296.12,-859 350.12,-859 350.12,-895"/>
<text text-anchor="middle" x="323.12" y="-872.7" font-family="sans-serif" font-size="14.00">repl</text>
</g>
<!-- covalence&#45;&gt;repl -->
<g id="edge11" class="edge">
<title>covalence&#45;&gt;repl</title>
<path fill="none" stroke="black" d="M88.64,-1003.66C107.52,-991.15 133.43,-974.48 157,-961 200.21,-936.29 251.52,-910.76 285.34,-894.43"/>
<polygon fill="black" stroke="black" points="286.82,-897.6 294.32,-890.12 283.79,-891.29 286.82,-897.6"/>
</g>
<!-- serve -->
<g id="node54" class="node">
<title>serve</title>
<polygon fill="none" stroke="black" points="226.12,-1139 172.12,-1139 172.12,-1103 226.12,-1103 226.12,-1139"/>
<text text-anchor="middle" x="199.12" y="-1116.7" font-family="sans-serif" font-size="14.00">serve</text>
</g>
<!-- covalence&#45;&gt;serve -->
<g id="edge12" class="edge">
<title>covalence&#45;&gt;serve</title>
<path fill="none" stroke="black" d="M103.09,-1038.76C109.27,-1041.85 115.43,-1045.28 121,-1049 140.36,-1061.92 159.5,-1079.75 173.87,-1094.44"/>
<polygon fill="black" stroke="black" points="171.26,-1096.77 180.7,-1101.57 176.31,-1091.92 171.26,-1096.77"/>
</g>
<!-- shell -->
<g id="node57" class="node">
<title>shell</title>
<polygon fill="none" stroke="black" points="477.5,-1582 423.5,-1582 423.5,-1546 477.5,-1546 477.5,-1582"/>
<text text-anchor="middle" x="450.5" y="-1559.7" font-family="sans-serif" font-size="14.00">shell</text>
</g>
<!-- covalence&#45;&gt;shell -->
<g id="edge13" class="edge">
<title>covalence&#45;&gt;shell</title>
<path fill="none" stroke="black" d="M102.83,-1033.78C109.89,-1037.56 116.42,-1042.51 121,-1049 175.18,-1125.69 119.07,-1384.11 157,-1470 188.8,-1542 205.14,-1568.47 277.25,-1600 321.71,-1619.44 377.3,-1600.9 413.1,-1584.03"/>
<polygon fill="black" stroke="black" points="414.3,-1587.34 421.74,-1579.78 411.22,-1581.05 414.3,-1587.34"/>
</g>
<!-- store -->
<g id="node61" class="node">
<title>store</title>
<polygon fill="none" stroke="black" points="736.38,-448 682.38,-448 682.38,-412 736.38,-412 736.38,-448"/>
<text text-anchor="middle" x="709.38" y="-425.7" font-family="sans-serif" font-size="14.00">store</text>
</g>
<!-- covalence&#45;&gt;store -->
<g id="edge14" class="edge">
<title>covalence&#45;&gt;store</title>
<path fill="none" stroke="black" d="M63.81,-1003.89C72.82,-935.81 107.57,-696.22 157,-640 183.55,-609.8 208.19,-629.89 241.25,-607 260.91,-593.38 258.12,-581.36 277.25,-567 377.8,-491.52 410.64,-476.87 532,-444 578.62,-431.37 634.5,-428.98 670.69,-429.01"/>
<polygon fill="black" stroke="black" points="670.62,-432.5 680.65,-429.08 670.67,-425.5 670.62,-432.5"/>
</g>
<!-- wasm -->
<g id="node64" class="node">
<title>wasm</title>
<polygon fill="none" stroke="black" points="1029.12,-468 974.88,-468 974.88,-432 1029.12,-432 1029.12,-468"/>
<text text-anchor="middle" x="1002" y="-445.7" font-family="sans-serif" font-size="14.00">wasm</text>
</g>
<!-- covalence&#45;&gt;wasm -->
<g id="edge15" class="edge">
<title>covalence&#45;&gt;wasm</title>
<path fill="none" stroke="black" d="M62.99,-1003.7C69.61,-926.07 98.75,-624.78 157,-553 193.69,-507.79 223.48,-523.35 277.25,-501 333.7,-477.53 346.3,-467.09 405,-450 516.8,-417.45 546.75,-413.13 662.75,-403 704.04,-399.4 719.2,-383.93 756,-403 780.63,-415.76 767.37,-441.24 792,-454 846.28,-482.12 919.62,-471.51 963.43,-460.95"/>
<polygon fill="black" stroke="black" points="964.14,-464.38 972.97,-458.53 962.41,-457.6 964.14,-464.38"/>
</g>
<!-- acset -->
<g id="node2" class="node">
<title>acset</title>
<polygon fill="none" stroke="black" points="887.38,-1054 833.38,-1054 833.38,-1018 887.38,-1018 887.38,-1054"/>
<text text-anchor="middle" x="860.38" y="-1031.7" font-family="sans-serif" font-size="14.00">acset</text>
</g>
<!-- alethe -->
<g id="node3" class="node">
<title>alethe</title>
<polygon fill="none" stroke="black" points="607.62,-1612 551.12,-1612 551.12,-1576 607.62,-1576 607.62,-1612"/>
<text text-anchor="middle" x="579.38" y="-1589.7" font-family="sans-serif" font-size="14.00">alethe</text>
</g>
<!-- core -->
<g id="node7" class="node">
<title>core</title>
<polygon fill="#ffd6d6" stroke="black" points="1029,-2308 975,-2308 975,-2272 1029,-2272 1029,-2308"/>
<text text-anchor="middle" x="1002" y="-2285.7" font-family="sans-serif" font-size="14.00">core</text>
</g>
<!-- alethe&#45;&gt;core -->
<g id="edge16" class="edge">
<title>alethe&#45;&gt;core</title>
<path fill="none" stroke="black" d="M583.66,-1612.38C591.13,-1648.89 612.76,-1730.99 662.75,-1777 695.1,-1806.77 727.96,-1776.14 756,-1810 823.11,-1891.04 736.71,-1954.47 792,-2044 831.15,-2107.4 880.59,-2084.14 928.75,-2141 959.53,-2177.34 980.73,-2229.04 991.86,-2261.01"/>
<polygon fill="black" stroke="black" points="988.51,-2262.03 995.02,-2270.39 995.14,-2259.8 988.51,-2262.03"/>
</g>
<!-- hol&#45;eval -->
<g id="node21" class="node">
<title>hol&#45;eval</title>
<polygon fill="none" stroke="black" points="895.38,-2186 825.38,-2186 825.38,-2150 895.38,-2150 895.38,-2186"/>
<text text-anchor="middle" x="860.38" y="-2163.7" font-family="sans-serif" font-size="14.00">hol&#45;eval</text>
</g>
<!-- alethe&#45;&gt;hol&#45;eval -->
<g id="edge17" class="edge">
<title>alethe&#45;&gt;hol&#45;eval</title>
<path fill="none" stroke="black" d="M585.3,-1612.49C595.98,-1650.94 623.51,-1741.59 662.75,-1810 695.66,-1867.38 727.72,-1866.2 756,-1926 789.39,-1996.6 755.5,-2028.95 792,-2098 800.79,-2114.64 814.72,-2130.07 827.63,-2142.18"/>
<polygon fill="black" stroke="black" points="825.01,-2144.53 834.78,-2148.63 829.7,-2139.34 825.01,-2144.53"/>
</g>
<!-- alethe&#45;&gt;init -->
<g id="edge18" class="edge">
<title>alethe&#45;&gt;init</title>
<path fill="none" stroke="black" d="M607.75,-1610.31C614.37,-1614.92 621.14,-1620.27 626.75,-1626 655.07,-1654.95 679.38,-1695.08 693.93,-1721.76"/>
<polygon fill="black" stroke="black" points="690.68,-1723.11 698.48,-1730.28 696.86,-1719.81 690.68,-1723.11"/>
</g>
<!-- sexp -->
<g id="node55" class="node">
<title>sexp</title>
<polygon fill="none" stroke="black" points="1029,-1433 975,-1433 975,-1397 1029,-1397 1029,-1433"/>
<text text-anchor="middle" x="1002" y="-1410.7" font-family="sans-serif" font-size="14.00">sexp</text>
</g>
<!-- alethe&#45;&gt;sexp -->
<g id="edge19" class="edge">
<title>alethe&#45;&gt;sexp</title>
<path fill="none" stroke="black" d="M600.7,-1575.72C616.79,-1561.83 640.23,-1542.81 662.75,-1529 701.66,-1505.14 718.92,-1512.6 756,-1486 774.9,-1472.44 771.41,-1458.84 792,-1448 846.64,-1419.24 919.63,-1414.02 963.32,-1413.83"/>
<polygon fill="black" stroke="black" points="963.03,-1417.33 973.05,-1413.88 963.06,-1410.33 963.03,-1417.33"/>
</g>
<!-- smt -->
<g id="node58" class="node">
<title>smt</title>
<polygon fill="none" stroke="black" points="736.38,-1574 682.38,-1574 682.38,-1538 736.38,-1538 736.38,-1574"/>
<text text-anchor="middle" x="709.38" y="-1551.7" font-family="sans-serif" font-size="14.00">smt</text>
</g>
<!-- alethe&#45;&gt;smt -->
<g id="edge20" class="edge">
<title>alethe&#45;&gt;smt</title>
<path fill="none" stroke="black" d="M607.83,-1585.85C626.34,-1580.35 650.98,-1573.04 671.24,-1567.03"/>
<polygon fill="black" stroke="black" points="672.23,-1570.38 680.82,-1564.18 670.24,-1563.67 672.23,-1570.38"/>
</g>
<!-- types -->
<g id="node63" class="node">
<title>types</title>
<polygon fill="#ffd6d6" stroke="black" points="1510.25,-1896 1456.25,-1896 1456.25,-1860 1510.25,-1860 1510.25,-1896"/>
<text text-anchor="middle" x="1483.25" y="-1873.7" font-family="sans-serif" font-size="14.00">types</text>
</g>
<!-- alethe&#45;&gt;types -->
<g id="edge21" class="edge">
<title>alethe&#45;&gt;types</title>
<path fill="none" stroke="black" d="M607.95,-1607.41C614.16,-1610.51 620.7,-1613.82 626.75,-1617 642.95,-1625.51 645.24,-1631.68 662.75,-1637 776.26,-1671.47 810.63,-1648.06 928.75,-1659 1011.22,-1666.64 1031.3,-1678 1114.12,-1678 1114.12,-1678 1114.12,-1678 1239,-1678 1346.06,-1678 1431.66,-1795.01 1465.99,-1850.03"/>
<polygon fill="black" stroke="black" points="1462.81,-1851.54 1471.01,-1858.25 1468.78,-1847.89 1462.81,-1851.54"/>
</g>
<!-- arrow -->
<g id="node4" class="node">
<title>arrow</title>
<polygon fill="none" stroke="black" points="606.38,-842 552.38,-842 552.38,-806 606.38,-806 606.38,-842"/>
<text text-anchor="middle" x="579.38" y="-819.7" font-family="sans-serif" font-size="14.00">arrow</text>
</g>
<!-- client&#45;&gt;hash -->
<g id="edge22" class="edge">
<title>client&#45;&gt;hash</title>
<path fill="none" stroke="black" d="M350.3,-936.53C437.62,-931.64 719.15,-915.86 821.62,-910.12"/>
<polygon fill="black" stroke="black" points="821.63,-913.62 831.42,-909.57 821.24,-906.63 821.63,-913.62"/>
</g>
<!-- client&#45;&gt;shell -->
<g id="edge23" class="edge">
<title>client&#45;&gt;shell</title>
<path fill="none" stroke="black" d="M324.51,-956.36C326.71,-1046.05 339.96,-1437.69 405,-1537 407.44,-1540.72 410.58,-1544.01 414.07,-1546.89"/>
<polygon fill="black" stroke="black" points="411.79,-1549.57 422.01,-1552.39 415.78,-1543.82 411.79,-1549.57"/>
</g>
<!-- client&#45;&gt;store -->
<g id="edge24" class="edge">
<title>client&#45;&gt;store</title>
<path fill="none" stroke="black" d="M350.62,-922.57C357.48,-917.44 364.27,-911.18 369,-904 405.55,-848.56 374.02,-817.73 405,-759 474.15,-627.93 535.64,-626.88 626.75,-510 644.26,-487.54 642,-476.5 662.75,-457 665.66,-454.27 668.88,-451.69 672.24,-449.29"/>
<polygon fill="black" stroke="black" points="674.15,-452.23 680.62,-443.84 670.33,-446.36 674.15,-452.23"/>
</g>
<!-- computation -->
<g id="node6" class="node">
<title>computation</title>
<polygon fill="none" stroke="black" points="909.25,-1812 811.5,-1812 811.5,-1776 909.25,-1776 909.25,-1812"/>
<text text-anchor="middle" x="860.38" y="-1789.7" font-family="sans-serif" font-size="14.00">computation</text>
</g>
<!-- logic&#45;api -->
<g id="node34" class="node">
<title>logic&#45;api</title>
<polygon fill="none" stroke="black" points="1039.25,-1831 964.75,-1831 964.75,-1795 1039.25,-1795 1039.25,-1831"/>
<text text-anchor="middle" x="1002" y="-1808.7" font-family="sans-serif" font-size="14.00">logic&#45;api</text>
</g>
<!-- computation&#45;&gt;logic&#45;api -->
<g id="edge25" class="edge">
<title>computation&#45;&gt;logic&#45;api</title>
<path fill="none" stroke="black" d="M909.43,-1800.54C923.62,-1802.47 939.14,-1804.58 953.31,-1806.51"/>
<polygon fill="black" stroke="black" points="952.45,-1809.93 962.83,-1807.81 953.4,-1802.99 952.45,-1809.93"/>
</g>
<!-- pure -->
<g id="node46" class="node">
<title>pure</title>
<polygon fill="#ffd6d6" stroke="black" points="1265,-2249 1211,-2249 1211,-2213 1265,-2213 1265,-2249"/>
<text text-anchor="middle" x="1238" y="-2226.7" font-family="sans-serif" font-size="14.00">pure</text>
</g>
<!-- core&#45;&gt;pure -->
<g id="edge26" class="edge">
<title>core&#45;&gt;pure</title>
<path fill="none" stroke="black" d="M1029.39,-2283.35C1071.02,-2272.85 1152.08,-2252.41 1199.66,-2240.41"/>
<polygon fill="black" stroke="black" points="1200.4,-2243.84 1209.24,-2238 1198.69,-2237.05 1200.4,-2243.84"/>
</g>
<!-- pure&#45;eval -->
<g id="node47" class="node">
<title>pure&#45;eval</title>
<polygon fill="#ffd6d6" stroke="black" points="1155,-2203 1075.25,-2203 1075.25,-2167 1155,-2167 1155,-2203"/>
<text text-anchor="middle" x="1115.12" y="-2180.7" font-family="sans-serif" font-size="14.00">pure&#45;eval</text>
</g>
<!-- core&#45;&gt;pure&#45;eval -->
<g id="edge27" class="edge">
<title>core&#45;&gt;pure&#45;eval</title>
<path fill="none" stroke="black" d="M1022.36,-2271.71C1040.09,-2254.95 1066.55,-2229.95 1086.51,-2211.1"/>
<polygon fill="black" stroke="black" points="1088.65,-2213.88 1093.52,-2204.47 1083.84,-2208.8 1088.65,-2213.88"/>
</g>
<!-- core&#45;&gt;types -->
<g id="edge28" class="edge">
<title>core&#45;&gt;types</title>
<path fill="none" stroke="black" d="M1029.26,-2297.53C1102.13,-2316.67 1308.83,-2358.71 1420.25,-2256 1471.18,-2209.05 1480.28,-1988.23 1481.9,-1907.58"/>
<polygon fill="black" stroke="black" points="1485.39,-1907.89 1482.07,-1897.83 1478.39,-1907.76 1485.39,-1907.89"/>
</g>
<!-- core&#45;test&#45;guest -->
<g id="node8" class="node">
<title>core&#45;test&#45;guest</title>
<polygon fill="none" stroke="black" points="121,-1094 0,-1094 0,-1058 121,-1058 121,-1094"/>
<text text-anchor="middle" x="60.5" y="-1071.7" font-family="sans-serif" font-size="14.00">core&#45;test&#45;guest</text>
</g>
<!-- crypto&#45;sig -->
<g id="node9" class="node">
<title>crypto&#45;sig</title>
<polygon fill="none" stroke="black" points="241.25,-240 157,-240 157,-204 241.25,-204 241.25,-240"/>
<text text-anchor="middle" x="199.12" y="-217.7" font-family="sans-serif" font-size="14.00">crypto&#45;sig</text>
</g>
<!-- decimal&#45;api -->
<g id="node10" class="node">
<title>decimal&#45;api</title>
<polygon fill="none" stroke="black" points="1285,-74 1191,-74 1191,-38 1285,-38 1285,-74"/>
<text text-anchor="middle" x="1238" y="-51.7" font-family="sans-serif" font-size="14.00">decimal&#45;api</text>
</g>
<!-- decimal&#45;api&#45;&gt;types -->
<g id="edge29" class="edge">
<title>decimal&#45;api&#45;&gt;types</title>
<path fill="none" stroke="black" d="M1285.4,-49.61C1327.4,-46.72 1387.56,-50.37 1420.25,-88 1480.42,-157.25 1482.34,-1620.46 1482.28,-1848.29"/>
<polygon fill="black" stroke="black" points="1478.78,-1848.08 1482.27,-1858.08 1485.78,-1848.09 1478.78,-1848.08"/>
</g>
<!-- egglog -->
<g id="node11" class="node">
<title>egglog</title>
<polygon fill="none" stroke="black" points="890.88,-1574 829.88,-1574 829.88,-1538 890.88,-1538 890.88,-1574"/>
<text text-anchor="middle" x="860.38" y="-1551.7" font-family="sans-serif" font-size="14.00">egglog</text>
</g>
<!-- egglog&#45;&gt;sexp -->
<g id="edge30" class="edge">
<title>egglog&#45;&gt;sexp</title>
<path fill="none" stroke="black" d="M891.28,-1545.9C903.78,-1540.68 917.89,-1533.42 928.75,-1524 954.63,-1501.56 975.1,-1467.7 987.55,-1443.69"/>
<polygon fill="black" stroke="black" points="990.67,-1445.28 992.02,-1434.77 984.41,-1442.14 990.67,-1445.28"/>
</g>
<!-- egglog&#45;&gt;types -->
<g id="edge31" class="edge">
<title>egglog&#45;&gt;types</title>
<path fill="none" stroke="black" d="M891.33,-1556.78C938.65,-1557.94 1033.59,-1560 1114.12,-1560 1114.12,-1560 1114.12,-1560 1239,-1560 1320.51,-1560 1360.98,-1532.04 1420.25,-1588 1457.87,-1623.52 1474.63,-1782.02 1480.1,-1848.5"/>
<polygon fill="black" stroke="black" points="1476.6,-1848.59 1480.88,-1858.29 1483.58,-1848.04 1476.6,-1848.59"/>
</g>
<!-- forsp -->
<g id="node12" class="node">
<title>forsp</title>
<polygon fill="none" stroke="black" points="477.5,-1276 423.5,-1276 423.5,-1240 477.5,-1240 477.5,-1276"/>
<text text-anchor="middle" x="450.5" y="-1253.7" font-family="sans-serif" font-size="14.00">forsp</text>
</g>
<!-- forsp&#45;&gt;hash -->
<g id="edge32" class="edge">
<title>forsp&#45;&gt;hash</title>
<path fill="none" stroke="black" d="M477.94,-1246.63C514.78,-1229.79 582.04,-1195.25 626.75,-1150 648.61,-1127.88 639.14,-1110.24 662.75,-1090 696.73,-1060.87 720.85,-1079.71 756,-1052 766.92,-1043.39 813.92,-975.2 840.63,-935.82"/>
<polygon fill="black" stroke="black" points="843.4,-937.98 846.1,-927.74 837.6,-934.06 843.4,-937.98"/>
</g>
<!-- repl&#45;core -->
<g id="node52" class="node">
<title>repl&#45;core</title>
<polygon fill="none" stroke="black" points="618.5,-1428 540.25,-1428 540.25,-1392 618.5,-1392 618.5,-1428"/>
<text text-anchor="middle" x="579.38" y="-1405.7" font-family="sans-serif" font-size="14.00">repl&#45;core</text>
</g>
<!-- forsp&#45;&gt;repl&#45;core -->
<g id="edge33" class="edge">
<title>forsp&#45;&gt;repl&#45;core</title>
<path fill="none" stroke="black" d="M477.66,-1274.52C484.02,-1279.13 490.54,-1284.42 496,-1290 523.49,-1318.1 547.99,-1356.36 562.98,-1382.06"/>
<polygon fill="black" stroke="black" points="559.86,-1383.65 567.87,-1390.59 565.94,-1380.17 559.86,-1383.65"/>
</g>
<!-- forsp&#45;&gt;sexp -->
<g id="edge34" class="edge">
<title>forsp&#45;&gt;sexp</title>
<path fill="none" stroke="black" d="M477.79,-1257.74C566.25,-1257.32 851.92,-1259.65 928.75,-1306 958.89,-1324.18 979.03,-1360.33 990.22,-1386"/>
<polygon fill="black" stroke="black" points="986.97,-1387.32 994.02,-1395.22 993.44,-1384.65 986.97,-1387.32"/>
</g>
<!-- fuse&#45;&gt;hash -->
<g id="edge35" class="edge">
<title>fuse&#45;&gt;hash</title>
<path fill="none" stroke="black" d="M606.57,-711.67C613.21,-716.26 620.29,-721.25 626.75,-726 700.23,-780.02 783.89,-846.82 828.12,-882.57"/>
<polygon fill="black" stroke="black" points="825.79,-885.19 835.76,-888.76 830.19,-879.75 825.79,-885.19"/>
</g>
<!-- fuse&#45;&gt;object -->
<g id="edge36" class="edge">
<title>fuse&#45;&gt;object</title>
<path fill="none" stroke="black" d="M606.54,-707.63C613.95,-712.57 621.43,-718.74 626.75,-726 680.8,-799.77 699.55,-909.91 705.65,-962.28"/>
<polygon fill="black" stroke="black" points="702.17,-962.64 706.72,-972.21 709.12,-961.89 702.17,-962.64"/>
</g>
<!-- fuse&#45;&gt;store -->
<g id="edge37" class="edge">
<title>fuse&#45;&gt;store</title>
<path fill="none" stroke="black" d="M606.62,-681.07C614.21,-676.11 621.79,-669.74 626.75,-662 676.69,-584.14 610.13,-533.08 662.75,-457 665.46,-453.08 668.94,-449.65 672.76,-446.66"/>
<polygon fill="black" stroke="black" points="674.45,-449.74 680.86,-441.31 670.59,-443.9 674.45,-449.74"/>
</g>
<!-- git&#45;&gt;hash -->
<g id="edge38" class="edge">
<title>git&#45;&gt;hash</title>
<path fill="none" stroke="black" d="M477.94,-558.29C543.22,-598.8 710.09,-704.2 756,-751 794.67,-790.42 827.38,-846.31 845.11,-879.68"/>
<polygon fill="black" stroke="black" points="841.9,-881.09 849.63,-888.33 848.11,-877.85 841.9,-881.09"/>
</g>
<!-- git&#45;&gt;object -->
<g id="edge39" class="edge">
<title>git&#45;&gt;object</title>
<path fill="none" stroke="black" d="M456.57,-560.27C466.7,-594.44 491.96,-669.26 532,-721 565.04,-763.69 594.27,-753.88 626.75,-797 665.84,-848.89 689.9,-922.26 701.02,-962.59"/>
<polygon fill="black" stroke="black" points="697.59,-963.3 703.55,-972.05 704.35,-961.49 697.59,-963.3"/>
</g>
<!-- sqlite -->
<g id="node60" class="node">
<title>sqlite</title>
<polygon fill="none" stroke="black" points="887.38,-353 833.38,-353 833.38,-317 887.38,-317 887.38,-353"/>
<text text-anchor="middle" x="860.38" y="-330.7" font-family="sans-serif" font-size="14.00">sqlite</text>
</g>
<!-- git&#45;&gt;sqlite -->
<g id="edge40" class="edge">
<title>git&#45;&gt;sqlite</title>
<path fill="none" stroke="black" d="M461.97,-523.82C475.48,-501.89 500.97,-465.33 532,-444 624.71,-380.26 757.59,-351.38 821.8,-340.51"/>
<polygon fill="black" stroke="black" points="822.17,-344 831.47,-338.94 821.04,-337.09 822.17,-344"/>
</g>
<!-- git&#45;&gt;store -->
<g id="edge41" class="edge">
<title>git&#45;&gt;store</title>
<path fill="none" stroke="black" d="M471.68,-523.76C487.2,-510.56 509.71,-493.15 532,-482 577.22,-459.39 633.99,-444.86 670.71,-437.06"/>
<polygon fill="black" stroke="black" points="671.32,-440.51 680.41,-435.06 669.91,-433.65 671.32,-440.51"/>
</g>
<!-- grammar -->
<g id="node15" class="node">
<title>grammar</title>
<polygon fill="none" stroke="black" points="1038.88,-1942 965.12,-1942 965.12,-1906 1038.88,-1906 1038.88,-1942"/>
<text text-anchor="middle" x="1002" y="-1919.7" font-family="sans-serif" font-size="14.00">grammar</text>
</g>
<!-- grammar&#45;&gt;types -->
<g id="edge42" class="edge">
<title>grammar&#45;&gt;types</title>
<path fill="none" stroke="black" d="M1039.2,-1923C1111.82,-1920.59 1280.33,-1913.05 1420.25,-1892 1428.26,-1890.8 1436.77,-1889.13 1444.84,-1887.37"/>
<polygon fill="black" stroke="black" points="1445.42,-1890.83 1454.38,-1885.19 1443.86,-1884 1445.42,-1890.83"/>
</g>
<!-- graph -->
<g id="node16" class="node">
<title>graph</title>
<polygon fill="none" stroke="black" points="736.38,-594 682.38,-594 682.38,-558 736.38,-558 736.38,-594"/>
<text text-anchor="middle" x="709.38" y="-571.7" font-family="sans-serif" font-size="14.00">graph</text>
</g>
<!-- graph&#45;&gt;hash -->
<g id="edge43" class="edge">
<title>graph&#45;&gt;hash</title>
<path fill="none" stroke="black" d="M736.67,-589.97C743.8,-594.85 750.94,-600.91 756,-608 789.58,-655.06 773.6,-678.19 792,-733 809.53,-785.22 833.32,-844.85 847.44,-879.29"/>
<polygon fill="black" stroke="black" points="844.04,-880.23 851.08,-888.15 850.51,-877.57 844.04,-880.23"/>
</g>
<!-- parse -->
<g id="node42" class="node">
<title>parse</title>
<polygon fill="none" stroke="black" points="1142.12,-1146 1088.12,-1146 1088.12,-1110 1142.12,-1110 1142.12,-1146"/>
<text text-anchor="middle" x="1115.12" y="-1123.7" font-family="sans-serif" font-size="14.00">parse</text>
</g>
<!-- graph&#45;&gt;parse -->
<g id="edge44" class="edge">
<title>graph&#45;&gt;parse</title>
<path fill="none" stroke="black" d="M736.68,-592.77C799.07,-633.94 956.95,-746.49 1039.25,-881 1082.69,-952 1102.51,-1050.01 1110.12,-1098.45"/>
<polygon fill="black" stroke="black" points="1106.63,-1098.79 1111.57,-1108.16 1113.55,-1097.75 1106.63,-1098.79"/>
</g>
<!-- rand -->
<g id="node50" class="node">
<title>rand</title>
<polygon fill="none" stroke="black" points="1029,-926 975,-926 975,-890 1029,-890 1029,-926"/>
<text text-anchor="middle" x="1002" y="-903.7" font-family="sans-serif" font-size="14.00">rand</text>
</g>
<!-- hash&#45;&gt;rand -->
<g id="edge45" class="edge">
<title>hash&#45;&gt;rand</title>
<path fill="none" stroke="black" d="M887.64,-908C908.99,-908 939.4,-908 963.35,-908"/>
<polygon fill="black" stroke="black" points="963.34,-911.5 973.34,-908 963.34,-904.5 963.34,-911.5"/>
</g>
<!-- haskell -->
<g id="node18" class="node">
<title>haskell</title>
<polygon fill="none" stroke="black" points="481.75,-2118 419.25,-2118 419.25,-2082 481.75,-2082 481.75,-2118"/>
<text text-anchor="middle" x="450.5" y="-2095.7" font-family="sans-serif" font-size="14.00">haskell</text>
</g>
<!-- hol&#45;api -->
<g id="node20" class="node">
<title>hol&#45;api</title>
<polygon fill="none" stroke="black" points="610.62,-2278 548.12,-2278 548.12,-2242 610.62,-2242 610.62,-2278"/>
<text text-anchor="middle" x="579.38" y="-2255.7" font-family="sans-serif" font-size="14.00">hol&#45;api</text>
</g>
<!-- haskell&#45;&gt;hol&#45;api -->
<g id="edge46" class="edge">
<title>haskell&#45;&gt;hol&#45;api</title>
<path fill="none" stroke="black" d="M459.93,-2118.12C472.79,-2144.46 499.31,-2193.88 532,-2228 534.22,-2230.32 536.63,-2232.57 539.15,-2234.73"/>
<polygon fill="black" stroke="black" points="536.8,-2237.33 546.82,-2240.76 541.13,-2231.83 536.8,-2237.33"/>
</g>
<!-- haskell&#45;&gt;hol&#45;eval -->
<g id="edge47" class="edge">
<title>haskell&#45;&gt;hol&#45;eval</title>
<path fill="none" stroke="black" d="M482.16,-2105.11C553.29,-2116.97 729.86,-2146.41 813.74,-2160.39"/>
<polygon fill="black" stroke="black" points="813,-2163.82 823.44,-2162.01 814.15,-2156.91 813,-2163.82"/>
</g>
<!-- haskell&#45;&gt;init -->
<g id="edge48" class="edge">
<title>haskell&#45;&gt;init</title>
<path fill="none" stroke="black" d="M453.55,-2081.53C458.99,-2040.68 477.36,-1941.66 532,-1883 563.52,-1849.16 589.39,-1867.25 626.75,-1840 650.92,-1822.38 673.35,-1796.66 688.56,-1777.23"/>
<polygon fill="black" stroke="black" points="691.21,-1779.53 694.51,-1769.46 685.65,-1775.28 691.21,-1779.53"/>
</g>
<!-- haskell&#45;&gt;types -->
<g id="edge49" class="edge">
<title>haskell&#45;&gt;types</title>
<path fill="none" stroke="black" d="M457.8,-2118.47C469.89,-2152.83 498.13,-2228.4 532,-2287 658.65,-2506.13 747.9,-2610 1001,-2610 1001,-2610 1001,-2610 1239,-2610 1322.18,-2610 1389.23,-2504.34 1420.25,-2435 1463.11,-2339.19 1477.76,-2009.25 1481.31,-1907.87"/>
<polygon fill="black" stroke="black" points="1484.81,-1908.04 1481.65,-1897.92 1477.81,-1907.8 1484.81,-1908.04"/>
</g>
<!-- hol&#45;&gt;core -->
<g id="edge50" class="edge">
<title>hol&#45;&gt;core</title>
<path fill="none" stroke="black" d="M887.64,-2327.35C909.19,-2320.25 939.95,-2310.11 964,-2302.19"/>
<polygon fill="black" stroke="black" points="965.02,-2305.54 973.42,-2299.09 962.82,-2298.89 965.02,-2305.54"/>
</g>
<!-- hol&#45;api&#45;&gt;core -->
<g id="edge51" class="edge">
<title>hol&#45;api&#45;&gt;core</title>
<path fill="none" stroke="black" d="M610.01,-2278.19C615.85,-2282.38 621.72,-2287.07 626.75,-2292 646.31,-2311.17 639.46,-2327.6 662.75,-2342 712.25,-2372.61 733.99,-2358.32 792,-2363 852.58,-2367.89 872.66,-2386.4 928.75,-2363 950.97,-2353.73 969.84,-2333.94 982.72,-2317.3"/>
<polygon fill="black" stroke="black" points="985.22,-2319.8 988.35,-2309.68 979.59,-2315.65 985.22,-2319.8"/>
</g>
<!-- hol&#45;api&#45;&gt;hol&#45;eval -->
<g id="edge52" class="edge">
<title>hol&#45;api&#45;&gt;hol&#45;eval</title>
<path fill="none" stroke="black" d="M611.03,-2249.89C660.27,-2233.66 757.21,-2201.69 814.33,-2182.85"/>
<polygon fill="black" stroke="black" points="815.36,-2186.2 823.76,-2179.75 813.16,-2179.55 815.36,-2186.2"/>
</g>
<!-- inductive -->
<g id="node22" class="node">
<title>inductive</title>
<polygon fill="none" stroke="black" points="898.75,-1758 822,-1758 822,-1722 898.75,-1722 898.75,-1758"/>
<text text-anchor="middle" x="860.38" y="-1735.7" font-family="sans-serif" font-size="14.00">inductive</text>
</g>
<!-- hol&#45;api&#45;&gt;inductive -->
<g id="edge53" class="edge">
<title>hol&#45;api&#45;&gt;inductive</title>
<path fill="none" stroke="black" d="M583.13,-2241.5C594.7,-2170.16 645.69,-1909.8 792,-1767 797.51,-1761.62 804.24,-1757.27 811.28,-1753.76"/>
<polygon fill="black" stroke="black" points="812.56,-1757.02 820.33,-1749.81 809.76,-1750.6 812.56,-1757.02"/>
</g>
<!-- hol&#45;api&#45;&gt;init -->
<g id="edge54" class="edge">
<title>hol&#45;api&#45;&gt;init</title>
<path fill="none" stroke="black" d="M585.01,-2241.55C604.18,-2165.17 677.41,-1873.38 701,-1779.37"/>
<polygon fill="black" stroke="black" points="704.34,-1780.45 703.38,-1769.9 697.55,-1778.74 704.34,-1780.45"/>
</g>
<!-- hol&#45;api&#45;&gt;logic&#45;api -->
<g id="edge55" class="edge">
<title>hol&#45;api&#45;&gt;logic&#45;api</title>
<path fill="none" stroke="black" d="M610.92,-2265.04C679.4,-2274.4 845.67,-2285.98 928.75,-2195 973.73,-2145.74 947.36,-1961.4 964.75,-1897 969.9,-1877.94 978.59,-1857.58 986.18,-1841.68"/>
<polygon fill="black" stroke="black" points="989.27,-1843.34 990.53,-1832.82 982.98,-1840.25 989.27,-1843.34"/>
</g>
<!-- hol&#45;api&#45;&gt;pure -->
<g id="edge56" class="edge">
<title>hol&#45;api&#45;&gt;pure</title>
<path fill="none" stroke="black" d="M610.7,-2277.55C616.48,-2281.79 622.16,-2286.66 626.75,-2292 650.58,-2319.74 633.08,-2344.62 662.75,-2366 758.86,-2435.25 813.21,-2409.16 928.75,-2383 1034.7,-2359.01 1145.86,-2292.26 1201.23,-2255.71"/>
<polygon fill="black" stroke="black" points="1202.95,-2258.77 1209.33,-2250.3 1199.07,-2252.94 1202.95,-2258.77"/>
</g>
<!-- hol&#45;api&#45;&gt;types -->
<g id="edge57" class="edge">
<title>hol&#45;api&#45;&gt;types</title>
<path fill="none" stroke="black" d="M610.79,-2276.74C616.7,-2281.09 622.41,-2286.21 626.75,-2292 657.34,-2332.83 629.46,-2362.34 662.75,-2401 772.66,-2528.65 832.55,-2572 1001,-2572 1001,-2572 1001,-2572 1239,-2572 1385.75,-2572 1367.98,-2433.13 1420.25,-2296 1473,-2157.61 1481.11,-1977.54 1482.18,-1907.59"/>
<polygon fill="black" stroke="black" points="1485.68,-1907.77 1482.29,-1897.73 1478.68,-1907.69 1485.68,-1907.77"/>
</g>
<!-- hol&#45;eval&#45;&gt;core -->
<g id="edge58" class="edge">
<title>hol&#45;eval&#45;&gt;core</title>
<path fill="none" stroke="black" d="M895.66,-2180.68C906.84,-2185.72 918.9,-2192.2 928.75,-2200 948.83,-2215.9 948.72,-2225.03 964.75,-2245 969.37,-2250.75 974.32,-2256.91 979.04,-2262.76"/>
<polygon fill="black" stroke="black" points="976.22,-2264.85 985.22,-2270.44 981.67,-2260.46 976.22,-2264.85"/>
</g>
<!-- hol&#45;eval&#45;&gt;pure -->
<g id="edge59" class="edge">
<title>hol&#45;eval&#45;&gt;pure</title>
<path fill="none" stroke="black" d="M895.78,-2175.94C915.86,-2180.5 941.7,-2186.25 964.75,-2191 1013.71,-2201.1 1025.84,-2204.41 1075.25,-2212 1117.56,-2218.5 1166.4,-2223.96 1199.25,-2227.33"/>
<polygon fill="black" stroke="black" points="1198.78,-2230.8 1209.08,-2228.33 1199.48,-2223.84 1198.78,-2230.8"/>
</g>
<!-- hol&#45;eval&#45;&gt;pure&#45;eval -->
<g id="edge60" class="edge">
<title>hol&#45;eval&#45;&gt;pure&#45;eval</title>
<path fill="none" stroke="black" d="M895.73,-2170.31C938.96,-2173.22 1013.58,-2178.24 1063.39,-2181.59"/>
<polygon fill="black" stroke="black" points="1063.14,-2185.08 1073.36,-2182.26 1063.61,-2178.09 1063.14,-2185.08"/>
</g>
<!-- hol&#45;eval&#45;&gt;sexp -->
<g id="edge61" class="edge">
<title>hol&#45;eval&#45;&gt;sexp</title>
<path fill="none" stroke="black" d="M869.94,-2149.65C884.45,-2117.73 913.75,-2049.6 928.75,-1989 954.83,-1883.6 988.39,-1546.8 998.2,-1444.65"/>
<polygon fill="black" stroke="black" points="1001.66,-1445.18 999.13,-1434.89 994.69,-1444.52 1001.66,-1445.18"/>
</g>
<!-- hol&#45;eval&#45;&gt;types -->
<g id="edge62" class="edge">
<title>hol&#45;eval&#45;&gt;types</title>
<path fill="none" stroke="black" d="M895.57,-2161.56C944.02,-2153.02 1035.51,-2139 1114.12,-2139 1114.12,-2139 1114.12,-2139 1239,-2139 1320.26,-2139 1359.34,-2168.78 1420.25,-2115 1451.28,-2087.6 1470.97,-1964.85 1478.62,-1907.59"/>
<polygon fill="black" stroke="black" points="1482.06,-1908.29 1479.88,-1897.92 1475.12,-1907.39 1482.06,-1908.29"/>
</g>
<!-- inductive&#45;&gt;logic&#45;api -->
<g id="edge63" class="edge">
<title>inductive&#45;&gt;logic&#45;api</title>
<path fill="none" stroke="black" d="M898.99,-1753.64C908.84,-1757.6 919.33,-1762.17 928.75,-1767 940.93,-1773.25 953.69,-1780.95 965.04,-1788.25"/>
<polygon fill="black" stroke="black" points="963.05,-1791.13 973.33,-1793.69 966.89,-1785.28 963.05,-1791.13"/>
</g>
<!-- init&#45;&gt;computation -->
<g id="edge64" class="edge">
<title>init&#45;&gt;computation</title>
<path fill="none" stroke="black" d="M736.67,-1757.77C754.25,-1762.96 778.11,-1770 800.12,-1776.5"/>
<polygon fill="black" stroke="black" points="799.04,-1779.83 809.62,-1779.31 801.02,-1773.12 799.04,-1779.83"/>
</g>
<!-- init&#45;&gt;core -->
<g id="edge65" class="edge">
<title>init&#45;&gt;core</title>
<path fill="none" stroke="black" d="M736.68,-1763.32C743.99,-1768.24 751.23,-1774.49 756,-1782 806.05,-1860.83 738.96,-1912.15 792,-1989 832.13,-2047.14 884.52,-2014.93 928.75,-2070 974.75,-2127.28 991.9,-2214.89 997.94,-2260.34"/>
<polygon fill="black" stroke="black" points="994.46,-2260.72 999.15,-2270.22 1001.41,-2259.87 994.46,-2260.72"/>
</g>
<!-- init&#45;&gt;grammar -->
<g id="edge66" class="edge">
<title>init&#45;&gt;grammar</title>
<path fill="none" stroke="black" d="M736.51,-1764.09C743.64,-1768.97 750.82,-1775 756,-1782 786.63,-1823.33 752.76,-1858.73 792,-1892 836.78,-1929.97 907.19,-1932.98 953.72,-1929.9"/>
<polygon fill="black" stroke="black" points="953.81,-1933.41 963.5,-1929.12 953.25,-1926.43 953.81,-1933.41"/>
</g>
<!-- init&#45;&gt;hash -->
<g id="edge67" class="edge">
<title>init&#45;&gt;hash</title>
<path fill="none" stroke="black" d="M719.89,-1731.81C730.8,-1709.96 748.18,-1671.89 756,-1637 817.15,-1364.2 703.32,-1274.13 792,-1009 801.19,-981.51 819.95,-954.42 835.34,-935.22"/>
<polygon fill="black" stroke="black" points="837.94,-937.57 841.61,-927.63 832.54,-933.11 837.94,-937.57"/>
</g>
<!-- init&#45;&gt;hol -->
<g id="edge68" class="edge">
<title>init&#45;&gt;hol</title>
<path fill="none" stroke="black" d="M711.98,-1768.23C717.74,-1829.67 739.91,-2034.36 792,-2195 805.21,-2235.73 827.74,-2279.84 843.08,-2307.67"/>
<polygon fill="black" stroke="black" points="839.9,-2309.16 847.83,-2316.18 846.01,-2305.74 839.9,-2309.16"/>
</g>
<!-- init&#45;&gt;hol&#45;eval -->
<g id="edge69" class="edge">
<title>init&#45;&gt;hol&#45;eval</title>
<path fill="none" stroke="black" d="M725.38,-1768.46C735.58,-1781.95 748.52,-1801.12 756,-1820 789.57,-1904.79 764.67,-1935 792,-2022 805.41,-2064.7 828.45,-2111.17 843.79,-2139.95"/>
<polygon fill="black" stroke="black" points="840.52,-2141.25 848.35,-2148.38 846.67,-2137.92 840.52,-2141.25"/>
</g>
<!-- init&#45;&gt;inductive -->
<g id="edge70" class="edge">
<title>init&#45;&gt;inductive</title>
<path fill="none" stroke="black" d="M736.67,-1748.24C757.01,-1746.87 785.75,-1744.94 810.3,-1743.29"/>
<polygon fill="black" stroke="black" points="810.35,-1746.8 820.09,-1742.64 809.88,-1739.81 810.35,-1746.8"/>
</g>
<!-- k -->
<g id="node26" class="node">
<title>k</title>
<polygon fill="none" stroke="black" points="887.38,-1704 833.38,-1704 833.38,-1668 887.38,-1668 887.38,-1704"/>
<text text-anchor="middle" x="860.38" y="-1681.7" font-family="sans-serif" font-size="14.00">k</text>
</g>
<!-- init&#45;&gt;k -->
<g id="edge71" class="edge">
<title>init&#45;&gt;k</title>
<path fill="none" stroke="black" d="M736.71,-1737.7C752.64,-1730.36 773.4,-1720.94 792,-1713 801.87,-1708.79 812.64,-1704.39 822.6,-1700.39"/>
<polygon fill="black" stroke="black" points="823.62,-1703.75 831.62,-1696.8 821.03,-1697.25 823.62,-1703.75"/>
</g>
<!-- init&#45;&gt;logic&#45;api -->
<g id="edge72" class="edge">
<title>init&#45;&gt;logic&#45;api</title>
<path fill="none" stroke="black" d="M736.68,-1767.02C743.2,-1771.62 750.03,-1776.78 756,-1782 773.76,-1797.53 770.39,-1811.54 792,-1821 843.6,-1843.59 909.42,-1835.87 953.27,-1826.27"/>
<polygon fill="black" stroke="black" points="954.04,-1829.68 962.99,-1824.01 952.46,-1822.86 954.04,-1829.68"/>
</g>
<!-- metamath -->
<g id="node36" class="node">
<title>metamath</title>
<polygon fill="none" stroke="black" points="900.62,-1254 820.12,-1254 820.12,-1218 900.62,-1218 900.62,-1254"/>
<text text-anchor="middle" x="860.38" y="-1231.7" font-family="sans-serif" font-size="14.00">metamath</text>
</g>
<!-- init&#45;&gt;metamath -->
<g id="edge73" class="edge">
<title>init&#45;&gt;metamath</title>
<path fill="none" stroke="black" d="M718.57,-1731.88C728.35,-1709.79 744.79,-1671.18 756,-1637 776.15,-1575.54 775.89,-1558.64 792,-1496 813.52,-1412.32 839.19,-1313.56 851.72,-1265.39"/>
<polygon fill="black" stroke="black" points="855.1,-1266.3 854.23,-1255.74 848.33,-1264.54 855.1,-1266.3"/>
</g>
<!-- init&#45;&gt;sexp -->
<g id="edge74" class="edge">
<title>init&#45;&gt;sexp</title>
<path fill="none" stroke="black" d="M718.16,-1731.74C727.53,-1709.51 743.57,-1670.75 756,-1637 773.48,-1589.52 755.92,-1564.47 792,-1529 837.43,-1484.34 874.13,-1518.79 928.75,-1486 948.16,-1474.35 966.32,-1456.46 979.58,-1441.55"/>
<polygon fill="black" stroke="black" points="981.92,-1444.2 985.8,-1434.34 976.62,-1439.63 981.92,-1444.2"/>
</g>
<!-- spectec -->
<g id="node59" class="node">
<title>spectec</title>
<polygon fill="none" stroke="black" points="895,-1980 825.75,-1980 825.75,-1944 895,-1944 895,-1980"/>
<text text-anchor="middle" x="860.38" y="-1957.7" font-family="sans-serif" font-size="14.00">spectec</text>
</g>
<!-- init&#45;&gt;spectec -->
<g id="edge75" class="edge">
<title>init&#45;&gt;spectec</title>
<path fill="none" stroke="black" d="M736.86,-1763.84C744,-1768.72 751.09,-1774.81 756,-1782 794.16,-1837.91 749.28,-1877.49 792,-1930 798.11,-1937.51 806.39,-1943.36 815.07,-1947.88"/>
<polygon fill="black" stroke="black" points="813.39,-1950.97 823.94,-1951.97 816.32,-1944.61 813.39,-1950.97"/>
</g>
<!-- init&#45;&gt;types -->
<g id="edge76" class="edge">
<title>init&#45;&gt;types</title>
<path fill="none" stroke="black" d="M736.83,-1759.87C743.64,-1763.29 750.57,-1767.64 756,-1773 780.63,-1797.29 764.06,-1821.61 792,-1842 868.15,-1897.55 906.74,-1878 1001,-1878 1001,-1878 1001,-1878 1239,-1878 1311.8,-1878 1396.86,-1878 1444.65,-1878"/>
<polygon fill="black" stroke="black" points="1444.46,-1881.5 1454.46,-1878 1444.46,-1874.5 1444.46,-1881.5"/>
</g>
<!-- json -->
<g id="node24" class="node">
<title>json</title>
<polygon fill="none" stroke="black" points="887.38,-299 833.38,-299 833.38,-263 887.38,-263 887.38,-299"/>
<text text-anchor="middle" x="860.38" y="-276.7" font-family="sans-serif" font-size="14.00">json</text>
</g>
<!-- json&#45;api -->
<g id="node25" class="node">
<title>json&#45;api</title>
<polygon fill="none" stroke="black" points="744.38,-97 674.38,-97 674.38,-61 744.38,-61 744.38,-97"/>
<text text-anchor="middle" x="709.38" y="-74.7" font-family="sans-serif" font-size="14.00">json&#45;api</text>
</g>
<!-- json&#45;api&#45;&gt;decimal&#45;api -->
<g id="edge77" class="edge">
<title>json&#45;api&#45;&gt;decimal&#45;api</title>
<path fill="none" stroke="black" d="M744.52,-77.51C832.82,-73.65 1069.43,-63.32 1179.37,-58.52"/>
<polygon fill="black" stroke="black" points="1179.52,-62.01 1189.36,-58.08 1179.22,-55.02 1179.52,-62.01"/>
</g>
<!-- json&#45;api&#45;&gt;inductive -->
<g id="edge78" class="edge">
<title>json&#45;api&#45;&gt;inductive</title>
<path fill="none" stroke="black" d="M716.07,-97.49C726.32,-131.72 747.56,-207.46 756,-273 766.21,-352.37 746.33,-1647.29 792,-1713 796.8,-1719.9 803.66,-1725.04 811.2,-1728.86"/>
<polygon fill="black" stroke="black" points="809.79,-1732.07 820.37,-1732.72 812.51,-1725.62 809.79,-1732.07"/>
</g>
<!-- parsing&#45;api -->
<g id="node43" class="node">
<title>parsing&#45;api</title>
<polygon fill="none" stroke="black" points="906.25,-36 814.5,-36 814.5,0 906.25,0 906.25,-36"/>
<text text-anchor="middle" x="860.38" y="-13.7" font-family="sans-serif" font-size="14.00">parsing&#45;api</text>
</g>
<!-- json&#45;api&#45;&gt;parsing&#45;api -->
<g id="edge79" class="edge">
<title>json&#45;api&#45;&gt;parsing&#45;api</title>
<path fill="none" stroke="black" d="M744.56,-65.01C762.11,-57.82 783.93,-48.89 803.83,-40.74"/>
<polygon fill="black" stroke="black" points="805,-44.04 812.93,-37.01 802.35,-37.56 805,-44.04"/>
</g>
<!-- json&#45;api&#45;&gt;types -->
<g id="edge80" class="edge">
<title>json&#45;api&#45;&gt;types</title>
<path fill="none" stroke="black" d="M744.75,-83.49C799.07,-90.18 908.12,-102 1001,-102 1001,-102 1001,-102 1239,-102 1320.26,-102 1365.62,-65.84 1420.25,-126 1480.56,-192.41 1482.37,-1622.81 1482.28,-1848.21"/>
<polygon fill="black" stroke="black" points="1478.78,-1848.17 1482.27,-1858.18 1485.78,-1848.18 1478.78,-1848.17"/>
</g>
<!-- k&#45;&gt;grammar -->
<g id="edge81" class="edge">
<title>k&#45;&gt;grammar</title>
<path fill="none" stroke="black" d="M887.63,-1690.69C901.64,-1694.47 918.13,-1701.2 928.75,-1713 968,-1756.6 945.08,-1784.73 964.75,-1840 971.41,-1858.72 980.22,-1879.21 987.49,-1895.27"/>
<polygon fill="black" stroke="black" points="984.24,-1896.59 991.6,-1904.22 990.61,-1893.67 984.24,-1896.59"/>
</g>
<!-- k&#45;&gt;parse -->
<g id="edge82" class="edge">
<title>k&#45;&gt;parse</title>
<path fill="none" stroke="black" d="M878.75,-1667.74C914.4,-1629.24 996.12,-1535.55 1039.25,-1442 1084.61,-1343.61 1104.16,-1214.76 1111.01,-1157.56"/>
<polygon fill="black" stroke="black" points="1114.49,-1158.01 1112.15,-1147.67 1107.53,-1157.21 1114.49,-1158.01"/>
</g>
<!-- k&#45;&gt;sexp -->
<g id="edge83" class="edge">
<title>k&#45;&gt;sexp</title>
<path fill="none" stroke="black" d="M874.8,-1667.62C889.19,-1647.46 912.17,-1613.88 928.75,-1583 954.05,-1535.88 977.34,-1478.03 990.31,-1443.97"/>
<polygon fill="black" stroke="black" points="993.51,-1445.39 993.76,-1434.8 986.96,-1442.92 993.51,-1445.39"/>
</g>
<!-- kernel -->
<g id="node27" class="node">
<title>kernel</title>
<polygon fill="none" stroke="black" points="608,-1482 550.75,-1482 550.75,-1446 608,-1446 608,-1482"/>
<text text-anchor="middle" x="579.38" y="-1459.7" font-family="sans-serif" font-size="14.00">kernel</text>
</g>
<!-- kernel&#45;&gt;hash -->
<g id="edge84" class="edge">
<title>kernel&#45;&gt;hash</title>
<path fill="none" stroke="black" d="M608.27,-1453.23C615.37,-1449.19 622.25,-1443.85 626.75,-1437 701.39,-1323.25 582.78,-1243.07 662.75,-1133 689.57,-1096.08 723.95,-1122.49 756,-1090 783.66,-1061.95 773,-1043.51 792,-1009 806.18,-983.25 824.9,-955.59 839.01,-935.73"/>
<polygon fill="black" stroke="black" points="841.85,-937.78 844.84,-927.62 836.16,-933.7 841.85,-937.78"/>
</g>
<!-- kernel&#45;&gt;init -->
<g id="edge85" class="edge">
<title>kernel&#45;&gt;init</title>
<path fill="none" stroke="black" d="M588.6,-1482.22C597.89,-1502.8 613.44,-1537.29 626.75,-1567 651.18,-1621.52 679.57,-1685.25 695.61,-1721.29"/>
<polygon fill="black" stroke="black" points="692.29,-1722.45 699.56,-1730.17 698.69,-1719.61 692.29,-1722.45"/>
</g>
<!-- kernel&#45;&gt;object -->
<g id="edge86" class="edge">
<title>kernel&#45;&gt;object</title>
<path fill="none" stroke="black" d="M608.32,-1453.27C615.42,-1449.22 622.29,-1443.88 626.75,-1437 667.71,-1373.8 643.89,-1172.92 662.75,-1100 670,-1071.98 683.27,-1041.76 693.64,-1020.43"/>
<polygon fill="black" stroke="black" points="696.76,-1022.02 698.08,-1011.51 690.49,-1018.9 696.76,-1022.02"/>
</g>
<!-- kernel&#45;&gt;sexp -->
<g id="edge87" class="edge">
<title>kernel&#45;&gt;sexp</title>
<path fill="none" stroke="black" d="M608.48,-1449.22C648.1,-1429.3 723.25,-1394.85 792,-1382 851.74,-1370.83 869.36,-1369.08 928.75,-1382 940.8,-1384.62 953.25,-1389.44 964.34,-1394.6"/>
<polygon fill="black" stroke="black" points="962.63,-1397.66 973.15,-1398.92 965.72,-1391.37 962.63,-1397.66"/>
</g>
<!-- kernel&#45;&gt;store -->
<g id="edge88" class="edge">
<title>kernel&#45;&gt;store</title>
<path fill="none" stroke="black" d="M608.15,-1453.74C615.43,-1449.66 622.44,-1444.19 626.75,-1437 682.78,-1343.55 607.05,-550.65 662.75,-457 665.24,-452.82 668.64,-449.21 672.48,-446.12"/>
<polygon fill="black" stroke="black" points="674.33,-449.09 680.74,-440.65 670.47,-443.26 674.33,-449.09"/>
</g>
<!-- kernel&#45;sat -->
<g id="node28" class="node">
<title>kernel&#45;sat</title>
<polygon fill="none" stroke="black" points="621.12,-1993 537.62,-1993 537.62,-1957 621.12,-1957 621.12,-1993"/>
<text text-anchor="middle" x="579.38" y="-1970.7" font-family="sans-serif" font-size="14.00">kernel&#45;sat</text>
</g>
<!-- kernel&#45;sat&#45;&gt;core -->
<g id="edge89" class="edge">
<title>kernel&#45;sat&#45;&gt;core</title>
<path fill="none" stroke="black" d="M597.2,-1993.26C643.25,-2043.15 769.45,-2179.05 792,-2195 846.93,-2233.86 920.29,-2262.78 963.89,-2277.97"/>
<polygon fill="black" stroke="black" points="962.55,-2281.21 973.14,-2281.13 964.81,-2274.58 962.55,-2281.21"/>
</g>
<!-- kernel&#45;sat&#45;&gt;hol&#45;eval -->
<g id="edge90" class="edge">
<title>kernel&#45;sat&#45;&gt;hol&#45;eval</title>
<path fill="none" stroke="black" d="M621.25,-1971.84C660.7,-1971.11 719.65,-1976.5 756,-2010 798.83,-2049.47 754.35,-2091.56 792,-2136 798.13,-2143.24 806.26,-2148.95 814.76,-2153.42"/>
<polygon fill="black" stroke="black" points="813.27,-2156.59 823.81,-2157.64 816.22,-2150.24 813.27,-2156.59"/>
</g>
<!-- kernel&#45;sat&#45;&gt;init -->
<g id="edge91" class="edge">
<title>kernel&#45;sat&#45;&gt;init</title>
<path fill="none" stroke="black" d="M606.94,-1956.82C614.01,-1951.08 621.22,-1944.3 626.75,-1937 664.14,-1887.6 688.54,-1818.41 700.25,-1779.53"/>
<polygon fill="black" stroke="black" points="703.6,-1780.53 703.05,-1769.95 696.89,-1778.57 703.6,-1780.53"/>
</g>
<!-- sat -->
<g id="node53" class="node">
<title>sat</title>
<polygon fill="none" stroke="black" points="887.38,-1146 833.38,-1146 833.38,-1110 887.38,-1110 887.38,-1146"/>
<text text-anchor="middle" x="860.38" y="-1123.7" font-family="sans-serif" font-size="14.00">sat</text>
</g>
<!-- kernel&#45;sat&#45;&gt;sat -->
<g id="edge92" class="edge">
<title>kernel&#45;sat&#45;&gt;sat</title>
<path fill="none" stroke="black" d="M610,-1956.66C616.57,-1951.16 622.76,-1944.55 626.75,-1937 669.28,-1856.53 643.74,-1618.01 662.75,-1529 671.93,-1486 761.67,-1186.83 792,-1155 800.15,-1146.45 811.37,-1140.54 822.31,-1136.48"/>
<polygon fill="black" stroke="black" points="823.16,-1139.89 831.6,-1133.48 821.01,-1133.22 823.16,-1139.89"/>
</g>
<!-- kernel&#45;smt -->
<g id="node29" class="node">
<title>kernel&#45;smt</title>
<polygon fill="none" stroke="black" points="494.5,-2312 406.5,-2312 406.5,-2276 494.5,-2276 494.5,-2312"/>
<text text-anchor="middle" x="450.5" y="-2289.7" font-family="sans-serif" font-size="14.00">kernel&#45;smt</text>
</g>
<!-- kernel&#45;smt&#45;&gt;core -->
<g id="edge93" class="edge">
<title>kernel&#45;smt&#45;&gt;core</title>
<path fill="none" stroke="black" d="M482.59,-2312.39C561.4,-2356.44 773.75,-2458.86 928.75,-2383 955.89,-2369.71 975.78,-2340.77 987.74,-2318.67"/>
<polygon fill="black" stroke="black" points="990.83,-2320.32 992.28,-2309.82 984.6,-2317.12 990.83,-2320.32"/>
</g>
<!-- kernel&#45;smt&#45;&gt;hol&#45;api -->
<g id="edge94" class="edge">
<title>kernel&#45;smt&#45;&gt;hol&#45;api</title>
<path fill="none" stroke="black" d="M494.81,-2282.39C508.38,-2278.76 523.32,-2274.75 536.78,-2271.15"/>
<polygon fill="black" stroke="black" points="537.45,-2274.59 546.2,-2268.62 535.63,-2267.83 537.45,-2274.59"/>
</g>
<!-- kv -->
<g id="node30" class="node">
<title>kv</title>
<polygon fill="none" stroke="black" points="226.12,-430 172.12,-430 172.12,-394 226.12,-394 226.12,-430"/>
<text text-anchor="middle" x="199.12" y="-407.7" font-family="sans-serif" font-size="14.00">kv</text>
</g>
<!-- lean -->
<g id="node31" class="node">
<title>lean</title>
<polygon fill="none" stroke="black" points="87.5,-1148 33.5,-1148 33.5,-1112 87.5,-1112 87.5,-1148"/>
<text text-anchor="middle" x="60.5" y="-1125.7" font-family="sans-serif" font-size="14.00">lean</text>
</g>
<!-- lisp -->
<g id="node32" class="node">
<title>lisp</title>
<polygon fill="none" stroke="black" points="477.5,-1528 423.5,-1528 423.5,-1492 477.5,-1492 477.5,-1528"/>
<text text-anchor="middle" x="450.5" y="-1505.7" font-family="sans-serif" font-size="14.00">lisp</text>
</g>
<!-- lisp&#45;&gt;core -->
<g id="edge95" class="edge">
<title>lisp&#45;&gt;core</title>
<path fill="none" stroke="black" d="M477.56,-1520.31C484.71,-1524.42 491.67,-1529.9 496,-1537 555.4,-1634.37 477.44,-1948.84 532,-2049 601.09,-2175.85 660.71,-2183.78 792,-2244 848.49,-2269.91 920.39,-2281.6 963.44,-2286.59"/>
<polygon fill="black" stroke="black" points="962.96,-2290.06 973.28,-2287.66 963.72,-2283.1 962.96,-2290.06"/>
</g>
<!-- lisp&#45;&gt;hol&#45;api -->
<g id="edge96" class="edge">
<title>lisp&#45;&gt;hol&#45;api</title>
<path fill="none" stroke="black" d="M477.62,-1520.27C484.77,-1524.38 491.72,-1529.87 496,-1537 570.75,-1661.63 486.27,-2052.05 532,-2190 537.03,-2205.18 546.26,-2220.2 555.17,-2232.41"/>
<polygon fill="black" stroke="black" points="552.39,-2234.53 561.25,-2240.35 557.95,-2230.28 552.39,-2234.53"/>
</g>
<!-- lisp&#45;&gt;hol&#45;eval -->
<g id="edge97" class="edge">
<title>lisp&#45;&gt;hol&#45;eval</title>
<path fill="none" stroke="black" d="M477.99,-1520.6C484.97,-1524.68 491.74,-1530.07 496,-1537 550.29,-1625.28 474.67,-1915.65 532,-2002 565.86,-2053 733.28,-2120.95 814.72,-2151.68"/>
<polygon fill="black" stroke="black" points="813.15,-2154.82 823.74,-2155.06 815.6,-2148.27 813.15,-2154.82"/>
</g>
<!-- lisp&#45;&gt;init -->
<g id="edge98" class="edge">
<title>lisp&#45;&gt;init</title>
<path fill="none" stroke="black" d="M477.81,-1521.3C484.62,-1525.36 491.34,-1530.56 496,-1537 537.48,-1594.28 484.28,-1639.8 532,-1692 567.75,-1731.11 630.32,-1743.91 670.51,-1748.06"/>
<polygon fill="black" stroke="black" points="670.19,-1751.54 680.46,-1748.94 670.81,-1744.57 670.19,-1751.54"/>
</g>
<!-- lisp&#45;&gt;repl&#45;core -->
<g id="edge99" class="edge">
<title>lisp&#45;&gt;repl&#45;core</title>
<path fill="none" stroke="black" d="M469.42,-1491.72C485.14,-1476.2 509.01,-1453.83 532,-1437 533.14,-1436.16 534.31,-1435.33 535.5,-1434.51"/>
<polygon fill="black" stroke="black" points="537.19,-1437.59 543.64,-1429.18 533.35,-1431.73 537.19,-1437.59"/>
</g>
<!-- lisp&#45;&gt;sexp -->
<g id="edge100" class="edge">
<title>lisp&#45;&gt;sexp</title>
<path fill="none" stroke="black" d="M477.87,-1509.93C512.64,-1509.21 575.42,-1505.73 626.75,-1491 705.18,-1468.49 712.47,-1429.24 792,-1411 850.68,-1397.54 921.08,-1403.21 963.37,-1408.86"/>
<polygon fill="black" stroke="black" points="962.62,-1412.29 973.01,-1410.23 963.6,-1405.36 962.62,-1412.29"/>
</g>
<!-- sexpr&#45;api -->
<g id="node56" class="node">
<title>sexpr&#45;api</title>
<polygon fill="none" stroke="black" points="748.12,-1628 670.62,-1628 670.62,-1592 748.12,-1592 748.12,-1628"/>
<text text-anchor="middle" x="709.38" y="-1605.7" font-family="sans-serif" font-size="14.00">sexpr&#45;api</text>
</g>
<!-- lisp&#45;&gt;sexpr&#45;api -->
<g id="edge101" class="edge">
<title>lisp&#45;&gt;sexpr&#45;api</title>
<path fill="none" stroke="black" d="M477.84,-1517.05C512.58,-1526.68 575.32,-1545.28 626.75,-1567 640.02,-1572.61 654.05,-1579.58 666.65,-1586.27"/>
<polygon fill="black" stroke="black" points="664.63,-1589.15 675.09,-1590.83 667.95,-1582.99 664.63,-1589.15"/>
</g>
<!-- lisp&#45;&gt;types -->
<g id="edge102" class="edge">
<title>lisp&#45;&gt;types</title>
<path fill="none" stroke="black" d="M456.15,-1491.78C465.64,-1453.7 487.09,-1362.74 496,-1285 502.9,-1224.81 492.11,-240.6 532,-195 629.14,-83.95 711.84,-140 859.38,-140 859.38,-140 859.38,-140 1239,-140 1418.88,-140 1473.89,-1618.99 1481.33,-1848.29"/>
<polygon fill="black" stroke="black" points="1477.83,-1848.26 1481.65,-1858.14 1484.83,-1848.04 1477.83,-1848.26"/>
</g>
<!-- llm -->
<g id="node33" class="node">
<title>llm</title>
<polygon fill="none" stroke="black" points="226.12,-598 172.12,-598 172.12,-562 226.12,-562 226.12,-598"/>
<text text-anchor="middle" x="199.12" y="-575.7" font-family="sans-serif" font-size="14.00">llm</text>
</g>
<!-- llm&#45;&gt;proto -->
<g id="edge103" class="edge">
<title>llm&#45;&gt;proto</title>
<path fill="none" stroke="black" d="M217.6,-598.48C238.35,-620.42 273.11,-657.17 296.8,-682.22"/>
<polygon fill="black" stroke="black" points="294.22,-684.59 303.64,-689.45 299.31,-679.78 294.22,-684.59"/>
</g>
<!-- lsp&#45;&gt;sexp -->
<g id="edge104" class="edge">
<title>lsp&#45;&gt;sexp</title>
<path fill="none" stroke="black" d="M887.87,-1186.87C901.77,-1190.7 918.08,-1197.41 928.75,-1209 965.6,-1249.03 946.47,-1274.76 964.75,-1326 972.02,-1346.37 981.22,-1368.92 988.53,-1386.23"/>
<polygon fill="black" stroke="black" points="985.29,-1387.56 992.43,-1395.38 991.73,-1384.81 985.29,-1387.56"/>
</g>
<!-- lsp&#45;&gt;wasm -->
<g id="edge105" class="edge">
<title>lsp&#45;&gt;wasm</title>
<path fill="none" stroke="black" d="M887.78,-1178.16C902.2,-1174.63 919.04,-1167.88 928.75,-1155 939.12,-1141.24 986.66,-611.76 998.38,-479.64"/>
<polygon fill="black" stroke="black" points="1001.84,-480.23 999.24,-469.96 994.87,-479.61 1001.84,-480.23"/>
</g>
<!-- metamath&#45;&gt;parse -->
<g id="edge106" class="edge">
<title>metamath&#45;&gt;parse</title>
<path fill="none" stroke="black" d="M901,-1220.36C910.14,-1216.68 919.8,-1212.75 928.75,-1209 980.64,-1187.27 1040.18,-1161.02 1077.47,-1144.41"/>
<polygon fill="black" stroke="black" points="1078.74,-1147.68 1086.45,-1140.41 1075.89,-1141.28 1078.74,-1147.68"/>
</g>
<!-- metamath&#45;&gt;sexp -->
<g id="edge107" class="edge">
<title>metamath&#45;&gt;sexp</title>
<path fill="none" stroke="black" d="M900.91,-1249.41C910.86,-1254.14 920.91,-1260.27 928.75,-1268 946.62,-1285.63 974.21,-1348.87 989.61,-1386.42"/>
<polygon fill="black" stroke="black" points="986.22,-1387.37 993.22,-1395.32 992.7,-1384.73 986.22,-1387.37"/>
</g>
<!-- multiformat -->
<g id="node37" class="node">
<title>multiformat</title>
<polygon fill="none" stroke="black" points="754.5,-1178 664.25,-1178 664.25,-1142 754.5,-1142 754.5,-1178"/>
<text text-anchor="middle" x="709.38" y="-1155.7" font-family="sans-serif" font-size="14.00">multiformat</text>
</g>
<!-- multiformat&#45;&gt;acset -->
<g id="edge108" class="edge">
<title>multiformat&#45;&gt;acset</title>
<path fill="none" stroke="black" d="M740.32,-1141.72C745.88,-1137.59 751.38,-1132.96 756,-1128 777.19,-1105.24 768.97,-1088.9 792,-1068 800.77,-1060.04 811.88,-1053.68 822.54,-1048.8"/>
<polygon fill="black" stroke="black" points="823.7,-1052.11 831.54,-1044.99 820.97,-1045.66 823.7,-1052.11"/>
</g>
<!-- multiformat&#45;&gt;hash -->
<g id="edge109" class="edge">
<title>multiformat&#45;&gt;hash</title>
<path fill="none" stroke="black" d="M742.28,-1141.83C747.41,-1137.81 752.26,-1133.17 756,-1128 788.4,-1083.24 768.41,-1058.97 792,-1009 804.53,-982.46 823.35,-954.92 837.93,-935.31"/>
<polygon fill="black" stroke="black" points="840.54,-937.66 843.78,-927.57 834.95,-933.44 840.54,-937.66"/>
</g>
<!-- multiformat&#45;&gt;parse -->
<g id="edge110" class="edge">
<title>multiformat&#45;&gt;parse</title>
<path fill="none" stroke="black" d="M734.8,-1141.79C757.62,-1124.85 788.67,-1102.08 792,-1101 891.07,-1068.94 1015.74,-1097.54 1076.87,-1115.71"/>
<polygon fill="black" stroke="black" points="1075.84,-1119.05 1086.42,-1118.63 1077.88,-1112.36 1075.84,-1119.05"/>
</g>
<!-- numerals -->
<g id="node38" class="node">
<title>numerals</title>
<polygon fill="none" stroke="black" points="617.75,-1928 541,-1928 541,-1892 617.75,-1892 617.75,-1928"/>
<text text-anchor="middle" x="579.38" y="-1905.7" font-family="sans-serif" font-size="14.00">numerals</text>
</g>
<!-- numerals&#45;&gt;grammar -->
<g id="edge111" class="edge">
<title>numerals&#45;&gt;grammar</title>
<path fill="none" stroke="black" d="M618.2,-1894.15C656.39,-1880.88 715.38,-1868.16 756,-1896 792.56,-1921.05 755.44,-1963.95 792,-1989 842.14,-2023.35 872,-2010.77 928.75,-1989 948.84,-1981.29 966.84,-1965.13 979.85,-1950.86"/>
<polygon fill="black" stroke="black" points="982.38,-1953.29 986.29,-1943.44 977.09,-1948.7 982.38,-1953.29"/>
</g>
<!-- numerals&#45;&gt;hol&#45;eval -->
<g id="edge112" class="edge">
<title>numerals&#45;&gt;hol&#45;eval</title>
<path fill="none" stroke="black" d="M617.94,-1918.27C663.78,-1929.1 737.46,-1949.19 756,-1970 806.21,-2026.38 745.09,-2076.85 792,-2136 798.01,-2143.58 806.26,-2149.47 814.92,-2154"/>
<polygon fill="black" stroke="black" points="813.25,-2157.08 823.8,-2158.08 816.18,-2150.72 813.25,-2157.08"/>
</g>
<!-- numerals&#45;&gt;init -->
<g id="edge113" class="edge">
<title>numerals&#45;&gt;init</title>
<path fill="none" stroke="black" d="M610.72,-1891.68C616.38,-1887.55 622,-1882.93 626.75,-1878 655.82,-1847.85 680.25,-1805.81 694.6,-1778.26"/>
<polygon fill="black" stroke="black" points="697.66,-1779.96 699.08,-1769.46 691.43,-1776.79 697.66,-1779.96"/>
</g>
<!-- numerals&#45;&gt;types -->
<g id="edge114" class="edge">
<title>numerals&#45;&gt;types</title>
<path fill="none" stroke="black" d="M618.25,-1902.91C656.75,-1897.93 716.24,-1896.6 756,-1926 789.98,-1951.12 760.32,-1986.04 792,-2014 903.18,-2112.13 965.83,-2101 1114.12,-2101 1114.12,-2101 1114.12,-2101 1239,-2101 1353.04,-2101 1436.8,-1966.18 1468.42,-1906.2"/>
<polygon fill="black" stroke="black" points="1471.39,-1908.09 1472.86,-1897.59 1465.16,-1904.88 1471.39,-1908.09"/>
</g>
<!-- object&#45;&gt;hash -->
<g id="edge115" class="edge">
<title>object&#45;&gt;hash</title>
<path fill="none" stroke="black" d="M738.4,-976.2C762.36,-962.69 797.01,-943.16 823.09,-928.46"/>
<polygon fill="black" stroke="black" points="824.66,-931.59 831.66,-923.63 821.23,-925.49 824.66,-931.59"/>
</g>
<!-- object&#45;&gt;parse -->
<g id="edge116" class="edge">
<title>object&#45;&gt;parse</title>
<path fill="none" stroke="black" d="M738.47,-989.9C780.9,-987.66 863.33,-987.01 928.75,-1009 989.48,-1029.41 1050.11,-1074.07 1084.77,-1102.5"/>
<polygon fill="black" stroke="black" points="1082.33,-1105.02 1092.25,-1108.73 1086.81,-1099.64 1082.33,-1105.02"/>
</g>
<!-- opentheory&#45;&gt;core -->
<g id="edge117" class="edge">
<title>opentheory&#45;&gt;core</title>
<path fill="none" stroke="black" d="M479.67,-2400.34C558.2,-2448.94 783.3,-2570.75 928.75,-2472 979.31,-2437.67 994.49,-2361.82 999.05,-2319.68"/>
<polygon fill="black" stroke="black" points="1002.53,-2320.05 999.97,-2309.77 995.56,-2319.4 1002.53,-2320.05"/>
</g>
<!-- opentheory&#45;&gt;hol -->
<g id="edge118" class="edge">
<title>opentheory&#45;&gt;hol</title>
<path fill="none" stroke="black" d="M496.45,-2391.22C507.99,-2393.2 520.41,-2395 532,-2396 573.96,-2399.62 584.97,-2401.3 626.75,-2396 697.13,-2387.07 776.67,-2363.52 822.14,-2348.72"/>
<polygon fill="black" stroke="black" points="823.1,-2352.09 831.5,-2345.63 820.91,-2345.44 823.1,-2352.09"/>
</g>
<!-- opentheory&#45;&gt;hol&#45;api -->
<g id="edge119" class="edge">
<title>opentheory&#45;&gt;hol&#45;api</title>
<path fill="none" stroke="black" d="M470.49,-2363.74C491.89,-2343.16 526.84,-2309.55 551.14,-2286.19"/>
<polygon fill="black" stroke="black" points="553.38,-2288.89 558.16,-2279.44 548.53,-2283.85 553.38,-2288.89"/>
</g>
<!-- opentheory&#45;&gt;hol&#45;eval -->
<g id="edge120" class="edge">
<title>opentheory&#45;&gt;hol&#45;eval</title>
<path fill="none" stroke="black" d="M492.04,-2363.56C551,-2336.39 663.48,-2283.27 756,-2232 778.17,-2219.72 802.28,-2204.88 821.64,-2192.58"/>
<polygon fill="black" stroke="black" points="823.48,-2195.56 830.02,-2187.22 819.71,-2189.66 823.48,-2195.56"/>
</g>
<!-- parquet -->
<g id="node41" class="node">
<title>parquet</title>
<polygon fill="none" stroke="black" points="484,-804 417,-804 417,-768 484,-768 484,-804"/>
<text text-anchor="middle" x="450.5" y="-781.7" font-family="sans-serif" font-size="14.00">parquet</text>
</g>
<!-- parquet&#45;&gt;arrow -->
<g id="edge121" class="edge">
<title>parquet&#45;&gt;arrow</title>
<path fill="none" stroke="black" d="M484.17,-795.79C501.6,-801.01 523.12,-807.45 541.19,-812.86"/>
<polygon fill="black" stroke="black" points="540.17,-816.21 550.75,-815.73 542.18,-809.5 540.17,-816.21"/>
</g>
<!-- proptest -->
<g id="node44" class="node">
<title>proptest</title>
<polygon fill="none" stroke="black" points="95.88,-1202 25.12,-1202 25.12,-1166 95.88,-1166 95.88,-1202"/>
<text text-anchor="middle" x="60.5" y="-1179.7" font-family="sans-serif" font-size="14.00">proptest</text>
</g>
<!-- pure&#45;trusted -->
<g id="node48" class="node">
<title>pure&#45;trusted</title>
<polygon fill="#ffd6d6" stroke="black" points="1420.25,-2247 1321,-2247 1321,-2211 1420.25,-2211 1420.25,-2247"/>
<text text-anchor="middle" x="1370.62" y="-2224.7" font-family="sans-serif" font-size="14.00">pure&#45;trusted</text>
</g>
<!-- pure&#45;&gt;pure&#45;trusted -->
<g id="edge122" class="edge">
<title>pure&#45;&gt;pure&#45;trusted</title>
<path fill="none" stroke="black" d="M1265.43,-2230.6C1278.15,-2230.4 1293.96,-2230.16 1309.39,-2229.92"/>
<polygon fill="black" stroke="black" points="1309.05,-2233.43 1319,-2229.78 1308.94,-2226.43 1309.05,-2233.43"/>
</g>
<!-- pure&#45;eval&#45;&gt;pure -->
<g id="edge123" class="edge">
<title>pure&#45;eval&#45;&gt;pure</title>
<path fill="none" stroke="black" d="M1155.37,-2199.93C1169.76,-2205.41 1185.99,-2211.59 1200.16,-2216.98"/>
<polygon fill="black" stroke="black" points="1198.53,-2220.11 1209.12,-2220.39 1201.02,-2213.56 1198.53,-2220.11"/>
</g>
<!-- pure&#45;eval&#45;&gt;types -->
<g id="edge124" class="edge">
<title>pure&#45;eval&#45;&gt;types</title>
<path fill="none" stroke="black" d="M1155.36,-2193.85C1219.35,-2205.78 1346.46,-2218.63 1420.25,-2153 1456.75,-2120.53 1474.03,-1971.47 1479.87,-1907.4"/>
<polygon fill="black" stroke="black" points="1483.33,-1907.9 1480.72,-1897.64 1476.36,-1907.29 1483.33,-1907.9"/>
</g>
<!-- pure&#45;trusted&#45;&gt;types -->
<g id="edge125" class="edge">
<title>pure&#45;trusted&#45;&gt;types</title>
<path fill="none" stroke="black" d="M1405.1,-2210.81C1410.9,-2206.32 1416.32,-2201.04 1420.25,-2195 1451.19,-2147.44 1471.96,-1977.01 1479.3,-1907.67"/>
<polygon fill="black" stroke="black" points="1482.77,-1908.13 1480.32,-1897.82 1475.81,-1907.41 1482.77,-1908.13"/>
</g>
<!-- python -->
<g id="node49" class="node">
<title>python</title>
<polygon fill="none" stroke="black" points="91.38,-514 29.62,-514 29.62,-478 91.38,-478 91.38,-514"/>
<text text-anchor="middle" x="60.5" y="-491.7" font-family="sans-serif" font-size="14.00">python</text>
</g>
<!-- python&#45;&gt;crypto&#45;sig -->
<g id="edge126" class="edge">
<title>python&#45;&gt;crypto&#45;sig</title>
<path fill="none" stroke="black" d="M65.23,-477.67C74.61,-434.95 102.45,-326.85 157,-254 158.5,-252 160.15,-250.06 161.91,-248.19"/>
<polygon fill="black" stroke="black" points="164.14,-250.9 169.03,-241.5 159.34,-245.8 164.14,-250.9"/>
</g>
<!-- python&#45;&gt;git -->
<g id="edge127" class="edge">
<title>python&#45;&gt;git</title>
<path fill="none" stroke="black" d="M70.76,-477.51C85.09,-451.21 115.41,-404.08 157,-385 191.03,-369.39 205.74,-373.11 241.25,-385 318.69,-410.92 390.38,-478.25 425.98,-515.77"/>
<polygon fill="black" stroke="black" points="423.01,-517.72 432.4,-522.63 428.13,-512.94 423.01,-517.72"/>
</g>
<!-- python&#45;&gt;graph -->
<g id="edge128" class="edge">
<title>python&#45;&gt;graph</title>
<path fill="none" stroke="black" d="M91.79,-488.67C140.16,-477.63 237.99,-458 322.12,-458 322.12,-458 322.12,-458 451.5,-458 539.65,-458 630.57,-516.09 676.97,-550.76"/>
<polygon fill="black" stroke="black" points="674.62,-553.37 684.7,-556.65 678.86,-547.8 674.62,-553.37"/>
</g>
<!-- python&#45;&gt;hash -->
<g id="edge129" class="edge">
<title>python&#45;&gt;hash</title>
<path fill="none" stroke="black" d="M91.81,-492.45C163.72,-485.07 349.64,-472.1 496,-515 528.61,-524.56 734,-650.1 756,-676 808.76,-738.12 839.22,-831.48 852.08,-878.58"/>
<polygon fill="black" stroke="black" points="848.65,-879.28 854.59,-888.05 855.41,-877.49 848.65,-879.28"/>
</g>
<!-- python&#45;&gt;kv -->
<g id="edge130" class="edge">
<title>python&#45;&gt;kv</title>
<path fill="none" stroke="black" d="M91.48,-477.57C112.33,-464.75 140.21,-447.61 162.24,-434.06"/>
<polygon fill="black" stroke="black" points="163.92,-437.14 170.61,-428.92 160.26,-431.17 163.92,-437.14"/>
</g>
<!-- python&#45;&gt;llm -->
<g id="edge131" class="edge">
<title>python&#45;&gt;llm</title>
<path fill="none" stroke="black" d="M91.48,-514.43C112.33,-527.25 140.21,-544.39 162.24,-557.94"/>
<polygon fill="black" stroke="black" points="160.26,-560.83 170.61,-563.08 163.92,-554.86 160.26,-560.83"/>
</g>
<!-- python&#45;&gt;object -->
<g id="edge132" class="edge">
<title>python&#45;&gt;object</title>
<path fill="none" stroke="black" d="M67.12,-514.31C91.98,-593.96 194.43,-908.88 277.25,-965 399.29,-1047.71 588.12,-1019.31 669.2,-1001.68"/>
<polygon fill="black" stroke="black" points="669.9,-1005.11 678.89,-999.5 668.36,-998.28 669.9,-1005.11"/>
</g>
<!-- python&#45;&gt;repl -->
<g id="edge133" class="edge">
<title>python&#45;&gt;repl</title>
<path fill="none" stroke="black" d="M74.07,-514.38C116.3,-576.12 253.26,-776.33 303.46,-849.71"/>
<polygon fill="black" stroke="black" points="300.29,-851.28 308.83,-857.56 306.07,-847.33 300.29,-851.28"/>
</g>
<!-- python&#45;&gt;sat -->
<g id="edge134" class="edge">
<title>python&#45;&gt;sat</title>
<path fill="none" stroke="black" d="M63.36,-514.48C69.53,-569.84 92.75,-738.04 157,-860 195.08,-932.27 213.27,-948.21 277.25,-999 426.55,-1117.51 475.77,-1149.91 662.75,-1187 703.4,-1195.06 717.26,-1201.73 756,-1187 776.01,-1179.39 773.79,-1166.26 792,-1155 801.37,-1149.21 812.19,-1144.22 822.38,-1140.17"/>
<polygon fill="black" stroke="black" points="823.55,-1143.47 831.68,-1136.68 821.09,-1136.92 823.55,-1143.47"/>
</g>
<!-- python&#45;&gt;serve -->
<g id="edge135" class="edge">
<title>python&#45;&gt;serve</title>
<path fill="none" stroke="black" d="M64.93,-514.2C76.73,-576.55 117.19,-787.29 157,-960 167.68,-1006.32 181.65,-1059.71 190.25,-1091.88"/>
<polygon fill="black" stroke="black" points="186.79,-1092.51 192.76,-1101.26 193.55,-1090.69 186.79,-1092.51"/>
</g>
<!-- python&#45;&gt;sexp -->
<g id="edge136" class="edge">
<title>python&#45;&gt;sexp</title>
<path fill="none" stroke="black" d="M63.43,-514.3C74.03,-614.12 125.91,-1090.35 157,-1148 326.34,-1462.04 595.21,-1242.32 928.75,-1369 942.43,-1374.2 956.28,-1382.2 968.13,-1390.08"/>
<polygon fill="black" stroke="black" points="966.12,-1392.94 976.33,-1395.75 970.1,-1387.18 966.12,-1392.94"/>
</g>
<!-- python&#45;&gt;shell -->
<g id="edge137" class="edge">
<title>python&#45;&gt;shell</title>
<path fill="none" stroke="black" d="M63.85,-514.1C72.24,-579.09 101.28,-806.71 121,-995 130.27,-1083.54 116.14,-1314.9 157,-1394 179.61,-1437.76 212.91,-1425.71 241.25,-1466 267.22,-1502.93 240.32,-1535.02 277.25,-1561 316.6,-1588.68 374.51,-1582.76 412.12,-1574.53"/>
<polygon fill="black" stroke="black" points="412.69,-1577.99 421.62,-1572.29 411.08,-1571.18 412.69,-1577.99"/>
</g>
<!-- python&#45;&gt;store -->
<g id="edge138" class="edge">
<title>python&#45;&gt;store</title>
<path fill="none" stroke="black" d="M69.03,-477.7C82.05,-448.8 111.8,-393.57 157,-371 343.78,-277.71 428.88,-301.37 626.75,-368 648.04,-375.17 668.18,-390.34 683.13,-403.88"/>
<polygon fill="black" stroke="black" points="680.52,-406.24 690.2,-410.55 685.33,-401.15 680.52,-406.24"/>
</g>
<!-- python&#45;&gt;wasm -->
<g id="edge139" class="edge">
<title>python&#45;&gt;wasm</title>
<path fill="none" stroke="black" d="M61.89,-477.58C63.97,-425.74 77,-277.03 157,-195 211.2,-139.42 244.49,-138 322.12,-138 322.12,-138 322.12,-138 451.5,-138 665.39,-138 766.45,-60.69 928.75,-200 962.43,-228.91 986.97,-360.69 996.56,-420.42"/>
<polygon fill="black" stroke="black" points="993.08,-420.85 998.09,-430.18 1000,-419.76 993.08,-420.85"/>
</g>
<!-- wasm&#45;store -->
<g id="node67" class="node">
<title>wasm&#45;store</title>
<polygon fill="none" stroke="black" points="626.75,-240 532,-240 532,-204 626.75,-204 626.75,-240"/>
<text text-anchor="middle" x="579.38" y="-217.7" font-family="sans-serif" font-size="14.00">wasm&#45;store</text>
</g>
<!-- python&#45;&gt;wasm&#45;store -->
<g id="edge140" class="edge">
<title>python&#45;&gt;wasm&#45;store</title>
<path fill="none" stroke="black" d="M65.61,-477.68C74.95,-440.56 101.38,-356.4 157,-314 265.43,-231.35 432.78,-219.73 520.38,-219.91"/>
<polygon fill="black" stroke="black" points="520.15,-223.41 530.17,-219.99 520.2,-216.41 520.15,-223.41"/>
</g>
<!-- repl&#45;&gt;arrow -->
<g id="edge141" class="edge">
<title>repl&#45;&gt;arrow</title>
<path fill="none" stroke="black" d="M350.6,-869.62C366.34,-865.35 386.73,-860.05 405,-856 451.58,-845.67 505.72,-836.05 540.94,-830.11"/>
<polygon fill="black" stroke="black" points="541.34,-833.6 550.62,-828.49 540.18,-826.69 541.34,-833.6"/>
</g>
<!-- repl&#45;&gt;forsp -->
<g id="edge142" class="edge">
<title>repl&#45;&gt;forsp</title>
<path fill="none" stroke="black" d="M350.22,-892.04C357.25,-897.22 364.21,-903.62 369,-911 435.55,-1013.65 447.32,-1164.85 449.23,-1228.28"/>
<polygon fill="black" stroke="black" points="445.73,-1228.32 449.46,-1238.24 452.73,-1228.16 445.73,-1228.32"/>
</g>
<!-- repl&#45;&gt;git -->
<g id="edge143" class="edge">
<title>repl&#45;&gt;git</title>
<path fill="none" stroke="black" d="M338.38,-858.67C348.3,-845.09 361.12,-825.77 369,-807 396.73,-741 383.29,-718.22 405,-650 413.75,-622.52 426.51,-592.24 436.12,-570.76"/>
<polygon fill="black" stroke="black" points="439.26,-572.31 440.2,-561.76 432.89,-569.42 439.26,-572.31"/>
</g>
<!-- repl&#45;&gt;graph -->
<g id="edge144" class="edge">
<title>repl&#45;&gt;graph</title>
<path fill="none" stroke="black" d="M350.42,-861.91C357.12,-857.15 363.86,-851.43 369,-845 394.86,-812.62 372.57,-784.8 405,-759 483.25,-696.75 545.02,-778.6 626.75,-721 666.67,-692.87 689.46,-638.65 700.34,-605.07"/>
<polygon fill="black" stroke="black" points="703.67,-606.17 703.26,-595.58 696.97,-604.11 703.67,-606.17"/>
</g>
<!-- repl&#45;&gt;hash -->
<g id="edge145" class="edge">
<title>repl&#45;&gt;hash</title>
<path fill="none" stroke="black" d="M350.3,-878.52C437.62,-883.57 719.15,-899.88 821.62,-905.81"/>
<polygon fill="black" stroke="black" points="821.23,-909.3 831.42,-906.38 821.64,-902.31 821.23,-909.3"/>
</g>
<!-- repl&#45;&gt;init -->
<g id="edge146" class="edge">
<title>repl&#45;&gt;init</title>
<path fill="none" stroke="black" d="M350.38,-891.32C357.59,-896.55 364.62,-903.15 369,-911 450.4,-1056.81 308.97,-1148.38 405,-1285 430.72,-1321.6 469.8,-1291.74 496,-1328 572.85,-1434.34 454.33,-1515.26 532,-1621 559.38,-1658.27 589.08,-1637.18 626.75,-1664 649.99,-1680.55 671.99,-1704.38 687.28,-1722.76"/>
<polygon fill="black" stroke="black" points="684.45,-1724.83 693.47,-1730.38 689.88,-1720.41 684.45,-1724.83"/>
</g>
<!-- repl&#45;&gt;object -->
<g id="edge147" class="edge">
<title>repl&#45;&gt;object</title>
<path fill="none" stroke="black" d="M350.54,-884.9C417.04,-904.81 591.64,-957.06 669.7,-980.42"/>
<polygon fill="black" stroke="black" points="668.46,-983.71 679.04,-983.22 670.46,-977 668.46,-983.71"/>
</g>
<!-- repl&#45;&gt;parquet -->
<g id="edge148" class="edge">
<title>repl&#45;&gt;parquet</title>
<path fill="none" stroke="black" d="M349.83,-858.83C356.12,-854.34 362.82,-849.52 369,-845 385.14,-833.19 388.88,-829.84 405,-818 408.16,-815.68 411.46,-813.27 414.77,-810.87"/>
<polygon fill="black" stroke="black" points="416.74,-813.77 422.79,-805.07 412.64,-808.09 416.74,-813.77"/>
</g>
<!-- repl&#45;&gt;shell -->
<g id="edge149" class="edge">
<title>repl&#45;&gt;shell</title>
<path fill="none" stroke="black" d="M350.57,-891.21C357.78,-896.44 364.77,-903.07 369,-911 434.57,-1033.95 333.19,-1417.59 405,-1537 407.34,-1540.9 410.48,-1544.3 414.02,-1547.26"/>
<polygon fill="black" stroke="black" points="411.92,-1550.07 422.14,-1552.87 415.9,-1544.31 411.92,-1550.07"/>
</g>
<!-- repl&#45;&gt;wasm -->
<g id="edge150" class="edge">
<title>repl&#45;&gt;wasm</title>
<path fill="none" stroke="black" d="M347.81,-858.78C355.41,-851.99 363.32,-843.78 369,-835 395.8,-793.58 375.36,-769.44 405,-730 489.09,-618.09 534.97,-606.16 662.75,-549 773.56,-499.43 814.77,-528.75 928.75,-487 940.81,-482.58 953.43,-476.62 964.7,-470.78"/>
<polygon fill="black" stroke="black" points="966.09,-474 973.27,-466.2 962.8,-467.83 966.09,-474"/>
</g>
<!-- sat&#45;&gt;parse -->
<g id="edge151" class="edge">
<title>sat&#45;&gt;parse</title>
<path fill="none" stroke="black" d="M887.47,-1128C932.4,-1128 1024.54,-1128 1076.44,-1128"/>
<polygon fill="black" stroke="black" points="1076.28,-1131.5 1086.28,-1128 1076.28,-1124.5 1076.28,-1131.5"/>
</g>
<!-- sat&#45;&gt;types -->
<g id="edge152" class="edge">
<title>sat&#45;&gt;types</title>
<path fill="none" stroke="black" d="M887.57,-1136.28C900.44,-1140.89 915.9,-1147.27 928.75,-1155 1021.25,-1210.69 1006.16,-1312 1114.12,-1312 1114.12,-1312 1114.12,-1312 1239,-1312 1345.87,-1312 1368.8,-1376.34 1420.25,-1470 1456.3,-1535.62 1474.81,-1766.03 1480.39,-1848.42"/>
<polygon fill="black" stroke="black" points="1476.89,-1848.43 1481.04,-1858.18 1483.87,-1847.97 1476.89,-1848.43"/>
</g>
<!-- sat&#45;&gt;wasm -->
<g id="edge153" class="edge">
<title>sat&#45;&gt;wasm</title>
<path fill="none" stroke="black" d="M887.79,-1109.75C902.4,-1098.14 919.44,-1081.78 928.75,-1063 954.93,-1010.2 989.47,-595.49 998.67,-479.85"/>
<polygon fill="black" stroke="black" points="1002.15,-480.19 999.45,-469.94 995.17,-479.63 1002.15,-480.19"/>
</g>
<!-- serve&#45;&gt;core -->
<g id="edge154" class="edge">
<title>serve&#45;&gt;core</title>
<path fill="none" stroke="black" d="M200,-1139.21C199.44,-1282.9 203.41,-2232.79 405,-2409 492.63,-2485.6 827.7,-2468.75 928.75,-2411 963.07,-2391.39 982.85,-2348.34 992.77,-2319.25"/>
<polygon fill="black" stroke="black" points="996.04,-2320.52 995.75,-2309.93 989.37,-2318.39 996.04,-2320.52"/>
</g>
<!-- serve&#45;&gt;forsp -->
<g id="edge155" class="edge">
<title>serve&#45;&gt;forsp</title>
<path fill="none" stroke="black" d="M208.13,-1139.15C219.72,-1163.15 243.53,-1204.84 277.25,-1226 318.28,-1251.75 374.93,-1257.85 411.88,-1258.78"/>
<polygon fill="black" stroke="black" points="411.58,-1262.27 421.62,-1258.9 411.67,-1255.27 411.58,-1262.27"/>
</g>
<!-- serve&#45;&gt;git -->
<g id="edge156" class="edge">
<title>serve&#45;&gt;git</title>
<path fill="none" stroke="black" d="M201.04,-1102.78C204.28,-1053.27 218.39,-913.44 277.25,-817 305.59,-770.57 341.36,-782.85 369,-736 406.48,-672.48 364.39,-635.57 405,-574 407.59,-570.07 410.85,-566.46 414.41,-563.2"/>
<polygon fill="black" stroke="black" points="416.32,-566.15 421.93,-557.17 411.94,-560.69 416.32,-566.15"/>
</g>
<!-- serve&#45;&gt;hash -->
<g id="edge157" class="edge">
<title>serve&#45;&gt;hash</title>
<path fill="none" stroke="black" d="M226.38,-1127.81C297.19,-1144.61 495.6,-1181.09 626.75,-1101 649.81,-1086.92 641.05,-1068.11 662.75,-1052 698.05,-1025.79 719.24,-1043.11 756,-1019 790.36,-996.46 821.25,-960.15 840.12,-935.24"/>
<polygon fill="black" stroke="black" points="842.71,-937.63 845.85,-927.51 837.08,-933.46 842.71,-937.63"/>
</g>
<!-- serve&#45;&gt;init -->
<g id="edge158" class="edge">
<title>serve&#45;&gt;init</title>
<path fill="none" stroke="black" d="M208.82,-1139.2C221.91,-1165.8 248.26,-1216.35 277.25,-1255 361.51,-1367.35 430.61,-1358.72 496,-1483 532.77,-1552.89 480.49,-1597.14 532,-1657 561.28,-1691.03 587.05,-1671.04 626.75,-1692 644.15,-1701.19 662.13,-1713.59 676.76,-1724.57"/>
<polygon fill="black" stroke="black" points="674.59,-1727.31 684.66,-1730.61 678.84,-1721.76 674.59,-1727.31"/>
</g>
<!-- serve&#45;&gt;lisp -->
<g id="edge159" class="edge">
<title>serve&#45;&gt;lisp</title>
<path fill="none" stroke="black" d="M202.83,-1139.5C209.61,-1181.12 230.24,-1284.13 277.25,-1356 313.58,-1411.55 374.91,-1459.63 413.75,-1486.69"/>
<polygon fill="black" stroke="black" points="411.63,-1489.48 421.86,-1492.25 415.59,-1483.71 411.63,-1489.48"/>
</g>
<!-- serve&#45;&gt;metamath -->
<g id="edge160" class="edge">
<title>serve&#45;&gt;metamath</title>
<path fill="none" stroke="black" d="M215.11,-1139.38C229.28,-1155.3 252.08,-1177.39 277.25,-1188 372.41,-1228.12 684.64,-1234.79 808.29,-1235.83"/>
<polygon fill="black" stroke="black" points="808.12,-1239.33 818.14,-1235.91 808.17,-1232.33 808.12,-1239.33"/>
</g>
<!-- serve&#45;&gt;object -->
<g id="edge161" class="edge">
<title>serve&#45;&gt;object</title>
<path fill="none" stroke="black" d="M226.39,-1120.85C308.38,-1119.97 558.21,-1114 626.75,-1074 650.4,-1060.2 643.27,-1043.24 662.75,-1024 665.52,-1021.27 668.54,-1018.6 671.68,-1016.05"/>
<polygon fill="black" stroke="black" points="673.62,-1018.97 679.46,-1010.12 669.38,-1013.4 673.62,-1018.97"/>
</g>
<!-- serve&#45;&gt;proto -->
<g id="edge162" class="edge">
<title>serve&#45;&gt;proto</title>
<path fill="none" stroke="black" d="M202.01,-1102.52C207.83,-1050.05 228.19,-896.37 277.25,-779 283.44,-764.18 292.73,-749.02 301.25,-736.62"/>
<polygon fill="black" stroke="black" points="304.04,-738.73 306.97,-728.55 298.33,-734.68 304.04,-738.73"/>
</g>
<!-- serve&#45;&gt;repl -->
<g id="edge163" class="edge">
<title>serve&#45;&gt;repl</title>
<path fill="none" stroke="black" d="M203.22,-1102.77C210.49,-1064.17 231.61,-972.66 277.25,-911 280.06,-907.2 283.42,-903.62 287,-900.32"/>
<polygon fill="black" stroke="black" points="289.04,-903.18 294.49,-894.1 284.56,-897.79 289.04,-903.18"/>
</g>
<!-- serve&#45;&gt;shell -->
<g id="edge164" class="edge">
<title>serve&#45;&gt;shell</title>
<path fill="none" stroke="black" d="M202.39,-1139.43C211.87,-1215.26 249.18,-1500.55 277.25,-1529 312.21,-1564.44 372.55,-1568.92 411.74,-1567.52"/>
<polygon fill="black" stroke="black" points="411.85,-1571.01 421.66,-1567 411.49,-1564.02 411.85,-1571.01"/>
</g>
<!-- serve&#45;&gt;store -->
<g id="edge165" class="edge">
<title>serve&#45;&gt;store</title>
<path fill="none" stroke="black" d="M200.97,-1102.61C203.99,-1055.87 217.5,-930.54 277.25,-850 306.14,-811.06 340.65,-830.33 369,-791 406.82,-738.54 371.37,-705.25 405,-650 433.15,-603.75 459.55,-609.04 496,-569 514.19,-549.02 510.87,-536.84 532,-520 567.89,-491.41 586.02,-500.13 626.75,-479 643.4,-470.37 646.68,-466.66 662.75,-457 665.91,-455.1 669.19,-453.14 672.48,-451.18"/>
<polygon fill="black" stroke="black" points="674.17,-454.25 680.98,-446.13 670.59,-448.23 674.17,-454.25"/>
</g>
<!-- sexp&#45;&gt;parse -->
<g id="edge166" class="edge">
<title>sexp&#45;&gt;parse</title>
<path fill="none" stroke="black" d="M1010.12,-1396.61C1028.98,-1347.91 1080.31,-1215.33 1103.04,-1156.62"/>
<polygon fill="black" stroke="black" points="1106.17,-1158.24 1106.52,-1147.65 1099.64,-1155.71 1106.17,-1158.24"/>
</g>
<!-- sexp&#45;&gt;types -->
<g id="edge167" class="edge">
<title>sexp&#45;&gt;types</title>
<path fill="none" stroke="black" d="M1029.38,-1414.62C1103.48,-1415.1 1314.95,-1427.29 1420.25,-1546 1459.97,-1590.78 1475.77,-1775.34 1480.54,-1848.21"/>
<polygon fill="black" stroke="black" points="1477.05,-1848.41 1481.17,-1858.18 1484.03,-1847.98 1477.05,-1848.41"/>
</g>
<!-- sexpr&#45;api&#45;&gt;inductive -->
<g id="edge168" class="edge">
<title>sexpr&#45;api&#45;&gt;inductive</title>
<path fill="none" stroke="black" d="M720.81,-1628.41C734.51,-1651.11 760.54,-1689.54 792,-1713 797.77,-1717.3 804.31,-1721.03 811,-1724.22"/>
<polygon fill="black" stroke="black" points="809.59,-1727.42 820.16,-1728.2 812.38,-1721 809.59,-1727.42"/>
</g>
<!-- shell&#45;&gt;hol -->
<g id="edge169" class="edge">
<title>shell&#45;&gt;hol</title>
<path fill="none" stroke="black" d="M452.79,-1582.38C459.84,-1680.48 494.64,-2139.78 532,-2190 533.17,-2191.58 737.09,-2281.91 822.46,-2319.68"/>
<polygon fill="black" stroke="black" points="821.03,-2322.87 831.59,-2323.71 823.86,-2316.47 821.03,-2322.87"/>
</g>
<!-- shell&#45;&gt;kernel -->
<g id="edge170" class="edge">
<title>shell&#45;&gt;kernel</title>
<path fill="none" stroke="black" d="M477.9,-1549.06C483.98,-1545.32 490.33,-1541.18 496,-1537 515.47,-1522.65 535.82,-1504.65 551.42,-1490.11"/>
<polygon fill="black" stroke="black" points="553.59,-1492.88 558.47,-1483.47 548.79,-1487.78 553.59,-1492.88"/>
</g>
<!-- smt&#45;&gt;sat -->
<g id="edge171" class="edge">
<title>smt&#45;&gt;sat</title>
<path fill="none" stroke="black" d="M717.11,-1537.82C727,-1510.46 745.44,-1456.89 756,-1410 781.15,-1298.34 721.38,-1245.07 792,-1155 799.54,-1145.38 811.04,-1139.17 822.42,-1135.18"/>
<polygon fill="black" stroke="black" points="823.12,-1138.62 831.7,-1132.41 821.12,-1131.91 823.12,-1138.62"/>
</g>
<!-- smt&#45;&gt;sexp -->
<g id="edge172" class="edge">
<title>smt&#45;&gt;sexp</title>
<path fill="none" stroke="black" d="M736.59,-1537.94C742.98,-1533.45 749.77,-1528.6 756,-1524 772.3,-1511.95 774.2,-1505.71 792,-1496 848.55,-1465.16 869,-1472.07 928.75,-1448 940.48,-1443.27 953.07,-1437.7 964.41,-1432.49"/>
<polygon fill="black" stroke="black" points="965.86,-1435.68 973.45,-1428.29 962.91,-1429.33 965.86,-1435.68"/>
</g>
<!-- smt&#45;&gt;types -->
<g id="edge173" class="edge">
<title>smt&#45;&gt;types</title>
<path fill="none" stroke="black" d="M736.79,-1566.45C752.57,-1572.25 773.15,-1579.08 792,-1583 883.32,-1601.99 907.73,-1602 1001,-1602 1001,-1602 1001,-1602 1239,-1602 1324.14,-1602 1361.5,-1602.38 1420.25,-1664 1469.15,-1715.29 1479.81,-1802.77 1481.92,-1848.37"/>
<polygon fill="black" stroke="black" points="1478.42,-1848.41 1482.26,-1858.28 1485.42,-1848.17 1478.42,-1848.41"/>
</g>
<!-- spectec&#45;&gt;grammar -->
<g id="edge174" class="edge">
<title>spectec&#45;&gt;grammar</title>
<path fill="none" stroke="black" d="M895.17,-1952.8C912.85,-1947.99 934.77,-1942.03 954.06,-1936.77"/>
<polygon fill="black" stroke="black" points="954.88,-1940.18 963.61,-1934.18 953.04,-1933.42 954.88,-1940.18"/>
</g>
<!-- store&#45;&gt;hash -->
<g id="edge175" class="edge">
<title>store&#45;&gt;hash</title>
<path fill="none" stroke="black" d="M736.41,-440.63C743.71,-444.75 751.01,-450.16 756,-457 853.6,-590.61 861.06,-801.19 860.26,-878.38"/>
<polygon fill="black" stroke="black" points="856.76,-878.02 860.09,-888.08 863.76,-878.14 856.76,-878.02"/>
</g>
<!-- store&#45;&gt;json -->
<g id="edge176" class="edge">
<title>store&#45;&gt;json</title>
<path fill="none" stroke="black" d="M718.26,-411.76C730.49,-385.46 756.36,-336.88 792,-308 800.86,-300.82 811.89,-295.34 822.43,-291.25"/>
<polygon fill="black" stroke="black" points="823.43,-294.61 831.71,-287.99 821.11,-288.01 823.43,-294.61"/>
</g>
<!-- store&#45;&gt;sqlite -->
<g id="edge177" class="edge">
<title>store&#45;&gt;sqlite</title>
<path fill="none" stroke="black" d="M736.76,-412.16C743.15,-407.66 749.89,-402.75 756,-398 772.66,-385.03 774.31,-378.52 792,-367 801.5,-360.81 812.39,-355.11 822.6,-350.29"/>
<polygon fill="black" stroke="black" points="823.88,-353.56 831.53,-346.23 820.98,-347.18 823.88,-353.56"/>
</g>
<!-- tcb&#45;db -->
<g id="node62" class="node">
<title>tcb&#45;db</title>
<polygon fill="none" stroke="black" points="739.5,-318 679.25,-318 679.25,-282 739.5,-282 739.5,-318"/>
<text text-anchor="middle" x="709.38" y="-295.7" font-family="sans-serif" font-size="14.00">tcb&#45;db</text>
</g>
<!-- tcb&#45;db&#45;&gt;json -->
<g id="edge178" class="edge">
<title>tcb&#45;db&#45;&gt;json</title>
<path fill="none" stroke="black" d="M739.81,-296.25C763.24,-293.26 796.19,-289.06 821.57,-285.82"/>
<polygon fill="black" stroke="black" points="822.02,-289.29 831.49,-284.56 821.13,-282.35 822.02,-289.29"/>
</g>
<!-- tcb&#45;db&#45;&gt;sqlite -->
<g id="edge179" class="edge">
<title>tcb&#45;db&#45;&gt;sqlite</title>
<path fill="none" stroke="black" d="M739.81,-306.91C763.35,-312.44 796.49,-320.23 821.92,-326.2"/>
<polygon fill="black" stroke="black" points="820.99,-329.58 831.52,-328.46 822.59,-322.76 820.99,-329.58"/>
</g>
<!-- wasm&#45;build&#45;guest -->
<g id="node65" class="node">
<title>wasm&#45;build&#45;guest</title>
<polygon fill="none" stroke="black" points="928.75,-445 792,-445 792,-409 928.75,-409 928.75,-445"/>
<text text-anchor="middle" x="860.38" y="-422.7" font-family="sans-serif" font-size="14.00">wasm&#45;build&#45;guest</text>
</g>
<!-- wasm&#45;build&#45;guest&#45;&gt;wasm -->
<g id="edge180" class="edge">
<title>wasm&#45;build&#45;guest&#45;&gt;wasm</title>
<path fill="none" stroke="black" d="M929.14,-438.16C940.85,-440.09 952.64,-442.03 963.19,-443.77"/>
<polygon fill="black" stroke="black" points="962.57,-447.22 973,-445.39 963.7,-440.31 962.57,-447.22"/>
</g>
<!-- wasm&#45;spec -->
<g id="node66" class="node">
<title>wasm&#45;spec</title>
<polygon fill="none" stroke="black" points="756,-502 662.75,-502 662.75,-466 756,-466 756,-502"/>
<text text-anchor="middle" x="709.38" y="-479.7" font-family="sans-serif" font-size="14.00">wasm&#45;spec</text>
</g>
<!-- wasm&#45;spec&#45;&gt;hash -->
<g id="edge181" class="edge">
<title>wasm&#45;spec&#45;&gt;hash</title>
<path fill="none" stroke="black" d="M725.72,-502.31C735.54,-514.8 747.91,-532.09 756,-549 811.35,-664.7 842.87,-815.87 854.35,-878.67"/>
<polygon fill="black" stroke="black" points="850.85,-878.96 856.06,-888.19 857.74,-877.73 850.85,-878.96"/>
</g>
<!-- wasm&#45;spec&#45;&gt;wasm -->
<g id="edge182" class="edge">
<title>wasm&#45;spec&#45;&gt;wasm</title>
<path fill="none" stroke="black" d="M745.51,-465.59C749.25,-462.95 752.83,-460.08 756,-457 777.49,-436.12 765.76,-414.46 792,-400 845.23,-370.66 870.74,-381.88 928.75,-400 944.8,-405.01 960.43,-414.98 973.02,-424.71"/>
<polygon fill="black" stroke="black" points="970.46,-427.14 980.43,-430.72 974.87,-421.7 970.46,-427.14"/>
</g>
<!-- wasm&#45;store&#45;&gt;json -->
<g id="edge183" class="edge">
<title>wasm&#45;store&#45;&gt;json</title>
<path fill="none" stroke="black" d="M627.07,-231.88C681.91,-243.47 771.74,-262.47 822.12,-273.12"/>
<polygon fill="black" stroke="black" points="821.15,-276.49 831.66,-275.14 822.6,-269.65 821.15,-276.49"/>
</g>
<!-- wasm&#45;store&#45;&gt;store -->
<g id="edge184" class="edge">
<title>wasm&#45;store&#45;&gt;store</title>
<path fill="none" stroke="black" d="M591.73,-240.46C614.22,-277 664.53,-358.75 691.13,-401.97"/>
<polygon fill="black" stroke="black" points="688.03,-403.61 696.25,-410.29 693.99,-399.94 688.03,-403.61"/>
</g>
<!-- wasm&#45;store&#45;&gt;wasm -->
<g id="edge185" class="edge">
<title>wasm&#45;store&#45;&gt;wasm</title>
<path fill="none" stroke="black" d="M627.25,-211.73C700.03,-198.68 840.95,-185.35 928.75,-254 980.72,-294.63 995.31,-376.48 999.41,-420.45"/>
<polygon fill="black" stroke="black" points="995.91,-420.59 1000.19,-430.28 1002.88,-420.03 995.91,-420.59"/>
</g>
<!-- web&#45;kernel -->
<g id="node68" class="node">
<title>web&#45;kernel</title>
<polygon fill="none" stroke="black" points="369,-1520 277.25,-1520 277.25,-1484 369,-1484 369,-1520"/>
<text text-anchor="middle" x="323.12" y="-1497.7" font-family="sans-serif" font-size="14.00">web&#45;kernel</text>
</g>
<!-- web&#45;kernel&#45;&gt;forsp -->
<g id="edge186" class="edge">
<title>web&#45;kernel&#45;&gt;forsp</title>
<path fill="none" stroke="black" d="M333.55,-1483.66C355.25,-1441.43 408.87,-1337.07 434.88,-1286.45"/>
<polygon fill="black" stroke="black" points="437.99,-1288.06 439.45,-1277.57 431.76,-1284.86 437.99,-1288.06"/>
</g>
<!-- web&#45;kernel&#45;&gt;haskell -->
<g id="edge187" class="edge">
<title>web&#45;kernel&#45;&gt;haskell</title>
<path fill="none" stroke="black" d="M327.95,-1520.22C345.81,-1605.42 421.14,-1964.71 443.33,-2070.55"/>
<polygon fill="black" stroke="black" points="439.86,-2071.07 445.34,-2080.14 446.71,-2069.64 439.86,-2071.07"/>
</g>
<!-- web&#45;kernel&#45;&gt;hol&#45;api -->
<g id="edge188" class="edge">
<title>web&#45;kernel&#45;&gt;hol&#45;api</title>
<path fill="none" stroke="black" d="M327.57,-1520.41C335.67,-1564.22 356.22,-1678.17 369,-1774 379.42,-1852.16 367.18,-2057.81 405,-2127 434.55,-2181.05 496.36,-2220.04 537.62,-2241.33"/>
<polygon fill="black" stroke="black" points="536.03,-2244.45 546.54,-2245.81 539.17,-2238.19 536.03,-2244.45"/>
</g>
<!-- web&#45;kernel&#45;&gt;kernel -->
<g id="edge189" class="edge">
<title>web&#45;kernel&#45;&gt;kernel</title>
<path fill="none" stroke="black" d="M369.27,-1490.37C380.86,-1487.67 393.34,-1485 405,-1483 450.72,-1475.15 503.8,-1469.9 539.06,-1466.94"/>
<polygon fill="black" stroke="black" points="539.11,-1470.44 548.79,-1466.14 538.54,-1463.47 539.11,-1470.44"/>
</g>
<!-- web&#45;kernel&#45;&gt;lisp -->
<g id="edge190" class="edge">
<title>web&#45;kernel&#45;&gt;lisp</title>
<path fill="none" stroke="black" d="M369.39,-1504.89C383.38,-1505.78 398.64,-1506.75 412.05,-1507.61"/>
<polygon fill="black" stroke="black" points="411.56,-1511.09 421.76,-1508.23 412.01,-1504.1 411.56,-1511.09"/>
</g>
</g>
</svg>
