<?xml version="1.0" encoding="UTF-8" standalone="no"?>
<!DOCTYPE svg PUBLIC "-//W3C//DTD SVG 1.1//EN"
 "http://www.w3.org/Graphics/SVG/1.1/DTD/svg11.dtd">
<!-- Generated by graphviz version 12.2.1 (0)
 -->
<!-- Title: deps Pages: 1 -->
<svg width="1454pt" height="2204pt"
 viewBox="0.00 0.00 1453.50 2204.00" xmlns="http://www.w3.org/2000/svg" xmlns:xlink="http://www.w3.org/1999/xlink">
<g id="graph0" class="graph" transform="scale(1 1) rotate(0) translate(4 2200)">
<title>deps</title>
<polygon fill="white" stroke="none" points="-4,4 -4,-2200 1449.5,-2200 1449.5,4 -4,4"/>
<!-- covalence -->
<g id="node1" class="node">
<title>covalence</title>
<polygon fill="none" stroke="black" points="102.62,-1102 18.38,-1102 18.38,-1066 102.62,-1066 102.62,-1102"/>
<text text-anchor="middle" x="60.5" y="-1079.7" font-family="sans-serif" font-size="14.00">covalence</text>
</g>
<!-- client -->
<g id="node5" class="node">
<title>client</title>
<polygon fill="none" stroke="black" points="350.12,-1116 296.12,-1116 296.12,-1080 350.12,-1080 350.12,-1116"/>
<text text-anchor="middle" x="323.12" y="-1093.7" font-family="sans-serif" font-size="14.00">client</text>
</g>
<!-- covalence&#45;&gt;client -->
<g id="edge1" class="edge">
<title>covalence&#45;&gt;client</title>
<path fill="none" stroke="black" d="M103.08,-1086.23C153.03,-1088.92 236.1,-1093.38 284.31,-1095.97"/>
<polygon fill="black" stroke="black" points="284.09,-1099.46 294.26,-1096.5 284.46,-1092.47 284.09,-1099.46"/>
</g>
<!-- fuse -->
<g id="node11" class="node">
<title>fuse</title>
<polygon fill="none" stroke="black" points="582.38,-682 528.38,-682 528.38,-646 582.38,-646 582.38,-682"/>
<text text-anchor="middle" x="555.38" y="-659.7" font-family="sans-serif" font-size="14.00">fuse</text>
</g>
<!-- covalence&#45;&gt;fuse -->
<g id="edge2" class="edge">
<title>covalence&#45;&gt;fuse</title>
<path fill="none" stroke="black" d="M64.89,-1065.76C73.78,-1021.62 101.03,-906.96 157,-829 229.94,-727.4 283.49,-725.64 405,-696 443.04,-686.72 486.89,-677.5 517.19,-671.36"/>
<polygon fill="black" stroke="black" points="517.5,-674.87 526.62,-669.46 516.12,-668 517.5,-674.87"/>
</g>
<!-- git -->
<g id="node12" class="node">
<title>git</title>
<polygon fill="none" stroke="black" points="465.5,-591 411.5,-591 411.5,-555 465.5,-555 465.5,-591"/>
<text text-anchor="middle" x="438.5" y="-568.7" font-family="sans-serif" font-size="14.00">git</text>
</g>
<!-- covalence&#45;&gt;git -->
<g id="edge3" class="edge">
<title>covalence&#45;&gt;git</title>
<path fill="none" stroke="black" d="M61.3,-1065.51C61.41,-1000.47 68.57,-778 157,-626 159.24,-622.15 273.08,-521.57 277.25,-520 315.4,-505.59 330.41,-506.81 369,-520 385.14,-525.52 400.43,-536.55 412.45,-547.13"/>
<polygon fill="black" stroke="black" points="409.77,-549.42 419.48,-553.64 414.53,-544.28 409.77,-549.42"/>
</g>
<!-- hash -->
<g id="node15" class="node">
<title>hash</title>
<polygon fill="none" stroke="black" points="863.38,-804 809.38,-804 809.38,-768 863.38,-768 863.38,-804"/>
<text text-anchor="middle" x="836.38" y="-781.7" font-family="sans-serif" font-size="14.00">hash</text>
</g>
<!-- covalence&#45;&gt;hash -->
<g id="edge4" class="edge">
<title>covalence&#45;&gt;hash</title>
<path fill="none" stroke="black" d="M102.77,-1093.56C119.56,-1097.32 139.16,-1101.56 157,-1105 294.47,-1131.53 337.89,-1143.19 472,-1103 531.75,-1085.09 560.24,-1097.64 602.75,-1052 639.54,-1012.5 601.71,-975.26 638.75,-936 669.13,-903.8 695.44,-925.95 732,-901 766.8,-877.25 797.79,-839.4 816.55,-813.66"/>
<polygon fill="black" stroke="black" points="819.29,-815.85 822.25,-805.68 813.59,-811.78 819.29,-815.85"/>
</g>
<!-- hol -->
<g id="node17" class="node">
<title>hol</title>
<polygon fill="none" stroke="black" points="863.38,-1864 809.38,-1864 809.38,-1828 863.38,-1828 863.38,-1864"/>
<text text-anchor="middle" x="836.38" y="-1841.7" font-family="sans-serif" font-size="14.00">hol</text>
</g>
<!-- covalence&#45;&gt;hol -->
<g id="edge5" class="edge">
<title>covalence&#45;&gt;hol</title>
<path fill="none" stroke="black" d="M102.86,-1095.76C109.92,-1099.54 116.44,-1104.5 121,-1111 179.02,-1193.65 131.86,-1466.19 157,-1564 201.42,-1736.84 143.67,-1930 322.12,-1930 322.12,-1930 322.12,-1930 439.5,-1930 573.94,-1930 728.57,-1883.07 798.1,-1859.37"/>
<polygon fill="black" stroke="black" points="799.17,-1862.7 807.48,-1856.13 796.88,-1856.09 799.17,-1862.7"/>
</g>
<!-- lsp -->
<g id="node30" class="node">
<title>lsp</title>
<polygon fill="none" stroke="black" points="863.38,-970 809.38,-970 809.38,-934 863.38,-934 863.38,-970"/>
<text text-anchor="middle" x="836.38" y="-947.7" font-family="sans-serif" font-size="14.00">lsp</text>
</g>
<!-- covalence&#45;&gt;lsp -->
<g id="edge6" class="edge">
<title>covalence&#45;&gt;lsp</title>
<path fill="none" stroke="black" d="M102.98,-1096.44C109.85,-1100.15 116.27,-1104.91 121,-1111 177.19,-1183.38 98.9,-1243.15 157,-1314 218.2,-1388.63 273.85,-1377.15 369,-1361 481.46,-1341.91 536.96,-1348.19 602.75,-1255 664.45,-1167.6 569.76,-1098.77 638.75,-1017 659.45,-992.46 746.96,-970.53 797.99,-959.5"/>
<polygon fill="black" stroke="black" points="798.66,-962.94 807.72,-957.45 797.21,-956.09 798.66,-962.94"/>
</g>
<!-- object -->
<g id="node33" class="node">
<title>object</title>
<polygon fill="none" stroke="black" points="714,-856 656.75,-856 656.75,-820 714,-820 714,-856"/>
<text text-anchor="middle" x="685.38" y="-833.7" font-family="sans-serif" font-size="14.00">object</text>
</g>
<!-- covalence&#45;&gt;object -->
<g id="edge7" class="edge">
<title>covalence&#45;&gt;object</title>
<path fill="none" stroke="black" d="M103.06,-1096.79C109.84,-1100.45 116.2,-1105.11 121,-1111 166.77,-1167.17 105.52,-1219.02 157,-1270 256.74,-1368.77 357.22,-1373.81 472,-1293 507.9,-1267.72 490.39,-1241.22 508,-1201 546.64,-1112.73 560.64,-1092.67 602.75,-1006 626.66,-956.79 654.51,-899.46 670.72,-866.1"/>
<polygon fill="black" stroke="black" points="673.67,-868.03 674.9,-857.51 667.38,-864.97 673.67,-868.03"/>
</g>
<!-- opentheory -->
<g id="node34" class="node">
<title>opentheory</title>
<polygon fill="none" stroke="black" points="368.62,-1803 277.62,-1803 277.62,-1767 368.62,-1767 368.62,-1803"/>
<text text-anchor="middle" x="323.12" y="-1780.7" font-family="sans-serif" font-size="14.00">opentheory</text>
</g>
<!-- covalence&#45;&gt;opentheory -->
<g id="edge8" class="edge">
<title>covalence&#45;&gt;opentheory</title>
<path fill="none" stroke="black" d="M102.98,-1096.05C109.94,-1099.8 116.39,-1104.67 121,-1111 162.23,-1167.59 140.35,-1355.99 157,-1424 192.54,-1569.15 197.36,-1611.71 277.25,-1738 281.81,-1745.21 287.59,-1752.26 293.48,-1758.62"/>
<polygon fill="black" stroke="black" points="290.92,-1761.01 300.4,-1765.73 295.93,-1756.12 290.92,-1761.01"/>
</g>
<!-- proto -->
<g id="node38" class="node">
<title>proto</title>
<polygon fill="none" stroke="black" points="350.12,-565 296.12,-565 296.12,-529 350.12,-529 350.12,-565"/>
<text text-anchor="middle" x="323.12" y="-542.7" font-family="sans-serif" font-size="14.00">proto</text>
</g>
<!-- covalence&#45;&gt;proto -->
<g id="edge9" class="edge">
<title>covalence&#45;&gt;proto</title>
<path fill="none" stroke="black" d="M60.83,-1065.51C59.55,-1003.53 63.05,-799.95 157,-674 182.77,-639.46 208.78,-654.34 241.25,-626 261.07,-608.7 258.33,-597.29 277.25,-579 280.25,-576.1 283.52,-573.27 286.9,-570.55"/>
<polygon fill="black" stroke="black" points="288.88,-573.44 294.73,-564.61 284.64,-567.87 288.88,-573.44"/>
</g>
<!-- repl -->
<g id="node44" class="node">
<title>repl</title>
<polygon fill="none" stroke="black" points="350.12,-850 296.12,-850 296.12,-814 350.12,-814 350.12,-850"/>
<text text-anchor="middle" x="323.12" y="-827.7" font-family="sans-serif" font-size="14.00">repl</text>
</g>
<!-- covalence&#45;&gt;repl -->
<g id="edge10" class="edge">
<title>covalence&#45;&gt;repl</title>
<path fill="none" stroke="black" d="M80.24,-1065.88C125.68,-1021.94 241.88,-909.59 294.95,-858.28"/>
<polygon fill="black" stroke="black" points="297.36,-860.82 302.11,-851.35 292.49,-855.78 297.36,-860.82"/>
</g>
<!-- serve -->
<g id="node47" class="node">
<title>serve</title>
<polygon fill="none" stroke="black" points="226.12,-874 172.12,-874 172.12,-838 226.12,-838 226.12,-874"/>
<text text-anchor="middle" x="199.12" y="-851.7" font-family="sans-serif" font-size="14.00">serve</text>
</g>
<!-- covalence&#45;&gt;serve -->
<g id="edge11" class="edge">
<title>covalence&#45;&gt;serve</title>
<path fill="none" stroke="black" d="M72.45,-1065.73C96.28,-1025.95 152.99,-931.32 181.36,-883.98"/>
<polygon fill="black" stroke="black" points="184.21,-886.03 186.35,-875.66 178.2,-882.44 184.21,-886.03"/>
</g>
<!-- shell -->
<g id="node49" class="node">
<title>shell</title>
<polygon fill="none" stroke="black" points="465.5,-1284 411.5,-1284 411.5,-1248 465.5,-1248 465.5,-1284"/>
<text text-anchor="middle" x="438.5" y="-1261.7" font-family="sans-serif" font-size="14.00">shell</text>
</g>
<!-- covalence&#45;&gt;shell -->
<g id="edge12" class="edge">
<title>covalence&#45;&gt;shell</title>
<path fill="none" stroke="black" d="M103.07,-1097.2C109.76,-1100.81 116.09,-1105.35 121,-1111 158.33,-1154.02 117.16,-1193.3 157,-1234 220.78,-1299.15 339.96,-1286.52 400.37,-1274.74"/>
<polygon fill="black" stroke="black" points="400.71,-1278.24 409.8,-1272.8 399.3,-1271.39 400.71,-1278.24"/>
</g>
<!-- store -->
<g id="node53" class="node">
<title>store</title>
<polygon fill="none" stroke="black" points="712.38,-416 658.38,-416 658.38,-380 712.38,-380 712.38,-416"/>
<text text-anchor="middle" x="685.38" y="-393.7" font-family="sans-serif" font-size="14.00">store</text>
</g>
<!-- covalence&#45;&gt;store -->
<g id="edge13" class="edge">
<title>covalence&#45;&gt;store</title>
<path fill="none" stroke="black" d="M62.42,-1065.73C67,-981.56 89.86,-631.81 157,-550 182.51,-518.91 206.98,-538.04 241.25,-517 324.34,-465.97 313.89,-405.72 405,-371 487.22,-339.67 592.44,-365.97 647.31,-384.19"/>
<polygon fill="black" stroke="black" points="645.88,-387.4 656.48,-387.32 648.15,-380.77 645.88,-387.4"/>
</g>
<!-- wasm -->
<g id="node56" class="node">
<title>wasm</title>
<polygon fill="none" stroke="black" points="1004.75,-259 950.5,-259 950.5,-223 1004.75,-223 1004.75,-259"/>
<text text-anchor="middle" x="977.62" y="-236.7" font-family="sans-serif" font-size="14.00">wasm</text>
</g>
<!-- covalence&#45;&gt;wasm -->
<g id="edge14" class="edge">
<title>covalence&#45;&gt;wasm</title>
<path fill="none" stroke="black" d="M63.16,-1065.62C68.67,-1012.13 90.04,-853.38 157,-743 183.62,-699.11 208.56,-703.57 241.25,-664 260.33,-640.9 253.88,-625.76 277.25,-607 311.04,-579.87 341.07,-607.13 369,-574 428.07,-503.95 338.64,-434.19 405,-371 453.47,-324.85 487.45,-352 554.38,-352 554.38,-352 554.38,-352 686.38,-352 783.8,-352 819.12,-379.47 904.75,-333 930.93,-318.79 950.74,-290.58 962.86,-269.12"/>
<polygon fill="black" stroke="black" points="965.82,-271.02 967.47,-260.56 959.65,-267.7 965.82,-271.02"/>
</g>
<!-- acset -->
<g id="node2" class="node">
<title>acset</title>
<polygon fill="none" stroke="black" points="863.38,-1062 809.38,-1062 809.38,-1026 863.38,-1026 863.38,-1062"/>
<text text-anchor="middle" x="836.38" y="-1039.7" font-family="sans-serif" font-size="14.00">acset</text>
</g>
<!-- alethe -->
<g id="node3" class="node">
<title>alethe</title>
<polygon fill="none" stroke="black" points="583.62,-1644 527.12,-1644 527.12,-1608 583.62,-1608 583.62,-1644"/>
<text text-anchor="middle" x="555.38" y="-1621.7" font-family="sans-serif" font-size="14.00">alethe</text>
</g>
<!-- core -->
<g id="node6" class="node">
<title>core</title>
<polygon fill="#ffd6d6" stroke="black" points="1004.62,-1869 950.62,-1869 950.62,-1833 1004.62,-1833 1004.62,-1869"/>
<text text-anchor="middle" x="977.62" y="-1846.7" font-family="sans-serif" font-size="14.00">core</text>
</g>
<!-- alethe&#45;&gt;core -->
<g id="edge15" class="edge">
<title>alethe&#45;&gt;core</title>
<path fill="none" stroke="black" d="M583.99,-1630.09C621.01,-1636.74 687.23,-1652.87 732,-1688 754.98,-1706.03 744.71,-1725.37 768,-1743 818.8,-1781.45 849.46,-1754.35 904.75,-1786 922.48,-1796.15 939.55,-1811.29 952.61,-1824.41"/>
<polygon fill="black" stroke="black" points="950.07,-1826.81 959.53,-1831.57 955.1,-1821.95 950.07,-1826.81"/>
</g>
<!-- hol&#45;eval -->
<g id="node19" class="node">
<title>hol&#45;eval</title>
<polygon fill="none" stroke="black" points="871.38,-1994 801.38,-1994 801.38,-1958 871.38,-1958 871.38,-1994"/>
<text text-anchor="middle" x="836.38" y="-1971.7" font-family="sans-serif" font-size="14.00">hol&#45;eval</text>
</g>
<!-- alethe&#45;&gt;hol&#45;eval -->
<g id="edge16" class="edge">
<title>alethe&#45;&gt;hol&#45;eval</title>
<path fill="none" stroke="black" d="M570.98,-1644.32C617.03,-1702.09 759.31,-1880.58 813.82,-1948.96"/>
<polygon fill="black" stroke="black" points="811,-1951.04 819.97,-1956.67 816.47,-1946.67 811,-1951.04"/>
</g>
<!-- init -->
<g id="node21" class="node">
<title>init</title>
<polygon fill="none" stroke="black" points="712.38,-1560 658.38,-1560 658.38,-1524 712.38,-1524 712.38,-1560"/>
<text text-anchor="middle" x="685.38" y="-1537.7" font-family="sans-serif" font-size="14.00">init</text>
</g>
<!-- alethe&#45;&gt;init -->
<g id="edge17" class="edge">
<title>alethe&#45;&gt;init</title>
<path fill="none" stroke="black" d="M583.83,-1607.98C602.86,-1595.5 628.36,-1578.76 648.92,-1565.27"/>
<polygon fill="black" stroke="black" points="650.57,-1568.37 657.01,-1559.96 646.73,-1562.52 650.57,-1568.37"/>
</g>
<!-- sexp -->
<g id="node48" class="node">
<title>sexp</title>
<polygon fill="none" stroke="black" points="1004.62,-1257 950.62,-1257 950.62,-1221 1004.62,-1221 1004.62,-1257"/>
<text text-anchor="middle" x="977.62" y="-1234.7" font-family="sans-serif" font-size="14.00">sexp</text>
</g>
<!-- alethe&#45;&gt;sexp -->
<g id="edge18" class="edge">
<title>alethe&#45;&gt;sexp</title>
<path fill="none" stroke="black" d="M557.71,-1607.68C561.88,-1562.94 578.24,-1446.62 638.75,-1376 721.35,-1279.61 785.54,-1315.61 904.75,-1272 916.48,-1267.71 928.94,-1262.3 940.14,-1257.12"/>
<polygon fill="black" stroke="black" points="941.51,-1260.34 949.06,-1252.9 938.52,-1254.01 941.51,-1260.34"/>
</g>
<!-- smt -->
<g id="node50" class="node">
<title>smt</title>
<polygon fill="none" stroke="black" points="712.38,-1421 658.38,-1421 658.38,-1385 712.38,-1385 712.38,-1421"/>
<text text-anchor="middle" x="685.38" y="-1398.7" font-family="sans-serif" font-size="14.00">smt</text>
</g>
<!-- alethe&#45;&gt;smt -->
<g id="edge19" class="edge">
<title>alethe&#45;&gt;smt</title>
<path fill="none" stroke="black" d="M566.85,-1607.75C589.17,-1568.86 641.56,-1477.59 668.2,-1431.17"/>
<polygon fill="black" stroke="black" points="671.24,-1432.92 673.18,-1422.5 665.17,-1429.43 671.24,-1432.92"/>
</g>
<!-- types -->
<g id="node55" class="node">
<title>types</title>
<polygon fill="#ffd6d6" stroke="black" points="1445.5,-1837 1391.5,-1837 1391.5,-1801 1445.5,-1801 1445.5,-1837"/>
<text text-anchor="middle" x="1418.5" y="-1814.7" font-family="sans-serif" font-size="14.00">types</text>
</g>
<!-- alethe&#45;&gt;types -->
<g id="edge20" class="edge">
<title>alethe&#45;&gt;types</title>
<path fill="none" stroke="black" d="M584.09,-1627.84C618.73,-1630.23 679.81,-1634.72 732,-1640 840.98,-1651.02 867.09,-1670 976.62,-1670 976.62,-1670 976.62,-1670 1194.25,-1670 1281.08,-1670 1359.78,-1748.93 1396.19,-1791.9"/>
<polygon fill="black" stroke="black" points="1393.46,-1794.1 1402.54,-1799.56 1398.85,-1789.63 1393.46,-1794.1"/>
</g>
<!-- arrow -->
<g id="node4" class="node">
<title>arrow</title>
<polygon fill="none" stroke="black" points="582.38,-850 528.38,-850 528.38,-814 582.38,-814 582.38,-850"/>
<text text-anchor="middle" x="555.38" y="-827.7" font-family="sans-serif" font-size="14.00">arrow</text>
</g>
<!-- client&#45;&gt;hash -->
<g id="edge21" class="edge">
<title>client&#45;&gt;hash</title>
<path fill="none" stroke="black" d="M350.46,-1098.42C380.58,-1098.16 431.03,-1095.45 472,-1082 535.86,-1061.04 559.54,-1057.49 602.75,-1006 632.58,-970.46 607.28,-942.1 638.75,-908 669.7,-874.46 692.91,-888.55 732,-865 758.17,-849.23 785.55,-828.07 805.55,-811.61"/>
<polygon fill="black" stroke="black" points="807.58,-814.48 813.03,-805.39 803.1,-809.1 807.58,-814.48"/>
</g>
<!-- client&#45;&gt;shell -->
<g id="edge22" class="edge">
<title>client&#45;&gt;shell</title>
<path fill="none" stroke="black" d="M350.59,-1113.66C357.14,-1118.36 363.77,-1123.9 369,-1130 396.65,-1162.24 416.58,-1207.58 427.58,-1236.88"/>
<polygon fill="black" stroke="black" points="424.27,-1238.01 430.97,-1246.21 430.85,-1235.62 424.27,-1238.01"/>
</g>
<!-- client&#45;&gt;store -->
<g id="edge23" class="edge">
<title>client&#45;&gt;store</title>
<path fill="none" stroke="black" d="M339.17,-1079.53C369.63,-1041.09 438.54,-948.59 472,-859 506.97,-765.36 469.24,-729.13 508,-637 544.41,-550.47 618.23,-466.14 657.84,-424.65"/>
<polygon fill="black" stroke="black" points="660.27,-427.17 664.7,-417.54 655.23,-422.31 660.27,-427.17"/>
</g>
<!-- pure -->
<g id="node39" class="node">
<title>pure</title>
<polygon fill="#ffd6d6" stroke="black" points="1220.25,-1929 1166.25,-1929 1166.25,-1893 1220.25,-1893 1220.25,-1929"/>
<text text-anchor="middle" x="1193.25" y="-1906.7" font-family="sans-serif" font-size="14.00">pure</text>
</g>
<!-- core&#45;&gt;pure -->
<g id="edge24" class="edge">
<title>core&#45;&gt;pure</title>
<path fill="none" stroke="black" d="M1005.1,-1869.38C1018.19,-1877.59 1034.58,-1886.62 1050.5,-1892 1084.61,-1903.53 1125.57,-1908.09 1154.66,-1909.88"/>
<polygon fill="black" stroke="black" points="1154.28,-1913.37 1164.45,-1910.4 1154.65,-1906.38 1154.28,-1913.37"/>
</g>
<!-- pure&#45;eval -->
<g id="node40" class="node">
<title>pure&#45;eval</title>
<polygon fill="#ffd6d6" stroke="black" points="1130.25,-1883 1050.5,-1883 1050.5,-1847 1130.25,-1847 1130.25,-1883"/>
<text text-anchor="middle" x="1090.38" y="-1860.7" font-family="sans-serif" font-size="14.00">pure&#45;eval</text>
</g>
<!-- core&#45;&gt;pure&#45;eval -->
<g id="edge25" class="edge">
<title>core&#45;&gt;pure&#45;eval</title>
<path fill="none" stroke="black" d="M1004.87,-1854.32C1015.15,-1855.62 1027.3,-1857.15 1039.13,-1858.65"/>
<polygon fill="black" stroke="black" points="1038.44,-1862.09 1048.8,-1859.87 1039.32,-1855.14 1038.44,-1862.09"/>
</g>
<!-- core&#45;&gt;types -->
<g id="edge26" class="edge">
<title>core&#45;&gt;types</title>
<path fill="none" stroke="black" d="M1004.79,-1845.44C1018.37,-1842.77 1035.26,-1839.77 1050.5,-1838 1170.37,-1824.11 1313.45,-1820.37 1380.01,-1819.37"/>
<polygon fill="black" stroke="black" points="1379.68,-1822.87 1389.64,-1819.24 1379.59,-1815.87 1379.68,-1822.87"/>
</g>
<!-- core&#45;test&#45;guest -->
<g id="node7" class="node">
<title>core&#45;test&#45;guest</title>
<polygon fill="none" stroke="black" points="121,-1156 0,-1156 0,-1120 121,-1120 121,-1156"/>
<text text-anchor="middle" x="60.5" y="-1133.7" font-family="sans-serif" font-size="14.00">core&#45;test&#45;guest</text>
</g>
<!-- crypto&#45;sig -->
<g id="node8" class="node">
<title>crypto&#45;sig</title>
<polygon fill="none" stroke="black" points="241.25,-102 157,-102 157,-66 241.25,-66 241.25,-102"/>
<text text-anchor="middle" x="199.12" y="-79.7" font-family="sans-serif" font-size="14.00">crypto&#45;sig</text>
</g>
<!-- egglog -->
<g id="node9" class="node">
<title>egglog</title>
<polygon fill="none" stroke="black" points="866.88,-1436 805.88,-1436 805.88,-1400 866.88,-1400 866.88,-1436"/>
<text text-anchor="middle" x="836.38" y="-1413.7" font-family="sans-serif" font-size="14.00">egglog</text>
</g>
<!-- egglog&#45;&gt;sexp -->
<g id="edge27" class="edge">
<title>egglog&#45;&gt;sexp</title>
<path fill="none" stroke="black" d="M867.22,-1408.83C880,-1403.73 894.34,-1396.29 904.75,-1386 938.39,-1352.74 958.68,-1300.54 968.75,-1268.12"/>
<polygon fill="black" stroke="black" points="972.09,-1269.17 971.58,-1258.59 965.38,-1267.18 972.09,-1269.17"/>
</g>
<!-- egglog&#45;&gt;types -->
<g id="edge28" class="edge">
<title>egglog&#45;&gt;types</title>
<path fill="none" stroke="black" d="M867.24,-1418.78C914.42,-1419.94 1009.08,-1422 1089.38,-1422 1089.38,-1422 1089.38,-1422 1194.25,-1422 1266.99,-1422 1304.21,-1398.43 1355.5,-1450 1403,-1497.76 1414.23,-1710.34 1416.78,-1789.32"/>
<polygon fill="black" stroke="black" points="1413.28,-1789.4 1417.08,-1799.29 1420.28,-1789.19 1413.28,-1789.4"/>
</g>
<!-- forsp -->
<g id="node10" class="node">
<title>forsp</title>
<polygon fill="none" stroke="black" points="712.38,-1116 658.38,-1116 658.38,-1080 712.38,-1080 712.38,-1116"/>
<text text-anchor="middle" x="685.38" y="-1093.7" font-family="sans-serif" font-size="14.00">forsp</text>
</g>
<!-- forsp&#45;&gt;hash -->
<g id="edge29" class="edge">
<title>forsp&#45;&gt;hash</title>
<path fill="none" stroke="black" d="M712.82,-1087.05C719.95,-1082.96 727.06,-1077.65 732,-1071 771.86,-1017.36 745.3,-987.86 768,-925 782.38,-885.19 804.64,-841.63 819.59,-814.08"/>
<polygon fill="black" stroke="black" points="822.47,-816.12 824.21,-805.67 816.33,-812.75 822.47,-816.12"/>
</g>
<!-- forsp&#45;&gt;sexp -->
<g id="edge30" class="edge">
<title>forsp&#45;&gt;sexp</title>
<path fill="none" stroke="black" d="M712.64,-1091.7C756.24,-1082.81 844.69,-1071.51 904.75,-1109 940.83,-1131.52 960.25,-1178.98 969.51,-1209.9"/>
<polygon fill="black" stroke="black" points="966.1,-1210.71 972.16,-1219.4 972.84,-1208.82 966.1,-1210.71"/>
</g>
<!-- fuse&#45;&gt;hash -->
<g id="edge31" class="edge">
<title>fuse&#45;&gt;hash</title>
<path fill="none" stroke="black" d="M582.86,-673.73C617.5,-686.65 679.91,-710.57 732,-734 754.52,-744.13 779.24,-756.52 798.87,-766.66"/>
<polygon fill="black" stroke="black" points="797.08,-769.68 807.57,-771.19 800.31,-763.47 797.08,-769.68"/>
</g>
<!-- fuse&#45;&gt;object -->
<g id="edge32" class="edge">
<title>fuse&#45;&gt;object</title>
<path fill="none" stroke="black" d="M582.54,-679.07C589.62,-683.91 596.92,-689.67 602.75,-696 634.32,-730.28 658.92,-778.86 672.54,-809.38"/>
<polygon fill="black" stroke="black" points="669.24,-810.59 676.44,-818.37 675.66,-807.8 669.24,-810.59"/>
</g>
<!-- fuse&#45;&gt;store -->
<g id="edge33" class="edge">
<title>fuse&#45;&gt;store</title>
<path fill="none" stroke="black" d="M582.45,-650.96C590.04,-646 597.65,-639.65 602.75,-632 645.37,-568.12 608.07,-533.4 638.75,-463 644.5,-449.8 653.15,-436.56 661.38,-425.5"/>
<polygon fill="black" stroke="black" points="664.14,-427.65 667.49,-417.6 658.6,-423.37 664.14,-427.65"/>
</g>
<!-- git&#45;&gt;hash -->
<g id="edge34" class="edge">
<title>git&#45;&gt;hash</title>
<path fill="none" stroke="black" d="M465.67,-580.1C518.77,-595.26 641.77,-634.15 732,-692 761.84,-711.13 791.3,-739.05 811.08,-759.49"/>
<polygon fill="black" stroke="black" points="808.47,-761.82 817.9,-766.65 813.54,-756.99 808.47,-761.82"/>
</g>
<!-- git&#45;&gt;object -->
<g id="edge35" class="edge">
<title>git&#45;&gt;object</title>
<path fill="none" stroke="black" d="M447.7,-591.45C459.07,-615.81 481.26,-659.32 508,-691 549.71,-740.43 609.4,-786.25 647.52,-813.18"/>
<polygon fill="black" stroke="black" points="645.28,-815.89 655.48,-818.75 649.29,-810.15 645.28,-815.89"/>
</g>
<!-- sqlite -->
<g id="node52" class="node">
<title>sqlite</title>
<polygon fill="none" stroke="black" points="863.38,-416 809.38,-416 809.38,-380 863.38,-380 863.38,-416"/>
<text text-anchor="middle" x="836.38" y="-393.7" font-family="sans-serif" font-size="14.00">sqlite</text>
</g>
<!-- git&#45;&gt;sqlite -->
<g id="edge36" class="edge">
<title>git&#45;&gt;sqlite</title>
<path fill="none" stroke="black" d="M465.77,-556.43C503.14,-533.34 574.3,-491.16 638.75,-463 692.69,-439.44 758.06,-419.43 798.18,-408.06"/>
<polygon fill="black" stroke="black" points="798.89,-411.5 807.58,-405.43 797.01,-404.76 798.89,-411.5"/>
</g>
<!-- git&#45;&gt;store -->
<g id="edge37" class="edge">
<title>git&#45;&gt;store</title>
<path fill="none" stroke="black" d="M456.5,-554.77C461.86,-548.48 467.55,-541.19 472,-534 492.95,-500.16 478.26,-478.46 508,-452 546.92,-417.37 607.59,-404.95 646.66,-400.49"/>
<polygon fill="black" stroke="black" points="646.94,-403.98 656.54,-399.5 646.24,-397.02 646.94,-403.98"/>
</g>
<!-- grammar -->
<g id="node13" class="node">
<title>grammar</title>
<polygon fill="none" stroke="black" points="1014.5,-1585 940.75,-1585 940.75,-1549 1014.5,-1549 1014.5,-1585"/>
<text text-anchor="middle" x="977.62" y="-1562.7" font-family="sans-serif" font-size="14.00">grammar</text>
</g>
<!-- graph -->
<g id="node14" class="node">
<title>graph</title>
<polygon fill="none" stroke="black" points="465.5,-416 411.5,-416 411.5,-380 465.5,-380 465.5,-416"/>
<text text-anchor="middle" x="438.5" y="-393.7" font-family="sans-serif" font-size="14.00">graph</text>
</g>
<!-- graph&#45;&gt;hash -->
<g id="edge38" class="edge">
<title>graph&#45;&gt;hash</title>
<path fill="none" stroke="black" d="M465.73,-414.89C503.36,-438.83 575.13,-483.46 638.75,-517 679.12,-538.29 699.78,-527.68 732,-560 788.45,-616.62 817.34,-709.68 828.99,-756.76"/>
<polygon fill="black" stroke="black" points="825.52,-757.3 831.24,-766.22 832.33,-755.68 825.52,-757.3"/>
</g>
<!-- parse -->
<g id="node36" class="node">
<title>parse</title>
<polygon fill="none" stroke="black" points="1117.38,-953 1063.38,-953 1063.38,-917 1117.38,-917 1117.38,-953"/>
<text text-anchor="middle" x="1090.38" y="-930.7" font-family="sans-serif" font-size="14.00">parse</text>
</g>
<!-- graph&#45;&gt;parse -->
<g id="edge39" class="edge">
<title>graph&#45;&gt;parse</title>
<path fill="none" stroke="black" d="M440.01,-379.57C442.15,-337.32 453.03,-232.28 508,-170 564.72,-105.74 598.66,-92 684.38,-92 684.38,-92 684.38,-92 837.38,-92 932.96,-92 970.98,-128.89 1014.5,-214 1077.79,-337.77 1087.61,-784.91 1089.11,-905.09"/>
<polygon fill="black" stroke="black" points="1085.61,-905.11 1089.22,-915.07 1092.61,-905.03 1085.61,-905.11"/>
</g>
<!-- rand -->
<g id="node43" class="node">
<title>rand</title>
<polygon fill="none" stroke="black" points="1004.62,-804 950.62,-804 950.62,-768 1004.62,-768 1004.62,-804"/>
<text text-anchor="middle" x="977.62" y="-781.7" font-family="sans-serif" font-size="14.00">rand</text>
</g>
<!-- hash&#45;&gt;rand -->
<g id="edge40" class="edge">
<title>hash&#45;&gt;rand</title>
<path fill="none" stroke="black" d="M863.57,-786C884.86,-786 915.19,-786 939.07,-786"/>
<polygon fill="black" stroke="black" points="939.04,-789.5 949.04,-786 939.04,-782.5 939.04,-789.5"/>
</g>
<!-- haskell -->
<g id="node16" class="node">
<title>haskell</title>
<polygon fill="none" stroke="black" points="469.75,-2089 407.25,-2089 407.25,-2053 469.75,-2053 469.75,-2089"/>
<text text-anchor="middle" x="438.5" y="-2066.7" font-family="sans-serif" font-size="14.00">haskell</text>
</g>
<!-- hol&#45;api -->
<g id="node18" class="node">
<title>hol&#45;api</title>
<polygon fill="none" stroke="black" points="586.62,-2066 524.12,-2066 524.12,-2030 586.62,-2030 586.62,-2066"/>
<text text-anchor="middle" x="555.38" y="-2043.7" font-family="sans-serif" font-size="14.00">hol&#45;api</text>
</g>
<!-- haskell&#45;&gt;hol&#45;api -->
<g id="edge41" class="edge">
<title>haskell&#45;&gt;hol&#45;api</title>
<path fill="none" stroke="black" d="M469.98,-2064.9C483.09,-2062.27 498.63,-2059.16 512.78,-2056.33"/>
<polygon fill="black" stroke="black" points="513.15,-2059.82 522.27,-2054.43 511.77,-2052.96 513.15,-2059.82"/>
</g>
<!-- haskell&#45;&gt;hol&#45;eval -->
<g id="edge42" class="edge">
<title>haskell&#45;&gt;hol&#45;eval</title>
<path fill="none" stroke="black" d="M470.17,-2073.17C481.99,-2073.91 495.62,-2074.64 508,-2075 608.52,-2077.93 639.72,-2082.98 732,-2043 757.3,-2032.04 783.33,-2015.13 802.94,-2001.04"/>
<polygon fill="black" stroke="black" points="804.8,-2004.02 810.8,-1995.28 800.67,-1998.37 804.8,-2004.02"/>
</g>
<!-- haskell&#45;&gt;init -->
<g id="edge43" class="edge">
<title>haskell&#45;&gt;init</title>
<path fill="none" stroke="black" d="M443.22,-2052.51C449.66,-2020.09 463.05,-1950.86 472,-1892 481.86,-1827.15 466.23,-1649.58 508,-1599 517.08,-1588.01 598.09,-1564.92 647.11,-1551.75"/>
<polygon fill="black" stroke="black" points="647.71,-1555.22 656.47,-1549.26 645.9,-1548.45 647.71,-1555.22"/>
</g>
<!-- haskell&#45;&gt;types -->
<g id="edge44" class="edge">
<title>haskell&#45;&gt;types</title>
<path fill="none" stroke="black" d="M459.34,-2089.44C498.9,-2124.22 591.78,-2196 684.38,-2196 684.38,-2196 684.38,-2196 1194.25,-2196 1276.98,-2196 1306.67,-2169.79 1355.5,-2103 1385.16,-2062.43 1406.2,-1913.09 1414.07,-1848.78"/>
<polygon fill="black" stroke="black" points="1417.54,-1849.31 1415.25,-1838.96 1410.59,-1848.47 1417.54,-1849.31"/>
</g>
<!-- hol&#45;&gt;core -->
<g id="edge45" class="edge">
<title>hol&#45;&gt;core</title>
<path fill="none" stroke="black" d="M863.57,-1846.94C884.86,-1847.71 915.19,-1848.79 939.07,-1849.65"/>
<polygon fill="black" stroke="black" points="938.92,-1853.15 949.04,-1850.01 939.17,-1846.15 938.92,-1853.15"/>
</g>
<!-- hol&#45;api&#45;&gt;core -->
<g id="edge46" class="edge">
<title>hol&#45;api&#45;&gt;core</title>
<path fill="none" stroke="black" d="M587.01,-2032.09C627.67,-2011.34 702.04,-1974.67 768,-1949 827.37,-1925.9 848.21,-1935.36 904.75,-1906 920.01,-1898.08 935.36,-1886.88 947.93,-1876.65"/>
<polygon fill="black" stroke="black" points="949.97,-1879.51 955.39,-1870.41 945.48,-1874.14 949.97,-1879.51"/>
</g>
<!-- hol&#45;api&#45;&gt;hol&#45;eval -->
<g id="edge47" class="edge">
<title>hol&#45;api&#45;&gt;hol&#45;eval</title>
<path fill="none" stroke="black" d="M587.01,-2045.4C622.45,-2041.88 682.3,-2034.3 732,-2020 751.81,-2014.3 772.87,-2005.81 790.79,-1997.8"/>
<polygon fill="black" stroke="black" points="792.2,-2001.01 799.84,-1993.67 789.29,-1994.64 792.2,-2001.01"/>
</g>
<!-- inductive -->
<g id="node20" class="node">
<title>inductive</title>
<polygon fill="none" stroke="black" points="874.75,-1734 798,-1734 798,-1698 874.75,-1698 874.75,-1734"/>
<text text-anchor="middle" x="836.38" y="-1711.7" font-family="sans-serif" font-size="14.00">inductive</text>
</g>
<!-- hol&#45;api&#45;&gt;inductive -->
<g id="edge48" class="edge">
<title>hol&#45;api&#45;&gt;inductive</title>
<path fill="none" stroke="black" d="M566.13,-2029.67C580.47,-2003.38 608.82,-1953.98 638.75,-1916 692.13,-1848.27 765.76,-1778.53 806.07,-1741.98"/>
<polygon fill="black" stroke="black" points="808.41,-1744.58 813.5,-1735.28 803.73,-1739.38 808.41,-1744.58"/>
</g>
<!-- hol&#45;api&#45;&gt;init -->
<g id="edge49" class="edge">
<title>hol&#45;api&#45;&gt;init</title>
<path fill="none" stroke="black" d="M561.35,-2029.63C569.96,-1997.79 588.11,-1930.25 602.75,-1873 631.16,-1761.92 663.31,-1629.41 677.28,-1571.52"/>
<polygon fill="black" stroke="black" points="680.68,-1572.34 679.62,-1561.8 673.87,-1570.7 680.68,-1572.34"/>
</g>
<!-- hol&#45;api&#45;&gt;pure -->
<g id="edge50" class="edge">
<title>hol&#45;api&#45;&gt;pure</title>
<path fill="none" stroke="black" d="M586.98,-2048.96C622.13,-2049.65 681.48,-2049.5 732,-2043 912.89,-2019.72 960.37,-2010.38 1130.25,-1944 1138.79,-1940.66 1147.67,-1936.43 1155.95,-1932.13"/>
<polygon fill="black" stroke="black" points="1157.56,-1935.24 1164.71,-1927.42 1154.24,-1929.07 1157.56,-1935.24"/>
</g>
<!-- hol&#45;api&#45;&gt;types -->
<g id="edge51" class="edge">
<title>hol&#45;api&#45;&gt;types</title>
<path fill="none" stroke="black" d="M583.1,-2066.41C631.24,-2097.73 736.71,-2158 835.38,-2158 835.38,-2158 835.38,-2158 1194.25,-2158 1341.87,-2158 1397.38,-1931.03 1412.69,-1848.52"/>
<polygon fill="black" stroke="black" points="1416.12,-1849.17 1414.43,-1838.72 1409.23,-1847.95 1416.12,-1849.17"/>
</g>
<!-- hol&#45;eval&#45;&gt;core -->
<g id="edge52" class="edge">
<title>hol&#45;eval&#45;&gt;core</title>
<path fill="none" stroke="black" d="M871.64,-1963.87C882.94,-1958.83 895.08,-1952.22 904.75,-1944 926.17,-1925.8 923.47,-1914.17 940.75,-1892 944.36,-1887.36 948.34,-1882.56 952.28,-1877.95"/>
<polygon fill="black" stroke="black" points="954.81,-1880.38 958.74,-1870.54 949.53,-1875.78 954.81,-1880.38"/>
</g>
<!-- hol&#45;eval&#45;&gt;pure -->
<g id="edge53" class="edge">
<title>hol&#45;eval&#45;&gt;pure</title>
<path fill="none" stroke="black" d="M871.72,-1969.71C938.48,-1957.48 1085.26,-1930.6 1154.58,-1917.9"/>
<polygon fill="black" stroke="black" points="1155.11,-1921.36 1164.32,-1916.12 1153.85,-1914.48 1155.11,-1921.36"/>
</g>
<!-- hol&#45;eval&#45;&gt;pure&#45;eval -->
<g id="edge54" class="edge">
<title>hol&#45;eval&#45;&gt;pure&#45;eval</title>
<path fill="none" stroke="black" d="M871.62,-1960.91C915,-1941.81 990.07,-1908.74 1039.73,-1886.87"/>
<polygon fill="black" stroke="black" points="1041.11,-1890.09 1048.85,-1882.85 1038.28,-1883.68 1041.11,-1890.09"/>
</g>
<!-- hol&#45;eval&#45;&gt;sexp -->
<g id="edge55" class="edge">
<title>hol&#45;eval&#45;&gt;sexp</title>
<path fill="none" stroke="black" d="M853.24,-1957.72C869.21,-1938.18 893.09,-1905.59 904.75,-1873 954.88,-1732.83 923.94,-1687.91 940.75,-1540 952.05,-1440.55 966.36,-1322.74 972.97,-1268.73"/>
<polygon fill="black" stroke="black" points="976.44,-1269.17 974.19,-1258.82 969.5,-1268.32 976.44,-1269.17"/>
</g>
<!-- hol&#45;eval&#45;&gt;types -->
<g id="edge56" class="edge">
<title>hol&#45;eval&#45;&gt;types</title>
<path fill="none" stroke="black" d="M871.64,-1991.43C919.41,-2011.49 1009.17,-2044 1089.38,-2044 1089.38,-2044 1089.38,-2044 1194.25,-2044 1303.56,-2044 1377.65,-1908.54 1405.36,-1847.83"/>
<polygon fill="black" stroke="black" points="1408.51,-1849.35 1409.38,-1838.8 1402.12,-1846.51 1408.51,-1849.35"/>
</g>
<!-- init&#45;&gt;core -->
<g id="edge57" class="edge">
<title>init&#45;&gt;core</title>
<path fill="none" stroke="black" d="M705.23,-1560.42C721.2,-1575.52 745.09,-1596.93 768,-1613 824.93,-1652.92 857.84,-1637.68 904.75,-1689 940.09,-1727.66 960.22,-1786.55 969.73,-1821.66"/>
<polygon fill="black" stroke="black" points="966.29,-1822.33 972.18,-1831.13 973.06,-1820.57 966.29,-1822.33"/>
</g>
<!-- init&#45;&gt;grammar -->
<g id="edge58" class="edge">
<title>init&#45;&gt;grammar</title>
<path fill="none" stroke="black" d="M712.62,-1543.76C753.65,-1546.58 835.47,-1552.45 904.75,-1559 912.65,-1559.75 921.03,-1560.61 929.18,-1561.49"/>
<polygon fill="black" stroke="black" points="928.63,-1564.95 938.95,-1562.57 929.39,-1558 928.63,-1564.95"/>
</g>
<!-- init&#45;&gt;hash -->
<g id="edge59" class="edge">
<title>init&#45;&gt;hash</title>
<path fill="none" stroke="black" d="M696,-1523.57C706.85,-1501.85 723.99,-1464.35 732,-1430 783.08,-1210.86 709.88,-1142.38 768,-925 778.87,-884.34 801.74,-841.29 817.8,-814.06"/>
<polygon fill="black" stroke="black" points="820.66,-816.11 822.81,-805.74 814.66,-812.5 820.66,-816.11"/>
</g>
<!-- init&#45;&gt;hol -->
<g id="edge60" class="edge">
<title>init&#45;&gt;hol</title>
<path fill="none" stroke="black" d="M692.45,-1560.27C704.7,-1596.22 734.1,-1678.27 768,-1743 781.97,-1769.68 800.98,-1798.2 815.25,-1818.45"/>
<polygon fill="black" stroke="black" points="812.29,-1820.34 820.95,-1826.45 817.99,-1816.27 812.29,-1820.34"/>
</g>
<!-- init&#45;&gt;hol&#45;eval -->
<g id="edge61" class="edge">
<title>init&#45;&gt;hol&#45;eval</title>
<path fill="none" stroke="black" d="M688.68,-1560.27C695.58,-1611.45 718.75,-1759.85 768,-1873 779.95,-1900.44 798.99,-1928.69 813.79,-1948.65"/>
<polygon fill="black" stroke="black" points="810.93,-1950.67 819.75,-1956.53 816.51,-1946.45 810.93,-1950.67"/>
</g>
<!-- init&#45;&gt;inductive -->
<g id="edge62" class="edge">
<title>init&#45;&gt;inductive</title>
<path fill="none" stroke="black" d="M699.99,-1560.48C715.77,-1581.63 742.84,-1617.08 768,-1646 780.99,-1660.93 796.22,-1676.87 808.91,-1689.77"/>
<polygon fill="black" stroke="black" points="806.24,-1692.05 815.77,-1696.69 811.21,-1687.12 806.24,-1692.05"/>
</g>
<!-- metamath -->
<g id="node31" class="node">
<title>metamath</title>
<polygon fill="none" stroke="black" points="876.62,-1154 796.12,-1154 796.12,-1118 876.62,-1118 876.62,-1154"/>
<text text-anchor="middle" x="836.38" y="-1131.7" font-family="sans-serif" font-size="14.00">metamath</text>
</g>
<!-- init&#45;&gt;metamath -->
<g id="edge63" class="edge">
<title>init&#45;&gt;metamath</title>
<path fill="none" stroke="black" d="M694.08,-1523.87C703.38,-1501.81 719.34,-1463.37 732,-1430 768.55,-1333.62 807.95,-1217.86 825.72,-1164.95"/>
<polygon fill="black" stroke="black" points="828.93,-1166.38 828.79,-1155.78 822.29,-1164.15 828.93,-1166.38"/>
</g>
<!-- init&#45;&gt;sexp -->
<g id="edge64" class="edge">
<title>init&#45;&gt;sexp</title>
<path fill="none" stroke="black" d="M691.29,-1523.75C700.77,-1492.07 724.56,-1426.85 768,-1391 817.14,-1350.45 853.89,-1386.37 904.75,-1348 932.49,-1327.07 952.79,-1292.12 964.6,-1267.44"/>
<polygon fill="black" stroke="black" points="967.66,-1269.17 968.65,-1258.62 961.3,-1266.24 967.66,-1269.17"/>
</g>
<!-- spectec -->
<g id="node51" class="node">
<title>spectec</title>
<polygon fill="none" stroke="black" points="871,-1604 801.75,-1604 801.75,-1568 871,-1568 871,-1604"/>
<text text-anchor="middle" x="836.38" y="-1581.7" font-family="sans-serif" font-size="14.00">spectec</text>
</g>
<!-- init&#45;&gt;spectec -->
<g id="edge65" class="edge">
<title>init&#45;&gt;spectec</title>
<path fill="none" stroke="black" d="M712.67,-1549.77C734.21,-1556.13 765.18,-1565.27 790.61,-1572.78"/>
<polygon fill="black" stroke="black" points="789.46,-1576.09 800.04,-1575.56 791.44,-1569.38 789.46,-1576.09"/>
</g>
<!-- init&#45;&gt;types -->
<g id="edge66" class="edge">
<title>init&#45;&gt;types</title>
<path fill="none" stroke="black" d="M712.62,-1535.92C763.33,-1524.73 878.45,-1502 976.62,-1502 976.62,-1502 976.62,-1502 1194.25,-1502 1334.15,-1502 1394.04,-1710.93 1411.62,-1789.55"/>
<polygon fill="black" stroke="black" points="1408.15,-1790.07 1413.68,-1799.11 1414.99,-1788.59 1408.15,-1790.07"/>
</g>
<!-- json -->
<g id="node22" class="node">
<title>json</title>
<polygon fill="none" stroke="black" points="863.38,-324 809.38,-324 809.38,-288 863.38,-288 863.38,-324"/>
<text text-anchor="middle" x="836.38" y="-301.7" font-family="sans-serif" font-size="14.00">json</text>
</g>
<!-- kernel -->
<g id="node23" class="node">
<title>kernel</title>
<polygon fill="none" stroke="black" points="584,-1246 526.75,-1246 526.75,-1210 584,-1210 584,-1246"/>
<text text-anchor="middle" x="555.38" y="-1223.7" font-family="sans-serif" font-size="14.00">kernel</text>
</g>
<!-- kernel&#45;&gt;hash -->
<g id="edge67" class="edge">
<title>kernel&#45;&gt;hash</title>
<path fill="none" stroke="black" d="M565.26,-1209.6C575.29,-1188.36 591.64,-1152.21 602.75,-1120 623.14,-1060.89 599.58,-1032.73 638.75,-984 667.95,-947.67 697,-966.78 732,-936 772.07,-900.76 804.23,-846.8 821.5,-814.12"/>
<polygon fill="black" stroke="black" points="824.39,-816.14 825.88,-805.65 818.18,-812.92 824.39,-816.14"/>
</g>
<!-- kernel&#45;&gt;init -->
<g id="edge68" class="edge">
<title>kernel&#45;&gt;init</title>
<path fill="none" stroke="black" d="M584.39,-1242.33C591.32,-1247.09 598.09,-1253 602.75,-1260 645.57,-1324.27 616.09,-1356.17 638.75,-1430 647.66,-1459.02 661.05,-1490.98 671.03,-1513.31"/>
<polygon fill="black" stroke="black" points="667.82,-1514.7 675.13,-1522.36 674.19,-1511.81 667.82,-1514.7"/>
</g>
<!-- kernel&#45;&gt;object -->
<g id="edge69" class="edge">
<title>kernel&#45;&gt;object</title>
<path fill="none" stroke="black" d="M562.52,-1209.65C571.69,-1182.07 589.3,-1128.22 602.75,-1082 620.22,-1021.96 618.53,-1005.17 638.75,-946 648.11,-918.61 661.15,-888.32 670.89,-866.81"/>
<polygon fill="black" stroke="black" points="674.04,-868.35 675.02,-857.8 667.67,-865.43 674.04,-868.35"/>
</g>
<!-- kernel&#45;&gt;sexp -->
<g id="edge70" class="edge">
<title>kernel&#45;&gt;sexp</title>
<path fill="none" stroke="black" d="M584.27,-1228.73C657.57,-1230.65 855.66,-1235.83 938.94,-1238.01"/>
<polygon fill="black" stroke="black" points="938.76,-1241.51 948.85,-1238.27 938.95,-1234.51 938.76,-1241.51"/>
</g>
<!-- kernel&#45;&gt;store -->
<g id="edge71" class="edge">
<title>kernel&#45;&gt;store</title>
<path fill="none" stroke="black" d="M558.92,-1209.6C566.3,-1155.75 588.16,-993.8 602.75,-859 621.77,-683.3 577.93,-628.93 638.75,-463 643.67,-449.58 652.08,-436.38 660.35,-425.41"/>
<polygon fill="black" stroke="black" points="663.09,-427.59 666.56,-417.58 657.6,-423.25 663.09,-427.59"/>
</g>
<!-- kernel&#45;sat -->
<g id="node24" class="node">
<title>kernel&#45;sat</title>
<polygon fill="none" stroke="black" points="727.12,-64 643.62,-64 643.62,-28 727.12,-28 727.12,-64"/>
<text text-anchor="middle" x="685.38" y="-41.7" font-family="sans-serif" font-size="14.00">kernel&#45;sat</text>
</g>
<!-- sat -->
<g id="node46" class="node">
<title>sat</title>
<polygon fill="none" stroke="black" points="863.38,-64 809.38,-64 809.38,-28 863.38,-28 863.38,-64"/>
<text text-anchor="middle" x="836.38" y="-41.7" font-family="sans-serif" font-size="14.00">sat</text>
</g>
<!-- kernel&#45;sat&#45;&gt;sat -->
<g id="edge72" class="edge">
<title>kernel&#45;sat&#45;&gt;sat</title>
<path fill="none" stroke="black" d="M727.48,-46C749.43,-46 776.26,-46 797.67,-46"/>
<polygon fill="black" stroke="black" points="797.43,-49.5 807.43,-46 797.43,-42.5 797.43,-49.5"/>
</g>
<!-- kernel&#45;smt -->
<g id="node25" class="node">
<title>kernel&#45;smt</title>
<polygon fill="none" stroke="black" points="104.5,-1210 16.5,-1210 16.5,-1174 104.5,-1174 104.5,-1210"/>
<text text-anchor="middle" x="60.5" y="-1187.7" font-family="sans-serif" font-size="14.00">kernel&#45;smt</text>
</g>
<!-- kv -->
<g id="node26" class="node">
<title>kv</title>
<polygon fill="none" stroke="black" points="226.12,-378 172.12,-378 172.12,-342 226.12,-342 226.12,-378"/>
<text text-anchor="middle" x="199.12" y="-355.7" font-family="sans-serif" font-size="14.00">kv</text>
</g>
<!-- lean -->
<g id="node27" class="node">
<title>lean</title>
<polygon fill="none" stroke="black" points="87.5,-1264 33.5,-1264 33.5,-1228 87.5,-1228 87.5,-1264"/>
<text text-anchor="middle" x="60.5" y="-1241.7" font-family="sans-serif" font-size="14.00">lean</text>
</g>
<!-- lisp -->
<g id="node28" class="node">
<title>lisp</title>
<polygon fill="none" stroke="black" points="465.5,-1883 411.5,-1883 411.5,-1847 465.5,-1847 465.5,-1883"/>
<text text-anchor="middle" x="438.5" y="-1860.7" font-family="sans-serif" font-size="14.00">lisp</text>
</g>
<!-- lisp&#45;&gt;core -->
<g id="edge73" class="edge">
<title>lisp&#45;&gt;core</title>
<path fill="none" stroke="black" d="M465.93,-1868.49C537.25,-1877.24 739.37,-1897.74 904.75,-1873 916.37,-1871.26 928.7,-1868.03 939.81,-1864.56"/>
<polygon fill="black" stroke="black" points="940.59,-1867.99 949,-1861.54 938.4,-1861.34 940.59,-1867.99"/>
</g>
<!-- lisp&#45;&gt;hol&#45;api -->
<g id="edge74" class="edge">
<title>lisp&#45;&gt;hol&#45;api</title>
<path fill="none" stroke="black" d="M444.36,-1883.48C453.06,-1913.82 473.66,-1974.92 508,-2016 510.19,-2018.62 512.64,-2021.12 515.25,-2023.48"/>
<polygon fill="black" stroke="black" points="512.8,-2026 522.77,-2029.59 517.21,-2020.57 512.8,-2026"/>
</g>
<!-- lisp&#45;&gt;hol&#45;eval -->
<g id="edge75" class="edge">
<title>lisp&#45;&gt;hol&#45;eval</title>
<path fill="none" stroke="black" d="M465.45,-1883.3C477.84,-1891.3 493.17,-1900.16 508,-1906 604.48,-1943.98 725.47,-1963.02 789.96,-1971.07"/>
<polygon fill="black" stroke="black" points="789.48,-1974.54 799.82,-1972.27 790.32,-1967.59 789.48,-1974.54"/>
</g>
<!-- lisp&#45;&gt;init -->
<g id="edge76" class="edge">
<title>lisp&#45;&gt;init</title>
<path fill="none" stroke="black" d="M447.34,-1846.56C454.64,-1828.78 465.36,-1800.96 472,-1776 496.34,-1684.49 439.89,-1631.79 508,-1566 544.54,-1530.7 606.87,-1530.84 646.81,-1535.46"/>
<polygon fill="black" stroke="black" points="646.32,-1538.92 656.69,-1536.77 647.23,-1531.99 646.32,-1538.92"/>
</g>
<!-- repl&#45;core -->
<g id="node45" class="node">
<title>repl&#45;core</title>
<polygon fill="none" stroke="black" points="594.5,-1864 516.25,-1864 516.25,-1828 594.5,-1828 594.5,-1864"/>
<text text-anchor="middle" x="555.38" y="-1841.7" font-family="sans-serif" font-size="14.00">repl&#45;core</text>
</g>
<!-- lisp&#45;&gt;repl&#45;core -->
<g id="edge77" class="edge">
<title>lisp&#45;&gt;repl&#45;core</title>
<path fill="none" stroke="black" d="M465.85,-1860.64C477.45,-1858.72 491.46,-1856.41 504.88,-1854.19"/>
<polygon fill="black" stroke="black" points="505.16,-1857.69 514.45,-1852.6 504.01,-1850.78 505.16,-1857.69"/>
</g>
<!-- lisp&#45;&gt;sexp -->
<g id="edge78" class="edge">
<title>lisp&#45;&gt;sexp</title>
<path fill="none" stroke="black" d="M439.49,-1846.52C440.57,-1766.32 456.48,-1446.28 638.75,-1307 685.67,-1271.15 861.07,-1250.16 938.96,-1242.43"/>
<polygon fill="black" stroke="black" points="939.03,-1245.93 948.64,-1241.49 938.35,-1238.97 939.03,-1245.93"/>
</g>
<!-- llm -->
<g id="node29" class="node">
<title>llm</title>
<polygon fill="none" stroke="black" points="226.12,-508 172.12,-508 172.12,-472 226.12,-472 226.12,-508"/>
<text text-anchor="middle" x="199.12" y="-485.7" font-family="sans-serif" font-size="14.00">llm</text>
</g>
<!-- llm&#45;&gt;proto -->
<g id="edge79" class="edge">
<title>llm&#45;&gt;proto</title>
<path fill="none" stroke="black" d="M226.6,-502.37C243.78,-510.4 266.42,-520.97 285.35,-529.82"/>
<polygon fill="black" stroke="black" points="283.79,-532.95 294.33,-534.02 286.75,-526.61 283.79,-532.95"/>
</g>
<!-- lsp&#45;&gt;sexp -->
<g id="edge80" class="edge">
<title>lsp&#45;&gt;sexp</title>
<path fill="none" stroke="black" d="M861.81,-970.44C876.09,-982.34 893.47,-998.94 904.75,-1017 943.77,-1079.48 963.62,-1165.2 971.85,-1209.63"/>
<polygon fill="black" stroke="black" points="968.36,-1210.03 973.56,-1219.26 975.26,-1208.81 968.36,-1210.03"/>
</g>
<!-- lsp&#45;&gt;wasm -->
<g id="edge81" class="edge">
<title>lsp&#45;&gt;wasm</title>
<path fill="none" stroke="black" d="M848.55,-933.9C863.91,-908.09 891.18,-858.77 904.75,-813 964.39,-611.79 974.55,-356.44 976.28,-270.63"/>
<polygon fill="black" stroke="black" points="979.77,-270.8 976.45,-260.74 972.77,-270.68 979.77,-270.8"/>
</g>
<!-- metamath&#45;&gt;parse -->
<g id="edge82" class="edge">
<title>metamath&#45;&gt;parse</title>
<path fill="none" stroke="black" d="M867.14,-1117.62C903.37,-1094.71 965.76,-1053.48 1014.5,-1012 1032.83,-996.4 1051.71,-976.95 1065.93,-961.51"/>
<polygon fill="black" stroke="black" points="1068.16,-964.26 1072.3,-954.5 1062.98,-959.55 1068.16,-964.26"/>
</g>
<!-- metamath&#45;&gt;sexp -->
<g id="edge83" class="edge">
<title>metamath&#45;&gt;sexp</title>
<path fill="none" stroke="black" d="M877.09,-1152.15C886.51,-1156.7 896.27,-1162.05 904.75,-1168 922.71,-1180.59 940.27,-1197.82 953.54,-1212.15"/>
<polygon fill="black" stroke="black" points="950.9,-1214.45 960.2,-1219.51 956.09,-1209.75 950.9,-1214.45"/>
</g>
<!-- multiformat -->
<g id="node32" class="node">
<title>multiformat</title>
<polygon fill="none" stroke="black" points="730.5,-1062 640.25,-1062 640.25,-1026 730.5,-1026 730.5,-1062"/>
<text text-anchor="middle" x="685.38" y="-1039.7" font-family="sans-serif" font-size="14.00">multiformat</text>
</g>
<!-- multiformat&#45;&gt;acset -->
<g id="edge84" class="edge">
<title>multiformat&#45;&gt;acset</title>
<path fill="none" stroke="black" d="M730.68,-1044C752.05,-1044 777.41,-1044 797.81,-1044"/>
<polygon fill="black" stroke="black" points="797.68,-1047.5 807.68,-1044 797.68,-1040.5 797.68,-1047.5"/>
</g>
<!-- multiformat&#45;&gt;hash -->
<g id="edge85" class="edge">
<title>multiformat&#45;&gt;hash</title>
<path fill="none" stroke="black" d="M698.96,-1025.52C708.35,-1011.55 721.33,-991.79 732,-974 765.3,-918.47 801.04,-851.66 820.56,-814.5"/>
<polygon fill="black" stroke="black" points="823.6,-816.23 825.14,-805.75 817.4,-812.98 823.6,-816.23"/>
</g>
<!-- multiformat&#45;&gt;parse -->
<g id="edge86" class="edge">
<title>multiformat&#45;&gt;parse</title>
<path fill="none" stroke="black" d="M730.68,-1028.72C742.73,-1024.74 755.82,-1020.56 768,-1017 869.81,-987.21 991.51,-957.83 1051.76,-943.7"/>
<polygon fill="black" stroke="black" points="1052.55,-947.11 1061.49,-941.43 1050.95,-940.29 1052.55,-947.11"/>
</g>
<!-- object&#45;&gt;hash -->
<g id="edge87" class="edge">
<title>object&#45;&gt;hash</title>
<path fill="none" stroke="black" d="M714.4,-828.22C738.15,-819.93 772.4,-807.98 798.39,-798.91"/>
<polygon fill="black" stroke="black" points="799.26,-802.31 807.55,-795.71 796.95,-795.7 799.26,-802.31"/>
</g>
<!-- object&#45;&gt;parse -->
<g id="edge88" class="edge">
<title>object&#45;&gt;parse</title>
<path fill="none" stroke="black" d="M714.39,-844.74C785.34,-861.82 972.1,-906.77 1052.12,-926.03"/>
<polygon fill="black" stroke="black" points="1051.11,-929.39 1061.65,-928.33 1052.75,-922.58 1051.11,-929.39"/>
</g>
<!-- opentheory&#45;&gt;hol -->
<g id="edge89" class="edge">
<title>opentheory&#45;&gt;hol</title>
<path fill="none" stroke="black" d="M369.05,-1790.36C468.49,-1802.22 705.69,-1830.53 797.85,-1841.52"/>
<polygon fill="black" stroke="black" points="797.26,-1844.98 807.61,-1842.69 798.09,-1838.03 797.26,-1844.98"/>
</g>
<!-- parquet -->
<g id="node35" class="node">
<title>parquet</title>
<polygon fill="none" stroke="black" points="472,-850 405,-850 405,-814 472,-814 472,-850"/>
<text text-anchor="middle" x="438.5" y="-827.7" font-family="sans-serif" font-size="14.00">parquet</text>
</g>
<!-- parquet&#45;&gt;arrow -->
<g id="edge90" class="edge">
<title>parquet&#45;&gt;arrow</title>
<path fill="none" stroke="black" d="M472.42,-832C486.2,-832 502.29,-832 516.55,-832"/>
<polygon fill="black" stroke="black" points="516.5,-835.5 526.5,-832 516.5,-828.5 516.5,-835.5"/>
</g>
<!-- proptest -->
<g id="node37" class="node">
<title>proptest</title>
<polygon fill="none" stroke="black" points="95.88,-1318 25.12,-1318 25.12,-1282 95.88,-1282 95.88,-1318"/>
<text text-anchor="middle" x="60.5" y="-1295.7" font-family="sans-serif" font-size="14.00">proptest</text>
</g>
<!-- pure&#45;trusted -->
<g id="node41" class="node">
<title>pure&#45;trusted</title>
<polygon fill="#ffd6d6" stroke="black" points="1355.5,-1927 1256.25,-1927 1256.25,-1891 1355.5,-1891 1355.5,-1927"/>
<text text-anchor="middle" x="1305.88" y="-1904.7" font-family="sans-serif" font-size="14.00">pure&#45;trusted</text>
</g>
<!-- pure&#45;&gt;pure&#45;trusted -->
<g id="edge91" class="edge">
<title>pure&#45;&gt;pure&#45;trusted</title>
<path fill="none" stroke="black" d="M1220.75,-1910.52C1228.04,-1910.39 1236.27,-1910.24 1244.64,-1910.09"/>
<polygon fill="black" stroke="black" points="1244.63,-1913.59 1254.57,-1909.91 1244.51,-1906.59 1244.63,-1913.59"/>
</g>
<!-- pure&#45;eval&#45;&gt;pure -->
<g id="edge92" class="edge">
<title>pure&#45;eval&#45;&gt;pure</title>
<path fill="none" stroke="black" d="M1130.66,-1882.92C1138.9,-1886.67 1147.54,-1890.61 1155.67,-1894.32"/>
<polygon fill="black" stroke="black" points="1154.05,-1897.43 1164.6,-1898.39 1156.96,-1891.06 1154.05,-1897.43"/>
</g>
<!-- pure&#45;eval&#45;&gt;types -->
<g id="edge93" class="edge">
<title>pure&#45;eval&#45;&gt;types</title>
<path fill="none" stroke="black" d="M1130.49,-1861.51C1182.21,-1856.62 1276.08,-1846.74 1355.5,-1833 1363.48,-1831.62 1371.98,-1829.88 1380.05,-1828.1"/>
<polygon fill="black" stroke="black" points="1380.62,-1831.56 1389.59,-1825.93 1379.06,-1824.73 1380.62,-1831.56"/>
</g>
<!-- pure&#45;trusted&#45;&gt;types -->
<g id="edge94" class="edge">
<title>pure&#45;trusted&#45;&gt;types</title>
<path fill="none" stroke="black" d="M1334.57,-1890.52C1341.53,-1885.64 1348.89,-1880.26 1355.5,-1875 1367.2,-1865.68 1379.54,-1854.79 1390.1,-1845.09"/>
<polygon fill="black" stroke="black" points="1392.44,-1847.69 1397.39,-1838.32 1387.68,-1842.56 1392.44,-1847.69"/>
</g>
<!-- python -->
<g id="node42" class="node">
<title>python</title>
<polygon fill="none" stroke="black" points="91.38,-424 29.62,-424 29.62,-388 91.38,-388 91.38,-424"/>
<text text-anchor="middle" x="60.5" y="-401.7" font-family="sans-serif" font-size="14.00">python</text>
</g>
<!-- python&#45;&gt;crypto&#45;sig -->
<g id="edge95" class="edge">
<title>python&#45;&gt;crypto&#45;sig</title>
<path fill="none" stroke="black" d="M63.76,-387.7C70.48,-339.3 93.95,-205.48 157,-116 158.44,-113.96 160.05,-111.98 161.77,-110.09"/>
<polygon fill="black" stroke="black" points="164.01,-112.79 168.8,-103.34 159.16,-107.73 164.01,-112.79"/>
</g>
<!-- python&#45;&gt;git -->
<g id="edge96" class="edge">
<title>python&#45;&gt;git</title>
<path fill="none" stroke="black" d="M91.8,-411.46C159.87,-424.12 322.58,-456.73 369,-487 391.36,-501.58 409.74,-525.9 421.8,-544.96"/>
<polygon fill="black" stroke="black" points="418.72,-546.62 426.9,-553.35 424.7,-542.99 418.72,-546.62"/>
</g>
<!-- python&#45;&gt;graph -->
<g id="edge97" class="edge">
<title>python&#45;&gt;graph</title>
<path fill="none" stroke="black" d="M78.05,-387.75C95.61,-369.87 125.17,-343.77 157,-333 242.63,-304.02 347.26,-348.42 401.31,-376.99"/>
<polygon fill="black" stroke="black" points="399.32,-379.89 409.78,-381.57 402.65,-373.74 399.32,-379.89"/>
</g>
<!-- python&#45;&gt;hash -->
<g id="edge98" class="edge">
<title>python&#45;&gt;hash</title>
<path fill="none" stroke="black" d="M91.76,-406.2C148.07,-407.45 272.04,-414.43 369,-450 539.76,-512.65 595.13,-519.2 732,-639 771.23,-673.34 803.29,-725.48 820.83,-757.56"/>
<polygon fill="black" stroke="black" points="817.69,-759.11 825.5,-766.28 823.86,-755.81 817.69,-759.11"/>
</g>
<!-- python&#45;&gt;kv -->
<g id="edge99" class="edge">
<title>python&#45;&gt;kv</title>
<path fill="none" stroke="black" d="M91.82,-395.79C112.31,-388.89 139.48,-379.75 161.22,-372.43"/>
<polygon fill="black" stroke="black" points="162.23,-375.78 170.6,-369.27 160,-369.14 162.23,-375.78"/>
</g>
<!-- python&#45;&gt;llm -->
<g id="edge100" class="edge">
<title>python&#45;&gt;llm</title>
<path fill="none" stroke="black" d="M91.48,-424.43C112.33,-437.25 140.21,-454.39 162.24,-467.94"/>
<polygon fill="black" stroke="black" points="160.26,-470.83 170.61,-473.08 163.92,-464.86 160.26,-470.83"/>
</g>
<!-- python&#45;&gt;object -->
<g id="edge101" class="edge">
<title>python&#45;&gt;object</title>
<path fill="none" stroke="black" d="M62.35,-424.33C66.43,-504.11 86.89,-819.98 157,-883 304.42,-1015.52 422.27,-979.96 602.75,-898 623.64,-888.51 620.25,-874.57 638.75,-861 641.21,-859.19 643.84,-857.46 646.54,-855.8"/>
<polygon fill="black" stroke="black" points="648.17,-858.9 655.17,-850.95 644.74,-852.8 648.17,-858.9"/>
</g>
<!-- python&#45;&gt;repl -->
<g id="edge102" class="edge">
<title>python&#45;&gt;repl</title>
<path fill="none" stroke="black" d="M72.7,-424.3C113.72,-491.35 255.92,-723.78 305.17,-804.29"/>
<polygon fill="black" stroke="black" points="301.97,-805.77 310.18,-812.47 307.94,-802.12 301.97,-805.77"/>
</g>
<!-- python&#45;&gt;sat -->
<g id="edge103" class="edge">
<title>python&#45;&gt;sat</title>
<path fill="none" stroke="black" d="M60.93,-387.63C60.18,-330.58 65.74,-154.42 157,-57 210.08,-0.34 244.49,0 322.12,0 322.12,0 322.12,0 556.38,0 634.89,0 654.78,-4.82 732,-19 754.27,-23.09 778.8,-29.42 798.37,-34.92"/>
<polygon fill="black" stroke="black" points="797.24,-38.23 807.82,-37.62 799.17,-31.5 797.24,-38.23"/>
</g>
<!-- python&#45;&gt;serve -->
<g id="edge104" class="edge">
<title>python&#45;&gt;serve</title>
<path fill="none" stroke="black" d="M67.11,-424.48C88.26,-494.14 163.27,-741.21 189.22,-826.66"/>
<polygon fill="black" stroke="black" points="185.85,-827.61 192.1,-836.17 192.55,-825.58 185.85,-827.61"/>
</g>
<!-- python&#45;&gt;sexp -->
<g id="edge105" class="edge">
<title>python&#45;&gt;sexp</title>
<path fill="none" stroke="black" d="M61.62,-424.42C63.46,-541.93 89.44,-1182 437.5,-1182 437.5,-1182 437.5,-1182 686.38,-1182 778.67,-1182 884.42,-1210.09 939.25,-1226.83"/>
<polygon fill="black" stroke="black" points="938.12,-1230.15 948.71,-1229.77 940.2,-1223.46 938.12,-1230.15"/>
</g>
<!-- python&#45;&gt;shell -->
<g id="edge106" class="edge">
<title>python&#45;&gt;shell</title>
<path fill="none" stroke="black" d="M61.89,-424.45C64.31,-524.28 79.8,-999.58 157,-1120 212.65,-1206.8 337.61,-1244.82 400.24,-1258.92"/>
<polygon fill="black" stroke="black" points="399.19,-1262.27 409.7,-1260.96 400.66,-1255.43 399.19,-1262.27"/>
</g>
<!-- python&#45;&gt;store -->
<g id="edge107" class="edge">
<title>python&#45;&gt;store</title>
<path fill="none" stroke="black" d="M76.85,-387.78C94.32,-368.2 124.64,-337.54 157,-320 223.77,-283.8 246.18,-276 322.12,-276 322.12,-276 322.12,-276 439.5,-276 512.84,-276 538.79,-264.13 602.75,-300 618.16,-308.64 646.09,-344.6 664.93,-370.46"/>
<polygon fill="black" stroke="black" points="662.09,-372.5 670.77,-378.57 667.76,-368.41 662.09,-372.5"/>
</g>
<!-- python&#45;&gt;wasm -->
<g id="edge108" class="edge">
<title>python&#45;&gt;wasm</title>
<path fill="none" stroke="black" d="M67.22,-387.63C79.01,-352.23 109.02,-273.65 157,-224 215.68,-163.27 237.68,-130 322.12,-130 322.12,-130 322.12,-130 686.38,-130 783.8,-130 819.12,-102.53 904.75,-149 930.93,-163.21 950.74,-191.42 962.86,-212.88"/>
<polygon fill="black" stroke="black" points="959.65,-214.3 967.47,-221.44 965.82,-210.98 959.65,-214.3"/>
</g>
<!-- wasm&#45;store -->
<g id="node59" class="node">
<title>wasm&#45;store</title>
<polygon fill="none" stroke="black" points="602.75,-248 508,-248 508,-212 602.75,-212 602.75,-248"/>
<text text-anchor="middle" x="555.38" y="-225.7" font-family="sans-serif" font-size="14.00">wasm&#45;store</text>
</g>
<!-- python&#45;&gt;wasm&#45;store -->
<g id="edge109" class="edge">
<title>python&#45;&gt;wasm&#45;store</title>
<path fill="none" stroke="black" d="M67.57,-387.74C79.23,-355.91 108.03,-290.87 157,-262 263.37,-199.28 414.49,-208.44 496.31,-219.75"/>
<polygon fill="black" stroke="black" points="495.73,-223.21 506.13,-221.18 496.74,-216.28 495.73,-223.21"/>
</g>
<!-- repl&#45;&gt;arrow -->
<g id="edge110" class="edge">
<title>repl&#45;&gt;arrow</title>
<path fill="none" stroke="black" d="M350.54,-820.78C366.08,-814.79 386.3,-808.04 405,-805 434.39,-800.22 442.59,-800.3 472,-805 487.24,-807.43 503.5,-812.25 517.5,-817.15"/>
<polygon fill="black" stroke="black" points="516.18,-820.4 526.77,-820.54 518.58,-813.82 516.18,-820.4"/>
</g>
<!-- repl&#45;&gt;forsp -->
<g id="edge111" class="edge">
<title>repl&#45;&gt;forsp</title>
<path fill="none" stroke="black" d="M346.36,-850.32C396.91,-891.63 524.91,-994.45 638.75,-1071 641.81,-1073.05 645.02,-1075.13 648.27,-1077.16"/>
<polygon fill="black" stroke="black" points="646.34,-1080.08 656.7,-1082.3 649.99,-1074.11 646.34,-1080.08"/>
</g>
<!-- repl&#45;&gt;git -->
<g id="edge112" class="edge">
<title>repl&#45;&gt;git</title>
<path fill="none" stroke="black" d="M332.1,-813.79C351.53,-769.39 401.47,-655.31 424.95,-601.67"/>
<polygon fill="black" stroke="black" points="428.13,-603.14 428.93,-592.58 421.71,-600.34 428.13,-603.14"/>
</g>
<!-- repl&#45;&gt;graph -->
<g id="edge113" class="edge">
<title>repl&#45;&gt;graph</title>
<path fill="none" stroke="black" d="M328.37,-813.54C339.9,-763.71 373.07,-622.41 405,-506 412.38,-479.11 421.6,-448.72 428.34,-427.04"/>
<polygon fill="black" stroke="black" points="431.61,-428.3 431.25,-417.71 424.93,-426.21 431.61,-428.3"/>
</g>
<!-- repl&#45;&gt;hash -->
<g id="edge114" class="edge">
<title>repl&#45;&gt;hash</title>
<path fill="none" stroke="black" d="M350.58,-817.48C365.97,-809.83 386.03,-801.18 405,-797 547.38,-765.61 722.66,-775.67 798.03,-782.24"/>
<polygon fill="black" stroke="black" points="797.47,-785.7 807.74,-783.12 798.1,-778.73 797.47,-785.7"/>
</g>
<!-- repl&#45;&gt;init -->
<g id="edge115" class="edge">
<title>repl&#45;&gt;init</title>
<path fill="none" stroke="black" d="M330.08,-850.14C350.22,-910.3 419.51,-1107.79 508,-1255 542.83,-1312.94 566.7,-1316.81 602.75,-1374 632.08,-1420.54 658.38,-1479.17 672.79,-1513.43"/>
<polygon fill="black" stroke="black" points="669.39,-1514.37 676.46,-1522.26 675.85,-1511.68 669.39,-1514.37"/>
</g>
<!-- repl&#45;&gt;object -->
<g id="edge116" class="edge">
<title>repl&#45;&gt;object</title>
<path fill="none" stroke="black" d="M350.54,-843.22C366.08,-849.21 386.3,-855.96 405,-859 491.75,-873.1 515.56,-870.04 602.75,-859 616.93,-857.21 632.17,-853.72 645.59,-850.1"/>
<polygon fill="black" stroke="black" points="646.25,-853.56 654.93,-847.48 644.35,-846.82 646.25,-853.56"/>
</g>
<!-- repl&#45;&gt;parquet -->
<g id="edge117" class="edge">
<title>repl&#45;&gt;parquet</title>
<path fill="none" stroke="black" d="M350.42,-832C363.22,-832 378.96,-832 393.52,-832"/>
<polygon fill="black" stroke="black" points="393.35,-835.5 403.35,-832 393.35,-828.5 393.35,-835.5"/>
</g>
<!-- repl&#45;&gt;shell -->
<g id="edge118" class="edge">
<title>repl&#45;&gt;shell</title>
<path fill="none" stroke="black" d="M328.92,-850.37C346.6,-918.03 408.16,-1153.7 429.86,-1236.76"/>
<polygon fill="black" stroke="black" points="426.47,-1237.61 432.38,-1246.4 433.24,-1235.84 426.47,-1237.61"/>
</g>
<!-- repl&#45;&gt;wasm -->
<g id="edge119" class="edge">
<title>repl&#45;&gt;wasm</title>
<path fill="none" stroke="black" d="M327.75,-813.78C337.23,-767.76 364.82,-643.57 405,-546 428.41,-489.16 451.89,-483.09 472,-425 488.35,-377.77 469.94,-235.39 508,-203 540.55,-175.3 833.47,-218.36 938.97,-234.94"/>
<polygon fill="black" stroke="black" points="938.39,-238.39 948.81,-236.49 939.48,-231.47 938.39,-238.39"/>
</g>
<!-- sat&#45;&gt;parse -->
<g id="edge120" class="edge">
<title>sat&#45;&gt;parse</title>
<path fill="none" stroke="black" d="M863.61,-41.94C902.81,-37.54 976.17,-35.99 1014.5,-78 1071.41,-140.38 1086.21,-761.39 1088.88,-905.32"/>
<polygon fill="black" stroke="black" points="1085.38,-905.22 1089.06,-915.15 1092.38,-905.09 1085.38,-905.22"/>
</g>
<!-- sat&#45;&gt;types -->
<g id="edge121" class="edge">
<title>sat&#45;&gt;types</title>
<path fill="none" stroke="black" d="M863.74,-40.77C909.47,-32.18 1006.54,-16 1089.38,-16 1089.38,-16 1089.38,-16 1194.25,-16 1380.75,-16 1413.2,-1555.02 1417.06,-1789.26"/>
<polygon fill="black" stroke="black" points="1413.56,-1789.11 1417.21,-1799.05 1420.55,-1789 1413.56,-1789.11"/>
</g>
<!-- sat&#45;&gt;wasm -->
<g id="edge122" class="edge">
<title>sat&#45;&gt;wasm</title>
<path fill="none" stroke="black" d="M857.61,-64.46C871.75,-77.95 890.57,-97.12 904.75,-116 928.13,-147.14 949.64,-186.59 962.91,-212.76"/>
<polygon fill="black" stroke="black" points="959.64,-214.03 967.24,-221.4 965.9,-210.9 959.64,-214.03"/>
</g>
<!-- serve&#45;&gt;core -->
<g id="edge123" class="edge">
<title>serve&#45;&gt;core</title>
<path fill="none" stroke="black" d="M201.42,-874.22C205.99,-932.1 224.05,-1116.29 277.25,-1258 348.71,-1448.35 358.78,-1514.91 508,-1653 648.29,-1782.83 725.31,-1753.15 904.75,-1819 916.41,-1823.28 928.86,-1828.56 940.06,-1833.58"/>
<polygon fill="black" stroke="black" points="938.42,-1836.68 948.97,-1837.65 941.33,-1830.32 938.42,-1836.68"/>
</g>
<!-- serve&#45;&gt;git -->
<g id="edge124" class="edge">
<title>serve&#45;&gt;git</title>
<path fill="none" stroke="black" d="M209.47,-837.62C222.75,-812.32 248.68,-765.95 277.25,-731 312.62,-687.73 329.33,-684.37 369,-645 383.91,-630.2 400.13,-613.2 413.04,-599.43"/>
<polygon fill="black" stroke="black" points="415.31,-602.13 419.58,-592.43 410.19,-597.35 415.31,-602.13"/>
</g>
<!-- serve&#45;&gt;hash -->
<g id="edge125" class="edge">
<title>serve&#45;&gt;hash</title>
<path fill="none" stroke="black" d="M222.37,-837.74C237.09,-826.6 257.28,-813 277.25,-805 330.8,-783.54 347.85,-789.91 405,-782 549.04,-762.07 586.96,-760.53 732,-771 753.97,-772.59 778.37,-776.04 797.94,-779.24"/>
<polygon fill="black" stroke="black" points="797.21,-782.67 807.65,-780.88 798.37,-775.76 797.21,-782.67"/>
</g>
<!-- serve&#45;&gt;init -->
<g id="edge126" class="edge">
<title>serve&#45;&gt;init</title>
<path fill="none" stroke="black" d="M200.55,-874.25C202.54,-926.61 213.78,-1080.34 277.25,-1186 373.92,-1346.93 567.94,-1473.65 648.27,-1521.42"/>
<polygon fill="black" stroke="black" points="646.24,-1524.28 656.63,-1526.34 649.79,-1518.25 646.24,-1524.28"/>
</g>
<!-- serve&#45;&gt;metamath -->
<g id="edge127" class="edge">
<title>serve&#45;&gt;metamath</title>
<path fill="none" stroke="black" d="M221.03,-874.24C280.97,-925.25 460.56,-1069.29 638.75,-1125 686.57,-1139.95 744.07,-1141.39 784.5,-1139.89"/>
<polygon fill="black" stroke="black" points="784.6,-1143.39 794.43,-1139.43 784.28,-1136.39 784.6,-1143.39"/>
</g>
<!-- serve&#45;&gt;object -->
<g id="edge128" class="edge">
<title>serve&#45;&gt;object</title>
<path fill="none" stroke="black" d="M226.47,-862.46C291.41,-877.3 463.97,-910.18 602.75,-878 617.82,-874.51 633.31,-867.82 646.7,-860.91"/>
<polygon fill="black" stroke="black" points="648.02,-864.17 655.15,-856.34 644.69,-858.02 648.02,-864.17"/>
</g>
<!-- serve&#45;&gt;proto -->
<g id="edge129" class="edge">
<title>serve&#45;&gt;proto</title>
<path fill="none" stroke="black" d="M204.31,-837.71C214.02,-796.86 240.11,-695.66 277.25,-617 284.16,-602.37 293.61,-587.14 302.07,-574.63"/>
<polygon fill="black" stroke="black" points="304.88,-576.71 307.7,-566.5 299.13,-572.73 304.88,-576.71"/>
</g>
<!-- serve&#45;&gt;repl -->
<g id="edge130" class="edge">
<title>serve&#45;&gt;repl</title>
<path fill="none" stroke="black" d="M226.6,-850.79C243.54,-847.46 265.79,-843.08 284.55,-839.39"/>
<polygon fill="black" stroke="black" points="285.08,-842.85 294.22,-837.49 283.73,-835.99 285.08,-842.85"/>
</g>
<!-- serve&#45;&gt;shell -->
<g id="edge131" class="edge">
<title>serve&#45;&gt;shell</title>
<path fill="none" stroke="black" d="M201.82,-874.42C206.74,-920.16 224.25,-1041.25 277.25,-1125 309.45,-1175.88 365.33,-1218.97 401.86,-1243.67"/>
<polygon fill="black" stroke="black" points="399.63,-1246.39 409.9,-1249 403.5,-1240.56 399.63,-1246.39"/>
</g>
<!-- serve&#45;&gt;store -->
<g id="edge132" class="edge">
<title>serve&#45;&gt;store</title>
<path fill="none" stroke="black" d="M204.79,-837.65C216.77,-791.8 249.58,-673.86 277.25,-645 307.79,-613.14 335.68,-635.94 369,-607 392.77,-586.36 387.74,-572.33 405,-546 447.75,-480.8 439.16,-440.6 508,-404 551.39,-380.93 609.66,-384.42 647.11,-390.23"/>
<polygon fill="black" stroke="black" points="646.1,-393.61 656.54,-391.84 647.27,-386.71 646.1,-393.61"/>
</g>
<!-- sexp&#45;&gt;parse -->
<g id="edge133" class="edge">
<title>sexp&#45;&gt;parse</title>
<path fill="none" stroke="black" d="M985.22,-1220.89C1003.72,-1170.11 1056.22,-1026.01 1078.82,-963.98"/>
<polygon fill="black" stroke="black" points="1082.02,-965.41 1082.16,-954.82 1075.44,-963.02 1082.02,-965.41"/>
</g>
<!-- shell&#45;&gt;hol -->
<g id="edge134" class="edge">
<title>shell&#45;&gt;hol</title>
<path fill="none" stroke="black" d="M440.71,-1284.07C445.56,-1352.04 465.4,-1591.62 508,-1653 545.32,-1706.78 721.45,-1793.13 798.8,-1829.26"/>
<polygon fill="black" stroke="black" points="797.12,-1832.34 807.66,-1833.38 800.07,-1825.99 797.12,-1832.34"/>
</g>
<!-- shell&#45;&gt;kernel -->
<g id="edge135" class="edge">
<title>shell&#45;&gt;kernel</title>
<path fill="none" stroke="black" d="M465.85,-1257.28C480.6,-1252.4 499.26,-1246.23 515.64,-1240.81"/>
<polygon fill="black" stroke="black" points="516.71,-1244.15 525.1,-1237.68 514.51,-1237.5 516.71,-1244.15"/>
</g>
<!-- smt&#45;&gt;sat -->
<g id="edge136" class="edge">
<title>smt&#45;&gt;sat</title>
<path fill="none" stroke="black" d="M690.23,-1384.56C699.33,-1340.14 722.14,-1223.55 732,-1125 753.62,-909.04 702.19,-355.82 768,-149 777.01,-120.7 796.09,-92.77 811.66,-73.15"/>
<polygon fill="black" stroke="black" points="814.16,-75.61 817.78,-65.65 808.74,-71.19 814.16,-75.61"/>
</g>
<!-- smt&#45;&gt;sexp -->
<g id="edge137" class="edge">
<title>smt&#45;&gt;sexp</title>
<path fill="none" stroke="black" d="M712.64,-1387.06C728.37,-1377.89 748.95,-1366.53 768,-1358 826.8,-1331.69 850.12,-1344.13 904.75,-1310 923.78,-1298.11 941.73,-1280.38 954.94,-1265.61"/>
<polygon fill="black" stroke="black" points="957.23,-1268.31 961.14,-1258.47 951.94,-1263.72 957.23,-1268.31"/>
</g>
<!-- smt&#45;&gt;types -->
<g id="edge138" class="edge">
<title>smt&#45;&gt;types</title>
<path fill="none" stroke="black" d="M712.86,-1419.94C728.32,-1428.97 748.57,-1439.35 768,-1445 857.4,-1471 883.52,-1464 976.62,-1464 976.62,-1464 976.62,-1464 1194.25,-1464 1269.42,-1464 1305.22,-1459.13 1355.5,-1515 1391.87,-1555.41 1409.44,-1721.14 1415.24,-1789.4"/>
<polygon fill="black" stroke="black" points="1411.72,-1789.41 1416.03,-1799.09 1418.7,-1788.83 1411.72,-1789.41"/>
</g>
<!-- spectec&#45;&gt;grammar -->
<g id="edge139" class="edge">
<title>spectec&#45;&gt;grammar</title>
<path fill="none" stroke="black" d="M871.44,-1581.35C888.86,-1578.98 910.33,-1576.05 929.33,-1573.45"/>
<polygon fill="black" stroke="black" points="929.54,-1576.96 938.98,-1572.14 928.6,-1570.02 929.54,-1576.96"/>
</g>
<!-- store&#45;&gt;hash -->
<g id="edge140" class="edge">
<title>store&#45;&gt;hash</title>
<path fill="none" stroke="black" d="M701.55,-416.39C711.31,-428.91 723.66,-446.21 732,-463 782.96,-565.62 816.18,-698.86 829.18,-756.88"/>
<polygon fill="black" stroke="black" points="825.68,-757.27 831.25,-766.28 832.52,-755.76 825.68,-757.27"/>
</g>
<!-- store&#45;&gt;json -->
<g id="edge141" class="edge">
<title>store&#45;&gt;json</title>
<path fill="none" stroke="black" d="M712.67,-381.76C736.75,-366.9 772.59,-344.76 799.33,-328.25"/>
<polygon fill="black" stroke="black" points="801.13,-331.26 807.8,-323.02 797.46,-325.3 801.13,-331.26"/>
</g>
<!-- store&#45;&gt;sqlite -->
<g id="edge142" class="edge">
<title>store&#45;&gt;sqlite</title>
<path fill="none" stroke="black" d="M712.67,-398C736.32,-398 771.33,-398 797.91,-398"/>
<polygon fill="black" stroke="black" points="797.58,-401.5 807.58,-398 797.58,-394.5 797.58,-401.5"/>
</g>
<!-- tcb&#45;db -->
<g id="node54" class="node">
<title>tcb&#45;db</title>
<polygon fill="none" stroke="black" points="715.5,-324 655.25,-324 655.25,-288 715.5,-288 715.5,-324"/>
<text text-anchor="middle" x="685.38" y="-301.7" font-family="sans-serif" font-size="14.00">tcb&#45;db</text>
</g>
<!-- tcb&#45;db&#45;&gt;json -->
<g id="edge143" class="edge">
<title>tcb&#45;db&#45;&gt;json</title>
<path fill="none" stroke="black" d="M715.81,-306C739.24,-306 772.19,-306 797.57,-306"/>
<polygon fill="black" stroke="black" points="797.48,-309.5 807.48,-306 797.48,-302.5 797.48,-309.5"/>
</g>
<!-- tcb&#45;db&#45;&gt;sqlite -->
<g id="edge144" class="edge">
<title>tcb&#45;db&#45;&gt;sqlite</title>
<path fill="none" stroke="black" d="M715.81,-324.18C739.77,-338.97 773.69,-359.91 799.28,-375.72"/>
<polygon fill="black" stroke="black" points="797.36,-378.64 807.71,-380.92 801.04,-372.68 797.36,-378.64"/>
</g>
<!-- wasm&#45;build&#45;guest -->
<g id="node57" class="node">
<title>wasm&#45;build&#45;guest</title>
<polygon fill="none" stroke="black" points="904.75,-194 768,-194 768,-158 904.75,-158 904.75,-194"/>
<text text-anchor="middle" x="836.38" y="-171.7" font-family="sans-serif" font-size="14.00">wasm&#45;build&#45;guest</text>
</g>
<!-- wasm&#45;build&#45;guest&#45;&gt;wasm -->
<g id="edge145" class="edge">
<title>wasm&#45;build&#45;guest&#45;&gt;wasm</title>
<path fill="none" stroke="black" d="M876.91,-194.45C896.72,-203.7 920.55,-214.83 939.95,-223.88"/>
<polygon fill="black" stroke="black" points="938.3,-226.98 948.85,-228.03 941.27,-220.63 938.3,-226.98"/>
</g>
<!-- wasm&#45;spec -->
<g id="node58" class="node">
<title>wasm&#45;spec</title>
<polygon fill="none" stroke="black" points="732,-508 638.75,-508 638.75,-472 732,-472 732,-508"/>
<text text-anchor="middle" x="685.38" y="-485.7" font-family="sans-serif" font-size="14.00">wasm&#45;spec</text>
</g>
<!-- wasm&#45;spec&#45;&gt;hash -->
<g id="edge146" class="edge">
<title>wasm&#45;spec&#45;&gt;hash</title>
<path fill="none" stroke="black" d="M717.94,-508.42C723.11,-512.42 728.05,-516.98 732,-522 789.57,-595.24 818.52,-704.48 829.7,-756.46"/>
<polygon fill="black" stroke="black" points="826.23,-756.96 831.69,-766.04 833.08,-755.53 826.23,-756.96"/>
</g>
<!-- wasm&#45;spec&#45;&gt;wasm -->
<g id="edge147" class="edge">
<title>wasm&#45;spec&#45;&gt;wasm</title>
<path fill="none" stroke="black" d="M732.22,-487.87C780.82,-483.25 857.01,-468.93 904.75,-425 949.56,-383.77 966.79,-311.22 973.14,-270.63"/>
<polygon fill="black" stroke="black" points="976.58,-271.26 974.53,-260.86 969.65,-270.27 976.58,-271.26"/>
</g>
<!-- wasm&#45;store&#45;&gt;json -->
<g id="edge148" class="edge">
<title>wasm&#45;store&#45;&gt;json</title>
<path fill="none" stroke="black" d="M603.07,-242.72C657.91,-257.66 747.74,-282.13 798.12,-295.85"/>
<polygon fill="black" stroke="black" points="797.11,-299.2 807.68,-298.46 798.95,-292.45 797.11,-299.2"/>
</g>
<!-- wasm&#45;store&#45;&gt;store -->
<g id="edge149" class="edge">
<title>wasm&#45;store&#45;&gt;store</title>
<path fill="none" stroke="black" d="M587.59,-248.32C593.05,-252.38 598.37,-256.99 602.75,-262 626.03,-288.64 620.54,-302.67 638.75,-333 646.4,-345.74 655.7,-359.28 663.9,-370.69"/>
<polygon fill="black" stroke="black" points="660.86,-372.46 669.58,-378.48 666.52,-368.33 660.86,-372.46"/>
</g>
<!-- wasm&#45;store&#45;&gt;wasm -->
<g id="edge150" class="edge">
<title>wasm&#45;store&#45;&gt;wasm</title>
<path fill="none" stroke="black" d="M603.03,-231.38C645.9,-232.64 711.23,-234.52 768,-236 827.79,-237.56 897.23,-239.19 939,-240.15"/>
<polygon fill="black" stroke="black" points="938.69,-243.64 948.76,-240.37 938.85,-236.64 938.69,-243.64"/>
</g>
<!-- web&#45;kernel -->
<g id="node60" class="node">
<title>web&#45;kernel</title>
<polygon fill="none" stroke="black" points="369,-2043 277.25,-2043 277.25,-2007 369,-2007 369,-2043"/>
<text text-anchor="middle" x="323.12" y="-2020.7" font-family="sans-serif" font-size="14.00">web&#45;kernel</text>
</g>
<!-- web&#45;kernel&#45;&gt;haskell -->
<g id="edge151" class="edge">
<title>web&#45;kernel&#45;&gt;haskell</title>
<path fill="none" stroke="black" d="M369.26,-2043.31C378.22,-2046.95 387.57,-2050.74 396.39,-2054.32"/>
<polygon fill="black" stroke="black" points="394.82,-2057.46 405.4,-2057.98 397.45,-2050.97 394.82,-2057.46"/>
</g>
<!-- web&#45;kernel&#45;&gt;hol&#45;api -->
<g id="edge152" class="edge">
<title>web&#45;kernel&#45;&gt;hol&#45;api</title>
<path fill="none" stroke="black" d="M369.34,-2029.52C410.94,-2033.67 472.14,-2039.79 512.61,-2043.83"/>
<polygon fill="black" stroke="black" points="512.15,-2047.3 522.45,-2044.81 512.84,-2040.33 512.15,-2047.3"/>
</g>
<!-- web&#45;kernel&#45;&gt;kernel -->
<g id="edge153" class="edge">
<title>web&#45;kernel&#45;&gt;kernel</title>
<path fill="none" stroke="black" d="M328,-2006.61C345.2,-1926.08 417.7,-1596.9 508,-1336 517.49,-1308.58 530.75,-1278.29 540.66,-1256.79"/>
<polygon fill="black" stroke="black" points="543.81,-1258.32 544.86,-1247.78 537.46,-1255.36 543.81,-1258.32"/>
</g>
</g>
</svg>
