<?xml version="1.0" encoding="UTF-8" standalone="no"?>
<!DOCTYPE svg PUBLIC "-//W3C//DTD SVG 1.1//EN"
 "http://www.w3.org/Graphics/SVG/1.1/DTD/svg11.dtd">
<!-- Generated by graphviz version 12.2.1 (0)
 -->
<!-- Title: deps Pages: 1 -->
<svg width="1478pt" height="1913pt"
 viewBox="0.00 0.00 1477.50 1912.95" xmlns="http://www.w3.org/2000/svg" xmlns:xlink="http://www.w3.org/1999/xlink">
<g id="graph0" class="graph" transform="scale(1 1) rotate(0) translate(4 1908.95)">
<title>deps</title>
<polygon fill="white" stroke="none" points="-4,4 -4,-1908.95 1473.5,-1908.95 1473.5,4 -4,4"/>
<!-- covalence -->
<g id="node1" class="node">
<title>covalence</title>
<polygon fill="none" stroke="black" points="102.62,-1537 18.38,-1537 18.38,-1501 102.62,-1501 102.62,-1537"/>
<text text-anchor="middle" x="60.5" y="-1514.7" font-family="sans-serif" font-size="14.00">covalence</text>
</g>
<!-- client -->
<g id="node5" class="node">
<title>client</title>
<polygon fill="none" stroke="black" points="349.75,-1678 295.75,-1678 295.75,-1642 349.75,-1642 349.75,-1678"/>
<text text-anchor="middle" x="322.75" y="-1655.7" font-family="sans-serif" font-size="14.00">client</text>
</g>
<!-- covalence&#45;&gt;client -->
<g id="edge1" class="edge">
<title>covalence&#45;&gt;client</title>
<path fill="none" stroke="black" d="M103.09,-1533.07C109.63,-1536.56 115.9,-1540.83 121,-1546 148.97,-1574.32 125.91,-1603.14 157,-1628 193.14,-1656.9 247.84,-1662.26 284.17,-1662.16"/>
<polygon fill="black" stroke="black" points="283.82,-1665.67 293.76,-1661.99 283.7,-1658.67 283.82,-1665.67"/>
</g>
<!-- fuse -->
<g id="node11" class="node">
<title>fuse</title>
<polygon fill="none" stroke="black" points="606.38,-1488 552.38,-1488 552.38,-1452 606.38,-1452 606.38,-1488"/>
<text text-anchor="middle" x="579.38" y="-1465.7" font-family="sans-serif" font-size="14.00">fuse</text>
</g>
<!-- covalence&#45;&gt;fuse -->
<g id="edge2" class="edge">
<title>covalence&#45;&gt;fuse</title>
<path fill="none" stroke="black" d="M102.93,-1534.79C109.27,-1538.04 115.51,-1541.78 121,-1546 141.03,-1561.4 134.17,-1579.18 157,-1590 241.84,-1630.21 275.44,-1604.19 368.25,-1590 427.06,-1581.01 448.83,-1586.26 496,-1550 519.75,-1531.74 509.75,-1513.07 532,-1493 535.12,-1490.19 538.65,-1487.63 542.33,-1485.34"/>
<polygon fill="black" stroke="black" points="543.86,-1488.49 550.93,-1480.6 540.49,-1482.36 543.86,-1488.49"/>
</g>
<!-- git -->
<g id="node12" class="node">
<title>git</title>
<polygon fill="none" stroke="black" points="477.12,-1466 423.12,-1466 423.12,-1430 477.12,-1430 477.12,-1466"/>
<text text-anchor="middle" x="450.12" y="-1443.7" font-family="sans-serif" font-size="14.00">git</text>
</g>
<!-- covalence&#45;&gt;git -->
<g id="edge3" class="edge">
<title>covalence&#45;&gt;git</title>
<path fill="none" stroke="black" d="M102.84,-1520.91C139.45,-1521.88 194.24,-1521.55 241.25,-1514 299.42,-1504.66 312.18,-1494.09 368.25,-1476 382.64,-1471.36 398.38,-1465.98 412.11,-1461.19"/>
<polygon fill="black" stroke="black" points="412.93,-1464.61 421.2,-1457.99 410.61,-1458 412.93,-1464.61"/>
</g>
<!-- hash -->
<g id="node15" class="node">
<title>hash</title>
<polygon fill="none" stroke="black" points="887.38,-1404 833.38,-1404 833.38,-1368 887.38,-1368 887.38,-1404"/>
<text text-anchor="middle" x="860.38" y="-1381.7" font-family="sans-serif" font-size="14.00">hash</text>
</g>
<!-- covalence&#45;&gt;hash -->
<g id="edge4" class="edge">
<title>covalence&#45;&gt;hash</title>
<path fill="none" stroke="black" d="M102.94,-1532.3C109.65,-1535.91 116.02,-1540.41 121,-1546 155.79,-1585.04 120,-1621.06 157,-1658 252.41,-1753.24 659.42,-1848.05 756,-1754 829.18,-1682.73 761.66,-1624.54 792,-1527 804.72,-1486.11 827.36,-1442.04 842.86,-1414.26"/>
<polygon fill="black" stroke="black" points="845.79,-1416.19 847.67,-1405.77 839.7,-1412.74 845.79,-1416.19"/>
</g>
<!-- hol -->
<g id="node17" class="node">
<title>hol</title>
<polygon fill="none" stroke="black" points="887.38,-1800 833.38,-1800 833.38,-1764 887.38,-1764 887.38,-1800"/>
<text text-anchor="middle" x="860.38" y="-1777.7" font-family="sans-serif" font-size="14.00">hol</text>
</g>
<!-- covalence&#45;&gt;hol -->
<g id="edge5" class="edge">
<title>covalence&#45;&gt;hol</title>
<path fill="none" stroke="black" d="M102.98,-1531.05C109.94,-1534.8 116.39,-1539.68 121,-1546 202.98,-1658.43 66.93,-1750.94 157,-1857 206.29,-1915.04 245.61,-1904 321.75,-1904 321.75,-1904 321.75,-1904 580.38,-1904 661.18,-1904 683.05,-1891.75 756,-1857 783.13,-1844.08 810.51,-1823.81 830.27,-1807.61"/>
<polygon fill="black" stroke="black" points="832.47,-1810.33 837.89,-1801.23 827.98,-1804.96 832.47,-1810.33"/>
</g>
<!-- lsp -->
<g id="node26" class="node">
<title>lsp</title>
<polygon fill="none" stroke="black" points="887.38,-584 833.38,-584 833.38,-548 887.38,-548 887.38,-584"/>
<text text-anchor="middle" x="860.38" y="-561.7" font-family="sans-serif" font-size="14.00">lsp</text>
</g>
<!-- covalence&#45;&gt;lsp -->
<g id="edge6" class="edge">
<title>covalence&#45;&gt;lsp</title>
<path fill="none" stroke="black" d="M63.02,-1500.9C69.1,-1432.86 94.45,-1186.52 157,-994 176.05,-935.37 239.81,-792.98 277.25,-744 391.41,-594.66 476.4,-594.65 662.75,-570 717.66,-562.74 781.93,-563.07 821.65,-564.29"/>
<polygon fill="black" stroke="black" points="821.53,-567.79 831.64,-564.64 821.77,-560.79 821.53,-567.79"/>
</g>
<!-- object -->
<g id="node29" class="node">
<title>object</title>
<polygon fill="none" stroke="black" points="738,-1092 680.75,-1092 680.75,-1056 738,-1056 738,-1092"/>
<text text-anchor="middle" x="709.38" y="-1069.7" font-family="sans-serif" font-size="14.00">object</text>
</g>
<!-- covalence&#45;&gt;object -->
<g id="edge7" class="edge">
<title>covalence&#45;&gt;object</title>
<path fill="none" stroke="black" d="M102.89,-1510.19C139.54,-1502.07 194.35,-1489.17 241.25,-1475 255.65,-1470.65 485.94,-1394.19 496,-1383 540.97,-1332.98 497.76,-1293.9 532,-1236 551.11,-1203.69 631,-1136.37 676.43,-1099.5"/>
<polygon fill="black" stroke="black" points="678.54,-1102.29 684.12,-1093.28 674.14,-1096.84 678.54,-1102.29"/>
</g>
<!-- opentheory -->
<g id="node30" class="node">
<title>opentheory</title>
<polygon fill="none" stroke="black" points="368.25,-1876 277.25,-1876 277.25,-1840 368.25,-1840 368.25,-1876"/>
<text text-anchor="middle" x="322.75" y="-1853.7" font-family="sans-serif" font-size="14.00">opentheory</text>
</g>
<!-- covalence&#45;&gt;opentheory -->
<g id="edge8" class="edge">
<title>covalence&#45;&gt;opentheory</title>
<path fill="none" stroke="black" d="M102.92,-1531.1C109.88,-1534.84 116.35,-1539.7 121,-1546 195.56,-1646.91 71.16,-1734.49 157,-1826 184.25,-1855.05 229.38,-1862.2 265.52,-1862.56"/>
<polygon fill="black" stroke="black" points="265.42,-1866.06 275.39,-1862.46 265.36,-1859.06 265.42,-1866.06"/>
</g>
<!-- proto -->
<g id="node34" class="node">
<title>proto</title>
<polygon fill="none" stroke="black" points="349.75,-1282 295.75,-1282 295.75,-1246 349.75,-1246 349.75,-1282"/>
<text text-anchor="middle" x="322.75" y="-1259.7" font-family="sans-serif" font-size="14.00">proto</text>
</g>
<!-- covalence&#45;&gt;proto -->
<g id="edge9" class="edge">
<title>covalence&#45;&gt;proto</title>
<path fill="none" stroke="black" d="M76.38,-1500.63C94.62,-1478.44 126.84,-1440.33 157,-1410 201.4,-1365.35 256.9,-1317.69 290.81,-1289.39"/>
<polygon fill="black" stroke="black" points="292.75,-1292.34 298.2,-1283.26 288.27,-1286.96 292.75,-1292.34"/>
</g>
<!-- repl -->
<g id="node40" class="node">
<title>repl</title>
<polygon fill="none" stroke="black" points="349.75,-992 295.75,-992 295.75,-956 349.75,-956 349.75,-992"/>
<text text-anchor="middle" x="322.75" y="-969.7" font-family="sans-serif" font-size="14.00">repl</text>
</g>
<!-- covalence&#45;&gt;repl -->
<g id="edge10" class="edge">
<title>covalence&#45;&gt;repl</title>
<path fill="none" stroke="black" d="M63.19,-1500.58C70.56,-1423.84 101.97,-1130.13 157,-1058 188.73,-1016.42 246.8,-993.74 284.83,-982.75"/>
<polygon fill="black" stroke="black" points="285.29,-986.25 294,-980.23 283.43,-979.5 285.29,-986.25"/>
</g>
<!-- serve -->
<g id="node42" class="node">
<title>serve</title>
<polygon fill="none" stroke="black" points="226.12,-1103 172.12,-1103 172.12,-1067 226.12,-1067 226.12,-1103"/>
<text text-anchor="middle" x="199.12" y="-1080.7" font-family="sans-serif" font-size="14.00">serve</text>
</g>
<!-- covalence&#45;&gt;serve -->
<g id="edge11" class="edge">
<title>covalence&#45;&gt;serve</title>
<path fill="none" stroke="black" d="M64.52,-1500.69C73.84,-1446.51 104.71,-1282.81 157,-1156 163.13,-1141.14 171.84,-1125.59 179.67,-1112.84"/>
<polygon fill="black" stroke="black" points="182.52,-1114.89 184.89,-1104.56 176.6,-1111.15 182.52,-1114.89"/>
</g>
<!-- shell -->
<g id="node44" class="node">
<title>shell</title>
<polygon fill="none" stroke="black" points="477.12,-1374 423.12,-1374 423.12,-1338 477.12,-1338 477.12,-1374"/>
<text text-anchor="middle" x="450.12" y="-1351.7" font-family="sans-serif" font-size="14.00">shell</text>
</g>
<!-- covalence&#45;&gt;shell -->
<g id="edge12" class="edge">
<title>covalence&#45;&gt;shell</title>
<path fill="none" stroke="black" d="M102.98,-1501.56C179.15,-1469.53 340.1,-1401.84 412.49,-1371.4"/>
<polygon fill="black" stroke="black" points="413.66,-1374.71 421.52,-1367.61 410.95,-1368.26 413.66,-1374.71"/>
</g>
<!-- store -->
<g id="node48" class="node">
<title>store</title>
<polygon fill="none" stroke="black" points="736.38,-1404 682.38,-1404 682.38,-1368 736.38,-1368 736.38,-1404"/>
<text text-anchor="middle" x="709.38" y="-1381.7" font-family="sans-serif" font-size="14.00">store</text>
</g>
<!-- covalence&#45;&gt;store -->
<g id="edge13" class="edge">
<title>covalence&#45;&gt;store</title>
<path fill="none" stroke="black" d="M102.98,-1525.7C139.45,-1530.66 193.95,-1535.79 241.25,-1531 356.59,-1519.32 393.1,-1528.39 496,-1475 515,-1465.14 513.42,-1453.63 532,-1443 544.28,-1435.97 622.96,-1411.69 670.99,-1397.19"/>
<polygon fill="black" stroke="black" points="671.88,-1400.57 680.45,-1394.34 669.86,-1393.87 671.88,-1400.57"/>
</g>
<!-- wasm -->
<g id="node50" class="node">
<title>wasm</title>
<polygon fill="none" stroke="black" points="1028.75,-477 974.5,-477 974.5,-441 1028.75,-441 1028.75,-477"/>
<text text-anchor="middle" x="1001.62" y="-454.7" font-family="sans-serif" font-size="14.00">wasm</text>
</g>
<!-- covalence&#45;&gt;wasm -->
<g id="edge14" class="edge">
<title>covalence&#45;&gt;wasm</title>
<path fill="none" stroke="black" d="M62.84,-1500.73C70.78,-1394.36 112.82,-857.57 157,-800 181.69,-767.83 214.01,-795.04 241.25,-765 278.08,-724.38 240.86,-688.01 277.25,-647 370.88,-541.48 827.32,-479.58 962.7,-463.33"/>
<polygon fill="black" stroke="black" points="963.04,-466.81 972.56,-462.16 962.22,-459.86 963.04,-466.81"/>
</g>
<!-- acset -->
<g id="node2" class="node">
<title>acset</title>
<polygon fill="none" stroke="black" points="887.38,-362 833.38,-362 833.38,-326 887.38,-326 887.38,-362"/>
<text text-anchor="middle" x="860.38" y="-339.7" font-family="sans-serif" font-size="14.00">acset</text>
</g>
<!-- alethe -->
<g id="node3" class="node">
<title>alethe</title>
<polygon fill="none" stroke="black" points="607.62,-686 551.12,-686 551.12,-650 607.62,-650 607.62,-686"/>
<text text-anchor="middle" x="579.38" y="-663.7" font-family="sans-serif" font-size="14.00">alethe</text>
</g>
<!-- core -->
<g id="node6" class="node">
<title>core</title>
<polygon fill="#ffd6d6" stroke="black" points="1028.62,-1203 974.62,-1203 974.62,-1167 1028.62,-1167 1028.62,-1203"/>
<text text-anchor="middle" x="1001.62" y="-1180.7" font-family="sans-serif" font-size="14.00">core</text>
</g>
<!-- alethe&#45;&gt;core -->
<g id="edge15" class="edge">
<title>alethe&#45;&gt;core</title>
<path fill="none" stroke="black" d="M608,-685.83C648.61,-713.77 723.17,-772.11 756,-843 806.88,-952.85 710.97,-1023.05 792,-1113 833.85,-1159.45 870.39,-1123.57 928.75,-1146 940.82,-1150.64 953.41,-1156.92 964.61,-1163.08"/>
<polygon fill="black" stroke="black" points="962.71,-1166.03 973.14,-1167.91 966.16,-1159.94 962.71,-1166.03"/>
</g>
<!-- hol&#45;eval -->
<g id="node18" class="node">
<title>hol&#45;eval</title>
<polygon fill="none" stroke="black" points="895.38,-1050 825.38,-1050 825.38,-1014 895.38,-1014 895.38,-1050"/>
<text text-anchor="middle" x="860.38" y="-1027.7" font-family="sans-serif" font-size="14.00">hol&#45;eval</text>
</g>
<!-- alethe&#45;&gt;hol&#45;eval -->
<g id="edge16" class="edge">
<title>alethe&#45;&gt;hol&#45;eval</title>
<path fill="none" stroke="black" d="M607.86,-674.48C652.19,-685.48 736.48,-708.88 756,-732 813.41,-800.02 758.99,-846.34 792,-929 803.03,-956.63 821.99,-984.67 836.99,-1004.5"/>
<polygon fill="black" stroke="black" points="834.17,-1006.58 843.06,-1012.34 839.71,-1002.29 834.17,-1006.58"/>
</g>
<!-- init -->
<g id="node20" class="node">
<title>init</title>
<polygon fill="none" stroke="black" points="736.38,-943 682.38,-943 682.38,-907 736.38,-907 736.38,-943"/>
<text text-anchor="middle" x="709.38" y="-920.7" font-family="sans-serif" font-size="14.00">init</text>
</g>
<!-- alethe&#45;&gt;init -->
<g id="edge17" class="edge">
<title>alethe&#45;&gt;init</title>
<path fill="none" stroke="black" d="M608.04,-681.92C615.14,-686.73 622.08,-692.77 626.75,-700 675.06,-774.75 612.45,-823.57 662.75,-897 665.47,-900.97 668.95,-904.48 672.78,-907.55"/>
<polygon fill="black" stroke="black" points="670.66,-910.34 680.89,-913.08 674.6,-904.55 670.66,-910.34"/>
</g>
<!-- sexp -->
<g id="node43" class="node">
<title>sexp</title>
<polygon fill="none" stroke="black" points="1028.62,-752 974.62,-752 974.62,-716 1028.62,-716 1028.62,-752"/>
<text text-anchor="middle" x="1001.62" y="-729.7" font-family="sans-serif" font-size="14.00">sexp</text>
</g>
<!-- alethe&#45;&gt;sexp -->
<g id="edge18" class="edge">
<title>alethe&#45;&gt;sexp</title>
<path fill="none" stroke="black" d="M607.86,-663.13C645.03,-658.12 711.74,-654.89 756,-686 786.25,-707.26 760.71,-741.31 792,-761 844.69,-794.15 919.7,-771.19 963.95,-752.14"/>
<polygon fill="black" stroke="black" points="965.16,-755.43 972.86,-748.16 962.3,-749.04 965.16,-755.43"/>
</g>
<!-- smt -->
<g id="node45" class="node">
<title>smt</title>
<polygon fill="none" stroke="black" points="736.38,-289 682.38,-289 682.38,-253 736.38,-253 736.38,-289"/>
<text text-anchor="middle" x="709.38" y="-266.7" font-family="sans-serif" font-size="14.00">smt</text>
</g>
<!-- alethe&#45;&gt;smt -->
<g id="edge19" class="edge">
<title>alethe&#45;&gt;smt</title>
<path fill="none" stroke="black" d="M585.26,-649.51C593.96,-616.4 612.54,-544.79 626.75,-484 644.03,-410.07 626.56,-383.75 662.75,-317 666.66,-309.79 672.04,-302.96 677.73,-296.88"/>
<polygon fill="black" stroke="black" points="679.89,-299.67 684.52,-290.14 674.96,-294.7 679.89,-299.67"/>
</g>
<!-- types -->
<g id="node49" class="node">
<title>types</title>
<polygon fill="#ffd6d6" stroke="black" points="1469.5,-1027 1415.5,-1027 1415.5,-991 1469.5,-991 1469.5,-1027"/>
<text text-anchor="middle" x="1442.5" y="-1004.7" font-family="sans-serif" font-size="14.00">types</text>
</g>
<!-- alethe&#45;&gt;types -->
<g id="edge20" class="edge">
<title>alethe&#45;&gt;types</title>
<path fill="none" stroke="black" d="M579.91,-649.82C578.28,-546.53 584.25,-38 859.38,-38 859.38,-38 859.38,-38 1218.25,-38 1291.88,-38 1331.91,-19.82 1379.5,-76 1439.14,-146.4 1441.75,-827.66 1441.59,-979.22"/>
<polygon fill="black" stroke="black" points="1438.09,-979.2 1441.57,-989.21 1445.09,-979.21 1438.09,-979.2"/>
</g>
<!-- arrow -->
<g id="node4" class="node">
<title>arrow</title>
<polygon fill="none" stroke="black" points="606.38,-1038 552.38,-1038 552.38,-1002 606.38,-1002 606.38,-1038"/>
<text text-anchor="middle" x="579.38" y="-1015.7" font-family="sans-serif" font-size="14.00">arrow</text>
</g>
<!-- client&#45;&gt;hash -->
<g id="edge21" class="edge">
<title>client&#45;&gt;hash</title>
<path fill="none" stroke="black" d="M350.06,-1675.71C423.68,-1717.41 634.35,-1821.06 756,-1720 823.12,-1664.24 764.96,-1609.96 792,-1527 805.34,-1486.06 828.04,-1441.68 843.36,-1413.87"/>
<polygon fill="black" stroke="black" points="846.28,-1415.82 848.1,-1405.38 840.17,-1412.41 846.28,-1415.82"/>
</g>
<!-- client&#45;&gt;shell -->
<g id="edge22" class="edge">
<title>client&#45;&gt;shell</title>
<path fill="none" stroke="black" d="M328.06,-1641.63C338.09,-1600.62 365.12,-1499.09 404.25,-1421 410.71,-1408.1 419.44,-1394.83 427.48,-1383.67"/>
<polygon fill="black" stroke="black" points="430.26,-1385.8 433.4,-1375.68 424.63,-1381.64 430.26,-1385.8"/>
</g>
<!-- client&#45;&gt;store -->
<g id="edge23" class="edge">
<title>client&#45;&gt;store</title>
<path fill="none" stroke="black" d="M350.14,-1652.59C384.84,-1642.29 447.11,-1621.84 496,-1595 559.66,-1560.05 575.63,-1548.59 626.75,-1497 652.24,-1471.28 676.12,-1437.17 691.39,-1413.58"/>
<polygon fill="black" stroke="black" points="694.15,-1415.76 696.57,-1405.44 688.25,-1412 694.15,-1415.76"/>
</g>
<!-- pure -->
<g id="node35" class="node">
<title>pure</title>
<polygon fill="#ffd6d6" stroke="black" points="1244.25,-1084 1190.25,-1084 1190.25,-1048 1244.25,-1048 1244.25,-1084"/>
<text text-anchor="middle" x="1217.25" y="-1061.7" font-family="sans-serif" font-size="14.00">pure</text>
</g>
<!-- core&#45;&gt;pure -->
<g id="edge24" class="edge">
<title>core&#45;&gt;pure</title>
<path fill="none" stroke="black" d="M1028.99,-1166.81C1032.34,-1164.03 1035.61,-1161.06 1038.5,-1158 1058.3,-1137.03 1051.06,-1120.81 1074.5,-1104 1105.34,-1081.87 1148.29,-1072.63 1178.81,-1068.77"/>
<polygon fill="black" stroke="black" points="1178.79,-1072.29 1188.34,-1067.71 1178.01,-1065.34 1178.79,-1072.29"/>
</g>
<!-- pure&#45;eval -->
<g id="node36" class="node">
<title>pure&#45;eval</title>
<polygon fill="#ffd6d6" stroke="black" points="1154.25,-1149 1074.5,-1149 1074.5,-1113 1154.25,-1113 1154.25,-1149"/>
<text text-anchor="middle" x="1114.38" y="-1126.7" font-family="sans-serif" font-size="14.00">pure&#45;eval</text>
</g>
<!-- core&#45;&gt;pure&#45;eval -->
<g id="edge25" class="edge">
<title>core&#45;&gt;pure&#45;eval</title>
<path fill="none" stroke="black" d="M1028.87,-1172.2C1039.77,-1166.89 1052.76,-1160.55 1065.26,-1154.46"/>
<polygon fill="black" stroke="black" points="1066.76,-1157.62 1074.22,-1150.09 1063.7,-1151.33 1066.76,-1157.62"/>
</g>
<!-- core&#45;&gt;types -->
<g id="edge26" class="edge">
<title>core&#45;&gt;types</title>
<path fill="none" stroke="black" d="M1028.83,-1187.57C1094.56,-1192.6 1269.03,-1197.16 1379.5,-1118 1406.66,-1098.54 1423.54,-1063.23 1432.7,-1038.07"/>
<polygon fill="black" stroke="black" points="1435.97,-1039.35 1435.89,-1028.75 1429.34,-1037.08 1435.97,-1039.35"/>
</g>
<!-- core&#45;test&#45;guest -->
<g id="node7" class="node">
<title>core&#45;test&#45;guest</title>
<polygon fill="none" stroke="black" points="121,-1591 0,-1591 0,-1555 121,-1555 121,-1591"/>
<text text-anchor="middle" x="60.5" y="-1568.7" font-family="sans-serif" font-size="14.00">core&#45;test&#45;guest</text>
</g>
<!-- crypto&#45;sig -->
<g id="node8" class="node">
<title>crypto&#45;sig</title>
<polygon fill="none" stroke="black" points="241.25,-756 157,-756 157,-720 241.25,-720 241.25,-756"/>
<text text-anchor="middle" x="199.12" y="-733.7" font-family="sans-serif" font-size="14.00">crypto&#45;sig</text>
</g>
<!-- egglog -->
<g id="node9" class="node">
<title>egglog</title>
<polygon fill="none" stroke="black" points="890.88,-308 829.88,-308 829.88,-272 890.88,-272 890.88,-308"/>
<text text-anchor="middle" x="860.38" y="-285.7" font-family="sans-serif" font-size="14.00">egglog</text>
</g>
<!-- egglog&#45;&gt;sexp -->
<g id="edge27" class="edge">
<title>egglog&#45;&gt;sexp</title>
<path fill="none" stroke="black" d="M891.19,-295.1C904.61,-298.91 919.48,-305.54 928.75,-317 941.06,-332.22 982.71,-611.26 996.3,-704.18"/>
<polygon fill="black" stroke="black" points="992.83,-704.64 997.74,-714.03 999.76,-703.63 992.83,-704.64"/>
</g>
<!-- egglog&#45;&gt;types -->
<g id="edge28" class="edge">
<title>egglog&#45;&gt;types</title>
<path fill="none" stroke="black" d="M891.2,-301.23C947.84,-322.15 1069.21,-365 1113.38,-365 1113.38,-365 1113.38,-365 1218.25,-365 1350.09,-365 1421.56,-852.92 1437.87,-979.37"/>
<polygon fill="black" stroke="black" points="1434.39,-979.78 1439.12,-989.26 1441.34,-978.9 1434.39,-979.78"/>
</g>
<!-- forsp -->
<g id="node10" class="node">
<title>forsp</title>
<polygon fill="none" stroke="black" points="736.38,-1035 682.38,-1035 682.38,-999 736.38,-999 736.38,-1035"/>
<text text-anchor="middle" x="709.38" y="-1012.7" font-family="sans-serif" font-size="14.00">forsp</text>
</g>
<!-- forsp&#45;&gt;hash -->
<g id="edge29" class="edge">
<title>forsp&#45;&gt;hash</title>
<path fill="none" stroke="black" d="M736.85,-1029.07C744.17,-1033.66 751.36,-1039.61 756,-1047 820.81,-1150.29 737.88,-1209.73 792,-1319 799.79,-1334.73 812.75,-1348.97 825.24,-1360.23"/>
<polygon fill="black" stroke="black" points="822.72,-1362.68 832.58,-1366.54 827.28,-1357.37 822.72,-1362.68"/>
</g>
<!-- forsp&#45;&gt;sexp -->
<g id="edge30" class="edge">
<title>forsp&#45;&gt;sexp</title>
<path fill="none" stroke="black" d="M736.54,-1000.83C752.23,-991.57 772.81,-980.21 792,-972 850.58,-946.94 882.62,-972.95 928.75,-929 975.69,-884.28 992.15,-806.27 997.79,-763.73"/>
<polygon fill="black" stroke="black" points="1001.24,-764.33 998.95,-753.99 994.29,-763.5 1001.24,-764.33"/>
</g>
<!-- fuse&#45;&gt;hash -->
<g id="edge31" class="edge">
<title>fuse&#45;&gt;hash</title>
<path fill="none" stroke="black" d="M606.87,-1462.02C656.86,-1446.97 765.18,-1414.36 822.34,-1397.15"/>
<polygon fill="black" stroke="black" points="823.04,-1400.6 831.6,-1394.36 821.02,-1393.89 823.04,-1400.6"/>
</g>
<!-- fuse&#45;&gt;object -->
<g id="edge32" class="edge">
<title>fuse&#45;&gt;object</title>
<path fill="none" stroke="black" d="M589.16,-1451.56C599.09,-1430.29 615.36,-1394.12 626.75,-1362 659.63,-1269.3 688.51,-1156.26 701.33,-1103.62"/>
<polygon fill="black" stroke="black" points="704.72,-1104.47 703.67,-1093.92 697.92,-1102.82 704.72,-1104.47"/>
</g>
<!-- fuse&#45;&gt;store -->
<g id="edge33" class="edge">
<title>fuse&#45;&gt;store</title>
<path fill="none" stroke="black" d="M606.59,-1452.8C625.66,-1440.28 651.7,-1423.2 672.67,-1409.43"/>
<polygon fill="black" stroke="black" points="674.49,-1412.42 680.93,-1404.01 670.65,-1406.57 674.49,-1412.42"/>
</g>
<!-- git&#45;&gt;hash -->
<g id="edge34" class="edge">
<title>git&#45;&gt;hash</title>
<path fill="none" stroke="black" d="M477.4,-1464.28C484.1,-1469.34 490.85,-1475.36 496,-1482 521.39,-1514.75 497.5,-1545.04 532,-1568 614.88,-1623.16 669.96,-1618.08 756,-1568 785.37,-1550.91 826.99,-1461.67 847.3,-1414.81"/>
<polygon fill="black" stroke="black" points="850.43,-1416.37 851.15,-1405.8 844,-1413.62 850.43,-1416.37"/>
</g>
<!-- git&#45;&gt;object -->
<g id="edge35" class="edge">
<title>git&#45;&gt;object</title>
<path fill="none" stroke="black" d="M477.19,-1431.98C483.74,-1427.29 490.47,-1421.83 496,-1416 591.46,-1315.25 666.61,-1165.02 695.52,-1102.7"/>
<polygon fill="black" stroke="black" points="698.6,-1104.37 699.59,-1093.83 692.24,-1101.45 698.6,-1104.37"/>
</g>
<!-- sqlite -->
<g id="node47" class="node">
<title>sqlite</title>
<polygon fill="none" stroke="black" points="887.38,-1572 833.38,-1572 833.38,-1536 887.38,-1536 887.38,-1572"/>
<text text-anchor="middle" x="860.38" y="-1549.7" font-family="sans-serif" font-size="14.00">sqlite</text>
</g>
<!-- git&#45;&gt;sqlite -->
<g id="edge36" class="edge">
<title>git&#45;&gt;sqlite</title>
<path fill="none" stroke="black" d="M454.5,-1466.32C461.8,-1500.05 482.59,-1571.23 532,-1601 624.94,-1657 759.06,-1604.71 822.92,-1573.49"/>
<polygon fill="black" stroke="black" points="824.18,-1576.78 831.56,-1569.17 821.05,-1570.51 824.18,-1576.78"/>
</g>
<!-- git&#45;&gt;store -->
<g id="edge37" class="edge">
<title>git&#45;&gt;store</title>
<path fill="none" stroke="black" d="M477.28,-1433.22C492.74,-1425.13 512.96,-1415.63 532,-1410 578.6,-1396.23 634.49,-1390.32 670.68,-1387.81"/>
<polygon fill="black" stroke="black" points="670.88,-1391.31 680.64,-1387.18 670.44,-1384.32 670.88,-1391.31"/>
</g>
<!-- grammar -->
<g id="node13" class="node">
<title>grammar</title>
<polygon fill="none" stroke="black" points="1038.5,-1149 964.75,-1149 964.75,-1113 1038.5,-1113 1038.5,-1149"/>
<text text-anchor="middle" x="1001.62" y="-1126.7" font-family="sans-serif" font-size="14.00">grammar</text>
</g>
<!-- graph -->
<g id="node14" class="node">
<title>graph</title>
<polygon fill="none" stroke="black" points="477.12,-794 423.12,-794 423.12,-758 477.12,-758 477.12,-794"/>
<text text-anchor="middle" x="450.12" y="-771.7" font-family="sans-serif" font-size="14.00">graph</text>
</g>
<!-- graph&#45;&gt;hash -->
<g id="edge38" class="edge">
<title>graph&#45;&gt;hash</title>
<path fill="none" stroke="black" d="M454.8,-794.14C469.33,-865.54 522.37,-1124.04 532,-1139 606.24,-1254.37 754.2,-1336 822.84,-1369.32"/>
<polygon fill="black" stroke="black" points="821.25,-1372.44 831.78,-1373.6 824.27,-1366.13 821.25,-1372.44"/>
</g>
<!-- parse -->
<g id="node32" class="node">
<title>parse</title>
<polygon fill="none" stroke="black" points="1141.38,-312 1087.38,-312 1087.38,-276 1141.38,-276 1141.38,-312"/>
<text text-anchor="middle" x="1114.38" y="-289.7" font-family="sans-serif" font-size="14.00">parse</text>
</g>
<!-- graph&#45;&gt;parse -->
<g id="edge39" class="edge">
<title>graph&#45;&gt;parse</title>
<path fill="none" stroke="black" d="M451.56,-757.59C454.54,-678.49 478.02,-366.06 662.75,-244 802.08,-151.93 879.33,-196.44 1038.5,-247 1053.77,-251.85 1069.04,-260.56 1081.76,-269.18"/>
<polygon fill="black" stroke="black" points="1079.54,-271.89 1089.72,-274.81 1083.58,-266.17 1079.54,-271.89"/>
</g>
<!-- rand -->
<g id="node39" class="node">
<title>rand</title>
<polygon fill="none" stroke="black" points="1028.62,-1404 974.62,-1404 974.62,-1368 1028.62,-1368 1028.62,-1404"/>
<text text-anchor="middle" x="1001.62" y="-1381.7" font-family="sans-serif" font-size="14.00">rand</text>
</g>
<!-- hash&#45;&gt;rand -->
<g id="edge40" class="edge">
<title>hash&#45;&gt;rand</title>
<path fill="none" stroke="black" d="M887.57,-1386C908.86,-1386 939.19,-1386 963.07,-1386"/>
<polygon fill="black" stroke="black" points="963.04,-1389.5 973.04,-1386 963.04,-1382.5 963.04,-1389.5"/>
</g>
<!-- haskell -->
<g id="node16" class="node">
<title>haskell</title>
<polygon fill="none" stroke="black" points="610.62,-778 548.12,-778 548.12,-742 610.62,-742 610.62,-778"/>
<text text-anchor="middle" x="579.38" y="-755.7" font-family="sans-serif" font-size="14.00">haskell</text>
</g>
<!-- haskell&#45;&gt;init -->
<g id="edge41" class="edge">
<title>haskell&#45;&gt;init</title>
<path fill="none" stroke="black" d="M610.79,-773.41C616.71,-777.12 622.42,-781.64 626.75,-787 659.09,-827 630.87,-856.63 662.75,-897 665.67,-900.69 669.21,-904.02 673.03,-906.98"/>
<polygon fill="black" stroke="black" points="670.75,-909.66 680.99,-912.38 674.68,-903.87 670.75,-909.66"/>
</g>
<!-- hol&#45;&gt;core -->
<g id="edge42" class="edge">
<title>hol&#45;&gt;core</title>
<path fill="none" stroke="black" d="M868.62,-1763.73C882.23,-1728.77 911.77,-1649.78 928.75,-1581 952.71,-1483.96 946.65,-1457.3 964.75,-1359 974.12,-1308.12 986.61,-1249.22 994.11,-1214.65"/>
<polygon fill="black" stroke="black" points="997.51,-1215.49 996.22,-1204.97 990.67,-1213.99 997.51,-1215.49"/>
</g>
<!-- hol&#45;eval&#45;&gt;core -->
<g id="edge43" class="edge">
<title>hol&#45;eval&#45;&gt;core</title>
<path fill="none" stroke="black" d="M895.83,-1039.65C907.54,-1043.72 919.9,-1049.86 928.75,-1059 961.32,-1092.64 936.9,-1120.37 964.75,-1158 965.25,-1158.68 965.78,-1159.35 966.33,-1160.02"/>
<polygon fill="black" stroke="black" points="963.68,-1162.32 973.2,-1166.97 968.66,-1157.4 963.68,-1162.32"/>
</g>
<!-- hol&#45;eval&#45;&gt;pure -->
<g id="edge44" class="edge">
<title>hol&#45;eval&#45;&gt;pure</title>
<path fill="none" stroke="black" d="M895.72,-1035.29C962.48,-1041.69 1109.26,-1055.75 1178.58,-1062.39"/>
<polygon fill="black" stroke="black" points="1178.01,-1065.85 1188.3,-1063.32 1178.68,-1058.88 1178.01,-1065.85"/>
</g>
<!-- hol&#45;eval&#45;&gt;pure&#45;eval -->
<g id="edge45" class="edge">
<title>hol&#45;eval&#45;&gt;pure&#45;eval</title>
<path fill="none" stroke="black" d="M895.62,-1045.45C939,-1062.5 1014.07,-1091.99 1063.73,-1111.5"/>
<polygon fill="black" stroke="black" points="1062.24,-1114.67 1072.82,-1115.07 1064.8,-1108.15 1062.24,-1114.67"/>
</g>
<!-- hol&#45;eval&#45;&gt;sexp -->
<g id="edge46" class="edge">
<title>hol&#45;eval&#45;&gt;sexp</title>
<path fill="none" stroke="black" d="M883.87,-1013.57C898.49,-1000.52 916.95,-981.87 928.75,-962 967.38,-896.95 987.44,-808.94 995.79,-763.64"/>
<polygon fill="black" stroke="black" points="999.23,-764.26 997.53,-753.8 992.34,-763.04 999.23,-764.26"/>
</g>
<!-- hol&#45;eval&#45;&gt;types -->
<g id="edge47" class="edge">
<title>hol&#45;eval&#45;&gt;types</title>
<path fill="none" stroke="black" d="M895.52,-1026.9C943.89,-1020.12 1035.18,-1009 1113.38,-1009 1113.38,-1009 1113.38,-1009 1218.25,-1009 1283.4,-1009 1359.24,-1009 1403.65,-1009"/>
<polygon fill="black" stroke="black" points="1403.52,-1012.5 1413.52,-1009 1403.52,-1005.5 1403.52,-1012.5"/>
</g>
<!-- inductive -->
<g id="node19" class="node">
<title>inductive</title>
<polygon fill="none" stroke="black" points="898.75,-920 822,-920 822,-884 898.75,-884 898.75,-920"/>
<text text-anchor="middle" x="860.38" y="-897.7" font-family="sans-serif" font-size="14.00">inductive</text>
</g>
<!-- init&#45;&gt;core -->
<g id="edge48" class="edge">
<title>init&#45;&gt;core</title>
<path fill="none" stroke="black" d="M736.6,-938.38C743.9,-943.3 751.16,-949.53 756,-957 801.8,-1027.65 732.68,-1083.24 792,-1143 836.89,-1188.23 916,-1191.58 962.84,-1188.95"/>
<polygon fill="black" stroke="black" points="963.05,-1192.44 972.78,-1188.25 962.56,-1185.46 963.05,-1192.44"/>
</g>
<!-- init&#45;&gt;grammar -->
<g id="edge49" class="edge">
<title>init&#45;&gt;grammar</title>
<path fill="none" stroke="black" d="M736.43,-938.48C743.73,-943.41 751.03,-949.62 756,-957 795.76,-1016.01 738.27,-1066.35 792,-1113 835.91,-1151.12 906.39,-1148.64 953.1,-1141.4"/>
<polygon fill="black" stroke="black" points="953.66,-1144.86 962.94,-1139.73 952.49,-1137.95 953.66,-1144.86"/>
</g>
<!-- init&#45;&gt;hash -->
<g id="edge50" class="edge">
<title>init&#45;&gt;hash</title>
<path fill="none" stroke="black" d="M727.14,-943.44C737.29,-955.71 749.48,-972.71 756,-990 807.89,-1127.64 728.21,-1186.46 792,-1319 799.61,-1334.82 812.54,-1349.07 825.05,-1360.32"/>
<polygon fill="black" stroke="black" points="822.55,-1362.78 832.42,-1366.62 827.1,-1357.46 822.55,-1362.78"/>
</g>
<!-- init&#45;&gt;hol -->
<g id="edge51" class="edge">
<title>init&#45;&gt;hol</title>
<path fill="none" stroke="black" d="M727.43,-943.33C737.69,-955.57 749.9,-972.56 756,-990 799.44,-1114.2 766.87,-1451.84 792,-1581 804.28,-1644.13 831.19,-1714.73 847.03,-1753.19"/>
<polygon fill="black" stroke="black" points="843.71,-1754.32 850.79,-1762.2 850.17,-1751.63 843.71,-1754.32"/>
</g>
<!-- init&#45;&gt;hol&#45;eval -->
<g id="edge52" class="edge">
<title>init&#45;&gt;hol&#45;eval</title>
<path fill="none" stroke="black" d="M736.48,-943.2C742.88,-947.69 749.7,-952.51 756,-957 779.22,-973.56 805.2,-992.42 825.31,-1007.08"/>
<polygon fill="black" stroke="black" points="823.03,-1009.74 833.17,-1012.81 827.15,-1004.09 823.03,-1009.74"/>
</g>
<!-- init&#45;&gt;inductive -->
<g id="edge53" class="edge">
<title>init&#45;&gt;inductive</title>
<path fill="none" stroke="black" d="M736.67,-920.94C757.01,-917.8 785.75,-913.37 810.3,-909.58"/>
<polygon fill="black" stroke="black" points="810.76,-913.05 820.1,-908.06 809.69,-906.13 810.76,-913.05"/>
</g>
<!-- metamath -->
<g id="node27" class="node">
<title>metamath</title>
<polygon fill="none" stroke="black" points="900.62,-752 820.12,-752 820.12,-716 900.62,-716 900.62,-752"/>
<text text-anchor="middle" x="860.38" y="-729.7" font-family="sans-serif" font-size="14.00">metamath</text>
</g>
<!-- init&#45;&gt;metamath -->
<g id="edge54" class="edge">
<title>init&#45;&gt;metamath</title>
<path fill="none" stroke="black" d="M736.48,-911.78C743.29,-907.61 750.31,-902.61 756,-897 758.8,-894.24 813.12,-807.81 841.87,-761.96"/>
<polygon fill="black" stroke="black" points="844.77,-763.92 847.12,-753.58 838.84,-760.2 844.77,-763.92"/>
</g>
<!-- init&#45;&gt;sexp -->
<g id="edge55" class="edge">
<title>init&#45;&gt;sexp</title>
<path fill="none" stroke="black" d="M736.49,-908.98C760.23,-894.42 791.62,-875.17 792,-875 849.99,-848.61 876.95,-869.09 928.75,-832 953.96,-813.95 973.91,-784.33 986.33,-762.37"/>
<polygon fill="black" stroke="black" points="989.39,-764.08 991.09,-753.62 983.24,-760.73 989.39,-764.08"/>
</g>
<!-- spectec -->
<g id="node46" class="node">
<title>spectec</title>
<polygon fill="none" stroke="black" points="895,-1104 825.75,-1104 825.75,-1068 895,-1068 895,-1104"/>
<text text-anchor="middle" x="860.38" y="-1081.7" font-family="sans-serif" font-size="14.00">spectec</text>
</g>
<!-- init&#45;&gt;spectec -->
<g id="edge56" class="edge">
<title>init&#45;&gt;spectec</title>
<path fill="none" stroke="black" d="M736.41,-939.17C743.53,-944.05 750.74,-950.06 756,-957 785.06,-995.29 758.73,-1024.3 792,-1059 798.32,-1065.59 806.45,-1070.61 814.87,-1074.42"/>
<polygon fill="black" stroke="black" points="813.58,-1077.67 824.16,-1078.08 816.14,-1071.16 813.58,-1077.67"/>
</g>
<!-- init&#45;&gt;types -->
<g id="edge57" class="edge">
<title>init&#45;&gt;types</title>
<path fill="none" stroke="black" d="M736.65,-933.1C743.96,-936.57 751.2,-941.4 756,-948 817.38,-1032.38 724.05,-1100.81 792,-1180 855.33,-1253.8 903.37,-1246 1000.62,-1246 1000.62,-1246 1000.62,-1246 1218.25,-1246 1300.54,-1246 1324.67,-1216.36 1379.5,-1155 1409.9,-1120.98 1426.92,-1069.86 1435.14,-1038.01"/>
<polygon fill="black" stroke="black" points="1438.45,-1039.23 1437.42,-1028.68 1431.65,-1037.56 1438.45,-1039.23"/>
</g>
<!-- json -->
<g id="node21" class="node">
<title>json</title>
<polygon fill="none" stroke="black" points="887.38,-1310 833.38,-1310 833.38,-1274 887.38,-1274 887.38,-1310"/>
<text text-anchor="middle" x="860.38" y="-1287.7" font-family="sans-serif" font-size="14.00">json</text>
</g>
<!-- kernel -->
<g id="node22" class="node">
<title>kernel</title>
<polygon fill="none" stroke="black" points="608,-1130 550.75,-1130 550.75,-1094 608,-1094 608,-1130"/>
<text text-anchor="middle" x="579.38" y="-1107.7" font-family="sans-serif" font-size="14.00">kernel</text>
</g>
<!-- kernel&#45;&gt;hash -->
<g id="edge58" class="edge">
<title>kernel&#45;&gt;hash</title>
<path fill="none" stroke="black" d="M608.37,-1108.36C647.05,-1105.03 716.55,-1105.44 756,-1144 812.78,-1199.51 754.24,-1249.15 792,-1319 800.41,-1334.56 813.6,-1348.85 826.09,-1360.19"/>
<polygon fill="black" stroke="black" points="823.57,-1362.64 833.41,-1366.56 828.16,-1357.36 823.57,-1362.64"/>
</g>
<!-- kernel&#45;&gt;init -->
<g id="edge59" class="edge">
<title>kernel&#45;&gt;init</title>
<path fill="none" stroke="black" d="M593.85,-1093.7C603.26,-1080.78 616.01,-1063 626.75,-1047 643.46,-1022.13 646.14,-1014.94 662.75,-990 671.05,-977.54 680.52,-963.95 688.67,-952.44"/>
<polygon fill="black" stroke="black" points="691.33,-954.74 694.28,-944.56 685.63,-950.68 691.33,-954.74"/>
</g>
<!-- kernel&#45;&gt;object -->
<g id="edge60" class="edge">
<title>kernel&#45;&gt;object</title>
<path fill="none" stroke="black" d="M608.47,-1103.66C626.39,-1098.34 649.87,-1091.37 669.56,-1085.52"/>
<polygon fill="black" stroke="black" points="670.31,-1088.95 678.9,-1082.75 668.32,-1082.24 670.31,-1088.95"/>
</g>
<!-- kernel&#45;&gt;sexp -->
<g id="edge61" class="edge">
<title>kernel&#45;&gt;sexp</title>
<path fill="none" stroke="black" d="M596.81,-1093.73C607.01,-1081.39 619.51,-1064.26 626.75,-1047 662.36,-962.1 599.2,-909.62 662.75,-843 746.4,-755.31 817.61,-831.32 928.75,-783 942.85,-776.87 957.1,-767.87 969.15,-759.25"/>
<polygon fill="black" stroke="black" points="971.13,-762.14 977.08,-753.38 966.96,-756.51 971.13,-762.14"/>
</g>
<!-- kernel&#45;&gt;store -->
<g id="edge62" class="edge">
<title>kernel&#45;&gt;store</title>
<path fill="none" stroke="black" d="M588.97,-1130.4C610.83,-1177.2 668.67,-1301.01 694.99,-1357.35"/>
<polygon fill="black" stroke="black" points="691.77,-1358.73 699.17,-1366.31 698.11,-1355.76 691.77,-1358.73"/>
</g>
<!-- kv -->
<g id="node23" class="node">
<title>kv</title>
<polygon fill="none" stroke="black" points="226.12,-664 172.12,-664 172.12,-628 226.12,-628 226.12,-664"/>
<text text-anchor="middle" x="199.12" y="-641.7" font-family="sans-serif" font-size="14.00">kv</text>
</g>
<!-- lean -->
<g id="node24" class="node">
<title>lean</title>
<polygon fill="none" stroke="black" points="87.5,-1645 33.5,-1645 33.5,-1609 87.5,-1609 87.5,-1645"/>
<text text-anchor="middle" x="60.5" y="-1622.7" font-family="sans-serif" font-size="14.00">lean</text>
</g>
<!-- llm -->
<g id="node25" class="node">
<title>llm</title>
<polygon fill="none" stroke="black" points="226.12,-1201 172.12,-1201 172.12,-1165 226.12,-1165 226.12,-1201"/>
<text text-anchor="middle" x="199.12" y="-1178.7" font-family="sans-serif" font-size="14.00">llm</text>
</g>
<!-- llm&#45;&gt;proto -->
<g id="edge63" class="edge">
<title>llm&#45;&gt;proto</title>
<path fill="none" stroke="black" d="M226.52,-1200.58C243.89,-1212.15 266.85,-1227.44 285.87,-1240.11"/>
<polygon fill="black" stroke="black" points="283.89,-1242.99 294.15,-1245.62 287.77,-1237.16 283.89,-1242.99"/>
</g>
<!-- lsp&#45;&gt;sexp -->
<g id="edge64" class="edge">
<title>lsp&#45;&gt;sexp</title>
<path fill="none" stroke="black" d="M880.38,-584.38C894.29,-598.14 913.33,-617.67 928.75,-636 947.93,-658.79 967.81,-686.24 981.79,-706.28"/>
<polygon fill="black" stroke="black" points="978.91,-708.27 987.47,-714.51 984.66,-704.29 978.91,-708.27"/>
</g>
<!-- lsp&#45;&gt;wasm -->
<g id="edge65" class="edge">
<title>lsp&#45;&gt;wasm</title>
<path fill="none" stroke="black" d="M887.87,-556.06C900.82,-550.57 916.25,-543.02 928.75,-534 947.58,-520.42 965.64,-501.53 978.96,-486.11"/>
<polygon fill="black" stroke="black" points="981.47,-488.55 985.24,-478.65 976.12,-484.04 981.47,-488.55"/>
</g>
<!-- metamath&#45;&gt;parse -->
<g id="edge66" class="edge">
<title>metamath&#45;&gt;parse</title>
<path fill="none" stroke="black" d="M881.13,-715.69C895.22,-702.12 914.18,-682.8 928.75,-664 985.69,-590.54 997.06,-569.19 1038.5,-486 1066.26,-430.28 1090.87,-361.6 1103.79,-323.33"/>
<polygon fill="black" stroke="black" points="1107.09,-324.5 1106.94,-313.91 1100.45,-322.28 1107.09,-324.5"/>
</g>
<!-- metamath&#45;&gt;sexp -->
<g id="edge67" class="edge">
<title>metamath&#45;&gt;sexp</title>
<path fill="none" stroke="black" d="M900.91,-734C920.35,-734 943.67,-734 962.87,-734"/>
<polygon fill="black" stroke="black" points="962.7,-737.5 972.7,-734 962.7,-730.5 962.7,-737.5"/>
</g>
<!-- multiformat -->
<g id="node28" class="node">
<title>multiformat</title>
<polygon fill="none" stroke="black" points="754.5,-362 664.25,-362 664.25,-326 754.5,-326 754.5,-362"/>
<text text-anchor="middle" x="709.38" y="-339.7" font-family="sans-serif" font-size="14.00">multiformat</text>
</g>
<!-- multiformat&#45;&gt;acset -->
<g id="edge68" class="edge">
<title>multiformat&#45;&gt;acset</title>
<path fill="none" stroke="black" d="M754.68,-344C776.05,-344 801.41,-344 821.81,-344"/>
<polygon fill="black" stroke="black" points="821.68,-347.5 831.68,-344 821.68,-340.5 821.68,-347.5"/>
</g>
<!-- multiformat&#45;&gt;hash -->
<g id="edge69" class="edge">
<title>multiformat&#45;&gt;hash</title>
<path fill="none" stroke="black" d="M712.14,-362.12C718.43,-427.14 740.29,-654.88 756,-843 764.83,-948.71 747.6,-1222.66 792,-1319 799.35,-1334.95 812.23,-1349.21 824.78,-1360.44"/>
<polygon fill="black" stroke="black" points="822.3,-1362.93 832.19,-1366.74 826.83,-1357.59 822.3,-1362.93"/>
</g>
<!-- multiformat&#45;&gt;parse -->
<g id="edge70" class="edge">
<title>multiformat&#45;&gt;parse</title>
<path fill="none" stroke="black" d="M728.31,-325.86C751.72,-302.24 789.96,-263.84 792,-263 888.61,-223.2 1014.91,-257.79 1076.45,-279.55"/>
<polygon fill="black" stroke="black" points="1075.15,-282.8 1085.74,-282.92 1077.54,-276.22 1075.15,-282.8"/>
</g>
<!-- object&#45;&gt;hash -->
<g id="edge71" class="edge">
<title>object&#45;&gt;hash</title>
<path fill="none" stroke="black" d="M738.13,-1088.29C744.95,-1093.05 751.56,-1098.96 756,-1106 807.27,-1187.18 747.85,-1233.74 792,-1319 800.14,-1334.71 813.28,-1349.02 825.81,-1360.34"/>
<polygon fill="black" stroke="black" points="823.31,-1362.81 833.17,-1366.69 827.88,-1357.51 823.31,-1362.81"/>
</g>
<!-- object&#45;&gt;parse -->
<g id="edge72" class="edge">
<title>object&#45;&gt;parse</title>
<path fill="none" stroke="black" d="M738.18,-1057.27C744.25,-1053.2 750.51,-1048.66 756,-1044 773.99,-1028.74 771.95,-1017.43 792,-1005 845.82,-971.63 879.55,-1004.86 928.75,-965 1008.75,-900.19 1005.5,-858.52 1038.5,-761 1092.35,-601.86 1107.95,-398.78 1112.04,-323.66"/>
<polygon fill="black" stroke="black" points="1115.53,-324.01 1112.55,-313.85 1108.54,-323.66 1115.53,-324.01"/>
</g>
<!-- opentheory&#45;&gt;hol -->
<g id="edge73" class="edge">
<title>opentheory&#45;&gt;hol</title>
<path fill="none" stroke="black" d="M368.56,-1861.44C448.11,-1866.24 618.57,-1870.67 756,-1834 779.53,-1827.72 803.95,-1815.73 823.15,-1804.84"/>
<polygon fill="black" stroke="black" points="824.78,-1807.95 831.65,-1799.88 821.25,-1801.9 824.78,-1807.95"/>
</g>
<!-- parquet -->
<g id="node31" class="node">
<title>parquet</title>
<polygon fill="none" stroke="black" points="483.62,-1038 416.62,-1038 416.62,-1002 483.62,-1002 483.62,-1038"/>
<text text-anchor="middle" x="450.12" y="-1015.7" font-family="sans-serif" font-size="14.00">parquet</text>
</g>
<!-- parquet&#45;&gt;arrow -->
<g id="edge74" class="edge">
<title>parquet&#45;&gt;arrow</title>
<path fill="none" stroke="black" d="M483.9,-1020C501.29,-1020 522.75,-1020 540.82,-1020"/>
<polygon fill="black" stroke="black" points="540.61,-1023.5 550.61,-1020 540.61,-1016.5 540.61,-1023.5"/>
</g>
<!-- proptest -->
<g id="node33" class="node">
<title>proptest</title>
<polygon fill="none" stroke="black" points="95.88,-1699 25.12,-1699 25.12,-1663 95.88,-1663 95.88,-1699"/>
<text text-anchor="middle" x="60.5" y="-1676.7" font-family="sans-serif" font-size="14.00">proptest</text>
</g>
<!-- pure&#45;trusted -->
<g id="node37" class="node">
<title>pure&#45;trusted</title>
<polygon fill="#ffd6d6" stroke="black" points="1379.5,-1077 1280.25,-1077 1280.25,-1041 1379.5,-1041 1379.5,-1077"/>
<text text-anchor="middle" x="1329.88" y="-1054.7" font-family="sans-serif" font-size="14.00">pure&#45;trusted</text>
</g>
<!-- pure&#45;&gt;pure&#45;trusted -->
<g id="edge75" class="edge">
<title>pure&#45;&gt;pure&#45;trusted</title>
<path fill="none" stroke="black" d="M1244.75,-1064.32C1252.04,-1063.86 1260.27,-1063.34 1268.64,-1062.81"/>
<polygon fill="black" stroke="black" points="1268.81,-1066.31 1278.57,-1062.18 1268.37,-1059.32 1268.81,-1066.31"/>
</g>
<!-- pure&#45;eval&#45;&gt;pure -->
<g id="edge76" class="edge">
<title>pure&#45;eval&#45;&gt;pure</title>
<path fill="none" stroke="black" d="M1144.01,-1112.55C1155.3,-1105.28 1168.39,-1096.84 1180.3,-1089.17"/>
<polygon fill="black" stroke="black" points="1182.18,-1092.12 1188.69,-1083.76 1178.39,-1086.23 1182.18,-1092.12"/>
</g>
<!-- pure&#45;eval&#45;&gt;types -->
<g id="edge77" class="edge">
<title>pure&#45;eval&#45;&gt;types</title>
<path fill="none" stroke="black" d="M1154.56,-1132.69C1208.85,-1133.27 1308.3,-1127.8 1379.5,-1086 1399.3,-1074.38 1415.33,-1053.88 1426.13,-1036.96"/>
<polygon fill="black" stroke="black" points="1428.89,-1039.16 1431.09,-1028.79 1422.91,-1035.52 1428.89,-1039.16"/>
</g>
<!-- pure&#45;trusted&#45;&gt;types -->
<g id="edge78" class="edge">
<title>pure&#45;trusted&#45;&gt;types</title>
<path fill="none" stroke="black" d="M1371.75,-1040.52C1382.65,-1035.6 1394.34,-1030.31 1404.99,-1025.5"/>
<polygon fill="black" stroke="black" points="1406.16,-1028.81 1413.83,-1021.51 1403.28,-1022.43 1406.16,-1028.81"/>
</g>
<!-- python -->
<g id="node38" class="node">
<title>python</title>
<polygon fill="none" stroke="black" points="91.38,-878 29.62,-878 29.62,-842 91.38,-842 91.38,-878"/>
<text text-anchor="middle" x="60.5" y="-855.7" font-family="sans-serif" font-size="14.00">python</text>
</g>
<!-- python&#45;&gt;crypto&#45;sig -->
<g id="edge79" class="edge">
<title>python&#45;&gt;crypto&#45;sig</title>
<path fill="none" stroke="black" d="M80.04,-841.53C98.94,-822.95 129.32,-793.72 157,-770 159.6,-767.78 162.32,-765.51 165.08,-763.27"/>
<polygon fill="black" stroke="black" points="167.08,-766.15 172.71,-757.18 162.71,-760.68 167.08,-766.15"/>
</g>
<!-- python&#45;&gt;git -->
<g id="edge80" class="edge">
<title>python&#45;&gt;git</title>
<path fill="none" stroke="black" d="M63,-878.47C69.64,-956.09 98.68,-1255.14 157,-1326 222.46,-1405.53 348.65,-1434 411.56,-1443.55"/>
<polygon fill="black" stroke="black" points="411.01,-1447 421.4,-1444.95 412,-1440.07 411.01,-1447"/>
</g>
<!-- python&#45;&gt;graph -->
<g id="edge81" class="edge">
<title>python&#45;&gt;graph</title>
<path fill="none" stroke="black" d="M91.59,-853.48C161.56,-838.32 335.01,-800.73 411.67,-784.12"/>
<polygon fill="black" stroke="black" points="412.17,-787.59 421.21,-782.05 410.69,-780.75 412.17,-787.59"/>
</g>
<!-- python&#45;&gt;hash -->
<g id="edge82" class="edge">
<title>python&#45;&gt;hash</title>
<path fill="none" stroke="black" d="M63.05,-878.29C70.18,-959.49 101.98,-1287.11 157,-1372 267.17,-1541.98 338.82,-1570.09 532,-1631 626.95,-1660.94 674.99,-1689.87 756,-1632 796.14,-1603.33 773.33,-1572.67 792,-1527 808.29,-1487.14 830.28,-1442.5 844.64,-1414.34"/>
<polygon fill="black" stroke="black" points="847.6,-1416.24 849.05,-1405.74 841.37,-1413.04 847.6,-1416.24"/>
</g>
<!-- python&#45;&gt;kv -->
<g id="edge83" class="edge">
<title>python&#45;&gt;kv</title>
<path fill="none" stroke="black" d="M68.08,-841.69C81.14,-807.05 112.94,-730.7 157,-678 159.01,-675.59 161.24,-673.25 163.57,-671"/>
<polygon fill="black" stroke="black" points="165.5,-673.97 170.7,-664.74 160.88,-668.71 165.5,-673.97"/>
</g>
<!-- python&#45;&gt;llm -->
<g id="edge84" class="edge">
<title>python&#45;&gt;llm</title>
<path fill="none" stroke="black" d="M67.34,-878.45C80.96,-920.68 116.74,-1027.27 157,-1112 163.95,-1126.62 172.83,-1142.25 180.56,-1155.11"/>
<polygon fill="black" stroke="black" points="177.47,-1156.76 185.66,-1163.47 183.44,-1153.11 177.47,-1156.76"/>
</g>
<!-- python&#45;&gt;object -->
<g id="edge85" class="edge">
<title>python&#45;&gt;object</title>
<path fill="none" stroke="black" d="M66.89,-841.51C77.69,-808.24 105.51,-739.16 157,-711 232.12,-669.92 408.95,-679.61 496,-749 530.34,-776.37 509.84,-803.09 532,-841 565.59,-898.47 592.6,-899.86 626.75,-957 648.22,-992.92 636.09,-1011.75 662.75,-1044 665.38,-1047.18 668.44,-1050.15 671.7,-1052.89"/>
<polygon fill="black" stroke="black" points="669.34,-1055.49 679.45,-1058.66 673.52,-1049.88 669.34,-1055.49"/>
</g>
<!-- python&#45;&gt;repl -->
<g id="edge86" class="edge">
<title>python&#45;&gt;repl</title>
<path fill="none" stroke="black" d="M91.86,-873.3C139.93,-894.36 233.39,-935.3 285.11,-957.95"/>
<polygon fill="black" stroke="black" points="283.53,-961.08 294.1,-961.89 286.34,-954.67 283.53,-961.08"/>
</g>
<!-- sat -->
<g id="node41" class="node">
<title>sat</title>
<polygon fill="none" stroke="black" points="887.38,-140 833.38,-140 833.38,-104 887.38,-104 887.38,-140"/>
<text text-anchor="middle" x="860.38" y="-117.7" font-family="sans-serif" font-size="14.00">sat</text>
</g>
<!-- python&#45;&gt;sat -->
<g id="edge87" class="edge">
<title>python&#45;&gt;sat</title>
<path fill="none" stroke="black" d="M62.74,-841.52C69.33,-746.57 101.98,-313.37 157,-192 203.42,-89.59 209.31,0 321.75,0 321.75,0 321.75,0 580.38,0 676.48,0 776.78,-61.52 826.86,-97.18"/>
<polygon fill="black" stroke="black" points="824.52,-99.81 834.67,-102.85 828.63,-94.15 824.52,-99.81"/>
</g>
<!-- python&#45;&gt;serve -->
<g id="edge88" class="edge">
<title>python&#45;&gt;serve</title>
<path fill="none" stroke="black" d="M72.68,-878.41C96.56,-917.74 152.66,-1010.13 181.04,-1056.87"/>
<polygon fill="black" stroke="black" points="178.01,-1058.62 186.2,-1065.35 184,-1054.99 178.01,-1058.62"/>
</g>
<!-- python&#45;&gt;sexp -->
<g id="edge89" class="edge">
<title>python&#45;&gt;sexp</title>
<path fill="none" stroke="black" d="M61.38,-841.68C62.15,-791.06 72.11,-649.09 157,-589 374.48,-435.05 511.97,-507.01 756,-614 776.16,-622.84 773.52,-636.05 792,-648 807.11,-657.77 908.01,-697.82 963.76,-719.65"/>
<polygon fill="black" stroke="black" points="962.28,-722.83 972.86,-723.21 964.82,-716.31 962.28,-722.83"/>
</g>
<!-- python&#45;&gt;shell -->
<g id="edge90" class="edge">
<title>python&#45;&gt;shell</title>
<path fill="none" stroke="black" d="M63.19,-878.25C70.34,-951.65 100.36,-1224.3 157,-1286 223.1,-1358.01 348.99,-1362.1 411.7,-1359.12"/>
<polygon fill="black" stroke="black" points="411.7,-1362.63 421.49,-1358.56 411.3,-1355.64 411.7,-1362.63"/>
</g>
<!-- python&#45;&gt;store -->
<g id="edge91" class="edge">
<title>python&#45;&gt;store</title>
<path fill="none" stroke="black" d="M62.12,-878.24C64.82,-933.47 79.36,-1101.75 157,-1210 194.56,-1262.36 217.47,-1266.96 277.25,-1291 368.8,-1327.82 399.64,-1307.74 496,-1329 557.98,-1342.67 629.03,-1362.63 671.23,-1374.94"/>
<polygon fill="black" stroke="black" points="670.04,-1378.24 680.62,-1377.69 672.01,-1371.52 670.04,-1378.24"/>
</g>
<!-- python&#45;&gt;wasm -->
<g id="edge92" class="edge">
<title>python&#45;&gt;wasm</title>
<path fill="none" stroke="black" d="M64.54,-841.83C82.71,-736.2 180.91,-206 321.75,-206 321.75,-206 321.75,-206 710.38,-206 810.68,-206 854.5,-195.56 928.75,-263 977.08,-306.89 992.98,-386.07 998.16,-429.13"/>
<polygon fill="black" stroke="black" points="994.68,-429.44 999.22,-439.01 1001.64,-428.69 994.68,-429.44"/>
</g>
<!-- wasm&#45;store -->
<g id="node53" class="node">
<title>wasm&#45;store</title>
<polygon fill="none" stroke="black" points="626.75,-832 532,-832 532,-796 626.75,-796 626.75,-832"/>
<text text-anchor="middle" x="579.38" y="-809.7" font-family="sans-serif" font-size="14.00">wasm&#45;store</text>
</g>
<!-- python&#45;&gt;wasm&#45;store -->
<g id="edge93" class="edge">
<title>python&#45;&gt;wasm&#45;store</title>
<path fill="none" stroke="black" d="M62.25,-841.63C65.28,-794.8 80.5,-670.97 157,-619 236.17,-565.21 408.51,-598.16 496,-678 533.69,-712.39 499.87,-747.37 532,-787 532.24,-787.3 532.49,-787.59 532.74,-787.89"/>
<polygon fill="black" stroke="black" points="530.19,-790.29 539.85,-794.63 535,-785.21 530.19,-790.29"/>
</g>
<!-- repl&#45;&gt;arrow -->
<g id="edge94" class="edge">
<title>repl&#45;&gt;arrow</title>
<path fill="none" stroke="black" d="M349.99,-975.21C384,-977.15 444.98,-981.95 496,-993 511.09,-996.27 527.31,-1001.25 541.34,-1006.05"/>
<polygon fill="black" stroke="black" points="540.03,-1009.3 550.62,-1009.32 542.35,-1002.7 540.03,-1009.3"/>
</g>
<!-- repl&#45;&gt;forsp -->
<g id="edge95" class="edge">
<title>repl&#45;&gt;forsp</title>
<path fill="none" stroke="black" d="M344.59,-955.7C359.93,-943.52 381.91,-928.59 404.25,-922 443.36,-910.47 455.63,-916.25 496,-922 555.91,-930.53 572.16,-933.88 626.75,-960 627.43,-960.32 651.48,-977.13 673.29,-992.41"/>
<polygon fill="black" stroke="black" points="670.99,-995.07 681.19,-997.94 675.01,-989.34 670.99,-995.07"/>
</g>
<!-- repl&#45;&gt;git -->
<g id="edge96" class="edge">
<title>repl&#45;&gt;git</title>
<path fill="none" stroke="black" d="M328.44,-992.45C337.01,-1026.57 355.52,-1101.9 368.25,-1166 387.3,-1261.89 367.6,-1292.37 404.25,-1383 409.62,-1396.27 418.07,-1409.53 426.2,-1420.58"/>
<polygon fill="black" stroke="black" points="423.39,-1422.66 432.26,-1428.46 428.94,-1418.4 423.39,-1422.66"/>
</g>
<!-- repl&#45;&gt;graph -->
<g id="edge97" class="edge">
<title>repl&#45;&gt;graph</title>
<path fill="none" stroke="black" d="M329.3,-955.6C339.79,-923.05 365.08,-854.37 404.25,-808 407.15,-804.56 410.51,-801.31 414.04,-798.28"/>
<polygon fill="black" stroke="black" points="416.12,-801.1 421.87,-792.2 411.83,-795.57 416.12,-801.1"/>
</g>
<!-- repl&#45;&gt;hash -->
<g id="edge98" class="edge">
<title>repl&#45;&gt;hash</title>
<path fill="none" stroke="black" d="M332.68,-992.33C367.78,-1064.39 494.46,-1324.54 496,-1329 520.85,-1401.21 472.62,-1448.99 532,-1497 624.75,-1571.98 770.78,-1463.66 831.48,-1411.44"/>
<polygon fill="black" stroke="black" points="833.43,-1414.38 838.66,-1405.17 828.82,-1409.11 833.43,-1414.38"/>
</g>
<!-- repl&#45;&gt;init -->
<g id="edge99" class="edge">
<title>repl&#45;&gt;init</title>
<path fill="none" stroke="black" d="M340.19,-955.61C355.15,-940.35 378.75,-919.79 404.25,-911 496.07,-879.34 612.76,-900.34 671.32,-914.72"/>
<polygon fill="black" stroke="black" points="670.21,-918.05 680.76,-917.12 671.93,-911.26 670.21,-918.05"/>
</g>
<!-- repl&#45;&gt;object -->
<g id="edge100" class="edge">
<title>repl&#45;&gt;object</title>
<path fill="none" stroke="black" d="M350.02,-968.1C405.67,-957.12 537.61,-939.24 626.75,-993 650.51,-1007.33 642.81,-1024.71 662.75,-1044 665.41,-1046.57 668.31,-1049.05 671.33,-1051.42"/>
<polygon fill="black" stroke="black" points="669.2,-1054.2 679.36,-1057.23 673.31,-1048.53 669.2,-1054.2"/>
</g>
<!-- repl&#45;&gt;parquet -->
<g id="edge101" class="edge">
<title>repl&#45;&gt;parquet</title>
<path fill="none" stroke="black" d="M350.03,-983.64C366.12,-989.55 387.1,-997.24 405.61,-1004.04"/>
<polygon fill="black" stroke="black" points="404.16,-1007.23 414.75,-1007.39 406.57,-1000.66 404.16,-1007.23"/>
</g>
<!-- repl&#45;&gt;shell -->
<g id="edge102" class="edge">
<title>repl&#45;&gt;shell</title>
<path fill="none" stroke="black" d="M329.44,-992.4C338.25,-1021.18 355.52,-1078.69 368.25,-1128 386.25,-1197.74 376.4,-1219.58 404.25,-1286 410.46,-1300.81 419.75,-1315.97 428.27,-1328.38"/>
<polygon fill="black" stroke="black" points="425.35,-1330.31 433.98,-1336.44 431.06,-1326.26 425.35,-1330.31"/>
</g>
<!-- repl&#45;&gt;wasm -->
<g id="edge103" class="edge">
<title>repl&#45;&gt;wasm</title>
<path fill="none" stroke="black" d="M341.15,-955.68C357.33,-938.74 382.19,-912.94 404.25,-891 444.31,-851.16 468.3,-852.24 496,-803 532.16,-738.72 484.05,-697.04 532,-641 654.06,-498.36 755.11,-567.38 928.75,-496 940.58,-491.14 953.09,-485.05 964.3,-479.23"/>
<polygon fill="black" stroke="black" points="965.64,-482.48 972.84,-474.7 962.36,-476.29 965.64,-482.48"/>
</g>
<!-- sat&#45;&gt;parse -->
<g id="edge104" class="edge">
<title>sat&#45;&gt;parse</title>
<path fill="none" stroke="black" d="M887.69,-124.29C924.74,-128.7 992.84,-141.24 1038.5,-176 1068.87,-199.12 1090.19,-238.39 1102.11,-265.23"/>
<polygon fill="black" stroke="black" points="1098.77,-266.31 1105.91,-274.14 1105.21,-263.57 1098.77,-266.31"/>
</g>
<!-- sat&#45;&gt;types -->
<g id="edge105" class="edge">
<title>sat&#45;&gt;types</title>
<path fill="none" stroke="black" d="M887.85,-120.61C933.75,-118.31 1031.08,-114 1113.38,-114 1113.38,-114 1113.38,-114 1218.25,-114 1400.87,-114 1435.29,-824.38 1440.63,-979.37"/>
<polygon fill="black" stroke="black" points="1437.13,-979.32 1440.95,-989.2 1444.12,-979.09 1437.13,-979.32"/>
</g>
<!-- sat&#45;&gt;wasm -->
<g id="edge106" class="edge">
<title>sat&#45;&gt;wasm</title>
<path fill="none" stroke="black" d="M884.14,-140.28C898.88,-153.25 917.38,-171.88 928.75,-192 973.26,-270.72 991.19,-378.18 997.55,-429.45"/>
<polygon fill="black" stroke="black" points="994.04,-429.62 998.69,-439.14 1001,-428.8 994.04,-429.62"/>
</g>
<!-- serve&#45;&gt;core -->
<g id="edge107" class="edge">
<title>serve&#45;&gt;core</title>
<path fill="none" stroke="black" d="M226.53,-1076.88C261.37,-1067.8 323.51,-1057.34 368.25,-1082 394.49,-1096.46 381.74,-1119.22 404.25,-1139 405.36,-1139.98 790.55,-1318.68 792,-1319 851.35,-1332.1 876.6,-1350.21 928.75,-1319 966.48,-1296.42 985.54,-1246.51 994.25,-1214.38"/>
<polygon fill="black" stroke="black" points="997.59,-1215.45 996.64,-1204.9 990.8,-1213.74 997.59,-1215.45"/>
</g>
<!-- serve&#45;&gt;git -->
<g id="edge108" class="edge">
<title>serve&#45;&gt;git</title>
<path fill="none" stroke="black" d="M217,-1103.36C231.87,-1118.88 254.64,-1141.07 277.25,-1157 314.46,-1183.22 340.84,-1167.66 368.25,-1204 417.12,-1268.78 372.55,-1308.3 404.25,-1383 409.84,-1396.18 418.34,-1409.42 426.44,-1420.48"/>
<polygon fill="black" stroke="black" points="423.61,-1422.55 432.46,-1428.38 429.18,-1418.3 423.61,-1422.55"/>
</g>
<!-- serve&#45;&gt;hash -->
<g id="edge109" class="edge">
<title>serve&#45;&gt;hash</title>
<path fill="none" stroke="black" d="M208.99,-1103.21C221.39,-1127.04 245.92,-1168.83 277.25,-1195 311.44,-1223.55 341.5,-1201.38 368.25,-1237 432.5,-1322.54 355.68,-1379.68 404.25,-1475 440.45,-1546.06 458.22,-1570.74 532,-1601 624.11,-1638.78 671.72,-1653.99 756,-1601 757.08,-1600.32 817.89,-1473 845.73,-1414.63"/>
<polygon fill="black" stroke="black" points="848.88,-1416.16 850.02,-1405.63 842.56,-1413.15 848.88,-1416.16"/>
</g>
<!-- serve&#45;&gt;init -->
<g id="edge110" class="edge">
<title>serve&#45;&gt;init</title>
<path fill="none" stroke="black" d="M209.48,-1066.76C223.4,-1039.99 250.77,-988.71 277.25,-947 314.47,-888.38 332.22,-879.36 368.25,-820 386.61,-789.75 375.31,-769.36 404.25,-749 485.34,-691.95 549.49,-670.86 626.75,-733 684.9,-779.77 619.5,-836.19 662.75,-897 665.54,-900.92 669.06,-904.4 672.91,-907.45"/>
<polygon fill="black" stroke="black" points="670.8,-910.25 681.04,-912.98 674.74,-904.46 670.8,-910.25"/>
</g>
<!-- serve&#45;&gt;metamath -->
<g id="edge111" class="edge">
<title>serve&#45;&gt;metamath</title>
<path fill="none" stroke="black" d="M201.76,-1066.77C206.54,-1021.51 223.76,-901.81 277.25,-820 306.09,-775.9 331.78,-782.04 368.25,-744 386.46,-725.01 383.55,-713.24 404.25,-697 528.09,-599.86 618.73,-579.01 756,-656 778.64,-668.7 771.73,-685.78 792,-702 797.44,-706.35 803.57,-710.29 809.86,-713.8"/>
<polygon fill="black" stroke="black" points="807.96,-716.76 818.45,-718.25 811.18,-710.54 807.96,-716.76"/>
</g>
<!-- serve&#45;&gt;object -->
<g id="edge112" class="edge">
<title>serve&#45;&gt;object</title>
<path fill="none" stroke="black" d="M226.38,-1070.62C240.91,-1063.48 259.56,-1055.63 277.25,-1052 351.45,-1036.79 577.27,-1059.32 669.01,-1069.47"/>
<polygon fill="black" stroke="black" points="668.44,-1072.93 678.77,-1070.56 669.22,-1065.97 668.44,-1072.93"/>
</g>
<!-- serve&#45;&gt;proto -->
<g id="edge113" class="edge">
<title>serve&#45;&gt;proto</title>
<path fill="none" stroke="black" d="M211.37,-1103.45C219.89,-1117.65 231.71,-1137.84 241.25,-1156 258.63,-1189.09 253.32,-1203.29 277.25,-1232 279.97,-1235.26 283.09,-1238.36 286.4,-1241.25"/>
<polygon fill="black" stroke="black" points="284.21,-1243.98 294.22,-1247.45 288.56,-1238.5 284.21,-1243.98"/>
</g>
<!-- serve&#45;&gt;repl -->
<g id="edge114" class="edge">
<title>serve&#45;&gt;repl</title>
<path fill="none" stroke="black" d="M220.04,-1066.55C235.58,-1052.18 257.73,-1031.76 277.25,-1014 282.27,-1009.43 287.63,-1004.59 292.82,-999.91"/>
<polygon fill="black" stroke="black" points="295.1,-1002.57 300.2,-993.28 290.42,-997.36 295.1,-1002.57"/>
</g>
<!-- serve&#45;&gt;shell -->
<g id="edge115" class="edge">
<title>serve&#45;&gt;shell</title>
<path fill="none" stroke="black" d="M226.6,-1096.35C271.41,-1115.76 358.31,-1154.36 368.25,-1166 404.4,-1208.35 381,-1235.41 404.25,-1286 410.96,-1300.59 420.31,-1315.72 428.74,-1328.17"/>
<polygon fill="black" stroke="black" points="425.79,-1330.06 434.38,-1336.27 431.54,-1326.06 425.79,-1330.06"/>
</g>
<!-- serve&#45;&gt;store -->
<g id="edge116" class="edge">
<title>serve&#45;&gt;store</title>
<path fill="none" stroke="black" d="M226.39,-1083.67C261.91,-1083.21 325.71,-1087.23 368.25,-1118 394.7,-1137.12 380.77,-1159.34 404.25,-1182 484.2,-1259.16 538.4,-1228.62 626.75,-1296 650.39,-1314.03 672.74,-1339.48 688.06,-1358.73"/>
<polygon fill="black" stroke="black" points="685.14,-1360.68 694.05,-1366.42 690.67,-1356.38 685.14,-1360.68"/>
</g>
<!-- sexp&#45;&gt;parse -->
<g id="edge117" class="edge">
<title>sexp&#45;&gt;parse</title>
<path fill="none" stroke="black" d="M1008.27,-715.74C1015.6,-691.8 1028.63,-648.42 1038.5,-611 1066.24,-505.81 1094.57,-379.69 1106.94,-323.51"/>
<polygon fill="black" stroke="black" points="1110.35,-324.3 1109.08,-313.79 1103.51,-322.8 1110.35,-324.3"/>
</g>
<!-- shell&#45;&gt;hol -->
<g id="edge118" class="edge">
<title>shell&#45;&gt;hol</title>
<path fill="none" stroke="black" d="M466.42,-1374.24C476.17,-1386.71 488.36,-1403.99 496,-1421 523.56,-1482.36 493.14,-1513.1 532,-1568 607.44,-1674.57 754.26,-1741.79 822.66,-1768.64"/>
<polygon fill="black" stroke="black" points="821.33,-1771.87 831.92,-1772.2 823.84,-1765.34 821.33,-1771.87"/>
</g>
<!-- shell&#45;&gt;kernel -->
<g id="edge119" class="edge">
<title>shell&#45;&gt;kernel</title>
<path fill="none" stroke="black" d="M458.63,-1337.52C471.98,-1305.24 501.34,-1236.8 532,-1182 540.11,-1167.5 550.19,-1152.04 558.88,-1139.35"/>
<polygon fill="black" stroke="black" points="561.51,-1141.7 564.33,-1131.49 555.76,-1137.71 561.51,-1141.7"/>
</g>
<!-- smt&#45;&gt;sat -->
<g id="edge120" class="edge">
<title>smt&#45;&gt;sat</title>
<path fill="none" stroke="black" d="M728.65,-252.73C754.78,-226.59 803,-178.37 833.01,-148.37"/>
<polygon fill="black" stroke="black" points="835.29,-151.04 839.88,-141.49 830.34,-146.09 835.29,-151.04"/>
</g>
<!-- smt&#45;&gt;sexp -->
<g id="edge121" class="edge">
<title>smt&#45;&gt;sexp</title>
<path fill="none" stroke="black" d="M734.09,-289.28C742.36,-296.93 750.85,-306.49 756,-317 810.42,-428.09 723.91,-489.72 792,-593 830.88,-651.98 871.06,-633.23 928.75,-674 943.63,-684.52 959.27,-697.33 972.14,-708.41"/>
<polygon fill="black" stroke="black" points="969.59,-710.83 979.43,-714.77 974.19,-705.56 969.59,-710.83"/>
</g>
<!-- smt&#45;&gt;types -->
<g id="edge122" class="edge">
<title>smt&#45;&gt;types</title>
<path fill="none" stroke="black" d="M712.88,-252.51C718.95,-215.57 738.17,-132.92 792,-95 868.12,-41.38 907.52,-76 1000.62,-76 1000.62,-76 1000.62,-76 1218.25,-76 1296.38,-76 1334.33,-82.25 1379.5,-146 1428.6,-215.3 1439.34,-835.68 1441.17,-979.38"/>
<polygon fill="black" stroke="black" points="1437.67,-979.23 1441.29,-989.19 1444.67,-979.15 1437.67,-979.23"/>
</g>
<!-- spectec&#45;&gt;grammar -->
<g id="edge123" class="edge">
<title>spectec&#45;&gt;grammar</title>
<path fill="none" stroke="black" d="M895.44,-1097.01C912.94,-1102.66 934.54,-1109.64 953.6,-1115.8"/>
<polygon fill="black" stroke="black" points="952.45,-1119.11 963.04,-1118.85 954.6,-1112.45 952.45,-1119.11"/>
</g>
<!-- store&#45;&gt;hash -->
<g id="edge124" class="edge">
<title>store&#45;&gt;hash</title>
<path fill="none" stroke="black" d="M736.67,-1386C760.32,-1386 795.33,-1386 821.91,-1386"/>
<polygon fill="black" stroke="black" points="821.58,-1389.5 831.58,-1386 821.58,-1382.5 821.58,-1389.5"/>
</g>
<!-- store&#45;&gt;json -->
<g id="edge125" class="edge">
<title>store&#45;&gt;json</title>
<path fill="none" stroke="black" d="M736.67,-1369.41C760.85,-1354.16 796.91,-1331.41 823.69,-1314.51"/>
<polygon fill="black" stroke="black" points="825.22,-1317.68 831.81,-1309.39 821.49,-1311.76 825.22,-1317.68"/>
</g>
<!-- store&#45;&gt;sqlite -->
<g id="edge126" class="edge">
<title>store&#45;&gt;sqlite</title>
<path fill="none" stroke="black" d="M726.6,-1404.3C752.91,-1433.96 805,-1492.69 835.53,-1527.12"/>
<polygon fill="black" stroke="black" points="832.91,-1529.43 842.16,-1534.59 838.14,-1524.79 832.91,-1529.43"/>
</g>
<!-- wasm&#45;build&#45;guest -->
<g id="node51" class="node">
<title>wasm&#45;build&#45;guest</title>
<polygon fill="none" stroke="black" points="928.75,-454 792,-454 792,-418 928.75,-418 928.75,-454"/>
<text text-anchor="middle" x="860.38" y="-431.7" font-family="sans-serif" font-size="14.00">wasm&#45;build&#45;guest</text>
</g>
<!-- wasm&#45;build&#45;guest&#45;&gt;wasm -->
<g id="edge127" class="edge">
<title>wasm&#45;build&#45;guest&#45;&gt;wasm</title>
<path fill="none" stroke="black" d="M928.96,-447.16C940.64,-449.09 952.4,-451.03 962.92,-452.77"/>
<polygon fill="black" stroke="black" points="962.26,-456.21 972.7,-454.39 963.4,-449.3 962.26,-456.21"/>
</g>
<!-- wasm&#45;spec -->
<g id="node52" class="node">
<title>wasm&#45;spec</title>
<polygon fill="none" stroke="black" points="756,-888 662.75,-888 662.75,-852 756,-852 756,-888"/>
<text text-anchor="middle" x="709.38" y="-865.7" font-family="sans-serif" font-size="14.00">wasm&#45;spec</text>
</g>
<!-- wasm&#45;spec&#45;&gt;hash -->
<g id="edge128" class="edge">
<title>wasm&#45;spec&#45;&gt;hash</title>
<path fill="none" stroke="black" d="M747.58,-888.27C750.84,-891.13 753.76,-894.36 756,-898 805.31,-977.91 752.28,-1233.92 792,-1319 799.43,-1334.91 812.32,-1349.17 824.86,-1360.41"/>
<polygon fill="black" stroke="black" points="822.37,-1362.89 832.26,-1366.7 826.91,-1357.56 822.37,-1362.89"/>
</g>
<!-- wasm&#45;spec&#45;&gt;wasm -->
<g id="edge129" class="edge">
<title>wasm&#45;spec&#45;&gt;wasm</title>
<path fill="none" stroke="black" d="M723.38,-851.62C733.11,-837.4 746.33,-816.99 756,-798 775.73,-759.24 766.51,-742.24 792,-707 838.38,-642.89 878.74,-654.32 928.75,-593 955.41,-560.31 976.79,-516.22 989.1,-487.7"/>
<polygon fill="black" stroke="black" points="992.26,-489.2 992.92,-478.62 985.81,-486.48 992.26,-489.2"/>
</g>
<!-- wasm&#45;store&#45;&gt;json -->
<g id="edge130" class="edge">
<title>wasm&#45;store&#45;&gt;json</title>
<path fill="none" stroke="black" d="M593.28,-832.4C602.88,-846.34 616.1,-866.08 626.75,-884 644.21,-913.4 637.39,-929.06 662.75,-952 695.94,-982.03 728.62,-954.6 756,-990 830.05,-1085.77 720.68,-1162.18 792,-1260 799.4,-1270.15 810.87,-1277.2 822.25,-1282.05"/>
<polygon fill="black" stroke="black" points="821,-1285.32 831.59,-1285.52 823.44,-1278.75 821,-1285.32"/>
</g>
<!-- wasm&#45;store&#45;&gt;store -->
<g id="edge131" class="edge">
<title>wasm&#45;store&#45;&gt;store</title>
<path fill="none" stroke="black" d="M585.48,-832.48C594.36,-864.87 613,-934.07 626.75,-993 658.27,-1128.12 690.13,-1290.79 702.74,-1356.42"/>
<polygon fill="black" stroke="black" points="699.26,-1356.87 704.58,-1366.03 706.14,-1355.55 699.26,-1356.87"/>
</g>
<!-- wasm&#45;store&#45;&gt;wasm -->
<g id="edge132" class="edge">
<title>wasm&#45;store&#45;&gt;wasm</title>
<path fill="none" stroke="black" d="M617.04,-795.76C620.58,-793.12 623.9,-790.2 626.75,-787 748.73,-650.11 638.57,-509.38 792,-409 842.86,-375.73 870.76,-390.81 928.75,-409 944.58,-413.97 959.98,-423.79 972.44,-433.42"/>
<polygon fill="black" stroke="black" points="970.21,-436.12 980.18,-439.72 974.63,-430.69 970.21,-436.12"/>
</g>
<!-- web&#45;kernel -->
<g id="node54" class="node">
<title>web&#45;kernel</title>
<polygon fill="none" stroke="black" points="496,-1130 404.25,-1130 404.25,-1094 496,-1094 496,-1130"/>
<text text-anchor="middle" x="450.12" y="-1107.7" font-family="sans-serif" font-size="14.00">web&#45;kernel</text>
</g>
<!-- web&#45;kernel&#45;&gt;kernel -->
<g id="edge133" class="edge">
<title>web&#45;kernel&#45;&gt;kernel</title>
<path fill="none" stroke="black" d="M496.35,-1112C510.27,-1112 525.48,-1112 538.98,-1112"/>
<polygon fill="black" stroke="black" points="538.81,-1115.5 548.81,-1112 538.81,-1108.5 538.81,-1115.5"/>
</g>
</g>
</svg>
