<?xml version="1.0" encoding="UTF-8" standalone="no"?>
<!DOCTYPE svg PUBLIC "-//W3C//DTD SVG 1.1//EN"
 "http://www.w3.org/Graphics/SVG/1.1/DTD/svg11.dtd">
<!-- Generated by graphviz version 12.2.1 (0)
 -->
<!-- Title: deps Pages: 1 -->
<svg width="1518pt" height="2648pt"
 viewBox="0.00 0.00 1517.50 2648.44" xmlns="http://www.w3.org/2000/svg" xmlns:xlink="http://www.w3.org/1999/xlink">
<g id="graph0" class="graph" transform="scale(1 1) rotate(0) translate(4 2644.44)">
<title>deps</title>
<polygon fill="white" stroke="none" points="-4,4 -4,-2644.44 1513.5,-2644.44 1513.5,4 -4,4"/>
<!-- covalence -->
<g id="node1" class="node">
<title>covalence</title>
<polygon fill="none" stroke="black" points="102.62,-998 18.38,-998 18.38,-962 102.62,-962 102.62,-998"/>
<text text-anchor="middle" x="60.5" y="-975.7" font-family="sans-serif" font-size="14.00">covalence</text>
</g>
<!-- client -->
<g id="node5" class="node">
<title>client</title>
<polygon fill="none" stroke="black" points="350.12,-990 296.12,-990 296.12,-954 350.12,-954 350.12,-990"/>
<text text-anchor="middle" x="323.12" y="-967.7" font-family="sans-serif" font-size="14.00">client</text>
</g>
<!-- covalence&#45;&gt;client -->
<g id="edge1" class="edge">
<title>covalence&#45;&gt;client</title>
<path fill="none" stroke="black" d="M103.08,-978.72C153.03,-977.19 236.1,-974.64 284.31,-973.16"/>
<polygon fill="black" stroke="black" points="284.37,-976.66 294.26,-972.86 284.16,-969.66 284.37,-976.66"/>
</g>
<!-- fuse -->
<g id="node12" class="node">
<title>fuse</title>
<polygon fill="none" stroke="black" points="606.38,-594 552.38,-594 552.38,-558 606.38,-558 606.38,-594"/>
<text text-anchor="middle" x="579.38" y="-571.7" font-family="sans-serif" font-size="14.00">fuse</text>
</g>
<!-- covalence&#45;&gt;fuse -->
<g id="edge2" class="edge">
<title>covalence&#45;&gt;fuse</title>
<path fill="none" stroke="black" d="M61.66,-961.55C63.16,-909.68 74.8,-761.32 157,-684 213.19,-631.15 448.05,-593.87 540.63,-580.97"/>
<polygon fill="black" stroke="black" points="541.02,-584.45 550.46,-579.62 540.07,-577.51 541.02,-584.45"/>
</g>
<!-- git -->
<g id="node13" class="node">
<title>git</title>
<polygon fill="none" stroke="black" points="477.5,-518 423.5,-518 423.5,-482 477.5,-482 477.5,-518"/>
<text text-anchor="middle" x="450.5" y="-495.7" font-family="sans-serif" font-size="14.00">git</text>
</g>
<!-- covalence&#45;&gt;git -->
<g id="edge3" class="edge">
<title>covalence&#45;&gt;git</title>
<path fill="none" stroke="black" d="M62.9,-961.56C68.97,-886.78 95.51,-607.37 157,-549 226.64,-482.9 350.03,-487.1 411.91,-494.25"/>
<polygon fill="black" stroke="black" points="411.22,-497.69 421.58,-495.47 412.09,-490.75 411.22,-497.69"/>
</g>
<!-- hash -->
<g id="node16" class="node">
<title>hash</title>
<polygon fill="none" stroke="black" points="887.38,-792 833.38,-792 833.38,-756 887.38,-756 887.38,-792"/>
<text text-anchor="middle" x="860.38" y="-769.7" font-family="sans-serif" font-size="14.00">hash</text>
</g>
<!-- covalence&#45;&gt;hash -->
<g id="edge4" class="edge">
<title>covalence&#45;&gt;hash</title>
<path fill="none" stroke="black" d="M73.64,-961.64C103.08,-918.65 182.82,-811.07 277.25,-757 462.24,-651.08 548.57,-678.88 756,-728 779.22,-733.5 803.69,-744.14 822.99,-753.8"/>
<polygon fill="black" stroke="black" points="821.3,-756.87 831.79,-758.34 824.5,-750.65 821.3,-756.87"/>
</g>
<!-- hol -->
<g id="node18" class="node">
<title>hol</title>
<polygon fill="none" stroke="black" points="887.38,-2388 833.38,-2388 833.38,-2352 887.38,-2352 887.38,-2388"/>
<text text-anchor="middle" x="860.38" y="-2365.7" font-family="sans-serif" font-size="14.00">hol</text>
</g>
<!-- covalence&#45;&gt;hol -->
<g id="edge5" class="edge">
<title>covalence&#45;&gt;hol</title>
<path fill="none" stroke="black" d="M103.06,-991.62C110.1,-995.41 116.56,-1000.41 121,-1007 175.5,-1087.88 142.55,-1787.55 157,-1884 199.88,-2170.26 32.67,-2514 322.12,-2514 322.12,-2514 322.12,-2514 580.38,-2514 666.33,-2514 686.8,-2483.99 756,-2433 775.25,-2418.81 772.04,-2406.18 792,-2393 801.09,-2387 811.91,-2382.4 822.18,-2378.96"/>
<polygon fill="black" stroke="black" points="823.02,-2382.36 831.57,-2376.1 820.98,-2375.67 823.02,-2382.36"/>
</g>
<!-- init -->
<g id="node22" class="node">
<title>init</title>
<polygon fill="none" stroke="black" points="736.38,-1763 682.38,-1763 682.38,-1727 736.38,-1727 736.38,-1763"/>
<text text-anchor="middle" x="709.38" y="-1740.7" font-family="sans-serif" font-size="14.00">init</text>
</g>
<!-- covalence&#45;&gt;init -->
<g id="edge6" class="edge">
<title>covalence&#45;&gt;init</title>
<path fill="none" stroke="black" d="M102.88,-991.74C109.94,-995.53 116.45,-1000.49 121,-1007 181.54,-1093.57 123.34,-1380.87 157,-1481 200.15,-1609.33 186.73,-1737 322.12,-1737 322.12,-1737 322.12,-1737 451.5,-1737 529.57,-1737 620.92,-1740.74 670.93,-1743.1"/>
<polygon fill="black" stroke="black" points="670.46,-1746.58 680.62,-1743.57 670.8,-1739.59 670.46,-1746.58"/>
</g>
<!-- lsp -->
<g id="node34" class="node">
<title>lsp</title>
<polygon fill="none" stroke="black" points="887.38,-1104 833.38,-1104 833.38,-1068 887.38,-1068 887.38,-1104"/>
<text text-anchor="middle" x="860.38" y="-1081.7" font-family="sans-serif" font-size="14.00">lsp</text>
</g>
<!-- covalence&#45;&gt;lsp -->
<g id="edge7" class="edge">
<title>covalence&#45;&gt;lsp</title>
<path fill="none" stroke="black" d="M102.99,-993.26C109.69,-996.87 116.05,-1001.39 121,-1007 156.71,-1047.48 119.18,-1084.48 157,-1123 238.33,-1205.84 290.39,-1186.54 405,-1205 444.93,-1211.43 456.06,-1211.37 496,-1205 561.11,-1194.61 743.99,-1128.69 822.65,-1099.67"/>
<polygon fill="black" stroke="black" points="823.45,-1103.11 831.61,-1096.36 821.02,-1096.54 823.45,-1103.11"/>
</g>
<!-- object -->
<g id="node38" class="node">
<title>object</title>
<polygon fill="none" stroke="black" points="738,-930 680.75,-930 680.75,-894 738,-894 738,-930"/>
<text text-anchor="middle" x="709.38" y="-907.7" font-family="sans-serif" font-size="14.00">object</text>
</g>
<!-- covalence&#45;&gt;object -->
<g id="edge8" class="edge">
<title>covalence&#45;&gt;object</title>
<path fill="none" stroke="black" d="M102.83,-993.86C109.47,-997.4 115.84,-1001.73 121,-1007 149.42,-1036.02 123.09,-1068.64 157,-1091 282.98,-1174.07 348.06,-1101.77 496,-1072 555.84,-1059.96 582.5,-1072.04 626.75,-1030 659.49,-998.9 632.54,-968.55 662.75,-935 665.11,-932.38 667.83,-930.02 670.75,-927.9"/>
<polygon fill="black" stroke="black" points="672.53,-930.92 679.25,-922.73 668.89,-924.94 672.53,-930.92"/>
</g>
<!-- opentheory -->
<g id="node39" class="node">
<title>opentheory</title>
<polygon fill="none" stroke="black" points="496,-2418 405,-2418 405,-2382 496,-2382 496,-2418"/>
<text text-anchor="middle" x="450.5" y="-2395.7" font-family="sans-serif" font-size="14.00">opentheory</text>
</g>
<!-- covalence&#45;&gt;opentheory -->
<g id="edge9" class="edge">
<title>covalence&#45;&gt;opentheory</title>
<path fill="none" stroke="black" d="M103.02,-991.64C110.07,-995.44 116.54,-1000.43 121,-1007 167.5,-1075.47 137.97,-1670.45 157,-1751 217.27,-2006.14 378.49,-2284.06 431.98,-2371.83"/>
<polygon fill="black" stroke="black" points="428.96,-2373.59 437.17,-2380.29 434.92,-2369.93 428.96,-2373.59"/>
</g>
<!-- proto -->
<g id="node44" class="node">
<title>proto</title>
<polygon fill="none" stroke="black" points="350.12,-594 296.12,-594 296.12,-558 350.12,-558 350.12,-594"/>
<text text-anchor="middle" x="323.12" y="-571.7" font-family="sans-serif" font-size="14.00">proto</text>
</g>
<!-- covalence&#45;&gt;proto -->
<g id="edge10" class="edge">
<title>covalence&#45;&gt;proto</title>
<path fill="none" stroke="black" d="M61.5,-961.5C62.48,-906.41 72.69,-741.32 157,-646 165.98,-635.85 239.15,-607.12 285.03,-589.78"/>
<polygon fill="black" stroke="black" points="286.22,-593.07 294.35,-586.27 283.76,-586.52 286.22,-593.07"/>
</g>
<!-- repl -->
<g id="node50" class="node">
<title>repl</title>
<polygon fill="none" stroke="black" points="350.12,-884 296.12,-884 296.12,-848 350.12,-848 350.12,-884"/>
<text text-anchor="middle" x="323.12" y="-861.7" font-family="sans-serif" font-size="14.00">repl</text>
</g>
<!-- covalence&#45;&gt;repl -->
<g id="edge11" class="edge">
<title>covalence&#45;&gt;repl</title>
<path fill="none" stroke="black" d="M103.08,-961.81C153.46,-939.78 237.51,-903.01 285.53,-882.01"/>
<polygon fill="black" stroke="black" points="286.63,-885.35 294.38,-878.13 283.82,-878.93 286.63,-885.35"/>
</g>
<!-- serve -->
<g id="node53" class="node">
<title>serve</title>
<polygon fill="none" stroke="black" points="226.12,-1082 172.12,-1082 172.12,-1046 226.12,-1046 226.12,-1082"/>
<text text-anchor="middle" x="199.12" y="-1059.7" font-family="sans-serif" font-size="14.00">serve</text>
</g>
<!-- covalence&#45;&gt;serve -->
<g id="edge12" class="edge">
<title>covalence&#45;&gt;serve</title>
<path fill="none" stroke="black" d="M103.04,-997.49C109.17,-1000.46 115.33,-1003.67 121,-1007 130.02,-1012.3 148.78,-1026.14 165.54,-1038.86"/>
<polygon fill="black" stroke="black" points="163.29,-1041.54 173.37,-1044.83 167.54,-1035.98 163.29,-1041.54"/>
</g>
<!-- shell -->
<g id="node56" class="node">
<title>shell</title>
<polygon fill="none" stroke="black" points="477.5,-1540 423.5,-1540 423.5,-1504 477.5,-1504 477.5,-1540"/>
<text text-anchor="middle" x="450.5" y="-1517.7" font-family="sans-serif" font-size="14.00">shell</text>
</g>
<!-- covalence&#45;&gt;shell -->
<g id="edge13" class="edge">
<title>covalence&#45;&gt;shell</title>
<path fill="none" stroke="black" d="M102.83,-991.78C109.89,-995.56 116.42,-1000.51 121,-1007 175.18,-1083.69 111.86,-1345.67 157,-1428 189.35,-1487.01 213.64,-1498.05 277.25,-1520 321.57,-1535.3 376.21,-1532.61 411.9,-1528.23"/>
<polygon fill="black" stroke="black" points="412.3,-1531.7 421.74,-1526.9 411.36,-1524.77 412.3,-1531.7"/>
</g>
<!-- store -->
<g id="node60" class="node">
<title>store</title>
<polygon fill="none" stroke="black" points="736.38,-350 682.38,-350 682.38,-314 736.38,-314 736.38,-350"/>
<text text-anchor="middle" x="709.38" y="-327.7" font-family="sans-serif" font-size="14.00">store</text>
</g>
<!-- covalence&#45;&gt;store -->
<g id="edge14" class="edge">
<title>covalence&#45;&gt;store</title>
<path fill="none" stroke="black" d="M64.08,-961.77C77.45,-867.6 139.02,-439.69 157,-418 285.43,-263 568.59,-302.95 670.72,-323.5"/>
<polygon fill="black" stroke="black" points="669.99,-326.93 680.49,-325.53 671.41,-320.07 669.99,-326.93"/>
</g>
<!-- wasm -->
<g id="node63" class="node">
<title>wasm</title>
<polygon fill="none" stroke="black" points="1028.75,-304 974.5,-304 974.5,-268 1028.75,-268 1028.75,-304"/>
<text text-anchor="middle" x="1001.62" y="-281.7" font-family="sans-serif" font-size="14.00">wasm</text>
</g>
<!-- covalence&#45;&gt;wasm -->
<g id="edge15" class="edge">
<title>covalence&#45;&gt;wasm</title>
<path fill="none" stroke="black" d="M62.66,-961.61C68.02,-882.22 92.93,-569.79 157,-500 288.85,-356.37 383.41,-378 578.38,-378 578.38,-378 578.38,-378 710.38,-378 807.8,-378 840.61,-400.49 928.75,-359 950.14,-348.93 968.69,-329.64 981.59,-313.42"/>
<polygon fill="black" stroke="black" points="984.33,-315.6 987.59,-305.52 978.75,-311.36 984.33,-315.6"/>
</g>
<!-- acset -->
<g id="node2" class="node">
<title>acset</title>
<polygon fill="none" stroke="black" points="887.38,-1050 833.38,-1050 833.38,-1014 887.38,-1014 887.38,-1050"/>
<text text-anchor="middle" x="860.38" y="-1027.7" font-family="sans-serif" font-size="14.00">acset</text>
</g>
<!-- alethe -->
<g id="node3" class="node">
<title>alethe</title>
<polygon fill="none" stroke="black" points="607.62,-1570 551.12,-1570 551.12,-1534 607.62,-1534 607.62,-1570"/>
<text text-anchor="middle" x="579.38" y="-1547.7" font-family="sans-serif" font-size="14.00">alethe</text>
</g>
<!-- core -->
<g id="node6" class="node">
<title>core</title>
<polygon fill="#ffd6d6" stroke="black" points="1028.62,-2236 974.62,-2236 974.62,-2200 1028.62,-2200 1028.62,-2236"/>
<text text-anchor="middle" x="1001.62" y="-2213.7" font-family="sans-serif" font-size="14.00">core</text>
</g>
<!-- alethe&#45;&gt;core -->
<g id="edge16" class="edge">
<title>alethe&#45;&gt;core</title>
<path fill="none" stroke="black" d="M585.89,-1570.49C597.67,-1609 627.15,-1700.2 662.75,-1772 697.28,-1841.66 716.43,-1853.08 756,-1920 772.81,-1948.43 770.96,-1959.55 792,-1985 842.42,-2045.98 877.2,-2038.97 928.75,-2099 952.97,-2127.2 974.06,-2164.53 987.02,-2189.81"/>
<polygon fill="black" stroke="black" points="983.76,-2191.13 991.38,-2198.49 990.02,-2187.98 983.76,-2191.13"/>
</g>
<!-- hol&#45;eval -->
<g id="node20" class="node">
<title>hol&#45;eval</title>
<polygon fill="none" stroke="black" points="895.38,-2144 825.38,-2144 825.38,-2108 895.38,-2108 895.38,-2144"/>
<text text-anchor="middle" x="860.38" y="-2121.7" font-family="sans-serif" font-size="14.00">hol&#45;eval</text>
</g>
<!-- alethe&#45;&gt;hol&#45;eval -->
<g id="edge17" class="edge">
<title>alethe&#45;&gt;hol&#45;eval</title>
<path fill="none" stroke="black" d="M583.42,-1570.15C595.37,-1640.49 639.5,-1892.51 662.75,-1920 691.65,-1954.17 726.45,-1924.39 756,-1958 797.29,-2004.95 752.05,-2045.9 792,-2094 798.06,-2101.29 806.16,-2107.03 814.65,-2111.51"/>
<polygon fill="black" stroke="black" points="813.16,-2114.68 823.7,-2115.73 816.12,-2108.33 813.16,-2114.68"/>
</g>
<!-- alethe&#45;&gt;init -->
<g id="edge18" class="edge">
<title>alethe&#45;&gt;init</title>
<path fill="none" stroke="black" d="M607.66,-1566.18C614.75,-1570.99 621.78,-1576.97 626.75,-1584 662.11,-1634 626.06,-1667.97 662.75,-1717 665.57,-1720.77 669.06,-1724.14 672.84,-1727.13"/>
<polygon fill="black" stroke="black" points="670.54,-1729.79 680.77,-1732.54 674.49,-1724.01 670.54,-1729.79"/>
</g>
<!-- sexp -->
<g id="node54" class="node">
<title>sexp</title>
<polygon fill="none" stroke="black" points="1028.62,-1391 974.62,-1391 974.62,-1355 1028.62,-1355 1028.62,-1391"/>
<text text-anchor="middle" x="1001.62" y="-1368.7" font-family="sans-serif" font-size="14.00">sexp</text>
</g>
<!-- alethe&#45;&gt;sexp -->
<g id="edge19" class="edge">
<title>alethe&#45;&gt;sexp</title>
<path fill="none" stroke="black" d="M608.05,-1539.01C642.9,-1522.48 704.47,-1492.75 756,-1465 772.31,-1456.22 774.7,-1450.61 792,-1444 849.95,-1421.85 870.92,-1438.47 928.75,-1416 941.22,-1411.15 954.02,-1404.23 965.29,-1397.36"/>
<polygon fill="black" stroke="black" points="966.89,-1400.49 973.48,-1392.19 963.16,-1394.57 966.89,-1400.49"/>
</g>
<!-- smt -->
<g id="node57" class="node">
<title>smt</title>
<polygon fill="none" stroke="black" points="736.38,-1456 682.38,-1456 682.38,-1420 736.38,-1420 736.38,-1456"/>
<text text-anchor="middle" x="709.38" y="-1433.7" font-family="sans-serif" font-size="14.00">smt</text>
</g>
<!-- alethe&#45;&gt;smt -->
<g id="edge20" class="edge">
<title>alethe&#45;&gt;smt</title>
<path fill="none" stroke="black" d="M596.91,-1533.82C612.99,-1516.58 638.47,-1490.35 662.75,-1470 665.98,-1467.29 669.43,-1464.58 672.94,-1461.94"/>
<polygon fill="black" stroke="black" points="674.97,-1464.79 681,-1456.08 670.85,-1459.13 674.97,-1464.79"/>
</g>
<!-- types -->
<g id="node62" class="node">
<title>types</title>
<polygon fill="#ffd6d6" stroke="black" points="1509.5,-1819 1455.5,-1819 1455.5,-1783 1509.5,-1783 1509.5,-1819"/>
<text text-anchor="middle" x="1482.5" y="-1796.7" font-family="sans-serif" font-size="14.00">types</text>
</g>
<!-- alethe&#45;&gt;types -->
<g id="edge21" class="edge">
<title>alethe&#45;&gt;types</title>
<path fill="none" stroke="black" d="M607.85,-1559.6C657.6,-1572.66 766.1,-1598 859.38,-1598 859.38,-1598 859.38,-1598 1238.25,-1598 1346.22,-1598 1431.62,-1717.34 1465.59,-1773.02"/>
<polygon fill="black" stroke="black" points="1462.42,-1774.54 1470.55,-1781.33 1468.43,-1770.95 1462.42,-1774.54"/>
</g>
<!-- arrow -->
<g id="node4" class="node">
<title>arrow</title>
<polygon fill="none" stroke="black" points="606.38,-838 552.38,-838 552.38,-802 606.38,-802 606.38,-838"/>
<text text-anchor="middle" x="579.38" y="-815.7" font-family="sans-serif" font-size="14.00">arrow</text>
</g>
<!-- client&#45;&gt;hash -->
<g id="edge22" class="edge">
<title>client&#45;&gt;hash</title>
<path fill="none" stroke="black" d="M350.53,-965.58C432.44,-945.49 681.17,-882.99 756,-847 782.49,-834.26 809.53,-814.89 829.31,-799.31"/>
<polygon fill="black" stroke="black" points="831.34,-802.17 836.95,-793.18 826.96,-796.71 831.34,-802.17"/>
</g>
<!-- client&#45;&gt;shell -->
<g id="edge23" class="edge">
<title>client&#45;&gt;shell</title>
<path fill="none" stroke="black" d="M324.37,-990.37C325.81,-1056.16 335.81,-1285.17 405,-1457 410.33,-1470.25 418.72,-1483.5 426.78,-1494.55"/>
<polygon fill="black" stroke="black" points="423.94,-1496.6 432.78,-1502.44 429.51,-1492.36 423.94,-1496.6"/>
</g>
<!-- client&#45;&gt;store -->
<g id="edge24" class="edge">
<title>client&#45;&gt;store</title>
<path fill="none" stroke="black" d="M336.45,-953.55C346.4,-937.96 360.15,-914.77 369,-893 392.86,-834.28 380.09,-813.29 405,-755 476.56,-587.53 623.45,-421.6 682.73,-358.56"/>
<polygon fill="black" stroke="black" points="685.12,-361.13 689.45,-351.46 680.04,-356.32 685.12,-361.13"/>
</g>
<!-- pure -->
<g id="node45" class="node">
<title>pure</title>
<polygon fill="#ffd6d6" stroke="black" points="1264.25,-2190 1210.25,-2190 1210.25,-2154 1264.25,-2154 1264.25,-2190"/>
<text text-anchor="middle" x="1237.25" y="-2167.7" font-family="sans-serif" font-size="14.00">pure</text>
</g>
<!-- core&#45;&gt;pure -->
<g id="edge25" class="edge">
<title>core&#45;&gt;pure</title>
<path fill="none" stroke="black" d="M1028.97,-2212.81C1070.53,-2204.63 1151.46,-2188.69 1198.97,-2179.34"/>
<polygon fill="black" stroke="black" points="1199.38,-2182.83 1208.52,-2177.46 1198.03,-2175.96 1199.38,-2182.83"/>
</g>
<!-- pure&#45;eval -->
<g id="node46" class="node">
<title>pure&#45;eval</title>
<polygon fill="#ffd6d6" stroke="black" points="1154.25,-2144 1074.5,-2144 1074.5,-2108 1154.25,-2108 1154.25,-2144"/>
<text text-anchor="middle" x="1114.38" y="-2121.7" font-family="sans-serif" font-size="14.00">pure&#45;eval</text>
</g>
<!-- core&#45;&gt;pure&#45;eval -->
<g id="edge26" class="edge">
<title>core&#45;&gt;pure&#45;eval</title>
<path fill="none" stroke="black" d="M1024.77,-2199.6C1041.3,-2185.88 1064.08,-2166.95 1082.41,-2151.72"/>
<polygon fill="black" stroke="black" points="1084.65,-2154.41 1090.1,-2145.33 1080.17,-2149.03 1084.65,-2154.41"/>
</g>
<!-- core&#45;&gt;types -->
<g id="edge27" class="edge">
<title>core&#45;&gt;types</title>
<path fill="none" stroke="black" d="M1029.02,-2226.62C1101.79,-2248.56 1307.34,-2297.96 1419.5,-2197 1473.67,-2148.24 1480.7,-1914.14 1481.47,-1830.66"/>
<polygon fill="black" stroke="black" points="1484.97,-1830.79 1481.53,-1820.77 1477.97,-1830.74 1484.97,-1830.79"/>
</g>
<!-- core&#45;test&#45;guest -->
<g id="node7" class="node">
<title>core&#45;test&#45;guest</title>
<polygon fill="none" stroke="black" points="121,-1052 0,-1052 0,-1016 121,-1016 121,-1052"/>
<text text-anchor="middle" x="60.5" y="-1029.7" font-family="sans-serif" font-size="14.00">core&#45;test&#45;guest</text>
</g>
<!-- crypto&#45;sig -->
<g id="node8" class="node">
<title>crypto&#45;sig</title>
<polygon fill="none" stroke="black" points="241.25,-36 157,-36 157,0 241.25,0 241.25,-36"/>
<text text-anchor="middle" x="199.12" y="-13.7" font-family="sans-serif" font-size="14.00">crypto&#45;sig</text>
</g>
<!-- decimal&#45;api -->
<g id="node9" class="node">
<title>decimal&#45;api</title>
<polygon fill="none" stroke="black" points="1284.25,-1731 1190.25,-1731 1190.25,-1695 1284.25,-1695 1284.25,-1731"/>
<text text-anchor="middle" x="1237.25" y="-1708.7" font-family="sans-serif" font-size="14.00">decimal&#45;api</text>
</g>
<!-- decimal&#45;api&#45;&gt;types -->
<g id="edge28" class="edge">
<title>decimal&#45;api&#45;&gt;types</title>
<path fill="none" stroke="black" d="M1284.55,-1724.38C1321.69,-1734.14 1374.82,-1749.54 1419.5,-1768 1427.98,-1771.5 1436.83,-1775.8 1445.1,-1780.12"/>
<polygon fill="black" stroke="black" points="1443.4,-1783.17 1453.86,-1784.82 1446.71,-1777.01 1443.4,-1783.17"/>
</g>
<!-- egglog -->
<g id="node10" class="node">
<title>egglog</title>
<polygon fill="none" stroke="black" points="890.88,-1532 829.88,-1532 829.88,-1496 890.88,-1496 890.88,-1532"/>
<text text-anchor="middle" x="860.38" y="-1509.7" font-family="sans-serif" font-size="14.00">egglog</text>
</g>
<!-- egglog&#45;&gt;sexp -->
<g id="edge29" class="edge">
<title>egglog&#45;&gt;sexp</title>
<path fill="none" stroke="black" d="M891.29,-1503.91C903.79,-1498.7 917.9,-1491.43 928.75,-1482 954.56,-1459.56 974.92,-1425.7 987.28,-1401.69"/>
<polygon fill="black" stroke="black" points="990.39,-1403.29 991.71,-1392.78 984.13,-1400.17 990.39,-1403.29"/>
</g>
<!-- egglog&#45;&gt;types -->
<g id="edge30" class="edge">
<title>egglog&#45;&gt;types</title>
<path fill="none" stroke="black" d="M891.24,-1514.78C938.42,-1515.94 1033.08,-1518 1113.38,-1518 1113.38,-1518 1113.38,-1518 1238.25,-1518 1319.76,-1518 1359.46,-1490.87 1419.5,-1546 1452.54,-1576.34 1471.44,-1710.9 1478.4,-1771.38"/>
<polygon fill="black" stroke="black" points="1474.91,-1771.72 1479.5,-1781.27 1481.87,-1770.94 1474.91,-1771.72"/>
</g>
<!-- forsp -->
<g id="node11" class="node">
<title>forsp</title>
<polygon fill="none" stroke="black" points="477.5,-1196 423.5,-1196 423.5,-1160 477.5,-1160 477.5,-1196"/>
<text text-anchor="middle" x="450.5" y="-1173.7" font-family="sans-serif" font-size="14.00">forsp</text>
</g>
<!-- forsp&#45;&gt;hash -->
<g id="edge31" class="edge">
<title>forsp&#45;&gt;hash</title>
<path fill="none" stroke="black" d="M477.69,-1174.93C516.11,-1169.01 587.44,-1152.4 626.75,-1108 668.2,-1061.19 620.37,-1017.97 662.75,-972 692.55,-939.67 721.69,-966.49 756,-939 801.78,-902.31 833,-839.54 848.36,-802.91"/>
<polygon fill="black" stroke="black" points="851.52,-804.42 852.04,-793.84 845.04,-801.78 851.52,-804.42"/>
</g>
<!-- repl&#45;core -->
<g id="node51" class="node">
<title>repl&#45;core</title>
<polygon fill="none" stroke="black" points="618.5,-1310 540.25,-1310 540.25,-1274 618.5,-1274 618.5,-1310"/>
<text text-anchor="middle" x="579.38" y="-1287.7" font-family="sans-serif" font-size="14.00">repl&#45;core</text>
</g>
<!-- forsp&#45;&gt;repl&#45;core -->
<g id="edge32" class="edge">
<title>forsp&#45;&gt;repl&#45;core</title>
<path fill="none" stroke="black" d="M477.58,-1194.61C483.93,-1199.22 490.48,-1204.48 496,-1210 515.37,-1229.36 512.44,-1240.83 532,-1260 534.44,-1262.39 537.07,-1264.72 539.8,-1266.96"/>
<polygon fill="black" stroke="black" points="537.47,-1269.59 547.54,-1272.89 541.73,-1264.03 537.47,-1269.59"/>
</g>
<!-- forsp&#45;&gt;sexp -->
<g id="edge33" class="edge">
<title>forsp&#45;&gt;sexp</title>
<path fill="none" stroke="black" d="M477.82,-1182.73C577.8,-1200.72 928.45,-1263.8 928.75,-1264 957.93,-1283.24 978.03,-1318.85 989.41,-1344.12"/>
<polygon fill="black" stroke="black" points="986.13,-1345.37 993.29,-1353.19 992.57,-1342.62 986.13,-1345.37"/>
</g>
<!-- fuse&#45;&gt;hash -->
<g id="edge34" class="edge">
<title>fuse&#45;&gt;hash</title>
<path fill="none" stroke="black" d="M606.87,-582.03C643.18,-591.26 709.24,-611.52 756,-646 793.27,-673.48 824.78,-717.48 842.89,-746.06"/>
<polygon fill="black" stroke="black" points="839.91,-747.88 848.15,-754.54 845.86,-744.2 839.91,-747.88"/>
</g>
<!-- fuse&#45;&gt;object -->
<g id="edge35" class="edge">
<title>fuse&#45;&gt;object</title>
<path fill="none" stroke="black" d="M589.51,-594.32C599.75,-615.49 616.31,-651.56 626.75,-684 649.49,-754.62 632.86,-779.1 662.75,-847 668.55,-860.18 677.21,-873.42 685.43,-884.48"/>
<polygon fill="black" stroke="black" points="682.65,-886.61 691.53,-892.38 688.19,-882.33 682.65,-886.61"/>
</g>
<!-- fuse&#45;&gt;store -->
<g id="edge36" class="edge">
<title>fuse&#45;&gt;store</title>
<path fill="none" stroke="black" d="M590,-557.66C612.2,-515.34 667.12,-410.63 693.62,-360.13"/>
<polygon fill="black" stroke="black" points="696.57,-362.04 698.11,-351.56 690.37,-358.79 696.57,-362.04"/>
</g>
<!-- git&#45;&gt;hash -->
<g id="edge37" class="edge">
<title>git&#45;&gt;hash</title>
<path fill="none" stroke="black" d="M477.91,-501.67C535.02,-506.57 671.61,-525.4 756,-596 804.39,-636.49 835.21,-705.81 849.67,-744.92"/>
<polygon fill="black" stroke="black" points="846.31,-745.9 852.97,-754.14 852.9,-743.54 846.31,-745.9"/>
</g>
<!-- git&#45;&gt;object -->
<g id="edge38" class="edge">
<title>git&#45;&gt;object</title>
<path fill="none" stroke="black" d="M462.09,-518.32C492.31,-570.43 582.04,-723.66 662.75,-847 670.95,-859.53 680.4,-873.12 688.57,-884.63"/>
<polygon fill="black" stroke="black" points="685.53,-886.39 694.19,-892.5 691.23,-882.33 685.53,-886.39"/>
</g>
<!-- sqlite -->
<g id="node59" class="node">
<title>sqlite</title>
<polygon fill="none" stroke="black" points="887.38,-350 833.38,-350 833.38,-314 887.38,-314 887.38,-350"/>
<text text-anchor="middle" x="860.38" y="-327.7" font-family="sans-serif" font-size="14.00">sqlite</text>
</g>
<!-- git&#45;&gt;sqlite -->
<g id="edge39" class="edge">
<title>git&#45;&gt;sqlite</title>
<path fill="none" stroke="black" d="M477.95,-489.11C548.57,-460.02 741.68,-380.48 822.76,-347.08"/>
<polygon fill="black" stroke="black" points="823.67,-350.49 831.59,-343.45 821.01,-344.02 823.67,-350.49"/>
</g>
<!-- git&#45;&gt;store -->
<g id="edge40" class="edge">
<title>git&#45;&gt;store</title>
<path fill="none" stroke="black" d="M477.61,-484.19C484.1,-479.5 490.71,-473.99 496,-468 518.12,-442.95 506.98,-424.15 532,-402 572.19,-366.42 632.66,-347.78 671.32,-338.92"/>
<polygon fill="black" stroke="black" points="671.58,-342.45 680.61,-336.9 670.09,-335.61 671.58,-342.45"/>
</g>
<!-- grammar -->
<g id="node14" class="node">
<title>grammar</title>
<polygon fill="none" stroke="black" points="1038.5,-1846 964.75,-1846 964.75,-1810 1038.5,-1810 1038.5,-1846"/>
<text text-anchor="middle" x="1001.62" y="-1823.7" font-family="sans-serif" font-size="14.00">grammar</text>
</g>
<!-- grammar&#45;&gt;types -->
<g id="edge41" class="edge">
<title>grammar&#45;&gt;types</title>
<path fill="none" stroke="black" d="M1038.62,-1825.97C1126.99,-1820.99 1353.96,-1808.19 1443.94,-1803.12"/>
<polygon fill="black" stroke="black" points="1443.91,-1806.63 1453.7,-1802.57 1443.51,-1799.64 1443.91,-1806.63"/>
</g>
<!-- graph -->
<g id="node15" class="node">
<title>graph</title>
<polygon fill="none" stroke="black" points="736.38,-838 682.38,-838 682.38,-802 736.38,-802 736.38,-838"/>
<text text-anchor="middle" x="709.38" y="-815.7" font-family="sans-serif" font-size="14.00">graph</text>
</g>
<!-- graph&#45;&gt;hash -->
<g id="edge42" class="edge">
<title>graph&#45;&gt;hash</title>
<path fill="none" stroke="black" d="M736.67,-811.88C760.43,-804.55 795.65,-793.67 822.27,-785.46"/>
<polygon fill="black" stroke="black" points="823.12,-788.85 831.65,-782.56 821.06,-782.17 823.12,-788.85"/>
</g>
<!-- parse -->
<g id="node41" class="node">
<title>parse</title>
<polygon fill="none" stroke="black" points="1141.38,-1158 1087.38,-1158 1087.38,-1122 1141.38,-1122 1141.38,-1158"/>
<text text-anchor="middle" x="1114.38" y="-1135.7" font-family="sans-serif" font-size="14.00">parse</text>
</g>
<!-- graph&#45;&gt;parse -->
<g id="edge43" class="edge">
<title>graph&#45;&gt;parse</title>
<path fill="none" stroke="black" d="M736.69,-825.2C797.74,-838.55 950.49,-879.53 1038.5,-970 1077.46,-1010.05 1097.98,-1073.75 1107.17,-1110.75"/>
<polygon fill="black" stroke="black" points="1103.72,-1111.36 1109.42,-1120.29 1110.53,-1109.75 1103.72,-1111.36"/>
</g>
<!-- rand -->
<g id="node49" class="node">
<title>rand</title>
<polygon fill="none" stroke="black" points="1028.62,-792 974.62,-792 974.62,-756 1028.62,-756 1028.62,-792"/>
<text text-anchor="middle" x="1001.62" y="-769.7" font-family="sans-serif" font-size="14.00">rand</text>
</g>
<!-- hash&#45;&gt;rand -->
<g id="edge44" class="edge">
<title>hash&#45;&gt;rand</title>
<path fill="none" stroke="black" d="M887.57,-774C908.86,-774 939.19,-774 963.07,-774"/>
<polygon fill="black" stroke="black" points="963.04,-777.5 973.04,-774 963.04,-770.5 963.04,-777.5"/>
</g>
<!-- haskell -->
<g id="node17" class="node">
<title>haskell</title>
<polygon fill="none" stroke="black" points="481.75,-2194 419.25,-2194 419.25,-2158 481.75,-2158 481.75,-2194"/>
<text text-anchor="middle" x="450.5" y="-2171.7" font-family="sans-serif" font-size="14.00">haskell</text>
</g>
<!-- hol&#45;api -->
<g id="node19" class="node">
<title>hol&#45;api</title>
<polygon fill="none" stroke="black" points="610.62,-2194 548.12,-2194 548.12,-2158 610.62,-2158 610.62,-2194"/>
<text text-anchor="middle" x="579.38" y="-2171.7" font-family="sans-serif" font-size="14.00">hol&#45;api</text>
</g>
<!-- haskell&#45;&gt;hol&#45;api -->
<g id="edge45" class="edge">
<title>haskell&#45;&gt;hol&#45;api</title>
<path fill="none" stroke="black" d="M482.21,-2176C498.5,-2176 518.75,-2176 536.46,-2176"/>
<polygon fill="black" stroke="black" points="536.43,-2179.5 546.43,-2176 536.43,-2172.5 536.43,-2179.5"/>
</g>
<!-- haskell&#45;&gt;hol&#45;eval -->
<g id="edge46" class="edge">
<title>haskell&#45;&gt;hol&#45;eval</title>
<path fill="none" stroke="black" d="M481.87,-2188.78C496.7,-2194.34 514.98,-2200.22 532,-2203 634.41,-2219.72 752.4,-2176.11 814.99,-2147.89"/>
<polygon fill="black" stroke="black" points="816.28,-2151.14 823.91,-2143.79 813.36,-2144.78 816.28,-2151.14"/>
</g>
<!-- haskell&#45;&gt;init -->
<g id="edge47" class="edge">
<title>haskell&#45;&gt;init</title>
<path fill="none" stroke="black" d="M453.59,-2157.88C461.28,-2094 489.74,-1880.35 532,-1828 567.19,-1784.41 630.62,-1762.49 671.06,-1752.44"/>
<polygon fill="black" stroke="black" points="671.65,-1755.89 680.59,-1750.2 670.05,-1749.08 671.65,-1755.89"/>
</g>
<!-- haskell&#45;&gt;types -->
<g id="edge48" class="edge">
<title>haskell&#45;&gt;types</title>
<path fill="none" stroke="black" d="M466.35,-2194.29C498.21,-2232.26 577.18,-2319.96 662.75,-2366 799.4,-2439.53 845.45,-2454 1000.62,-2454 1000.62,-2454 1000.62,-2454 1238.25,-2454 1347.19,-2454 1369.26,-2385.66 1419.5,-2289 1461.48,-2208.23 1476.54,-1923.58 1480.4,-1830.61"/>
<polygon fill="black" stroke="black" points="1483.89,-1830.93 1480.79,-1820.8 1476.9,-1830.65 1483.89,-1830.93"/>
</g>
<!-- hol&#45;&gt;core -->
<g id="edge49" class="edge">
<title>hol&#45;&gt;core</title>
<path fill="none" stroke="black" d="M878.17,-2351.67C902.64,-2324.96 948.21,-2275.21 976.33,-2244.52"/>
<polygon fill="black" stroke="black" points="978.57,-2247.25 982.75,-2237.52 973.41,-2242.53 978.57,-2247.25"/>
</g>
<!-- hol&#45;api&#45;&gt;core -->
<g id="edge50" class="edge">
<title>hol&#45;api&#45;&gt;core</title>
<path fill="none" stroke="black" d="M610.85,-2185.17C651.65,-2196.93 726.48,-2216.66 792,-2224 852.4,-2230.76 868.02,-2226.53 928.75,-2224 939.87,-2223.54 951.93,-2222.67 962.93,-2221.74"/>
<polygon fill="black" stroke="black" points="963.22,-2225.23 972.86,-2220.85 962.59,-2218.26 963.22,-2225.23"/>
</g>
<!-- hol&#45;api&#45;&gt;hol&#45;eval -->
<g id="edge51" class="edge">
<title>hol&#45;api&#45;&gt;hol&#45;eval</title>
<path fill="none" stroke="black" d="M611.03,-2170.51C660.16,-2161.7 756.81,-2144.38 813.97,-2134.14"/>
<polygon fill="black" stroke="black" points="814.48,-2137.6 823.7,-2132.39 813.24,-2130.71 814.48,-2137.6"/>
</g>
<!-- inductive -->
<g id="node21" class="node">
<title>inductive</title>
<polygon fill="none" stroke="black" points="898.75,-1662 822,-1662 822,-1626 898.75,-1626 898.75,-1662"/>
<text text-anchor="middle" x="860.38" y="-1639.7" font-family="sans-serif" font-size="14.00">inductive</text>
</g>
<!-- hol&#45;api&#45;&gt;inductive -->
<g id="edge52" class="edge">
<title>hol&#45;api&#45;&gt;inductive</title>
<path fill="none" stroke="black" d="M585.99,-2157.59C595.73,-2124.94 615.78,-2054.64 626.75,-1994 639.92,-1921.19 610.12,-1715 662.75,-1663 700.9,-1625.3 765.82,-1626.57 810.56,-1633.27"/>
<polygon fill="black" stroke="black" points="809.82,-1636.69 820.26,-1634.87 810.97,-1629.79 809.82,-1636.69"/>
</g>
<!-- hol&#45;api&#45;&gt;init -->
<g id="edge53" class="edge">
<title>hol&#45;api&#45;&gt;init</title>
<path fill="none" stroke="black" d="M585.64,-2157.52C594.83,-2124.77 614.06,-2054.31 626.75,-1994 646.78,-1898.76 611.48,-1860.72 662.75,-1778 665.49,-1773.58 669.06,-1769.57 673,-1766"/>
<polygon fill="black" stroke="black" points="675.16,-1768.75 680.84,-1759.8 670.82,-1763.26 675.16,-1768.75"/>
</g>
<!-- logic&#45;api -->
<g id="node33" class="node">
<title>logic&#45;api</title>
<polygon fill="none" stroke="black" points="897.62,-1976 823.12,-1976 823.12,-1940 897.62,-1940 897.62,-1976"/>
<text text-anchor="middle" x="860.38" y="-1953.7" font-family="sans-serif" font-size="14.00">logic&#45;api</text>
</g>
<!-- hol&#45;api&#45;&gt;logic&#45;api -->
<g id="edge54" class="edge">
<title>hol&#45;api&#45;&gt;logic&#45;api</title>
<path fill="none" stroke="black" d="M603.68,-2157.79C653.43,-2118.92 770.1,-2027.76 827.01,-1983.29"/>
<polygon fill="black" stroke="black" points="829.02,-1986.16 834.74,-1977.24 824.71,-1980.64 829.02,-1986.16"/>
</g>
<!-- hol&#45;api&#45;&gt;pure -->
<g id="edge55" class="edge">
<title>hol&#45;api&#45;&gt;pure</title>
<path fill="none" stroke="black" d="M611.1,-2190.55C616.38,-2193.24 621.77,-2196.12 626.75,-2199 643.4,-2208.62 645.43,-2214.65 662.75,-2223 745.42,-2262.84 767.61,-2286 859.38,-2286 859.38,-2286 859.38,-2286 1002.62,-2286 1082.76,-2286 1164.13,-2231.15 1206.47,-2197.54"/>
<polygon fill="black" stroke="black" points="1208.64,-2200.28 1214.21,-2191.27 1204.24,-2194.85 1208.64,-2200.28"/>
</g>
<!-- hol&#45;api&#45;&gt;types -->
<g id="edge56" class="edge">
<title>hol&#45;api&#45;&gt;types</title>
<path fill="none" stroke="black" d="M610.95,-2188C616.59,-2191.06 622.14,-2194.72 626.75,-2199 649.8,-2220.44 638.2,-2240.3 662.75,-2260 734.43,-2317.51 767.47,-2324 859.38,-2324 859.38,-2324 859.38,-2324 1238.25,-2324 1327.8,-2324 1366.73,-2308.35 1419.5,-2236 1466.89,-2171.02 1478.28,-1917.97 1480.82,-1830.75"/>
<polygon fill="black" stroke="black" points="1484.31,-1830.95 1481.08,-1820.86 1477.32,-1830.77 1484.31,-1830.95"/>
</g>
<!-- hol&#45;eval&#45;&gt;core -->
<g id="edge57" class="edge">
<title>hol&#45;eval&#45;&gt;core</title>
<path fill="none" stroke="black" d="M895.85,-2140.34C906.69,-2145.38 918.5,-2151.44 928.75,-2158 937.53,-2163.62 955.55,-2178.67 971.35,-2192.29"/>
<polygon fill="black" stroke="black" points="968.84,-2194.74 978.68,-2198.65 973.42,-2189.45 968.84,-2194.74"/>
</g>
<!-- hol&#45;eval&#45;&gt;pure -->
<g id="edge58" class="edge">
<title>hol&#45;eval&#45;&gt;pure</title>
<path fill="none" stroke="black" d="M895.81,-2130.81C915.91,-2133.58 941.75,-2137.08 964.75,-2140 1048.18,-2150.59 1146.19,-2161.85 1198.63,-2167.78"/>
<polygon fill="black" stroke="black" points="1198.19,-2171.25 1208.52,-2168.9 1198.97,-2164.3 1198.19,-2171.25"/>
</g>
<!-- hol&#45;eval&#45;&gt;pure&#45;eval -->
<g id="edge59" class="edge">
<title>hol&#45;eval&#45;&gt;pure&#45;eval</title>
<path fill="none" stroke="black" d="M895.62,-2126C938.73,-2126 1013.13,-2126 1062.79,-2126"/>
<polygon fill="black" stroke="black" points="1062.72,-2129.5 1072.72,-2126 1062.72,-2122.5 1062.72,-2129.5"/>
</g>
<!-- hol&#45;eval&#45;&gt;sexp -->
<g id="edge60" class="edge">
<title>hol&#45;eval&#45;&gt;sexp</title>
<path fill="none" stroke="black" d="M872.59,-2107.63C888.01,-2081.44 915.34,-2031.39 928.75,-1985 961.03,-1873.29 990.32,-1509.98 998.42,-1402.94"/>
<polygon fill="black" stroke="black" points="1001.91,-1403.2 999.16,-1392.97 994.93,-1402.68 1001.91,-1403.2"/>
</g>
<!-- hol&#45;eval&#45;&gt;types -->
<g id="edge61" class="edge">
<title>hol&#45;eval&#45;&gt;types</title>
<path fill="none" stroke="black" d="M895.66,-2115.68C943.81,-2102.11 1034.44,-2080 1113.38,-2080 1113.38,-2080 1113.38,-2080 1238.25,-2080 1319.51,-2080 1359.05,-2110.31 1419.5,-2056 1452.87,-2026.02 1471.59,-1891.26 1478.45,-1830.67"/>
<polygon fill="black" stroke="black" points="1481.93,-1831.09 1479.54,-1820.77 1474.97,-1830.33 1481.93,-1831.09"/>
</g>
<!-- init&#45;&gt;core -->
<g id="edge62" class="edge">
<title>init&#45;&gt;core</title>
<path fill="none" stroke="black" d="M715.28,-1763.04C724.74,-1794.33 748.49,-1858.61 792,-1893 841.49,-1932.12 884.72,-1885.83 928.75,-1931 964.69,-1967.88 988.43,-2123.07 997.03,-2188.6"/>
<polygon fill="black" stroke="black" points="993.52,-2188.77 998.26,-2198.24 1000.46,-2187.88 993.52,-2188.77"/>
</g>
<!-- init&#45;&gt;grammar -->
<g id="edge63" class="edge">
<title>init&#45;&gt;grammar</title>
<path fill="none" stroke="black" d="M734.02,-1763.4C749.63,-1774.6 771.01,-1788.21 792,-1796 845.03,-1815.68 909.95,-1823.26 953.15,-1826.18"/>
<polygon fill="black" stroke="black" points="952.75,-1829.66 962.95,-1826.78 953.18,-1822.67 952.75,-1829.66"/>
</g>
<!-- init&#45;&gt;hash -->
<g id="edge64" class="edge">
<title>init&#45;&gt;hash</title>
<path fill="none" stroke="black" d="M736.71,-1734.58C744.21,-1730.28 751.54,-1724.51 756,-1717 796.42,-1648.87 778.82,-1083.11 792,-1005 804.57,-930.51 833,-845.99 848.61,-802.78"/>
<polygon fill="black" stroke="black" points="851.81,-804.24 851.95,-793.64 845.23,-801.84 851.81,-804.24"/>
</g>
<!-- init&#45;&gt;hol -->
<g id="edge65" class="edge">
<title>init&#45;&gt;hol</title>
<path fill="none" stroke="black" d="M713.36,-1763.45C722.89,-1821.32 754.13,-2004.24 792,-2153 809.34,-2221.14 835.2,-2299.59 849.3,-2340.96"/>
<polygon fill="black" stroke="black" points="845.91,-2341.85 852.46,-2350.18 852.53,-2339.58 845.91,-2341.85"/>
</g>
<!-- init&#45;&gt;hol&#45;eval -->
<g id="edge66" class="edge">
<title>init&#45;&gt;hol&#45;eval</title>
<path fill="none" stroke="black" d="M715.8,-1763.33C727.96,-1803.86 758.96,-1903.89 792,-1985 808.24,-2024.88 830.24,-2069.51 844.62,-2097.67"/>
<polygon fill="black" stroke="black" points="841.35,-2098.97 849.04,-2106.27 847.58,-2095.77 841.35,-2098.97"/>
</g>
<!-- init&#45;&gt;inductive -->
<g id="edge67" class="edge">
<title>init&#45;&gt;inductive</title>
<path fill="none" stroke="black" d="M736.61,-1729.29C743.01,-1725.36 749.79,-1721.09 756,-1717 779.33,-1701.62 805,-1683.51 824.92,-1669.17"/>
<polygon fill="black" stroke="black" points="826.92,-1672.04 832.97,-1663.35 822.82,-1666.37 826.92,-1672.04"/>
</g>
<!-- k -->
<g id="node25" class="node">
<title>k</title>
<polygon fill="none" stroke="black" points="887.38,-1754 833.38,-1754 833.38,-1718 887.38,-1718 887.38,-1754"/>
<text text-anchor="middle" x="860.38" y="-1731.7" font-family="sans-serif" font-size="14.00">k</text>
</g>
<!-- init&#45;&gt;k -->
<g id="edge68" class="edge">
<title>init&#45;&gt;k</title>
<path fill="none" stroke="black" d="M736.67,-1743.41C760.32,-1741.98 795.33,-1739.87 821.91,-1738.26"/>
<polygon fill="black" stroke="black" points="821.81,-1741.78 831.58,-1737.68 821.39,-1734.79 821.81,-1741.78"/>
</g>
<!-- init&#45;&gt;logic&#45;api -->
<g id="edge69" class="edge">
<title>init&#45;&gt;logic&#45;api</title>
<path fill="none" stroke="black" d="M736.86,-1759.42C744,-1764.45 751.09,-1770.7 756,-1778 793.75,-1834.19 749.28,-1873.49 792,-1926 797.51,-1932.77 804.8,-1938.2 812.54,-1942.52"/>
<polygon fill="black" stroke="black" points="810.98,-1945.66 821.5,-1946.91 814.06,-1939.37 810.98,-1945.66"/>
</g>
<!-- metamath -->
<g id="node35" class="node">
<title>metamath</title>
<polygon fill="none" stroke="black" points="900.62,-1212 820.12,-1212 820.12,-1176 900.62,-1176 900.62,-1212"/>
<text text-anchor="middle" x="860.38" y="-1189.7" font-family="sans-serif" font-size="14.00">metamath</text>
</g>
<!-- init&#45;&gt;metamath -->
<g id="edge70" class="edge">
<title>init&#45;&gt;metamath</title>
<path fill="none" stroke="black" d="M736.8,-1734.07C744.12,-1729.79 751.33,-1724.16 756,-1717 820.48,-1618.2 769.16,-1569.75 792,-1454 808.72,-1369.26 836.52,-1271.03 850.61,-1223.2"/>
<polygon fill="black" stroke="black" points="853.88,-1224.46 853.37,-1213.88 847.17,-1222.47 853.88,-1224.46"/>
</g>
<!-- init&#45;&gt;sexp -->
<g id="edge71" class="edge">
<title>init&#45;&gt;sexp</title>
<path fill="none" stroke="black" d="M736.72,-1734.01C744.03,-1729.73 751.26,-1724.12 756,-1717 813.38,-1630.9 724.5,-1565.42 792,-1487 833.56,-1438.71 874.17,-1476.86 928.75,-1444 948.09,-1432.35 966.16,-1414.47 979.34,-1399.56"/>
<polygon fill="black" stroke="black" points="981.67,-1402.22 985.52,-1392.35 976.36,-1397.66 981.67,-1402.22"/>
</g>
<!-- spectec -->
<g id="node58" class="node">
<title>spectec</title>
<polygon fill="none" stroke="black" points="895,-1884 825.75,-1884 825.75,-1848 895,-1848 895,-1884"/>
<text text-anchor="middle" x="860.38" y="-1861.7" font-family="sans-serif" font-size="14.00">spectec</text>
</g>
<!-- init&#45;&gt;spectec -->
<g id="edge72" class="edge">
<title>init&#45;&gt;spectec</title>
<path fill="none" stroke="black" d="M736.84,-1761.6C743.5,-1766.43 750.35,-1772.04 756,-1778 776.34,-1799.49 769.78,-1814.46 792,-1834 798.77,-1839.95 806.84,-1845.04 815,-1849.28"/>
<polygon fill="black" stroke="black" points="813.4,-1852.39 823.93,-1853.56 816.42,-1846.08 813.4,-1852.39"/>
</g>
<!-- init&#45;&gt;types -->
<g id="edge73" class="edge">
<title>init&#45;&gt;types</title>
<path fill="none" stroke="black" d="M736.68,-1751.69C752.6,-1755.51 773.36,-1760.11 792,-1763 884.01,-1777.28 907.52,-1782 1000.62,-1782 1000.62,-1782 1000.62,-1782 1238.25,-1782 1311.27,-1782 1396.26,-1790.62 1443.98,-1796.24"/>
<polygon fill="black" stroke="black" points="1443.43,-1799.7 1453.77,-1797.42 1444.26,-1792.75 1443.43,-1799.7"/>
</g>
<!-- json -->
<g id="node23" class="node">
<title>json</title>
<polygon fill="none" stroke="black" points="887.38,-296 833.38,-296 833.38,-260 887.38,-260 887.38,-296"/>
<text text-anchor="middle" x="860.38" y="-273.7" font-family="sans-serif" font-size="14.00">json</text>
</g>
<!-- json&#45;api -->
<g id="node24" class="node">
<title>json&#45;api</title>
<polygon fill="none" stroke="black" points="744.38,-1708 674.38,-1708 674.38,-1672 744.38,-1672 744.38,-1708"/>
<text text-anchor="middle" x="709.38" y="-1685.7" font-family="sans-serif" font-size="14.00">json&#45;api</text>
</g>
<!-- json&#45;api&#45;&gt;decimal&#45;api -->
<g id="edge74" class="edge">
<title>json&#45;api&#45;&gt;decimal&#45;api</title>
<path fill="none" stroke="black" d="M744.47,-1691.49C832.62,-1695.35 1068.8,-1705.68 1178.63,-1710.48"/>
<polygon fill="black" stroke="black" points="1178.14,-1713.96 1188.29,-1710.9 1178.45,-1706.97 1178.14,-1713.96"/>
</g>
<!-- json&#45;api&#45;&gt;inductive -->
<g id="edge75" class="edge">
<title>json&#45;api&#45;&gt;inductive</title>
<path fill="none" stroke="black" d="M744.56,-1679.45C764.17,-1673.39 789.11,-1665.69 810.73,-1659.02"/>
<polygon fill="black" stroke="black" points="811.72,-1662.38 820.24,-1656.08 809.66,-1655.69 811.72,-1662.38"/>
</g>
<!-- k&#45;&gt;grammar -->
<g id="edge76" class="edge">
<title>k&#45;&gt;grammar</title>
<path fill="none" stroke="black" d="M887.57,-1753.3C908.89,-1767.39 939.27,-1787.47 963.17,-1803.26"/>
<polygon fill="black" stroke="black" points="961.1,-1806.08 971.38,-1808.68 964.96,-1800.24 961.1,-1806.08"/>
</g>
<!-- k&#45;&gt;parse -->
<g id="edge77" class="edge">
<title>k&#45;&gt;parse</title>
<path fill="none" stroke="black" d="M885.03,-1717.54C899.2,-1705.5 916.74,-1688.78 928.75,-1671 1043.04,-1501.79 1093.83,-1254.51 1108.58,-1169.77"/>
<polygon fill="black" stroke="black" points="1112.02,-1170.42 1110.25,-1159.97 1105.12,-1169.24 1112.02,-1170.42"/>
</g>
<!-- k&#45;&gt;sexp -->
<g id="edge78" class="edge">
<title>k&#45;&gt;sexp</title>
<path fill="none" stroke="black" d="M886.64,-1717.59C901.04,-1705.81 918.25,-1689.34 928.75,-1671 979.62,-1582.15 994.63,-1458.54 998.94,-1402.6"/>
<polygon fill="black" stroke="black" points="1002.41,-1403.15 999.62,-1392.93 995.43,-1402.66 1002.41,-1403.15"/>
</g>
<!-- kernel -->
<g id="node26" class="node">
<title>kernel</title>
<polygon fill="none" stroke="black" points="608,-1402 550.75,-1402 550.75,-1366 608,-1366 608,-1402"/>
<text text-anchor="middle" x="579.38" y="-1379.7" font-family="sans-serif" font-size="14.00">kernel</text>
</g>
<!-- kernel&#45;&gt;hash -->
<g id="edge79" class="edge">
<title>kernel&#45;&gt;hash</title>
<path fill="none" stroke="black" d="M597.36,-1365.58C607.65,-1353.32 620.04,-1336.32 626.75,-1319 675.12,-1194.2 586.33,-1129.89 662.75,-1020 689.36,-981.73 722.94,-1004.86 756,-972 805.39,-922.89 836.36,-845.23 850.45,-803.25"/>
<polygon fill="black" stroke="black" points="853.74,-804.44 853.51,-793.85 847.09,-802.28 853.74,-804.44"/>
</g>
<!-- kernel&#45;&gt;init -->
<g id="edge80" class="edge">
<title>kernel&#45;&gt;init</title>
<path fill="none" stroke="black" d="M587.32,-1402.47C597.17,-1429.19 615.27,-1480.32 626.75,-1525 648.36,-1609.09 613.52,-1645.48 662.75,-1717 665.48,-1720.96 668.97,-1724.47 672.8,-1727.54"/>
<polygon fill="black" stroke="black" points="670.68,-1730.33 680.91,-1733.07 674.62,-1724.54 670.68,-1730.33"/>
</g>
<!-- kernel&#45;&gt;object -->
<g id="edge81" class="edge">
<title>kernel&#45;&gt;object</title>
<path fill="none" stroke="black" d="M597.44,-1365.61C607.76,-1353.36 620.15,-1336.36 626.75,-1319 680.24,-1178.19 612.23,-1123.91 662.75,-982 668.12,-966.9 677.36,-951.8 686.12,-939.51"/>
<polygon fill="black" stroke="black" points="688.9,-941.64 692.05,-931.52 683.28,-937.46 688.9,-941.64"/>
</g>
<!-- kernel&#45;&gt;sexp -->
<g id="edge82" class="edge">
<title>kernel&#45;&gt;sexp</title>
<path fill="none" stroke="black" d="M608.21,-1374.13C667.64,-1354.44 811.13,-1314.29 928.75,-1340 940.74,-1342.62 953.13,-1347.44 964.17,-1352.6"/>
<polygon fill="black" stroke="black" points="962.41,-1355.63 972.93,-1356.92 965.51,-1349.35 962.41,-1355.63"/>
</g>
<!-- kernel&#45;&gt;store -->
<g id="edge83" class="edge">
<title>kernel&#45;&gt;store</title>
<path fill="none" stroke="black" d="M597.83,-1365.76C608.3,-1353.56 620.73,-1336.57 626.75,-1319 690.5,-1133.01 618.15,-626.48 662.75,-435 668.92,-408.52 681.84,-380.43 692.36,-360.28"/>
<polygon fill="black" stroke="black" points="695.39,-362.04 697.04,-351.58 689.22,-358.73 695.39,-362.04"/>
</g>
<!-- kernel&#45;sat -->
<g id="node27" class="node">
<title>kernel&#45;sat</title>
<polygon fill="none" stroke="black" points="621.12,-1985 537.62,-1985 537.62,-1949 621.12,-1949 621.12,-1985"/>
<text text-anchor="middle" x="579.38" y="-1962.7" font-family="sans-serif" font-size="14.00">kernel&#45;sat</text>
</g>
<!-- kernel&#45;sat&#45;&gt;core -->
<g id="edge84" class="edge">
<title>kernel&#45;sat&#45;&gt;core</title>
<path fill="none" stroke="black" d="M601.89,-1985.43C635.15,-2014.01 700.97,-2070.82 756,-2120 772.18,-2134.46 773.19,-2142.18 792,-2153 795.83,-2155.2 904.78,-2188.69 963.67,-2206.71"/>
<polygon fill="black" stroke="black" points="962.36,-2209.97 972.95,-2209.55 964.41,-2203.28 962.36,-2209.97"/>
</g>
<!-- kernel&#45;sat&#45;&gt;hol&#45;eval -->
<g id="edge85" class="edge">
<title>kernel&#45;sat&#45;&gt;hol&#45;eval</title>
<path fill="none" stroke="black" d="M621.46,-1982.11C666.23,-1999.08 734.38,-2026.52 756,-2044 777.29,-2061.22 770.97,-2076.46 792,-2094 798.85,-2099.71 806.9,-2104.67 815,-2108.86"/>
<polygon fill="black" stroke="black" points="813.3,-2111.93 823.83,-2113.11 816.34,-2105.62 813.3,-2111.93"/>
</g>
<!-- kernel&#45;sat&#45;&gt;init -->
<g id="edge86" class="edge">
<title>kernel&#45;sat&#45;&gt;init</title>
<path fill="none" stroke="black" d="M591.61,-1948.55C601.62,-1931.63 616.28,-1905.68 626.75,-1882 646.53,-1837.27 633.58,-1817.26 662.75,-1778 665.78,-1773.92 669.47,-1770.13 673.41,-1766.69"/>
<polygon fill="black" stroke="black" points="675.41,-1769.57 681.13,-1760.66 671.1,-1764.06 675.41,-1769.57"/>
</g>
<!-- sat -->
<g id="node52" class="node">
<title>sat</title>
<polygon fill="none" stroke="black" points="887.38,-1158 833.38,-1158 833.38,-1122 887.38,-1122 887.38,-1158"/>
<text text-anchor="middle" x="860.38" y="-1135.7" font-family="sans-serif" font-size="14.00">sat</text>
</g>
<!-- kernel&#45;sat&#45;&gt;sat -->
<g id="edge87" class="edge">
<title>kernel&#45;sat&#45;&gt;sat</title>
<path fill="none" stroke="black" d="M593.31,-1948.77C604.31,-1932.21 619.45,-1906.66 626.75,-1882 686.35,-1680.69 604.39,-1612.67 662.75,-1411 696.87,-1293.12 700.75,-1249.06 792,-1167 800.55,-1159.31 811.57,-1153.67 822.22,-1149.6"/>
<polygon fill="black" stroke="black" points="823.28,-1152.93 831.61,-1146.39 821.02,-1146.31 823.28,-1152.93"/>
</g>
<!-- kernel&#45;smt -->
<g id="node28" class="node">
<title>kernel&#45;smt</title>
<polygon fill="none" stroke="black" points="494.5,-2304 406.5,-2304 406.5,-2268 494.5,-2268 494.5,-2304"/>
<text text-anchor="middle" x="450.5" y="-2281.7" font-family="sans-serif" font-size="14.00">kernel&#45;smt</text>
</g>
<!-- kernel&#45;smt&#45;&gt;core -->
<g id="edge88" class="edge">
<title>kernel&#45;smt&#45;&gt;core</title>
<path fill="none" stroke="black" d="M476.77,-2304.4C552.26,-2356.94 780.05,-2497.53 928.75,-2397 978.49,-2363.37 993.82,-2289.04 998.53,-2247.52"/>
<polygon fill="black" stroke="black" points="1002,-2248.05 999.49,-2237.76 995.03,-2247.37 1002,-2248.05"/>
</g>
<!-- kernel&#45;smt&#45;&gt;hol&#45;api -->
<g id="edge89" class="edge">
<title>kernel&#45;smt&#45;&gt;hol&#45;api</title>
<path fill="none" stroke="black" d="M472.74,-2267.59C493.5,-2249.58 525.31,-2222 548.6,-2201.81"/>
<polygon fill="black" stroke="black" points="550.66,-2204.66 555.93,-2195.46 546.08,-2199.37 550.66,-2204.66"/>
</g>
<!-- kv -->
<g id="node29" class="node">
<title>kv</title>
<polygon fill="none" stroke="black" points="226.12,-328 172.12,-328 172.12,-292 226.12,-292 226.12,-328"/>
<text text-anchor="middle" x="199.12" y="-305.7" font-family="sans-serif" font-size="14.00">kv</text>
</g>
<!-- lean -->
<g id="node30" class="node">
<title>lean</title>
<polygon fill="none" stroke="black" points="87.5,-1106 33.5,-1106 33.5,-1070 87.5,-1070 87.5,-1106"/>
<text text-anchor="middle" x="60.5" y="-1083.7" font-family="sans-serif" font-size="14.00">lean</text>
</g>
<!-- lisp -->
<g id="node31" class="node">
<title>lisp</title>
<polygon fill="none" stroke="black" points="477.5,-1448 423.5,-1448 423.5,-1412 477.5,-1412 477.5,-1448"/>
<text text-anchor="middle" x="450.5" y="-1425.7" font-family="sans-serif" font-size="14.00">lisp</text>
</g>
<!-- lisp&#45;&gt;core -->
<g id="edge90" class="edge">
<title>lisp&#45;&gt;core</title>
<path fill="none" stroke="black" d="M477.98,-1438.2C484.96,-1441.65 491.73,-1446.44 496,-1453 568.04,-1563.63 461.23,-1934.55 532,-2046 627.02,-2195.64 869.35,-2215.96 962.94,-2218.08"/>
<polygon fill="black" stroke="black" points="962.8,-2221.58 972.85,-2218.24 962.91,-2214.58 962.8,-2221.58"/>
</g>
<!-- lisp&#45;&gt;hol&#45;api -->
<g id="edge91" class="edge">
<title>lisp&#45;&gt;hol&#45;api</title>
<path fill="none" stroke="black" d="M477.72,-1443.11C484.87,-1448.02 491.8,-1454.32 496,-1462 568.77,-1595.18 457.94,-2011.53 532,-2144 533.92,-2147.43 536.38,-2150.58 539.17,-2153.44"/>
<polygon fill="black" stroke="black" points="536.68,-2155.92 546.54,-2159.78 541.24,-2150.61 536.68,-2155.92"/>
</g>
<!-- lisp&#45;&gt;hol&#45;eval -->
<g id="edge92" class="edge">
<title>lisp&#45;&gt;hol&#45;eval</title>
<path fill="none" stroke="black" d="M477.96,-1438.21C484.94,-1441.67 491.71,-1446.45 496,-1453 562.04,-1553.78 461.31,-1896.43 532,-1994 598.72,-2086.09 740.74,-2114.03 813.83,-2122.44"/>
<polygon fill="black" stroke="black" points="813.12,-2125.88 823.44,-2123.46 813.87,-2118.92 813.12,-2125.88"/>
</g>
<!-- lisp&#45;&gt;init -->
<g id="edge93" class="edge">
<title>lisp&#45;&gt;init</title>
<path fill="none" stroke="black" d="M477.55,-1443.81C484.52,-1448.68 491.39,-1454.78 496,-1462 541.79,-1533.7 481.68,-1581.41 532,-1650 566.23,-1696.65 630.45,-1722.79 671.23,-1735.37"/>
<polygon fill="black" stroke="black" points="670.04,-1738.67 680.62,-1738.14 672.02,-1731.95 670.04,-1738.67"/>
</g>
<!-- lisp&#45;&gt;repl&#45;core -->
<g id="edge94" class="edge">
<title>lisp&#45;&gt;repl&#45;core</title>
<path fill="none" stroke="black" d="M468.35,-1411.67C490.24,-1387.86 528.65,-1346.09 553.8,-1318.73"/>
<polygon fill="black" stroke="black" points="556.24,-1321.25 560.43,-1311.52 551.09,-1316.51 556.24,-1321.25"/>
</g>
<!-- lisp&#45;&gt;sexp -->
<g id="edge95" class="edge">
<title>lisp&#45;&gt;sexp</title>
<path fill="none" stroke="black" d="M477.78,-1439.04C512.99,-1449.63 576.83,-1463.42 626.75,-1444 646.98,-1436.13 643.47,-1420.98 662.75,-1411 714.95,-1383.98 733.72,-1390.66 792,-1383 851.35,-1375.2 920.92,-1373.3 962.84,-1372.94"/>
<polygon fill="black" stroke="black" points="962.66,-1376.44 972.64,-1372.88 962.62,-1369.44 962.66,-1376.44"/>
</g>
<!-- sexpr&#45;api -->
<g id="node55" class="node">
<title>sexpr&#45;api</title>
<polygon fill="none" stroke="black" points="748.12,-1559 670.62,-1559 670.62,-1523 748.12,-1523 748.12,-1559"/>
<text text-anchor="middle" x="709.38" y="-1536.7" font-family="sans-serif" font-size="14.00">sexpr&#45;api</text>
</g>
<!-- lisp&#45;&gt;sexpr&#45;api -->
<g id="edge96" class="edge">
<title>lisp&#45;&gt;sexpr&#45;api</title>
<path fill="none" stroke="black" d="M476.29,-1448.33C491.74,-1459.16 512.36,-1472.56 532,-1482 573.4,-1501.91 623.27,-1517.91 659.4,-1528.2"/>
<polygon fill="black" stroke="black" points="658.11,-1531.48 668.68,-1530.8 660,-1524.74 658.11,-1531.48"/>
</g>
<!-- lisp&#45;&gt;types -->
<g id="edge97" class="edge">
<title>lisp&#45;&gt;types</title>
<path fill="none" stroke="black" d="M477.77,-1436.19C516.28,-1443.54 587.73,-1450.32 626.75,-1411 683.07,-1354.24 616.33,-1118.1 662.75,-1053 689.25,-1015.84 716.59,-1033.02 756,-1010 773.04,-1000.04 774.03,-992.15 792,-984 925.48,-923.45 966.8,-910 1113.38,-910 1113.38,-910 1113.38,-910 1238.25,-910 1421.11,-910 1471.22,-1617.21 1479.98,-1771.5"/>
<polygon fill="black" stroke="black" points="1476.47,-1771.49 1480.51,-1781.29 1483.46,-1771.11 1476.47,-1771.49"/>
</g>
<!-- llm -->
<g id="node32" class="node">
<title>llm</title>
<polygon fill="none" stroke="black" points="226.12,-594 172.12,-594 172.12,-558 226.12,-558 226.12,-594"/>
<text text-anchor="middle" x="199.12" y="-571.7" font-family="sans-serif" font-size="14.00">llm</text>
</g>
<!-- llm&#45;&gt;proto -->
<g id="edge98" class="edge">
<title>llm&#45;&gt;proto</title>
<path fill="none" stroke="black" d="M226.6,-576C243.46,-576 265.58,-576 284.29,-576"/>
<polygon fill="black" stroke="black" points="284.19,-579.5 294.19,-576 284.19,-572.5 284.19,-579.5"/>
</g>
<!-- lsp&#45;&gt;sexp -->
<g id="edge99" class="edge">
<title>lsp&#45;&gt;sexp</title>
<path fill="none" stroke="black" d="M887.66,-1090.66C901.68,-1094.44 918.17,-1101.16 928.75,-1113 988.13,-1179.39 998.95,-1290.63 1000.59,-1343.45"/>
<polygon fill="black" stroke="black" points="997.08,-1343.24 1000.79,-1353.16 1004.08,-1343.09 997.08,-1343.24"/>
</g>
<!-- lsp&#45;&gt;wasm -->
<g id="edge100" class="edge">
<title>lsp&#45;&gt;wasm</title>
<path fill="none" stroke="black" d="M887.83,-1082.19C902.26,-1078.68 919.1,-1071.93 928.75,-1059 940.11,-1043.78 987.2,-455.87 998.28,-315.76"/>
<polygon fill="black" stroke="black" points="1001.77,-316.07 999.07,-305.83 994.79,-315.52 1001.77,-316.07"/>
</g>
<!-- metamath&#45;&gt;parse -->
<g id="edge101" class="edge">
<title>metamath&#45;&gt;parse</title>
<path fill="none" stroke="black" d="M901.03,-1185.5C948.94,-1175.24 1028.96,-1158.09 1075.89,-1148.03"/>
<polygon fill="black" stroke="black" points="1076.54,-1151.47 1085.58,-1145.96 1075.07,-1144.63 1076.54,-1151.47"/>
</g>
<!-- metamath&#45;&gt;sexp -->
<g id="edge102" class="edge">
<title>metamath&#45;&gt;sexp</title>
<path fill="none" stroke="black" d="M900.92,-1207.4C910.87,-1212.13 920.92,-1218.26 928.75,-1226 946.58,-1243.63 974.01,-1306.87 989.31,-1344.42"/>
<polygon fill="black" stroke="black" points="985.91,-1345.35 992.9,-1353.32 992.4,-1342.73 985.91,-1345.35"/>
</g>
<!-- multiformat -->
<g id="node36" class="node">
<title>multiformat</title>
<polygon fill="none" stroke="black" points="754.5,-1098 664.25,-1098 664.25,-1062 754.5,-1062 754.5,-1098"/>
<text text-anchor="middle" x="709.38" y="-1075.7" font-family="sans-serif" font-size="14.00">multiformat</text>
</g>
<!-- multiformat&#45;&gt;acset -->
<g id="edge103" class="edge">
<title>multiformat&#45;&gt;acset</title>
<path fill="none" stroke="black" d="M754.68,-1065.73C776.25,-1058.78 801.88,-1050.52 822.39,-1043.92"/>
<polygon fill="black" stroke="black" points="823.3,-1047.3 831.75,-1040.9 821.16,-1040.63 823.3,-1047.3"/>
</g>
<!-- multiformat&#45;&gt;hash -->
<g id="edge104" class="edge">
<title>multiformat&#45;&gt;hash</title>
<path fill="none" stroke="black" d="M723.64,-1061.5C733.24,-1047.68 746.21,-1028.12 756,-1010 795,-937.8 831.19,-847.88 848.57,-802.72"/>
<polygon fill="black" stroke="black" points="851.73,-804.25 852.03,-793.66 845.2,-801.75 851.73,-804.25"/>
</g>
<!-- multiformat&#45;&gt;parse -->
<g id="edge105" class="edge">
<title>multiformat&#45;&gt;parse</title>
<path fill="none" stroke="black" d="M738.77,-1061.82C744.69,-1057.56 750.73,-1052.84 756,-1048 774.36,-1031.14 769.42,-1015.55 792,-1005 847.07,-979.28 870.98,-986.13 928.75,-1005 994.52,-1026.48 1056.28,-1081.26 1089.03,-1114.06"/>
<polygon fill="black" stroke="black" points="1086.15,-1116.12 1095.66,-1120.81 1091.15,-1111.22 1086.15,-1116.12"/>
</g>
<!-- numerals -->
<g id="node37" class="node">
<title>numerals</title>
<polygon fill="none" stroke="black" points="617.75,-1873 541,-1873 541,-1837 617.75,-1837 617.75,-1873"/>
<text text-anchor="middle" x="579.38" y="-1850.7" font-family="sans-serif" font-size="14.00">numerals</text>
</g>
<!-- numerals&#45;&gt;grammar -->
<g id="edge106" class="edge">
<title>numerals&#45;&gt;grammar</title>
<path fill="none" stroke="black" d="M618.13,-1842.58C656.82,-1832.41 716.72,-1824.06 756,-1854 804.02,-1890.6 743.98,-1948.4 792,-1985 840.34,-2021.84 877.61,-2017.84 928.75,-1985 972.57,-1956.87 990.01,-1894.63 996.7,-1857.52"/>
<polygon fill="black" stroke="black" points="1000.11,-1858.36 998.27,-1847.93 993.2,-1857.23 1000.11,-1858.36"/>
</g>
<!-- numerals&#45;&gt;hol&#45;eval -->
<g id="edge107" class="edge">
<title>numerals&#45;&gt;hol&#45;eval</title>
<path fill="none" stroke="black" d="M590.97,-1873.38C604.86,-1896.04 631.2,-1934.43 662.75,-1958 698.6,-1984.78 724.91,-1963.81 756,-1996 788.23,-2029.38 760.72,-2059.73 792,-2094 798.27,-2100.87 806.32,-2106.4 814.66,-2110.81"/>
<polygon fill="black" stroke="black" points="812.98,-2113.88 823.51,-2114.99 815.97,-2107.55 812.98,-2113.88"/>
</g>
<!-- numerals&#45;&gt;init -->
<g id="edge108" class="edge">
<title>numerals&#45;&gt;init</title>
<path fill="none" stroke="black" d="M598.74,-1836.57C615.05,-1820.51 639.78,-1796.92 662.75,-1778 665.96,-1775.36 669.36,-1772.69 672.8,-1770.06"/>
<polygon fill="black" stroke="black" points="674.74,-1772.98 680.68,-1764.2 670.57,-1767.36 674.74,-1772.98"/>
</g>
<!-- numerals&#45;&gt;types -->
<g id="edge109" class="edge">
<title>numerals&#45;&gt;types</title>
<path fill="none" stroke="black" d="M618.18,-1869.67C656.35,-1885.9 715.32,-1915 756,-1954 777.9,-1975 766.61,-1995.4 792,-2012 870.4,-2063.26 906.95,-2042 1000.62,-2042 1000.62,-2042 1000.62,-2042 1238.25,-2042 1357.95,-2042 1439.84,-1892.91 1469.34,-1829.26"/>
<polygon fill="black" stroke="black" points="1472.37,-1831.05 1473.31,-1820.49 1466,-1828.16 1472.37,-1831.05"/>
</g>
<!-- object&#45;&gt;hash -->
<g id="edge110" class="edge">
<title>object&#45;&gt;hash</title>
<path fill="none" stroke="black" d="M738.5,-893.51C744.43,-889.27 750.55,-884.64 756,-880 785.39,-855.01 815.85,-822.89 836.02,-800.59"/>
<polygon fill="black" stroke="black" points="838.4,-803.17 842.47,-793.39 833.19,-798.5 838.4,-803.17"/>
</g>
<!-- object&#45;&gt;parse -->
<g id="edge111" class="edge">
<title>object&#45;&gt;parse</title>
<path fill="none" stroke="black" d="M738.5,-914.27C799.36,-920.5 945.32,-942.59 1038.5,-1016 1070.07,-1040.87 1091.4,-1083 1102.97,-1111.16"/>
<polygon fill="black" stroke="black" points="1099.59,-1112.13 1106.51,-1120.15 1106.11,-1109.56 1099.59,-1112.13"/>
</g>
<!-- opentheory&#45;&gt;core -->
<g id="edge112" class="edge">
<title>opentheory&#45;&gt;core</title>
<path fill="none" stroke="black" d="M468.11,-2418.48C533.41,-2488.97 776.28,-2730.7 928.75,-2604 983.54,-2558.47 996.77,-2330.01 999.79,-2247.66"/>
<polygon fill="black" stroke="black" points="1003.28,-2248.01 1000.12,-2237.9 996.28,-2247.78 1003.28,-2248.01"/>
</g>
<!-- opentheory&#45;&gt;hol -->
<g id="edge113" class="edge">
<title>opentheory&#45;&gt;hol</title>
<path fill="none" stroke="black" d="M496.41,-2408.88C556.28,-2419.17 665.26,-2432.51 756,-2414 769.32,-2411.28 798.78,-2398.48 822.85,-2387.38"/>
<polygon fill="black" stroke="black" points="824.16,-2390.64 831.74,-2383.24 821.2,-2384.29 824.16,-2390.64"/>
</g>
<!-- opentheory&#45;&gt;hol&#45;api -->
<g id="edge114" class="edge">
<title>opentheory&#45;&gt;hol&#45;api</title>
<path fill="none" stroke="black" d="M461.88,-2381.67C484.06,-2342.52 536.16,-2250.54 562.51,-2204"/>
<polygon fill="black" stroke="black" points="565.4,-2206.01 567.28,-2195.59 559.31,-2202.56 565.4,-2206.01"/>
</g>
<!-- opentheory&#45;&gt;hol&#45;eval -->
<g id="edge115" class="edge">
<title>opentheory&#45;&gt;hol&#45;eval</title>
<path fill="none" stroke="black" d="M479.82,-2381.73C533.87,-2346.77 655.3,-2267.76 756,-2199 779.08,-2183.24 804.74,-2165.12 824.72,-2150.88"/>
<polygon fill="black" stroke="black" points="826.71,-2153.76 832.81,-2145.1 822.64,-2148.07 826.71,-2153.76"/>
</g>
<!-- parquet -->
<g id="node40" class="node">
<title>parquet</title>
<polygon fill="none" stroke="black" points="484,-800 417,-800 417,-764 484,-764 484,-800"/>
<text text-anchor="middle" x="450.5" y="-777.7" font-family="sans-serif" font-size="14.00">parquet</text>
</g>
<!-- parquet&#45;&gt;arrow -->
<g id="edge116" class="edge">
<title>parquet&#45;&gt;arrow</title>
<path fill="none" stroke="black" d="M484.17,-791.79C501.6,-797.01 523.12,-803.45 541.19,-808.86"/>
<polygon fill="black" stroke="black" points="540.17,-812.21 550.75,-811.73 542.18,-805.5 540.17,-812.21"/>
</g>
<!-- parsing&#45;api -->
<g id="node42" class="node">
<title>parsing&#45;api</title>
<polygon fill="none" stroke="black" points="106.38,-1160 14.62,-1160 14.62,-1124 106.38,-1124 106.38,-1160"/>
<text text-anchor="middle" x="60.5" y="-1137.7" font-family="sans-serif" font-size="14.00">parsing&#45;api</text>
</g>
<!-- proptest -->
<g id="node43" class="node">
<title>proptest</title>
<polygon fill="none" stroke="black" points="95.88,-1214 25.12,-1214 25.12,-1178 95.88,-1178 95.88,-1214"/>
<text text-anchor="middle" x="60.5" y="-1191.7" font-family="sans-serif" font-size="14.00">proptest</text>
</g>
<!-- pure&#45;trusted -->
<g id="node47" class="node">
<title>pure&#45;trusted</title>
<polygon fill="#ffd6d6" stroke="black" points="1419.5,-2188 1320.25,-2188 1320.25,-2152 1419.5,-2152 1419.5,-2188"/>
<text text-anchor="middle" x="1369.88" y="-2165.7" font-family="sans-serif" font-size="14.00">pure&#45;trusted</text>
</g>
<!-- pure&#45;&gt;pure&#45;trusted -->
<g id="edge117" class="edge">
<title>pure&#45;&gt;pure&#45;trusted</title>
<path fill="none" stroke="black" d="M1264.68,-2171.6C1277.4,-2171.4 1293.21,-2171.16 1308.64,-2170.92"/>
<polygon fill="black" stroke="black" points="1308.3,-2174.43 1318.25,-2170.78 1308.19,-2167.43 1308.3,-2174.43"/>
</g>
<!-- pure&#45;eval&#45;&gt;pure -->
<g id="edge118" class="edge">
<title>pure&#45;eval&#45;&gt;pure</title>
<path fill="none" stroke="black" d="M1154.62,-2140.93C1169.01,-2146.41 1185.24,-2152.59 1199.41,-2157.98"/>
<polygon fill="black" stroke="black" points="1197.78,-2161.11 1208.37,-2161.39 1200.27,-2154.56 1197.78,-2161.11"/>
</g>
<!-- pure&#45;eval&#45;&gt;types -->
<g id="edge119" class="edge">
<title>pure&#45;eval&#45;&gt;types</title>
<path fill="none" stroke="black" d="M1154.7,-2134.96C1218.84,-2147.05 1346.15,-2160.11 1419.5,-2094 1458.31,-2059.02 1474.4,-1898.36 1479.52,-1830.93"/>
<polygon fill="black" stroke="black" points="1483.01,-1831.21 1480.24,-1820.98 1476.03,-1830.7 1483.01,-1831.21"/>
</g>
<!-- pure&#45;trusted&#45;&gt;types -->
<g id="edge120" class="edge">
<title>pure&#45;trusted&#45;&gt;types</title>
<path fill="none" stroke="black" d="M1404.4,-2151.84C1410.19,-2147.35 1415.6,-2142.06 1419.5,-2136 1452.1,-2085.34 1472.08,-1903.17 1478.88,-1830.87"/>
<polygon fill="black" stroke="black" points="1482.36,-1831.26 1479.79,-1820.98 1475.39,-1830.62 1482.36,-1831.26"/>
</g>
<!-- python -->
<g id="node48" class="node">
<title>python</title>
<polygon fill="none" stroke="black" points="91.38,-548 29.62,-548 29.62,-512 91.38,-512 91.38,-548"/>
<text text-anchor="middle" x="60.5" y="-525.7" font-family="sans-serif" font-size="14.00">python</text>
</g>
<!-- python&#45;&gt;crypto&#45;sig -->
<g id="edge121" class="edge">
<title>python&#45;&gt;crypto&#45;sig</title>
<path fill="none" stroke="black" d="M63.43,-511.62C71.87,-433.65 107.35,-130.44 157,-50 158.18,-48.09 159.51,-46.26 160.96,-44.5"/>
<polygon fill="black" stroke="black" points="163.41,-46.99 167.91,-37.4 158.41,-42.09 163.41,-46.99"/>
</g>
<!-- python&#45;&gt;git -->
<g id="edge122" class="edge">
<title>python&#45;&gt;git</title>
<path fill="none" stroke="black" d="M62.07,-511.54C64.65,-463.86 78.88,-336.55 157,-283 265.59,-208.56 391.02,-398.75 434.08,-472.35"/>
<polygon fill="black" stroke="black" points="430.81,-473.7 438.84,-480.61 436.88,-470.2 430.81,-473.7"/>
</g>
<!-- python&#45;&gt;graph -->
<g id="edge123" class="edge">
<title>python&#45;&gt;graph</title>
<path fill="none" stroke="black" d="M91.58,-526.05C148.12,-519.85 273.17,-512.08 369,-549 508.58,-602.78 635.64,-735.95 685.75,-793.17"/>
<polygon fill="black" stroke="black" points="682.94,-795.27 692.14,-800.54 688.23,-790.69 682.94,-795.27"/>
</g>
<!-- python&#45;&gt;hash -->
<g id="edge124" class="edge">
<title>python&#45;&gt;hash</title>
<path fill="none" stroke="black" d="M70.47,-511.78C84.65,-485.34 115,-437.38 157,-418 218.67,-389.54 704.31,-495.93 756,-540 819.38,-594.04 845.38,-694.48 854.75,-744.34"/>
<polygon fill="black" stroke="black" points="851.29,-744.86 856.48,-754.1 858.18,-743.64 851.29,-744.86"/>
</g>
<!-- python&#45;&gt;kv -->
<g id="edge125" class="edge">
<title>python&#45;&gt;kv</title>
<path fill="none" stroke="black" d="M67.74,-511.63C80.43,-476.09 111.92,-396.64 157,-342 159,-339.58 161.21,-337.23 163.54,-334.97"/>
<polygon fill="black" stroke="black" points="165.47,-337.94 170.65,-328.7 160.83,-332.69 165.47,-337.94"/>
</g>
<!-- python&#45;&gt;llm -->
<g id="edge126" class="edge">
<title>python&#45;&gt;llm</title>
<path fill="none" stroke="black" d="M91.82,-540.21C112.31,-547.11 139.48,-556.25 161.22,-563.57"/>
<polygon fill="black" stroke="black" points="160,-566.86 170.6,-566.73 162.23,-560.22 160,-566.86"/>
</g>
<!-- python&#45;&gt;object -->
<g id="edge127" class="edge">
<title>python&#45;&gt;object</title>
<path fill="none" stroke="black" d="M65.7,-548.49C80.99,-610.93 140.15,-814.49 277.25,-893 404.59,-965.93 589.45,-938.38 669.27,-921.42"/>
<polygon fill="black" stroke="black" points="669.77,-924.89 678.78,-919.33 668.26,-918.06 669.77,-924.89"/>
</g>
<!-- python&#45;&gt;repl -->
<g id="edge128" class="edge">
<title>python&#45;&gt;repl</title>
<path fill="none" stroke="black" d="M75.51,-548.06C118.64,-603.67 249.6,-772.5 301.05,-838.83"/>
<polygon fill="black" stroke="black" points="298.22,-840.89 307.12,-846.65 303.75,-836.6 298.22,-840.89"/>
</g>
<!-- python&#45;&gt;sat -->
<g id="edge129" class="edge">
<title>python&#45;&gt;sat</title>
<path fill="none" stroke="black" d="M62.44,-548.24C68.05,-636.83 104.82,-1018 322.12,-1018 322.12,-1018 322.12,-1018 451.5,-1018 553.38,-1018 564.91,-1078.6 662.75,-1107 716.94,-1122.73 781.85,-1131.81 821.85,-1136.33"/>
<polygon fill="black" stroke="black" points="821.35,-1139.79 831.67,-1137.4 822.11,-1132.84 821.35,-1139.79"/>
</g>
<!-- python&#45;&gt;serve -->
<g id="edge130" class="edge">
<title>python&#45;&gt;serve</title>
<path fill="none" stroke="black" d="M63.25,-548.4C71.15,-628.61 105.34,-947.51 157,-1032 158.83,-1034.99 161.05,-1037.81 163.49,-1040.44"/>
<polygon fill="black" stroke="black" points="161.05,-1042.95 170.78,-1047.15 165.8,-1037.8 161.05,-1042.95"/>
</g>
<!-- python&#45;&gt;sexp -->
<g id="edge131" class="edge">
<title>python&#45;&gt;sexp</title>
<path fill="none" stroke="black" d="M63.59,-548.43C73.36,-633.42 115.93,-987.85 157,-1091 205.85,-1213.68 190.08,-1338 322.12,-1338 322.12,-1338 322.12,-1338 451.5,-1338 663.66,-1338 724.84,-1269.43 928.75,-1328 943.15,-1332.14 957.47,-1340.1 969.48,-1348.19"/>
<polygon fill="black" stroke="black" points="967.17,-1350.84 977.35,-1353.76 971.21,-1345.12 967.17,-1350.84"/>
</g>
<!-- python&#45;&gt;shell -->
<g id="edge132" class="edge">
<title>python&#45;&gt;shell</title>
<path fill="none" stroke="black" d="M64.37,-548.1C73.59,-606.57 102.85,-795.71 121,-953 131.2,-1041.44 114.63,-1273.7 157,-1352 165.1,-1366.98 262.64,-1438.25 277.25,-1447 321.5,-1473.5 376.81,-1495.88 412.63,-1509.12"/>
<polygon fill="black" stroke="black" points="411.07,-1512.28 421.67,-1512.41 413.47,-1505.7 411.07,-1512.28"/>
</g>
<!-- python&#45;&gt;store -->
<g id="edge133" class="edge">
<title>python&#45;&gt;store</title>
<path fill="none" stroke="black" d="M62.22,-511.73C65.17,-463.08 80.24,-329.54 157,-262 213.39,-212.38 247.01,-226 322.12,-226 322.12,-226 322.12,-226 451.5,-226 530.12,-226 560.3,-208 626.75,-250 651.45,-265.61 641.63,-284.81 662.75,-305 665.79,-307.91 669.2,-310.63 672.75,-313.16"/>
<polygon fill="black" stroke="black" points="670.74,-316.02 681.04,-318.51 674.53,-310.14 670.74,-316.02"/>
</g>
<!-- python&#45;&gt;wasm -->
<g id="edge134" class="edge">
<title>python&#45;&gt;wasm</title>
<path fill="none" stroke="black" d="M61.65,-511.64C62.99,-454.47 74,-276.74 157,-165 208.3,-95.94 236.1,-64 322.12,-64 322.12,-64 322.12,-64 710.38,-64 807.8,-64 851.71,-23.37 928.75,-83 982.92,-124.92 996.37,-210.81 999.63,-256.26"/>
<polygon fill="black" stroke="black" points="996.14,-256.39 1000.21,-266.17 1003.12,-255.98 996.14,-256.39"/>
</g>
<!-- wasm&#45;store -->
<g id="node66" class="node">
<title>wasm&#45;store</title>
<polygon fill="none" stroke="black" points="626.75,-198 532,-198 532,-162 626.75,-162 626.75,-198"/>
<text text-anchor="middle" x="579.38" y="-175.7" font-family="sans-serif" font-size="14.00">wasm&#45;store</text>
</g>
<!-- python&#45;&gt;wasm&#45;store -->
<g id="edge135" class="edge">
<title>python&#45;&gt;wasm&#45;store</title>
<path fill="none" stroke="black" d="M64.28,-511.56C74.01,-449.66 108.6,-250.93 157,-212 261.6,-127.86 431.95,-147.65 520.61,-165.79"/>
<polygon fill="black" stroke="black" points="519.8,-169.19 530.31,-167.84 521.25,-162.35 519.8,-169.19"/>
</g>
<!-- repl&#45;&gt;arrow -->
<g id="edge136" class="edge">
<title>repl&#45;&gt;arrow</title>
<path fill="none" stroke="black" d="M350.38,-861.25C395.67,-853.06 488.65,-836.23 540.79,-826.8"/>
<polygon fill="black" stroke="black" points="541.18,-830.29 550.4,-825.06 539.93,-823.4 541.18,-830.29"/>
</g>
<!-- repl&#45;&gt;forsp -->
<g id="edge137" class="edge">
<title>repl&#45;&gt;forsp</title>
<path fill="none" stroke="black" d="M335.82,-884.33C345.52,-900.02 359.25,-923.44 369,-945 401.13,-1016.06 428.3,-1104.01 441.3,-1148.8"/>
<polygon fill="black" stroke="black" points="437.9,-1149.63 444.02,-1158.28 444.63,-1147.7 437.9,-1149.63"/>
</g>
<!-- repl&#45;&gt;git -->
<g id="edge138" class="edge">
<title>repl&#45;&gt;git</title>
<path fill="none" stroke="black" d="M332.64,-847.51C342.72,-824.95 359.34,-785.41 369,-750 394.85,-655.26 353.21,-615.43 405,-532 407.54,-527.91 410.82,-524.18 414.44,-520.84"/>
<polygon fill="black" stroke="black" points="416.52,-523.66 422.15,-514.68 412.15,-518.19 416.52,-523.66"/>
</g>
<!-- repl&#45;&gt;graph -->
<g id="edge139" class="edge">
<title>repl&#45;&gt;graph</title>
<path fill="none" stroke="black" d="M350.32,-866.6C403.13,-867.31 525.97,-866.5 626.75,-847 641.67,-844.11 657.63,-839.26 671.44,-834.45"/>
<polygon fill="black" stroke="black" points="672.35,-837.84 680.57,-831.16 669.98,-831.25 672.35,-837.84"/>
</g>
<!-- repl&#45;&gt;hash -->
<g id="edge140" class="edge">
<title>repl&#45;&gt;hash</title>
<path fill="none" stroke="black" d="M334.53,-847.9C351.5,-819.09 385.24,-765.05 405,-755 423.42,-745.63 715.8,-764.31 821.56,-771.41"/>
<polygon fill="black" stroke="black" points="821.21,-774.9 831.42,-772.08 821.68,-767.91 821.21,-774.9"/>
</g>
<!-- repl&#45;&gt;init -->
<g id="edge141" class="edge">
<title>repl&#45;&gt;init</title>
<path fill="none" stroke="black" d="M337.13,-884.2C347.49,-899.63 361.45,-922.74 369,-945 406.48,-1055.47 350.04,-1102.1 405,-1205 430.51,-1252.76 470.86,-1238.04 496,-1286 556.92,-1402.2 454.33,-1473.26 532,-1579 559.38,-1616.27 595.11,-1588.27 626.75,-1622 657.64,-1654.93 633.96,-1682.21 662.75,-1717 665.6,-1720.45 668.99,-1723.59 672.62,-1726.41"/>
<polygon fill="black" stroke="black" points="670.47,-1729.18 680.7,-1731.94 674.42,-1723.41 670.47,-1729.18"/>
</g>
<!-- repl&#45;&gt;object -->
<g id="edge142" class="edge">
<title>repl&#45;&gt;object</title>
<path fill="none" stroke="black" d="M350.3,-870.55C366.11,-873.22 386.68,-876.53 405,-879 499.56,-891.73 611.21,-902.88 669.12,-908.38"/>
<polygon fill="black" stroke="black" points="668.5,-911.83 678.79,-909.29 669.16,-904.86 668.5,-911.83"/>
</g>
<!-- repl&#45;&gt;parquet -->
<g id="edge143" class="edge">
<title>repl&#45;&gt;parquet</title>
<path fill="none" stroke="black" d="M350.41,-848.39C368.43,-836.32 392.59,-820.13 412.54,-806.76"/>
<polygon fill="black" stroke="black" points="414.33,-809.77 420.69,-801.3 410.44,-803.96 414.33,-809.77"/>
</g>
<!-- repl&#45;&gt;shell -->
<g id="edge144" class="edge">
<title>repl&#45;&gt;shell</title>
<path fill="none" stroke="black" d="M337.74,-884.39C348.31,-899.74 362.25,-922.65 369,-945 434.97,-1163.37 329.95,-1241.58 405,-1457 409.66,-1470.38 417.84,-1483.59 425.93,-1494.56"/>
<polygon fill="black" stroke="black" points="423.1,-1496.62 431.99,-1502.38 428.63,-1492.33 423.1,-1496.62"/>
</g>
<!-- repl&#45;&gt;wasm -->
<g id="edge145" class="edge">
<title>repl&#45;&gt;wasm</title>
<path fill="none" stroke="black" d="M326.72,-847.7C335,-791.15 362.72,-614.49 405,-473 448.81,-326.39 405.41,-238.95 532,-153 608.93,-100.77 770.14,-122.02 928.75,-209 950.4,-220.87 969.2,-241.63 982.14,-258.61"/>
<polygon fill="black" stroke="black" points="979.08,-260.35 987.81,-266.35 984.72,-256.22 979.08,-260.35"/>
</g>
<!-- sat&#45;&gt;parse -->
<g id="edge146" class="edge">
<title>sat&#45;&gt;parse</title>
<path fill="none" stroke="black" d="M887.87,-1140C932.89,-1140 1024.43,-1140 1075.97,-1140"/>
<polygon fill="black" stroke="black" points="1075.72,-1143.5 1085.72,-1140 1075.72,-1136.5 1075.72,-1143.5"/>
</g>
<!-- sat&#45;&gt;types -->
<g id="edge147" class="edge">
<title>sat&#45;&gt;types</title>
<path fill="none" stroke="black" d="M887.62,-1149.62C900.23,-1154.47 915.44,-1160.65 928.75,-1167 1013.56,-1207.45 1019.41,-1270 1113.38,-1270 1113.38,-1270 1113.38,-1270 1238.25,-1270 1460.6,-1270 1480.51,-1659.59 1481.65,-1771.36"/>
<polygon fill="black" stroke="black" points="1478.14,-1771.23 1481.7,-1781.21 1485.14,-1771.19 1478.14,-1771.23"/>
</g>
<!-- sat&#45;&gt;wasm -->
<g id="edge148" class="edge">
<title>sat&#45;&gt;wasm</title>
<path fill="none" stroke="black" d="M887.86,-1136.22C902.3,-1132.71 919.14,-1125.96 928.75,-1113 934.84,-1104.79 986.58,-461.62 998.28,-315.36"/>
<polygon fill="black" stroke="black" points="1001.74,-315.99 999.05,-305.74 994.77,-315.43 1001.74,-315.99"/>
</g>
<!-- serve&#45;&gt;core -->
<g id="edge149" class="edge">
<title>serve&#45;&gt;core</title>
<path fill="none" stroke="black" d="M199.82,-1082.32C197.72,-1231.1 191.55,-2240.33 405,-2427 580.23,-2580.24 740.25,-2565.58 928.75,-2429 986.84,-2386.91 998.49,-2295.15 1000.5,-2247.71"/>
<polygon fill="black" stroke="black" points="1003.99,-2248.01 1000.78,-2237.91 996.99,-2247.8 1003.99,-2248.01"/>
</g>
<!-- serve&#45;&gt;forsp -->
<g id="edge150" class="edge">
<title>serve&#45;&gt;forsp</title>
<path fill="none" stroke="black" d="M226.43,-1080.16C241.12,-1088.89 259.92,-1099.58 277.25,-1108 322.71,-1130.08 376.98,-1151.34 412.3,-1164.51"/>
<polygon fill="black" stroke="black" points="411.05,-1167.78 421.64,-1167.98 413.48,-1161.22 411.05,-1167.78"/>
</g>
<!-- serve&#45;&gt;git -->
<g id="edge151" class="edge">
<title>serve&#45;&gt;git</title>
<path fill="none" stroke="black" d="M201.22,-1045.52C204.9,-995.92 219.97,-857.07 277.25,-760 305.65,-711.86 340.6,-722.14 369,-674 402.08,-617.92 368.35,-585.82 405,-532 407.65,-528.11 410.94,-524.52 414.52,-521.27"/>
<polygon fill="black" stroke="black" points="416.43,-524.23 422.07,-515.26 412.07,-518.76 416.43,-524.23"/>
</g>
<!-- serve&#45;&gt;hash -->
<g id="edge152" class="edge">
<title>serve&#45;&gt;hash</title>
<path fill="none" stroke="black" d="M202.54,-1045.61C208.67,-1004.79 227.98,-905.03 277.25,-839 318.94,-783.13 338.6,-769.23 405,-748 553.49,-700.52 742.98,-741.67 822.08,-763.04"/>
<polygon fill="black" stroke="black" points="820.9,-766.34 831.47,-765.63 822.76,-759.59 820.9,-766.34"/>
</g>
<!-- serve&#45;&gt;init -->
<g id="edge153" class="edge">
<title>serve&#45;&gt;init</title>
<path fill="none" stroke="black" d="M218.7,-1082.2C278.26,-1140.98 462.52,-1326.41 496,-1403 534.28,-1490.57 470.98,-1541.45 532,-1615 560.66,-1649.55 592.88,-1620.54 626.75,-1650 652.26,-1672.18 639.54,-1692.42 662.75,-1717 665.67,-1720.09 668.99,-1722.96 672.49,-1725.61"/>
<polygon fill="black" stroke="black" points="670.5,-1728.49 680.74,-1731.2 674.43,-1722.69 670.5,-1728.49"/>
</g>
<!-- serve&#45;&gt;lisp -->
<g id="edge154" class="edge">
<title>serve&#45;&gt;lisp</title>
<path fill="none" stroke="black" d="M206.15,-1082.48C217.32,-1115.34 243.24,-1185.43 277.25,-1238 319.59,-1303.44 383.97,-1368.65 420.86,-1403.69"/>
<polygon fill="black" stroke="black" points="418.39,-1406.17 428.07,-1410.48 423.19,-1401.08 418.39,-1406.17"/>
</g>
<!-- serve&#45;&gt;metamath -->
<g id="edge155" class="edge">
<title>serve&#45;&gt;metamath</title>
<path fill="none" stroke="black" d="M226.52,-1069.55C241.41,-1072.67 260.36,-1076.59 277.25,-1080 473.6,-1119.59 707.63,-1164.83 808.73,-1184.28"/>
<polygon fill="black" stroke="black" points="807.85,-1187.67 818.33,-1186.13 809.17,-1180.8 807.85,-1187.67"/>
</g>
<!-- serve&#45;&gt;object -->
<g id="edge156" class="edge">
<title>serve&#45;&gt;object</title>
<path fill="none" stroke="black" d="M226.61,-1066.81C298,-1072.98 497.73,-1080.9 626.75,-994 652.23,-976.84 640.17,-955.82 662.75,-935 665.13,-932.8 667.77,-930.76 670.53,-928.88"/>
<polygon fill="black" stroke="black" points="672.15,-931.99 678.95,-923.87 668.57,-925.97 672.15,-931.99"/>
</g>
<!-- serve&#45;&gt;proto -->
<g id="edge157" class="edge">
<title>serve&#45;&gt;proto</title>
<path fill="none" stroke="black" d="M200.99,-1045.8C204.32,-986.29 219.22,-792.87 277.25,-646 283.15,-631.06 292.4,-615.89 300.97,-603.5"/>
<polygon fill="black" stroke="black" points="303.76,-605.62 306.74,-595.46 298.07,-601.54 303.76,-605.62"/>
</g>
<!-- serve&#45;&gt;repl -->
<g id="edge158" class="edge">
<title>serve&#45;&gt;repl</title>
<path fill="none" stroke="black" d="M211.38,-1045.73C232.81,-1010.95 279.57,-935.07 304.93,-893.9"/>
<polygon fill="black" stroke="black" points="307.83,-895.87 310.1,-885.52 301.87,-892.19 307.83,-895.87"/>
</g>
<!-- serve&#45;&gt;shell -->
<g id="edge159" class="edge">
<title>serve&#45;&gt;shell</title>
<path fill="none" stroke="black" d="M202.03,-1082.07C209.08,-1145.75 235.38,-1358.75 277.25,-1411 305.41,-1446.14 332.14,-1428.13 369,-1454 387.52,-1467 387.76,-1475.35 405,-1490 407.83,-1492.4 410.83,-1494.82 413.88,-1497.18"/>
<polygon fill="black" stroke="black" points="411.77,-1499.97 421.87,-1503.17 415.96,-1494.37 411.77,-1499.97"/>
</g>
<!-- serve&#45;&gt;store -->
<g id="edge160" class="edge">
<title>serve&#45;&gt;store</title>
<path fill="none" stroke="black" d="M202,-1045.94C209.32,-977.99 237.51,-738.28 277.25,-674 304.36,-630.14 340.26,-645.81 369,-603 402.41,-553.22 374.6,-524.67 405,-473 445.16,-404.74 460.14,-381.3 532,-348 576.43,-327.41 633.84,-326.25 670.89,-328.31"/>
<polygon fill="black" stroke="black" points="670.43,-331.78 680.65,-328.97 670.9,-324.8 670.43,-331.78"/>
</g>
<!-- sexp&#45;&gt;parse -->
<g id="edge161" class="edge">
<title>sexp&#45;&gt;parse</title>
<path fill="none" stroke="black" d="M1011.32,-1354.72C1030.56,-1314.22 1076.9,-1216.74 1099.92,-1168.3"/>
<polygon fill="black" stroke="black" points="1102.94,-1170.1 1104.08,-1159.57 1096.62,-1167.09 1102.94,-1170.1"/>
</g>
<!-- sexp&#45;&gt;types -->
<g id="edge162" class="edge">
<title>sexp&#45;&gt;types</title>
<path fill="none" stroke="black" d="M1029.12,-1372.75C1103.06,-1373.57 1313.18,-1386.63 1419.5,-1504 1455.04,-1543.23 1472.99,-1703.93 1479.06,-1771.19"/>
<polygon fill="black" stroke="black" points="1475.57,-1771.44 1479.93,-1781.1 1482.55,-1770.83 1475.57,-1771.44"/>
</g>
<!-- sexpr&#45;api&#45;&gt;inductive -->
<g id="edge163" class="edge">
<title>sexpr&#45;api&#45;&gt;inductive</title>
<path fill="none" stroke="black" d="M737.01,-1559.41C761.09,-1576.06 796.74,-1600.7 823.36,-1619.1"/>
<polygon fill="black" stroke="black" points="821.26,-1621.9 831.47,-1624.71 825.24,-1616.15 821.26,-1621.9"/>
</g>
<!-- shell&#45;&gt;hol -->
<g id="edge164" class="edge">
<title>shell&#45;&gt;hol</title>
<path fill="none" stroke="black" d="M452.09,-1540.26C455.41,-1636.01 473.76,-2080.41 532,-2203 567.84,-2278.45 588.71,-2299.33 662.75,-2338 713.25,-2364.38 780.18,-2370.06 821.48,-2370.76"/>
<polygon fill="black" stroke="black" points="821.38,-2374.26 831.41,-2370.82 821.43,-2367.26 821.38,-2374.26"/>
</g>
<!-- shell&#45;&gt;kernel -->
<g id="edge165" class="edge">
<title>shell&#45;&gt;kernel</title>
<path fill="none" stroke="black" d="M468.35,-1503.67C490.24,-1479.86 528.65,-1438.09 553.8,-1410.73"/>
<polygon fill="black" stroke="black" points="556.24,-1413.25 560.43,-1403.52 551.09,-1408.51 556.24,-1413.25"/>
</g>
<!-- smt&#45;&gt;sat -->
<g id="edge166" class="edge">
<title>smt&#45;&gt;sat</title>
<path fill="none" stroke="black" d="M725.38,-1419.54C735.57,-1406.04 748.52,-1386.88 756,-1368 789.45,-1283.63 734.69,-1237.37 792,-1167 799.58,-1157.69 810.85,-1151.57 822.01,-1147.56"/>
<polygon fill="black" stroke="black" points="823,-1150.91 831.54,-1144.65 820.96,-1144.22 823,-1150.91"/>
</g>
<!-- smt&#45;&gt;sexp -->
<g id="edge167" class="edge">
<title>smt&#45;&gt;sexp</title>
<path fill="none" stroke="black" d="M736.74,-1430.46C752.68,-1426.01 773.44,-1420.41 792,-1416 851.4,-1401.89 920.95,-1388.09 962.86,-1380.08"/>
<polygon fill="black" stroke="black" points="963.51,-1383.52 972.68,-1378.21 962.2,-1376.64 963.51,-1383.52"/>
</g>
<!-- smt&#45;&gt;types -->
<g id="edge168" class="edge">
<title>smt&#45;&gt;types</title>
<path fill="none" stroke="black" d="M718.96,-1456.29C731.34,-1480.38 756.68,-1521.9 792,-1541 873.9,-1585.29 907.52,-1560 1000.62,-1560 1000.62,-1560 1000.62,-1560 1238.25,-1560 1319.51,-1560 1357.99,-1530.91 1419.5,-1584 1447.97,-1608.57 1468.61,-1718.33 1477.15,-1771.69"/>
<polygon fill="black" stroke="black" points="1473.64,-1771.93 1478.64,-1781.27 1480.56,-1770.85 1473.64,-1771.93"/>
</g>
<!-- spectec&#45;&gt;grammar -->
<g id="edge169" class="edge">
<title>spectec&#45;&gt;grammar</title>
<path fill="none" stroke="black" d="M895.44,-1856.7C912.94,-1851.93 934.54,-1846.04 953.6,-1840.83"/>
<polygon fill="black" stroke="black" points="954.29,-1844.27 963.02,-1838.26 952.45,-1837.52 954.29,-1844.27"/>
</g>
<!-- store&#45;&gt;hash -->
<g id="edge170" class="edge">
<title>store&#45;&gt;hash</title>
<path fill="none" stroke="black" d="M719.3,-350.33C729.04,-370.71 744.74,-404.76 756,-435 797.89,-547.48 835.96,-685.36 851.71,-744.64"/>
<polygon fill="black" stroke="black" points="848.32,-745.5 854.26,-754.27 855.09,-743.71 848.32,-745.5"/>
</g>
<!-- store&#45;&gt;json -->
<g id="edge171" class="edge">
<title>store&#45;&gt;json</title>
<path fill="none" stroke="black" d="M736.67,-322.47C760.43,-313.86 795.65,-301.1 822.27,-291.45"/>
<polygon fill="black" stroke="black" points="823.46,-294.74 831.67,-288.04 821.08,-288.16 823.46,-294.74"/>
</g>
<!-- store&#45;&gt;sqlite -->
<g id="edge172" class="edge">
<title>store&#45;&gt;sqlite</title>
<path fill="none" stroke="black" d="M736.67,-332C760.32,-332 795.33,-332 821.91,-332"/>
<polygon fill="black" stroke="black" points="821.58,-335.5 831.58,-332 821.58,-328.5 821.58,-335.5"/>
</g>
<!-- tcb&#45;db -->
<g id="node61" class="node">
<title>tcb&#45;db</title>
<polygon fill="none" stroke="black" points="739.5,-296 679.25,-296 679.25,-260 739.5,-260 739.5,-296"/>
<text text-anchor="middle" x="709.38" y="-273.7" font-family="sans-serif" font-size="14.00">tcb&#45;db</text>
</g>
<!-- tcb&#45;db&#45;&gt;json -->
<g id="edge173" class="edge">
<title>tcb&#45;db&#45;&gt;json</title>
<path fill="none" stroke="black" d="M739.81,-278C763.24,-278 796.19,-278 821.57,-278"/>
<polygon fill="black" stroke="black" points="821.48,-281.5 831.48,-278 821.48,-274.5 821.48,-281.5"/>
</g>
<!-- tcb&#45;db&#45;&gt;sqlite -->
<g id="edge174" class="edge">
<title>tcb&#45;db&#45;&gt;sqlite</title>
<path fill="none" stroke="black" d="M739.81,-288.67C763.45,-297.24 796.79,-309.32 822.26,-318.55"/>
<polygon fill="black" stroke="black" points="820.98,-321.81 831.57,-321.92 823.36,-315.23 820.98,-321.81"/>
</g>
<!-- wasm&#45;build&#45;guest -->
<g id="node64" class="node">
<title>wasm&#45;build&#45;guest</title>
<polygon fill="none" stroke="black" points="928.75,-128 792,-128 792,-92 928.75,-92 928.75,-128"/>
<text text-anchor="middle" x="860.38" y="-105.7" font-family="sans-serif" font-size="14.00">wasm&#45;build&#45;guest</text>
</g>
<!-- wasm&#45;build&#45;guest&#45;&gt;wasm -->
<g id="edge175" class="edge">
<title>wasm&#45;build&#45;guest&#45;&gt;wasm</title>
<path fill="none" stroke="black" d="M910.32,-128.38C917,-132.22 923.39,-136.74 928.75,-142 961.8,-174.41 982.17,-225.17 992.44,-256.96"/>
<polygon fill="black" stroke="black" points="989.03,-257.78 995.32,-266.3 995.71,-255.72 989.03,-257.78"/>
</g>
<!-- wasm&#45;spec -->
<g id="node65" class="node">
<title>wasm&#45;spec</title>
<polygon fill="none" stroke="black" points="756,-480 662.75,-480 662.75,-444 756,-444 756,-480"/>
<text text-anchor="middle" x="709.38" y="-457.7" font-family="sans-serif" font-size="14.00">wasm&#45;spec</text>
</g>
<!-- wasm&#45;spec&#45;&gt;hash -->
<g id="edge176" class="edge">
<title>wasm&#45;spec&#45;&gt;hash</title>
<path fill="none" stroke="black" d="M742.03,-480.36C747.18,-484.36 752.1,-488.94 756,-494 816.56,-572.62 844.37,-690.31 854.53,-744.62"/>
<polygon fill="black" stroke="black" points="851.06,-745.09 856.27,-754.32 857.95,-743.86 851.06,-745.09"/>
</g>
<!-- wasm&#45;spec&#45;&gt;wasm -->
<g id="edge177" class="edge">
<title>wasm&#45;spec&#45;&gt;wasm</title>
<path fill="none" stroke="black" d="M756.2,-456.25C803.38,-448.42 877.12,-430.65 928.75,-392 955.76,-371.78 976.01,-338.28 988.01,-314.36"/>
<polygon fill="black" stroke="black" points="991.1,-316.01 992.29,-305.48 984.8,-312.97 991.1,-316.01"/>
</g>
<!-- wasm&#45;store&#45;&gt;json -->
<g id="edge178" class="edge">
<title>wasm&#45;store&#45;&gt;json</title>
<path fill="none" stroke="black" d="M627.07,-196.4C682.02,-215.7 772.12,-247.35 822.44,-265.03"/>
<polygon fill="black" stroke="black" points="821.12,-268.27 831.71,-268.28 823.44,-261.67 821.12,-268.27"/>
</g>
<!-- wasm&#45;store&#45;&gt;store -->
<g id="edge179" class="edge">
<title>wasm&#45;store&#45;&gt;store</title>
<path fill="none" stroke="black" d="M612.48,-198.34C617.73,-202.35 622.75,-206.93 626.75,-212 654.21,-246.79 634.1,-271.18 662.75,-305 665.61,-308.38 669.01,-311.44 672.64,-314.19"/>
<polygon fill="black" stroke="black" points="670.45,-316.93 680.72,-319.53 674.31,-311.09 670.45,-316.93"/>
</g>
<!-- wasm&#45;store&#45;&gt;wasm -->
<g id="edge180" class="edge">
<title>wasm&#45;store&#45;&gt;wasm</title>
<path fill="none" stroke="black" d="M627.21,-185.09C695.24,-193.48 824.62,-213.16 928.75,-251 940.51,-255.27 952.91,-260.88 964.03,-266.35"/>
<polygon fill="black" stroke="black" points="962.38,-269.44 972.89,-270.82 965.54,-263.19 962.38,-269.44"/>
</g>
<!-- web&#45;kernel -->
<g id="node67" class="node">
<title>web&#45;kernel</title>
<polygon fill="none" stroke="black" points="369,-1402 277.25,-1402 277.25,-1366 369,-1366 369,-1402"/>
<text text-anchor="middle" x="323.12" y="-1379.7" font-family="sans-serif" font-size="14.00">web&#45;kernel</text>
</g>
<!-- web&#45;kernel&#45;&gt;forsp -->
<g id="edge181" class="edge">
<title>web&#45;kernel&#45;&gt;forsp</title>
<path fill="none" stroke="black" d="M335.25,-1365.72C357.23,-1329.6 406.35,-1248.91 432.44,-1206.03"/>
<polygon fill="black" stroke="black" points="435.4,-1207.9 437.61,-1197.53 429.42,-1204.26 435.4,-1207.9"/>
</g>
<!-- web&#45;kernel&#45;&gt;haskell -->
<g id="edge182" class="edge">
<title>web&#45;kernel&#45;&gt;haskell</title>
<path fill="none" stroke="black" d="M339.26,-1402.36C349.46,-1415.8 362.25,-1434.95 369,-1454 415.54,-1585.32 441.71,-2027.72 448,-2146.46"/>
<polygon fill="black" stroke="black" points="444.5,-2146.51 448.52,-2156.31 451.49,-2146.14 444.5,-2146.51"/>
</g>
<!-- web&#45;kernel&#45;&gt;hol&#45;api -->
<g id="edge183" class="edge">
<title>web&#45;kernel&#45;&gt;hol&#45;api</title>
<path fill="none" stroke="black" d="M363.08,-1402.43C365.15,-1403.88 367.14,-1405.4 369,-1407 389.76,-1424.85 383.56,-1439.97 405,-1457 439.32,-1484.26 470.7,-1459.21 496,-1495 579.38,-1612.95 461.35,-2018.02 532,-2144 533.92,-2147.43 536.39,-2150.57 539.18,-2153.44"/>
<polygon fill="black" stroke="black" points="536.69,-2155.91 546.56,-2159.77 541.25,-2150.6 536.69,-2155.91"/>
</g>
<!-- web&#45;kernel&#45;&gt;kernel -->
<g id="edge184" class="edge">
<title>web&#45;kernel&#45;&gt;kernel</title>
<path fill="none" stroke="black" d="M369.29,-1384C417.59,-1384 493.43,-1384 539.27,-1384"/>
<polygon fill="black" stroke="black" points="539.01,-1387.5 549.01,-1384 539.01,-1380.5 539.01,-1387.5"/>
</g>
<!-- web&#45;kernel&#45;&gt;lisp -->
<g id="edge185" class="edge">
<title>web&#45;kernel&#45;&gt;lisp</title>
<path fill="none" stroke="black" d="M369.39,-1400.61C383.67,-1405.85 399.26,-1411.57 412.86,-1416.56"/>
<polygon fill="black" stroke="black" points="411.26,-1419.7 421.85,-1419.86 413.67,-1413.13 411.26,-1419.7"/>
</g>
</g>
</svg>
