<?xml version="1.0" encoding="UTF-8" standalone="no"?>
<!DOCTYPE svg PUBLIC "-//W3C//DTD SVG 1.1//EN"
 "http://www.w3.org/Graphics/SVG/1.1/DTD/svg11.dtd">
<!-- Generated by graphviz version 12.2.1 (0)
 -->
<!-- Title: deps Pages: 1 -->
<svg width="1478pt" height="1979pt"
 viewBox="0.00 0.00 1477.50 1979.00" xmlns="http://www.w3.org/2000/svg" xmlns:xlink="http://www.w3.org/1999/xlink">
<g id="graph0" class="graph" transform="scale(1 1) rotate(0) translate(4 1975)">
<title>deps</title>
<polygon fill="white" stroke="none" points="-4,4 -4,-1975 1473.5,-1975 1473.5,4 -4,4"/>
<!-- covalence -->
<g id="node1" class="node">
<title>covalence</title>
<polygon fill="none" stroke="black" points="102.62,-1033 18.38,-1033 18.38,-997 102.62,-997 102.62,-1033"/>
<text text-anchor="middle" x="60.5" y="-1010.7" font-family="sans-serif" font-size="14.00">covalence</text>
</g>
<!-- client -->
<g id="node5" class="node">
<title>client</title>
<polygon fill="none" stroke="black" points="349.75,-810 295.75,-810 295.75,-774 349.75,-774 349.75,-810"/>
<text text-anchor="middle" x="322.75" y="-787.7" font-family="sans-serif" font-size="14.00">client</text>
</g>
<!-- covalence&#45;&gt;client -->
<g id="edge1" class="edge">
<title>covalence&#45;&gt;client</title>
<path fill="none" stroke="black" d="M80.85,-996.67C117.93,-961.82 202.01,-884.1 277.25,-824 280.15,-821.68 283.2,-819.33 286.28,-817.01"/>
<polygon fill="black" stroke="black" points="288.35,-819.83 294.32,-811.08 284.19,-814.2 288.35,-819.83"/>
</g>
<!-- fuse -->
<g id="node11" class="node">
<title>fuse</title>
<polygon fill="none" stroke="black" points="606.38,-1092 552.38,-1092 552.38,-1056 606.38,-1056 606.38,-1092"/>
<text text-anchor="middle" x="579.38" y="-1069.7" font-family="sans-serif" font-size="14.00">fuse</text>
</g>
<!-- covalence&#45;&gt;fuse -->
<g id="edge2" class="edge">
<title>covalence&#45;&gt;fuse</title>
<path fill="none" stroke="black" d="M102.92,-1019.73C201.13,-1030.94 446.9,-1058.99 540.95,-1069.73"/>
<polygon fill="black" stroke="black" points="540.33,-1073.18 550.66,-1070.84 541.12,-1066.23 540.33,-1073.18"/>
</g>
<!-- git -->
<g id="node12" class="node">
<title>git</title>
<polygon fill="none" stroke="black" points="477.12,-1330 423.12,-1330 423.12,-1294 477.12,-1294 477.12,-1330"/>
<text text-anchor="middle" x="450.12" y="-1307.7" font-family="sans-serif" font-size="14.00">git</text>
</g>
<!-- covalence&#45;&gt;git -->
<g id="edge3" class="edge">
<title>covalence&#45;&gt;git</title>
<path fill="none" stroke="black" d="M61.73,-1033.3C63.41,-1085.5 75.43,-1236.67 157,-1319 190.6,-1352.91 322.1,-1370.21 368.25,-1358 384.71,-1353.65 401.33,-1345.08 415.18,-1336.5"/>
<polygon fill="black" stroke="black" points="416.98,-1339.51 423.47,-1331.14 413.17,-1333.64 416.98,-1339.51"/>
</g>
<!-- hash -->
<g id="node15" class="node">
<title>hash</title>
<polygon fill="none" stroke="black" points="887.38,-1092 833.38,-1092 833.38,-1056 887.38,-1056 887.38,-1092"/>
<text text-anchor="middle" x="860.38" y="-1069.7" font-family="sans-serif" font-size="14.00">hash</text>
</g>
<!-- covalence&#45;&gt;hash -->
<g id="edge4" class="edge">
<title>covalence&#45;&gt;hash</title>
<path fill="none" stroke="black" d="M69.03,-996.5C82.87,-964.11 114.82,-896.19 157,-850 201.13,-801.67 214.87,-784.82 277.25,-765 315.8,-752.75 328,-761.07 368.25,-765 484.8,-776.39 513.73,-785.34 626.75,-816 641.43,-819.98 744.64,-850.89 756,-861 756.94,-861.84 817.54,-987.29 845.51,-1045.24"/>
<polygon fill="black" stroke="black" points="842.33,-1046.71 849.82,-1054.2 848.63,-1043.67 842.33,-1046.71"/>
</g>
<!-- hol -->
<g id="node17" class="node">
<title>hol</title>
<polygon fill="none" stroke="black" points="887.38,-324 833.38,-324 833.38,-288 887.38,-288 887.38,-324"/>
<text text-anchor="middle" x="860.38" y="-301.7" font-family="sans-serif" font-size="14.00">hol</text>
</g>
<!-- covalence&#45;&gt;hol -->
<g id="edge5" class="edge">
<title>covalence&#45;&gt;hol</title>
<path fill="none" stroke="black" d="M62.98,-996.55C70,-912.29 101.9,-564.24 157,-472 204.83,-391.92 228.48,-342 321.75,-342 321.75,-342 321.75,-342 580.38,-342 667.33,-342 768.28,-324.59 821.7,-313.98"/>
<polygon fill="black" stroke="black" points="822.39,-317.42 831.49,-312 821,-310.55 822.39,-317.42"/>
</g>
<!-- lsp -->
<g id="node27" class="node">
<title>lsp</title>
<polygon fill="none" stroke="black" points="887.38,-1251 833.38,-1251 833.38,-1215 887.38,-1215 887.38,-1251"/>
<text text-anchor="middle" x="860.38" y="-1228.7" font-family="sans-serif" font-size="14.00">lsp</text>
</g>
<!-- covalence&#45;&gt;lsp -->
<g id="edge6" class="edge">
<title>covalence&#45;&gt;lsp</title>
<path fill="none" stroke="black" d="M81.34,-1033.49C130.29,-1079.15 260.68,-1201.05 368.25,-1304 384.37,-1319.43 383.57,-1330.61 404.25,-1339 442.03,-1354.34 455.63,-1344.77 496,-1339 560.49,-1329.79 743.02,-1271.27 822.09,-1245.34"/>
<polygon fill="black" stroke="black" points="823.13,-1248.68 831.54,-1242.24 820.95,-1242.03 823.13,-1248.68"/>
</g>
<!-- object -->
<g id="node30" class="node">
<title>object</title>
<polygon fill="none" stroke="black" points="738,-962 680.75,-962 680.75,-926 738,-926 738,-962"/>
<text text-anchor="middle" x="709.38" y="-939.7" font-family="sans-serif" font-size="14.00">object</text>
</g>
<!-- covalence&#45;&gt;object -->
<g id="edge7" class="edge">
<title>covalence&#45;&gt;object</title>
<path fill="none" stroke="black" d="M69.03,-996.5C82.87,-964.11 114.82,-896.19 157,-850 201.13,-801.67 214.87,-784.82 277.25,-765 434.33,-715.09 613.91,-857.44 681.12,-918.08"/>
<polygon fill="black" stroke="black" points="678.62,-920.54 688.36,-924.71 683.35,-915.38 678.62,-920.54"/>
</g>
<!-- opentheory -->
<g id="node31" class="node">
<title>opentheory</title>
<polygon fill="none" stroke="black" points="368.25,-299 277.25,-299 277.25,-263 368.25,-263 368.25,-299"/>
<text text-anchor="middle" x="322.75" y="-276.7" font-family="sans-serif" font-size="14.00">opentheory</text>
</g>
<!-- covalence&#45;&gt;opentheory -->
<g id="edge8" class="edge">
<title>covalence&#45;&gt;opentheory</title>
<path fill="none" stroke="black" d="M61.44,-996.52C61.53,-897.64 66.75,-431.84 157,-328 183.76,-297.21 229.14,-285.92 265.5,-282.08"/>
<polygon fill="black" stroke="black" points="265.79,-285.56 275.45,-281.21 265.18,-278.59 265.79,-285.56"/>
</g>
<!-- proto -->
<g id="node35" class="node">
<title>proto</title>
<polygon fill="none" stroke="black" points="349.75,-1349 295.75,-1349 295.75,-1313 349.75,-1313 349.75,-1349"/>
<text text-anchor="middle" x="322.75" y="-1326.7" font-family="sans-serif" font-size="14.00">proto</text>
</g>
<!-- covalence&#45;&gt;proto -->
<g id="edge9" class="edge">
<title>covalence&#45;&gt;proto</title>
<path fill="none" stroke="black" d="M62.35,-1033.25C65.62,-1081.89 81.4,-1215.67 157,-1286 191.67,-1318.26 247.21,-1327.78 284.08,-1330.38"/>
<polygon fill="black" stroke="black" points="283.65,-1333.86 293.83,-1330.92 284.04,-1326.87 283.65,-1333.86"/>
</g>
<!-- repl -->
<g id="node41" class="node">
<title>repl</title>
<polygon fill="none" stroke="black" points="349.75,-1138 295.75,-1138 295.75,-1102 349.75,-1102 349.75,-1138"/>
<text text-anchor="middle" x="322.75" y="-1115.7" font-family="sans-serif" font-size="14.00">repl</text>
</g>
<!-- covalence&#45;&gt;repl -->
<g id="edge10" class="edge">
<title>covalence&#45;&gt;repl</title>
<path fill="none" stroke="black" d="M103.03,-1031.75C153.22,-1052 236.9,-1085.77 284.9,-1105.13"/>
<polygon fill="black" stroke="black" points="283.45,-1108.32 294.03,-1108.82 286.07,-1101.83 283.45,-1108.32"/>
</g>
<!-- serve -->
<g id="node43" class="node">
<title>serve</title>
<polygon fill="none" stroke="black" points="226.12,-1009 172.12,-1009 172.12,-973 226.12,-973 226.12,-1009"/>
<text text-anchor="middle" x="199.12" y="-986.7" font-family="sans-serif" font-size="14.00">serve</text>
</g>
<!-- covalence&#45;&gt;serve -->
<g id="edge11" class="edge">
<title>covalence&#45;&gt;serve</title>
<path fill="none" stroke="black" d="M102.86,-1007.73C121.29,-1004.5 142.83,-1000.71 160.76,-997.56"/>
<polygon fill="black" stroke="black" points="161.22,-1001.04 170.47,-995.86 160.01,-994.14 161.22,-1001.04"/>
</g>
<!-- shell -->
<g id="node45" class="node">
<title>shell</title>
<polygon fill="none" stroke="black" points="477.12,-566 423.12,-566 423.12,-530 477.12,-530 477.12,-566"/>
<text text-anchor="middle" x="450.12" y="-543.7" font-family="sans-serif" font-size="14.00">shell</text>
</g>
<!-- covalence&#45;&gt;shell -->
<g id="edge12" class="edge">
<title>covalence&#45;&gt;shell</title>
<path fill="none" stroke="black" d="M61.94,-996.63C64.38,-912.91 79.06,-568.72 157,-504 230.85,-442.67 352.87,-494.54 413.15,-526.87"/>
<polygon fill="black" stroke="black" points="411.19,-529.79 421.64,-531.53 414.56,-523.65 411.19,-529.79"/>
</g>
<!-- store -->
<g id="node49" class="node">
<title>store</title>
<polygon fill="none" stroke="black" points="736.38,-1527 682.38,-1527 682.38,-1491 736.38,-1491 736.38,-1527"/>
<text text-anchor="middle" x="709.38" y="-1504.7" font-family="sans-serif" font-size="14.00">store</text>
</g>
<!-- covalence&#45;&gt;store -->
<g id="edge13" class="edge">
<title>covalence&#45;&gt;store</title>
<path fill="none" stroke="black" d="M63.13,-1033.12C69.93,-1104.72 98.53,-1366.64 157,-1421 303.5,-1557.21 572.09,-1531 670.75,-1515.72"/>
<polygon fill="black" stroke="black" points="671.11,-1519.21 680.42,-1514.16 669.99,-1512.3 671.11,-1519.21"/>
</g>
<!-- wasm -->
<g id="node52" class="node">
<title>wasm</title>
<polygon fill="none" stroke="black" points="1028.75,-1722 974.5,-1722 974.5,-1686 1028.75,-1686 1028.75,-1722"/>
<text text-anchor="middle" x="1001.62" y="-1699.7" font-family="sans-serif" font-size="14.00">wasm</text>
</g>
<!-- covalence&#45;&gt;wasm -->
<g id="edge14" class="edge">
<title>covalence&#45;&gt;wasm</title>
<path fill="none" stroke="black" d="M63.23,-1033.47C70.65,-1109.09 101.9,-1394.29 157,-1463 364.21,-1721.38 828.03,-1714.71 963.07,-1706.83"/>
<polygon fill="black" stroke="black" points="963.11,-1710.34 972.87,-1706.22 962.67,-1703.35 963.11,-1710.34"/>
</g>
<!-- acset -->
<g id="node2" class="node">
<title>acset</title>
<polygon fill="none" stroke="black" points="887.38,-1343 833.38,-1343 833.38,-1307 887.38,-1307 887.38,-1343"/>
<text text-anchor="middle" x="860.38" y="-1320.7" font-family="sans-serif" font-size="14.00">acset</text>
</g>
<!-- alethe -->
<g id="node3" class="node">
<title>alethe</title>
<polygon fill="none" stroke="black" points="607.62,-474 551.12,-474 551.12,-438 607.62,-438 607.62,-474"/>
<text text-anchor="middle" x="579.38" y="-451.7" font-family="sans-serif" font-size="14.00">alethe</text>
</g>
<!-- core -->
<g id="node6" class="node">
<title>core</title>
<polygon fill="#ffd6d6" stroke="black" points="1028.62,-312 974.62,-312 974.62,-276 1028.62,-276 1028.62,-312"/>
<text text-anchor="middle" x="1001.62" y="-289.7" font-family="sans-serif" font-size="14.00">core</text>
</g>
<!-- alethe&#45;&gt;core -->
<g id="edge15" class="edge">
<title>alethe&#45;&gt;core</title>
<path fill="none" stroke="black" d="M607.85,-447.47C642.77,-436.37 704.66,-415.8 756,-394 772.47,-387.01 775.42,-382.7 792,-376 851.07,-352.12 870.09,-357.86 928.75,-333 940.66,-327.95 953.2,-321.56 964.4,-315.41"/>
<polygon fill="black" stroke="black" points="965.93,-318.57 972.95,-310.63 962.51,-312.46 965.93,-318.57"/>
</g>
<!-- hol&#45;eval -->
<g id="node19" class="node">
<title>hol&#45;eval</title>
<polygon fill="none" stroke="black" points="895.38,-140 825.38,-140 825.38,-104 895.38,-104 895.38,-140"/>
<text text-anchor="middle" x="860.38" y="-117.7" font-family="sans-serif" font-size="14.00">hol&#45;eval</text>
</g>
<!-- alethe&#45;&gt;hol&#45;eval -->
<g id="edge16" class="edge">
<title>alethe&#45;&gt;hol&#45;eval</title>
<path fill="none" stroke="black" d="M593.43,-437.69C625.44,-393.2 711.11,-276.49 792,-187 804.13,-173.58 818.45,-159.54 830.76,-147.96"/>
<polygon fill="black" stroke="black" points="832.87,-150.78 837.81,-141.4 828.1,-145.65 832.87,-150.78"/>
</g>
<!-- init -->
<g id="node21" class="node">
<title>init</title>
<polygon fill="none" stroke="black" points="736.38,-520 682.38,-520 682.38,-484 736.38,-484 736.38,-520"/>
<text text-anchor="middle" x="709.38" y="-497.7" font-family="sans-serif" font-size="14.00">init</text>
</g>
<!-- alethe&#45;&gt;init -->
<g id="edge17" class="edge">
<title>alethe&#45;&gt;init</title>
<path fill="none" stroke="black" d="M607.83,-465.87C626.43,-472.55 651.21,-481.46 671.52,-488.75"/>
<polygon fill="black" stroke="black" points="670.25,-492.02 680.85,-492.11 672.62,-485.43 670.25,-492.02"/>
</g>
<!-- sexp -->
<g id="node44" class="node">
<title>sexp</title>
<polygon fill="none" stroke="black" points="1028.62,-820 974.62,-820 974.62,-784 1028.62,-784 1028.62,-820"/>
<text text-anchor="middle" x="1001.62" y="-797.7" font-family="sans-serif" font-size="14.00">sexp</text>
</g>
<!-- alethe&#45;&gt;sexp -->
<g id="edge18" class="edge">
<title>alethe&#45;&gt;sexp</title>
<path fill="none" stroke="black" d="M597.62,-474.39C613.4,-490.42 637.99,-513.45 662.75,-529 700.8,-552.89 726.52,-534.1 756,-568 797.31,-615.5 747.34,-660.63 792,-705 836.5,-749.22 873.14,-710.96 928.75,-740 946.25,-749.13 963.1,-763.29 976.09,-775.77"/>
<polygon fill="black" stroke="black" points="973.4,-778.03 982.96,-782.6 978.33,-773.07 973.4,-778.03"/>
</g>
<!-- smt -->
<g id="node46" class="node">
<title>smt</title>
<polygon fill="none" stroke="black" points="736.38,-613 682.38,-613 682.38,-577 736.38,-577 736.38,-613"/>
<text text-anchor="middle" x="709.38" y="-590.7" font-family="sans-serif" font-size="14.00">smt</text>
</g>
<!-- alethe&#45;&gt;smt -->
<g id="edge19" class="edge">
<title>alethe&#45;&gt;smt</title>
<path fill="none" stroke="black" d="M592.01,-474.39C606.76,-496.86 633.78,-535.29 662.75,-563 665.96,-566.07 669.49,-569.07 673.12,-571.93"/>
<polygon fill="black" stroke="black" points="670.89,-574.63 681,-577.78 675.06,-569.01 670.89,-574.63"/>
</g>
<!-- types -->
<g id="node51" class="node">
<title>types</title>
<polygon fill="#ffd6d6" stroke="black" points="1469.5,-342 1415.5,-342 1415.5,-306 1469.5,-306 1469.5,-342"/>
<text text-anchor="middle" x="1442.5" y="-319.7" font-family="sans-serif" font-size="14.00">types</text>
</g>
<!-- alethe&#45;&gt;types -->
<g id="edge20" class="edge">
<title>alethe&#45;&gt;types</title>
<path fill="none" stroke="black" d="M608.02,-451.15C695.24,-435.9 961.21,-390 1000.62,-390 1000.62,-390 1000.62,-390 1218.25,-390 1286.25,-390 1361.29,-361.49 1404.75,-341.95"/>
<polygon fill="black" stroke="black" points="1406.1,-345.18 1413.72,-337.83 1403.18,-338.82 1406.1,-345.18"/>
</g>
<!-- arrow -->
<g id="node4" class="node">
<title>arrow</title>
<polygon fill="none" stroke="black" points="606.38,-1222 552.38,-1222 552.38,-1186 606.38,-1186 606.38,-1222"/>
<text text-anchor="middle" x="579.38" y="-1199.7" font-family="sans-serif" font-size="14.00">arrow</text>
</g>
<!-- client&#45;&gt;hash -->
<g id="edge21" class="edge">
<title>client&#45;&gt;hash</title>
<path fill="none" stroke="black" d="M350.05,-793.1C422.32,-797.37 627.13,-818.04 756,-917 800.38,-951.08 831.68,-1009.93 847.52,-1045.08"/>
<polygon fill="black" stroke="black" points="844.3,-1046.45 851.51,-1054.22 850.71,-1043.65 844.3,-1046.45"/>
</g>
<!-- client&#45;&gt;shell -->
<g id="edge22" class="edge">
<title>client&#45;&gt;shell</title>
<path fill="none" stroke="black" d="M350.23,-777.84C357.04,-773.02 363.71,-767.04 368.25,-760 412.44,-691.42 359.92,-648.49 404.25,-580 406.88,-575.93 410.23,-572.22 413.9,-568.89"/>
<polygon fill="black" stroke="black" points="416.02,-571.68 421.7,-562.73 411.68,-566.18 416.02,-571.68"/>
</g>
<!-- client&#45;&gt;store -->
<g id="edge23" class="edge">
<title>client&#45;&gt;store</title>
<path fill="none" stroke="black" d="M333.55,-810.43C360.74,-860.56 441.1,-1002.22 532,-1101 568.56,-1140.72 600.19,-1130 626.75,-1177 685.66,-1281.24 619.11,-1332.49 662.75,-1444 667.96,-1457.31 676.43,-1470.49 684.66,-1481.47"/>
<polygon fill="black" stroke="black" points="681.89,-1483.61 690.82,-1489.31 687.4,-1479.29 681.89,-1483.61"/>
</g>
<!-- pure -->
<g id="node36" class="node">
<title>pure</title>
<polygon fill="#ffd6d6" stroke="black" points="1244.25,-288 1190.25,-288 1190.25,-252 1244.25,-252 1244.25,-288"/>
<text text-anchor="middle" x="1217.25" y="-265.7" font-family="sans-serif" font-size="14.00">pure</text>
</g>
<!-- core&#45;&gt;pure -->
<g id="edge24" class="edge">
<title>core&#45;&gt;pure</title>
<path fill="none" stroke="black" d="M1028.82,-291.06C1066.3,-286.85 1135.43,-279.08 1178.45,-274.25"/>
<polygon fill="black" stroke="black" points="1178.79,-277.73 1188.34,-273.14 1178.01,-270.77 1178.79,-277.73"/>
</g>
<!-- pure&#45;eval -->
<g id="node37" class="node">
<title>pure&#45;eval</title>
<polygon fill="#ffd6d6" stroke="black" points="1154.25,-220 1074.5,-220 1074.5,-184 1154.25,-184 1154.25,-220"/>
<text text-anchor="middle" x="1114.38" y="-197.7" font-family="sans-serif" font-size="14.00">pure&#45;eval</text>
</g>
<!-- core&#45;&gt;pure&#45;eval -->
<g id="edge25" class="edge">
<title>core&#45;&gt;pure&#45;eval</title>
<path fill="none" stroke="black" d="M1024.77,-275.6C1041.3,-261.88 1064.08,-242.95 1082.41,-227.72"/>
<polygon fill="black" stroke="black" points="1084.65,-230.41 1090.1,-221.33 1080.17,-225.03 1084.65,-230.41"/>
</g>
<!-- core&#45;&gt;types -->
<g id="edge26" class="edge">
<title>core&#45;&gt;types</title>
<path fill="none" stroke="black" d="M1029.09,-295.81C1103.78,-300.91 1316.44,-315.45 1403.57,-321.41"/>
<polygon fill="black" stroke="black" points="1403.27,-324.9 1413.49,-322.09 1403.75,-317.91 1403.27,-324.9"/>
</g>
<!-- core&#45;test&#45;guest -->
<g id="node7" class="node">
<title>core&#45;test&#45;guest</title>
<polygon fill="none" stroke="black" points="121,-1588 0,-1588 0,-1552 121,-1552 121,-1588"/>
<text text-anchor="middle" x="60.5" y="-1565.7" font-family="sans-serif" font-size="14.00">core&#45;test&#45;guest</text>
</g>
<!-- crypto&#45;sig -->
<g id="node8" class="node">
<title>crypto&#45;sig</title>
<polygon fill="none" stroke="black" points="241.25,-1917 157,-1917 157,-1881 241.25,-1881 241.25,-1917"/>
<text text-anchor="middle" x="199.12" y="-1894.7" font-family="sans-serif" font-size="14.00">crypto&#45;sig</text>
</g>
<!-- egglog -->
<g id="node9" class="node">
<title>egglog</title>
<polygon fill="none" stroke="black" points="890.88,-660 829.88,-660 829.88,-624 890.88,-624 890.88,-660"/>
<text text-anchor="middle" x="860.38" y="-637.7" font-family="sans-serif" font-size="14.00">egglog</text>
</g>
<!-- egglog&#45;&gt;sexp -->
<g id="edge27" class="edge">
<title>egglog&#45;&gt;sexp</title>
<path fill="none" stroke="black" d="M891.29,-651.59C903.93,-656.74 918.15,-664.1 928.75,-674 958.51,-701.8 979.12,-744.76 990.41,-773.13"/>
<polygon fill="black" stroke="black" points="987.03,-774.08 993.87,-782.17 993.57,-771.58 987.03,-774.08"/>
</g>
<!-- egglog&#45;&gt;types -->
<g id="edge28" class="edge">
<title>egglog&#45;&gt;types</title>
<path fill="none" stroke="black" d="M891.24,-641.22C938.42,-640.06 1033.08,-638 1113.38,-638 1113.38,-638 1113.38,-638 1218.25,-638 1290.99,-638 1327.01,-660.35 1379.5,-610 1416.26,-574.74 1433.47,-419.25 1439.21,-353.51"/>
<polygon fill="black" stroke="black" points="1442.67,-354.09 1440.02,-343.83 1435.69,-353.51 1442.67,-354.09"/>
</g>
<!-- forsp -->
<g id="node10" class="node">
<title>forsp</title>
<polygon fill="none" stroke="black" points="736.38,-781 682.38,-781 682.38,-745 736.38,-745 736.38,-781"/>
<text text-anchor="middle" x="709.38" y="-758.7" font-family="sans-serif" font-size="14.00">forsp</text>
</g>
<!-- forsp&#45;&gt;hash -->
<g id="edge29" class="edge">
<title>forsp&#45;&gt;hash</title>
<path fill="none" stroke="black" d="M736.4,-776.51C743.7,-781.43 751,-787.64 756,-795 794.76,-852.07 767.74,-881.41 792,-946 805.5,-981.95 826.92,-1020.63 841.97,-1045.94"/>
<polygon fill="black" stroke="black" points="838.85,-1047.55 847.01,-1054.31 844.85,-1043.94 838.85,-1047.55"/>
</g>
<!-- forsp&#45;&gt;sexp -->
<g id="edge30" class="edge">
<title>forsp&#45;&gt;sexp</title>
<path fill="none" stroke="black" d="M736.54,-777.07C743.67,-781.95 750.84,-787.98 756,-795 787.21,-837.47 749.45,-876.9 792,-908 841.07,-943.87 875.05,-936.47 928.75,-908 959.21,-891.85 979.14,-856.38 990.12,-830.91"/>
<polygon fill="black" stroke="black" points="993.32,-832.35 993.84,-821.76 986.83,-829.71 993.32,-832.35"/>
</g>
<!-- fuse&#45;&gt;hash -->
<g id="edge31" class="edge">
<title>fuse&#45;&gt;hash</title>
<path fill="none" stroke="black" d="M606.87,-1074C656.65,-1074 764.28,-1074 821.62,-1074"/>
<polygon fill="black" stroke="black" points="821.54,-1077.5 831.54,-1074 821.54,-1070.5 821.54,-1077.5"/>
</g>
<!-- fuse&#45;&gt;object -->
<g id="edge32" class="edge">
<title>fuse&#45;&gt;object</title>
<path fill="none" stroke="black" d="M606.83,-1057.58C613.6,-1052.89 620.68,-1047.54 626.75,-1042 650.32,-1020.47 673.23,-992.11 688.75,-971.44"/>
<polygon fill="black" stroke="black" points="691.51,-973.59 694.64,-963.47 685.88,-969.43 691.51,-973.59"/>
</g>
<!-- fuse&#45;&gt;store -->
<g id="edge33" class="edge">
<title>fuse&#45;&gt;store</title>
<path fill="none" stroke="black" d="M606.45,-1086.42C614.23,-1091.41 621.95,-1097.93 626.75,-1106 703.96,-1235.85 609.66,-1302.56 662.75,-1444 667.77,-1457.38 676.2,-1470.58 684.46,-1481.55"/>
<polygon fill="black" stroke="black" points="681.71,-1483.7 690.65,-1489.38 687.2,-1479.36 681.71,-1483.7"/>
</g>
<!-- git&#45;&gt;hash -->
<g id="edge34" class="edge">
<title>git&#45;&gt;hash</title>
<path fill="none" stroke="black" d="M477.46,-1307.43C513.02,-1300.49 577.6,-1285.14 626.75,-1258 645.23,-1247.79 645.24,-1238.8 662.75,-1227 701.4,-1200.94 718.45,-1206.62 756,-1179 787.11,-1156.12 817.47,-1123.71 837.16,-1100.97"/>
<polygon fill="black" stroke="black" points="839.6,-1103.5 843.42,-1093.62 834.27,-1098.96 839.6,-1103.5"/>
</g>
<!-- git&#45;&gt;object -->
<g id="edge35" class="edge">
<title>git&#45;&gt;object</title>
<path fill="none" stroke="black" d="M477.52,-1301.24C484.55,-1297.16 491.45,-1291.8 496,-1285 555.49,-1196.08 471.93,-1135.53 532,-1047 564.83,-998.62 628.53,-969.83 669.73,-955.47"/>
<polygon fill="black" stroke="black" points="670.64,-958.85 679.01,-952.36 668.42,-952.22 670.64,-958.85"/>
</g>
<!-- sqlite -->
<g id="node48" class="node">
<title>sqlite</title>
<polygon fill="none" stroke="black" points="887.38,-1542 833.38,-1542 833.38,-1506 887.38,-1506 887.38,-1542"/>
<text text-anchor="middle" x="860.38" y="-1519.7" font-family="sans-serif" font-size="14.00">sqlite</text>
</g>
<!-- git&#45;&gt;sqlite -->
<g id="edge36" class="edge">
<title>git&#45;&gt;sqlite</title>
<path fill="none" stroke="black" d="M477.32,-1330.4C516.48,-1357.41 593.14,-1408.46 662.75,-1444 663.7,-1444.48 766.04,-1486.08 822.68,-1509.09"/>
<polygon fill="black" stroke="black" points="821.03,-1512.2 831.62,-1512.72 823.67,-1505.72 821.03,-1512.2"/>
</g>
<!-- git&#45;&gt;store -->
<g id="edge37" class="edge">
<title>git&#45;&gt;store</title>
<path fill="none" stroke="black" d="M477.36,-1330.43C483.51,-1334.83 490.01,-1339.54 496,-1344 560.93,-1392.35 635.33,-1450.89 676.59,-1483.64"/>
<polygon fill="black" stroke="black" points="674.17,-1486.19 684.17,-1489.68 678.52,-1480.71 674.17,-1486.19"/>
</g>
<!-- grammar -->
<g id="node13" class="node">
<title>grammar</title>
<polygon fill="none" stroke="black" points="1038.5,-511 964.75,-511 964.75,-475 1038.5,-475 1038.5,-511"/>
<text text-anchor="middle" x="1001.62" y="-488.7" font-family="sans-serif" font-size="14.00">grammar</text>
</g>
<!-- graph -->
<g id="node14" class="node">
<title>graph</title>
<polygon fill="none" stroke="black" points="477.12,-1276 423.12,-1276 423.12,-1240 477.12,-1240 477.12,-1276"/>
<text text-anchor="middle" x="450.12" y="-1253.7" font-family="sans-serif" font-size="14.00">graph</text>
</g>
<!-- graph&#45;&gt;hash -->
<g id="edge38" class="edge">
<title>graph&#45;&gt;hash</title>
<path fill="none" stroke="black" d="M477.34,-1259.45C513.34,-1260.28 579.03,-1257.53 626.75,-1231 648.24,-1219.05 643.46,-1204.24 662.75,-1189 699.32,-1160.1 715.67,-1164.37 756,-1141 778.95,-1127.7 803.93,-1111.56 823.59,-1098.45"/>
<polygon fill="black" stroke="black" points="825.45,-1101.42 831.8,-1092.94 821.55,-1095.6 825.45,-1101.42"/>
</g>
<!-- parse -->
<g id="node33" class="node">
<title>parse</title>
<polygon fill="none" stroke="black" points="1141.38,-1157 1087.38,-1157 1087.38,-1121 1141.38,-1121 1141.38,-1157"/>
<text text-anchor="middle" x="1114.38" y="-1134.7" font-family="sans-serif" font-size="14.00">parse</text>
</g>
<!-- graph&#45;&gt;parse -->
<g id="edge39" class="edge">
<title>graph&#45;&gt;parse</title>
<path fill="none" stroke="black" d="M477.42,-1273.66C551.51,-1315.63 767.16,-1422.79 928.75,-1352 1013.35,-1314.94 1073.55,-1216.76 1099.35,-1167.72"/>
<polygon fill="black" stroke="black" points="1102.46,-1169.32 1103.92,-1158.83 1096.24,-1166.12 1102.46,-1169.32"/>
</g>
<!-- rand -->
<g id="node40" class="node">
<title>rand</title>
<polygon fill="none" stroke="black" points="1028.62,-1092 974.62,-1092 974.62,-1056 1028.62,-1056 1028.62,-1092"/>
<text text-anchor="middle" x="1001.62" y="-1069.7" font-family="sans-serif" font-size="14.00">rand</text>
</g>
<!-- hash&#45;&gt;rand -->
<g id="edge40" class="edge">
<title>hash&#45;&gt;rand</title>
<path fill="none" stroke="black" d="M887.57,-1074C908.86,-1074 939.19,-1074 963.07,-1074"/>
<polygon fill="black" stroke="black" points="963.04,-1077.5 973.04,-1074 963.04,-1070.5 963.04,-1077.5"/>
</g>
<!-- haskell -->
<g id="node16" class="node">
<title>haskell</title>
<polygon fill="none" stroke="black" points="610.62,-56 548.12,-56 548.12,-20 610.62,-20 610.62,-56"/>
<text text-anchor="middle" x="579.38" y="-33.7" font-family="sans-serif" font-size="14.00">haskell</text>
</g>
<!-- haskell&#45;&gt;hol&#45;eval -->
<g id="edge41" class="edge">
<title>haskell&#45;&gt;hol&#45;eval</title>
<path fill="none" stroke="black" d="M611.03,-47.23C660.27,-62.05 757.21,-91.24 814.33,-108.44"/>
<polygon fill="black" stroke="black" points="813.16,-111.74 823.74,-111.27 815.18,-105.04 813.16,-111.74"/>
</g>
<!-- haskell&#45;&gt;init -->
<g id="edge42" class="edge">
<title>haskell&#45;&gt;init</title>
<path fill="none" stroke="black" d="M592.07,-56.31C602.54,-73.45 617.62,-100.09 626.75,-125 672.56,-249.93 696.43,-408.04 704.82,-472.56"/>
<polygon fill="black" stroke="black" points="701.33,-472.86 706.06,-482.34 708.28,-471.98 701.33,-472.86"/>
</g>
<!-- haskell&#45;&gt;types -->
<g id="edge43" class="edge">
<title>haskell&#45;&gt;types</title>
<path fill="none" stroke="black" d="M610.74,-31.12C661.8,-20.17 768.21,0 859.38,0 859.38,0 859.38,0 1218.25,0 1297.67,0 1329.22,-15.53 1379.5,-77 1432,-141.18 1440.85,-243.88 1441.83,-294.22"/>
<polygon fill="black" stroke="black" points="1438.33,-294.07 1441.92,-304.04 1445.33,-294.01 1438.33,-294.07"/>
</g>
<!-- hol&#45;&gt;core -->
<g id="edge44" class="edge">
<title>hol&#45;&gt;core</title>
<path fill="none" stroke="black" d="M887.57,-303.74C908.96,-301.9 939.47,-299.27 963.4,-297.21"/>
<polygon fill="black" stroke="black" points="963.38,-300.72 973.04,-296.38 962.78,-293.75 963.38,-300.72"/>
</g>
<!-- hol&#45;api -->
<g id="node18" class="node">
<title>hol&#45;api</title>
<polygon fill="none" stroke="black" points="610.62,-170 548.12,-170 548.12,-134 610.62,-134 610.62,-170"/>
<text text-anchor="middle" x="579.38" y="-147.7" font-family="sans-serif" font-size="14.00">hol&#45;api</text>
</g>
<!-- hol&#45;api&#45;&gt;core -->
<g id="edge45" class="edge">
<title>hol&#45;api&#45;&gt;core</title>
<path fill="none" stroke="black" d="M610.87,-151.28C686.12,-150.09 878.24,-150.78 928.75,-187 958.8,-208.55 942.52,-232.45 964.75,-262 966.22,-263.95 967.82,-265.87 969.5,-267.75"/>
<polygon fill="black" stroke="black" points="966.69,-269.88 976.2,-274.54 971.67,-264.96 966.69,-269.88"/>
</g>
<!-- hol&#45;api&#45;&gt;hol&#45;eval -->
<g id="edge46" class="edge">
<title>hol&#45;api&#45;&gt;hol&#45;eval</title>
<path fill="none" stroke="black" d="M610.79,-146.18C626.3,-143.38 645.48,-140.17 662.75,-138 714.29,-131.54 773.78,-127.11 813.7,-124.59"/>
<polygon fill="black" stroke="black" points="813.91,-128.08 823.67,-123.97 813.47,-121.09 813.91,-128.08"/>
</g>
<!-- inductive -->
<g id="node20" class="node">
<title>inductive</title>
<polygon fill="none" stroke="black" points="898.75,-232 822,-232 822,-196 898.75,-196 898.75,-232"/>
<text text-anchor="middle" x="860.38" y="-209.7" font-family="sans-serif" font-size="14.00">inductive</text>
</g>
<!-- hol&#45;api&#45;&gt;inductive -->
<g id="edge47" class="edge">
<title>hol&#45;api&#45;&gt;inductive</title>
<path fill="none" stroke="black" d="M611.03,-158.81C659.2,-169.52 753.05,-190.37 810.58,-203.16"/>
<polygon fill="black" stroke="black" points="809.58,-206.52 820.1,-205.27 811.09,-199.69 809.58,-206.52"/>
</g>
<!-- hol&#45;api&#45;&gt;init -->
<g id="edge48" class="edge">
<title>hol&#45;api&#45;&gt;init</title>
<path fill="none" stroke="black" d="M587.08,-170.32C608.03,-227.62 672.41,-403.67 697.87,-473.26"/>
<polygon fill="black" stroke="black" points="694.5,-474.25 701.22,-482.44 701.07,-471.84 694.5,-474.25"/>
</g>
<!-- hol&#45;api&#45;&gt;types -->
<g id="edge49" class="edge">
<title>hol&#45;api&#45;&gt;types</title>
<path fill="none" stroke="black" d="M611.01,-137.88C661.59,-115.9 766.25,-76 859.38,-76 859.38,-76 859.38,-76 1218.25,-76 1296.38,-76 1326.35,-88.74 1379.5,-146 1418.46,-187.97 1433.12,-255.73 1438.51,-294.41"/>
<polygon fill="black" stroke="black" points="1435.01,-294.66 1439.73,-304.15 1441.96,-293.79 1435.01,-294.66"/>
</g>
<!-- hol&#45;eval&#45;&gt;core -->
<g id="edge50" class="edge">
<title>hol&#45;eval&#45;&gt;core</title>
<path fill="none" stroke="black" d="M895.68,-132.07C907.52,-137.02 920,-144.11 928.75,-154 962.29,-191.89 936.93,-219.74 964.75,-262 965.95,-263.83 967.29,-265.62 968.71,-267.36"/>
<polygon fill="black" stroke="black" points="966,-269.58 975.38,-274.49 971.11,-264.8 966,-269.58"/>
</g>
<!-- hol&#45;eval&#45;&gt;pure -->
<g id="edge51" class="edge">
<title>hol&#45;eval&#45;&gt;pure</title>
<path fill="none" stroke="black" d="M895.67,-134.85C906.61,-139.58 918.53,-145.41 928.75,-152 946.74,-163.6 946.59,-172.67 964.75,-184 1009.48,-211.91 1024.72,-211.65 1074.5,-229 1109.52,-241.21 1150.27,-252.72 1179.07,-260.42"/>
<polygon fill="black" stroke="black" points="1177.83,-263.71 1188.4,-262.89 1179.62,-256.95 1177.83,-263.71"/>
</g>
<!-- hol&#45;eval&#45;&gt;pure&#45;eval -->
<g id="edge52" class="edge">
<title>hol&#45;eval&#45;&gt;pure&#45;eval</title>
<path fill="none" stroke="black" d="M895.65,-134.87C915.69,-142.24 941.53,-151.49 964.75,-159 997.24,-169.5 1034.11,-180.18 1063,-188.27"/>
<polygon fill="black" stroke="black" points="1062.03,-191.63 1072.6,-190.94 1063.9,-184.88 1062.03,-191.63"/>
</g>
<!-- hol&#45;eval&#45;&gt;sexp -->
<g id="edge53" class="edge">
<title>hol&#45;eval&#45;&gt;sexp</title>
<path fill="none" stroke="black" d="M888.2,-140.49C902.75,-152.07 919.6,-168.32 928.75,-187 961.49,-253.84 956.05,-446.08 964.75,-520 975.59,-612.12 989.85,-720.96 996.66,-772.33"/>
<polygon fill="black" stroke="black" points="993.17,-772.59 997.95,-782.04 1000.11,-771.66 993.17,-772.59"/>
</g>
<!-- hol&#45;eval&#45;&gt;types -->
<g id="edge54" class="edge">
<title>hol&#45;eval&#45;&gt;types</title>
<path fill="none" stroke="black" d="M895.52,-127.1C943.89,-133.88 1035.18,-145 1113.38,-145 1113.38,-145 1113.38,-145 1218.25,-145 1295.19,-145 1321.97,-156.91 1379.5,-208 1405.97,-231.51 1423.12,-269.1 1432.53,-295.08"/>
<polygon fill="black" stroke="black" points="1429.15,-296.02 1435.71,-304.34 1435.77,-293.75 1429.15,-296.02"/>
</g>
<!-- init&#45;&gt;core -->
<g id="edge55" class="edge">
<title>init&#45;&gt;core</title>
<path fill="none" stroke="black" d="M736.59,-483.77C752.47,-472.87 773.22,-458.87 792,-447 851.7,-409.25 872.97,-409.34 928.75,-366 946.08,-352.54 963.51,-335.19 976.87,-320.89"/>
<polygon fill="black" stroke="black" points="979.41,-323.3 983.6,-313.56 974.26,-318.56 979.41,-323.3"/>
</g>
<!-- init&#45;&gt;grammar -->
<g id="edge56" class="edge">
<title>init&#45;&gt;grammar</title>
<path fill="none" stroke="black" d="M736.62,-502.78C777.66,-503.79 859.49,-505 928.75,-501 936.67,-500.54 945.07,-499.82 953.21,-499"/>
<polygon fill="black" stroke="black" points="953.42,-502.5 962.99,-497.94 952.67,-495.54 953.42,-502.5"/>
</g>
<!-- init&#45;&gt;hash -->
<g id="edge57" class="edge">
<title>init&#45;&gt;hash</title>
<path fill="none" stroke="black" d="M726.64,-520.23C736.85,-532.76 749.31,-550.28 756,-568 804.5,-696.53 761.81,-740.98 792,-875 806.01,-937.18 832.29,-1007.2 847.56,-1045.38"/>
<polygon fill="black" stroke="black" points="844.17,-1046.35 851.17,-1054.31 850.66,-1043.73 844.17,-1046.35"/>
</g>
<!-- init&#45;&gt;hol -->
<g id="edge58" class="edge">
<title>init&#45;&gt;hol</title>
<path fill="none" stroke="black" d="M724.39,-483.56C750.75,-448.89 807.81,-373.83 838.63,-333.29"/>
<polygon fill="black" stroke="black" points="841.32,-335.53 844.59,-325.45 835.75,-331.3 841.32,-335.53"/>
</g>
<!-- init&#45;&gt;hol&#45;eval -->
<g id="edge59" class="edge">
<title>init&#45;&gt;hol&#45;eval</title>
<path fill="none" stroke="black" d="M711.66,-483.63C715.9,-433 732.75,-288.48 792,-187 800.57,-172.32 813.39,-158.78 825.55,-147.9"/>
<polygon fill="black" stroke="black" points="827.75,-150.63 833.07,-141.46 823.2,-145.31 827.75,-150.63"/>
</g>
<!-- init&#45;&gt;inductive -->
<g id="edge60" class="edge">
<title>init&#45;&gt;inductive</title>
<path fill="none" stroke="black" d="M714.12,-483.68C722.87,-443.88 747.35,-347.58 792,-279 801.42,-264.53 814.62,-250.88 826.85,-239.86"/>
<polygon fill="black" stroke="black" points="829.12,-242.52 834.36,-233.32 824.52,-237.24 829.12,-242.52"/>
</g>
<!-- metamath -->
<g id="node28" class="node">
<title>metamath</title>
<polygon fill="none" stroke="black" points="900.62,-866 820.12,-866 820.12,-830 900.62,-830 900.62,-866"/>
<text text-anchor="middle" x="860.38" y="-843.7" font-family="sans-serif" font-size="14.00">metamath</text>
</g>
<!-- init&#45;&gt;metamath -->
<g id="edge61" class="edge">
<title>init&#45;&gt;metamath</title>
<path fill="none" stroke="black" d="M725.59,-520.3C735.48,-533 747.98,-550.68 756,-568 781.91,-623.96 771,-644.02 792,-702 807.17,-743.89 829.61,-790.3 844.36,-819.31"/>
<polygon fill="black" stroke="black" points="841.24,-820.88 848.92,-828.18 847.47,-817.69 841.24,-820.88"/>
</g>
<!-- init&#45;&gt;sexp -->
<g id="edge62" class="edge">
<title>init&#45;&gt;sexp</title>
<path fill="none" stroke="black" d="M736.75,-516.49C743.89,-521.53 751.01,-527.76 756,-535 791,-585.77 749.32,-624.48 792,-669 836.09,-714.99 876.19,-675.98 928.75,-712 952.21,-728.07 971.78,-754.06 984.55,-773.99"/>
<polygon fill="black" stroke="black" points="981.57,-775.82 989.8,-782.49 987.52,-772.14 981.57,-775.82"/>
</g>
<!-- spectec -->
<g id="node47" class="node">
<title>spectec</title>
<polygon fill="none" stroke="black" points="895,-492 825.75,-492 825.75,-456 895,-456 895,-492"/>
<text text-anchor="middle" x="860.38" y="-469.7" font-family="sans-serif" font-size="14.00">spectec</text>
</g>
<!-- init&#45;&gt;spectec -->
<g id="edge63" class="edge">
<title>init&#45;&gt;spectec</title>
<path fill="none" stroke="black" d="M736.67,-497.06C758.12,-493.03 788.9,-487.24 814.27,-482.48"/>
<polygon fill="black" stroke="black" points="814.82,-485.93 824,-480.65 813.53,-479.05 814.82,-485.93"/>
</g>
<!-- init&#45;&gt;types -->
<g id="edge64" class="edge">
<title>init&#45;&gt;types</title>
<path fill="none" stroke="black" d="M736.86,-510.63C787.5,-526.34 901.83,-558 1000.62,-558 1000.62,-558 1000.62,-558 1218.25,-558 1330.54,-558 1403.63,-415.19 1430.24,-352.7"/>
<polygon fill="black" stroke="black" points="1433.35,-354.34 1433.95,-343.76 1426.89,-351.66 1433.35,-354.34"/>
</g>
<!-- json -->
<g id="node22" class="node">
<title>json</title>
<polygon fill="none" stroke="black" points="887.38,-1619 833.38,-1619 833.38,-1583 887.38,-1583 887.38,-1619"/>
<text text-anchor="middle" x="860.38" y="-1596.7" font-family="sans-serif" font-size="14.00">json</text>
</g>
<!-- kernel -->
<g id="node23" class="node">
<title>kernel</title>
<polygon fill="none" stroke="black" points="608,-734 550.75,-734 550.75,-698 608,-698 608,-734"/>
<text text-anchor="middle" x="579.38" y="-711.7" font-family="sans-serif" font-size="14.00">kernel</text>
</g>
<!-- kernel&#45;&gt;hash -->
<g id="edge65" class="edge">
<title>kernel&#45;&gt;hash</title>
<path fill="none" stroke="black" d="M608.23,-733.49C614.56,-737.93 621.08,-742.89 626.75,-748 645.02,-764.45 643.14,-775.18 662.75,-790 699.16,-817.52 725.21,-799.31 756,-833 788.15,-868.17 773.64,-890.02 792,-934 808.49,-973.51 830.43,-1017.84 844.73,-1045.83"/>
<polygon fill="black" stroke="black" points="841.43,-1047.07 849.11,-1054.37 847.66,-1043.87 841.43,-1047.07"/>
</g>
<!-- kernel&#45;&gt;init -->
<g id="edge66" class="edge">
<title>kernel&#45;&gt;init</title>
<path fill="none" stroke="black" d="M593.57,-697.77C603.32,-683.91 616.6,-664.21 626.75,-646 645.35,-612.65 643.82,-601.16 662.75,-568 670.19,-554.96 679.46,-541.19 687.69,-529.63"/>
<polygon fill="black" stroke="black" points="690.39,-531.88 693.42,-521.73 684.72,-527.77 690.39,-531.88"/>
</g>
<!-- kernel&#45;&gt;object -->
<g id="edge67" class="edge">
<title>kernel&#45;&gt;object</title>
<path fill="none" stroke="black" d="M593.33,-734.37C602.96,-748.29 616.19,-768.02 626.75,-786 652.74,-830.25 679.39,-883.64 694.89,-915.66"/>
<polygon fill="black" stroke="black" points="691.55,-916.79 699.04,-924.28 697.85,-913.76 691.55,-916.79"/>
</g>
<!-- kernel&#45;&gt;sexp -->
<g id="edge68" class="edge">
<title>kernel&#45;&gt;sexp</title>
<path fill="none" stroke="black" d="M608.19,-710.41C646.35,-704.47 714.88,-700.27 756,-736 804.17,-777.86 741.53,-835.94 792,-875 840.06,-912.2 872.69,-898.48 928.75,-875 950.9,-865.73 969.67,-845.93 982.48,-829.29"/>
<polygon fill="black" stroke="black" points="984.97,-831.81 988.06,-821.68 979.32,-827.67 984.97,-831.81"/>
</g>
<!-- kernel&#45;&gt;store -->
<g id="edge69" class="edge">
<title>kernel&#45;&gt;store</title>
<path fill="none" stroke="black" d="M583.25,-734.26C591.06,-784.22 612.96,-927.39 626.75,-1047 647.05,-1223 601.8,-1277.65 662.75,-1444 667.67,-1457.42 676.08,-1470.62 684.35,-1481.59"/>
<polygon fill="black" stroke="black" points="681.6,-1483.75 690.56,-1489.42 687.09,-1479.41 681.6,-1483.75"/>
</g>
<!-- kv -->
<g id="node24" class="node">
<title>kv</title>
<polygon fill="none" stroke="black" points="226.12,-1971 172.12,-1971 172.12,-1935 226.12,-1935 226.12,-1971"/>
<text text-anchor="middle" x="199.12" y="-1948.7" font-family="sans-serif" font-size="14.00">kv</text>
</g>
<!-- lean -->
<g id="node25" class="node">
<title>lean</title>
<polygon fill="none" stroke="black" points="87.5,-1642 33.5,-1642 33.5,-1606 87.5,-1606 87.5,-1642"/>
<text text-anchor="middle" x="60.5" y="-1619.7" font-family="sans-serif" font-size="14.00">lean</text>
</g>
<!-- llm -->
<g id="node26" class="node">
<title>llm</title>
<polygon fill="none" stroke="black" points="226.12,-1412 172.12,-1412 172.12,-1376 226.12,-1376 226.12,-1412"/>
<text text-anchor="middle" x="199.12" y="-1389.7" font-family="sans-serif" font-size="14.00">llm</text>
</g>
<!-- llm&#45;&gt;proto -->
<g id="edge70" class="edge">
<title>llm&#45;&gt;proto</title>
<path fill="none" stroke="black" d="M226.52,-1380.33C243.73,-1371.41 266.43,-1359.66 285.35,-1349.86"/>
<polygon fill="black" stroke="black" points="286.8,-1353.05 294.07,-1345.34 283.58,-1346.83 286.8,-1353.05"/>
</g>
<!-- lsp&#45;&gt;sexp -->
<g id="edge71" class="edge">
<title>lsp&#45;&gt;sexp</title>
<path fill="none" stroke="black" d="M872.4,-1214.83C887.1,-1189.94 913.06,-1143.48 928.75,-1101 964.1,-1005.32 986.72,-885.92 995.92,-831.5"/>
<polygon fill="black" stroke="black" points="999.35,-832.23 997.53,-821.79 992.44,-831.09 999.35,-832.23"/>
</g>
<!-- lsp&#45;&gt;wasm -->
<g id="edge72" class="edge">
<title>lsp&#45;&gt;wasm</title>
<path fill="none" stroke="black" d="M887.39,-1251.46C901.86,-1263.13 918.9,-1279.49 928.75,-1298 996.67,-1425.55 1002.16,-1604.41 1001.45,-1674.34"/>
<polygon fill="black" stroke="black" points="997.96,-1674.15 1001.29,-1684.21 1004.95,-1674.26 997.96,-1674.15"/>
</g>
<!-- metamath&#45;&gt;parse -->
<g id="edge73" class="edge">
<title>metamath&#45;&gt;parse</title>
<path fill="none" stroke="black" d="M893.46,-866.43C932.01,-889.87 996.69,-933.56 1038.5,-985 1069.87,-1023.59 1092.21,-1077.5 1103.93,-1110.23"/>
<polygon fill="black" stroke="black" points="1100.54,-1111.15 1107.13,-1119.44 1107.15,-1108.85 1100.54,-1111.15"/>
</g>
<!-- metamath&#45;&gt;sexp -->
<g id="edge74" class="edge">
<title>metamath&#45;&gt;sexp</title>
<path fill="none" stroke="black" d="M900.91,-834.94C920.53,-828.46 944.11,-820.67 963.41,-814.29"/>
<polygon fill="black" stroke="black" points="964.38,-817.66 972.78,-811.2 962.19,-811.01 964.38,-817.66"/>
</g>
<!-- multiformat -->
<g id="node29" class="node">
<title>multiformat</title>
<polygon fill="none" stroke="black" points="754.5,-1343 664.25,-1343 664.25,-1307 754.5,-1307 754.5,-1343"/>
<text text-anchor="middle" x="709.38" y="-1320.7" font-family="sans-serif" font-size="14.00">multiformat</text>
</g>
<!-- multiformat&#45;&gt;acset -->
<g id="edge75" class="edge">
<title>multiformat&#45;&gt;acset</title>
<path fill="none" stroke="black" d="M754.68,-1325C776.05,-1325 801.41,-1325 821.81,-1325"/>
<polygon fill="black" stroke="black" points="821.68,-1328.5 831.68,-1325 821.68,-1321.5 821.68,-1328.5"/>
</g>
<!-- multiformat&#45;&gt;hash -->
<g id="edge76" class="edge">
<title>multiformat&#45;&gt;hash</title>
<path fill="none" stroke="black" d="M741.87,-1306.52C747.04,-1302.52 752.01,-1297.98 756,-1293 782.17,-1260.35 774.47,-1244 792,-1206 808.76,-1169.65 830.03,-1128.74 844.14,-1102.23"/>
<polygon fill="black" stroke="black" points="847.19,-1103.94 848.82,-1093.47 841.02,-1100.64 847.19,-1103.94"/>
</g>
<!-- multiformat&#45;&gt;parse -->
<g id="edge77" class="edge">
<title>multiformat&#45;&gt;parse</title>
<path fill="none" stroke="black" d="M754.73,-1309.89C766.79,-1305.91 779.86,-1301.69 792,-1298 852.35,-1279.65 871.3,-1286.04 928.75,-1260 986.26,-1233.93 1046.23,-1191.29 1081.66,-1164.21"/>
<polygon fill="black" stroke="black" points="1083.58,-1167.15 1089.35,-1158.27 1079.3,-1161.61 1083.58,-1167.15"/>
</g>
<!-- object&#45;&gt;hash -->
<g id="edge78" class="edge">
<title>object&#45;&gt;hash</title>
<path fill="none" stroke="black" d="M738.02,-962.14C744.11,-966.48 750.4,-971.23 756,-976 773.47,-990.87 775.49,-997.07 792,-1013 804.24,-1024.81 818.13,-1037.5 830.1,-1048.22"/>
<polygon fill="black" stroke="black" points="827.5,-1050.6 837.29,-1054.64 832.16,-1045.37 827.5,-1050.6"/>
</g>
<!-- object&#45;&gt;parse -->
<g id="edge79" class="edge">
<title>object&#45;&gt;parse</title>
<path fill="none" stroke="black" d="M738.2,-947.25C797.88,-955.32 940.66,-980.65 1038.5,-1047 1063,-1063.61 1083.59,-1090.57 1096.94,-1111.02"/>
<polygon fill="black" stroke="black" points="1093.97,-1112.87 1102.26,-1119.46 1099.89,-1109.14 1093.97,-1112.87"/>
</g>
<!-- opentheory&#45;&gt;hol -->
<g id="edge80" class="edge">
<title>opentheory&#45;&gt;hol</title>
<path fill="none" stroke="black" d="M368.5,-283.09C471.81,-287.91 725.49,-299.75 821.62,-304.24"/>
<polygon fill="black" stroke="black" points="821.4,-307.73 831.55,-304.7 821.72,-300.74 821.4,-307.73"/>
</g>
<!-- parquet -->
<g id="node32" class="node">
<title>parquet</title>
<polygon fill="none" stroke="black" points="483.62,-1222 416.62,-1222 416.62,-1186 483.62,-1186 483.62,-1222"/>
<text text-anchor="middle" x="450.12" y="-1199.7" font-family="sans-serif" font-size="14.00">parquet</text>
</g>
<!-- parquet&#45;&gt;arrow -->
<g id="edge81" class="edge">
<title>parquet&#45;&gt;arrow</title>
<path fill="none" stroke="black" d="M483.9,-1204C501.29,-1204 522.75,-1204 540.82,-1204"/>
<polygon fill="black" stroke="black" points="540.61,-1207.5 550.61,-1204 540.61,-1200.5 540.61,-1207.5"/>
</g>
<!-- proptest -->
<g id="node34" class="node">
<title>proptest</title>
<polygon fill="none" stroke="black" points="95.88,-1696 25.12,-1696 25.12,-1660 95.88,-1660 95.88,-1696"/>
<text text-anchor="middle" x="60.5" y="-1673.7" font-family="sans-serif" font-size="14.00">proptest</text>
</g>
<!-- pure&#45;trusted -->
<g id="node38" class="node">
<title>pure&#45;trusted</title>
<polygon fill="#ffd6d6" stroke="black" points="1379.5,-292 1280.25,-292 1280.25,-256 1379.5,-256 1379.5,-292"/>
<text text-anchor="middle" x="1329.88" y="-269.7" font-family="sans-serif" font-size="14.00">pure&#45;trusted</text>
</g>
<!-- pure&#45;&gt;pure&#45;trusted -->
<g id="edge82" class="edge">
<title>pure&#45;&gt;pure&#45;trusted</title>
<path fill="none" stroke="black" d="M1244.75,-270.96C1252.04,-271.22 1260.27,-271.52 1268.64,-271.82"/>
<polygon fill="black" stroke="black" points="1268.45,-275.32 1278.57,-272.18 1268.7,-268.32 1268.45,-275.32"/>
</g>
<!-- pure&#45;eval&#45;&gt;pure -->
<g id="edge83" class="edge">
<title>pure&#45;eval&#45;&gt;pure</title>
<path fill="none" stroke="black" d="M1142.67,-220.4C1154.39,-228.3 1168.23,-237.63 1180.74,-246.06"/>
<polygon fill="black" stroke="black" points="1178.47,-248.75 1188.72,-251.44 1182.38,-242.95 1178.47,-248.75"/>
</g>
<!-- pure&#45;eval&#45;&gt;types -->
<g id="edge84" class="edge">
<title>pure&#45;eval&#45;&gt;types</title>
<path fill="none" stroke="black" d="M1154.56,-200.31C1208.85,-199.73 1308.3,-205.2 1379.5,-247 1399.3,-258.62 1415.33,-279.12 1426.13,-296.04"/>
<polygon fill="black" stroke="black" points="1422.91,-297.48 1431.09,-304.21 1428.89,-293.84 1422.91,-297.48"/>
</g>
<!-- pure&#45;trusted&#45;&gt;types -->
<g id="edge85" class="edge">
<title>pure&#45;trusted&#45;&gt;types</title>
<path fill="none" stroke="black" d="M1371.75,-292.48C1382.65,-297.4 1394.34,-302.69 1404.99,-307.5"/>
<polygon fill="black" stroke="black" points="1403.28,-310.57 1413.83,-311.49 1406.16,-304.19 1403.28,-310.57"/>
</g>
<!-- python -->
<g id="node39" class="node">
<title>python</title>
<polygon fill="none" stroke="black" points="91.38,-1534 29.62,-1534 29.62,-1498 91.38,-1498 91.38,-1534"/>
<text text-anchor="middle" x="60.5" y="-1511.7" font-family="sans-serif" font-size="14.00">python</text>
</g>
<!-- python&#45;&gt;crypto&#45;sig -->
<g id="edge86" class="edge">
<title>python&#45;&gt;crypto&#45;sig</title>
<path fill="none" stroke="black" d="M91.57,-1522.92C102.52,-1526.97 113.94,-1533.27 121,-1543 206.09,-1660.27 86.26,-1740.56 157,-1867 158.06,-1868.89 159.28,-1870.72 160.63,-1872.46"/>
<polygon fill="black" stroke="black" points="157.77,-1874.52 167.16,-1879.42 162.87,-1869.73 157.77,-1874.52"/>
</g>
<!-- python&#45;&gt;git -->
<g id="edge87" class="edge">
<title>python&#45;&gt;git</title>
<path fill="none" stroke="black" d="M91.55,-1515.56C151.37,-1513.14 286.62,-1499.63 368.25,-1429 397.3,-1403.87 420.91,-1366.07 434.96,-1340.29"/>
<polygon fill="black" stroke="black" points="437.92,-1342.19 439.51,-1331.72 431.73,-1338.91 437.92,-1342.19"/>
</g>
<!-- python&#45;&gt;graph -->
<g id="edge88" class="edge">
<title>python&#45;&gt;graph</title>
<path fill="none" stroke="black" d="M91.79,-1503.31C160.61,-1474.04 326,-1400.99 368.25,-1358 393.61,-1332.2 379.76,-1311.62 404.25,-1285 407.06,-1281.94 410.3,-1279.12 413.72,-1276.54"/>
<polygon fill="black" stroke="black" points="415.43,-1279.61 421.79,-1271.13 411.53,-1273.79 415.43,-1279.61"/>
</g>
<!-- python&#45;&gt;hash -->
<g id="edge89" class="edge">
<title>python&#45;&gt;hash</title>
<path fill="none" stroke="black" d="M91.68,-1519.22C127.63,-1522.32 189.34,-1525.3 241.25,-1516 300.49,-1505.39 314.46,-1496.01 368.25,-1469 460.09,-1422.88 681.55,-1287.84 756,-1217 792.69,-1182.09 825.1,-1132.64 843.46,-1101.98"/>
<polygon fill="black" stroke="black" points="846.3,-1104.05 848.36,-1093.66 840.27,-1100.49 846.3,-1104.05"/>
</g>
<!-- python&#45;&gt;kv -->
<g id="edge90" class="edge">
<title>python&#45;&gt;kv</title>
<path fill="none" stroke="black" d="M91.66,-1522.86C102.62,-1526.9 114.02,-1533.21 121,-1543 220.24,-1682.22 68.84,-1779.51 157,-1926 158.69,-1928.81 160.8,-1931.39 163.17,-1933.74"/>
<polygon fill="black" stroke="black" points="160.81,-1936.33 170.78,-1939.9 165.21,-1930.89 160.81,-1936.33"/>
</g>
<!-- python&#45;&gt;llm -->
<g id="edge91" class="edge">
<title>python&#45;&gt;llm</title>
<path fill="none" stroke="black" d="M81.95,-1497.74C105.09,-1477.07 142.96,-1443.26 169.14,-1419.88"/>
<polygon fill="black" stroke="black" points="171.27,-1422.67 176.4,-1413.4 166.61,-1417.45 171.27,-1422.67"/>
</g>
<!-- python&#45;&gt;object -->
<g id="edge92" class="edge">
<title>python&#45;&gt;object</title>
<path fill="none" stroke="black" d="M65.51,-1497.72C75.97,-1452.22 106.82,-1331.07 157,-1241 233.98,-1102.82 266.02,-1061.89 404.25,-985 456.36,-956.01 473.09,-953.22 532,-944 578.61,-936.7 633.01,-938.19 668.93,-940.53"/>
<polygon fill="black" stroke="black" points="668.64,-944.02 678.86,-941.24 669.13,-937.04 668.64,-944.02"/>
</g>
<!-- python&#45;&gt;repl -->
<g id="edge93" class="edge">
<title>python&#45;&gt;repl</title>
<path fill="none" stroke="black" d="M73.15,-1497.58C91.04,-1469.37 126.4,-1413.8 157,-1367 209.32,-1286.98 272.31,-1193.26 303.04,-1147.69"/>
<polygon fill="black" stroke="black" points="305.9,-1149.71 308.59,-1139.46 300.1,-1145.79 305.9,-1149.71"/>
</g>
<!-- sat -->
<g id="node42" class="node">
<title>sat</title>
<polygon fill="none" stroke="black" points="887.38,-1450 833.38,-1450 833.38,-1414 887.38,-1414 887.38,-1450"/>
<text text-anchor="middle" x="860.38" y="-1427.7" font-family="sans-serif" font-size="14.00">sat</text>
</g>
<!-- python&#45;&gt;sat -->
<g id="edge94" class="edge">
<title>python&#45;&gt;sat</title>
<path fill="none" stroke="black" d="M91.84,-1524.58C102.17,-1528.75 113.1,-1534.7 121,-1543 150.99,-1574.5 123.7,-1606.02 157,-1634 214.24,-1682.1 246.98,-1668 321.75,-1668 321.75,-1668 321.75,-1668 451.12,-1668 530.63,-1668 561.62,-1679.6 626.75,-1634 652.23,-1616.16 639.14,-1594.24 662.75,-1574 696.73,-1544.87 719.22,-1561.5 756,-1536 775.39,-1522.56 775.5,-1513.86 792,-1497 804.74,-1483.97 819.25,-1469.89 831.53,-1458.17"/>
<polygon fill="black" stroke="black" points="833.69,-1460.95 838.53,-1451.52 828.87,-1455.87 833.69,-1460.95"/>
</g>
<!-- python&#45;&gt;serve -->
<g id="edge95" class="edge">
<title>python&#45;&gt;serve</title>
<path fill="none" stroke="black" d="M63.25,-1497.68C69.66,-1434.99 94.85,-1224.07 157,-1062 162.71,-1047.1 171.31,-1031.64 179.16,-1018.97"/>
<polygon fill="black" stroke="black" points="181.98,-1021.05 184.42,-1010.74 176.08,-1017.28 181.98,-1021.05"/>
</g>
<!-- python&#45;&gt;sexp -->
<g id="edge96" class="edge">
<title>python&#45;&gt;sexp</title>
<path fill="none" stroke="black" d="M63.77,-1497.79C77.9,-1384.33 153.45,-778.78 157,-770 190.49,-687.21 212.98,-671.02 277.25,-609 352.66,-536.23 395.07,-492.82 496,-521 579.45,-544.3 584.44,-584.91 662.75,-622 702.48,-640.82 725.72,-623.13 756,-655 794.65,-695.67 749.19,-739.73 792,-776 839.78,-816.48 917.22,-814.38 963.1,-808.59"/>
<polygon fill="black" stroke="black" points="963.41,-812.08 972.83,-807.23 962.44,-805.15 963.41,-812.08"/>
</g>
<!-- python&#45;&gt;shell -->
<g id="edge97" class="edge">
<title>python&#45;&gt;shell</title>
<path fill="none" stroke="black" d="M62.76,-1497.92C68.05,-1427.73 91.27,-1167.11 157,-964 194.47,-848.22 208.61,-818.49 277.25,-718 324.27,-649.17 341.76,-635.16 404.25,-580 407.21,-577.39 410.38,-574.79 413.62,-572.26"/>
<polygon fill="black" stroke="black" points="415.67,-575.09 421.58,-566.3 411.48,-569.49 415.67,-575.09"/>
</g>
<!-- python&#45;&gt;store -->
<g id="edge98" class="edge">
<title>python&#45;&gt;store</title>
<path fill="none" stroke="black" d="M91.82,-1525.48C101.92,-1529.69 112.7,-1535.44 121,-1543 144.84,-1564.72 130.35,-1587.84 157,-1606 218.15,-1647.67 247.75,-1630 321.75,-1630 321.75,-1630 321.75,-1630 451.12,-1630 529.91,-1630 561.75,-1650.51 626.75,-1606 654,-1587.34 640.67,-1565.55 662.75,-1541 665.88,-1537.52 669.46,-1534.21 673.2,-1531.14"/>
<polygon fill="black" stroke="black" points="675.02,-1534.14 680.89,-1525.32 670.8,-1528.56 675.02,-1534.14"/>
</g>
<!-- python&#45;&gt;wasm -->
<g id="edge99" class="edge">
<title>python&#45;&gt;wasm</title>
<path fill="none" stroke="black" d="M91.75,-1523.49C102.46,-1527.58 113.65,-1533.77 121,-1543 171.26,-1606.16 114.99,-1652.08 157,-1721 205.84,-1801.11 227.92,-1853 321.75,-1853 321.75,-1853 321.75,-1853 710.38,-1853 808.47,-1853 846.85,-1874.98 928.75,-1821 960.42,-1800.13 980.48,-1760.02 991.14,-1732.64"/>
<polygon fill="black" stroke="black" points="994.31,-1734.14 994.49,-1723.55 987.74,-1731.72 994.31,-1734.14"/>
</g>
<!-- wasm&#45;store -->
<g id="node55" class="node">
<title>wasm&#45;store</title>
<polygon fill="none" stroke="black" points="626.75,-1770 532,-1770 532,-1734 626.75,-1734 626.75,-1770"/>
<text text-anchor="middle" x="579.38" y="-1747.7" font-family="sans-serif" font-size="14.00">wasm&#45;store</text>
</g>
<!-- python&#45;&gt;wasm&#45;store -->
<g id="edge100" class="edge">
<title>python&#45;&gt;wasm&#45;store</title>
<path fill="none" stroke="black" d="M91.8,-1523.82C102.38,-1527.94 113.48,-1534.06 121,-1543 162.07,-1591.85 109.92,-1638.92 157,-1682 257.38,-1773.84 430.29,-1770 520.23,-1760.45"/>
<polygon fill="black" stroke="black" points="520.51,-1763.94 530.06,-1759.33 519.73,-1756.98 520.51,-1763.94"/>
</g>
<!-- repl&#45;&gt;arrow -->
<g id="edge101" class="edge">
<title>repl&#45;&gt;arrow</title>
<path fill="none" stroke="black" d="M350.04,-1128.67C395.62,-1143.71 489.4,-1174.65 541.47,-1191.83"/>
<polygon fill="black" stroke="black" points="540.2,-1195.09 550.79,-1194.9 542.39,-1188.44 540.2,-1195.09"/>
</g>
<!-- repl&#45;&gt;forsp -->
<g id="edge102" class="edge">
<title>repl&#45;&gt;forsp</title>
<path fill="none" stroke="black" d="M326.87,-1101.53C340.69,-1019.96 396.06,-695.8 404.25,-689 480.32,-625.82 534.49,-653.4 626.75,-689 651.22,-698.44 672.89,-718.99 687.74,-736.05"/>
<polygon fill="black" stroke="black" points="684.8,-737.98 693.89,-743.41 690.17,-733.49 684.8,-737.98"/>
</g>
<!-- repl&#45;&gt;git -->
<g id="edge103" class="edge">
<title>repl&#45;&gt;git</title>
<path fill="none" stroke="black" d="M348.41,-1138.39C355.67,-1144.85 363.05,-1152.6 368.25,-1161 398.46,-1209.79 369.25,-1239.52 404.25,-1285 406.84,-1288.37 409.98,-1291.41 413.39,-1294.12"/>
<polygon fill="black" stroke="black" points="411.34,-1296.96 421.57,-1299.72 415.29,-1291.18 411.34,-1296.96"/>
</g>
<!-- repl&#45;&gt;graph -->
<g id="edge104" class="edge">
<title>repl&#45;&gt;graph</title>
<path fill="none" stroke="black" d="M346.55,-1138.21C354.03,-1144.88 362.01,-1152.81 368.25,-1161 389.44,-1188.84 380.35,-1205.45 404.25,-1231 406.94,-1233.88 410,-1236.55 413.24,-1239.01"/>
<polygon fill="black" stroke="black" points="411.14,-1241.82 421.39,-1244.52 415.06,-1236.02 411.14,-1241.82"/>
</g>
<!-- repl&#45;&gt;hash -->
<g id="edge105" class="edge">
<title>repl&#45;&gt;hash</title>
<path fill="none" stroke="black" d="M350.12,-1118.68C402.75,-1115.97 524.57,-1109.34 626.75,-1101 684.29,-1096.3 698.66,-1094.76 756,-1088 777.85,-1085.42 802.24,-1082.14 821.84,-1079.4"/>
<polygon fill="black" stroke="black" points="822.15,-1082.89 831.56,-1078.03 821.17,-1075.96 822.15,-1082.89"/>
</g>
<!-- repl&#45;&gt;init -->
<g id="edge106" class="edge">
<title>repl&#45;&gt;init</title>
<path fill="none" stroke="black" d="M326.83,-1101.56C341.37,-1014.56 402.48,-649.34 404.25,-647 438.8,-601.28 598.63,-540.6 671.72,-514.65"/>
<polygon fill="black" stroke="black" points="672.56,-518.06 680.83,-511.44 670.24,-511.46 672.56,-518.06"/>
</g>
<!-- repl&#45;&gt;object -->
<g id="edge107" class="edge">
<title>repl&#45;&gt;object</title>
<path fill="none" stroke="black" d="M342.49,-1101.57C376.84,-1069.03 453.55,-1001.82 532,-970 576.78,-951.84 632.53,-946.16 669.22,-944.49"/>
<polygon fill="black" stroke="black" points="669.05,-948 678.91,-944.14 668.79,-941.01 669.05,-948"/>
</g>
<!-- repl&#45;&gt;parquet -->
<g id="edge108" class="edge">
<title>repl&#45;&gt;parquet</title>
<path fill="none" stroke="black" d="M350.03,-1137.61C368.05,-1149.68 392.21,-1165.87 412.16,-1179.24"/>
<polygon fill="black" stroke="black" points="410.06,-1182.04 420.32,-1184.7 413.96,-1176.23 410.06,-1182.04"/>
</g>
<!-- repl&#45;&gt;shell -->
<g id="edge109" class="edge">
<title>repl&#45;&gt;shell</title>
<path fill="none" stroke="black" d="M326.48,-1101.6C339.55,-1013.87 395.37,-641.27 404.25,-618 409.94,-603.1 419.07,-588.03 427.62,-575.7"/>
<polygon fill="black" stroke="black" points="430.38,-577.85 433.39,-567.69 424.7,-573.76 430.38,-577.85"/>
</g>
<!-- repl&#45;&gt;wasm -->
<g id="edge110" class="edge">
<title>repl&#45;&gt;wasm</title>
<path fill="none" stroke="black" d="M335.77,-1138.4C345.64,-1154.2 359.4,-1177.87 368.25,-1200 391.95,-1259.25 374.13,-1282.74 404.25,-1339 485.59,-1490.92 514.16,-1540.71 662.75,-1628 760.36,-1685.34 897.15,-1699.45 962.7,-1702.9"/>
<polygon fill="black" stroke="black" points="962.42,-1706.39 972.57,-1703.35 962.74,-1699.39 962.42,-1706.39"/>
</g>
<!-- sat&#45;&gt;parse -->
<g id="edge111" class="edge">
<title>sat&#45;&gt;parse</title>
<path fill="none" stroke="black" d="M887.72,-1432.55C926.07,-1431.88 997.17,-1424.87 1038.5,-1385 1099.33,-1326.32 1111.14,-1219.89 1113.16,-1168.43"/>
<polygon fill="black" stroke="black" points="1116.65,-1168.77 1113.44,-1158.68 1109.66,-1168.58 1116.65,-1168.77"/>
</g>
<!-- sat&#45;&gt;types -->
<g id="edge112" class="edge">
<title>sat&#45;&gt;types</title>
<path fill="none" stroke="black" d="M887.83,-1434.61C933.7,-1438.91 1030.98,-1447 1113.38,-1447 1113.38,-1447 1113.38,-1447 1218.25,-1447 1333.2,-1447 1422.69,-530.12 1438.88,-353.31"/>
<polygon fill="black" stroke="black" points="1442.34,-353.88 1439.76,-343.6 1435.37,-353.24 1442.34,-353.88"/>
</g>
<!-- sat&#45;&gt;wasm -->
<g id="edge113" class="edge">
<title>sat&#45;&gt;wasm</title>
<path fill="none" stroke="black" d="M887.63,-1438.8C901.64,-1443.67 918.12,-1451.62 928.75,-1464 981.63,-1525.62 995.61,-1624.99 999.3,-1674.29"/>
<polygon fill="black" stroke="black" points="995.8,-1674.43 999.94,-1684.18 1002.79,-1673.98 995.8,-1674.43"/>
</g>
<!-- serve&#45;&gt;core -->
<g id="edge114" class="edge">
<title>serve&#45;&gt;core</title>
<path fill="none" stroke="black" d="M202.51,-972.65C209.31,-923.89 231.34,-787.78 277.25,-684 318.49,-590.77 336.43,-569.11 404.25,-493 535.2,-346.04 598.84,-316.86 792,-279 851.64,-267.31 868.29,-272.76 928.75,-279 940.04,-280.17 952.18,-282.34 963.2,-284.67"/>
<polygon fill="black" stroke="black" points="962.21,-288.03 972.73,-286.8 963.73,-281.2 962.21,-288.03"/>
</g>
<!-- serve&#45;&gt;git -->
<g id="edge115" class="edge">
<title>serve&#45;&gt;git</title>
<path fill="none" stroke="black" d="M206.78,-1009.48C218.27,-1039.93 243.85,-1101.81 277.25,-1147 310.32,-1191.75 331.99,-1190.78 368.25,-1233 386.56,-1254.32 383.75,-1265.77 404.25,-1285 406.97,-1287.55 409.97,-1289.98 413.09,-1292.25"/>
<polygon fill="black" stroke="black" points="411.12,-1295.15 421.39,-1297.77 415,-1289.32 411.12,-1295.15"/>
</g>
<!-- serve&#45;&gt;hash -->
<g id="edge116" class="edge">
<title>serve&#45;&gt;hash</title>
<path fill="none" stroke="black" d="M226.29,-990.83C271.66,-990.54 367.85,-990 449.12,-990 449.12,-990 449.12,-990 580.38,-990 670.77,-990 770.9,-1030.93 823.14,-1055.64"/>
<polygon fill="black" stroke="black" points="821.34,-1058.66 831.87,-1059.85 824.38,-1052.36 821.34,-1058.66"/>
</g>
<!-- serve&#45;&gt;init -->
<g id="edge117" class="edge">
<title>serve&#45;&gt;init</title>
<path fill="none" stroke="black" d="M200.19,-972.78C201.32,-925.39 210.72,-796.76 277.25,-722 306.39,-689.26 340.14,-717.63 368.25,-684 415.83,-627.08 347.89,-569.24 404.25,-521 443.27,-487.6 598.09,-493.94 670.57,-498.95"/>
<polygon fill="black" stroke="black" points="670.14,-502.42 680.37,-499.65 670.65,-495.44 670.14,-502.42"/>
</g>
<!-- serve&#45;&gt;metamath -->
<g id="edge118" class="edge">
<title>serve&#45;&gt;metamath</title>
<path fill="none" stroke="black" d="M209.76,-972.74C222.83,-949.16 247.91,-907.75 277.25,-879 311.85,-845.09 341.01,-859.06 368.25,-819 412.16,-754.41 343.63,-696.24 404.25,-647 435.9,-621.29 455.23,-646.22 496,-647 554.14,-648.11 569.84,-640.05 626.75,-652 687.19,-664.69 713.83,-657.89 756,-703 791.99,-741.51 757.33,-776.3 792,-816 796.98,-821.7 803.2,-826.47 809.83,-830.43"/>
<polygon fill="black" stroke="black" points="807.93,-833.38 818.41,-834.96 811.2,-827.19 807.93,-833.38"/>
</g>
<!-- serve&#45;&gt;object -->
<g id="edge119" class="edge">
<title>serve&#45;&gt;object</title>
<path fill="none" stroke="black" d="M214.19,-972.63C228.21,-955.75 251.35,-931.5 277.25,-919 417.34,-851.37 475.92,-861.94 626.75,-900 642.7,-904.03 658.93,-911.85 672.66,-919.8"/>
<polygon fill="black" stroke="black" points="670.52,-922.59 680.89,-924.77 674.14,-916.6 670.52,-922.59"/>
</g>
<!-- serve&#45;&gt;proto -->
<g id="edge120" class="edge">
<title>serve&#45;&gt;proto</title>
<path fill="none" stroke="black" d="M203.46,-1009.32C211.96,-1053.85 236.69,-1170.73 277.25,-1261 283.82,-1275.61 293.08,-1290.75 301.46,-1303.19"/>
<polygon fill="black" stroke="black" points="298.49,-1305.05 307.05,-1311.28 304.24,-1301.07 298.49,-1305.05"/>
</g>
<!-- serve&#45;&gt;repl -->
<g id="edge121" class="edge">
<title>serve&#45;&gt;repl</title>
<path fill="none" stroke="black" d="M217.55,-1009.48C238.23,-1031.42 272.89,-1068.17 296.5,-1093.22"/>
<polygon fill="black" stroke="black" points="293.91,-1095.58 303.32,-1100.45 299,-1090.77 293.91,-1095.58"/>
</g>
<!-- serve&#45;&gt;shell -->
<g id="edge122" class="edge">
<title>serve&#45;&gt;shell</title>
<path fill="none" stroke="black" d="M201.59,-972.79C205.85,-931.03 221.73,-827.14 277.25,-765 307.05,-731.64 339.82,-756.53 368.25,-722 409.63,-671.74 367.5,-633.74 404.25,-580 406.92,-576.09 410.24,-572.5 413.85,-569.24"/>
<polygon fill="black" stroke="black" points="415.8,-572.17 421.47,-563.22 411.45,-566.68 415.8,-572.17"/>
</g>
<!-- serve&#45;&gt;store -->
<g id="edge123" class="edge">
<title>serve&#45;&gt;store</title>
<path fill="none" stroke="black" d="M204.06,-1009.21C212.88,-1047.44 236.68,-1137.99 277.25,-1204 282.64,-1212.77 396.13,-1332.66 404.25,-1339 492.45,-1407.85 611.98,-1465.97 671.51,-1492.91"/>
<polygon fill="black" stroke="black" points="669.97,-1496.05 680.53,-1496.95 672.84,-1489.67 669.97,-1496.05"/>
</g>
<!-- sexp&#45;&gt;parse -->
<g id="edge124" class="edge">
<title>sexp&#45;&gt;parse</title>
<path fill="none" stroke="black" d="M1010.7,-820.35C1018.33,-838.01 1029.87,-865.58 1038.5,-890 1066.22,-968.48 1092.85,-1063.07 1105.58,-1109.86"/>
<polygon fill="black" stroke="black" points="1102.13,-1110.49 1108.12,-1119.23 1108.88,-1108.66 1102.13,-1110.49"/>
</g>
<!-- shell&#45;&gt;hol -->
<g id="edge125" class="edge">
<title>shell&#45;&gt;hol</title>
<path fill="none" stroke="black" d="M458.77,-529.91C470.67,-503.87 496.06,-456.01 532,-429 615.71,-366.09 663.09,-404.28 756,-356 773.75,-346.78 774.32,-338.35 792,-329 801.37,-324.05 812.02,-319.83 822.04,-316.42"/>
<polygon fill="black" stroke="black" points="823.1,-319.76 831.55,-313.37 820.96,-313.09 823.1,-319.76"/>
</g>
<!-- shell&#45;&gt;kernel -->
<g id="edge126" class="edge">
<title>shell&#45;&gt;kernel</title>
<path fill="none" stroke="black" d="M464.99,-566.3C487.36,-595.84 531.56,-654.2 557.68,-688.68"/>
<polygon fill="black" stroke="black" points="554.79,-690.66 563.62,-696.52 560.37,-686.43 554.79,-690.66"/>
</g>
<!-- smt&#45;&gt;sat -->
<g id="edge127" class="edge">
<title>smt&#45;&gt;sat</title>
<path fill="none" stroke="black" d="M717.97,-613.31C728.58,-639.84 747.5,-690.74 756,-736 781.31,-870.77 741.25,-1224.62 792,-1352 800.15,-1372.45 815.68,-1391.47 829.79,-1405.83"/>
<polygon fill="black" stroke="black" points="827.18,-1408.17 836.77,-1412.66 832.07,-1403.17 827.18,-1408.17"/>
</g>
<!-- smt&#45;&gt;sexp -->
<g id="edge128" class="edge">
<title>smt&#45;&gt;sexp</title>
<path fill="none" stroke="black" d="M736.54,-609.07C743.67,-613.95 750.84,-619.98 756,-627 787.21,-669.47 754.37,-703.09 792,-740 804.4,-752.16 906.57,-778.83 963.19,-792.9"/>
<polygon fill="black" stroke="black" points="962.18,-796.25 972.73,-795.25 963.86,-789.46 962.18,-796.25"/>
</g>
<!-- smt&#45;&gt;types -->
<g id="edge129" class="edge">
<title>smt&#45;&gt;types</title>
<path fill="none" stroke="black" d="M736.79,-595.15C787.79,-595.43 903.37,-596 1000.62,-596 1000.62,-596 1000.62,-596 1218.25,-596 1299.68,-596 1327.06,-571.3 1379.5,-509 1417.85,-463.44 1432.77,-393.2 1438.35,-353.67"/>
<polygon fill="black" stroke="black" points="1441.8,-354.32 1439.6,-343.95 1434.85,-353.42 1441.8,-354.32"/>
</g>
<!-- spectec&#45;&gt;grammar -->
<g id="edge130" class="edge">
<title>spectec&#45;&gt;grammar</title>
<path fill="none" stroke="black" d="M895.44,-478.65C912.86,-481.02 934.33,-483.95 953.33,-486.55"/>
<polygon fill="black" stroke="black" points="952.6,-489.98 962.98,-487.86 953.54,-483.04 952.6,-489.98"/>
</g>
<!-- store&#45;&gt;hash -->
<g id="edge131" class="edge">
<title>store&#45;&gt;hash</title>
<path fill="none" stroke="black" d="M726.68,-1490.74C736.77,-1478.41 749.08,-1461.28 756,-1444 795.79,-1344.69 759.26,-1307.85 792,-1206 804.17,-1168.16 826.18,-1127.92 841.73,-1101.95"/>
<polygon fill="black" stroke="black" points="844.55,-1104.06 846.76,-1093.7 838.57,-1100.42 844.55,-1104.06"/>
</g>
<!-- store&#45;&gt;json -->
<g id="edge132" class="edge">
<title>store&#45;&gt;json</title>
<path fill="none" stroke="black" d="M736.67,-1525.24C760.75,-1540.1 796.59,-1562.24 823.33,-1578.75"/>
<polygon fill="black" stroke="black" points="821.46,-1581.7 831.8,-1583.98 825.13,-1575.74 821.46,-1581.7"/>
</g>
<!-- store&#45;&gt;sqlite -->
<g id="edge133" class="edge">
<title>store&#45;&gt;sqlite</title>
<path fill="none" stroke="black" d="M736.67,-1511.65C760.32,-1514.03 795.33,-1517.55 821.91,-1520.23"/>
<polygon fill="black" stroke="black" points="821.29,-1523.68 831.59,-1521.2 821.99,-1516.72 821.29,-1523.68"/>
</g>
<!-- tcb&#45;db -->
<g id="node50" class="node">
<title>tcb&#45;db</title>
<polygon fill="none" stroke="black" points="739.5,-1619 679.25,-1619 679.25,-1583 739.5,-1583 739.5,-1619"/>
<text text-anchor="middle" x="709.38" y="-1596.7" font-family="sans-serif" font-size="14.00">tcb&#45;db</text>
</g>
<!-- tcb&#45;db&#45;&gt;json -->
<g id="edge134" class="edge">
<title>tcb&#45;db&#45;&gt;json</title>
<path fill="none" stroke="black" d="M739.81,-1601C763.24,-1601 796.19,-1601 821.57,-1601"/>
<polygon fill="black" stroke="black" points="821.48,-1604.5 831.48,-1601 821.48,-1597.5 821.48,-1604.5"/>
</g>
<!-- tcb&#45;db&#45;&gt;sqlite -->
<g id="edge135" class="edge">
<title>tcb&#45;db&#45;&gt;sqlite</title>
<path fill="none" stroke="black" d="M739.81,-1585.79C763.67,-1573.46 797.39,-1556.03 822.94,-1542.83"/>
<polygon fill="black" stroke="black" points="824.37,-1546.03 831.65,-1538.33 821.16,-1539.81 824.37,-1546.03"/>
</g>
<!-- wasm&#45;build&#45;guest -->
<g id="node53" class="node">
<title>wasm&#45;build&#45;guest</title>
<polygon fill="none" stroke="black" points="928.75,-1787 792,-1787 792,-1751 928.75,-1751 928.75,-1787"/>
<text text-anchor="middle" x="860.38" y="-1764.7" font-family="sans-serif" font-size="14.00">wasm&#45;build&#45;guest</text>
</g>
<!-- wasm&#45;build&#45;guest&#45;&gt;wasm -->
<g id="edge136" class="edge">
<title>wasm&#45;build&#45;guest&#45;&gt;wasm</title>
<path fill="none" stroke="black" d="M900.91,-1750.55C920.72,-1741.3 944.55,-1730.17 963.95,-1721.12"/>
<polygon fill="black" stroke="black" points="965.27,-1724.37 972.85,-1716.97 962.3,-1718.02 965.27,-1724.37"/>
</g>
<!-- wasm&#45;spec -->
<g id="node54" class="node">
<title>wasm&#45;spec</title>
<polygon fill="none" stroke="black" points="756,-1435 662.75,-1435 662.75,-1399 756,-1399 756,-1435"/>
<text text-anchor="middle" x="709.38" y="-1412.7" font-family="sans-serif" font-size="14.00">wasm&#45;spec</text>
</g>
<!-- wasm&#45;spec&#45;&gt;hash -->
<g id="edge137" class="edge">
<title>wasm&#45;spec&#45;&gt;hash</title>
<path fill="none" stroke="black" d="M726.15,-1398.52C736.03,-1386.09 748.29,-1368.94 756,-1352 783.67,-1291.17 768.65,-1268.62 792,-1206 805.9,-1168.71 827.6,-1128.29 842.6,-1102.14"/>
<polygon fill="black" stroke="black" points="845.63,-1103.9 847.62,-1093.49 839.57,-1100.38 845.63,-1103.9"/>
</g>
<!-- wasm&#45;spec&#45;&gt;wasm -->
<g id="edge138" class="edge">
<title>wasm&#45;spec&#45;&gt;wasm</title>
<path fill="none" stroke="black" d="M742.24,-1435.32C757.05,-1443.32 775.08,-1452.38 792,-1459 850.74,-1481.99 882.76,-1453.83 928.75,-1497 979.44,-1544.58 994.38,-1629.71 998.79,-1674.54"/>
<polygon fill="black" stroke="black" points="995.28,-1674.62 999.62,-1684.28 1002.26,-1674.02 995.28,-1674.62"/>
</g>
<!-- wasm&#45;store&#45;&gt;json -->
<g id="edge139" class="edge">
<title>wasm&#45;store&#45;&gt;json</title>
<path fill="none" stroke="black" d="M614.31,-1733.64C667.24,-1704.99 769.02,-1649.9 823.26,-1620.55"/>
<polygon fill="black" stroke="black" points="824.67,-1623.76 831.8,-1615.93 821.34,-1617.61 824.67,-1623.76"/>
</g>
<!-- wasm&#45;store&#45;&gt;store -->
<g id="edge140" class="edge">
<title>wasm&#45;store&#45;&gt;store</title>
<path fill="none" stroke="black" d="M588.42,-1733.53C605.64,-1694.17 645.88,-1603.28 662.75,-1574 670.12,-1561.21 679.3,-1547.76 687.49,-1536.43"/>
<polygon fill="black" stroke="black" points="690.08,-1538.82 693.18,-1528.69 684.44,-1534.67 690.08,-1538.82"/>
</g>
<!-- wasm&#45;store&#45;&gt;wasm -->
<g id="edge141" class="edge">
<title>wasm&#45;store&#45;&gt;wasm</title>
<path fill="none" stroke="black" d="M619.52,-1770.41C686.52,-1799.09 825.88,-1846.18 928.75,-1796 955.68,-1782.87 975.47,-1754.23 987.39,-1732.37"/>
<polygon fill="black" stroke="black" points="990.43,-1734.11 991.91,-1723.62 984.21,-1730.9 990.43,-1734.11"/>
</g>
<!-- web&#45;kernel -->
<g id="node56" class="node">
<title>web&#45;kernel</title>
<polygon fill="none" stroke="black" points="496,-734 404.25,-734 404.25,-698 496,-698 496,-734"/>
<text text-anchor="middle" x="450.12" y="-711.7" font-family="sans-serif" font-size="14.00">web&#45;kernel</text>
</g>
<!-- web&#45;kernel&#45;&gt;kernel -->
<g id="edge142" class="edge">
<title>web&#45;kernel&#45;&gt;kernel</title>
<path fill="none" stroke="black" d="M496.35,-716C510.27,-716 525.48,-716 538.98,-716"/>
<polygon fill="black" stroke="black" points="538.81,-719.5 548.81,-716 538.81,-712.5 538.81,-719.5"/>
</g>
</g>
</svg>
