<?xml version="1.0" encoding="UTF-8" standalone="no"?>
<!DOCTYPE svg PUBLIC "-//W3C//DTD SVG 1.1//EN"
 "http://www.w3.org/Graphics/SVG/1.1/DTD/svg11.dtd">
<!-- Generated by graphviz version 12.2.1 (0)
 -->
<!-- Title: deps Pages: 1 -->
<svg width="1518pt" height="2704pt"
 viewBox="0.00 0.00 1517.50 2704.33" xmlns="http://www.w3.org/2000/svg" xmlns:xlink="http://www.w3.org/1999/xlink">
<g id="graph0" class="graph" transform="scale(1 1) rotate(0) translate(4 2700.33)">
<title>deps</title>
<polygon fill="white" stroke="none" points="-4,4 -4,-2700.33 1513.5,-2700.33 1513.5,4 -4,4"/>
<!-- covalence -->
<g id="node1" class="node">
<title>covalence</title>
<polygon fill="none" stroke="black" points="102.62,-1704.23 18.38,-1704.23 18.38,-1668.23 102.62,-1668.23 102.62,-1704.23"/>
<text text-anchor="middle" x="60.5" y="-1681.93" font-family="sans-serif" font-size="14.00">covalence</text>
</g>
<!-- client -->
<g id="node5" class="node">
<title>client</title>
<polygon fill="none" stroke="black" points="350.12,-2054.23 296.12,-2054.23 296.12,-2018.23 350.12,-2018.23 350.12,-2054.23"/>
<text text-anchor="middle" x="323.12" y="-2031.93" font-family="sans-serif" font-size="14.00">client</text>
</g>
<!-- covalence&#45;&gt;client -->
<g id="edge1" class="edge">
<title>covalence&#45;&gt;client</title>
<path fill="none" stroke="black" d="M70.79,-1704.37C97.67,-1755.66 179.81,-1904.49 277.25,-2004.23 280.16,-2007.22 283.38,-2010.11 286.72,-2012.86"/>
<polygon fill="black" stroke="black" points="284.45,-2015.52 294.51,-2018.84 288.71,-2009.97 284.45,-2015.52"/>
</g>
<!-- fuse -->
<g id="node12" class="node">
<title>fuse</title>
<polygon fill="none" stroke="black" points="606.38,-2146.23 552.38,-2146.23 552.38,-2110.23 606.38,-2110.23 606.38,-2146.23"/>
<text text-anchor="middle" x="579.38" y="-2123.93" font-family="sans-serif" font-size="14.00">fuse</text>
</g>
<!-- covalence&#45;&gt;fuse -->
<g id="edge2" class="edge">
<title>covalence&#45;&gt;fuse</title>
<path fill="none" stroke="black" d="M65.32,-1704.39C79.74,-1767.68 137.25,-1979.24 277.25,-2063.23 361.95,-2114.05 481.17,-2125.37 541.01,-2127.74"/>
<polygon fill="black" stroke="black" points="540.54,-2131.23 550.65,-2128.06 540.77,-2124.23 540.54,-2131.23"/>
</g>
<!-- git -->
<g id="node13" class="node">
<title>git</title>
<polygon fill="none" stroke="black" points="477.5,-2184.23 423.5,-2184.23 423.5,-2148.23 477.5,-2148.23 477.5,-2184.23"/>
<text text-anchor="middle" x="450.5" y="-2161.93" font-family="sans-serif" font-size="14.00">git</text>
</g>
<!-- covalence&#45;&gt;git -->
<g id="edge3" class="edge">
<title>covalence&#45;&gt;git</title>
<path fill="none" stroke="black" d="M63.76,-1704.35C72.71,-1773.63 107.64,-2020.82 157,-2080.23 194.44,-2125.3 221.33,-2116.76 277.25,-2134.23 322.5,-2148.38 376.51,-2157.16 411.83,-2161.87"/>
<polygon fill="black" stroke="black" points="411.19,-2165.31 421.56,-2163.12 412.08,-2158.37 411.19,-2165.31"/>
</g>
<!-- hash -->
<g id="node16" class="node">
<title>hash</title>
<polygon fill="none" stroke="black" points="887.38,-1948.23 833.38,-1948.23 833.38,-1912.23 887.38,-1912.23 887.38,-1948.23"/>
<text text-anchor="middle" x="860.38" y="-1925.93" font-family="sans-serif" font-size="14.00">hash</text>
</g>
<!-- covalence&#45;&gt;hash -->
<g id="edge4" class="edge">
<title>covalence&#45;&gt;hash</title>
<path fill="none" stroke="black" d="M102.77,-1698.29C119.55,-1703.09 139.16,-1708.57 157,-1713.23 289.45,-1747.86 631.3,-1800.74 756,-1857.23 782.95,-1869.44 810.15,-1889.01 829.89,-1904.81"/>
<polygon fill="black" stroke="black" points="827.54,-1907.41 837.5,-1911.04 831.97,-1902 827.54,-1907.41"/>
</g>
<!-- hol -->
<g id="node18" class="node">
<title>hol</title>
<polygon fill="none" stroke="black" points="887.38,-558.23 833.38,-558.23 833.38,-522.23 887.38,-522.23 887.38,-558.23"/>
<text text-anchor="middle" x="860.38" y="-535.93" font-family="sans-serif" font-size="14.00">hol</text>
</g>
<!-- covalence&#45;&gt;hol -->
<g id="edge5" class="edge">
<title>covalence&#45;&gt;hol</title>
<path fill="none" stroke="black" d="M62.63,-1667.86C73.47,-1495.47 162.1,-168.23 322.12,-168.23 322.12,-168.23 322.12,-168.23 451.5,-168.23 477.18,-168.23 745.84,-429.06 832.55,-513.91"/>
<polygon fill="black" stroke="black" points="829.92,-516.23 839.51,-520.73 834.82,-511.23 829.92,-516.23"/>
</g>
<!-- init -->
<g id="node22" class="node">
<title>init</title>
<polygon fill="none" stroke="black" points="736.38,-1084.23 682.38,-1084.23 682.38,-1048.23 736.38,-1048.23 736.38,-1084.23"/>
<text text-anchor="middle" x="709.38" y="-1061.93" font-family="sans-serif" font-size="14.00">init</text>
</g>
<!-- covalence&#45;&gt;init -->
<g id="edge6" class="edge">
<title>covalence&#45;&gt;init</title>
<path fill="none" stroke="black" d="M62.09,-1668.07C64.8,-1605.08 79.51,-1391.54 157,-1238.23 206.87,-1139.58 211.58,-1052.23 322.12,-1052.23 322.12,-1052.23 322.12,-1052.23 451.5,-1052.23 529.65,-1052.23 620.97,-1058.77 670.95,-1062.91"/>
<polygon fill="black" stroke="black" points="670.38,-1066.38 680.64,-1063.73 670.97,-1059.4 670.38,-1066.38"/>
</g>
<!-- lsp -->
<g id="node34" class="node">
<title>lsp</title>
<polygon fill="none" stroke="black" points="887.38,-1728.23 833.38,-1728.23 833.38,-1692.23 887.38,-1692.23 887.38,-1728.23"/>
<text text-anchor="middle" x="860.38" y="-1705.93" font-family="sans-serif" font-size="14.00">lsp</text>
</g>
<!-- covalence&#45;&gt;lsp -->
<g id="edge7" class="edge">
<title>covalence&#45;&gt;lsp</title>
<path fill="none" stroke="black" d="M63.58,-1668.14C71.55,-1602.41 102.44,-1377.9 157,-1336.23 277.7,-1244.05 358.15,-1315.49 496,-1379.23 563.39,-1410.4 587.43,-1420.25 626.75,-1483.23 666.04,-1546.17 612.9,-1591.28 662.75,-1646.23 673.73,-1658.33 768.53,-1685.59 822.38,-1700.33"/>
<polygon fill="black" stroke="black" points="821.18,-1703.63 831.75,-1702.87 823.02,-1696.87 821.18,-1703.63"/>
</g>
<!-- object -->
<g id="node38" class="node">
<title>object</title>
<polygon fill="none" stroke="black" points="738,-1810.23 680.75,-1810.23 680.75,-1774.23 738,-1774.23 738,-1810.23"/>
<text text-anchor="middle" x="709.38" y="-1787.93" font-family="sans-serif" font-size="14.00">object</text>
</g>
<!-- covalence&#45;&gt;object -->
<g id="edge8" class="edge">
<title>covalence&#45;&gt;object</title>
<path fill="none" stroke="black" d="M63.84,-1668.08C72.46,-1604.22 104.76,-1391.63 157,-1352.23 186.9,-1329.69 204.38,-1345.71 241.25,-1352.23 359.94,-1373.22 409.8,-1360.99 496,-1445.23 527.4,-1475.92 511.37,-1498.47 532,-1537.23 578.98,-1625.52 650.66,-1719.96 686.45,-1765.13"/>
<polygon fill="black" stroke="black" points="683.61,-1767.18 692.58,-1772.82 689.08,-1762.82 683.61,-1767.18"/>
</g>
<!-- opentheory -->
<g id="node39" class="node">
<title>opentheory</title>
<polygon fill="none" stroke="black" points="496,-528.23 405,-528.23 405,-492.23 496,-492.23 496,-528.23"/>
<text text-anchor="middle" x="450.5" y="-505.93" font-family="sans-serif" font-size="14.00">opentheory</text>
</g>
<!-- covalence&#45;&gt;opentheory -->
<g id="edge9" class="edge">
<title>covalence&#45;&gt;opentheory</title>
<path fill="none" stroke="black" d="M62.09,-1667.99C65.06,-1590.22 81.3,-1279.36 157,-1038.23 231.06,-802.32 241.99,-726.15 405,-540.23 406.27,-538.79 407.62,-537.38 409.03,-536.02"/>
<polygon fill="black" stroke="black" points="411.17,-538.8 416.52,-529.65 406.63,-533.46 411.17,-538.8"/>
</g>
<!-- proto -->
<g id="node44" class="node">
<title>proto</title>
<polygon fill="none" stroke="black" points="350.12,-1506.23 296.12,-1506.23 296.12,-1470.23 350.12,-1470.23 350.12,-1506.23"/>
<text text-anchor="middle" x="323.12" y="-1483.93" font-family="sans-serif" font-size="14.00">proto</text>
</g>
<!-- covalence&#45;&gt;proto -->
<g id="edge10" class="edge">
<title>covalence&#45;&gt;proto</title>
<path fill="none" stroke="black" d="M74.84,-1668.06C92.03,-1645.51 123.68,-1606.79 157,-1580.23 197.47,-1547.98 250.73,-1520.56 285.68,-1504.25"/>
<polygon fill="black" stroke="black" points="286.9,-1507.54 294.52,-1500.18 283.97,-1501.18 286.9,-1507.54"/>
</g>
<!-- repl -->
<g id="node50" class="node">
<title>repl</title>
<polygon fill="none" stroke="black" points="350.12,-1864.23 296.12,-1864.23 296.12,-1828.23 350.12,-1828.23 350.12,-1864.23"/>
<text text-anchor="middle" x="323.12" y="-1841.93" font-family="sans-serif" font-size="14.00">repl</text>
</g>
<!-- covalence&#45;&gt;repl -->
<g id="edge11" class="edge">
<title>covalence&#45;&gt;repl</title>
<path fill="none" stroke="black" d="M76.31,-1704.71C93.75,-1725.45 124.48,-1758.98 157,-1780.23 197.46,-1806.68 250.19,-1825.46 285.05,-1836.06"/>
<polygon fill="black" stroke="black" points="283.67,-1839.3 294.25,-1838.79 285.66,-1832.59 283.67,-1839.3"/>
</g>
<!-- serve -->
<g id="node53" class="node">
<title>serve</title>
<polygon fill="none" stroke="black" points="226.12,-1704.23 172.12,-1704.23 172.12,-1668.23 226.12,-1668.23 226.12,-1704.23"/>
<text text-anchor="middle" x="199.12" y="-1681.93" font-family="sans-serif" font-size="14.00">serve</text>
</g>
<!-- covalence&#45;&gt;serve -->
<g id="edge12" class="edge">
<title>covalence&#45;&gt;serve</title>
<path fill="none" stroke="black" d="M102.86,-1686.23C121.2,-1686.23 142.63,-1686.23 160.51,-1686.23"/>
<polygon fill="black" stroke="black" points="160.44,-1689.73 170.44,-1686.23 160.44,-1682.73 160.44,-1689.73"/>
</g>
<!-- shell -->
<g id="node56" class="node">
<title>shell</title>
<polygon fill="none" stroke="black" points="477.5,-1490.23 423.5,-1490.23 423.5,-1454.23 477.5,-1454.23 477.5,-1490.23"/>
<text text-anchor="middle" x="450.5" y="-1467.93" font-family="sans-serif" font-size="14.00">shell</text>
</g>
<!-- covalence&#45;&gt;shell -->
<g id="edge13" class="edge">
<title>covalence&#45;&gt;shell</title>
<path fill="none" stroke="black" d="M61.73,-1668.06C63.44,-1619.19 75.66,-1484.86 157,-1428.23 234.33,-1374.4 277.71,-1404.91 369,-1428.23 384.62,-1432.22 400.47,-1439.93 413.93,-1447.8"/>
<polygon fill="black" stroke="black" points="412.06,-1450.76 422.42,-1453 415.71,-1444.79 412.06,-1450.76"/>
</g>
<!-- store -->
<g id="node60" class="node">
<title>store</title>
<polygon fill="none" stroke="black" points="736.38,-2352.23 682.38,-2352.23 682.38,-2316.23 736.38,-2316.23 736.38,-2352.23"/>
<text text-anchor="middle" x="709.38" y="-2329.93" font-family="sans-serif" font-size="14.00">store</text>
</g>
<!-- covalence&#45;&gt;store -->
<g id="edge14" class="edge">
<title>covalence&#45;&gt;store</title>
<path fill="none" stroke="black" d="M61.13,-1704.32C60.57,-1769.95 65.59,-1999.9 157,-2156.23 250.51,-2316.16 348.78,-2310.81 532,-2338.23 579.35,-2345.32 634.64,-2342.26 670.52,-2338.8"/>
<polygon fill="black" stroke="black" points="670.81,-2342.29 680.4,-2337.79 670.09,-2335.33 670.81,-2342.29"/>
</g>
<!-- wasm -->
<g id="node63" class="node">
<title>wasm</title>
<polygon fill="none" stroke="black" points="1028.75,-2420.23 974.5,-2420.23 974.5,-2384.23 1028.75,-2384.23 1028.75,-2420.23"/>
<text text-anchor="middle" x="1001.62" y="-2397.93" font-family="sans-serif" font-size="14.00">wasm</text>
</g>
<!-- covalence&#45;&gt;wasm -->
<g id="edge15" class="edge">
<title>covalence&#45;&gt;wasm</title>
<path fill="none" stroke="black" d="M63.22,-1704.61C70.48,-1778.5 100.86,-2053.08 157,-2116.23 217.39,-2184.17 899.92,-2288.81 928.75,-2307.23 954.36,-2323.6 974.25,-2352.48 986.55,-2374.12"/>
<polygon fill="black" stroke="black" points="983.39,-2375.63 991.25,-2382.74 989.54,-2372.28 983.39,-2375.63"/>
</g>
<!-- acset -->
<g id="node2" class="node">
<title>acset</title>
<polygon fill="none" stroke="black" points="887.38,-1598.23 833.38,-1598.23 833.38,-1562.23 887.38,-1562.23 887.38,-1598.23"/>
<text text-anchor="middle" x="860.38" y="-1575.93" font-family="sans-serif" font-size="14.00">acset</text>
</g>
<!-- alethe -->
<g id="node3" class="node">
<title>alethe</title>
<polygon fill="none" stroke="black" points="607.62,-986.23 551.12,-986.23 551.12,-950.23 607.62,-950.23 607.62,-986.23"/>
<text text-anchor="middle" x="579.38" y="-963.93" font-family="sans-serif" font-size="14.00">alethe</text>
</g>
<!-- core -->
<g id="node6" class="node">
<title>core</title>
<polygon fill="#ffd6d6" stroke="black" points="1028.62,-604.23 974.62,-604.23 974.62,-568.23 1028.62,-568.23 1028.62,-604.23"/>
<text text-anchor="middle" x="1001.62" y="-581.93" font-family="sans-serif" font-size="14.00">core</text>
</g>
<!-- alethe&#45;&gt;core -->
<g id="edge16" class="edge">
<title>alethe&#45;&gt;core</title>
<path fill="none" stroke="black" d="M607.87,-955.08C614.48,-951.17 621.22,-946.51 626.75,-941.23 703.31,-868.16 700.04,-831.07 756,-741.23 772.44,-714.84 767.51,-700.4 792,-681.23 842.06,-642.04 871.97,-667.84 928.75,-639.23 943.54,-631.78 958.49,-621.33 970.9,-611.67"/>
<polygon fill="black" stroke="black" points="973.05,-614.43 978.67,-605.45 968.68,-608.97 973.05,-614.43"/>
</g>
<!-- hol&#45;eval -->
<g id="node20" class="node">
<title>hol&#45;eval</title>
<polygon fill="none" stroke="black" points="895.38,-726.23 825.38,-726.23 825.38,-690.23 895.38,-690.23 895.38,-726.23"/>
<text text-anchor="middle" x="860.38" y="-703.93" font-family="sans-serif" font-size="14.00">hol&#45;eval</text>
</g>
<!-- alethe&#45;&gt;hol&#45;eval -->
<g id="edge17" class="edge">
<title>alethe&#45;&gt;hol&#45;eval</title>
<path fill="none" stroke="black" d="M608.09,-968.01C647.09,-966.1 717.69,-956.57 756,-914.23 810.45,-854.06 740.09,-797.61 792,-735.23 797.96,-728.07 806.1,-722.79 814.66,-718.91"/>
<polygon fill="black" stroke="black" points="815.72,-722.25 823.78,-715.38 813.19,-715.73 815.72,-722.25"/>
</g>
<!-- alethe&#45;&gt;init -->
<g id="edge18" class="edge">
<title>alethe&#45;&gt;init</title>
<path fill="none" stroke="black" d="M607.59,-986.51C613.95,-990.91 620.64,-995.66 626.75,-1000.23 644.08,-1013.19 662.88,-1028.32 678.07,-1040.82"/>
<polygon fill="black" stroke="black" points="675.46,-1043.2 685.4,-1046.88 679.92,-1037.81 675.46,-1043.2"/>
</g>
<!-- sexp -->
<g id="node54" class="node">
<title>sexp</title>
<polygon fill="none" stroke="black" points="1028.62,-1311.23 974.62,-1311.23 974.62,-1275.23 1028.62,-1275.23 1028.62,-1311.23"/>
<text text-anchor="middle" x="1001.62" y="-1288.93" font-family="sans-serif" font-size="14.00">sexp</text>
</g>
<!-- alethe&#45;&gt;sexp -->
<g id="edge19" class="edge">
<title>alethe&#45;&gt;sexp</title>
<path fill="none" stroke="black" d="M580.65,-986.6C582.39,-1033.05 593.63,-1156 662.75,-1220.23 746.9,-1298.44 894.12,-1300.5 963.04,-1296.57"/>
<polygon fill="black" stroke="black" points="962.93,-1300.09 972.68,-1295.94 962.47,-1293.1 962.93,-1300.09"/>
</g>
<!-- smt -->
<g id="node57" class="node">
<title>smt</title>
<polygon fill="none" stroke="black" points="736.38,-1211.23 682.38,-1211.23 682.38,-1175.23 736.38,-1175.23 736.38,-1211.23"/>
<text text-anchor="middle" x="709.38" y="-1188.93" font-family="sans-serif" font-size="14.00">smt</text>
</g>
<!-- alethe&#45;&gt;smt -->
<g id="edge20" class="edge">
<title>alethe&#45;&gt;smt</title>
<path fill="none" stroke="black" d="M590.85,-986.65C613.22,-1025.97 665.78,-1118.37 692.37,-1165.1"/>
<polygon fill="black" stroke="black" points="689.2,-1166.61 697.19,-1173.57 695.28,-1163.14 689.2,-1166.61"/>
</g>
<!-- types -->
<g id="node62" class="node">
<title>types</title>
<polygon fill="#ffd6d6" stroke="black" points="1509.5,-864.23 1455.5,-864.23 1455.5,-828.23 1509.5,-828.23 1509.5,-864.23"/>
<text text-anchor="middle" x="1482.5" y="-841.93" font-family="sans-serif" font-size="14.00">types</text>
</g>
<!-- alethe&#45;&gt;types -->
<g id="edge21" class="edge">
<title>alethe&#45;&gt;types</title>
<path fill="none" stroke="black" d="M607.98,-973.48C645.28,-978.95 712.14,-982.85 756,-951.23 787.96,-928.2 760.25,-893.56 792,-870.23 867.22,-814.98 907.29,-846.23 1000.62,-846.23 1000.62,-846.23 1000.62,-846.23 1238.25,-846.23 1311.05,-846.23 1396.11,-846.23 1443.9,-846.23"/>
<polygon fill="black" stroke="black" points="1443.71,-849.73 1453.71,-846.23 1443.71,-842.73 1443.71,-849.73"/>
</g>
<!-- arrow -->
<g id="node4" class="node">
<title>arrow</title>
<polygon fill="none" stroke="black" points="606.38,-1902.23 552.38,-1902.23 552.38,-1866.23 606.38,-1866.23 606.38,-1902.23"/>
<text text-anchor="middle" x="579.38" y="-1879.93" font-family="sans-serif" font-size="14.00">arrow</text>
</g>
<!-- client&#45;&gt;hash -->
<g id="edge22" class="edge">
<title>client&#45;&gt;hash</title>
<path fill="none" stroke="black" d="M350.62,-2036.21C419.28,-2035.46 607.91,-2028.95 756,-1982.23 779.39,-1974.86 803.97,-1962.69 823.3,-1951.98"/>
<polygon fill="black" stroke="black" points="824.88,-1955.11 831.85,-1947.13 821.43,-1949.02 824.88,-1955.11"/>
</g>
<!-- client&#45;&gt;shell -->
<g id="edge23" class="edge">
<title>client&#45;&gt;shell</title>
<path fill="none" stroke="black" d="M330.14,-2017.87C339.75,-1987.91 358.51,-1926.51 369,-1873.23 394.78,-1742.34 370.19,-1704.02 405,-1575.23 412.07,-1549.09 424.58,-1520.97 434.54,-1500.73"/>
<polygon fill="black" stroke="black" points="437.57,-1502.49 438.94,-1491.98 431.32,-1499.34 437.57,-1502.49"/>
</g>
<!-- client&#45;&gt;store -->
<g id="edge24" class="edge">
<title>client&#45;&gt;store</title>
<path fill="none" stroke="black" d="M350.45,-2050.61C357.31,-2055.43 364.14,-2061.36 369,-2068.23 402.4,-2115.43 369.87,-2147.32 405,-2193.23 471.92,-2280.7 606.14,-2315.95 671.25,-2328.35"/>
<polygon fill="black" stroke="black" points="670.25,-2331.73 680.72,-2330.07 671.5,-2324.84 670.25,-2331.73"/>
</g>
<!-- pure -->
<g id="node45" class="node">
<title>pure</title>
<polygon fill="#ffd6d6" stroke="black" points="1264.25,-680.23 1210.25,-680.23 1210.25,-644.23 1264.25,-644.23 1264.25,-680.23"/>
<text text-anchor="middle" x="1237.25" y="-657.93" font-family="sans-serif" font-size="14.00">pure</text>
</g>
<!-- core&#45;&gt;pure -->
<g id="edge25" class="edge">
<title>core&#45;&gt;pure</title>
<path fill="none" stroke="black" d="M1028.97,-594.8C1070.62,-608.35 1151.81,-634.76 1199.27,-650.2"/>
<polygon fill="black" stroke="black" points="1197.97,-653.46 1208.56,-653.23 1200.13,-646.8 1197.97,-653.46"/>
</g>
<!-- pure&#45;eval -->
<g id="node46" class="node">
<title>pure&#45;eval</title>
<polygon fill="#ffd6d6" stroke="black" points="1154.25,-726.23 1074.5,-726.23 1074.5,-690.23 1154.25,-690.23 1154.25,-726.23"/>
<text text-anchor="middle" x="1114.38" y="-703.93" font-family="sans-serif" font-size="14.00">pure&#45;eval</text>
</g>
<!-- core&#45;&gt;pure&#45;eval -->
<g id="edge26" class="edge">
<title>core&#45;&gt;pure&#45;eval</title>
<path fill="none" stroke="black" d="M1019.21,-604.5C1037.72,-624.89 1067.86,-658.09 1089.04,-681.43"/>
<polygon fill="black" stroke="black" points="1086.35,-683.67 1095.66,-688.72 1091.53,-678.97 1086.35,-683.67"/>
</g>
<!-- core&#45;&gt;types -->
<g id="edge27" class="edge">
<title>core&#45;&gt;types</title>
<path fill="none" stroke="black" d="M1029.07,-582.81C1101.55,-574.99 1305.5,-563.76 1419.5,-666.23 1462.94,-705.28 1475.95,-776.19 1479.84,-816.37"/>
<polygon fill="black" stroke="black" points="1476.35,-816.6 1480.66,-826.27 1483.33,-816.02 1476.35,-816.6"/>
</g>
<!-- core&#45;test&#45;guest -->
<g id="node7" class="node">
<title>core&#45;test&#45;guest</title>
<polygon fill="none" stroke="black" points="121,-2328.23 0,-2328.23 0,-2292.23 121,-2292.23 121,-2328.23"/>
<text text-anchor="middle" x="60.5" y="-2305.93" font-family="sans-serif" font-size="14.00">core&#45;test&#45;guest</text>
</g>
<!-- crypto&#45;sig -->
<g id="node8" class="node">
<title>crypto&#45;sig</title>
<polygon fill="none" stroke="black" points="241.25,-2450.23 157,-2450.23 157,-2414.23 241.25,-2414.23 241.25,-2450.23"/>
<text text-anchor="middle" x="199.12" y="-2427.93" font-family="sans-serif" font-size="14.00">crypto&#45;sig</text>
</g>
<!-- decimal&#45;api -->
<g id="node9" class="node">
<title>decimal&#45;api</title>
<polygon fill="none" stroke="black" points="1284.25,-83.23 1190.25,-83.23 1190.25,-47.23 1284.25,-47.23 1284.25,-83.23"/>
<text text-anchor="middle" x="1237.25" y="-60.93" font-family="sans-serif" font-size="14.00">decimal&#45;api</text>
</g>
<!-- decimal&#45;api&#45;&gt;types -->
<g id="edge28" class="edge">
<title>decimal&#45;api&#45;&gt;types</title>
<path fill="none" stroke="black" d="M1284.74,-64.51C1326.82,-66.58 1387.02,-76.92 1419.5,-116.23 1464.78,-171.03 1478.26,-686.74 1480.95,-816.64"/>
<polygon fill="black" stroke="black" points="1477.44,-816.54 1481.14,-826.47 1484.44,-816.4 1477.44,-816.54"/>
</g>
<!-- egglog -->
<g id="node10" class="node">
<title>egglog</title>
<polygon fill="none" stroke="black" points="890.88,-1170.23 829.88,-1170.23 829.88,-1134.23 890.88,-1134.23 890.88,-1170.23"/>
<text text-anchor="middle" x="860.38" y="-1147.93" font-family="sans-serif" font-size="14.00">egglog</text>
</g>
<!-- egglog&#45;&gt;sexp -->
<g id="edge29" class="edge">
<title>egglog&#45;&gt;sexp</title>
<path fill="none" stroke="black" d="M891.29,-1162.33C903.79,-1167.53 917.9,-1174.8 928.75,-1184.23 954.56,-1206.67 974.92,-1240.53 987.28,-1264.55"/>
<polygon fill="black" stroke="black" points="984.13,-1266.06 991.71,-1273.46 990.39,-1262.95 984.13,-1266.06"/>
</g>
<!-- egglog&#45;&gt;types -->
<g id="edge30" class="edge">
<title>egglog&#45;&gt;types</title>
<path fill="none" stroke="black" d="M891.23,-1150.67C938.4,-1148.34 1033.05,-1144.23 1113.38,-1144.23 1113.38,-1144.23 1113.38,-1144.23 1238.25,-1144.23 1376.13,-1144.23 1449.83,-950.42 1473.19,-875.4"/>
<polygon fill="black" stroke="black" points="1476.52,-876.46 1476.07,-865.87 1469.82,-874.43 1476.52,-876.46"/>
</g>
<!-- forsp -->
<g id="node11" class="node">
<title>forsp</title>
<polygon fill="none" stroke="black" points="477.5,-1620.23 423.5,-1620.23 423.5,-1584.23 477.5,-1584.23 477.5,-1620.23"/>
<text text-anchor="middle" x="450.5" y="-1597.93" font-family="sans-serif" font-size="14.00">forsp</text>
</g>
<!-- forsp&#45;&gt;hash -->
<g id="edge31" class="edge">
<title>forsp&#45;&gt;hash</title>
<path fill="none" stroke="black" d="M477.9,-1607.84C514.4,-1616.62 580.93,-1636.42 626.75,-1672.23 648.33,-1689.1 641.62,-1704.82 662.75,-1722.23 697.97,-1751.26 721.74,-1735.09 756,-1765.23 799.93,-1803.89 831.71,-1865.7 847.69,-1901.69"/>
<polygon fill="black" stroke="black" points="844.36,-1902.79 851.54,-1910.58 850.78,-1900.02 844.36,-1902.79"/>
</g>
<!-- repl&#45;core -->
<g id="node51" class="node">
<title>repl&#45;core</title>
<polygon fill="none" stroke="black" points="618.5,-1322.23 540.25,-1322.23 540.25,-1286.23 618.5,-1286.23 618.5,-1322.23"/>
<text text-anchor="middle" x="579.38" y="-1299.93" font-family="sans-serif" font-size="14.00">repl&#45;core</text>
</g>
<!-- forsp&#45;&gt;repl&#45;core -->
<g id="edge32" class="edge">
<title>forsp&#45;&gt;repl&#45;core</title>
<path fill="none" stroke="black" d="M477.56,-1587.79C484.36,-1582.96 491.14,-1577.05 496,-1570.23 528.33,-1524.9 515.57,-1503.44 532,-1450.23 544.54,-1409.63 559.49,-1362.83 568.96,-1333.39"/>
<polygon fill="black" stroke="black" points="572.23,-1334.67 571.96,-1324.08 565.56,-1332.53 572.23,-1334.67"/>
</g>
<!-- forsp&#45;&gt;sexp -->
<g id="edge33" class="edge">
<title>forsp&#45;&gt;sexp</title>
<path fill="none" stroke="black" d="M477.99,-1585.55C484.48,-1580.57 491,-1574.69 496,-1568.23 521.14,-1535.81 501.6,-1510.78 532,-1483.23 621.7,-1401.97 675.9,-1436.44 792,-1402.23 852.51,-1384.41 874.17,-1395.86 928.75,-1364.23 948.29,-1352.91 966.35,-1335.02 979.48,-1320.03"/>
<polygon fill="black" stroke="black" points="981.84,-1322.66 985.64,-1312.77 976.5,-1318.14 981.84,-1322.66"/>
</g>
<!-- fuse&#45;&gt;hash -->
<g id="edge34" class="edge">
<title>fuse&#45;&gt;hash</title>
<path fill="none" stroke="black" d="M606.87,-2122.2C643.18,-2112.98 709.24,-2092.71 756,-2058.23 793.27,-2030.76 824.78,-1986.76 842.89,-1958.18"/>
<polygon fill="black" stroke="black" points="845.86,-1960.03 848.15,-1949.69 839.91,-1956.35 845.86,-1960.03"/>
</g>
<!-- fuse&#45;&gt;object -->
<g id="edge35" class="edge">
<title>fuse&#45;&gt;object</title>
<path fill="none" stroke="black" d="M606.73,-2115.38C614.33,-2110.42 621.88,-2104.03 626.75,-2096.23 683.64,-2005.12 622.83,-1956.96 662.75,-1857.23 668.15,-1843.73 676.85,-1830.32 685.21,-1819.22"/>
<polygon fill="black" stroke="black" points="687.71,-1821.71 691.13,-1811.68 682.2,-1817.38 687.71,-1821.71"/>
</g>
<!-- fuse&#45;&gt;store -->
<g id="edge36" class="edge">
<title>fuse&#45;&gt;store</title>
<path fill="none" stroke="black" d="M591.73,-2146.51C614.22,-2182.71 664.53,-2263.67 691.13,-2306.48"/>
<polygon fill="black" stroke="black" points="687.99,-2308.06 696.24,-2314.71 693.94,-2304.37 687.99,-2308.06"/>
</g>
<!-- git&#45;&gt;hash -->
<g id="edge37" class="edge">
<title>git&#45;&gt;hash</title>
<path fill="none" stroke="black" d="M477.8,-2167.58C512.49,-2168.68 575.19,-2168.33 626.75,-2155.23 657.44,-2147.44 732.25,-2116.18 756,-2095.23 799.88,-2056.53 831.68,-1994.73 847.68,-1958.76"/>
<polygon fill="black" stroke="black" points="850.77,-1960.44 851.53,-1949.87 844.34,-1957.66 850.77,-1960.44"/>
</g>
<!-- git&#45;&gt;object -->
<g id="edge38" class="edge">
<title>git&#45;&gt;object</title>
<path fill="none" stroke="black" d="M464.34,-2147.74C493.44,-2105.8 566.53,-2000.2 626.75,-1911.23 642.92,-1887.35 646.46,-1881.04 662.75,-1857.23 671.2,-1844.88 680.7,-1831.31 688.82,-1819.78"/>
<polygon fill="black" stroke="black" points="691.49,-1822.07 694.4,-1811.88 685.77,-1818.03 691.49,-1822.07"/>
</g>
<!-- sqlite -->
<g id="node59" class="node">
<title>sqlite</title>
<polygon fill="none" stroke="black" points="887.38,-2352.23 833.38,-2352.23 833.38,-2316.23 887.38,-2316.23 887.38,-2352.23"/>
<text text-anchor="middle" x="860.38" y="-2329.93" font-family="sans-serif" font-size="14.00">sqlite</text>
</g>
<!-- git&#45;&gt;sqlite -->
<g id="edge39" class="edge">
<title>git&#45;&gt;sqlite</title>
<path fill="none" stroke="black" d="M477.94,-2174.33C512.53,-2185.14 574.83,-2205.36 626.75,-2226.23 697.32,-2254.6 777.27,-2293.19 822.68,-2315.74"/>
<polygon fill="black" stroke="black" points="821.04,-2318.83 831.56,-2320.16 824.17,-2312.57 821.04,-2318.83"/>
</g>
<!-- git&#45;&gt;store -->
<g id="edge40" class="edge">
<title>git&#45;&gt;store</title>
<path fill="none" stroke="black" d="M477.5,-2184.68C483.6,-2189.08 490.06,-2193.79 496,-2198.23 512.23,-2210.37 515.33,-2214.7 532,-2226.23 579.23,-2258.91 636.3,-2292.92 672.47,-2313.84"/>
<polygon fill="black" stroke="black" points="670.37,-2316.66 680.78,-2318.62 673.86,-2310.6 670.37,-2316.66"/>
</g>
<!-- grammar -->
<g id="node14" class="node">
<title>grammar</title>
<polygon fill="none" stroke="black" points="1038.5,-1032.23 964.75,-1032.23 964.75,-996.23 1038.5,-996.23 1038.5,-1032.23"/>
<text text-anchor="middle" x="1001.62" y="-1009.93" font-family="sans-serif" font-size="14.00">grammar</text>
</g>
<!-- grammar&#45;&gt;types -->
<g id="edge41" class="edge">
<title>grammar&#45;&gt;types</title>
<path fill="none" stroke="black" d="M1038.88,-1016.29C1115.65,-1018.87 1297.57,-1015.47 1419.5,-936.23 1442.16,-921.51 1458.79,-895.32 1469.09,-874.97"/>
<polygon fill="black" stroke="black" points="1472.21,-876.56 1473.38,-866.03 1465.9,-873.54 1472.21,-876.56"/>
</g>
<!-- graph -->
<g id="node15" class="node">
<title>graph</title>
<polygon fill="none" stroke="black" points="736.38,-1902.23 682.38,-1902.23 682.38,-1866.23 736.38,-1866.23 736.38,-1902.23"/>
<text text-anchor="middle" x="709.38" y="-1879.93" font-family="sans-serif" font-size="14.00">graph</text>
</g>
<!-- graph&#45;&gt;hash -->
<g id="edge42" class="edge">
<title>graph&#45;&gt;hash</title>
<path fill="none" stroke="black" d="M736.67,-1892.35C760.43,-1899.69 795.65,-1910.56 822.27,-1918.78"/>
<polygon fill="black" stroke="black" points="821.06,-1922.07 831.65,-1921.67 823.12,-1915.38 821.06,-1922.07"/>
</g>
<!-- parse -->
<g id="node41" class="node">
<title>parse</title>
<polygon fill="none" stroke="black" points="1141.38,-1574.23 1087.38,-1574.23 1087.38,-1538.23 1141.38,-1538.23 1141.38,-1574.23"/>
<text text-anchor="middle" x="1114.38" y="-1551.93" font-family="sans-serif" font-size="14.00">parse</text>
</g>
<!-- graph&#45;&gt;parse -->
<g id="edge43" class="edge">
<title>graph&#45;&gt;parse</title>
<path fill="none" stroke="black" d="M736.61,-1875.57C797.49,-1854.25 949.89,-1793.7 1038.5,-1695.23 1068.25,-1662.17 1090.37,-1615.17 1102.58,-1585.19"/>
<polygon fill="black" stroke="black" points="1105.79,-1586.59 1106.21,-1576.01 1099.28,-1584.02 1105.79,-1586.59"/>
</g>
<!-- rand -->
<g id="node49" class="node">
<title>rand</title>
<polygon fill="none" stroke="black" points="1028.62,-1948.23 974.62,-1948.23 974.62,-1912.23 1028.62,-1912.23 1028.62,-1948.23"/>
<text text-anchor="middle" x="1001.62" y="-1925.93" font-family="sans-serif" font-size="14.00">rand</text>
</g>
<!-- hash&#45;&gt;rand -->
<g id="edge44" class="edge">
<title>hash&#45;&gt;rand</title>
<path fill="none" stroke="black" d="M887.57,-1930.23C908.86,-1930.23 939.19,-1930.23 963.07,-1930.23"/>
<polygon fill="black" stroke="black" points="963.04,-1933.73 973.04,-1930.23 963.04,-1926.73 963.04,-1933.73"/>
</g>
<!-- haskell -->
<g id="node17" class="node">
<title>haskell</title>
<polygon fill="none" stroke="black" points="481.75,-620.23 419.25,-620.23 419.25,-584.23 481.75,-584.23 481.75,-620.23"/>
<text text-anchor="middle" x="450.5" y="-597.93" font-family="sans-serif" font-size="14.00">haskell</text>
</g>
<!-- hol&#45;api -->
<g id="node19" class="node">
<title>hol&#45;api</title>
<polygon fill="none" stroke="black" points="610.62,-574.23 548.12,-574.23 548.12,-538.23 610.62,-538.23 610.62,-574.23"/>
<text text-anchor="middle" x="579.38" y="-551.93" font-family="sans-serif" font-size="14.00">hol&#45;api</text>
</g>
<!-- haskell&#45;&gt;hol&#45;api -->
<g id="edge45" class="edge">
<title>haskell&#45;&gt;hol&#45;api</title>
<path fill="none" stroke="black" d="M482.21,-591.1C498.73,-585.11 519.33,-577.64 537.22,-571.16"/>
<polygon fill="black" stroke="black" points="538.31,-574.48 546.52,-567.78 535.93,-567.9 538.31,-574.48"/>
</g>
<!-- haskell&#45;&gt;hol&#45;eval -->
<g id="edge46" class="edge">
<title>haskell&#45;&gt;hol&#45;eval</title>
<path fill="none" stroke="black" d="M482.16,-610.2C553.36,-628.71 730.22,-674.67 813.99,-696.44"/>
<polygon fill="black" stroke="black" points="812.91,-699.77 823.47,-698.9 814.67,-693 812.91,-699.77"/>
</g>
<!-- haskell&#45;&gt;init -->
<g id="edge47" class="edge">
<title>haskell&#45;&gt;init</title>
<path fill="none" stroke="black" d="M452.96,-620.34C458.86,-689.57 483.05,-936.53 532,-995.23 541.36,-1006.46 622.27,-1036.16 671.19,-1053.38"/>
<polygon fill="black" stroke="black" points="669.97,-1056.67 680.56,-1056.67 672.28,-1050.06 669.97,-1056.67"/>
</g>
<!-- haskell&#45;&gt;types -->
<g id="edge48" class="edge">
<title>haskell&#45;&gt;types</title>
<path fill="none" stroke="black" d="M464.96,-583.85C474.11,-571.04 486.29,-553.41 496,-537.23 601.01,-362.3 504.34,-130.23 708.38,-130.23 708.38,-130.23 708.38,-130.23 1238.25,-130.23 1339.77,-130.23 1369.78,-180.72 1419.5,-269.23 1472.96,-364.4 1480.34,-711.87 1481.34,-816.33"/>
<polygon fill="black" stroke="black" points="1477.84,-816.35 1481.43,-826.32 1484.84,-816.29 1477.84,-816.35"/>
</g>
<!-- hol&#45;&gt;core -->
<g id="edge49" class="edge">
<title>hol&#45;&gt;core</title>
<path fill="none" stroke="black" d="M887.57,-548.89C909.06,-555.99 939.74,-566.12 963.72,-574.04"/>
<polygon fill="black" stroke="black" points="962.52,-577.33 973.11,-577.15 964.72,-570.69 962.52,-577.33"/>
</g>
<!-- hol&#45;api&#45;&gt;core -->
<g id="edge50" class="edge">
<title>hol&#45;api&#45;&gt;core</title>
<path fill="none" stroke="black" d="M598.26,-537.93C651.81,-485.4 814.18,-342.63 928.75,-418.23 975.54,-449.11 991.98,-517.41 997.68,-556.76"/>
<polygon fill="black" stroke="black" points="994.18,-556.99 998.93,-566.47 1001.12,-556.1 994.18,-556.99"/>
</g>
<!-- hol&#45;api&#45;&gt;hol&#45;eval -->
<g id="edge51" class="edge">
<title>hol&#45;api&#45;&gt;hol&#45;eval</title>
<path fill="none" stroke="black" d="M611.03,-572.94C660.71,-600 758.95,-653.52 815.85,-684.52"/>
<polygon fill="black" stroke="black" points="813.85,-687.42 824.31,-689.13 817.2,-681.27 813.85,-687.42"/>
</g>
<!-- inductive -->
<g id="node21" class="node">
<title>inductive</title>
<polygon fill="none" stroke="black" points="898.75,-463.23 822,-463.23 822,-427.23 898.75,-427.23 898.75,-463.23"/>
<text text-anchor="middle" x="860.38" y="-440.93" font-family="sans-serif" font-size="14.00">inductive</text>
</g>
<!-- hol&#45;api&#45;&gt;inductive -->
<g id="edge52" class="edge">
<title>hol&#45;api&#45;&gt;inductive</title>
<path fill="none" stroke="black" d="M611.03,-544.04C659.3,-524.83 753.45,-487.38 810.94,-464.5"/>
<polygon fill="black" stroke="black" points="812.17,-467.78 820.17,-460.83 809.58,-461.28 812.17,-467.78"/>
</g>
<!-- hol&#45;api&#45;&gt;init -->
<g id="edge53" class="edge">
<title>hol&#45;api&#45;&gt;init</title>
<path fill="none" stroke="black" d="M585.01,-574.69C604.18,-651.07 677.41,-942.85 701,-1036.86"/>
<polygon fill="black" stroke="black" points="697.55,-1037.49 703.38,-1046.34 704.34,-1035.79 697.55,-1037.49"/>
</g>
<!-- logic&#45;api -->
<g id="node33" class="node">
<title>logic&#45;api</title>
<polygon fill="none" stroke="black" points="897.62,-780.23 823.12,-780.23 823.12,-744.23 897.62,-744.23 897.62,-780.23"/>
<text text-anchor="middle" x="860.38" y="-757.93" font-family="sans-serif" font-size="14.00">logic&#45;api</text>
</g>
<!-- hol&#45;api&#45;&gt;logic&#45;api -->
<g id="edge54" class="edge">
<title>hol&#45;api&#45;&gt;logic&#45;api</title>
<path fill="none" stroke="black" d="M597,-574.51C613.14,-591.87 638.66,-618.36 662.75,-639.23 716.83,-686.09 729.55,-700.3 792,-735.23 798.5,-738.87 805.6,-742.27 812.66,-745.34"/>
<polygon fill="black" stroke="black" points="810.94,-748.42 821.52,-749.02 813.63,-741.95 810.94,-748.42"/>
</g>
<!-- hol&#45;api&#45;&gt;pure -->
<g id="edge55" class="edge">
<title>hol&#45;api&#45;&gt;pure</title>
<path fill="none" stroke="black" d="M587.62,-537.75C599.54,-509.33 625.73,-454.61 662.75,-420.23 734.6,-353.52 761.33,-320.23 859.38,-320.23 859.38,-320.23 859.38,-320.23 1002.62,-320.23 1153.4,-320.23 1213.92,-549.69 1230.88,-632.7"/>
<polygon fill="black" stroke="black" points="1227.42,-633.22 1232.78,-642.36 1234.29,-631.87 1227.42,-633.22"/>
</g>
<!-- hol&#45;api&#45;&gt;types -->
<g id="edge56" class="edge">
<title>hol&#45;api&#45;&gt;types</title>
<path fill="none" stroke="black" d="M582.34,-537.86C587.69,-496.76 606.11,-396.57 662.75,-339.23 776.17,-224.43 839.24,-206.23 1000.62,-206.23 1000.62,-206.23 1000.62,-206.23 1238.25,-206.23 1370.67,-206.23 1456.85,-691.05 1476.97,-816.75"/>
<polygon fill="black" stroke="black" points="1473.46,-816.94 1478.48,-826.27 1480.37,-815.85 1473.46,-816.94"/>
</g>
<!-- hol&#45;eval&#45;&gt;core -->
<g id="edge57" class="edge">
<title>hol&#45;eval&#45;&gt;core</title>
<path fill="none" stroke="black" d="M895.67,-695.56C906.85,-690.52 918.91,-684.04 928.75,-676.23 950.77,-658.78 970.27,-633.38 983.38,-614"/>
<polygon fill="black" stroke="black" points="986.23,-616.04 988.81,-605.76 980.39,-612.19 986.23,-616.04"/>
</g>
<!-- hol&#45;eval&#45;&gt;pure -->
<g id="edge58" class="edge">
<title>hol&#45;eval&#45;&gt;pure</title>
<path fill="none" stroke="black" d="M895.69,-703.79C937.8,-698.36 1011.38,-688.94 1074.5,-681.23 1116.99,-676.05 1165.8,-670.35 1198.59,-666.56"/>
<polygon fill="black" stroke="black" points="1198.87,-670.05 1208.4,-665.43 1198.07,-663.1 1198.87,-670.05"/>
</g>
<!-- hol&#45;eval&#45;&gt;pure&#45;eval -->
<g id="edge59" class="edge">
<title>hol&#45;eval&#45;&gt;pure&#45;eval</title>
<path fill="none" stroke="black" d="M895.62,-708.23C938.73,-708.23 1013.13,-708.23 1062.79,-708.23"/>
<polygon fill="black" stroke="black" points="1062.72,-711.73 1072.72,-708.23 1062.72,-704.73 1062.72,-711.73"/>
</g>
<!-- hol&#45;eval&#45;&gt;sexp -->
<g id="edge60" class="edge">
<title>hol&#45;eval&#45;&gt;sexp</title>
<path fill="none" stroke="black" d="M895.65,-714.37C907.93,-718.3 920.71,-724.73 928.75,-735.23 970.37,-789.6 955.92,-973.34 964.75,-1041.23 975.23,-1121.86 989.18,-1216.76 996.19,-1263.77"/>
<polygon fill="black" stroke="black" points="992.7,-1264.05 997.64,-1273.42 999.62,-1263.01 992.7,-1264.05"/>
</g>
<!-- hol&#45;eval&#45;&gt;types -->
<g id="edge61" class="edge">
<title>hol&#45;eval&#45;&gt;types</title>
<path fill="none" stroke="black" d="M895.8,-721.51C962.11,-746.99 1102.04,-800.23 1113.38,-800.23 1113.38,-800.23 1113.38,-800.23 1238.25,-800.23 1312.3,-800.23 1396.86,-821.07 1444.24,-834.7"/>
<polygon fill="black" stroke="black" points="1443.14,-838.02 1453.72,-837.48 1445.11,-831.3 1443.14,-838.02"/>
</g>
<!-- init&#45;&gt;core -->
<g id="edge62" class="edge">
<title>init&#45;&gt;core</title>
<path fill="none" stroke="black" d="M736.48,-1052.78C743.79,-1047.86 751.07,-1041.64 756,-1034.23 797.37,-972.13 748.27,-930.7 792,-870.23 833.39,-812.99 883.89,-843.8 928.75,-789.23 971.42,-737.34 989.6,-658.29 996.65,-615.76"/>
<polygon fill="black" stroke="black" points="1000.08,-616.46 998.15,-606.04 993.16,-615.39 1000.08,-616.46"/>
</g>
<!-- init&#45;&gt;grammar -->
<g id="edge63" class="edge">
<title>init&#45;&gt;grammar</title>
<path fill="none" stroke="black" d="M736.79,-1055.55C752.57,-1049.57 773.15,-1042.5 792,-1038.23 846.44,-1025.92 910.39,-1019.75 952.99,-1016.78"/>
<polygon fill="black" stroke="black" points="953.16,-1020.28 962.91,-1016.12 952.7,-1013.29 953.16,-1020.28"/>
</g>
<!-- init&#45;&gt;hash -->
<g id="edge64" class="edge">
<title>init&#45;&gt;hash</title>
<path fill="none" stroke="black" d="M721.27,-1084.65C732.21,-1104.17 748.49,-1136.25 756,-1166.23 817.8,-1412.89 741.63,-1487.99 792,-1737.23 804.14,-1797.29 830.55,-1864.12 846.46,-1901.27"/>
<polygon fill="black" stroke="black" points="843.24,-1902.64 850.43,-1910.42 849.66,-1899.85 843.24,-1902.64"/>
</g>
<!-- init&#45;&gt;hol -->
<g id="edge65" class="edge">
<title>init&#45;&gt;hol</title>
<path fill="none" stroke="black" d="M712.7,-1047.78C720.13,-991.59 745.54,-818.07 792,-681.23 805.85,-640.46 828.42,-596.04 843.58,-568.18"/>
<polygon fill="black" stroke="black" points="846.5,-570.12 848.26,-559.67 840.37,-566.74 846.5,-570.12"/>
</g>
<!-- init&#45;&gt;hol&#45;eval -->
<g id="edge66" class="edge">
<title>init&#45;&gt;hol&#45;eval</title>
<path fill="none" stroke="black" d="M736.45,-1053.38C743.94,-1048.42 751.33,-1042.04 756,-1034.23 824.76,-919.4 710.49,-841.4 792,-735.23 797.73,-727.77 805.84,-722.37 814.47,-718.45"/>
<polygon fill="black" stroke="black" points="815.61,-721.76 823.7,-714.92 813.11,-715.22 815.61,-721.76"/>
</g>
<!-- init&#45;&gt;inductive -->
<g id="edge67" class="edge">
<title>init&#45;&gt;inductive</title>
<path fill="none" stroke="black" d="M711.55,-1047.88C717.18,-963.28 743.23,-610.78 792,-513.23 800.03,-497.17 813.29,-482.55 825.93,-471.02"/>
<polygon fill="black" stroke="black" points="828.12,-473.75 833.36,-464.54 823.52,-468.47 828.12,-473.75"/>
</g>
<!-- k -->
<g id="node25" class="node">
<title>k</title>
<polygon fill="none" stroke="black" points="887.38,-1116.23 833.38,-1116.23 833.38,-1080.23 887.38,-1080.23 887.38,-1116.23"/>
<text text-anchor="middle" x="860.38" y="-1093.93" font-family="sans-serif" font-size="14.00">k</text>
</g>
<!-- init&#45;&gt;k -->
<g id="edge68" class="edge">
<title>init&#45;&gt;k</title>
<path fill="none" stroke="black" d="M736.67,-1071.88C760.32,-1076.96 795.33,-1084.48 821.91,-1090.19"/>
<polygon fill="black" stroke="black" points="821.1,-1093.59 831.61,-1092.27 822.57,-1086.75 821.1,-1093.59"/>
</g>
<!-- init&#45;&gt;logic&#45;api -->
<g id="edge69" class="edge">
<title>init&#45;&gt;logic&#45;api</title>
<path fill="none" stroke="black" d="M736.79,-1052.98C744.11,-1048.06 751.32,-1041.8 756,-1034.23 812.75,-942.51 727.75,-880.87 792,-794.23 797.32,-787.07 804.65,-781.44 812.53,-777.04"/>
<polygon fill="black" stroke="black" points="813.87,-780.28 821.34,-772.77 810.81,-773.99 813.87,-780.28"/>
</g>
<!-- metamath -->
<g id="node35" class="node">
<title>metamath</title>
<polygon fill="none" stroke="black" points="900.62,-1490.23 820.12,-1490.23 820.12,-1454.23 900.62,-1454.23 900.62,-1490.23"/>
<text text-anchor="middle" x="860.38" y="-1467.93" font-family="sans-serif" font-size="14.00">metamath</text>
</g>
<!-- init&#45;&gt;metamath -->
<g id="edge70" class="edge">
<title>init&#45;&gt;metamath</title>
<path fill="none" stroke="black" d="M719.35,-1084.42C729,-1104.28 744.48,-1137.13 756,-1166.23 795.61,-1266.3 833.93,-1388.31 850.63,-1443.12"/>
<polygon fill="black" stroke="black" points="847.26,-1444.06 853.51,-1452.62 853.96,-1442.03 847.26,-1444.06"/>
</g>
<!-- init&#45;&gt;sexp -->
<g id="edge71" class="edge">
<title>init&#45;&gt;sexp</title>
<path fill="none" stroke="black" d="M718.53,-1084.63C730.74,-1109.98 756.23,-1155.23 792,-1179.23 843.92,-1214.07 875.15,-1180.04 928.75,-1212.23 950.78,-1225.47 969.77,-1247.66 982.7,-1265.47"/>
<polygon fill="black" stroke="black" points="979.77,-1267.4 988.36,-1273.59 985.51,-1263.39 979.77,-1267.4"/>
</g>
<!-- spectec -->
<g id="node58" class="node">
<title>spectec</title>
<polygon fill="none" stroke="black" points="895,-986.23 825.75,-986.23 825.75,-950.23 895,-950.23 895,-986.23"/>
<text text-anchor="middle" x="860.38" y="-963.93" font-family="sans-serif" font-size="14.00">spectec</text>
</g>
<!-- init&#45;&gt;spectec -->
<g id="edge72" class="edge">
<title>init&#45;&gt;spectec</title>
<path fill="none" stroke="black" d="M736.44,-1048.93C742.96,-1044.33 749.85,-1039.25 756,-1034.23 773.05,-1020.32 773.84,-1012.66 792,-1000.23 799.13,-995.35 807.13,-990.84 815.05,-986.84"/>
<polygon fill="black" stroke="black" points="816.49,-990.03 823.98,-982.54 813.45,-983.72 816.49,-990.03"/>
</g>
<!-- init&#45;&gt;types -->
<g id="edge73" class="edge">
<title>init&#45;&gt;types</title>
<path fill="none" stroke="black" d="M727.7,-1047.86C737.05,-1037.21 748.22,-1023.18 756,-1009.23 779.21,-967.61 754.69,-937.88 792,-908.23 865.07,-850.17 907.29,-884.23 1000.62,-884.23 1000.62,-884.23 1000.62,-884.23 1238.25,-884.23 1311.89,-884.23 1396.59,-867.02 1444.11,-855.76"/>
<polygon fill="black" stroke="black" points="1444.71,-859.22 1453.6,-853.47 1443.06,-852.42 1444.71,-859.22"/>
</g>
<!-- json -->
<g id="node23" class="node">
<title>json</title>
<polygon fill="none" stroke="black" points="887.38,-2406.23 833.38,-2406.23 833.38,-2370.23 887.38,-2370.23 887.38,-2406.23"/>
<text text-anchor="middle" x="860.38" y="-2383.93" font-family="sans-serif" font-size="14.00">json</text>
</g>
<!-- json&#45;api -->
<g id="node24" class="node">
<title>json&#45;api</title>
<polygon fill="none" stroke="black" points="744.38,-79.23 674.38,-79.23 674.38,-43.23 744.38,-43.23 744.38,-79.23"/>
<text text-anchor="middle" x="709.38" y="-56.93" font-family="sans-serif" font-size="14.00">json&#45;api</text>
</g>
<!-- json&#45;api&#45;&gt;decimal&#45;api -->
<g id="edge74" class="edge">
<title>json&#45;api&#45;&gt;decimal&#45;api</title>
<path fill="none" stroke="black" d="M744.52,-59.19C759.13,-58.41 776.4,-57.62 792,-57.23 930.65,-53.84 1093.67,-59.16 1178.45,-62.63"/>
<polygon fill="black" stroke="black" points="1178.23,-66.12 1188.37,-63.04 1178.52,-59.13 1178.23,-66.12"/>
</g>
<!-- json&#45;api&#45;&gt;inductive -->
<g id="edge75" class="edge">
<title>json&#45;api&#45;&gt;inductive</title>
<path fill="none" stroke="black" d="M717.46,-79.5C741.34,-141.03 818.97,-341.09 848.15,-416.3"/>
<polygon fill="black" stroke="black" points="844.82,-417.39 851.7,-425.45 851.34,-414.86 844.82,-417.39"/>
</g>
<!-- parsing&#45;api -->
<g id="node42" class="node">
<title>parsing&#45;api</title>
<polygon fill="none" stroke="black" points="906.25,-102.23 814.5,-102.23 814.5,-66.23 906.25,-66.23 906.25,-102.23"/>
<text text-anchor="middle" x="860.38" y="-79.93" font-family="sans-serif" font-size="14.00">parsing&#45;api</text>
</g>
<!-- json&#45;api&#45;&gt;parsing&#45;api -->
<g id="edge76" class="edge">
<title>json&#45;api&#45;&gt;parsing&#45;api</title>
<path fill="none" stroke="black" d="M744.56,-66.51C761.8,-69.17 783.15,-72.47 802.76,-75.49"/>
<polygon fill="black" stroke="black" points="802.14,-78.94 812.55,-77.01 803.21,-72.02 802.14,-78.94"/>
</g>
<!-- json&#45;api&#45;&gt;types -->
<g id="edge77" class="edge">
<title>json&#45;api&#45;&gt;types</title>
<path fill="none" stroke="black" d="M744.73,-49.18C798.57,-31.4 906.4,-0.23 1000.62,-0.23 1000.62,-0.23 1000.62,-0.23 1238.25,-0.23 1323.68,-0.23 1367.44,3.5 1419.5,-64.23 1466.07,-124.84 1478.64,-680.5 1481.03,-816.37"/>
<polygon fill="black" stroke="black" points="1477.53,-816.38 1481.2,-826.32 1484.53,-816.26 1477.53,-816.38"/>
</g>
<!-- k&#45;&gt;grammar -->
<g id="edge78" class="edge">
<title>k&#45;&gt;grammar</title>
<path fill="none" stroke="black" d="M887.87,-1087.01C900.52,-1081.3 915.72,-1073.96 928.75,-1066.23 942.27,-1058.23 956.42,-1048.34 968.56,-1039.35"/>
<polygon fill="black" stroke="black" points="970.31,-1042.42 976.2,-1033.61 966.1,-1036.82 970.31,-1042.42"/>
</g>
<!-- k&#45;&gt;parse -->
<g id="edge79" class="edge">
<title>k&#45;&gt;parse</title>
<path fill="none" stroke="black" d="M887.66,-1105.19C900.85,-1109.53 916.57,-1116.06 928.75,-1125.23 992.2,-1172.99 1003.46,-1194.97 1038.5,-1266.23 1082.34,-1355.38 1102.45,-1472.98 1109.83,-1526.92"/>
<polygon fill="black" stroke="black" points="1106.32,-1527.07 1111.09,-1536.52 1113.26,-1526.15 1106.32,-1527.07"/>
</g>
<!-- k&#45;&gt;sexp -->
<g id="edge80" class="edge">
<title>k&#45;&gt;sexp</title>
<path fill="none" stroke="black" d="M887.73,-1103.66C901.42,-1107.64 917.57,-1114.31 928.75,-1125.23 968.06,-1163.65 987.08,-1227.01 995.27,-1263.96"/>
<polygon fill="black" stroke="black" points="991.79,-1264.41 997.25,-1273.48 998.64,-1262.98 991.79,-1264.41"/>
</g>
<!-- kernel -->
<g id="node26" class="node">
<title>kernel</title>
<polygon fill="none" stroke="black" points="608,-1528.23 550.75,-1528.23 550.75,-1492.23 608,-1492.23 608,-1528.23"/>
<text text-anchor="middle" x="579.38" y="-1505.93" font-family="sans-serif" font-size="14.00">kernel</text>
</g>
<!-- kernel&#45;&gt;hash -->
<g id="edge81" class="edge">
<title>kernel&#45;&gt;hash</title>
<path fill="none" stroke="black" d="M608.21,-1524.69C615.14,-1529.45 621.95,-1535.33 626.75,-1542.23 663.92,-1595.69 622.22,-1633.28 662.75,-1684.23 691.76,-1720.72 722.94,-1699.37 756,-1732.23 805.39,-1781.34 836.36,-1859.01 850.45,-1900.98"/>
<polygon fill="black" stroke="black" points="847.09,-1901.96 853.51,-1910.38 853.74,-1899.79 847.09,-1901.96"/>
</g>
<!-- kernel&#45;&gt;init -->
<g id="edge82" class="edge">
<title>kernel&#45;&gt;init</title>
<path fill="none" stroke="black" d="M585.42,-1491.74C594.2,-1459.32 612.71,-1390.1 626.75,-1331.23 644.17,-1258.22 639.04,-1237.45 662.75,-1166.23 671.04,-1141.33 683.59,-1114.33 693.43,-1094.66"/>
<polygon fill="black" stroke="black" points="696.47,-1096.4 697.89,-1085.9 690.24,-1093.23 696.47,-1096.4"/>
</g>
<!-- kernel&#45;&gt;object -->
<g id="edge83" class="edge">
<title>kernel&#45;&gt;object</title>
<path fill="none" stroke="black" d="M608.45,-1524.53C615.37,-1529.29 622.13,-1535.21 626.75,-1542.23 671.6,-1610.38 631.92,-1646.7 662.75,-1722.23 668.85,-1737.18 678.26,-1752.35 686.96,-1764.74"/>
<polygon fill="black" stroke="black" points="684.1,-1766.76 692.82,-1772.79 689.77,-1762.64 684.1,-1766.76"/>
</g>
<!-- kernel&#45;&gt;sexp -->
<g id="edge84" class="edge">
<title>kernel&#45;&gt;sexp</title>
<path fill="none" stroke="black" d="M608.44,-1501.6C690.94,-1476.21 927.08,-1403.49 928.75,-1402.23 956.54,-1381.36 976.82,-1346.4 988.62,-1321.7"/>
<polygon fill="black" stroke="black" points="991.68,-1323.42 992.67,-1312.87 985.32,-1320.5 991.68,-1323.42"/>
</g>
<!-- kernel&#45;&gt;store -->
<g id="edge85" class="edge">
<title>kernel&#45;&gt;store</title>
<path fill="none" stroke="black" d="M583.08,-1528.64C590.62,-1580.34 612.28,-1731.34 626.75,-1857.23 645.81,-2023.13 620.39,-2069.71 662.75,-2231.23 669.65,-2257.53 682.51,-2285.64 692.82,-2305.84"/>
<polygon fill="black" stroke="black" points="689.65,-2307.33 697.38,-2314.57 695.85,-2304.08 689.65,-2307.33"/>
</g>
<!-- kernel&#45;sat -->
<g id="node27" class="node">
<title>kernel&#45;sat</title>
<polygon fill="none" stroke="black" points="621.12,-932.23 537.62,-932.23 537.62,-896.23 621.12,-896.23 621.12,-932.23"/>
<text text-anchor="middle" x="579.38" y="-909.93" font-family="sans-serif" font-size="14.00">kernel&#45;sat</text>
</g>
<!-- kernel&#45;sat&#45;&gt;core -->
<g id="edge86" class="edge">
<title>kernel&#45;sat&#45;&gt;core</title>
<path fill="none" stroke="black" d="M589.72,-895.89C615.24,-847.68 691,-716.42 792,-648.23 820.1,-629.27 911.3,-606.43 963.34,-594.46"/>
<polygon fill="black" stroke="black" points="963.98,-597.91 972.95,-592.28 962.43,-591.08 963.98,-597.91"/>
</g>
<!-- kernel&#45;sat&#45;&gt;hol&#45;eval -->
<g id="edge87" class="edge">
<title>kernel&#45;sat&#45;&gt;hol&#45;eval</title>
<path fill="none" stroke="black" d="M621.46,-918.48C661.07,-920.18 720.13,-916.02 756,-882.23 804.97,-836.12 747.91,-786.03 792,-735.23 797.98,-728.34 805.97,-723.19 814.35,-719.34"/>
<polygon fill="black" stroke="black" points="815.63,-722.6 823.65,-715.69 813.07,-716.09 815.63,-722.6"/>
</g>
<!-- kernel&#45;sat&#45;&gt;init -->
<g id="edge88" class="edge">
<title>kernel&#45;sat&#45;&gt;init</title>
<path fill="none" stroke="black" d="M616.05,-932.64C619.85,-935.28 623.51,-938.15 626.75,-941.23 656.44,-969.44 680.58,-1010.46 694.71,-1037.72"/>
<polygon fill="black" stroke="black" points="691.48,-1039.08 699.11,-1046.43 697.72,-1035.93 691.48,-1039.08"/>
</g>
<!-- sat -->
<g id="node52" class="node">
<title>sat</title>
<polygon fill="none" stroke="black" points="887.38,-1544.23 833.38,-1544.23 833.38,-1508.23 887.38,-1508.23 887.38,-1544.23"/>
<text text-anchor="middle" x="860.38" y="-1521.93" font-family="sans-serif" font-size="14.00">sat</text>
</g>
<!-- kernel&#45;sat&#45;&gt;sat -->
<g id="edge89" class="edge">
<title>kernel&#45;sat&#45;&gt;sat</title>
<path fill="none" stroke="black" d="M618.88,-932.46C621.88,-935.06 624.59,-937.97 626.75,-941.23 695.89,-1045.41 628.07,-1100.11 662.75,-1220.23 700.66,-1351.53 692.86,-1405.18 792,-1499.23 800.5,-1507.3 811.72,-1513.07 822.56,-1517.14"/>
<polygon fill="black" stroke="black" points="821.12,-1520.36 831.71,-1520.2 823.34,-1513.72 821.12,-1520.36"/>
</g>
<!-- kernel&#45;smt -->
<g id="node28" class="node">
<title>kernel&#45;smt</title>
<polygon fill="none" stroke="black" points="494.5,-281.23 406.5,-281.23 406.5,-245.23 494.5,-245.23 494.5,-281.23"/>
<text text-anchor="middle" x="450.5" y="-258.93" font-family="sans-serif" font-size="14.00">kernel&#45;smt</text>
</g>
<!-- kernel&#45;smt&#45;&gt;core -->
<g id="edge90" class="edge">
<title>kernel&#45;smt&#45;&gt;core</title>
<path fill="none" stroke="black" d="M489.9,-244.83C578.48,-205.35 799.39,-124.38 928.75,-230.23 979.24,-271.55 995.07,-478.67 999.28,-556.56"/>
<polygon fill="black" stroke="black" points="995.78,-556.59 999.78,-566.4 1002.77,-556.23 995.78,-556.59"/>
</g>
<!-- kernel&#45;smt&#45;&gt;hol&#45;api -->
<g id="edge91" class="edge">
<title>kernel&#45;smt&#45;&gt;hol&#45;api</title>
<path fill="none" stroke="black" d="M459.44,-281.56C480.89,-331.1 540.14,-467.93 566.01,-527.69"/>
<polygon fill="black" stroke="black" points="562.65,-528.74 569.84,-536.52 569.08,-525.96 562.65,-528.74"/>
</g>
<!-- kv -->
<g id="node29" class="node">
<title>kv</title>
<polygon fill="none" stroke="black" points="226.12,-2396.23 172.12,-2396.23 172.12,-2360.23 226.12,-2360.23 226.12,-2396.23"/>
<text text-anchor="middle" x="199.12" y="-2373.93" font-family="sans-serif" font-size="14.00">kv</text>
</g>
<!-- lean -->
<g id="node30" class="node">
<title>lean</title>
<polygon fill="none" stroke="black" points="87.5,-2382.23 33.5,-2382.23 33.5,-2346.23 87.5,-2346.23 87.5,-2382.23"/>
<text text-anchor="middle" x="60.5" y="-2359.93" font-family="sans-serif" font-size="14.00">lean</text>
</g>
<!-- lisp -->
<g id="node31" class="node">
<title>lisp</title>
<polygon fill="none" stroke="black" points="477.5,-1135.23 423.5,-1135.23 423.5,-1099.23 477.5,-1099.23 477.5,-1135.23"/>
<text text-anchor="middle" x="450.5" y="-1112.93" font-family="sans-serif" font-size="14.00">lisp</text>
</g>
<!-- lisp&#45;&gt;core -->
<g id="edge92" class="edge">
<title>lisp&#45;&gt;core</title>
<path fill="none" stroke="black" d="M452.82,-1098.98C457.13,-1048.67 474.07,-904.95 532,-803.23 572.71,-731.75 597.13,-721.84 662.75,-672.23 715.2,-632.58 728.95,-618.89 792,-600.23 849.79,-583.14 920.35,-582.33 962.83,-583.87"/>
<polygon fill="black" stroke="black" points="962.63,-587.36 972.78,-584.3 962.94,-580.37 962.63,-587.36"/>
</g>
<!-- lisp&#45;&gt;hol&#45;api -->
<g id="edge93" class="edge">
<title>lisp&#45;&gt;hol&#45;api</title>
<path fill="none" stroke="black" d="M451.76,-1099.13C453.26,-1033.26 463.39,-801.14 532,-626.23 537.88,-611.24 547.32,-596.15 556.15,-583.84"/>
<polygon fill="black" stroke="black" points="558.95,-585.95 562.12,-575.84 553.34,-581.76 558.95,-585.95"/>
</g>
<!-- lisp&#45;&gt;hol&#45;eval -->
<g id="edge94" class="edge">
<title>lisp&#45;&gt;hol&#45;eval</title>
<path fill="none" stroke="black" d="M453.56,-1099.03C459.14,-1057.22 477.92,-952.86 532,-887.23 607.86,-795.18 743.98,-742.94 814.41,-720.86"/>
<polygon fill="black" stroke="black" points="815.15,-724.3 823.68,-718.02 813.1,-717.61 815.15,-724.3"/>
</g>
<!-- lisp&#45;&gt;init -->
<g id="edge95" class="edge">
<title>lisp&#45;&gt;init</title>
<path fill="none" stroke="black" d="M477.54,-1112.06C523.2,-1103 617.83,-1084.21 670.65,-1073.72"/>
<polygon fill="black" stroke="black" points="671.27,-1077.17 680.39,-1071.79 669.9,-1070.3 671.27,-1077.17"/>
</g>
<!-- lisp&#45;&gt;repl&#45;core -->
<g id="edge96" class="edge">
<title>lisp&#45;&gt;repl&#45;core</title>
<path fill="none" stroke="black" d="M459.7,-1135.67C475.97,-1171.73 512.44,-1250.06 532,-1272.23 534.06,-1274.57 536.33,-1276.82 538.72,-1278.97"/>
<polygon fill="black" stroke="black" points="536.06,-1281.32 546.02,-1284.92 540.48,-1275.89 536.06,-1281.32"/>
</g>
<!-- lisp&#45;&gt;sexp -->
<g id="edge97" class="edge">
<title>lisp&#45;&gt;sexp</title>
<path fill="none" stroke="black" d="M458.27,-1135.33C469.36,-1162.38 494.02,-1212.95 532,-1239.23 580.72,-1272.95 733.12,-1291.64 792,-1298.23 852.4,-1305 868.01,-1300.34 928.75,-1298.23 939.86,-1297.85 951.91,-1297.13 962.92,-1296.35"/>
<polygon fill="black" stroke="black" points="963.14,-1299.84 972.85,-1295.61 962.62,-1292.86 963.14,-1299.84"/>
</g>
<!-- sexpr&#45;api -->
<g id="node55" class="node">
<title>sexpr&#45;api</title>
<polygon fill="none" stroke="black" points="748.12,-574.23 670.62,-574.23 670.62,-538.23 748.12,-538.23 748.12,-574.23"/>
<text text-anchor="middle" x="709.38" y="-551.93" font-family="sans-serif" font-size="14.00">sexpr&#45;api</text>
</g>
<!-- lisp&#45;&gt;sexpr&#45;api -->
<g id="edge98" class="edge">
<title>lisp&#45;&gt;sexpr&#45;api</title>
<path fill="none" stroke="black" d="M452.78,-1098.75C458.3,-1023.06 482.15,-737.32 532,-664.23 562.74,-619.17 619.11,-589.56 659.86,-572.93"/>
<polygon fill="black" stroke="black" points="660.96,-576.26 668.98,-569.33 658.39,-569.74 660.96,-576.26"/>
</g>
<!-- lisp&#45;&gt;types -->
<g id="edge99" class="edge">
<title>lisp&#45;&gt;types</title>
<path fill="none" stroke="black" d="M454.67,-1135.66C463.1,-1185.4 486.06,-1326.7 496,-1445.23 501.14,-1506.5 498.19,-2499.89 532,-2551.23 651.61,-2732.89 783.12,-2692.23 1000.62,-2692.23 1000.62,-2692.23 1000.62,-2692.23 1238.25,-2692.23 1429.59,-2692.23 1475.07,-1113.23 1480.83,-875.94"/>
<polygon fill="black" stroke="black" points="1484.32,-876.1 1481.06,-866.02 1477.33,-875.93 1484.32,-876.1"/>
</g>
<!-- llm -->
<g id="node32" class="node">
<title>llm</title>
<polygon fill="none" stroke="black" points="226.12,-1625.23 172.12,-1625.23 172.12,-1589.23 226.12,-1589.23 226.12,-1625.23"/>
<text text-anchor="middle" x="199.12" y="-1602.93" font-family="sans-serif" font-size="14.00">llm</text>
</g>
<!-- llm&#45;&gt;proto -->
<g id="edge100" class="edge">
<title>llm&#45;&gt;proto</title>
<path fill="none" stroke="black" d="M214.4,-1588.82C229.11,-1570.42 253.24,-1541.83 277.25,-1520.23 280.18,-1517.59 283.34,-1514.97 286.57,-1512.44"/>
<polygon fill="black" stroke="black" points="288.63,-1515.27 294.52,-1506.46 284.42,-1509.67 288.63,-1515.27"/>
</g>
<!-- lsp&#45;&gt;sexp -->
<g id="edge101" class="edge">
<title>lsp&#45;&gt;sexp</title>
<path fill="none" stroke="black" d="M876.19,-1692.02C891.53,-1672.28 915.12,-1639.28 928.75,-1607.23 970.96,-1507.99 990.36,-1380.08 997.37,-1323.01"/>
<polygon fill="black" stroke="black" points="1000.84,-1323.48 998.54,-1313.14 993.89,-1322.66 1000.84,-1323.48"/>
</g>
<!-- lsp&#45;&gt;wasm -->
<g id="edge102" class="edge">
<title>lsp&#45;&gt;wasm</title>
<path fill="none" stroke="black" d="M869.09,-1728.51C883.08,-1762.36 912.67,-1837.38 928.75,-1903.23 971.51,-2078.38 991.99,-2294.73 998.36,-2372.59"/>
<polygon fill="black" stroke="black" points="994.86,-2372.67 999.14,-2382.36 1001.84,-2372.11 994.86,-2372.67"/>
</g>
<!-- metamath&#45;&gt;parse -->
<g id="edge103" class="edge">
<title>metamath&#45;&gt;parse</title>
<path fill="none" stroke="black" d="M901.03,-1485.45C949.05,-1501.46 1029.3,-1528.21 1076.19,-1543.84"/>
<polygon fill="black" stroke="black" points="1075.04,-1547.14 1085.63,-1546.98 1077.25,-1540.5 1075.04,-1547.14"/>
</g>
<!-- metamath&#45;&gt;sexp -->
<g id="edge104" class="edge">
<title>metamath&#45;&gt;sexp</title>
<path fill="none" stroke="black" d="M900.92,-1458.83C910.87,-1454.1 920.92,-1447.97 928.75,-1440.23 962.39,-1406.97 982.68,-1354.77 992.75,-1322.35"/>
<polygon fill="black" stroke="black" points="996.09,-1323.41 995.58,-1312.83 989.38,-1321.42 996.09,-1323.41"/>
</g>
<!-- multiformat -->
<g id="node36" class="node">
<title>multiformat</title>
<polygon fill="none" stroke="black" points="754.5,-1604.23 664.25,-1604.23 664.25,-1568.23 754.5,-1568.23 754.5,-1604.23"/>
<text text-anchor="middle" x="709.38" y="-1581.93" font-family="sans-serif" font-size="14.00">multiformat</text>
</g>
<!-- multiformat&#45;&gt;acset -->
<g id="edge105" class="edge">
<title>multiformat&#45;&gt;acset</title>
<path fill="none" stroke="black" d="M754.68,-1584.45C776.05,-1583.59 801.41,-1582.57 821.81,-1581.75"/>
<polygon fill="black" stroke="black" points="821.83,-1585.25 831.68,-1581.35 821.55,-1578.25 821.83,-1585.25"/>
</g>
<!-- multiformat&#45;&gt;hash -->
<g id="edge106" class="edge">
<title>multiformat&#45;&gt;hash</title>
<path fill="none" stroke="black" d="M718.39,-1604.73C742.95,-1661.44 817.34,-1833.19 846.99,-1901.63"/>
<polygon fill="black" stroke="black" points="843.72,-1902.89 850.9,-1910.68 850.14,-1900.11 843.72,-1902.89"/>
</g>
<!-- multiformat&#45;&gt;parse -->
<g id="edge107" class="edge">
<title>multiformat&#45;&gt;parse</title>
<path fill="none" stroke="black" d="M754.89,-1599.84C766.83,-1602.9 779.81,-1605.69 792,-1607.23 852.3,-1614.87 868.52,-1615.4 928.75,-1607.23 981.01,-1600.15 1039.38,-1582.27 1076.23,-1569.69"/>
<polygon fill="black" stroke="black" points="1077.21,-1573.05 1085.51,-1566.47 1074.92,-1566.44 1077.21,-1573.05"/>
</g>
<!-- numerals -->
<g id="node37" class="node">
<title>numerals</title>
<polygon fill="none" stroke="black" points="617.75,-1230.23 541,-1230.23 541,-1194.23 617.75,-1194.23 617.75,-1230.23"/>
<text text-anchor="middle" x="579.38" y="-1207.93" font-family="sans-serif" font-size="14.00">numerals</text>
</g>
<!-- numerals&#45;&gt;grammar -->
<g id="edge108" class="edge">
<title>numerals&#45;&gt;grammar</title>
<path fill="none" stroke="black" d="M607.33,-1193.91C662.09,-1156.74 782.04,-1075.59 792,-1071.23 849.28,-1046.18 868.65,-1055.48 928.75,-1038.23 936.93,-1035.89 945.56,-1033.19 953.89,-1030.48"/>
<polygon fill="black" stroke="black" points="954.79,-1033.87 963.18,-1027.4 952.59,-1027.23 954.79,-1033.87"/>
</g>
<!-- numerals&#45;&gt;hol&#45;eval -->
<g id="edge109" class="edge">
<title>numerals&#45;&gt;hol&#45;eval</title>
<path fill="none" stroke="black" d="M586.56,-1193.85C598.19,-1160.87 625.55,-1090.33 662.75,-1039.23 696.29,-993.17 729.19,-1001.52 756,-951.23 801.78,-865.35 731,-811.07 792,-735.23 797.84,-727.97 805.93,-722.66 814.47,-718.76"/>
<polygon fill="black" stroke="black" points="815.54,-722.1 823.6,-715.23 813.01,-715.58 815.54,-722.1"/>
</g>
<!-- numerals&#45;&gt;init -->
<g id="edge110" class="edge">
<title>numerals&#45;&gt;init</title>
<path fill="none" stroke="black" d="M612.3,-1193.74C617.57,-1189.75 622.64,-1185.21 626.75,-1180.23 652.09,-1149.54 637.52,-1129.02 662.75,-1098.23 665.79,-1094.53 669.35,-1091.06 673.13,-1087.88"/>
<polygon fill="black" stroke="black" points="675.15,-1090.74 680.98,-1081.9 670.91,-1085.17 675.15,-1090.74"/>
</g>
<!-- numerals&#45;&gt;types -->
<g id="edge111" class="edge">
<title>numerals&#45;&gt;types</title>
<path fill="none" stroke="black" d="M597.44,-1230.62C607.75,-1242.87 620.15,-1259.87 626.75,-1277.23 653.43,-1347.43 613.8,-1556.29 662.75,-1613.23 682.67,-1636.41 901.48,-1669.44 928.75,-1683.23 1022.85,-1730.82 1007.93,-1832.23 1113.38,-1832.23 1113.38,-1832.23 1113.38,-1832.23 1238.25,-1832.23 1440.57,-1832.23 1475.63,-1039.76 1480.72,-875.73"/>
<polygon fill="black" stroke="black" points="1484.21,-876.23 1481.01,-866.13 1477.21,-876.02 1484.21,-876.23"/>
</g>
<!-- object&#45;&gt;hash -->
<g id="edge112" class="edge">
<title>object&#45;&gt;hash</title>
<path fill="none" stroke="black" d="M738.5,-1810.72C744.43,-1814.96 750.55,-1819.6 756,-1824.23 785.39,-1849.23 815.85,-1881.35 836.02,-1903.65"/>
<polygon fill="black" stroke="black" points="833.19,-1905.73 842.47,-1910.84 838.4,-1901.06 833.19,-1905.73"/>
</g>
<!-- object&#45;&gt;parse -->
<g id="edge113" class="edge">
<title>object&#45;&gt;parse</title>
<path fill="none" stroke="black" d="M738.36,-1787.08C789.55,-1777.35 896.01,-1755.59 928.75,-1737.23 999.61,-1697.5 1062.56,-1623.48 1093.36,-1583.51"/>
<polygon fill="black" stroke="black" points="1095.96,-1585.88 1099.22,-1575.8 1090.39,-1581.64 1095.96,-1585.88"/>
</g>
<!-- opentheory&#45;&gt;core -->
<g id="edge114" class="edge">
<title>opentheory&#45;&gt;core</title>
<path fill="none" stroke="black" d="M465.99,-491.75C527.06,-416.02 767.64,-139.48 928.75,-268.23 973.79,-304.23 992.66,-484.3 998.49,-556.36"/>
<polygon fill="black" stroke="black" points="994.99,-556.53 999.26,-566.22 1001.97,-555.98 994.99,-556.53"/>
</g>
<!-- opentheory&#45;&gt;hol -->
<g id="edge115" class="edge">
<title>opentheory&#45;&gt;hol</title>
<path fill="none" stroke="black" d="M496.41,-501.36C556.28,-491.06 665.26,-477.73 756,-496.23 779.22,-500.97 803.69,-511.12 822.98,-520.48"/>
<polygon fill="black" stroke="black" points="821.27,-523.54 831.78,-524.88 824.4,-517.28 821.27,-523.54"/>
</g>
<!-- opentheory&#45;&gt;hol&#45;api -->
<g id="edge116" class="edge">
<title>opentheory&#45;&gt;hol&#45;api</title>
<path fill="none" stroke="black" d="M496.23,-526.45C509.61,-531.3 524.2,-536.59 537.33,-541.35"/>
<polygon fill="black" stroke="black" points="535.94,-544.57 546.53,-544.69 538.32,-537.99 535.94,-544.57"/>
</g>
<!-- opentheory&#45;&gt;hol&#45;eval -->
<g id="edge117" class="edge">
<title>opentheory&#45;&gt;hol&#45;eval</title>
<path fill="none" stroke="black" d="M496.47,-507.96C570.45,-505.04 713.84,-503.11 756,-529.23 784.39,-546.83 826.15,-633.48 846.83,-679.46"/>
<polygon fill="black" stroke="black" points="843.61,-680.84 850.88,-688.56 850.01,-678 843.61,-680.84"/>
</g>
<!-- parquet -->
<g id="node40" class="node">
<title>parquet</title>
<polygon fill="none" stroke="black" points="484,-1902.23 417,-1902.23 417,-1866.23 484,-1866.23 484,-1902.23"/>
<text text-anchor="middle" x="450.5" y="-1879.93" font-family="sans-serif" font-size="14.00">parquet</text>
</g>
<!-- parquet&#45;&gt;arrow -->
<g id="edge118" class="edge">
<title>parquet&#45;&gt;arrow</title>
<path fill="none" stroke="black" d="M484.17,-1884.23C501.52,-1884.23 522.91,-1884.23 540.93,-1884.23"/>
<polygon fill="black" stroke="black" points="540.69,-1887.73 550.69,-1884.23 540.69,-1880.73 540.69,-1887.73"/>
</g>
<!-- proptest -->
<g id="node43" class="node">
<title>proptest</title>
<polygon fill="none" stroke="black" points="95.88,-2436.23 25.12,-2436.23 25.12,-2400.23 95.88,-2400.23 95.88,-2436.23"/>
<text text-anchor="middle" x="60.5" y="-2413.93" font-family="sans-serif" font-size="14.00">proptest</text>
</g>
<!-- pure&#45;trusted -->
<g id="node47" class="node">
<title>pure&#45;trusted</title>
<polygon fill="#ffd6d6" stroke="black" points="1419.5,-711.23 1320.25,-711.23 1320.25,-675.23 1419.5,-675.23 1419.5,-711.23"/>
<text text-anchor="middle" x="1369.88" y="-688.93" font-family="sans-serif" font-size="14.00">pure&#45;trusted</text>
</g>
<!-- pure&#45;&gt;pure&#45;trusted -->
<g id="edge119" class="edge">
<title>pure&#45;&gt;pure&#45;trusted</title>
<path fill="none" stroke="black" d="M1264.68,-668.51C1277.4,-671.53 1293.21,-675.28 1308.64,-678.94"/>
<polygon fill="black" stroke="black" points="1307.75,-682.32 1318.29,-681.23 1309.36,-675.51 1307.75,-682.32"/>
</g>
<!-- pure&#45;eval&#45;&gt;pure -->
<g id="edge120" class="edge">
<title>pure&#45;eval&#45;&gt;pure</title>
<path fill="none" stroke="black" d="M1154.62,-693.3C1169.01,-687.82 1185.24,-681.65 1199.41,-676.25"/>
<polygon fill="black" stroke="black" points="1200.27,-679.67 1208.37,-672.84 1197.78,-673.13 1200.27,-679.67"/>
</g>
<!-- pure&#45;eval&#45;&gt;types -->
<g id="edge121" class="edge">
<title>pure&#45;eval&#45;&gt;types</title>
<path fill="none" stroke="black" d="M1154.72,-711.82C1215.09,-718.71 1332.68,-737.67 1419.5,-786.23 1434.65,-794.71 1448.79,-807.8 1459.72,-819.6"/>
<polygon fill="black" stroke="black" points="1456.82,-821.6 1466.09,-826.75 1462.05,-816.95 1456.82,-821.6"/>
</g>
<!-- pure&#45;trusted&#45;&gt;types -->
<g id="edge122" class="edge">
<title>pure&#45;trusted&#45;&gt;types</title>
<path fill="none" stroke="black" d="M1392.01,-711.3C1401.05,-719.6 1411.38,-729.89 1419.5,-740.23 1438.74,-764.73 1456.21,-795.79 1467.67,-817.94"/>
<polygon fill="black" stroke="black" points="1464.46,-819.35 1472.1,-826.68 1470.7,-816.18 1464.46,-819.35"/>
</g>
<!-- python -->
<g id="node48" class="node">
<title>python</title>
<polygon fill="none" stroke="black" points="91.38,-2274.23 29.62,-2274.23 29.62,-2238.23 91.38,-2238.23 91.38,-2274.23"/>
<text text-anchor="middle" x="60.5" y="-2251.93" font-family="sans-serif" font-size="14.00">python</text>
</g>
<!-- python&#45;&gt;crypto&#45;sig -->
<g id="edge123" class="edge">
<title>python&#45;&gt;crypto&#45;sig</title>
<path fill="none" stroke="black" d="M91.64,-2264.19C102.2,-2268.33 113.33,-2274.42 121,-2283.23 158.1,-2325.89 123.31,-2359.83 157,-2405.23 157.15,-2405.43 157.29,-2405.63 157.44,-2405.82"/>
<polygon fill="black" stroke="black" points="154.72,-2408.04 164.18,-2412.81 159.76,-2403.19 154.72,-2408.04"/>
</g>
<!-- python&#45;&gt;git -->
<g id="edge124" class="edge">
<title>python&#45;&gt;git</title>
<path fill="none" stroke="black" d="M91.73,-2263.74C127.72,-2271.51 189.48,-2281.08 241.25,-2270.23 306.7,-2256.52 374.55,-2217.08 414.35,-2190.9"/>
<polygon fill="black" stroke="black" points="416.22,-2193.87 422.59,-2185.4 412.33,-2188.05 416.22,-2193.87"/>
</g>
<!-- python&#45;&gt;graph -->
<g id="edge125" class="edge">
<title>python&#45;&gt;graph</title>
<path fill="none" stroke="black" d="M91.83,-2238.79C198.64,-2177.37 557.07,-1971.25 672.34,-1904.96"/>
<polygon fill="black" stroke="black" points="673.86,-1908.12 680.79,-1900.1 670.37,-1902.05 673.86,-1908.12"/>
</g>
<!-- python&#45;&gt;hash -->
<g id="edge126" class="edge">
<title>python&#45;&gt;hash</title>
<path fill="none" stroke="black" d="M91.48,-2268.24C110.02,-2275.01 134.5,-2282.78 157,-2286.23 194.01,-2291.91 204.09,-2290.82 241.25,-2286.23 300.47,-2278.93 710.63,-2171.99 756,-2133.23 810.68,-2086.52 839.83,-2003.76 852.14,-1959.72"/>
<polygon fill="black" stroke="black" points="855.51,-1960.67 854.71,-1950.1 848.75,-1958.86 855.51,-1960.67"/>
</g>
<!-- python&#45;&gt;kv -->
<g id="edge127" class="edge">
<title>python&#45;&gt;kv</title>
<path fill="none" stroke="black" d="M91.82,-2265.71C101.92,-2269.92 112.7,-2275.67 121,-2283.23 144.84,-2304.95 135.87,-2321.87 157,-2346.23 159.06,-2348.6 161.31,-2350.92 163.67,-2353.15"/>
<polygon fill="black" stroke="black" points="160.99,-2355.46 170.83,-2359.38 165.59,-2350.18 160.99,-2355.46"/>
</g>
<!-- python&#45;&gt;llm -->
<g id="edge128" class="edge">
<title>python&#45;&gt;llm</title>
<path fill="none" stroke="black" d="M61.14,-2237.97C60.31,-2162.88 63.6,-1871.86 157,-1659.23 160.88,-1650.39 166.64,-1641.76 172.62,-1634.15"/>
<polygon fill="black" stroke="black" points="175.21,-1636.51 178.95,-1626.59 169.85,-1632.02 175.21,-1636.51"/>
</g>
<!-- python&#45;&gt;object -->
<g id="edge129" class="edge">
<title>python&#45;&gt;object</title>
<path fill="none" stroke="black" d="M63.38,-2237.98C71.83,-2166.8 113.39,-1907.54 277.25,-1819.23 406.56,-1749.55 590.37,-1770.69 669.59,-1784.47"/>
<polygon fill="black" stroke="black" points="668.55,-1787.84 679.01,-1786.17 669.79,-1780.95 668.55,-1787.84"/>
</g>
<!-- python&#45;&gt;repl -->
<g id="edge130" class="edge">
<title>python&#45;&gt;repl</title>
<path fill="none" stroke="black" d="M73.2,-2237.82C114.63,-2172.65 254.47,-1952.67 304.3,-1874.27"/>
<polygon fill="black" stroke="black" points="307.23,-1876.19 309.64,-1865.87 301.32,-1872.44 307.23,-1876.19"/>
</g>
<!-- python&#45;&gt;sat -->
<g id="edge131" class="edge">
<title>python&#45;&gt;sat</title>
<path fill="none" stroke="black" d="M63.43,-2238.07C75.8,-2122.15 143.79,-1490.05 157,-1475.23 193.58,-1434.19 222.68,-1452.94 277.25,-1446.23 333.61,-1439.31 348.22,-1445.46 405,-1445.23 445.44,-1445.08 455.8,-1440.81 496,-1445.23 617.21,-1458.58 757.13,-1496.25 822.35,-1515.14"/>
<polygon fill="black" stroke="black" points="821.23,-1518.46 831.81,-1517.91 823.19,-1511.74 821.23,-1518.46"/>
</g>
<!-- python&#45;&gt;serve -->
<g id="edge132" class="edge">
<title>python&#45;&gt;serve</title>
<path fill="none" stroke="black" d="M65.89,-2237.91C85.68,-2155.34 166.7,-1817.35 191.12,-1715.45"/>
<polygon fill="black" stroke="black" points="194.47,-1716.5 193.4,-1705.96 187.66,-1714.87 194.47,-1716.5"/>
</g>
<!-- python&#45;&gt;sexp -->
<g id="edge133" class="edge">
<title>python&#45;&gt;sexp</title>
<path fill="none" stroke="black" d="M63.5,-2237.91C76.61,-2118.06 149.86,-1450.73 157,-1443.23 276.92,-1317.33 759.25,-1353.02 928.75,-1314.23 940.04,-1311.65 952.17,-1308.32 963.19,-1305.08"/>
<polygon fill="black" stroke="black" points="964.18,-1308.44 972.75,-1302.21 962.16,-1301.74 964.18,-1308.44"/>
</g>
<!-- python&#45;&gt;shell -->
<g id="edge134" class="edge">
<title>python&#45;&gt;shell</title>
<path fill="none" stroke="black" d="M63.38,-2237.96C73.93,-2136.11 126.48,-1641 157,-1580.23 190.75,-1513.04 207.71,-1489.83 277.25,-1461.23 321.01,-1443.24 376.33,-1451.63 412.29,-1460.7"/>
<polygon fill="black" stroke="black" points="411.22,-1464.04 421.78,-1463.25 413.03,-1457.28 411.22,-1464.04"/>
</g>
<!-- python&#45;&gt;store -->
<g id="edge135" class="edge">
<title>python&#45;&gt;store</title>
<path fill="none" stroke="black" d="M91.74,-2263.73C102.44,-2267.83 113.64,-2274.01 121,-2283.23 170.79,-2345.65 98.14,-2405.29 157,-2459.23 211.46,-2509.14 248.25,-2478.23 322.12,-2478.23 322.12,-2478.23 322.12,-2478.23 451.5,-2478.23 530.12,-2478.23 565.07,-2502.98 626.75,-2454.23 661.52,-2426.75 634.1,-2395.05 662.75,-2361.23 665.61,-2357.85 669.01,-2354.79 672.64,-2352.04"/>
<polygon fill="black" stroke="black" points="674.31,-2355.14 680.72,-2346.71 670.45,-2349.3 674.31,-2355.14"/>
</g>
<!-- python&#45;&gt;wasm -->
<g id="edge136" class="edge">
<title>python&#45;&gt;wasm</title>
<path fill="none" stroke="black" d="M91.71,-2263.4C102.54,-2267.46 113.84,-2273.72 121,-2283.23 187.44,-2371.53 99.26,-2435.02 157,-2529.23 204,-2605.92 232.18,-2646.23 322.12,-2646.23 322.12,-2646.23 322.12,-2646.23 580.38,-2646.23 745.48,-2646.23 802.06,-2623.11 928.75,-2517.23 956.73,-2493.85 977.16,-2456.67 988.94,-2430.95"/>
<polygon fill="black" stroke="black" points="992.01,-2432.64 992.84,-2422.08 985.61,-2429.82 992.01,-2432.64"/>
</g>
<!-- wasm&#45;store -->
<g id="node66" class="node">
<title>wasm&#45;store</title>
<polygon fill="none" stroke="black" points="626.75,-2542.23 532,-2542.23 532,-2506.23 626.75,-2506.23 626.75,-2542.23"/>
<text text-anchor="middle" x="579.38" y="-2519.93" font-family="sans-serif" font-size="14.00">wasm&#45;store</text>
</g>
<!-- python&#45;&gt;wasm&#45;store -->
<g id="edge137" class="edge">
<title>python&#45;&gt;wasm&#45;store</title>
<path fill="none" stroke="black" d="M91.58,-2263.49C102.4,-2267.57 113.72,-2273.81 121,-2283.23 178.62,-2357.83 87.27,-2428.82 157,-2492.23 256.81,-2583 430.64,-2559.88 520.66,-2539.65"/>
<polygon fill="black" stroke="black" points="521.31,-2543.1 530.26,-2537.43 519.73,-2536.28 521.31,-2543.1"/>
</g>
<!-- repl&#45;&gt;arrow -->
<g id="edge138" class="edge">
<title>repl&#45;&gt;arrow</title>
<path fill="none" stroke="black" d="M339.95,-1864.58C354.88,-1880.37 378.83,-1902.02 405,-1911.23 450.44,-1927.23 505.9,-1913.16 541.66,-1900.07"/>
<polygon fill="black" stroke="black" points="542.59,-1903.46 550.68,-1896.61 540.09,-1896.92 542.59,-1903.46"/>
</g>
<!-- repl&#45;&gt;forsp -->
<g id="edge139" class="edge">
<title>repl&#45;&gt;forsp</title>
<path fill="none" stroke="black" d="M333.55,-1827.89C355.25,-1785.66 408.87,-1681.31 434.88,-1630.68"/>
<polygon fill="black" stroke="black" points="437.99,-1632.29 439.45,-1621.8 431.76,-1629.09 437.99,-1632.29"/>
</g>
<!-- repl&#45;&gt;git -->
<g id="edge140" class="edge">
<title>repl&#45;&gt;git</title>
<path fill="none" stroke="black" d="M331.22,-1864.36C351.99,-1917.36 412.76,-2072.46 438.15,-2137.26"/>
<polygon fill="black" stroke="black" points="434.86,-2138.47 441.77,-2146.51 441.38,-2135.92 434.86,-2138.47"/>
</g>
<!-- repl&#45;&gt;graph -->
<g id="edge141" class="edge">
<title>repl&#45;&gt;graph</title>
<path fill="none" stroke="black" d="M350.3,-1844.72C403.08,-1842.21 525.85,-1839.09 626.75,-1857.23 641.7,-1859.92 657.67,-1864.74 671.48,-1869.57"/>
<polygon fill="black" stroke="black" points="670.02,-1872.76 680.61,-1872.89 672.41,-1866.18 670.02,-1872.76"/>
</g>
<!-- repl&#45;&gt;hash -->
<g id="edge142" class="edge">
<title>repl&#45;&gt;hash</title>
<path fill="none" stroke="black" d="M335.43,-1864.61C349.07,-1884.81 374.06,-1916.14 405,-1929.23 479.55,-1960.78 726.57,-1942.39 821.64,-1933.85"/>
<polygon fill="black" stroke="black" points="821.83,-1937.35 831.47,-1932.96 821.19,-1930.38 821.83,-1937.35"/>
</g>
<!-- repl&#45;&gt;init -->
<g id="edge143" class="edge">
<title>repl&#45;&gt;init</title>
<path fill="none" stroke="black" d="M324.63,-1828.04C326.89,-1780.68 339.09,-1651.96 405,-1575.23 434.15,-1541.3 470.14,-1568.73 496,-1532.23 585.63,-1405.72 441.4,-1311.06 532,-1185.23 559.02,-1147.71 591.25,-1171.87 626.75,-1142.23 648.33,-1124.22 641.71,-1108.87 662.75,-1090.23 665.65,-1087.66 668.88,-1085.28 672.24,-1083.08"/>
<polygon fill="black" stroke="black" points="673.72,-1086.27 680.58,-1078.19 670.18,-1080.23 673.72,-1086.27"/>
</g>
<!-- repl&#45;&gt;object -->
<g id="edge144" class="edge">
<title>repl&#45;&gt;object</title>
<path fill="none" stroke="black" d="M350.54,-1842.52C416.9,-1833.2 590.92,-1808.74 669.22,-1797.74"/>
<polygon fill="black" stroke="black" points="669.58,-1801.22 678.99,-1796.36 668.6,-1794.29 669.58,-1801.22"/>
</g>
<!-- repl&#45;&gt;parquet -->
<g id="edge145" class="edge">
<title>repl&#45;&gt;parquet</title>
<path fill="none" stroke="black" d="M350.41,-1854.2C366.42,-1859.05 387.28,-1865.38 405.73,-1870.97"/>
<polygon fill="black" stroke="black" points="404.51,-1874.26 415.1,-1873.81 406.54,-1867.56 404.51,-1874.26"/>
</g>
<!-- repl&#45;&gt;shell -->
<g id="edge146" class="edge">
<title>repl&#45;&gt;shell</title>
<path fill="none" stroke="black" d="M327.01,-1827.77C334.99,-1779.33 359.83,-1645.27 405,-1542.23 411.43,-1527.56 420.68,-1512.42 429.08,-1499.99"/>
<polygon fill="black" stroke="black" points="431.86,-1502.11 434.7,-1491.9 426.12,-1498.12 431.86,-1502.11"/>
</g>
<!-- repl&#45;&gt;wasm -->
<g id="edge147" class="edge">
<title>repl&#45;&gt;wasm</title>
<path fill="none" stroke="black" d="M329.7,-1864.7C338.67,-1894.79 356.57,-1956.37 369,-2009.23 426.58,-2254.1 326.54,-2406.11 532,-2551.23 676.36,-2653.2 893.7,-2492.81 971.58,-2427.71"/>
<polygon fill="black" stroke="black" points="973.42,-2430.73 978.8,-2421.6 968.9,-2425.39 973.42,-2430.73"/>
</g>
<!-- sat&#45;&gt;parse -->
<g id="edge148" class="edge">
<title>sat&#45;&gt;parse</title>
<path fill="none" stroke="black" d="M887.87,-1529.39C932.89,-1534.75 1024.43,-1545.65 1075.97,-1551.78"/>
<polygon fill="black" stroke="black" points="1075.39,-1555.24 1085.73,-1552.94 1076.22,-1548.29 1075.39,-1555.24"/>
</g>
<!-- sat&#45;&gt;types -->
<g id="edge149" class="edge">
<title>sat&#45;&gt;types</title>
<path fill="none" stroke="black" d="M887.83,-1523.45C933.69,-1518.86 1030.96,-1510.23 1113.38,-1510.23 1113.38,-1510.23 1113.38,-1510.23 1238.25,-1510.23 1394.79,-1510.23 1365.08,-1355.01 1419.5,-1208.23 1463.25,-1090.25 1476.39,-939.05 1480.12,-875.96"/>
<polygon fill="black" stroke="black" points="1483.61,-876.24 1480.66,-866.06 1476.62,-875.85 1483.61,-876.24"/>
</g>
<!-- sat&#45;&gt;wasm -->
<g id="edge150" class="edge">
<title>sat&#45;&gt;wasm</title>
<path fill="none" stroke="black" d="M887.87,-1530.01C902.31,-1533.52 919.16,-1540.27 928.75,-1553.23 931.87,-1557.45 986.03,-2222.41 998.21,-2372.41"/>
<polygon fill="black" stroke="black" points="994.71,-2372.62 999.01,-2382.3 1001.69,-2372.05 994.71,-2372.62"/>
</g>
<!-- serve&#45;&gt;core -->
<g id="edge151" class="edge">
<title>serve&#45;&gt;core</title>
<path fill="none" stroke="black" d="M219.25,-1667.76C227.54,-1658.53 236.44,-1646.69 241.25,-1634.23 283.41,-1525.16 261.52,-1225.11 277.25,-1109.23 315.44,-827.86 208.11,-687.84 405,-483.23 568.83,-312.99 734.82,-257.27 928.75,-392.23 982.38,-429.55 996.08,-511.78 999.52,-556.26"/>
<polygon fill="black" stroke="black" points="996.03,-556.47 1000.15,-566.23 1003.02,-556.02 996.03,-556.47"/>
</g>
<!-- serve&#45;&gt;forsp -->
<g id="edge152" class="edge">
<title>serve&#45;&gt;forsp</title>
<path fill="none" stroke="black" d="M226.34,-1677.4C270.87,-1662.4 361.39,-1631.91 412.4,-1614.73"/>
<polygon fill="black" stroke="black" points="413.47,-1618.06 421.83,-1611.56 411.23,-1611.43 413.47,-1618.06"/>
</g>
<!-- serve&#45;&gt;git -->
<g id="edge153" class="edge">
<title>serve&#45;&gt;git</title>
<path fill="none" stroke="black" d="M204.75,-1704.68C220.05,-1765.42 268.51,-1955.88 277.25,-1966.23 306.28,-2000.66 336.6,-1977.96 369,-2009.23 406.43,-2045.35 429.62,-2102.63 441,-2137.11"/>
<polygon fill="black" stroke="black" points="437.59,-2137.94 443.95,-2146.42 444.26,-2135.83 437.59,-2137.94"/>
</g>
<!-- serve&#45;&gt;hash -->
<g id="edge154" class="edge">
<title>serve&#45;&gt;hash</title>
<path fill="none" stroke="black" d="M203.72,-1704.71C211.53,-1740.75 233,-1821.43 277.25,-1873.23 320.46,-1923.82 341.18,-1932.47 405,-1951.23 439.47,-1961.36 697.82,-1960.9 756,-1954.23 778.19,-1951.69 802.54,-1946.18 822.03,-1941.07"/>
<polygon fill="black" stroke="black" points="822.69,-1944.52 831.43,-1938.54 820.87,-1937.76 822.69,-1944.52"/>
</g>
<!-- serve&#45;&gt;init -->
<g id="edge155" class="edge">
<title>serve&#45;&gt;init</title>
<path fill="none" stroke="black" d="M220.3,-1667.8C235.26,-1654.77 256.55,-1637.52 277.25,-1625.23 315.35,-1602.62 334.89,-1614.52 369,-1586.23 391.2,-1567.82 382.31,-1550.04 405,-1532.23 438.85,-1505.68 469.56,-1533.18 496,-1499.23 593.99,-1373.42 434.97,-1268.79 532,-1142.23 559.41,-1106.48 585.42,-1124.16 626.75,-1106.23 641.75,-1099.73 657.97,-1091.94 671.98,-1084.97"/>
<polygon fill="black" stroke="black" points="673.48,-1088.13 680.84,-1080.51 670.34,-1081.87 673.48,-1088.13"/>
</g>
<!-- serve&#45;&gt;lisp -->
<g id="edge156" class="edge">
<title>serve&#45;&gt;lisp</title>
<path fill="none" stroke="black" d="M216.67,-1667.87C224.76,-1658.3 234.23,-1646.13 241.25,-1634.23 262.3,-1598.54 247.21,-1576.77 277.25,-1548.23 308.67,-1518.39 340.67,-1548.03 369,-1515.23 417.16,-1459.49 440.34,-1229.5 447.23,-1146.92"/>
<polygon fill="black" stroke="black" points="450.7,-1147.39 448.02,-1137.14 443.72,-1146.82 450.7,-1147.39"/>
</g>
<!-- serve&#45;&gt;metamath -->
<g id="edge157" class="edge">
<title>serve&#45;&gt;metamath</title>
<path fill="none" stroke="black" d="M226.54,-1682.36C259.85,-1677.35 318.85,-1668.11 369,-1658.23 425.81,-1647.05 441.03,-1647.4 496,-1629.23 564.21,-1606.69 725.76,-1527.04 792,-1499.23 797.59,-1496.89 803.46,-1494.47 809.31,-1492.09"/>
<polygon fill="black" stroke="black" points="810.38,-1495.43 818.34,-1488.43 807.76,-1488.94 810.38,-1495.43"/>
</g>
<!-- serve&#45;&gt;object -->
<g id="edge158" class="edge">
<title>serve&#45;&gt;object</title>
<path fill="none" stroke="black" d="M226.4,-1692.02C241.25,-1695.03 260.2,-1698.45 277.25,-1700.23 315.89,-1704.27 592.25,-1692.36 626.75,-1710.23 650.43,-1722.5 643.86,-1739.41 662.75,-1758.23 665.72,-1761.2 668.97,-1764.11 672.31,-1766.92"/>
<polygon fill="black" stroke="black" points="670.07,-1769.61 680.08,-1773.09 674.43,-1764.13 670.07,-1769.61"/>
</g>
<!-- serve&#45;&gt;proto -->
<g id="edge159" class="edge">
<title>serve&#45;&gt;proto</title>
<path fill="none" stroke="black" d="M217.13,-1668.13C225.34,-1658.62 234.78,-1646.44 241.25,-1634.23 266.14,-1587.29 246.01,-1563.21 277.25,-1520.23 280.04,-1516.4 283.42,-1512.86 287.07,-1509.63"/>
<polygon fill="black" stroke="black" points="289.01,-1512.55 294.72,-1503.62 284.69,-1507.05 289.01,-1512.55"/>
</g>
<!-- serve&#45;&gt;repl -->
<g id="edge160" class="edge">
<title>serve&#45;&gt;repl</title>
<path fill="none" stroke="black" d="M214.12,-1704.59C235.54,-1732.68 276.58,-1786.5 301.44,-1819.1"/>
<polygon fill="black" stroke="black" points="298.53,-1821.06 307.38,-1826.89 304.1,-1816.82 298.53,-1821.06"/>
</g>
<!-- serve&#45;&gt;shell -->
<g id="edge161" class="edge">
<title>serve&#45;&gt;shell</title>
<path fill="none" stroke="black" d="M214.48,-1667.88C232.65,-1644.95 263.24,-1607.38 277.25,-1596.23 313.26,-1567.58 333.32,-1577.3 369,-1548.23 388.59,-1532.28 386.59,-1521.53 405,-1504.23 407.86,-1501.55 410.95,-1498.89 414.13,-1496.33"/>
<polygon fill="black" stroke="black" points="416.16,-1499.19 421.98,-1490.34 411.91,-1493.63 416.16,-1499.19"/>
</g>
<!-- serve&#45;&gt;store -->
<g id="edge162" class="edge">
<title>serve&#45;&gt;store</title>
<path fill="none" stroke="black" d="M201.22,-1704.69C205.11,-1760.82 221.16,-1933.55 277.25,-2063.23 316.34,-2153.61 332.02,-2178.13 405,-2244.23 453.09,-2287.79 470.18,-2296.52 532,-2316.23 578.31,-2331 634.59,-2334.4 670.93,-2334.84"/>
<polygon fill="black" stroke="black" points="670.46,-2338.33 680.48,-2334.88 670.49,-2331.33 670.46,-2338.33"/>
</g>
<!-- sexp&#45;&gt;parse -->
<g id="edge163" class="edge">
<title>sexp&#45;&gt;parse</title>
<path fill="none" stroke="black" d="M1010.41,-1311.73C1029.44,-1356.9 1078.38,-1473.14 1101.26,-1527.46"/>
<polygon fill="black" stroke="black" points="1097.9,-1528.51 1105.01,-1536.37 1104.35,-1525.79 1097.9,-1528.51"/>
</g>
<!-- sexp&#45;&gt;types -->
<g id="edge164" class="edge">
<title>sexp&#45;&gt;types</title>
<path fill="none" stroke="black" d="M1028.94,-1293.27C1102.85,-1291.84 1313.84,-1277.04 1419.5,-1158.23 1456.63,-1116.48 1473.8,-945.8 1479.36,-876.1"/>
<polygon fill="black" stroke="black" points="1482.85,-876.43 1480.13,-866.19 1475.87,-875.89 1482.85,-876.43"/>
</g>
<!-- sexpr&#45;api&#45;&gt;inductive -->
<g id="edge165" class="edge">
<title>sexpr&#45;api&#45;&gt;inductive</title>
<path fill="none" stroke="black" d="M734.98,-537.9C759.78,-519.43 798.24,-490.78 825.83,-470.22"/>
<polygon fill="black" stroke="black" points="827.59,-473.28 833.52,-464.49 823.41,-467.66 827.59,-473.28"/>
</g>
<!-- shell&#45;&gt;hol -->
<g id="edge166" class="edge">
<title>shell&#45;&gt;hol</title>
<path fill="none" stroke="black" d="M454,-1453.88C467.46,-1355.06 530.77,-890.69 532,-887.23 569.46,-781.86 585.46,-753.07 662.75,-672.23 710.55,-622.24 780.45,-580.94 822.75,-558.51"/>
<polygon fill="black" stroke="black" points="824.3,-561.65 831.54,-553.92 821.06,-555.45 824.3,-561.65"/>
</g>
<!-- shell&#45;&gt;kernel -->
<g id="edge167" class="edge">
<title>shell&#45;&gt;kernel</title>
<path fill="none" stroke="black" d="M477.79,-1480.11C495.59,-1485.44 519.41,-1492.57 539.41,-1498.56"/>
<polygon fill="black" stroke="black" points="538.33,-1501.89 548.91,-1501.41 540.33,-1495.19 538.33,-1501.89"/>
</g>
<!-- smt&#45;&gt;sat -->
<g id="edge168" class="edge">
<title>smt&#45;&gt;sat</title>
<path fill="none" stroke="black" d="M709.91,-1211.69C709.61,-1263.7 715.78,-1413.23 792,-1499.23 799.9,-1508.15 811.15,-1514.16 822.19,-1518.2"/>
<polygon fill="black" stroke="black" points="821.01,-1521.49 831.6,-1521.16 823.11,-1514.82 821.01,-1521.49"/>
</g>
<!-- smt&#45;&gt;sexp -->
<g id="edge169" class="edge">
<title>smt&#45;&gt;sexp</title>
<path fill="none" stroke="black" d="M736.64,-1200.08C778.03,-1211.13 860.75,-1234.32 928.75,-1260.23 940.42,-1264.68 952.87,-1270.13 964.07,-1275.31"/>
<polygon fill="black" stroke="black" points="962.45,-1278.42 972.99,-1279.51 965.43,-1272.09 962.45,-1278.42"/>
</g>
<!-- smt&#45;&gt;types -->
<g id="edge170" class="edge">
<title>smt&#45;&gt;types</title>
<path fill="none" stroke="black" d="M720.07,-1174.88C730.17,-1155.15 745.91,-1122.66 756,-1093.23 778.52,-1027.56 739.56,-986.72 792,-941.23 862.33,-880.22 907.52,-922.23 1000.62,-922.23 1000.62,-922.23 1000.62,-922.23 1238.25,-922.23 1320.56,-922.23 1343.01,-914.63 1419.5,-884.23 1428.61,-880.61 1437.89,-875.7 1446.41,-870.6"/>
<polygon fill="black" stroke="black" points="1448.09,-873.67 1454.72,-865.4 1444.38,-867.74 1448.09,-873.67"/>
</g>
<!-- spectec&#45;&gt;grammar -->
<g id="edge171" class="edge">
<title>spectec&#45;&gt;grammar</title>
<path fill="none" stroke="black" d="M895.44,-979.49C912.94,-985.27 934.54,-992.4 953.6,-998.7"/>
<polygon fill="black" stroke="black" points="952.45,-1002 963.04,-1001.82 954.64,-995.36 952.45,-1002"/>
</g>
<!-- store&#45;&gt;hash -->
<g id="edge172" class="edge">
<title>store&#45;&gt;hash</title>
<path fill="none" stroke="black" d="M719.1,-2315.83C728.67,-2295.38 744.21,-2261.27 756,-2231.23 794.64,-2132.76 833.3,-2013.23 850.34,-1959.21"/>
<polygon fill="black" stroke="black" points="853.62,-1960.45 853.28,-1949.86 846.94,-1958.35 853.62,-1960.45"/>
</g>
<!-- store&#45;&gt;json -->
<g id="edge173" class="edge">
<title>store&#45;&gt;json</title>
<path fill="none" stroke="black" d="M736.67,-2343.76C760.43,-2352.37 795.65,-2365.14 822.27,-2374.79"/>
<polygon fill="black" stroke="black" points="821.08,-2378.08 831.67,-2378.19 823.46,-2371.49 821.08,-2378.08"/>
</g>
<!-- store&#45;&gt;sqlite -->
<g id="edge174" class="edge">
<title>store&#45;&gt;sqlite</title>
<path fill="none" stroke="black" d="M736.67,-2334.23C760.32,-2334.23 795.33,-2334.23 821.91,-2334.23"/>
<polygon fill="black" stroke="black" points="821.58,-2337.73 831.58,-2334.23 821.58,-2330.73 821.58,-2337.73"/>
</g>
<!-- tcb&#45;db -->
<g id="node61" class="node">
<title>tcb&#45;db</title>
<polygon fill="none" stroke="black" points="739.5,-2406.23 679.25,-2406.23 679.25,-2370.23 739.5,-2370.23 739.5,-2406.23"/>
<text text-anchor="middle" x="709.38" y="-2383.93" font-family="sans-serif" font-size="14.00">tcb&#45;db</text>
</g>
<!-- tcb&#45;db&#45;&gt;json -->
<g id="edge175" class="edge">
<title>tcb&#45;db&#45;&gt;json</title>
<path fill="none" stroke="black" d="M739.81,-2388.23C763.24,-2388.23 796.19,-2388.23 821.57,-2388.23"/>
<polygon fill="black" stroke="black" points="821.48,-2391.73 831.48,-2388.23 821.48,-2384.73 821.48,-2391.73"/>
</g>
<!-- tcb&#45;db&#45;&gt;sqlite -->
<g id="edge176" class="edge">
<title>tcb&#45;db&#45;&gt;sqlite</title>
<path fill="none" stroke="black" d="M739.81,-2377.56C763.45,-2369 796.79,-2356.91 822.26,-2347.68"/>
<polygon fill="black" stroke="black" points="823.36,-2351.01 831.57,-2344.31 820.98,-2344.43 823.36,-2351.01"/>
</g>
<!-- wasm&#45;build&#45;guest -->
<g id="node64" class="node">
<title>wasm&#45;build&#45;guest</title>
<polygon fill="none" stroke="black" points="928.75,-2664.23 792,-2664.23 792,-2628.23 928.75,-2628.23 928.75,-2664.23"/>
<text text-anchor="middle" x="860.38" y="-2641.93" font-family="sans-serif" font-size="14.00">wasm&#45;build&#45;guest</text>
</g>
<!-- wasm&#45;build&#45;guest&#45;&gt;wasm -->
<g id="edge177" class="edge">
<title>wasm&#45;build&#45;guest&#45;&gt;wasm</title>
<path fill="none" stroke="black" d="M912,-2627.87C918.21,-2624.07 924.02,-2619.55 928.75,-2614.23 975.84,-2561.31 992.31,-2476.26 997.89,-2431.68"/>
<polygon fill="black" stroke="black" points="1001.34,-2432.33 999,-2421.99 994.39,-2431.53 1001.34,-2432.33"/>
</g>
<!-- wasm&#45;spec -->
<g id="node65" class="node">
<title>wasm&#45;spec</title>
<polygon fill="none" stroke="black" points="756,-2222.23 662.75,-2222.23 662.75,-2186.23 756,-2186.23 756,-2222.23"/>
<text text-anchor="middle" x="709.38" y="-2199.93" font-family="sans-serif" font-size="14.00">wasm&#45;spec</text>
</g>
<!-- wasm&#45;spec&#45;&gt;hash -->
<g id="edge178" class="edge">
<title>wasm&#45;spec&#45;&gt;hash</title>
<path fill="none" stroke="black" d="M741.35,-2186.07C746.69,-2182 751.86,-2177.34 756,-2172.23 809.7,-2106.02 840.04,-2007.74 852.54,-1959.34"/>
<polygon fill="black" stroke="black" points="855.88,-1960.45 854.91,-1949.89 849.08,-1958.75 855.88,-1960.45"/>
</g>
<!-- wasm&#45;spec&#45;&gt;wasm -->
<g id="edge179" class="edge">
<title>wasm&#45;spec&#45;&gt;wasm</title>
<path fill="none" stroke="black" d="M756.43,-2209.05C804.15,-2216.14 878.64,-2233.32 928.75,-2274.23 960.64,-2300.27 980.91,-2344.42 991.52,-2373.46"/>
<polygon fill="black" stroke="black" points="988.15,-2374.42 994.74,-2382.71 994.76,-2372.12 988.15,-2374.42"/>
</g>
<!-- wasm&#45;store&#45;&gt;json -->
<g id="edge180" class="edge">
<title>wasm&#45;store&#45;&gt;json</title>
<path fill="none" stroke="black" d="M613.83,-2505.85C628.71,-2497.8 646.51,-2488.36 662.75,-2480.23 718.01,-2452.57 783.14,-2422.6 822.83,-2404.63"/>
<polygon fill="black" stroke="black" points="824.03,-2407.93 831.7,-2400.62 821.15,-2401.55 824.03,-2407.93"/>
</g>
<!-- wasm&#45;store&#45;&gt;store -->
<g id="edge181" class="edge">
<title>wasm&#45;store&#45;&gt;store</title>
<path fill="none" stroke="black" d="M613.39,-2505.85C618.41,-2501.89 623.13,-2497.34 626.75,-2492.23 661.71,-2443 626.1,-2409.22 662.75,-2361.23 665.5,-2357.63 668.88,-2354.42 672.54,-2351.58"/>
<polygon fill="black" stroke="black" points="674.39,-2354.55 680.78,-2346.1 670.52,-2348.72 674.39,-2354.55"/>
</g>
<!-- wasm&#45;store&#45;&gt;wasm -->
<g id="edge182" class="edge">
<title>wasm&#45;store&#45;&gt;wasm</title>
<path fill="none" stroke="black" d="M626.95,-2510.71C710.91,-2486.34 886,-2435.51 962.96,-2413.17"/>
<polygon fill="black" stroke="black" points="963.93,-2416.53 972.56,-2410.38 961.98,-2409.81 963.93,-2416.53"/>
</g>
<!-- web&#45;kernel -->
<g id="node67" class="node">
<title>web&#45;kernel</title>
<polygon fill="none" stroke="black" points="369,-1154.23 277.25,-1154.23 277.25,-1118.23 369,-1118.23 369,-1154.23"/>
<text text-anchor="middle" x="323.12" y="-1131.93" font-family="sans-serif" font-size="14.00">web&#45;kernel</text>
</g>
<!-- web&#45;kernel&#45;&gt;forsp -->
<g id="edge183" class="edge">
<title>web&#45;kernel&#45;&gt;forsp</title>
<path fill="none" stroke="black" d="M326.97,-1154.69C335.55,-1208.61 363.18,-1370.25 405,-1499.23 413.4,-1525.15 425.91,-1553.49 435.52,-1573.87"/>
<polygon fill="black" stroke="black" points="432.26,-1575.16 439.73,-1582.67 438.57,-1572.14 432.26,-1575.16"/>
</g>
<!-- web&#45;kernel&#45;&gt;haskell -->
<g id="edge184" class="edge">
<title>web&#45;kernel&#45;&gt;haskell</title>
<path fill="none" stroke="black" d="M356.54,-1118.02C361.35,-1114.04 365.77,-1109.44 369,-1104.23 418.75,-1024.02 441.56,-727.45 447.72,-632.02"/>
<polygon fill="black" stroke="black" points="451.2,-632.38 448.34,-622.18 444.22,-631.94 451.2,-632.38"/>
</g>
<!-- web&#45;kernel&#45;&gt;hol&#45;api -->
<g id="edge185" class="edge">
<title>web&#45;kernel&#45;&gt;hol&#45;api</title>
<path fill="none" stroke="black" d="M357.39,-1117.88C361.98,-1113.96 366.11,-1109.41 369,-1104.23 426.48,-1001.38 323.42,-660.25 405,-575.23 438.2,-540.63 496.67,-541.57 536.45,-547.32"/>
<polygon fill="black" stroke="black" points="535.71,-550.75 546.14,-548.89 536.83,-543.84 535.71,-550.75"/>
</g>
<!-- web&#45;kernel&#45;&gt;kernel -->
<g id="edge186" class="edge">
<title>web&#45;kernel&#45;&gt;kernel</title>
<path fill="none" stroke="black" d="M338.24,-1154.69C368.3,-1194.22 440.41,-1290.31 496,-1374.23 520.2,-1410.76 546.05,-1454.27 562.21,-1482.07"/>
<polygon fill="black" stroke="black" points="559.11,-1483.69 567.15,-1490.59 565.17,-1480.19 559.11,-1483.69"/>
</g>
<!-- web&#45;kernel&#45;&gt;lisp -->
<g id="edge187" class="edge">
<title>web&#45;kernel&#45;&gt;lisp</title>
<path fill="none" stroke="black" d="M369.39,-1129.37C383.38,-1127.25 398.64,-1124.94 412.05,-1122.91"/>
<polygon fill="black" stroke="black" points="412.42,-1126.39 421.78,-1121.43 411.37,-1119.47 412.42,-1126.39"/>
</g>
</g>
</svg>
