<?xml version="1.0" encoding="UTF-8" standalone="no"?>
<!DOCTYPE svg PUBLIC "-//W3C//DTD SVG 1.1//EN"
 "http://www.w3.org/Graphics/SVG/1.1/DTD/svg11.dtd">
<!-- Generated by graphviz version 12.2.1 (0)
 -->
<!-- Title: deps Pages: 1 -->
<svg width="1478pt" height="1979pt"
 viewBox="0.00 0.00 1477.50 1979.42" xmlns="http://www.w3.org/2000/svg" xmlns:xlink="http://www.w3.org/1999/xlink">
<g id="graph0" class="graph" transform="scale(1 1) rotate(0) translate(4 1975.42)">
<title>deps</title>
<polygon fill="white" stroke="none" points="-4,4 -4,-1975.42 1473.5,-1975.42 1473.5,4 -4,4"/>
<!-- covalence -->
<g id="node1" class="node">
<title>covalence</title>
<polygon fill="none" stroke="black" points="102.62,-1046 18.38,-1046 18.38,-1010 102.62,-1010 102.62,-1046"/>
<text text-anchor="middle" x="60.5" y="-1023.7" font-family="sans-serif" font-size="14.00">covalence</text>
</g>
<!-- client -->
<g id="node5" class="node">
<title>client</title>
<polygon fill="none" stroke="black" points="349.75,-995 295.75,-995 295.75,-959 349.75,-959 349.75,-995"/>
<text text-anchor="middle" x="322.75" y="-972.7" font-family="sans-serif" font-size="14.00">client</text>
</g>
<!-- covalence&#45;&gt;client -->
<g id="edge1" class="edge">
<title>covalence&#45;&gt;client</title>
<path fill="none" stroke="black" d="M103.03,-1019.86C153.01,-1010.07 236.2,-993.77 284.29,-984.34"/>
<polygon fill="black" stroke="black" points="284.81,-987.81 293.95,-982.45 283.46,-980.94 284.81,-987.81"/>
</g>
<!-- fuse -->
<g id="node11" class="node">
<title>fuse</title>
<polygon fill="none" stroke="black" points="606.38,-1239 552.38,-1239 552.38,-1203 606.38,-1203 606.38,-1239"/>
<text text-anchor="middle" x="579.38" y="-1216.7" font-family="sans-serif" font-size="14.00">fuse</text>
</g>
<!-- covalence&#45;&gt;fuse -->
<g id="edge2" class="edge">
<title>covalence&#45;&gt;fuse</title>
<path fill="none" stroke="black" d="M93.6,-1046.4C111.85,-1056.46 135.32,-1068.71 157,-1078 295.47,-1137.32 467.46,-1189.24 541.58,-1210.61"/>
<polygon fill="black" stroke="black" points="540.17,-1213.85 550.75,-1213.24 542.1,-1207.12 540.17,-1213.85"/>
</g>
<!-- git -->
<g id="node12" class="node">
<title>git</title>
<polygon fill="none" stroke="black" points="477.12,-1498 423.12,-1498 423.12,-1462 477.12,-1462 477.12,-1498"/>
<text text-anchor="middle" x="450.12" y="-1475.7" font-family="sans-serif" font-size="14.00">git</text>
</g>
<!-- covalence&#45;&gt;git -->
<g id="edge3" class="edge">
<title>covalence&#45;&gt;git</title>
<path fill="none" stroke="black" d="M62.82,-1046.36C68.55,-1120.8 93.94,-1398.74 157,-1454 228.41,-1516.57 350.8,-1501.78 412,-1489.13"/>
<polygon fill="black" stroke="black" points="412.53,-1492.6 421.56,-1487.06 411.04,-1485.76 412.53,-1492.6"/>
</g>
<!-- hash -->
<g id="node15" class="node">
<title>hash</title>
<polygon fill="none" stroke="black" points="887.38,-1164 833.38,-1164 833.38,-1128 887.38,-1128 887.38,-1164"/>
<text text-anchor="middle" x="860.38" y="-1141.7" font-family="sans-serif" font-size="14.00">hash</text>
</g>
<!-- covalence&#45;&gt;hash -->
<g id="edge4" class="edge">
<title>covalence&#45;&gt;hash</title>
<path fill="none" stroke="black" d="M103.08,-1010.24C119.73,-1003.33 139.17,-995.52 157,-989 209.77,-969.7 221.75,-958.77 277.25,-950 317.2,-943.68 327.95,-946.59 368.25,-950 455.74,-957.39 684.38,-975.2 756,-1026 779.83,-1042.9 773.37,-1058.49 792,-1081 803.45,-1094.83 817.57,-1108.84 829.92,-1120.28"/>
<polygon fill="black" stroke="black" points="827.26,-1122.6 837.01,-1126.75 831.98,-1117.43 827.26,-1122.6"/>
</g>
<!-- hol -->
<g id="node17" class="node">
<title>hol</title>
<polygon fill="none" stroke="black" points="887.38,-308 833.38,-308 833.38,-272 887.38,-272 887.38,-308"/>
<text text-anchor="middle" x="860.38" y="-285.7" font-family="sans-serif" font-size="14.00">hol</text>
</g>
<!-- covalence&#45;&gt;hol -->
<g id="edge5" class="edge">
<title>covalence&#45;&gt;hol</title>
<path fill="none" stroke="black" d="M64.25,-1009.65C81.11,-900.56 174.63,-342 321.75,-342 321.75,-342 321.75,-342 580.38,-342 668.28,-342 769.17,-316.74 822.25,-301.43"/>
<polygon fill="black" stroke="black" points="823.07,-304.84 831.68,-298.67 821.1,-298.12 823.07,-304.84"/>
</g>
<!-- lsp -->
<g id="node27" class="node">
<title>lsp</title>
<polygon fill="none" stroke="black" points="887.38,-1072 833.38,-1072 833.38,-1036 887.38,-1036 887.38,-1072"/>
<text text-anchor="middle" x="860.38" y="-1049.7" font-family="sans-serif" font-size="14.00">lsp</text>
</g>
<!-- covalence&#45;&gt;lsp -->
<g id="edge6" class="edge">
<title>covalence&#45;&gt;lsp</title>
<path fill="none" stroke="black" d="M64.12,-1009.63C73.57,-945.99 107.99,-736.41 157,-693 270.09,-592.83 355.9,-611.48 496,-668 570.84,-698.19 576.02,-731.23 626.75,-794 645.82,-817.6 639.57,-832.43 662.75,-852 696.95,-880.87 725.58,-857.18 756,-890 791.54,-928.35 761.95,-959.21 792,-1002 800.36,-1013.9 812.25,-1024.34 823.72,-1032.68"/>
<polygon fill="black" stroke="black" points="821.7,-1035.54 831.93,-1038.32 825.67,-1029.77 821.7,-1035.54"/>
</g>
<!-- object -->
<g id="node30" class="node">
<title>object</title>
<polygon fill="none" stroke="black" points="738,-1141 680.75,-1141 680.75,-1105 738,-1105 738,-1141"/>
<text text-anchor="middle" x="709.38" y="-1118.7" font-family="sans-serif" font-size="14.00">object</text>
</g>
<!-- covalence&#45;&gt;object -->
<g id="edge7" class="edge">
<title>covalence&#45;&gt;object</title>
<path fill="none" stroke="black" d="M70.76,-1009.51C85.09,-983.21 115.41,-936.08 157,-917 191.03,-901.39 204.11,-912.25 241.25,-917 421.91,-940.09 470.37,-962.64 626.75,-1056 646.23,-1067.63 665.94,-1083.66 681.12,-1097.13"/>
<polygon fill="black" stroke="black" points="678.6,-1099.58 688.37,-1103.7 683.3,-1094.39 678.6,-1099.58"/>
</g>
<!-- opentheory -->
<g id="node31" class="node">
<title>opentheory</title>
<polygon fill="none" stroke="black" points="368.25,-299 277.25,-299 277.25,-263 368.25,-263 368.25,-299"/>
<text text-anchor="middle" x="322.75" y="-276.7" font-family="sans-serif" font-size="14.00">opentheory</text>
</g>
<!-- covalence&#45;&gt;opentheory -->
<g id="edge8" class="edge">
<title>covalence&#45;&gt;opentheory</title>
<path fill="none" stroke="black" d="M61.39,-1009.82C61.18,-910.51 65.01,-434.11 157,-328 183.72,-297.18 229.1,-285.89 265.48,-282.05"/>
<polygon fill="black" stroke="black" points="265.77,-285.54 275.43,-281.19 265.16,-278.57 265.77,-285.54"/>
</g>
<!-- proto -->
<g id="node35" class="node">
<title>proto</title>
<polygon fill="none" stroke="black" points="349.75,-1445 295.75,-1445 295.75,-1409 349.75,-1409 349.75,-1445"/>
<text text-anchor="middle" x="322.75" y="-1422.7" font-family="sans-serif" font-size="14.00">proto</text>
</g>
<!-- covalence&#45;&gt;proto -->
<g id="edge9" class="edge">
<title>covalence&#45;&gt;proto</title>
<path fill="none" stroke="black" d="M68.66,-1046.37C91.65,-1103.6 168.55,-1281.63 277.25,-1395 280.12,-1397.99 283.3,-1400.89 286.6,-1403.65"/>
<polygon fill="black" stroke="black" points="284.26,-1406.26 294.31,-1409.62 288.55,-1400.73 284.26,-1406.26"/>
</g>
<!-- repl -->
<g id="node41" class="node">
<title>repl</title>
<polygon fill="none" stroke="black" points="349.75,-1306 295.75,-1306 295.75,-1270 349.75,-1270 349.75,-1306"/>
<text text-anchor="middle" x="322.75" y="-1283.7" font-family="sans-serif" font-size="14.00">repl</text>
</g>
<!-- covalence&#45;&gt;repl -->
<g id="edge10" class="edge">
<title>covalence&#45;&gt;repl</title>
<path fill="none" stroke="black" d="M71.67,-1046.06C87.62,-1073.44 120.49,-1126.26 157,-1164 196.7,-1205.04 250.89,-1243.07 286.1,-1265.92"/>
<polygon fill="black" stroke="black" points="283.92,-1268.68 294.22,-1271.13 287.7,-1262.79 283.92,-1268.68"/>
</g>
<!-- serve -->
<g id="node43" class="node">
<title>serve</title>
<polygon fill="none" stroke="black" points="226.12,-1069 172.12,-1069 172.12,-1033 226.12,-1033 226.12,-1069"/>
<text text-anchor="middle" x="199.12" y="-1046.7" font-family="sans-serif" font-size="14.00">serve</text>
</g>
<!-- covalence&#45;&gt;serve -->
<g id="edge11" class="edge">
<title>covalence&#45;&gt;serve</title>
<path fill="none" stroke="black" d="M102.86,-1034.96C121.29,-1038.07 142.83,-1041.69 160.76,-1044.71"/>
<polygon fill="black" stroke="black" points="160.02,-1048.13 170.47,-1046.34 161.19,-1041.23 160.02,-1048.13"/>
</g>
<!-- shell -->
<g id="node45" class="node">
<title>shell</title>
<polygon fill="none" stroke="black" points="477.12,-713 423.12,-713 423.12,-677 477.12,-677 477.12,-713"/>
<text text-anchor="middle" x="450.12" y="-690.7" font-family="sans-serif" font-size="14.00">shell</text>
</g>
<!-- covalence&#45;&gt;shell -->
<g id="edge12" class="edge">
<title>covalence&#45;&gt;shell</title>
<path fill="none" stroke="black" d="M63.85,-1009.81C70.62,-963.6 93.91,-839.77 157,-761 196.52,-711.65 216.52,-702.58 277.25,-685 322.13,-672.01 376.29,-678.61 411.66,-685.72"/>
<polygon fill="black" stroke="black" points="410.9,-689.14 421.42,-687.81 412.37,-682.3 410.9,-689.14"/>
</g>
<!-- store -->
<g id="node49" class="node">
<title>store</title>
<polygon fill="none" stroke="black" points="736.38,-1651 682.38,-1651 682.38,-1615 736.38,-1615 736.38,-1651"/>
<text text-anchor="middle" x="709.38" y="-1628.7" font-family="sans-serif" font-size="14.00">store</text>
</g>
<!-- covalence&#45;&gt;store -->
<g id="edge13" class="edge">
<title>covalence&#45;&gt;store</title>
<path fill="none" stroke="black" d="M61.11,-1046.5C60.44,-1114.72 65.01,-1356.99 157,-1525 218.95,-1638.14 276.62,-1658.31 404.25,-1677 502.1,-1691.32 530.87,-1701.2 626.75,-1677 642.7,-1672.97 658.93,-1665.15 672.66,-1657.2"/>
<polygon fill="black" stroke="black" points="674.14,-1660.4 680.89,-1652.23 670.52,-1654.41 674.14,-1660.4"/>
</g>
<!-- wasm -->
<g id="node52" class="node">
<title>wasm</title>
<polygon fill="none" stroke="black" points="1028.75,-1635 974.5,-1635 974.5,-1599 1028.75,-1599 1028.75,-1635"/>
<text text-anchor="middle" x="1001.62" y="-1612.7" font-family="sans-serif" font-size="14.00">wasm</text>
</g>
<!-- covalence&#45;&gt;wasm -->
<g id="edge14" class="edge">
<title>covalence&#45;&gt;wasm</title>
<path fill="none" stroke="black" d="M62.72,-1046.48C68.22,-1124.12 93.29,-1422.79 157,-1487 217.72,-1548.2 847.63,-1537.82 928.75,-1567 944.14,-1572.53 959.29,-1582.25 971.68,-1591.65"/>
<polygon fill="black" stroke="black" points="969.38,-1594.29 979.39,-1597.76 973.73,-1588.81 969.38,-1594.29"/>
</g>
<!-- acset -->
<g id="node2" class="node">
<title>acset</title>
<polygon fill="none" stroke="black" points="887.38,-942 833.38,-942 833.38,-906 887.38,-906 887.38,-942"/>
<text text-anchor="middle" x="860.38" y="-919.7" font-family="sans-serif" font-size="14.00">acset</text>
</g>
<!-- alethe -->
<g id="node3" class="node">
<title>alethe</title>
<polygon fill="none" stroke="black" points="607.62,-474 551.12,-474 551.12,-438 607.62,-438 607.62,-474"/>
<text text-anchor="middle" x="579.38" y="-451.7" font-family="sans-serif" font-size="14.00">alethe</text>
</g>
<!-- core -->
<g id="node6" class="node">
<title>core</title>
<polygon fill="#ffd6d6" stroke="black" points="1028.62,-281 974.62,-281 974.62,-245 1028.62,-245 1028.62,-281"/>
<text text-anchor="middle" x="1001.62" y="-258.7" font-family="sans-serif" font-size="14.00">core</text>
</g>
<!-- alethe&#45;&gt;core -->
<g id="edge15" class="edge">
<title>alethe&#45;&gt;core</title>
<path fill="none" stroke="black" d="M608.11,-450.02C644.1,-441.42 707.98,-423.32 756,-394 774.78,-382.53 773.02,-371.14 792,-360 846.95,-327.75 872.08,-346.11 928.75,-317 943.83,-309.25 959.06,-298.36 971.59,-288.38"/>
<polygon fill="black" stroke="black" points="973.5,-291.34 979.02,-282.29 969.07,-285.92 973.5,-291.34"/>
</g>
<!-- hol&#45;eval -->
<g id="node19" class="node">
<title>hol&#45;eval</title>
<polygon fill="none" stroke="black" points="895.38,-124 825.38,-124 825.38,-88 895.38,-88 895.38,-124"/>
<text text-anchor="middle" x="860.38" y="-101.7" font-family="sans-serif" font-size="14.00">hol&#45;eval</text>
</g>
<!-- alethe&#45;&gt;hol&#45;eval -->
<g id="edge16" class="edge">
<title>alethe&#45;&gt;hol&#45;eval</title>
<path fill="none" stroke="black" d="M594.98,-437.68C641.03,-379.91 783.31,-201.42 837.82,-133.04"/>
<polygon fill="black" stroke="black" points="840.47,-135.33 843.97,-125.33 835,-130.96 840.47,-135.33"/>
</g>
<!-- init -->
<g id="node21" class="node">
<title>init</title>
<polygon fill="none" stroke="black" points="736.38,-520 682.38,-520 682.38,-484 736.38,-484 736.38,-520"/>
<text text-anchor="middle" x="709.38" y="-497.7" font-family="sans-serif" font-size="14.00">init</text>
</g>
<!-- alethe&#45;&gt;init -->
<g id="edge17" class="edge">
<title>alethe&#45;&gt;init</title>
<path fill="none" stroke="black" d="M607.83,-465.87C626.43,-472.55 651.21,-481.46 671.52,-488.75"/>
<polygon fill="black" stroke="black" points="670.25,-492.02 680.85,-492.11 672.62,-485.43 670.25,-492.02"/>
</g>
<!-- sexp -->
<g id="node44" class="node">
<title>sexp</title>
<polygon fill="none" stroke="black" points="1028.62,-804 974.62,-804 974.62,-768 1028.62,-768 1028.62,-804"/>
<text text-anchor="middle" x="1001.62" y="-781.7" font-family="sans-serif" font-size="14.00">sexp</text>
</g>
<!-- alethe&#45;&gt;sexp -->
<g id="edge18" class="edge">
<title>alethe&#45;&gt;sexp</title>
<path fill="none" stroke="black" d="M584.55,-474.45C593.41,-509.99 617.12,-588.79 662.75,-638 694.87,-672.64 718,-660.95 756,-689 773.95,-702.25 772.75,-712.72 792,-724 821.17,-741.1 911.51,-764.59 963.24,-777.18"/>
<polygon fill="black" stroke="black" points="962.26,-780.54 972.8,-779.49 963.91,-773.74 962.26,-780.54"/>
</g>
<!-- smt -->
<g id="node46" class="node">
<title>smt</title>
<polygon fill="none" stroke="black" points="736.38,-629 682.38,-629 682.38,-593 736.38,-593 736.38,-629"/>
<text text-anchor="middle" x="709.38" y="-606.7" font-family="sans-serif" font-size="14.00">smt</text>
</g>
<!-- alethe&#45;&gt;smt -->
<g id="edge19" class="edge">
<title>alethe&#45;&gt;smt</title>
<path fill="none" stroke="black" d="M595.56,-474.39C617.98,-501.54 660.08,-552.52 686.03,-583.94"/>
<polygon fill="black" stroke="black" points="683.18,-585.99 692.25,-591.47 688.58,-581.53 683.18,-585.99"/>
</g>
<!-- types -->
<g id="node51" class="node">
<title>types</title>
<polygon fill="#ffd6d6" stroke="black" points="1469.5,-319 1415.5,-319 1415.5,-283 1469.5,-283 1469.5,-319"/>
<text text-anchor="middle" x="1442.5" y="-296.7" font-family="sans-serif" font-size="14.00">types</text>
</g>
<!-- alethe&#45;&gt;types -->
<g id="edge20" class="edge">
<title>alethe&#45;&gt;types</title>
<path fill="none" stroke="black" d="M607.84,-452.13C642.48,-447.14 703.83,-437.91 756,-428 865.38,-407.23 889.29,-374 1000.62,-374 1000.62,-374 1000.62,-374 1218.25,-374 1287,-374 1362.03,-342.34 1405.24,-320.72"/>
<polygon fill="black" stroke="black" points="1406.6,-323.95 1413.91,-316.29 1403.42,-317.72 1406.6,-323.95"/>
</g>
<!-- arrow -->
<g id="node4" class="node">
<title>arrow</title>
<polygon fill="none" stroke="black" points="606.38,-1369 552.38,-1369 552.38,-1333 606.38,-1333 606.38,-1369"/>
<text text-anchor="middle" x="579.38" y="-1346.7" font-family="sans-serif" font-size="14.00">arrow</text>
</g>
<!-- client&#45;&gt;hash -->
<g id="edge21" class="edge">
<title>client&#45;&gt;hash</title>
<path fill="none" stroke="black" d="M350.18,-977.92C419.84,-981.25 612.98,-996.29 756,-1063 785.8,-1076.9 814.53,-1101.13 834.11,-1119.84"/>
<polygon fill="black" stroke="black" points="831.49,-1122.18 841.09,-1126.67 836.39,-1117.17 831.49,-1122.18"/>
</g>
<!-- client&#45;&gt;shell -->
<g id="edge22" class="edge">
<title>client&#45;&gt;shell</title>
<path fill="none" stroke="black" d="M331.86,-958.63C341.37,-936.65 357.24,-898.6 368.25,-865 387.99,-804.77 368.29,-779.2 404.25,-727 406.94,-723.1 410.26,-719.51 413.88,-716.26"/>
<polygon fill="black" stroke="black" points="415.82,-719.18 421.5,-710.24 411.48,-713.69 415.82,-719.18"/>
</g>
<!-- client&#45;&gt;store -->
<g id="edge23" class="edge">
<title>client&#45;&gt;store</title>
<path fill="none" stroke="black" d="M335.55,-995.3C365.35,-1040.78 447.3,-1161.52 532,-1248 569.77,-1286.57 598.4,-1278.06 626.75,-1324 666.85,-1388.98 642.97,-1418.24 662.75,-1492 673.29,-1531.31 688.23,-1575.89 698.1,-1604.2"/>
<polygon fill="black" stroke="black" points="694.75,-1605.22 701.37,-1613.5 701.36,-1602.9 694.75,-1605.22"/>
</g>
<!-- pure -->
<g id="node36" class="node">
<title>pure</title>
<polygon fill="#ffd6d6" stroke="black" points="1244.25,-235 1190.25,-235 1190.25,-199 1244.25,-199 1244.25,-235"/>
<text text-anchor="middle" x="1217.25" y="-212.7" font-family="sans-serif" font-size="14.00">pure</text>
</g>
<!-- core&#45;&gt;pure -->
<g id="edge24" class="edge">
<title>core&#45;&gt;pure</title>
<path fill="none" stroke="black" d="M1029.09,-261.97C1059.71,-260.26 1111.4,-255.75 1154.25,-244 1162.67,-241.69 1171.44,-238.44 1179.63,-235"/>
<polygon fill="black" stroke="black" points="1180.88,-238.27 1188.62,-231.03 1178.06,-231.87 1180.88,-238.27"/>
</g>
<!-- pure&#45;eval -->
<g id="node37" class="node">
<title>pure&#45;eval</title>
<polygon fill="#ffd6d6" stroke="black" points="1154.25,-235 1074.5,-235 1074.5,-199 1154.25,-199 1154.25,-235"/>
<text text-anchor="middle" x="1114.38" y="-212.7" font-family="sans-serif" font-size="14.00">pure&#45;eval</text>
</g>
<!-- core&#45;&gt;pure&#45;eval -->
<g id="edge25" class="edge">
<title>core&#45;&gt;pure&#45;eval</title>
<path fill="none" stroke="black" d="M1028.87,-252.1C1039.36,-247.74 1051.8,-242.58 1063.86,-237.57"/>
<polygon fill="black" stroke="black" points="1065.01,-240.88 1072.91,-233.81 1062.33,-234.41 1065.01,-240.88"/>
</g>
<!-- core&#45;&gt;types -->
<g id="edge26" class="edge">
<title>core&#45;&gt;types</title>
<path fill="none" stroke="black" d="M1029.09,-265.29C1103.78,-271.76 1316.44,-290.17 1403.57,-297.72"/>
<polygon fill="black" stroke="black" points="1403.23,-301.2 1413.49,-298.57 1403.83,-294.23 1403.23,-301.2"/>
</g>
<!-- core&#45;test&#45;guest -->
<g id="node7" class="node">
<title>core&#45;test&#45;guest</title>
<polygon fill="none" stroke="black" points="121,-1697 0,-1697 0,-1661 121,-1661 121,-1697"/>
<text text-anchor="middle" x="60.5" y="-1674.7" font-family="sans-serif" font-size="14.00">core&#45;test&#45;guest</text>
</g>
<!-- crypto&#45;sig -->
<g id="node8" class="node">
<title>crypto&#45;sig</title>
<polygon fill="none" stroke="black" points="241.25,-1879 157,-1879 157,-1843 241.25,-1843 241.25,-1879"/>
<text text-anchor="middle" x="199.12" y="-1856.7" font-family="sans-serif" font-size="14.00">crypto&#45;sig</text>
</g>
<!-- egglog -->
<g id="node9" class="node">
<title>egglog</title>
<polygon fill="none" stroke="black" points="890.88,-644 829.88,-644 829.88,-608 890.88,-608 890.88,-644"/>
<text text-anchor="middle" x="860.38" y="-621.7" font-family="sans-serif" font-size="14.00">egglog</text>
</g>
<!-- egglog&#45;&gt;sexp -->
<g id="edge27" class="edge">
<title>egglog&#45;&gt;sexp</title>
<path fill="none" stroke="black" d="M891.29,-635.59C903.93,-640.74 918.15,-648.1 928.75,-658 958.51,-685.8 979.12,-728.76 990.41,-757.13"/>
<polygon fill="black" stroke="black" points="987.03,-758.08 993.87,-766.17 993.57,-755.58 987.03,-758.08"/>
</g>
<!-- egglog&#45;&gt;types -->
<g id="edge28" class="edge">
<title>egglog&#45;&gt;types</title>
<path fill="none" stroke="black" d="M891.24,-625.22C938.42,-624.06 1033.08,-622 1113.38,-622 1113.38,-622 1113.38,-622 1218.25,-622 1290.99,-622 1327.13,-644.48 1379.5,-594 1417.12,-557.73 1433.88,-397.81 1439.35,-330.75"/>
<polygon fill="black" stroke="black" points="1442.84,-331.11 1440.13,-320.87 1435.86,-330.56 1442.84,-331.11"/>
</g>
<!-- forsp -->
<g id="node10" class="node">
<title>forsp</title>
<polygon fill="none" stroke="black" points="736.38,-935 682.38,-935 682.38,-899 736.38,-899 736.38,-935"/>
<text text-anchor="middle" x="709.38" y="-912.7" font-family="sans-serif" font-size="14.00">forsp</text>
</g>
<!-- forsp&#45;&gt;hash -->
<g id="edge29" class="edge">
<title>forsp&#45;&gt;hash</title>
<path fill="none" stroke="black" d="M736.73,-930.93C743.87,-935.81 750.99,-941.88 756,-949 790.97,-998.75 761.01,-1028.68 792,-1081 800.73,-1095.74 813.7,-1109.36 825.93,-1120.29"/>
<polygon fill="black" stroke="black" points="823.61,-1122.91 833.48,-1126.76 828.17,-1117.6 823.61,-1122.91"/>
</g>
<!-- forsp&#45;&gt;sexp -->
<g id="edge30" class="edge">
<title>forsp&#45;&gt;sexp</title>
<path fill="none" stroke="black" d="M736.69,-931.83C780.35,-954.25 868.89,-990.21 928.75,-951 974.72,-920.88 991.45,-854.26 997.42,-815.52"/>
<polygon fill="black" stroke="black" points="1000.87,-816.11 998.77,-805.73 993.94,-815.15 1000.87,-816.11"/>
</g>
<!-- fuse&#45;&gt;hash -->
<g id="edge31" class="edge">
<title>fuse&#45;&gt;hash</title>
<path fill="none" stroke="black" d="M606.87,-1213.88C656.76,-1200.47 764.73,-1171.44 821.98,-1156.05"/>
<polygon fill="black" stroke="black" points="822.84,-1159.44 831.59,-1153.47 821.03,-1152.68 822.84,-1159.44"/>
</g>
<!-- fuse&#45;&gt;object -->
<g id="edge32" class="edge">
<title>fuse&#45;&gt;object</title>
<path fill="none" stroke="black" d="M606.62,-1203.4C613.26,-1198.81 620.33,-1193.8 626.75,-1189 644.08,-1176.05 662.88,-1160.92 678.07,-1148.41"/>
<polygon fill="black" stroke="black" points="679.92,-1151.43 685.4,-1142.35 675.46,-1146.03 679.92,-1151.43"/>
</g>
<!-- fuse&#45;&gt;store -->
<g id="edge33" class="edge">
<title>fuse&#45;&gt;store</title>
<path fill="none" stroke="black" d="M606.73,-1233.86C614.33,-1238.81 621.88,-1245.2 626.75,-1253 683.64,-1344.12 638.13,-1387.44 662.75,-1492 672.03,-1531.4 687.13,-1575.63 697.4,-1603.86"/>
<polygon fill="black" stroke="black" points="694.08,-1604.98 700.82,-1613.15 700.65,-1602.56 694.08,-1604.98"/>
</g>
<!-- git&#45;&gt;hash -->
<g id="edge34" class="edge">
<title>git&#45;&gt;hash</title>
<path fill="none" stroke="black" d="M477.47,-1470.51C547.48,-1445.12 734.31,-1376.2 756,-1356 810.32,-1305.41 839.76,-1220.09 852.16,-1175.36"/>
<polygon fill="black" stroke="black" points="855.5,-1176.43 854.69,-1165.86 848.74,-1174.62 855.5,-1176.43"/>
</g>
<!-- git&#45;&gt;object -->
<g id="edge35" class="edge">
<title>git&#45;&gt;object</title>
<path fill="none" stroke="black" d="M477.57,-1469.28C484.61,-1465.19 491.49,-1459.83 496,-1453 560.04,-1356.02 460.46,-1285.59 532,-1194 540.93,-1182.57 620.69,-1153.38 669.84,-1136.2"/>
<polygon fill="black" stroke="black" points="670.7,-1139.61 679,-1133.02 668.4,-1132.99 670.7,-1139.61"/>
</g>
<!-- sqlite -->
<g id="node48" class="node">
<title>sqlite</title>
<polygon fill="none" stroke="black" points="887.38,-1704 833.38,-1704 833.38,-1668 887.38,-1668 887.38,-1704"/>
<text text-anchor="middle" x="860.38" y="-1681.7" font-family="sans-serif" font-size="14.00">sqlite</text>
</g>
<!-- git&#45;&gt;sqlite -->
<g id="edge36" class="edge">
<title>git&#45;&gt;sqlite</title>
<path fill="none" stroke="black" d="M477.52,-1496.11C493.06,-1505.23 513.28,-1516.48 532,-1525 628.34,-1568.88 667.81,-1547.44 756,-1606 775.65,-1619.05 773.75,-1630.06 792,-1645 801.55,-1652.82 812.74,-1660.22 823.22,-1666.52"/>
<polygon fill="black" stroke="black" points="821.26,-1669.44 831.67,-1671.45 824.79,-1663.39 821.26,-1669.44"/>
</g>
<!-- git&#45;&gt;store -->
<g id="edge37" class="edge">
<title>git&#45;&gt;store</title>
<path fill="none" stroke="black" d="M465.14,-1498.38C480.01,-1516.83 505.05,-1545.03 532,-1563 575.84,-1592.23 633.75,-1612.26 671.04,-1623.18"/>
<polygon fill="black" stroke="black" points="669.88,-1626.49 680.45,-1625.86 671.79,-1619.75 669.88,-1626.49"/>
</g>
<!-- grammar -->
<g id="node13" class="node">
<title>grammar</title>
<polygon fill="none" stroke="black" points="1038.5,-533 964.75,-533 964.75,-497 1038.5,-497 1038.5,-533"/>
<text text-anchor="middle" x="1001.62" y="-510.7" font-family="sans-serif" font-size="14.00">grammar</text>
</g>
<!-- graph -->
<g id="node14" class="node">
<title>graph</title>
<polygon fill="none" stroke="black" points="477.12,-1444 423.12,-1444 423.12,-1408 477.12,-1408 477.12,-1444"/>
<text text-anchor="middle" x="450.12" y="-1421.7" font-family="sans-serif" font-size="14.00">graph</text>
</g>
<!-- graph&#45;&gt;hash -->
<g id="edge38" class="edge">
<title>graph&#45;&gt;hash</title>
<path fill="none" stroke="black" d="M477.42,-1420.21C512.13,-1412.26 574.89,-1396.78 626.75,-1378 686.12,-1356.49 708.95,-1361.12 756,-1319 801.67,-1278.11 833.25,-1212.16 848.63,-1174.6"/>
<polygon fill="black" stroke="black" points="851.7,-1176.35 852.15,-1165.77 845.2,-1173.76 851.7,-1176.35"/>
</g>
<!-- parse -->
<g id="node33" class="node">
<title>parse</title>
<polygon fill="none" stroke="black" points="1141.38,-1072 1087.38,-1072 1087.38,-1036 1141.38,-1036 1141.38,-1072"/>
<text text-anchor="middle" x="1114.38" y="-1049.7" font-family="sans-serif" font-size="14.00">parse</text>
</g>
<!-- graph&#45;&gt;parse -->
<g id="edge39" class="edge">
<title>graph&#45;&gt;parse</title>
<path fill="none" stroke="black" d="M477.57,-1442.36C531.92,-1473.74 659.21,-1535.57 756,-1492 944.23,-1407.26 1064.4,-1166.1 1101.28,-1082.75"/>
<polygon fill="black" stroke="black" points="1104.45,-1084.24 1105.24,-1073.68 1098.03,-1081.45 1104.45,-1084.24"/>
</g>
<!-- rand -->
<g id="node40" class="node">
<title>rand</title>
<polygon fill="none" stroke="black" points="1028.62,-1164 974.62,-1164 974.62,-1128 1028.62,-1128 1028.62,-1164"/>
<text text-anchor="middle" x="1001.62" y="-1141.7" font-family="sans-serif" font-size="14.00">rand</text>
</g>
<!-- hash&#45;&gt;rand -->
<g id="edge40" class="edge">
<title>hash&#45;&gt;rand</title>
<path fill="none" stroke="black" d="M887.57,-1146C908.86,-1146 939.19,-1146 963.07,-1146"/>
<polygon fill="black" stroke="black" points="963.04,-1149.5 973.04,-1146 963.04,-1142.5 963.04,-1149.5"/>
</g>
<!-- haskell -->
<g id="node16" class="node">
<title>haskell</title>
<polygon fill="none" stroke="black" points="481.38,-113 418.88,-113 418.88,-77 481.38,-77 481.38,-113"/>
<text text-anchor="middle" x="450.12" y="-90.7" font-family="sans-serif" font-size="14.00">haskell</text>
</g>
<!-- hol&#45;api -->
<g id="node18" class="node">
<title>hol&#45;api</title>
<polygon fill="none" stroke="black" points="610.62,-151 548.12,-151 548.12,-115 610.62,-115 610.62,-151"/>
<text text-anchor="middle" x="579.38" y="-128.7" font-family="sans-serif" font-size="14.00">hol&#45;api</text>
</g>
<!-- haskell&#45;&gt;hol&#45;api -->
<g id="edge41" class="edge">
<title>haskell&#45;&gt;hol&#45;api</title>
<path fill="none" stroke="black" d="M481.6,-104.1C498.17,-109.05 518.89,-115.24 536.9,-120.61"/>
<polygon fill="black" stroke="black" points="535.67,-123.9 546.25,-123.41 537.67,-117.19 535.67,-123.9"/>
</g>
<!-- haskell&#45;&gt;hol&#45;eval -->
<g id="edge42" class="edge">
<title>haskell&#45;&gt;hol&#45;eval</title>
<path fill="none" stroke="black" d="M481.81,-95.83C552.93,-97.74 729.38,-102.5 813.44,-104.76"/>
<polygon fill="black" stroke="black" points="813.3,-108.26 823.39,-105.03 813.49,-101.26 813.3,-108.26"/>
</g>
<!-- haskell&#45;&gt;init -->
<g id="edge43" class="edge">
<title>haskell&#45;&gt;init</title>
<path fill="none" stroke="black" d="M452.18,-113.32C456.59,-183.29 476.04,-432.29 532,-483 569.41,-516.9 631.23,-515.18 670.86,-509.55"/>
<polygon fill="black" stroke="black" points="671.33,-513.02 680.65,-508 670.23,-506.11 671.33,-513.02"/>
</g>
<!-- haskell&#45;&gt;types -->
<g id="edge44" class="edge">
<title>haskell&#45;&gt;types</title>
<path fill="none" stroke="black" d="M479.94,-76.68C526.2,-49.08 620.77,0 708.38,0 708.38,0 708.38,0 1218.25,0 1294.56,0 1328.3,-2.41 1379.5,-59 1434.07,-119.31 1441.96,-221.13 1442.28,-271.27"/>
<polygon fill="black" stroke="black" points="1438.78,-271.04 1442.23,-281.06 1445.78,-271.08 1438.78,-271.04"/>
</g>
<!-- hol&#45;&gt;core -->
<g id="edge45" class="edge">
<title>hol&#45;&gt;core</title>
<path fill="none" stroke="black" d="M887.57,-284.92C908.96,-280.77 939.47,-274.86 963.4,-270.22"/>
<polygon fill="black" stroke="black" points="963.91,-273.68 973.06,-268.34 962.58,-266.81 963.91,-273.68"/>
</g>
<!-- hol&#45;api&#45;&gt;core -->
<g id="edge46" class="edge">
<title>hol&#45;api&#45;&gt;core</title>
<path fill="none" stroke="black" d="M610.91,-133.9C685.39,-136.55 874.25,-146.11 928.75,-176 953.33,-189.48 972.88,-215.06 985.35,-235.01"/>
<polygon fill="black" stroke="black" points="982.31,-236.74 990.44,-243.54 988.32,-233.16 982.31,-236.74"/>
</g>
<!-- hol&#45;api&#45;&gt;hol&#45;eval -->
<g id="edge47" class="edge">
<title>hol&#45;api&#45;&gt;hol&#45;eval</title>
<path fill="none" stroke="black" d="M611.03,-130.03C660.16,-125.28 756.81,-115.93 813.97,-110.39"/>
<polygon fill="black" stroke="black" points="814.07,-113.9 823.69,-109.45 813.4,-106.93 814.07,-113.9"/>
</g>
<!-- inductive -->
<g id="node20" class="node">
<title>inductive</title>
<polygon fill="none" stroke="black" points="898.75,-254 822,-254 822,-218 898.75,-218 898.75,-254"/>
<text text-anchor="middle" x="860.38" y="-231.7" font-family="sans-serif" font-size="14.00">inductive</text>
</g>
<!-- hol&#45;api&#45;&gt;inductive -->
<g id="edge48" class="edge">
<title>hol&#45;api&#45;&gt;inductive</title>
<path fill="none" stroke="black" d="M610.78,-145.51C626.28,-151.8 645.46,-159.46 662.75,-166 712.94,-184.98 770.85,-205.42 810.76,-219.29"/>
<polygon fill="black" stroke="black" points="809.5,-222.55 820.09,-222.52 811.79,-215.94 809.5,-222.55"/>
</g>
<!-- hol&#45;api&#45;&gt;init -->
<g id="edge49" class="edge">
<title>hol&#45;api&#45;&gt;init</title>
<path fill="none" stroke="black" d="M586.72,-151.3C607.41,-210.93 672.99,-400 698.29,-472.92"/>
<polygon fill="black" stroke="black" points="694.91,-473.86 701.49,-482.16 701.52,-471.57 694.91,-473.86"/>
</g>
<!-- hol&#45;api&#45;&gt;types -->
<g id="edge50" class="edge">
<title>hol&#45;api&#45;&gt;types</title>
<path fill="none" stroke="black" d="M610.89,-123.58C651.72,-111.35 726.6,-90.25 792,-79 883.76,-63.22 907.52,-60 1000.62,-60 1000.62,-60 1000.62,-60 1218.25,-60 1294.12,-60 1326.15,-62.06 1379.5,-116 1421.71,-158.67 1435.19,-230.89 1439.49,-271.32"/>
<polygon fill="black" stroke="black" points="1436,-271.63 1440.41,-281.27 1442.97,-270.99 1436,-271.63"/>
</g>
<!-- hol&#45;eval&#45;&gt;core -->
<g id="edge51" class="edge">
<title>hol&#45;eval&#45;&gt;core</title>
<path fill="none" stroke="black" d="M895.63,-116.58C907.33,-121.56 919.72,-128.54 928.75,-138 957.35,-167.98 942.39,-189.12 964.75,-224 967.45,-228.21 970.62,-232.39 973.94,-236.36"/>
<polygon fill="black" stroke="black" points="971.05,-238.38 980.31,-243.53 976.28,-233.73 971.05,-238.38"/>
</g>
<!-- hol&#45;eval&#45;&gt;pure -->
<g id="edge52" class="edge">
<title>hol&#45;eval&#45;&gt;pure</title>
<path fill="none" stroke="black" d="M895.66,-114.27C950.82,-127.93 1062.41,-156.99 1154.25,-190 1162.55,-192.98 1171.31,-196.54 1179.55,-200.07"/>
<polygon fill="black" stroke="black" points="1178.06,-203.24 1188.62,-204.05 1180.87,-196.83 1178.06,-203.24"/>
</g>
<!-- hol&#45;eval&#45;&gt;pure&#45;eval -->
<g id="edge53" class="edge">
<title>hol&#45;eval&#45;&gt;pure&#45;eval</title>
<path fill="none" stroke="black" d="M895.75,-119.17C906.82,-124.21 918.78,-130.57 928.75,-138 947.92,-152.3 944.33,-165.55 964.75,-178 994.54,-196.16 1032.69,-205.94 1062.87,-211.17"/>
<polygon fill="black" stroke="black" points="1062.1,-214.59 1072.53,-212.72 1063.21,-207.68 1062.1,-214.59"/>
</g>
<!-- hol&#45;eval&#45;&gt;sexp -->
<g id="edge54" class="edge">
<title>hol&#45;eval&#45;&gt;sexp</title>
<path fill="none" stroke="black" d="M877.24,-124.28C893.21,-143.82 917.09,-176.41 928.75,-209 978.88,-349.17 945.92,-394.33 964.75,-542 974.64,-619.59 988.69,-710.69 995.92,-756.51"/>
<polygon fill="black" stroke="black" points="992.43,-756.84 997.45,-766.17 999.34,-755.75 992.43,-756.84"/>
</g>
<!-- hol&#45;eval&#45;&gt;types -->
<g id="edge55" class="edge">
<title>hol&#45;eval&#45;&gt;types</title>
<path fill="none" stroke="black" d="M895.61,-107.55C944.07,-109.62 1035.47,-113 1113.38,-113 1113.38,-113 1113.38,-113 1218.25,-113 1297.67,-113 1321.58,-135.67 1379.5,-190 1403.93,-212.92 1421.18,-247.67 1431.18,-272.17"/>
<polygon fill="black" stroke="black" points="1427.82,-273.18 1434.72,-281.22 1434.34,-270.63 1427.82,-273.18"/>
</g>
<!-- init&#45;&gt;core -->
<g id="edge56" class="edge">
<title>init&#45;&gt;core</title>
<path fill="none" stroke="black" d="M731.65,-483.63C747.82,-469.97 770.8,-451.16 792,-436 850.41,-394.24 874.81,-397.39 928.75,-350 948.93,-332.27 968.11,-308.58 981.57,-290.4"/>
<polygon fill="black" stroke="black" points="984.14,-292.82 987.18,-282.67 978.47,-288.71 984.14,-292.82"/>
</g>
<!-- init&#45;&gt;grammar -->
<g id="edge57" class="edge">
<title>init&#45;&gt;grammar</title>
<path fill="none" stroke="black" d="M736.63,-501.86C777.67,-501.8 859.51,-502.36 928.75,-507 936.67,-507.53 945.06,-508.29 953.2,-509.12"/>
<polygon fill="black" stroke="black" points="952.66,-512.59 962.98,-510.19 953.42,-505.63 952.66,-512.59"/>
</g>
<!-- init&#45;&gt;hash -->
<g id="edge58" class="edge">
<title>init&#45;&gt;hash</title>
<path fill="none" stroke="black" d="M723.77,-520.49C734.55,-536.46 749.01,-560.58 756,-584 787.67,-690.11 745.05,-980.71 792,-1081 799.21,-1096.4 811.78,-1110.07 824.12,-1120.85"/>
<polygon fill="black" stroke="black" points="821.88,-1123.54 831.82,-1127.21 826.34,-1118.14 821.88,-1123.54"/>
</g>
<!-- init&#45;&gt;hol -->
<g id="edge59" class="edge">
<title>init&#45;&gt;hol</title>
<path fill="none" stroke="black" d="M723.34,-483.56C749.6,-446.19 809.22,-361.37 840.07,-317.47"/>
<polygon fill="black" stroke="black" points="842.79,-319.68 845.68,-309.49 837.06,-315.66 842.79,-319.68"/>
</g>
<!-- init&#45;&gt;hol&#45;eval -->
<g id="edge60" class="edge">
<title>init&#45;&gt;hol&#45;eval</title>
<path fill="none" stroke="black" d="M714.73,-483.53C728.08,-427.46 768.9,-259.98 792,-209 804.35,-181.74 823.36,-153.47 838.04,-133.46"/>
<polygon fill="black" stroke="black" points="840.77,-135.66 843.95,-125.56 835.16,-131.47 840.77,-135.66"/>
</g>
<!-- init&#45;&gt;inductive -->
<g id="edge61" class="edge">
<title>init&#45;&gt;inductive</title>
<path fill="none" stroke="black" d="M714.51,-483.79C726.18,-433.84 760.53,-296.15 792,-263 797.36,-257.35 804.06,-252.86 811.14,-249.29"/>
<polygon fill="black" stroke="black" points="812.52,-252.5 820.29,-245.3 809.72,-246.09 812.52,-252.5"/>
</g>
<!-- metamath -->
<g id="node28" class="node">
<title>metamath</title>
<polygon fill="none" stroke="black" points="900.62,-850 820.12,-850 820.12,-814 900.62,-814 900.62,-850"/>
<text text-anchor="middle" x="860.38" y="-827.7" font-family="sans-serif" font-size="14.00">metamath</text>
</g>
<!-- init&#45;&gt;metamath -->
<g id="edge62" class="edge">
<title>init&#45;&gt;metamath</title>
<path fill="none" stroke="black" d="M721.81,-520.43C731.65,-536.75 745.82,-561.42 756,-584 775.76,-627.83 773.91,-641.46 792,-686 808.86,-727.51 831.06,-774.36 845.28,-803.53"/>
<polygon fill="black" stroke="black" points="842.1,-805 849.65,-812.44 848.39,-801.92 842.1,-805"/>
</g>
<!-- init&#45;&gt;sexp -->
<g id="edge63" class="edge">
<title>init&#45;&gt;sexp</title>
<path fill="none" stroke="black" d="M720.85,-520.49C730.19,-537.05 744.17,-562.06 756,-584 772.41,-614.45 764.75,-631.7 792,-653 841.26,-691.5 876.87,-651.1 928.75,-686 955.24,-703.82 975.29,-734.89 987.39,-757.67"/>
<polygon fill="black" stroke="black" points="984.2,-759.12 991.85,-766.44 990.44,-755.94 984.2,-759.12"/>
</g>
<!-- spectec -->
<g id="node47" class="node">
<title>spectec</title>
<polygon fill="none" stroke="black" points="895,-552 825.75,-552 825.75,-516 895,-516 895,-552"/>
<text text-anchor="middle" x="860.38" y="-529.7" font-family="sans-serif" font-size="14.00">spectec</text>
</g>
<!-- init&#45;&gt;spectec -->
<g id="edge64" class="edge">
<title>init&#45;&gt;spectec</title>
<path fill="none" stroke="black" d="M736.67,-507.65C758.12,-512.25 788.9,-518.86 814.27,-524.31"/>
<polygon fill="black" stroke="black" points="813.5,-527.73 824.01,-526.4 814.97,-520.88 813.5,-527.73"/>
</g>
<!-- init&#45;&gt;types -->
<g id="edge65" class="edge">
<title>init&#45;&gt;types</title>
<path fill="none" stroke="black" d="M736.51,-494.1C787.02,-479.56 901.82,-450 1000.62,-450 1000.62,-450 1000.62,-450 1218.25,-450 1295.03,-450 1318.81,-435.04 1379.5,-388 1399.79,-372.28 1416.26,-348.13 1427.11,-329.27"/>
<polygon fill="black" stroke="black" points="1430.05,-331.18 1431.82,-320.74 1423.92,-327.8 1430.05,-331.18"/>
</g>
<!-- json -->
<g id="node22" class="node">
<title>json</title>
<polygon fill="none" stroke="black" points="887.38,-1758 833.38,-1758 833.38,-1722 887.38,-1722 887.38,-1758"/>
<text text-anchor="middle" x="860.38" y="-1735.7" font-family="sans-serif" font-size="14.00">json</text>
</g>
<!-- kernel -->
<g id="node23" class="node">
<title>kernel</title>
<polygon fill="none" stroke="black" points="608,-881 550.75,-881 550.75,-845 608,-845 608,-881"/>
<text text-anchor="middle" x="579.38" y="-858.7" font-family="sans-serif" font-size="14.00">kernel</text>
</g>
<!-- kernel&#45;&gt;hash -->
<g id="edge66" class="edge">
<title>kernel&#45;&gt;hash</title>
<path fill="none" stroke="black" d="M608.03,-879.85C614.5,-884.38 621.14,-889.55 626.75,-895 646.14,-913.82 641.82,-926.91 662.75,-944 698.1,-972.86 724.82,-953.68 756,-987 786.57,-1019.67 767.31,-1043.69 792,-1081 801.53,-1095.4 814.75,-1109.04 826.96,-1120.07"/>
<polygon fill="black" stroke="black" points="824.62,-1122.68 834.46,-1126.62 829.23,-1117.41 824.62,-1122.68"/>
</g>
<!-- kernel&#45;&gt;init -->
<g id="edge67" class="edge">
<title>kernel&#45;&gt;init</title>
<path fill="none" stroke="black" d="M584.33,-844.57C594.38,-799.17 622.97,-678.77 662.75,-584 670.61,-565.27 681.64,-545.33 690.88,-529.81"/>
<polygon fill="black" stroke="black" points="693.67,-531.96 695.86,-521.59 687.69,-528.33 693.67,-531.96"/>
</g>
<!-- kernel&#45;&gt;object -->
<g id="edge68" class="edge">
<title>kernel&#45;&gt;object</title>
<path fill="none" stroke="black" d="M589.38,-881.28C611.36,-925.94 667.93,-1040.86 694.37,-1094.55"/>
<polygon fill="black" stroke="black" points="691.16,-1095.95 698.72,-1103.38 697.44,-1092.86 691.16,-1095.95"/>
</g>
<!-- kernel&#45;&gt;sexp -->
<g id="edge69" class="edge">
<title>kernel&#45;&gt;sexp</title>
<path fill="none" stroke="black" d="M596.56,-844.65C611.82,-828.85 636.25,-807.2 662.75,-798 701.9,-784.41 720.01,-777.45 756,-798 783.34,-813.61 764.66,-843.39 792,-859 844.78,-889.14 872.69,-882.48 928.75,-859 950.9,-849.73 969.67,-829.93 982.48,-813.29"/>
<polygon fill="black" stroke="black" points="984.97,-815.81 988.06,-805.68 979.32,-811.67 984.97,-815.81"/>
</g>
<!-- kernel&#45;&gt;store -->
<g id="edge70" class="edge">
<title>kernel&#45;&gt;store</title>
<path fill="none" stroke="black" d="M583.06,-881.28C590.38,-931.3 611.18,-1074.61 626.75,-1194 644.01,-1326.29 634.08,-1361.71 662.75,-1492 671.45,-1531.53 686.69,-1575.73 697.14,-1603.92"/>
<polygon fill="black" stroke="black" points="693.83,-1605.07 700.63,-1613.2 700.38,-1602.6 693.83,-1605.07"/>
</g>
<!-- kv -->
<g id="node24" class="node">
<title>kv</title>
<polygon fill="none" stroke="black" points="226.12,-1933 172.12,-1933 172.12,-1897 226.12,-1897 226.12,-1933"/>
<text text-anchor="middle" x="199.12" y="-1910.7" font-family="sans-serif" font-size="14.00">kv</text>
</g>
<!-- lean -->
<g id="node25" class="node">
<title>lean</title>
<polygon fill="none" stroke="black" points="87.5,-1751 33.5,-1751 33.5,-1715 87.5,-1715 87.5,-1751"/>
<text text-anchor="middle" x="60.5" y="-1728.7" font-family="sans-serif" font-size="14.00">lean</text>
</g>
<!-- llm -->
<g id="node26" class="node">
<title>llm</title>
<polygon fill="none" stroke="black" points="226.12,-1445 172.12,-1445 172.12,-1409 226.12,-1409 226.12,-1445"/>
<text text-anchor="middle" x="199.12" y="-1422.7" font-family="sans-serif" font-size="14.00">llm</text>
</g>
<!-- llm&#45;&gt;proto -->
<g id="edge71" class="edge">
<title>llm&#45;&gt;proto</title>
<path fill="none" stroke="black" d="M226.52,-1427C243.33,-1427 265.38,-1427 284.03,-1427"/>
<polygon fill="black" stroke="black" points="283.9,-1430.5 293.9,-1427 283.9,-1423.5 283.9,-1430.5"/>
</g>
<!-- lsp&#45;&gt;sexp -->
<g id="edge72" class="edge">
<title>lsp&#45;&gt;sexp</title>
<path fill="none" stroke="black" d="M883.28,-1035.69C897.82,-1022.55 916.44,-1003.76 928.75,-984 962.91,-929.17 984.15,-855.74 994.04,-815.48"/>
<polygon fill="black" stroke="black" points="997.43,-816.35 996.34,-805.81 990.62,-814.73 997.43,-816.35"/>
</g>
<!-- lsp&#45;&gt;wasm -->
<g id="edge73" class="edge">
<title>lsp&#45;&gt;wasm</title>
<path fill="none" stroke="black" d="M887.61,-1072.34C902.16,-1083.98 919.19,-1100.34 928.75,-1119 971.29,-1202.05 992.88,-1493.3 998.87,-1587.42"/>
<polygon fill="black" stroke="black" points="995.36,-1587.36 999.47,-1597.12 1002.34,-1586.92 995.36,-1587.36"/>
</g>
<!-- metamath&#45;&gt;parse -->
<g id="edge74" class="edge">
<title>metamath&#45;&gt;parse</title>
<path fill="none" stroke="black" d="M882,-850.17C926.67,-889.52 1032.49,-982.74 1084.08,-1028.19"/>
<polygon fill="black" stroke="black" points="1081.51,-1030.6 1091.33,-1034.58 1086.14,-1025.34 1081.51,-1030.6"/>
</g>
<!-- metamath&#45;&gt;sexp -->
<g id="edge75" class="edge">
<title>metamath&#45;&gt;sexp</title>
<path fill="none" stroke="black" d="M900.91,-818.94C920.53,-812.46 944.11,-804.67 963.41,-798.29"/>
<polygon fill="black" stroke="black" points="964.38,-801.66 972.78,-795.2 962.19,-795.01 964.38,-801.66"/>
</g>
<!-- multiformat -->
<g id="node29" class="node">
<title>multiformat</title>
<polygon fill="none" stroke="black" points="754.5,-843 664.25,-843 664.25,-807 754.5,-807 754.5,-843"/>
<text text-anchor="middle" x="709.38" y="-820.7" font-family="sans-serif" font-size="14.00">multiformat</text>
</g>
<!-- multiformat&#45;&gt;acset -->
<g id="edge76" class="edge">
<title>multiformat&#45;&gt;acset</title>
<path fill="none" stroke="black" d="M737.92,-843.26C744.01,-847.59 750.34,-852.31 756,-857 773.19,-871.23 773.68,-879.26 792,-892 801.39,-898.53 812.32,-904.36 822.61,-909.2"/>
<polygon fill="black" stroke="black" points="821.08,-912.35 831.63,-913.25 823.94,-905.96 821.08,-912.35"/>
</g>
<!-- multiformat&#45;&gt;hash -->
<g id="edge77" class="edge">
<title>multiformat&#45;&gt;hash</title>
<path fill="none" stroke="black" d="M726.47,-843.34C736.47,-855.71 748.77,-872.85 756,-890 789.57,-969.59 750.98,-1004.98 792,-1081 800.01,-1095.85 812.6,-1109.34 824.74,-1120.14"/>
<polygon fill="black" stroke="black" points="822.39,-1122.73 832.28,-1126.53 826.91,-1117.39 822.39,-1122.73"/>
</g>
<!-- multiformat&#45;&gt;parse -->
<g id="edge78" class="edge">
<title>multiformat&#45;&gt;parse</title>
<path fill="none" stroke="black" d="M741.98,-843.4C747.14,-847.4 752.07,-851.97 756,-857 783.52,-892.27 759.5,-920.26 792,-951 872.54,-1027.18 1009.6,-1047.02 1075.62,-1052.18"/>
<polygon fill="black" stroke="black" points="1075.36,-1055.67 1085.58,-1052.88 1075.85,-1048.69 1075.36,-1055.67"/>
</g>
<!-- object&#45;&gt;hash -->
<g id="edge79" class="edge">
<title>object&#45;&gt;hash</title>
<path fill="none" stroke="black" d="M738.4,-1127.33C761.94,-1130.96 795.79,-1136.18 821.7,-1140.18"/>
<polygon fill="black" stroke="black" points="821.06,-1143.63 831.48,-1141.69 822.13,-1136.71 821.06,-1143.63"/>
</g>
<!-- object&#45;&gt;parse -->
<g id="edge80" class="edge">
<title>object&#45;&gt;parse</title>
<path fill="none" stroke="black" d="M738.39,-1118.2C809.34,-1106.06 996.1,-1074.08 1076.12,-1060.38"/>
<polygon fill="black" stroke="black" points="1076.37,-1063.89 1085.63,-1058.75 1075.19,-1056.99 1076.37,-1063.89"/>
</g>
<!-- opentheory&#45;&gt;hol -->
<g id="edge81" class="edge">
<title>opentheory&#45;&gt;hol</title>
<path fill="none" stroke="black" d="M368.5,-281.75C471.81,-283.49 725.49,-287.75 821.62,-289.37"/>
<polygon fill="black" stroke="black" points="821.49,-292.86 831.55,-289.53 821.61,-285.86 821.49,-292.86"/>
</g>
<!-- parquet -->
<g id="node32" class="node">
<title>parquet</title>
<polygon fill="none" stroke="black" points="483.62,-1390 416.62,-1390 416.62,-1354 483.62,-1354 483.62,-1390"/>
<text text-anchor="middle" x="450.12" y="-1367.7" font-family="sans-serif" font-size="14.00">parquet</text>
</g>
<!-- parquet&#45;&gt;arrow -->
<g id="edge82" class="edge">
<title>parquet&#45;&gt;arrow</title>
<path fill="none" stroke="black" d="M483.9,-1366.59C501.29,-1363.72 522.75,-1360.18 540.82,-1357.2"/>
<polygon fill="black" stroke="black" points="541.33,-1360.66 550.63,-1355.58 540.19,-1353.75 541.33,-1360.66"/>
</g>
<!-- proptest -->
<g id="node34" class="node">
<title>proptest</title>
<polygon fill="none" stroke="black" points="95.88,-1805 25.12,-1805 25.12,-1769 95.88,-1769 95.88,-1805"/>
<text text-anchor="middle" x="60.5" y="-1782.7" font-family="sans-serif" font-size="14.00">proptest</text>
</g>
<!-- pure&#45;trusted -->
<g id="node38" class="node">
<title>pure&#45;trusted</title>
<polygon fill="#ffd6d6" stroke="black" points="1379.5,-235 1280.25,-235 1280.25,-199 1379.5,-199 1379.5,-235"/>
<text text-anchor="middle" x="1329.88" y="-212.7" font-family="sans-serif" font-size="14.00">pure&#45;trusted</text>
</g>
<!-- pure&#45;&gt;pure&#45;trusted -->
<g id="edge83" class="edge">
<title>pure&#45;&gt;pure&#45;trusted</title>
<path fill="none" stroke="black" d="M1244.75,-217C1252.04,-217 1260.27,-217 1268.64,-217"/>
<polygon fill="black" stroke="black" points="1268.57,-220.5 1278.57,-217 1268.57,-213.5 1268.57,-220.5"/>
</g>
<!-- pure&#45;eval&#45;&gt;pure -->
<g id="edge84" class="edge">
<title>pure&#45;eval&#45;&gt;pure</title>
<path fill="none" stroke="black" d="M1154.66,-217C1162.53,-217 1170.77,-217 1178.57,-217"/>
<polygon fill="black" stroke="black" points="1178.47,-220.5 1188.47,-217 1178.47,-213.5 1178.47,-220.5"/>
</g>
<!-- pure&#45;eval&#45;&gt;types -->
<g id="edge85" class="edge">
<title>pure&#45;eval&#45;&gt;types</title>
<path fill="none" stroke="black" d="M1154.71,-232.21C1166.08,-236.33 1178.58,-240.59 1190.25,-244 1192.85,-244.76 1335.38,-277.01 1404.58,-292.65"/>
<polygon fill="black" stroke="black" points="1403.42,-295.98 1413.94,-294.77 1404.96,-289.15 1403.42,-295.98"/>
</g>
<!-- pure&#45;trusted&#45;&gt;types -->
<g id="edge86" class="edge">
<title>pure&#45;trusted&#45;&gt;types</title>
<path fill="none" stroke="black" d="M1360.05,-235.41C1366.55,-239.73 1373.34,-244.41 1379.5,-249 1390.48,-257.18 1402.09,-266.66 1412.25,-275.28"/>
<polygon fill="black" stroke="black" points="1409.74,-277.73 1419.61,-281.58 1414.29,-272.42 1409.74,-277.73"/>
</g>
<!-- python -->
<g id="node39" class="node">
<title>python</title>
<polygon fill="none" stroke="black" points="91.38,-1643 29.62,-1643 29.62,-1607 91.38,-1607 91.38,-1643"/>
<text text-anchor="middle" x="60.5" y="-1620.7" font-family="sans-serif" font-size="14.00">python</text>
</g>
<!-- python&#45;&gt;crypto&#45;sig -->
<g id="edge87" class="edge">
<title>python&#45;&gt;crypto&#45;sig</title>
<path fill="none" stroke="black" d="M91.74,-1632.49C102.45,-1636.59 113.65,-1642.77 121,-1652 171.02,-1714.79 114.69,-1760.78 157,-1829 158.18,-1830.9 159.52,-1832.74 160.97,-1834.5"/>
<polygon fill="black" stroke="black" points="158.43,-1836.91 167.93,-1841.59 163.42,-1832 158.43,-1836.91"/>
</g>
<!-- python&#45;&gt;git -->
<g id="edge88" class="edge">
<title>python&#45;&gt;git</title>
<path fill="none" stroke="black" d="M91.48,-1625.68C149.46,-1625.62 279.08,-1618.69 368.25,-1563 390.57,-1549.06 385.85,-1534.81 404.25,-1516 407.72,-1512.45 411.54,-1508.92 415.43,-1505.54"/>
<polygon fill="black" stroke="black" points="417.38,-1508.47 422.82,-1499.38 412.9,-1503.09 417.38,-1508.47"/>
</g>
<!-- python&#45;&gt;graph -->
<g id="edge89" class="edge">
<title>python&#45;&gt;graph</title>
<path fill="none" stroke="black" d="M91.59,-1609.55C161.84,-1573.49 336.44,-1483.85 412.61,-1444.75"/>
<polygon fill="black" stroke="black" points="414.04,-1447.95 421.34,-1440.26 410.84,-1441.72 414.04,-1447.95"/>
</g>
<!-- python&#45;&gt;hash -->
<g id="edge90" class="edge">
<title>python&#45;&gt;hash</title>
<path fill="none" stroke="black" d="M91.87,-1629.1C127.74,-1633.22 189.11,-1638.05 241.25,-1631 445.43,-1603.38 479.96,-1533.08 662.75,-1438 703.92,-1416.58 724.31,-1424.91 756,-1391 815.12,-1327.75 843.1,-1225.69 853.83,-1175.62"/>
<polygon fill="black" stroke="black" points="857.26,-1176.33 855.84,-1165.83 850.4,-1174.93 857.26,-1176.33"/>
</g>
<!-- python&#45;&gt;kv -->
<g id="edge91" class="edge">
<title>python&#45;&gt;kv</title>
<path fill="none" stroke="black" d="M91.68,-1632.19C102.51,-1636.26 113.81,-1642.5 121,-1652 185.05,-1736.59 99.69,-1798.71 157,-1888 158.73,-1890.7 160.84,-1893.18 163.17,-1895.46"/>
<polygon fill="black" stroke="black" points="160.62,-1897.9 170.59,-1901.46 165.02,-1892.45 160.62,-1897.9"/>
</g>
<!-- python&#45;&gt;llm -->
<g id="edge92" class="edge">
<title>python&#45;&gt;llm</title>
<path fill="none" stroke="black" d="M74.11,-1606.73C98.15,-1571.88 150.69,-1495.75 179.05,-1454.64"/>
<polygon fill="black" stroke="black" points="181.89,-1456.69 184.69,-1446.47 176.13,-1452.72 181.89,-1456.69"/>
</g>
<!-- python&#45;&gt;object -->
<g id="edge93" class="edge">
<title>python&#45;&gt;object</title>
<path fill="none" stroke="black" d="M63.13,-1606.62C68.39,-1556.77 88.74,-1416.71 157,-1327 271.63,-1176.35 345.03,-1154.67 532,-1125 578.6,-1117.6 633,-1118.39 668.93,-1120.18"/>
<polygon fill="black" stroke="black" points="668.67,-1123.67 678.85,-1120.74 669.06,-1116.68 668.67,-1123.67"/>
</g>
<!-- python&#45;&gt;repl -->
<g id="edge94" class="edge">
<title>python&#45;&gt;repl</title>
<path fill="none" stroke="black" d="M65.55,-1606.52C75.29,-1565.52 103.27,-1465.42 157,-1400 192.36,-1356.94 248.46,-1323.72 285.19,-1305.01"/>
<polygon fill="black" stroke="black" points="286.72,-1308.16 294.11,-1300.57 283.6,-1301.9 286.72,-1308.16"/>
</g>
<!-- sat -->
<g id="node42" class="node">
<title>sat</title>
<polygon fill="none" stroke="black" points="887.38,-1520 833.38,-1520 833.38,-1484 887.38,-1484 887.38,-1520"/>
<text text-anchor="middle" x="860.38" y="-1497.7" font-family="sans-serif" font-size="14.00">sat</text>
</g>
<!-- python&#45;&gt;sat -->
<g id="edge95" class="edge">
<title>python&#45;&gt;sat</title>
<path fill="none" stroke="black" d="M91.79,-1634.51C101.89,-1638.72 112.67,-1644.47 121,-1652 144.63,-1673.38 132.06,-1694.17 157,-1714 320.73,-1844.14 432.6,-1819.78 626.75,-1742 645.82,-1734.36 645.76,-1724.56 662.75,-1713 702.16,-1686.18 724.87,-1696.1 756,-1660 784.95,-1626.44 767.48,-1603.92 792,-1567 801.55,-1552.62 814.78,-1538.98 826.98,-1527.95"/>
<polygon fill="black" stroke="black" points="829.25,-1530.61 834.48,-1521.39 824.65,-1525.34 829.25,-1530.61"/>
</g>
<!-- python&#45;&gt;serve -->
<g id="edge96" class="edge">
<title>python&#45;&gt;serve</title>
<path fill="none" stroke="black" d="M64.59,-1606.78C75.17,-1545.29 111.82,-1340.04 157,-1174 165.88,-1141.36 178.5,-1104.68 187.41,-1079.93"/>
<polygon fill="black" stroke="black" points="190.69,-1081.16 190.82,-1070.56 184.11,-1078.76 190.69,-1081.16"/>
</g>
<!-- python&#45;&gt;sexp -->
<g id="edge97" class="edge">
<title>python&#45;&gt;sexp</title>
<path fill="none" stroke="black" d="M63.11,-1606.61C72.76,-1497.01 123.83,-932.49 157,-863 190.21,-793.43 216.08,-784.91 277.25,-738 328.39,-698.78 341.83,-684.06 404.25,-668 575.78,-623.86 618.87,-722.62 792,-760 851.06,-772.75 920.98,-779.89 963.02,-783.33"/>
<polygon fill="black" stroke="black" points="962.6,-786.81 972.85,-784.11 963.15,-779.83 962.6,-786.81"/>
</g>
<!-- python&#45;&gt;shell -->
<g id="edge98" class="edge">
<title>python&#45;&gt;shell</title>
<path fill="none" stroke="black" d="M61.9,-1606.68C64.03,-1531.91 77.3,-1243.46 157,-1024 192.54,-926.15 209.43,-901.98 277.25,-823 324.96,-767.44 343.08,-758.27 404.25,-718 406.99,-716.19 409.89,-714.42 412.85,-712.72"/>
<polygon fill="black" stroke="black" points="414.52,-715.79 421.62,-707.93 411.17,-709.65 414.52,-715.79"/>
</g>
<!-- python&#45;&gt;store -->
<g id="edge99" class="edge">
<title>python&#45;&gt;store</title>
<path fill="none" stroke="black" d="M91.69,-1637.43C101.24,-1641.7 111.73,-1646.73 121,-1652 137.94,-1661.62 139.75,-1667.94 157,-1677 226.27,-1713.37 243.51,-1739 321.75,-1739 321.75,-1739 321.75,-1739 451.12,-1739 529.91,-1739 556.22,-1750.1 626.75,-1715 628.53,-1714.11 659.33,-1682.96 682.57,-1659.31"/>
<polygon fill="black" stroke="black" points="684.85,-1661.99 689.36,-1652.4 679.86,-1657.09 684.85,-1661.99"/>
</g>
<!-- python&#45;&gt;wasm -->
<g id="edge100" class="edge">
<title>python&#45;&gt;wasm</title>
<path fill="none" stroke="black" d="M91.82,-1632.08C102.67,-1636.14 113.94,-1642.4 121,-1652 197.95,-1756.63 64.76,-1850.56 157,-1942 209.34,-1993.89 248.04,-1961 321.75,-1961 321.75,-1961 321.75,-1961 710.38,-1961 820.69,-1961 858.39,-1927.97 928.75,-1843 977.08,-1784.64 993.07,-1693.38 998.24,-1646.69"/>
<polygon fill="black" stroke="black" points="1001.71,-1647.1 999.23,-1636.8 994.75,-1646.4 1001.71,-1647.1"/>
</g>
<!-- wasm&#45;store -->
<g id="node55" class="node">
<title>wasm&#45;store</title>
<polygon fill="none" stroke="black" points="626.75,-1879 532,-1879 532,-1843 626.75,-1843 626.75,-1879"/>
<text text-anchor="middle" x="579.38" y="-1856.7" font-family="sans-serif" font-size="14.00">wasm&#45;store</text>
</g>
<!-- python&#45;&gt;wasm&#45;store -->
<g id="edge101" class="edge">
<title>python&#45;&gt;wasm&#45;store</title>
<path fill="none" stroke="black" d="M91.8,-1632.82C102.38,-1636.94 113.48,-1643.06 121,-1652 162.07,-1700.85 109.92,-1747.92 157,-1791 209.16,-1838.72 417.34,-1854.19 520.22,-1858.97"/>
<polygon fill="black" stroke="black" points="519.97,-1862.47 530.12,-1859.41 520.28,-1855.47 519.97,-1862.47"/>
</g>
<!-- repl&#45;&gt;arrow -->
<g id="edge102" class="edge">
<title>repl&#45;&gt;arrow</title>
<path fill="none" stroke="black" d="M350.04,-1294.5C395.52,-1305.76 489,-1328.89 541.15,-1341.79"/>
<polygon fill="black" stroke="black" points="540.21,-1345.16 550.76,-1344.17 541.89,-1338.37 540.21,-1345.16"/>
</g>
<!-- repl&#45;&gt;forsp -->
<g id="edge103" class="edge">
<title>repl&#45;&gt;forsp</title>
<path fill="none" stroke="black" d="M326.67,-1269.76C340.11,-1186.14 395.67,-843.19 404.25,-836 480.06,-772.5 538.52,-791.34 626.75,-836 650.86,-848.2 643.43,-866.1 662.75,-885 665.93,-888.11 669.43,-891.13 673.05,-894"/>
<polygon fill="black" stroke="black" points="670.81,-896.7 680.92,-899.87 674.99,-891.08 670.81,-896.7"/>
</g>
<!-- repl&#45;&gt;git -->
<g id="edge104" class="edge">
<title>repl&#45;&gt;git</title>
<path fill="none" stroke="black" d="M349.87,-1305.31C356.67,-1310.89 363.44,-1317.58 368.25,-1325 400.42,-1374.57 368.41,-1406.01 404.25,-1453 406.83,-1456.38 409.96,-1459.43 413.36,-1462.15"/>
<polygon fill="black" stroke="black" points="411.3,-1464.98 421.53,-1467.74 415.26,-1459.2 411.3,-1464.98"/>
</g>
<!-- repl&#45;&gt;graph -->
<g id="edge105" class="edge">
<title>repl&#45;&gt;graph</title>
<path fill="none" stroke="black" d="M349.5,-1306.28C356.15,-1311.79 362.92,-1318.2 368.25,-1325 390.82,-1353.78 379.56,-1372.01 404.25,-1399 407.05,-1402.06 410.29,-1404.9 413.71,-1407.48"/>
<polygon fill="black" stroke="black" points="411.51,-1410.22 421.77,-1412.88 415.41,-1404.41 411.51,-1410.22"/>
</g>
<!-- repl&#45;&gt;hash -->
<g id="edge106" class="edge">
<title>repl&#45;&gt;hash</title>
<path fill="none" stroke="black" d="M350.04,-1286.46C403.05,-1282.93 526.25,-1272.6 626.75,-1248 686.12,-1233.47 700.16,-1225.86 756,-1201 778.83,-1190.84 803.56,-1177.76 823.11,-1166.9"/>
<polygon fill="black" stroke="black" points="824.78,-1169.98 831.79,-1162.03 821.36,-1163.87 824.78,-1169.98"/>
</g>
<!-- repl&#45;&gt;init -->
<g id="edge107" class="edge">
<title>repl&#45;&gt;init</title>
<path fill="none" stroke="black" d="M326.63,-1269.64C340.63,-1180.43 401.06,-796.29 404.25,-791 430.63,-747.32 457.75,-755.76 496,-722 558.63,-666.73 568.77,-647.12 626.75,-587 645.62,-567.44 666.88,-545.29 682.98,-528.51"/>
<polygon fill="black" stroke="black" points="685.44,-530.99 689.84,-521.35 680.39,-526.15 685.44,-530.99"/>
</g>
<!-- repl&#45;&gt;object -->
<g id="edge108" class="edge">
<title>repl&#45;&gt;object</title>
<path fill="none" stroke="black" d="M344.82,-1269.64C380.61,-1239.54 456.74,-1180.16 532,-1151 577.13,-1133.51 632.8,-1126.94 669.38,-1124.48"/>
<polygon fill="black" stroke="black" points="669.26,-1127.99 679.04,-1123.9 668.85,-1121 669.26,-1127.99"/>
</g>
<!-- repl&#45;&gt;parquet -->
<g id="edge109" class="edge">
<title>repl&#45;&gt;parquet</title>
<path fill="none" stroke="black" d="M350.03,-1305.61C368.05,-1317.68 392.21,-1333.87 412.16,-1347.24"/>
<polygon fill="black" stroke="black" points="410.06,-1350.04 420.32,-1352.7 413.96,-1344.23 410.06,-1350.04"/>
</g>
<!-- repl&#45;&gt;shell -->
<g id="edge110" class="edge">
<title>repl&#45;&gt;shell</title>
<path fill="none" stroke="black" d="M326.78,-1269.75C334.22,-1224.69 353.84,-1104.53 368.25,-1004 385.86,-881.11 340.39,-833.46 404.25,-727 406.87,-722.64 410.34,-718.7 414.19,-715.21"/>
<polygon fill="black" stroke="black" points="416.14,-718.13 421.85,-709.21 411.82,-712.62 416.14,-718.13"/>
</g>
<!-- repl&#45;&gt;wasm -->
<g id="edge111" class="edge">
<title>repl&#45;&gt;wasm</title>
<path fill="none" stroke="black" d="M331.3,-1306.12C340.4,-1328.17 356.01,-1366.6 368.25,-1400 385.52,-1447.11 377.87,-1464.32 404.25,-1507 489.91,-1645.62 512.29,-1704.42 662.75,-1767 717.33,-1789.7 878.73,-1798.5 928.75,-1767 970.68,-1740.6 988.69,-1682.19 996.01,-1646.55"/>
<polygon fill="black" stroke="black" points="999.42,-1647.38 997.82,-1636.9 992.54,-1646.09 999.42,-1647.38"/>
</g>
<!-- sat&#45;&gt;parse -->
<g id="edge112" class="edge">
<title>sat&#45;&gt;parse</title>
<path fill="none" stroke="black" d="M887.78,-1505.67C926.53,-1509.44 998.52,-1510.01 1038.5,-1470 1093.06,-1415.4 1108.51,-1169.6 1112.29,-1083.72"/>
<polygon fill="black" stroke="black" points="1115.77,-1084.13 1112.69,-1073.99 1108.78,-1083.84 1115.77,-1084.13"/>
</g>
<!-- sat&#45;&gt;types -->
<g id="edge113" class="edge">
<title>sat&#45;&gt;types</title>
<path fill="none" stroke="black" d="M887.74,-1507.23C933.47,-1515.82 1030.54,-1532 1113.38,-1532 1113.38,-1532 1113.38,-1532 1218.25,-1532 1344.38,-1532 1425.42,-518.54 1439.35,-330.74"/>
<polygon fill="black" stroke="black" points="1442.84,-331.1 1440.08,-320.87 1435.86,-330.58 1442.84,-331.1"/>
</g>
<!-- sat&#45;&gt;wasm -->
<g id="edge114" class="edge">
<title>sat&#45;&gt;wasm</title>
<path fill="none" stroke="black" d="M887.74,-1511.53C900.8,-1516.97 916.38,-1524.59 928.75,-1534 949.23,-1549.58 968.1,-1571.81 981.36,-1589.34"/>
<polygon fill="black" stroke="black" points="978.48,-1591.33 987.23,-1597.31 984.12,-1587.18 978.48,-1591.33"/>
</g>
<!-- serve&#45;&gt;core -->
<g id="edge115" class="edge">
<title>serve&#45;&gt;core</title>
<path fill="none" stroke="black" d="M202.53,-1032.67C209.33,-984.62 231.21,-851.76 277.25,-751 359.92,-570.07 390.24,-522.55 532,-383 631.09,-285.46 658.96,-249.41 792,-209 850.15,-191.34 871.1,-189.76 928.75,-209 945.83,-214.7 962.11,-226.23 974.85,-237.18"/>
<polygon fill="black" stroke="black" points="972.17,-239.48 981.94,-243.57 976.86,-234.28 972.17,-239.48"/>
</g>
<!-- serve&#45;&gt;git -->
<g id="edge116" class="edge">
<title>serve&#45;&gt;git</title>
<path fill="none" stroke="black" d="M203.62,-1069.32C214.04,-1122.48 246.12,-1275.54 277.25,-1315 306.1,-1351.57 337.39,-1332.1 368.25,-1367 395.7,-1398.04 377.15,-1421.65 404.25,-1453 406.97,-1456.14 410.14,-1459.02 413.53,-1461.64"/>
<polygon fill="black" stroke="black" points="411.31,-1464.36 421.55,-1467.07 415.24,-1458.57 411.31,-1464.36"/>
</g>
<!-- serve&#45;&gt;hash -->
<g id="edge117" class="edge">
<title>serve&#45;&gt;hash</title>
<path fill="none" stroke="black" d="M226.49,-1049.71C307.33,-1046.46 558.28,-1041.77 756,-1096 779.47,-1102.44 804.06,-1114.1 823.37,-1124.55"/>
<polygon fill="black" stroke="black" points="821.46,-1127.49 831.9,-1129.29 824.86,-1121.37 821.46,-1127.49"/>
</g>
<!-- serve&#45;&gt;init -->
<g id="edge118" class="edge">
<title>serve&#45;&gt;init</title>
<path fill="none" stroke="black" d="M202.99,-1032.65C209.97,-992.37 230.81,-894.4 277.25,-827 307.15,-783.61 336.69,-793.2 368.25,-751 392.33,-718.8 378.12,-698.56 404.25,-668 478.01,-581.75 608.24,-532.46 671.64,-512.51"/>
<polygon fill="black" stroke="black" points="672.33,-515.96 680.86,-509.67 670.27,-509.27 672.33,-515.96"/>
</g>
<!-- serve&#45;&gt;metamath -->
<g id="edge119" class="edge">
<title>serve&#45;&gt;metamath</title>
<path fill="none" stroke="black" d="M212.64,-1032.77C227.23,-1011.97 252.52,-977.31 277.25,-950 314.4,-908.97 335.13,-909.34 368.25,-865 389.66,-836.34 374.26,-812.51 404.25,-793 535.37,-707.7 604.16,-743.39 756,-781 773.56,-785.35 775.83,-791.9 792,-800 797.78,-802.9 803.88,-805.89 809.94,-808.81"/>
<polygon fill="black" stroke="black" points="808.16,-811.84 818.69,-813.01 811.18,-805.53 808.16,-811.84"/>
</g>
<!-- serve&#45;&gt;object -->
<g id="edge120" class="edge">
<title>serve&#45;&gt;object</title>
<path fill="none" stroke="black" d="M226.53,-1049.29C241.41,-1048.41 260.36,-1047.44 277.25,-1047 433.45,-1042.95 477.06,-1040.2 626.75,-1085 641.4,-1089.39 656.78,-1095.97 670.18,-1102.43"/>
<polygon fill="black" stroke="black" points="668.59,-1105.55 679.11,-1106.87 671.71,-1099.28 668.59,-1105.55"/>
</g>
<!-- serve&#45;&gt;proto -->
<g id="edge121" class="edge">
<title>serve&#45;&gt;proto</title>
<path fill="none" stroke="black" d="M202.46,-1069.09C210.82,-1131.91 240.72,-1339.73 277.25,-1395 279.85,-1398.93 283.1,-1402.54 286.67,-1405.8"/>
<polygon fill="black" stroke="black" points="284.2,-1408.31 294.19,-1411.82 288.58,-1402.84 284.2,-1408.31"/>
</g>
<!-- serve&#45;&gt;repl -->
<g id="edge122" class="edge">
<title>serve&#45;&gt;repl</title>
<path fill="none" stroke="black" d="M209.47,-1069.2C230.56,-1110.3 281.99,-1210.53 307.26,-1259.76"/>
<polygon fill="black" stroke="black" points="304.01,-1261.09 311.69,-1268.39 310.23,-1257.89 304.01,-1261.09"/>
</g>
<!-- serve&#45;&gt;shell -->
<g id="edge123" class="edge">
<title>serve&#45;&gt;shell</title>
<path fill="none" stroke="black" d="M203.93,-1032.57C211.94,-997.84 233.51,-922.02 277.25,-875 308.39,-841.52 338.25,-861.51 368.25,-827 399.24,-791.35 375.72,-764.65 404.25,-727 407.11,-723.22 410.54,-719.71 414.22,-716.5"/>
<polygon fill="black" stroke="black" points="416.16,-719.43 421.89,-710.52 411.85,-713.91 416.16,-719.43"/>
</g>
<!-- serve&#45;&gt;store -->
<g id="edge124" class="edge">
<title>serve&#45;&gt;store</title>
<path fill="none" stroke="black" d="M204.3,-1069.22C219,-1133.07 267.96,-1343.52 277.25,-1355 305.62,-1390.08 338.57,-1366.02 368.25,-1400 401.26,-1437.79 374.46,-1466.62 404.25,-1507 445.79,-1563.3 467.75,-1571.28 532,-1599 577.34,-1618.56 634.08,-1626.93 670.76,-1630.47"/>
<polygon fill="black" stroke="black" points="670.15,-1633.93 680.42,-1631.33 670.77,-1626.96 670.15,-1633.93"/>
</g>
<!-- sexp&#45;&gt;parse -->
<g id="edge125" class="edge">
<title>sexp&#45;&gt;parse</title>
<path fill="none" stroke="black" d="M1010.24,-804.42C1029.21,-850.34 1078.72,-970.13 1101.54,-1025.36"/>
<polygon fill="black" stroke="black" points="1098.22,-1026.5 1105.28,-1034.41 1104.69,-1023.83 1098.22,-1026.5"/>
</g>
<!-- shell&#45;&gt;hol -->
<g id="edge126" class="edge">
<title>shell&#45;&gt;hol</title>
<path fill="none" stroke="black" d="M454.44,-676.6C464.53,-622.49 496.35,-465.36 532,-429 605.3,-354.23 669.25,-414.64 756,-356 776.65,-342.04 771.45,-327.1 792,-313 800.98,-306.84 811.76,-302.19 822.04,-298.75"/>
<polygon fill="black" stroke="black" points="822.88,-302.15 831.44,-295.91 820.85,-295.45 822.88,-302.15"/>
</g>
<!-- shell&#45;&gt;kernel -->
<g id="edge127" class="edge">
<title>shell&#45;&gt;kernel</title>
<path fill="none" stroke="black" d="M464.99,-713.3C487.36,-742.84 531.56,-801.2 557.68,-835.68"/>
<polygon fill="black" stroke="black" points="554.79,-837.66 563.62,-843.52 560.37,-833.43 554.79,-837.66"/>
</g>
<!-- smt&#45;&gt;sat -->
<g id="edge128" class="edge">
<title>smt&#45;&gt;sat</title>
<path fill="none" stroke="black" d="M715.8,-629.4C725.41,-662.71 745.41,-735.4 756,-798 783.92,-963.09 767.17,-1007.42 792,-1173 808.71,-1284.43 838.59,-1415.11 852.23,-1472.48"/>
<polygon fill="black" stroke="black" points="848.8,-1473.19 854.53,-1482.1 855.61,-1471.56 848.8,-1473.19"/>
</g>
<!-- smt&#45;&gt;sexp -->
<g id="edge129" class="edge">
<title>smt&#45;&gt;sexp</title>
<path fill="none" stroke="black" d="M731.93,-629.5C739.61,-636.19 748.26,-643.85 756,-651 772.4,-666.14 773.03,-674.25 792,-686 846.76,-719.91 871.67,-704.14 928.75,-734 943,-741.45 957.58,-751.47 969.85,-760.73"/>
<polygon fill="black" stroke="black" points="967.49,-763.33 977.54,-766.68 971.77,-757.79 967.49,-763.33"/>
</g>
<!-- smt&#45;&gt;types -->
<g id="edge130" class="edge">
<title>smt&#45;&gt;types</title>
<path fill="none" stroke="black" d="M736.69,-606.29C787.51,-597.62 902.82,-580 1000.62,-580 1000.62,-580 1000.62,-580 1218.25,-580 1345.18,-580 1411.83,-401.77 1433.47,-330.22"/>
<polygon fill="black" stroke="black" points="1436.79,-331.34 1436.24,-320.76 1430.07,-329.37 1436.79,-331.34"/>
</g>
<!-- spectec&#45;&gt;grammar -->
<g id="edge131" class="edge">
<title>spectec&#45;&gt;grammar</title>
<path fill="none" stroke="black" d="M895.44,-529.35C912.86,-526.98 934.33,-524.05 953.33,-521.45"/>
<polygon fill="black" stroke="black" points="953.54,-524.96 962.98,-520.14 952.6,-518.02 953.54,-524.96"/>
</g>
<!-- store&#45;&gt;hash -->
<g id="edge132" class="edge">
<title>store&#45;&gt;hash</title>
<path fill="none" stroke="black" d="M716.41,-1614.79C725.27,-1587.96 742.24,-1536.22 756,-1492 792.41,-1374.99 833.49,-1234.94 850.88,-1175.26"/>
<polygon fill="black" stroke="black" points="854.17,-1176.46 853.61,-1165.88 847.45,-1174.5 854.17,-1176.46"/>
</g>
<!-- store&#45;&gt;json -->
<g id="edge133" class="edge">
<title>store&#45;&gt;json</title>
<path fill="none" stroke="black" d="M725.27,-1651.33C740.49,-1669.07 765.58,-1695.76 792,-1713 801.22,-1719.02 812,-1724.07 822.2,-1728.12"/>
<polygon fill="black" stroke="black" points="820.92,-1731.38 831.51,-1731.59 823.36,-1724.82 820.92,-1731.38"/>
</g>
<!-- store&#45;&gt;sqlite -->
<g id="edge134" class="edge">
<title>store&#45;&gt;sqlite</title>
<path fill="none" stroke="black" d="M736.67,-1642.35C760.43,-1650.8 795.65,-1663.33 822.27,-1672.8"/>
<polygon fill="black" stroke="black" points="821.07,-1676.09 831.67,-1676.14 823.42,-1669.49 821.07,-1676.09"/>
</g>
<!-- tcb&#45;db -->
<g id="node50" class="node">
<title>tcb&#45;db</title>
<polygon fill="none" stroke="black" points="739.5,-1758 679.25,-1758 679.25,-1722 739.5,-1722 739.5,-1758"/>
<text text-anchor="middle" x="709.38" y="-1735.7" font-family="sans-serif" font-size="14.00">tcb&#45;db</text>
</g>
<!-- tcb&#45;db&#45;&gt;json -->
<g id="edge135" class="edge">
<title>tcb&#45;db&#45;&gt;json</title>
<path fill="none" stroke="black" d="M739.81,-1740C763.24,-1740 796.19,-1740 821.57,-1740"/>
<polygon fill="black" stroke="black" points="821.48,-1743.5 831.48,-1740 821.48,-1736.5 821.48,-1743.5"/>
</g>
<!-- tcb&#45;db&#45;&gt;sqlite -->
<g id="edge136" class="edge">
<title>tcb&#45;db&#45;&gt;sqlite</title>
<path fill="none" stroke="black" d="M739.81,-1729.33C763.45,-1720.76 796.79,-1708.68 822.26,-1699.45"/>
<polygon fill="black" stroke="black" points="823.36,-1702.77 831.57,-1696.08 820.98,-1696.19 823.36,-1702.77"/>
</g>
<!-- wasm&#45;build&#45;guest -->
<g id="node53" class="node">
<title>wasm&#45;build&#45;guest</title>
<polygon fill="none" stroke="black" points="928.75,-1612 792,-1612 792,-1576 928.75,-1576 928.75,-1612"/>
<text text-anchor="middle" x="860.38" y="-1589.7" font-family="sans-serif" font-size="14.00">wasm&#45;build&#45;guest</text>
</g>
<!-- wasm&#45;build&#45;guest&#45;&gt;wasm -->
<g id="edge137" class="edge">
<title>wasm&#45;build&#45;guest&#45;&gt;wasm</title>
<path fill="none" stroke="black" d="M928.96,-1605.16C940.64,-1607.09 952.4,-1609.03 962.92,-1610.77"/>
<polygon fill="black" stroke="black" points="962.26,-1614.21 972.7,-1612.39 963.4,-1607.3 962.26,-1614.21"/>
</g>
<!-- wasm&#45;spec -->
<g id="node54" class="node">
<title>wasm&#45;spec</title>
<polygon fill="none" stroke="black" points="756,-1483 662.75,-1483 662.75,-1447 756,-1447 756,-1483"/>
<text text-anchor="middle" x="709.38" y="-1460.7" font-family="sans-serif" font-size="14.00">wasm&#45;spec</text>
</g>
<!-- wasm&#45;spec&#45;&gt;hash -->
<g id="edge138" class="edge">
<title>wasm&#45;spec&#45;&gt;hash</title>
<path fill="none" stroke="black" d="M742.06,-1446.67C747.21,-1442.66 752.12,-1438.07 756,-1433 817.86,-1352.04 845.12,-1230.68 854.86,-1175.36"/>
<polygon fill="black" stroke="black" points="858.26,-1176.23 856.47,-1165.79 851.36,-1175.07 858.26,-1176.23"/>
</g>
<!-- wasm&#45;spec&#45;&gt;wasm -->
<g id="edge139" class="edge">
<title>wasm&#45;spec&#45;&gt;wasm</title>
<path fill="none" stroke="black" d="M717.17,-1483.27C731.62,-1521.01 766.18,-1605.37 792,-1621 844.6,-1652.84 919.15,-1640.7 963.43,-1628.91"/>
<polygon fill="black" stroke="black" points="964.14,-1632.34 972.82,-1626.27 962.24,-1625.61 964.14,-1632.34"/>
</g>
<!-- wasm&#45;store&#45;&gt;json -->
<g id="edge140" class="edge">
<title>wasm&#45;store&#45;&gt;json</title>
<path fill="none" stroke="black" d="M622.75,-1842.62C677.26,-1818.98 771.04,-1778.31 822.65,-1755.93"/>
<polygon fill="black" stroke="black" points="823.83,-1759.23 831.61,-1752.04 821.04,-1752.81 823.83,-1759.23"/>
</g>
<!-- wasm&#45;store&#45;&gt;store -->
<g id="edge141" class="edge">
<title>wasm&#45;store&#45;&gt;store</title>
<path fill="none" stroke="black" d="M590.46,-1842.74C605.93,-1814.76 636.48,-1759.63 662.75,-1713 672.44,-1695.8 683.4,-1676.57 692.15,-1661.28"/>
<polygon fill="black" stroke="black" points="695.13,-1663.13 697.06,-1652.71 689.05,-1659.65 695.13,-1663.13"/>
</g>
<!-- wasm&#45;store&#45;&gt;wasm -->
<g id="edge142" class="edge">
<title>wasm&#45;store&#45;&gt;wasm</title>
<path fill="none" stroke="black" d="M627.08,-1866.22C699.95,-1871.72 841.37,-1871.38 928.75,-1800 975.91,-1761.48 992.24,-1687.78 997.82,-1646.64"/>
<polygon fill="black" stroke="black" points="1001.26,-1647.32 998.99,-1636.97 994.31,-1646.48 1001.26,-1647.32"/>
</g>
<!-- web&#45;kernel -->
<g id="node56" class="node">
<title>web&#45;kernel</title>
<polygon fill="none" stroke="black" points="496,-881 404.25,-881 404.25,-845 496,-845 496,-881"/>
<text text-anchor="middle" x="450.12" y="-858.7" font-family="sans-serif" font-size="14.00">web&#45;kernel</text>
</g>
<!-- web&#45;kernel&#45;&gt;kernel -->
<g id="edge143" class="edge">
<title>web&#45;kernel&#45;&gt;kernel</title>
<path fill="none" stroke="black" d="M496.35,-863C510.27,-863 525.48,-863 538.98,-863"/>
<polygon fill="black" stroke="black" points="538.81,-866.5 548.81,-863 538.81,-859.5 538.81,-866.5"/>
</g>
</g>
</svg>
