<?xml version="1.0" encoding="UTF-8" standalone="no"?>
<!DOCTYPE svg PUBLIC "-//W3C//DTD SVG 1.1//EN"
 "http://www.w3.org/Graphics/SVG/1.1/DTD/svg11.dtd">
<!-- Generated by graphviz version 12.2.1 (0)
 -->
<!-- Title: deps Pages: 1 -->
<svg width="1478pt" height="1841pt"
 viewBox="0.00 0.00 1477.50 1840.92" xmlns="http://www.w3.org/2000/svg" xmlns:xlink="http://www.w3.org/1999/xlink">
<g id="graph0" class="graph" transform="scale(1 1) rotate(0) translate(4 1836.92)">
<title>deps</title>
<polygon fill="white" stroke="none" points="-4,4 -4,-1836.92 1473.5,-1836.92 1473.5,4 -4,4"/>
<!-- covalence -->
<g id="node1" class="node">
<title>covalence</title>
<polygon fill="none" stroke="black" points="102.62,-1330.62 18.38,-1330.62 18.38,-1294.62 102.62,-1294.62 102.62,-1330.62"/>
<text text-anchor="middle" x="60.5" y="-1308.32" font-family="sans-serif" font-size="14.00">covalence</text>
</g>
<!-- client -->
<g id="node5" class="node">
<title>client</title>
<polygon fill="none" stroke="black" points="349.75,-1467.62 295.75,-1467.62 295.75,-1431.62 349.75,-1431.62 349.75,-1467.62"/>
<text text-anchor="middle" x="322.75" y="-1445.32" font-family="sans-serif" font-size="14.00">client</text>
</g>
<!-- covalence&#45;&gt;client -->
<g id="edge1" class="edge">
<title>covalence&#45;&gt;client</title>
<path fill="none" stroke="black" d="M102.95,-1327.31C109.43,-1330.72 115.72,-1334.8 121,-1339.62 144.84,-1361.33 131.62,-1382.72 157,-1402.62 194.07,-1431.67 248.32,-1442.77 284.31,-1447"/>
<polygon fill="black" stroke="black" points="283.5,-1450.43 293.81,-1447.99 284.22,-1443.47 283.5,-1450.43"/>
</g>
<!-- fuse -->
<g id="node11" class="node">
<title>fuse</title>
<polygon fill="none" stroke="black" points="606.38,-1360.62 552.38,-1360.62 552.38,-1324.62 606.38,-1324.62 606.38,-1360.62"/>
<text text-anchor="middle" x="579.38" y="-1338.32" font-family="sans-serif" font-size="14.00">fuse</text>
</g>
<!-- covalence&#45;&gt;fuse -->
<g id="edge2" class="edge">
<title>covalence&#45;&gt;fuse</title>
<path fill="none" stroke="black" d="M102.72,-1328.38C119.32,-1333.98 138.82,-1339.64 157,-1342.62 297.14,-1365.56 467.03,-1353.71 540.98,-1346.64"/>
<polygon fill="black" stroke="black" points="540.89,-1350.16 550.5,-1345.7 540.2,-1343.2 540.89,-1350.16"/>
</g>
<!-- git -->
<g id="node12" class="node">
<title>git</title>
<polygon fill="none" stroke="black" points="477.12,-1338.62 423.12,-1338.62 423.12,-1302.62 477.12,-1302.62 477.12,-1338.62"/>
<text text-anchor="middle" x="450.12" y="-1316.32" font-family="sans-serif" font-size="14.00">git</text>
</g>
<!-- covalence&#45;&gt;git -->
<g id="edge3" class="edge">
<title>covalence&#45;&gt;git</title>
<path fill="none" stroke="black" d="M102.72,-1320C119.5,-1322.65 139.12,-1325.31 157,-1326.62 250.64,-1333.44 274.43,-1330.09 368.25,-1326.62 382.4,-1326.09 397.91,-1325.05 411.53,-1323.99"/>
<polygon fill="black" stroke="black" points="411.74,-1327.48 421.42,-1323.18 411.17,-1320.5 411.74,-1327.48"/>
</g>
<!-- hash -->
<g id="node15" class="node">
<title>hash</title>
<polygon fill="none" stroke="black" points="887.38,-1374.62 833.38,-1374.62 833.38,-1338.62 887.38,-1338.62 887.38,-1374.62"/>
<text text-anchor="middle" x="860.38" y="-1352.32" font-family="sans-serif" font-size="14.00">hash</text>
</g>
<!-- covalence&#45;&gt;hash -->
<g id="edge4" class="edge">
<title>covalence&#45;&gt;hash</title>
<path fill="none" stroke="black" d="M102.86,-1325.57C109.66,-1329.22 116.08,-1333.83 121,-1339.62 160.66,-1386.27 132.24,-1416.61 157,-1472.62 212.02,-1597.05 185.7,-1730.62 321.75,-1730.62 321.75,-1730.62 321.75,-1730.62 580.38,-1730.62 617.25,-1730.62 706.74,-1697.35 756,-1630.62 797.23,-1574.76 766.99,-1543.38 792,-1478.62 805.12,-1444.65 826.1,-1408.45 841.16,-1384.39"/>
<polygon fill="black" stroke="black" points="844,-1386.46 846.4,-1376.14 838.09,-1382.7 844,-1386.46"/>
</g>
<!-- hol -->
<g id="node16" class="node">
<title>hol</title>
<polygon fill="none" stroke="black" points="887.38,-1672.62 833.38,-1672.62 833.38,-1636.62 887.38,-1636.62 887.38,-1672.62"/>
<text text-anchor="middle" x="860.38" y="-1650.32" font-family="sans-serif" font-size="14.00">hol</text>
</g>
<!-- covalence&#45;&gt;hol -->
<g id="edge5" class="edge">
<title>covalence&#45;&gt;hol</title>
<path fill="none" stroke="black" d="M102.87,-1324.74C109.84,-1328.49 116.32,-1333.34 121,-1339.62 191.26,-1433.85 108.74,-1494.44 157,-1601.62 199.81,-1696.68 217.49,-1768.62 321.75,-1768.62 321.75,-1768.62 321.75,-1768.62 580.38,-1768.62 674.07,-1768.62 773.19,-1712.84 824.31,-1679.32"/>
<polygon fill="black" stroke="black" points="826.24,-1682.23 832.62,-1673.77 822.36,-1676.41 826.24,-1682.23"/>
</g>
<!-- lsp -->
<g id="node25" class="node">
<title>lsp</title>
<polygon fill="none" stroke="black" points="887.38,-372.62 833.38,-372.62 833.38,-336.62 887.38,-336.62 887.38,-372.62"/>
<text text-anchor="middle" x="860.38" y="-350.32" font-family="sans-serif" font-size="14.00">lsp</text>
</g>
<!-- covalence&#45;&gt;lsp -->
<g id="edge6" class="edge">
<title>covalence&#45;&gt;lsp</title>
<path fill="none" stroke="black" d="M62.67,-1294.35C68.25,-1212.53 94.45,-880.26 157,-800.62 182.37,-768.31 215.91,-794.95 241.25,-762.62 295.62,-693.25 220.39,-634.95 277.25,-567.62 422.16,-396.02 717.7,-362.64 821.95,-356.17"/>
<polygon fill="black" stroke="black" points="821.84,-359.68 831.62,-355.62 821.44,-352.69 821.84,-359.68"/>
</g>
<!-- object -->
<g id="node28" class="node">
<title>object</title>
<polygon fill="none" stroke="black" points="738,-1082.62 680.75,-1082.62 680.75,-1046.62 738,-1046.62 738,-1082.62"/>
<text text-anchor="middle" x="709.38" y="-1060.32" font-family="sans-serif" font-size="14.00">object</text>
</g>
<!-- covalence&#45;&gt;object -->
<g id="edge7" class="edge">
<title>covalence&#45;&gt;object</title>
<path fill="none" stroke="black" d="M102.99,-1312.51C199.64,-1311.45 436.07,-1303.86 496,-1255.62 532.79,-1225.99 500.85,-1191.13 532,-1155.62 568.89,-1113.56 629.93,-1088.25 669.65,-1075.36"/>
<polygon fill="black" stroke="black" points="670.55,-1078.74 679.05,-1072.42 668.46,-1072.06 670.55,-1078.74"/>
</g>
<!-- opentheory -->
<g id="node29" class="node">
<title>opentheory</title>
<polygon fill="none" stroke="black" points="368.25,-1832.62 277.25,-1832.62 277.25,-1796.62 368.25,-1796.62 368.25,-1832.62"/>
<text text-anchor="middle" x="322.75" y="-1810.32" font-family="sans-serif" font-size="14.00">opentheory</text>
</g>
<!-- covalence&#45;&gt;opentheory -->
<g id="edge8" class="edge">
<title>covalence&#45;&gt;opentheory</title>
<path fill="none" stroke="black" d="M102.85,-1324.38C109.91,-1328.16 116.43,-1333.12 121,-1339.62 177.82,-1420.41 91.13,-1709.02 157,-1782.62 183.65,-1812.4 229.04,-1819.45 265.43,-1819.58"/>
<polygon fill="black" stroke="black" points="265.44,-1823.08 275.38,-1819.43 265.33,-1816.08 265.44,-1823.08"/>
</g>
<!-- proto -->
<g id="node32" class="node">
<title>proto</title>
<polygon fill="none" stroke="black" points="349.75,-612.62 295.75,-612.62 295.75,-576.62 349.75,-576.62 349.75,-612.62"/>
<text text-anchor="middle" x="322.75" y="-590.32" font-family="sans-serif" font-size="14.00">proto</text>
</g>
<!-- covalence&#45;&gt;proto -->
<g id="edge9" class="edge">
<title>covalence&#45;&gt;proto</title>
<path fill="none" stroke="black" d="M61.99,-1294.23C64.36,-1232.43 78.06,-1028.01 157,-884.62 182.5,-838.29 216.11,-847.13 241.25,-800.62 278.8,-731.14 234.26,-692.86 277.25,-626.62 279.81,-622.67 283.05,-619.05 286.6,-615.78"/>
<polygon fill="black" stroke="black" points="288.51,-618.73 294.12,-609.74 284.13,-613.27 288.51,-618.73"/>
</g>
<!-- repl -->
<g id="node38" class="node">
<title>repl</title>
<polygon fill="none" stroke="black" points="349.75,-929.62 295.75,-929.62 295.75,-893.62 349.75,-893.62 349.75,-929.62"/>
<text text-anchor="middle" x="322.75" y="-907.32" font-family="sans-serif" font-size="14.00">repl</text>
</g>
<!-- covalence&#45;&gt;repl -->
<g id="edge10" class="edge">
<title>covalence&#45;&gt;repl</title>
<path fill="none" stroke="black" d="M73.36,-1294.34C114.85,-1230.41 253.69,-1016.49 303.65,-939.51"/>
<polygon fill="black" stroke="black" points="306.49,-941.56 309,-931.27 300.62,-937.75 306.49,-941.56"/>
</g>
<!-- serve -->
<g id="node40" class="node">
<title>serve</title>
<polygon fill="none" stroke="black" points="226.12,-929.62 172.12,-929.62 172.12,-893.62 226.12,-893.62 226.12,-929.62"/>
<text text-anchor="middle" x="199.12" y="-907.32" font-family="sans-serif" font-size="14.00">serve</text>
</g>
<!-- covalence&#45;&gt;serve -->
<g id="edge11" class="edge">
<title>covalence&#45;&gt;serve</title>
<path fill="none" stroke="black" d="M66.15,-1294.39C78.72,-1245.88 115.25,-1109.89 157,-1000.62 164.9,-979.94 175.38,-957.31 183.79,-940.05"/>
<polygon fill="black" stroke="black" points="186.76,-941.93 188.04,-931.41 180.48,-938.83 186.76,-941.93"/>
</g>
<!-- shell -->
<g id="node42" class="node">
<title>shell</title>
<polygon fill="none" stroke="black" points="477.12,-1246.62 423.12,-1246.62 423.12,-1210.62 477.12,-1210.62 477.12,-1246.62"/>
<text text-anchor="middle" x="450.12" y="-1224.32" font-family="sans-serif" font-size="14.00">shell</text>
</g>
<!-- covalence&#45;&gt;shell -->
<g id="edge12" class="edge">
<title>covalence&#45;&gt;shell</title>
<path fill="none" stroke="black" d="M88.22,-1294.37C106.71,-1282.7 132.32,-1268.35 157,-1260.62 245.17,-1232.97 354.8,-1228.42 411.4,-1228.13"/>
<polygon fill="black" stroke="black" points="411.13,-1231.63 421.13,-1228.13 411.12,-1224.63 411.13,-1231.63"/>
</g>
<!-- store -->
<g id="node46" class="node">
<title>store</title>
<polygon fill="none" stroke="black" points="736.38,-1320.62 682.38,-1320.62 682.38,-1284.62 736.38,-1284.62 736.38,-1320.62"/>
<text text-anchor="middle" x="709.38" y="-1298.32" font-family="sans-serif" font-size="14.00">store</text>
</g>
<!-- covalence&#45;&gt;store -->
<g id="edge13" class="edge">
<title>covalence&#45;&gt;store</title>
<path fill="none" stroke="black" d="M103.02,-1326.3C109.64,-1329.85 115.96,-1334.24 121,-1339.62 151.89,-1372.55 124.66,-1403.11 157,-1434.62 225.57,-1501.41 273.38,-1489.38 368.25,-1476.62 486.81,-1460.67 527.29,-1468.08 626.75,-1401.62 654.22,-1383.26 677.25,-1352.95 691.77,-1330.7"/>
<polygon fill="black" stroke="black" points="694.64,-1332.71 697.02,-1322.39 688.72,-1328.97 694.64,-1332.71"/>
</g>
<!-- wasm -->
<g id="node48" class="node">
<title>wasm</title>
<polygon fill="none" stroke="black" points="1028.75,-277.62 974.5,-277.62 974.5,-241.62 1028.75,-241.62 1028.75,-277.62"/>
<text text-anchor="middle" x="1001.62" y="-255.32" font-family="sans-serif" font-size="14.00">wasm</text>
</g>
<!-- covalence&#45;&gt;wasm -->
<g id="edge14" class="edge">
<title>covalence&#45;&gt;wasm</title>
<path fill="none" stroke="black" d="M63.59,-1294.38C74.14,-1203.84 122.25,-805.17 157,-762.62 182.43,-731.47 216.23,-761.1 241.25,-729.62 309.99,-643.1 212.97,-573.5 277.25,-483.62 441.37,-254.12 838.67,-251.98 962.87,-257.29"/>
<polygon fill="black" stroke="black" points="962.68,-260.79 972.84,-257.77 963.02,-253.79 962.68,-260.79"/>
</g>
<!-- acset -->
<g id="node2" class="node">
<title>acset</title>
<polygon fill="none" stroke="black" points="887.38,-518.62 833.38,-518.62 833.38,-482.62 887.38,-482.62 887.38,-518.62"/>
<text text-anchor="middle" x="860.38" y="-496.32" font-family="sans-serif" font-size="14.00">acset</text>
</g>
<!-- alethe -->
<g id="node3" class="node">
<title>alethe</title>
<polygon fill="none" stroke="black" points="607.62,-612.62 551.12,-612.62 551.12,-576.62 607.62,-576.62 607.62,-612.62"/>
<text text-anchor="middle" x="579.38" y="-590.32" font-family="sans-serif" font-size="14.00">alethe</text>
</g>
<!-- core -->
<g id="node6" class="node">
<title>core</title>
<polygon fill="#ffd6d6" stroke="black" points="1028.62,-1175.62 974.62,-1175.62 974.62,-1139.62 1028.62,-1139.62 1028.62,-1175.62"/>
<text text-anchor="middle" x="1001.62" y="-1153.32" font-family="sans-serif" font-size="14.00">core</text>
</g>
<!-- alethe&#45;&gt;core -->
<g id="edge15" class="edge">
<title>alethe&#45;&gt;core</title>
<path fill="none" stroke="black" d="M607.88,-609.31C614.81,-614.07 621.7,-619.89 626.75,-626.62 657.14,-667.07 638.79,-690.05 662.75,-734.62 694.56,-793.8 727.86,-792.6 756,-853.62 789.8,-926.91 744.35,-966.47 792,-1031.62 833.05,-1087.74 869.75,-1070.83 928.75,-1107.62 941.14,-1115.34 954.36,-1124.32 966.04,-1132.51"/>
<polygon fill="black" stroke="black" points="964.01,-1135.36 974.19,-1138.29 968.06,-1129.65 964.01,-1135.36"/>
</g>
<!-- hol&#45;eval -->
<g id="node17" class="node">
<title>hol&#45;eval</title>
<polygon fill="none" stroke="black" points="895.38,-1022.62 825.38,-1022.62 825.38,-986.62 895.38,-986.62 895.38,-1022.62"/>
<text text-anchor="middle" x="860.38" y="-1000.32" font-family="sans-serif" font-size="14.00">hol&#45;eval</text>
</g>
<!-- alethe&#45;&gt;hol&#45;eval -->
<g id="edge16" class="edge">
<title>alethe&#45;&gt;hol&#45;eval</title>
<path fill="none" stroke="black" d="M607.7,-610.18C614.47,-614.88 621.33,-620.44 626.75,-626.62 649.84,-652.9 638.02,-671.87 662.75,-696.62 695.7,-729.58 727.41,-707.8 756,-744.62 799.92,-801.15 763.97,-835.74 792,-901.62 803.72,-929.16 822.79,-957.4 837.65,-977.33"/>
<polygon fill="black" stroke="black" points="834.8,-979.36 843.64,-985.2 840.37,-975.12 834.8,-979.36"/>
</g>
<!-- init -->
<g id="node19" class="node">
<title>init</title>
<polygon fill="none" stroke="black" points="736.38,-898.62 682.38,-898.62 682.38,-862.62 736.38,-862.62 736.38,-898.62"/>
<text text-anchor="middle" x="709.38" y="-876.32" font-family="sans-serif" font-size="14.00">init</text>
</g>
<!-- alethe&#45;&gt;init -->
<g id="edge17" class="edge">
<title>alethe&#45;&gt;init</title>
<path fill="none" stroke="black" d="M607.76,-608.72C614.85,-613.54 621.86,-619.53 626.75,-626.62 664.72,-681.61 641.68,-709.19 662.75,-772.62 671.88,-800.09 684.94,-830.36 694.75,-851.85"/>
<polygon fill="black" stroke="black" points="691.54,-853.25 698.92,-860.86 697.9,-850.31 691.54,-853.25"/>
</g>
<!-- sexp -->
<g id="node41" class="node">
<title>sexp</title>
<polygon fill="none" stroke="black" points="1028.62,-716.62 974.62,-716.62 974.62,-680.62 1028.62,-680.62 1028.62,-716.62"/>
<text text-anchor="middle" x="1001.62" y="-694.32" font-family="sans-serif" font-size="14.00">sexp</text>
</g>
<!-- alethe&#45;&gt;sexp -->
<g id="edge18" class="edge">
<title>alethe&#45;&gt;sexp</title>
<path fill="none" stroke="black" d="M607.88,-592.39C643.36,-590.53 706.39,-590.7 756,-609.62 774.69,-616.74 774.13,-627.63 792,-636.62 848.43,-665.01 920.12,-682.76 963.08,-691.66"/>
<polygon fill="black" stroke="black" points="962.16,-695.04 972.66,-693.59 963.54,-688.18 962.16,-695.04"/>
</g>
<!-- smt -->
<g id="node43" class="node">
<title>smt</title>
<polygon fill="none" stroke="black" points="736.38,-330.62 682.38,-330.62 682.38,-294.62 736.38,-294.62 736.38,-330.62"/>
<text text-anchor="middle" x="709.38" y="-308.32" font-family="sans-serif" font-size="14.00">smt</text>
</g>
<!-- alethe&#45;&gt;smt -->
<g id="edge19" class="edge">
<title>alethe&#45;&gt;smt</title>
<path fill="none" stroke="black" d="M582.44,-576.16C588.15,-532.1 607.58,-418.91 662.75,-344.62 665.75,-340.57 669.42,-336.85 673.35,-333.49"/>
<polygon fill="black" stroke="black" points="675.21,-336.47 681.05,-327.63 670.97,-330.91 675.21,-336.47"/>
</g>
<!-- types -->
<g id="node47" class="node">
<title>types</title>
<polygon fill="#ffd6d6" stroke="black" points="1469.5,-999.62 1415.5,-999.62 1415.5,-963.62 1469.5,-963.62 1469.5,-999.62"/>
<text text-anchor="middle" x="1442.5" y="-977.32" font-family="sans-serif" font-size="14.00">types</text>
</g>
<!-- alethe&#45;&gt;types -->
<g id="edge20" class="edge">
<title>alethe&#45;&gt;types</title>
<path fill="none" stroke="black" d="M580.38,-576.25C581.5,-494.43 598.18,-161.38 792,-29.62 869,22.73 907.52,-10.62 1000.62,-10.62 1000.62,-10.62 1000.62,-10.62 1218.25,-10.62 1292.09,-10.62 1332.1,6 1379.5,-50.62 1438.61,-121.21 1441.63,-800.74 1441.57,-951.91"/>
<polygon fill="black" stroke="black" points="1438.07,-951.87 1441.56,-961.87 1445.07,-951.88 1438.07,-951.87"/>
</g>
<!-- arrow -->
<g id="node4" class="node">
<title>arrow</title>
<polygon fill="none" stroke="black" points="606.38,-932.62 552.38,-932.62 552.38,-896.62 606.38,-896.62 606.38,-932.62"/>
<text text-anchor="middle" x="579.38" y="-910.32" font-family="sans-serif" font-size="14.00">arrow</text>
</g>
<!-- client&#45;&gt;hash -->
<g id="edge21" class="edge">
<title>client&#45;&gt;hash</title>
<path fill="none" stroke="black" d="M350.02,-1464.3C420.53,-1501.59 617.94,-1591.78 756,-1516.62 782.52,-1502.18 823.8,-1426.93 845.3,-1384.97"/>
<polygon fill="black" stroke="black" points="848.35,-1386.68 849.75,-1376.18 842.11,-1383.52 848.35,-1386.68"/>
</g>
<!-- client&#45;&gt;shell -->
<g id="edge22" class="edge">
<title>client&#45;&gt;shell</title>
<path fill="none" stroke="black" d="M332.2,-1431.43C346.12,-1401.9 375.25,-1341.97 404.25,-1293.62 411.78,-1281.07 420.83,-1267.68 428.83,-1256.34"/>
<polygon fill="black" stroke="black" points="431.67,-1258.38 434.64,-1248.2 425.98,-1254.31 431.67,-1258.38"/>
</g>
<!-- client&#45;&gt;store -->
<g id="edge23" class="edge">
<title>client&#45;&gt;store</title>
<path fill="none" stroke="black" d="M350.23,-1446.49C404.63,-1439.27 531.81,-1418.17 626.75,-1369.62 647.35,-1359.08 667.48,-1342.64 682.6,-1328.69"/>
<polygon fill="black" stroke="black" points="684.94,-1331.29 689.79,-1321.87 680.12,-1326.21 684.94,-1331.29"/>
</g>
<!-- pure -->
<g id="node33" class="node">
<title>pure</title>
<polygon fill="#ffd6d6" stroke="black" points="1244.25,-1045.62 1190.25,-1045.62 1190.25,-1009.62 1244.25,-1009.62 1244.25,-1045.62"/>
<text text-anchor="middle" x="1217.25" y="-1023.32" font-family="sans-serif" font-size="14.00">pure</text>
</g>
<!-- core&#45;&gt;pure -->
<g id="edge24" class="edge">
<title>core&#45;&gt;pure</title>
<path fill="none" stroke="black" d="M1028.96,-1150.2C1060.6,-1140.48 1114.38,-1121.36 1154.25,-1093.62 1169.77,-1082.82 1184.39,-1067.6 1195.53,-1054.5"/>
<polygon fill="black" stroke="black" points="1198.03,-1056.96 1201.69,-1047.02 1192.63,-1052.51 1198.03,-1056.96"/>
</g>
<!-- pure&#45;eval -->
<g id="node34" class="node">
<title>pure&#45;eval</title>
<polygon fill="#ffd6d6" stroke="black" points="1154.25,-1084.62 1074.5,-1084.62 1074.5,-1048.62 1154.25,-1048.62 1154.25,-1084.62"/>
<text text-anchor="middle" x="1114.38" y="-1062.32" font-family="sans-serif" font-size="14.00">pure&#45;eval</text>
</g>
<!-- core&#45;&gt;pure&#45;eval -->
<g id="edge25" class="edge">
<title>core&#45;&gt;pure&#45;eval</title>
<path fill="none" stroke="black" d="M1027.49,-1139.24C1031.21,-1136.39 1034.98,-1133.45 1038.5,-1130.62 1054.94,-1117.37 1058.45,-1113.34 1074.5,-1099.62 1077.26,-1097.26 1080.13,-1094.81 1083.01,-1092.36"/>
<polygon fill="black" stroke="black" points="1085.05,-1095.21 1090.4,-1086.07 1080.52,-1089.88 1085.05,-1095.21"/>
</g>
<!-- core&#45;&gt;types -->
<g id="edge26" class="edge">
<title>core&#45;&gt;types</title>
<path fill="none" stroke="black" d="M1028.65,-1159.1C1093.95,-1161.51 1267.51,-1159.66 1379.5,-1081.62 1404.42,-1064.25 1421.3,-1033.33 1431.08,-1010.45"/>
<polygon fill="black" stroke="black" points="1434.25,-1011.95 1434.75,-1001.37 1427.76,-1009.33 1434.25,-1011.95"/>
</g>
<!-- core&#45;test&#45;guest -->
<g id="node7" class="node">
<title>core&#45;test&#45;guest</title>
<polygon fill="none" stroke="black" points="121,-1384.62 0,-1384.62 0,-1348.62 121,-1348.62 121,-1384.62"/>
<text text-anchor="middle" x="60.5" y="-1362.32" font-family="sans-serif" font-size="14.00">core&#45;test&#45;guest</text>
</g>
<!-- crypto&#45;sig -->
<g id="node8" class="node">
<title>crypto&#45;sig</title>
<polygon fill="none" stroke="black" points="241.25,-666.62 157,-666.62 157,-630.62 241.25,-630.62 241.25,-666.62"/>
<text text-anchor="middle" x="199.12" y="-644.32" font-family="sans-serif" font-size="14.00">crypto&#45;sig</text>
</g>
<!-- egglog -->
<g id="node9" class="node">
<title>egglog</title>
<polygon fill="none" stroke="black" points="890.88,-426.62 829.88,-426.62 829.88,-390.62 890.88,-390.62 890.88,-426.62"/>
<text text-anchor="middle" x="860.38" y="-404.32" font-family="sans-serif" font-size="14.00">egglog</text>
</g>
<!-- egglog&#45;&gt;sexp -->
<g id="edge27" class="edge">
<title>egglog&#45;&gt;sexp</title>
<path fill="none" stroke="black" d="M891.11,-416.55C904.34,-421.48 919.08,-429.12 928.75,-440.62 985.43,-507.97 997.59,-616.81 1000.07,-668.93"/>
<polygon fill="black" stroke="black" points="996.57,-668.95 1000.45,-678.81 1003.57,-668.69 996.57,-668.95"/>
</g>
<!-- egglog&#45;&gt;types -->
<g id="edge28" class="edge">
<title>egglog&#45;&gt;types</title>
<path fill="none" stroke="black" d="M891.25,-418.95C947.97,-438.2 1069.49,-477.62 1113.38,-477.62 1113.38,-477.62 1113.38,-477.62 1218.25,-477.62 1427.2,-477.62 1442.12,-844.22 1441.99,-952.1"/>
<polygon fill="black" stroke="black" points="1438.49,-951.85 1441.93,-961.87 1445.49,-951.89 1438.49,-951.85"/>
</g>
<!-- forsp -->
<g id="node10" class="node">
<title>forsp</title>
<polygon fill="none" stroke="black" points="736.38,-990.62 682.38,-990.62 682.38,-954.62 736.38,-954.62 736.38,-990.62"/>
<text text-anchor="middle" x="709.38" y="-968.32" font-family="sans-serif" font-size="14.00">forsp</text>
</g>
<!-- forsp&#45;&gt;hash -->
<g id="edge29" class="edge">
<title>forsp&#45;&gt;hash</title>
<path fill="none" stroke="black" d="M727.06,-991.09C737.18,-1003.37 749.37,-1020.37 756,-1037.62 802.96,-1159.65 712.23,-1226.01 792,-1329.62 799.46,-1339.3 810.94,-1345.52 822.32,-1349.52"/>
<polygon fill="black" stroke="black" points="821.03,-1352.79 831.62,-1352.27 823.02,-1346.07 821.03,-1352.79"/>
</g>
<!-- forsp&#45;&gt;sexp -->
<g id="edge30" class="edge">
<title>forsp&#45;&gt;sexp</title>
<path fill="none" stroke="black" d="M736.78,-963.36C752.74,-957.82 773.5,-950.7 792,-944.62 852.53,-924.72 882.9,-945.86 928.75,-901.62 977.56,-854.51 993.29,-772.2 998.31,-728.26"/>
<polygon fill="black" stroke="black" points="1001.78,-728.75 999.31,-718.45 994.81,-728.04 1001.78,-728.75"/>
</g>
<!-- fuse&#45;&gt;hash -->
<g id="edge31" class="edge">
<title>fuse&#45;&gt;hash</title>
<path fill="none" stroke="black" d="M606.87,-1343.95C656.65,-1346.44 764.28,-1351.84 821.62,-1354.72"/>
<polygon fill="black" stroke="black" points="821.38,-1358.21 831.54,-1355.22 821.73,-1351.22 821.38,-1358.21"/>
</g>
<!-- fuse&#45;&gt;object -->
<g id="edge32" class="edge">
<title>fuse&#45;&gt;object</title>
<path fill="none" stroke="black" d="M594.09,-1324.26C603.98,-1310.51 617.2,-1290.98 626.75,-1272.62 658.58,-1211.4 685.58,-1134.84 699.1,-1093.81"/>
<polygon fill="black" stroke="black" points="702.39,-1095.02 702.16,-1084.43 695.73,-1092.85 702.39,-1095.02"/>
</g>
<!-- fuse&#45;&gt;store -->
<g id="edge33" class="edge">
<title>fuse&#45;&gt;store</title>
<path fill="none" stroke="black" d="M606.59,-1334.43C625.22,-1328.6 650.52,-1320.7 671.23,-1314.22"/>
<polygon fill="black" stroke="black" points="672.25,-1317.57 680.75,-1311.25 670.17,-1310.89 672.25,-1317.57"/>
</g>
<!-- git&#45;&gt;hash -->
<g id="edge34" class="edge">
<title>git&#45;&gt;hash</title>
<path fill="none" stroke="black" d="M473.94,-1339.11C489.33,-1350.35 510.65,-1363.65 532,-1369.62 633.9,-1398.08 760.56,-1378.32 822.2,-1365.38"/>
<polygon fill="black" stroke="black" points="822.77,-1368.84 831.8,-1363.3 821.29,-1362 822.77,-1368.84"/>
</g>
<!-- git&#45;&gt;object -->
<g id="edge35" class="edge">
<title>git&#45;&gt;object</title>
<path fill="none" stroke="black" d="M477.4,-1303.16C483.68,-1298.65 490.22,-1293.64 496,-1288.62 570.94,-1223.45 648.67,-1135.25 685.88,-1091.51"/>
<polygon fill="black" stroke="black" points="688.43,-1093.93 692.22,-1084.03 683.08,-1089.4 688.43,-1093.93"/>
</g>
<!-- sqlite -->
<g id="node45" class="node">
<title>sqlite</title>
<polygon fill="none" stroke="black" points="887.38,-1523.62 833.38,-1523.62 833.38,-1487.62 887.38,-1487.62 887.38,-1523.62"/>
<text text-anchor="middle" x="860.38" y="-1501.32" font-family="sans-serif" font-size="14.00">sqlite</text>
</g>
<!-- git&#45;&gt;sqlite -->
<g id="edge36" class="edge">
<title>git&#45;&gt;sqlite</title>
<path fill="none" stroke="black" d="M468.23,-1338.88C483.65,-1354.43 507.58,-1376.45 532,-1390.62 629.38,-1447.1 759.03,-1482.4 821.95,-1497.34"/>
<polygon fill="black" stroke="black" points="820.89,-1500.69 831.43,-1499.55 822.48,-1493.87 820.89,-1500.69"/>
</g>
<!-- git&#45;&gt;store -->
<g id="edge37" class="edge">
<title>git&#45;&gt;store</title>
<path fill="none" stroke="black" d="M477.21,-1318.79C523.05,-1315.58 618.19,-1308.93 671.01,-1305.23"/>
<polygon fill="black" stroke="black" points="670.98,-1308.74 680.71,-1304.55 670.49,-1301.76 670.98,-1308.74"/>
</g>
<!-- grammar -->
<g id="node13" class="node">
<title>grammar</title>
<polygon fill="none" stroke="black" points="1038.5,-1121.62 964.75,-1121.62 964.75,-1085.62 1038.5,-1085.62 1038.5,-1121.62"/>
<text text-anchor="middle" x="1001.62" y="-1099.32" font-family="sans-serif" font-size="14.00">grammar</text>
</g>
<!-- graph -->
<g id="node14" class="node">
<title>graph</title>
<polygon fill="none" stroke="black" points="477.12,-1024.62 423.12,-1024.62 423.12,-988.62 477.12,-988.62 477.12,-1024.62"/>
<text text-anchor="middle" x="450.12" y="-1002.32" font-family="sans-serif" font-size="14.00">graph</text>
</g>
<!-- graph&#45;&gt;hash -->
<g id="edge38" class="edge">
<title>graph&#45;&gt;hash</title>
<path fill="none" stroke="black" d="M468.67,-1025.09C484.76,-1041.82 509.45,-1066.93 532,-1087.62 627.79,-1175.47 669.3,-1178.79 756,-1275.62 775.24,-1297.11 769.61,-1311.44 792,-1329.62 800.86,-1336.81 811.88,-1342.29 822.42,-1346.37"/>
<polygon fill="black" stroke="black" points="821.11,-1349.62 831.7,-1349.63 823.43,-1343.02 821.11,-1349.62"/>
</g>
<!-- parse -->
<g id="node31" class="node">
<title>parse</title>
<polygon fill="none" stroke="black" points="1141.38,-739.62 1087.38,-739.62 1087.38,-703.62 1141.38,-703.62 1141.38,-739.62"/>
<text text-anchor="middle" x="1114.38" y="-717.32" font-family="sans-serif" font-size="14.00">parse</text>
</g>
<!-- graph&#45;&gt;parse -->
<g id="edge39" class="edge">
<title>graph&#45;&gt;parse</title>
<path fill="none" stroke="black" d="M477.51,-997.48C525.16,-980.89 621.14,-947.04 626.75,-941.62 657.13,-912.25 631.29,-881.83 662.75,-853.62 695.09,-824.61 996.94,-758.25 1038.5,-745.62 1050.9,-741.85 1064.4,-737.57 1076.48,-733.69"/>
<polygon fill="black" stroke="black" points="1077.22,-737.13 1085.66,-730.72 1075.07,-730.47 1077.22,-737.13"/>
</g>
<!-- rand -->
<g id="node37" class="node">
<title>rand</title>
<polygon fill="none" stroke="black" points="1028.62,-1374.62 974.62,-1374.62 974.62,-1338.62 1028.62,-1338.62 1028.62,-1374.62"/>
<text text-anchor="middle" x="1001.62" y="-1352.32" font-family="sans-serif" font-size="14.00">rand</text>
</g>
<!-- hash&#45;&gt;rand -->
<g id="edge40" class="edge">
<title>hash&#45;&gt;rand</title>
<path fill="none" stroke="black" d="M887.57,-1356.62C908.86,-1356.62 939.19,-1356.62 963.07,-1356.62"/>
<polygon fill="black" stroke="black" points="963.04,-1360.12 973.04,-1356.62 963.04,-1353.12 963.04,-1360.12"/>
</g>
<!-- hol&#45;&gt;core -->
<g id="edge41" class="edge">
<title>hol&#45;&gt;core</title>
<path fill="none" stroke="black" d="M873.89,-1636.5C889.23,-1613.44 914.87,-1571.85 928.75,-1532.62 959.31,-1446.23 947.39,-1419.59 964.75,-1329.62 974.44,-1279.38 986.83,-1221.14 994.23,-1186.95"/>
<polygon fill="black" stroke="black" points="997.6,-1187.9 996.3,-1177.39 990.76,-1186.42 997.6,-1187.9"/>
</g>
<!-- hol&#45;eval&#45;&gt;core -->
<g id="edge42" class="edge">
<title>hol&#45;eval&#45;&gt;core</title>
<path fill="none" stroke="black" d="M881.02,-1023.01C895.06,-1036.62 914,-1055.96 928.75,-1074.62 947.1,-1097.83 944.61,-1108.94 964.75,-1130.62 965.11,-1131 965.47,-1131.39 965.84,-1131.77"/>
<polygon fill="black" stroke="black" points="963.37,-1134.25 973.1,-1138.45 968.11,-1129.1 963.37,-1134.25"/>
</g>
<!-- hol&#45;eval&#45;&gt;pure -->
<g id="edge43" class="edge">
<title>hol&#45;eval&#45;&gt;pure</title>
<path fill="none" stroke="black" d="M895.72,-1006.84C962.48,-1011.17 1109.26,-1020.68 1178.58,-1025.18"/>
<polygon fill="black" stroke="black" points="1178.09,-1028.65 1188.29,-1025.8 1178.54,-1021.66 1178.09,-1028.65"/>
</g>
<!-- hol&#45;eval&#45;&gt;pure&#45;eval -->
<g id="edge44" class="edge">
<title>hol&#45;eval&#45;&gt;pure&#45;eval</title>
<path fill="none" stroke="black" d="M895.71,-1014.76C915.77,-1020.56 941.61,-1027.81 964.75,-1033.62 997.34,-1041.8 1034.21,-1049.99 1063.08,-1056.17"/>
<polygon fill="black" stroke="black" points="1062.13,-1059.55 1072.64,-1058.2 1063.59,-1052.7 1062.13,-1059.55"/>
</g>
<!-- hol&#45;eval&#45;&gt;sexp -->
<g id="edge45" class="edge">
<title>hol&#45;eval&#45;&gt;sexp</title>
<path fill="none" stroke="black" d="M883.93,-986.22C898.58,-973.19 917.05,-954.54 928.75,-934.62 968.57,-866.81 988.24,-774.88 996.18,-728.3"/>
<polygon fill="black" stroke="black" points="999.64,-728.88 997.79,-718.44 992.73,-727.75 999.64,-728.88"/>
</g>
<!-- hol&#45;eval&#45;&gt;types -->
<g id="edge46" class="edge">
<title>hol&#45;eval&#45;&gt;types</title>
<path fill="none" stroke="black" d="M895.52,-999.51C943.89,-992.74 1035.18,-981.62 1113.38,-981.62 1113.38,-981.62 1113.38,-981.62 1218.25,-981.62 1283.4,-981.62 1359.24,-981.62 1403.65,-981.62"/>
<polygon fill="black" stroke="black" points="1403.52,-985.12 1413.52,-981.62 1403.52,-978.12 1403.52,-985.12"/>
</g>
<!-- inductive -->
<g id="node18" class="node">
<title>inductive</title>
<polygon fill="none" stroke="black" points="898.75,-892.62 822,-892.62 822,-856.62 898.75,-856.62 898.75,-892.62"/>
<text text-anchor="middle" x="860.38" y="-870.32" font-family="sans-serif" font-size="14.00">inductive</text>
</g>
<!-- init&#45;&gt;core -->
<g id="edge47" class="edge">
<title>init&#45;&gt;core</title>
<path fill="none" stroke="black" d="M736.82,-893.85C744.13,-898.77 751.34,-905.03 756,-912.62 814.58,-1007.86 707.47,-1088.42 792,-1161.62 839.19,-1202.47 917.36,-1186.52 963.43,-1171.72"/>
<polygon fill="black" stroke="black" points="964.34,-1175.11 972.7,-1168.6 962.11,-1168.48 964.34,-1175.11"/>
</g>
<!-- init&#45;&gt;grammar -->
<g id="edge48" class="edge">
<title>init&#45;&gt;grammar</title>
<path fill="none" stroke="black" d="M736.61,-894.63C743.74,-899.51 750.89,-905.56 756,-912.62 788.4,-957.38 753.69,-991.8 792,-1031.62 834.7,-1076 906.04,-1093.03 953.21,-1099.56"/>
<polygon fill="black" stroke="black" points="952.49,-1103 962.85,-1100.78 953.37,-1096.06 952.49,-1103"/>
</g>
<!-- init&#45;&gt;hash -->
<g id="edge49" class="edge">
<title>init&#45;&gt;hash</title>
<path fill="none" stroke="black" d="M727.24,-899.02C737.42,-911.28 749.62,-928.28 756,-945.62 785.61,-1026.05 740.71,-1260.95 792,-1329.62 799.32,-1339.41 810.76,-1345.66 822.15,-1349.64"/>
<polygon fill="black" stroke="black" points="820.89,-1352.92 831.48,-1352.38 822.87,-1346.2 820.89,-1352.92"/>
</g>
<!-- init&#45;&gt;hol -->
<g id="edge50" class="edge">
<title>init&#45;&gt;hol</title>
<path fill="none" stroke="black" d="M727.43,-898.95C737.68,-911.19 749.9,-928.18 756,-945.62 842.34,-1192.32 719.04,-1281.63 792,-1532.62 802.11,-1567.38 823.41,-1603.18 839.38,-1626.94"/>
<polygon fill="black" stroke="black" points="836.44,-1628.83 844.99,-1635.09 842.2,-1624.87 836.44,-1628.83"/>
</g>
<!-- init&#45;&gt;hol&#45;eval -->
<g id="edge51" class="edge">
<title>init&#45;&gt;hol&#45;eval</title>
<path fill="none" stroke="black" d="M736.81,-898.38C743.2,-902.89 749.93,-907.81 756,-912.62 782.71,-933.75 811.53,-959.69 831.94,-978.63"/>
<polygon fill="black" stroke="black" points="829.34,-980.98 839.04,-985.25 834.11,-975.87 829.34,-980.98"/>
</g>
<!-- init&#45;&gt;inductive -->
<g id="edge52" class="edge">
<title>init&#45;&gt;inductive</title>
<path fill="none" stroke="black" d="M736.67,-879.56C757.01,-878.74 785.75,-877.58 810.3,-876.59"/>
<polygon fill="black" stroke="black" points="810.24,-880.1 820.09,-876.2 809.95,-873.1 810.24,-880.1"/>
</g>
<!-- metamath -->
<g id="node26" class="node">
<title>metamath</title>
<polygon fill="none" stroke="black" points="900.62,-762.62 820.12,-762.62 820.12,-726.62 900.62,-726.62 900.62,-762.62"/>
<text text-anchor="middle" x="860.38" y="-740.32" font-family="sans-serif" font-size="14.00">metamath</text>
</g>
<!-- init&#45;&gt;metamath -->
<g id="edge53" class="edge">
<title>init&#45;&gt;metamath</title>
<path fill="none" stroke="black" d="M730.47,-862.27C756.35,-838.65 801.5,-797.44 830.91,-770.6"/>
<polygon fill="black" stroke="black" points="832.98,-773.45 838,-764.12 828.26,-768.28 832.98,-773.45"/>
</g>
<!-- init&#45;&gt;sexp -->
<g id="edge54" class="edge">
<title>init&#45;&gt;sexp</title>
<path fill="none" stroke="black" d="M736.74,-868.78C787.23,-845.91 895.49,-795.77 928.75,-771.62 947.04,-758.34 964.88,-740.26 978.21,-725.41"/>
<polygon fill="black" stroke="black" points="980.54,-728.07 984.51,-718.24 975.28,-723.44 980.54,-728.07"/>
</g>
<!-- spectec -->
<g id="node44" class="node">
<title>spectec</title>
<polygon fill="none" stroke="black" points="895,-1152.62 825.75,-1152.62 825.75,-1116.62 895,-1116.62 895,-1152.62"/>
<text text-anchor="middle" x="860.38" y="-1130.32" font-family="sans-serif" font-size="14.00">spectec</text>
</g>
<!-- init&#45;&gt;spectec -->
<g id="edge55" class="edge">
<title>init&#45;&gt;spectec</title>
<path fill="none" stroke="black" d="M736.61,-893.98C743.92,-898.9 751.17,-905.14 756,-912.62 802.61,-984.83 739.49,-1034.58 792,-1102.62 797.97,-1110.35 806.28,-1116.31 815.02,-1120.86"/>
<polygon fill="black" stroke="black" points="813.45,-1123.99 824,-1124.96 816.35,-1117.62 813.45,-1123.99"/>
</g>
<!-- init&#45;&gt;types -->
<g id="edge56" class="edge">
<title>init&#45;&gt;types</title>
<path fill="none" stroke="black" d="M726.7,-898.87C736.79,-911.2 749.1,-928.33 756,-945.62 796.45,-1047.03 721.55,-1105.21 792,-1188.62 854.93,-1263.12 903.1,-1256.62 1000.62,-1256.62 1000.62,-1256.62 1000.62,-1256.62 1218.25,-1256.62 1343.78,-1256.62 1411.07,-1081.76 1433.18,-1010.9"/>
<polygon fill="black" stroke="black" points="1436.47,-1012.12 1436.02,-1001.54 1429.77,-1010.09 1436.47,-1012.12"/>
</g>
<!-- json -->
<g id="node20" class="node">
<title>json</title>
<polygon fill="none" stroke="black" points="887.38,-1320.62 833.38,-1320.62 833.38,-1284.62 887.38,-1284.62 887.38,-1320.62"/>
<text text-anchor="middle" x="860.38" y="-1298.32" font-family="sans-serif" font-size="14.00">json</text>
</g>
<!-- kernel -->
<g id="node21" class="node">
<title>kernel</title>
<polygon fill="none" stroke="black" points="608,-1078.62 550.75,-1078.62 550.75,-1042.62 608,-1042.62 608,-1078.62"/>
<text text-anchor="middle" x="579.38" y="-1056.32" font-family="sans-serif" font-size="14.00">kernel</text>
</g>
<!-- kernel&#45;&gt;hash -->
<g id="edge57" class="edge">
<title>kernel&#45;&gt;hash</title>
<path fill="none" stroke="black" d="M608.39,-1071.61C656.72,-1090.7 751.08,-1128.49 756,-1134.62 811.23,-1203.29 736.17,-1261.43 792,-1329.62 799.6,-1338.9 810.88,-1345.02 822.04,-1349.03"/>
<polygon fill="black" stroke="black" points="820.98,-1352.37 831.57,-1351.95 823.03,-1345.68 820.98,-1352.37"/>
</g>
<!-- kernel&#45;&gt;init -->
<g id="edge58" class="edge">
<title>kernel&#45;&gt;init</title>
<path fill="none" stroke="black" d="M608.09,-1048.43C614.86,-1044.46 621.61,-1039.52 626.75,-1033.62 654.48,-1001.73 642.48,-982.7 662.75,-945.62 669.83,-932.67 678.96,-919.18 687.2,-907.88"/>
<polygon fill="black" stroke="black" points="689.77,-910.28 692.93,-900.16 684.16,-906.1 689.77,-910.28"/>
</g>
<!-- kernel&#45;&gt;object -->
<g id="edge59" class="edge">
<title>kernel&#45;&gt;object</title>
<path fill="none" stroke="black" d="M608.47,-1061.49C626.22,-1062.05 649.43,-1062.77 669.01,-1063.39"/>
<polygon fill="black" stroke="black" points="668.73,-1066.88 678.84,-1063.69 668.95,-1059.88 668.73,-1066.88"/>
</g>
<!-- kernel&#45;&gt;sexp -->
<g id="edge60" class="edge">
<title>kernel&#45;&gt;sexp</title>
<path fill="none" stroke="black" d="M608.4,-1049.33C615.33,-1045.32 622.09,-1040.14 626.75,-1033.62 674.19,-967.24 625.17,-926.03 662.75,-853.62 701.16,-779.6 716.94,-753.95 792,-717.62 846.91,-691.04 919.42,-691.13 962.9,-694.36"/>
<polygon fill="black" stroke="black" points="962.59,-697.84 972.85,-695.2 963.18,-690.87 962.59,-697.84"/>
</g>
<!-- kernel&#45;&gt;store -->
<g id="edge61" class="edge">
<title>kernel&#45;&gt;store</title>
<path fill="none" stroke="black" d="M590,-1078.81C612.14,-1120.68 666.86,-1224.12 693.42,-1274.35"/>
<polygon fill="black" stroke="black" points="690.17,-1275.67 697.93,-1282.88 696.35,-1272.4 690.17,-1275.67"/>
</g>
<!-- kv -->
<g id="node22" class="node">
<title>kv</title>
<polygon fill="none" stroke="black" points="226.12,-612.62 172.12,-612.62 172.12,-576.62 226.12,-576.62 226.12,-612.62"/>
<text text-anchor="middle" x="199.12" y="-590.32" font-family="sans-serif" font-size="14.00">kv</text>
</g>
<!-- lean -->
<g id="node23" class="node">
<title>lean</title>
<polygon fill="none" stroke="black" points="87.5,-1438.62 33.5,-1438.62 33.5,-1402.62 87.5,-1402.62 87.5,-1438.62"/>
<text text-anchor="middle" x="60.5" y="-1416.32" font-family="sans-serif" font-size="14.00">lean</text>
</g>
<!-- llm -->
<g id="node24" class="node">
<title>llm</title>
<polygon fill="none" stroke="black" points="226.12,-720.62 172.12,-720.62 172.12,-684.62 226.12,-684.62 226.12,-720.62"/>
<text text-anchor="middle" x="199.12" y="-698.32" font-family="sans-serif" font-size="14.00">llm</text>
</g>
<!-- llm&#45;&gt;proto -->
<g id="edge62" class="edge">
<title>llm&#45;&gt;proto</title>
<path fill="none" stroke="black" d="M226.41,-687.38C231.58,-683.84 236.79,-679.85 241.25,-675.62 260.86,-657.02 258.04,-645.63 277.25,-626.62 280.2,-623.7 283.43,-620.85 286.76,-618.13"/>
<polygon fill="black" stroke="black" points="288.71,-621.05 294.51,-612.18 284.44,-615.5 288.71,-621.05"/>
</g>
<!-- lsp&#45;&gt;sexp -->
<g id="edge63" class="edge">
<title>lsp&#45;&gt;sexp</title>
<path fill="none" stroke="black" d="M887.54,-359C901.7,-362.7 918.36,-369.44 928.75,-381.62 965.97,-425.24 989.39,-599.4 997.47,-669.33"/>
<polygon fill="black" stroke="black" points="993.94,-669.33 998.54,-678.88 1000.9,-668.55 993.94,-669.33"/>
</g>
<!-- lsp&#45;&gt;wasm -->
<g id="edge64" class="edge">
<title>lsp&#45;&gt;wasm</title>
<path fill="none" stroke="black" d="M887.87,-344.06C900.67,-338.46 915.98,-331.01 928.75,-322.62 945.01,-311.92 961.47,-297.8 974.52,-285.64"/>
<polygon fill="black" stroke="black" points="976.63,-288.46 981.47,-279.03 971.81,-283.38 976.63,-288.46"/>
</g>
<!-- metamath&#45;&gt;parse -->
<g id="edge65" class="edge">
<title>metamath&#45;&gt;parse</title>
<path fill="none" stroke="black" d="M901.03,-741C948.94,-736.62 1028.96,-729.32 1075.89,-725.04"/>
<polygon fill="black" stroke="black" points="1075.92,-728.55 1085.56,-724.16 1075.28,-721.58 1075.92,-728.55"/>
</g>
<!-- metamath&#45;&gt;sexp -->
<g id="edge66" class="edge">
<title>metamath&#45;&gt;sexp</title>
<path fill="none" stroke="black" d="M900.91,-731.56C920.53,-725.07 944.11,-717.29 963.41,-710.91"/>
<polygon fill="black" stroke="black" points="964.38,-714.27 972.78,-707.81 962.19,-707.63 964.38,-714.27"/>
</g>
<!-- multiformat -->
<g id="node27" class="node">
<title>multiformat</title>
<polygon fill="none" stroke="black" points="754.5,-524.62 664.25,-524.62 664.25,-488.62 754.5,-488.62 754.5,-524.62"/>
<text text-anchor="middle" x="709.38" y="-502.32" font-family="sans-serif" font-size="14.00">multiformat</text>
</g>
<!-- multiformat&#45;&gt;acset -->
<g id="edge67" class="edge">
<title>multiformat&#45;&gt;acset</title>
<path fill="none" stroke="black" d="M754.68,-504.83C776.05,-503.97 801.41,-502.95 821.81,-502.13"/>
<polygon fill="black" stroke="black" points="821.83,-505.63 831.68,-501.73 821.55,-498.64 821.83,-505.63"/>
</g>
<!-- multiformat&#45;&gt;hash -->
<g id="edge68" class="edge">
<title>multiformat&#45;&gt;hash</title>
<path fill="none" stroke="black" d="M720.94,-524.87C731.94,-544.92 748.58,-578.41 756,-609.62 774.53,-687.54 745.47,-1264.42 792,-1329.62 799.16,-1339.64 810.67,-1345.95 822.17,-1349.92"/>
<polygon fill="black" stroke="black" points="821.02,-1353.23 831.6,-1352.63 822.96,-1346.5 821.02,-1353.23"/>
</g>
<!-- multiformat&#45;&gt;parse -->
<g id="edge69" class="edge">
<title>multiformat&#45;&gt;parse</title>
<path fill="none" stroke="black" d="M752.34,-524.95C796.68,-544.62 868.41,-577.27 928.75,-608.62 978.66,-634.54 990.7,-641.98 1038.5,-671.62 1051.39,-679.61 1065.27,-688.73 1077.54,-696.97"/>
<polygon fill="black" stroke="black" points="1075.48,-699.8 1085.72,-702.51 1079.4,-694.01 1075.48,-699.8"/>
</g>
<!-- object&#45;&gt;hash -->
<g id="edge70" class="edge">
<title>object&#45;&gt;hash</title>
<path fill="none" stroke="black" d="M738.2,-1078.86C745.02,-1083.62 751.61,-1089.55 756,-1096.62 811.32,-1185.61 726.81,-1247.58 792,-1329.62 799.47,-1339.01 810.71,-1345.16 821.87,-1349.16"/>
<polygon fill="black" stroke="black" points="820.84,-1352.51 831.43,-1352.06 822.88,-1345.81 820.84,-1352.51"/>
</g>
<!-- object&#45;&gt;parse -->
<g id="edge71" class="edge">
<title>object&#45;&gt;parse</title>
<path fill="none" stroke="black" d="M722.95,-1046.23C737.39,-1026.48 762.88,-995.51 792,-977.62 845.96,-944.47 875.58,-972 928.75,-937.62 1005.97,-887.68 1068.62,-795.95 1096.98,-749.76"/>
<polygon fill="black" stroke="black" points="1099.86,-751.76 1102.03,-741.39 1093.87,-748.14 1099.86,-751.76"/>
</g>
<!-- opentheory&#45;&gt;hol -->
<g id="edge72" class="edge">
<title>opentheory&#45;&gt;hol</title>
<path fill="none" stroke="black" d="M368.58,-1822.38C450.74,-1834.3 628.69,-1849.32 756,-1782.62 797.87,-1760.68 828.81,-1713.61 845.45,-1683.08"/>
<polygon fill="black" stroke="black" points="848.47,-1684.85 850.03,-1674.37 842.27,-1681.59 848.47,-1684.85"/>
</g>
<!-- parquet -->
<g id="node30" class="node">
<title>parquet</title>
<polygon fill="none" stroke="black" points="483.62,-932.62 416.62,-932.62 416.62,-896.62 483.62,-896.62 483.62,-932.62"/>
<text text-anchor="middle" x="450.12" y="-910.32" font-family="sans-serif" font-size="14.00">parquet</text>
</g>
<!-- parquet&#45;&gt;arrow -->
<g id="edge73" class="edge">
<title>parquet&#45;&gt;arrow</title>
<path fill="none" stroke="black" d="M483.9,-914.62C501.29,-914.62 522.75,-914.62 540.82,-914.62"/>
<polygon fill="black" stroke="black" points="540.61,-918.12 550.61,-914.62 540.61,-911.12 540.61,-918.12"/>
</g>
<!-- pure&#45;trusted -->
<g id="node35" class="node">
<title>pure&#45;trusted</title>
<polygon fill="#ffd6d6" stroke="black" points="1379.5,-1045.62 1280.25,-1045.62 1280.25,-1009.62 1379.5,-1009.62 1379.5,-1045.62"/>
<text text-anchor="middle" x="1329.88" y="-1023.32" font-family="sans-serif" font-size="14.00">pure&#45;trusted</text>
</g>
<!-- pure&#45;&gt;pure&#45;trusted -->
<g id="edge74" class="edge">
<title>pure&#45;&gt;pure&#45;trusted</title>
<path fill="none" stroke="black" d="M1244.75,-1027.62C1252.04,-1027.62 1260.27,-1027.62 1268.64,-1027.62"/>
<polygon fill="black" stroke="black" points="1268.57,-1031.12 1278.57,-1027.62 1268.57,-1024.12 1268.57,-1031.12"/>
</g>
<!-- pure&#45;eval&#45;&gt;pure -->
<g id="edge75" class="edge">
<title>pure&#45;eval&#45;&gt;pure</title>
<path fill="none" stroke="black" d="M1154.66,-1051.43C1162.8,-1048.28 1171.35,-1044.98 1179.4,-1041.86"/>
<polygon fill="black" stroke="black" points="1180.5,-1045.19 1188.57,-1038.32 1177.98,-1038.66 1180.5,-1045.19"/>
</g>
<!-- pure&#45;eval&#45;&gt;types -->
<g id="edge76" class="edge">
<title>pure&#45;eval&#45;&gt;types</title>
<path fill="none" stroke="black" d="M1154.47,-1074.12C1208.22,-1082.44 1306.56,-1090.4 1379.5,-1054.62 1399.16,-1044.97 1414.99,-1025.94 1425.74,-1009.72"/>
<polygon fill="black" stroke="black" points="1428.62,-1011.72 1430.96,-1001.38 1422.69,-1008 1428.62,-1011.72"/>
</g>
<!-- pure&#45;trusted&#45;&gt;types -->
<g id="edge77" class="edge">
<title>pure&#45;trusted&#45;&gt;types</title>
<path fill="none" stroke="black" d="M1375.23,-1009.17C1385,-1005.11 1395.24,-1000.85 1404.67,-996.93"/>
<polygon fill="black" stroke="black" points="1406,-1000.17 1413.89,-993.1 1403.31,-993.71 1406,-1000.17"/>
</g>
<!-- python -->
<g id="node36" class="node">
<title>python</title>
<polygon fill="none" stroke="black" points="91.38,-845.62 29.62,-845.62 29.62,-809.62 91.38,-809.62 91.38,-845.62"/>
<text text-anchor="middle" x="60.5" y="-823.32" font-family="sans-serif" font-size="14.00">python</text>
</g>
<!-- python&#45;&gt;crypto&#45;sig -->
<g id="edge78" class="edge">
<title>python&#45;&gt;crypto&#45;sig</title>
<path fill="none" stroke="black" d="M69.68,-809.51C84.05,-779.16 116.2,-717.24 157,-675.62 157.47,-675.14 157.94,-674.67 158.43,-674.2"/>
<polygon fill="black" stroke="black" points="160.39,-677.13 165.75,-667.98 155.86,-671.79 160.39,-677.13"/>
</g>
<!-- python&#45;&gt;git -->
<g id="edge79" class="edge">
<title>python&#45;&gt;git</title>
<path fill="none" stroke="black" d="M61.45,-845.96C62.26,-902.22 71.9,-1074.72 157,-1177.62 224.41,-1259.14 349.6,-1297.92 411.9,-1312.87"/>
<polygon fill="black" stroke="black" points="410.77,-1316.2 421.3,-1315.04 412.35,-1309.38 410.77,-1316.2"/>
</g>
<!-- python&#45;&gt;graph -->
<g id="edge80" class="edge">
<title>python&#45;&gt;graph</title>
<path fill="none" stroke="black" d="M71.91,-845.72C87.24,-870.67 118.29,-915.18 157,-938.62 238.67,-988.08 353.22,-1001.57 411.65,-1005.25"/>
<polygon fill="black" stroke="black" points="411.2,-1008.73 421.38,-1005.79 411.59,-1001.74 411.2,-1008.73"/>
</g>
<!-- python&#45;&gt;hash -->
<g id="edge81" class="edge">
<title>python&#45;&gt;hash</title>
<path fill="none" stroke="black" d="M62.19,-846.05C66.35,-933.32 94.64,-1310.02 277.25,-1533.62 319.75,-1585.65 340.68,-1593.87 404.25,-1615.62 497.93,-1647.66 529.07,-1642.79 626.75,-1626.62 686.62,-1616.71 712.98,-1625.41 756,-1582.62 790.68,-1548.12 772.1,-1523.3 792,-1478.62 806.9,-1445.16 827.73,-1408.61 842.28,-1384.33"/>
<polygon fill="black" stroke="black" points="845.13,-1386.38 847.31,-1376.01 839.14,-1382.76 845.13,-1386.38"/>
</g>
<!-- python&#45;&gt;kv -->
<g id="edge82" class="edge">
<title>python&#45;&gt;kv</title>
<path fill="none" stroke="black" d="M66.29,-809.2C77.06,-770.7 106.26,-680.41 157,-621.62 158.86,-619.47 160.92,-617.42 163.12,-615.48"/>
<polygon fill="black" stroke="black" points="165.05,-618.42 170.81,-609.53 160.76,-612.88 165.05,-618.42"/>
</g>
<!-- python&#45;&gt;llm -->
<g id="edge83" class="edge">
<title>python&#45;&gt;llm</title>
<path fill="none" stroke="black" d="M79.24,-809.17C98,-789.94 128.73,-759.24 157,-734.62 159.58,-732.37 162.29,-730.09 165.04,-727.84"/>
<polygon fill="black" stroke="black" points="167.04,-730.72 172.66,-721.74 162.67,-725.25 167.04,-730.72"/>
</g>
<!-- python&#45;&gt;object -->
<g id="edge84" class="edge">
<title>python&#45;&gt;object</title>
<path fill="none" stroke="black" d="M61.67,-809.31C63.26,-760.07 75.18,-624.73 157,-567.62 233.99,-513.88 281,-532.94 368.25,-567.62 515.07,-625.96 550.77,-673.1 626.75,-811.62 667.67,-886.21 629.57,-921.28 662.75,-999.62 668.36,-1012.87 676.99,-1026.13 685.23,-1037.18"/>
<polygon fill="black" stroke="black" points="682.47,-1039.32 691.37,-1045.07 687.99,-1035.03 682.47,-1039.32"/>
</g>
<!-- python&#45;&gt;repl -->
<g id="edge85" class="edge">
<title>python&#45;&gt;repl</title>
<path fill="none" stroke="black" d="M91.76,-837.05C127.53,-848.23 188.81,-867.51 241.25,-884.62 255.37,-889.22 270.85,-894.39 284.43,-898.96"/>
<polygon fill="black" stroke="black" points="283.29,-902.27 293.89,-902.15 285.53,-895.63 283.29,-902.27"/>
</g>
<!-- sat -->
<g id="node39" class="node">
<title>sat</title>
<polygon fill="none" stroke="black" points="887.38,-112.62 833.38,-112.62 833.38,-76.62 887.38,-76.62 887.38,-112.62"/>
<text text-anchor="middle" x="860.38" y="-90.32" font-family="sans-serif" font-size="14.00">sat</text>
</g>
<!-- python&#45;&gt;sat -->
<g id="edge86" class="edge">
<title>python&#45;&gt;sat</title>
<path fill="none" stroke="black" d="M61.2,-809.24C59.95,-708.87 59.21,-227.69 157,-126.62 208.65,-73.24 247.48,-98.62 321.75,-98.62 321.75,-98.62 321.75,-98.62 580.38,-98.62 666.84,-98.62 768.37,-96.67 821.92,-95.49"/>
<polygon fill="black" stroke="black" points="821.79,-99 831.71,-95.28 821.63,-92 821.79,-99"/>
</g>
<!-- python&#45;&gt;serve -->
<g id="edge87" class="edge">
<title>python&#45;&gt;serve</title>
<path fill="none" stroke="black" d="M91.48,-846.05C112.33,-858.87 140.21,-876.01 162.24,-889.55"/>
<polygon fill="black" stroke="black" points="160.26,-892.44 170.61,-894.7 163.92,-886.48 160.26,-892.44"/>
</g>
<!-- python&#45;&gt;sexp -->
<g id="edge88" class="edge">
<title>python&#45;&gt;sexp</title>
<path fill="none" stroke="black" d="M60.75,-809.17C59.68,-755.3 64.86,-597.77 157,-530.62 163.08,-526.18 329.67,-531.82 368.25,-533.62 483.29,-538.98 513.28,-531.91 626.75,-551.62 661.1,-557.58 898.04,-620.12 928.75,-636.62 938.39,-641.8 957.38,-658.3 973.42,-672.97"/>
<polygon fill="black" stroke="black" points="970.64,-675.17 980.36,-679.38 975.39,-670.03 970.64,-675.17"/>
</g>
<!-- python&#45;&gt;shell -->
<g id="edge89" class="edge">
<title>python&#45;&gt;shell</title>
<path fill="none" stroke="black" d="M61.59,-845.86C62.85,-898.64 73.85,-1053.02 157,-1136.62 226.93,-1206.92 349.99,-1223.62 411.67,-1227.5"/>
<polygon fill="black" stroke="black" points="411.11,-1230.98 421.29,-1228.02 411.49,-1223.99 411.11,-1230.98"/>
</g>
<!-- python&#45;&gt;store -->
<g id="edge90" class="edge">
<title>python&#45;&gt;store</title>
<path fill="none" stroke="black" d="M67.29,-845.99C79.21,-881.43 109.42,-960.17 157,-1010.62 275.66,-1136.42 339.62,-1127.79 496,-1201.62 557.64,-1230.72 629.22,-1264.82 671.55,-1285.02"/>
<polygon fill="black" stroke="black" points="670.01,-1288.17 680.54,-1289.32 673.03,-1281.85 670.01,-1288.17"/>
</g>
<!-- python&#45;&gt;wasm -->
<g id="edge91" class="edge">
<title>python&#45;&gt;wasm</title>
<path fill="none" stroke="black" d="M64.25,-809.24C81.08,-699.99 174.44,-140.62 321.75,-140.62 321.75,-140.62 321.75,-140.62 710.38,-140.62 808.4,-140.62 843.36,-123.46 928.75,-171.62 941.91,-179.03 965.04,-209.06 981.51,-232"/>
<polygon fill="black" stroke="black" points="978.59,-233.94 987.23,-240.07 984.3,-229.89 978.59,-233.94"/>
</g>
<!-- wasm&#45;store -->
<g id="node51" class="node">
<title>wasm&#45;store</title>
<polygon fill="none" stroke="black" points="626.75,-1024.62 532,-1024.62 532,-988.62 626.75,-988.62 626.75,-1024.62"/>
<text text-anchor="middle" x="579.38" y="-1002.32" font-family="sans-serif" font-size="14.00">wasm&#45;store</text>
</g>
<!-- python&#45;&gt;wasm&#45;store -->
<g id="edge92" class="edge">
<title>python&#45;&gt;wasm&#45;store</title>
<path fill="none" stroke="black" d="M68.82,-845.91C81.91,-876.34 112.23,-937.27 157,-970.62 279.9,-1062.16 344.67,-1057.78 496,-1033.62 504.07,-1032.33 512.43,-1030.37 520.58,-1028.09"/>
<polygon fill="black" stroke="black" points="521.51,-1031.46 530.08,-1025.24 519.5,-1024.76 521.51,-1031.46"/>
</g>
<!-- repl&#45;&gt;arrow -->
<g id="edge93" class="edge">
<title>repl&#45;&gt;arrow</title>
<path fill="none" stroke="black" d="M349.91,-924.08C365.34,-930.73 385.46,-938.23 404.25,-941.62 444.38,-948.85 455.73,-948.05 496,-941.62 511.24,-939.18 527.5,-934.36 541.5,-929.46"/>
<polygon fill="black" stroke="black" points="542.58,-932.8 550.77,-926.08 540.18,-926.22 542.58,-932.8"/>
</g>
<!-- repl&#45;&gt;forsp -->
<g id="edge94" class="edge">
<title>repl&#45;&gt;forsp</title>
<path fill="none" stroke="black" d="M342.37,-893.29C357.59,-879.67 380.43,-862.2 404.25,-854.62 498.48,-824.63 544.42,-799.83 626.75,-854.62 661.25,-877.57 636.77,-908.34 662.75,-940.62 665.75,-944.35 669.3,-947.83 673.07,-951.02"/>
<polygon fill="black" stroke="black" points="670.84,-953.73 680.91,-957.01 675.09,-948.16 670.84,-953.73"/>
</g>
<!-- repl&#45;&gt;git -->
<g id="edge95" class="edge">
<title>repl&#45;&gt;git</title>
<path fill="none" stroke="black" d="M327.07,-929.75C338.56,-991.79 377.42,-1195.05 404.25,-1255.62 410.05,-1268.71 418.58,-1281.93 426.66,-1293"/>
<polygon fill="black" stroke="black" points="423.82,-1295.05 432.64,-1300.92 429.4,-1290.83 423.82,-1295.05"/>
</g>
<!-- repl&#45;&gt;graph -->
<g id="edge96" class="edge">
<title>repl&#45;&gt;graph</title>
<path fill="none" stroke="black" d="M349.92,-929.85C356.01,-934.26 362.42,-939.02 368.25,-943.62 384.84,-956.68 387.64,-961.58 404.25,-974.62 407.28,-976.99 410.46,-979.41 413.68,-981.8"/>
<polygon fill="black" stroke="black" points="411.36,-984.44 421.5,-987.51 415.49,-978.79 411.36,-984.44"/>
</g>
<!-- repl&#45;&gt;hash -->
<g id="edge97" class="edge">
<title>repl&#45;&gt;hash</title>
<path fill="none" stroke="black" d="M324.71,-929.98C328.98,-1004.48 348.46,-1283.28 404.25,-1347.62 507.58,-1466.78 600.72,-1422.25 756,-1394.62 778.77,-1390.56 803.09,-1381.86 822.43,-1373.8"/>
<polygon fill="black" stroke="black" points="823.7,-1377.07 831.5,-1369.9 820.93,-1370.63 823.7,-1377.07"/>
</g>
<!-- repl&#45;&gt;init -->
<g id="edge98" class="edge">
<title>repl&#45;&gt;init</title>
<path fill="none" stroke="black" d="M332.73,-893.49C345.2,-870.64 370.12,-832.43 404.25,-816.62 493.97,-775.04 533.28,-784.34 626.75,-816.62 648.52,-824.13 668.91,-840.11 683.87,-854.23"/>
<polygon fill="black" stroke="black" points="681.35,-856.66 690.94,-861.18 686.26,-851.67 681.35,-856.66"/>
</g>
<!-- repl&#45;&gt;object -->
<g id="edge99" class="edge">
<title>repl&#45;&gt;object</title>
<path fill="none" stroke="black" d="M349.93,-899.19C406.55,-874.33 542.11,-825.91 626.75,-887.62 669,-918.42 639.47,-952.8 662.75,-999.62 669.27,-1012.73 678.24,-1026.16 686.5,-1037.38"/>
<polygon fill="black" stroke="black" points="683.46,-1039.16 692.29,-1045.02 689.04,-1034.93 683.46,-1039.16"/>
</g>
<!-- repl&#45;&gt;parquet -->
<g id="edge100" class="edge">
<title>repl&#45;&gt;parquet</title>
<path fill="none" stroke="black" d="M350.03,-912.25C365.89,-912.62 386.51,-913.12 404.83,-913.56"/>
<polygon fill="black" stroke="black" points="404.58,-917.05 414.66,-913.79 404.74,-910.05 404.58,-917.05"/>
</g>
<!-- repl&#45;&gt;shell -->
<g id="edge101" class="edge">
<title>repl&#45;&gt;shell</title>
<path fill="none" stroke="black" d="M331.67,-929.82C340.85,-951.18 356.28,-987.72 368.25,-1019.62 385.74,-1066.2 386.3,-1079.21 404.25,-1125.62 414.09,-1151.06 426.58,-1179.45 435.88,-1199.96"/>
<polygon fill="black" stroke="black" points="432.58,-1201.18 439.92,-1208.83 438.95,-1198.28 432.58,-1201.18"/>
</g>
<!-- repl&#45;&gt;wasm -->
<g id="edge102" class="edge">
<title>repl&#45;&gt;wasm</title>
<path fill="none" stroke="black" d="M332.06,-893.36C370.52,-811.22 540.11,-473.53 792,-327.62 847.13,-295.68 868.27,-304.64 928.75,-284.62 940.04,-280.88 952.27,-276.68 963.39,-272.81"/>
<polygon fill="black" stroke="black" points="964.36,-276.18 972.64,-269.57 962.04,-269.57 964.36,-276.18"/>
</g>
<!-- sat&#45;&gt;parse -->
<g id="edge103" class="edge">
<title>sat&#45;&gt;parse</title>
<path fill="none" stroke="black" d="M887.73,-104.76C900.63,-110.31 916.08,-117.84 928.75,-126.62 984.5,-165.23 1007.34,-172.38 1038.5,-232.62 1080.56,-313.93 1104.49,-598.91 1111.32,-691.97"/>
<polygon fill="black" stroke="black" points="1107.82,-692.08 1112.03,-701.8 1114.8,-691.58 1107.82,-692.08"/>
</g>
<!-- sat&#45;&gt;types -->
<g id="edge104" class="edge">
<title>sat&#45;&gt;types</title>
<path fill="none" stroke="black" d="M887.84,-96.71C933.72,-100.14 1031.03,-106.62 1113.38,-106.62 1113.38,-106.62 1113.38,-106.62 1218.25,-106.62 1396.84,-106.62 1434.37,-799.64 1440.47,-952.16"/>
<polygon fill="black" stroke="black" points="1436.96,-951.97 1440.84,-961.83 1443.96,-951.7 1436.96,-951.97"/>
</g>
<!-- sat&#45;&gt;wasm -->
<g id="edge105" class="edge">
<title>sat&#45;&gt;wasm</title>
<path fill="none" stroke="black" d="M887.68,-102.67C901.19,-107.84 917.2,-115.65 928.75,-126.62 945.11,-142.15 971.91,-196.79 987.75,-231.01"/>
<polygon fill="black" stroke="black" points="984.5,-232.32 991.85,-239.96 990.86,-229.41 984.5,-232.32"/>
</g>
<!-- serve&#45;&gt;core -->
<g id="edge106" class="edge">
<title>serve&#45;&gt;core</title>
<path fill="none" stroke="black" d="M212.61,-893.42C226.27,-875.03 249.88,-847.29 277.25,-832.62 414.4,-759.09 499.87,-721.52 626.75,-811.62 663.9,-838 630.99,-874.94 662.75,-907.62 693.95,-939.7 728.37,-910.41 756,-945.62 823.41,-1031.5 709.34,-1117.3 792,-1188.62 839.97,-1230 918.4,-1201.29 964.2,-1178.32"/>
<polygon fill="black" stroke="black" points="965.67,-1181.5 972.93,-1173.79 962.45,-1175.29 965.67,-1181.5"/>
</g>
<!-- serve&#45;&gt;git -->
<g id="edge107" class="edge">
<title>serve&#45;&gt;git</title>
<path fill="none" stroke="black" d="M207.26,-930.08C219.74,-961.63 247.09,-1027.54 277.25,-1079.62 324.64,-1161.44 392.7,-1250.14 427.23,-1293.57"/>
<polygon fill="black" stroke="black" points="424.35,-1295.56 433.32,-1301.19 429.82,-1291.19 424.35,-1295.56"/>
</g>
<!-- serve&#45;&gt;hash -->
<g id="edge108" class="edge">
<title>serve&#45;&gt;hash</title>
<path fill="none" stroke="black" d="M200.15,-930.08C200.62,-1017.59 206.81,-1390.03 277.25,-1476.62 412.88,-1643.33 575.12,-1660.68 756,-1544.62 784.12,-1526.57 775.92,-1507.91 792,-1478.62 809.72,-1446.32 830.2,-1409.29 843.88,-1384.58"/>
<polygon fill="black" stroke="black" points="846.78,-1386.56 848.57,-1376.11 840.66,-1383.17 846.78,-1386.56"/>
</g>
<!-- serve&#45;&gt;init -->
<g id="edge109" class="edge">
<title>serve&#45;&gt;init</title>
<path fill="none" stroke="black" d="M216.67,-893.52C225.16,-883.34 235.01,-870.02 241.25,-856.62 270.92,-792.9 222.18,-746.3 277.25,-702.62 402.41,-603.34 505.95,-682.07 626.75,-786.62 649.92,-806.67 672.47,-833.35 687.97,-853.16"/>
<polygon fill="black" stroke="black" points="685.19,-855.29 694.06,-861.08 690.74,-851.02 685.19,-855.29"/>
</g>
<!-- serve&#45;&gt;metamath -->
<g id="edge110" class="edge">
<title>serve&#45;&gt;metamath</title>
<path fill="none" stroke="black" d="M217.37,-893.15C225.85,-883.08 235.46,-869.96 241.25,-856.62 277.4,-773.37 218.25,-724.58 277.25,-655.62 282.12,-649.93 524.62,-568.86 532,-567.62 573.53,-560.65 592.14,-543.63 626.75,-567.62 664.2,-593.57 630.23,-631.7 662.75,-663.62 694.12,-694.41 715.3,-680.01 756,-696.62 774.53,-704.18 794.56,-713.26 812,-721.48"/>
<polygon fill="black" stroke="black" points="810.04,-724.42 820.58,-725.55 813.05,-718.1 810.04,-724.42"/>
</g>
<!-- serve&#45;&gt;object -->
<g id="edge111" class="edge">
<title>serve&#45;&gt;object</title>
<path fill="none" stroke="black" d="M226.59,-896.15C299.21,-855.95 504.36,-757.74 626.75,-853.62 679.36,-894.83 635.08,-938.78 662.75,-999.62 668.71,-1012.72 677.4,-1025.95 685.6,-1037.02"/>
<polygon fill="black" stroke="black" points="682.81,-1039.13 691.68,-1044.93 688.36,-1034.87 682.81,-1039.13"/>
</g>
<!-- serve&#45;&gt;proto -->
<g id="edge112" class="edge">
<title>serve&#45;&gt;proto</title>
<path fill="none" stroke="black" d="M226.56,-895.92C232.24,-891.35 237.62,-885.88 241.25,-879.62 298.22,-781.36 218.43,-723.78 277.25,-626.62 279.74,-622.5 282.99,-618.75 286.6,-615.4"/>
<polygon fill="black" stroke="black" points="288.68,-618.22 294.3,-609.24 284.3,-612.76 288.68,-618.22"/>
</g>
<!-- serve&#45;&gt;repl -->
<g id="edge113" class="edge">
<title>serve&#45;&gt;repl</title>
<path fill="none" stroke="black" d="M226.52,-911.62C243.33,-911.62 265.38,-911.62 284.03,-911.62"/>
<polygon fill="black" stroke="black" points="283.9,-915.12 293.9,-911.62 283.9,-908.12 283.9,-915.12"/>
</g>
<!-- serve&#45;&gt;shell -->
<g id="edge114" class="edge">
<title>serve&#45;&gt;shell</title>
<path fill="none" stroke="black" d="M214.59,-930.03C256.45,-983.32 377.88,-1137.92 427.56,-1201.16"/>
<polygon fill="black" stroke="black" points="424.76,-1203.26 433.69,-1208.96 430.26,-1198.94 424.76,-1203.26"/>
</g>
<!-- serve&#45;&gt;store -->
<g id="edge115" class="edge">
<title>serve&#45;&gt;store</title>
<path fill="none" stroke="black" d="M226.37,-920.21C263.37,-933.65 330.55,-963.13 368.25,-1010.62 401.55,-1052.56 367.26,-1086.89 404.25,-1125.62 440.6,-1163.66 583.55,-1176.57 626.75,-1206.62 630.44,-1209.18 663.06,-1248.05 685.93,-1275.53"/>
<polygon fill="black" stroke="black" points="683.2,-1277.73 692.28,-1283.18 688.58,-1273.25 683.2,-1277.73"/>
</g>
<!-- sexp&#45;&gt;parse -->
<g id="edge116" class="edge">
<title>sexp&#45;&gt;parse</title>
<path fill="none" stroke="black" d="M1028.87,-704.07C1042.97,-707 1060.6,-710.66 1076.1,-713.88"/>
<polygon fill="black" stroke="black" points="1074.95,-717.21 1085.45,-715.82 1076.37,-710.36 1074.95,-717.21"/>
</g>
<!-- shell&#45;&gt;hol -->
<g id="edge117" class="edge">
<title>shell&#45;&gt;hol</title>
<path fill="none" stroke="black" d="M464.91,-1246.87C474.24,-1259.62 486.54,-1277.23 496,-1293.62 514.68,-1325.99 509.43,-1339.83 532,-1369.62 619.01,-1484.44 758.65,-1586.72 823.78,-1631.14"/>
<polygon fill="black" stroke="black" points="821.71,-1633.97 831.95,-1636.67 825.63,-1628.17 821.71,-1633.97"/>
</g>
<!-- shell&#45;&gt;kernel -->
<g id="edge118" class="edge">
<title>shell&#45;&gt;kernel</title>
<path fill="none" stroke="black" d="M458.93,-1210.25C471.39,-1182.47 497.86,-1129.14 532,-1092.62 534.84,-1089.58 538.01,-1086.67 541.33,-1083.93"/>
<polygon fill="black" stroke="black" points="543.28,-1086.84 549.13,-1078 539.05,-1081.27 543.28,-1086.84"/>
</g>
<!-- smt&#45;&gt;sat -->
<g id="edge119" class="edge">
<title>smt&#45;&gt;sat</title>
<path fill="none" stroke="black" d="M736.58,-298.58C743.71,-293.7 750.87,-287.65 756,-280.62 787.8,-237 764.54,-211.09 792,-164.62 801.64,-148.3 815.8,-132.81 828.66,-120.58"/>
<polygon fill="black" stroke="black" points="830.75,-123.41 835.74,-114.06 826.01,-118.26 830.75,-123.41"/>
</g>
<!-- smt&#45;&gt;sexp -->
<g id="edge120" class="edge">
<title>smt&#45;&gt;sexp</title>
<path fill="none" stroke="black" d="M717.62,-331.08C729.2,-358.16 754.46,-408.36 792,-435.62 843.05,-472.68 883.3,-429.87 928.75,-473.62 983.51,-526.33 996.65,-620.67 999.74,-668.72"/>
<polygon fill="black" stroke="black" points="996.24,-668.84 1000.25,-678.65 1003.23,-668.48 996.24,-668.84"/>
</g>
<!-- smt&#45;&gt;types -->
<g id="edge121" class="edge">
<title>smt&#45;&gt;types</title>
<path fill="none" stroke="black" d="M736.71,-299.31C744.02,-294.39 751.25,-288.14 756,-280.62 807.27,-199.44 721.56,-132.86 792,-67.62 860.31,-4.35 907.52,-48.62 1000.62,-48.62 1000.62,-48.62 1000.62,-48.62 1218.25,-48.62 1300.11,-48.62 1335.33,-68.7 1379.5,-137.62 1424.27,-207.48 1438.31,-811.32 1440.99,-952.28"/>
<polygon fill="black" stroke="black" points="1437.48,-951.96 1441.17,-961.89 1444.48,-951.83 1437.48,-951.96"/>
</g>
<!-- spectec&#45;&gt;grammar -->
<g id="edge122" class="edge">
<title>spectec&#45;&gt;grammar</title>
<path fill="none" stroke="black" d="M895.44,-1127.03C912.86,-1123.16 934.33,-1118.37 953.33,-1114.15"/>
<polygon fill="black" stroke="black" points="954,-1117.58 963,-1111.99 952.48,-1110.75 954,-1117.58"/>
</g>
<!-- store&#45;&gt;hash -->
<g id="edge123" class="edge">
<title>store&#45;&gt;hash</title>
<path fill="none" stroke="black" d="M736.67,-1312.15C760.43,-1320.76 795.65,-1333.52 822.27,-1343.17"/>
<polygon fill="black" stroke="black" points="821.08,-1346.46 831.67,-1346.58 823.46,-1339.88 821.08,-1346.46"/>
</g>
<!-- store&#45;&gt;json -->
<g id="edge124" class="edge">
<title>store&#45;&gt;json</title>
<path fill="none" stroke="black" d="M736.67,-1302.62C760.32,-1302.62 795.33,-1302.62 821.91,-1302.62"/>
<polygon fill="black" stroke="black" points="821.58,-1306.12 831.58,-1302.62 821.58,-1299.12 821.58,-1306.12"/>
</g>
<!-- store&#45;&gt;sqlite -->
<g id="edge125" class="edge">
<title>store&#45;&gt;sqlite</title>
<path fill="none" stroke="black" d="M723.86,-1320.99C750.11,-1356.75 808.21,-1435.9 839.11,-1478.01"/>
<polygon fill="black" stroke="black" points="836.18,-1479.93 844.92,-1485.92 841.82,-1475.79 836.18,-1479.93"/>
</g>
<!-- wasm&#45;build&#45;guest -->
<g id="node49" class="node">
<title>wasm&#45;build&#45;guest</title>
<polygon fill="none" stroke="black" points="928.75,-242.62 792,-242.62 792,-206.62 928.75,-206.62 928.75,-242.62"/>
<text text-anchor="middle" x="860.38" y="-220.32" font-family="sans-serif" font-size="14.00">wasm&#45;build&#45;guest</text>
</g>
<!-- wasm&#45;build&#45;guest&#45;&gt;wasm -->
<g id="edge126" class="edge">
<title>wasm&#45;build&#45;guest&#45;&gt;wasm</title>
<path fill="none" stroke="black" d="M928.96,-241.6C940.77,-244.57 952.65,-247.56 963.25,-250.22"/>
<polygon fill="black" stroke="black" points="962.17,-253.56 972.72,-252.6 963.88,-246.77 962.17,-253.56"/>
</g>
<!-- wasm&#45;spec -->
<g id="node50" class="node">
<title>wasm&#45;spec</title>
<polygon fill="none" stroke="black" points="756,-654.62 662.75,-654.62 662.75,-618.62 756,-618.62 756,-654.62"/>
<text text-anchor="middle" x="709.38" y="-632.32" font-family="sans-serif" font-size="14.00">wasm&#45;spec</text>
</g>
<!-- wasm&#45;spec&#45;&gt;hash -->
<g id="edge127" class="edge">
<title>wasm&#45;spec&#45;&gt;hash</title>
<path fill="none" stroke="black" d="M715.11,-655.05C724.49,-692.29 745.42,-779.3 756,-853.62 770.95,-958.64 729.28,-1244.06 792,-1329.62 799.28,-1339.55 810.83,-1345.84 822.32,-1349.81"/>
<polygon fill="black" stroke="black" points="821.15,-1353.11 831.72,-1352.53 823.09,-1346.39 821.15,-1353.11"/>
</g>
<!-- wasm&#45;spec&#45;&gt;wasm -->
<g id="edge128" class="edge">
<title>wasm&#45;spec&#45;&gt;wasm</title>
<path fill="none" stroke="black" d="M756.32,-625.74C806.12,-611.57 884.39,-581.93 928.75,-527.62 986.85,-456.49 998.28,-342.67 1000.32,-289.19"/>
<polygon fill="black" stroke="black" points="1003.82,-289.45 1000.61,-279.35 996.82,-289.25 1003.82,-289.45"/>
</g>
<!-- wasm&#45;store&#45;&gt;json -->
<g id="edge129" class="edge">
<title>wasm&#45;store&#45;&gt;json</title>
<path fill="none" stroke="black" d="M627.09,-1001.17C666.97,-999.33 722.97,-1003.87 756,-1037.62 829.3,-1112.5 729.39,-1186.59 792,-1270.62 799.5,-1280.69 811,-1287.72 822.37,-1292.57"/>
<polygon fill="black" stroke="black" points="821.1,-1295.84 831.7,-1296.06 823.55,-1289.28 821.1,-1295.84"/>
</g>
<!-- wasm&#45;store&#45;&gt;store -->
<g id="edge130" class="edge">
<title>wasm&#45;store&#45;&gt;store</title>
<path fill="none" stroke="black" d="M617.88,-1024.88C621.17,-1027.49 624.21,-1030.4 626.75,-1033.62 684.32,-1106.42 701.4,-1219.52 706.38,-1272.86"/>
<polygon fill="black" stroke="black" points="702.88,-1273.01 707.21,-1282.68 709.86,-1272.42 702.88,-1273.01"/>
</g>
<!-- wasm&#45;store&#45;&gt;wasm -->
<g id="edge131" class="edge">
<title>wasm&#45;store&#45;&gt;wasm</title>
<path fill="none" stroke="black" d="M597.61,-988.29C607.99,-976.06 620.4,-959.07 626.75,-941.62 697.13,-748.06 595.49,-674.28 662.75,-479.62 687.17,-408.95 725.66,-407.94 756,-339.62 782.43,-280.11 740.62,-237.6 792,-197.62 839.97,-160.29 871.78,-176.44 928.75,-197.62 947.88,-204.73 965.33,-219.47 978.24,-232.8"/>
<polygon fill="black" stroke="black" points="975.66,-235.17 985.01,-240.15 980.81,-230.42 975.66,-235.17"/>
</g>
<!-- web&#45;kernel -->
<g id="node52" class="node">
<title>web&#45;kernel</title>
<polygon fill="none" stroke="black" points="496,-1116.62 404.25,-1116.62 404.25,-1080.62 496,-1080.62 496,-1116.62"/>
<text text-anchor="middle" x="450.12" y="-1094.32" font-family="sans-serif" font-size="14.00">web&#45;kernel</text>
</g>
<!-- web&#45;kernel&#45;&gt;kernel -->
<g id="edge132" class="edge">
<title>web&#45;kernel&#45;&gt;kernel</title>
<path fill="none" stroke="black" d="M496.35,-1085.11C510.41,-1080.91 525.79,-1076.32 539.39,-1072.26"/>
<polygon fill="black" stroke="black" points="540.3,-1075.64 548.88,-1069.43 538.29,-1068.93 540.3,-1075.64"/>
</g>
</g>
</svg>
