<?xml version="1.0" encoding="UTF-8" standalone="no"?>
<!DOCTYPE svg PUBLIC "-//W3C//DTD SVG 1.1//EN"
 "http://www.w3.org/Graphics/SVG/1.1/DTD/svg11.dtd">
<!-- Generated by graphviz version 12.2.1 (0)
 -->
<!-- Title: deps Pages: 1 -->
<svg width="1454pt" height="2372pt"
 viewBox="0.00 0.00 1453.50 2372.00" xmlns="http://www.w3.org/2000/svg" xmlns:xlink="http://www.w3.org/1999/xlink">
<g id="graph0" class="graph" transform="scale(1 1) rotate(0) translate(4 2368)">
<title>deps</title>
<polygon fill="white" stroke="none" points="-4,4 -4,-2368 1449.5,-2368 1449.5,4 -4,4"/>
<!-- covalence -->
<g id="node1" class="node">
<title>covalence</title>
<polygon fill="none" stroke="black" points="102.62,-1009 18.38,-1009 18.38,-973 102.62,-973 102.62,-1009"/>
<text text-anchor="middle" x="60.5" y="-986.7" font-family="sans-serif" font-size="14.00">covalence</text>
</g>
<!-- client -->
<g id="node5" class="node">
<title>client</title>
<polygon fill="none" stroke="black" points="350.12,-1034 296.12,-1034 296.12,-998 350.12,-998 350.12,-1034"/>
<text text-anchor="middle" x="323.12" y="-1011.7" font-family="sans-serif" font-size="14.00">client</text>
</g>
<!-- covalence&#45;&gt;client -->
<g id="edge1" class="edge">
<title>covalence&#45;&gt;client</title>
<path fill="none" stroke="black" d="M103.08,-994.99C153.14,-999.79 236.45,-1007.78 284.61,-1012.4"/>
<polygon fill="black" stroke="black" points="283.98,-1015.86 294.26,-1013.33 284.64,-1008.89 283.98,-1015.86"/>
</g>
<!-- fuse -->
<g id="node11" class="node">
<title>fuse</title>
<polygon fill="none" stroke="black" points="582.38,-676 528.38,-676 528.38,-640 582.38,-640 582.38,-676"/>
<text text-anchor="middle" x="555.38" y="-653.7" font-family="sans-serif" font-size="14.00">fuse</text>
</g>
<!-- covalence&#45;&gt;fuse -->
<g id="edge2" class="edge">
<title>covalence&#45;&gt;fuse</title>
<path fill="none" stroke="black" d="M68.72,-972.51C90.86,-918.4 163.27,-759.31 277.25,-682 350.16,-632.55 459.89,-641.39 516.93,-650.56"/>
<polygon fill="black" stroke="black" points="516.01,-653.95 526.45,-652.18 517.18,-647.05 516.01,-653.95"/>
</g>
<!-- git -->
<g id="node12" class="node">
<title>git</title>
<polygon fill="none" stroke="black" points="465.5,-546 411.5,-546 411.5,-510 465.5,-510 465.5,-546"/>
<text text-anchor="middle" x="438.5" y="-523.7" font-family="sans-serif" font-size="14.00">git</text>
</g>
<!-- covalence&#45;&gt;git -->
<g id="edge3" class="edge">
<title>covalence&#45;&gt;git</title>
<path fill="none" stroke="black" d="M61.92,-972.54C64.07,-918.25 77.21,-756.84 157,-659 173.6,-638.65 328.38,-573 400.65,-543.1"/>
<polygon fill="black" stroke="black" points="401.79,-546.41 409.7,-539.36 399.12,-539.94 401.79,-546.41"/>
</g>
<!-- hash -->
<g id="node15" class="node">
<title>hash</title>
<polygon fill="none" stroke="black" points="863.38,-798 809.38,-798 809.38,-762 863.38,-762 863.38,-798"/>
<text text-anchor="middle" x="836.38" y="-775.7" font-family="sans-serif" font-size="14.00">hash</text>
</g>
<!-- covalence&#45;&gt;hash -->
<g id="edge4" class="edge">
<title>covalence&#45;&gt;hash</title>
<path fill="none" stroke="black" d="M102.95,-989.76C240.75,-985.37 677.92,-969.01 732,-937 780.99,-908 811.22,-845.62 825.5,-808.82"/>
<polygon fill="black" stroke="black" points="828.69,-810.29 828.9,-799.7 822.13,-807.85 828.69,-810.29"/>
</g>
<!-- hol -->
<g id="node17" class="node">
<title>hol</title>
<polygon fill="none" stroke="black" points="863.38,-2064 809.38,-2064 809.38,-2028 863.38,-2028 863.38,-2064"/>
<text text-anchor="middle" x="836.38" y="-2041.7" font-family="sans-serif" font-size="14.00">hol</text>
</g>
<!-- covalence&#45;&gt;hol -->
<g id="edge5" class="edge">
<title>covalence&#45;&gt;hol</title>
<path fill="none" stroke="black" d="M103,-1002.66C110.05,-1006.45 116.53,-1011.44 121,-1018 164.25,-1081.43 145.03,-1632.17 157,-1708 201.34,-1988.82 37.82,-2326 322.12,-2326 322.12,-2326 322.12,-2326 556.38,-2326 627.16,-2326 765.04,-2144.17 815.91,-2073.57"/>
<polygon fill="black" stroke="black" points="818.64,-2075.77 821.62,-2065.6 812.95,-2071.69 818.64,-2075.77"/>
</g>
<!-- lsp -->
<g id="node28" class="node">
<title>lsp</title>
<polygon fill="none" stroke="black" points="863.38,-1080 809.38,-1080 809.38,-1044 863.38,-1044 863.38,-1080"/>
<text text-anchor="middle" x="836.38" y="-1057.7" font-family="sans-serif" font-size="14.00">lsp</text>
</g>
<!-- covalence&#45;&gt;lsp -->
<g id="edge6" class="edge">
<title>covalence&#45;&gt;lsp</title>
<path fill="none" stroke="black" d="M103.05,-1009.37C173.64,-1040.43 310.52,-1100 322.12,-1100 322.12,-1100 322.12,-1100 439.5,-1100 571.67,-1100 727.53,-1078.75 797.75,-1068.03"/>
<polygon fill="black" stroke="black" points="798.21,-1071.5 807.56,-1066.52 797.14,-1064.59 798.21,-1071.5"/>
</g>
<!-- object -->
<g id="node31" class="node">
<title>object</title>
<polygon fill="none" stroke="black" points="714,-928 656.75,-928 656.75,-892 714,-892 714,-928"/>
<text text-anchor="middle" x="685.38" y="-905.7" font-family="sans-serif" font-size="14.00">object</text>
</g>
<!-- covalence&#45;&gt;object -->
<g id="edge7" class="edge">
<title>covalence&#45;&gt;object</title>
<path fill="none" stroke="black" d="M103.06,-972.9C119.55,-966.48 138.87,-959.89 157,-956 351.2,-914.31 405.58,-947.93 602.75,-924 616.66,-922.31 631.81,-919.88 645.24,-917.52"/>
<polygon fill="black" stroke="black" points="645.81,-920.97 655.03,-915.74 644.57,-914.08 645.81,-920.97"/>
</g>
<!-- opentheory -->
<g id="node32" class="node">
<title>opentheory</title>
<polygon fill="none" stroke="black" points="368.62,-2063 277.62,-2063 277.62,-2027 368.62,-2027 368.62,-2063"/>
<text text-anchor="middle" x="323.12" y="-2040.7" font-family="sans-serif" font-size="14.00">opentheory</text>
</g>
<!-- covalence&#45;&gt;opentheory -->
<g id="edge8" class="edge">
<title>covalence&#45;&gt;opentheory</title>
<path fill="none" stroke="black" d="M102.86,-1002.75C109.92,-1006.54 116.44,-1011.5 121,-1018 179.14,-1100.84 141.68,-1371.96 157,-1472 193.3,-1709.05 163.65,-1786.81 277.25,-1998 281.22,-2005.38 286.66,-2012.43 292.39,-2018.72"/>
<polygon fill="black" stroke="black" points="289.71,-2021 299.2,-2025.71 294.73,-2016.11 289.71,-2021"/>
</g>
<!-- proto -->
<g id="node36" class="node">
<title>proto</title>
<polygon fill="none" stroke="black" points="350.12,-1354 296.12,-1354 296.12,-1318 350.12,-1318 350.12,-1354"/>
<text text-anchor="middle" x="323.12" y="-1331.7" font-family="sans-serif" font-size="14.00">proto</text>
</g>
<!-- covalence&#45;&gt;proto -->
<g id="edge9" class="edge">
<title>covalence&#45;&gt;proto</title>
<path fill="none" stroke="black" d="M102.86,-1003.14C109.83,-1006.88 116.31,-1011.73 121,-1018 190.3,-1110.75 84.16,-1186.01 157,-1276 188.22,-1314.57 246.43,-1328.35 284.73,-1333.27"/>
<polygon fill="black" stroke="black" points="284.1,-1336.72 294.43,-1334.36 284.88,-1329.76 284.1,-1336.72"/>
</g>
<!-- repl -->
<g id="node42" class="node">
<title>repl</title>
<polygon fill="none" stroke="black" points="350.12,-844 296.12,-844 296.12,-808 350.12,-808 350.12,-844"/>
<text text-anchor="middle" x="323.12" y="-821.7" font-family="sans-serif" font-size="14.00">repl</text>
</g>
<!-- covalence&#45;&gt;repl -->
<g id="edge10" class="edge">
<title>covalence&#45;&gt;repl</title>
<path fill="none" stroke="black" d="M83.6,-972.65C102.54,-957.28 130.82,-935.17 157,-918 199.77,-889.95 251.68,-861.95 285.74,-844.34"/>
<polygon fill="black" stroke="black" points="287.06,-847.59 294.36,-839.91 283.86,-841.36 287.06,-847.59"/>
</g>
<!-- serve -->
<g id="node45" class="node">
<title>serve</title>
<polygon fill="none" stroke="black" points="226.12,-1164 172.12,-1164 172.12,-1128 226.12,-1128 226.12,-1164"/>
<text text-anchor="middle" x="199.12" y="-1141.7" font-family="sans-serif" font-size="14.00">serve</text>
</g>
<!-- covalence&#45;&gt;serve -->
<g id="edge11" class="edge">
<title>covalence&#45;&gt;serve</title>
<path fill="none" stroke="black" d="M103.03,-1004.67C109.65,-1008.22 115.96,-1012.61 121,-1018 152.12,-1051.29 130,-1077.29 157,-1114 158.91,-1116.6 161.08,-1119.09 163.41,-1121.46"/>
<polygon fill="black" stroke="black" points="160.87,-1123.88 170.64,-1127.99 165.57,-1118.69 160.87,-1123.88"/>
</g>
<!-- shell -->
<g id="node47" class="node">
<title>shell</title>
<polygon fill="none" stroke="black" points="465.5,-1408 411.5,-1408 411.5,-1372 465.5,-1372 465.5,-1408"/>
<text text-anchor="middle" x="438.5" y="-1385.7" font-family="sans-serif" font-size="14.00">shell</text>
</g>
<!-- covalence&#45;&gt;shell -->
<g id="edge12" class="edge">
<title>covalence&#45;&gt;shell</title>
<path fill="none" stroke="black" d="M102.83,-1002.78C109.89,-1006.56 116.41,-1011.52 121,-1018 174.58,-1093.76 88.62,-1371.28 157,-1434 226.44,-1497.69 278.59,-1460.54 369,-1434 382.32,-1430.09 395.51,-1422.7 406.7,-1415.08"/>
<polygon fill="black" stroke="black" points="408.67,-1417.97 414.74,-1409.29 404.58,-1412.29 408.67,-1417.97"/>
</g>
<!-- store -->
<g id="node51" class="node">
<title>store</title>
<polygon fill="none" stroke="black" points="712.38,-373 658.38,-373 658.38,-337 712.38,-337 712.38,-373"/>
<text text-anchor="middle" x="685.38" y="-350.7" font-family="sans-serif" font-size="14.00">store</text>
</g>
<!-- covalence&#45;&gt;store -->
<g id="edge13" class="edge">
<title>covalence&#45;&gt;store</title>
<path fill="none" stroke="black" d="M63.25,-972.6C69.24,-915.89 92.21,-739.84 157,-611 194.92,-535.59 211.18,-516.53 277.25,-464 365.89,-393.54 397.23,-379.47 508,-356 554.96,-346.05 610.55,-347.91 646.59,-350.85"/>
<polygon fill="black" stroke="black" points="646.24,-354.33 656.52,-351.74 646.87,-347.36 646.24,-354.33"/>
</g>
<!-- wasm -->
<g id="node54" class="node">
<title>wasm</title>
<polygon fill="none" stroke="black" points="1004.75,-177 950.5,-177 950.5,-141 1004.75,-141 1004.75,-177"/>
<text text-anchor="middle" x="977.62" y="-154.7" font-family="sans-serif" font-size="14.00">wasm</text>
</g>
<!-- covalence&#45;&gt;wasm -->
<g id="edge14" class="edge">
<title>covalence&#45;&gt;wasm</title>
<path fill="none" stroke="black" d="M61.5,-972.61C62.2,-904.75 70.94,-663.37 157,-491 230.23,-344.34 287.34,-332.13 405,-218 448.22,-176.08 451.76,-151.49 508,-130 672.72,-67.06 731.73,-97.98 904.75,-132 916.42,-134.3 928.69,-138.27 939.72,-142.48"/>
<polygon fill="black" stroke="black" points="938.29,-145.67 948.87,-146.14 940.89,-139.18 938.29,-145.67"/>
</g>
<!-- acset -->
<g id="node2" class="node">
<title>acset</title>
<polygon fill="none" stroke="black" points="863.38,-1468 809.38,-1468 809.38,-1432 863.38,-1432 863.38,-1468"/>
<text text-anchor="middle" x="836.38" y="-1445.7" font-family="sans-serif" font-size="14.00">acset</text>
</g>
<!-- alethe -->
<g id="node3" class="node">
<title>alethe</title>
<polygon fill="none" stroke="black" points="583.62,-1774 527.12,-1774 527.12,-1738 583.62,-1738 583.62,-1774"/>
<text text-anchor="middle" x="555.38" y="-1751.7" font-family="sans-serif" font-size="14.00">alethe</text>
</g>
<!-- core -->
<g id="node6" class="node">
<title>core</title>
<polygon fill="#ffd6d6" stroke="black" points="1004.62,-2054 950.62,-2054 950.62,-2018 1004.62,-2018 1004.62,-2054"/>
<text text-anchor="middle" x="977.62" y="-2031.7" font-family="sans-serif" font-size="14.00">core</text>
</g>
<!-- alethe&#45;&gt;core -->
<g id="edge15" class="edge">
<title>alethe&#45;&gt;core</title>
<path fill="none" stroke="black" d="M583.97,-1767.81C656.74,-1799.29 851.88,-1885.92 904.75,-1932 929.32,-1953.41 949.57,-1984.97 962.24,-2007.71"/>
<polygon fill="black" stroke="black" points="959.13,-2009.3 966.96,-2016.44 965.28,-2005.98 959.13,-2009.3"/>
</g>
<!-- hol&#45;eval -->
<g id="node19" class="node">
<title>hol&#45;eval</title>
<polygon fill="none" stroke="black" points="871.38,-2194 801.38,-2194 801.38,-2158 871.38,-2158 871.38,-2194"/>
<text text-anchor="middle" x="836.38" y="-2171.7" font-family="sans-serif" font-size="14.00">hol&#45;eval</text>
</g>
<!-- alethe&#45;&gt;hol&#45;eval -->
<g id="edge16" class="edge">
<title>alethe&#45;&gt;hol&#45;eval</title>
<path fill="none" stroke="black" d="M568.54,-1774.32C612.6,-1840.63 763.95,-2068.48 816.91,-2148.2"/>
<polygon fill="black" stroke="black" points="813.86,-2149.93 822.31,-2156.33 819.69,-2146.06 813.86,-2149.93"/>
</g>
<!-- init -->
<g id="node21" class="node">
<title>init</title>
<polygon fill="none" stroke="black" points="712.38,-1728 658.38,-1728 658.38,-1692 712.38,-1692 712.38,-1728"/>
<text text-anchor="middle" x="685.38" y="-1705.7" font-family="sans-serif" font-size="14.00">init</text>
</g>
<!-- alethe&#45;&gt;init -->
<g id="edge17" class="edge">
<title>alethe&#45;&gt;init</title>
<path fill="none" stroke="black" d="M583.83,-1746.13C602.43,-1739.45 627.21,-1730.54 647.52,-1723.25"/>
<polygon fill="black" stroke="black" points="648.62,-1726.57 656.85,-1719.89 646.25,-1719.98 648.62,-1726.57"/>
</g>
<!-- sexp -->
<g id="node46" class="node">
<title>sexp</title>
<polygon fill="none" stroke="black" points="1004.62,-1327 950.62,-1327 950.62,-1291 1004.62,-1291 1004.62,-1327"/>
<text text-anchor="middle" x="977.62" y="-1304.7" font-family="sans-serif" font-size="14.00">sexp</text>
</g>
<!-- alethe&#45;&gt;sexp -->
<g id="edge18" class="edge">
<title>alethe&#45;&gt;sexp</title>
<path fill="none" stroke="black" d="M557.78,-1737.63C563.38,-1669.76 586.32,-1434.46 638.75,-1385 725.86,-1302.82 790.18,-1376.86 904.75,-1342 916.6,-1338.4 929.02,-1333.24 940.13,-1328.06"/>
<polygon fill="black" stroke="black" points="941.48,-1331.3 948.97,-1323.81 938.44,-1324.99 941.48,-1331.3"/>
</g>
<!-- smt -->
<g id="node48" class="node">
<title>smt</title>
<polygon fill="none" stroke="black" points="712.38,-1430 658.38,-1430 658.38,-1394 712.38,-1394 712.38,-1430"/>
<text text-anchor="middle" x="685.38" y="-1407.7" font-family="sans-serif" font-size="14.00">smt</text>
</g>
<!-- alethe&#45;&gt;smt -->
<g id="edge19" class="edge">
<title>alethe&#45;&gt;smt</title>
<path fill="none" stroke="black" d="M556.45,-1737.84C557.55,-1685.87 567.1,-1534.17 638.75,-1439 641.47,-1435.38 644.84,-1432.16 648.49,-1429.31"/>
<polygon fill="black" stroke="black" points="650.34,-1432.28 656.73,-1423.83 646.46,-1426.45 650.34,-1432.28"/>
</g>
<!-- types -->
<g id="node53" class="node">
<title>types</title>
<polygon fill="#ffd6d6" stroke="black" points="1445.5,-1937 1391.5,-1937 1391.5,-1901 1445.5,-1901 1445.5,-1937"/>
<text text-anchor="middle" x="1418.5" y="-1914.7" font-family="sans-serif" font-size="14.00">types</text>
</g>
<!-- alethe&#45;&gt;types -->
<g id="edge20" class="edge">
<title>alethe&#45;&gt;types</title>
<path fill="none" stroke="black" d="M583.83,-1760.21C650.8,-1770.11 827.91,-1794 976.62,-1794 976.62,-1794 976.62,-1794 1194.25,-1794 1266.71,-1794 1295.05,-1778.05 1355.5,-1818 1381.17,-1834.96 1398,-1866.57 1407.57,-1889.92"/>
<polygon fill="black" stroke="black" points="1404.28,-1891.14 1411.14,-1899.21 1410.82,-1888.62 1404.28,-1891.14"/>
</g>
<!-- arrow -->
<g id="node4" class="node">
<title>arrow</title>
<polygon fill="none" stroke="black" points="582.38,-844 528.38,-844 528.38,-808 582.38,-808 582.38,-844"/>
<text text-anchor="middle" x="555.38" y="-821.7" font-family="sans-serif" font-size="14.00">arrow</text>
</g>
<!-- client&#45;&gt;hash -->
<g id="edge21" class="edge">
<title>client&#45;&gt;hash</title>
<path fill="none" stroke="black" d="M350.55,-1023.57C419.9,-1041.77 610.17,-1080.76 732,-1000 797.97,-956.27 822.76,-858.55 831.3,-809.41"/>
<polygon fill="black" stroke="black" points="834.72,-810.22 832.86,-799.79 827.81,-809.11 834.72,-810.22"/>
</g>
<!-- client&#45;&gt;shell -->
<g id="edge22" class="edge">
<title>client&#45;&gt;shell</title>
<path fill="none" stroke="black" d="M328.53,-1034.22C342.36,-1091.18 385.2,-1265.31 405,-1320 410.04,-1333.93 416.8,-1348.89 422.84,-1361.39"/>
<polygon fill="black" stroke="black" points="419.67,-1362.88 427.24,-1370.3 425.95,-1359.78 419.67,-1362.88"/>
</g>
<!-- client&#45;&gt;store -->
<g id="edge23" class="edge">
<title>client&#45;&gt;store</title>
<path fill="none" stroke="black" d="M329.68,-997.5C341.41,-959.41 370.48,-869.84 405,-799 486.17,-632.4 614.82,-450.11 664.18,-382.35"/>
<polygon fill="black" stroke="black" points="666.9,-384.56 669.98,-374.42 661.25,-380.42 666.9,-384.56"/>
</g>
<!-- pure -->
<g id="node37" class="node">
<title>pure</title>
<polygon fill="#ffd6d6" stroke="black" points="1220.25,-2100 1166.25,-2100 1166.25,-2064 1220.25,-2064 1220.25,-2100"/>
<text text-anchor="middle" x="1193.25" y="-2077.7" font-family="sans-serif" font-size="14.00">pure</text>
</g>
<!-- core&#45;&gt;pure -->
<g id="edge24" class="edge">
<title>core&#45;&gt;pure</title>
<path fill="none" stroke="black" d="M1004.95,-2041.44C1035.21,-2047.72 1086.36,-2058.41 1130.25,-2068 1138.24,-2069.74 1146.79,-2071.65 1154.92,-2073.48"/>
<polygon fill="black" stroke="black" points="1154.02,-2076.87 1164.55,-2075.66 1155.56,-2070.04 1154.02,-2076.87"/>
</g>
<!-- pure&#45;eval -->
<g id="node38" class="node">
<title>pure&#45;eval</title>
<polygon fill="#ffd6d6" stroke="black" points="1130.25,-2146 1050.5,-2146 1050.5,-2110 1130.25,-2110 1130.25,-2146"/>
<text text-anchor="middle" x="1090.38" y="-2123.7" font-family="sans-serif" font-size="14.00">pure&#45;eval</text>
</g>
<!-- core&#45;&gt;pure&#45;eval -->
<g id="edge25" class="edge">
<title>core&#45;&gt;pure&#45;eval</title>
<path fill="none" stroke="black" d="M1000.77,-2054.4C1017.3,-2068.12 1040.08,-2087.05 1058.41,-2102.28"/>
<polygon fill="black" stroke="black" points="1056.17,-2104.97 1066.1,-2108.67 1060.65,-2099.59 1056.17,-2104.97"/>
</g>
<!-- core&#45;&gt;types -->
<g id="edge26" class="edge">
<title>core&#45;&gt;types</title>
<path fill="none" stroke="black" d="M1005.09,-2028.94C1079.94,-2008.99 1293.31,-1952.11 1380.1,-1928.97"/>
<polygon fill="black" stroke="black" points="1380.78,-1932.41 1389.54,-1926.45 1378.97,-1925.65 1380.78,-1932.41"/>
</g>
<!-- core&#45;test&#45;guest -->
<g id="node7" class="node">
<title>core&#45;test&#45;guest</title>
<polygon fill="none" stroke="black" points="121,-1063 0,-1063 0,-1027 121,-1027 121,-1063"/>
<text text-anchor="middle" x="60.5" y="-1040.7" font-family="sans-serif" font-size="14.00">core&#45;test&#45;guest</text>
</g>
<!-- crypto&#45;sig -->
<g id="node8" class="node">
<title>crypto&#45;sig</title>
<polygon fill="none" stroke="black" points="241.25,-36 157,-36 157,0 241.25,0 241.25,-36"/>
<text text-anchor="middle" x="199.12" y="-13.7" font-family="sans-serif" font-size="14.00">crypto&#45;sig</text>
</g>
<!-- egglog -->
<g id="node9" class="node">
<title>egglog</title>
<polygon fill="none" stroke="black" points="866.88,-1560 805.88,-1560 805.88,-1524 866.88,-1524 866.88,-1560"/>
<text text-anchor="middle" x="836.38" y="-1537.7" font-family="sans-serif" font-size="14.00">egglog</text>
</g>
<!-- egglog&#45;&gt;sexp -->
<g id="edge27" class="edge">
<title>egglog&#45;&gt;sexp</title>
<path fill="none" stroke="black" d="M867.08,-1533.62C880.15,-1528.62 894.76,-1521.04 904.75,-1510 949.42,-1460.62 966.8,-1381.53 973.18,-1338.77"/>
<polygon fill="black" stroke="black" points="976.63,-1339.36 974.53,-1328.98 969.7,-1338.41 976.63,-1339.36"/>
</g>
<!-- egglog&#45;&gt;types -->
<g id="edge28" class="edge">
<title>egglog&#45;&gt;types</title>
<path fill="none" stroke="black" d="M867.17,-1552.87C913.87,-1568.89 1007.43,-1597 1089.38,-1597 1089.38,-1597 1089.38,-1597 1194.25,-1597 1266.71,-1597 1302.82,-1571.26 1355.5,-1621 1394.28,-1657.62 1410.45,-1821.8 1415.56,-1889.58"/>
<polygon fill="black" stroke="black" points="1412.04,-1889.47 1416.25,-1899.19 1419.02,-1888.97 1412.04,-1889.47"/>
</g>
<!-- forsp -->
<g id="node10" class="node">
<title>forsp</title>
<polygon fill="none" stroke="black" points="465.5,-1217 411.5,-1217 411.5,-1181 465.5,-1181 465.5,-1217"/>
<text text-anchor="middle" x="438.5" y="-1194.7" font-family="sans-serif" font-size="14.00">forsp</text>
</g>
<!-- forsp&#45;&gt;hash -->
<g id="edge29" class="edge">
<title>forsp&#45;&gt;hash</title>
<path fill="none" stroke="black" d="M465.6,-1191.32C521.89,-1173.51 655.75,-1124.17 732,-1038 792.52,-969.61 820.05,-861.33 830.3,-809.52"/>
<polygon fill="black" stroke="black" points="833.69,-810.45 832.1,-799.97 826.81,-809.15 833.69,-810.45"/>
</g>
<!-- repl&#45;core -->
<g id="node43" class="node">
<title>repl&#45;core</title>
<polygon fill="none" stroke="black" points="594.5,-1316 516.25,-1316 516.25,-1280 594.5,-1280 594.5,-1316"/>
<text text-anchor="middle" x="555.38" y="-1293.7" font-family="sans-serif" font-size="14.00">repl&#45;core</text>
</g>
<!-- forsp&#45;&gt;repl&#45;core -->
<g id="edge30" class="edge">
<title>forsp&#45;&gt;repl&#45;core</title>
<path fill="none" stroke="black" d="M460.84,-1217.39C478.73,-1232.81 504.48,-1255 524.44,-1272.2"/>
<polygon fill="black" stroke="black" points="522.14,-1274.84 532,-1278.72 526.71,-1269.54 522.14,-1274.84"/>
</g>
<!-- forsp&#45;&gt;sexp -->
<g id="edge31" class="edge">
<title>forsp&#45;&gt;sexp</title>
<path fill="none" stroke="black" d="M465.99,-1198.88C552.51,-1198.83 825.78,-1201.65 904.75,-1238 925.66,-1247.63 944.02,-1266.04 956.95,-1281.71"/>
<polygon fill="black" stroke="black" points="954.03,-1283.66 962.98,-1289.34 959.53,-1279.32 954.03,-1283.66"/>
</g>
<!-- fuse&#45;&gt;hash -->
<g id="edge32" class="edge">
<title>fuse&#45;&gt;hash</title>
<path fill="none" stroke="black" d="M582.86,-667.73C617.5,-680.65 679.91,-704.57 732,-728 754.52,-738.13 779.24,-750.52 798.87,-760.66"/>
<polygon fill="black" stroke="black" points="797.08,-763.68 807.57,-765.19 800.31,-757.47 797.08,-763.68"/>
</g>
<!-- fuse&#45;&gt;object -->
<g id="edge33" class="edge">
<title>fuse&#45;&gt;object</title>
<path fill="none" stroke="black" d="M582.77,-672.15C590.01,-677.03 597.35,-683.05 602.75,-690 648.34,-748.62 670.39,-835.3 679.31,-880.36"/>
<polygon fill="black" stroke="black" points="675.87,-880.99 681.16,-890.17 682.74,-879.69 675.87,-880.99"/>
</g>
<!-- fuse&#45;&gt;store -->
<g id="edge34" class="edge">
<title>fuse&#45;&gt;store</title>
<path fill="none" stroke="black" d="M562.18,-639.52C577.42,-591.34 618.77,-462.92 638.75,-423 645.78,-408.96 655.24,-394.37 663.72,-382.33"/>
<polygon fill="black" stroke="black" points="666.35,-384.66 669.36,-374.5 660.68,-380.56 666.35,-384.66"/>
</g>
<!-- git&#45;&gt;hash -->
<g id="edge35" class="edge">
<title>git&#45;&gt;hash</title>
<path fill="none" stroke="black" d="M465.86,-532.22C520.38,-542.03 647.48,-570.61 732,-635 773.32,-666.48 804.93,-719.09 821.78,-751.54"/>
<polygon fill="black" stroke="black" points="818.6,-753.02 826.23,-760.36 824.85,-749.86 818.6,-753.02"/>
</g>
<!-- git&#45;&gt;object -->
<g id="edge36" class="edge">
<title>git&#45;&gt;object</title>
<path fill="none" stroke="black" d="M464.9,-546.33C467.56,-549.01 470.01,-551.92 472,-555 504.55,-605.35 480.22,-631.87 508,-685 538.53,-743.38 562.16,-747.11 602.75,-799 624.57,-826.9 648.46,-859.67 664.72,-882.33"/>
<polygon fill="black" stroke="black" points="661.87,-884.35 670.53,-890.45 667.56,-880.28 661.87,-884.35"/>
</g>
<!-- sqlite -->
<g id="node50" class="node">
<title>sqlite</title>
<polygon fill="none" stroke="black" points="863.38,-373 809.38,-373 809.38,-337 863.38,-337 863.38,-373"/>
<text text-anchor="middle" x="836.38" y="-350.7" font-family="sans-serif" font-size="14.00">sqlite</text>
</g>
<!-- git&#45;&gt;sqlite -->
<g id="edge37" class="edge">
<title>git&#45;&gt;sqlite</title>
<path fill="none" stroke="black" d="M465.94,-512.42C503.52,-490.67 574.92,-450.74 638.75,-423 694.53,-398.75 710.5,-397.83 768,-378 777.85,-374.6 788.51,-370.95 798.39,-367.58"/>
<polygon fill="black" stroke="black" points="799.36,-370.95 807.69,-364.41 797.1,-364.32 799.36,-370.95"/>
</g>
<!-- git&#45;&gt;store -->
<g id="edge38" class="edge">
<title>git&#45;&gt;store</title>
<path fill="none" stroke="black" d="M451.64,-509.55C464.13,-491.61 484.98,-464.44 508,-446 551.31,-411.29 609.96,-384.23 647.49,-368.93"/>
<polygon fill="black" stroke="black" points="648.56,-372.28 656.54,-365.32 645.96,-365.78 648.56,-372.28"/>
</g>
<!-- grammar -->
<g id="node13" class="node">
<title>grammar</title>
<polygon fill="none" stroke="black" points="1014.5,-1709 940.75,-1709 940.75,-1673 1014.5,-1673 1014.5,-1709"/>
<text text-anchor="middle" x="977.62" y="-1686.7" font-family="sans-serif" font-size="14.00">grammar</text>
</g>
<!-- graph -->
<g id="node14" class="node">
<title>graph</title>
<polygon fill="none" stroke="black" points="465.5,-600 411.5,-600 411.5,-564 465.5,-564 465.5,-600"/>
<text text-anchor="middle" x="438.5" y="-577.7" font-family="sans-serif" font-size="14.00">graph</text>
</g>
<!-- graph&#45;&gt;hash -->
<g id="edge39" class="edge">
<title>graph&#45;&gt;hash</title>
<path fill="none" stroke="black" d="M465.93,-587.15C519.49,-598.47 643.3,-629.13 732,-686 761.84,-705.13 791.3,-733.05 811.08,-753.49"/>
<polygon fill="black" stroke="black" points="808.47,-755.82 817.9,-760.65 813.54,-750.99 808.47,-755.82"/>
</g>
<!-- parse -->
<g id="node34" class="node">
<title>parse</title>
<polygon fill="none" stroke="black" points="1117.38,-1029 1063.38,-1029 1063.38,-993 1117.38,-993 1117.38,-1029"/>
<text text-anchor="middle" x="1090.38" y="-1006.7" font-family="sans-serif" font-size="14.00">parse</text>
</g>
<!-- graph&#45;&gt;parse -->
<g id="edge40" class="edge">
<title>graph&#45;&gt;parse</title>
<path fill="none" stroke="black" d="M465.65,-573.78C510.11,-560.54 603.49,-536 684.38,-536 684.38,-536 684.38,-536 837.38,-536 1039.88,-536 1080.14,-877.08 1087.71,-981.19"/>
<polygon fill="black" stroke="black" points="1084.22,-981.42 1088.38,-991.16 1091.2,-980.95 1084.22,-981.42"/>
</g>
<!-- rand -->
<g id="node41" class="node">
<title>rand</title>
<polygon fill="none" stroke="black" points="1004.62,-798 950.62,-798 950.62,-762 1004.62,-762 1004.62,-798"/>
<text text-anchor="middle" x="977.62" y="-775.7" font-family="sans-serif" font-size="14.00">rand</text>
</g>
<!-- hash&#45;&gt;rand -->
<g id="edge41" class="edge">
<title>hash&#45;&gt;rand</title>
<path fill="none" stroke="black" d="M863.57,-780C884.86,-780 915.19,-780 939.07,-780"/>
<polygon fill="black" stroke="black" points="939.04,-783.5 949.04,-780 939.04,-776.5 939.04,-783.5"/>
</g>
<!-- haskell -->
<g id="node16" class="node">
<title>haskell</title>
<polygon fill="none" stroke="black" points="469.75,-2124 407.25,-2124 407.25,-2088 469.75,-2088 469.75,-2124"/>
<text text-anchor="middle" x="438.5" y="-2101.7" font-family="sans-serif" font-size="14.00">haskell</text>
</g>
<!-- hol&#45;api -->
<g id="node18" class="node">
<title>hol&#45;api</title>
<polygon fill="none" stroke="black" points="586.62,-2124 524.12,-2124 524.12,-2088 586.62,-2088 586.62,-2124"/>
<text text-anchor="middle" x="555.38" y="-2101.7" font-family="sans-serif" font-size="14.00">hol&#45;api</text>
</g>
<!-- haskell&#45;&gt;hol&#45;api -->
<g id="edge42" class="edge">
<title>haskell&#45;&gt;hol&#45;api</title>
<path fill="none" stroke="black" d="M469.98,-2106C482.97,-2106 498.32,-2106 512.36,-2106"/>
<polygon fill="black" stroke="black" points="512.24,-2109.5 522.24,-2106 512.24,-2102.5 512.24,-2109.5"/>
</g>
<!-- haskell&#45;&gt;hol&#45;eval -->
<g id="edge43" class="edge">
<title>haskell&#45;&gt;hol&#45;eval</title>
<path fill="none" stroke="black" d="M470,-2118.61C481.79,-2123.34 495.45,-2128.61 508,-2133 565.37,-2153.05 578.72,-2163.55 638.75,-2173 690.01,-2181.07 749.72,-2180.61 789.77,-2178.91"/>
<polygon fill="black" stroke="black" points="789.69,-2182.42 799.51,-2178.45 789.36,-2175.43 789.69,-2182.42"/>
</g>
<!-- haskell&#45;&gt;init -->
<g id="edge44" class="edge">
<title>haskell&#45;&gt;init</title>
<path fill="none" stroke="black" d="M440.04,-2087.76C442.45,-2019.24 454.66,-1778.61 508,-1729 544.97,-1694.62 606.91,-1696.48 646.69,-1702.26"/>
<polygon fill="black" stroke="black" points="646.1,-1705.71 656.53,-1703.86 647.22,-1698.8 646.1,-1705.71"/>
</g>
<!-- haskell&#45;&gt;types -->
<g id="edge45" class="edge">
<title>haskell&#45;&gt;types</title>
<path fill="none" stroke="black" d="M453.46,-2124.14C500.39,-2182.87 659.41,-2364 835.38,-2364 835.38,-2364 835.38,-2364 1194.25,-2364 1283.85,-2364 1308.05,-2319.01 1355.5,-2243 1386.32,-2193.63 1407.28,-2018.43 1414.61,-1948.32"/>
<polygon fill="black" stroke="black" points="1418.05,-1949.06 1415.59,-1938.76 1411.09,-1948.35 1418.05,-1949.06"/>
</g>
<!-- hol&#45;&gt;core -->
<g id="edge46" class="edge">
<title>hol&#45;&gt;core</title>
<path fill="none" stroke="black" d="M863.57,-2044.12C884.86,-2042.59 915.19,-2040.41 939.07,-2038.7"/>
<polygon fill="black" stroke="black" points="939.32,-2042.19 949.04,-2037.98 938.82,-2035.21 939.32,-2042.19"/>
</g>
<!-- hol&#45;api&#45;&gt;core -->
<g id="edge47" class="edge">
<title>hol&#45;api&#45;&gt;core</title>
<path fill="none" stroke="black" d="M586.87,-2113.72C649.49,-2127.96 795.85,-2152.84 904.75,-2106 926.12,-2096.81 924.05,-2084.2 940.75,-2068 942.79,-2066.02 944.93,-2063.99 947.1,-2061.98"/>
<polygon fill="black" stroke="black" points="949.34,-2064.67 954.37,-2055.34 944.62,-2059.5 949.34,-2064.67"/>
</g>
<!-- hol&#45;api&#45;&gt;hol&#45;eval -->
<g id="edge48" class="edge">
<title>hol&#45;api&#45;&gt;hol&#45;eval</title>
<path fill="none" stroke="black" d="M584.6,-2124.35C600.01,-2133.5 619.76,-2143.9 638.75,-2150 688.87,-2166.11 749.27,-2172.25 789.78,-2174.59"/>
<polygon fill="black" stroke="black" points="789.49,-2178.08 799.66,-2175.09 789.85,-2171.08 789.49,-2178.08"/>
</g>
<!-- inductive -->
<g id="node20" class="node">
<title>inductive</title>
<polygon fill="none" stroke="black" points="874.75,-2010 798,-2010 798,-1974 874.75,-1974 874.75,-2010"/>
<text text-anchor="middle" x="836.38" y="-1987.7" font-family="sans-serif" font-size="14.00">inductive</text>
</g>
<!-- hol&#45;api&#45;&gt;inductive -->
<g id="edge49" class="edge">
<title>hol&#45;api&#45;&gt;inductive</title>
<path fill="none" stroke="black" d="M586.83,-2093.38C627.92,-2076.38 703.4,-2045.22 768,-2019 774.13,-2016.51 780.59,-2013.91 786.97,-2011.34"/>
<polygon fill="black" stroke="black" points="788.2,-2014.62 796.17,-2007.64 785.59,-2008.12 788.2,-2014.62"/>
</g>
<!-- hol&#45;api&#45;&gt;init -->
<g id="edge50" class="edge">
<title>hol&#45;api&#45;&gt;init</title>
<path fill="none" stroke="black" d="M562.29,-2087.69C582.68,-2024.61 650.14,-1815.93 675.03,-1738.9"/>
<polygon fill="black" stroke="black" points="678.31,-1740.14 678.06,-1729.55 671.65,-1737.99 678.31,-1740.14"/>
</g>
<!-- hol&#45;api&#45;&gt;pure -->
<g id="edge51" class="edge">
<title>hol&#45;api&#45;&gt;pure</title>
<path fill="none" stroke="black" d="M573.96,-2124.39C589.58,-2139.65 613.75,-2160.76 638.75,-2173 691.71,-2198.94 709.41,-2196.29 768,-2203 929.35,-2221.48 990.8,-2238.25 1130.25,-2155 1148.81,-2143.92 1164.51,-2125.26 1175.47,-2109.59"/>
<polygon fill="black" stroke="black" points="1178.18,-2111.82 1180.82,-2101.56 1172.36,-2107.94 1178.18,-2111.82"/>
</g>
<!-- hol&#45;api&#45;&gt;types -->
<g id="edge52" class="edge">
<title>hol&#45;api&#45;&gt;types</title>
<path fill="none" stroke="black" d="M568.75,-2124.38C583.43,-2145.03 609.6,-2178.48 638.75,-2200 715.77,-2256.87 739.63,-2288 835.38,-2288 835.38,-2288 835.38,-2288 1194.25,-2288 1280.51,-2288 1306.3,-2250.85 1355.5,-2180 1405.67,-2107.75 1415.56,-2000.05 1417.3,-1948.53"/>
<polygon fill="black" stroke="black" points="1420.79,-1948.87 1417.54,-1938.78 1413.79,-1948.7 1420.79,-1948.87"/>
</g>
<!-- hol&#45;eval&#45;&gt;core -->
<g id="edge53" class="edge">
<title>hol&#45;eval&#45;&gt;core</title>
<path fill="none" stroke="black" d="M871.74,-2165.04C883.32,-2160.05 895.6,-2153.16 904.75,-2144 931.16,-2117.56 918.36,-2097.93 940.75,-2068 942.21,-2066.05 943.81,-2064.12 945.49,-2062.24"/>
<polygon fill="black" stroke="black" points="947.66,-2065.03 952.18,-2055.45 942.67,-2060.12 947.66,-2065.03"/>
</g>
<!-- hol&#45;eval&#45;&gt;pure -->
<g id="edge54" class="edge">
<title>hol&#45;eval&#45;&gt;pure</title>
<path fill="none" stroke="black" d="M871.79,-2161.42C913.38,-2144.38 985.85,-2116.53 1050.5,-2101 1085.3,-2092.64 1125.85,-2087.67 1154.64,-2084.92"/>
<polygon fill="black" stroke="black" points="1154.68,-2088.43 1164.32,-2084.05 1154.05,-2081.46 1154.68,-2088.43"/>
</g>
<!-- hol&#45;eval&#45;&gt;pure&#45;eval -->
<g id="edge55" class="edge">
<title>hol&#45;eval&#45;&gt;pure&#45;eval</title>
<path fill="none" stroke="black" d="M871.62,-2169.48C914.82,-2161.25 989.44,-2147.03 1039.11,-2137.57"/>
<polygon fill="black" stroke="black" points="1039.58,-2141.05 1048.75,-2135.74 1038.27,-2134.17 1039.58,-2141.05"/>
</g>
<!-- hol&#45;eval&#45;&gt;sexp -->
<g id="edge56" class="edge">
<title>hol&#45;eval&#45;&gt;sexp</title>
<path fill="none" stroke="black" d="M853.37,-2157.77C869.45,-2138.27 893.42,-2105.71 904.75,-2073 964.49,-1900.58 923.58,-1845.67 940.75,-1664 952.15,-1543.42 967.06,-1399.94 973.47,-1338.88"/>
<polygon fill="black" stroke="black" points="976.95,-1339.29 974.52,-1328.98 969.99,-1338.55 976.95,-1339.29"/>
</g>
<!-- hol&#45;eval&#45;&gt;types -->
<g id="edge57" class="edge">
<title>hol&#45;eval&#45;&gt;types</title>
<path fill="none" stroke="black" d="M871.8,-2184.08C920.12,-2194.69 1010.93,-2212 1089.38,-2212 1089.38,-2212 1089.38,-2212 1194.25,-2212 1275.06,-2212 1304.1,-2190.35 1355.5,-2128 1399.07,-2075.15 1412.02,-1992.57 1415.87,-1948.71"/>
<polygon fill="black" stroke="black" points="1419.35,-1949.17 1416.62,-1938.93 1412.37,-1948.63 1419.35,-1949.17"/>
</g>
<!-- init&#45;&gt;core -->
<g id="edge58" class="edge">
<title>init&#45;&gt;core</title>
<path fill="none" stroke="black" d="M710.61,-1728.42C760.89,-1766.94 874.36,-1855.61 904.75,-1894 932.58,-1929.16 954.01,-1976.8 965.97,-2006.97"/>
<polygon fill="black" stroke="black" points="962.67,-2008.14 969.54,-2016.2 969.2,-2005.62 962.67,-2008.14"/>
</g>
<!-- init&#45;&gt;grammar -->
<g id="edge59" class="edge">
<title>init&#45;&gt;grammar</title>
<path fill="none" stroke="black" d="M712.63,-1709.19C753.67,-1707.81 835.51,-1704.59 904.75,-1699 912.66,-1698.36 921.05,-1697.55 929.19,-1696.69"/>
<polygon fill="black" stroke="black" points="929.41,-1700.19 938.97,-1695.62 928.64,-1693.23 929.41,-1700.19"/>
</g>
<!-- init&#45;&gt;hash -->
<g id="edge60" class="edge">
<title>init&#45;&gt;hash</title>
<path fill="none" stroke="black" d="M691.09,-1691.57C700.43,-1654.32 721.31,-1567.31 732,-1493 761.07,-1290.9 733.78,-1236.3 768,-1035 782.15,-951.77 810.86,-856.16 825.83,-809.17"/>
<polygon fill="black" stroke="black" points="829.13,-810.34 828.85,-799.75 822.46,-808.2 829.13,-810.34"/>
</g>
<!-- init&#45;&gt;hol -->
<g id="edge61" class="edge">
<title>init&#45;&gt;hol</title>
<path fill="none" stroke="black" d="M692.65,-1728.29C701.95,-1755.8 719.64,-1809.55 732,-1856 751.08,-1927.69 720.01,-1962.42 768,-2019 775.76,-2028.15 787.08,-2034.23 798.23,-2038.26"/>
<polygon fill="black" stroke="black" points="797.15,-2041.59 807.73,-2041.19 799.21,-2034.9 797.15,-2041.59"/>
</g>
<!-- init&#45;&gt;hol&#45;eval -->
<g id="edge62" class="edge">
<title>init&#45;&gt;hol&#45;eval</title>
<path fill="none" stroke="black" d="M692.96,-1728.21C702.67,-1755.62 720.87,-1809.24 732,-1856 754.63,-1951.11 732.48,-1981.92 768,-2073 778.81,-2100.72 797.79,-2128.75 812.85,-2148.56"/>
<polygon fill="black" stroke="black" points="810.05,-2150.65 818.95,-2156.39 815.57,-2146.35 810.05,-2150.65"/>
</g>
<!-- init&#45;&gt;inductive -->
<g id="edge63" class="edge">
<title>init&#45;&gt;inductive</title>
<path fill="none" stroke="black" d="M694.14,-1728.39C707.9,-1760.52 737.95,-1828.75 768,-1884 783.22,-1911.99 802.67,-1942.7 816.75,-1964.2"/>
<polygon fill="black" stroke="black" points="813.74,-1965.99 822.17,-1972.41 819.58,-1962.13 813.74,-1965.99"/>
</g>
<!-- metamath -->
<g id="node29" class="node">
<title>metamath</title>
<polygon fill="none" stroke="black" points="876.62,-1186 796.12,-1186 796.12,-1150 876.62,-1150 876.62,-1186"/>
<text text-anchor="middle" x="836.38" y="-1163.7" font-family="sans-serif" font-size="14.00">metamath</text>
</g>
<!-- init&#45;&gt;metamath -->
<g id="edge64" class="edge">
<title>init&#45;&gt;metamath</title>
<path fill="none" stroke="black" d="M691.42,-1691.66C713.33,-1611.96 800.35,-1295.39 827.35,-1197.2"/>
<polygon fill="black" stroke="black" points="830.66,-1198.37 829.93,-1187.8 823.91,-1196.51 830.66,-1198.37"/>
</g>
<!-- init&#45;&gt;sexp -->
<g id="edge65" class="edge">
<title>init&#45;&gt;sexp</title>
<path fill="none" stroke="black" d="M688.7,-1691.62C694.57,-1652.97 713.64,-1562.94 768,-1515 815.31,-1473.28 857.28,-1518.54 904.75,-1477 946.22,-1440.72 964.51,-1376.32 971.97,-1338.67"/>
<polygon fill="black" stroke="black" points="975.4,-1339.42 973.76,-1328.95 968.51,-1338.15 975.4,-1339.42"/>
</g>
<!-- spectec -->
<g id="node49" class="node">
<title>spectec</title>
<polygon fill="none" stroke="black" points="871,-1690 801.75,-1690 801.75,-1654 871,-1654 871,-1690"/>
<text text-anchor="middle" x="836.38" y="-1667.7" font-family="sans-serif" font-size="14.00">spectec</text>
</g>
<!-- init&#45;&gt;spectec -->
<g id="edge66" class="edge">
<title>init&#45;&gt;spectec</title>
<path fill="none" stroke="black" d="M712.67,-1703.29C734.21,-1697.8 765.18,-1689.9 790.61,-1683.42"/>
<polygon fill="black" stroke="black" points="791.2,-1686.88 800.02,-1681.02 789.47,-1680.1 791.2,-1686.88"/>
</g>
<!-- init&#45;&gt;types -->
<g id="edge67" class="edge">
<title>init&#45;&gt;types</title>
<path fill="none" stroke="black" d="M712.57,-1716.99C763.19,-1729.85 878.16,-1756 976.62,-1756 976.62,-1756 976.62,-1756 1194.25,-1756 1266.71,-1756 1297.8,-1736.18 1355.5,-1780 1390.55,-1806.62 1406.23,-1857.43 1412.92,-1889.69"/>
<polygon fill="black" stroke="black" points="1409.41,-1890 1414.71,-1899.18 1416.29,-1888.7 1409.41,-1890"/>
</g>
<!-- json -->
<g id="node22" class="node">
<title>json</title>
<polygon fill="none" stroke="black" points="863.38,-280 809.38,-280 809.38,-244 863.38,-244 863.38,-280"/>
<text text-anchor="middle" x="836.38" y="-257.7" font-family="sans-serif" font-size="14.00">json</text>
</g>
<!-- kernel -->
<g id="node23" class="node">
<title>kernel</title>
<polygon fill="none" stroke="black" points="584,-1370 526.75,-1370 526.75,-1334 584,-1334 584,-1370"/>
<text text-anchor="middle" x="555.38" y="-1347.7" font-family="sans-serif" font-size="14.00">kernel</text>
</g>
<!-- kernel&#45;&gt;hash -->
<g id="edge68" class="edge">
<title>kernel&#45;&gt;hash</title>
<path fill="none" stroke="black" d="M584.44,-1338.65C590.89,-1334.8 597.42,-1330.21 602.75,-1325 622.41,-1305.78 720.67,-1139.05 732,-1114 780.81,-1006.13 815.25,-868.73 828.89,-809.43"/>
<polygon fill="black" stroke="black" points="832.27,-810.32 831.07,-799.8 825.45,-808.77 832.27,-810.32"/>
</g>
<!-- kernel&#45;&gt;init -->
<g id="edge69" class="edge">
<title>kernel&#45;&gt;init</title>
<path fill="none" stroke="black" d="M584.23,-1366.45C591.15,-1371.21 597.96,-1377.09 602.75,-1384 619.9,-1408.75 662.48,-1605.61 678.31,-1680.88"/>
<polygon fill="black" stroke="black" points="674.83,-1681.32 680.31,-1690.39 681.68,-1679.88 674.83,-1681.32"/>
</g>
<!-- kernel&#45;&gt;object -->
<g id="edge70" class="edge">
<title>kernel&#45;&gt;object</title>
<path fill="none" stroke="black" d="M584.49,-1340.78C591.42,-1336.77 598.16,-1331.57 602.75,-1325 654.77,-1250.63 621.29,-1213.06 638.75,-1124 651.72,-1057.84 668.64,-980.56 677.79,-939.37"/>
<polygon fill="black" stroke="black" points="681.18,-940.28 679.94,-929.76 674.34,-938.76 681.18,-940.28"/>
</g>
<!-- kernel&#45;&gt;sexp -->
<g id="edge71" class="edge">
<title>kernel&#45;&gt;sexp</title>
<path fill="none" stroke="black" d="M584.3,-1335.56C599.78,-1327.38 619.71,-1318.33 638.75,-1314 745.43,-1289.75 875.98,-1298.18 939.01,-1304.54"/>
<polygon fill="black" stroke="black" points="938.51,-1308.01 948.83,-1305.58 939.25,-1301.05 938.51,-1308.01"/>
</g>
<!-- kernel&#45;&gt;store -->
<g id="edge72" class="edge">
<title>kernel&#45;&gt;store</title>
<path fill="none" stroke="black" d="M584.13,-1341.73C591.41,-1337.65 598.43,-1332.18 602.75,-1325 654.47,-1239.06 607.63,-518.35 638.75,-423 643.52,-408.39 652.39,-393.99 661.06,-382.24"/>
<polygon fill="black" stroke="black" points="663.6,-384.67 666.96,-374.61 658.07,-380.38 663.6,-384.67"/>
</g>
<!-- kv -->
<g id="node24" class="node">
<title>kv</title>
<polygon fill="none" stroke="black" points="226.12,-128 172.12,-128 172.12,-92 226.12,-92 226.12,-128"/>
<text text-anchor="middle" x="199.12" y="-105.7" font-family="sans-serif" font-size="14.00">kv</text>
</g>
<!-- lean -->
<g id="node25" class="node">
<title>lean</title>
<polygon fill="none" stroke="black" points="87.5,-1117 33.5,-1117 33.5,-1081 87.5,-1081 87.5,-1117"/>
<text text-anchor="middle" x="60.5" y="-1094.7" font-family="sans-serif" font-size="14.00">lean</text>
</g>
<!-- lisp -->
<g id="node26" class="node">
<title>lisp</title>
<polygon fill="none" stroke="black" points="465.5,-1774 411.5,-1774 411.5,-1738 465.5,-1738 465.5,-1774"/>
<text text-anchor="middle" x="438.5" y="-1751.7" font-family="sans-serif" font-size="14.00">lisp</text>
</g>
<!-- lisp&#45;&gt;core -->
<g id="edge73" class="edge">
<title>lisp&#45;&gt;core</title>
<path fill="none" stroke="black" d="M447.56,-1774.45C458.21,-1796.64 479.04,-1833.47 508,-1854 657.37,-1959.91 746.4,-1873.06 904.75,-1965 924.28,-1976.34 942.34,-1994.23 955.47,-2009.21"/>
<polygon fill="black" stroke="black" points="952.5,-2011.11 961.63,-2016.47 957.83,-2006.58 952.5,-2011.11"/>
</g>
<!-- lisp&#45;&gt;hol&#45;api -->
<g id="edge74" class="edge">
<title>lisp&#45;&gt;hol&#45;api</title>
<path fill="none" stroke="black" d="M443.86,-1774.47C453.68,-1815.3 478.96,-1916.1 508,-1998 517.7,-2025.35 530.93,-2055.64 540.78,-2077.17"/>
<polygon fill="black" stroke="black" points="537.58,-2078.58 544.95,-2086.19 543.93,-2075.64 537.58,-2078.58"/>
</g>
<!-- lisp&#45;&gt;hol&#45;eval -->
<g id="edge75" class="edge">
<title>lisp&#45;&gt;hol&#45;eval</title>
<path fill="none" stroke="black" d="M444.04,-1774.42C455.21,-1818.73 484.82,-1929.87 508,-1960 584.52,-2059.46 720.52,-2127.66 790.71,-2158.06"/>
<polygon fill="black" stroke="black" points="789.02,-2161.15 799.59,-2161.85 791.77,-2154.71 789.02,-2161.15"/>
</g>
<!-- lisp&#45;&gt;init -->
<g id="edge76" class="edge">
<title>lisp&#45;&gt;init</title>
<path fill="none" stroke="black" d="M453.84,-1737.66C466.36,-1723.26 485.95,-1704.29 508,-1696 553.73,-1678.8 610.71,-1688.38 647.32,-1698.1"/>
<polygon fill="black" stroke="black" points="645.96,-1701.35 656.53,-1700.68 647.85,-1694.61 645.96,-1701.35"/>
</g>
<!-- lisp&#45;&gt;repl&#45;core -->
<g id="edge77" class="edge">
<title>lisp&#45;&gt;repl&#45;core</title>
<path fill="none" stroke="black" d="M440.34,-1737.91C444.01,-1665.09 460.69,-1394.07 508,-1325 508.07,-1324.9 508.14,-1324.8 508.21,-1324.7"/>
<polygon fill="black" stroke="black" points="510.73,-1327.12 514.94,-1317.4 505.59,-1322.38 510.73,-1327.12"/>
</g>
<!-- lisp&#45;&gt;sexp -->
<g id="edge78" class="edge">
<title>lisp&#45;&gt;sexp</title>
<path fill="none" stroke="black" d="M445.6,-1737.73C470.5,-1664.34 566.49,-1392.48 638.75,-1342 650.92,-1333.5 853.3,-1317.93 938.89,-1311.69"/>
<polygon fill="black" stroke="black" points="938.93,-1315.2 948.65,-1310.98 938.42,-1308.22 938.93,-1315.2"/>
</g>
<!-- lisp&#45;&gt;types -->
<g id="edge79" class="edge">
<title>lisp&#45;&gt;types</title>
<path fill="none" stroke="black" d="M465.7,-1767.95C478.27,-1773.26 493.68,-1779.16 508,-1783 650.1,-1821.11 688.25,-1832 835.38,-1832 835.38,-1832 835.38,-1832 1194.25,-1832 1264.34,-1832 1338.88,-1869.69 1381.64,-1895.45"/>
<polygon fill="black" stroke="black" points="1379.66,-1898.34 1390.01,-1900.6 1383.33,-1892.38 1379.66,-1898.34"/>
</g>
<!-- llm -->
<g id="node27" class="node">
<title>llm</title>
<polygon fill="none" stroke="black" points="226.12,-1267 172.12,-1267 172.12,-1231 226.12,-1231 226.12,-1267"/>
<text text-anchor="middle" x="199.12" y="-1244.7" font-family="sans-serif" font-size="14.00">llm</text>
</g>
<!-- llm&#45;&gt;proto -->
<g id="edge80" class="edge">
<title>llm&#45;&gt;proto</title>
<path fill="none" stroke="black" d="M226,-1267.45C243.79,-1280.14 267.63,-1297.14 287.12,-1311.04"/>
<polygon fill="black" stroke="black" points="284.88,-1313.74 295.06,-1316.7 288.95,-1308.04 284.88,-1313.74"/>
</g>
<!-- lsp&#45;&gt;sexp -->
<g id="edge81" class="edge">
<title>lsp&#45;&gt;sexp</title>
<path fill="none" stroke="black" d="M855.72,-1080.21C870.37,-1095.47 890.69,-1118.33 904.75,-1141 933.07,-1186.66 955.38,-1245.43 967.23,-1279.98"/>
<polygon fill="black" stroke="black" points="963.85,-1280.92 970.36,-1289.28 970.49,-1278.69 963.85,-1280.92"/>
</g>
<!-- lsp&#45;&gt;wasm -->
<g id="edge82" class="edge">
<title>lsp&#45;&gt;wasm</title>
<path fill="none" stroke="black" d="M843.23,-1043.66C856.28,-1002.03 887.96,-897.03 904.75,-807 948.75,-571.1 969.17,-281.5 974.88,-188.94"/>
<polygon fill="black" stroke="black" points="978.38,-189.15 975.49,-178.95 971.39,-188.72 978.38,-189.15"/>
</g>
<!-- metamath&#45;&gt;parse -->
<g id="edge83" class="edge">
<title>metamath&#45;&gt;parse</title>
<path fill="none" stroke="black" d="M866.78,-1149.68C913.27,-1120.71 1003.63,-1064.42 1053.74,-1033.2"/>
<polygon fill="black" stroke="black" points="1055.28,-1036.36 1061.92,-1028.11 1051.58,-1030.42 1055.28,-1036.36"/>
</g>
<!-- metamath&#45;&gt;sexp -->
<g id="edge84" class="edge">
<title>metamath&#45;&gt;sexp</title>
<path fill="none" stroke="black" d="M876.98,-1182.43C886.7,-1187.11 896.64,-1192.95 904.75,-1200 930.56,-1222.44 950.92,-1256.3 963.28,-1280.31"/>
<polygon fill="black" stroke="black" points="960.13,-1281.83 967.71,-1289.22 966.39,-1278.71 960.13,-1281.83"/>
</g>
<!-- multiformat -->
<g id="node30" class="node">
<title>multiformat</title>
<polygon fill="none" stroke="black" points="730.5,-1484 640.25,-1484 640.25,-1448 730.5,-1448 730.5,-1484"/>
<text text-anchor="middle" x="685.38" y="-1461.7" font-family="sans-serif" font-size="14.00">multiformat</text>
</g>
<!-- multiformat&#45;&gt;acset -->
<g id="edge85" class="edge">
<title>multiformat&#45;&gt;acset</title>
<path fill="none" stroke="black" d="M730.68,-1461.24C752.05,-1458.95 777.41,-1456.22 797.81,-1454.03"/>
<polygon fill="black" stroke="black" points="798.12,-1457.52 807.69,-1452.97 797.37,-1450.56 798.12,-1457.52"/>
</g>
<!-- multiformat&#45;&gt;hash -->
<g id="edge86" class="edge">
<title>multiformat&#45;&gt;hash</title>
<path fill="none" stroke="black" d="M724.4,-1447.8C727.32,-1445.19 729.94,-1442.27 732,-1439 780.08,-1362.76 752.43,-1123.78 768,-1035 782.58,-951.84 811.11,-856.2 825.93,-809.19"/>
<polygon fill="black" stroke="black" points="829.23,-810.35 828.93,-799.76 822.56,-808.23 829.23,-810.35"/>
</g>
<!-- multiformat&#45;&gt;parse -->
<g id="edge87" class="edge">
<title>multiformat&#45;&gt;parse</title>
<path fill="none" stroke="black" d="M694.51,-1484.35C706.54,-1508.91 731.64,-1551.42 768,-1569 822.72,-1595.45 853.43,-1601.56 904.75,-1569 998.61,-1509.46 1066.42,-1147.16 1084.55,-1040.51"/>
<polygon fill="black" stroke="black" points="1087.97,-1041.28 1086.17,-1030.84 1081.07,-1040.13 1087.97,-1041.28"/>
</g>
<!-- object&#45;&gt;hash -->
<g id="edge88" class="edge">
<title>object&#45;&gt;hash</title>
<path fill="none" stroke="black" d="M707.41,-891.65C733.14,-869.2 776.87,-831.05 805.94,-805.69"/>
<polygon fill="black" stroke="black" points="808.08,-808.46 813.31,-799.25 803.47,-803.19 808.08,-808.46"/>
</g>
<!-- object&#45;&gt;parse -->
<g id="edge89" class="edge">
<title>object&#45;&gt;parse</title>
<path fill="none" stroke="black" d="M714.39,-917.02C785.34,-934.8 972.1,-981.61 1052.12,-1001.66"/>
<polygon fill="black" stroke="black" points="1051.11,-1005.02 1061.66,-1004.05 1052.81,-998.23 1051.11,-1005.02"/>
</g>
<!-- opentheory&#45;&gt;hol -->
<g id="edge90" class="edge">
<title>opentheory&#45;&gt;hol</title>
<path fill="none" stroke="black" d="M369.05,-2045.09C468.49,-2045.28 705.69,-2045.75 797.85,-2045.93"/>
<polygon fill="black" stroke="black" points="797.59,-2049.43 807.6,-2045.95 797.6,-2042.43 797.59,-2049.43"/>
</g>
<!-- parquet -->
<g id="node33" class="node">
<title>parquet</title>
<polygon fill="none" stroke="black" points="472,-844 405,-844 405,-808 472,-808 472,-844"/>
<text text-anchor="middle" x="438.5" y="-821.7" font-family="sans-serif" font-size="14.00">parquet</text>
</g>
<!-- parquet&#45;&gt;arrow -->
<g id="edge91" class="edge">
<title>parquet&#45;&gt;arrow</title>
<path fill="none" stroke="black" d="M472.42,-826C486.2,-826 502.29,-826 516.55,-826"/>
<polygon fill="black" stroke="black" points="516.5,-829.5 526.5,-826 516.5,-822.5 516.5,-829.5"/>
</g>
<!-- proptest -->
<g id="node35" class="node">
<title>proptest</title>
<polygon fill="none" stroke="black" points="95.88,-1171 25.12,-1171 25.12,-1135 95.88,-1135 95.88,-1171"/>
<text text-anchor="middle" x="60.5" y="-1148.7" font-family="sans-serif" font-size="14.00">proptest</text>
</g>
<!-- pure&#45;trusted -->
<g id="node39" class="node">
<title>pure&#45;trusted</title>
<polygon fill="#ffd6d6" stroke="black" points="1355.5,-2085 1256.25,-2085 1256.25,-2049 1355.5,-2049 1355.5,-2085"/>
<text text-anchor="middle" x="1305.88" y="-2062.7" font-family="sans-serif" font-size="14.00">pure&#45;trusted</text>
</g>
<!-- pure&#45;&gt;pure&#45;trusted -->
<g id="edge92" class="edge">
<title>pure&#45;&gt;pure&#45;trusted</title>
<path fill="none" stroke="black" d="M1220.75,-2078.41C1228.13,-2077.41 1236.45,-2076.28 1244.93,-2075.13"/>
<polygon fill="black" stroke="black" points="1245.14,-2078.63 1254.58,-2073.82 1244.2,-2071.7 1245.14,-2078.63"/>
</g>
<!-- pure&#45;eval&#45;&gt;pure -->
<g id="edge93" class="edge">
<title>pure&#45;eval&#45;&gt;pure</title>
<path fill="none" stroke="black" d="M1130.66,-2110.08C1138.9,-2106.33 1147.54,-2102.39 1155.67,-2098.68"/>
<polygon fill="black" stroke="black" points="1156.96,-2101.94 1164.6,-2094.61 1154.05,-2095.57 1156.96,-2101.94"/>
</g>
<!-- pure&#45;eval&#45;&gt;types -->
<g id="edge94" class="edge">
<title>pure&#45;eval&#45;&gt;types</title>
<path fill="none" stroke="black" d="M1130.74,-2134.67C1187.05,-2141.87 1290.93,-2146.13 1355.5,-2094 1399.82,-2058.22 1412.5,-1988.45 1416.1,-1948.66"/>
<polygon fill="black" stroke="black" points="1419.57,-1949.09 1416.83,-1938.86 1412.59,-1948.57 1419.57,-1949.09"/>
</g>
<!-- pure&#45;trusted&#45;&gt;types -->
<g id="edge95" class="edge">
<title>pure&#45;trusted&#45;&gt;types</title>
<path fill="none" stroke="black" d="M1320.66,-2048.55C1339.9,-2022.82 1374.91,-1975.97 1397.15,-1946.22"/>
<polygon fill="black" stroke="black" points="1399.8,-1948.53 1402.98,-1938.42 1394.19,-1944.34 1399.8,-1948.53"/>
</g>
<!-- python -->
<g id="node40" class="node">
<title>python</title>
<polygon fill="none" stroke="black" points="91.38,-463 29.62,-463 29.62,-427 91.38,-427 91.38,-463"/>
<text text-anchor="middle" x="60.5" y="-440.7" font-family="sans-serif" font-size="14.00">python</text>
</g>
<!-- python&#45;&gt;crypto&#45;sig -->
<g id="edge96" class="edge">
<title>python&#45;&gt;crypto&#45;sig</title>
<path fill="none" stroke="black" d="M61.75,-426.83C63.39,-367.64 75.1,-176.84 157,-50 158.21,-48.12 159.58,-46.3 161.05,-44.56"/>
<polygon fill="black" stroke="black" points="163.5,-47.06 168.08,-37.5 158.54,-42.12 163.5,-47.06"/>
</g>
<!-- python&#45;&gt;git -->
<g id="edge97" class="edge">
<title>python&#45;&gt;git</title>
<path fill="none" stroke="black" d="M91.75,-441.34C148.57,-435.74 274.08,-429.49 369,-469 386.19,-476.16 402.16,-489.35 414.34,-501.45"/>
<polygon fill="black" stroke="black" points="411.64,-503.69 421.1,-508.47 416.69,-498.83 411.64,-503.69"/>
</g>
<!-- python&#45;&gt;graph -->
<g id="edge98" class="edge">
<title>python&#45;&gt;graph</title>
<path fill="none" stroke="black" d="M91.77,-452.5C127.8,-461.71 189.59,-478.42 241.25,-497 298.1,-517.44 361.96,-546.23 400.95,-564.5"/>
<polygon fill="black" stroke="black" points="399.36,-567.62 409.9,-568.72 402.34,-561.29 399.36,-567.62"/>
</g>
<!-- python&#45;&gt;hash -->
<g id="edge99" class="edge">
<title>python&#45;&gt;hash</title>
<path fill="none" stroke="black" d="M91.52,-440.25C110.28,-437.53 134.99,-434.38 157,-433 194.37,-430.66 203.82,-431.83 241.25,-433 468.82,-440.12 562.29,-428.21 732,-580 784.71,-627.14 814.55,-707.54 827.51,-750.64"/>
<polygon fill="black" stroke="black" points="824.1,-751.42 830.24,-760.05 830.82,-749.47 824.1,-751.42"/>
</g>
<!-- python&#45;&gt;kv -->
<g id="edge100" class="edge">
<title>python&#45;&gt;kv</title>
<path fill="none" stroke="black" d="M63.45,-426.61C69.51,-376.67 91.68,-235.97 157,-142 159.01,-139.1 161.37,-136.35 163.91,-133.75"/>
<polygon fill="black" stroke="black" points="165.76,-136.8 170.84,-127.51 161.07,-131.6 165.76,-136.8"/>
</g>
<!-- python&#45;&gt;llm -->
<g id="edge101" class="edge">
<title>python&#45;&gt;llm</title>
<path fill="none" stroke="black" d="M63.52,-463.5C75.2,-570.04 134.39,-1103.19 157,-1173 162.43,-1189.77 171.54,-1207.15 179.8,-1221.05"/>
<polygon fill="black" stroke="black" points="176.6,-1222.53 184.82,-1229.22 182.56,-1218.86 176.6,-1222.53"/>
</g>
<!-- python&#45;&gt;object -->
<g id="edge102" class="edge">
<title>python&#45;&gt;object</title>
<path fill="none" stroke="black" d="M65.24,-463.35C79.56,-528.45 137.2,-749.96 277.25,-853 389.35,-935.47 566.88,-925.38 645.13,-915.88"/>
<polygon fill="black" stroke="black" points="645.4,-919.38 654.87,-914.63 644.5,-912.43 645.4,-919.38"/>
</g>
<!-- python&#45;&gt;repl -->
<g id="edge103" class="edge">
<title>python&#45;&gt;repl</title>
<path fill="none" stroke="black" d="M91.85,-461.5C142.41,-489.05 238.63,-541.71 241.25,-545 301.9,-621.29 317.07,-741.19 320.86,-796.38"/>
<polygon fill="black" stroke="black" points="317.36,-796.47 321.45,-806.24 324.35,-796.05 317.36,-796.47"/>
</g>
<!-- sat -->
<g id="node44" class="node">
<title>sat</title>
<polygon fill="none" stroke="black" points="863.38,-478 809.38,-478 809.38,-442 863.38,-442 863.38,-478"/>
<text text-anchor="middle" x="836.38" y="-455.7" font-family="sans-serif" font-size="14.00">sat</text>
</g>
<!-- python&#45;&gt;sat -->
<g id="edge104" class="edge">
<title>python&#45;&gt;sat</title>
<path fill="none" stroke="black" d="M67.84,-426.63C80.01,-394.03 109.7,-325.91 157,-288 217.47,-239.54 244.63,-232 322.12,-232 322.12,-232 322.12,-232 439.5,-232 513.61,-232 534.12,-238.03 602.75,-266 620.33,-273.16 621.93,-280.19 638.75,-289 678.55,-309.84 697.34,-299.42 732,-328 754.26,-346.35 750.54,-359.04 768,-382 781.49,-399.74 797.8,-418.68 811,-433.46"/>
<polygon fill="black" stroke="black" points="808.06,-435.42 817.35,-440.51 813.26,-430.74 808.06,-435.42"/>
</g>
<!-- python&#45;&gt;serve -->
<g id="edge105" class="edge">
<title>python&#45;&gt;serve</title>
<path fill="none" stroke="black" d="M65.08,-463.39C83.71,-558.94 169.44,-998.83 192.44,-1116.81"/>
<polygon fill="black" stroke="black" points="188.94,-1117.17 194.29,-1126.32 195.81,-1115.83 188.94,-1117.17"/>
</g>
<!-- python&#45;&gt;sexp -->
<g id="edge106" class="edge">
<title>python&#45;&gt;sexp</title>
<path fill="none" stroke="black" d="M63.58,-463.12C77.49,-584.55 156.67,-1275.43 157,-1276 190.32,-1332.93 214.49,-1342.68 277.25,-1363 316.04,-1375.56 329.95,-1374.75 369,-1363 439.94,-1341.65 437.06,-1292.35 508,-1271 548.32,-1258.86 560.67,-1269.4 602.75,-1271 737.26,-1276.11 771.47,-1275.1 904.75,-1294 915.99,-1295.59 928.11,-1297.89 939.13,-1300.22"/>
<polygon fill="black" stroke="black" points="938.15,-1303.58 948.67,-1302.29 939.64,-1296.75 938.15,-1303.58"/>
</g>
<!-- python&#45;&gt;shell -->
<g id="edge107" class="edge">
<title>python&#45;&gt;shell</title>
<path fill="none" stroke="black" d="M63.76,-463.37C71.97,-530.35 100.79,-767.78 121,-964 130.01,-1051.46 101.86,-1289.52 157,-1358 214.59,-1429.52 338.11,-1413.5 400.22,-1399.76"/>
<polygon fill="black" stroke="black" points="400.65,-1403.26 409.6,-1397.59 399.07,-1396.44 400.65,-1403.26"/>
</g>
<!-- python&#45;&gt;store -->
<g id="edge108" class="edge">
<title>python&#45;&gt;store</title>
<path fill="none" stroke="black" d="M75.37,-426.6C110.97,-381.67 210.67,-270 322.12,-270 322.12,-270 322.12,-270 439.5,-270 512.84,-270 535.3,-265.21 602.75,-294 621.39,-301.96 622.54,-309.84 638.75,-322 642.26,-324.63 645.93,-327.35 649.62,-330.05"/>
<polygon fill="black" stroke="black" points="647.31,-332.71 657.46,-335.76 651.44,-327.05 647.31,-332.71"/>
</g>
<!-- python&#45;&gt;wasm -->
<g id="edge109" class="edge">
<title>python&#45;&gt;wasm</title>
<path fill="none" stroke="black" d="M63.65,-426.51C71.85,-359.28 103.44,-129.38 157,-83 212.84,-34.64 248.25,-64 322.12,-64 322.12,-64 322.12,-64 686.38,-64 784.01,-64 816.59,-46.03 904.75,-88 925.53,-97.9 943.9,-116.31 956.86,-131.9"/>
<polygon fill="black" stroke="black" points="953.94,-133.84 962.9,-139.49 959.41,-129.48 953.94,-133.84"/>
</g>
<!-- wasm&#45;store -->
<g id="node57" class="node">
<title>wasm&#45;store</title>
<polygon fill="none" stroke="black" points="602.75,-204 508,-204 508,-168 602.75,-168 602.75,-204"/>
<text text-anchor="middle" x="555.38" y="-181.7" font-family="sans-serif" font-size="14.00">wasm&#45;store</text>
</g>
<!-- python&#45;&gt;wasm&#45;store -->
<g id="edge110" class="edge">
<title>python&#45;&gt;wasm&#45;store</title>
<path fill="none" stroke="black" d="M61.54,-426.71C62.74,-376.87 73.77,-238.48 157,-180 258.58,-108.63 413.66,-140.55 496.86,-165.82"/>
<polygon fill="black" stroke="black" points="495.59,-169.09 506.18,-168.72 497.67,-162.4 495.59,-169.09"/>
</g>
<!-- repl&#45;&gt;arrow -->
<g id="edge111" class="edge">
<title>repl&#45;&gt;arrow</title>
<path fill="none" stroke="black" d="M350.54,-814.78C366.08,-808.79 386.3,-802.04 405,-799 434.39,-794.22 442.59,-794.3 472,-799 487.24,-801.43 503.5,-806.25 517.5,-811.15"/>
<polygon fill="black" stroke="black" points="516.18,-814.4 526.77,-814.54 518.58,-807.82 516.18,-814.4"/>
</g>
<!-- repl&#45;&gt;forsp -->
<g id="edge112" class="edge">
<title>repl&#45;&gt;forsp</title>
<path fill="none" stroke="black" d="M329.75,-844.5C348.11,-904.92 406.43,-1096.78 428.72,-1170.12"/>
<polygon fill="black" stroke="black" points="425.28,-1170.83 431.54,-1179.38 431.98,-1168.8 425.28,-1170.83"/>
</g>
<!-- repl&#45;&gt;git -->
<g id="edge113" class="edge">
<title>repl&#45;&gt;git</title>
<path fill="none" stroke="black" d="M328.1,-807.83C339.35,-757.33 372.4,-615.57 406.09,-556.14"/>
<polygon fill="black" stroke="black" points="409.06,-558 411.36,-547.65 403.11,-554.3 409.06,-558"/>
</g>
<!-- repl&#45;&gt;graph -->
<g id="edge114" class="edge">
<title>repl&#45;&gt;graph</title>
<path fill="none" stroke="black" d="M332.65,-807.66C352.27,-765.43 400.76,-661.07 424.28,-610.45"/>
<polygon fill="black" stroke="black" points="427.36,-612.14 428.4,-601.59 421.01,-609.19 427.36,-612.14"/>
</g>
<!-- repl&#45;&gt;hash -->
<g id="edge115" class="edge">
<title>repl&#45;&gt;hash</title>
<path fill="none" stroke="black" d="M350.58,-811.48C365.97,-803.83 386.03,-795.18 405,-791 547.38,-759.61 722.66,-769.67 798.03,-776.24"/>
<polygon fill="black" stroke="black" points="797.47,-779.7 807.74,-777.12 798.1,-772.73 797.47,-779.7"/>
</g>
<!-- repl&#45;&gt;init -->
<g id="edge116" class="edge">
<title>repl&#45;&gt;init</title>
<path fill="none" stroke="black" d="M329.96,-844.4C339.29,-874.42 357.7,-935.89 369,-989 391.18,-1093.21 366.31,-1126.73 405,-1226 434.77,-1302.38 453.46,-1317.81 508,-1379 544.86,-1420.36 571.95,-1413.95 602.75,-1460 650.12,-1530.82 671.8,-1631.24 680.08,-1680.47"/>
<polygon fill="black" stroke="black" points="676.58,-1680.74 681.62,-1690.06 683.49,-1679.63 676.58,-1680.74"/>
</g>
<!-- repl&#45;&gt;object -->
<g id="edge117" class="edge">
<title>repl&#45;&gt;object</title>
<path fill="none" stroke="black" d="M350.47,-835.69C366.16,-841.24 386.56,-848.06 405,-853 449.99,-865.05 579.82,-890.19 645.44,-902.66"/>
<polygon fill="black" stroke="black" points="644.56,-906.06 655.04,-904.48 645.87,-899.18 644.56,-906.06"/>
</g>
<!-- repl&#45;&gt;parquet -->
<g id="edge118" class="edge">
<title>repl&#45;&gt;parquet</title>
<path fill="none" stroke="black" d="M350.42,-826C363.22,-826 378.96,-826 393.52,-826"/>
<polygon fill="black" stroke="black" points="393.35,-829.5 403.35,-826 393.35,-822.5 393.35,-829.5"/>
</g>
<!-- repl&#45;&gt;shell -->
<g id="edge119" class="edge">
<title>repl&#45;&gt;shell</title>
<path fill="none" stroke="black" d="M330.22,-844.35C339.92,-874.29 358.83,-935.66 369,-989 396.73,-1134.36 365.32,-1177.44 405,-1320 408.95,-1334.18 415.49,-1349.07 421.67,-1361.46"/>
<polygon fill="black" stroke="black" points="418.53,-1363.01 426.24,-1370.28 424.75,-1359.79 418.53,-1363.01"/>
</g>
<!-- repl&#45;&gt;wasm -->
<g id="edge120" class="edge">
<title>repl&#45;&gt;wasm</title>
<path fill="none" stroke="black" d="M327.78,-807.7C348.54,-704.67 452.63,-200.15 508,-159 575.53,-108.81 839.87,-139.72 938.89,-153.45"/>
<polygon fill="black" stroke="black" points="938.24,-156.89 948.63,-154.82 939.21,-149.96 938.24,-156.89"/>
</g>
<!-- sat&#45;&gt;parse -->
<g id="edge121" class="edge">
<title>sat&#45;&gt;parse</title>
<path fill="none" stroke="black" d="M863.72,-461.11C903.07,-464.29 976.62,-476.38 1014.5,-522 1073.18,-592.66 1086.07,-886.56 1088.73,-981.38"/>
<polygon fill="black" stroke="black" points="1085.22,-981.24 1088.98,-991.15 1092.22,-981.06 1085.22,-981.24"/>
</g>
<!-- sat&#45;&gt;types -->
<g id="edge122" class="edge">
<title>sat&#45;&gt;types</title>
<path fill="none" stroke="black" d="M863.86,-460C909.77,-460 1007.12,-460 1089.38,-460 1089.38,-460 1089.38,-460 1194.25,-460 1344.29,-460 1406.66,-1681.25 1416.18,-1889.1"/>
<polygon fill="black" stroke="black" points="1412.69,-1889.21 1416.63,-1899.04 1419.68,-1888.89 1412.69,-1889.21"/>
</g>
<!-- sat&#45;&gt;wasm -->
<g id="edge123" class="edge">
<title>sat&#45;&gt;wasm</title>
<path fill="none" stroke="black" d="M863.81,-450.48C877.87,-444.14 894.35,-434.49 904.75,-421 959.28,-350.29 972.47,-240.87 975.64,-188.67"/>
<polygon fill="black" stroke="black" points="979.13,-188.95 976.14,-178.78 972.13,-188.59 979.13,-188.95"/>
</g>
<!-- serve&#45;&gt;core -->
<g id="edge124" class="edge">
<title>serve&#45;&gt;core</title>
<path fill="none" stroke="black" d="M213.03,-1164.38C222.67,-1179.19 235.2,-1200.95 241.25,-1222 275.78,-1342.06 211.89,-1676.54 277.25,-1783 409.8,-1998.91 523.62,-2006.19 768,-2073 826.63,-2089.03 845.68,-2087.31 904.75,-2073 916.84,-2070.07 929.18,-2064.73 940.14,-2059"/>
<polygon fill="black" stroke="black" points="941.8,-2062.09 948.86,-2054.19 938.41,-2055.96 941.8,-2062.09"/>
</g>
<!-- serve&#45;&gt;forsp -->
<g id="edge125" class="edge">
<title>serve&#45;&gt;forsp</title>
<path fill="none" stroke="black" d="M226.44,-1151.87C268.59,-1161.29 351.42,-1179.78 399.84,-1190.59"/>
<polygon fill="black" stroke="black" points="399.07,-1194.01 409.59,-1192.77 400.6,-1187.17 399.07,-1194.01"/>
</g>
<!-- serve&#45;&gt;git -->
<g id="edge126" class="edge">
<title>serve&#45;&gt;git</title>
<path fill="none" stroke="black" d="M201.6,-1127.59C207.95,-1051.51 234.54,-761.84 277.25,-682 303.61,-632.72 330.13,-636.16 369,-596 385.87,-578.58 387.62,-571.91 405,-555 405.37,-554.64 405.74,-554.28 406.12,-553.92"/>
<polygon fill="black" stroke="black" points="408.19,-556.77 413.25,-547.46 403.49,-551.58 408.19,-556.77"/>
</g>
<!-- serve&#45;&gt;hash -->
<g id="edge127" class="edge">
<title>serve&#45;&gt;hash</title>
<path fill="none" stroke="black" d="M201.59,-1127.52C207.12,-1062.46 228.95,-845.38 277.25,-799 422.19,-659.82 698.28,-733.55 798.15,-766.67"/>
<polygon fill="black" stroke="black" points="796.87,-769.93 807.46,-769.82 799.11,-763.3 796.87,-769.93"/>
</g>
<!-- serve&#45;&gt;init -->
<g id="edge128" class="edge">
<title>serve&#45;&gt;init</title>
<path fill="none" stroke="black" d="M213.67,-1164.45C227.82,-1182.64 251.52,-1210.23 277.25,-1228 313.57,-1253.08 340.36,-1232.42 369,-1266 413.77,-1318.5 372.06,-1356.38 405,-1417 468.72,-1534.24 591.57,-1638.73 650.81,-1684.9"/>
<polygon fill="black" stroke="black" points="648.5,-1687.54 658.56,-1690.88 652.78,-1682 648.5,-1687.54"/>
</g>
<!-- serve&#45;&gt;lisp -->
<g id="edge129" class="edge">
<title>serve&#45;&gt;lisp</title>
<path fill="none" stroke="black" d="M210.12,-1164.13C226.7,-1193.75 259.83,-1250.75 277.25,-1266 311.14,-1295.66 342.02,-1272.94 369,-1309 381.63,-1325.88 421.29,-1629.17 433.73,-1726.32"/>
<polygon fill="black" stroke="black" points="430.24,-1726.64 434.98,-1736.12 437.19,-1725.75 430.24,-1726.64"/>
</g>
<!-- serve&#45;&gt;metamath -->
<g id="edge130" class="edge">
<title>serve&#45;&gt;metamath</title>
<path fill="none" stroke="black" d="M226.61,-1146.92C323.05,-1150.26 656.44,-1161.8 784.62,-1166.24"/>
<polygon fill="black" stroke="black" points="784.38,-1169.74 794.5,-1166.58 784.63,-1162.74 784.38,-1169.74"/>
</g>
<!-- serve&#45;&gt;object -->
<g id="edge131" class="edge">
<title>serve&#45;&gt;object</title>
<path fill="none" stroke="black" d="M226.16,-1135.58C291.12,-1109.26 465.01,-1036.88 602.75,-962 618.1,-953.65 634.45,-943.51 648.46,-934.4"/>
<polygon fill="black" stroke="black" points="650.04,-937.55 656.47,-929.13 646.19,-931.7 650.04,-937.55"/>
</g>
<!-- serve&#45;&gt;proto -->
<g id="edge132" class="edge">
<title>serve&#45;&gt;proto</title>
<path fill="none" stroke="black" d="M210.53,-1164.21C219.11,-1179.47 231.43,-1201.92 241.25,-1222 258.74,-1257.76 252.15,-1273.11 277.25,-1304 280.09,-1307.49 283.4,-1310.78 286.91,-1313.82"/>
<polygon fill="black" stroke="black" points="284.68,-1316.52 294.71,-1319.92 288.99,-1311.01 284.68,-1316.52"/>
</g>
<!-- serve&#45;&gt;repl -->
<g id="edge133" class="edge">
<title>serve&#45;&gt;repl</title>
<path fill="none" stroke="black" d="M207.03,-1127.88C227.24,-1074.87 286.37,-919.77 311.08,-854.97"/>
<polygon fill="black" stroke="black" points="314.31,-856.32 314.6,-845.73 307.77,-853.83 314.31,-856.32"/>
</g>
<!-- serve&#45;&gt;shell -->
<g id="edge134" class="edge">
<title>serve&#45;&gt;shell</title>
<path fill="none" stroke="black" d="M226.5,-1160.36C273.97,-1186.2 368.92,-1237.91 369,-1238 395.92,-1267.32 388.62,-1283.73 405,-1320 411.14,-1333.6 418.09,-1348.62 423.98,-1361.24"/>
<polygon fill="black" stroke="black" points="420.79,-1362.68 428.2,-1370.25 427.13,-1359.71 420.79,-1362.68"/>
</g>
<!-- serve&#45;&gt;store -->
<g id="edge135" class="edge">
<title>serve&#45;&gt;store</title>
<path fill="none" stroke="black" d="M201,-1127.55C205.26,-1042.51 225.88,-688.28 277.25,-592 341.97,-470.71 384.29,-445.97 508,-386 552.43,-364.46 609.61,-357.72 646.63,-355.7"/>
<polygon fill="black" stroke="black" points="646.55,-359.21 656.38,-355.26 646.24,-352.21 646.55,-359.21"/>
</g>
<!-- sexp&#45;&gt;parse -->
<g id="edge136" class="edge">
<title>sexp&#45;&gt;parse</title>
<path fill="none" stroke="black" d="M985.39,-1290.81C1003.96,-1240.83 1055.89,-1101.1 1078.56,-1040.1"/>
<polygon fill="black" stroke="black" points="1081.83,-1041.34 1082.03,-1030.75 1075.27,-1038.91 1081.83,-1041.34"/>
</g>
<!-- shell&#45;&gt;hol -->
<g id="edge137" class="edge">
<title>shell&#45;&gt;hol</title>
<path fill="none" stroke="black" d="M441.09,-1408.09C447.3,-1476.19 471.43,-1716.56 508,-1783 583.25,-1919.72 635.7,-1936.22 768,-2019 777.34,-2024.84 788.15,-2029.84 798.34,-2033.89"/>
<polygon fill="black" stroke="black" points="797.05,-2037.15 807.65,-2037.38 799.51,-2030.59 797.05,-2037.15"/>
</g>
<!-- shell&#45;&gt;kernel -->
<g id="edge138" class="edge">
<title>shell&#45;&gt;kernel</title>
<path fill="none" stroke="black" d="M465.85,-1381.28C480.6,-1376.4 499.26,-1370.23 515.64,-1364.81"/>
<polygon fill="black" stroke="black" points="516.71,-1368.15 525.1,-1361.68 514.51,-1361.5 516.71,-1368.15"/>
</g>
<!-- smt&#45;&gt;sat -->
<g id="edge139" class="edge">
<title>smt&#45;&gt;sat</title>
<path fill="none" stroke="black" d="M687.96,-1393.55C694.81,-1315.52 723.53,-1005.04 768,-753 785.2,-655.51 813.89,-541.66 827.61,-489.19"/>
<polygon fill="black" stroke="black" points="830.91,-490.4 830.07,-479.84 824.14,-488.62 830.91,-490.4"/>
</g>
<!-- smt&#45;&gt;sexp -->
<g id="edge140" class="edge">
<title>smt&#45;&gt;sexp</title>
<path fill="none" stroke="black" d="M712.81,-1413.28C755.52,-1414.25 841.31,-1411.62 904.75,-1380 925.22,-1369.8 943.49,-1351.56 956.48,-1336.13"/>
<polygon fill="black" stroke="black" points="958.98,-1338.6 962.55,-1328.63 953.54,-1334.2 958.98,-1338.6"/>
</g>
<!-- smt&#45;&gt;types -->
<g id="edge141" class="edge">
<title>smt&#45;&gt;types</title>
<path fill="none" stroke="black" d="M712.7,-1423.04C719.83,-1427.13 726.97,-1432.42 732,-1439 768.44,-1486.61 724.2,-1528.06 768,-1569 874.53,-1668.56 943.56,-1635 1089.38,-1635 1089.38,-1635 1089.38,-1635 1194.25,-1635 1281.76,-1635 1302.28,-1678.53 1355.5,-1748 1388.37,-1790.91 1405,-1852.87 1412.41,-1889.24"/>
<polygon fill="black" stroke="black" points="1408.97,-1889.88 1414.3,-1899.04 1415.85,-1888.56 1408.97,-1889.88"/>
</g>
<!-- spectec&#45;&gt;grammar -->
<g id="edge142" class="edge">
<title>spectec&#45;&gt;grammar</title>
<path fill="none" stroke="black" d="M871.44,-1676.65C888.86,-1679.02 910.33,-1681.95 929.33,-1684.55"/>
<polygon fill="black" stroke="black" points="928.6,-1687.98 938.98,-1685.86 929.54,-1681.04 928.6,-1687.98"/>
</g>
<!-- store&#45;&gt;hash -->
<g id="edge143" class="edge">
<title>store&#45;&gt;hash</title>
<path fill="none" stroke="black" d="M701.02,-373.41C710.91,-386.58 723.65,-405.09 732,-423 785.82,-538.4 818.1,-688.03 830.06,-750.54"/>
<polygon fill="black" stroke="black" points="826.62,-751.17 831.9,-760.35 833.5,-749.88 826.62,-751.17"/>
</g>
<!-- store&#45;&gt;json -->
<g id="edge144" class="edge">
<title>store&#45;&gt;json</title>
<path fill="none" stroke="black" d="M712.67,-338.59C736.75,-323.56 772.59,-301.19 799.33,-284.5"/>
<polygon fill="black" stroke="black" points="801.18,-287.47 807.81,-279.21 797.47,-281.53 801.18,-287.47"/>
</g>
<!-- store&#45;&gt;sqlite -->
<g id="edge145" class="edge">
<title>store&#45;&gt;sqlite</title>
<path fill="none" stroke="black" d="M712.67,-355C736.32,-355 771.33,-355 797.91,-355"/>
<polygon fill="black" stroke="black" points="797.58,-358.5 807.58,-355 797.58,-351.5 797.58,-358.5"/>
</g>
<!-- tcb&#45;db -->
<g id="node52" class="node">
<title>tcb&#45;db</title>
<polygon fill="none" stroke="black" points="715.5,-280 655.25,-280 655.25,-244 715.5,-244 715.5,-280"/>
<text text-anchor="middle" x="685.38" y="-257.7" font-family="sans-serif" font-size="14.00">tcb&#45;db</text>
</g>
<!-- tcb&#45;db&#45;&gt;json -->
<g id="edge146" class="edge">
<title>tcb&#45;db&#45;&gt;json</title>
<path fill="none" stroke="black" d="M715.81,-262C739.24,-262 772.19,-262 797.57,-262"/>
<polygon fill="black" stroke="black" points="797.48,-265.5 807.48,-262 797.48,-258.5 797.48,-265.5"/>
</g>
<!-- tcb&#45;db&#45;&gt;sqlite -->
<g id="edge147" class="edge">
<title>tcb&#45;db&#45;&gt;sqlite</title>
<path fill="none" stroke="black" d="M715.81,-280.37C739.77,-295.33 773.69,-316.5 799.28,-332.47"/>
<polygon fill="black" stroke="black" points="797.37,-335.41 807.71,-337.73 801.08,-329.47 797.37,-335.41"/>
</g>
<!-- wasm&#45;build&#45;guest -->
<g id="node55" class="node">
<title>wasm&#45;build&#45;guest</title>
<polygon fill="none" stroke="black" points="904.75,-36 768,-36 768,0 904.75,0 904.75,-36"/>
<text text-anchor="middle" x="836.38" y="-13.7" font-family="sans-serif" font-size="14.00">wasm&#45;build&#45;guest</text>
</g>
<!-- wasm&#45;build&#45;guest&#45;&gt;wasm -->
<g id="edge148" class="edge">
<title>wasm&#45;build&#45;guest&#45;&gt;wasm</title>
<path fill="none" stroke="black" d="M884.72,-36.39C891.84,-40.29 898.79,-44.82 904.75,-50 930.56,-72.44 950.92,-106.3 963.28,-130.31"/>
<polygon fill="black" stroke="black" points="960.13,-131.83 967.71,-139.22 966.39,-128.71 960.13,-131.83"/>
</g>
<!-- wasm&#45;spec -->
<g id="node56" class="node">
<title>wasm&#45;spec</title>
<polygon fill="none" stroke="black" points="732,-468 638.75,-468 638.75,-432 732,-432 732,-468"/>
<text text-anchor="middle" x="685.38" y="-445.7" font-family="sans-serif" font-size="14.00">wasm&#45;spec</text>
</g>
<!-- wasm&#45;spec&#45;&gt;hash -->
<g id="edge149" class="edge">
<title>wasm&#45;spec&#45;&gt;hash</title>
<path fill="none" stroke="black" d="M718.11,-468.29C723.26,-472.31 728.15,-476.9 732,-482 795.91,-566.67 822.29,-693.84 831.34,-750.7"/>
<polygon fill="black" stroke="black" points="827.83,-750.87 832.79,-760.23 834.75,-749.82 827.83,-750.87"/>
</g>
<!-- wasm&#45;spec&#45;&gt;wasm -->
<g id="edge150" class="edge">
<title>wasm&#45;spec&#45;&gt;wasm</title>
<path fill="none" stroke="black" d="M732.17,-440.92C788.67,-428.86 880.27,-406.24 904.75,-382 958.2,-329.08 971.93,-236.27 975.44,-188.8"/>
<polygon fill="black" stroke="black" points="978.92,-189.2 976.05,-179 971.94,-188.77 978.92,-189.2"/>
</g>
<!-- wasm&#45;store&#45;&gt;json -->
<g id="edge151" class="edge">
<title>wasm&#45;store&#45;&gt;json</title>
<path fill="none" stroke="black" d="M603.07,-198.72C657.91,-213.66 747.74,-238.13 798.12,-251.85"/>
<polygon fill="black" stroke="black" points="797.11,-255.2 807.68,-254.46 798.95,-248.45 797.11,-255.2"/>
</g>
<!-- wasm&#45;store&#45;&gt;store -->
<g id="edge152" class="edge">
<title>wasm&#45;store&#45;&gt;store</title>
<path fill="none" stroke="black" d="M570.32,-204.41C592.82,-234.12 637.29,-292.83 663.56,-327.51"/>
<polygon fill="black" stroke="black" points="660.71,-329.55 669.54,-335.41 666.29,-325.32 660.71,-329.55"/>
</g>
<!-- wasm&#45;store&#45;&gt;wasm -->
<g id="edge153" class="edge">
<title>wasm&#45;store&#45;&gt;wasm</title>
<path fill="none" stroke="black" d="M602.95,-183.01C686.91,-177.61 862,-166.36 938.96,-161.42"/>
<polygon fill="black" stroke="black" points="938.75,-164.94 948.5,-160.81 938.3,-157.96 938.75,-164.94"/>
</g>
<!-- web&#45;kernel -->
<g id="node58" class="node">
<title>web&#45;kernel</title>
<polygon fill="none" stroke="black" points="369,-1774 277.25,-1774 277.25,-1738 369,-1738 369,-1774"/>
<text text-anchor="middle" x="323.12" y="-1751.7" font-family="sans-serif" font-size="14.00">web&#45;kernel</text>
</g>
<!-- web&#45;kernel&#45;&gt;forsp -->
<g id="edge154" class="edge">
<title>web&#45;kernel&#45;&gt;forsp</title>
<path fill="none" stroke="black" d="M327.83,-1737.78C344.32,-1656.8 411.04,-1328.99 431.5,-1228.46"/>
<polygon fill="black" stroke="black" points="434.9,-1229.34 433.46,-1218.84 428.04,-1227.94 434.9,-1229.34"/>
</g>
<!-- web&#45;kernel&#45;&gt;haskell -->
<g id="edge155" class="edge">
<title>web&#45;kernel&#45;&gt;haskell</title>
<path fill="none" stroke="black" d="M328.38,-1774.33C339.1,-1819.51 368.93,-1939.56 405,-2036 410.19,-2049.88 416.96,-2064.83 422.98,-2077.34"/>
<polygon fill="black" stroke="black" points="419.81,-2078.82 427.35,-2086.25 426.09,-2075.73 419.81,-2078.82"/>
</g>
<!-- web&#45;kernel&#45;&gt;hol&#45;api -->
<g id="edge156" class="edge">
<title>web&#45;kernel&#45;&gt;hol&#45;api</title>
<path fill="none" stroke="black" d="M336.18,-1774.32C374.1,-1831.97 491.12,-2009.85 536.31,-2078.54"/>
<polygon fill="black" stroke="black" points="533.19,-2080.16 541.61,-2086.59 539.04,-2076.31 533.19,-2080.16"/>
</g>
<!-- web&#45;kernel&#45;&gt;kernel -->
<g id="edge157" class="edge">
<title>web&#45;kernel&#45;&gt;kernel</title>
<path fill="none" stroke="black" d="M333.58,-1737.6C359.88,-1686.66 436.72,-1539.79 508,-1422 516.6,-1407.79 526.73,-1392.36 535.33,-1379.61"/>
<polygon fill="black" stroke="black" points="537.98,-1381.94 540.7,-1371.7 532.19,-1378.01 537.98,-1381.94"/>
</g>
<!-- web&#45;kernel&#45;&gt;lisp -->
<g id="edge158" class="edge">
<title>web&#45;kernel&#45;&gt;lisp</title>
<path fill="none" stroke="black" d="M369.26,-1756C379.36,-1756 389.96,-1756 399.73,-1756"/>
<polygon fill="black" stroke="black" points="399.61,-1759.5 409.61,-1756 399.61,-1752.5 399.61,-1759.5"/>
</g>
</g>
</svg>
