<?xml version="1.0" encoding="UTF-8" standalone="no"?>
<!DOCTYPE svg PUBLIC "-//W3C//DTD SVG 1.1//EN"
 "http://www.w3.org/Graphics/SVG/1.1/DTD/svg11.dtd">
<!-- Generated by graphviz version 12.2.1 (0)
 -->
<!-- Title: deps Pages: 1 -->
<svg width="1454pt" height="2216pt"
 viewBox="0.00 0.00 1453.50 2216.00" xmlns="http://www.w3.org/2000/svg" xmlns:xlink="http://www.w3.org/1999/xlink">
<g id="graph0" class="graph" transform="scale(1 1) rotate(0) translate(4 2212)">
<title>deps</title>
<polygon fill="white" stroke="none" points="-4,4 -4,-2212 1449.5,-2212 1449.5,4 -4,4"/>
<!-- covalence -->
<g id="node1" class="node">
<title>covalence</title>
<polygon fill="none" stroke="black" points="102.62,-951 18.38,-951 18.38,-915 102.62,-915 102.62,-951"/>
<text text-anchor="middle" x="60.5" y="-928.7" font-family="sans-serif" font-size="14.00">covalence</text>
</g>
<!-- client -->
<g id="node5" class="node">
<title>client</title>
<polygon fill="none" stroke="black" points="350.12,-928 296.12,-928 296.12,-892 350.12,-892 350.12,-928"/>
<text text-anchor="middle" x="323.12" y="-905.7" font-family="sans-serif" font-size="14.00">client</text>
</g>
<!-- covalence&#45;&gt;client -->
<g id="edge1" class="edge">
<title>covalence&#45;&gt;client</title>
<path fill="none" stroke="black" d="M103.08,-929.33C153.03,-924.92 236.1,-917.59 284.31,-913.34"/>
<polygon fill="black" stroke="black" points="284.61,-916.82 294.26,-912.46 283.99,-909.85 284.61,-916.82"/>
</g>
<!-- fuse -->
<g id="node11" class="node">
<title>fuse</title>
<polygon fill="none" stroke="black" points="582.38,-846 528.38,-846 528.38,-810 582.38,-810 582.38,-846"/>
<text text-anchor="middle" x="555.38" y="-823.7" font-family="sans-serif" font-size="14.00">fuse</text>
</g>
<!-- covalence&#45;&gt;fuse -->
<g id="edge2" class="edge">
<title>covalence&#45;&gt;fuse</title>
<path fill="none" stroke="black" d="M102.77,-923.02C146.13,-912.64 216.35,-896.1 277.25,-883 362.63,-864.64 463.28,-845.22 516.68,-835.09"/>
<polygon fill="black" stroke="black" points="517.29,-838.53 526.47,-833.24 515.99,-831.66 517.29,-838.53"/>
</g>
<!-- git -->
<g id="node12" class="node">
<title>git</title>
<polygon fill="none" stroke="black" points="465.5,-532 411.5,-532 411.5,-496 465.5,-496 465.5,-532"/>
<text text-anchor="middle" x="438.5" y="-509.7" font-family="sans-serif" font-size="14.00">git</text>
</g>
<!-- covalence&#45;&gt;git -->
<g id="edge3" class="edge">
<title>covalence&#45;&gt;git</title>
<path fill="none" stroke="black" d="M63.82,-914.82C70.62,-867.37 94.18,-737.56 157,-652 216.9,-570.42 338.37,-534.47 399.93,-520.95"/>
<polygon fill="black" stroke="black" points="400.51,-524.41 409.57,-518.93 399.07,-517.56 400.51,-524.41"/>
</g>
<!-- hash -->
<g id="node15" class="node">
<title>hash</title>
<polygon fill="none" stroke="black" points="863.38,-792 809.38,-792 809.38,-756 863.38,-756 863.38,-792"/>
<text text-anchor="middle" x="836.38" y="-769.7" font-family="sans-serif" font-size="14.00">hash</text>
</g>
<!-- covalence&#45;&gt;hash -->
<g id="edge4" class="edge">
<title>covalence&#45;&gt;hash</title>
<path fill="none" stroke="black" d="M102.85,-945.54C109.74,-949.24 116.19,-953.97 121,-960 170.79,-1022.42 100.41,-1079.68 157,-1136 224.21,-1202.89 275.19,-1173.81 369,-1160 546.19,-1133.91 612.86,-1118.73 732,-985 781.21,-929.76 812.58,-846.88 826.69,-803.26"/>
<polygon fill="black" stroke="black" points="830.02,-804.33 829.68,-793.74 823.34,-802.23 830.02,-804.33"/>
</g>
<!-- hol -->
<g id="node17" class="node">
<title>hol</title>
<polygon fill="none" stroke="black" points="863.38,-1990 809.38,-1990 809.38,-1954 863.38,-1954 863.38,-1990"/>
<text text-anchor="middle" x="836.38" y="-1967.7" font-family="sans-serif" font-size="14.00">hol</text>
</g>
<!-- covalence&#45;&gt;hol -->
<g id="edge5" class="edge">
<title>covalence&#45;&gt;hol</title>
<path fill="none" stroke="black" d="M103.07,-944.98C110.02,-948.74 116.44,-953.63 121,-960 168.82,-1026.82 142.87,-1247.06 157,-1328 208.39,-1622.48 23.2,-1980 322.12,-1980 322.12,-1980 322.12,-1980 556.38,-1980 642.87,-1980 744.39,-1976.11 797.93,-1973.76"/>
<polygon fill="black" stroke="black" points="797.88,-1977.26 807.71,-1973.32 797.57,-1970.27 797.88,-1977.26"/>
</g>
<!-- lsp -->
<g id="node28" class="node">
<title>lsp</title>
<polygon fill="none" stroke="black" points="863.38,-652 809.38,-652 809.38,-616 863.38,-616 863.38,-652"/>
<text text-anchor="middle" x="836.38" y="-629.7" font-family="sans-serif" font-size="14.00">lsp</text>
</g>
<!-- covalence&#45;&gt;lsp -->
<g id="edge6" class="edge">
<title>covalence&#45;&gt;lsp</title>
<path fill="none" stroke="black" d="M68.47,-914.55C81.86,-880.79 113.71,-807.96 157,-758 246.01,-655.26 275.31,-619.72 405,-579 545.76,-534.8 723.06,-590.43 798.59,-619.01"/>
<polygon fill="black" stroke="black" points="796.98,-622.13 807.57,-622.47 799.5,-615.6 796.98,-622.13"/>
</g>
<!-- object -->
<g id="node31" class="node">
<title>object</title>
<polygon fill="none" stroke="black" points="714,-976 656.75,-976 656.75,-940 714,-940 714,-976"/>
<text text-anchor="middle" x="685.38" y="-953.7" font-family="sans-serif" font-size="14.00">object</text>
</g>
<!-- covalence&#45;&gt;object -->
<g id="edge7" class="edge">
<title>covalence&#45;&gt;object</title>
<path fill="none" stroke="black" d="M102.95,-945.87C109.74,-949.53 116.13,-954.16 121,-960 163.24,-1010.67 111.98,-1055.78 157,-1104 195.34,-1145.07 221.75,-1134.23 277.25,-1143 317.53,-1149.37 329.32,-1152.38 369,-1143 425.53,-1129.64 554.14,-1057.8 602.75,-1026 621.72,-1013.59 641.28,-997.43 656.5,-983.97"/>
<polygon fill="black" stroke="black" points="658.69,-986.71 663.8,-977.42 654.02,-981.5 658.69,-986.71"/>
</g>
<!-- opentheory -->
<g id="node32" class="node">
<title>opentheory</title>
<polygon fill="none" stroke="black" points="368.62,-2059 277.62,-2059 277.62,-2023 368.62,-2023 368.62,-2059"/>
<text text-anchor="middle" x="323.12" y="-2036.7" font-family="sans-serif" font-size="14.00">opentheory</text>
</g>
<!-- covalence&#45;&gt;opentheory -->
<g id="edge8" class="edge">
<title>covalence&#45;&gt;opentheory</title>
<path fill="none" stroke="black" d="M103.09,-944.6C110.13,-948.39 116.58,-953.4 121,-960 184.94,-1055.54 86.14,-1903.48 157,-1994 182.56,-2026.65 229.1,-2037.69 266.27,-2040.97"/>
<polygon fill="black" stroke="black" points="265.74,-2044.44 275.96,-2041.65 266.23,-2037.46 265.74,-2044.44"/>
</g>
<!-- proto -->
<g id="node36" class="node">
<title>proto</title>
<polygon fill="none" stroke="black" points="350.12,-1134 296.12,-1134 296.12,-1098 350.12,-1098 350.12,-1134"/>
<text text-anchor="middle" x="323.12" y="-1111.7" font-family="sans-serif" font-size="14.00">proto</text>
</g>
<!-- covalence&#45;&gt;proto -->
<g id="edge9" class="edge">
<title>covalence&#45;&gt;proto</title>
<path fill="none" stroke="black" d="M102.93,-946.32C109.64,-949.92 116.01,-954.42 121,-960 155.56,-998.67 119.47,-1035.21 157,-1071 191.44,-1103.84 247.42,-1113.2 284.51,-1115.61"/>
<polygon fill="black" stroke="black" points="284.16,-1119.1 294.32,-1116.09 284.51,-1112.11 284.16,-1119.1"/>
</g>
<!-- repl -->
<g id="node42" class="node">
<title>repl</title>
<polygon fill="none" stroke="black" points="350.12,-754 296.12,-754 296.12,-718 350.12,-718 350.12,-754"/>
<text text-anchor="middle" x="323.12" y="-731.7" font-family="sans-serif" font-size="14.00">repl</text>
</g>
<!-- covalence&#45;&gt;repl -->
<g id="edge10" class="edge">
<title>covalence&#45;&gt;repl</title>
<path fill="none" stroke="black" d="M71.16,-914.6C86.21,-887.51 117.66,-836.75 157,-806 195.74,-775.72 249.51,-756.16 285.04,-745.62"/>
<polygon fill="black" stroke="black" points="285.78,-749.05 294.43,-742.93 283.85,-742.32 285.78,-749.05"/>
</g>
<!-- serve -->
<g id="node45" class="node">
<title>serve</title>
<polygon fill="none" stroke="black" points="226.12,-974 172.12,-974 172.12,-938 226.12,-938 226.12,-974"/>
<text text-anchor="middle" x="199.12" y="-951.7" font-family="sans-serif" font-size="14.00">serve</text>
</g>
<!-- covalence&#45;&gt;serve -->
<g id="edge11" class="edge">
<title>covalence&#45;&gt;serve</title>
<path fill="none" stroke="black" d="M102.86,-939.96C121.29,-943.07 142.83,-946.69 160.76,-949.71"/>
<polygon fill="black" stroke="black" points="160.02,-953.13 170.47,-951.34 161.19,-946.23 160.02,-953.13"/>
</g>
<!-- shell -->
<g id="node47" class="node">
<title>shell</title>
<polygon fill="none" stroke="black" points="465.5,-1356 411.5,-1356 411.5,-1320 465.5,-1320 465.5,-1356"/>
<text text-anchor="middle" x="438.5" y="-1333.7" font-family="sans-serif" font-size="14.00">shell</text>
</g>
<!-- covalence&#45;&gt;shell -->
<g id="edge12" class="edge">
<title>covalence&#45;&gt;shell</title>
<path fill="none" stroke="black" d="M103.01,-945.02C109.97,-948.78 116.41,-953.66 121,-960 164.27,-1019.75 106.45,-1236.28 157,-1290 219.85,-1356.79 339.03,-1351.96 399.81,-1344.25"/>
<polygon fill="black" stroke="black" points="400.22,-1347.73 409.65,-1342.9 399.27,-1340.8 400.22,-1347.73"/>
</g>
<!-- store -->
<g id="node51" class="node">
<title>store</title>
<polygon fill="none" stroke="black" points="712.38,-372 658.38,-372 658.38,-336 712.38,-336 712.38,-372"/>
<text text-anchor="middle" x="685.38" y="-349.7" font-family="sans-serif" font-size="14.00">store</text>
</g>
<!-- covalence&#45;&gt;store -->
<g id="edge13" class="edge">
<title>covalence&#45;&gt;store</title>
<path fill="none" stroke="black" d="M62.05,-914.51C64.58,-858.53 78.67,-687.93 157,-578 210.42,-503.03 418.7,-380.34 508,-358 554.58,-346.35 610.26,-347.47 646.42,-350.09"/>
<polygon fill="black" stroke="black" points="646.14,-353.57 656.39,-350.89 646.7,-346.6 646.14,-353.57"/>
</g>
<!-- wasm -->
<g id="node54" class="node">
<title>wasm</title>
<polygon fill="none" stroke="black" points="1004.75,-177 950.5,-177 950.5,-141 1004.75,-141 1004.75,-177"/>
<text text-anchor="middle" x="977.62" y="-154.7" font-family="sans-serif" font-size="14.00">wasm</text>
</g>
<!-- covalence&#45;&gt;wasm -->
<g id="edge14" class="edge">
<title>covalence&#45;&gt;wasm</title>
<path fill="none" stroke="black" d="M62.04,-914.83C64.56,-852.79 78.74,-645.1 157,-498 183.54,-448.11 456.23,-152.64 508,-130 669.57,-59.36 731.63,-98.48 904.75,-132 916.43,-134.26 928.7,-138.23 939.73,-142.44"/>
<polygon fill="black" stroke="black" points="938.29,-145.63 948.88,-146.11 940.9,-139.13 938.29,-145.63"/>
</g>
<!-- acset -->
<g id="node2" class="node">
<title>acset</title>
<polygon fill="none" stroke="black" points="863.38,-598 809.38,-598 809.38,-562 863.38,-562 863.38,-598"/>
<text text-anchor="middle" x="836.38" y="-575.7" font-family="sans-serif" font-size="14.00">acset</text>
</g>
<!-- alethe -->
<g id="node3" class="node">
<title>alethe</title>
<polygon fill="none" stroke="black" points="583.62,-1648 527.12,-1648 527.12,-1612 583.62,-1612 583.62,-1648"/>
<text text-anchor="middle" x="555.38" y="-1625.7" font-family="sans-serif" font-size="14.00">alethe</text>
</g>
<!-- core -->
<g id="node6" class="node">
<title>core</title>
<polygon fill="#ffd6d6" stroke="black" points="1004.62,-1936 950.62,-1936 950.62,-1900 1004.62,-1900 1004.62,-1936"/>
<text text-anchor="middle" x="977.62" y="-1913.7" font-family="sans-serif" font-size="14.00">core</text>
</g>
<!-- alethe&#45;&gt;core -->
<g id="edge15" class="edge">
<title>alethe&#45;&gt;core</title>
<path fill="none" stroke="black" d="M583.82,-1647.98C590.16,-1652.4 596.8,-1657.23 602.75,-1662 680.86,-1724.58 680.6,-1766.23 768,-1815 823.08,-1845.74 849.49,-1822.58 904.75,-1853 922.94,-1863.01 940.29,-1878.47 953.39,-1891.8"/>
<polygon fill="black" stroke="black" points="950.49,-1893.83 959.92,-1898.66 955.56,-1889.01 950.49,-1893.83"/>
</g>
<!-- hol&#45;eval -->
<g id="node19" class="node">
<title>hol&#45;eval</title>
<polygon fill="none" stroke="black" points="871.38,-1806 801.38,-1806 801.38,-1770 871.38,-1770 871.38,-1806"/>
<text text-anchor="middle" x="836.38" y="-1783.7" font-family="sans-serif" font-size="14.00">hol&#45;eval</text>
</g>
<!-- alethe&#45;&gt;hol&#45;eval -->
<g id="edge16" class="edge">
<title>alethe&#45;&gt;hol&#45;eval</title>
<path fill="none" stroke="black" d="M584,-1638.71C627.29,-1652.73 708.57,-1680.69 732,-1700 754.83,-1718.82 745.78,-1736.46 768,-1756 774.7,-1761.89 782.67,-1766.93 790.75,-1771.15"/>
<polygon fill="black" stroke="black" points="789.06,-1774.22 799.59,-1775.4 792.09,-1767.91 789.06,-1774.22"/>
</g>
<!-- init -->
<g id="node21" class="node">
<title>init</title>
<polygon fill="none" stroke="black" points="712.38,-1602 658.38,-1602 658.38,-1566 712.38,-1566 712.38,-1602"/>
<text text-anchor="middle" x="685.38" y="-1579.7" font-family="sans-serif" font-size="14.00">init</text>
</g>
<!-- alethe&#45;&gt;init -->
<g id="edge17" class="edge">
<title>alethe&#45;&gt;init</title>
<path fill="none" stroke="black" d="M583.83,-1620.13C602.43,-1613.45 627.21,-1604.54 647.52,-1597.25"/>
<polygon fill="black" stroke="black" points="648.62,-1600.57 656.85,-1593.89 646.25,-1593.98 648.62,-1600.57"/>
</g>
<!-- sexp -->
<g id="node46" class="node">
<title>sexp</title>
<polygon fill="none" stroke="black" points="1004.62,-1329 950.62,-1329 950.62,-1293 1004.62,-1293 1004.62,-1329"/>
<text text-anchor="middle" x="977.62" y="-1306.7" font-family="sans-serif" font-size="14.00">sexp</text>
</g>
<!-- alethe&#45;&gt;sexp -->
<g id="edge18" class="edge">
<title>alethe&#45;&gt;sexp</title>
<path fill="none" stroke="black" d="M561.82,-1611.65C572.28,-1578.86 597.85,-1509.43 638.75,-1464 725.53,-1367.62 782.95,-1388.56 904.75,-1344 916.48,-1339.71 928.94,-1334.3 940.14,-1329.12"/>
<polygon fill="black" stroke="black" points="941.51,-1332.34 949.06,-1324.9 938.52,-1326.01 941.51,-1332.34"/>
</g>
<!-- smt -->
<g id="node48" class="node">
<title>smt</title>
<polygon fill="none" stroke="black" points="712.38,-1509 658.38,-1509 658.38,-1473 712.38,-1473 712.38,-1509"/>
<text text-anchor="middle" x="685.38" y="-1486.7" font-family="sans-serif" font-size="14.00">smt</text>
</g>
<!-- alethe&#45;&gt;smt -->
<g id="edge19" class="edge">
<title>alethe&#45;&gt;smt</title>
<path fill="none" stroke="black" d="M573.37,-1611.54C595.59,-1587.42 634.64,-1545.01 660,-1517.47"/>
<polygon fill="black" stroke="black" points="662.49,-1519.93 666.69,-1510.21 657.34,-1515.19 662.49,-1519.93"/>
</g>
<!-- types -->
<g id="node53" class="node">
<title>types</title>
<polygon fill="#ffd6d6" stroke="black" points="1445.5,-1760 1391.5,-1760 1391.5,-1724 1445.5,-1724 1445.5,-1760"/>
<text text-anchor="middle" x="1418.5" y="-1737.7" font-family="sans-serif" font-size="14.00">types</text>
</g>
<!-- alethe&#45;&gt;types -->
<g id="edge20" class="edge">
<title>alethe&#45;&gt;types</title>
<path fill="none" stroke="black" d="M583.84,-1633.19C618.48,-1637.33 679.82,-1645.11 732,-1654 841.39,-1672.63 865.65,-1704 976.62,-1704 976.62,-1704 976.62,-1704 1194.25,-1704 1260.48,-1704 1336.21,-1720.45 1380.26,-1731.71"/>
<polygon fill="black" stroke="black" points="1379.26,-1735.06 1389.82,-1734.2 1381.03,-1728.29 1379.26,-1735.06"/>
</g>
<!-- arrow -->
<g id="node4" class="node">
<title>arrow</title>
<polygon fill="none" stroke="black" points="582.38,-716 528.38,-716 528.38,-680 582.38,-680 582.38,-716"/>
<text text-anchor="middle" x="555.38" y="-693.7" font-family="sans-serif" font-size="14.00">arrow</text>
</g>
<!-- client&#45;&gt;hash -->
<g id="edge21" class="edge">
<title>client&#45;&gt;hash</title>
<path fill="none" stroke="black" d="M350.49,-906.16C416.25,-896.13 592.32,-866.42 732,-817 754.42,-809.07 779.02,-798.9 798.6,-790.44"/>
<polygon fill="black" stroke="black" points="799.76,-793.75 807.52,-786.54 796.96,-787.33 799.76,-793.75"/>
</g>
<!-- client&#45;&gt;shell -->
<g id="edge22" class="edge">
<title>client&#45;&gt;shell</title>
<path fill="none" stroke="black" d="M330.59,-928.22C340.12,-955.64 358,-1009.28 369,-1056 391.41,-1151.16 374.8,-1180.02 405,-1273 409.05,-1285.46 415.16,-1298.5 420.99,-1309.61"/>
<polygon fill="black" stroke="black" points="417.84,-1311.14 425.7,-1318.25 423.99,-1307.79 417.84,-1311.14"/>
</g>
<!-- client&#45;&gt;store -->
<g id="edge23" class="edge">
<title>client&#45;&gt;store</title>
<path fill="none" stroke="black" d="M350.55,-894.21C417.05,-854.24 587.14,-750.42 602.75,-725 674.43,-608.32 589.93,-546.94 638.75,-419 643.84,-405.65 652.29,-392.46 660.54,-381.48"/>
<polygon fill="black" stroke="black" points="663.28,-383.67 666.72,-373.64 657.78,-379.33 663.28,-383.67"/>
</g>
<!-- pure -->
<g id="node37" class="node">
<title>pure</title>
<polygon fill="#ffd6d6" stroke="black" points="1220.25,-1898 1166.25,-1898 1166.25,-1862 1220.25,-1862 1220.25,-1898"/>
<text text-anchor="middle" x="1193.25" y="-1875.7" font-family="sans-serif" font-size="14.00">pure</text>
</g>
<!-- core&#45;&gt;pure -->
<g id="edge24" class="edge">
<title>core&#45;&gt;pure</title>
<path fill="none" stroke="black" d="M1004.82,-1913.34C1042.38,-1906.66 1111.73,-1894.32 1154.72,-1886.68"/>
<polygon fill="black" stroke="black" points="1155.12,-1890.16 1164.35,-1884.96 1153.89,-1883.27 1155.12,-1890.16"/>
</g>
<!-- pure&#45;eval -->
<g id="node38" class="node">
<title>pure&#45;eval</title>
<polygon fill="#ffd6d6" stroke="black" points="1130.25,-1806 1050.5,-1806 1050.5,-1770 1130.25,-1770 1130.25,-1806"/>
<text text-anchor="middle" x="1090.38" y="-1783.7" font-family="sans-serif" font-size="14.00">pure&#45;eval</text>
</g>
<!-- core&#45;&gt;pure&#45;eval -->
<g id="edge25" class="edge">
<title>core&#45;&gt;pure&#45;eval</title>
<path fill="none" stroke="black" d="M990.11,-1899.62C1003.36,-1879.1 1026.44,-1845.45 1050.5,-1820 1052.44,-1817.94 1054.52,-1815.9 1056.66,-1813.89"/>
<polygon fill="black" stroke="black" points="1058.81,-1816.65 1063.97,-1807.4 1054.17,-1811.42 1058.81,-1816.65"/>
</g>
<!-- core&#45;&gt;types -->
<g id="edge26" class="edge">
<title>core&#45;&gt;types</title>
<path fill="none" stroke="black" d="M1005.09,-1906.13C1018.6,-1900.18 1035.34,-1893 1050.5,-1887 1184.5,-1834 1224.52,-1837.08 1355.5,-1777 1364.05,-1773.08 1372.99,-1768.4 1381.34,-1763.76"/>
<polygon fill="black" stroke="black" points="1382.88,-1766.9 1389.84,-1758.91 1379.42,-1760.82 1382.88,-1766.9"/>
</g>
<!-- core&#45;test&#45;guest -->
<g id="node7" class="node">
<title>core&#45;test&#45;guest</title>
<polygon fill="none" stroke="black" points="121,-1005 0,-1005 0,-969 121,-969 121,-1005"/>
<text text-anchor="middle" x="60.5" y="-982.7" font-family="sans-serif" font-size="14.00">core&#45;test&#45;guest</text>
</g>
<!-- crypto&#45;sig -->
<g id="node8" class="node">
<title>crypto&#45;sig</title>
<polygon fill="none" stroke="black" points="241.25,-128 157,-128 157,-92 241.25,-92 241.25,-128"/>
<text text-anchor="middle" x="199.12" y="-105.7" font-family="sans-serif" font-size="14.00">crypto&#45;sig</text>
</g>
<!-- egglog -->
<g id="node9" class="node">
<title>egglog</title>
<polygon fill="none" stroke="black" points="866.88,-1508 805.88,-1508 805.88,-1472 866.88,-1472 866.88,-1508"/>
<text text-anchor="middle" x="836.38" y="-1485.7" font-family="sans-serif" font-size="14.00">egglog</text>
</g>
<!-- egglog&#45;&gt;sexp -->
<g id="edge27" class="edge">
<title>egglog&#45;&gt;sexp</title>
<path fill="none" stroke="black" d="M867.22,-1480.83C880,-1475.73 894.34,-1468.29 904.75,-1458 938.39,-1424.74 958.68,-1372.54 968.75,-1340.12"/>
<polygon fill="black" stroke="black" points="972.09,-1341.17 971.58,-1330.59 965.38,-1339.18 972.09,-1341.17"/>
</g>
<!-- egglog&#45;&gt;types -->
<g id="edge28" class="edge">
<title>egglog&#45;&gt;types</title>
<path fill="none" stroke="black" d="M867.24,-1490.78C914.42,-1491.94 1009.08,-1494 1089.38,-1494 1089.38,-1494 1089.38,-1494 1194.25,-1494 1266.99,-1494 1301.49,-1473.28 1355.5,-1522 1410.12,-1571.27 1418.14,-1664.53 1418.42,-1712.25"/>
<polygon fill="black" stroke="black" points="1414.92,-1712.08 1418.35,-1722.1 1421.92,-1712.13 1414.92,-1712.08"/>
</g>
<!-- forsp -->
<g id="node10" class="node">
<title>forsp</title>
<polygon fill="none" stroke="black" points="465.5,-1264 411.5,-1264 411.5,-1228 465.5,-1228 465.5,-1264"/>
<text text-anchor="middle" x="438.5" y="-1241.7" font-family="sans-serif" font-size="14.00">forsp</text>
</g>
<!-- forsp&#45;&gt;hash -->
<g id="edge29" class="edge">
<title>forsp&#45;&gt;hash</title>
<path fill="none" stroke="black" d="M465.66,-1241.87C522.67,-1231.48 658.83,-1198.92 732,-1116 813.55,-1023.59 830.78,-868.6 834.41,-803.85"/>
<polygon fill="black" stroke="black" points="837.9,-804.16 834.89,-794 830.91,-803.82 837.9,-804.16"/>
</g>
<!-- repl&#45;core -->
<g id="node43" class="node">
<title>repl&#45;core</title>
<polygon fill="none" stroke="black" points="594.5,-1410 516.25,-1410 516.25,-1374 594.5,-1374 594.5,-1410"/>
<text text-anchor="middle" x="555.38" y="-1387.7" font-family="sans-serif" font-size="14.00">repl&#45;core</text>
</g>
<!-- forsp&#45;&gt;repl&#45;core -->
<g id="edge30" class="edge">
<title>forsp&#45;&gt;repl&#45;core</title>
<path fill="none" stroke="black" d="M460.38,-1264.21C464.56,-1268.47 468.67,-1273.18 472,-1278 494.59,-1310.77 482.66,-1329.31 508,-1360 509.8,-1362.18 511.78,-1364.27 513.88,-1366.27"/>
<polygon fill="black" stroke="black" points="511.4,-1368.75 521.29,-1372.53 515.91,-1363.41 511.4,-1368.75"/>
</g>
<!-- forsp&#45;&gt;sexp -->
<g id="edge31" class="edge">
<title>forsp&#45;&gt;sexp</title>
<path fill="none" stroke="black" d="M466,-1249.14C537.06,-1257.59 737.8,-1281.5 904.75,-1302 915.96,-1303.38 928.15,-1304.89 939.25,-1306.29"/>
<polygon fill="black" stroke="black" points="938.48,-1309.72 948.84,-1307.49 939.35,-1302.77 938.48,-1309.72"/>
</g>
<!-- fuse&#45;&gt;hash -->
<g id="edge32" class="edge">
<title>fuse&#45;&gt;hash</title>
<path fill="none" stroke="black" d="M582.87,-822.87C632.76,-813.22 740.73,-792.32 797.98,-781.24"/>
<polygon fill="black" stroke="black" points="798.41,-784.72 807.57,-779.38 797.08,-777.85 798.41,-784.72"/>
</g>
<!-- fuse&#45;&gt;object -->
<g id="edge33" class="edge">
<title>fuse&#45;&gt;object</title>
<path fill="none" stroke="black" d="M582.83,-844.42C589.6,-849.11 596.68,-854.46 602.75,-860 626.32,-881.53 649.23,-909.89 664.75,-930.56"/>
<polygon fill="black" stroke="black" points="661.88,-932.57 670.64,-938.53 667.51,-928.41 661.88,-932.57"/>
</g>
<!-- fuse&#45;&gt;store -->
<g id="edge34" class="edge">
<title>fuse&#45;&gt;store</title>
<path fill="none" stroke="black" d="M582.5,-815.61C590.28,-810.62 597.99,-804.1 602.75,-796 687.99,-650.86 580.46,-576.9 638.75,-419 643.7,-405.59 652.12,-392.39 660.39,-381.42"/>
<polygon fill="black" stroke="black" points="663.12,-383.61 666.58,-373.59 657.63,-379.26 663.12,-383.61"/>
</g>
<!-- git&#45;&gt;hash -->
<g id="edge35" class="edge">
<title>git&#45;&gt;hash</title>
<path fill="none" stroke="black" d="M465.82,-526.95C498.83,-543.62 556.69,-574.22 602.75,-606 619.89,-617.83 620.9,-625.28 638.75,-636 677.12,-659.04 694.51,-649.55 732,-674 763.25,-694.38 793.24,-725.04 812.79,-747.03"/>
<polygon fill="black" stroke="black" points="810.04,-749.21 819.26,-754.44 815.32,-744.6 810.04,-749.21"/>
</g>
<!-- git&#45;&gt;object -->
<g id="edge36" class="edge">
<title>git&#45;&gt;object</title>
<path fill="none" stroke="black" d="M450.76,-532.36C457.99,-545.02 466.95,-562.47 472,-579 508.16,-697.3 439.59,-751.93 508,-855 540.33,-903.71 604.18,-932.4 645.54,-946.66"/>
<polygon fill="black" stroke="black" points="644.27,-949.93 654.87,-949.74 646.47,-943.28 644.27,-949.93"/>
</g>
<!-- sqlite -->
<g id="node50" class="node">
<title>sqlite</title>
<polygon fill="none" stroke="black" points="863.38,-357 809.38,-357 809.38,-321 863.38,-321 863.38,-357"/>
<text text-anchor="middle" x="836.38" y="-334.7" font-family="sans-serif" font-size="14.00">sqlite</text>
</g>
<!-- git&#45;&gt;sqlite -->
<g id="edge37" class="edge">
<title>git&#45;&gt;sqlite</title>
<path fill="none" stroke="black" d="M465.7,-500.91C503.59,-482.12 576,-446.72 638.75,-419 679.69,-400.92 691.44,-399.91 732,-381 748.4,-373.35 751.39,-369.17 768,-362 777.65,-357.84 788.32,-353.9 798.27,-350.51"/>
<polygon fill="black" stroke="black" points="799.27,-353.86 807.66,-347.39 797.07,-347.21 799.27,-353.86"/>
</g>
<!-- git&#45;&gt;store -->
<g id="edge38" class="edge">
<title>git&#45;&gt;store</title>
<path fill="none" stroke="black" d="M458.27,-495.67C477.58,-476.84 505.24,-450 508,-448 552.97,-415.33 610.72,-386.74 647.65,-369.92"/>
<polygon fill="black" stroke="black" points="648.88,-373.2 656.56,-365.91 646.01,-366.82 648.88,-373.2"/>
</g>
<!-- grammar -->
<g id="node13" class="node">
<title>grammar</title>
<polygon fill="none" stroke="black" points="1014.5,-1619 940.75,-1619 940.75,-1583 1014.5,-1583 1014.5,-1619"/>
<text text-anchor="middle" x="977.62" y="-1596.7" font-family="sans-serif" font-size="14.00">grammar</text>
</g>
<!-- graph -->
<g id="node14" class="node">
<title>graph</title>
<polygon fill="none" stroke="black" points="465.5,-624 411.5,-624 411.5,-588 465.5,-588 465.5,-624"/>
<text text-anchor="middle" x="438.5" y="-601.7" font-family="sans-serif" font-size="14.00">graph</text>
</g>
<!-- graph&#45;&gt;hash -->
<g id="edge39" class="edge">
<title>graph&#45;&gt;hash</title>
<path fill="none" stroke="black" d="M465.95,-606.5C499.6,-608.15 558.65,-614.51 602.75,-638 622.72,-648.64 620.44,-660.71 638.75,-674 642.33,-676.6 742.99,-727.45 798.86,-755.61"/>
<polygon fill="black" stroke="black" points="797.21,-758.7 807.71,-760.07 800.36,-752.45 797.21,-758.7"/>
</g>
<!-- parse -->
<g id="node34" class="node">
<title>parse</title>
<polygon fill="none" stroke="black" points="1117.38,-762 1063.38,-762 1063.38,-726 1117.38,-726 1117.38,-762"/>
<text text-anchor="middle" x="1090.38" y="-739.7" font-family="sans-serif" font-size="14.00">parse</text>
</g>
<!-- graph&#45;&gt;parse -->
<g id="edge40" class="edge">
<title>graph&#45;&gt;parse</title>
<path fill="none" stroke="black" d="M465.81,-588.72C502.67,-565.65 572.59,-525.97 638.75,-511 754.24,-484.88 789.78,-497.65 904.75,-526 956.1,-538.66 976.85,-534.86 1014.5,-572 1054.77,-611.73 1074.87,-676.73 1083.62,-714.42"/>
<polygon fill="black" stroke="black" points="1080.2,-715.13 1085.75,-724.15 1087.03,-713.63 1080.2,-715.13"/>
</g>
<!-- rand -->
<g id="node41" class="node">
<title>rand</title>
<polygon fill="none" stroke="black" points="1004.62,-792 950.62,-792 950.62,-756 1004.62,-756 1004.62,-792"/>
<text text-anchor="middle" x="977.62" y="-769.7" font-family="sans-serif" font-size="14.00">rand</text>
</g>
<!-- hash&#45;&gt;rand -->
<g id="edge41" class="edge">
<title>hash&#45;&gt;rand</title>
<path fill="none" stroke="black" d="M863.57,-774C884.86,-774 915.19,-774 939.07,-774"/>
<polygon fill="black" stroke="black" points="939.04,-777.5 949.04,-774 939.04,-770.5 939.04,-777.5"/>
</g>
<!-- haskell -->
<g id="node16" class="node">
<title>haskell</title>
<polygon fill="none" stroke="black" points="469.75,-1808 407.25,-1808 407.25,-1772 469.75,-1772 469.75,-1808"/>
<text text-anchor="middle" x="438.5" y="-1785.7" font-family="sans-serif" font-size="14.00">haskell</text>
</g>
<!-- hol&#45;api -->
<g id="node18" class="node">
<title>hol&#45;api</title>
<polygon fill="none" stroke="black" points="586.62,-1854 524.12,-1854 524.12,-1818 586.62,-1818 586.62,-1854"/>
<text text-anchor="middle" x="555.38" y="-1831.7" font-family="sans-serif" font-size="14.00">hol&#45;api</text>
</g>
<!-- haskell&#45;&gt;hol&#45;api -->
<g id="edge42" class="edge">
<title>haskell&#45;&gt;hol&#45;api</title>
<path fill="none" stroke="black" d="M469.98,-1802.21C483.22,-1807.51 498.94,-1813.8 513.2,-1819.51"/>
<polygon fill="black" stroke="black" points="511.76,-1822.71 522.34,-1823.17 514.36,-1816.21 511.76,-1822.71"/>
</g>
<!-- haskell&#45;&gt;hol&#45;eval -->
<g id="edge43" class="edge">
<title>haskell&#45;&gt;hol&#45;eval</title>
<path fill="none" stroke="black" d="M470.23,-1789.84C539.49,-1789.49 708.07,-1788.64 789.65,-1788.23"/>
<polygon fill="black" stroke="black" points="789.54,-1791.73 799.52,-1788.18 789.5,-1784.73 789.54,-1791.73"/>
</g>
<!-- haskell&#45;&gt;init -->
<g id="edge44" class="edge">
<title>haskell&#45;&gt;init</title>
<path fill="none" stroke="black" d="M443.61,-1771.74C453.61,-1729.02 480.42,-1624.56 508,-1603 547.36,-1572.23 607.66,-1572.83 646.55,-1577.39"/>
<polygon fill="black" stroke="black" points="646.02,-1580.85 656.39,-1578.71 646.94,-1573.91 646.02,-1580.85"/>
</g>
<!-- haskell&#45;&gt;types -->
<g id="edge45" class="edge">
<title>haskell&#45;&gt;types</title>
<path fill="none" stroke="black" d="M446.12,-1808.23C476.61,-1888.68 611.74,-2208 835.38,-2208 835.38,-2208 835.38,-2208 1194.25,-2208 1277.66,-2208 1308.41,-2180.84 1355.5,-2112 1393.55,-2056.38 1410.59,-1848.93 1415.73,-1771.44"/>
<polygon fill="black" stroke="black" points="1419.21,-1771.88 1416.36,-1761.67 1412.23,-1771.43 1419.21,-1771.88"/>
</g>
<!-- hol&#45;&gt;core -->
<g id="edge46" class="edge">
<title>hol&#45;&gt;core</title>
<path fill="none" stroke="black" d="M863.57,-1961.84C885.16,-1953.47 916.02,-1941.5 940.05,-1932.18"/>
<polygon fill="black" stroke="black" points="941.08,-1935.54 949.14,-1928.66 938.55,-1929.01 941.08,-1935.54"/>
</g>
<!-- hol&#45;api&#45;&gt;core -->
<g id="edge47" class="edge">
<title>hol&#45;api&#45;&gt;core</title>
<path fill="none" stroke="black" d="M572.11,-1854.39C604.42,-1890.53 682.39,-1969.85 768,-1999 825.53,-2018.59 849.32,-2023.92 904.75,-1999 928.88,-1988.15 948.2,-1964.76 960.7,-1945.89"/>
<polygon fill="black" stroke="black" points="963.6,-1947.86 965.97,-1937.53 957.68,-1944.13 963.6,-1947.86"/>
</g>
<!-- hol&#45;api&#45;&gt;hol&#45;eval -->
<g id="edge48" class="edge">
<title>hol&#45;api&#45;&gt;hol&#45;eval</title>
<path fill="none" stroke="black" d="M587.03,-1830.73C636.16,-1822.27 732.81,-1805.65 789.97,-1795.81"/>
<polygon fill="black" stroke="black" points="790.44,-1799.28 799.7,-1794.14 789.25,-1792.38 790.44,-1799.28"/>
</g>
<!-- inductive -->
<g id="node20" class="node">
<title>inductive</title>
<polygon fill="none" stroke="black" points="874.75,-1898 798,-1898 798,-1862 874.75,-1862 874.75,-1898"/>
<text text-anchor="middle" x="836.38" y="-1875.7" font-family="sans-serif" font-size="14.00">inductive</text>
</g>
<!-- hol&#45;api&#45;&gt;inductive -->
<g id="edge49" class="edge">
<title>hol&#45;api&#45;&gt;inductive</title>
<path fill="none" stroke="black" d="M587.03,-1840.83C635.1,-1848.42 728.66,-1863.17 786.22,-1872.25"/>
<polygon fill="black" stroke="black" points="785.66,-1875.7 796.08,-1873.8 786.75,-1868.79 785.66,-1875.7"/>
</g>
<!-- hol&#45;api&#45;&gt;init -->
<g id="edge50" class="edge">
<title>hol&#45;api&#45;&gt;init</title>
<path fill="none" stroke="black" d="M565.58,-1817.88C587.58,-1774.57 643.32,-1664.82 669.88,-1612.54"/>
<polygon fill="black" stroke="black" points="672.99,-1614.15 674.4,-1603.65 666.75,-1610.98 672.99,-1614.15"/>
</g>
<!-- hol&#45;api&#45;&gt;pure -->
<g id="edge51" class="edge">
<title>hol&#45;api&#45;&gt;pure</title>
<path fill="none" stroke="black" d="M564.84,-1854.14C593.62,-1912.87 693.86,-2094 835.38,-2094 835.38,-2094 835.38,-2094 978.62,-2094 1082.19,-2094 1153,-1966.91 1180.04,-1908.61"/>
<polygon fill="black" stroke="black" points="1183.17,-1910.18 1184.09,-1899.62 1176.79,-1907.3 1183.17,-1910.18"/>
</g>
<!-- hol&#45;api&#45;&gt;types -->
<g id="edge52" class="edge">
<title>hol&#45;api&#45;&gt;types</title>
<path fill="none" stroke="black" d="M560.42,-1854.25C569.31,-1891.14 593.47,-1975.81 638.75,-2032 705.75,-2115.13 728.61,-2170 835.38,-2170 835.38,-2170 835.38,-2170 1194.25,-2170 1374.28,-2170 1409.37,-1868.64 1416,-1771.67"/>
<polygon fill="black" stroke="black" points="1419.48,-1772.1 1416.61,-1761.9 1412.5,-1771.66 1419.48,-1772.1"/>
</g>
<!-- hol&#45;eval&#45;&gt;core -->
<g id="edge53" class="edge">
<title>hol&#45;eval&#45;&gt;core</title>
<path fill="none" stroke="black" d="M871.8,-1799.41C883.25,-1804.41 895.44,-1811.19 904.75,-1820 929.03,-1842.96 919.98,-1859.83 940.75,-1886 942.31,-1887.97 944,-1889.91 945.76,-1891.81"/>
<polygon fill="black" stroke="black" points="943.19,-1894.19 952.76,-1898.75 948.12,-1889.22 943.19,-1894.19"/>
</g>
<!-- hol&#45;eval&#45;&gt;pure -->
<g id="edge54" class="edge">
<title>hol&#45;eval&#45;&gt;pure</title>
<path fill="none" stroke="black" d="M871.72,-1796.9C938.62,-1814.25 1085.87,-1852.42 1155.01,-1870.35"/>
<polygon fill="black" stroke="black" points="1153.78,-1873.64 1164.34,-1872.76 1155.54,-1866.87 1153.78,-1873.64"/>
</g>
<!-- hol&#45;eval&#45;&gt;pure&#45;eval -->
<g id="edge55" class="edge">
<title>hol&#45;eval&#45;&gt;pure&#45;eval</title>
<path fill="none" stroke="black" d="M871.62,-1788C914.73,-1788 989.13,-1788 1038.79,-1788"/>
<polygon fill="black" stroke="black" points="1038.72,-1791.5 1048.72,-1788 1038.72,-1784.5 1038.72,-1791.5"/>
</g>
<!-- hol&#45;eval&#45;&gt;sexp -->
<g id="edge56" class="edge">
<title>hol&#45;eval&#45;&gt;sexp</title>
<path fill="none" stroke="black" d="M845.12,-1769.71C858.52,-1737.6 886.35,-1668.83 904.75,-1609 934.56,-1512.05 959.82,-1394.29 970.78,-1340.44"/>
<polygon fill="black" stroke="black" points="974.17,-1341.33 972.72,-1330.84 967.31,-1339.95 974.17,-1341.33"/>
</g>
<!-- hol&#45;eval&#45;&gt;types -->
<g id="edge57" class="edge">
<title>hol&#45;eval&#45;&gt;types</title>
<path fill="none" stroke="black" d="M871.66,-1777.68C919.81,-1764.11 1010.44,-1742 1089.38,-1742 1089.38,-1742 1089.38,-1742 1194.25,-1742 1259.4,-1742 1335.24,-1742 1379.65,-1742"/>
<polygon fill="black" stroke="black" points="1379.52,-1745.5 1389.52,-1742 1379.52,-1738.5 1379.52,-1745.5"/>
</g>
<!-- init&#45;&gt;core -->
<g id="edge58" class="edge">
<title>init&#45;&gt;core</title>
<path fill="none" stroke="black" d="M698.98,-1602.2C713.84,-1622.77 740.07,-1656.45 768,-1680 822.01,-1725.53 857.5,-1708.49 904.75,-1761 938.47,-1798.48 958.9,-1854.47 968.96,-1888.48"/>
<polygon fill="black" stroke="black" points="965.58,-1889.4 971.67,-1898.06 972.32,-1887.49 965.58,-1889.4"/>
</g>
<!-- init&#45;&gt;grammar -->
<g id="edge59" class="edge">
<title>init&#45;&gt;grammar</title>
<path fill="none" stroke="black" d="M712.75,-1594.26C728.51,-1599.84 749.09,-1606.17 768,-1609 822.88,-1617.22 886.74,-1612.74 929.21,-1607.82"/>
<polygon fill="black" stroke="black" points="929.59,-1611.3 939.09,-1606.61 928.74,-1604.35 929.59,-1611.3"/>
</g>
<!-- init&#45;&gt;hash -->
<g id="edge60" class="edge">
<title>init&#45;&gt;hash</title>
<path fill="none" stroke="black" d="M702.99,-1565.54C713.21,-1553.05 725.55,-1535.66 732,-1518 789.46,-1360.73 744.94,-1308.84 768,-1143 785.69,-1015.75 816.13,-865.48 829.16,-803.25"/>
<polygon fill="black" stroke="black" points="832.51,-804.33 831.14,-793.82 825.66,-802.89 832.51,-804.33"/>
</g>
<!-- init&#45;&gt;hol -->
<g id="edge61" class="edge">
<title>init&#45;&gt;hol</title>
<path fill="none" stroke="black" d="M687.52,-1602.46C691.41,-1654.03 707.51,-1802.67 768,-1907 776.53,-1921.71 789.34,-1935.25 801.5,-1946.12"/>
<polygon fill="black" stroke="black" points="799.16,-1948.72 809.03,-1952.56 803.71,-1943.4 799.16,-1948.72"/>
</g>
<!-- init&#45;&gt;hol&#45;eval -->
<g id="edge62" class="edge">
<title>init&#45;&gt;hol&#45;eval</title>
<path fill="none" stroke="black" d="M698.32,-1602.44C708.09,-1617.96 721.88,-1640.93 732,-1662 751.36,-1702.33 737.62,-1723.16 768,-1756 774.31,-1762.83 782.39,-1768.34 790.74,-1772.74"/>
<polygon fill="black" stroke="black" points="789.05,-1775.81 799.59,-1776.92 792.04,-1769.49 789.05,-1775.81"/>
</g>
<!-- init&#45;&gt;inductive -->
<g id="edge63" class="edge">
<title>init&#45;&gt;inductive</title>
<path fill="none" stroke="black" d="M689.84,-1602.36C698.17,-1643.21 722.1,-1743.63 768,-1815 777.34,-1829.52 790.53,-1843.18 802.76,-1854.2"/>
<polygon fill="black" stroke="black" points="800.44,-1856.82 810.29,-1860.73 805.03,-1851.53 800.44,-1856.82"/>
</g>
<!-- metamath -->
<g id="node29" class="node">
<title>metamath</title>
<polygon fill="none" stroke="black" points="876.62,-1188 796.12,-1188 796.12,-1152 876.62,-1152 876.62,-1188"/>
<text text-anchor="middle" x="836.38" y="-1165.7" font-family="sans-serif" font-size="14.00">metamath</text>
</g>
<!-- init&#45;&gt;metamath -->
<g id="edge64" class="edge">
<title>init&#45;&gt;metamath</title>
<path fill="none" stroke="black" d="M701.44,-1565.63C711.27,-1552.9 723.75,-1535.21 732,-1518 759.86,-1459.85 809.22,-1272.35 827.92,-1199.41"/>
<polygon fill="black" stroke="black" points="831.29,-1200.36 830.37,-1189.8 824.51,-1198.63 831.29,-1200.36"/>
</g>
<!-- init&#45;&gt;sexp -->
<g id="edge65" class="edge">
<title>init&#45;&gt;sexp</title>
<path fill="none" stroke="black" d="M699.28,-1565.59C708.49,-1552.4 721.11,-1534.18 732,-1518 748.31,-1493.76 744.71,-1480.63 768,-1463 818.8,-1424.55 853.89,-1458.37 904.75,-1420 932.49,-1399.07 952.79,-1364.12 964.6,-1339.44"/>
<polygon fill="black" stroke="black" points="967.66,-1341.17 968.65,-1330.62 961.3,-1338.24 967.66,-1341.17"/>
</g>
<!-- spectec -->
<g id="node49" class="node">
<title>spectec</title>
<polygon fill="none" stroke="black" points="871,-1600 801.75,-1600 801.75,-1564 871,-1564 871,-1600"/>
<text text-anchor="middle" x="836.38" y="-1577.7" font-family="sans-serif" font-size="14.00">spectec</text>
</g>
<!-- init&#45;&gt;spectec -->
<g id="edge66" class="edge">
<title>init&#45;&gt;spectec</title>
<path fill="none" stroke="black" d="M712.67,-1583.65C734.12,-1583.36 764.9,-1582.95 790.27,-1582.61"/>
<polygon fill="black" stroke="black" points="790.02,-1586.11 799.98,-1582.48 789.93,-1579.11 790.02,-1586.11"/>
</g>
<!-- init&#45;&gt;types -->
<g id="edge67" class="edge">
<title>init&#45;&gt;types</title>
<path fill="none" stroke="black" d="M712.78,-1599.57C728.39,-1608.18 748.8,-1618.43 768,-1625 857.4,-1655.6 882.13,-1666 976.62,-1666 976.62,-1666 976.62,-1666 1194.25,-1666 1266.71,-1666 1289.42,-1660.27 1355.5,-1690 1369.11,-1696.12 1382.1,-1706.12 1392.65,-1715.72"/>
<polygon fill="black" stroke="black" points="1390.15,-1718.18 1399.79,-1722.56 1394.98,-1713.12 1390.15,-1718.18"/>
</g>
<!-- json -->
<g id="node22" class="node">
<title>json</title>
<polygon fill="none" stroke="black" points="863.38,-280 809.38,-280 809.38,-244 863.38,-244 863.38,-280"/>
<text text-anchor="middle" x="836.38" y="-257.7" font-family="sans-serif" font-size="14.00">json</text>
</g>
<!-- kernel -->
<g id="node23" class="node">
<title>kernel</title>
<polygon fill="none" stroke="black" points="584,-1318 526.75,-1318 526.75,-1282 584,-1282 584,-1318"/>
<text text-anchor="middle" x="555.38" y="-1295.7" font-family="sans-serif" font-size="14.00">kernel</text>
</g>
<!-- kernel&#45;&gt;hash -->
<g id="edge68" class="edge">
<title>kernel&#45;&gt;hash</title>
<path fill="none" stroke="black" d="M584.39,-1284.33C623.44,-1261.03 693.72,-1213.53 732,-1154 806.15,-1038.69 827.56,-870.88 833.36,-803.56"/>
<polygon fill="black" stroke="black" points="836.84,-803.95 834.15,-793.7 829.86,-803.39 836.84,-803.95"/>
</g>
<!-- kernel&#45;&gt;init -->
<g id="edge69" class="edge">
<title>kernel&#45;&gt;init</title>
<path fill="none" stroke="black" d="M584.48,-1314.28C591.4,-1319.04 598.15,-1324.96 602.75,-1332 648.82,-1402.48 606.11,-1440.38 638.75,-1518 644.49,-1531.64 653.32,-1545.33 661.69,-1556.68"/>
<polygon fill="black" stroke="black" points="658.75,-1558.6 667.62,-1564.4 664.31,-1554.34 658.75,-1558.6"/>
</g>
<!-- kernel&#45;&gt;object -->
<g id="edge70" class="edge">
<title>kernel&#45;&gt;object</title>
<path fill="none" stroke="black" d="M563.26,-1281.61C584.31,-1225.36 647.97,-1055.28 673.55,-986.91"/>
<polygon fill="black" stroke="black" points="676.7,-988.49 676.93,-977.9 670.15,-986.03 676.7,-988.49"/>
</g>
<!-- kernel&#45;&gt;sexp -->
<g id="edge71" class="edge">
<title>kernel&#45;&gt;sexp</title>
<path fill="none" stroke="black" d="M584.27,-1300.73C657.57,-1302.65 855.66,-1307.83 938.94,-1310.01"/>
<polygon fill="black" stroke="black" points="938.76,-1313.51 948.85,-1310.27 938.95,-1306.51 938.76,-1313.51"/>
</g>
<!-- kernel&#45;&gt;store -->
<g id="edge72" class="edge">
<title>kernel&#45;&gt;store</title>
<path fill="none" stroke="black" d="M558.41,-1281.79C565.17,-1221.2 587.26,-1020.89 602.75,-855 611.79,-758.2 605.67,-510.42 638.75,-419 643.61,-405.56 652.02,-392.35 660.3,-381.39"/>
<polygon fill="black" stroke="black" points="663.03,-383.57 666.51,-373.57 657.55,-379.22 663.03,-383.57"/>
</g>
<!-- kv -->
<g id="node24" class="node">
<title>kv</title>
<polygon fill="none" stroke="black" points="226.12,-372 172.12,-372 172.12,-336 226.12,-336 226.12,-372"/>
<text text-anchor="middle" x="199.12" y="-349.7" font-family="sans-serif" font-size="14.00">kv</text>
</g>
<!-- lean -->
<g id="node25" class="node">
<title>lean</title>
<polygon fill="none" stroke="black" points="87.5,-1059 33.5,-1059 33.5,-1023 87.5,-1023 87.5,-1059"/>
<text text-anchor="middle" x="60.5" y="-1036.7" font-family="sans-serif" font-size="14.00">lean</text>
</g>
<!-- lisp -->
<g id="node26" class="node">
<title>lisp</title>
<polygon fill="none" stroke="black" points="465.5,-1648 411.5,-1648 411.5,-1612 465.5,-1612 465.5,-1648"/>
<text text-anchor="middle" x="438.5" y="-1625.7" font-family="sans-serif" font-size="14.00">lisp</text>
</g>
<!-- lisp&#45;&gt;core -->
<g id="edge73" class="edge">
<title>lisp&#45;&gt;core</title>
<path fill="none" stroke="black" d="M453.68,-1648.43C495.17,-1700.68 622.59,-1849.72 768,-1907 824.29,-1929.17 895.81,-1927.12 938.8,-1923"/>
<polygon fill="black" stroke="black" points="939.06,-1926.49 948.63,-1921.96 938.32,-1919.53 939.06,-1926.49"/>
</g>
<!-- lisp&#45;&gt;hol&#45;api -->
<g id="edge74" class="edge">
<title>lisp&#45;&gt;hol&#45;api</title>
<path fill="none" stroke="black" d="M447.92,-1648.4C460.22,-1674.89 484.25,-1725.07 508,-1766 516.34,-1780.37 526.44,-1795.81 535.09,-1808.53"/>
<polygon fill="black" stroke="black" points="531.96,-1810.16 540.5,-1816.42 537.73,-1806.19 531.96,-1810.16"/>
</g>
<!-- lisp&#45;&gt;hol&#45;eval -->
<g id="edge75" class="edge">
<title>lisp&#45;&gt;hol&#45;eval</title>
<path fill="none" stroke="black" d="M465.78,-1640.49C532.22,-1667.01 707.5,-1736.96 790.53,-1770.1"/>
<polygon fill="black" stroke="black" points="789.15,-1773.32 799.73,-1773.77 791.74,-1766.82 789.15,-1773.32"/>
</g>
<!-- lisp&#45;&gt;init -->
<g id="edge76" class="edge">
<title>lisp&#45;&gt;init</title>
<path fill="none" stroke="black" d="M453.84,-1611.66C466.36,-1597.26 485.95,-1578.29 508,-1570 553.73,-1552.8 610.71,-1562.38 647.32,-1572.1"/>
<polygon fill="black" stroke="black" points="645.96,-1575.35 656.53,-1574.68 647.85,-1568.61 645.96,-1575.35"/>
</g>
<!-- lisp&#45;&gt;repl&#45;core -->
<g id="edge77" class="edge">
<title>lisp&#45;&gt;repl&#45;core</title>
<path fill="none" stroke="black" d="M446.34,-1611.81C453.1,-1593.7 463.6,-1565.04 472,-1540 489.17,-1488.82 476.03,-1467.5 508,-1424 509.51,-1421.95 511.18,-1419.99 512.99,-1418.11"/>
<polygon fill="black" stroke="black" points="515.26,-1420.78 520.38,-1411.5 510.59,-1415.56 515.26,-1420.78"/>
</g>
<!-- lisp&#45;&gt;sexp -->
<g id="edge78" class="edge">
<title>lisp&#45;&gt;sexp</title>
<path fill="none" stroke="black" d="M452.75,-1611.62C489.41,-1561.2 592.47,-1422.34 638.75,-1390 688.73,-1355.07 708.91,-1359.05 768,-1344 826.83,-1329.02 896.81,-1319.61 938.93,-1314.84"/>
<polygon fill="black" stroke="black" points="939.23,-1318.32 948.79,-1313.75 938.46,-1311.37 939.23,-1318.32"/>
</g>
<!-- llm -->
<g id="node27" class="node">
<title>llm</title>
<polygon fill="none" stroke="black" points="226.12,-1062 172.12,-1062 172.12,-1026 226.12,-1026 226.12,-1062"/>
<text text-anchor="middle" x="199.12" y="-1039.7" font-family="sans-serif" font-size="14.00">llm</text>
</g>
<!-- llm&#45;&gt;proto -->
<g id="edge79" class="edge">
<title>llm&#45;&gt;proto</title>
<path fill="none" stroke="black" d="M226.6,-1059.62C243.94,-1069.86 266.84,-1083.37 285.87,-1094.61"/>
<polygon fill="black" stroke="black" points="284.01,-1097.57 294.4,-1099.64 287.57,-1091.54 284.01,-1097.57"/>
</g>
<!-- lsp&#45;&gt;sexp -->
<g id="edge80" class="edge">
<title>lsp&#45;&gt;sexp</title>
<path fill="none" stroke="black" d="M851.63,-652.4C867.43,-673.84 892.31,-710.94 904.75,-747 972.25,-942.66 977.39,-1196.19 977.05,-1281.51"/>
<polygon fill="black" stroke="black" points="973.55,-1281.32 976.97,-1291.34 980.55,-1281.37 973.55,-1281.32"/>
</g>
<!-- lsp&#45;&gt;wasm -->
<g id="edge81" class="edge">
<title>lsp&#45;&gt;wasm</title>
<path fill="none" stroke="black" d="M863.85,-629.86C878.1,-626.24 894.76,-619.5 904.75,-607 956.83,-541.84 971.93,-277.87 975.59,-188.64"/>
<polygon fill="black" stroke="black" points="979.09,-188.89 975.98,-178.76 972.09,-188.62 979.09,-188.89"/>
</g>
<!-- metamath&#45;&gt;parse -->
<g id="edge82" class="edge">
<title>metamath&#45;&gt;parse</title>
<path fill="none" stroke="black" d="M850.79,-1151.81C881.73,-1109.46 959.63,-1000.42 1014.5,-903 1039.41,-858.77 1063.57,-804.87 1077.43,-772.55"/>
<polygon fill="black" stroke="black" points="1080.6,-774.04 1081.3,-763.46 1074.16,-771.3 1080.6,-774.04"/>
</g>
<!-- metamath&#45;&gt;sexp -->
<g id="edge83" class="edge">
<title>metamath&#45;&gt;sexp</title>
<path fill="none" stroke="black" d="M876.98,-1184.43C886.7,-1189.11 896.64,-1194.95 904.75,-1202 930.56,-1224.44 950.92,-1258.3 963.28,-1282.31"/>
<polygon fill="black" stroke="black" points="960.13,-1283.83 967.71,-1291.22 966.39,-1280.71 960.13,-1283.83"/>
</g>
<!-- multiformat -->
<g id="node30" class="node">
<title>multiformat</title>
<polygon fill="none" stroke="black" points="730.5,-556 640.25,-556 640.25,-520 730.5,-520 730.5,-556"/>
<text text-anchor="middle" x="685.38" y="-533.7" font-family="sans-serif" font-size="14.00">multiformat</text>
</g>
<!-- multiformat&#45;&gt;acset -->
<g id="edge84" class="edge">
<title>multiformat&#45;&gt;acset</title>
<path fill="none" stroke="black" d="M730.68,-550.49C752.25,-556.57 777.88,-563.79 798.39,-569.57"/>
<polygon fill="black" stroke="black" points="797.16,-572.86 807.73,-572.21 799.06,-566.13 797.16,-572.86"/>
</g>
<!-- multiformat&#45;&gt;hash -->
<g id="edge85" class="edge">
<title>multiformat&#45;&gt;hash</title>
<path fill="none" stroke="black" d="M698.49,-556.36C707.74,-570.44 720.78,-590.38 732,-608 762.92,-656.52 798.2,-713.55 818.52,-746.56"/>
<polygon fill="black" stroke="black" points="815.32,-748.02 823.54,-754.7 821.28,-744.35 815.32,-748.02"/>
</g>
<!-- multiformat&#45;&gt;parse -->
<g id="edge86" class="edge">
<title>multiformat&#45;&gt;parse</title>
<path fill="none" stroke="black" d="M730.93,-532.04C776.76,-527.92 849.11,-527.11 904.75,-553 981.95,-588.92 1043.82,-672.37 1072.32,-716.11"/>
<polygon fill="black" stroke="black" points="1069.22,-717.75 1077.55,-724.29 1075.12,-713.98 1069.22,-717.75"/>
</g>
<!-- object&#45;&gt;hash -->
<g id="edge87" class="edge">
<title>object&#45;&gt;hash</title>
<path fill="none" stroke="black" d="M714.19,-940.9C720.4,-936.44 726.7,-931.37 732,-926 737.16,-920.77 788.43,-844.35 816.77,-801.91"/>
<polygon fill="black" stroke="black" points="819.63,-803.93 822.27,-793.67 813.81,-800.04 819.63,-803.93"/>
</g>
<!-- object&#45;&gt;parse -->
<g id="edge88" class="edge">
<title>object&#45;&gt;parse</title>
<path fill="none" stroke="black" d="M714.15,-946.98C771.95,-923.58 908.61,-865.7 1014.5,-801 1029.79,-791.66 1045.72,-779.86 1058.94,-769.42"/>
<polygon fill="black" stroke="black" points="1060.83,-772.39 1066.44,-763.4 1056.45,-766.93 1060.83,-772.39"/>
</g>
<!-- opentheory&#45;&gt;hol -->
<g id="edge89" class="edge">
<title>opentheory&#45;&gt;hol</title>
<path fill="none" stroke="black" d="M368.98,-2037.24C444.29,-2030.6 600.81,-2015.47 732,-1994 754,-1990.4 778.39,-1985.26 797.96,-1980.86"/>
<polygon fill="black" stroke="black" points="798.72,-1984.28 807.69,-1978.64 797.16,-1977.45 798.72,-1984.28"/>
</g>
<!-- parquet -->
<g id="node33" class="node">
<title>parquet</title>
<polygon fill="none" stroke="black" points="472,-754 405,-754 405,-718 472,-718 472,-754"/>
<text text-anchor="middle" x="438.5" y="-731.7" font-family="sans-serif" font-size="14.00">parquet</text>
</g>
<!-- parquet&#45;&gt;arrow -->
<g id="edge90" class="edge">
<title>parquet&#45;&gt;arrow</title>
<path fill="none" stroke="black" d="M472.42,-725.11C486.47,-720.46 502.94,-715.02 517.41,-710.23"/>
<polygon fill="black" stroke="black" points="518.18,-713.66 526.57,-707.2 515.98,-707.01 518.18,-713.66"/>
</g>
<!-- proptest -->
<g id="node35" class="node">
<title>proptest</title>
<polygon fill="none" stroke="black" points="95.88,-1113 25.12,-1113 25.12,-1077 95.88,-1077 95.88,-1113"/>
<text text-anchor="middle" x="60.5" y="-1090.7" font-family="sans-serif" font-size="14.00">proptest</text>
</g>
<!-- pure&#45;trusted -->
<g id="node39" class="node">
<title>pure&#45;trusted</title>
<polygon fill="#ffd6d6" stroke="black" points="1355.5,-1898 1256.25,-1898 1256.25,-1862 1355.5,-1862 1355.5,-1898"/>
<text text-anchor="middle" x="1305.88" y="-1875.7" font-family="sans-serif" font-size="14.00">pure&#45;trusted</text>
</g>
<!-- pure&#45;&gt;pure&#45;trusted -->
<g id="edge91" class="edge">
<title>pure&#45;&gt;pure&#45;trusted</title>
<path fill="none" stroke="black" d="M1220.75,-1880C1228.04,-1880 1236.27,-1880 1244.64,-1880"/>
<polygon fill="black" stroke="black" points="1244.57,-1883.5 1254.57,-1880 1244.57,-1876.5 1244.57,-1883.5"/>
</g>
<!-- pure&#45;eval&#45;&gt;pure -->
<g id="edge92" class="edge">
<title>pure&#45;eval&#45;&gt;pure</title>
<path fill="none" stroke="black" d="M1111.3,-1806.18C1126.27,-1819.82 1146.97,-1838.7 1163.69,-1853.95"/>
<polygon fill="black" stroke="black" points="1161.15,-1856.37 1170.9,-1860.53 1165.87,-1851.2 1161.15,-1856.37"/>
</g>
<!-- pure&#45;eval&#45;&gt;types -->
<g id="edge93" class="edge">
<title>pure&#45;eval&#45;&gt;types</title>
<path fill="none" stroke="black" d="M1130.49,-1784.51C1182.21,-1779.62 1276.08,-1769.74 1355.5,-1756 1363.48,-1754.62 1371.98,-1752.88 1380.05,-1751.1"/>
<polygon fill="black" stroke="black" points="1380.62,-1754.56 1389.59,-1748.93 1379.06,-1747.73 1380.62,-1754.56"/>
</g>
<!-- pure&#45;trusted&#45;&gt;types -->
<g id="edge94" class="edge">
<title>pure&#45;trusted&#45;&gt;types</title>
<path fill="none" stroke="black" d="M1339.38,-1861.64C1345.12,-1857.58 1350.77,-1852.99 1355.5,-1848 1377.19,-1825.14 1394.5,-1793.34 1405.26,-1770.54"/>
<polygon fill="black" stroke="black" points="1408.4,-1772.08 1409.38,-1761.53 1402.04,-1769.17 1408.4,-1772.08"/>
</g>
<!-- python -->
<g id="node40" class="node">
<title>python</title>
<polygon fill="none" stroke="black" points="91.38,-418 29.62,-418 29.62,-382 91.38,-382 91.38,-418"/>
<text text-anchor="middle" x="60.5" y="-395.7" font-family="sans-serif" font-size="14.00">python</text>
</g>
<!-- python&#45;&gt;crypto&#45;sig -->
<g id="edge95" class="edge">
<title>python&#45;&gt;crypto&#45;sig</title>
<path fill="none" stroke="black" d="M64.66,-381.79C73.1,-337.19 99.58,-220.42 157,-142 158.48,-139.98 160.11,-138.03 161.86,-136.15"/>
<polygon fill="black" stroke="black" points="164.09,-138.85 168.94,-129.44 159.28,-133.77 164.09,-138.85"/>
</g>
<!-- python&#45;&gt;git -->
<g id="edge96" class="edge">
<title>python&#45;&gt;git</title>
<path fill="none" stroke="black" d="M78.05,-381.75C95.61,-363.87 125.17,-337.77 157,-327 192.47,-315 205.76,-315.05 241.25,-327 324.39,-354.99 390.5,-441.36 420.31,-486.26"/>
<polygon fill="black" stroke="black" points="417.23,-487.94 425.61,-494.42 423.1,-484.13 417.23,-487.94"/>
</g>
<!-- python&#45;&gt;graph -->
<g id="edge97" class="edge">
<title>python&#45;&gt;graph</title>
<path fill="none" stroke="black" d="M91.75,-411.81C128.02,-426.35 190.3,-452.51 241.25,-480 299.72,-511.55 363.87,-554.42 402.39,-581.14"/>
<polygon fill="black" stroke="black" points="400.16,-583.85 410.37,-586.7 404.17,-578.11 400.16,-583.85"/>
</g>
<!-- python&#45;&gt;hash -->
<g id="edge98" class="edge">
<title>python&#45;&gt;hash</title>
<path fill="none" stroke="black" d="M91.64,-402.81C177.03,-411.83 425.83,-445.62 602.75,-546 663.63,-580.54 681.65,-587.37 732,-636 767.05,-669.86 799.33,-716.46 818.19,-745.91"/>
<polygon fill="black" stroke="black" points="815.17,-747.69 823.47,-754.28 821.09,-743.96 815.17,-747.69"/>
</g>
<!-- python&#45;&gt;kv -->
<g id="edge99" class="edge">
<title>python&#45;&gt;kv</title>
<path fill="none" stroke="black" d="M91.82,-389.79C112.31,-382.89 139.48,-373.75 161.22,-366.43"/>
<polygon fill="black" stroke="black" points="162.23,-369.78 170.6,-363.27 160,-363.14 162.23,-369.78"/>
</g>
<!-- python&#45;&gt;llm -->
<g id="edge100" class="edge">
<title>python&#45;&gt;llm</title>
<path fill="none" stroke="black" d="M61.69,-418.4C63.01,-492.18 73.58,-772.79 157,-983 161.68,-994.79 168.91,-1006.6 176.02,-1016.66"/>
<polygon fill="black" stroke="black" points="173.04,-1018.52 181.8,-1024.48 178.67,-1014.36 173.04,-1018.52"/>
</g>
<!-- python&#45;&gt;object -->
<g id="edge101" class="edge">
<title>python&#45;&gt;object</title>
<path fill="none" stroke="black" d="M69.25,-418.21C93.7,-474.21 173.71,-647.09 277.25,-763 363,-858.99 388.51,-890.15 508,-938 552.66,-955.88 608.44,-959.39 645.17,-959.41"/>
<polygon fill="black" stroke="black" points="644.9,-962.91 654.87,-959.32 644.84,-955.91 644.9,-962.91"/>
</g>
<!-- python&#45;&gt;repl -->
<g id="edge102" class="edge">
<title>python&#45;&gt;repl</title>
<path fill="none" stroke="black" d="M84.59,-418.3C121.3,-448.27 193.65,-510.98 241.25,-576 272.14,-618.19 297.32,-673.92 310.98,-707.24"/>
<polygon fill="black" stroke="black" points="307.61,-708.26 314.59,-716.23 314.11,-705.64 307.61,-708.26"/>
</g>
<!-- sat -->
<g id="node44" class="node">
<title>sat</title>
<polygon fill="none" stroke="black" points="863.38,-449 809.38,-449 809.38,-413 863.38,-413 863.38,-449"/>
<text text-anchor="middle" x="836.38" y="-426.7" font-family="sans-serif" font-size="14.00">sat</text>
</g>
<!-- python&#45;&gt;sat -->
<g id="edge103" class="edge">
<title>python&#45;&gt;sat</title>
<path fill="none" stroke="black" d="M70.16,-381.88C84.33,-354.22 115.14,-301.76 157,-274 220.11,-232.14 246.4,-232 322.12,-232 322.12,-232 322.12,-232 439.5,-232 513.7,-232 533.84,-239.48 602.75,-267 620.16,-273.95 622.01,-280.55 638.75,-289 678.7,-309.18 695.22,-301.5 732,-327 751.39,-340.44 751.5,-349.14 768,-366 780.74,-379.03 795.25,-393.11 807.53,-404.83"/>
<polygon fill="black" stroke="black" points="804.87,-407.13 814.53,-411.48 809.69,-402.05 804.87,-407.13"/>
</g>
<!-- python&#45;&gt;serve -->
<g id="edge104" class="edge">
<title>python&#45;&gt;serve</title>
<path fill="none" stroke="black" d="M66.05,-418.5C86.05,-499.89 166.3,-826.5 190.91,-926.65"/>
<polygon fill="black" stroke="black" points="187.49,-927.37 193.27,-936.24 194.28,-925.7 187.49,-927.37"/>
</g>
<!-- python&#45;&gt;sexp -->
<g id="edge105" class="edge">
<title>python&#45;&gt;sexp</title>
<path fill="none" stroke="black" d="M63.68,-418.49C76.11,-523.65 138.28,-1042.82 157,-1071 191.47,-1122.89 219.37,-1119.97 277.25,-1143 542.65,-1248.62 631.92,-1197.38 904.75,-1282 916.44,-1285.62 928.89,-1290.33 940.09,-1294.9"/>
<polygon fill="black" stroke="black" points="938.41,-1297.99 948.98,-1298.61 941.1,-1291.53 938.41,-1297.99"/>
</g>
<!-- python&#45;&gt;shell -->
<g id="edge106" class="edge">
<title>python&#45;&gt;shell</title>
<path fill="none" stroke="black" d="M63.65,-418.18C76.91,-530.15 147.38,-1121.95 157,-1138 214.73,-1234.3 338.63,-1296.91 400.61,-1323.46"/>
<polygon fill="black" stroke="black" points="399.1,-1326.63 409.68,-1327.27 401.81,-1320.17 399.1,-1326.63"/>
</g>
<!-- python&#45;&gt;store -->
<g id="edge107" class="edge">
<title>python&#45;&gt;store</title>
<path fill="none" stroke="black" d="M76.85,-381.78C94.32,-362.2 124.64,-331.54 157,-314 223.77,-277.8 246.18,-270 322.12,-270 322.12,-270 322.12,-270 439.5,-270 512.97,-270 534.84,-267.95 602.75,-296 620.99,-303.53 622.67,-310.56 638.75,-322 642.1,-324.38 645.6,-326.86 649.1,-329.33"/>
<polygon fill="black" stroke="black" points="646.84,-332.02 657.04,-334.92 650.87,-326.3 646.84,-332.02"/>
</g>
<!-- python&#45;&gt;wasm -->
<g id="edge108" class="edge">
<title>python&#45;&gt;wasm</title>
<path fill="none" stroke="black" d="M60.7,-381.66C59.39,-326.48 63.74,-160.98 157,-83 213.67,-35.61 248.25,-64 322.12,-64 322.12,-64 322.12,-64 686.38,-64 784.01,-64 816.59,-46.03 904.75,-88 925.53,-97.9 943.9,-116.31 956.86,-131.9"/>
<polygon fill="black" stroke="black" points="953.94,-133.84 962.9,-139.49 959.41,-129.48 953.94,-133.84"/>
</g>
<!-- wasm&#45;store -->
<g id="node57" class="node">
<title>wasm&#45;store</title>
<polygon fill="none" stroke="black" points="602.75,-204 508,-204 508,-168 602.75,-168 602.75,-204"/>
<text text-anchor="middle" x="555.38" y="-181.7" font-family="sans-serif" font-size="14.00">wasm&#45;store</text>
</g>
<!-- python&#45;&gt;wasm&#45;store -->
<g id="edge109" class="edge">
<title>python&#45;&gt;wasm&#45;store</title>
<path fill="none" stroke="black" d="M65.03,-381.63C73.41,-343.64 98.35,-256.76 157,-218 260.4,-149.67 413.59,-161.28 496.31,-174.42"/>
<polygon fill="black" stroke="black" points="495.57,-177.85 506.01,-176.03 496.72,-170.94 495.57,-177.85"/>
</g>
<!-- repl&#45;&gt;arrow -->
<g id="edge110" class="edge">
<title>repl&#45;&gt;arrow</title>
<path fill="none" stroke="black" d="M350.27,-725.43C365.89,-719.58 386.28,-712.75 405,-709 442.48,-701.49 486.16,-698.97 516.57,-698.2"/>
<polygon fill="black" stroke="black" points="516.49,-701.7 526.42,-698 516.35,-694.7 516.49,-701.7"/>
</g>
<!-- repl&#45;&gt;forsp -->
<g id="edge111" class="edge">
<title>repl&#45;&gt;forsp</title>
<path fill="none" stroke="black" d="M330.45,-754.38C339.8,-782.04 357.45,-836.1 369,-883 399.18,-1005.6 423.46,-1154.32 433.06,-1216.47"/>
<polygon fill="black" stroke="black" points="429.58,-1216.87 434.55,-1226.22 436.49,-1215.81 429.58,-1216.87"/>
</g>
<!-- repl&#45;&gt;git -->
<g id="edge112" class="edge">
<title>repl&#45;&gt;git</title>
<path fill="none" stroke="black" d="M333.4,-717.83C353.13,-679.21 399.35,-588.7 423,-542.39"/>
<polygon fill="black" stroke="black" points="425.97,-544.26 427.41,-533.77 419.74,-541.08 425.97,-544.26"/>
</g>
<!-- repl&#45;&gt;graph -->
<g id="edge113" class="edge">
<title>repl&#45;&gt;graph</title>
<path fill="none" stroke="black" d="M340.13,-717.65C359.46,-695.49 392.12,-658.03 414.24,-632.68"/>
<polygon fill="black" stroke="black" points="416.65,-635.23 420.58,-625.4 411.37,-630.63 416.65,-635.23"/>
</g>
<!-- repl&#45;&gt;hash -->
<g id="edge114" class="edge">
<title>repl&#45;&gt;hash</title>
<path fill="none" stroke="black" d="M350.57,-747.04C366.12,-752.97 386.34,-759.72 405,-763 548.25,-788.16 722.39,-781.43 797.69,-776.75"/>
<polygon fill="black" stroke="black" points="797.64,-780.26 807.4,-776.12 797.19,-773.27 797.64,-780.26"/>
</g>
<!-- repl&#45;&gt;init -->
<g id="edge115" class="edge">
<title>repl&#45;&gt;init</title>
<path fill="none" stroke="black" d="M329.75,-754.47C360.08,-853.92 502.79,-1321.36 508,-1327 538.78,-1360.34 573.17,-1330.6 602.75,-1365 648.3,-1417.97 610.39,-1454.16 638.75,-1518 644.76,-1531.53 653.64,-1545.19 661.97,-1556.55"/>
<polygon fill="black" stroke="black" points="659.02,-1558.45 667.85,-1564.3 664.59,-1554.22 659.02,-1558.45"/>
</g>
<!-- repl&#45;&gt;object -->
<g id="edge116" class="edge">
<title>repl&#45;&gt;object</title>
<path fill="none" stroke="black" d="M350.29,-753.58C356.57,-758.09 363.15,-763.06 369,-768 435.55,-824.12 433.08,-861.67 508,-906 551.33,-931.63 608.2,-945.42 645.49,-952.22"/>
<polygon fill="black" stroke="black" points="644.45,-955.6 654.9,-953.86 645.65,-948.7 644.45,-955.6"/>
</g>
<!-- repl&#45;&gt;parquet -->
<g id="edge117" class="edge">
<title>repl&#45;&gt;parquet</title>
<path fill="none" stroke="black" d="M350.42,-736C363.22,-736 378.96,-736 393.52,-736"/>
<polygon fill="black" stroke="black" points="393.35,-739.5 403.35,-736 393.35,-732.5 393.35,-739.5"/>
</g>
<!-- repl&#45;&gt;shell -->
<g id="edge118" class="edge">
<title>repl&#45;&gt;shell</title>
<path fill="none" stroke="black" d="M331.02,-754.26C341.11,-781.75 359.68,-835.61 369,-883 402.59,-1053.8 357.25,-1105.61 405,-1273 408.59,-1285.6 414.62,-1298.67 420.51,-1309.75"/>
<polygon fill="black" stroke="black" points="417.38,-1311.33 425.3,-1318.37 423.5,-1307.93 417.38,-1311.33"/>
</g>
<!-- repl&#45;&gt;wasm -->
<g id="edge119" class="edge">
<title>repl&#45;&gt;wasm</title>
<path fill="none" stroke="black" d="M328.58,-717.76C351.8,-623.48 459.67,-194.32 508,-159 575.93,-109.35 840.02,-139.93 938.94,-153.51"/>
<polygon fill="black" stroke="black" points="938.27,-156.95 948.66,-154.86 939.24,-150.02 938.27,-156.95"/>
</g>
<!-- sat&#45;&gt;parse -->
<g id="edge120" class="edge">
<title>sat&#45;&gt;parse</title>
<path fill="none" stroke="black" d="M863.83,-430.34C902.31,-430.86 973.59,-437.7 1014.5,-478 1080.11,-542.64 1089.43,-659.92 1089.98,-714.54"/>
<polygon fill="black" stroke="black" points="1086.48,-714.29 1089.98,-724.3 1093.48,-714.3 1086.48,-714.29"/>
</g>
<!-- sat&#45;&gt;types -->
<g id="edge121" class="edge">
<title>sat&#45;&gt;types</title>
<path fill="none" stroke="black" d="M863.83,-428.39C909.7,-424.09 1006.98,-416 1089.38,-416 1089.38,-416 1089.38,-416 1194.25,-416 1330.38,-416 1403.78,-1516.77 1415.75,-1712.44"/>
<polygon fill="black" stroke="black" points="1412.24,-1712.48 1416.34,-1722.25 1419.23,-1712.06 1412.24,-1712.48"/>
</g>
<!-- sat&#45;&gt;wasm -->
<g id="edge122" class="edge">
<title>sat&#45;&gt;wasm</title>
<path fill="none" stroke="black" d="M863.63,-424.2C877.64,-419.33 894.12,-411.38 904.75,-399 957.63,-337.38 971.61,-238.01 975.3,-188.71"/>
<polygon fill="black" stroke="black" points="978.79,-189.02 975.94,-178.82 971.8,-188.57 978.79,-189.02"/>
</g>
<!-- serve&#45;&gt;core -->
<g id="edge123" class="edge">
<title>serve&#45;&gt;core</title>
<path fill="none" stroke="black" d="M216.36,-974.35C225.43,-985.78 235.95,-1001.26 241.25,-1017 332.14,-1287.01 184.86,-1387.5 277.25,-1657 309.65,-1751.52 335.51,-1770.2 405,-1842 494.88,-1934.88 516.98,-1971.68 638.75,-2015 750.16,-2054.63 799.9,-2075.69 904.75,-2021 934.56,-2005.45 954.53,-1971.27 965.71,-1946.54"/>
<polygon fill="black" stroke="black" points="968.79,-1948.24 969.5,-1937.66 962.35,-1945.49 968.79,-1948.24"/>
</g>
<!-- serve&#45;&gt;git -->
<g id="edge124" class="edge">
<title>serve&#45;&gt;git</title>
<path fill="none" stroke="black" d="M200.98,-937.75C204.05,-888.13 217.79,-748.07 277.25,-652 294.04,-624.86 361.93,-570.94 403.77,-539.13"/>
<polygon fill="black" stroke="black" points="405.72,-542.05 411.58,-533.22 401.49,-536.46 405.72,-542.05"/>
</g>
<!-- serve&#45;&gt;hash -->
<g id="edge125" class="edge">
<title>serve&#45;&gt;hash</title>
<path fill="none" stroke="black" d="M199.81,-937.69C200.1,-891.46 207.75,-769.43 277.25,-709 332.21,-661.22 536.41,-640.96 602.75,-671 624.84,-681 618.44,-698.75 638.75,-712 688.38,-744.37 756.05,-760.8 797.67,-768.37"/>
<polygon fill="black" stroke="black" points="796.99,-771.81 807.44,-770.06 798.19,-764.91 796.99,-771.81"/>
</g>
<!-- serve&#45;&gt;init -->
<g id="edge126" class="edge">
<title>serve&#45;&gt;init</title>
<path fill="none" stroke="black" d="M224.69,-974.42C239.46,-985.01 258.9,-998.14 277.25,-1008 316.13,-1028.89 341.67,-1011.34 369,-1046 432.25,-1126.21 346.81,-1189.04 405,-1273 424.5,-1301.14 450.25,-1284.56 472,-1311 504.14,-1350.08 480.69,-1376.41 508,-1419 545.74,-1477.86 609.15,-1530.05 648.77,-1559.28"/>
<polygon fill="black" stroke="black" points="646.69,-1562.09 656.84,-1565.14 650.81,-1556.43 646.69,-1562.09"/>
</g>
<!-- serve&#45;&gt;metamath -->
<g id="edge127" class="edge">
<title>serve&#45;&gt;metamath</title>
<path fill="none" stroke="black" d="M226.53,-964.26C241.42,-968.9 260.36,-974.8 277.25,-980 317.99,-992.56 331.98,-986.85 369,-1008 387.85,-1018.77 386.13,-1030.28 405,-1041 530.99,-1112.57 700.75,-1148.2 784.41,-1162.36"/>
<polygon fill="black" stroke="black" points="783.7,-1165.79 794.14,-1163.97 784.85,-1158.88 783.7,-1165.79"/>
</g>
<!-- serve&#45;&gt;object -->
<g id="edge128" class="edge">
<title>serve&#45;&gt;object</title>
<path fill="none" stroke="black" d="M226.59,-954.05C261.51,-952.69 323.85,-954.56 369,-980 391.01,-992.4 382.17,-1013.18 405,-1024 431.91,-1036.75 442.33,-1026.48 472,-1024 530.72,-1019.09 547.01,-1021.13 602.75,-1002 617.68,-996.88 633.14,-989.23 646.54,-981.74"/>
<polygon fill="black" stroke="black" points="648.11,-984.87 655.03,-976.84 644.62,-978.8 648.11,-984.87"/>
</g>
<!-- serve&#45;&gt;proto -->
<g id="edge129" class="edge">
<title>serve&#45;&gt;proto</title>
<path fill="none" stroke="black" d="M213.22,-974.37C221.55,-986.32 232.4,-1002.35 241.25,-1017 258.72,-1045.94 254.9,-1058.63 277.25,-1084 280.16,-1087.3 283.46,-1090.44 286.94,-1093.38"/>
<polygon fill="black" stroke="black" points="284.53,-1095.95 294.57,-1099.31 288.82,-1090.42 284.53,-1095.95"/>
</g>
<!-- serve&#45;&gt;repl -->
<g id="edge130" class="edge">
<title>serve&#45;&gt;repl</title>
<path fill="none" stroke="black" d="M210.32,-937.62C231.62,-899.2 281,-810.17 306.4,-764.36"/>
<polygon fill="black" stroke="black" points="309.35,-766.25 311.14,-755.8 303.23,-762.85 309.35,-766.25"/>
</g>
<!-- serve&#45;&gt;shell -->
<g id="edge131" class="edge">
<title>serve&#45;&gt;shell</title>
<path fill="none" stroke="black" d="M212.19,-974.24C226,-994 250.23,-1025.44 277.25,-1046 313.09,-1073.26 341.8,-1053.11 369,-1089 428.05,-1166.92 359.96,-1219.23 405,-1306 405.88,-1307.69 406.88,-1309.35 407.97,-1310.96"/>
<polygon fill="black" stroke="black" points="405.04,-1312.91 414.05,-1318.48 410.49,-1308.51 405.04,-1312.91"/>
</g>
<!-- serve&#45;&gt;store -->
<g id="edge132" class="edge">
<title>serve&#45;&gt;store</title>
<path fill="none" stroke="black" d="M202,-937.94C209.31,-869.99 237.46,-630.25 277.25,-566 285.77,-552.24 493.24,-394.66 508,-388 553.14,-367.64 610.15,-359.45 646.93,-356.18"/>
<polygon fill="black" stroke="black" points="646.93,-359.69 656.62,-355.4 646.37,-352.71 646.93,-359.69"/>
</g>
<!-- sexp&#45;&gt;parse -->
<g id="edge133" class="edge">
<title>sexp&#45;&gt;parse</title>
<path fill="none" stroke="black" d="M982.18,-1292.78C998.19,-1210.81 1063.62,-875.85 1083.57,-773.71"/>
<polygon fill="black" stroke="black" points="1087,-774.41 1085.48,-763.93 1080.13,-773.07 1087,-774.41"/>
</g>
<!-- shell&#45;&gt;hol -->
<g id="edge134" class="edge">
<title>shell&#45;&gt;hol</title>
<path fill="none" stroke="black" d="M439.77,-1356.21C441.24,-1407.11 450.54,-1553.82 508,-1657 582.25,-1790.33 731.27,-1902.06 799.62,-1948.67"/>
<polygon fill="black" stroke="black" points="797.6,-1951.53 807.85,-1954.23 801.52,-1945.73 797.6,-1951.53"/>
</g>
<!-- shell&#45;&gt;kernel -->
<g id="edge135" class="edge">
<title>shell&#45;&gt;kernel</title>
<path fill="none" stroke="black" d="M465.85,-1329.28C480.6,-1324.4 499.26,-1318.23 515.64,-1312.81"/>
<polygon fill="black" stroke="black" points="516.71,-1316.15 525.1,-1309.68 514.51,-1309.5 516.71,-1316.15"/>
</g>
<!-- smt&#45;&gt;sat -->
<g id="edge136" class="edge">
<title>smt&#45;&gt;sat</title>
<path fill="none" stroke="black" d="M688.08,-1472.62C694.18,-1406.67 715.46,-1175.69 732,-985 748.65,-793.06 712.2,-737.41 768,-553 778.49,-518.35 799.73,-482.53 815.57,-458.74"/>
<polygon fill="black" stroke="black" points="818.4,-460.81 821.14,-450.57 812.62,-456.87 818.4,-460.81"/>
</g>
<!-- smt&#45;&gt;sexp -->
<g id="edge137" class="edge">
<title>smt&#45;&gt;sexp</title>
<path fill="none" stroke="black" d="M707.33,-1472.51C723.14,-1459.29 745.83,-1441.82 768,-1430 824.84,-1399.7 850.12,-1416.13 904.75,-1382 923.78,-1370.11 941.73,-1352.38 954.94,-1337.61"/>
<polygon fill="black" stroke="black" points="957.23,-1340.31 961.14,-1330.47 951.94,-1335.72 957.23,-1340.31"/>
</g>
<!-- smt&#45;&gt;types -->
<g id="edge138" class="edge">
<title>smt&#45;&gt;types</title>
<path fill="none" stroke="black" d="M712.83,-1501.04C728.62,-1506.62 749.2,-1513.2 768,-1517 859.26,-1535.46 883.52,-1536 976.62,-1536 976.62,-1536 976.62,-1536 1194.25,-1536 1297.8,-1536 1373.84,-1657.18 1403.65,-1713.66"/>
<polygon fill="black" stroke="black" points="1400.45,-1715.09 1408.14,-1722.37 1406.67,-1711.88 1400.45,-1715.09"/>
</g>
<!-- spectec&#45;&gt;grammar -->
<g id="edge139" class="edge">
<title>spectec&#45;&gt;grammar</title>
<path fill="none" stroke="black" d="M871.44,-1586.65C888.86,-1589.02 910.33,-1591.95 929.33,-1594.55"/>
<polygon fill="black" stroke="black" points="928.6,-1597.98 938.98,-1595.86 929.54,-1591.04 928.6,-1597.98"/>
</g>
<!-- store&#45;&gt;hash -->
<g id="edge140" class="edge">
<title>store&#45;&gt;hash</title>
<path fill="none" stroke="black" d="M702.69,-372.25C712.79,-384.58 725.1,-401.71 732,-419 772.32,-519.99 731.46,-558.58 768,-661 779.11,-692.15 799.21,-724.22 814.58,-746.2"/>
<polygon fill="black" stroke="black" points="811.71,-748.21 820.37,-754.32 817.41,-744.15 811.71,-748.21"/>
</g>
<!-- store&#45;&gt;json -->
<g id="edge141" class="edge">
<title>store&#45;&gt;json</title>
<path fill="none" stroke="black" d="M712.67,-337.76C736.75,-322.9 772.59,-300.76 799.33,-284.25"/>
<polygon fill="black" stroke="black" points="801.13,-287.26 807.8,-279.02 797.46,-281.3 801.13,-287.26"/>
</g>
<!-- store&#45;&gt;sqlite -->
<g id="edge142" class="edge">
<title>store&#45;&gt;sqlite</title>
<path fill="none" stroke="black" d="M712.67,-351.35C736.32,-348.97 771.33,-345.45 797.91,-342.77"/>
<polygon fill="black" stroke="black" points="797.99,-346.28 807.59,-341.8 797.29,-339.32 797.99,-346.28"/>
</g>
<!-- tcb&#45;db -->
<g id="node52" class="node">
<title>tcb&#45;db</title>
<polygon fill="none" stroke="black" points="715.5,-280 655.25,-280 655.25,-244 715.5,-244 715.5,-280"/>
<text text-anchor="middle" x="685.38" y="-257.7" font-family="sans-serif" font-size="14.00">tcb&#45;db</text>
</g>
<!-- tcb&#45;db&#45;&gt;json -->
<g id="edge143" class="edge">
<title>tcb&#45;db&#45;&gt;json</title>
<path fill="none" stroke="black" d="M715.81,-262C739.24,-262 772.19,-262 797.57,-262"/>
<polygon fill="black" stroke="black" points="797.48,-265.5 807.48,-262 797.48,-258.5 797.48,-265.5"/>
</g>
<!-- tcb&#45;db&#45;&gt;sqlite -->
<g id="edge144" class="edge">
<title>tcb&#45;db&#45;&gt;sqlite</title>
<path fill="none" stroke="black" d="M715.81,-277.21C739.67,-289.54 773.39,-306.97 798.94,-320.17"/>
<polygon fill="black" stroke="black" points="797.16,-323.19 807.65,-324.67 800.37,-316.97 797.16,-323.19"/>
</g>
<!-- wasm&#45;build&#45;guest -->
<g id="node55" class="node">
<title>wasm&#45;build&#45;guest</title>
<polygon fill="none" stroke="black" points="904.75,-36 768,-36 768,0 904.75,0 904.75,-36"/>
<text text-anchor="middle" x="836.38" y="-13.7" font-family="sans-serif" font-size="14.00">wasm&#45;build&#45;guest</text>
</g>
<!-- wasm&#45;build&#45;guest&#45;&gt;wasm -->
<g id="edge145" class="edge">
<title>wasm&#45;build&#45;guest&#45;&gt;wasm</title>
<path fill="none" stroke="black" d="M884.72,-36.39C891.84,-40.29 898.79,-44.82 904.75,-50 930.56,-72.44 950.92,-106.3 963.28,-130.31"/>
<polygon fill="black" stroke="black" points="960.13,-131.83 967.71,-139.22 966.39,-128.71 960.13,-131.83"/>
</g>
<!-- wasm&#45;spec -->
<g id="node56" class="node">
<title>wasm&#45;spec</title>
<polygon fill="none" stroke="black" points="732,-464 638.75,-464 638.75,-428 732,-428 732,-464"/>
<text text-anchor="middle" x="685.38" y="-441.7" font-family="sans-serif" font-size="14.00">wasm&#45;spec</text>
</g>
<!-- wasm&#45;spec&#45;&gt;hash -->
<g id="edge146" class="edge">
<title>wasm&#45;spec&#45;&gt;hash</title>
<path fill="none" stroke="black" d="M702.19,-464.47C712.08,-476.89 724.35,-494.03 732,-511 760.19,-573.5 742.15,-597.5 768,-661 780.55,-691.82 800.63,-724.16 815.61,-746.3"/>
<polygon fill="black" stroke="black" points="812.68,-748.22 821.24,-754.47 818.45,-744.25 812.68,-748.22"/>
</g>
<!-- wasm&#45;spec&#45;&gt;wasm -->
<g id="edge147" class="edge">
<title>wasm&#45;spec&#45;&gt;wasm</title>
<path fill="none" stroke="black" d="M718.24,-427.68C733.05,-419.68 751.08,-410.62 768,-404 826.74,-381.01 858.76,-409.17 904.75,-366 955.44,-318.42 970.38,-233.29 974.79,-188.46"/>
<polygon fill="black" stroke="black" points="978.26,-188.98 975.62,-178.72 971.28,-188.38 978.26,-188.98"/>
</g>
<!-- wasm&#45;store&#45;&gt;json -->
<g id="edge148" class="edge">
<title>wasm&#45;store&#45;&gt;json</title>
<path fill="none" stroke="black" d="M603.07,-198.72C657.91,-213.66 747.74,-238.13 798.12,-251.85"/>
<polygon fill="black" stroke="black" points="797.11,-255.2 807.68,-254.46 798.95,-248.45 797.11,-255.2"/>
</g>
<!-- wasm&#45;store&#45;&gt;store -->
<g id="edge149" class="edge">
<title>wasm&#45;store&#45;&gt;store</title>
<path fill="none" stroke="black" d="M570.32,-204.3C592.82,-233.84 637.29,-292.2 663.56,-326.68"/>
<polygon fill="black" stroke="black" points="660.69,-328.69 669.53,-334.52 666.26,-324.44 660.69,-328.69"/>
</g>
<!-- wasm&#45;store&#45;&gt;wasm -->
<g id="edge150" class="edge">
<title>wasm&#45;store&#45;&gt;wasm</title>
<path fill="none" stroke="black" d="M602.95,-183.01C686.91,-177.61 862,-166.36 938.96,-161.42"/>
<polygon fill="black" stroke="black" points="938.75,-164.94 948.5,-160.81 938.3,-157.96 938.75,-164.94"/>
</g>
<!-- web&#45;kernel -->
<g id="node58" class="node">
<title>web&#45;kernel</title>
<polygon fill="none" stroke="black" points="369,-1648 277.25,-1648 277.25,-1612 369,-1612 369,-1648"/>
<text text-anchor="middle" x="323.12" y="-1625.7" font-family="sans-serif" font-size="14.00">web&#45;kernel</text>
</g>
<!-- web&#45;kernel&#45;&gt;forsp -->
<g id="edge151" class="edge">
<title>web&#45;kernel&#45;&gt;forsp</title>
<path fill="none" stroke="black" d="M327.35,-1611.6C336.34,-1562.01 363.78,-1421.85 405,-1311 409.6,-1298.63 415.86,-1285.52 421.67,-1274.34"/>
<polygon fill="black" stroke="black" points="424.69,-1276.1 426.31,-1265.63 418.51,-1272.81 424.69,-1276.1"/>
</g>
<!-- web&#45;kernel&#45;&gt;haskell -->
<g id="edge152" class="edge">
<title>web&#45;kernel&#45;&gt;haskell</title>
<path fill="none" stroke="black" d="M337.13,-1648.35C357.04,-1676.44 395.17,-1730.26 418.28,-1762.87"/>
<polygon fill="black" stroke="black" points="415.13,-1764.49 423.77,-1770.63 420.85,-1760.44 415.13,-1764.49"/>
</g>
<!-- web&#45;kernel&#45;&gt;hol&#45;api -->
<g id="edge153" class="edge">
<title>web&#45;kernel&#45;&gt;hol&#45;api</title>
<path fill="none" stroke="black" d="M326.12,-1648.26C331.34,-1686.52 349.16,-1775.03 405,-1817 435.52,-1839.94 479.84,-1842.89 512.28,-1841.19"/>
<polygon fill="black" stroke="black" points="512.41,-1844.69 522.13,-1840.49 511.91,-1837.71 512.41,-1844.69"/>
</g>
<!-- web&#45;kernel&#45;&gt;kernel -->
<g id="edge154" class="edge">
<title>web&#45;kernel&#45;&gt;kernel</title>
<path fill="none" stroke="black" d="M336.75,-1611.63C366.44,-1568.47 443.07,-1457.28 508,-1365 516.66,-1352.69 526.32,-1339.13 534.57,-1327.59"/>
<polygon fill="black" stroke="black" points="537.26,-1329.84 540.24,-1319.68 531.57,-1325.77 537.26,-1329.84"/>
</g>
<!-- web&#45;kernel&#45;&gt;lisp -->
<g id="edge155" class="edge">
<title>web&#45;kernel&#45;&gt;lisp</title>
<path fill="none" stroke="black" d="M369.26,-1630C379.36,-1630 389.96,-1630 399.73,-1630"/>
<polygon fill="black" stroke="black" points="399.61,-1633.5 409.61,-1630 399.61,-1626.5 399.61,-1633.5"/>
</g>
</g>
</svg>
