<?xml version="1.0" encoding="UTF-8" standalone="no"?>
<!DOCTYPE svg PUBLIC "-//W3C//DTD SVG 1.1//EN"
 "http://www.w3.org/Graphics/SVG/1.1/DTD/svg11.dtd">
<!-- Generated by graphviz version 12.2.1 (0)
 -->
<!-- Title: deps Pages: 1 -->
<svg width="1369pt" height="1519pt"
 viewBox="0.00 0.00 1368.50 1518.90" xmlns="http://www.w3.org/2000/svg" xmlns:xlink="http://www.w3.org/1999/xlink">
<g id="graph0" class="graph" transform="scale(1 1) rotate(0) translate(4 1514.9)">
<title>deps</title>
<polygon fill="white" stroke="none" points="-4,4 -4,-1514.9 1364.5,-1514.9 1364.5,4 -4,4"/>
<!-- covalence -->
<g id="node1" class="node">
<title>covalence</title>
<polygon fill="none" stroke="black" points="102.62,-1024.9 18.38,-1024.9 18.38,-988.9 102.62,-988.9 102.62,-1024.9"/>
<text text-anchor="middle" x="60.5" y="-1002.6" font-family="sans-serif" font-size="14.00">covalence</text>
</g>
<!-- client -->
<g id="node5" class="node">
<title>client</title>
<polygon fill="none" stroke="black" points="349.75,-1070.9 295.75,-1070.9 295.75,-1034.9 349.75,-1034.9 349.75,-1070.9"/>
<text text-anchor="middle" x="322.75" y="-1048.6" font-family="sans-serif" font-size="14.00">client</text>
</g>
<!-- covalence&#45;&gt;client -->
<g id="edge1" class="edge">
<title>covalence&#45;&gt;client</title>
<path fill="none" stroke="black" d="M102.95,-1024.54C109.1,-1027.48 115.28,-1030.65 121,-1033.9 137.94,-1043.52 138.41,-1053.07 157,-1058.9 199.02,-1072.06 250.04,-1067.23 284.07,-1061.28"/>
<polygon fill="black" stroke="black" points="284.68,-1064.73 293.86,-1059.44 283.39,-1057.85 284.68,-1064.73"/>
</g>
<!-- fuse -->
<g id="node11" class="node">
<title>fuse</title>
<polygon fill="none" stroke="black" points="606.38,-918.9 552.38,-918.9 552.38,-882.9 606.38,-882.9 606.38,-918.9"/>
<text text-anchor="middle" x="579.38" y="-896.6" font-family="sans-serif" font-size="14.00">fuse</text>
</g>
<!-- covalence&#45;&gt;fuse -->
<g id="edge2" class="edge">
<title>covalence&#45;&gt;fuse</title>
<path fill="none" stroke="black" d="M103.09,-997.48C167.5,-983 295.3,-954.66 404.25,-932.9 451.23,-923.51 505.56,-913.69 540.87,-907.44"/>
<polygon fill="black" stroke="black" points="541.34,-910.91 550.58,-905.73 540.13,-904.02 541.34,-910.91"/>
</g>
<!-- git -->
<g id="node12" class="node">
<title>git</title>
<polygon fill="none" stroke="black" points="477.12,-826.9 423.12,-826.9 423.12,-790.9 477.12,-790.9 477.12,-826.9"/>
<text text-anchor="middle" x="450.12" y="-804.6" font-family="sans-serif" font-size="14.00">git</text>
</g>
<!-- covalence&#45;&gt;git -->
<g id="edge3" class="edge">
<title>covalence&#45;&gt;git</title>
<path fill="none" stroke="black" d="M89.7,-988.63C108.18,-977.4 133.23,-963.56 157,-954.9 247.01,-922.07 286.72,-962.22 368.25,-911.9 397.74,-893.69 420.79,-860.65 434.61,-836.89"/>
<polygon fill="black" stroke="black" points="437.56,-838.79 439.39,-828.35 431.45,-835.37 437.56,-838.79"/>
</g>
<!-- hash -->
<g id="node15" class="node">
<title>hash</title>
<polygon fill="none" stroke="black" points="887.38,-758.9 833.38,-758.9 833.38,-722.9 887.38,-722.9 887.38,-758.9"/>
<text text-anchor="middle" x="860.38" y="-736.6" font-family="sans-serif" font-size="14.00">hash</text>
</g>
<!-- covalence&#45;&gt;hash -->
<g id="edge4" class="edge">
<title>covalence&#45;&gt;hash</title>
<path fill="none" stroke="black" d="M102.83,-1020.31C109.55,-1023.9 115.95,-1028.37 121,-1033.9 153.72,-1069.69 126.59,-1099.12 157,-1136.9 254.67,-1258.25 344.95,-1263.98 496,-1225.9 527.82,-1217.87 737.46,-1112.96 756,-1085.9 828.9,-979.48 730.55,-911.32 792,-797.9 799.5,-784.05 811.84,-772.13 823.93,-762.83"/>
<polygon fill="black" stroke="black" points="825.76,-765.82 831.81,-757.12 821.66,-760.15 825.76,-765.82"/>
</g>
<!-- hol -->
<g id="node16" class="node">
<title>hol</title>
<polygon fill="none" stroke="black" points="887.38,-1422.9 833.38,-1422.9 833.38,-1386.9 887.38,-1386.9 887.38,-1422.9"/>
<text text-anchor="middle" x="860.38" y="-1400.6" font-family="sans-serif" font-size="14.00">hol</text>
</g>
<!-- covalence&#45;&gt;hol -->
<g id="edge5" class="edge">
<title>covalence&#45;&gt;hol</title>
<path fill="none" stroke="black" d="M102.96,-1018.96C109.92,-1022.71 116.37,-1027.58 121,-1033.9 199.87,-1141.5 85.44,-1219.3 157,-1331.9 203.32,-1404.78 235.4,-1434.9 321.75,-1434.9 321.75,-1434.9 321.75,-1434.9 580.38,-1434.9 667.11,-1434.9 768.14,-1420.39 821.64,-1411.55"/>
<polygon fill="black" stroke="black" points="822.16,-1415.01 831.44,-1409.9 821,-1408.11 822.16,-1415.01"/>
</g>
<!-- lsp -->
<g id="node23" class="node">
<title>lsp</title>
<polygon fill="none" stroke="black" points="887.38,-972.9 833.38,-972.9 833.38,-936.9 887.38,-936.9 887.38,-972.9"/>
<text text-anchor="middle" x="860.38" y="-950.6" font-family="sans-serif" font-size="14.00">lsp</text>
</g>
<!-- covalence&#45;&gt;lsp -->
<g id="edge6" class="edge">
<title>covalence&#45;&gt;lsp</title>
<path fill="none" stroke="black" d="M102.89,-1019.01C109.86,-1022.76 116.33,-1027.61 121,-1033.9 192.93,-1130.72 66.23,-1223.46 157,-1302.9 227.66,-1364.73 274.97,-1313.58 368.25,-1302.9 485.43,-1289.48 528.26,-1307.79 626.75,-1242.9 649.32,-1228.03 641.82,-1210.99 662.75,-1193.9 698.1,-1165.04 727.59,-1186.61 756,-1150.9 804.89,-1089.43 740.01,-1036.76 792,-977.9 799.79,-969.07 811.11,-963.63 822.26,-960.28"/>
<polygon fill="black" stroke="black" points="822.87,-963.73 831.74,-957.93 821.19,-956.93 822.87,-963.73"/>
</g>
<!-- object -->
<g id="node26" class="node">
<title>object</title>
<polygon fill="none" stroke="black" points="738,-598.9 680.75,-598.9 680.75,-562.9 738,-562.9 738,-598.9"/>
<text text-anchor="middle" x="709.38" y="-576.6" font-family="sans-serif" font-size="14.00">object</text>
</g>
<!-- covalence&#45;&gt;object -->
<g id="edge7" class="edge">
<title>covalence&#45;&gt;object</title>
<path fill="none" stroke="black" d="M63.33,-988.44C71.59,-916.47 112.53,-654.04 277.25,-560.9 413.03,-484.12 477,-485.25 626.75,-528.9 636.75,-531.81 656.22,-544.11 673.64,-556.01"/>
<polygon fill="black" stroke="black" points="671.57,-558.84 681.79,-561.66 675.56,-553.09 671.57,-558.84"/>
</g>
<!-- opentheory -->
<g id="node27" class="node">
<title>opentheory</title>
<polygon fill="none" stroke="black" points="368.25,-1498.9 277.25,-1498.9 277.25,-1462.9 368.25,-1462.9 368.25,-1498.9"/>
<text text-anchor="middle" x="322.75" y="-1476.6" font-family="sans-serif" font-size="14.00">opentheory</text>
</g>
<!-- covalence&#45;&gt;opentheory -->
<g id="edge8" class="edge">
<title>covalence&#45;&gt;opentheory</title>
<path fill="none" stroke="black" d="M102.82,-1018.68C109.89,-1022.46 116.41,-1027.41 121,-1033.9 174.46,-1109.47 95.08,-1380.09 157,-1448.9 183.73,-1478.6 229.11,-1485.66 265.48,-1485.82"/>
<polygon fill="black" stroke="black" points="265.48,-1489.32 275.43,-1485.67 265.37,-1482.32 265.48,-1489.32"/>
</g>
<!-- proto -->
<g id="node30" class="node">
<title>proto</title>
<polygon fill="none" stroke="black" points="349.75,-902.9 295.75,-902.9 295.75,-866.9 349.75,-866.9 349.75,-902.9"/>
<text text-anchor="middle" x="322.75" y="-880.6" font-family="sans-serif" font-size="14.00">proto</text>
</g>
<!-- covalence&#45;&gt;proto -->
<g id="edge9" class="edge">
<title>covalence&#45;&gt;proto</title>
<path fill="none" stroke="black" d="M75.52,-988.49C92.46,-967.66 122.94,-934.36 157,-916.9 197.42,-896.17 249.7,-888.82 284.41,-886.24"/>
<polygon fill="black" stroke="black" points="284.2,-889.76 293.95,-885.63 283.75,-882.78 284.2,-889.76"/>
</g>
<!-- repl -->
<g id="node35" class="node">
<title>repl</title>
<polygon fill="none" stroke="black" points="349.75,-658.9 295.75,-658.9 295.75,-622.9 349.75,-622.9 349.75,-658.9"/>
<text text-anchor="middle" x="322.75" y="-636.6" font-family="sans-serif" font-size="14.00">repl</text>
</g>
<!-- covalence&#45;&gt;repl -->
<g id="edge10" class="edge">
<title>covalence&#45;&gt;repl</title>
<path fill="none" stroke="black" d="M65.18,-988.6C74.48,-945.96 102.15,-838.12 157,-765.9 192.13,-719.64 248.66,-681.92 285.51,-660.43"/>
<polygon fill="black" stroke="black" points="287.09,-663.56 294.03,-655.55 283.61,-657.48 287.09,-663.56"/>
</g>
<!-- serve -->
<g id="node37" class="node">
<title>serve</title>
<polygon fill="none" stroke="black" points="226.12,-810.9 172.12,-810.9 172.12,-774.9 226.12,-774.9 226.12,-810.9"/>
<text text-anchor="middle" x="199.12" y="-788.6" font-family="sans-serif" font-size="14.00">serve</text>
</g>
<!-- covalence&#45;&gt;serve -->
<g id="edge11" class="edge">
<title>covalence&#45;&gt;serve</title>
<path fill="none" stroke="black" d="M67.28,-988.57C79.29,-952.79 109.79,-872.55 157,-819.9 158.85,-817.84 160.88,-815.87 163.03,-814"/>
<polygon fill="black" stroke="black" points="164.74,-817.1 170.52,-808.22 160.47,-811.56 164.74,-817.1"/>
</g>
<!-- shell -->
<g id="node39" class="node">
<title>shell</title>
<polygon fill="none" stroke="black" points="477.12,-1216.9 423.12,-1216.9 423.12,-1180.9 477.12,-1180.9 477.12,-1216.9"/>
<text text-anchor="middle" x="450.12" y="-1194.6" font-family="sans-serif" font-size="14.00">shell</text>
</g>
<!-- covalence&#45;&gt;shell -->
<g id="edge12" class="edge">
<title>covalence&#45;&gt;shell</title>
<path fill="none" stroke="black" d="M102.89,-1022.74C109.23,-1025.98 115.49,-1029.71 121,-1033.9 140.84,-1048.98 139.85,-1058.81 157,-1076.9 207.26,-1129.89 210.09,-1160.19 277.25,-1188.9 320.46,-1207.37 375.43,-1206.92 411.41,-1203.83"/>
<polygon fill="black" stroke="black" points="411.72,-1207.32 421.33,-1202.85 411.04,-1200.35 411.72,-1207.32"/>
</g>
<!-- store -->
<g id="node43" class="node">
<title>store</title>
<polygon fill="none" stroke="black" points="736.38,-842.9 682.38,-842.9 682.38,-806.9 736.38,-806.9 736.38,-842.9"/>
<text text-anchor="middle" x="709.38" y="-820.6" font-family="sans-serif" font-size="14.00">store</text>
</g>
<!-- covalence&#45;&gt;store -->
<g id="edge13" class="edge">
<title>covalence&#45;&gt;store</title>
<path fill="none" stroke="black" d="M103.09,-1005.25C218.15,-1000.04 538.02,-981.03 626.75,-927.9 649.32,-914.38 646.44,-901.54 662.75,-880.9 670.27,-871.38 678.62,-861.05 686.11,-851.89"/>
<polygon fill="black" stroke="black" points="688.64,-854.32 692.27,-844.37 683.23,-849.88 688.64,-854.32"/>
</g>
<!-- wasm -->
<g id="node45" class="node">
<title>wasm</title>
<polygon fill="none" stroke="black" points="1032.12,-215.9 977.88,-215.9 977.88,-179.9 1032.12,-179.9 1032.12,-215.9"/>
<text text-anchor="middle" x="1005" y="-193.6" font-family="sans-serif" font-size="14.00">wasm</text>
</g>
<!-- covalence&#45;&gt;wasm -->
<g id="edge14" class="edge">
<title>covalence&#45;&gt;wasm</title>
<path fill="none" stroke="black" d="M62.25,-988.4C65.44,-927.13 81.38,-726.58 157,-583.9 175.82,-548.39 374.2,-346.58 404.25,-319.9 456.95,-273.08 465.02,-247.88 532,-225.9 572.01,-212.76 584.71,-223.46 626.75,-225.9 684.48,-229.24 704.45,-214.68 756,-240.9 777.03,-251.59 770.39,-270.44 792,-279.9 847.68,-304.27 873.11,-304.35 928.75,-279.9 953.75,-268.9 974.09,-245.05 987.29,-225.89"/>
<polygon fill="black" stroke="black" points="990.13,-227.93 992.69,-217.65 984.28,-224.09 990.13,-227.93"/>
</g>
<!-- acset -->
<g id="node2" class="node">
<title>acset</title>
<polygon fill="none" stroke="black" points="887.38,-400.9 833.38,-400.9 833.38,-364.9 887.38,-364.9 887.38,-400.9"/>
<text text-anchor="middle" x="860.38" y="-378.6" font-family="sans-serif" font-size="14.00">acset</text>
</g>
<!-- alethe -->
<g id="node3" class="node">
<title>alethe</title>
<polygon fill="none" stroke="black" points="607.62,-1368.9 551.12,-1368.9 551.12,-1332.9 607.62,-1332.9 607.62,-1368.9"/>
<text text-anchor="middle" x="579.38" y="-1346.6" font-family="sans-serif" font-size="14.00">alethe</text>
</g>
<!-- core -->
<g id="node6" class="node">
<title>core</title>
<polygon fill="#ffd6d6" stroke="black" points="1032,-1376.9 978,-1376.9 978,-1340.9 1032,-1340.9 1032,-1376.9"/>
<text text-anchor="middle" x="1005" y="-1354.6" font-family="sans-serif" font-size="14.00">core</text>
</g>
<!-- alethe&#45;&gt;core -->
<g id="edge15" class="edge">
<title>alethe&#45;&gt;core</title>
<path fill="none" stroke="black" d="M607.84,-1351.41C681.31,-1352.8 882.45,-1356.6 966.41,-1358.19"/>
<polygon fill="black" stroke="black" points="966.11,-1361.68 976.17,-1358.37 966.24,-1354.68 966.11,-1361.68"/>
</g>
<!-- init -->
<g id="node17" class="node">
<title>init</title>
<polygon fill="none" stroke="black" points="736.38,-1238.9 682.38,-1238.9 682.38,-1202.9 736.38,-1202.9 736.38,-1238.9"/>
<text text-anchor="middle" x="709.38" y="-1216.6" font-family="sans-serif" font-size="14.00">init</text>
</g>
<!-- alethe&#45;&gt;init -->
<g id="edge16" class="edge">
<title>alethe&#45;&gt;init</title>
<path fill="none" stroke="black" d="M607.73,-1335.35C614.49,-1330.66 621.34,-1325.08 626.75,-1318.9 650.03,-1292.25 638.56,-1273.71 662.75,-1247.9 665.63,-1244.83 668.93,-1241.99 672.41,-1239.41"/>
<polygon fill="black" stroke="black" points="674.21,-1242.42 680.63,-1233.99 670.36,-1236.57 674.21,-1242.42"/>
</g>
<!-- sexp -->
<g id="node38" class="node">
<title>sexp</title>
<polygon fill="#ffd6d6" stroke="black" points="1135.25,-926.9 1081.25,-926.9 1081.25,-890.9 1135.25,-890.9 1135.25,-926.9"/>
<text text-anchor="middle" x="1108.25" y="-904.6" font-family="sans-serif" font-size="14.00">sexp</text>
</g>
<!-- alethe&#45;&gt;sexp -->
<g id="edge17" class="edge">
<title>alethe&#45;&gt;sexp</title>
<path fill="none" stroke="black" d="M607.86,-1350.43C691.01,-1347.35 940.57,-1325.52 1045.25,-1175.9 1096.9,-1102.07 1106.06,-991.41 1107.33,-938.78"/>
<polygon fill="black" stroke="black" points="1110.83,-938.85 1107.48,-928.8 1103.83,-938.74 1110.83,-938.85"/>
</g>
<!-- smt -->
<g id="node40" class="node">
<title>smt</title>
<polygon fill="none" stroke="black" points="736.38,-1292.9 682.38,-1292.9 682.38,-1256.9 736.38,-1256.9 736.38,-1292.9"/>
<text text-anchor="middle" x="709.38" y="-1270.6" font-family="sans-serif" font-size="14.00">smt</text>
</g>
<!-- alethe&#45;&gt;smt -->
<g id="edge18" class="edge">
<title>alethe&#45;&gt;smt</title>
<path fill="none" stroke="black" d="M607.83,-1334.59C626.77,-1323.35 652.13,-1308.29 672.64,-1296.11"/>
<polygon fill="black" stroke="black" points="674.16,-1299.28 680.97,-1291.17 670.59,-1293.26 674.16,-1299.28"/>
</g>
<!-- types -->
<g id="node44" class="node">
<title>types</title>
<polygon fill="#ffd6d6" stroke="black" points="1360.5,-1300.9 1306.5,-1300.9 1306.5,-1264.9 1360.5,-1264.9 1360.5,-1300.9"/>
<text text-anchor="middle" x="1333.5" y="-1278.6" font-family="sans-serif" font-size="14.00">types</text>
</g>
<!-- alethe&#45;&gt;types -->
<g id="edge19" class="edge">
<title>alethe&#45;&gt;types</title>
<path fill="none" stroke="black" d="M597.32,-1369.25C638.08,-1411.28 746.58,-1510.9 859.38,-1510.9 859.38,-1510.9 859.38,-1510.9 1109.25,-1510.9 1219.55,-1510.9 1293.32,-1372.98 1320.67,-1311.67"/>
<polygon fill="black" stroke="black" points="1323.85,-1313.12 1324.63,-1302.56 1317.43,-1310.33 1323.85,-1313.12"/>
</g>
<!-- arrow -->
<g id="node4" class="node">
<title>arrow</title>
<polygon fill="none" stroke="black" points="606.38,-598.9 552.38,-598.9 552.38,-562.9 606.38,-562.9 606.38,-598.9"/>
<text text-anchor="middle" x="579.38" y="-576.6" font-family="sans-serif" font-size="14.00">arrow</text>
</g>
<!-- client&#45;&gt;hash -->
<g id="edge20" class="edge">
<title>client&#45;&gt;hash</title>
<path fill="none" stroke="black" d="M350.02,-1066.19C369.18,-1075.71 393.59,-1087.44 404.25,-1090.9 498.87,-1121.56 530.78,-1141.02 626.75,-1114.9 691.05,-1097.39 718.72,-1094.13 756,-1038.9 816.59,-949.13 739.28,-892.5 792,-797.9 799.67,-784.14 812.04,-772.24 824.1,-762.92"/>
<polygon fill="black" stroke="black" points="825.94,-765.92 831.96,-757.21 821.82,-760.26 825.94,-765.92"/>
</g>
<!-- client&#45;&gt;shell -->
<g id="edge21" class="edge">
<title>client&#45;&gt;shell</title>
<path fill="none" stroke="black" d="M350.21,-1068.41C356.7,-1073.1 363.22,-1078.68 368.25,-1084.9 393.29,-1115.83 379.15,-1136.01 404.25,-1166.9 407.09,-1170.39 410.4,-1173.68 413.91,-1176.72"/>
<polygon fill="black" stroke="black" points="411.68,-1179.42 421.71,-1182.82 415.99,-1173.9 411.68,-1179.42"/>
</g>
<!-- client&#45;&gt;store -->
<g id="edge22" class="edge">
<title>client&#45;&gt;store</title>
<path fill="none" stroke="black" d="M348.64,-1034.54C363.96,-1024.08 384.41,-1011.56 404.25,-1003.9 498.19,-967.58 547.77,-1023.4 626.75,-960.9 657.32,-936.7 642.26,-914.07 662.75,-880.9 668.91,-870.92 676.66,-860.76 684.01,-851.88"/>
<polygon fill="black" stroke="black" points="686.65,-854.19 690.47,-844.3 681.32,-849.64 686.65,-854.19"/>
</g>
<!-- pure -->
<g id="node31" class="node">
<title>pure</title>
<polygon fill="#ffd6d6" stroke="black" points="1135.25,-1384.9 1081.25,-1384.9 1081.25,-1348.9 1135.25,-1348.9 1135.25,-1384.9"/>
<text text-anchor="middle" x="1108.25" y="-1362.6" font-family="sans-serif" font-size="14.00">pure</text>
</g>
<!-- core&#45;&gt;pure -->
<g id="edge23" class="edge">
<title>core&#45;&gt;pure</title>
<path fill="none" stroke="black" d="M1032.34,-1360.98C1043.71,-1361.88 1057.21,-1362.94 1069.61,-1363.92"/>
<polygon fill="black" stroke="black" points="1069.29,-1367.41 1079.54,-1364.71 1069.84,-1360.43 1069.29,-1367.41"/>
</g>
<!-- core&#45;&gt;sexp -->
<g id="edge24" class="edge">
<title>core&#45;&gt;sexp</title>
<path fill="none" stroke="black" d="M1014.51,-1340.48C1023.35,-1320.7 1037,-1288.16 1045.25,-1258.9 1078.06,-1142.48 1096.97,-999.17 1104.04,-938.38"/>
<polygon fill="black" stroke="black" points="1107.5,-938.86 1105.16,-928.53 1100.55,-938.07 1107.5,-938.86"/>
</g>
<!-- core&#45;&gt;types -->
<g id="edge25" class="edge">
<title>core&#45;&gt;types</title>
<path fill="none" stroke="black" d="M1032.43,-1352.06C1046.84,-1348.37 1065,-1343.79 1081.25,-1339.9 1091.68,-1337.4 1227.65,-1306.62 1295.09,-1291.36"/>
<polygon fill="black" stroke="black" points="1295.61,-1294.83 1304.59,-1289.21 1294.07,-1288 1295.61,-1294.83"/>
</g>
<!-- core&#45;test&#45;guest -->
<g id="node7" class="node">
<title>core&#45;test&#45;guest</title>
<polygon fill="none" stroke="black" points="121,-1078.9 0,-1078.9 0,-1042.9 121,-1042.9 121,-1078.9"/>
<text text-anchor="middle" x="60.5" y="-1056.6" font-family="sans-serif" font-size="14.00">core&#45;test&#45;guest</text>
</g>
<!-- crypto&#45;sig -->
<g id="node8" class="node">
<title>crypto&#45;sig</title>
<polygon fill="none" stroke="black" points="241.25,-468.9 157,-468.9 157,-432.9 241.25,-432.9 241.25,-468.9"/>
<text text-anchor="middle" x="199.12" y="-446.6" font-family="sans-serif" font-size="14.00">crypto&#45;sig</text>
</g>
<!-- egglog -->
<g id="node9" class="node">
<title>egglog</title>
<polygon fill="none" stroke="black" points="1035.5,-622.9 974.5,-622.9 974.5,-586.9 1035.5,-586.9 1035.5,-622.9"/>
<text text-anchor="middle" x="1005" y="-600.6" font-family="sans-serif" font-size="14.00">egglog</text>
</g>
<!-- egglog&#45;&gt;sexp -->
<g id="edge26" class="edge">
<title>egglog&#45;&gt;sexp</title>
<path fill="none" stroke="black" d="M1033.31,-623.1C1037.85,-627.18 1042.1,-631.82 1045.25,-636.9 1070.51,-677.6 1093.75,-817.8 1103.01,-879.44"/>
<polygon fill="black" stroke="black" points="1099.53,-879.78 1104.45,-889.16 1106.45,-878.76 1099.53,-879.78"/>
</g>
<!-- egglog&#45;&gt;types -->
<g id="edge27" class="edge">
<title>egglog&#45;&gt;types</title>
<path fill="none" stroke="black" d="M1032.13,-623.28C1036.88,-627.4 1041.51,-632.01 1045.25,-636.9 1204.99,-845.89 1298.59,-1157.7 1324.84,-1253.71"/>
<polygon fill="black" stroke="black" points="1321.39,-1254.37 1327.37,-1263.11 1328.15,-1252.55 1321.39,-1254.37"/>
</g>
<!-- forsp -->
<g id="node10" class="node">
<title>forsp</title>
<polygon fill="none" stroke="black" points="736.38,-1029.9 682.38,-1029.9 682.38,-993.9 736.38,-993.9 736.38,-1029.9"/>
<text text-anchor="middle" x="709.38" y="-1007.6" font-family="sans-serif" font-size="14.00">forsp</text>
</g>
<!-- forsp&#45;&gt;hash -->
<g id="edge28" class="edge">
<title>forsp&#45;&gt;hash</title>
<path fill="none" stroke="black" d="M723.61,-993.61C733.71,-978.9 747.34,-957.39 756,-936.9 780.85,-878.12 758.05,-851.93 792,-797.9 800.25,-784.77 812.51,-773.11 824.31,-763.81"/>
<polygon fill="black" stroke="black" points="826.06,-766.88 831.97,-758.09 821.86,-761.28 826.06,-766.88"/>
</g>
<!-- forsp&#45;&gt;sexp -->
<g id="edge29" class="edge">
<title>forsp&#45;&gt;sexp</title>
<path fill="none" stroke="black" d="M716.87,-993.45C727.64,-966.08 752.03,-915.74 792,-894.9 882.54,-847.67 1008.36,-876.64 1070.09,-895.88"/>
<polygon fill="black" stroke="black" points="1068.81,-899.15 1079.41,-898.88 1070.96,-892.48 1068.81,-899.15"/>
</g>
<!-- fuse&#45;&gt;hash -->
<g id="edge30" class="edge">
<title>fuse&#45;&gt;hash</title>
<path fill="none" stroke="black" d="M606.65,-899.23C643.3,-895.74 710.39,-884.98 756,-851.9 779.35,-834.96 772.8,-819.42 792,-797.9 802.06,-786.62 814.37,-775.57 825.7,-766.25"/>
<polygon fill="black" stroke="black" points="827.73,-769.11 833.34,-760.12 823.35,-763.65 827.73,-769.11"/>
</g>
<!-- fuse&#45;&gt;object -->
<g id="edge31" class="edge">
<title>fuse&#45;&gt;object</title>
<path fill="none" stroke="black" d="M587.62,-882.77C608.83,-829.77 670.87,-674.67 696.79,-609.87"/>
<polygon fill="black" stroke="black" points="700.02,-611.21 700.49,-600.62 693.52,-608.61 700.02,-611.21"/>
</g>
<!-- fuse&#45;&gt;store -->
<g id="edge32" class="edge">
<title>fuse&#45;&gt;store</title>
<path fill="none" stroke="black" d="M606.59,-885.33C625.57,-874.06 651.46,-858.69 672.38,-846.27"/>
<polygon fill="black" stroke="black" points="674.09,-849.33 680.9,-841.21 670.51,-843.31 674.09,-849.33"/>
</g>
<!-- git&#45;&gt;hash -->
<g id="edge33" class="edge">
<title>git&#45;&gt;hash</title>
<path fill="none" stroke="black" d="M477.6,-804.49C547.99,-792.76 740,-760.78 821.73,-747.17"/>
<polygon fill="black" stroke="black" points="822.18,-750.64 831.47,-745.54 821.03,-743.73 822.18,-750.64"/>
</g>
<!-- git&#45;&gt;object -->
<g id="edge34" class="edge">
<title>git&#45;&gt;object</title>
<path fill="none" stroke="black" d="M468.29,-790.46C484.32,-773.48 509.15,-747.84 532,-726.9 580.49,-682.45 639.99,-634.46 676,-606.08"/>
<polygon fill="black" stroke="black" points="677.74,-609.17 683.44,-600.24 673.41,-603.66 677.74,-609.17"/>
</g>
<!-- sqlite -->
<g id="node42" class="node">
<title>sqlite</title>
<polygon fill="none" stroke="black" points="887.38,-842.9 833.38,-842.9 833.38,-806.9 887.38,-806.9 887.38,-842.9"/>
<text text-anchor="middle" x="860.38" y="-820.6" font-family="sans-serif" font-size="14.00">sqlite</text>
</g>
<!-- git&#45;&gt;sqlite -->
<g id="edge35" class="edge">
<title>git&#45;&gt;sqlite</title>
<path fill="none" stroke="black" d="M457.25,-827.19C467.63,-854.89 491.6,-906.51 532,-927.9 569.22,-947.6 585.18,-934.63 626.75,-927.9 686.51,-918.22 702.62,-913.45 756,-884.9 773.87,-875.34 774.74,-867.53 792,-856.9 801.66,-850.95 812.59,-845.32 822.8,-840.5"/>
<polygon fill="black" stroke="black" points="824.08,-843.76 831.71,-836.41 821.16,-837.4 824.08,-843.76"/>
</g>
<!-- git&#45;&gt;store -->
<g id="edge36" class="edge">
<title>git&#45;&gt;store</title>
<path fill="none" stroke="black" d="M477.21,-810.52C523.05,-813.37 618.19,-819.29 671.01,-822.57"/>
<polygon fill="black" stroke="black" points="670.52,-826.05 680.71,-823.18 670.95,-819.06 670.52,-826.05"/>
</g>
<!-- grammar -->
<g id="node13" class="node">
<title>grammar</title>
<polygon fill="none" stroke="black" points="1041.88,-1121.9 968.12,-1121.9 968.12,-1085.9 1041.88,-1085.9 1041.88,-1121.9"/>
<text text-anchor="middle" x="1005" y="-1099.6" font-family="sans-serif" font-size="14.00">grammar</text>
</g>
<!-- graph -->
<g id="node14" class="node">
<title>graph</title>
<polygon fill="none" stroke="black" points="477.12,-376.9 423.12,-376.9 423.12,-340.9 477.12,-340.9 477.12,-376.9"/>
<text text-anchor="middle" x="450.12" y="-354.6" font-family="sans-serif" font-size="14.00">graph</text>
</g>
<!-- graph&#45;&gt;hash -->
<g id="edge37" class="edge">
<title>graph&#45;&gt;hash</title>
<path fill="none" stroke="black" d="M477.32,-366.15C514.47,-377.58 582.84,-402.88 626.75,-444.9 650.89,-468 638.34,-488.08 662.75,-510.9 696.09,-542.06 724.7,-520.69 756,-553.9 786.12,-585.85 771.14,-607.26 792,-645.9 805,-669.99 823.1,-695.17 837.26,-713.55"/>
<polygon fill="black" stroke="black" points="834.41,-715.59 843.33,-721.31 839.93,-711.27 834.41,-715.59"/>
</g>
<!-- parse -->
<g id="node29" class="node">
<title>parse</title>
<polygon fill="#ffd6d6" stroke="black" points="1247.88,-438.9 1193.88,-438.9 1193.88,-402.9 1247.88,-402.9 1247.88,-438.9"/>
<text text-anchor="middle" x="1220.88" y="-416.6" font-family="sans-serif" font-size="14.00">parse</text>
</g>
<!-- graph&#45;&gt;parse -->
<g id="edge38" class="edge">
<title>graph&#45;&gt;parse</title>
<path fill="none" stroke="black" d="M454.76,-340.47C462.84,-303.72 485.33,-220.37 532,-167.9 657.07,-27.27 748.68,34.82 928.75,-19.9 1101.53,-72.4 1186.69,-308.39 1211.76,-391.68"/>
<polygon fill="black" stroke="black" points="1208.37,-392.54 1214.54,-401.15 1215.08,-390.57 1208.37,-392.54"/>
</g>
<!-- rand -->
<g id="node34" class="node">
<title>rand</title>
<polygon fill="none" stroke="black" points="1032,-758.9 978,-758.9 978,-722.9 1032,-722.9 1032,-758.9"/>
<text text-anchor="middle" x="1005" y="-736.6" font-family="sans-serif" font-size="14.00">rand</text>
</g>
<!-- hash&#45;&gt;rand -->
<g id="edge39" class="edge">
<title>hash&#45;&gt;rand</title>
<path fill="none" stroke="black" d="M887.87,-740.9C909.88,-740.9 941.48,-740.9 966.16,-740.9"/>
<polygon fill="black" stroke="black" points="966.14,-744.4 976.14,-740.9 966.14,-737.4 966.14,-744.4"/>
</g>
<!-- hol&#45;&gt;core -->
<g id="edge40" class="edge">
<title>hol&#45;&gt;core</title>
<path fill="none" stroke="black" d="M887.87,-1396.35C910.08,-1389.19 942.06,-1378.87 966.83,-1370.88"/>
<polygon fill="black" stroke="black" points="967.77,-1374.26 976.21,-1367.86 965.62,-1367.6 967.77,-1374.26"/>
</g>
<!-- init&#45;&gt;core -->
<g id="edge41" class="edge">
<title>init&#45;&gt;core</title>
<path fill="none" stroke="black" d="M736.69,-1233.26C789.28,-1257.98 907.43,-1313.51 967.48,-1341.73"/>
<polygon fill="black" stroke="black" points="965.73,-1344.78 976.27,-1345.86 968.71,-1338.44 965.73,-1344.78"/>
</g>
<!-- init&#45;&gt;grammar -->
<g id="edge42" class="edge">
<title>init&#45;&gt;grammar</title>
<path fill="none" stroke="black" d="M736.44,-1203.59C742.96,-1199 749.85,-1193.91 756,-1188.9 773.05,-1174.99 772.65,-1165.38 792,-1154.9 844.1,-1126.67 911.73,-1113.9 956.44,-1108.23"/>
<polygon fill="black" stroke="black" points="956.82,-1111.71 966.34,-1107.05 956,-1104.76 956.82,-1111.71"/>
</g>
<!-- init&#45;&gt;hash -->
<g id="edge43" class="edge">
<title>init&#45;&gt;hash</title>
<path fill="none" stroke="black" d="M725.82,-1202.6C736.22,-1189.18 749.23,-1170.04 756,-1150.9 808.54,-1002.2 718.46,-937.4 792,-797.9 799.34,-783.96 811.65,-772.03 823.76,-762.74"/>
<polygon fill="black" stroke="black" points="825.59,-765.73 831.66,-757.04 821.5,-760.05 825.59,-765.73"/>
</g>
<!-- init&#45;&gt;hol -->
<g id="edge44" class="edge">
<title>init&#45;&gt;hol</title>
<path fill="none" stroke="black" d="M736.43,-1233.58C743.24,-1237.6 750.27,-1242.43 756,-1247.9 796.07,-1286.09 828.43,-1342.61 845.7,-1376.39"/>
<polygon fill="black" stroke="black" points="842.48,-1377.78 850.09,-1385.16 848.74,-1374.65 842.48,-1377.78"/>
</g>
<!-- metamath -->
<g id="node24" class="node">
<title>metamath</title>
<polygon fill="none" stroke="black" points="1045.25,-568.9 964.75,-568.9 964.75,-532.9 1045.25,-532.9 1045.25,-568.9"/>
<text text-anchor="middle" x="1005" y="-546.6" font-family="sans-serif" font-size="14.00">metamath</text>
</g>
<!-- init&#45;&gt;metamath -->
<g id="edge45" class="edge">
<title>init&#45;&gt;metamath</title>
<path fill="none" stroke="black" d="M736.48,-1207.44C743.79,-1202.52 751.07,-1196.3 756,-1188.9 797.37,-1126.79 741.62,-1079.95 792,-1024.9 835.01,-977.89 888.81,-1031.54 928.75,-981.9 983.21,-914.21 923.9,-673.98 966.39,-579.33"/>
<polygon fill="black" stroke="black" points="969.39,-581.14 970.91,-570.65 963.18,-577.91 969.39,-581.14"/>
</g>
<!-- init&#45;&gt;sexp -->
<g id="edge46" class="edge">
<title>init&#45;&gt;sexp</title>
<path fill="none" stroke="black" d="M736.72,-1206.96C743.86,-1202.08 750.99,-1196.01 756,-1188.9 790.77,-1139.53 749.66,-1100.94 792,-1057.9 836.41,-1012.75 870.84,-1043.51 928.75,-1017.9 981.72,-994.47 1037.98,-957.92 1072.86,-933.7"/>
<polygon fill="black" stroke="black" points="1074.69,-936.69 1080.87,-928.08 1070.68,-930.95 1074.69,-936.69"/>
</g>
<!-- spectec -->
<g id="node41" class="node">
<title>spectec</title>
<polygon fill="none" stroke="black" points="895,-1102.9 825.75,-1102.9 825.75,-1066.9 895,-1066.9 895,-1102.9"/>
<text text-anchor="middle" x="860.38" y="-1080.6" font-family="sans-serif" font-size="14.00">spectec</text>
</g>
<!-- init&#45;&gt;spectec -->
<g id="edge47" class="edge">
<title>init&#45;&gt;spectec</title>
<path fill="none" stroke="black" d="M736.83,-1205.64C743.64,-1200.88 750.57,-1195.2 756,-1188.9 779.36,-1161.8 766.45,-1141.94 792,-1116.9 798.64,-1110.39 806.86,-1105.01 815.24,-1100.65"/>
<polygon fill="black" stroke="black" points="816.55,-1103.9 824.09,-1096.46 813.56,-1097.57 816.55,-1103.9"/>
</g>
<!-- init&#45;&gt;types -->
<g id="edge48" class="edge">
<title>init&#45;&gt;types</title>
<path fill="none" stroke="black" d="M736.68,-1218.8C788.03,-1214.89 905.25,-1206.9 1004,-1206.9 1004,-1206.9 1004,-1206.9 1109.25,-1206.9 1178.09,-1206.9 1252.81,-1239.68 1295.98,-1262.18"/>
<polygon fill="black" stroke="black" points="1294.19,-1265.2 1304.67,-1266.81 1297.48,-1259.02 1294.19,-1265.2"/>
</g>
<!-- json -->
<g id="node18" class="node">
<title>json</title>
<polygon fill="none" stroke="black" points="887.38,-636.9 833.38,-636.9 833.38,-600.9 887.38,-600.9 887.38,-636.9"/>
<text text-anchor="middle" x="860.38" y="-614.6" font-family="sans-serif" font-size="14.00">json</text>
</g>
<!-- kernel -->
<g id="node19" class="node">
<title>kernel</title>
<polygon fill="none" stroke="black" points="608,-1086.9 550.75,-1086.9 550.75,-1050.9 608,-1050.9 608,-1086.9"/>
<text text-anchor="middle" x="579.38" y="-1064.6" font-family="sans-serif" font-size="14.00">kernel</text>
</g>
<!-- kernel&#45;&gt;hash -->
<g id="edge49" class="edge">
<title>kernel&#45;&gt;hash</title>
<path fill="none" stroke="black" d="M598.09,-1050.7C641.45,-1006.12 749.84,-894.36 756,-884.9 778.84,-849.83 767.33,-831.7 792,-797.9 800.84,-785.79 812.76,-774.61 824.12,-765.42"/>
<polygon fill="black" stroke="black" points="826.09,-768.32 831.85,-759.42 821.8,-762.79 826.09,-768.32"/>
</g>
<!-- kernel&#45;&gt;init -->
<g id="edge50" class="edge">
<title>kernel&#45;&gt;init</title>
<path fill="none" stroke="black" d="M595.81,-1087.23C618.21,-1113.82 659.84,-1163.26 685.71,-1193.98"/>
<polygon fill="black" stroke="black" points="682.79,-1195.94 691.91,-1201.34 688.14,-1191.44 682.79,-1195.94"/>
</g>
<!-- kernel&#45;&gt;object -->
<g id="edge51" class="edge">
<title>kernel&#45;&gt;object</title>
<path fill="none" stroke="black" d="M586.89,-1050.8C596.36,-1024.11 614.18,-972.55 626.75,-927.9 659.54,-811.42 689.86,-670.44 702.35,-610.34"/>
<polygon fill="black" stroke="black" points="705.77,-611.08 704.37,-600.58 698.92,-609.67 705.77,-611.08"/>
</g>
<!-- kernel&#45;&gt;sexp -->
<g id="edge52" class="edge">
<title>kernel&#45;&gt;sexp</title>
<path fill="none" stroke="black" d="M608.4,-1072.32C646.49,-1075.34 714.59,-1074.72 756,-1038.9 795.22,-1004.97 750.99,-959.64 792,-927.9 834.39,-895.08 995.95,-901.31 1069.9,-906.08"/>
<polygon fill="black" stroke="black" points="1069.26,-909.55 1079.47,-906.73 1069.73,-902.56 1069.26,-909.55"/>
</g>
<!-- kernel&#45;&gt;store -->
<g id="edge53" class="edge">
<title>kernel&#45;&gt;store</title>
<path fill="none" stroke="black" d="M594.06,-1050.52C603.92,-1036.76 617.14,-1017.23 626.75,-998.9 646.75,-960.74 644.44,-947.89 662.75,-908.9 671.66,-889.92 682.89,-869.22 691.98,-853.11"/>
<polygon fill="black" stroke="black" points="694.93,-854.99 696.84,-844.57 688.85,-851.53 694.93,-854.99"/>
</g>
<!-- kv -->
<g id="node20" class="node">
<title>kv</title>
<polygon fill="none" stroke="black" points="226.12,-414.9 172.12,-414.9 172.12,-378.9 226.12,-378.9 226.12,-414.9"/>
<text text-anchor="middle" x="199.12" y="-392.6" font-family="sans-serif" font-size="14.00">kv</text>
</g>
<!-- lean -->
<g id="node21" class="node">
<title>lean</title>
<polygon fill="none" stroke="black" points="87.5,-1132.9 33.5,-1132.9 33.5,-1096.9 87.5,-1096.9 87.5,-1132.9"/>
<text text-anchor="middle" x="60.5" y="-1110.6" font-family="sans-serif" font-size="14.00">lean</text>
</g>
<!-- llm -->
<g id="node22" class="node">
<title>llm</title>
<polygon fill="none" stroke="black" points="226.12,-864.9 172.12,-864.9 172.12,-828.9 226.12,-828.9 226.12,-864.9"/>
<text text-anchor="middle" x="199.12" y="-842.6" font-family="sans-serif" font-size="14.00">llm</text>
</g>
<!-- llm&#45;&gt;proto -->
<g id="edge54" class="edge">
<title>llm&#45;&gt;proto</title>
<path fill="none" stroke="black" d="M226.52,-855.14C243.49,-860.44 265.8,-867.41 284.56,-873.28"/>
<polygon fill="black" stroke="black" points="283.38,-876.57 293.97,-876.22 285.46,-869.89 283.38,-876.57"/>
</g>
<!-- lsp&#45;&gt;sexp -->
<g id="edge55" class="edge">
<title>lsp&#45;&gt;sexp</title>
<path fill="none" stroke="black" d="M887.64,-950.75C923.39,-945 989.33,-934.07 1045.25,-922.9 1053.19,-921.31 1061.68,-919.48 1069.74,-917.68"/>
<polygon fill="black" stroke="black" points="1070.31,-921.14 1079.29,-915.52 1068.76,-914.32 1070.31,-921.14"/>
</g>
<!-- lsp&#45;&gt;wasm -->
<g id="edge56" class="edge">
<title>lsp&#45;&gt;wasm</title>
<path fill="none" stroke="black" d="M877.23,-936.61C893.19,-917.07 917.07,-884.48 928.75,-851.9 978.25,-713.85 947.98,-669.59 964.75,-523.9 977.32,-414.68 993.22,-285.01 1000.31,-227.68"/>
<polygon fill="black" stroke="black" points="1003.78,-228.13 1001.53,-217.77 996.83,-227.27 1003.78,-228.13"/>
</g>
<!-- metamath&#45;&gt;parse -->
<g id="edge57" class="edge">
<title>metamath&#45;&gt;parse</title>
<path fill="none" stroke="black" d="M1045.74,-547.41C1072.63,-543.58 1108.06,-535.59 1135.25,-518.9 1163.82,-501.35 1187.83,-470.98 1202.89,-448.69"/>
<polygon fill="black" stroke="black" points="1205.79,-450.64 1208.34,-440.36 1199.93,-446.81 1205.79,-450.64"/>
</g>
<!-- metamath&#45;&gt;sexp -->
<g id="edge58" class="edge">
<title>metamath&#45;&gt;sexp</title>
<path fill="none" stroke="black" d="M1037.72,-569.16C1040.58,-571.79 1043.18,-574.71 1045.25,-577.9 1077.72,-627.82 1097.77,-807.89 1104.61,-879.36"/>
<polygon fill="black" stroke="black" points="1101.11,-879.49 1105.52,-889.12 1108.08,-878.84 1101.11,-879.49"/>
</g>
<!-- multiformat -->
<g id="node25" class="node">
<title>multiformat</title>
<polygon fill="none" stroke="black" points="754.5,-354.9 664.25,-354.9 664.25,-318.9 754.5,-318.9 754.5,-354.9"/>
<text text-anchor="middle" x="709.38" y="-332.6" font-family="sans-serif" font-size="14.00">multiformat</text>
</g>
<!-- multiformat&#45;&gt;acset -->
<g id="edge59" class="edge">
<title>multiformat&#45;&gt;acset</title>
<path fill="none" stroke="black" d="M754.68,-350.57C776.25,-357.23 801.88,-365.15 822.39,-371.48"/>
<polygon fill="black" stroke="black" points="821.16,-374.76 831.74,-374.37 823.22,-368.07 821.16,-374.76"/>
</g>
<!-- multiformat&#45;&gt;hash -->
<g id="edge60" class="edge">
<title>multiformat&#45;&gt;hash</title>
<path fill="none" stroke="black" d="M716.65,-355.19C725.95,-382.7 743.64,-436.45 756,-482.9 775.08,-554.59 761.94,-578.07 792,-645.9 803.02,-670.77 821.07,-695.74 835.71,-713.83"/>
<polygon fill="black" stroke="black" points="832.96,-716 842.04,-721.47 838.35,-711.53 832.96,-716"/>
</g>
<!-- multiformat&#45;&gt;parse -->
<g id="edge61" class="edge">
<title>multiformat&#45;&gt;parse</title>
<path fill="none" stroke="black" d="M754.92,-339.03C799.19,-341.57 868.95,-346.66 928.75,-355.9 1020.97,-370.14 1127.59,-396.53 1182.66,-410.92"/>
<polygon fill="black" stroke="black" points="1181.58,-414.25 1192.14,-413.41 1183.36,-407.48 1181.58,-414.25"/>
</g>
<!-- object&#45;&gt;hash -->
<g id="edge62" class="edge">
<title>object&#45;&gt;hash</title>
<path fill="none" stroke="black" d="M738.36,-598.66C744.42,-603.02 750.63,-607.88 756,-612.9 789.27,-643.99 821.19,-685.99 840.54,-713.26"/>
<polygon fill="black" stroke="black" points="837.61,-715.18 846.21,-721.36 843.34,-711.16 837.61,-715.18"/>
</g>
<!-- object&#45;&gt;parse -->
<g id="edge63" class="edge">
<title>object&#45;&gt;parse</title>
<path fill="none" stroke="black" d="M738.49,-572.07C824.68,-545 1085.21,-463.18 1182.61,-432.6"/>
<polygon fill="black" stroke="black" points="1183.45,-436 1191.94,-429.67 1181.35,-429.32 1183.45,-436"/>
</g>
<!-- opentheory&#45;&gt;hol -->
<g id="edge64" class="edge">
<title>opentheory&#45;&gt;hol</title>
<path fill="none" stroke="black" d="M368.68,-1482.36C448.06,-1483.9 617.79,-1482.45 756,-1448.9 779.03,-1443.31 803.48,-1433.11 822.82,-1423.94"/>
<polygon fill="black" stroke="black" points="824.18,-1427.17 831.64,-1419.65 821.12,-1420.88 824.18,-1427.17"/>
</g>
<!-- parquet -->
<g id="node28" class="node">
<title>parquet</title>
<polygon fill="none" stroke="black" points="483.62,-658.9 416.62,-658.9 416.62,-622.9 483.62,-622.9 483.62,-658.9"/>
<text text-anchor="middle" x="450.12" y="-636.6" font-family="sans-serif" font-size="14.00">parquet</text>
</g>
<!-- parquet&#45;&gt;arrow -->
<g id="edge65" class="edge">
<title>parquet&#45;&gt;arrow</title>
<path fill="none" stroke="black" d="M483.9,-625.44C501.62,-617.09 523.57,-606.74 541.85,-598.12"/>
<polygon fill="black" stroke="black" points="543.2,-601.35 550.76,-593.92 540.22,-595.02 543.2,-601.35"/>
</g>
<!-- pure&#45;trusted -->
<g id="node32" class="node">
<title>pure&#45;trusted</title>
<polygon fill="#ffd6d6" stroke="black" points="1270.5,-1384.9 1171.25,-1384.9 1171.25,-1348.9 1270.5,-1348.9 1270.5,-1384.9"/>
<text text-anchor="middle" x="1220.88" y="-1362.6" font-family="sans-serif" font-size="14.00">pure&#45;trusted</text>
</g>
<!-- pure&#45;&gt;pure&#45;trusted -->
<g id="edge66" class="edge">
<title>pure&#45;&gt;pure&#45;trusted</title>
<path fill="none" stroke="black" d="M1135.75,-1366.9C1143.04,-1366.9 1151.27,-1366.9 1159.64,-1366.9"/>
<polygon fill="black" stroke="black" points="1159.57,-1370.4 1169.57,-1366.9 1159.57,-1363.4 1159.57,-1370.4"/>
</g>
<!-- pure&#45;trusted&#45;&gt;types -->
<g id="edge67" class="edge">
<title>pure&#45;trusted&#45;&gt;types</title>
<path fill="none" stroke="black" d="M1251.05,-1348.49C1257.55,-1344.17 1264.34,-1339.48 1270.5,-1334.9 1281.48,-1326.72 1293.09,-1317.23 1303.25,-1308.62"/>
<polygon fill="black" stroke="black" points="1305.29,-1311.48 1310.61,-1302.31 1300.74,-1306.16 1305.29,-1311.48"/>
</g>
<!-- python -->
<g id="node33" class="node">
<title>python</title>
<polygon fill="none" stroke="black" points="91.38,-468.9 29.62,-468.9 29.62,-432.9 91.38,-432.9 91.38,-468.9"/>
<text text-anchor="middle" x="60.5" y="-446.6" font-family="sans-serif" font-size="14.00">python</text>
</g>
<!-- python&#45;&gt;crypto&#45;sig -->
<g id="edge68" class="edge">
<title>python&#45;&gt;crypto&#45;sig</title>
<path fill="none" stroke="black" d="M91.82,-450.9C107.57,-450.9 127.26,-450.9 145.4,-450.9"/>
<polygon fill="black" stroke="black" points="145.23,-454.4 155.23,-450.9 145.23,-447.4 145.23,-454.4"/>
</g>
<!-- python&#45;&gt;git -->
<g id="edge69" class="edge">
<title>python&#45;&gt;git</title>
<path fill="none" stroke="black" d="M68.02,-469.31C80.78,-503.3 111.8,-576.82 157,-624.9 233.33,-706.09 352.88,-766.4 412.6,-793.34"/>
<polygon fill="black" stroke="black" points="411.09,-796.49 421.65,-797.36 413.94,-790.1 411.09,-796.49"/>
</g>
<!-- python&#45;&gt;graph -->
<g id="edge70" class="edge">
<title>python&#45;&gt;graph</title>
<path fill="none" stroke="black" d="M76.14,-432.75C93.19,-413.14 123.36,-382.96 157,-369.9 243.12,-336.44 354.49,-345 411.64,-352.74"/>
<polygon fill="black" stroke="black" points="411.09,-356.2 421.49,-354.15 412.08,-349.27 411.09,-356.2"/>
</g>
<!-- python&#45;&gt;hash -->
<g id="edge71" class="edge">
<title>python&#45;&gt;hash</title>
<path fill="none" stroke="black" d="M91.76,-464.48C128.32,-478.86 191.14,-497.06 241.25,-477.9 332.09,-443.16 313.41,-366.63 404.25,-331.9 442.34,-317.33 455.93,-324.36 496,-331.9 557.3,-343.43 582.45,-338.98 626.75,-382.9 657.34,-413.23 632.39,-442.33 662.75,-472.9 694.29,-504.64 726.42,-477.32 756,-510.9 797.05,-557.49 765.62,-589.68 792,-645.9 803.56,-670.52 821.58,-695.51 836.07,-713.67"/>
<polygon fill="black" stroke="black" points="833.29,-715.79 842.32,-721.33 838.72,-711.37 833.29,-715.79"/>
</g>
<!-- python&#45;&gt;kv -->
<g id="edge72" class="edge">
<title>python&#45;&gt;kv</title>
<path fill="none" stroke="black" d="M91.82,-438.91C112.4,-430.78 139.72,-419.98 161.52,-411.37"/>
<polygon fill="black" stroke="black" points="162.61,-414.7 170.62,-407.77 160.04,-408.19 162.61,-414.7"/>
</g>
<!-- python&#45;&gt;llm -->
<g id="edge73" class="edge">
<title>python&#45;&gt;llm</title>
<path fill="none" stroke="black" d="M61.74,-469.34C63.37,-526.79 75.12,-705.58 157,-819.9 158.7,-822.27 160.67,-824.48 162.82,-826.55"/>
<polygon fill="black" stroke="black" points="160.59,-829.25 170.57,-832.79 164.98,-823.79 160.59,-829.25"/>
</g>
<!-- python&#45;&gt;object -->
<g id="edge74" class="edge">
<title>python&#45;&gt;object</title>
<path fill="none" stroke="black" d="M71.92,-432.43C87.05,-407.67 117.63,-364.66 157,-345.9 293.13,-281.03 354.68,-279.29 496,-331.9 567.98,-358.69 578.53,-385.11 626.75,-444.9 647.73,-470.9 645.61,-482.21 662.75,-510.9 671.14,-524.95 681,-540.21 689.4,-552.89"/>
<polygon fill="black" stroke="black" points="686.47,-554.8 694.93,-561.17 692.29,-550.91 686.47,-554.8"/>
</g>
<!-- python&#45;&gt;repl -->
<g id="edge75" class="edge">
<title>python&#45;&gt;repl</title>
<path fill="none" stroke="black" d="M76.37,-469.07C94.09,-490 125.32,-524.62 157,-548.9 162.73,-553.28 238.6,-595.2 285.36,-620.92"/>
<polygon fill="black" stroke="black" points="283.65,-623.97 294.1,-625.72 287.02,-617.84 283.65,-623.97"/>
</g>
<!-- sat -->
<g id="node36" class="node">
<title>sat</title>
<polygon fill="none" stroke="black" points="887.38,-64.9 833.38,-64.9 833.38,-28.9 887.38,-28.9 887.38,-64.9"/>
<text text-anchor="middle" x="860.38" y="-42.6" font-family="sans-serif" font-size="14.00">sat</text>
</g>
<!-- python&#45;&gt;sat -->
<g id="edge76" class="edge">
<title>python&#45;&gt;sat</title>
<path fill="none" stroke="black" d="M63.08,-432.58C69.7,-360.19 97.68,-95.42 157,-40.9 211.48,9.18 247.75,-16.9 321.75,-16.9 321.75,-16.9 321.75,-16.9 580.38,-16.9 667.11,-16.9 768.14,-31.41 821.64,-40.24"/>
<polygon fill="black" stroke="black" points="821,-43.68 831.44,-41.89 822.16,-36.78 821,-43.68"/>
</g>
<!-- python&#45;&gt;serve -->
<g id="edge77" class="edge">
<title>python&#45;&gt;serve</title>
<path fill="none" stroke="black" d="M65.36,-469.26C75.68,-516.16 106.6,-643.39 157,-738.9 161.87,-748.13 168.3,-757.45 174.63,-765.68"/>
<polygon fill="black" stroke="black" points="171.71,-767.64 180.69,-773.27 177.18,-763.27 171.71,-767.64"/>
</g>
<!-- python&#45;&gt;sexp -->
<g id="edge78" class="edge">
<title>python&#45;&gt;sexp</title>
<path fill="none" stroke="black" d="M64.61,-432.61C72.39,-392.86 96.58,-298.42 157,-251.9 322.67,-124.33 461.28,-98.06 626.75,-225.9 676.91,-264.65 627.61,-311.14 662.75,-363.9 691.63,-407.25 715.97,-401.57 756,-434.9 835.74,-501.27 855.57,-518.36 928.75,-591.9 945.62,-608.85 948.37,-614.47 964.75,-631.9 999.73,-669.11 1018.9,-670.14 1045.25,-713.9 1077.47,-767.4 1094.68,-839.39 1102.29,-879.23"/>
<polygon fill="black" stroke="black" points="1098.84,-879.82 1104.09,-889.02 1105.73,-878.56 1098.84,-879.82"/>
</g>
<!-- python&#45;&gt;shell -->
<g id="edge79" class="edge">
<title>python&#45;&gt;shell</title>
<path fill="none" stroke="black" d="M64.01,-469.06C72.56,-528.5 103.03,-722.09 157,-873.9 177.12,-930.48 234.55,-1073.67 277.25,-1115.9 315.42,-1153.64 374.12,-1176.85 412.07,-1188.81"/>
<polygon fill="black" stroke="black" points="410.63,-1192.03 421.21,-1191.59 412.66,-1185.33 410.63,-1192.03"/>
</g>
<!-- python&#45;&gt;store -->
<g id="edge80" class="edge">
<title>python&#45;&gt;store</title>
<path fill="none" stroke="black" d="M70.52,-469.37C85.17,-497.74 116.63,-552.28 157,-585.9 188.71,-612.3 208.49,-599.81 241.25,-624.9 261.04,-640.05 256.84,-653.59 277.25,-667.9 343.94,-714.66 579.2,-786.9 671.15,-814.07"/>
<polygon fill="black" stroke="black" points="670.11,-817.41 680.69,-816.88 672.08,-810.69 670.11,-817.41"/>
</g>
<!-- python&#45;&gt;wasm -->
<g id="edge81" class="edge">
<title>python&#45;&gt;wasm</title>
<path fill="none" stroke="black" d="M62.63,-432.62C66.64,-381.75 84.21,-236.37 157,-146.9 209.93,-81.84 237.88,-54.9 321.75,-54.9 321.75,-54.9 321.75,-54.9 451.12,-54.9 667.56,-54.9 727.92,-69.2 928.75,-149.9 943.42,-155.79 958.34,-164.61 970.99,-173.08"/>
<polygon fill="black" stroke="black" points="968.72,-175.77 978.93,-178.58 972.7,-170.01 968.72,-175.77"/>
</g>
<!-- wasm&#45;store -->
<g id="node48" class="node">
<title>wasm&#45;store</title>
<polygon fill="none" stroke="black" points="626.75,-270.9 532,-270.9 532,-234.9 626.75,-234.9 626.75,-270.9"/>
<text text-anchor="middle" x="579.38" y="-248.6" font-family="sans-serif" font-size="14.00">wasm&#45;store</text>
</g>
<!-- python&#45;&gt;wasm&#45;store -->
<g id="edge82" class="edge">
<title>python&#45;&gt;wasm&#45;store</title>
<path fill="none" stroke="black" d="M68.12,-432.51C80.55,-400.6 110.39,-334.91 157,-298.9 263.27,-216.77 432.17,-228.36 520.4,-241.79"/>
<polygon fill="black" stroke="black" points="519.6,-245.2 530.03,-243.32 520.7,-238.29 519.6,-245.2"/>
</g>
<!-- repl&#45;&gt;arrow -->
<g id="edge83" class="edge">
<title>repl&#45;&gt;arrow</title>
<path fill="none" stroke="black" d="M349.94,-631.1C365.55,-625.52 385.85,-618.7 404.25,-613.9 450.79,-601.74 505.42,-592.13 540.91,-586.48"/>
<polygon fill="black" stroke="black" points="541.33,-589.96 550.67,-584.95 540.25,-583.04 541.33,-589.96"/>
</g>
<!-- repl&#45;&gt;forsp -->
<g id="edge84" class="edge">
<title>repl&#45;&gt;forsp</title>
<path fill="none" stroke="black" d="M327.65,-659.16C335.58,-696.45 354.04,-784.07 368.25,-857.9 385.32,-946.59 344.03,-990.59 404.25,-1057.9 437.7,-1095.28 582.32,-1119.18 626.75,-1095.9 651.65,-1082.85 642.93,-1063.83 662.75,-1043.9 665.88,-1040.74 669.36,-1037.69 672.96,-1034.81"/>
<polygon fill="black" stroke="black" points="674.91,-1037.72 680.81,-1028.92 670.71,-1032.12 674.91,-1037.72"/>
</g>
<!-- repl&#45;&gt;git -->
<g id="edge85" class="edge">
<title>repl&#45;&gt;git</title>
<path fill="none" stroke="black" d="M337.41,-659.19C359.45,-688.73 403,-747.09 428.73,-781.57"/>
<polygon fill="black" stroke="black" points="425.79,-783.49 434.58,-789.41 431.4,-779.3 425.79,-783.49"/>
</g>
<!-- repl&#45;&gt;graph -->
<g id="edge86" class="edge">
<title>repl&#45;&gt;graph</title>
<path fill="none" stroke="black" d="M329.31,-622.49C340.94,-585.03 369.63,-497.64 404.25,-428.9 411.52,-414.45 421.03,-399.24 429.42,-386.7"/>
<polygon fill="black" stroke="black" points="432.24,-388.77 434.99,-378.54 426.46,-384.82 432.24,-388.77"/>
</g>
<!-- repl&#45;&gt;hash -->
<g id="edge87" class="edge">
<title>repl&#45;&gt;hash</title>
<path fill="none" stroke="black" d="M350.03,-652.12C365.5,-658.11 385.63,-664.86 404.25,-667.9 444.5,-674.47 456.21,-676.82 496,-667.9 513.27,-664.02 514.73,-654.77 532,-650.9 629.14,-629.11 662.76,-616 756,-650.9 789.34,-663.38 819.03,-692.01 837.93,-713.66"/>
<polygon fill="black" stroke="black" points="835.25,-715.9 844.38,-721.28 840.6,-711.38 835.25,-715.9"/>
</g>
<!-- repl&#45;&gt;init -->
<g id="edge88" class="edge">
<title>repl&#45;&gt;init</title>
<path fill="none" stroke="black" d="M327.8,-659.13C336.01,-696.37 354.95,-783.9 368.25,-857.9 386.78,-961.03 340,-1008.12 404.25,-1090.9 471.01,-1176.9 605.72,-1206.82 671.1,-1216.56"/>
<polygon fill="black" stroke="black" points="670.21,-1219.96 680.59,-1217.89 671.18,-1213.03 670.21,-1219.96"/>
</g>
<!-- repl&#45;&gt;object -->
<g id="edge89" class="edge">
<title>repl&#45;&gt;object</title>
<path fill="none" stroke="black" d="M349.21,-622.56C364.57,-612.16 384.86,-599.53 404.25,-590.9 458.25,-566.85 473.48,-562.2 532,-553.9 573.69,-547.98 585.17,-547.2 626.75,-553.9 641.14,-556.21 656.43,-560.69 669.84,-565.35"/>
<polygon fill="black" stroke="black" points="668.58,-568.61 679.18,-568.74 670.97,-562.03 668.58,-568.61"/>
</g>
<!-- repl&#45;&gt;parquet -->
<g id="edge90" class="edge">
<title>repl&#45;&gt;parquet</title>
<path fill="none" stroke="black" d="M350.03,-640.9C365.89,-640.9 386.51,-640.9 404.83,-640.9"/>
<polygon fill="black" stroke="black" points="404.66,-644.4 414.66,-640.9 404.66,-637.4 404.66,-644.4"/>
</g>
<!-- repl&#45;&gt;shell -->
<g id="edge91" class="edge">
<title>repl&#45;&gt;shell</title>
<path fill="none" stroke="black" d="M328.1,-659.37C336.77,-696.7 356.37,-783.85 368.25,-857.9 379.2,-926.15 369.08,-1107.38 404.25,-1166.9 406.84,-1171.28 410.29,-1175.22 414.13,-1178.72"/>
<polygon fill="black" stroke="black" points="411.76,-1181.31 421.79,-1184.72 416.08,-1175.8 411.76,-1181.31"/>
</g>
<!-- repl&#45;&gt;wasm -->
<g id="edge92" class="edge">
<title>repl&#45;&gt;wasm</title>
<path fill="none" stroke="black" d="M339.81,-622.51C373.95,-582.44 454.06,-483.01 496,-385.9 524.9,-318.98 479.82,-276.79 532,-225.9 651.07,-109.77 877.34,-159.92 966.52,-185.89"/>
<polygon fill="black" stroke="black" points="965.41,-189.21 975.99,-188.72 967.41,-182.5 965.41,-189.21"/>
</g>
<!-- sat&#45;&gt;parse -->
<g id="edge93" class="edge">
<title>sat&#45;&gt;parse</title>
<path fill="none" stroke="black" d="M887.69,-57.74C900.44,-63.4 915.77,-70.83 928.75,-78.9 984.79,-113.71 999.99,-122.89 1045.25,-170.9 1113.6,-243.38 1175.83,-344.4 1204,-392.83"/>
<polygon fill="black" stroke="black" points="1200.85,-394.38 1208.88,-401.29 1206.92,-390.88 1200.85,-394.38"/>
</g>
<!-- sat&#45;&gt;types -->
<g id="edge94" class="edge">
<title>sat&#45;&gt;types</title>
<path fill="none" stroke="black" d="M887.87,-49.05C925.64,-53.22 995.86,-65.08 1045.25,-97.9 1080.47,-121.3 1259.49,-364.13 1270.5,-393.9 1330.76,-556.77 1333.01,-1117.62 1332.65,-1253.21"/>
<polygon fill="black" stroke="black" points="1329.15,-1253.12 1332.62,-1263.13 1336.15,-1253.14 1329.15,-1253.12"/>
</g>
<!-- sat&#45;&gt;wasm -->
<g id="edge95" class="edge">
<title>sat&#45;&gt;wasm</title>
<path fill="none" stroke="black" d="M887.71,-55.41C901.07,-60.66 916.93,-68.42 928.75,-78.9 944.04,-92.44 971.43,-139.01 988.61,-169.72"/>
<polygon fill="black" stroke="black" points="985.37,-171.08 993.28,-178.13 991.49,-167.69 985.37,-171.08"/>
</g>
<!-- serve&#45;&gt;core -->
<g id="edge96" class="edge">
<title>serve&#45;&gt;core</title>
<path fill="none" stroke="black" d="M226.26,-805.06C232.09,-808.99 237.62,-813.91 241.25,-819.9 323.95,-956.25 204.78,-1034.84 277.25,-1176.9 346.16,-1311.98 393.83,-1341.39 532,-1403.9 693.06,-1476.75 764.93,-1498.3 928.75,-1431.9 951.52,-1422.67 971.2,-1402.87 984.72,-1386.22"/>
<polygon fill="black" stroke="black" points="987.29,-1388.62 990.65,-1378.57 981.75,-1384.33 987.29,-1388.62"/>
</g>
<!-- serve&#45;&gt;git -->
<g id="edge97" class="edge">
<title>serve&#45;&gt;git</title>
<path fill="none" stroke="black" d="M226.3,-794.58C270.57,-797.42 360.39,-803.19 411.44,-806.47"/>
<polygon fill="black" stroke="black" points="411.21,-809.97 421.41,-807.12 411.66,-802.98 411.21,-809.97"/>
</g>
<!-- serve&#45;&gt;hash -->
<g id="edge98" class="edge">
<title>serve&#45;&gt;hash</title>
<path fill="none" stroke="black" d="M226.46,-790.63C297.09,-784.58 496.62,-767.63 662.75,-754.9 717.95,-750.66 781.9,-746.19 821.5,-743.47"/>
<polygon fill="black" stroke="black" points="821.72,-746.96 831.46,-742.79 821.25,-739.98 821.72,-746.96"/>
</g>
<!-- serve&#45;&gt;init -->
<g id="edge99" class="edge">
<title>serve&#45;&gt;init</title>
<path fill="none" stroke="black" d="M226.6,-805.4C232.28,-809.28 237.65,-814.09 241.25,-819.9 311.13,-932.5 215,-998.9 277.25,-1115.9 312.33,-1181.82 334.28,-1199.81 404.25,-1225.9 495.17,-1259.8 612.25,-1242.46 671.1,-1229.97"/>
<polygon fill="black" stroke="black" points="671.58,-1233.45 680.59,-1227.88 670.07,-1226.61 671.58,-1233.45"/>
</g>
<!-- serve&#45;&gt;metamath -->
<g id="edge100" class="edge">
<title>serve&#45;&gt;metamath</title>
<path fill="none" stroke="black" d="M200.48,-774.64C202.38,-730.8 213.55,-618.91 277.25,-560.9 469.62,-385.7 823.6,-486.25 954.04,-532"/>
<polygon fill="black" stroke="black" points="952.48,-535.16 963.07,-535.21 954.83,-528.56 952.48,-535.16"/>
</g>
<!-- serve&#45;&gt;object -->
<g id="edge101" class="edge">
<title>serve&#45;&gt;object</title>
<path fill="none" stroke="black" d="M203.48,-774.47C210.82,-739.01 231.45,-660.69 277.25,-613.9 320.65,-569.55 344.24,-571.68 404.25,-555.9 500,-530.72 529.87,-524.48 626.75,-544.9 641.46,-548 656.75,-553.92 670.06,-560.08"/>
<polygon fill="black" stroke="black" points="668.38,-563.15 678.9,-564.36 671.43,-556.85 668.38,-563.15"/>
</g>
<!-- serve&#45;&gt;proto -->
<g id="edge102" class="edge">
<title>serve&#45;&gt;proto</title>
<path fill="none" stroke="black" d="M226.24,-809.13C231.32,-812.54 236.53,-816.22 241.25,-819.9 258.38,-833.23 260.41,-839.2 277.25,-852.9 280.13,-855.24 283.16,-857.61 286.24,-859.94"/>
<polygon fill="black" stroke="black" points="284.14,-862.75 294.26,-865.89 288.31,-857.12 284.14,-862.75"/>
</g>
<!-- serve&#45;&gt;repl -->
<g id="edge103" class="edge">
<title>serve&#45;&gt;repl</title>
<path fill="none" stroke="black" d="M214.8,-774.56C235.98,-748.09 275.29,-698.96 299.9,-668.2"/>
<polygon fill="black" stroke="black" points="302.57,-670.47 306.08,-660.48 297.1,-666.1 302.57,-670.47"/>
</g>
<!-- serve&#45;&gt;shell -->
<g id="edge104" class="edge">
<title>serve&#45;&gt;shell</title>
<path fill="none" stroke="black" d="M226.53,-805.44C232.21,-809.32 237.6,-814.12 241.25,-819.9 303.58,-918.5 208.19,-985.87 277.25,-1079.9 303.73,-1115.95 333,-1095.36 368.25,-1122.9 388.16,-1138.45 385.8,-1149.63 404.25,-1166.9 407.29,-1169.74 410.6,-1172.55 413.99,-1175.24"/>
<polygon fill="black" stroke="black" points="411.75,-1177.94 421.84,-1181.16 415.97,-1172.35 411.75,-1177.94"/>
</g>
<!-- serve&#45;&gt;store -->
<g id="edge105" class="edge">
<title>serve&#45;&gt;store</title>
<path fill="none" stroke="black" d="M226.35,-801.18C241.18,-805.66 260.13,-811.05 277.25,-814.9 428.97,-848.96 471.5,-839.57 626.75,-830.9 641.16,-830.09 656.98,-828.98 670.83,-827.93"/>
<polygon fill="black" stroke="black" points="670.71,-831.45 680.41,-827.19 670.17,-824.47 670.71,-831.45"/>
</g>
<!-- sexp&#45;&gt;parse -->
<g id="edge106" class="edge">
<title>sexp&#45;&gt;parse</title>
<path fill="none" stroke="black" d="M1113.38,-890.66C1130.07,-817.05 1192.54,-541.47 1213.2,-450.35"/>
<polygon fill="black" stroke="black" points="1216.59,-451.23 1215.38,-440.7 1209.76,-449.68 1216.59,-451.23"/>
</g>
<!-- shell&#45;&gt;hol -->
<g id="edge107" class="edge">
<title>shell&#45;&gt;hol</title>
<path fill="none" stroke="black" d="M458.76,-1217.1C477.53,-1261.65 524.88,-1372.87 532,-1377.9 577.73,-1410.15 745.74,-1408.82 821.67,-1406.44"/>
<polygon fill="black" stroke="black" points="821.65,-1409.94 831.52,-1406.11 821.41,-1402.95 821.65,-1409.94"/>
</g>
<!-- shell&#45;&gt;kernel -->
<g id="edge108" class="edge">
<title>shell&#45;&gt;kernel</title>
<path fill="none" stroke="black" d="M469.09,-1180.55C490.88,-1158.29 527.77,-1120.6 552.59,-1095.24"/>
<polygon fill="black" stroke="black" points="554.95,-1097.83 559.45,-1088.23 549.95,-1092.93 554.95,-1097.83"/>
</g>
<!-- smt&#45;&gt;sat -->
<g id="edge109" class="edge">
<title>smt&#45;&gt;sat</title>
<path fill="none" stroke="black" d="M736.76,-1265.08C744.26,-1260.95 751.58,-1255.34 756,-1247.9 814.01,-1150.2 769.69,-337.31 792,-225.9 803.03,-170.81 828.91,-110.35 845.19,-75.68"/>
<polygon fill="black" stroke="black" points="848.31,-77.27 849.46,-66.74 841.99,-74.26 848.31,-77.27"/>
</g>
<!-- smt&#45;&gt;sexp -->
<g id="edge110" class="edge">
<title>smt&#45;&gt;sexp</title>
<path fill="none" stroke="black" d="M736.62,-1271.37C799.66,-1261.49 960.68,-1227.61 1045.25,-1130.9 1093.73,-1075.45 1104.55,-984.98 1106.8,-938.51"/>
<polygon fill="black" stroke="black" points="1110.29,-938.79 1107.16,-928.67 1103.3,-938.53 1110.29,-938.79"/>
</g>
<!-- smt&#45;&gt;types -->
<g id="edge111" class="edge">
<title>smt&#45;&gt;types</title>
<path fill="none" stroke="black" d="M736.69,-1276.09C788.06,-1278.33 905.32,-1282.9 1004,-1282.9 1004,-1282.9 1004,-1282.9 1109.25,-1282.9 1174.4,-1282.9 1250.24,-1282.9 1294.65,-1282.9"/>
<polygon fill="black" stroke="black" points="1294.52,-1286.4 1304.52,-1282.9 1294.52,-1279.4 1294.52,-1286.4"/>
</g>
<!-- spectec&#45;&gt;grammar -->
<g id="edge112" class="edge">
<title>spectec&#45;&gt;grammar</title>
<path fill="none" stroke="black" d="M895.18,-1089.4C913.51,-1091.84 936.47,-1094.9 956.56,-1097.58"/>
<polygon fill="black" stroke="black" points="955.82,-1101.01 966.2,-1098.86 956.75,-1094.07 955.82,-1101.01"/>
</g>
<!-- store&#45;&gt;hash -->
<g id="edge113" class="edge">
<title>store&#45;&gt;hash</title>
<path fill="none" stroke="black" d="M736.67,-810.07C760.75,-796.5 796.59,-776.29 823.33,-761.21"/>
<polygon fill="black" stroke="black" points="824.78,-764.42 831.77,-756.46 821.34,-758.32 824.78,-764.42"/>
</g>
<!-- store&#45;&gt;json -->
<g id="edge114" class="edge">
<title>store&#45;&gt;json</title>
<path fill="none" stroke="black" d="M723.6,-806.62C749.83,-770.35 808.58,-689.12 839.49,-646.38"/>
<polygon fill="black" stroke="black" points="842.27,-648.52 845.29,-638.36 836.6,-644.41 842.27,-648.52"/>
</g>
<!-- store&#45;&gt;sqlite -->
<g id="edge115" class="edge">
<title>store&#45;&gt;sqlite</title>
<path fill="none" stroke="black" d="M736.67,-824.9C760.32,-824.9 795.33,-824.9 821.91,-824.9"/>
<polygon fill="black" stroke="black" points="821.58,-828.4 831.58,-824.9 821.58,-821.4 821.58,-828.4"/>
</g>
<!-- wasm&#45;build&#45;guest -->
<g id="node46" class="node">
<title>wasm&#45;build&#45;guest</title>
<polygon fill="none" stroke="black" points="928.75,-270.9 792,-270.9 792,-234.9 928.75,-234.9 928.75,-270.9"/>
<text text-anchor="middle" x="860.38" y="-248.6" font-family="sans-serif" font-size="14.00">wasm&#45;build&#45;guest</text>
</g>
<!-- wasm&#45;build&#45;guest&#45;&gt;wasm -->
<g id="edge116" class="edge">
<title>wasm&#45;build&#45;guest&#45;&gt;wasm</title>
<path fill="none" stroke="black" d="M909.26,-234.43C928.07,-227.18 949.33,-218.98 966.93,-212.19"/>
<polygon fill="black" stroke="black" points="968.16,-215.47 976.23,-208.61 965.64,-208.94 968.16,-215.47"/>
</g>
<!-- wasm&#45;spec -->
<g id="node47" class="node">
<title>wasm&#45;spec</title>
<polygon fill="none" stroke="black" points="756,-285.9 662.75,-285.9 662.75,-249.9 756,-249.9 756,-285.9"/>
<text text-anchor="middle" x="709.38" y="-263.6" font-family="sans-serif" font-size="14.00">wasm&#45;spec</text>
</g>
<!-- wasm&#45;spec&#45;&gt;hash -->
<g id="edge117" class="edge">
<title>wasm&#45;spec&#45;&gt;hash</title>
<path fill="none" stroke="black" d="M736.59,-286.21C744.09,-292.8 751.45,-300.86 756,-309.9 823.58,-444.02 738.84,-505.43 792,-645.9 801.57,-671.18 819.52,-695.96 834.49,-713.88"/>
<polygon fill="black" stroke="black" points="831.82,-716.14 840.99,-721.44 837.12,-711.57 831.82,-716.14"/>
</g>
<!-- wasm&#45;spec&#45;&gt;wasm -->
<g id="edge118" class="edge">
<title>wasm&#45;spec&#45;&gt;wasm</title>
<path fill="none" stroke="black" d="M739.93,-249.55C754.99,-241.03 773.9,-231.56 792,-225.9 851.1,-207.4 923.2,-201.12 966.26,-198.99"/>
<polygon fill="black" stroke="black" points="966.25,-202.49 976.09,-198.56 965.94,-195.5 966.25,-202.49"/>
</g>
<!-- wasm&#45;store&#45;&gt;json -->
<g id="edge119" class="edge">
<title>wasm&#45;store&#45;&gt;json</title>
<path fill="none" stroke="black" d="M613.53,-271.18C618.54,-275.15 623.21,-279.73 626.75,-284.9 665.53,-341.44 620.42,-380.97 662.75,-434.9 691.53,-471.56 720.29,-452.93 756,-482.9 793.19,-514.1 825.09,-561.01 843.25,-590.78"/>
<polygon fill="black" stroke="black" points="840.18,-592.45 848.32,-599.24 846.19,-588.86 840.18,-592.45"/>
</g>
<!-- wasm&#45;store&#45;&gt;store -->
<g id="edge120" class="edge">
<title>wasm&#45;store&#45;&gt;store</title>
<path fill="none" stroke="black" d="M584.49,-271.28C603.03,-354.14 678.93,-693.32 701.81,-795.58"/>
<polygon fill="black" stroke="black" points="698.35,-796.11 703.95,-805.1 705.18,-794.58 698.35,-796.11"/>
</g>
<!-- wasm&#45;store&#45;&gt;wasm -->
<g id="edge121" class="edge">
<title>wasm&#45;store&#45;&gt;wasm</title>
<path fill="none" stroke="black" d="M627.19,-237.06C669.63,-223.59 734.2,-205.28 792,-197.9 852.44,-190.17 923.36,-192.44 965.94,-195"/>
<polygon fill="black" stroke="black" points="965.71,-198.49 975.91,-195.65 966.16,-191.51 965.71,-198.49"/>
</g>
<!-- web&#45;kernel -->
<g id="node49" class="node">
<title>web&#45;kernel</title>
<polygon fill="none" stroke="black" points="496,-1048.9 404.25,-1048.9 404.25,-1012.9 496,-1012.9 496,-1048.9"/>
<text text-anchor="middle" x="450.12" y="-1026.6" font-family="sans-serif" font-size="14.00">web&#45;kernel</text>
</g>
<!-- web&#45;kernel&#45;&gt;kernel -->
<g id="edge122" class="edge">
<title>web&#45;kernel&#45;&gt;kernel</title>
<path fill="none" stroke="black" d="M496.35,-1044.4C510.41,-1048.6 525.79,-1053.19 539.39,-1057.25"/>
<polygon fill="black" stroke="black" points="538.29,-1060.58 548.88,-1060.09 540.3,-1053.87 538.29,-1060.58"/>
</g>
</g>
</svg>
