<?xml version="1.0" encoding="UTF-8" standalone="no"?>
<!DOCTYPE svg PUBLIC "-//W3C//DTD SVG 1.1//EN"
 "http://www.w3.org/Graphics/SVG/1.1/DTD/svg11.dtd">
<!-- Generated by graphviz version 12.2.1 (0)
 -->
<!-- Title: deps Pages: 1 -->
<svg width="1518pt" height="2614pt"
 viewBox="0.00 0.00 1517.50 2614.00" xmlns="http://www.w3.org/2000/svg" xmlns:xlink="http://www.w3.org/1999/xlink">
<g id="graph0" class="graph" transform="scale(1 1) rotate(0) translate(4 2610)">
<title>deps</title>
<polygon fill="white" stroke="none" points="-4,4 -4,-2610 1513.5,-2610 1513.5,4 -4,4"/>
<!-- covalence -->
<g id="node1" class="node">
<title>covalence</title>
<polygon fill="none" stroke="black" points="102.62,-1036 18.38,-1036 18.38,-1000 102.62,-1000 102.62,-1036"/>
<text text-anchor="middle" x="60.5" y="-1013.7" font-family="sans-serif" font-size="14.00">covalence</text>
</g>
<!-- client -->
<g id="node5" class="node">
<title>client</title>
<polygon fill="none" stroke="black" points="350.12,-939 296.12,-939 296.12,-903 350.12,-903 350.12,-939"/>
<text text-anchor="middle" x="323.12" y="-916.7" font-family="sans-serif" font-size="14.00">client</text>
</g>
<!-- covalence&#45;&gt;client -->
<g id="edge1" class="edge">
<title>covalence&#45;&gt;client</title>
<path fill="none" stroke="black" d="M91.16,-999.51C109.59,-988.63 134.06,-975.23 157,-966 199.6,-948.87 250.94,-936.02 284.94,-928.53"/>
<polygon fill="black" stroke="black" points="285.25,-932.04 294.29,-926.52 283.78,-925.2 285.25,-932.04"/>
</g>
<!-- fuse -->
<g id="node12" class="node">
<title>fuse</title>
<polygon fill="none" stroke="black" points="606.38,-804 552.38,-804 552.38,-768 606.38,-768 606.38,-804"/>
<text text-anchor="middle" x="579.38" y="-781.7" font-family="sans-serif" font-size="14.00">fuse</text>
</g>
<!-- covalence&#45;&gt;fuse -->
<g id="edge2" class="edge">
<title>covalence&#45;&gt;fuse</title>
<path fill="none" stroke="black" d="M78.62,-999.8C96.64,-981.54 126.57,-953.66 157,-936 288.45,-859.73 465.18,-812.41 541.13,-794.35"/>
<polygon fill="black" stroke="black" points="541.6,-797.84 550.54,-792.15 540.01,-791.02 541.6,-797.84"/>
</g>
<!-- git -->
<g id="node13" class="node">
<title>git</title>
<polygon fill="none" stroke="black" points="477.5,-533 423.5,-533 423.5,-497 477.5,-497 477.5,-533"/>
<text text-anchor="middle" x="450.5" y="-510.7" font-family="sans-serif" font-size="14.00">git</text>
</g>
<!-- covalence&#45;&gt;git -->
<g id="edge3" class="edge">
<title>covalence&#45;&gt;git</title>
<path fill="none" stroke="black" d="M64.32,-999.86C75.99,-931.22 127.23,-685.49 277.25,-571 317.35,-540.4 374.82,-526.16 412.16,-519.79"/>
<polygon fill="black" stroke="black" points="412.23,-523.32 421.56,-518.3 411.13,-516.41 412.23,-523.32"/>
</g>
<!-- hash -->
<g id="node16" class="node">
<title>hash</title>
<polygon fill="none" stroke="black" points="887.38,-856 833.38,-856 833.38,-820 887.38,-820 887.38,-856"/>
<text text-anchor="middle" x="860.38" y="-833.7" font-family="sans-serif" font-size="14.00">hash</text>
</g>
<!-- covalence&#45;&gt;hash -->
<g id="edge4" class="edge">
<title>covalence&#45;&gt;hash</title>
<path fill="none" stroke="black" d="M103.01,-1008.78C210.8,-984.83 508.42,-918.54 756,-862 777.92,-856.99 802.44,-851.31 822.09,-846.72"/>
<polygon fill="black" stroke="black" points="822.63,-850.19 831.57,-844.51 821.04,-843.38 822.63,-850.19"/>
</g>
<!-- hol -->
<g id="node18" class="node">
<title>hol</title>
<polygon fill="none" stroke="black" points="887.38,-2344 833.38,-2344 833.38,-2308 887.38,-2308 887.38,-2344"/>
<text text-anchor="middle" x="860.38" y="-2321.7" font-family="sans-serif" font-size="14.00">hol</text>
</g>
<!-- covalence&#45;&gt;hol -->
<g id="edge5" class="edge">
<title>covalence&#45;&gt;hol</title>
<path fill="none" stroke="black" d="M103.06,-1029.62C110.1,-1033.41 116.56,-1038.42 121,-1045 174.41,-1124.2 144.01,-1809.36 157,-1904 200.6,-2221.54 1.61,-2606 322.12,-2606 322.12,-2606 322.12,-2606 580.38,-2606 721.08,-2606 815.36,-2426.4 847.33,-2354.88"/>
<polygon fill="black" stroke="black" points="850.52,-2356.32 851.32,-2345.76 844.11,-2353.52 850.52,-2356.32"/>
</g>
<!-- init -->
<g id="node22" class="node">
<title>init</title>
<polygon fill="none" stroke="black" points="736.38,-1742 682.38,-1742 682.38,-1706 736.38,-1706 736.38,-1742"/>
<text text-anchor="middle" x="709.38" y="-1719.7" font-family="sans-serif" font-size="14.00">init</text>
</g>
<!-- covalence&#45;&gt;init -->
<g id="edge6" class="edge">
<title>covalence&#45;&gt;init</title>
<path fill="none" stroke="black" d="M102.99,-1029.67C110.04,-1033.46 116.52,-1038.45 121,-1045 202.69,-1164.39 60.94,-1586.83 157,-1695 206.47,-1750.72 247.61,-1724 322.12,-1724 322.12,-1724 322.12,-1724 451.5,-1724 529.53,-1724 620.9,-1724 670.92,-1724"/>
<polygon fill="black" stroke="black" points="670.61,-1727.5 680.61,-1724 670.61,-1720.5 670.61,-1727.5"/>
</g>
<!-- lsp -->
<g id="node34" class="node">
<title>lsp</title>
<polygon fill="none" stroke="black" points="887.38,-1190 833.38,-1190 833.38,-1154 887.38,-1154 887.38,-1190"/>
<text text-anchor="middle" x="860.38" y="-1167.7" font-family="sans-serif" font-size="14.00">lsp</text>
</g>
<!-- covalence&#45;&gt;lsp -->
<g id="edge7" class="edge">
<title>covalence&#45;&gt;lsp</title>
<path fill="none" stroke="black" d="M102.83,-1031.41C109.55,-1035 115.95,-1039.47 121,-1045 153.72,-1080.79 130.02,-1107.7 157,-1148 196.8,-1207.45 214.26,-1221.08 277.25,-1255 380.43,-1310.56 415.81,-1307.76 532,-1323 573.75,-1328.48 586.8,-1336.32 626.75,-1323 713.86,-1293.95 711.97,-1244.02 792,-1199 801.52,-1193.65 812.31,-1188.82 822.43,-1184.78"/>
<polygon fill="black" stroke="black" points="823.54,-1188.11 831.63,-1181.26 821.04,-1181.57 823.54,-1188.11"/>
</g>
<!-- object -->
<g id="node38" class="node">
<title>object</title>
<polygon fill="none" stroke="black" points="738,-940 680.75,-940 680.75,-904 738,-904 738,-940"/>
<text text-anchor="middle" x="709.38" y="-917.7" font-family="sans-serif" font-size="14.00">object</text>
</g>
<!-- covalence&#45;&gt;object -->
<g id="edge8" class="edge">
<title>covalence&#45;&gt;object</title>
<path fill="none" stroke="black" d="M102.7,-1028.82C153.8,-1041.26 243.75,-1060 322.12,-1060 322.12,-1060 322.12,-1060 451.5,-1060 534.12,-1060 559.15,-1045.5 626.75,-998 647.42,-983.47 644.23,-971.19 662.75,-954 665.44,-951.5 668.34,-949.03 671.33,-946.65"/>
<polygon fill="black" stroke="black" points="673.34,-949.52 679.21,-940.7 669.12,-943.93 673.34,-949.52"/>
</g>
<!-- opentheory -->
<g id="node39" class="node">
<title>opentheory</title>
<polygon fill="none" stroke="black" points="496,-2358 405,-2358 405,-2322 496,-2322 496,-2358"/>
<text text-anchor="middle" x="450.5" y="-2335.7" font-family="sans-serif" font-size="14.00">opentheory</text>
</g>
<!-- covalence&#45;&gt;opentheory -->
<g id="edge9" class="edge">
<title>covalence&#45;&gt;opentheory</title>
<path fill="none" stroke="black" d="M103,-1029.66C110.05,-1033.45 116.53,-1038.44 121,-1045 164.43,-1108.71 139.29,-1662.96 157,-1738 220.28,-2006.09 235.02,-2089.24 405,-2306 407.28,-2308.91 409.86,-2311.7 412.61,-2314.35"/>
<polygon fill="black" stroke="black" points="410.22,-2316.91 420.06,-2320.84 414.82,-2311.63 410.22,-2316.91"/>
</g>
<!-- proto -->
<g id="node44" class="node">
<title>proto</title>
<polygon fill="none" stroke="black" points="350.12,-1032 296.12,-1032 296.12,-996 350.12,-996 350.12,-1032"/>
<text text-anchor="middle" x="323.12" y="-1009.7" font-family="sans-serif" font-size="14.00">proto</text>
</g>
<!-- covalence&#45;&gt;proto -->
<g id="edge10" class="edge">
<title>covalence&#45;&gt;proto</title>
<path fill="none" stroke="black" d="M103.08,-1017.36C153.03,-1016.6 236.1,-1015.32 284.31,-1014.58"/>
<polygon fill="black" stroke="black" points="284.31,-1018.08 294.26,-1014.43 284.21,-1011.08 284.31,-1018.08"/>
</g>
<!-- repl -->
<g id="node50" class="node">
<title>repl</title>
<polygon fill="none" stroke="black" points="350.12,-728 296.12,-728 296.12,-692 350.12,-692 350.12,-728"/>
<text text-anchor="middle" x="323.12" y="-705.7" font-family="sans-serif" font-size="14.00">repl</text>
</g>
<!-- covalence&#45;&gt;repl -->
<g id="edge11" class="edge">
<title>covalence&#45;&gt;repl</title>
<path fill="none" stroke="black" d="M67.62,-999.61C80.11,-964.06 111.27,-884.71 157,-831 194.06,-787.47 249.75,-750.86 286.02,-729.67"/>
<polygon fill="black" stroke="black" points="287.47,-732.88 294.39,-724.86 283.98,-726.81 287.47,-732.88"/>
</g>
<!-- serve -->
<g id="node53" class="node">
<title>serve</title>
<polygon fill="none" stroke="black" points="226.12,-1139 172.12,-1139 172.12,-1103 226.12,-1103 226.12,-1139"/>
<text text-anchor="middle" x="199.12" y="-1116.7" font-family="sans-serif" font-size="14.00">serve</text>
</g>
<!-- covalence&#45;&gt;serve -->
<g id="edge12" class="edge">
<title>covalence&#45;&gt;serve</title>
<path fill="none" stroke="black" d="M102.86,-1034.47C109.14,-1037.61 115.39,-1041.15 121,-1045 141.26,-1058.92 160.95,-1078.45 175.36,-1094.23"/>
<polygon fill="black" stroke="black" points="172.52,-1096.3 181.79,-1101.42 177.73,-1091.63 172.52,-1096.3"/>
</g>
<!-- shell -->
<g id="node56" class="node">
<title>shell</title>
<polygon fill="none" stroke="black" points="477.5,-1606 423.5,-1606 423.5,-1570 477.5,-1570 477.5,-1606"/>
<text text-anchor="middle" x="450.5" y="-1583.7" font-family="sans-serif" font-size="14.00">shell</text>
</g>
<!-- covalence&#45;&gt;shell -->
<g id="edge13" class="edge">
<title>covalence&#45;&gt;shell</title>
<path fill="none" stroke="black" d="M102.97,-1029.68C110.02,-1033.47 116.51,-1038.45 121,-1045 159.86,-1101.62 107.05,-1614.88 157,-1662 225.54,-1726.66 281.21,-1696.22 369,-1662 393.25,-1652.55 414.61,-1632 429.23,-1614.94"/>
<polygon fill="black" stroke="black" points="431.63,-1617.54 435.27,-1607.59 426.22,-1613.09 431.63,-1617.54"/>
</g>
<!-- store -->
<g id="node60" class="node">
<title>store</title>
<polygon fill="none" stroke="black" points="736.38,-376 682.38,-376 682.38,-340 736.38,-340 736.38,-376"/>
<text text-anchor="middle" x="709.38" y="-353.7" font-family="sans-serif" font-size="14.00">store</text>
</g>
<!-- covalence&#45;&gt;store -->
<g id="edge14" class="edge">
<title>covalence&#45;&gt;store</title>
<path fill="none" stroke="black" d="M61.41,-999.81C61.93,-938.74 70.48,-737.47 157,-605 264.42,-440.52 340.32,-414.04 532,-371 578.97,-360.45 634.56,-357.95 670.59,-357.59"/>
<polygon fill="black" stroke="black" points="670.52,-361.09 680.51,-357.55 670.5,-354.09 670.52,-361.09"/>
</g>
<!-- wasm -->
<g id="node63" class="node">
<title>wasm</title>
<polygon fill="none" stroke="black" points="1028.75,-319 974.5,-319 974.5,-283 1028.75,-283 1028.75,-319"/>
<text text-anchor="middle" x="1001.62" y="-296.7" font-family="sans-serif" font-size="14.00">wasm</text>
</g>
<!-- covalence&#45;&gt;wasm -->
<g id="edge15" class="edge">
<title>covalence&#45;&gt;wasm</title>
<path fill="none" stroke="black" d="M64.44,-999.6C78.95,-909.25 142.73,-515.95 157,-494 233.45,-376.36 541.82,-264.89 662.75,-239 703.28,-230.32 720.36,-217.84 756,-239 784.73,-256.06 763.27,-287.94 792,-305 844.73,-336.3 918.94,-324.46 963.17,-312.85"/>
<polygon fill="black" stroke="black" points="963.84,-316.29 972.54,-310.25 961.97,-309.54 963.84,-316.29"/>
</g>
<!-- acset -->
<g id="node2" class="node">
<title>acset</title>
<polygon fill="none" stroke="black" points="887.38,-1044 833.38,-1044 833.38,-1008 887.38,-1008 887.38,-1044"/>
<text text-anchor="middle" x="860.38" y="-1021.7" font-family="sans-serif" font-size="14.00">acset</text>
</g>
<!-- alethe -->
<g id="node3" class="node">
<title>alethe</title>
<polygon fill="none" stroke="black" points="607.62,-1826 551.12,-1826 551.12,-1790 607.62,-1790 607.62,-1826"/>
<text text-anchor="middle" x="579.38" y="-1803.7" font-family="sans-serif" font-size="14.00">alethe</text>
</g>
<!-- core -->
<g id="node6" class="node">
<title>core</title>
<polygon fill="#ffd6d6" stroke="black" points="1028.62,-2268 974.62,-2268 974.62,-2232 1028.62,-2232 1028.62,-2268"/>
<text text-anchor="middle" x="1001.62" y="-2245.7" font-family="sans-serif" font-size="14.00">core</text>
</g>
<!-- alethe&#45;&gt;core -->
<g id="edge16" class="edge">
<title>alethe&#45;&gt;core</title>
<path fill="none" stroke="black" d="M597.35,-1826.43C631.53,-1864.37 709.36,-1955.03 756,-2043 778.91,-2086.21 755.79,-2114.12 792,-2147 838.29,-2189.03 874.02,-2149.78 928.75,-2180 948.38,-2190.84 966.44,-2208.48 979.55,-2223.34"/>
<polygon fill="black" stroke="black" points="976.54,-2225.2 985.69,-2230.54 981.87,-2220.66 976.54,-2225.2"/>
</g>
<!-- hol&#45;eval -->
<g id="node20" class="node">
<title>hol&#45;eval</title>
<polygon fill="none" stroke="black" points="895.38,-2138 825.38,-2138 825.38,-2102 895.38,-2102 895.38,-2138"/>
<text text-anchor="middle" x="860.38" y="-2115.7" font-family="sans-serif" font-size="14.00">hol&#45;eval</text>
</g>
<!-- alethe&#45;&gt;hol&#45;eval -->
<g id="edge17" class="edge">
<title>alethe&#45;&gt;hol&#45;eval</title>
<path fill="none" stroke="black" d="M607.83,-1816.03C646.85,-1828.89 717.85,-1857.89 756,-1908 795.44,-1959.8 760.37,-1993.09 792,-2050 801.21,-2066.57 815.32,-2082.08 828.25,-2094.27"/>
<polygon fill="black" stroke="black" points="825.64,-2096.63 835.39,-2100.76 830.34,-2091.45 825.64,-2096.63"/>
</g>
<!-- alethe&#45;&gt;init -->
<g id="edge18" class="edge">
<title>alethe&#45;&gt;init</title>
<path fill="none" stroke="black" d="M607.83,-1789.98C626.86,-1777.5 652.36,-1760.76 672.92,-1747.27"/>
<polygon fill="black" stroke="black" points="674.57,-1750.37 681.01,-1741.96 670.73,-1744.52 674.57,-1750.37"/>
</g>
<!-- sexp -->
<g id="node54" class="node">
<title>sexp</title>
<polygon fill="none" stroke="black" points="1028.62,-1423 974.62,-1423 974.62,-1387 1028.62,-1387 1028.62,-1423"/>
<text text-anchor="middle" x="1001.62" y="-1400.7" font-family="sans-serif" font-size="14.00">sexp</text>
</g>
<!-- alethe&#45;&gt;sexp -->
<g id="edge19" class="edge">
<title>alethe&#45;&gt;sexp</title>
<path fill="none" stroke="black" d="M580.07,-1789.8C580.17,-1737.77 587.3,-1586.44 662.75,-1497 664.02,-1495.49 790.11,-1438.57 792,-1438 850.29,-1420.44 920.71,-1411.78 963.01,-1407.86"/>
<polygon fill="black" stroke="black" points="963.26,-1411.35 972.92,-1406.99 962.65,-1404.38 963.26,-1411.35"/>
</g>
<!-- smt -->
<g id="node57" class="node">
<title>smt</title>
<polygon fill="none" stroke="black" points="736.38,-1542 682.38,-1542 682.38,-1506 736.38,-1506 736.38,-1542"/>
<text text-anchor="middle" x="709.38" y="-1519.7" font-family="sans-serif" font-size="14.00">smt</text>
</g>
<!-- alethe&#45;&gt;smt -->
<g id="edge20" class="edge">
<title>alethe&#45;&gt;smt</title>
<path fill="none" stroke="black" d="M581.81,-1789.75C586.23,-1744.55 603.15,-1625.72 662.75,-1551 665.57,-1547.46 669,-1544.28 672.69,-1541.46"/>
<polygon fill="black" stroke="black" points="674.54,-1544.43 680.96,-1536 670.68,-1538.59 674.54,-1544.43"/>
</g>
<!-- types -->
<g id="node62" class="node">
<title>types</title>
<polygon fill="#ffd6d6" stroke="black" points="1509.5,-1903 1455.5,-1903 1455.5,-1867 1509.5,-1867 1509.5,-1903"/>
<text text-anchor="middle" x="1482.5" y="-1880.7" font-family="sans-serif" font-size="14.00">types</text>
</g>
<!-- alethe&#45;&gt;types -->
<g id="edge21" class="edge">
<title>alethe&#45;&gt;types</title>
<path fill="none" stroke="black" d="M608,-1803.64C646.57,-1799.25 716.29,-1797.78 756,-1836 815.1,-1892.88 731.03,-1962.14 792,-2017 861.22,-2079.27 907.52,-2036 1000.62,-2036 1000.62,-2036 1000.62,-2036 1238.25,-2036 1331.49,-2036 1418.69,-1954.93 1458.64,-1911.59"/>
<polygon fill="black" stroke="black" points="1461.09,-1914.1 1465.2,-1904.34 1455.9,-1909.41 1461.09,-1914.1"/>
</g>
<!-- arrow -->
<g id="node4" class="node">
<title>arrow</title>
<polygon fill="none" stroke="black" points="606.38,-636 552.38,-636 552.38,-600 606.38,-600 606.38,-636"/>
<text text-anchor="middle" x="579.38" y="-613.7" font-family="sans-serif" font-size="14.00">arrow</text>
</g>
<!-- client&#45;&gt;hash -->
<g id="edge22" class="edge">
<title>client&#45;&gt;hash</title>
<path fill="none" stroke="black" d="M350.4,-915.95C407.22,-905.14 545.87,-879.3 662.75,-862 717.9,-853.84 782.05,-846.39 821.69,-842.02"/>
<polygon fill="black" stroke="black" points="821.85,-845.52 831.42,-840.96 821.09,-838.57 821.85,-845.52"/>
</g>
<!-- client&#45;&gt;shell -->
<g id="edge23" class="edge">
<title>client&#45;&gt;shell</title>
<path fill="none" stroke="black" d="M340.66,-939.43C350.79,-951.92 362.94,-969.3 369,-987 410.4,-1107.92 338.85,-1451.65 405,-1561 407.35,-1564.89 410.5,-1568.29 414.04,-1571.25"/>
<polygon fill="black" stroke="black" points="411.94,-1574.06 422.16,-1576.85 415.92,-1568.3 411.94,-1574.06"/>
</g>
<!-- client&#45;&gt;store -->
<g id="edge24" class="edge">
<title>client&#45;&gt;store</title>
<path fill="none" stroke="black" d="M347.95,-902.8C413.2,-852.42 592.22,-710.6 626.75,-645 681.08,-541.77 598.14,-482.13 662.75,-385 665.39,-381.03 668.82,-377.57 672.63,-374.56"/>
<polygon fill="black" stroke="black" points="674.31,-377.65 680.71,-369.2 670.44,-371.82 674.31,-377.65"/>
</g>
<!-- pure -->
<g id="node45" class="node">
<title>pure</title>
<polygon fill="#ffd6d6" stroke="black" points="1264.25,-2222 1210.25,-2222 1210.25,-2186 1264.25,-2186 1264.25,-2222"/>
<text text-anchor="middle" x="1237.25" y="-2199.7" font-family="sans-serif" font-size="14.00">pure</text>
</g>
<!-- core&#45;&gt;pure -->
<g id="edge25" class="edge">
<title>core&#45;&gt;pure</title>
<path fill="none" stroke="black" d="M1028.97,-2244.81C1070.53,-2236.63 1151.46,-2220.69 1198.97,-2211.34"/>
<polygon fill="black" stroke="black" points="1199.38,-2214.83 1208.52,-2209.46 1198.03,-2207.96 1199.38,-2214.83"/>
</g>
<!-- pure&#45;eval -->
<g id="node46" class="node">
<title>pure&#45;eval</title>
<polygon fill="#ffd6d6" stroke="black" points="1154.25,-2176 1074.5,-2176 1074.5,-2140 1154.25,-2140 1154.25,-2176"/>
<text text-anchor="middle" x="1114.38" y="-2153.7" font-family="sans-serif" font-size="14.00">pure&#45;eval</text>
</g>
<!-- core&#45;&gt;pure&#45;eval -->
<g id="edge26" class="edge">
<title>core&#45;&gt;pure&#45;eval</title>
<path fill="none" stroke="black" d="M1024.77,-2231.6C1041.3,-2217.88 1064.08,-2198.95 1082.41,-2183.72"/>
<polygon fill="black" stroke="black" points="1084.65,-2186.41 1090.1,-2177.33 1080.17,-2181.03 1084.65,-2186.41"/>
</g>
<!-- core&#45;&gt;types -->
<g id="edge27" class="edge">
<title>core&#45;&gt;types</title>
<path fill="none" stroke="black" d="M1028.88,-2258.64C1101.3,-2280.67 1306.02,-2330.43 1419.5,-2231 1466.88,-2189.48 1478.16,-1989.9 1480.76,-1914.2"/>
<polygon fill="black" stroke="black" points="1484.24,-1914.77 1481.05,-1904.67 1477.24,-1914.55 1484.24,-1914.77"/>
</g>
<!-- core&#45;test&#45;guest -->
<g id="node7" class="node">
<title>core&#45;test&#45;guest</title>
<polygon fill="none" stroke="black" points="121,-1090 0,-1090 0,-1054 121,-1054 121,-1090"/>
<text text-anchor="middle" x="60.5" y="-1067.7" font-family="sans-serif" font-size="14.00">core&#45;test&#45;guest</text>
</g>
<!-- crypto&#45;sig -->
<g id="node8" class="node">
<title>crypto&#45;sig</title>
<polygon fill="none" stroke="black" points="241.25,-36 157,-36 157,0 241.25,0 241.25,-36"/>
<text text-anchor="middle" x="199.12" y="-13.7" font-family="sans-serif" font-size="14.00">crypto&#45;sig</text>
</g>
<!-- decimal&#45;api -->
<g id="node9" class="node">
<title>decimal&#45;api</title>
<polygon fill="none" stroke="black" points="1284.25,-1529 1190.25,-1529 1190.25,-1493 1284.25,-1493 1284.25,-1529"/>
<text text-anchor="middle" x="1237.25" y="-1506.7" font-family="sans-serif" font-size="14.00">decimal&#45;api</text>
</g>
<!-- decimal&#45;api&#45;&gt;types -->
<g id="edge28" class="edge">
<title>decimal&#45;api&#45;&gt;types</title>
<path fill="none" stroke="black" d="M1284.56,-1519.92C1326.2,-1530.4 1385.84,-1552.01 1419.5,-1594 1451.89,-1634.41 1471.58,-1790.05 1478.59,-1855.62"/>
<polygon fill="black" stroke="black" points="1475.08,-1855.67 1479.59,-1865.26 1482.04,-1854.95 1475.08,-1855.67"/>
</g>
<!-- egglog -->
<g id="node10" class="node">
<title>egglog</title>
<polygon fill="none" stroke="black" points="890.88,-1656 829.88,-1656 829.88,-1620 890.88,-1620 890.88,-1656"/>
<text text-anchor="middle" x="860.38" y="-1633.7" font-family="sans-serif" font-size="14.00">egglog</text>
</g>
<!-- egglog&#45;&gt;sexp -->
<g id="edge29" class="edge">
<title>egglog&#45;&gt;sexp</title>
<path fill="none" stroke="black" d="M891.08,-1629.62C904.15,-1624.62 918.76,-1617.04 928.75,-1606 973.42,-1556.62 990.8,-1477.53 997.18,-1434.77"/>
<polygon fill="black" stroke="black" points="1000.63,-1435.36 998.53,-1424.98 993.7,-1434.41 1000.63,-1435.36"/>
</g>
<!-- egglog&#45;&gt;types -->
<g id="edge30" class="edge">
<title>egglog&#45;&gt;types</title>
<path fill="none" stroke="black" d="M891.11,-1632.14C938.11,-1623.41 1032.53,-1608 1113.38,-1608 1113.38,-1608 1113.38,-1608 1238.25,-1608 1323.39,-1608 1360.79,-1608.35 1419.5,-1670 1468.58,-1721.54 1479.17,-1809.42 1481.22,-1855.23"/>
<polygon fill="black" stroke="black" points="1477.72,-1855.32 1481.54,-1865.2 1484.71,-1855.09 1477.72,-1855.32"/>
</g>
<!-- forsp -->
<g id="node11" class="node">
<title>forsp</title>
<polygon fill="none" stroke="black" points="477.5,-1276 423.5,-1276 423.5,-1240 477.5,-1240 477.5,-1276"/>
<text text-anchor="middle" x="450.5" y="-1253.7" font-family="sans-serif" font-size="14.00">forsp</text>
</g>
<!-- forsp&#45;&gt;hash -->
<g id="edge31" class="edge">
<title>forsp&#45;&gt;hash</title>
<path fill="none" stroke="black" d="M477.96,-1242.13C515.75,-1218.24 585.18,-1169.66 626.75,-1112 652.43,-1076.38 631.92,-1051.26 662.75,-1020 694.17,-988.13 720.85,-1009.71 756,-982 796.39,-950.16 828.1,-898.53 845.25,-866.51"/>
<polygon fill="black" stroke="black" points="848.27,-868.29 849.8,-857.8 842.06,-865.05 848.27,-868.29"/>
</g>
<!-- repl&#45;core -->
<g id="node51" class="node">
<title>repl&#45;core</title>
<polygon fill="none" stroke="black" points="618.5,-1314 540.25,-1314 540.25,-1278 618.5,-1278 618.5,-1314"/>
<text text-anchor="middle" x="579.38" y="-1291.7" font-family="sans-serif" font-size="14.00">repl&#45;core</text>
</g>
<!-- forsp&#45;&gt;repl&#45;core -->
<g id="edge32" class="edge">
<title>forsp&#45;&gt;repl&#45;core</title>
<path fill="none" stroke="black" d="M477.79,-1265.87C492.7,-1270.34 511.83,-1276.07 529.4,-1281.33"/>
<polygon fill="black" stroke="black" points="528.05,-1284.58 538.63,-1284.1 530.06,-1277.87 528.05,-1284.58"/>
</g>
<!-- forsp&#45;&gt;sexp -->
<g id="edge33" class="edge">
<title>forsp&#45;&gt;sexp</title>
<path fill="none" stroke="black" d="M477.78,-1257.1C566.23,-1254.54 851.86,-1250.07 928.75,-1296 958.92,-1314.03 978.91,-1350.2 989.99,-1375.93"/>
<polygon fill="black" stroke="black" points="986.74,-1377.23 993.75,-1385.17 993.22,-1374.59 986.74,-1377.23"/>
</g>
<!-- fuse&#45;&gt;hash -->
<g id="edge34" class="edge">
<title>fuse&#45;&gt;hash</title>
<path fill="none" stroke="black" d="M606.87,-790.94C656.76,-800.24 764.73,-820.36 821.98,-831.03"/>
<polygon fill="black" stroke="black" points="821.09,-834.43 831.56,-832.82 822.38,-827.54 821.09,-834.43"/>
</g>
<!-- fuse&#45;&gt;object -->
<g id="edge35" class="edge">
<title>fuse&#45;&gt;object</title>
<path fill="none" stroke="black" d="M606.46,-801.97C613.38,-806.73 620.62,-812.24 626.75,-818 651.4,-841.18 674.73,-872.15 690.08,-894.25"/>
<polygon fill="black" stroke="black" points="687.17,-896.19 695.7,-902.48 692.95,-892.24 687.17,-896.19"/>
</g>
<!-- fuse&#45;&gt;store -->
<g id="edge36" class="edge">
<title>fuse&#45;&gt;store</title>
<path fill="none" stroke="black" d="M606.49,-773.61C614.27,-768.62 621.99,-762.09 626.75,-754 710.34,-612 574.27,-524.01 662.75,-385 665.36,-380.89 668.84,-377.33 672.72,-374.27"/>
<polygon fill="black" stroke="black" points="674.57,-377.24 681,-368.82 670.73,-371.39 674.57,-377.24"/>
</g>
<!-- git&#45;&gt;hash -->
<g id="edge37" class="edge">
<title>git&#45;&gt;hash</title>
<path fill="none" stroke="black" d="M477.77,-510.53C535.17,-502.31 673.3,-491.3 756,-558 834.51,-621.32 853.4,-750.23 857.94,-808.38"/>
<polygon fill="black" stroke="black" points="854.43,-808.41 858.6,-818.15 861.42,-807.94 854.43,-808.41"/>
</g>
<!-- git&#45;&gt;object -->
<g id="edge38" class="edge">
<title>git&#45;&gt;object</title>
<path fill="none" stroke="black" d="M459.78,-533.21C469.61,-555.42 485.93,-594.32 496,-629 519.24,-709.02 480.32,-747.63 532,-813 560.68,-849.28 587.4,-831.71 626.75,-856 645.68,-867.68 665.11,-883.23 680.26,-896.29"/>
<polygon fill="black" stroke="black" points="677.69,-898.69 687.52,-902.66 682.31,-893.43 677.69,-898.69"/>
</g>
<!-- sqlite -->
<g id="node59" class="node">
<title>sqlite</title>
<polygon fill="none" stroke="black" points="887.38,-426 833.38,-426 833.38,-390 887.38,-390 887.38,-426"/>
<text text-anchor="middle" x="860.38" y="-403.7" font-family="sans-serif" font-size="14.00">sqlite</text>
</g>
<!-- git&#45;&gt;sqlite -->
<g id="edge39" class="edge">
<title>git&#45;&gt;sqlite</title>
<path fill="none" stroke="black" d="M477.68,-508.9C530.5,-496.5 653.54,-467.13 756,-439 778.05,-432.95 802.57,-425.62 822.2,-419.61"/>
<polygon fill="black" stroke="black" points="823.16,-422.97 831.68,-416.69 821.1,-416.28 823.16,-422.97"/>
</g>
<!-- git&#45;&gt;store -->
<g id="edge40" class="edge">
<title>git&#45;&gt;store</title>
<path fill="none" stroke="black" d="M477.76,-498.64C517.62,-473.85 595.83,-425.39 662.75,-385 665.9,-383.1 669.18,-381.13 672.48,-379.17"/>
<polygon fill="black" stroke="black" points="674.16,-382.23 680.97,-374.12 670.59,-376.22 674.16,-382.23"/>
</g>
<!-- grammar -->
<g id="node14" class="node">
<title>grammar</title>
<polygon fill="none" stroke="black" points="1038.5,-1840 964.75,-1840 964.75,-1804 1038.5,-1804 1038.5,-1840"/>
<text text-anchor="middle" x="1001.62" y="-1817.7" font-family="sans-serif" font-size="14.00">grammar</text>
</g>
<!-- grammar&#45;&gt;types -->
<g id="edge41" class="edge">
<title>grammar&#45;&gt;types</title>
<path fill="none" stroke="black" d="M1038.62,-1826.74C1126.99,-1838.36 1353.96,-1868.22 1443.94,-1880.06"/>
<polygon fill="black" stroke="black" points="1443.33,-1883.51 1453.71,-1881.34 1444.25,-1876.57 1443.33,-1883.51"/>
</g>
<!-- graph -->
<g id="node15" class="node">
<title>graph</title>
<polygon fill="none" stroke="black" points="477.5,-728 423.5,-728 423.5,-692 477.5,-692 477.5,-728"/>
<text text-anchor="middle" x="450.5" y="-705.7" font-family="sans-serif" font-size="14.00">graph</text>
</g>
<!-- graph&#45;&gt;hash -->
<g id="edge42" class="edge">
<title>graph&#45;&gt;hash</title>
<path fill="none" stroke="black" d="M477.86,-716.52C531.02,-729.88 654.64,-762.08 756,-797 778.38,-804.71 803.04,-814.44 822.66,-822.49"/>
<polygon fill="black" stroke="black" points="821.3,-825.71 831.88,-826.3 823.98,-819.25 821.3,-825.71"/>
</g>
<!-- parse -->
<g id="node41" class="node">
<title>parse</title>
<polygon fill="none" stroke="black" points="1141.38,-1136 1087.38,-1136 1087.38,-1100 1141.38,-1100 1141.38,-1136"/>
<text text-anchor="middle" x="1114.38" y="-1113.7" font-family="sans-serif" font-size="14.00">parse</text>
</g>
<!-- graph&#45;&gt;parse -->
<g id="edge43" class="edge">
<title>graph&#45;&gt;parse</title>
<path fill="none" stroke="black" d="M477.85,-702.09C524.07,-688.94 622.97,-664 708.38,-664 708.38,-664 708.38,-664 861.38,-664 1056.09,-664 1101.62,-987.18 1111.1,-1088.2"/>
<polygon fill="black" stroke="black" points="1107.61,-1088.48 1111.97,-1098.13 1114.58,-1087.86 1107.61,-1088.48"/>
</g>
<!-- rand -->
<g id="node49" class="node">
<title>rand</title>
<polygon fill="none" stroke="black" points="1028.62,-856 974.62,-856 974.62,-820 1028.62,-820 1028.62,-856"/>
<text text-anchor="middle" x="1001.62" y="-833.7" font-family="sans-serif" font-size="14.00">rand</text>
</g>
<!-- hash&#45;&gt;rand -->
<g id="edge44" class="edge">
<title>hash&#45;&gt;rand</title>
<path fill="none" stroke="black" d="M887.57,-838C908.86,-838 939.19,-838 963.07,-838"/>
<polygon fill="black" stroke="black" points="963.04,-841.5 973.04,-838 963.04,-834.5 963.04,-841.5"/>
</g>
<!-- haskell -->
<g id="node17" class="node">
<title>haskell</title>
<polygon fill="none" stroke="black" points="481.75,-2092 419.25,-2092 419.25,-2056 481.75,-2056 481.75,-2092"/>
<text text-anchor="middle" x="450.5" y="-2069.7" font-family="sans-serif" font-size="14.00">haskell</text>
</g>
<!-- hol&#45;api -->
<g id="node19" class="node">
<title>hol&#45;api</title>
<polygon fill="none" stroke="black" points="610.62,-2290 548.12,-2290 548.12,-2254 610.62,-2254 610.62,-2290"/>
<text text-anchor="middle" x="579.38" y="-2267.7" font-family="sans-serif" font-size="14.00">hol&#45;api</text>
</g>
<!-- haskell&#45;&gt;hol&#45;api -->
<g id="edge45" class="edge">
<title>haskell&#45;&gt;hol&#45;api</title>
<path fill="none" stroke="black" d="M461.57,-2092.4C470.82,-2109.5 484.76,-2135.75 496,-2159 513.14,-2194.47 506.85,-2209.68 532,-2240 534.25,-2242.71 536.78,-2245.29 539.47,-2247.73"/>
<polygon fill="black" stroke="black" points="536.76,-2250.03 546.74,-2253.62 541.18,-2244.6 536.76,-2250.03"/>
</g>
<!-- haskell&#45;&gt;hol&#45;eval -->
<g id="edge46" class="edge">
<title>haskell&#45;&gt;hol&#45;eval</title>
<path fill="none" stroke="black" d="M482.12,-2088.79C486.86,-2091.37 491.63,-2094.15 496,-2097 513.21,-2108.22 512.62,-2119.17 532,-2126 627.84,-2159.8 749.46,-2143.47 814.13,-2130.54"/>
<polygon fill="black" stroke="black" points="814.58,-2134.02 823.66,-2128.56 813.16,-2127.16 814.58,-2134.02"/>
</g>
<!-- haskell&#45;&gt;init -->
<g id="edge47" class="edge">
<title>haskell&#45;&gt;init</title>
<path fill="none" stroke="black" d="M450.93,-2055.69C450.39,-2004.85 455.97,-1860.48 532,-1781 551.28,-1760.85 625.29,-1741.86 671.09,-1731.69"/>
<polygon fill="black" stroke="black" points="671.57,-1735.17 680.6,-1729.62 670.08,-1728.33 671.57,-1735.17"/>
</g>
<!-- haskell&#45;&gt;types -->
<g id="edge48" class="edge">
<title>haskell&#45;&gt;types</title>
<path fill="none" stroke="black" d="M481.95,-2074C530.04,-2074 626.54,-2074 708.38,-2074 708.38,-2074 708.38,-2074 1238.25,-2074 1325.77,-2074 1354.48,-2055.59 1419.5,-1997 1444.7,-1974.29 1461.89,-1938.85 1471.66,-1913.93"/>
<polygon fill="black" stroke="black" points="1474.88,-1915.32 1475.1,-1904.72 1468.32,-1912.86 1474.88,-1915.32"/>
</g>
<!-- hol&#45;&gt;core -->
<g id="edge49" class="edge">
<title>hol&#45;&gt;core</title>
<path fill="none" stroke="black" d="M887.61,-2314.32C900.21,-2308.52 915.43,-2301.22 928.75,-2294 940.69,-2287.53 953.42,-2279.97 964.8,-2272.96"/>
<polygon fill="black" stroke="black" points="966.47,-2276.04 973.11,-2267.78 962.77,-2270.1 966.47,-2276.04"/>
</g>
<!-- hol&#45;api&#45;&gt;core -->
<g id="edge50" class="edge">
<title>hol&#45;api&#45;&gt;core</title>
<path fill="none" stroke="black" d="M610.69,-2270.99C671.19,-2268.89 811.23,-2263.6 928.75,-2256 939.85,-2255.28 951.91,-2254.34 962.92,-2253.41"/>
<polygon fill="black" stroke="black" points="963.19,-2256.9 972.85,-2252.56 962.59,-2249.93 963.19,-2256.9"/>
</g>
<!-- hol&#45;api&#45;&gt;hol&#45;eval -->
<g id="edge51" class="edge">
<title>hol&#45;api&#45;&gt;hol&#45;eval</title>
<path fill="none" stroke="black" d="M611.03,-2255.3C660.71,-2228.23 758.95,-2174.71 815.85,-2143.71"/>
<polygon fill="black" stroke="black" points="817.2,-2146.96 824.31,-2139.1 813.85,-2140.82 817.2,-2146.96"/>
</g>
<!-- inductive -->
<g id="node21" class="node">
<title>inductive</title>
<polygon fill="none" stroke="black" points="898.75,-1564 822,-1564 822,-1528 898.75,-1528 898.75,-1564"/>
<text text-anchor="middle" x="860.38" y="-1541.7" font-family="sans-serif" font-size="14.00">inductive</text>
</g>
<!-- hol&#45;api&#45;&gt;inductive -->
<g id="edge52" class="edge">
<title>hol&#45;api&#45;&gt;inductive</title>
<path fill="none" stroke="black" d="M587.09,-2253.7C611.47,-2186.94 696.95,-1950.03 756,-1751 774.27,-1689.41 759.66,-1666.51 792,-1611 800.56,-1596.31 813.37,-1582.77 825.54,-1571.9"/>
<polygon fill="black" stroke="black" points="827.74,-1574.62 833.06,-1565.45 823.19,-1569.3 827.74,-1574.62"/>
</g>
<!-- hol&#45;api&#45;&gt;init -->
<g id="edge53" class="edge">
<title>hol&#45;api&#45;&gt;init</title>
<path fill="none" stroke="black" d="M582.38,-2253.64C589.34,-2192.66 614.7,-1991.63 662.75,-1832 671.09,-1804.28 684.25,-1774.03 694.29,-1752.62"/>
<polygon fill="black" stroke="black" points="697.42,-1754.18 698.57,-1743.65 691.1,-1751.17 697.42,-1754.18"/>
</g>
<!-- logic&#45;api -->
<g id="node33" class="node">
<title>logic&#45;api</title>
<polygon fill="none" stroke="black" points="897.62,-2008 823.12,-2008 823.12,-1972 897.62,-1972 897.62,-2008"/>
<text text-anchor="middle" x="860.38" y="-1985.7" font-family="sans-serif" font-size="14.00">logic&#45;api</text>
</g>
<!-- hol&#45;api&#45;&gt;logic&#45;api -->
<g id="edge54" class="edge">
<title>hol&#45;api&#45;&gt;logic&#45;api</title>
<path fill="none" stroke="black" d="M594.64,-2253.74C610.59,-2233.63 637.52,-2200.61 662.75,-2174 719.12,-2114.54 790.46,-2050.26 829.85,-2015.63"/>
<polygon fill="black" stroke="black" points="831.87,-2018.51 837.08,-2009.29 827.25,-2013.25 831.87,-2018.51"/>
</g>
<!-- hol&#45;api&#45;&gt;pure -->
<g id="edge55" class="edge">
<title>hol&#45;api&#45;&gt;pure</title>
<path fill="none" stroke="black" d="M610.89,-2287.78C651.11,-2307.61 724.69,-2340.56 792,-2353 851.77,-2364.05 869.51,-2366.6 928.75,-2353 1034.02,-2328.84 1145.09,-2263.68 1200.46,-2228.06"/>
<polygon fill="black" stroke="black" points="1202.07,-2231.19 1208.55,-2222.8 1198.26,-2225.32 1202.07,-2231.19"/>
</g>
<!-- hol&#45;api&#45;&gt;types -->
<g id="edge56" class="edge">
<title>hol&#45;api&#45;&gt;types</title>
<path fill="none" stroke="black" d="M599.55,-2290.25C656.04,-2342 828.69,-2486 1000.62,-2486 1000.62,-2486 1000.62,-2486 1238.25,-2486 1363.91,-2486 1367.35,-2383.33 1419.5,-2269 1475.57,-2146.09 1481.87,-1980.78 1481.94,-1914.4"/>
<polygon fill="black" stroke="black" points="1485.45,-1914.68 1481.9,-1904.7 1478.45,-1914.71 1485.45,-1914.68"/>
</g>
<!-- hol&#45;eval&#45;&gt;core -->
<g id="edge57" class="edge">
<title>hol&#45;eval&#45;&gt;core</title>
<path fill="none" stroke="black" d="M895.8,-2131.41C907.25,-2136.41 919.44,-2143.19 928.75,-2152 953.03,-2174.96 943.98,-2191.83 964.75,-2218 966.31,-2219.97 968,-2221.91 969.76,-2223.81"/>
<polygon fill="black" stroke="black" points="967.19,-2226.19 976.76,-2230.75 972.12,-2221.22 967.19,-2226.19"/>
</g>
<!-- hol&#45;eval&#45;&gt;pure -->
<g id="edge58" class="edge">
<title>hol&#45;eval&#45;&gt;pure</title>
<path fill="none" stroke="black" d="M895.67,-2132.18C915.71,-2139.16 941.56,-2147.91 964.75,-2155 1013.11,-2169.78 1024.86,-2175.36 1074.5,-2185 1116.65,-2193.19 1165.71,-2198.35 1198.65,-2201.19"/>
<polygon fill="black" stroke="black" points="1198.25,-2204.67 1208.5,-2202.01 1198.83,-2197.69 1198.25,-2204.67"/>
</g>
<!-- hol&#45;eval&#45;&gt;pure&#45;eval -->
<g id="edge59" class="edge">
<title>hol&#45;eval&#45;&gt;pure&#45;eval</title>
<path fill="none" stroke="black" d="M895.62,-2125.16C938.82,-2131.68 1013.44,-2142.93 1063.11,-2150.42"/>
<polygon fill="black" stroke="black" points="1062.33,-2153.84 1072.74,-2151.87 1063.37,-2146.92 1062.33,-2153.84"/>
</g>
<!-- hol&#45;eval&#45;&gt;sexp -->
<g id="edge60" class="edge">
<title>hol&#45;eval&#45;&gt;sexp</title>
<path fill="none" stroke="black" d="M877.18,-2101.7C893.1,-2082.14 916.94,-2049.54 928.75,-2017 948.82,-1961.69 987.47,-1549.52 997.95,-1434.65"/>
<polygon fill="black" stroke="black" points="1001.42,-1435.09 998.84,-1424.81 994.45,-1434.45 1001.42,-1435.09"/>
</g>
<!-- hol&#45;eval&#45;&gt;types -->
<g id="edge61" class="edge">
<title>hol&#45;eval&#45;&gt;types</title>
<path fill="none" stroke="black" d="M895.6,-2118.22C944.06,-2115.87 1035.46,-2112 1113.38,-2112 1113.38,-2112 1113.38,-2112 1238.25,-2112 1319.51,-2112 1357.51,-2140.54 1419.5,-2088 1470.88,-2044.46 1480.5,-1959.64 1481.8,-1914.66"/>
<polygon fill="black" stroke="black" points="1485.29,-1914.92 1481.95,-1904.87 1478.29,-1914.81 1485.29,-1914.92"/>
</g>
<!-- init&#45;&gt;core -->
<g id="edge62" class="edge">
<title>init&#45;&gt;core</title>
<path fill="none" stroke="black" d="M736.48,-1737.45C743.79,-1742.38 751.07,-1748.59 756,-1756 797.37,-1818.11 741.62,-1864.95 792,-1920 835.01,-1967 885.05,-1916.63 928.75,-1963 964.07,-2000.48 988.16,-2155.33 996.94,-2220.68"/>
<polygon fill="black" stroke="black" points="993.43,-2220.84 998.2,-2230.3 1000.37,-2219.93 993.43,-2220.84"/>
</g>
<!-- init&#45;&gt;grammar -->
<g id="edge63" class="edge">
<title>init&#45;&gt;grammar</title>
<path fill="none" stroke="black" d="M736.75,-1738.59C743.72,-1743.42 750.75,-1749.3 756,-1756 783.32,-1790.9 755.44,-1823.95 792,-1849 839.83,-1881.78 908.58,-1863.51 953.9,-1844.91"/>
<polygon fill="black" stroke="black" points="955.12,-1848.2 962.94,-1841.05 952.37,-1841.76 955.12,-1848.2"/>
</g>
<!-- init&#45;&gt;hash -->
<g id="edge64" class="edge">
<title>init&#45;&gt;hash</title>
<path fill="none" stroke="black" d="M727.47,-1705.68C737.74,-1693.45 749.96,-1676.46 756,-1659 804.05,-1520.2 759.17,-1142.17 792,-999 803.15,-950.39 827.81,-897.73 844,-866.33"/>
<polygon fill="black" stroke="black" points="847.09,-867.97 848.64,-857.49 840.9,-864.72 847.09,-867.97"/>
</g>
<!-- init&#45;&gt;hol -->
<g id="edge65" class="edge">
<title>init&#45;&gt;hol</title>
<path fill="none" stroke="black" d="M712.79,-1742.4C720.81,-1801.77 748.59,-1993.33 792,-2147 807.31,-2201.21 831.92,-2262.17 846.77,-2297.14"/>
<polygon fill="black" stroke="black" points="843.48,-2298.33 850.63,-2306.15 849.91,-2295.58 843.48,-2298.33"/>
</g>
<!-- init&#45;&gt;hol&#45;eval -->
<g id="edge66" class="edge">
<title>init&#45;&gt;hol&#45;eval</title>
<path fill="none" stroke="black" d="M736.85,-1737.22C744.16,-1742.13 751.36,-1748.4 756,-1756 817.02,-1855.94 750.95,-1907.33 792,-2017 802.43,-2044.86 821.44,-2072.88 836.62,-2092.65"/>
<polygon fill="black" stroke="black" points="833.83,-2094.77 842.77,-2100.46 839.33,-2090.44 833.83,-2094.77"/>
</g>
<!-- init&#45;&gt;inductive -->
<g id="edge67" class="edge">
<title>init&#45;&gt;inductive</title>
<path fill="none" stroke="black" d="M724.75,-1705.58C734.28,-1692.9 746.69,-1675.44 756,-1659 775.41,-1624.72 764.5,-1606.21 792,-1578 797.66,-1572.2 804.57,-1567.32 811.79,-1563.27"/>
<polygon fill="black" stroke="black" points="813.05,-1566.55 820.39,-1558.91 809.89,-1560.31 813.05,-1566.55"/>
</g>
<!-- k -->
<g id="node25" class="node">
<title>k</title>
<polygon fill="none" stroke="black" points="887.38,-1748 833.38,-1748 833.38,-1712 887.38,-1712 887.38,-1748"/>
<text text-anchor="middle" x="860.38" y="-1725.7" font-family="sans-serif" font-size="14.00">k</text>
</g>
<!-- init&#45;&gt;k -->
<g id="edge68" class="edge">
<title>init&#45;&gt;k</title>
<path fill="none" stroke="black" d="M736.67,-1725.06C760.32,-1726.01 795.33,-1727.42 821.91,-1728.49"/>
<polygon fill="black" stroke="black" points="821.45,-1731.98 831.58,-1728.88 821.73,-1724.98 821.45,-1731.98"/>
</g>
<!-- init&#45;&gt;logic&#45;api -->
<g id="edge69" class="edge">
<title>init&#45;&gt;logic&#45;api</title>
<path fill="none" stroke="black" d="M736.66,-1737.33C743.97,-1742.25 751.21,-1748.5 756,-1756 805.04,-1832.89 736.68,-1885.51 792,-1958 797.41,-1965.09 804.79,-1970.69 812.69,-1975.07"/>
<polygon fill="black" stroke="black" points="810.97,-1978.13 821.5,-1979.35 814.03,-1971.83 810.97,-1978.13"/>
</g>
<!-- metamath -->
<g id="node35" class="node">
<title>metamath</title>
<polygon fill="none" stroke="black" points="900.62,-1244 820.12,-1244 820.12,-1208 900.62,-1208 900.62,-1244"/>
<text text-anchor="middle" x="860.38" y="-1221.7" font-family="sans-serif" font-size="14.00">metamath</text>
</g>
<!-- init&#45;&gt;metamath -->
<g id="edge70" class="edge">
<title>init&#45;&gt;metamath</title>
<path fill="none" stroke="black" d="M726.2,-1705.54C736.09,-1693.12 748.36,-1675.97 756,-1659 764.49,-1640.14 831.08,-1349.99 852.65,-1255.49"/>
<polygon fill="black" stroke="black" points="856.02,-1256.48 854.83,-1245.96 849.19,-1254.93 856.02,-1256.48"/>
</g>
<!-- init&#45;&gt;sexp -->
<g id="edge71" class="edge">
<title>init&#45;&gt;sexp</title>
<path fill="none" stroke="black" d="M723.26,-1705.5C745.05,-1674.3 787.31,-1614.27 792,-1611 843.77,-1574.96 881.28,-1614.54 928.75,-1573 970.22,-1536.72 988.51,-1472.32 995.97,-1434.67"/>
<polygon fill="black" stroke="black" points="999.4,-1435.42 997.76,-1424.95 992.51,-1434.15 999.4,-1435.42"/>
</g>
<!-- spectec -->
<g id="node58" class="node">
<title>spectec</title>
<polygon fill="none" stroke="black" points="895,-1840 825.75,-1840 825.75,-1804 895,-1804 895,-1840"/>
<text text-anchor="middle" x="860.38" y="-1817.7" font-family="sans-serif" font-size="14.00">spectec</text>
</g>
<!-- init&#45;&gt;spectec -->
<g id="edge72" class="edge">
<title>init&#45;&gt;spectec</title>
<path fill="none" stroke="black" d="M736.44,-1741.3C742.96,-1745.9 749.85,-1750.99 756,-1756 773.05,-1769.91 773.84,-1777.57 792,-1790 799.13,-1794.88 807.13,-1799.39 815.05,-1803.4"/>
<polygon fill="black" stroke="black" points="813.45,-1806.51 823.98,-1807.7 816.49,-1800.2 813.45,-1806.51"/>
</g>
<!-- init&#45;&gt;types -->
<g id="edge73" class="edge">
<title>init&#45;&gt;types</title>
<path fill="none" stroke="black" d="M736.62,-1732.72C743.75,-1736.19 750.91,-1740.85 756,-1747 792.9,-1791.51 748.76,-1833.62 792,-1872 862.26,-1934.37 906.68,-1906 1000.62,-1906 1000.62,-1906 1000.62,-1906 1238.25,-1906 1311.32,-1906 1396.29,-1896.48 1443.99,-1890.26"/>
<polygon fill="black" stroke="black" points="1444.34,-1893.74 1453.79,-1888.95 1443.41,-1886.8 1444.34,-1893.74"/>
</g>
<!-- json -->
<g id="node23" class="node">
<title>json</title>
<polygon fill="none" stroke="black" points="887.38,-204 833.38,-204 833.38,-168 887.38,-168 887.38,-204"/>
<text text-anchor="middle" x="860.38" y="-181.7" font-family="sans-serif" font-size="14.00">json</text>
</g>
<!-- json&#45;api -->
<g id="node24" class="node">
<title>json&#45;api</title>
<polygon fill="none" stroke="black" points="744.38,-1596 674.38,-1596 674.38,-1560 744.38,-1560 744.38,-1596"/>
<text text-anchor="middle" x="709.38" y="-1573.7" font-family="sans-serif" font-size="14.00">json&#45;api</text>
</g>
<!-- json&#45;api&#45;&gt;decimal&#45;api -->
<g id="edge74" class="edge">
<title>json&#45;api&#45;&gt;decimal&#45;api</title>
<path fill="none" stroke="black" d="M743.27,-1559.57C747.63,-1556.83 751.99,-1553.93 756,-1551 773.29,-1538.38 772.06,-1526.79 792,-1519 922.48,-1468.04 1091.39,-1485.35 1178.55,-1499.72"/>
<polygon fill="black" stroke="black" points="1177.85,-1503.15 1188.29,-1501.38 1179.02,-1496.25 1177.85,-1503.15"/>
</g>
<!-- json&#45;api&#45;&gt;inductive -->
<g id="edge75" class="edge">
<title>json&#45;api&#45;&gt;inductive</title>
<path fill="none" stroke="black" d="M744.56,-1570.66C764.17,-1566.45 789.11,-1561.09 810.73,-1556.45"/>
<polygon fill="black" stroke="black" points="811.17,-1559.93 820.21,-1554.41 809.7,-1553.09 811.17,-1559.93"/>
</g>
<!-- k&#45;&gt;grammar -->
<g id="edge76" class="edge">
<title>k&#45;&gt;grammar</title>
<path fill="none" stroke="black" d="M887.78,-1740.69C900.56,-1746.32 915.88,-1753.76 928.75,-1762 944.32,-1771.97 960.25,-1784.93 973.13,-1796.25"/>
<polygon fill="black" stroke="black" points="970.62,-1798.69 980.4,-1802.76 975.29,-1793.48 970.62,-1798.69"/>
</g>
<!-- k&#45;&gt;parse -->
<g id="edge77" class="edge">
<title>k&#45;&gt;parse</title>
<path fill="none" stroke="black" d="M884.37,-1711.57C898.47,-1699.43 916.16,-1682.57 928.75,-1665 1051.57,-1493.6 1097.21,-1234.5 1109.58,-1147.59"/>
<polygon fill="black" stroke="black" points="1113.03,-1148.16 1110.93,-1137.77 1106.1,-1147.2 1113.03,-1148.16"/>
</g>
<!-- k&#45;&gt;sexp -->
<g id="edge78" class="edge">
<title>k&#45;&gt;sexp</title>
<path fill="none" stroke="black" d="M886.09,-1711.73C900.48,-1699.89 917.87,-1683.3 928.75,-1665 973.64,-1589.51 991.33,-1485.09 997.59,-1434.64"/>
<polygon fill="black" stroke="black" points="1001.05,-1435.15 998.73,-1424.81 994.1,-1434.34 1001.05,-1435.15"/>
</g>
<!-- kernel -->
<g id="node26" class="node">
<title>kernel</title>
<polygon fill="none" stroke="black" points="608,-1444 550.75,-1444 550.75,-1408 608,-1408 608,-1444"/>
<text text-anchor="middle" x="579.38" y="-1421.7" font-family="sans-serif" font-size="14.00">kernel</text>
</g>
<!-- kernel&#45;&gt;hash -->
<g id="edge79" class="edge">
<title>kernel&#45;&gt;hash</title>
<path fill="none" stroke="black" d="M590.57,-1407.62C601.29,-1387.48 617.81,-1353.89 626.75,-1323 658.56,-1213.05 596.45,-1161.3 662.75,-1068 689.75,-1030 722.37,-1052.27 756,-1020 768.4,-1008.1 818.93,-914.39 844.46,-866.28"/>
<polygon fill="black" stroke="black" points="847.5,-868.02 849.09,-857.55 841.32,-864.75 847.5,-868.02"/>
</g>
<!-- kernel&#45;&gt;init -->
<g id="edge80" class="edge">
<title>kernel&#45;&gt;init</title>
<path fill="none" stroke="black" d="M596.6,-1444.36C606.71,-1456.74 619.2,-1473.88 626.75,-1491 657.57,-1560.87 632.2,-1589.01 662.75,-1659 668.51,-1672.19 677.16,-1685.44 685.39,-1696.5"/>
<polygon fill="black" stroke="black" points="682.61,-1698.63 691.5,-1704.4 688.15,-1694.35 682.61,-1698.63"/>
</g>
<!-- kernel&#45;&gt;object -->
<g id="edge81" class="edge">
<title>kernel&#45;&gt;object</title>
<path fill="none" stroke="black" d="M590.68,-1407.65C601.49,-1387.53 618.09,-1353.97 626.75,-1323 662.08,-1196.65 628.9,-1156.76 662.75,-1030 670.22,-1002.03 683.47,-971.81 693.77,-950.47"/>
<polygon fill="black" stroke="black" points="696.9,-952.05 698.18,-941.53 690.62,-948.96 696.9,-952.05"/>
</g>
<!-- kernel&#45;&gt;sexp -->
<g id="edge82" class="edge">
<title>kernel&#45;&gt;sexp</title>
<path fill="none" stroke="black" d="M608.14,-1414.79C667.43,-1392.34 810.66,-1346.19 928.75,-1372 940.74,-1374.62 953.13,-1379.44 964.17,-1384.6"/>
<polygon fill="black" stroke="black" points="962.41,-1387.63 972.93,-1388.92 965.51,-1381.35 962.41,-1387.63"/>
</g>
<!-- kernel&#45;&gt;store -->
<g id="edge83" class="edge">
<title>kernel&#45;&gt;store</title>
<path fill="none" stroke="black" d="M591.19,-1407.78C602.43,-1387.78 619.4,-1354.31 626.75,-1323 650.6,-1221.46 609.36,-474.6 662.75,-385 665.24,-380.82 668.65,-377.21 672.49,-374.12"/>
<polygon fill="black" stroke="black" points="674.34,-377.1 680.75,-368.66 670.48,-371.26 674.34,-377.1"/>
</g>
<!-- kernel&#45;sat -->
<g id="node27" class="node">
<title>kernel&#45;sat</title>
<polygon fill="none" stroke="black" points="621.12,-1929 537.62,-1929 537.62,-1893 621.12,-1893 621.12,-1929"/>
<text text-anchor="middle" x="579.38" y="-1906.7" font-family="sans-serif" font-size="14.00">kernel&#45;sat</text>
</g>
<!-- kernel&#45;sat&#45;&gt;core -->
<g id="edge84" class="edge">
<title>kernel&#45;sat&#45;&gt;core</title>
<path fill="none" stroke="black" d="M589.8,-1929.35C615.52,-1977.63 691.71,-2109.31 792,-2180 799.23,-2185.09 905.13,-2219.44 963.2,-2238.06"/>
<polygon fill="black" stroke="black" points="962.1,-2241.38 972.69,-2241.09 964.23,-2234.71 962.1,-2241.38"/>
</g>
<!-- kernel&#45;sat&#45;&gt;hol&#45;eval -->
<g id="edge85" class="edge">
<title>kernel&#45;sat&#45;&gt;hol&#45;eval</title>
<path fill="none" stroke="black" d="M621.57,-1919.75C660.14,-1929.72 717.46,-1949.33 756,-1984 780.84,-2006.35 772.24,-2023.06 792,-2050 803.46,-2065.62 818.19,-2081.31 830.96,-2093.87"/>
<polygon fill="black" stroke="black" points="828.3,-2096.16 837.92,-2100.59 833.16,-2091.12 828.3,-2096.16"/>
</g>
<!-- kernel&#45;sat&#45;&gt;init -->
<g id="edge86" class="edge">
<title>kernel&#45;sat&#45;&gt;init</title>
<path fill="none" stroke="black" d="M592.88,-1892.73C615.44,-1859.77 663.06,-1790.21 689.56,-1751.48"/>
<polygon fill="black" stroke="black" points="692.2,-1753.82 694.96,-1743.59 686.43,-1749.87 692.2,-1753.82"/>
</g>
<!-- sat -->
<g id="node52" class="node">
<title>sat</title>
<polygon fill="none" stroke="black" points="887.38,-1136 833.38,-1136 833.38,-1100 887.38,-1100 887.38,-1136"/>
<text text-anchor="middle" x="860.38" y="-1113.7" font-family="sans-serif" font-size="14.00">sat</text>
</g>
<!-- kernel&#45;sat&#45;&gt;sat -->
<g id="edge87" class="edge">
<title>kernel&#45;sat&#45;&gt;sat</title>
<path fill="none" stroke="black" d="M594.69,-1892.8C605.44,-1878.09 619.5,-1856.37 626.75,-1835 675.27,-1691.93 628.46,-1644.13 662.75,-1497 681.67,-1415.85 733.95,-1204.78 792,-1145 800.23,-1136.53 811.47,-1130.64 822.41,-1126.58"/>
<polygon fill="black" stroke="black" points="823.25,-1129.98 831.68,-1123.57 821.09,-1123.32 823.25,-1129.98"/>
</g>
<!-- kernel&#45;smt -->
<g id="node28" class="node">
<title>kernel&#45;smt</title>
<polygon fill="none" stroke="black" points="494.5,-2297 406.5,-2297 406.5,-2261 494.5,-2261 494.5,-2297"/>
<text text-anchor="middle" x="450.5" y="-2274.7" font-family="sans-serif" font-size="14.00">kernel&#45;smt</text>
</g>
<!-- kernel&#45;smt&#45;&gt;core -->
<g id="edge88" class="edge">
<title>kernel&#45;smt&#45;&gt;core</title>
<path fill="none" stroke="black" d="M485.29,-2297.48C566.69,-2339.29 778.02,-2431.62 928.75,-2353 958.56,-2337.45 978.53,-2303.27 989.71,-2278.54"/>
<polygon fill="black" stroke="black" points="992.79,-2280.24 993.5,-2269.66 986.35,-2277.49 992.79,-2280.24"/>
</g>
<!-- kernel&#45;smt&#45;&gt;hol&#45;api -->
<g id="edge89" class="edge">
<title>kernel&#45;smt&#45;&gt;hol&#45;api</title>
<path fill="none" stroke="black" d="M494.81,-2276.61C508.24,-2275.87 523.03,-2275.05 536.37,-2274.32"/>
<polygon fill="black" stroke="black" points="536.36,-2277.82 546.15,-2273.78 535.97,-2270.83 536.36,-2277.82"/>
</g>
<!-- kv -->
<g id="node29" class="node">
<title>kv</title>
<polygon fill="none" stroke="black" points="226.12,-164 172.12,-164 172.12,-128 226.12,-128 226.12,-164"/>
<text text-anchor="middle" x="199.12" y="-141.7" font-family="sans-serif" font-size="14.00">kv</text>
</g>
<!-- lean -->
<g id="node30" class="node">
<title>lean</title>
<polygon fill="none" stroke="black" points="87.5,-1144 33.5,-1144 33.5,-1108 87.5,-1108 87.5,-1144"/>
<text text-anchor="middle" x="60.5" y="-1121.7" font-family="sans-serif" font-size="14.00">lean</text>
</g>
<!-- lisp -->
<g id="node31" class="node">
<title>lisp</title>
<polygon fill="none" stroke="black" points="477.5,-1552 423.5,-1552 423.5,-1516 477.5,-1516 477.5,-1552"/>
<text text-anchor="middle" x="450.5" y="-1529.7" font-family="sans-serif" font-size="14.00">lisp</text>
</g>
<!-- lisp&#45;&gt;core -->
<g id="edge90" class="edge">
<title>lisp&#45;&gt;core</title>
<path fill="none" stroke="black" d="M477.97,-1544.61C484.95,-1548.69 491.72,-1554.08 496,-1561 547.14,-1643.68 487.5,-1910.56 532,-1997 601.29,-2131.58 654.38,-2153.96 792,-2217 847.77,-2242.55 919.73,-2248.8 962.91,-2250.06"/>
<polygon fill="black" stroke="black" points="962.71,-2253.56 972.78,-2250.27 962.85,-2246.56 962.71,-2253.56"/>
</g>
<!-- lisp&#45;&gt;hol&#45;api -->
<g id="edge91" class="edge">
<title>lisp&#45;&gt;hol&#45;api</title>
<path fill="none" stroke="black" d="M477.6,-1544.28C484.75,-1548.39 491.71,-1553.88 496,-1561 565.31,-1675.96 501.06,-2033.38 532,-2164 538.68,-2192.2 552.22,-2222.34 562.95,-2243.6"/>
<polygon fill="black" stroke="black" points="559.71,-2244.94 567.41,-2252.22 565.92,-2241.73 559.71,-2244.94"/>
</g>
<!-- lisp&#45;&gt;hol&#45;eval -->
<g id="edge92" class="edge">
<title>lisp&#45;&gt;hol&#45;eval</title>
<path fill="none" stroke="black" d="M477.91,-1544.64C484.89,-1548.73 491.68,-1554.11 496,-1561 585.45,-1703.58 440.98,-1796.42 532,-1938 597.48,-2039.85 740.88,-2089.82 814.23,-2109.5"/>
<polygon fill="black" stroke="black" points="812.92,-2112.78 823.48,-2111.91 814.69,-2106 812.92,-2112.78"/>
</g>
<!-- lisp&#45;&gt;init -->
<g id="edge93" class="edge">
<title>lisp&#45;&gt;init</title>
<path fill="none" stroke="black" d="M477.84,-1547.33C484.19,-1551.23 490.67,-1555.85 496,-1561 517.01,-1581.3 511.03,-1595.66 532,-1616 573.93,-1656.68 633.8,-1689.28 671.88,-1707.63"/>
<polygon fill="black" stroke="black" points="670.1,-1710.66 680.64,-1711.78 673.1,-1704.34 670.1,-1710.66"/>
</g>
<!-- lisp&#45;&gt;repl&#45;core -->
<g id="edge94" class="edge">
<title>lisp&#45;&gt;repl&#45;core</title>
<path fill="none" stroke="black" d="M461.24,-1515.72C483.25,-1474.45 536.9,-1373.8 563.26,-1324.36"/>
<polygon fill="black" stroke="black" points="566.27,-1326.15 567.88,-1315.68 560.09,-1322.86 566.27,-1326.15"/>
</g>
<!-- lisp&#45;&gt;sexp -->
<g id="edge95" class="edge">
<title>lisp&#45;&gt;sexp</title>
<path fill="none" stroke="black" d="M477.74,-1518.42C493.19,-1509.64 513.32,-1498.89 532,-1491 587.87,-1467.39 732.14,-1417.76 792,-1408 851.18,-1398.35 921.07,-1399.92 963.06,-1402.24"/>
<polygon fill="black" stroke="black" points="962.69,-1405.73 972.88,-1402.83 963.11,-1398.74 962.69,-1405.73"/>
</g>
<!-- lisp&#45;&gt;types -->
<g id="edge96" class="edge">
<title>lisp&#45;&gt;types</title>
<path fill="none" stroke="black" d="M455.71,-1515.7C464.95,-1474.68 486.87,-1372.13 496,-1285 502.54,-1222.59 493.88,-205.85 532,-156 581.8,-90.87 626.39,-102 708.38,-102 708.38,-102 708.38,-102 1238.25,-102 1422.98,-102 1474,-1623.95 1480.7,-1855.59"/>
<polygon fill="black" stroke="black" points="1477.19,-1855.36 1480.97,-1865.26 1484.19,-1855.16 1477.19,-1855.36"/>
</g>
<!-- llm -->
<g id="node32" class="node">
<title>llm</title>
<polygon fill="none" stroke="black" points="226.12,-876 172.12,-876 172.12,-840 226.12,-840 226.12,-876"/>
<text text-anchor="middle" x="199.12" y="-853.7" font-family="sans-serif" font-size="14.00">llm</text>
</g>
<!-- llm&#45;&gt;proto -->
<g id="edge97" class="edge">
<title>llm&#45;&gt;proto</title>
<path fill="none" stroke="black" d="M214.36,-876.2C235.75,-903.56 276.34,-955.45 301.13,-987.16"/>
<polygon fill="black" stroke="black" points="298.13,-989 307.05,-994.72 303.65,-984.69 298.13,-989"/>
</g>
<!-- lsp&#45;&gt;sexp -->
<g id="edge98" class="edge">
<title>lsp&#45;&gt;sexp</title>
<path fill="none" stroke="black" d="M887.7,-1177.03C901.55,-1180.91 917.87,-1187.61 928.75,-1199 930.35,-1200.67 971.24,-1319.39 990.62,-1375.82"/>
<polygon fill="black" stroke="black" points="987.25,-1376.79 993.8,-1385.11 993.87,-1374.51 987.25,-1376.79"/>
</g>
<!-- lsp&#45;&gt;wasm -->
<g id="edge99" class="edge">
<title>lsp&#45;&gt;wasm</title>
<path fill="none" stroke="black" d="M887.86,-1168.22C902.31,-1164.71 919.15,-1157.96 928.75,-1145 941.16,-1128.24 988.02,-478.32 998.53,-330.64"/>
<polygon fill="black" stroke="black" points="1002,-331.14 999.22,-320.91 995.02,-330.64 1002,-331.14"/>
</g>
<!-- metamath&#45;&gt;parse -->
<g id="edge100" class="edge">
<title>metamath&#45;&gt;parse</title>
<path fill="none" stroke="black" d="M901.01,-1210.37C910.14,-1206.69 919.8,-1202.75 928.75,-1199 980.3,-1177.37 1039.4,-1151.2 1076.56,-1134.57"/>
<polygon fill="black" stroke="black" points="1077.82,-1137.84 1085.51,-1130.56 1074.95,-1131.45 1077.82,-1137.84"/>
</g>
<!-- metamath&#45;&gt;sexp -->
<g id="edge101" class="edge">
<title>metamath&#45;&gt;sexp</title>
<path fill="none" stroke="black" d="M900.92,-1239.4C910.87,-1244.13 920.92,-1250.26 928.75,-1258 962.39,-1291.26 982.68,-1343.46 992.75,-1375.88"/>
<polygon fill="black" stroke="black" points="989.38,-1376.82 995.58,-1385.41 996.09,-1374.83 989.38,-1376.82"/>
</g>
<!-- multiformat -->
<g id="node36" class="node">
<title>multiformat</title>
<polygon fill="none" stroke="black" points="754.5,-1146 664.25,-1146 664.25,-1110 754.5,-1110 754.5,-1146"/>
<text text-anchor="middle" x="709.38" y="-1123.7" font-family="sans-serif" font-size="14.00">multiformat</text>
</g>
<!-- multiformat&#45;&gt;acset -->
<g id="edge102" class="edge">
<title>multiformat&#45;&gt;acset</title>
<path fill="none" stroke="black" d="M738.55,-1109.57C744.48,-1105.33 750.58,-1100.68 756,-1096 773.61,-1080.8 773.17,-1071.67 792,-1058 801.33,-1051.22 812.33,-1045.29 822.7,-1040.43"/>
<polygon fill="black" stroke="black" points="824.08,-1043.65 831.8,-1036.38 821.24,-1037.25 824.08,-1043.65"/>
</g>
<!-- multiformat&#45;&gt;hash -->
<g id="edge103" class="edge">
<title>multiformat&#45;&gt;hash</title>
<path fill="none" stroke="black" d="M723.29,-1109.72C732.85,-1095.84 745.9,-1076.12 756,-1058 793.06,-991.51 829.22,-909.49 847.34,-866.84"/>
<polygon fill="black" stroke="black" points="850.5,-868.36 851.17,-857.78 844.06,-865.63 850.5,-868.36"/>
</g>
<!-- multiformat&#45;&gt;parse -->
<g id="edge104" class="edge">
<title>multiformat&#45;&gt;parse</title>
<path fill="none" stroke="black" d="M742.63,-1109.54C757.21,-1102.22 774.97,-1094.68 792,-1091 893.29,-1069.12 1016.09,-1092.98 1076.36,-1107.89"/>
<polygon fill="black" stroke="black" points="1075.19,-1111.21 1085.75,-1110.27 1076.91,-1104.42 1075.19,-1111.21"/>
</g>
<!-- numerals -->
<g id="node37" class="node">
<title>numerals</title>
<polygon fill="none" stroke="black" points="617.75,-1536 541,-1536 541,-1500 617.75,-1500 617.75,-1536"/>
<text text-anchor="middle" x="579.38" y="-1513.7" font-family="sans-serif" font-size="14.00">numerals</text>
</g>
<!-- numerals&#45;&gt;grammar -->
<g id="edge105" class="edge">
<title>numerals&#45;&gt;grammar</title>
<path fill="none" stroke="black" d="M612.7,-1536.18C617.92,-1540.2 622.88,-1544.83 626.75,-1550 657.34,-1590.83 627.92,-1621.72 662.75,-1659 693.3,-1691.7 722.02,-1667.87 756,-1697 779.61,-1717.24 767.26,-1738.16 792,-1757 842.19,-1795.21 868.78,-1775.45 928.75,-1795 936.86,-1797.64 945.4,-1800.65 953.66,-1803.68"/>
<polygon fill="black" stroke="black" points="952.27,-1806.9 962.86,-1807.11 954.71,-1800.34 952.27,-1806.9"/>
</g>
<!-- numerals&#45;&gt;hol&#45;eval -->
<g id="edge106" class="edge">
<title>numerals&#45;&gt;hol&#45;eval</title>
<path fill="none" stroke="black" d="M583.67,-1536.31C591.72,-1577.5 615.31,-1679.49 662.75,-1751 693.75,-1797.73 728.43,-1787.17 756,-1836 796.33,-1907.42 760.98,-1941.07 792,-2017 803.32,-2044.71 822.42,-2072.93 837.4,-2092.81"/>
<polygon fill="black" stroke="black" points="834.58,-2094.88 843.45,-2100.66 840.12,-2090.61 834.58,-2094.88"/>
</g>
<!-- numerals&#45;&gt;init -->
<g id="edge107" class="edge">
<title>numerals&#45;&gt;init</title>
<path fill="none" stroke="black" d="M613.47,-1536.33C618.49,-1540.29 623.18,-1544.86 626.75,-1550 663.92,-1603.46 625.79,-1638.4 662.75,-1692 665.61,-1696.14 669.19,-1699.93 673.08,-1703.32"/>
<polygon fill="black" stroke="black" points="670.68,-1705.89 680.74,-1709.2 674.94,-1700.34 670.68,-1705.89"/>
</g>
<!-- numerals&#45;&gt;types -->
<g id="edge108" class="edge">
<title>numerals&#45;&gt;types</title>
<path fill="none" stroke="black" d="M597.47,-1499.62C607.79,-1487.37 620.19,-1470.38 626.75,-1453 654.51,-1379.43 617.04,-1164.98 662.75,-1101 689.28,-1063.86 721.92,-1088.35 756,-1058 778.94,-1037.57 765.92,-1015.24 792,-999 871.04,-949.79 907.52,-980 1000.62,-980 1000.62,-980 1000.62,-980 1238.25,-980 1403.25,-980 1369.45,-1146.77 1419.5,-1304 1452.8,-1408.61 1474.11,-1751.67 1479.9,-1855.18"/>
<polygon fill="black" stroke="black" points="1476.4,-1855.27 1480.45,-1865.07 1483.39,-1854.89 1476.4,-1855.27"/>
</g>
<!-- object&#45;&gt;hash -->
<g id="edge109" class="edge">
<title>object&#45;&gt;hash</title>
<path fill="none" stroke="black" d="M738.4,-906.2C762.36,-892.69 797.01,-873.16 823.09,-858.46"/>
<polygon fill="black" stroke="black" points="824.66,-861.59 831.66,-853.63 821.23,-855.49 824.66,-861.59"/>
</g>
<!-- object&#45;&gt;parse -->
<g id="edge110" class="edge">
<title>object&#45;&gt;parse</title>
<path fill="none" stroke="black" d="M738.45,-929.61C780.85,-941.6 863.23,-966.89 928.75,-999 984.54,-1026.35 1044.11,-1067.09 1080.04,-1093.1"/>
<polygon fill="black" stroke="black" points="1077.72,-1095.74 1087.86,-1098.81 1081.85,-1090.09 1077.72,-1095.74"/>
</g>
<!-- opentheory&#45;&gt;core -->
<g id="edge111" class="edge">
<title>opentheory&#45;&gt;core</title>
<path fill="none" stroke="black" d="M492.09,-2358.44C579.1,-2394.99 787.17,-2466.12 928.75,-2382 966.11,-2359.8 985.28,-2310.62 994.12,-2278.96"/>
<polygon fill="black" stroke="black" points="997.41,-2280.19 996.54,-2269.63 990.64,-2278.43 997.41,-2280.19"/>
</g>
<!-- opentheory&#45;&gt;hol -->
<g id="edge112" class="edge">
<title>opentheory&#45;&gt;hol</title>
<path fill="none" stroke="black" d="M496.45,-2349.22C507.99,-2351.2 520.41,-2353 532,-2354 631.19,-2362.56 657.31,-2367.13 756,-2354 778.34,-2351.03 802.7,-2344.59 822.16,-2338.64"/>
<polygon fill="black" stroke="black" points="823.07,-2342.02 831.55,-2335.68 820.96,-2335.35 823.07,-2342.02"/>
</g>
<!-- opentheory&#45;&gt;hol&#45;api -->
<g id="edge113" class="edge">
<title>opentheory&#45;&gt;hol&#45;api</title>
<path fill="none" stroke="black" d="M485.83,-2321.6C501.88,-2313 521.09,-2302.7 537.85,-2293.72"/>
<polygon fill="black" stroke="black" points="539.42,-2296.85 546.58,-2289.04 536.11,-2290.68 539.42,-2296.85"/>
</g>
<!-- opentheory&#45;&gt;hol&#45;eval -->
<g id="edge114" class="edge">
<title>opentheory&#45;&gt;hol&#45;eval</title>
<path fill="none" stroke="black" d="M496.36,-2333.77C532.55,-2327.74 584.26,-2316.85 626.75,-2299 712.94,-2262.8 795.06,-2186.56 834.68,-2146.26"/>
<polygon fill="black" stroke="black" points="836.97,-2148.93 841.42,-2139.32 831.95,-2144.05 836.97,-2148.93"/>
</g>
<!-- parquet -->
<g id="node40" class="node">
<title>parquet</title>
<polygon fill="none" stroke="black" points="484,-674 417,-674 417,-638 484,-638 484,-674"/>
<text text-anchor="middle" x="450.5" y="-651.7" font-family="sans-serif" font-size="14.00">parquet</text>
</g>
<!-- parquet&#45;&gt;arrow -->
<g id="edge115" class="edge">
<title>parquet&#45;&gt;arrow</title>
<path fill="none" stroke="black" d="M484.17,-646.21C501.6,-640.99 523.12,-634.55 541.19,-629.14"/>
<polygon fill="black" stroke="black" points="542.18,-632.5 550.75,-626.27 540.17,-625.79 542.18,-632.5"/>
</g>
<!-- parsing&#45;api -->
<g id="node42" class="node">
<title>parsing&#45;api</title>
<polygon fill="none" stroke="black" points="106.38,-1198 14.62,-1198 14.62,-1162 106.38,-1162 106.38,-1198"/>
<text text-anchor="middle" x="60.5" y="-1175.7" font-family="sans-serif" font-size="14.00">parsing&#45;api</text>
</g>
<!-- proptest -->
<g id="node43" class="node">
<title>proptest</title>
<polygon fill="none" stroke="black" points="95.88,-1252 25.12,-1252 25.12,-1216 95.88,-1216 95.88,-1252"/>
<text text-anchor="middle" x="60.5" y="-1229.7" font-family="sans-serif" font-size="14.00">proptest</text>
</g>
<!-- pure&#45;trusted -->
<g id="node47" class="node">
<title>pure&#45;trusted</title>
<polygon fill="#ffd6d6" stroke="black" points="1419.5,-2222 1320.25,-2222 1320.25,-2186 1419.5,-2186 1419.5,-2222"/>
<text text-anchor="middle" x="1369.88" y="-2199.7" font-family="sans-serif" font-size="14.00">pure&#45;trusted</text>
</g>
<!-- pure&#45;&gt;pure&#45;trusted -->
<g id="edge116" class="edge">
<title>pure&#45;&gt;pure&#45;trusted</title>
<path fill="none" stroke="black" d="M1264.68,-2204C1277.4,-2204 1293.21,-2204 1308.64,-2204"/>
<polygon fill="black" stroke="black" points="1308.25,-2207.5 1318.25,-2204 1308.25,-2200.5 1308.25,-2207.5"/>
</g>
<!-- pure&#45;eval&#45;&gt;pure -->
<g id="edge117" class="edge">
<title>pure&#45;eval&#45;&gt;pure</title>
<path fill="none" stroke="black" d="M1154.62,-2172.93C1169.01,-2178.41 1185.24,-2184.59 1199.41,-2189.98"/>
<polygon fill="black" stroke="black" points="1197.78,-2193.11 1208.37,-2193.39 1200.27,-2186.56 1197.78,-2193.11"/>
</g>
<!-- pure&#45;eval&#45;&gt;types -->
<g id="edge118" class="edge">
<title>pure&#45;eval&#45;&gt;types</title>
<path fill="none" stroke="black" d="M1154.64,-2166.65C1218.41,-2178.21 1344.84,-2190.42 1419.5,-2126 1451.41,-2098.46 1470.7,-1972.9 1478.06,-1914.73"/>
<polygon fill="black" stroke="black" points="1481.52,-1915.26 1479.27,-1904.91 1474.58,-1914.41 1481.52,-1915.26"/>
</g>
<!-- pure&#45;trusted&#45;&gt;types -->
<g id="edge119" class="edge">
<title>pure&#45;trusted&#45;&gt;types</title>
<path fill="none" stroke="black" d="M1402.75,-2185.57C1409.11,-2180.6 1415.16,-2174.7 1419.5,-2168 1471.85,-2087.14 1480.57,-1968.88 1481.65,-1914.43"/>
<polygon fill="black" stroke="black" points="1485.14,-1914.77 1481.76,-1904.73 1478.14,-1914.69 1485.14,-1914.77"/>
</g>
<!-- python -->
<g id="node48" class="node">
<title>python</title>
<polygon fill="none" stroke="black" points="91.38,-640 29.62,-640 29.62,-604 91.38,-604 91.38,-640"/>
<text text-anchor="middle" x="60.5" y="-617.7" font-family="sans-serif" font-size="14.00">python</text>
</g>
<!-- python&#45;&gt;crypto&#45;sig -->
<g id="edge120" class="edge">
<title>python&#45;&gt;crypto&#45;sig</title>
<path fill="none" stroke="black" d="M62.77,-603.73C69.05,-517.06 98.88,-147.51 157,-50 158.15,-48.08 159.46,-46.23 160.89,-44.45"/>
<polygon fill="black" stroke="black" points="163.34,-46.94 167.79,-37.33 158.32,-42.07 163.34,-46.94"/>
</g>
<!-- python&#45;&gt;git -->
<g id="edge121" class="edge">
<title>python&#45;&gt;git</title>
<path fill="none" stroke="black" d="M83.96,-603.67C121.32,-574.49 199.82,-518.67 277.25,-498 322.7,-485.87 376.98,-494.93 412.29,-503.81"/>
<polygon fill="black" stroke="black" points="411.03,-507.09 421.59,-506.27 412.82,-500.32 411.03,-507.09"/>
</g>
<!-- python&#45;&gt;graph -->
<g id="edge122" class="edge">
<title>python&#45;&gt;graph</title>
<path fill="none" stroke="black" d="M91.84,-626.38C127.67,-631.7 189.02,-641.32 241.25,-652 298.49,-663.71 312.86,-666.81 369,-683 383.27,-687.12 398.79,-692.18 412.35,-696.8"/>
<polygon fill="black" stroke="black" points="411.19,-700.1 421.78,-700.06 413.47,-693.48 411.19,-700.1"/>
</g>
<!-- python&#45;&gt;hash -->
<g id="edge123" class="edge">
<title>python&#45;&gt;hash</title>
<path fill="none" stroke="black" d="M70.95,-603.52C85.53,-577.09 116.14,-529.14 157,-506 388.66,-374.8 548.67,-344.98 756,-512 848.3,-586.36 859.51,-742.99 859.97,-808.36"/>
<polygon fill="black" stroke="black" points="856.47,-808.3 859.95,-818.3 863.47,-808.31 856.47,-808.3"/>
</g>
<!-- python&#45;&gt;kv -->
<g id="edge124" class="edge">
<title>python&#45;&gt;kv</title>
<path fill="none" stroke="black" d="M61.14,-603.88C60.68,-540.17 66.22,-322.56 157,-178 158.86,-175.03 161.11,-172.23 163.57,-169.61"/>
<polygon fill="black" stroke="black" points="165.87,-172.25 170.88,-162.91 161.14,-167.09 165.87,-172.25"/>
</g>
<!-- python&#45;&gt;llm -->
<g id="edge125" class="edge">
<title>python&#45;&gt;llm</title>
<path fill="none" stroke="black" d="M66.9,-640.49C78.61,-678.34 109.18,-766.1 157,-826 158.96,-828.45 161.14,-830.83 163.45,-833.1"/>
<polygon fill="black" stroke="black" points="160.73,-835.37 170.52,-839.4 165.38,-830.14 160.73,-835.37"/>
</g>
<!-- python&#45;&gt;object -->
<g id="edge126" class="edge">
<title>python&#45;&gt;object</title>
<path fill="none" stroke="black" d="M87.64,-640.48C156.72,-688.4 351.22,-817.57 532,-884 577.76,-900.82 633.08,-911.23 669.42,-916.81"/>
<polygon fill="black" stroke="black" points="668.61,-920.23 679.01,-918.23 669.63,-913.31 668.61,-920.23"/>
</g>
<!-- python&#45;&gt;repl -->
<g id="edge127" class="edge">
<title>python&#45;&gt;repl</title>
<path fill="none" stroke="black" d="M91.65,-632.18C139.59,-648.37 233.06,-679.93 285.03,-697.47"/>
<polygon fill="black" stroke="black" points="283.73,-700.73 294.33,-700.61 285.97,-694.1 283.73,-700.73"/>
</g>
<!-- python&#45;&gt;sat -->
<g id="edge128" class="edge">
<title>python&#45;&gt;sat</title>
<path fill="none" stroke="black" d="M76.53,-640.3C94.67,-661.95 126.53,-698.61 157,-727 244.76,-808.76 277.02,-817.02 369,-894 502.93,-1006.08 499.5,-1092.95 662.75,-1155 701.49,-1169.72 715.17,-1162.09 756,-1155 769.03,-1152.74 798.3,-1142.06 822.38,-1132.75"/>
<polygon fill="black" stroke="black" points="823.55,-1136.05 831.6,-1129.16 821.01,-1129.53 823.55,-1136.05"/>
</g>
<!-- python&#45;&gt;serve -->
<g id="edge129" class="edge">
<title>python&#45;&gt;serve</title>
<path fill="none" stroke="black" d="M66.52,-640.35C87.07,-715.4 164.81,-999.31 190.11,-1091.73"/>
<polygon fill="black" stroke="black" points="186.71,-1092.57 192.73,-1101.29 193.46,-1090.72 186.71,-1092.57"/>
</g>
<!-- python&#45;&gt;sexp -->
<g id="edge130" class="edge">
<title>python&#45;&gt;sexp</title>
<path fill="none" stroke="black" d="M64.5,-640.43C79.28,-730.96 144.13,-1125.09 157,-1148 192.02,-1210.38 214.26,-1221.08 277.25,-1255 535.48,-1394.07 650.92,-1266.02 928.75,-1360 942.48,-1364.64 956.28,-1372.37 968.06,-1380.12"/>
<polygon fill="black" stroke="black" points="965.97,-1382.93 976.19,-1385.71 969.94,-1377.16 965.97,-1382.93"/>
</g>
<!-- python&#45;&gt;shell -->
<g id="edge131" class="edge">
<title>python&#45;&gt;shell</title>
<path fill="none" stroke="black" d="M64.97,-640.36C75,-694.09 104.42,-855.74 121,-991 144.18,-1180.04 89.41,-1239.95 157,-1418 188.7,-1501.5 198.48,-1536.91 277.25,-1579 319.19,-1601.41 375.39,-1599.48 412.01,-1594.78"/>
<polygon fill="black" stroke="black" points="412.27,-1598.28 421.67,-1593.4 411.27,-1591.35 412.27,-1598.28"/>
</g>
<!-- python&#45;&gt;store -->
<g id="edge132" class="edge">
<title>python&#45;&gt;store</title>
<path fill="none" stroke="black" d="M62.99,-603.77C67.82,-555.72 87.07,-423.93 157,-346 211.21,-285.59 240.96,-268 322.12,-268 322.12,-268 322.12,-268 451.5,-268 534.05,-268 623.54,-309.9 672.07,-336.53"/>
<polygon fill="black" stroke="black" points="670.32,-339.55 680.75,-341.38 673.73,-333.44 670.32,-339.55"/>
</g>
<!-- python&#45;&gt;wasm -->
<g id="edge133" class="edge">
<title>python&#45;&gt;wasm</title>
<path fill="none" stroke="black" d="M62.55,-603.63C67.55,-522.11 91.55,-193.86 157,-119 207.92,-60.77 244.77,-64 322.12,-64 322.12,-64 322.12,-64 710.38,-64 811.03,-64 853.52,-57.13 928.75,-124 972.45,-162.84 990.04,-232.11 996.77,-271.49"/>
<polygon fill="black" stroke="black" points="993.28,-271.85 998.29,-281.19 1000.2,-270.77 993.28,-271.85"/>
</g>
<!-- wasm&#45;store -->
<g id="node66" class="node">
<title>wasm&#45;store</title>
<polygon fill="none" stroke="black" points="626.75,-201 532,-201 532,-165 626.75,-165 626.75,-201"/>
<text text-anchor="middle" x="579.38" y="-178.7" font-family="sans-serif" font-size="14.00">wasm&#45;store</text>
</g>
<!-- python&#45;&gt;wasm&#45;store -->
<g id="edge134" class="edge">
<title>python&#45;&gt;wasm&#45;store</title>
<path fill="none" stroke="black" d="M63.63,-603.76C71.86,-536.36 103.84,-302.72 157,-254 257.33,-162.04 430.26,-165.42 520.21,-174.72"/>
<polygon fill="black" stroke="black" points="519.72,-178.19 530.05,-175.8 520.49,-171.23 519.72,-178.19"/>
</g>
<!-- repl&#45;&gt;arrow -->
<g id="edge135" class="edge">
<title>repl&#45;&gt;arrow</title>
<path fill="none" stroke="black" d="M336.19,-691.69C350.16,-672.26 375.12,-642.51 405,-629 448.52,-609.32 504.54,-609.78 540.94,-612.99"/>
<polygon fill="black" stroke="black" points="540.23,-616.44 550.53,-613.96 540.93,-609.47 540.23,-616.44"/>
</g>
<!-- repl&#45;&gt;forsp -->
<g id="edge136" class="edge">
<title>repl&#45;&gt;forsp</title>
<path fill="none" stroke="black" d="M328.71,-728.25C336.99,-761.27 354.85,-833.15 369,-894 397.85,-1018.11 429.94,-1166.61 443.22,-1228.58"/>
<polygon fill="black" stroke="black" points="439.79,-1229.26 445.3,-1238.31 446.63,-1227.8 439.79,-1229.26"/>
</g>
<!-- repl&#45;&gt;git -->
<g id="edge137" class="edge">
<title>repl&#45;&gt;git</title>
<path fill="none" stroke="black" d="M331.66,-691.6C344.3,-661.88 371.72,-602.16 405,-558 409.33,-552.26 414.43,-546.58 419.62,-541.32"/>
<polygon fill="black" stroke="black" points="421.89,-543.99 426.64,-534.51 417.02,-538.96 421.89,-543.99"/>
</g>
<!-- repl&#45;&gt;graph -->
<g id="edge138" class="edge">
<title>repl&#45;&gt;graph</title>
<path fill="none" stroke="black" d="M350.41,-710C368.21,-710 392.01,-710 411.82,-710"/>
<polygon fill="black" stroke="black" points="411.74,-713.5 421.74,-710 411.74,-706.5 411.74,-713.5"/>
</g>
<!-- repl&#45;&gt;hash -->
<g id="edge139" class="edge">
<title>repl&#45;&gt;hash</title>
<path fill="none" stroke="black" d="M335.98,-691.71C353.71,-664.95 387,-617.19 405,-607 490.98,-558.31 536.04,-551.82 626.75,-591 731.91,-636.42 811.54,-755.36 843.74,-809.92"/>
<polygon fill="black" stroke="black" points="840.57,-811.43 848.61,-818.32 846.63,-807.91 840.57,-811.43"/>
</g>
<!-- repl&#45;&gt;init -->
<g id="edge140" class="edge">
<title>repl&#45;&gt;init</title>
<path fill="none" stroke="black" d="M329.56,-728.36C339.08,-761.25 358.73,-832.54 369,-894 397.75,-1066.13 339.48,-1123.25 405,-1285 429.21,-1344.77 467.43,-1340.19 496,-1398 525.81,-1458.3 489.06,-1493.23 532,-1545 561.52,-1580.59 595.6,-1553.82 626.75,-1588 659.7,-1624.15 633.3,-1652.95 662.75,-1692 665.78,-1696.02 669.47,-1699.73 673.41,-1703.08"/>
<polygon fill="black" stroke="black" points="671.03,-1705.67 681.11,-1708.94 675.27,-1700.1 671.03,-1705.67"/>
</g>
<!-- repl&#45;&gt;object -->
<g id="edge141" class="edge">
<title>repl&#45;&gt;object</title>
<path fill="none" stroke="black" d="M348.1,-728.33C385.82,-756.61 461.93,-811.55 532,-849 577.69,-873.42 633.35,-895.24 669.76,-908.53"/>
<polygon fill="black" stroke="black" points="668.4,-911.75 678.99,-911.85 670.77,-905.17 668.4,-911.75"/>
</g>
<!-- repl&#45;&gt;parquet -->
<g id="edge142" class="edge">
<title>repl&#45;&gt;parquet</title>
<path fill="none" stroke="black" d="M350.41,-698.68C366.49,-691.75 387.48,-682.71 405.99,-674.74"/>
<polygon fill="black" stroke="black" points="407.36,-677.96 415.16,-670.79 404.59,-671.53 407.36,-677.96"/>
</g>
<!-- repl&#45;&gt;shell -->
<g id="edge143" class="edge">
<title>repl&#45;&gt;shell</title>
<path fill="none" stroke="black" d="M329.79,-728.32C339.68,-761.15 359.9,-832.36 369,-894 379.84,-967.42 366.86,-1497.33 405,-1561 407.34,-1564.9 410.47,-1568.31 414.01,-1571.27"/>
<polygon fill="black" stroke="black" points="411.91,-1574.08 422.12,-1576.88 415.88,-1568.32 411.91,-1574.08"/>
</g>
<!-- repl&#45;&gt;wasm -->
<g id="edge144" class="edge">
<title>repl&#45;&gt;wasm</title>
<path fill="none" stroke="black" d="M326.75,-691.68C333.36,-651.06 353.96,-551.97 405,-488 488.65,-383.15 533.14,-365.53 662.75,-331 702.8,-320.33 714.75,-327.03 756,-331 772.22,-332.56 775.78,-336.44 792,-338 852.5,-343.83 869.68,-352.31 928.75,-338 940.84,-335.07 953.18,-329.73 964.14,-324"/>
<polygon fill="black" stroke="black" points="965.8,-327.09 972.86,-319.19 962.41,-320.96 965.8,-327.09"/>
</g>
<!-- sat&#45;&gt;parse -->
<g id="edge145" class="edge">
<title>sat&#45;&gt;parse</title>
<path fill="none" stroke="black" d="M887.87,-1118C932.89,-1118 1024.43,-1118 1075.97,-1118"/>
<polygon fill="black" stroke="black" points="1075.72,-1121.5 1085.72,-1118 1075.72,-1114.5 1075.72,-1121.5"/>
</g>
<!-- sat&#45;&gt;types -->
<g id="edge146" class="edge">
<title>sat&#45;&gt;types</title>
<path fill="none" stroke="black" d="M887.73,-1126.68C900.5,-1131.34 915.82,-1137.65 928.75,-1145 1018.52,-1196 1010.13,-1286 1113.38,-1286 1113.38,-1286 1113.38,-1286 1238.25,-1286 1347.49,-1286 1368.5,-1355.4 1419.5,-1452 1456.76,-1522.57 1474.63,-1769.1 1479.83,-1855.11"/>
<polygon fill="black" stroke="black" points="1476.34,-1855.31 1480.42,-1865.09 1483.33,-1854.9 1476.34,-1855.31"/>
</g>
<!-- sat&#45;&gt;wasm -->
<g id="edge147" class="edge">
<title>sat&#45;&gt;wasm</title>
<path fill="none" stroke="black" d="M887.6,-1100.09C902.34,-1088.5 919.57,-1072.03 928.75,-1053 944.74,-1019.85 987.96,-466.56 998.35,-330.86"/>
<polygon fill="black" stroke="black" points="1001.84,-331.15 999.11,-320.91 994.86,-330.62 1001.84,-331.15"/>
</g>
<!-- serve&#45;&gt;core -->
<g id="edge148" class="edge">
<title>serve&#45;&gt;core</title>
<path fill="none" stroke="black" d="M200.51,-1139.1C203.86,-1278.03 232.02,-2174.65 405,-2367 561.3,-2540.81 739.34,-2551.99 928.75,-2415 972.96,-2383.03 990.3,-2317.91 996.85,-2279.74"/>
<polygon fill="black" stroke="black" points="1000.31,-2280.28 998.39,-2269.86 993.39,-2279.2 1000.31,-2280.28"/>
</g>
<!-- serve&#45;&gt;forsp -->
<g id="edge149" class="edge">
<title>serve&#45;&gt;forsp</title>
<path fill="none" stroke="black" d="M208.13,-1139.15C219.72,-1163.15 243.53,-1204.84 277.25,-1226 318.28,-1251.75 374.93,-1257.85 411.88,-1258.78"/>
<polygon fill="black" stroke="black" points="411.58,-1262.27 421.62,-1258.9 411.67,-1255.27 411.58,-1262.27"/>
</g>
<!-- serve&#45;&gt;git -->
<g id="edge150" class="edge">
<title>serve&#45;&gt;git</title>
<path fill="none" stroke="black" d="M203.33,-1102.57C217.76,-1019.69 275.99,-685.39 277.25,-683 309.99,-620.91 373.96,-567.95 414.06,-538.89"/>
<polygon fill="black" stroke="black" points="415.87,-541.9 421.98,-533.24 411.8,-536.19 415.87,-541.9"/>
</g>
<!-- serve&#45;&gt;hash -->
<g id="edge151" class="edge">
<title>serve&#45;&gt;hash</title>
<path fill="none" stroke="black" d="M226.6,-1123.4C298.82,-1128.51 502.14,-1133.11 626.75,-1038 650.27,-1020.05 639.55,-1000.37 662.75,-982 697.21,-954.71 719.24,-973.11 756,-949 790.36,-926.46 821.25,-890.15 840.12,-865.24"/>
<polygon fill="black" stroke="black" points="842.71,-867.63 845.85,-857.51 837.08,-863.46 842.71,-867.63"/>
</g>
<!-- serve&#45;&gt;init -->
<g id="edge152" class="edge">
<title>serve&#45;&gt;init</title>
<path fill="none" stroke="black" d="M209.3,-1139.45C222.78,-1165.94 249.39,-1215.86 277.25,-1255 363.25,-1375.83 414.25,-1383.26 496,-1507 516.16,-1537.52 504.89,-1556.45 532,-1581 565.27,-1611.14 593.63,-1585.69 626.75,-1616 654.32,-1641.23 638.65,-1663.43 662.75,-1692 665.84,-1695.66 669.44,-1699.1 673.24,-1702.27"/>
<polygon fill="black" stroke="black" points="671.02,-1704.98 681.1,-1708.24 675.25,-1699.41 671.02,-1704.98"/>
</g>
<!-- serve&#45;&gt;lisp -->
<g id="edge153" class="edge">
<title>serve&#45;&gt;lisp</title>
<path fill="none" stroke="black" d="M200.92,-1139.1C204.42,-1209.42 220.82,-1463.09 277.25,-1515 313.27,-1548.13 373.06,-1546.83 411.87,-1541.48"/>
<polygon fill="black" stroke="black" points="412.36,-1544.94 421.7,-1539.95 411.28,-1538.03 412.36,-1544.94"/>
</g>
<!-- serve&#45;&gt;metamath -->
<g id="edge154" class="edge">
<title>serve&#45;&gt;metamath</title>
<path fill="none" stroke="black" d="M226.28,-1137.48C270.48,-1163.7 363.55,-1212 449.5,-1212 449.5,-1212 449.5,-1212 580.38,-1212 660.06,-1212 752.4,-1217.77 808.31,-1221.9"/>
<polygon fill="black" stroke="black" points="807.93,-1225.38 818.16,-1222.64 808.45,-1218.4 807.93,-1225.38"/>
</g>
<!-- serve&#45;&gt;object -->
<g id="edge155" class="edge">
<title>serve&#45;&gt;object</title>
<path fill="none" stroke="black" d="M226.39,-1118.86C296.82,-1112.04 493.53,-1085.83 626.75,-998 647.84,-984.09 644.23,-971.19 662.75,-954 665.44,-951.5 668.34,-949.03 671.33,-946.65"/>
<polygon fill="black" stroke="black" points="673.34,-949.52 679.21,-940.7 669.12,-943.93 673.34,-949.52"/>
</g>
<!-- serve&#45;&gt;proto -->
<g id="edge156" class="edge">
<title>serve&#45;&gt;proto</title>
<path fill="none" stroke="black" d="M221.1,-1102.61C240.95,-1085.2 270.91,-1058.91 293.06,-1039.49"/>
<polygon fill="black" stroke="black" points="295.08,-1042.38 300.29,-1033.15 290.46,-1037.11 295.08,-1042.38"/>
</g>
<!-- serve&#45;&gt;repl -->
<g id="edge157" class="edge">
<title>serve&#45;&gt;repl</title>
<path fill="none" stroke="black" d="M205.6,-1102.54C224.92,-1037.48 289.92,-818.49 313.49,-739.08"/>
<polygon fill="black" stroke="black" points="316.74,-740.44 316.23,-729.86 310.03,-738.45 316.74,-740.44"/>
</g>
<!-- serve&#45;&gt;shell -->
<g id="edge158" class="edge">
<title>serve&#45;&gt;shell</title>
<path fill="none" stroke="black" d="M200.9,-1139.18C204.39,-1212.26 220.99,-1483.68 277.25,-1544 311.68,-1580.92 372.44,-1588.63 411.82,-1589.37"/>
<polygon fill="black" stroke="black" points="411.78,-1592.87 421.79,-1589.4 411.8,-1585.87 411.78,-1592.87"/>
</g>
<!-- serve&#45;&gt;store -->
<g id="edge159" class="edge">
<title>serve&#45;&gt;store</title>
<path fill="none" stroke="black" d="M203.69,-1102.7C211.32,-1063.11 229.49,-966.5 241.25,-885 251.28,-815.49 240.28,-630.72 277.25,-571 312.76,-513.65 470.4,-433.47 532,-406 577.9,-385.53 634.5,-372.02 671.01,-364.69"/>
<polygon fill="black" stroke="black" points="671.48,-368.16 680.63,-362.81 670.14,-361.29 671.48,-368.16"/>
</g>
<!-- sexp&#45;&gt;parse -->
<g id="edge160" class="edge">
<title>sexp&#45;&gt;parse</title>
<path fill="none" stroke="black" d="M1009.72,-1386.61C1028.51,-1337.91 1079.68,-1205.33 1102.33,-1146.62"/>
<polygon fill="black" stroke="black" points="1105.46,-1148.24 1105.79,-1137.65 1098.93,-1145.72 1105.46,-1148.24"/>
</g>
<!-- sexp&#45;&gt;types -->
<g id="edge161" class="edge">
<title>sexp&#45;&gt;types</title>
<path fill="none" stroke="black" d="M1028.88,-1403.82C1103.1,-1402.06 1315.78,-1408.08 1419.5,-1527 1462.3,-1576.07 1476.39,-1778.83 1480.24,-1855.48"/>
<polygon fill="black" stroke="black" points="1476.73,-1855.32 1480.7,-1865.14 1483.72,-1854.98 1476.73,-1855.32"/>
</g>
<!-- sexpr&#45;api -->
<g id="node55" class="node">
<title>sexpr&#45;api</title>
<polygon fill="none" stroke="black" points="748.12,-1650 670.62,-1650 670.62,-1614 748.12,-1614 748.12,-1650"/>
<text text-anchor="middle" x="709.38" y="-1627.7" font-family="sans-serif" font-size="14.00">sexpr&#45;api</text>
</g>
<!-- sexpr&#45;api&#45;&gt;inductive -->
<g id="edge162" class="edge">
<title>sexpr&#45;api&#45;&gt;inductive</title>
<path fill="none" stroke="black" d="M742.56,-1613.55C747.12,-1610.77 751.71,-1607.86 756,-1605 772.63,-1593.89 774.88,-1588.34 792,-1578 798.11,-1574.31 804.71,-1570.72 811.31,-1567.37"/>
<polygon fill="black" stroke="black" points="812.82,-1570.53 820.25,-1562.98 809.73,-1564.25 812.82,-1570.53"/>
</g>
<!-- shell&#45;&gt;hol -->
<g id="edge163" class="edge">
<title>shell&#45;&gt;hol</title>
<path fill="none" stroke="black" d="M453.05,-1606.4C461.03,-1699.66 498.43,-2117.48 532,-2164 568.74,-2214.91 744.5,-2283.99 822.25,-2312.67"/>
<polygon fill="black" stroke="black" points="820.96,-2315.92 831.56,-2316.08 823.37,-2309.35 820.96,-2315.92"/>
</g>
<!-- shell&#45;&gt;kernel -->
<g id="edge164" class="edge">
<title>shell&#45;&gt;kernel</title>
<path fill="none" stroke="black" d="M477.76,-1575.33C484.25,-1571.37 490.82,-1566.55 496,-1561 519.85,-1535.41 513.79,-1520.87 532,-1491 539.78,-1478.24 549.23,-1464.7 557.57,-1453.3"/>
<polygon fill="black" stroke="black" points="560.2,-1455.62 563.34,-1445.5 554.58,-1451.45 560.2,-1455.62"/>
</g>
<!-- smt&#45;&gt;sat -->
<g id="edge165" class="edge">
<title>smt&#45;&gt;sat</title>
<path fill="none" stroke="black" d="M717.03,-1505.8C726.82,-1478.42 745.13,-1424.82 756,-1378 779.69,-1275.93 726.81,-1227.04 792,-1145 799.47,-1135.6 810.71,-1129.46 821.87,-1125.45"/>
<polygon fill="black" stroke="black" points="822.88,-1128.81 831.43,-1122.55 820.84,-1122.11 822.88,-1128.81"/>
</g>
<!-- smt&#45;&gt;sexp -->
<g id="edge166" class="edge">
<title>smt&#45;&gt;sexp</title>
<path fill="none" stroke="black" d="M736.55,-1511.01C752.42,-1503.34 773.18,-1493.66 792,-1486 851.66,-1461.71 869.03,-1462.13 928.75,-1438 940.33,-1433.32 952.75,-1427.8 963.95,-1422.63"/>
<polygon fill="black" stroke="black" points="965.31,-1425.86 972.89,-1418.46 962.34,-1419.52 965.31,-1425.86"/>
</g>
<!-- smt&#45;&gt;types -->
<g id="edge167" class="edge">
<title>smt&#45;&gt;types</title>
<path fill="none" stroke="black" d="M736.55,-1535.15C743.68,-1539.25 750.85,-1544.51 756,-1551 789.04,-1592.61 750.61,-1631.68 792,-1665 864.52,-1723.39 907.52,-1684 1000.62,-1684 1000.62,-1684 1000.62,-1684 1238.25,-1684 1345.78,-1684 1431.42,-1802.16 1465.52,-1857.29"/>
<polygon fill="black" stroke="black" points="1462.32,-1858.77 1470.5,-1865.51 1468.31,-1855.15 1462.32,-1858.77"/>
</g>
<!-- spectec&#45;&gt;grammar -->
<g id="edge168" class="edge">
<title>spectec&#45;&gt;grammar</title>
<path fill="none" stroke="black" d="M895.44,-1822C912.78,-1822 934.13,-1822 953.06,-1822"/>
<polygon fill="black" stroke="black" points="952.97,-1825.5 962.97,-1822 952.97,-1818.5 952.97,-1825.5"/>
</g>
<!-- store&#45;&gt;hash -->
<g id="edge169" class="edge">
<title>store&#45;&gt;hash</title>
<path fill="none" stroke="black" d="M736.41,-368.62C743.71,-372.75 751.01,-378.16 756,-385 853.95,-519.22 861.2,-730.72 860.3,-808.25"/>
<polygon fill="black" stroke="black" points="856.8,-807.93 860.12,-817.99 863.8,-808.06 856.8,-807.93"/>
</g>
<!-- store&#45;&gt;json -->
<g id="edge170" class="edge">
<title>store&#45;&gt;json</title>
<path fill="none" stroke="black" d="M724.39,-339.77C733.88,-327.02 746.39,-309.42 756,-293 774.68,-261.09 765.8,-244.09 792,-218 800.53,-209.5 811.76,-202.96 822.59,-198.06"/>
<polygon fill="black" stroke="black" points="823.86,-201.33 831.78,-194.29 821.2,-194.85 823.86,-201.33"/>
</g>
<!-- store&#45;&gt;sqlite -->
<g id="edge171" class="edge">
<title>store&#45;&gt;sqlite</title>
<path fill="none" stroke="black" d="M736.67,-366.82C760.43,-374.8 795.65,-386.62 822.27,-395.55"/>
<polygon fill="black" stroke="black" points="821.06,-398.84 831.66,-398.7 823.29,-392.2 821.06,-398.84"/>
</g>
<!-- tcb&#45;db -->
<g id="node61" class="node">
<title>tcb&#45;db</title>
<polygon fill="none" stroke="black" points="739.5,-284 679.25,-284 679.25,-248 739.5,-248 739.5,-284"/>
<text text-anchor="middle" x="709.38" y="-261.7" font-family="sans-serif" font-size="14.00">tcb&#45;db</text>
</g>
<!-- tcb&#45;db&#45;&gt;json -->
<g id="edge172" class="edge">
<title>tcb&#45;db&#45;&gt;json</title>
<path fill="none" stroke="black" d="M739.87,-247.81C755.23,-238.55 774.43,-227.32 792,-218 801.93,-212.73 812.88,-207.36 823.01,-202.55"/>
<polygon fill="black" stroke="black" points="824.25,-205.84 831.82,-198.42 821.28,-199.5 824.25,-205.84"/>
</g>
<!-- tcb&#45;db&#45;&gt;sqlite -->
<g id="edge173" class="edge">
<title>tcb&#45;db&#45;&gt;sqlite</title>
<path fill="none" stroke="black" d="M729.55,-284.27C755.59,-309.09 802.29,-353.59 832.01,-381.92"/>
<polygon fill="black" stroke="black" points="829.53,-384.39 839.18,-388.75 834.35,-379.32 829.53,-384.39"/>
</g>
<!-- wasm&#45;build&#45;guest -->
<g id="node64" class="node">
<title>wasm&#45;build&#45;guest</title>
<polygon fill="none" stroke="black" points="928.75,-296 792,-296 792,-260 928.75,-260 928.75,-296"/>
<text text-anchor="middle" x="860.38" y="-273.7" font-family="sans-serif" font-size="14.00">wasm&#45;build&#45;guest</text>
</g>
<!-- wasm&#45;build&#45;guest&#45;&gt;wasm -->
<g id="edge174" class="edge">
<title>wasm&#45;build&#45;guest&#45;&gt;wasm</title>
<path fill="none" stroke="black" d="M928.96,-289.16C940.64,-291.09 952.4,-293.03 962.92,-294.77"/>
<polygon fill="black" stroke="black" points="962.26,-298.21 972.7,-296.39 963.4,-291.3 962.26,-298.21"/>
</g>
<!-- wasm&#45;spec -->
<g id="node65" class="node">
<title>wasm&#45;spec</title>
<polygon fill="none" stroke="black" points="756,-430 662.75,-430 662.75,-394 756,-394 756,-430"/>
<text text-anchor="middle" x="709.38" y="-407.7" font-family="sans-serif" font-size="14.00">wasm&#45;spec</text>
</g>
<!-- wasm&#45;spec&#45;&gt;hash -->
<g id="edge175" class="edge">
<title>wasm&#45;spec&#45;&gt;hash</title>
<path fill="none" stroke="black" d="M742.9,-430.42C747.84,-434.38 752.46,-438.92 756,-444 837.54,-561.19 854.76,-738.57 858.4,-808.33"/>
<polygon fill="black" stroke="black" points="854.9,-808.35 858.85,-818.18 861.89,-808.03 854.9,-808.35"/>
</g>
<!-- wasm&#45;spec&#45;&gt;wasm -->
<g id="edge176" class="edge">
<title>wasm&#45;spec&#45;&gt;wasm</title>
<path fill="none" stroke="black" d="M747.38,-393.75C750.6,-391.14 753.55,-388.23 756,-385 793.29,-335.89 743.06,-288.52 792,-251 840.23,-214.02 870.76,-232.81 928.75,-251 944.58,-255.97 959.98,-265.79 972.44,-275.42"/>
<polygon fill="black" stroke="black" points="970.21,-278.12 980.18,-281.72 974.63,-272.69 970.21,-278.12"/>
</g>
<!-- wasm&#45;store&#45;&gt;json -->
<g id="edge177" class="edge">
<title>wasm&#45;store&#45;&gt;json</title>
<path fill="none" stroke="black" d="M627.07,-183.5C681.79,-184.09 771.37,-185.05 821.8,-185.6"/>
<polygon fill="black" stroke="black" points="821.59,-189.09 831.63,-185.7 821.67,-182.09 821.59,-189.09"/>
</g>
<!-- wasm&#45;store&#45;&gt;store -->
<g id="edge178" class="edge">
<title>wasm&#45;store&#45;&gt;store</title>
<path fill="none" stroke="black" d="M593.83,-201.4C616.4,-232.25 661.98,-294.57 688.33,-330.6"/>
<polygon fill="black" stroke="black" points="685.28,-332.36 694.01,-338.36 690.93,-328.23 685.28,-332.36"/>
</g>
<!-- wasm&#45;store&#45;&gt;wasm -->
<g id="edge179" class="edge">
<title>wasm&#45;store&#45;&gt;wasm</title>
<path fill="none" stroke="black" d="M624.99,-164.51C695.32,-138.54 833.72,-100.59 928.75,-159 968.55,-183.46 987.13,-237.55 995.16,-271.46"/>
<polygon fill="black" stroke="black" points="991.7,-272.03 997.25,-281.05 998.54,-270.54 991.7,-272.03"/>
</g>
<!-- web&#45;kernel -->
<g id="node67" class="node">
<title>web&#45;kernel</title>
<polygon fill="none" stroke="black" points="369,-1506 277.25,-1506 277.25,-1470 369,-1470 369,-1506"/>
<text text-anchor="middle" x="323.12" y="-1483.7" font-family="sans-serif" font-size="14.00">web&#45;kernel</text>
</g>
<!-- web&#45;kernel&#45;&gt;forsp -->
<g id="edge180" class="edge">
<title>web&#45;kernel&#45;&gt;forsp</title>
<path fill="none" stroke="black" d="M334.17,-1469.57C356.05,-1429.43 408.12,-1333.91 434.14,-1286.17"/>
<polygon fill="black" stroke="black" points="437.14,-1287.99 438.85,-1277.53 430.99,-1284.64 437.14,-1287.99"/>
</g>
<!-- web&#45;kernel&#45;&gt;haskell -->
<g id="edge181" class="edge">
<title>web&#45;kernel&#45;&gt;haskell</title>
<path fill="none" stroke="black" d="M333.22,-1506.27C343.38,-1527.38 359.62,-1563.42 369,-1596 416.75,-1761.85 439.66,-1968.74 446.88,-2044.48"/>
<polygon fill="black" stroke="black" points="443.39,-2044.74 447.8,-2054.37 450.36,-2044.09 443.39,-2044.74"/>
</g>
<!-- web&#45;kernel&#45;&gt;hol&#45;api -->
<g id="edge182" class="edge">
<title>web&#45;kernel&#45;&gt;hol&#45;api</title>
<path fill="none" stroke="black" d="M333.98,-1506.5C344.67,-1527.53 361.23,-1563.2 369,-1596 394.92,-1705.48 360.59,-1997.63 405,-2101 432.63,-2165.33 497.06,-2217.99 539.12,-2247.15"/>
<polygon fill="black" stroke="black" points="537.03,-2249.96 547.26,-2252.69 540.96,-2244.17 537.03,-2249.96"/>
</g>
<!-- web&#45;kernel&#45;&gt;kernel -->
<g id="edge183" class="edge">
<title>web&#45;kernel&#45;&gt;kernel</title>
<path fill="none" stroke="black" d="M369.4,-1485.32C404.51,-1482.37 454.08,-1476.3 496,-1464 511.05,-1459.58 526.86,-1452.85 540.56,-1446.27"/>
<polygon fill="black" stroke="black" points="541.81,-1449.56 549.22,-1441.98 538.71,-1443.28 541.81,-1449.56"/>
</g>
<!-- web&#45;kernel&#45;&gt;lisp -->
<g id="edge184" class="edge">
<title>web&#45;kernel&#45;&gt;lisp</title>
<path fill="none" stroke="black" d="M369.39,-1504.61C383.67,-1509.85 399.26,-1515.57 412.86,-1520.56"/>
<polygon fill="black" stroke="black" points="411.26,-1523.7 421.85,-1523.86 413.67,-1517.13 411.26,-1523.7"/>
</g>
</g>
</svg>
