<?xml version="1.0" encoding="UTF-8" standalone="no"?>
<!DOCTYPE svg PUBLIC "-//W3C//DTD SVG 1.1//EN"
 "http://www.w3.org/Graphics/SVG/1.1/DTD/svg11.dtd">
<!-- Generated by graphviz version 12.2.1 (0)
 -->
<!-- Title: deps Pages: 1 -->
<svg width="1478pt" height="2016pt"
 viewBox="0.00 0.00 1477.50 2016.00" xmlns="http://www.w3.org/2000/svg" xmlns:xlink="http://www.w3.org/1999/xlink">
<g id="graph0" class="graph" transform="scale(1 1) rotate(0) translate(4 2012)">
<title>deps</title>
<polygon fill="white" stroke="none" points="-4,4 -4,-2012 1473.5,-2012 1473.5,4 -4,4"/>
<!-- covalence -->
<g id="node1" class="node">
<title>covalence</title>
<polygon fill="none" stroke="black" points="102.62,-914 18.38,-914 18.38,-878 102.62,-878 102.62,-914"/>
<text text-anchor="middle" x="60.5" y="-891.7" font-family="sans-serif" font-size="14.00">covalence</text>
</g>
<!-- client -->
<g id="node5" class="node">
<title>client</title>
<polygon fill="none" stroke="black" points="350.12,-887 296.12,-887 296.12,-851 350.12,-851 350.12,-887"/>
<text text-anchor="middle" x="323.12" y="-864.7" font-family="sans-serif" font-size="14.00">client</text>
</g>
<!-- covalence&#45;&gt;client -->
<g id="edge1" class="edge">
<title>covalence&#45;&gt;client</title>
<path fill="none" stroke="black" d="M103.08,-891.69C153.14,-886.51 236.45,-877.88 284.61,-872.89"/>
<polygon fill="black" stroke="black" points="284.68,-876.4 294.27,-871.89 283.96,-869.44 284.68,-876.4"/>
</g>
<!-- fuse -->
<g id="node11" class="node">
<title>fuse</title>
<polygon fill="none" stroke="black" points="606.38,-806 552.38,-806 552.38,-770 606.38,-770 606.38,-806"/>
<text text-anchor="middle" x="579.38" y="-783.7" font-family="sans-serif" font-size="14.00">fuse</text>
</g>
<!-- covalence&#45;&gt;fuse -->
<g id="edge2" class="edge">
<title>covalence&#45;&gt;fuse</title>
<path fill="none" stroke="black" d="M103.07,-884.71C146.37,-873.15 216.28,-855.08 277.25,-842 371.55,-821.77 483.58,-803.07 540.74,-793.91"/>
<polygon fill="black" stroke="black" points="541.26,-797.37 550.58,-792.34 540.16,-790.46 541.26,-797.37"/>
</g>
<!-- git -->
<g id="node12" class="node">
<title>git</title>
<polygon fill="none" stroke="black" points="477.5,-546 423.5,-546 423.5,-510 477.5,-510 477.5,-546"/>
<text text-anchor="middle" x="450.5" y="-523.7" font-family="sans-serif" font-size="14.00">git</text>
</g>
<!-- covalence&#45;&gt;git -->
<g id="edge3" class="edge">
<title>covalence&#45;&gt;git</title>
<path fill="none" stroke="black" d="M68.13,-877.6C89.08,-822.26 159.59,-656.33 277.25,-579 318.76,-551.72 375.29,-538.64 412.08,-532.66"/>
<polygon fill="black" stroke="black" points="412.43,-536.14 421.79,-531.18 411.38,-529.22 412.43,-536.14"/>
</g>
<!-- hash -->
<g id="node15" class="node">
<title>hash</title>
<polygon fill="none" stroke="black" points="887.38,-806 833.38,-806 833.38,-770 887.38,-770 887.38,-806"/>
<text text-anchor="middle" x="860.38" y="-783.7" font-family="sans-serif" font-size="14.00">hash</text>
</g>
<!-- covalence&#45;&gt;hash -->
<g id="edge4" class="edge">
<title>covalence&#45;&gt;hash</title>
<path fill="none" stroke="black" d="M102.86,-901.48C243.62,-919.79 698.54,-975.96 756,-945 806.25,-917.92 836.09,-854.56 849.95,-817.13"/>
<polygon fill="black" stroke="black" points="853.2,-818.44 853.24,-807.84 846.61,-816.1 853.2,-818.44"/>
</g>
<!-- hol -->
<g id="node17" class="node">
<title>hol</title>
<polygon fill="none" stroke="black" points="887.38,-1752 833.38,-1752 833.38,-1716 887.38,-1716 887.38,-1752"/>
<text text-anchor="middle" x="860.38" y="-1729.7" font-family="sans-serif" font-size="14.00">hol</text>
</g>
<!-- covalence&#45;&gt;hol -->
<g id="edge5" class="edge">
<title>covalence&#45;&gt;hol</title>
<path fill="none" stroke="black" d="M102.94,-907.7C110,-911.49 116.49,-916.47 121,-923 156.8,-974.86 145.36,-1427.07 157,-1489 201.71,-1726.89 80.07,-2008 322.12,-2008 322.12,-2008 322.12,-2008 451.5,-2008 627.08,-2008 783.98,-1830.89 838.74,-1761.46"/>
<polygon fill="black" stroke="black" points="841.48,-1763.64 844.85,-1753.6 835.95,-1759.34 841.48,-1763.64"/>
</g>
<!-- lsp -->
<g id="node27" class="node">
<title>lsp</title>
<polygon fill="none" stroke="black" points="887.38,-648 833.38,-648 833.38,-612 887.38,-612 887.38,-648"/>
<text text-anchor="middle" x="860.38" y="-625.7" font-family="sans-serif" font-size="14.00">lsp</text>
</g>
<!-- covalence&#45;&gt;lsp -->
<g id="edge6" class="edge">
<title>covalence&#45;&gt;lsp</title>
<path fill="none" stroke="black" d="M63.06,-877.6C68.08,-828.4 87.84,-691.74 157,-607 195.96,-559.26 220.53,-562.08 277.25,-538 368.01,-499.47 398.69,-485.07 496,-501 556.51,-510.91 570.66,-520.23 626.75,-545 643.49,-552.39 645.99,-557.65 662.75,-565 716.66,-588.64 782.04,-608.63 822.16,-619.97"/>
<polygon fill="black" stroke="black" points="821,-623.27 831.57,-622.59 822.88,-616.53 821,-623.27"/>
</g>
<!-- object -->
<g id="node30" class="node">
<title>object</title>
<polygon fill="none" stroke="black" points="738,-936 680.75,-936 680.75,-900 738,-900 738,-936"/>
<text text-anchor="middle" x="709.38" y="-913.7" font-family="sans-serif" font-size="14.00">object</text>
</g>
<!-- covalence&#45;&gt;object -->
<g id="edge7" class="edge">
<title>covalence&#45;&gt;object</title>
<path fill="none" stroke="black" d="M102.88,-909.36C109.6,-912.96 115.98,-917.44 121,-923 154.63,-960.23 116.25,-1000.72 157,-1030 327.25,-1152.35 436.56,-1075.2 626.75,-987 648.62,-976.86 669.32,-959.23 684.4,-944.34"/>
<polygon fill="black" stroke="black" points="686.61,-947.08 691.11,-937.49 681.61,-942.18 686.61,-947.08"/>
</g>
<!-- opentheory -->
<g id="node31" class="node">
<title>opentheory</title>
<polygon fill="none" stroke="black" points="496,-1722 405,-1722 405,-1686 496,-1686 496,-1722"/>
<text text-anchor="middle" x="450.5" y="-1699.7" font-family="sans-serif" font-size="14.00">opentheory</text>
</g>
<!-- covalence&#45;&gt;opentheory -->
<g id="edge8" class="edge">
<title>covalence&#45;&gt;opentheory</title>
<path fill="none" stroke="black" d="M102.86,-907.76C109.92,-911.54 116.44,-916.5 121,-923 178.66,-1005.09 130.35,-1276.28 157,-1373 189.11,-1489.56 192.18,-1531.09 277.25,-1617 309.75,-1649.83 357.22,-1672.53 394.09,-1686.49"/>
<polygon fill="black" stroke="black" points="392.66,-1689.7 403.26,-1689.85 395.07,-1683.12 392.66,-1689.7"/>
</g>
<!-- proto -->
<g id="node35" class="node">
<title>proto</title>
<polygon fill="none" stroke="black" points="350.12,-979 296.12,-979 296.12,-943 350.12,-943 350.12,-979"/>
<text text-anchor="middle" x="323.12" y="-956.7" font-family="sans-serif" font-size="14.00">proto</text>
</g>
<!-- covalence&#45;&gt;proto -->
<g id="edge9" class="edge">
<title>covalence&#45;&gt;proto</title>
<path fill="none" stroke="black" d="M102.94,-911.75C119.58,-917.7 139.04,-924.18 157,-929 200.27,-940.61 250.98,-949.79 284.67,-955.29"/>
<polygon fill="black" stroke="black" points="283.92,-958.72 294.35,-956.84 285.02,-951.81 283.92,-958.72"/>
</g>
<!-- repl -->
<g id="node41" class="node">
<title>repl</title>
<polygon fill="none" stroke="black" points="350.12,-727 296.12,-727 296.12,-691 350.12,-691 350.12,-727"/>
<text text-anchor="middle" x="323.12" y="-704.7" font-family="sans-serif" font-size="14.00">repl</text>
</g>
<!-- covalence&#45;&gt;repl -->
<g id="edge10" class="edge">
<title>covalence&#45;&gt;repl</title>
<path fill="none" stroke="black" d="M70.3,-877.73C84.67,-849.76 115.73,-796.39 157,-766 195.56,-737.6 249.38,-722.55 284.96,-715.18"/>
<polygon fill="black" stroke="black" points="285.2,-718.7 294.34,-713.35 283.86,-711.83 285.2,-718.7"/>
</g>
<!-- serve -->
<g id="node43" class="node">
<title>serve</title>
<polygon fill="none" stroke="black" points="226.12,-1021 172.12,-1021 172.12,-985 226.12,-985 226.12,-1021"/>
<text text-anchor="middle" x="199.12" y="-998.7" font-family="sans-serif" font-size="14.00">serve</text>
</g>
<!-- covalence&#45;&gt;serve -->
<g id="edge11" class="edge">
<title>covalence&#45;&gt;serve</title>
<path fill="none" stroke="black" d="M103.01,-911.69C109.34,-914.95 115.56,-918.72 121,-923 141.41,-939.05 138.89,-950.4 157,-969 159.73,-971.81 162.68,-974.61 165.71,-977.34"/>
<polygon fill="black" stroke="black" points="163.3,-979.89 173.15,-983.78 167.88,-974.6 163.3,-979.89"/>
</g>
<!-- shell -->
<g id="node45" class="node">
<title>shell</title>
<polygon fill="none" stroke="black" points="477.5,-1316 423.5,-1316 423.5,-1280 477.5,-1280 477.5,-1316"/>
<text text-anchor="middle" x="450.5" y="-1293.7" font-family="sans-serif" font-size="14.00">shell</text>
</g>
<!-- covalence&#45;&gt;shell -->
<g id="edge12" class="edge">
<title>covalence&#45;&gt;shell</title>
<path fill="none" stroke="black" d="M102.83,-907.78C109.89,-911.56 116.42,-916.52 121,-923 174.94,-999.32 88.15,-1278.81 157,-1342 226.42,-1405.71 277.71,-1365.32 369,-1342 384.62,-1338.01 400.47,-1330.3 413.93,-1322.43"/>
<polygon fill="black" stroke="black" points="415.71,-1325.44 422.42,-1317.23 412.06,-1319.47 415.71,-1325.44"/>
</g>
<!-- store -->
<g id="node49" class="node">
<title>store</title>
<polygon fill="none" stroke="black" points="736.38,-372 682.38,-372 682.38,-336 736.38,-336 736.38,-372"/>
<text text-anchor="middle" x="709.38" y="-349.7" font-family="sans-serif" font-size="14.00">store</text>
</g>
<!-- covalence&#45;&gt;store -->
<g id="edge13" class="edge">
<title>covalence&#45;&gt;store</title>
<path fill="none" stroke="black" d="M61.03,-877.71C60.39,-817.32 65.83,-621.24 157,-500 182.9,-465.56 205.22,-475.64 241.25,-452 257.97,-441.03 259.5,-434.22 277.25,-425 382.92,-370.09 414.39,-360.68 532,-342 579.59,-334.44 635.15,-340.67 671,-346.61"/>
<polygon fill="black" stroke="black" points="669.97,-349.99 680.42,-348.26 671.17,-343.09 669.97,-349.99"/>
</g>
<!-- wasm -->
<g id="node52" class="node">
<title>wasm</title>
<polygon fill="none" stroke="black" points="1028.75,-177 974.5,-177 974.5,-141 1028.75,-141 1028.75,-177"/>
<text text-anchor="middle" x="1001.62" y="-154.7" font-family="sans-serif" font-size="14.00">wasm</text>
</g>
<!-- covalence&#45;&gt;wasm -->
<g id="edge14" class="edge">
<title>covalence&#45;&gt;wasm</title>
<path fill="none" stroke="black" d="M61.38,-877.58C61.77,-813.81 69.83,-598.31 157,-452 188.15,-399.71 517.51,-102 578.38,-102 578.38,-102 578.38,-102 710.38,-102 808.34,-102 833.78,-107.96 928.75,-132 940.28,-134.92 952.51,-139.09 963.55,-143.27"/>
<polygon fill="black" stroke="black" points="962.12,-146.47 972.71,-146.87 964.68,-139.96 962.12,-146.47"/>
</g>
<!-- acset -->
<g id="node2" class="node">
<title>acset</title>
<polygon fill="none" stroke="black" points="887.38,-594 833.38,-594 833.38,-558 887.38,-558 887.38,-594"/>
<text text-anchor="middle" x="860.38" y="-571.7" font-family="sans-serif" font-size="14.00">acset</text>
</g>
<!-- alethe -->
<g id="node3" class="node">
<title>alethe</title>
<polygon fill="none" stroke="black" points="607.62,-1493 551.12,-1493 551.12,-1457 607.62,-1457 607.62,-1493"/>
<text text-anchor="middle" x="579.38" y="-1470.7" font-family="sans-serif" font-size="14.00">alethe</text>
</g>
<!-- core -->
<g id="node6" class="node">
<title>core</title>
<polygon fill="#ffd6d6" stroke="black" points="1028.62,-1750 974.62,-1750 974.62,-1714 1028.62,-1714 1028.62,-1750"/>
<text text-anchor="middle" x="1001.62" y="-1727.7" font-family="sans-serif" font-size="14.00">core</text>
</g>
<!-- alethe&#45;&gt;core -->
<g id="edge15" class="edge">
<title>alethe&#45;&gt;core</title>
<path fill="none" stroke="black" d="M594.6,-1493.27C625.86,-1532.07 704.73,-1622.92 792,-1669 847.78,-1698.45 868.54,-1688.18 928.75,-1707 940.1,-1710.55 952.35,-1714.69 963.47,-1718.57"/>
<polygon fill="black" stroke="black" points="962.11,-1721.8 972.71,-1721.83 964.44,-1715.2 962.11,-1721.8"/>
</g>
<!-- hol&#45;eval -->
<g id="node19" class="node">
<title>hol&#45;eval</title>
<polygon fill="none" stroke="black" points="895.38,-1660 825.38,-1660 825.38,-1624 895.38,-1624 895.38,-1660"/>
<text text-anchor="middle" x="860.38" y="-1637.7" font-family="sans-serif" font-size="14.00">hol&#45;eval</text>
</g>
<!-- alethe&#45;&gt;hol&#45;eval -->
<g id="edge16" class="edge">
<title>alethe&#45;&gt;hol&#45;eval</title>
<path fill="none" stroke="black" d="M607.86,-1487.55C643.86,-1504.69 708.03,-1537.71 756,-1576 774.44,-1590.72 772.57,-1601.62 792,-1615 798.85,-1619.72 806.64,-1623.8 814.44,-1627.26"/>
<polygon fill="black" stroke="black" points="813.01,-1630.45 823.59,-1631.01 815.67,-1623.98 813.01,-1630.45"/>
</g>
<!-- init -->
<g id="node21" class="node">
<title>init</title>
<polygon fill="none" stroke="black" points="736.38,-1446 682.38,-1446 682.38,-1410 736.38,-1410 736.38,-1446"/>
<text text-anchor="middle" x="709.38" y="-1423.7" font-family="sans-serif" font-size="14.00">init</text>
</g>
<!-- alethe&#45;&gt;init -->
<g id="edge17" class="edge">
<title>alethe&#45;&gt;init</title>
<path fill="none" stroke="black" d="M607.83,-1464.92C626.43,-1458.09 651.21,-1448.99 671.52,-1441.53"/>
<polygon fill="black" stroke="black" points="672.67,-1444.84 680.85,-1438.11 670.26,-1438.27 672.67,-1444.84"/>
</g>
<!-- sexp -->
<g id="node44" class="node">
<title>sexp</title>
<polygon fill="none" stroke="black" points="1028.62,-1148 974.62,-1148 974.62,-1112 1028.62,-1112 1028.62,-1148"/>
<text text-anchor="middle" x="1001.62" y="-1125.7" font-family="sans-serif" font-size="14.00">sexp</text>
</g>
<!-- alethe&#45;&gt;sexp -->
<g id="edge18" class="edge">
<title>alethe&#45;&gt;sexp</title>
<path fill="none" stroke="black" d="M585.45,-1456.64C595.4,-1423.54 620.28,-1353.19 662.75,-1309 695.48,-1274.94 723.58,-1292.36 756,-1258 781.65,-1230.81 762.76,-1205.27 792,-1182 840.69,-1143.25 868.56,-1167.79 928.75,-1152 940.11,-1149.02 952.37,-1145.42 963.48,-1142"/>
<polygon fill="black" stroke="black" points="964.2,-1145.44 972.7,-1139.12 962.11,-1138.76 964.2,-1145.44"/>
</g>
<!-- smt -->
<g id="node46" class="node">
<title>smt</title>
<polygon fill="none" stroke="black" points="736.38,-1354 682.38,-1354 682.38,-1318 736.38,-1318 736.38,-1354"/>
<text text-anchor="middle" x="709.38" y="-1331.7" font-family="sans-serif" font-size="14.00">smt</text>
</g>
<!-- alethe&#45;&gt;smt -->
<g id="edge19" class="edge">
<title>alethe&#45;&gt;smt</title>
<path fill="none" stroke="black" d="M597.37,-1456.54C619.59,-1432.42 658.64,-1390.01 684,-1362.47"/>
<polygon fill="black" stroke="black" points="686.49,-1364.93 690.69,-1355.21 681.34,-1360.19 686.49,-1364.93"/>
</g>
<!-- types -->
<g id="node51" class="node">
<title>types</title>
<polygon fill="#ffd6d6" stroke="black" points="1469.5,-1608 1415.5,-1608 1415.5,-1572 1469.5,-1572 1469.5,-1608"/>
<text text-anchor="middle" x="1442.5" y="-1585.7" font-family="sans-serif" font-size="14.00">types</text>
</g>
<!-- alethe&#45;&gt;types -->
<g id="edge20" class="edge">
<title>alethe&#45;&gt;types</title>
<path fill="none" stroke="black" d="M607.86,-1478.21C674.9,-1485.76 852.16,-1504 1000.62,-1504 1000.62,-1504 1000.62,-1504 1218.25,-1504 1288.23,-1504 1362.8,-1541.25 1405.61,-1566.72"/>
<polygon fill="black" stroke="black" points="1403.61,-1569.61 1413.98,-1571.81 1407.25,-1563.63 1403.61,-1569.61"/>
</g>
<!-- arrow -->
<g id="node4" class="node">
<title>arrow</title>
<polygon fill="none" stroke="black" points="606.38,-714 552.38,-714 552.38,-678 606.38,-678 606.38,-714"/>
<text text-anchor="middle" x="579.38" y="-691.7" font-family="sans-serif" font-size="14.00">arrow</text>
</g>
<!-- client&#45;&gt;hash -->
<g id="edge21" class="edge">
<title>client&#45;&gt;hash</title>
<path fill="none" stroke="black" d="M350.3,-865.04C437.62,-851.82 719.15,-809.22 821.62,-793.71"/>
<polygon fill="black" stroke="black" points="822.07,-797.19 831.43,-792.23 821.02,-790.26 822.07,-797.19"/>
</g>
<!-- client&#45;&gt;shell -->
<g id="edge22" class="edge">
<title>client&#45;&gt;shell</title>
<path fill="none" stroke="black" d="M339.88,-887.41C349.69,-899.81 361.78,-916.95 369,-934 400.83,-1009.12 387.41,-1034.34 405,-1114 417.12,-1168.88 432.9,-1232.54 442.05,-1268.76"/>
<polygon fill="black" stroke="black" points="438.55,-1269.21 444.4,-1278.05 445.34,-1267.49 438.55,-1269.21"/>
</g>
<!-- client&#45;&gt;store -->
<g id="edge23" class="edge">
<title>client&#45;&gt;store</title>
<path fill="none" stroke="black" d="M350.62,-854.17C389.73,-832.52 465.47,-791.54 532,-761 573.24,-742.07 598.86,-758.79 626.75,-723 700.08,-628.9 630.27,-571.79 662.75,-457 670.15,-430.84 682.97,-402.72 693.14,-382.48"/>
<polygon fill="black" stroke="black" points="696.17,-384.23 697.63,-373.73 689.95,-381.03 696.17,-384.23"/>
</g>
<!-- pure -->
<g id="node36" class="node">
<title>pure</title>
<polygon fill="#ffd6d6" stroke="black" points="1244.25,-1782 1190.25,-1782 1190.25,-1746 1244.25,-1746 1244.25,-1782"/>
<text text-anchor="middle" x="1217.25" y="-1759.7" font-family="sans-serif" font-size="14.00">pure</text>
</g>
<!-- core&#45;&gt;pure -->
<g id="edge24" class="edge">
<title>core&#45;&gt;pure</title>
<path fill="none" stroke="black" d="M1028.82,-1735.92C1066.38,-1741.55 1135.73,-1751.94 1178.72,-1758.38"/>
<polygon fill="black" stroke="black" points="1177.94,-1761.8 1188.34,-1759.82 1178.97,-1754.88 1177.94,-1761.8"/>
</g>
<!-- pure&#45;eval -->
<g id="node37" class="node">
<title>pure&#45;eval</title>
<polygon fill="#ffd6d6" stroke="black" points="1154.25,-1654 1074.5,-1654 1074.5,-1618 1154.25,-1618 1154.25,-1654"/>
<text text-anchor="middle" x="1114.38" y="-1631.7" font-family="sans-serif" font-size="14.00">pure&#45;eval</text>
</g>
<!-- core&#45;&gt;pure&#45;eval -->
<g id="edge25" class="edge">
<title>core&#45;&gt;pure&#45;eval</title>
<path fill="none" stroke="black" d="M1023.72,-1713.72C1040.73,-1698.97 1064.86,-1678.05 1083.8,-1661.64"/>
<polygon fill="black" stroke="black" points="1085.95,-1664.4 1091.22,-1655.21 1081.37,-1659.11 1085.95,-1664.4"/>
</g>
<!-- core&#45;&gt;types -->
<g id="edge26" class="edge">
<title>core&#45;&gt;types</title>
<path fill="none" stroke="black" d="M1028.93,-1726.79C1091.36,-1713.94 1252.7,-1677.9 1379.5,-1625 1388.1,-1621.41 1397,-1616.91 1405.3,-1612.33"/>
<polygon fill="black" stroke="black" points="1406.77,-1615.52 1413.73,-1607.52 1403.31,-1609.43 1406.77,-1615.52"/>
</g>
<!-- core&#45;test&#45;guest -->
<g id="node7" class="node">
<title>core&#45;test&#45;guest</title>
<polygon fill="none" stroke="black" points="121,-968 0,-968 0,-932 121,-932 121,-968"/>
<text text-anchor="middle" x="60.5" y="-945.7" font-family="sans-serif" font-size="14.00">core&#45;test&#45;guest</text>
</g>
<!-- crypto&#45;sig -->
<g id="node8" class="node">
<title>crypto&#45;sig</title>
<polygon fill="none" stroke="black" points="241.25,-334 157,-334 157,-298 241.25,-298 241.25,-334"/>
<text text-anchor="middle" x="199.12" y="-311.7" font-family="sans-serif" font-size="14.00">crypto&#45;sig</text>
</g>
<!-- egglog -->
<g id="node9" class="node">
<title>egglog</title>
<polygon fill="none" stroke="black" points="890.88,-1308 829.88,-1308 829.88,-1272 890.88,-1272 890.88,-1308"/>
<text text-anchor="middle" x="860.38" y="-1285.7" font-family="sans-serif" font-size="14.00">egglog</text>
</g>
<!-- egglog&#45;&gt;sexp -->
<g id="edge27" class="edge">
<title>egglog&#45;&gt;sexp</title>
<path fill="none" stroke="black" d="M891.29,-1280.41C903.93,-1275.26 918.15,-1267.9 928.75,-1258 958.51,-1230.2 979.12,-1187.24 990.41,-1158.87"/>
<polygon fill="black" stroke="black" points="993.57,-1160.42 993.87,-1149.83 987.03,-1157.92 993.57,-1160.42"/>
</g>
<!-- egglog&#45;&gt;types -->
<g id="edge28" class="edge">
<title>egglog&#45;&gt;types</title>
<path fill="none" stroke="black" d="M891.24,-1290.78C938.42,-1291.94 1033.08,-1294 1113.38,-1294 1113.38,-1294 1113.38,-1294 1218.25,-1294 1290.99,-1294 1326.66,-1272.01 1379.5,-1322 1413.89,-1354.54 1432.2,-1497.45 1438.71,-1560.23"/>
<polygon fill="black" stroke="black" points="1435.23,-1560.56 1439.71,-1570.16 1442.19,-1559.86 1435.23,-1560.56"/>
</g>
<!-- forsp -->
<g id="node10" class="node">
<title>forsp</title>
<polygon fill="none" stroke="black" points="736.38,-1110 682.38,-1110 682.38,-1074 736.38,-1074 736.38,-1110"/>
<text text-anchor="middle" x="709.38" y="-1087.7" font-family="sans-serif" font-size="14.00">forsp</text>
</g>
<!-- forsp&#45;&gt;hash -->
<g id="edge29" class="edge">
<title>forsp&#45;&gt;hash</title>
<path fill="none" stroke="black" d="M736.78,-1077.43C743.75,-1072.6 750.77,-1066.72 756,-1060 771.62,-1039.92 826.65,-883.08 849.41,-817.09"/>
<polygon fill="black" stroke="black" points="852.71,-818.27 852.65,-807.67 846.09,-815.99 852.71,-818.27"/>
</g>
<!-- forsp&#45;&gt;sexp -->
<g id="edge30" class="edge">
<title>forsp&#45;&gt;sexp</title>
<path fill="none" stroke="black" d="M736.77,-1075.09C743.29,-1070.48 750.09,-1065.3 756,-1060 774.06,-1043.81 769.91,-1029 792,-1019 847.37,-993.93 875.36,-989.96 928.75,-1019 960.52,-1036.27 980.4,-1074.31 991,-1101.02"/>
<polygon fill="black" stroke="black" points="987.67,-1102.12 994.45,-1110.26 994.23,-1099.67 987.67,-1102.12"/>
</g>
<!-- fuse&#45;&gt;hash -->
<g id="edge31" class="edge">
<title>fuse&#45;&gt;hash</title>
<path fill="none" stroke="black" d="M606.87,-788C656.65,-788 764.28,-788 821.62,-788"/>
<polygon fill="black" stroke="black" points="821.54,-791.5 831.54,-788 821.54,-784.5 821.54,-791.5"/>
</g>
<!-- fuse&#45;&gt;object -->
<g id="edge32" class="edge">
<title>fuse&#45;&gt;object</title>
<path fill="none" stroke="black" d="M606.83,-804.42C613.6,-809.11 620.68,-814.46 626.75,-820 650.32,-841.53 673.23,-869.89 688.75,-890.56"/>
<polygon fill="black" stroke="black" points="685.88,-892.57 694.64,-898.53 691.51,-888.41 685.88,-892.57"/>
</g>
<!-- fuse&#45;&gt;store -->
<g id="edge33" class="edge">
<title>fuse&#45;&gt;store</title>
<path fill="none" stroke="black" d="M606.87,-775.23C614.48,-770.28 622,-763.87 626.75,-756 695.95,-641.43 627.25,-586.06 662.75,-457 669.96,-430.79 682.79,-402.67 693.02,-382.45"/>
<polygon fill="black" stroke="black" points="696.05,-384.2 697.53,-373.71 689.83,-380.98 696.05,-384.2"/>
</g>
<!-- git&#45;&gt;hash -->
<g id="edge34" class="edge">
<title>git&#45;&gt;hash</title>
<path fill="none" stroke="black" d="M477.8,-533.54C513.89,-542.07 579.62,-560.98 626.75,-594 646.88,-608.11 642.81,-621.62 662.75,-636 699.05,-662.17 719.33,-648.34 756,-674 790.36,-698.04 821.44,-735.45 840.35,-760.81"/>
<polygon fill="black" stroke="black" points="837.37,-762.65 846.09,-768.66 843.02,-758.52 837.37,-762.65"/>
</g>
<!-- git&#45;&gt;object -->
<g id="edge35" class="edge">
<title>git&#45;&gt;object</title>
<path fill="none" stroke="black" d="M477.73,-538.76C484.71,-542.85 491.53,-548.2 496,-555 560.08,-652.48 467.1,-718.06 532,-815 564.52,-863.59 628.32,-892.31 669.61,-906.61"/>
<polygon fill="black" stroke="black" points="668.33,-909.87 678.92,-909.7 670.54,-903.23 668.33,-909.87"/>
</g>
<!-- sqlite -->
<g id="node48" class="node">
<title>sqlite</title>
<polygon fill="none" stroke="black" points="887.38,-326 833.38,-326 833.38,-290 887.38,-290 887.38,-326"/>
<text text-anchor="middle" x="860.38" y="-303.7" font-family="sans-serif" font-size="14.00">sqlite</text>
</g>
<!-- git&#45;&gt;sqlite -->
<g id="edge36" class="edge">
<title>git&#45;&gt;sqlite</title>
<path fill="none" stroke="black" d="M477.74,-514.81C517.58,-494.86 595.77,-455.92 662.75,-424 703.95,-404.36 720.78,-410.03 756,-381 777.13,-363.58 770,-347.31 792,-331 800.82,-324.46 811.64,-319.69 822,-316.25"/>
<polygon fill="black" stroke="black" points="822.9,-319.63 831.5,-313.44 820.92,-312.92 822.9,-319.63"/>
</g>
<!-- git&#45;&gt;store -->
<g id="edge37" class="edge">
<title>git&#45;&gt;store</title>
<path fill="none" stroke="black" d="M477.6,-512.91C484.25,-508.15 490.93,-502.43 496,-496 522.17,-462.82 500.79,-436.49 532,-408 570.48,-372.88 631.27,-360.59 670.48,-356.3"/>
<polygon fill="black" stroke="black" points="670.78,-359.78 680.41,-355.35 670.12,-352.81 670.78,-359.78"/>
</g>
<!-- grammar -->
<g id="node13" class="node">
<title>grammar</title>
<polygon fill="none" stroke="black" points="1038.5,-1419 964.75,-1419 964.75,-1383 1038.5,-1383 1038.5,-1419"/>
<text text-anchor="middle" x="1001.62" y="-1396.7" font-family="sans-serif" font-size="14.00">grammar</text>
</g>
<!-- graph -->
<g id="node14" class="node">
<title>graph</title>
<polygon fill="none" stroke="black" points="477.5,-600 423.5,-600 423.5,-564 477.5,-564 477.5,-600"/>
<text text-anchor="middle" x="450.5" y="-577.7" font-family="sans-serif" font-size="14.00">graph</text>
</g>
<!-- graph&#45;&gt;hash -->
<g id="edge38" class="edge">
<title>graph&#45;&gt;hash</title>
<path fill="none" stroke="black" d="M477.89,-585.81C513.8,-591.92 579.01,-606.36 626.75,-636 646.51,-648.27 644.14,-660.03 662.75,-674 700.03,-701.98 715.59,-698.77 756,-722 778.9,-735.16 803.88,-751.07 823.54,-763.96"/>
<polygon fill="black" stroke="black" points="821.48,-766.8 831.76,-769.38 825.34,-760.95 821.48,-766.8"/>
</g>
<!-- parse -->
<g id="node33" class="node">
<title>parse</title>
<polygon fill="none" stroke="black" points="1141.38,-721 1087.38,-721 1087.38,-685 1141.38,-685 1141.38,-721"/>
<text text-anchor="middle" x="1114.38" y="-698.7" font-family="sans-serif" font-size="14.00">parse</text>
</g>
<!-- graph&#45;&gt;parse -->
<g id="edge39" class="edge">
<title>graph&#45;&gt;parse</title>
<path fill="none" stroke="black" d="M477.71,-566.78C512.05,-546.81 574.08,-510.57 626.75,-479 642.83,-469.36 644.7,-462.08 662.75,-457 702.65,-445.77 715.22,-449.6 756,-457 887.95,-480.94 937.62,-474.64 1038.5,-563 1072.85,-593.08 1094.1,-642.86 1104.81,-674.24"/>
<polygon fill="black" stroke="black" points="1101.39,-675.04 1107.82,-683.46 1108.05,-672.87 1101.39,-675.04"/>
</g>
<!-- rand -->
<g id="node40" class="node">
<title>rand</title>
<polygon fill="none" stroke="black" points="1028.62,-806 974.62,-806 974.62,-770 1028.62,-770 1028.62,-806"/>
<text text-anchor="middle" x="1001.62" y="-783.7" font-family="sans-serif" font-size="14.00">rand</text>
</g>
<!-- hash&#45;&gt;rand -->
<g id="edge40" class="edge">
<title>hash&#45;&gt;rand</title>
<path fill="none" stroke="black" d="M887.57,-788C908.86,-788 939.19,-788 963.07,-788"/>
<polygon fill="black" stroke="black" points="963.04,-791.5 973.04,-788 963.04,-784.5 963.04,-791.5"/>
</g>
<!-- haskell -->
<g id="node16" class="node">
<title>haskell</title>
<polygon fill="none" stroke="black" points="481.75,-1608 419.25,-1608 419.25,-1572 481.75,-1572 481.75,-1608"/>
<text text-anchor="middle" x="450.5" y="-1585.7" font-family="sans-serif" font-size="14.00">haskell</text>
</g>
<!-- hol&#45;api -->
<g id="node18" class="node">
<title>hol&#45;api</title>
<polygon fill="none" stroke="black" points="610.62,-1654 548.12,-1654 548.12,-1618 610.62,-1618 610.62,-1654"/>
<text text-anchor="middle" x="579.38" y="-1631.7" font-family="sans-serif" font-size="14.00">hol&#45;api</text>
</g>
<!-- haskell&#45;&gt;hol&#45;api -->
<g id="edge41" class="edge">
<title>haskell&#45;&gt;hol&#45;api</title>
<path fill="none" stroke="black" d="M482.21,-1601.14C498.73,-1607.12 519.33,-1614.59 537.22,-1621.08"/>
<polygon fill="black" stroke="black" points="535.93,-1624.33 546.52,-1624.45 538.31,-1617.75 535.93,-1624.33"/>
</g>
<!-- haskell&#45;&gt;hol&#45;eval -->
<g id="edge42" class="edge">
<title>haskell&#45;&gt;hol&#45;eval</title>
<path fill="none" stroke="black" d="M482.24,-1593.02C517.26,-1596.54 576.19,-1602.67 626.75,-1609 691.86,-1617.15 767,-1628.08 813.85,-1635.09"/>
<polygon fill="black" stroke="black" points="813.23,-1638.54 823.63,-1636.56 814.26,-1631.61 813.23,-1638.54"/>
</g>
<!-- haskell&#45;&gt;init -->
<g id="edge43" class="edge">
<title>haskell&#45;&gt;init</title>
<path fill="none" stroke="black" d="M455.97,-1571.98C464.73,-1540.86 487.32,-1477.53 532,-1448 573.47,-1420.59 632.71,-1419.78 670.86,-1422.94"/>
<polygon fill="black" stroke="black" points="670.18,-1426.39 680.47,-1423.87 670.86,-1419.42 670.18,-1426.39"/>
</g>
<!-- haskell&#45;&gt;types -->
<g id="edge44" class="edge">
<title>haskell&#45;&gt;types</title>
<path fill="none" stroke="black" d="M462.38,-1608.33C491.01,-1655.58 572.48,-1783.93 662.75,-1871 739.41,-1944.94 752.87,-2008 859.38,-2008 859.38,-2008 859.38,-2008 1218.25,-2008 1394.6,-2008 1432.15,-1714.94 1439.7,-1619.59"/>
<polygon fill="black" stroke="black" points="1443.18,-1619.97 1440.42,-1609.74 1436.2,-1619.46 1443.18,-1619.97"/>
</g>
<!-- hol&#45;&gt;core -->
<g id="edge45" class="edge">
<title>hol&#45;&gt;core</title>
<path fill="none" stroke="black" d="M887.57,-1733.62C908.86,-1733.32 939.19,-1732.88 963.07,-1732.54"/>
<polygon fill="black" stroke="black" points="963.09,-1736.04 973.04,-1732.4 962.99,-1729.04 963.09,-1736.04"/>
</g>
<!-- hol&#45;api&#45;&gt;core -->
<g id="edge46" class="edge">
<title>hol&#45;api&#45;&gt;core</title>
<path fill="none" stroke="black" d="M586.77,-1654.26C597.56,-1681.94 622.26,-1733.67 662.75,-1756 766.29,-1813.1 812.67,-1783.53 928.75,-1761 940.54,-1758.71 952.84,-1754.49 963.87,-1749.97"/>
<polygon fill="black" stroke="black" points="965.24,-1753.19 973.02,-1746.01 962.45,-1746.77 965.24,-1753.19"/>
</g>
<!-- hol&#45;api&#45;&gt;hol&#45;eval -->
<g id="edge47" class="edge">
<title>hol&#45;api&#45;&gt;hol&#45;eval</title>
<path fill="none" stroke="black" d="M611.03,-1636.66C660.16,-1637.72 756.81,-1639.79 813.97,-1641.02"/>
<polygon fill="black" stroke="black" points="813.61,-1644.52 823.68,-1641.23 813.76,-1637.52 813.61,-1644.52"/>
</g>
<!-- inductive -->
<g id="node20" class="node">
<title>inductive</title>
<polygon fill="none" stroke="black" points="898.75,-1606 822,-1606 822,-1570 898.75,-1570 898.75,-1606"/>
<text text-anchor="middle" x="860.38" y="-1583.7" font-family="sans-serif" font-size="14.00">inductive</text>
</g>
<!-- hol&#45;api&#45;&gt;inductive -->
<g id="edge48" class="edge">
<title>hol&#45;api&#45;&gt;inductive</title>
<path fill="none" stroke="black" d="M611.03,-1630.73C659.2,-1622.44 753.05,-1606.29 810.58,-1596.4"/>
<polygon fill="black" stroke="black" points="810.82,-1599.9 820.08,-1594.76 809.63,-1593.01 810.82,-1599.9"/>
</g>
<!-- hol&#45;api&#45;&gt;init -->
<g id="edge49" class="edge">
<title>hol&#45;api&#45;&gt;init</title>
<path fill="none" stroke="black" d="M591.73,-1617.54C614.22,-1581 664.53,-1499.25 691.13,-1456.03"/>
<polygon fill="black" stroke="black" points="693.99,-1458.06 696.25,-1447.71 688.03,-1454.39 693.99,-1458.06"/>
</g>
<!-- hol&#45;api&#45;&gt;pure -->
<g id="edge50" class="edge">
<title>hol&#45;api&#45;&gt;pure</title>
<path fill="none" stroke="black" d="M585.72,-1654.46C595.73,-1685.87 620.22,-1749.79 662.75,-1786 733.38,-1846.13 766.61,-1856 859.38,-1856 859.38,-1856 859.38,-1856 1002.62,-1856 1070.71,-1856 1141.77,-1816.1 1182.36,-1788.85"/>
<polygon fill="black" stroke="black" points="1184.25,-1791.8 1190.51,-1783.25 1180.28,-1786.03 1184.25,-1791.8"/>
</g>
<!-- hol&#45;api&#45;&gt;types -->
<g id="edge51" class="edge">
<title>hol&#45;api&#45;&gt;types</title>
<path fill="none" stroke="black" d="M583.06,-1654.29C589.61,-1692.32 609.91,-1780.43 662.75,-1829 730.51,-1891.29 767.33,-1894 859.38,-1894 859.38,-1894 859.38,-1894 1218.25,-1894 1303.29,-1894 1327.98,-1858.66 1379.5,-1791 1419.07,-1739.04 1433.61,-1661.58 1438.78,-1619.61"/>
<polygon fill="black" stroke="black" points="1442.25,-1620.11 1439.89,-1609.78 1435.29,-1619.33 1442.25,-1620.11"/>
</g>
<!-- hol&#45;eval&#45;&gt;core -->
<g id="edge52" class="edge">
<title>hol&#45;eval&#45;&gt;core</title>
<path fill="none" stroke="black" d="M895.79,-1656.44C906.62,-1661.49 918.44,-1667.52 928.75,-1674 943.72,-1683.41 959.12,-1695.47 971.81,-1706.15"/>
<polygon fill="black" stroke="black" points="969.51,-1708.79 979.38,-1712.65 974.07,-1703.48 969.51,-1708.79"/>
</g>
<!-- hol&#45;eval&#45;&gt;pure -->
<g id="edge53" class="edge">
<title>hol&#45;eval&#45;&gt;pure</title>
<path fill="none" stroke="black" d="M895.44,-1652.51C950.3,-1669.61 1061.47,-1704.97 1154.25,-1739 1162.43,-1742 1171.15,-1745.39 1179.38,-1748.69"/>
<polygon fill="black" stroke="black" points="1177.86,-1751.85 1188.44,-1752.35 1180.48,-1745.36 1177.86,-1751.85"/>
</g>
<!-- hol&#45;eval&#45;&gt;pure&#45;eval -->
<g id="edge54" class="edge">
<title>hol&#45;eval&#45;&gt;pure&#45;eval</title>
<path fill="none" stroke="black" d="M895.62,-1641.18C938.73,-1640.16 1013.13,-1638.39 1062.79,-1637.2"/>
<polygon fill="black" stroke="black" points="1062.81,-1640.71 1072.72,-1636.97 1062.64,-1633.71 1062.81,-1640.71"/>
</g>
<!-- hol&#45;eval&#45;&gt;sexp -->
<g id="edge55" class="edge">
<title>hol&#45;eval&#45;&gt;sexp</title>
<path fill="none" stroke="black" d="M895.84,-1635.63C907.99,-1631.67 920.63,-1625.29 928.75,-1615 929.2,-1614.43 980.72,-1265.08 996.24,-1159.73"/>
<polygon fill="black" stroke="black" points="999.7,-1160.3 997.69,-1149.89 992.77,-1159.28 999.7,-1160.3"/>
</g>
<!-- hol&#45;eval&#45;&gt;types -->
<g id="edge56" class="edge">
<title>hol&#45;eval&#45;&gt;types</title>
<path fill="none" stroke="black" d="M895.56,-1630.33C943.6,-1615 1034.08,-1590 1113.38,-1590 1113.38,-1590 1113.38,-1590 1218.25,-1590 1283.4,-1590 1359.24,-1590 1403.65,-1590"/>
<polygon fill="black" stroke="black" points="1403.52,-1593.5 1413.52,-1590 1403.52,-1586.5 1403.52,-1593.5"/>
</g>
<!-- init&#45;&gt;core -->
<g id="edge57" class="edge">
<title>init&#45;&gt;core</title>
<path fill="none" stroke="black" d="M736.71,-1445.08C752.63,-1455.33 773.39,-1468.56 792,-1480 852.19,-1516.98 882.33,-1507.75 928.75,-1561 965.32,-1602.95 985.27,-1666.18 994.37,-1702.85"/>
<polygon fill="black" stroke="black" points="990.9,-1703.36 996.6,-1712.28 997.71,-1701.75 990.9,-1703.36"/>
</g>
<!-- init&#45;&gt;grammar -->
<g id="edge58" class="edge">
<title>init&#45;&gt;grammar</title>
<path fill="none" stroke="black" d="M736.61,-1425.92C777.64,-1422.63 859.45,-1415.87 928.75,-1409 936.65,-1408.22 945.03,-1407.33 953.17,-1406.45"/>
<polygon fill="black" stroke="black" points="953.39,-1409.94 962.94,-1405.37 952.62,-1402.99 953.39,-1409.94"/>
</g>
<!-- init&#45;&gt;hash -->
<g id="edge59" class="edge">
<title>init&#45;&gt;hash</title>
<path fill="none" stroke="black" d="M727.17,-1409.57C737.33,-1397.3 749.52,-1380.3 756,-1363 809.89,-1219.03 762.36,-1169.84 792,-1019 806.54,-945.03 834.06,-860.56 849.03,-817.15"/>
<polygon fill="black" stroke="black" points="852.34,-818.31 852.32,-807.72 845.73,-816.01 852.34,-818.31"/>
</g>
<!-- init&#45;&gt;hol -->
<g id="edge60" class="edge">
<title>init&#45;&gt;hol</title>
<path fill="none" stroke="black" d="M713.48,-1446.21C721.25,-1488.21 744.46,-1594.01 792,-1669 801.17,-1683.47 814.22,-1697.05 826.39,-1708.01"/>
<polygon fill="black" stroke="black" points="824.03,-1710.6 833.88,-1714.51 828.62,-1705.32 824.03,-1710.6"/>
</g>
<!-- init&#45;&gt;hol&#45;eval -->
<g id="edge61" class="edge">
<title>init&#45;&gt;hol&#45;eval</title>
<path fill="none" stroke="black" d="M723.99,-1446.48C733.91,-1460.58 747.1,-1480.8 756,-1500 778.53,-1548.59 755.63,-1575.69 792,-1615 798.14,-1621.63 806.12,-1626.67 814.44,-1630.48"/>
<polygon fill="black" stroke="black" points="813.05,-1633.7 823.63,-1634.13 815.63,-1627.19 813.05,-1633.7"/>
</g>
<!-- init&#45;&gt;inductive -->
<g id="edge62" class="edge">
<title>init&#45;&gt;inductive</title>
<path fill="none" stroke="black" d="M722.04,-1446.43C744.31,-1481.6 790.8,-1554.94 792,-1556 797.8,-1561.12 804.57,-1565.6 811.54,-1569.45"/>
<polygon fill="black" stroke="black" points="809.95,-1572.57 820.45,-1573.97 813.11,-1566.32 809.95,-1572.57"/>
</g>
<!-- metamath -->
<g id="node28" class="node">
<title>metamath</title>
<polygon fill="none" stroke="black" points="900.62,-1064 820.12,-1064 820.12,-1028 900.62,-1028 900.62,-1064"/>
<text text-anchor="middle" x="860.38" y="-1041.7" font-family="sans-serif" font-size="14.00">metamath</text>
</g>
<!-- init&#45;&gt;metamath -->
<g id="edge63" class="edge">
<title>init&#45;&gt;metamath</title>
<path fill="none" stroke="black" d="M725.81,-1409.74C735.66,-1397.26 748.04,-1379.98 756,-1363 781.98,-1307.55 773.45,-1288.36 792,-1230 809.62,-1174.56 833.76,-1111.09 847.85,-1075.05"/>
<polygon fill="black" stroke="black" points="851.1,-1076.36 851.5,-1065.77 844.58,-1073.8 851.1,-1076.36"/>
</g>
<!-- init&#45;&gt;sexp -->
<g id="edge64" class="edge">
<title>init&#45;&gt;sexp</title>
<path fill="none" stroke="black" d="M725.36,-1409.51C735.02,-1396.95 747.36,-1379.64 756,-1363 777.76,-1321.07 757.92,-1295.71 792,-1263 837.96,-1218.88 876.19,-1256.02 928.75,-1220 952.21,-1203.93 971.78,-1177.94 984.55,-1158.01"/>
<polygon fill="black" stroke="black" points="987.52,-1159.86 989.8,-1149.51 981.57,-1156.18 987.52,-1159.86"/>
</g>
<!-- spectec -->
<g id="node47" class="node">
<title>spectec</title>
<polygon fill="none" stroke="black" points="895,-1400 825.75,-1400 825.75,-1364 895,-1364 895,-1400"/>
<text text-anchor="middle" x="860.38" y="-1377.7" font-family="sans-serif" font-size="14.00">spectec</text>
</g>
<!-- init&#45;&gt;spectec -->
<g id="edge65" class="edge">
<title>init&#45;&gt;spectec</title>
<path fill="none" stroke="black" d="M736.67,-1419.88C758.21,-1413.23 789.18,-1403.67 814.61,-1395.82"/>
<polygon fill="black" stroke="black" points="815.52,-1399.2 824.04,-1392.91 813.46,-1392.51 815.52,-1399.2"/>
</g>
<!-- init&#45;&gt;types -->
<g id="edge66" class="edge">
<title>init&#45;&gt;types</title>
<path fill="none" stroke="black" d="M736.64,-1433.77C787.38,-1444.4 902.54,-1466 1000.62,-1466 1000.62,-1466 1000.62,-1466 1218.25,-1466 1290.71,-1466 1318.96,-1450.18 1379.5,-1490 1405.02,-1506.78 1421.88,-1538.08 1431.49,-1561.21"/>
<polygon fill="black" stroke="black" points="1428.18,-1562.35 1435.08,-1570.39 1434.7,-1559.81 1428.18,-1562.35"/>
</g>
<!-- json -->
<g id="node22" class="node">
<title>json</title>
<polygon fill="none" stroke="black" points="887.38,-272 833.38,-272 833.38,-236 887.38,-236 887.38,-272"/>
<text text-anchor="middle" x="860.38" y="-249.7" font-family="sans-serif" font-size="14.00">json</text>
</g>
<!-- kernel -->
<g id="node23" class="node">
<title>kernel</title>
<polygon fill="none" stroke="black" points="608,-1278 550.75,-1278 550.75,-1242 608,-1242 608,-1278"/>
<text text-anchor="middle" x="579.38" y="-1255.7" font-family="sans-serif" font-size="14.00">kernel</text>
</g>
<!-- kernel&#45;&gt;hash -->
<g id="edge67" class="edge">
<title>kernel&#45;&gt;hash</title>
<path fill="none" stroke="black" d="M608.43,-1244.72C647.2,-1222.21 716.79,-1176.5 756,-1119 764.81,-1106.08 827.45,-895.98 850.71,-817.37"/>
<polygon fill="black" stroke="black" points="854.06,-818.39 853.54,-807.8 847.35,-816.4 854.06,-818.39"/>
</g>
<!-- kernel&#45;&gt;init -->
<g id="edge68" class="edge">
<title>kernel&#45;&gt;init</title>
<path fill="none" stroke="black" d="M608.21,-1275.88C614.82,-1280.51 621.47,-1285.96 626.75,-1292 650.03,-1318.64 644.54,-1332.67 662.75,-1363 670.4,-1375.74 679.7,-1389.28 687.9,-1400.69"/>
<polygon fill="black" stroke="black" points="684.86,-1402.46 693.58,-1408.48 690.52,-1398.33 684.86,-1402.46"/>
</g>
<!-- kernel&#45;&gt;object -->
<g id="edge69" class="edge">
<title>kernel&#45;&gt;object</title>
<path fill="none" stroke="black" d="M587.26,-1241.61C608.31,-1185.36 671.97,-1015.28 697.55,-946.91"/>
<polygon fill="black" stroke="black" points="700.7,-948.49 700.93,-937.9 694.15,-946.03 700.7,-948.49"/>
</g>
<!-- kernel&#45;&gt;sexp -->
<g id="edge70" class="edge">
<title>kernel&#45;&gt;sexp</title>
<path fill="none" stroke="black" d="M608.38,-1262.24C645.83,-1263.73 712.55,-1260.97 756,-1228 785.14,-1205.89 762.15,-1175.14 792,-1154 842.66,-1118.12 918.23,-1119.35 963.16,-1124.2"/>
<polygon fill="black" stroke="black" points="962.58,-1127.66 972.93,-1125.38 963.42,-1120.71 962.58,-1127.66"/>
</g>
<!-- kernel&#45;&gt;store -->
<g id="edge71" class="edge">
<title>kernel&#45;&gt;store</title>
<path fill="none" stroke="black" d="M582.3,-1241.78C588.69,-1181.16 609.78,-980.75 626.75,-815 643.04,-655.92 621.86,-611.6 662.75,-457 669.7,-430.72 682.56,-402.6 692.86,-382.4"/>
<polygon fill="black" stroke="black" points="695.89,-384.16 697.41,-373.67 689.68,-380.92 695.89,-384.16"/>
</g>
<!-- kv -->
<g id="node24" class="node">
<title>kv</title>
<polygon fill="none" stroke="black" points="226.12,-204 172.12,-204 172.12,-168 226.12,-168 226.12,-204"/>
<text text-anchor="middle" x="199.12" y="-181.7" font-family="sans-serif" font-size="14.00">kv</text>
</g>
<!-- lean -->
<g id="node25" class="node">
<title>lean</title>
<polygon fill="none" stroke="black" points="87.5,-1022 33.5,-1022 33.5,-986 87.5,-986 87.5,-1022"/>
<text text-anchor="middle" x="60.5" y="-999.7" font-family="sans-serif" font-size="14.00">lean</text>
</g>
<!-- llm -->
<g id="node26" class="node">
<title>llm</title>
<polygon fill="none" stroke="black" points="226.12,-811 172.12,-811 172.12,-775 226.12,-775 226.12,-811"/>
<text text-anchor="middle" x="199.12" y="-788.7" font-family="sans-serif" font-size="14.00">llm</text>
</g>
<!-- llm&#45;&gt;proto -->
<g id="edge72" class="edge">
<title>llm&#45;&gt;proto</title>
<path fill="none" stroke="black" d="M213.41,-811.3C234.86,-840.84 277.24,-899.2 302.28,-933.68"/>
<polygon fill="black" stroke="black" points="299.26,-935.46 307.96,-941.5 304.92,-931.35 299.26,-935.46"/>
</g>
<!-- lsp&#45;&gt;sexp -->
<g id="edge73" class="edge">
<title>lsp&#45;&gt;sexp</title>
<path fill="none" stroke="black" d="M872.94,-648.34C887.99,-673.02 914.09,-718.71 928.75,-761 971.13,-883.24 990.97,-1037.41 997.77,-1100.78"/>
<polygon fill="black" stroke="black" points="994.25,-1100.78 998.77,-1110.36 1001.21,-1100.05 994.25,-1100.78"/>
</g>
<!-- lsp&#45;&gt;wasm -->
<g id="edge74" class="edge">
<title>lsp&#45;&gt;wasm</title>
<path fill="none" stroke="black" d="M887.84,-625.86C902.09,-622.24 918.75,-615.49 928.75,-603 980.37,-538.52 995.76,-277.41 999.55,-188.68"/>
<polygon fill="black" stroke="black" points="1003.04,-188.99 999.94,-178.85 996.04,-188.7 1003.04,-188.99"/>
</g>
<!-- metamath&#45;&gt;parse -->
<g id="edge75" class="edge">
<title>metamath&#45;&gt;parse</title>
<path fill="none" stroke="black" d="M889.62,-1027.53C928.01,-1001.14 996.67,-949.25 1038.5,-890 1073.78,-840.03 1095.8,-771.05 1106.22,-732.36"/>
<polygon fill="black" stroke="black" points="1109.56,-733.41 1108.69,-722.85 1102.79,-731.64 1109.56,-733.41"/>
</g>
<!-- metamath&#45;&gt;sexp -->
<g id="edge76" class="edge">
<title>metamath&#45;&gt;sexp</title>
<path fill="none" stroke="black" d="M900.84,-1063.26C910.16,-1067.74 919.95,-1072.79 928.75,-1078 942.27,-1086.01 956.42,-1095.89 968.56,-1104.88"/>
<polygon fill="black" stroke="black" points="966.1,-1107.41 976.2,-1110.63 970.31,-1101.82 966.1,-1107.41"/>
</g>
<!-- multiformat -->
<g id="node29" class="node">
<title>multiformat</title>
<polygon fill="none" stroke="black" points="754.5,-556 664.25,-556 664.25,-520 754.5,-520 754.5,-556"/>
<text text-anchor="middle" x="709.38" y="-533.7" font-family="sans-serif" font-size="14.00">multiformat</text>
</g>
<!-- multiformat&#45;&gt;acset -->
<g id="edge77" class="edge">
<title>multiformat&#45;&gt;acset</title>
<path fill="none" stroke="black" d="M754.68,-549.3C776.15,-554.77 801.64,-561.28 822.1,-566.49"/>
<polygon fill="black" stroke="black" points="821.17,-569.87 831.72,-568.95 822.9,-563.09 821.17,-569.87"/>
</g>
<!-- multiformat&#45;&gt;hash -->
<g id="edge78" class="edge">
<title>multiformat&#45;&gt;hash</title>
<path fill="none" stroke="black" d="M741.87,-556.48C747.04,-560.48 752.01,-565.02 756,-570 782.17,-602.65 774.42,-619.03 792,-657 808.62,-692.9 829.76,-733.24 843.88,-759.56"/>
<polygon fill="black" stroke="black" points="840.74,-761.11 848.57,-768.25 846.9,-757.79 840.74,-761.11"/>
</g>
<!-- multiformat&#45;&gt;parse -->
<g id="edge79" class="edge">
<title>multiformat&#45;&gt;parse</title>
<path fill="none" stroke="black" d="M754.76,-532.22C800.13,-528.13 871.83,-526.74 928.75,-549 997.73,-575.98 1059.8,-639.55 1091.38,-676.03"/>
<polygon fill="black" stroke="black" points="1088.62,-678.18 1097.76,-683.52 1093.95,-673.64 1088.62,-678.18"/>
</g>
<!-- object&#45;&gt;hash -->
<g id="edge80" class="edge">
<title>object&#45;&gt;hash</title>
<path fill="none" stroke="black" d="M737.88,-899.69C743.97,-895.36 750.31,-890.65 756,-886 783.94,-863.17 813.61,-834.53 833.96,-814.12"/>
<polygon fill="black" stroke="black" points="836.2,-816.83 840.75,-807.26 831.23,-811.91 836.2,-816.83"/>
</g>
<!-- object&#45;&gt;parse -->
<g id="edge81" class="edge">
<title>object&#45;&gt;parse</title>
<path fill="none" stroke="black" d="M738.24,-915.5C798.61,-908.84 943.64,-886.05 1038.5,-815 1067.49,-793.28 1088.81,-756.85 1101.13,-731.46"/>
<polygon fill="black" stroke="black" points="1104.16,-733.24 1105.21,-722.7 1097.81,-730.28 1104.16,-733.24"/>
</g>
<!-- opentheory&#45;&gt;core -->
<g id="edge82" class="edge">
<title>opentheory&#45;&gt;core</title>
<path fill="none" stroke="black" d="M475.14,-1722.39C490.49,-1733.37 511.42,-1746.57 532,-1754 641.68,-1793.58 675.65,-1781.38 792,-1789 852.65,-1792.97 871.36,-1809 928.75,-1789 946.59,-1782.78 963.33,-1770.09 976.16,-1758.26"/>
<polygon fill="black" stroke="black" points="978.55,-1760.82 983.29,-1751.34 973.68,-1755.79 978.55,-1760.82"/>
</g>
<!-- opentheory&#45;&gt;hol -->
<g id="edge83" class="edge">
<title>opentheory&#45;&gt;hol</title>
<path fill="none" stroke="black" d="M496.24,-1718.36C538.61,-1731.15 604.26,-1748.91 662.75,-1756 703.89,-1760.99 714.78,-1760.34 756,-1756 778.17,-1753.67 802.57,-1748.59 822.1,-1743.91"/>
<polygon fill="black" stroke="black" points="822.94,-1747.31 831.81,-1741.51 821.26,-1740.51 822.94,-1747.31"/>
</g>
<!-- opentheory&#45;&gt;hol&#45;api -->
<g id="edge84" class="edge">
<title>opentheory&#45;&gt;hol&#45;api</title>
<path fill="none" stroke="black" d="M485.83,-1685.6C501.88,-1677 521.09,-1666.7 537.85,-1657.72"/>
<polygon fill="black" stroke="black" points="539.42,-1660.85 546.58,-1653.04 536.11,-1654.68 539.42,-1660.85"/>
</g>
<!-- opentheory&#45;&gt;hol&#45;eval -->
<g id="edge85" class="edge">
<title>opentheory&#45;&gt;hol&#45;eval</title>
<path fill="none" stroke="black" d="M496.32,-1697.19C574.62,-1685.28 735.48,-1660.83 814.11,-1648.88"/>
<polygon fill="black" stroke="black" points="814.23,-1652.4 823.59,-1647.44 813.18,-1645.48 814.23,-1652.4"/>
</g>
<!-- parquet -->
<g id="node32" class="node">
<title>parquet</title>
<polygon fill="none" stroke="black" points="484,-692 417,-692 417,-656 484,-656 484,-692"/>
<text text-anchor="middle" x="450.5" y="-669.7" font-family="sans-serif" font-size="14.00">parquet</text>
</g>
<!-- parquet&#45;&gt;arrow -->
<g id="edge86" class="edge">
<title>parquet&#45;&gt;arrow</title>
<path fill="none" stroke="black" d="M484.17,-679.67C501.52,-682.67 522.91,-686.38 540.93,-689.51"/>
<polygon fill="black" stroke="black" points="540.26,-692.94 550.71,-691.2 541.46,-686.05 540.26,-692.94"/>
</g>
<!-- proptest -->
<g id="node34" class="node">
<title>proptest</title>
<polygon fill="none" stroke="black" points="95.88,-1076 25.12,-1076 25.12,-1040 95.88,-1040 95.88,-1076"/>
<text text-anchor="middle" x="60.5" y="-1053.7" font-family="sans-serif" font-size="14.00">proptest</text>
</g>
<!-- pure&#45;trusted -->
<g id="node38" class="node">
<title>pure&#45;trusted</title>
<polygon fill="#ffd6d6" stroke="black" points="1379.5,-1782 1280.25,-1782 1280.25,-1746 1379.5,-1746 1379.5,-1782"/>
<text text-anchor="middle" x="1329.88" y="-1759.7" font-family="sans-serif" font-size="14.00">pure&#45;trusted</text>
</g>
<!-- pure&#45;&gt;pure&#45;trusted -->
<g id="edge87" class="edge">
<title>pure&#45;&gt;pure&#45;trusted</title>
<path fill="none" stroke="black" d="M1244.75,-1764C1252.04,-1764 1260.27,-1764 1268.64,-1764"/>
<polygon fill="black" stroke="black" points="1268.57,-1767.5 1278.57,-1764 1268.57,-1760.5 1268.57,-1767.5"/>
</g>
<!-- pure&#45;eval&#45;&gt;pure -->
<g id="edge88" class="edge">
<title>pure&#45;eval&#45;&gt;pure</title>
<path fill="none" stroke="black" d="M1139.86,-1654.2C1144.88,-1658.46 1149.95,-1663.17 1154.25,-1668 1172.91,-1688.94 1189.86,-1716.03 1201.31,-1736.09"/>
<polygon fill="black" stroke="black" points="1198.1,-1737.52 1206.03,-1744.54 1204.21,-1734.11 1198.1,-1737.52"/>
</g>
<!-- pure&#45;eval&#45;&gt;types -->
<g id="edge89" class="edge">
<title>pure&#45;eval&#45;&gt;types</title>
<path fill="none" stroke="black" d="M1154.49,-1632.51C1206.21,-1627.62 1300.08,-1617.74 1379.5,-1604 1387.48,-1602.62 1395.98,-1600.88 1404.05,-1599.1"/>
<polygon fill="black" stroke="black" points="1404.62,-1602.56 1413.59,-1596.93 1403.06,-1595.73 1404.62,-1602.56"/>
</g>
<!-- pure&#45;trusted&#45;&gt;types -->
<g id="edge90" class="edge">
<title>pure&#45;trusted&#45;&gt;types</title>
<path fill="none" stroke="black" d="M1364.62,-1745.53C1370.05,-1741.56 1375.27,-1737.02 1379.5,-1732 1407.78,-1698.44 1425.2,-1649.98 1434.11,-1619.24"/>
<polygon fill="black" stroke="black" points="1437.41,-1620.43 1436.71,-1609.86 1430.67,-1618.56 1437.41,-1620.43"/>
</g>
<!-- python -->
<g id="node39" class="node">
<title>python</title>
<polygon fill="none" stroke="black" points="91.38,-418 29.62,-418 29.62,-382 91.38,-382 91.38,-418"/>
<text text-anchor="middle" x="60.5" y="-395.7" font-family="sans-serif" font-size="14.00">python</text>
</g>
<!-- python&#45;&gt;crypto&#45;sig -->
<g id="edge91" class="edge">
<title>python&#45;&gt;crypto&#45;sig</title>
<path fill="none" stroke="black" d="M91.48,-381.57C111.15,-369.48 137.08,-353.53 158.45,-340.4"/>
<polygon fill="black" stroke="black" points="160.24,-343.4 166.92,-335.18 156.57,-337.44 160.24,-343.4"/>
</g>
<!-- python&#45;&gt;git -->
<g id="edge92" class="edge">
<title>python&#45;&gt;git</title>
<path fill="none" stroke="black" d="M70.76,-381.51C85.09,-355.21 115.41,-308.08 157,-289 191.03,-273.39 207.17,-273.49 241.25,-289 337.79,-332.93 407,-446.17 435.31,-499.46"/>
<polygon fill="black" stroke="black" points="432.16,-500.99 439.88,-508.24 438.37,-497.75 432.16,-500.99"/>
</g>
<!-- python&#45;&gt;graph -->
<g id="edge93" class="edge">
<title>python&#45;&gt;graph</title>
<path fill="none" stroke="black" d="M91.62,-414.13C161.94,-447.11 336.7,-529.09 412.95,-564.86"/>
<polygon fill="black" stroke="black" points="411.12,-567.87 421.66,-568.94 414.1,-561.53 411.12,-567.87"/>
</g>
<!-- python&#45;&gt;hash -->
<g id="edge94" class="edge">
<title>python&#45;&gt;hash</title>
<path fill="none" stroke="black" d="M91.84,-402.66C179.62,-411.38 439.46,-444.61 626.75,-545 657.27,-561.36 731.61,-607.43 756,-632 794.63,-670.91 827.24,-726.3 844.99,-759.54"/>
<polygon fill="black" stroke="black" points="841.77,-760.94 849.52,-768.17 847.97,-757.69 841.77,-760.94"/>
</g>
<!-- python&#45;&gt;kv -->
<g id="edge95" class="edge">
<title>python&#45;&gt;kv</title>
<path fill="none" stroke="black" d="M68.08,-381.69C81.14,-347.05 112.94,-270.7 157,-218 159.01,-215.59 161.24,-213.25 163.57,-211"/>
<polygon fill="black" stroke="black" points="165.5,-213.97 170.7,-204.74 160.88,-208.71 165.5,-213.97"/>
</g>
<!-- python&#45;&gt;llm -->
<g id="edge96" class="edge">
<title>python&#45;&gt;llm</title>
<path fill="none" stroke="black" d="M62.28,-418.17C65.45,-474.02 81.21,-646.35 157,-761 158.82,-763.76 160.97,-766.38 163.3,-768.85"/>
<polygon fill="black" stroke="black" points="160.92,-771.43 170.66,-775.62 165.66,-766.27 160.92,-771.43"/>
</g>
<!-- python&#45;&gt;object -->
<g id="edge97" class="edge">
<title>python&#45;&gt;object</title>
<path fill="none" stroke="black" d="M65.24,-418.32C74.64,-461.03 102.53,-569.09 157,-642 277.62,-803.47 340.13,-835.3 532,-897 577.69,-911.69 633.03,-916.28 669.38,-917.62"/>
<polygon fill="black" stroke="black" points="668.87,-921.11 678.97,-917.91 669.08,-914.11 668.87,-921.11"/>
</g>
<!-- python&#45;&gt;repl -->
<g id="edge98" class="edge">
<title>python&#45;&gt;repl</title>
<path fill="none" stroke="black" d="M67.1,-418.23C78.97,-454.65 109.54,-537.67 157,-593 193.8,-635.9 249.8,-670.8 286.18,-690.74"/>
<polygon fill="black" stroke="black" points="284.09,-693.6 294.56,-695.25 287.41,-687.43 284.09,-693.6"/>
</g>
<!-- sat -->
<g id="node42" class="node">
<title>sat</title>
<polygon fill="none" stroke="black" points="887.38,-418 833.38,-418 833.38,-382 887.38,-382 887.38,-418"/>
<text text-anchor="middle" x="860.38" y="-395.7" font-family="sans-serif" font-size="14.00">sat</text>
</g>
<!-- python&#45;&gt;sat -->
<g id="edge99" class="edge">
<title>python&#45;&gt;sat</title>
<path fill="none" stroke="black" d="M91.58,-392.84C127.96,-383.65 190.61,-366.09 241.25,-343 258.31,-335.22 259.95,-328.22 277.25,-321 384.88,-276.07 416.22,-272.1 532,-258 573.8,-252.91 587.27,-243.34 626.75,-258 646.54,-265.35 644.74,-277.98 662.75,-289 700.93,-312.35 716.74,-305.51 756,-327 781.29,-340.84 807.81,-359.68 827.66,-374.74"/>
<polygon fill="black" stroke="black" points="825.3,-377.34 835.36,-380.66 829.56,-371.79 825.3,-377.34"/>
</g>
<!-- python&#45;&gt;serve -->
<g id="edge100" class="edge">
<title>python&#45;&gt;serve</title>
<path fill="none" stroke="black" d="M65.66,-418.38C85.15,-504.38 167.4,-867.38 191.48,-973.66"/>
<polygon fill="black" stroke="black" points="188.04,-974.31 193.66,-983.29 194.86,-972.77 188.04,-974.31"/>
</g>
<!-- python&#45;&gt;sexp -->
<g id="edge101" class="edge">
<title>python&#45;&gt;sexp</title>
<path fill="none" stroke="black" d="M63.64,-418.27C75.12,-515.8 130.03,-972.85 157,-1030 203.89,-1129.37 212.25,-1214 322.12,-1214 322.12,-1214 322.12,-1214 580.38,-1214 663,-1214 685.68,-1196.39 756,-1153 774.99,-1141.28 771.32,-1126.39 792,-1118 848.35,-1095.12 920.36,-1107.35 963.35,-1118.52"/>
<polygon fill="black" stroke="black" points="962.38,-1121.88 972.95,-1121.14 964.23,-1115.13 962.38,-1121.88"/>
</g>
<!-- python&#45;&gt;shell -->
<g id="edge102" class="edge">
<title>python&#45;&gt;shell</title>
<path fill="none" stroke="black" d="M64,-418.3C72.52,-481.05 101.04,-693.26 121,-869 130.05,-948.67 113.4,-1160.71 157,-1228 210.97,-1311.3 346.06,-1309.49 412.05,-1303.03"/>
<polygon fill="black" stroke="black" points="412.08,-1306.55 421.65,-1302 411.33,-1299.59 412.08,-1306.55"/>
</g>
<!-- python&#45;&gt;store -->
<g id="edge103" class="edge">
<title>python&#45;&gt;store</title>
<path fill="none" stroke="black" d="M68.72,-381.85C81.48,-352.58 111.09,-295.92 157,-273 234.56,-234.28 232.48,-146.62 626.75,-294 645.74,-301.1 646.45,-309.95 662.75,-322 666.06,-324.44 669.52,-326.96 673.01,-329.45"/>
<polygon fill="black" stroke="black" points="670.74,-332.14 680.92,-335.07 674.79,-326.43 670.74,-332.14"/>
</g>
<!-- python&#45;&gt;wasm -->
<g id="edge104" class="edge">
<title>python&#45;&gt;wasm</title>
<path fill="none" stroke="black" d="M62.48,-381.58C66.06,-332.46 82.56,-196.95 157,-122 211.81,-66.81 244.34,-64 322.12,-64 322.12,-64 322.12,-64 710.38,-64 808.01,-64 840.59,-46.03 928.75,-88 949.53,-97.9 967.9,-116.31 980.86,-131.9"/>
<polygon fill="black" stroke="black" points="977.94,-133.84 986.9,-139.49 983.41,-129.48 977.94,-133.84"/>
</g>
<!-- wasm&#45;store -->
<g id="node55" class="node">
<title>wasm&#45;store</title>
<polygon fill="none" stroke="black" points="626.75,-204 532,-204 532,-168 626.75,-168 626.75,-204"/>
<text text-anchor="middle" x="579.38" y="-181.7" font-family="sans-serif" font-size="14.00">wasm&#45;store</text>
</g>
<!-- python&#45;&gt;wasm&#45;store -->
<g id="edge105" class="edge">
<title>python&#45;&gt;wasm&#45;store</title>
<path fill="none" stroke="black" d="M62.25,-381.63C65.28,-334.8 80.5,-210.97 157,-159 269.37,-82.66 439.87,-131 525.45,-163.51"/>
<polygon fill="black" stroke="black" points="523.96,-166.68 534.54,-167.03 526.49,-160.15 523.96,-166.68"/>
</g>
<!-- repl&#45;&gt;arrow -->
<g id="edge106" class="edge">
<title>repl&#45;&gt;arrow</title>
<path fill="none" stroke="black" d="M350.34,-707.9C384.05,-706.45 444.4,-703.77 496,-701 510.64,-700.21 526.74,-699.26 540.8,-698.39"/>
<polygon fill="black" stroke="black" points="540.77,-701.9 550.53,-697.79 540.33,-694.92 540.77,-701.9"/>
</g>
<!-- repl&#45;&gt;forsp -->
<g id="edge107" class="edge">
<title>repl&#45;&gt;forsp</title>
<path fill="none" stroke="black" d="M334.62,-727.21C348.93,-751.31 376.12,-794.52 405,-827 492.56,-925.47 615.57,-1022.54 674.42,-1066.93"/>
<polygon fill="black" stroke="black" points="671.99,-1069.49 682.09,-1072.69 676.19,-1063.89 671.99,-1069.49"/>
</g>
<!-- repl&#45;&gt;git -->
<g id="edge108" class="edge">
<title>repl&#45;&gt;git</title>
<path fill="none" stroke="black" d="M332.28,-690.59C348.46,-654.58 384.83,-576.45 405,-555 407.68,-552.15 410.73,-549.49 413.94,-547.04"/>
<polygon fill="black" stroke="black" points="415.72,-550.06 422.02,-541.55 411.78,-544.27 415.72,-550.06"/>
</g>
<!-- repl&#45;&gt;graph -->
<g id="edge109" class="edge">
<title>repl&#45;&gt;graph</title>
<path fill="none" stroke="black" d="M337.55,-690.7C352.72,-670.68 378.72,-638.22 405,-614 407.89,-611.34 411,-608.71 414.19,-606.16"/>
<polygon fill="black" stroke="black" points="416.21,-609.02 422.05,-600.18 411.98,-603.45 416.21,-609.02"/>
</g>
<!-- repl&#45;&gt;hash -->
<g id="edge110" class="edge">
<title>repl&#45;&gt;hash</title>
<path fill="none" stroke="black" d="M341.01,-690.6C356.11,-675.61 379.7,-655.58 405,-647 443.3,-634.01 455.7,-643.63 496,-647 554.72,-651.91 575.62,-639.71 626.75,-669 648.38,-681.39 642.48,-697.49 662.75,-712 712.26,-747.44 780.45,-768.91 822.14,-779.61"/>
<polygon fill="black" stroke="black" points="821.14,-782.96 831.69,-781.97 822.83,-776.17 821.14,-782.96"/>
</g>
<!-- repl&#45;&gt;init -->
<g id="edge111" class="edge">
<title>repl&#45;&gt;init</title>
<path fill="none" stroke="black" d="M330.3,-727.43C362.6,-823.64 511.39,-1264.66 532,-1287 563.35,-1320.99 589.97,-1301.97 626.75,-1330 652.56,-1349.67 675.57,-1378.94 690.53,-1400.36"/>
<polygon fill="black" stroke="black" points="687.44,-1402.05 695.96,-1408.35 693.23,-1398.11 687.44,-1402.05"/>
</g>
<!-- repl&#45;&gt;object -->
<g id="edge112" class="edge">
<title>repl&#45;&gt;object</title>
<path fill="none" stroke="black" d="M343.43,-727.47C378.33,-759.94 455.47,-827.43 532,-866 576.5,-888.43 632.31,-902.84 669.1,-910.67"/>
<polygon fill="black" stroke="black" points="668.35,-914.09 678.85,-912.68 669.76,-907.23 668.35,-914.09"/>
</g>
<!-- repl&#45;&gt;parquet -->
<g id="edge113" class="edge">
<title>repl&#45;&gt;parquet</title>
<path fill="none" stroke="black" d="M350.41,-701.66C366.34,-697.21 387.08,-691.42 405.47,-686.29"/>
<polygon fill="black" stroke="black" points="406.4,-689.67 415.09,-683.61 404.52,-682.92 406.4,-689.67"/>
</g>
<!-- repl&#45;&gt;shell -->
<g id="edge114" class="edge">
<title>repl&#45;&gt;shell</title>
<path fill="none" stroke="black" d="M331.52,-727.18C341.52,-752.49 359.23,-799.99 369,-842 396.62,-960.77 382.64,-994.13 405,-1114 415.31,-1169.24 431.7,-1232.78 441.45,-1268.88"/>
<polygon fill="black" stroke="black" points="437.96,-1269.41 443.97,-1278.14 444.72,-1267.57 437.96,-1269.41"/>
</g>
<!-- repl&#45;&gt;wasm -->
<g id="edge115" class="edge">
<title>repl&#45;&gt;wasm</title>
<path fill="none" stroke="black" d="M324.26,-690.66C325.94,-610.43 344.52,-288.56 532,-159 601.22,-111.16 864.51,-140.63 963.08,-153.71"/>
<polygon fill="black" stroke="black" points="962.38,-157.15 972.76,-155.01 963.32,-150.21 962.38,-157.15"/>
</g>
<!-- sat&#45;&gt;parse -->
<g id="edge116" class="edge">
<title>sat&#45;&gt;parse</title>
<path fill="none" stroke="black" d="M887.64,-396.78C925.88,-393.66 996.85,-393.97 1038.5,-432 1074.4,-464.77 1099.76,-610.58 1109.25,-673.7"/>
<polygon fill="black" stroke="black" points="1105.75,-673.95 1110.67,-683.33 1112.67,-672.93 1105.75,-673.95"/>
</g>
<!-- sat&#45;&gt;types -->
<g id="edge117" class="edge">
<title>sat&#45;&gt;types</title>
<path fill="none" stroke="black" d="M887.74,-394.77C933.47,-386.18 1030.54,-370 1113.38,-370 1113.38,-370 1113.38,-370 1218.25,-370 1343.29,-370 1425.22,-1374.41 1439.33,-1560.52"/>
<polygon fill="black" stroke="black" points="1435.82,-1560.59 1440.06,-1570.3 1442.8,-1560.06 1435.82,-1560.59"/>
</g>
<!-- sat&#45;&gt;wasm -->
<g id="edge118" class="edge">
<title>sat&#45;&gt;wasm</title>
<path fill="none" stroke="black" d="M887.77,-392.92C901.65,-387.98 917.96,-380.07 928.75,-368 975.14,-316.09 991.88,-232.77 997.69,-188.65"/>
<polygon fill="black" stroke="black" points="1001.16,-189.15 998.88,-178.8 994.21,-188.31 1001.16,-189.15"/>
</g>
<!-- serve&#45;&gt;core -->
<g id="edge119" class="edge">
<title>serve&#45;&gt;core</title>
<path fill="none" stroke="black" d="M200.71,-1021.29C203.84,-1111.53 220.68,-1509.28 277.25,-1617 390.71,-1833.04 548.13,-1799.52 792,-1808 852.74,-1810.11 872.93,-1832.04 928.75,-1808 951.69,-1798.12 970.73,-1776.92 983.43,-1759.42"/>
<polygon fill="black" stroke="black" points="986.16,-1761.63 988.96,-1751.41 980.4,-1757.65 986.16,-1761.63"/>
</g>
<!-- serve&#45;&gt;git -->
<g id="edge120" class="edge">
<title>serve&#45;&gt;git</title>
<path fill="none" stroke="black" d="M204.21,-984.78C219.05,-918.82 269.6,-695.62 277.25,-682 316.48,-612.21 341.95,-604.33 405,-555 407.85,-552.77 410.89,-550.58 414,-548.47"/>
<polygon fill="black" stroke="black" points="415.61,-551.6 422.12,-543.24 411.82,-545.71 415.61,-551.6"/>
</g>
<!-- serve&#45;&gt;hash -->
<g id="edge121" class="edge">
<title>serve&#45;&gt;hash</title>
<path fill="none" stroke="black" d="M226.5,-1015.72C264.77,-1033.39 338.4,-1064.49 405,-1076 502.12,-1092.79 530.12,-1095.37 626.75,-1076 642.01,-1072.94 744.88,-1032.89 756,-1022 815.2,-963.99 843.02,-866.21 853.75,-817.47"/>
<polygon fill="black" stroke="black" points="857.13,-818.45 855.76,-807.94 850.28,-817.01 857.13,-818.45"/>
</g>
<!-- serve&#45;&gt;init -->
<g id="edge122" class="edge">
<title>serve&#45;&gt;init</title>
<path fill="none" stroke="black" d="M205.61,-1021.16C215.55,-1051.52 239.13,-1113.09 277.25,-1152 354.7,-1231.06 413.65,-1197.05 496,-1271 516.91,-1289.78 511.45,-1303.82 532,-1323 574.38,-1362.57 634.13,-1394.25 672.06,-1412.09"/>
<polygon fill="black" stroke="black" points="670.22,-1415.1 680.77,-1416.12 673.16,-1408.75 670.22,-1415.1"/>
</g>
<!-- serve&#45;&gt;metamath -->
<g id="edge123" class="edge">
<title>serve&#45;&gt;metamath</title>
<path fill="none" stroke="black" d="M208.01,-1021.23C219.61,-1045.91 243.6,-1089.65 277.25,-1114 325.24,-1148.72 346.38,-1143.47 405,-1152 560.05,-1174.57 617.62,-1192.5 756,-1119 777.42,-1107.63 772.65,-1092.61 792,-1078 797.49,-1073.85 803.61,-1070.05 809.85,-1066.62"/>
<polygon fill="black" stroke="black" points="811.06,-1069.93 818.36,-1062.25 807.86,-1063.71 811.06,-1069.93"/>
</g>
<!-- serve&#45;&gt;object -->
<g id="edge124" class="edge">
<title>serve&#45;&gt;object</title>
<path fill="none" stroke="black" d="M226.31,-1004.08C294.16,-1006.1 480.56,-1006.82 626.75,-962 641.96,-957.34 657.59,-949.72 671.05,-942.12"/>
<polygon fill="black" stroke="black" points="672.71,-945.2 679.57,-937.13 669.17,-939.16 672.71,-945.2"/>
</g>
<!-- serve&#45;&gt;proto -->
<g id="edge125" class="edge">
<title>serve&#45;&gt;proto</title>
<path fill="none" stroke="black" d="M226.6,-993.89C243.7,-988 266.21,-980.25 285.08,-973.75"/>
<polygon fill="black" stroke="black" points="285.96,-977.15 294.27,-970.59 283.68,-970.53 285.96,-977.15"/>
</g>
<!-- serve&#45;&gt;repl -->
<g id="edge126" class="edge">
<title>serve&#45;&gt;repl</title>
<path fill="none" stroke="black" d="M207.76,-984.61C228.34,-935.01 285.12,-798.17 310.08,-738.02"/>
<polygon fill="black" stroke="black" points="313.32,-739.36 313.92,-728.78 306.85,-736.68 313.32,-739.36"/>
</g>
<!-- serve&#45;&gt;shell -->
<g id="edge127" class="edge">
<title>serve&#45;&gt;shell</title>
<path fill="none" stroke="black" d="M199.48,-1021.31C198.87,-1069.4 204.33,-1200.14 277.25,-1266 313.87,-1299.07 373.24,-1303.08 411.83,-1301.58"/>
<polygon fill="black" stroke="black" points="411.79,-1305.09 421.58,-1301.04 411.4,-1298.1 411.79,-1305.09"/>
</g>
<!-- serve&#45;&gt;store -->
<g id="edge128" class="edge">
<title>serve&#45;&gt;store</title>
<path fill="none" stroke="black" d="M204.71,-984.65C212.83,-951.79 229.92,-880.66 241.25,-820 261.14,-713.54 224.9,-673.81 277.25,-579 295.29,-546.32 497.23,-373.57 532,-360 577.2,-342.36 633.97,-344.25 670.7,-348.26"/>
<polygon fill="black" stroke="black" points="670.03,-351.7 680.38,-349.43 670.87,-344.75 670.03,-351.7"/>
</g>
<!-- sexp&#45;&gt;parse -->
<g id="edge129" class="edge">
<title>sexp&#45;&gt;parse</title>
<path fill="none" stroke="black" d="M1007.38,-1111.65C1024.71,-1044.86 1084.5,-814.31 1105.78,-732.27"/>
<polygon fill="black" stroke="black" points="1109.13,-733.3 1108.25,-722.74 1102.36,-731.55 1109.13,-733.3"/>
</g>
<!-- shell&#45;&gt;hol -->
<g id="edge130" class="edge">
<title>shell&#45;&gt;hol</title>
<path fill="none" stroke="black" d="M455.75,-1316.22C465.06,-1353.55 489.86,-1440.41 532,-1502 607.6,-1612.51 754.24,-1687.86 822.61,-1718.55"/>
<polygon fill="black" stroke="black" points="820.95,-1721.64 831.51,-1722.48 823.78,-1715.24 820.95,-1721.64"/>
</g>
<!-- shell&#45;&gt;kernel -->
<g id="edge131" class="edge">
<title>shell&#45;&gt;kernel</title>
<path fill="none" stroke="black" d="M477.79,-1290.13C495.59,-1284.8 519.41,-1277.66 539.41,-1271.67"/>
<polygon fill="black" stroke="black" points="540.33,-1275.05 548.91,-1268.82 538.33,-1268.34 540.33,-1275.05"/>
</g>
<!-- smt&#45;&gt;sat -->
<g id="edge132" class="edge">
<title>smt&#45;&gt;sat</title>
<path fill="none" stroke="black" d="M715.19,-1317.58C724.71,-1280.36 745.88,-1193.39 756,-1119 790.2,-867.48 730.71,-795.33 792,-549 802.99,-504.83 826.64,-457.55 842.78,-428.38"/>
<polygon fill="black" stroke="black" points="845.75,-430.24 847.61,-419.81 839.65,-426.8 845.75,-430.24"/>
</g>
<!-- smt&#45;&gt;sexp -->
<g id="edge133" class="edge">
<title>smt&#45;&gt;sexp</title>
<path fill="none" stroke="black" d="M736.87,-1320.78C743.68,-1316.02 750.6,-1310.33 756,-1304 779.73,-1276.17 764.69,-1254.33 792,-1230 840.09,-1187.15 871.67,-1211.86 928.75,-1182 943,-1174.55 957.58,-1164.53 969.85,-1155.27"/>
<polygon fill="black" stroke="black" points="971.77,-1158.21 977.54,-1149.32 967.49,-1152.67 971.77,-1158.21"/>
</g>
<!-- smt&#45;&gt;types -->
<g id="edge134" class="edge">
<title>smt&#45;&gt;types</title>
<path fill="none" stroke="black" d="M736.79,-1336C787.79,-1336 903.37,-1336 1000.62,-1336 1000.62,-1336 1000.62,-1336 1218.25,-1336 1337.02,-1336 1407.49,-1494.61 1431.83,-1561.16"/>
<polygon fill="black" stroke="black" points="1428.43,-1562.06 1435.08,-1570.31 1435.03,-1559.71 1428.43,-1562.06"/>
</g>
<!-- spectec&#45;&gt;grammar -->
<g id="edge135" class="edge">
<title>spectec&#45;&gt;grammar</title>
<path fill="none" stroke="black" d="M895.44,-1386.65C912.86,-1389.02 934.33,-1391.95 953.33,-1394.55"/>
<polygon fill="black" stroke="black" points="952.6,-1397.98 962.98,-1395.86 953.54,-1391.04 952.6,-1397.98"/>
</g>
<!-- store&#45;&gt;hash -->
<g id="edge136" class="edge">
<title>store&#45;&gt;hash</title>
<path fill="none" stroke="black" d="M720.17,-372.46C730.52,-392.69 746.6,-426.33 756,-457 782.48,-543.35 763.03,-571.46 792,-657 804.62,-694.26 826.4,-734.03 841.77,-759.85"/>
<polygon fill="black" stroke="black" points="838.77,-761.65 846.94,-768.39 844.75,-758.02 838.77,-761.65"/>
</g>
<!-- store&#45;&gt;json -->
<g id="edge137" class="edge">
<title>store&#45;&gt;json</title>
<path fill="none" stroke="black" d="M727.38,-335.51C742.96,-319.42 767.28,-296.34 792,-281 801.36,-275.19 812.18,-270.2 822.37,-266.15"/>
<polygon fill="black" stroke="black" points="823.54,-269.45 831.67,-262.66 821.08,-262.9 823.54,-269.45"/>
</g>
<!-- store&#45;&gt;sqlite -->
<g id="edge138" class="edge">
<title>store&#45;&gt;sqlite</title>
<path fill="none" stroke="black" d="M736.67,-345.88C760.43,-338.55 795.65,-327.67 822.27,-319.46"/>
<polygon fill="black" stroke="black" points="823.12,-322.85 831.65,-316.56 821.06,-316.17 823.12,-322.85"/>
</g>
<!-- tcb&#45;db -->
<g id="node50" class="node">
<title>tcb&#45;db</title>
<polygon fill="none" stroke="black" points="739.5,-280 679.25,-280 679.25,-244 739.5,-244 739.5,-280"/>
<text text-anchor="middle" x="709.38" y="-257.7" font-family="sans-serif" font-size="14.00">tcb&#45;db</text>
</g>
<!-- tcb&#45;db&#45;&gt;json -->
<g id="edge139" class="edge">
<title>tcb&#45;db&#45;&gt;json</title>
<path fill="none" stroke="black" d="M739.81,-260.42C763.24,-259.16 796.19,-257.39 821.57,-256.03"/>
<polygon fill="black" stroke="black" points="821.68,-259.53 831.48,-255.5 821.31,-252.54 821.68,-259.53"/>
</g>
<!-- tcb&#45;db&#45;&gt;sqlite -->
<g id="edge140" class="edge">
<title>tcb&#45;db&#45;&gt;sqlite</title>
<path fill="none" stroke="black" d="M739.81,-271.09C763.45,-278.39 796.79,-288.68 822.26,-296.54"/>
<polygon fill="black" stroke="black" points="820.96,-299.8 831.55,-299.41 823.03,-293.11 820.96,-299.8"/>
</g>
<!-- wasm&#45;build&#45;guest -->
<g id="node53" class="node">
<title>wasm&#45;build&#45;guest</title>
<polygon fill="none" stroke="black" points="928.75,-36 792,-36 792,0 928.75,0 928.75,-36"/>
<text text-anchor="middle" x="860.38" y="-13.7" font-family="sans-serif" font-size="14.00">wasm&#45;build&#45;guest</text>
</g>
<!-- wasm&#45;build&#45;guest&#45;&gt;wasm -->
<g id="edge141" class="edge">
<title>wasm&#45;build&#45;guest&#45;&gt;wasm</title>
<path fill="none" stroke="black" d="M908.72,-36.39C915.84,-40.29 922.79,-44.82 928.75,-50 954.56,-72.44 974.92,-106.3 987.28,-130.31"/>
<polygon fill="black" stroke="black" points="984.13,-131.83 991.71,-139.22 990.39,-128.71 984.13,-131.83"/>
</g>
<!-- wasm&#45;spec -->
<g id="node54" class="node">
<title>wasm&#45;spec</title>
<polygon fill="none" stroke="black" points="756,-502 662.75,-502 662.75,-466 756,-466 756,-502"/>
<text text-anchor="middle" x="709.38" y="-479.7" font-family="sans-serif" font-size="14.00">wasm&#45;spec</text>
</g>
<!-- wasm&#45;spec&#45;&gt;hash -->
<g id="edge142" class="edge">
<title>wasm&#45;spec&#45;&gt;hash</title>
<path fill="none" stroke="black" d="M747.45,-502.19C750.65,-504.82 753.58,-507.75 756,-511 795.86,-564.64 768.56,-594.41 792,-657 805.8,-693.84 827.34,-733.7 842.33,-759.65"/>
<polygon fill="black" stroke="black" points="839.29,-761.37 847.36,-768.24 845.33,-757.84 839.29,-761.37"/>
</g>
<!-- wasm&#45;spec&#45;&gt;wasm -->
<g id="edge143" class="edge">
<title>wasm&#45;spec&#45;&gt;wasm</title>
<path fill="none" stroke="black" d="M721.81,-465.56C739.64,-437.37 773.89,-385.5 792,-373 843.92,-337.18 881.62,-376.93 928.75,-335 972.1,-296.43 989.81,-227.83 996.65,-188.63"/>
<polygon fill="black" stroke="black" points="1000.07,-189.4 998.2,-178.97 993.16,-188.29 1000.07,-189.4"/>
</g>
<!-- wasm&#45;store&#45;&gt;json -->
<g id="edge144" class="edge">
<title>wasm&#45;store&#45;&gt;json</title>
<path fill="none" stroke="black" d="M627.07,-197.38C681.91,-210.75 771.74,-232.64 822.12,-244.92"/>
<polygon fill="black" stroke="black" points="821.13,-248.28 831.67,-247.25 822.78,-241.48 821.13,-248.28"/>
</g>
<!-- wasm&#45;store&#45;&gt;store -->
<g id="edge145" class="edge">
<title>wasm&#45;store&#45;&gt;store</title>
<path fill="none" stroke="black" d="M594.32,-204.3C616.82,-233.84 661.29,-292.2 687.56,-326.68"/>
<polygon fill="black" stroke="black" points="684.69,-328.69 693.53,-334.52 690.26,-324.44 684.69,-328.69"/>
</g>
<!-- wasm&#45;store&#45;&gt;wasm -->
<g id="edge146" class="edge">
<title>wasm&#45;store&#45;&gt;wasm</title>
<path fill="none" stroke="black" d="M626.95,-183.01C710.91,-177.61 886,-166.36 962.96,-161.42"/>
<polygon fill="black" stroke="black" points="962.75,-164.94 972.5,-160.81 962.3,-157.96 962.75,-164.94"/>
</g>
<!-- web&#45;kernel -->
<g id="node56" class="node">
<title>web&#45;kernel</title>
<polygon fill="none" stroke="black" points="369,-1608 277.25,-1608 277.25,-1572 369,-1572 369,-1608"/>
<text text-anchor="middle" x="323.12" y="-1585.7" font-family="sans-serif" font-size="14.00">web&#45;kernel</text>
</g>
<!-- web&#45;kernel&#45;&gt;haskell -->
<g id="edge147" class="edge">
<title>web&#45;kernel&#45;&gt;haskell</title>
<path fill="none" stroke="black" d="M369.39,-1590C381.83,-1590 395.26,-1590 407.5,-1590"/>
<polygon fill="black" stroke="black" points="407.3,-1593.5 417.3,-1590 407.3,-1586.5 407.3,-1593.5"/>
</g>
<!-- web&#45;kernel&#45;&gt;hol&#45;api -->
<g id="edge148" class="edge">
<title>web&#45;kernel&#45;&gt;hol&#45;api</title>
<path fill="none" stroke="black" d="M369.41,-1607C380.89,-1610.79 393.29,-1614.43 405,-1617 449.25,-1626.69 500.98,-1631.55 536.35,-1633.91"/>
<polygon fill="black" stroke="black" points="535.97,-1637.39 546.17,-1634.52 536.4,-1630.4 535.97,-1637.39"/>
</g>
<!-- web&#45;kernel&#45;&gt;kernel -->
<g id="edge149" class="edge">
<title>web&#45;kernel&#45;&gt;kernel</title>
<path fill="none" stroke="black" d="M338.16,-1571.79C380.53,-1516.8 507.32,-1352.23 557.55,-1287.03"/>
<polygon fill="black" stroke="black" points="560.13,-1289.41 563.46,-1279.35 554.59,-1285.14 560.13,-1289.41"/>
</g>
</g>
</svg>
