<?xml version="1.0" encoding="UTF-8" standalone="no"?>
<!DOCTYPE svg PUBLIC "-//W3C//DTD SVG 1.1//EN"
 "http://www.w3.org/Graphics/SVG/1.1/DTD/svg11.dtd">
<!-- Generated by graphviz version 12.2.1 (0)
 -->
<!-- Title: deps Pages: 1 -->
<svg width="1454pt" height="2178pt"
 viewBox="0.00 0.00 1453.50 2177.94" xmlns="http://www.w3.org/2000/svg" xmlns:xlink="http://www.w3.org/1999/xlink">
<g id="graph0" class="graph" transform="scale(1 1) rotate(0) translate(4 2173.94)">
<title>deps</title>
<polygon fill="white" stroke="none" points="-4,4 -4,-2173.94 1449.5,-2173.94 1449.5,4 -4,4"/>
<!-- covalence -->
<g id="node1" class="node">
<title>covalence</title>
<polygon fill="none" stroke="black" points="102.62,-1078.94 18.38,-1078.94 18.38,-1042.94 102.62,-1042.94 102.62,-1078.94"/>
<text text-anchor="middle" x="60.5" y="-1056.64" font-family="sans-serif" font-size="14.00">covalence</text>
</g>
<!-- client -->
<g id="node5" class="node">
<title>client</title>
<polygon fill="none" stroke="black" points="350.12,-1133.94 296.12,-1133.94 296.12,-1097.94 350.12,-1097.94 350.12,-1133.94"/>
<text text-anchor="middle" x="323.12" y="-1111.64" font-family="sans-serif" font-size="14.00">client</text>
</g>
<!-- covalence&#45;&gt;client -->
<g id="edge1" class="edge">
<title>covalence&#45;&gt;client</title>
<path fill="none" stroke="black" d="M102.76,-1056.87C139.81,-1054.54 195.28,-1054.35 241.25,-1067.94 258.17,-1072.94 275.22,-1082.27 289.27,-1091.38"/>
<polygon fill="black" stroke="black" points="286.98,-1094.06 297.22,-1096.76 290.9,-1088.26 286.98,-1094.06"/>
</g>
<!-- fuse -->
<g id="node11" class="node">
<title>fuse</title>
<polygon fill="none" stroke="black" points="582.38,-1383.94 528.38,-1383.94 528.38,-1347.94 582.38,-1347.94 582.38,-1383.94"/>
<text text-anchor="middle" x="555.38" y="-1361.64" font-family="sans-serif" font-size="14.00">fuse</text>
</g>
<!-- covalence&#45;&gt;fuse -->
<g id="edge2" class="edge">
<title>covalence&#45;&gt;fuse</title>
<path fill="none" stroke="black" d="M62.42,-1079.43C65.86,-1126.69 81.97,-1252.35 157,-1311.94 264.09,-1396.98 440.78,-1383.31 517.22,-1372.34"/>
<polygon fill="black" stroke="black" points="517.32,-1375.87 526.68,-1370.91 516.27,-1368.95 517.32,-1375.87"/>
</g>
<!-- git -->
<g id="node12" class="node">
<title>git</title>
<polygon fill="none" stroke="black" points="465.5,-1621.94 411.5,-1621.94 411.5,-1585.94 465.5,-1585.94 465.5,-1621.94"/>
<text text-anchor="middle" x="438.5" y="-1599.64" font-family="sans-serif" font-size="14.00">git</text>
</g>
<!-- covalence&#45;&gt;git -->
<g id="edge3" class="edge">
<title>covalence&#45;&gt;git</title>
<path fill="none" stroke="black" d="M62.35,-1079.34C65.74,-1135.12 81.99,-1305.44 157,-1418.94 217.11,-1509.88 338.92,-1566.63 400.33,-1590.65"/>
<polygon fill="black" stroke="black" points="399.06,-1593.91 409.65,-1594.21 401.56,-1587.37 399.06,-1593.91"/>
</g>
<!-- hash -->
<g id="node15" class="node">
<title>hash</title>
<polygon fill="none" stroke="black" points="863.38,-1301.94 809.38,-1301.94 809.38,-1265.94 863.38,-1265.94 863.38,-1301.94"/>
<text text-anchor="middle" x="836.38" y="-1279.64" font-family="sans-serif" font-size="14.00">hash</text>
</g>
<!-- covalence&#45;&gt;hash -->
<g id="edge4" class="edge">
<title>covalence&#45;&gt;hash</title>
<path fill="none" stroke="black" d="M67.55,-1079.41C79.18,-1111.65 107.93,-1177.64 157,-1207.94 368.64,-1338.61 689.23,-1306.1 797.87,-1290.15"/>
<polygon fill="black" stroke="black" points="798.31,-1293.62 807.68,-1288.66 797.27,-1286.7 798.31,-1293.62"/>
</g>
<!-- hol -->
<g id="node17" class="node">
<title>hol</title>
<polygon fill="none" stroke="black" points="863.38,-407.94 809.38,-407.94 809.38,-371.94 863.38,-371.94 863.38,-407.94"/>
<text text-anchor="middle" x="836.38" y="-385.64" font-family="sans-serif" font-size="14.00">hol</text>
</g>
<!-- covalence&#45;&gt;hol -->
<g id="edge5" class="edge">
<title>covalence&#45;&gt;hol</title>
<path fill="none" stroke="black" d="M64.3,-1042.77C81.43,-934.79 176.29,-381.94 322.12,-381.94 322.12,-381.94 322.12,-381.94 556.38,-381.94 642.87,-381.94 744.39,-385.83 797.93,-388.18"/>
<polygon fill="black" stroke="black" points="797.57,-391.67 807.71,-388.62 797.88,-384.68 797.57,-391.67"/>
</g>
<!-- lsp -->
<g id="node27" class="node">
<title>lsp</title>
<polygon fill="none" stroke="black" points="863.38,-1171.94 809.38,-1171.94 809.38,-1135.94 863.38,-1135.94 863.38,-1171.94"/>
<text text-anchor="middle" x="836.38" y="-1149.64" font-family="sans-serif" font-size="14.00">lsp</text>
</g>
<!-- covalence&#45;&gt;lsp -->
<g id="edge6" class="edge">
<title>covalence&#45;&gt;lsp</title>
<path fill="none" stroke="black" d="M63.69,-1042.65C69.78,-1001.06 91.03,-899.67 157,-856.94 236.08,-805.71 275.34,-844.61 369,-854.94 541.03,-873.91 613.14,-870.13 732,-995.94 762.44,-1028.15 743.48,-1052.02 768,-1088.94 777.55,-1103.32 790.78,-1116.95 802.98,-1127.99"/>
<polygon fill="black" stroke="black" points="800.65,-1130.6 810.48,-1134.54 805.25,-1125.33 800.65,-1130.6"/>
</g>
<!-- object -->
<g id="node31" class="node">
<title>object</title>
<polygon fill="none" stroke="black" points="714,-1178.94 656.75,-1178.94 656.75,-1142.94 714,-1142.94 714,-1178.94"/>
<text text-anchor="middle" x="685.38" y="-1156.64" font-family="sans-serif" font-size="14.00">object</text>
</g>
<!-- covalence&#45;&gt;object -->
<g id="edge7" class="edge">
<title>covalence&#45;&gt;object</title>
<path fill="none" stroke="black" d="M67.08,-1042.5C78.28,-1008.78 106.83,-937.27 157,-900.94 233.93,-845.23 276.18,-853.76 369,-873.94 418.17,-884.62 436.17,-885.61 472,-920.94 498.62,-947.18 485.92,-966.78 508,-996.94 549.28,-1053.31 611.82,-1105.96 650.27,-1135.74"/>
<polygon fill="black" stroke="black" points="647.77,-1138.22 657.83,-1141.53 652.02,-1132.67 647.77,-1138.22"/>
</g>
<!-- opentheory -->
<g id="node32" class="node">
<title>opentheory</title>
<polygon fill="none" stroke="black" points="368.62,-583.94 277.62,-583.94 277.62,-547.94 368.62,-547.94 368.62,-583.94"/>
<text text-anchor="middle" x="323.12" y="-561.64" font-family="sans-serif" font-size="14.00">opentheory</text>
</g>
<!-- covalence&#45;&gt;opentheory -->
<g id="edge8" class="edge">
<title>covalence&#45;&gt;opentheory</title>
<path fill="none" stroke="black" d="M65.26,-1042.58C75.34,-995.7 105.76,-868.61 157,-773.94 195.97,-701.93 260.33,-629.74 296.1,-592.27"/>
<polygon fill="black" stroke="black" points="298.23,-595.1 302.65,-585.47 293.19,-590.24 298.23,-595.1"/>
</g>
<!-- proto -->
<g id="node36" class="node">
<title>proto</title>
<polygon fill="none" stroke="black" points="350.12,-965.94 296.12,-965.94 296.12,-929.94 350.12,-929.94 350.12,-965.94"/>
<text text-anchor="middle" x="323.12" y="-943.64" font-family="sans-serif" font-size="14.00">proto</text>
</g>
<!-- covalence&#45;&gt;proto -->
<g id="edge9" class="edge">
<title>covalence&#45;&gt;proto</title>
<path fill="none" stroke="black" d="M103.08,-1042.91C153.35,-1021.11 237.16,-984.78 285.22,-963.94"/>
<polygon fill="black" stroke="black" points="286.6,-967.15 294.38,-959.97 283.82,-960.73 286.6,-967.15"/>
</g>
<!-- repl -->
<g id="node42" class="node">
<title>repl</title>
<polygon fill="none" stroke="black" points="350.12,-1437.94 296.12,-1437.94 296.12,-1401.94 350.12,-1401.94 350.12,-1437.94"/>
<text text-anchor="middle" x="323.12" y="-1415.64" font-family="sans-serif" font-size="14.00">repl</text>
</g>
<!-- covalence&#45;&gt;repl -->
<g id="edge10" class="edge">
<title>covalence&#45;&gt;repl</title>
<path fill="none" stroke="black" d="M60.78,-1079.11C59.65,-1134.65 64.33,-1303.48 157,-1387.94 191.57,-1419.44 247.52,-1424.05 284.56,-1423.09"/>
<polygon fill="black" stroke="black" points="284.52,-1426.59 294.36,-1422.67 284.22,-1419.6 284.52,-1426.59"/>
</g>
<!-- serve -->
<g id="node44" class="node">
<title>serve</title>
<polygon fill="none" stroke="black" points="226.12,-1198.94 172.12,-1198.94 172.12,-1162.94 226.12,-1162.94 226.12,-1198.94"/>
<text text-anchor="middle" x="199.12" y="-1176.64" font-family="sans-serif" font-size="14.00">serve</text>
</g>
<!-- covalence&#45;&gt;serve -->
<g id="edge11" class="edge">
<title>covalence&#45;&gt;serve</title>
<path fill="none" stroke="black" d="M82.55,-1079.42C105.68,-1099.74 143,-1132.52 168.95,-1155.31"/>
<polygon fill="black" stroke="black" points="166.32,-1157.66 176.14,-1161.63 170.94,-1152.4 166.32,-1157.66"/>
</g>
<!-- shell -->
<g id="node46" class="node">
<title>shell</title>
<polygon fill="none" stroke="black" points="465.5,-965.94 411.5,-965.94 411.5,-929.94 465.5,-929.94 465.5,-965.94"/>
<text text-anchor="middle" x="438.5" y="-943.64" font-family="sans-serif" font-size="14.00">shell</text>
</g>
<!-- covalence&#45;&gt;shell -->
<g id="edge12" class="edge">
<title>covalence&#45;&gt;shell</title>
<path fill="none" stroke="black" d="M76.33,-1042.48C108.23,-1004.48 187.75,-918.51 277.25,-887.94 315.84,-874.76 330.83,-873.58 369,-887.94 386.91,-894.67 403.2,-908.46 415.4,-921.11"/>
<polygon fill="black" stroke="black" points="412.81,-923.46 422.14,-928.48 417.97,-918.74 412.81,-923.46"/>
</g>
<!-- store -->
<g id="node50" class="node">
<title>store</title>
<polygon fill="none" stroke="black" points="712.38,-1779.94 658.38,-1779.94 658.38,-1743.94 712.38,-1743.94 712.38,-1779.94"/>
<text text-anchor="middle" x="685.38" y="-1757.64" font-family="sans-serif" font-size="14.00">store</text>
</g>
<!-- covalence&#45;&gt;store -->
<g id="edge13" class="edge">
<title>covalence&#45;&gt;store</title>
<path fill="none" stroke="black" d="M61.9,-1079.29C64,-1140.04 76.94,-1338.47 157,-1474.94 255.91,-1643.53 321.47,-1681.52 508,-1739.94 554.5,-1754.5 610.74,-1759.47 647.02,-1761.14"/>
<polygon fill="black" stroke="black" points="646.41,-1764.61 656.54,-1761.51 646.69,-1757.62 646.41,-1764.61"/>
</g>
<!-- wasm -->
<g id="node53" class="node">
<title>wasm</title>
<polygon fill="none" stroke="black" points="1004.75,-1955.94 950.5,-1955.94 950.5,-1919.94 1004.75,-1919.94 1004.75,-1955.94"/>
<text text-anchor="middle" x="977.62" y="-1933.64" font-family="sans-serif" font-size="14.00">wasm</text>
</g>
<!-- covalence&#45;&gt;wasm -->
<g id="edge14" class="edge">
<title>covalence&#45;&gt;wasm</title>
<path fill="none" stroke="black" d="M62.02,-1079.15C64.52,-1145.35 78.72,-1378.26 157,-1548.94 262.16,-1778.22 281.09,-1884.76 508,-1994.94 655.12,-2066.37 857.61,-1991.81 939.77,-1955.45"/>
<polygon fill="black" stroke="black" points="941.03,-1958.72 948.71,-1951.43 938.15,-1952.34 941.03,-1958.72"/>
</g>
<!-- acset -->
<g id="node2" class="node">
<title>acset</title>
<polygon fill="none" stroke="black" points="863.38,-949.94 809.38,-949.94 809.38,-913.94 863.38,-913.94 863.38,-949.94"/>
<text text-anchor="middle" x="836.38" y="-927.64" font-family="sans-serif" font-size="14.00">acset</text>
</g>
<!-- alethe -->
<g id="node3" class="node">
<title>alethe</title>
<polygon fill="none" stroke="black" points="583.62,-627.94 527.12,-627.94 527.12,-591.94 583.62,-591.94 583.62,-627.94"/>
<text text-anchor="middle" x="555.38" y="-605.64" font-family="sans-serif" font-size="14.00">alethe</text>
</g>
<!-- core -->
<g id="node6" class="node">
<title>core</title>
<polygon fill="#ffd6d6" stroke="black" points="1004.62,-407.94 950.62,-407.94 950.62,-371.94 1004.62,-371.94 1004.62,-407.94"/>
<text text-anchor="middle" x="977.62" y="-385.64" font-family="sans-serif" font-size="14.00">core</text>
</g>
<!-- alethe&#45;&gt;core -->
<g id="edge15" class="edge">
<title>alethe&#45;&gt;core</title>
<path fill="none" stroke="black" d="M582.97,-591.65C622,-565.51 697.8,-517.37 768,-487.94 826.17,-463.55 848.89,-479.25 904.75,-449.94 921.47,-441.16 937.82,-427.99 950.69,-416.22"/>
<polygon fill="black" stroke="black" points="953.04,-418.82 957.91,-409.41 948.23,-413.73 953.04,-418.82"/>
</g>
<!-- hol&#45;eval -->
<g id="node19" class="node">
<title>hol&#45;eval</title>
<polygon fill="none" stroke="black" points="871.38,-261.94 801.38,-261.94 801.38,-225.94 871.38,-225.94 871.38,-261.94"/>
<text text-anchor="middle" x="836.38" y="-239.64" font-family="sans-serif" font-size="14.00">hol&#45;eval</text>
</g>
<!-- alethe&#45;&gt;hol&#45;eval -->
<g id="edge16" class="edge">
<title>alethe&#45;&gt;hol&#45;eval</title>
<path fill="none" stroke="black" d="M565.82,-591.66C598.87,-528.27 710.41,-319.14 768,-270.94 774.58,-265.43 782.44,-260.93 790.42,-257.31"/>
<polygon fill="black" stroke="black" points="791.55,-260.63 799.48,-253.61 788.9,-254.15 791.55,-260.63"/>
</g>
<!-- init -->
<g id="node21" class="node">
<title>init</title>
<polygon fill="none" stroke="black" points="712.38,-673.94 658.38,-673.94 658.38,-637.94 712.38,-637.94 712.38,-673.94"/>
<text text-anchor="middle" x="685.38" y="-651.64" font-family="sans-serif" font-size="14.00">init</text>
</g>
<!-- alethe&#45;&gt;init -->
<g id="edge17" class="edge">
<title>alethe&#45;&gt;init</title>
<path fill="none" stroke="black" d="M583.83,-619.8C602.43,-626.49 627.21,-635.39 647.52,-642.69"/>
<polygon fill="black" stroke="black" points="646.25,-645.96 656.85,-646.04 648.62,-639.37 646.25,-645.96"/>
</g>
<!-- sexp -->
<g id="node45" class="node">
<title>sexp</title>
<polygon fill="none" stroke="black" points="1004.62,-1033.94 950.62,-1033.94 950.62,-997.94 1004.62,-997.94 1004.62,-1033.94"/>
<text text-anchor="middle" x="977.62" y="-1011.64" font-family="sans-serif" font-size="14.00">sexp</text>
</g>
<!-- alethe&#45;&gt;sexp -->
<g id="edge18" class="edge">
<title>alethe&#45;&gt;sexp</title>
<path fill="none" stroke="black" d="M573.59,-628.38C589.34,-644.44 613.92,-667.5 638.75,-682.94 676.76,-706.56 702.68,-687.13 732,-720.94 775.22,-770.78 722.28,-817.37 768,-864.94 811.88,-910.59 853.97,-867.1 904.75,-904.94 933.13,-926.09 953.4,-962.02 965.03,-987.27"/>
<polygon fill="black" stroke="black" points="961.78,-988.56 969.01,-996.3 968.18,-985.74 961.78,-988.56"/>
</g>
<!-- smt -->
<g id="node47" class="node">
<title>smt</title>
<polygon fill="none" stroke="black" points="712.38,-819.94 658.38,-819.94 658.38,-783.94 712.38,-783.94 712.38,-819.94"/>
<text text-anchor="middle" x="685.38" y="-797.64" font-family="sans-serif" font-size="14.00">smt</text>
</g>
<!-- alethe&#45;&gt;smt -->
<g id="edge19" class="edge">
<title>alethe&#45;&gt;smt</title>
<path fill="none" stroke="black" d="M561.71,-628.31C572,-661.09 597.3,-730.42 638.75,-774.94 641.77,-778.18 645.26,-781.16 648.95,-783.85"/>
<polygon fill="black" stroke="black" points="646.79,-786.62 657.08,-789.15 650.61,-780.76 646.79,-786.62"/>
</g>
<!-- types -->
<g id="node52" class="node">
<title>types</title>
<polygon fill="#ffd6d6" stroke="black" points="1445.5,-430.94 1391.5,-430.94 1391.5,-394.94 1445.5,-394.94 1445.5,-430.94"/>
<text text-anchor="middle" x="1418.5" y="-408.64" font-family="sans-serif" font-size="14.00">types</text>
</g>
<!-- alethe&#45;&gt;types -->
<g id="edge20" class="edge">
<title>alethe&#45;&gt;types</title>
<path fill="none" stroke="black" d="M583.72,-603.29C650.42,-587.66 827.01,-549.94 976.62,-549.94 976.62,-549.94 976.62,-549.94 1194.25,-549.94 1277.71,-549.94 1356.25,-479.52 1394.02,-439.66"/>
<polygon fill="black" stroke="black" points="1396.4,-442.24 1400.64,-432.52 1391.27,-437.48 1396.4,-442.24"/>
</g>
<!-- arrow -->
<g id="node4" class="node">
<title>arrow</title>
<polygon fill="none" stroke="black" points="582.38,-1475.94 528.38,-1475.94 528.38,-1439.94 582.38,-1439.94 582.38,-1475.94"/>
<text text-anchor="middle" x="555.38" y="-1453.64" font-family="sans-serif" font-size="14.00">arrow</text>
</g>
<!-- client&#45;&gt;hash -->
<g id="edge21" class="edge">
<title>client&#45;&gt;hash</title>
<path fill="none" stroke="black" d="M350.59,-1101.65C365.99,-1094.16 386.04,-1085.76 405,-1081.94 477.13,-1067.39 675.52,-1086.78 732,-1133.94 759.77,-1157.12 747.92,-1176.85 768,-1206.94 779.92,-1224.8 795.61,-1242.97 808.85,-1257.16"/>
<polygon fill="black" stroke="black" points="806.25,-1259.51 815.68,-1264.35 811.33,-1254.69 806.25,-1259.51"/>
</g>
<!-- client&#45;&gt;shell -->
<g id="edge22" class="edge">
<title>client&#45;&gt;shell</title>
<path fill="none" stroke="black" d="M350.22,-1101.39C357.08,-1096.57 363.96,-1090.68 369,-1083.94 398.3,-1044.77 378.89,-1021.3 405,-979.94 406.14,-978.13 407.4,-976.35 408.75,-974.6"/>
<polygon fill="black" stroke="black" points="411.06,-977.28 414.99,-967.44 405.78,-972.68 411.06,-977.28"/>
</g>
<!-- client&#45;&gt;store -->
<g id="edge23" class="edge">
<title>client&#45;&gt;store</title>
<path fill="none" stroke="black" d="M331.57,-1134.21C352.3,-1182.96 415.33,-1317.52 508,-1392.94 543.19,-1421.57 574.86,-1395.15 602.75,-1430.94 676.08,-1525.04 595.25,-1585.85 638.75,-1696.94 643.96,-1710.24 652.43,-1723.43 660.67,-1734.41"/>
<polygon fill="black" stroke="black" points="657.89,-1736.55 666.82,-1742.25 663.4,-1732.22 657.89,-1736.55"/>
</g>
<!-- pure -->
<g id="node37" class="node">
<title>pure</title>
<polygon fill="#ffd6d6" stroke="black" points="1220.25,-338.94 1166.25,-338.94 1166.25,-302.94 1220.25,-302.94 1220.25,-338.94"/>
<text text-anchor="middle" x="1193.25" y="-316.64" font-family="sans-serif" font-size="14.00">pure</text>
</g>
<!-- core&#45;&gt;pure -->
<g id="edge24" class="edge">
<title>core&#45;&gt;pure</title>
<path fill="none" stroke="black" d="M999.41,-371.47C1012.99,-360.47 1031.66,-347.26 1050.5,-339.94 1084.17,-326.86 1125.34,-322.51 1154.62,-321.19"/>
<polygon fill="black" stroke="black" points="1154.6,-324.69 1164.48,-320.85 1154.37,-317.7 1154.6,-324.69"/>
</g>
<!-- pure&#45;eval -->
<g id="node38" class="node">
<title>pure&#45;eval</title>
<polygon fill="#ffd6d6" stroke="black" points="1130.25,-384.94 1050.5,-384.94 1050.5,-348.94 1130.25,-348.94 1130.25,-384.94"/>
<text text-anchor="middle" x="1090.38" y="-362.64" font-family="sans-serif" font-size="14.00">pure&#45;eval</text>
</g>
<!-- core&#45;&gt;pure&#45;eval -->
<g id="edge25" class="edge">
<title>core&#45;&gt;pure&#45;eval</title>
<path fill="none" stroke="black" d="M1004.87,-384.49C1015.15,-382.35 1027.3,-379.83 1039.13,-377.37"/>
<polygon fill="black" stroke="black" points="1039.74,-380.82 1048.82,-375.36 1038.32,-373.96 1039.74,-380.82"/>
</g>
<!-- core&#45;&gt;types -->
<g id="edge26" class="edge">
<title>core&#45;&gt;types</title>
<path fill="none" stroke="black" d="M1004.91,-391.42C1018.52,-392.19 1035.4,-393.13 1050.5,-393.94 1171,-400.41 1313.78,-407.69 1380.14,-411.05"/>
<polygon fill="black" stroke="black" points="1379.57,-414.53 1389.73,-411.54 1379.92,-407.53 1379.57,-414.53"/>
</g>
<!-- core&#45;test&#45;guest -->
<g id="node7" class="node">
<title>core&#45;test&#45;guest</title>
<polygon fill="none" stroke="black" points="121,-1860.94 0,-1860.94 0,-1824.94 121,-1824.94 121,-1860.94"/>
<text text-anchor="middle" x="60.5" y="-1838.64" font-family="sans-serif" font-size="14.00">core&#45;test&#45;guest</text>
</g>
<!-- crypto&#45;sig -->
<g id="node8" class="node">
<title>crypto&#45;sig</title>
<polygon fill="none" stroke="black" points="241.25,-2169.94 157,-2169.94 157,-2133.94 241.25,-2133.94 241.25,-2169.94"/>
<text text-anchor="middle" x="199.12" y="-2147.64" font-family="sans-serif" font-size="14.00">crypto&#45;sig</text>
</g>
<!-- egglog -->
<g id="node9" class="node">
<title>egglog</title>
<polygon fill="none" stroke="black" points="866.88,-819.94 805.88,-819.94 805.88,-783.94 866.88,-783.94 866.88,-819.94"/>
<text text-anchor="middle" x="836.38" y="-797.64" font-family="sans-serif" font-size="14.00">egglog</text>
</g>
<!-- egglog&#45;&gt;sexp -->
<g id="edge27" class="edge">
<title>egglog&#45;&gt;sexp</title>
<path fill="none" stroke="black" d="M867.26,-810.6C880.21,-815.63 894.67,-823.15 904.75,-833.94 945.54,-877.57 964.2,-947.11 971.89,-986.39"/>
<polygon fill="black" stroke="black" points="968.42,-986.86 973.67,-996.06 975.3,-985.6 968.42,-986.86"/>
</g>
<!-- egglog&#45;&gt;types -->
<g id="edge28" class="edge">
<title>egglog&#45;&gt;types</title>
<path fill="none" stroke="black" d="M867.24,-801.16C914.42,-799.99 1009.08,-797.94 1089.38,-797.94 1089.38,-797.94 1089.38,-797.94 1194.25,-797.94 1266.99,-797.94 1304.07,-821.37 1355.5,-769.94 1401.52,-723.91 1413.65,-519.04 1416.61,-442.19"/>
<polygon fill="black" stroke="black" points="1420.1,-442.63 1416.96,-432.51 1413.1,-442.38 1420.1,-442.63"/>
</g>
<!-- forsp -->
<g id="node10" class="node">
<title>forsp</title>
<polygon fill="none" stroke="black" points="712.38,-1086.94 658.38,-1086.94 658.38,-1050.94 712.38,-1050.94 712.38,-1086.94"/>
<text text-anchor="middle" x="685.38" y="-1064.64" font-family="sans-serif" font-size="14.00">forsp</text>
</g>
<!-- forsp&#45;&gt;hash -->
<g id="edge29" class="edge">
<title>forsp&#45;&gt;hash</title>
<path fill="none" stroke="black" d="M712.54,-1083C719.67,-1087.88 726.84,-1093.92 732,-1100.94 763.21,-1143.41 741.02,-1168.66 768,-1213.94 777.7,-1230.22 791.87,-1245.7 804.71,-1257.94"/>
<polygon fill="black" stroke="black" points="802.07,-1260.26 811.79,-1264.46 806.81,-1255.11 802.07,-1260.26"/>
</g>
<!-- forsp&#45;&gt;sexp -->
<g id="edge30" class="edge">
<title>forsp&#45;&gt;sexp</title>
<path fill="none" stroke="black" d="M712.52,-1083.72C719.49,-1088.54 726.57,-1094.38 732,-1100.94 756.85,-1130.98 735.26,-1159.77 768,-1180.94 819.04,-1213.94 853.91,-1214.24 904.75,-1180.94 950.72,-1150.82 967.45,-1084.2 973.42,-1045.45"/>
<polygon fill="black" stroke="black" points="976.87,-1046.05 974.77,-1035.66 969.94,-1045.09 976.87,-1046.05"/>
</g>
<!-- fuse&#45;&gt;hash -->
<g id="edge31" class="edge">
<title>fuse&#45;&gt;hash</title>
<path fill="none" stroke="black" d="M582.87,-1358.15C632.86,-1343.46 741.18,-1311.62 798.34,-1294.82"/>
<polygon fill="black" stroke="black" points="798.99,-1298.28 807.6,-1292.1 797.02,-1291.56 798.99,-1298.28"/>
</g>
<!-- fuse&#45;&gt;object -->
<g id="edge32" class="edge">
<title>fuse&#45;&gt;object</title>
<path fill="none" stroke="black" d="M582.4,-1351.49C589.63,-1346.6 597.05,-1340.65 602.75,-1333.94 639.79,-1290.3 663.95,-1227.01 675.79,-1190.3"/>
<polygon fill="black" stroke="black" points="679.11,-1191.41 678.75,-1180.82 672.43,-1189.33 679.11,-1191.41"/>
</g>
<!-- fuse&#45;&gt;store -->
<g id="edge33" class="edge">
<title>fuse&#45;&gt;store</title>
<path fill="none" stroke="black" d="M582.87,-1378.71C590.48,-1383.66 598,-1390.07 602.75,-1397.94 671.95,-1512.51 590.86,-1571.95 638.75,-1696.94 643.86,-1710.28 652.31,-1723.47 660.56,-1734.45"/>
<polygon fill="black" stroke="black" points="657.8,-1736.59 666.73,-1742.29 663.3,-1732.26 657.8,-1736.59"/>
</g>
<!-- git&#45;&gt;hash -->
<g id="edge34" class="edge">
<title>git&#45;&gt;hash</title>
<path fill="none" stroke="black" d="M465.67,-1603.95C521.5,-1602.59 653.61,-1591.78 732,-1522.94 795.99,-1466.73 821.78,-1363.81 830.94,-1313.38"/>
<polygon fill="black" stroke="black" points="834.35,-1314.25 832.58,-1303.8 827.45,-1313.07 834.35,-1314.25"/>
</g>
<!-- git&#45;&gt;object -->
<g id="edge35" class="edge">
<title>git&#45;&gt;object</title>
<path fill="none" stroke="black" d="M465.57,-1585.5C468.05,-1582.87 470.27,-1580 472,-1576.94 524.58,-1483.77 443.47,-1424.27 508,-1338.94 535.89,-1302.05 568.18,-1326.66 602.75,-1295.94 636.15,-1266.25 660.13,-1219.57 673.13,-1189.61"/>
<polygon fill="black" stroke="black" points="676.35,-1190.99 676.99,-1180.42 669.9,-1188.29 676.35,-1190.99"/>
</g>
<!-- sqlite -->
<g id="node49" class="node">
<title>sqlite</title>
<polygon fill="none" stroke="black" points="863.38,-1779.94 809.38,-1779.94 809.38,-1743.94 863.38,-1743.94 863.38,-1779.94"/>
<text text-anchor="middle" x="836.38" y="-1757.64" font-family="sans-serif" font-size="14.00">sqlite</text>
</g>
<!-- git&#45;&gt;sqlite -->
<g id="edge36" class="edge">
<title>git&#45;&gt;sqlite</title>
<path fill="none" stroke="black" d="M465.83,-1614.75C478.56,-1619.96 494.07,-1626.3 508,-1631.94 550.05,-1648.96 563.21,-1647.69 602.75,-1669.94 620.18,-1679.74 621.02,-1687.68 638.75,-1696.94 691.21,-1724.34 757.52,-1743.38 798.17,-1753.48"/>
<polygon fill="black" stroke="black" points="797.15,-1756.84 807.69,-1755.79 798.8,-1750.03 797.15,-1756.84"/>
</g>
<!-- git&#45;&gt;store -->
<g id="edge37" class="edge">
<title>git&#45;&gt;store</title>
<path fill="none" stroke="black" d="M455.69,-1622.29C468.83,-1636.47 488.35,-1655.97 508,-1669.94 546.48,-1697.28 560.91,-1696.07 602.75,-1717.94 617.67,-1725.74 634.03,-1734.51 648.16,-1742.16"/>
<polygon fill="black" stroke="black" points="646.21,-1745.08 656.67,-1746.78 649.55,-1738.93 646.21,-1745.08"/>
</g>
<!-- grammar -->
<g id="node13" class="node">
<title>grammar</title>
<polygon fill="none" stroke="black" points="1014.5,-613.94 940.75,-613.94 940.75,-577.94 1014.5,-577.94 1014.5,-613.94"/>
<text text-anchor="middle" x="977.62" y="-591.64" font-family="sans-serif" font-size="14.00">grammar</text>
</g>
<!-- grammar&#45;&gt;types -->
<g id="edge38" class="edge">
<title>grammar&#45;&gt;types</title>
<path fill="none" stroke="black" d="M1014.76,-604.2C1087.21,-618.55 1252.12,-639.78 1355.5,-563.94 1394.61,-535.25 1409.14,-477.42 1414.47,-442.25"/>
<polygon fill="black" stroke="black" points="1417.88,-443.14 1415.75,-432.76 1410.94,-442.21 1417.88,-443.14"/>
</g>
<!-- graph -->
<g id="node14" class="node">
<title>graph</title>
<polygon fill="none" stroke="black" points="465.5,-1567.94 411.5,-1567.94 411.5,-1531.94 465.5,-1531.94 465.5,-1567.94"/>
<text text-anchor="middle" x="438.5" y="-1545.64" font-family="sans-serif" font-size="14.00">graph</text>
</g>
<!-- graph&#45;&gt;hash -->
<g id="edge39" class="edge">
<title>graph&#45;&gt;hash</title>
<path fill="none" stroke="black" d="M465.74,-1551.43C521.14,-1553.18 651.54,-1549.71 732,-1485.94 788.4,-1441.23 816.94,-1357.47 828.67,-1313.16"/>
<polygon fill="black" stroke="black" points="831.99,-1314.3 831.05,-1303.74 825.21,-1312.58 831.99,-1314.3"/>
</g>
<!-- parse -->
<g id="node34" class="node">
<title>parse</title>
<polygon fill="none" stroke="black" points="1117.38,-1167.94 1063.38,-1167.94 1063.38,-1131.94 1117.38,-1131.94 1117.38,-1167.94"/>
<text text-anchor="middle" x="1090.38" y="-1145.64" font-family="sans-serif" font-size="14.00">parse</text>
</g>
<!-- graph&#45;&gt;parse -->
<g id="edge40" class="edge">
<title>graph&#45;&gt;parse</title>
<path fill="none" stroke="black" d="M465.75,-1554.68C478.46,-1556.74 493.98,-1558.92 508,-1559.94 608.64,-1567.24 641.64,-1567.85 732,-1522.94 872.57,-1453.06 915.65,-1432.88 1014.5,-1310.94 1047.46,-1270.27 1069.64,-1212.72 1080.84,-1178.57"/>
<polygon fill="black" stroke="black" points="1084.06,-1179.98 1083.75,-1169.39 1077.39,-1177.86 1084.06,-1179.98"/>
</g>
<!-- rand -->
<g id="node41" class="node">
<title>rand</title>
<polygon fill="none" stroke="black" points="1004.62,-1301.94 950.62,-1301.94 950.62,-1265.94 1004.62,-1265.94 1004.62,-1301.94"/>
<text text-anchor="middle" x="977.62" y="-1279.64" font-family="sans-serif" font-size="14.00">rand</text>
</g>
<!-- hash&#45;&gt;rand -->
<g id="edge41" class="edge">
<title>hash&#45;&gt;rand</title>
<path fill="none" stroke="black" d="M863.57,-1283.94C884.86,-1283.94 915.19,-1283.94 939.07,-1283.94"/>
<polygon fill="black" stroke="black" points="939.04,-1287.44 949.04,-1283.94 939.04,-1280.44 939.04,-1287.44"/>
</g>
<!-- haskell -->
<g id="node16" class="node">
<title>haskell</title>
<polygon fill="none" stroke="black" points="469.75,-270.94 407.25,-270.94 407.25,-234.94 469.75,-234.94 469.75,-270.94"/>
<text text-anchor="middle" x="438.5" y="-248.64" font-family="sans-serif" font-size="14.00">haskell</text>
</g>
<!-- hol&#45;api -->
<g id="node18" class="node">
<title>hol&#45;api</title>
<polygon fill="none" stroke="black" points="586.62,-190.94 524.12,-190.94 524.12,-154.94 586.62,-154.94 586.62,-190.94"/>
<text text-anchor="middle" x="555.38" y="-168.64" font-family="sans-serif" font-size="14.00">hol&#45;api</text>
</g>
<!-- haskell&#45;&gt;hol&#45;api -->
<g id="edge42" class="edge">
<title>haskell&#45;&gt;hol&#45;api</title>
<path fill="none" stroke="black" d="M465.85,-234.58C481.62,-223.61 501.85,-209.52 518.99,-197.58"/>
<polygon fill="black" stroke="black" points="520.7,-200.66 526.9,-192.07 516.69,-194.91 520.7,-200.66"/>
</g>
<!-- haskell&#45;&gt;hol&#45;eval -->
<g id="edge43" class="edge">
<title>haskell&#45;&gt;hol&#45;eval</title>
<path fill="none" stroke="black" d="M470.23,-252.24C539.49,-250.66 708.07,-246.83 789.65,-244.98"/>
<polygon fill="black" stroke="black" points="789.6,-248.48 799.52,-244.75 789.44,-241.48 789.6,-248.48"/>
</g>
<!-- haskell&#45;&gt;init -->
<g id="edge44" class="edge">
<title>haskell&#45;&gt;init</title>
<path fill="none" stroke="black" d="M439.97,-271.04C442.15,-340.17 453.66,-586.23 508,-636.94 544.91,-671.38 606.87,-669.5 646.67,-663.7"/>
<polygon fill="black" stroke="black" points="647.21,-667.16 656.51,-662.09 646.08,-660.25 647.21,-667.16"/>
</g>
<!-- haskell&#45;&gt;types -->
<g id="edge45" class="edge">
<title>haskell&#45;&gt;types</title>
<path fill="none" stroke="black" d="M446.76,-234.48C470.9,-176.51 554.4,-1.94 684.38,-1.94 684.38,-1.94 684.38,-1.94 1194.25,-1.94 1268.09,-1.94 1305.35,12.26 1355.5,-41.94 1401.49,-91.64 1413.66,-304.32 1416.62,-383.28"/>
<polygon fill="black" stroke="black" points="1413.12,-383.37 1416.97,-393.24 1420.11,-383.13 1413.12,-383.37"/>
</g>
<!-- hol&#45;&gt;core -->
<g id="edge46" class="edge">
<title>hol&#45;&gt;core</title>
<path fill="none" stroke="black" d="M863.57,-389.94C884.86,-389.94 915.19,-389.94 939.07,-389.94"/>
<polygon fill="black" stroke="black" points="939.04,-393.44 949.04,-389.94 939.04,-386.44 939.04,-393.44"/>
</g>
<!-- hol&#45;api&#45;&gt;core -->
<g id="edge47" class="edge">
<title>hol&#45;api&#45;&gt;core</title>
<path fill="none" stroke="black" d="M587.12,-166.45C602.54,-163.52 621.55,-160.39 638.75,-158.94 680.05,-155.45 691.36,-150.81 732,-158.94 749,-162.34 751.72,-168 768,-173.94 827.86,-195.77 857.74,-173.94 904.75,-216.94 946.74,-255.35 964.91,-322.07 972.2,-360.46"/>
<polygon fill="black" stroke="black" points="968.73,-360.9 973.91,-370.14 975.62,-359.69 968.73,-360.9"/>
</g>
<!-- hol&#45;api&#45;&gt;hol&#45;eval -->
<g id="edge48" class="edge">
<title>hol&#45;api&#45;&gt;hol&#45;eval</title>
<path fill="none" stroke="black" d="M586.94,-167.44C623.09,-162.35 684.37,-158.21 732,-177.94 752.33,-186.36 749.84,-199.51 768,-211.94 775.06,-216.77 782.96,-221.24 790.8,-225.21"/>
<polygon fill="black" stroke="black" points="789.11,-228.27 799.63,-229.47 792.15,-221.97 789.11,-228.27"/>
</g>
<!-- inductive -->
<g id="node20" class="node">
<title>inductive</title>
<polygon fill="none" stroke="black" points="874.75,-315.94 798,-315.94 798,-279.94 874.75,-279.94 874.75,-315.94"/>
<text text-anchor="middle" x="836.38" y="-293.64" font-family="sans-serif" font-size="14.00">inductive</text>
</g>
<!-- hol&#45;api&#45;&gt;inductive -->
<g id="edge49" class="edge">
<title>hol&#45;api&#45;&gt;inductive</title>
<path fill="none" stroke="black" d="M586.99,-187.73C627.94,-207.37 702.94,-242.86 768,-270.94 774.3,-273.66 780.97,-276.44 787.57,-279.14"/>
<polygon fill="black" stroke="black" points="785.83,-282.21 796.41,-282.72 788.45,-275.72 785.83,-282.21"/>
</g>
<!-- hol&#45;api&#45;&gt;init -->
<g id="edge50" class="edge">
<title>hol&#45;api&#45;&gt;init</title>
<path fill="none" stroke="black" d="M564.06,-191.32C573.95,-215.46 591.24,-259.34 602.75,-297.94 638.52,-417.92 667.45,-564.52 678.98,-626.27"/>
<polygon fill="black" stroke="black" points="675.51,-626.78 680.77,-635.97 682.4,-625.5 675.51,-626.78"/>
</g>
<!-- hol&#45;api&#45;&gt;pure -->
<g id="edge51" class="edge">
<title>hol&#45;api&#45;&gt;pure</title>
<path fill="none" stroke="black" d="M586.86,-162.29C602.21,-157.47 621.24,-152.33 638.75,-149.94 679.81,-144.31 690.65,-147.08 732,-149.94 809.33,-155.28 830.73,-150.93 904.75,-173.94 1011.8,-207.2 1030.98,-234.87 1130.25,-286.94 1138.6,-291.31 1147.51,-296.13 1155.91,-300.71"/>
<polygon fill="black" stroke="black" points="1154.04,-303.68 1164.49,-305.43 1157.41,-297.55 1154.04,-303.68"/>
</g>
<!-- hol&#45;api&#45;&gt;types -->
<g id="edge52" class="edge">
<title>hol&#45;api&#45;&gt;types</title>
<path fill="none" stroke="black" d="M577.84,-154.44C622.53,-117.9 730.2,-39.94 835.38,-39.94 835.38,-39.94 835.38,-39.94 1194.25,-39.94 1274.06,-39.94 1306.47,-55.97 1355.5,-118.94 1387.63,-160.2 1407.46,-317.2 1414.55,-383.31"/>
<polygon fill="black" stroke="black" points="1411.05,-383.46 1415.57,-393.04 1418.01,-382.73 1411.05,-383.46"/>
</g>
<!-- hol&#45;eval&#45;&gt;core -->
<g id="edge53" class="edge">
<title>hol&#45;eval&#45;&gt;core</title>
<path fill="none" stroke="black" d="M871.61,-252.29C883.17,-256.41 895.48,-262.4 904.75,-270.94 931.07,-295.17 921.81,-312.58 940.75,-342.94 944.91,-349.61 949.79,-356.49 954.59,-362.87"/>
<polygon fill="black" stroke="black" points="951.66,-364.8 960.55,-370.56 957.2,-360.51 951.66,-364.8"/>
</g>
<!-- hol&#45;eval&#45;&gt;pure -->
<g id="edge54" class="edge">
<title>hol&#45;eval&#45;&gt;pure</title>
<path fill="none" stroke="black" d="M871.72,-251.39C938.48,-265.88 1085.26,-297.72 1154.58,-312.76"/>
<polygon fill="black" stroke="black" points="1153.81,-316.18 1164.33,-314.88 1155.29,-309.34 1153.81,-316.18"/>
</g>
<!-- hol&#45;eval&#45;&gt;pure&#45;eval -->
<g id="edge55" class="edge">
<title>hol&#45;eval&#45;&gt;pure&#45;eval</title>
<path fill="none" stroke="black" d="M871.58,-256.89C882.3,-261.15 894.1,-266.05 904.75,-270.94 954.27,-293.67 1009.52,-322.93 1046.57,-343.15"/>
<polygon fill="black" stroke="black" points="1044.73,-346.13 1055.18,-347.87 1048.09,-339.99 1044.73,-346.13"/>
</g>
<!-- hol&#45;eval&#45;&gt;sexp -->
<g id="edge56" class="edge">
<title>hol&#45;eval&#45;&gt;sexp</title>
<path fill="none" stroke="black" d="M871.76,-249.98C884.06,-253.9 896.82,-260.35 904.75,-270.94 907.49,-274.6 961.03,-848.35 973.87,-986.34"/>
<polygon fill="black" stroke="black" points="970.37,-986.48 974.78,-996.11 977.34,-985.83 970.37,-986.48"/>
</g>
<!-- hol&#45;eval&#45;&gt;types -->
<g id="edge57" class="edge">
<title>hol&#45;eval&#45;&gt;types</title>
<path fill="none" stroke="black" d="M870.04,-225.5C917.02,-200.78 1007.06,-159.94 1089.38,-159.94 1089.38,-159.94 1089.38,-159.94 1194.25,-159.94 1312.75,-159.94 1383.38,-317.92 1407.79,-384.21"/>
<polygon fill="black" stroke="black" points="1404.39,-385.08 1411.06,-393.32 1410.98,-382.72 1404.39,-385.08"/>
</g>
<!-- init&#45;&gt;core -->
<g id="edge58" class="edge">
<title>init&#45;&gt;core</title>
<path fill="none" stroke="black" d="M707.16,-637.62C723.44,-623.46 746.81,-603.52 768,-586.94 827.08,-540.68 851.53,-540.83 904.75,-487.94 926.23,-466.59 946.21,-438.38 959.63,-417.71"/>
<polygon fill="black" stroke="black" points="962.43,-419.82 964.85,-409.51 956.53,-416.06 962.43,-419.82"/>
</g>
<!-- init&#45;&gt;grammar -->
<g id="edge59" class="edge">
<title>init&#45;&gt;grammar</title>
<path fill="none" stroke="black" d="M712.64,-638.26C731.88,-625.69 756.54,-610.44 768,-606.94 821.38,-590.62 885.97,-589.95 929.01,-592"/>
<polygon fill="black" stroke="black" points="928.58,-595.48 938.76,-592.54 928.97,-588.5 928.58,-595.48"/>
</g>
<!-- init&#45;&gt;hash -->
<g id="edge60" class="edge">
<title>init&#45;&gt;hash</title>
<path fill="none" stroke="black" d="M703.33,-674.31C713.54,-686.56 725.75,-703.55 732,-720.94 801.37,-913.92 701.8,-986.84 768,-1180.94 777.6,-1209.09 796.69,-1237.09 812.1,-1256.77"/>
<polygon fill="black" stroke="black" points="809.37,-1258.95 818.36,-1264.55 814.82,-1254.56 809.37,-1258.95"/>
</g>
<!-- init&#45;&gt;hol -->
<g id="edge61" class="edge">
<title>init&#45;&gt;hol</title>
<path fill="none" stroke="black" d="M695.21,-637.67C709.7,-607.99 739.75,-547.58 768,-497.94 783.76,-470.25 803.13,-439.49 817.06,-417.91"/>
<polygon fill="black" stroke="black" points="819.9,-419.95 822.4,-409.66 814.03,-416.15 819.9,-419.95"/>
</g>
<!-- init&#45;&gt;hol&#45;eval -->
<g id="edge62" class="edge">
<title>init&#45;&gt;hol&#45;eval</title>
<path fill="none" stroke="black" d="M695.86,-637.75C706.41,-616.71 723.11,-580.75 732,-547.94 748.23,-488.02 729.97,-320 768,-270.94 773.76,-263.5 781.89,-258.11 790.52,-254.2"/>
<polygon fill="black" stroke="black" points="791.66,-257.51 799.75,-250.66 789.16,-250.97 791.66,-257.51"/>
</g>
<!-- init&#45;&gt;inductive -->
<g id="edge63" class="edge">
<title>init&#45;&gt;inductive</title>
<path fill="none" stroke="black" d="M695.49,-637.64C705.69,-616.5 722.09,-580.45 732,-547.94 756.43,-467.81 728.01,-436.54 768,-362.94 776.12,-348 788.85,-334.41 801.07,-323.57"/>
<polygon fill="black" stroke="black" points="803.28,-326.29 808.65,-317.16 798.76,-320.95 803.28,-326.29"/>
</g>
<!-- metamath -->
<g id="node28" class="node">
<title>metamath</title>
<polygon fill="none" stroke="black" points="876.62,-1079.94 796.12,-1079.94 796.12,-1043.94 876.62,-1043.94 876.62,-1079.94"/>
<text text-anchor="middle" x="836.38" y="-1057.64" font-family="sans-serif" font-size="14.00">metamath</text>
</g>
<!-- init&#45;&gt;metamath -->
<g id="edge64" class="edge">
<title>init&#45;&gt;metamath</title>
<path fill="none" stroke="black" d="M702.68,-674.19C712.77,-686.53 725.08,-703.66 732,-720.94 771.79,-820.24 729.84,-858.99 768,-958.94 778.61,-986.73 797.61,-1014.75 812.73,-1034.54"/>
<polygon fill="black" stroke="black" points="809.93,-1036.65 818.85,-1042.36 815.44,-1032.33 809.93,-1036.65"/>
</g>
<!-- init&#45;&gt;sexp -->
<g id="edge65" class="edge">
<title>init&#45;&gt;sexp</title>
<path fill="none" stroke="black" d="M712.8,-669.82C719.94,-674.69 727.05,-680.77 732,-687.94 768.76,-741.15 723.53,-781.97 768,-828.94 811.8,-875.2 856.28,-830.59 904.75,-871.94 940.15,-902.14 959.91,-953.99 969.4,-986.54"/>
<polygon fill="black" stroke="black" points="966.01,-987.41 972.04,-996.12 972.76,-985.55 966.01,-987.41"/>
</g>
<!-- spectec -->
<g id="node48" class="node">
<title>spectec</title>
<polygon fill="none" stroke="black" points="871,-651.94 801.75,-651.94 801.75,-615.94 871,-615.94 871,-651.94"/>
<text text-anchor="middle" x="836.38" y="-629.64" font-family="sans-serif" font-size="14.00">spectec</text>
</g>
<!-- init&#45;&gt;spectec -->
<g id="edge66" class="edge">
<title>init&#45;&gt;spectec</title>
<path fill="none" stroke="black" d="M712.67,-652.05C734.12,-648.89 764.9,-644.34 790.27,-640.6"/>
<polygon fill="black" stroke="black" points="790.61,-644.08 799.99,-639.16 789.59,-637.16 790.61,-644.08"/>
</g>
<!-- init&#45;&gt;types -->
<g id="edge67" class="edge">
<title>init&#45;&gt;types</title>
<path fill="none" stroke="black" d="M712.73,-659.58C763.62,-666.3 879.04,-679.94 976.62,-679.94 976.62,-679.94 976.62,-679.94 1194.25,-679.94 1274.45,-679.94 1303.01,-659.57 1355.5,-598.94 1394.77,-553.57 1409.35,-482.5 1414.63,-442.63"/>
<polygon fill="black" stroke="black" points="1418.09,-443.16 1415.81,-432.82 1411.14,-442.33 1418.09,-443.16"/>
</g>
<!-- json -->
<g id="node22" class="node">
<title>json</title>
<polygon fill="none" stroke="black" points="863.38,-1871.94 809.38,-1871.94 809.38,-1835.94 863.38,-1835.94 863.38,-1871.94"/>
<text text-anchor="middle" x="836.38" y="-1849.64" font-family="sans-serif" font-size="14.00">json</text>
</g>
<!-- kernel -->
<g id="node23" class="node">
<title>kernel</title>
<polygon fill="none" stroke="black" points="584,-987.94 526.75,-987.94 526.75,-951.94 584,-951.94 584,-987.94"/>
<text text-anchor="middle" x="555.38" y="-965.64" font-family="sans-serif" font-size="14.00">kernel</text>
</g>
<!-- kernel&#45;&gt;hash -->
<g id="edge68" class="edge">
<title>kernel&#45;&gt;hash</title>
<path fill="none" stroke="black" d="M584.44,-979.87C631.39,-996.73 721.79,-1030.24 732,-1041.94 773.96,-1090.02 742.19,-1122.57 768,-1180.94 780.11,-1208.31 799.14,-1236.57 813.89,-1256.54"/>
<polygon fill="black" stroke="black" points="811.02,-1258.55 819.83,-1264.44 816.61,-1254.34 811.02,-1258.55"/>
</g>
<!-- kernel&#45;&gt;init -->
<g id="edge69" class="edge">
<title>kernel&#45;&gt;init</title>
<path fill="none" stroke="black" d="M584.12,-956.07C591.22,-951.26 598.14,-945.2 602.75,-937.94 655.14,-855.4 601.74,-811.42 638.75,-720.94 644.25,-707.48 652.97,-694.08 661.31,-682.97"/>
<polygon fill="black" stroke="black" points="663.81,-685.45 667.22,-675.42 658.3,-681.14 663.81,-685.45"/>
</g>
<!-- kernel&#45;&gt;object -->
<g id="edge70" class="edge">
<title>kernel&#45;&gt;object</title>
<path fill="none" stroke="black" d="M568.65,-988.31C578.04,-1002.41 591.28,-1022.36 602.75,-1039.94 618.92,-1064.71 622.25,-1071.38 638.75,-1095.94 647.1,-1108.36 656.58,-1121.94 664.72,-1133.46"/>
<polygon fill="black" stroke="black" points="661.68,-1135.22 670.32,-1141.35 667.38,-1131.17 661.68,-1135.22"/>
</g>
<!-- kernel&#45;&gt;sexp -->
<g id="edge71" class="edge">
<title>kernel&#45;&gt;sexp</title>
<path fill="none" stroke="black" d="M584.37,-966.7C622.11,-963.93 689.48,-964.77 732,-998.94 765.58,-1025.92 732.33,-1064.78 768,-1088.94 818.33,-1123.01 848.69,-1112.41 904.75,-1088.94 926.9,-1079.66 945.67,-1059.87 958.48,-1043.23"/>
<polygon fill="black" stroke="black" points="960.97,-1045.75 964.06,-1035.62 955.32,-1041.61 960.97,-1045.75"/>
</g>
<!-- kernel&#45;&gt;store -->
<g id="edge72" class="edge">
<title>kernel&#45;&gt;store</title>
<path fill="none" stroke="black" d="M558.85,-988.35C566.07,-1042.21 587.51,-1204.21 602.75,-1338.94 620.72,-1497.84 583,-1547.06 638.75,-1696.94 643.73,-1710.33 652.16,-1723.53 660.42,-1734.5"/>
<polygon fill="black" stroke="black" points="657.67,-1736.66 666.61,-1742.33 663.16,-1732.32 657.67,-1736.66"/>
</g>
<!-- kv -->
<g id="node24" class="node">
<title>kv</title>
<polygon fill="none" stroke="black" points="226.12,-2023.94 172.12,-2023.94 172.12,-1987.94 226.12,-1987.94 226.12,-2023.94"/>
<text text-anchor="middle" x="199.12" y="-2001.64" font-family="sans-serif" font-size="14.00">kv</text>
</g>
<!-- lean -->
<g id="node25" class="node">
<title>lean</title>
<polygon fill="none" stroke="black" points="87.5,-1914.94 33.5,-1914.94 33.5,-1878.94 87.5,-1878.94 87.5,-1914.94"/>
<text text-anchor="middle" x="60.5" y="-1892.64" font-family="sans-serif" font-size="14.00">lean</text>
</g>
<!-- llm -->
<g id="node26" class="node">
<title>llm</title>
<polygon fill="none" stroke="black" points="226.12,-1112.94 172.12,-1112.94 172.12,-1076.94 226.12,-1076.94 226.12,-1112.94"/>
<text text-anchor="middle" x="199.12" y="-1090.64" font-family="sans-serif" font-size="14.00">llm</text>
</g>
<!-- llm&#45;&gt;proto -->
<g id="edge73" class="edge">
<title>llm&#45;&gt;proto</title>
<path fill="none" stroke="black" d="M211.89,-1076.62C231.47,-1046.26 269.38,-988.04 277.25,-979.94 280.15,-976.95 283.37,-974.05 286.71,-971.3"/>
<polygon fill="black" stroke="black" points="288.7,-974.18 294.49,-965.31 284.43,-968.63 288.7,-974.18"/>
</g>
<!-- lsp&#45;&gt;sexp -->
<g id="edge74" class="edge">
<title>lsp&#45;&gt;sexp</title>
<path fill="none" stroke="black" d="M863.57,-1145.27C876.9,-1139.97 892.76,-1132.22 904.75,-1121.94 930.06,-1100.21 950.39,-1067.55 962.89,-1044.23"/>
<polygon fill="black" stroke="black" points="965.87,-1046.07 967.37,-1035.58 959.66,-1042.85 965.87,-1046.07"/>
</g>
<!-- lsp&#45;&gt;wasm -->
<g id="edge75" class="edge">
<title>lsp&#45;&gt;wasm</title>
<path fill="none" stroke="black" d="M853.26,-1172.21C869.24,-1191.74 893.13,-1224.33 904.75,-1256.94 948.58,-1379.98 970.12,-1793.55 975.35,-1908.23"/>
<polygon fill="black" stroke="black" points="971.84,-1908.2 975.78,-1918.04 978.83,-1907.89 971.84,-1908.2"/>
</g>
<!-- metamath&#45;&gt;parse -->
<g id="edge76" class="edge">
<title>metamath&#45;&gt;parse</title>
<path fill="none" stroke="black" d="M877.03,-1075.78C925.15,-1092.59 1005.64,-1120.7 1052.48,-1137.05"/>
<polygon fill="black" stroke="black" points="1051.04,-1140.26 1061.64,-1140.25 1053.35,-1133.65 1051.04,-1140.26"/>
</g>
<!-- metamath&#45;&gt;sexp -->
<g id="edge77" class="edge">
<title>metamath&#45;&gt;sexp</title>
<path fill="none" stroke="black" d="M876.91,-1048.88C896.53,-1042.39 920.11,-1034.61 939.41,-1028.23"/>
<polygon fill="black" stroke="black" points="940.38,-1031.59 948.78,-1025.13 938.19,-1024.95 940.38,-1031.59"/>
</g>
<!-- multiformat -->
<g id="node29" class="node">
<title>multiformat</title>
<polygon fill="none" stroke="black" points="730.5,-765.94 640.25,-765.94 640.25,-729.94 730.5,-729.94 730.5,-765.94"/>
<text text-anchor="middle" x="685.38" y="-743.64" font-family="sans-serif" font-size="14.00">multiformat</text>
</g>
<!-- multiformat&#45;&gt;acset -->
<g id="edge78" class="edge">
<title>multiformat&#45;&gt;acset</title>
<path fill="none" stroke="black" d="M723.32,-766.23C726.55,-768.83 729.52,-771.73 732,-774.94 767.37,-820.66 730.58,-855.86 768,-899.94 776,-909.36 787.41,-916.21 798.57,-921.09"/>
<polygon fill="black" stroke="black" points="797.07,-924.26 807.66,-924.63 799.61,-917.74 797.07,-924.26"/>
</g>
<!-- multiformat&#45;&gt;hash -->
<g id="edge79" class="edge">
<title>multiformat&#45;&gt;hash</title>
<path fill="none" stroke="black" d="M724.4,-766.14C727.33,-768.74 729.94,-771.67 732,-774.94 780.3,-851.56 738.32,-1095.36 768,-1180.94 777.75,-1209.04 796.82,-1237.04 812.19,-1256.74"/>
<polygon fill="black" stroke="black" points="809.45,-1258.91 818.44,-1264.52 814.91,-1254.53 809.45,-1258.91"/>
</g>
<!-- multiformat&#45;&gt;parse -->
<g id="edge80" class="edge">
<title>multiformat&#45;&gt;parse</title>
<path fill="none" stroke="black" d="M730.82,-741.99C778.22,-738.06 853.4,-739.05 904.75,-774.94 1026.17,-859.79 1071.34,-1047.77 1084.66,-1120.45"/>
<polygon fill="black" stroke="black" points="1081.16,-1120.74 1086.34,-1129.98 1088.06,-1119.53 1081.16,-1120.74"/>
</g>
<!-- numerals -->
<g id="node30" class="node">
<title>numerals</title>
<polygon fill="none" stroke="black" points="593.75,-342.94 517,-342.94 517,-306.94 593.75,-306.94 593.75,-342.94"/>
<text text-anchor="middle" x="555.38" y="-320.64" font-family="sans-serif" font-size="14.00">numerals</text>
</g>
<!-- numerals&#45;&gt;grammar -->
<g id="edge81" class="edge">
<title>numerals&#45;&gt;grammar</title>
<path fill="none" stroke="black" d="M594.16,-324.01C674.38,-322.82 858.18,-324.49 904.75,-362.94 936.52,-389.17 961.53,-510.22 971.69,-566.73"/>
<polygon fill="black" stroke="black" points="968.19,-567.02 973.37,-576.26 975.09,-565.8 968.19,-567.02"/>
</g>
<!-- numerals&#45;&gt;hol&#45;eval -->
<g id="edge82" class="edge">
<title>numerals&#45;&gt;hol&#45;eval</title>
<path fill="none" stroke="black" d="M594.05,-317C629.84,-309.15 685.01,-296.28 732,-281.94 751.48,-275.99 772.64,-268.42 790.71,-261.6"/>
<polygon fill="black" stroke="black" points="791.74,-264.95 799.83,-258.12 789.24,-258.41 791.74,-264.95"/>
</g>
<!-- numerals&#45;&gt;init -->
<g id="edge83" class="edge">
<title>numerals&#45;&gt;init</title>
<path fill="none" stroke="black" d="M563.44,-343.2C584.59,-397.91 647.56,-560.73 673.26,-627.2"/>
<polygon fill="black" stroke="black" points="669.92,-628.25 676.79,-636.31 676.44,-625.72 669.92,-628.25"/>
</g>
<!-- numerals&#45;&gt;types -->
<g id="edge84" class="edge">
<title>numerals&#45;&gt;types</title>
<path fill="none" stroke="black" d="M576.96,-306.56C635.17,-256.59 807.69,-121.94 976.62,-121.94 976.62,-121.94 976.62,-121.94 1194.25,-121.94 1269.42,-121.94 1303.79,-118.38 1355.5,-172.94 1411.02,-231.51 1418.47,-333.06 1418.48,-383.19"/>
<polygon fill="black" stroke="black" points="1414.98,-382.94 1418.37,-392.97 1421.98,-383.01 1414.98,-382.94"/>
</g>
<!-- object&#45;&gt;hash -->
<g id="edge85" class="edge">
<title>object&#45;&gt;hash</title>
<path fill="none" stroke="black" d="M714.39,-1177.85C720.58,-1182.31 726.84,-1187.43 732,-1192.94 753.02,-1215.34 745.17,-1231.38 768,-1251.94 776.8,-1259.87 787.92,-1266.22 798.57,-1271.1"/>
<polygon fill="black" stroke="black" points="797,-1274.24 807.58,-1274.91 799.73,-1267.79 797,-1274.24"/>
</g>
<!-- object&#45;&gt;parse -->
<g id="edge86" class="edge">
<title>object&#45;&gt;parse</title>
<path fill="none" stroke="black" d="M711.01,-1179.26C726.5,-1189.61 747.39,-1201.53 768,-1206.94 869.65,-1233.61 992.68,-1191.72 1052.77,-1166.61"/>
<polygon fill="black" stroke="black" points="1054.03,-1169.88 1061.85,-1162.73 1051.28,-1163.44 1054.03,-1169.88"/>
</g>
<!-- opentheory&#45;&gt;hol -->
<g id="edge87" class="edge">
<title>opentheory&#45;&gt;hol</title>
<path fill="none" stroke="black" d="M363.13,-547.65C421.88,-520.63 537.05,-469.72 638.75,-436.94 693.17,-419.39 757.96,-405.14 797.88,-397.1"/>
<polygon fill="black" stroke="black" points="798.33,-400.58 807.45,-395.2 796.96,-393.71 798.33,-400.58"/>
</g>
<!-- parquet -->
<g id="node33" class="node">
<title>parquet</title>
<polygon fill="none" stroke="black" points="472,-1475.94 405,-1475.94 405,-1439.94 472,-1439.94 472,-1475.94"/>
<text text-anchor="middle" x="438.5" y="-1453.64" font-family="sans-serif" font-size="14.00">parquet</text>
</g>
<!-- parquet&#45;&gt;arrow -->
<g id="edge88" class="edge">
<title>parquet&#45;&gt;arrow</title>
<path fill="none" stroke="black" d="M472.42,-1457.94C486.2,-1457.94 502.29,-1457.94 516.55,-1457.94"/>
<polygon fill="black" stroke="black" points="516.5,-1461.44 526.5,-1457.94 516.5,-1454.44 516.5,-1461.44"/>
</g>
<!-- proptest -->
<g id="node35" class="node">
<title>proptest</title>
<polygon fill="none" stroke="black" points="95.88,-1968.94 25.12,-1968.94 25.12,-1932.94 95.88,-1932.94 95.88,-1968.94"/>
<text text-anchor="middle" x="60.5" y="-1946.64" font-family="sans-serif" font-size="14.00">proptest</text>
</g>
<!-- pure&#45;trusted -->
<g id="node39" class="node">
<title>pure&#45;trusted</title>
<polygon fill="#ffd6d6" stroke="black" points="1355.5,-338.94 1256.25,-338.94 1256.25,-302.94 1355.5,-302.94 1355.5,-338.94"/>
<text text-anchor="middle" x="1305.88" y="-316.64" font-family="sans-serif" font-size="14.00">pure&#45;trusted</text>
</g>
<!-- pure&#45;&gt;pure&#45;trusted -->
<g id="edge89" class="edge">
<title>pure&#45;&gt;pure&#45;trusted</title>
<path fill="none" stroke="black" d="M1220.75,-320.94C1228.04,-320.94 1236.27,-320.94 1244.64,-320.94"/>
<polygon fill="black" stroke="black" points="1244.57,-324.44 1254.57,-320.94 1244.57,-317.44 1244.57,-324.44"/>
</g>
<!-- pure&#45;eval&#45;&gt;pure -->
<g id="edge90" class="edge">
<title>pure&#45;eval&#45;&gt;pure</title>
<path fill="none" stroke="black" d="M1130.66,-349.02C1138.9,-345.27 1147.54,-341.32 1155.67,-337.62"/>
<polygon fill="black" stroke="black" points="1156.96,-340.88 1164.6,-333.54 1154.05,-334.51 1156.96,-340.88"/>
</g>
<!-- pure&#45;eval&#45;&gt;types -->
<g id="edge91" class="edge">
<title>pure&#45;eval&#45;&gt;types</title>
<path fill="none" stroke="black" d="M1130.49,-370.42C1182.21,-375.32 1276.08,-385.19 1355.5,-398.94 1363.48,-400.32 1371.98,-402.06 1380.05,-403.84"/>
<polygon fill="black" stroke="black" points="1379.06,-407.2 1389.59,-406.01 1380.62,-400.38 1379.06,-407.2"/>
</g>
<!-- pure&#45;trusted&#45;&gt;types -->
<g id="edge92" class="edge">
<title>pure&#45;trusted&#45;&gt;types</title>
<path fill="none" stroke="black" d="M1332.72,-339.35C1340.19,-344.86 1348.27,-351.02 1355.5,-356.94 1366.99,-366.34 1379.2,-377.17 1389.72,-386.79"/>
<polygon fill="black" stroke="black" points="1387.27,-389.3 1396.99,-393.5 1392.02,-384.15 1387.27,-389.3"/>
</g>
<!-- python -->
<g id="node40" class="node">
<title>python</title>
<polygon fill="none" stroke="black" points="91.38,-1806.94 29.62,-1806.94 29.62,-1770.94 91.38,-1770.94 91.38,-1806.94"/>
<text text-anchor="middle" x="60.5" y="-1784.64" font-family="sans-serif" font-size="14.00">python</text>
</g>
<!-- python&#45;&gt;crypto&#45;sig -->
<g id="edge93" class="edge">
<title>python&#45;&gt;crypto&#45;sig</title>
<path fill="none" stroke="black" d="M91.84,-1796C102.7,-1800.05 113.97,-1806.32 121,-1815.94 201.3,-1925.77 90.14,-2001.44 157,-2119.94 158.07,-2121.83 159.3,-2123.65 160.65,-2125.39"/>
<polygon fill="black" stroke="black" points="157.79,-2127.46 167.19,-2132.34 162.89,-2122.66 157.79,-2127.46"/>
</g>
<!-- python&#45;&gt;git -->
<g id="edge94" class="edge">
<title>python&#45;&gt;git</title>
<path fill="none" stroke="black" d="M91.63,-1774.11C160.07,-1740.44 326.98,-1658.31 401.06,-1621.87"/>
<polygon fill="black" stroke="black" points="402.5,-1625.06 409.93,-1617.5 399.41,-1618.78 402.5,-1625.06"/>
</g>
<!-- python&#45;&gt;graph -->
<g id="edge95" class="edge">
<title>python&#45;&gt;graph</title>
<path fill="none" stroke="black" d="M78.25,-1770.74C96.45,-1751.63 126.95,-1721.42 157,-1699.94 238.5,-1641.68 345.34,-1590.66 400.69,-1565.88"/>
<polygon fill="black" stroke="black" points="401.95,-1569.15 409.67,-1561.9 399.11,-1562.76 401.95,-1569.15"/>
</g>
<!-- python&#45;&gt;hash -->
<g id="edge96" class="edge">
<title>python&#45;&gt;hash</title>
<path fill="none" stroke="black" d="M91.64,-1787.74C195.57,-1781.99 542.89,-1749.06 732,-1562.94 803.17,-1492.89 825.8,-1369.54 832.62,-1313.33"/>
<polygon fill="black" stroke="black" points="836.07,-1313.92 833.71,-1303.59 829.12,-1313.14 836.07,-1313.92"/>
</g>
<!-- python&#45;&gt;kv -->
<g id="edge97" class="edge">
<title>python&#45;&gt;kv</title>
<path fill="none" stroke="black" d="M91.63,-1796.52C102.32,-1800.63 113.54,-1806.8 121,-1815.94 166.53,-1871.74 118.33,-1913.18 157,-1973.94 158.88,-1976.89 161.14,-1979.69 163.61,-1982.3"/>
<polygon fill="black" stroke="black" points="161.19,-1984.83 170.93,-1989 165.91,-1979.67 161.19,-1984.83"/>
</g>
<!-- python&#45;&gt;llm -->
<g id="edge98" class="edge">
<title>python&#45;&gt;llm</title>
<path fill="none" stroke="black" d="M61.26,-1770.48C60.86,-1692.54 65.43,-1383.86 157,-1153.94 161.43,-1142.8 168.33,-1131.72 175.21,-1122.22"/>
<polygon fill="black" stroke="black" points="177.81,-1124.58 181.08,-1114.51 172.24,-1120.34 177.81,-1124.58"/>
</g>
<!-- python&#45;&gt;object -->
<g id="edge99" class="edge">
<title>python&#45;&gt;object</title>
<path fill="none" stroke="black" d="M68.02,-1770.56C89.94,-1710.72 165.86,-1518.09 277.25,-1392.94 362.82,-1296.79 393.87,-1277.46 508,-1217.94 552.73,-1194.61 608.83,-1178.47 645.59,-1169.47"/>
<polygon fill="black" stroke="black" points="645.96,-1172.98 654.87,-1167.26 644.33,-1166.17 645.96,-1172.98"/>
</g>
<!-- python&#45;&gt;repl -->
<g id="edge100" class="edge">
<title>python&#45;&gt;repl</title>
<path fill="none" stroke="black" d="M70.11,-1770.59C84.64,-1741.16 116.45,-1682.83 157,-1644.94 188.49,-1615.51 212.17,-1628.74 241.25,-1596.94 262.17,-1574.06 294.66,-1493.02 311.38,-1448.96"/>
<polygon fill="black" stroke="black" points="314.59,-1450.37 314.84,-1439.78 308.04,-1447.9 314.59,-1450.37"/>
</g>
<!-- sat -->
<g id="node43" class="node">
<title>sat</title>
<polygon fill="none" stroke="black" points="863.38,-1679.94 809.38,-1679.94 809.38,-1643.94 863.38,-1643.94 863.38,-1679.94"/>
<text text-anchor="middle" x="836.38" y="-1657.64" font-family="sans-serif" font-size="14.00">sat</text>
</g>
<!-- python&#45;&gt;sat -->
<g id="edge101" class="edge">
<title>python&#45;&gt;sat</title>
<path fill="none" stroke="black" d="M91.6,-1798.66C101.68,-1802.89 112.5,-1808.59 121,-1815.94 143.39,-1835.28 133.39,-1854.11 157,-1871.94 218.19,-1918.14 245.45,-1921.94 322.12,-1921.94 322.12,-1921.94 322.12,-1921.94 439.5,-1921.94 513.61,-1921.94 542.5,-1931.09 602.75,-1887.94 628.34,-1869.61 614.92,-1847.51 638.75,-1826.94 672.62,-1797.69 697.34,-1817.25 732,-1788.94 754.34,-1770.69 750.16,-1757.6 768,-1734.94 780.72,-1718.77 796.21,-1701.83 809.13,-1688.34"/>
<polygon fill="black" stroke="black" points="811.3,-1691.13 815.74,-1681.51 806.27,-1686.26 811.3,-1691.13"/>
</g>
<!-- python&#45;&gt;serve -->
<g id="edge102" class="edge">
<title>python&#45;&gt;serve</title>
<path fill="none" stroke="black" d="M65.59,-1770.74C84.93,-1684.65 167.34,-1317.96 191.46,-1210.59"/>
<polygon fill="black" stroke="black" points="194.88,-1211.36 193.65,-1200.84 188.05,-1209.82 194.88,-1211.36"/>
</g>
<!-- python&#45;&gt;sexp -->
<g id="edge103" class="edge">
<title>python&#45;&gt;sexp</title>
<path fill="none" stroke="black" d="M61.73,-1770.56C63.38,-1664.48 75.64,-1130.21 157,-991.94 261.35,-814.61 400,-831.93 602.75,-866.94 662.84,-877.31 687.18,-871.6 732,-912.94 760.66,-939.37 736.47,-970 768,-992.94 818.18,-1029.44 893.91,-1027.56 939,-1022.2"/>
<polygon fill="black" stroke="black" points="939.35,-1025.69 948.81,-1020.91 938.44,-1018.75 939.35,-1025.69"/>
</g>
<!-- python&#45;&gt;shell -->
<g id="edge104" class="edge">
<title>python&#45;&gt;shell</title>
<path fill="none" stroke="black" d="M62.23,-1770.51C66.44,-1670.82 89.77,-1195.75 157,-1067.94 180.48,-1023.31 210.61,-1031.99 241.25,-991.94 262.75,-963.84 247.1,-939.45 277.25,-920.94 314.94,-897.79 366.57,-913.12 400.93,-928.48"/>
<polygon fill="black" stroke="black" points="399.09,-931.49 409.63,-932.56 402.07,-925.15 399.09,-931.49"/>
</g>
<!-- python&#45;&gt;store -->
<g id="edge105" class="edge">
<title>python&#45;&gt;store</title>
<path fill="none" stroke="black" d="M91.69,-1801.36C101.24,-1805.63 111.73,-1810.67 121,-1815.94 137.94,-1825.56 139.3,-1832.8 157,-1840.94 225.91,-1872.61 246.29,-1883.94 322.12,-1883.94 322.12,-1883.94 322.12,-1883.94 439.5,-1883.94 512.84,-1883.94 542.59,-1901.87 602.75,-1859.94 630.16,-1840.83 616.49,-1818.85 638.75,-1793.94 641.87,-1790.45 645.44,-1787.13 649.18,-1784.05"/>
<polygon fill="black" stroke="black" points="651,-1787.06 656.86,-1778.23 646.78,-1781.48 651,-1787.06"/>
</g>
<!-- python&#45;&gt;wasm -->
<g id="edge106" class="edge">
<title>python&#45;&gt;wasm</title>
<path fill="none" stroke="black" d="M91.61,-1796.17C102.44,-1800.25 113.75,-1806.49 121,-1815.94 180.52,-1893.49 97.1,-1955.67 157,-2032.94 206.16,-2096.35 241.88,-2105.94 322.12,-2105.94 322.12,-2105.94 322.12,-2105.94 686.38,-2105.94 783.8,-2105.94 824.57,-2142.27 904.75,-2086.94 945.1,-2059.09 963.6,-2002.13 971.44,-1967.26"/>
<polygon fill="black" stroke="black" points="974.79,-1968.35 973.4,-1957.84 967.94,-1966.92 974.79,-1968.35"/>
</g>
<!-- wasm&#45;store -->
<g id="node56" class="node">
<title>wasm&#45;store</title>
<polygon fill="none" stroke="black" points="602.75,-1985.94 508,-1985.94 508,-1949.94 602.75,-1949.94 602.75,-1985.94"/>
<text text-anchor="middle" x="555.38" y="-1963.64" font-family="sans-serif" font-size="14.00">wasm&#45;store</text>
</g>
<!-- python&#45;&gt;wasm&#45;store -->
<g id="edge107" class="edge">
<title>python&#45;&gt;wasm&#45;store</title>
<path fill="none" stroke="black" d="M91.62,-1796.91C102.18,-1801.05 113.31,-1807.14 121,-1815.94 157.64,-1857.87 113.7,-1900.93 157,-1935.94 207.69,-1976.91 398.88,-1974.92 496.4,-1971"/>
<polygon fill="black" stroke="black" points="496.46,-1974.5 506.3,-1970.58 496.16,-1967.51 496.46,-1974.5"/>
</g>
<!-- repl&#45;&gt;arrow -->
<g id="edge108" class="edge">
<title>repl&#45;&gt;arrow</title>
<path fill="none" stroke="black" d="M350.56,-1419.98C380.35,-1420.47 430.08,-1422.64 472,-1430.94 487.14,-1433.94 503.38,-1438.87 517.4,-1443.7"/>
<polygon fill="black" stroke="black" points="516.08,-1446.95 526.67,-1447.01 518.43,-1440.35 516.08,-1446.95"/>
</g>
<!-- repl&#45;&gt;forsp -->
<g id="edge109" class="edge">
<title>repl&#45;&gt;forsp</title>
<path fill="none" stroke="black" d="M336.7,-1401.57C351.9,-1379.84 378.73,-1342.93 405,-1313.94 485.46,-1225.13 596.25,-1136.21 650.99,-1094.1"/>
<polygon fill="black" stroke="black" points="652.89,-1097.04 658.71,-1088.19 648.64,-1091.49 652.89,-1097.04"/>
</g>
<!-- repl&#45;&gt;git -->
<g id="edge110" class="edge">
<title>repl&#45;&gt;git</title>
<path fill="none" stroke="black" d="M339.19,-1438.42C348.6,-1450.56 360.49,-1467.08 369,-1482.94 390.15,-1522.36 378.95,-1540.57 405,-1576.94 405.07,-1577.03 405.14,-1577.13 405.21,-1577.23"/>
<polygon fill="black" stroke="black" points="402.47,-1579.41 411.71,-1584.6 407.72,-1574.78 402.47,-1579.41"/>
</g>
<!-- repl&#45;&gt;graph -->
<g id="edge111" class="edge">
<title>repl&#45;&gt;graph</title>
<path fill="none" stroke="black" d="M338.2,-1438.11C353.92,-1458.14 380.42,-1491.1 405,-1517.94 406.69,-1519.79 408.47,-1521.67 410.27,-1523.55"/>
<polygon fill="black" stroke="black" points="407.69,-1525.91 417.2,-1530.57 412.67,-1520.99 407.69,-1525.91"/>
</g>
<!-- repl&#45;&gt;hash -->
<g id="edge112" class="edge">
<title>repl&#45;&gt;hash</title>
<path fill="none" stroke="black" d="M350.33,-1431.21C356.73,-1434.53 363.36,-1438.49 369,-1442.94 388.3,-1458.16 382.66,-1474.66 405,-1484.94 484.85,-1521.66 520.38,-1515.59 602.75,-1484.94 697.05,-1449.84 778.61,-1357.44 815.06,-1311.16"/>
<polygon fill="black" stroke="black" points="817.65,-1313.53 821.01,-1303.48 812.12,-1309.24 817.65,-1313.53"/>
</g>
<!-- repl&#45;&gt;init -->
<g id="edge113" class="edge">
<title>repl&#45;&gt;init</title>
<path fill="none" stroke="black" d="M327.79,-1401.51C341.74,-1334.65 396.52,-1100.53 508,-942.94 540,-897.71 573.48,-908.97 602.75,-861.94 636.93,-807.03 611.73,-779.7 638.75,-720.94 644.87,-707.63 653.77,-694.17 662.09,-682.98"/>
<polygon fill="black" stroke="black" points="664.62,-685.43 667.94,-675.36 659.07,-681.16 664.62,-685.43"/>
</g>
<!-- repl&#45;&gt;object -->
<g id="edge114" class="edge">
<title>repl&#45;&gt;object</title>
<path fill="none" stroke="black" d="M349.74,-1401.52C413.13,-1355.95 577.35,-1237.88 649.5,-1186.01"/>
<polygon fill="black" stroke="black" points="651.34,-1189 657.42,-1180.32 647.25,-1183.31 651.34,-1189"/>
</g>
<!-- repl&#45;&gt;parquet -->
<g id="edge115" class="edge">
<title>repl&#45;&gt;parquet</title>
<path fill="none" stroke="black" d="M350.42,-1428.75C363.35,-1433.08 379.27,-1438.42 393.95,-1443.34"/>
<polygon fill="black" stroke="black" points="392.83,-1446.66 403.42,-1446.52 395.05,-1440.02 392.83,-1446.66"/>
</g>
<!-- repl&#45;&gt;shell -->
<g id="edge116" class="edge">
<title>repl&#45;&gt;shell</title>
<path fill="none" stroke="black" d="M328.5,-1401.72C345.74,-1329.97 409.04,-1066.41 430.41,-977.47"/>
<polygon fill="black" stroke="black" points="433.79,-978.36 432.72,-967.82 426.98,-976.73 433.79,-978.36"/>
</g>
<!-- repl&#45;&gt;wasm -->
<g id="edge117" class="edge">
<title>repl&#45;&gt;wasm</title>
<path fill="none" stroke="black" d="M334.58,-1438.24C344.39,-1455.93 359,-1483.68 369,-1508.94 389.81,-1561.5 376.94,-1581.86 405,-1630.94 480.5,-1762.99 504.75,-1808.94 638.75,-1880.94 737.41,-1933.95 873.71,-1939.82 938.92,-1939.21"/>
<polygon fill="black" stroke="black" points="938.78,-1942.71 948.73,-1939.06 938.67,-1935.71 938.78,-1942.71"/>
</g>
<!-- sat&#45;&gt;parse -->
<g id="edge118" class="edge">
<title>sat&#45;&gt;parse</title>
<path fill="none" stroke="black" d="M863.65,-1660.76C902.9,-1657.5 976.32,-1645.31 1014.5,-1599.94 1068.5,-1535.76 1084.4,-1269.78 1088.28,-1179.82"/>
<polygon fill="black" stroke="black" points="1091.77,-1179.98 1088.69,-1169.85 1084.78,-1179.7 1091.77,-1179.98"/>
</g>
<!-- sat&#45;&gt;types -->
<g id="edge119" class="edge">
<title>sat&#45;&gt;types</title>
<path fill="none" stroke="black" d="M863.86,-1661.94C909.77,-1661.94 1007.12,-1661.94 1089.38,-1661.94 1089.38,-1661.94 1089.38,-1661.94 1194.25,-1661.94 1322.3,-1661.94 1401.92,-631.49 1415.44,-442.52"/>
<polygon fill="black" stroke="black" points="1418.93,-442.81 1416.15,-432.58 1411.95,-442.31 1418.93,-442.81"/>
</g>
<!-- sat&#45;&gt;wasm -->
<g id="edge120" class="edge">
<title>sat&#45;&gt;wasm</title>
<path fill="none" stroke="black" d="M863.67,-1670.35C877.68,-1676.08 894.17,-1685 904.75,-1697.94 956.03,-1760.63 970.74,-1859.11 974.94,-1908.14"/>
<polygon fill="black" stroke="black" points="971.44,-1908.27 975.69,-1917.97 978.42,-1907.74 971.44,-1908.27"/>
</g>
<!-- serve&#45;&gt;core -->
<g id="edge121" class="edge">
<title>serve&#45;&gt;core</title>
<path fill="none" stroke="black" d="M215.2,-1162.45C223.75,-1151.26 234.14,-1136.39 241.25,-1121.94 264.71,-1074.26 240.43,-1046.24 277.25,-1007.94 307.28,-976.7 338.43,-1005.65 369,-974.94 377.15,-966.75 500.55,-591.76 508,-582.94 631.31,-436.89 722.03,-473.07 904.75,-416.94 916.22,-413.41 928.51,-409.03 939.62,-404.83"/>
<polygon fill="black" stroke="black" points="940.78,-408.13 948.86,-401.27 938.27,-401.6 940.78,-408.13"/>
</g>
<!-- serve&#45;&gt;git -->
<g id="edge122" class="edge">
<title>serve&#45;&gt;git</title>
<path fill="none" stroke="black" d="M202.29,-1199.25C208.25,-1244.21 227.83,-1362.48 277.25,-1446.94 309.44,-1501.94 365.95,-1550.77 402.54,-1578.85"/>
<polygon fill="black" stroke="black" points="400.09,-1581.39 410.18,-1584.62 404.31,-1575.8 400.09,-1581.39"/>
</g>
<!-- serve&#45;&gt;hash -->
<g id="edge123" class="edge">
<title>serve&#45;&gt;hash</title>
<path fill="none" stroke="black" d="M226.31,-1188.59C241.13,-1192.61 260.08,-1197.26 277.25,-1199.94 477.41,-1231.17 536.81,-1176.72 732,-1230.94 755.56,-1237.48 779.98,-1249.71 799.17,-1260.77"/>
<polygon fill="black" stroke="black" points="797.29,-1263.72 807.67,-1265.81 800.86,-1257.7 797.29,-1263.72"/>
</g>
<!-- serve&#45;&gt;init -->
<g id="edge124" class="edge">
<title>serve&#45;&gt;init</title>
<path fill="none" stroke="black" d="M214.1,-1162.59C222.47,-1151.2 233.04,-1136.09 241.25,-1121.94 260,-1089.6 250.17,-1071.7 277.25,-1045.94 309.23,-1015.51 337.8,-1039.15 369,-1007.94 398.59,-978.34 378.16,-953.04 405,-920.94 427.69,-893.79 444.69,-900.43 472,-877.94 548.29,-815.09 625.42,-726.9 662.19,-682.99"/>
<polygon fill="black" stroke="black" points="664.74,-685.4 668.45,-675.48 659.36,-680.93 664.74,-685.4"/>
</g>
<!-- serve&#45;&gt;metamath -->
<g id="edge125" class="edge">
<title>serve&#45;&gt;metamath</title>
<path fill="none" stroke="black" d="M226.37,-1177.61C267.92,-1171.93 346.47,-1159.35 369,-1142.94 394.45,-1124.4 387.61,-1108.17 405,-1081.94 426.24,-1049.89 473.66,-960.23 508,-942.94 597.27,-897.98 650.4,-905.22 732,-962.94 759.6,-982.46 743.51,-1006.63 768,-1029.94 773.17,-1034.86 779.24,-1039.14 785.58,-1042.84"/>
<polygon fill="black" stroke="black" points="783.86,-1045.89 794.33,-1047.46 787.12,-1039.7 783.86,-1045.89"/>
</g>
<!-- serve&#45;&gt;object -->
<g id="edge126" class="edge">
<title>serve&#45;&gt;object</title>
<path fill="none" stroke="black" d="M226.45,-1188.16C262.07,-1196.29 326.08,-1204.88 369,-1175.94 402,-1153.68 371.68,-1115.7 405,-1093.94 429.93,-1077.65 442.57,-1089.4 472,-1093.94 534.61,-1103.58 604.08,-1128.33 645.98,-1144.89"/>
<polygon fill="black" stroke="black" points="644.53,-1148.09 655.12,-1148.56 647.14,-1141.59 644.53,-1148.09"/>
</g>
<!-- serve&#45;&gt;proto -->
<g id="edge127" class="edge">
<title>serve&#45;&gt;proto</title>
<path fill="none" stroke="black" d="M215.51,-1162.6C224.17,-1151.45 234.56,-1136.59 241.25,-1121.94 268.3,-1062.72 240.5,-1033.68 277.25,-979.94 279.92,-976.03 283.24,-972.43 286.85,-969.18"/>
<polygon fill="black" stroke="black" points="288.8,-972.1 294.47,-963.15 284.45,-966.61 288.8,-972.1"/>
</g>
<!-- serve&#45;&gt;repl -->
<g id="edge128" class="edge">
<title>serve&#45;&gt;repl</title>
<path fill="none" stroke="black" d="M209.5,-1199.29C230.65,-1240.74 282.25,-1341.81 307.59,-1391.46"/>
<polygon fill="black" stroke="black" points="304.37,-1392.85 312.03,-1400.17 310.61,-1389.67 304.37,-1392.85"/>
</g>
<!-- serve&#45;&gt;shell -->
<g id="edge129" class="edge">
<title>serve&#45;&gt;shell</title>
<path fill="none" stroke="black" d="M211.85,-1162.64C225.54,-1142.45 249.83,-1110.03 277.25,-1088.94 312.95,-1061.48 336.2,-1076.79 369,-1045.94 393.34,-1023.04 384.88,-1006.61 405,-979.94 406.32,-978.18 407.74,-976.43 409.22,-974.71"/>
<polygon fill="black" stroke="black" points="411.68,-977.2 415.9,-967.48 406.54,-972.45 411.68,-977.2"/>
</g>
<!-- serve&#45;&gt;store -->
<g id="edge130" class="edge">
<title>serve&#45;&gt;store</title>
<path fill="none" stroke="black" d="M200.67,-1199.21C202.96,-1251.66 214.94,-1405.77 277.25,-1512.94 344.74,-1629.01 388.26,-1647.18 508,-1707.94 553.23,-1730.88 609.99,-1746.1 646.71,-1754.38"/>
<polygon fill="black" stroke="black" points="645.9,-1757.78 656.41,-1756.5 647.39,-1750.94 645.9,-1757.78"/>
</g>
<!-- sexp&#45;&gt;parse -->
<g id="edge131" class="edge">
<title>sexp&#45;&gt;parse</title>
<path fill="none" stroke="black" d="M993.79,-1034.29C1012.76,-1057.24 1045.4,-1096.73 1067.18,-1123.08"/>
<polygon fill="black" stroke="black" points="1064.36,-1125.16 1073.43,-1130.64 1069.75,-1120.7 1064.36,-1125.16"/>
</g>
<!-- shell&#45;&gt;hol -->
<g id="edge132" class="edge">
<title>shell&#45;&gt;hol</title>
<path fill="none" stroke="black" d="M440.99,-929.58C446.63,-863.8 468.36,-640.77 508,-582.94 545,-528.94 721.31,-442.71 798.75,-406.64"/>
<polygon fill="black" stroke="black" points="800.02,-409.91 807.63,-402.53 797.08,-403.56 800.02,-409.91"/>
</g>
<!-- shell&#45;&gt;kernel -->
<g id="edge133" class="edge">
<title>shell&#45;&gt;kernel</title>
<path fill="none" stroke="black" d="M465.85,-952.98C480.6,-955.81 499.26,-959.38 515.64,-962.52"/>
<polygon fill="black" stroke="black" points="514.57,-965.88 525.05,-964.32 515.89,-959 514.57,-965.88"/>
</g>
<!-- smt&#45;&gt;sat -->
<g id="edge134" class="edge">
<title>smt&#45;&gt;sat</title>
<path fill="none" stroke="black" d="M690.21,-820.24C698.53,-860.31 718.55,-958.83 732,-1041.94 751.27,-1161.01 748.62,-1191.88 768,-1310.94 787.49,-1430.69 816.51,-1572.27 829.14,-1632.48"/>
<polygon fill="black" stroke="black" points="825.71,-1633.18 831.19,-1642.25 832.56,-1631.74 825.71,-1633.18"/>
</g>
<!-- smt&#45;&gt;sexp -->
<g id="edge135" class="edge">
<title>smt&#45;&gt;sexp</title>
<path fill="none" stroke="black" d="M712.67,-815.91C719.8,-820.79 726.94,-826.85 732,-833.94 765.58,-881 726.84,-918.34 768,-958.94 780.29,-971.05 882.51,-995.16 939.17,-1007.79"/>
<polygon fill="black" stroke="black" points="938.18,-1011.16 948.7,-1009.9 939.7,-1004.32 938.18,-1011.16"/>
</g>
<!-- smt&#45;&gt;types -->
<g id="edge136" class="edge">
<title>smt&#45;&gt;types</title>
<path fill="none" stroke="black" d="M712.79,-791.49C728.57,-785.68 749.15,-778.86 768,-774.94 859.15,-755.97 883.52,-755.94 976.62,-755.94 976.62,-755.94 976.62,-755.94 1194.25,-755.94 1280.01,-755.94 1305.49,-719.61 1355.5,-649.94 1401.47,-585.89 1413.37,-490.34 1416.44,-442.48"/>
<polygon fill="black" stroke="black" points="1419.93,-442.81 1416.98,-432.63 1412.94,-442.43 1419.93,-442.81"/>
</g>
<!-- spectec&#45;&gt;grammar -->
<g id="edge137" class="edge">
<title>spectec&#45;&gt;grammar</title>
<path fill="none" stroke="black" d="M871.44,-624.64C888.94,-619.87 910.54,-613.97 929.6,-608.77"/>
<polygon fill="black" stroke="black" points="930.29,-612.21 939.02,-606.2 928.45,-605.46 930.29,-612.21"/>
</g>
<!-- store&#45;&gt;hash -->
<g id="edge138" class="edge">
<title>store&#45;&gt;hash</title>
<path fill="none" stroke="black" d="M702.13,-1743.45C712,-1731.02 724.26,-1713.87 732,-1696.94 794.02,-1561.22 822.51,-1382.72 831.78,-1313.31"/>
<polygon fill="black" stroke="black" points="835.24,-1313.89 833.05,-1303.52 828.3,-1312.99 835.24,-1313.89"/>
</g>
<!-- store&#45;&gt;json -->
<g id="edge139" class="edge">
<title>store&#45;&gt;json</title>
<path fill="none" stroke="black" d="M712.67,-1778.17C736.75,-1793.04 772.59,-1815.17 799.33,-1831.68"/>
<polygon fill="black" stroke="black" points="797.46,-1834.64 807.8,-1836.91 801.13,-1828.68 797.46,-1834.64"/>
</g>
<!-- store&#45;&gt;sqlite -->
<g id="edge140" class="edge">
<title>store&#45;&gt;sqlite</title>
<path fill="none" stroke="black" d="M712.67,-1761.94C736.32,-1761.94 771.33,-1761.94 797.91,-1761.94"/>
<polygon fill="black" stroke="black" points="797.58,-1765.44 807.58,-1761.94 797.58,-1758.44 797.58,-1765.44"/>
</g>
<!-- tcb&#45;db -->
<g id="node51" class="node">
<title>tcb&#45;db</title>
<polygon fill="none" stroke="black" points="715.5,-1871.94 655.25,-1871.94 655.25,-1835.94 715.5,-1835.94 715.5,-1871.94"/>
<text text-anchor="middle" x="685.38" y="-1849.64" font-family="sans-serif" font-size="14.00">tcb&#45;db</text>
</g>
<!-- tcb&#45;db&#45;&gt;json -->
<g id="edge141" class="edge">
<title>tcb&#45;db&#45;&gt;json</title>
<path fill="none" stroke="black" d="M715.81,-1853.94C739.24,-1853.94 772.19,-1853.94 797.57,-1853.94"/>
<polygon fill="black" stroke="black" points="797.48,-1857.44 807.48,-1853.94 797.48,-1850.44 797.48,-1857.44"/>
</g>
<!-- tcb&#45;db&#45;&gt;sqlite -->
<g id="edge142" class="edge">
<title>tcb&#45;db&#45;&gt;sqlite</title>
<path fill="none" stroke="black" d="M715.81,-1835.76C739.77,-1820.97 773.69,-1800.02 799.28,-1784.22"/>
<polygon fill="black" stroke="black" points="801.04,-1787.25 807.71,-1779.02 797.36,-1781.3 801.04,-1787.25"/>
</g>
<!-- wasm&#45;build&#45;guest -->
<g id="node54" class="node">
<title>wasm&#45;build&#45;guest</title>
<polygon fill="none" stroke="black" points="904.75,-2077.94 768,-2077.94 768,-2041.94 904.75,-2041.94 904.75,-2077.94"/>
<text text-anchor="middle" x="836.38" y="-2055.64" font-family="sans-serif" font-size="14.00">wasm&#45;build&#45;guest</text>
</g>
<!-- wasm&#45;build&#45;guest&#45;&gt;wasm -->
<g id="edge143" class="edge">
<title>wasm&#45;build&#45;guest&#45;&gt;wasm</title>
<path fill="none" stroke="black" d="M883.62,-2041.44C891.03,-2037.51 898.36,-2033 904.75,-2027.94 926.77,-2010.49 946.27,-1985.08 959.38,-1965.71"/>
<polygon fill="black" stroke="black" points="962.23,-1967.74 964.81,-1957.46 956.39,-1963.89 962.23,-1967.74"/>
</g>
<!-- wasm&#45;spec -->
<g id="node55" class="node">
<title>wasm&#45;spec</title>
<polygon fill="none" stroke="black" points="732,-1687.94 638.75,-1687.94 638.75,-1651.94 732,-1651.94 732,-1687.94"/>
<text text-anchor="middle" x="685.38" y="-1665.64" font-family="sans-serif" font-size="14.00">wasm&#45;spec</text>
</g>
<!-- wasm&#45;spec&#45;&gt;hash -->
<g id="edge144" class="edge">
<title>wasm&#45;spec&#45;&gt;hash</title>
<path fill="none" stroke="black" d="M718.32,-1651.8C723.45,-1647.77 728.28,-1643.13 732,-1637.94 806.09,-1534.52 827.44,-1378.38 833.29,-1313.66"/>
<polygon fill="black" stroke="black" points="836.77,-1314.09 834.11,-1303.84 829.79,-1313.51 836.77,-1314.09"/>
</g>
<!-- wasm&#45;spec&#45;&gt;wasm -->
<g id="edge145" class="edge">
<title>wasm&#45;spec&#45;&gt;wasm</title>
<path fill="none" stroke="black" d="M732.3,-1681.24C792.53,-1696.42 892.06,-1722.88 904.75,-1734.94 953.92,-1781.67 969.5,-1864.13 974.4,-1908.2"/>
<polygon fill="black" stroke="black" points="970.91,-1908.44 975.37,-1918.04 977.87,-1907.75 970.91,-1908.44"/>
</g>
<!-- wasm&#45;store&#45;&gt;json -->
<g id="edge146" class="edge">
<title>wasm&#45;store&#45;&gt;json</title>
<path fill="none" stroke="black" d="M601.51,-1949.49C656.4,-1927.07 747.97,-1889.65 798.72,-1868.92"/>
<polygon fill="black" stroke="black" points="799.86,-1872.23 807.79,-1865.21 797.21,-1865.75 799.86,-1872.23"/>
</g>
<!-- wasm&#45;store&#45;&gt;store -->
<g id="edge147" class="edge">
<title>wasm&#45;store&#45;&gt;store</title>
<path fill="none" stroke="black" d="M569.37,-1949.59C579.02,-1935.68 592.26,-1915.95 602.75,-1897.94 620.55,-1867.36 620.54,-1857.27 638.75,-1826.94 646.4,-1814.19 655.7,-1800.65 663.9,-1789.25"/>
<polygon fill="black" stroke="black" points="666.52,-1791.6 669.58,-1781.46 660.86,-1787.48 666.52,-1791.6"/>
</g>
<!-- wasm&#45;store&#45;&gt;wasm -->
<g id="edge148" class="edge">
<title>wasm&#45;store&#45;&gt;wasm</title>
<path fill="none" stroke="black" d="M602.95,-1964.61C686.91,-1958.62 862,-1946.12 938.96,-1940.63"/>
<polygon fill="black" stroke="black" points="938.78,-1944.15 948.51,-1939.94 938.28,-1937.16 938.78,-1944.15"/>
</g>
<!-- web&#45;kernel -->
<g id="node57" class="node">
<title>web&#45;kernel</title>
<polygon fill="none" stroke="black" points="369,-270.94 277.25,-270.94 277.25,-234.94 369,-234.94 369,-270.94"/>
<text text-anchor="middle" x="323.12" y="-248.64" font-family="sans-serif" font-size="14.00">web&#45;kernel</text>
</g>
<!-- web&#45;kernel&#45;&gt;haskell -->
<g id="edge149" class="edge">
<title>web&#45;kernel&#45;&gt;haskell</title>
<path fill="none" stroke="black" d="M369.26,-252.94C377.92,-252.94 386.96,-252.94 395.51,-252.94"/>
<polygon fill="black" stroke="black" points="395.29,-256.44 405.29,-252.94 395.29,-249.44 395.29,-256.44"/>
</g>
<!-- web&#45;kernel&#45;&gt;hol&#45;api -->
<g id="edge150" class="edge">
<title>web&#45;kernel&#45;&gt;hol&#45;api</title>
<path fill="none" stroke="black" d="M369.34,-237.23C411.12,-222.71 472.67,-201.33 513.13,-187.27"/>
<polygon fill="black" stroke="black" points="514.23,-190.59 522.52,-184 511.93,-183.98 514.23,-190.59"/>
</g>
<!-- web&#45;kernel&#45;&gt;kernel -->
<g id="edge151" class="edge">
<title>web&#45;kernel&#45;&gt;kernel</title>
<path fill="none" stroke="black" d="M330.05,-271.38C361.25,-368.54 506.55,-821 545.01,-940.78"/>
<polygon fill="black" stroke="black" points="541.64,-941.72 548.03,-950.17 548.3,-939.58 541.64,-941.72"/>
</g>
</g>
</svg>
