<?xml version="1.0" encoding="UTF-8" standalone="no"?>
<!DOCTYPE svg PUBLIC "-//W3C//DTD SVG 1.1//EN"
 "http://www.w3.org/Graphics/SVG/1.1/DTD/svg11.dtd">
<!-- Generated by graphviz version 12.2.1 (0)
 -->
<!-- Title: deps Pages: 1 -->
<svg width="1518pt" height="2776pt"
 viewBox="0.00 0.00 1518.25 2775.90" xmlns="http://www.w3.org/2000/svg" xmlns:xlink="http://www.w3.org/1999/xlink">
<g id="graph0" class="graph" transform="scale(1 1) rotate(0) translate(4 2771.9)">
<title>deps</title>
<polygon fill="white" stroke="none" points="-4,4 -4,-2771.9 1514.25,-2771.9 1514.25,4 -4,4"/>
<!-- covalence -->
<g id="node1" class="node">
<title>covalence</title>
<polygon fill="none" stroke="black" points="102.62,-974.9 18.38,-974.9 18.38,-938.9 102.62,-938.9 102.62,-974.9"/>
<text text-anchor="middle" x="60.5" y="-952.6" font-family="sans-serif" font-size="14.00">covalence</text>
</g>
<!-- client -->
<g id="node5" class="node">
<title>client</title>
<polygon fill="none" stroke="black" points="350.12,-974.9 296.12,-974.9 296.12,-938.9 350.12,-938.9 350.12,-974.9"/>
<text text-anchor="middle" x="323.12" y="-952.6" font-family="sans-serif" font-size="14.00">client</text>
</g>
<!-- covalence&#45;&gt;client -->
<g id="edge1" class="edge">
<title>covalence&#45;&gt;client</title>
<path fill="none" stroke="black" d="M103.08,-956.9C153.03,-956.9 236.1,-956.9 284.31,-956.9"/>
<polygon fill="black" stroke="black" points="284.26,-960.4 294.26,-956.9 284.26,-953.4 284.26,-960.4"/>
</g>
<!-- fuse -->
<g id="node13" class="node">
<title>fuse</title>
<polygon fill="none" stroke="black" points="606.38,-730.9 552.38,-730.9 552.38,-694.9 606.38,-694.9 606.38,-730.9"/>
<text text-anchor="middle" x="579.38" y="-708.6" font-family="sans-serif" font-size="14.00">fuse</text>
</g>
<!-- covalence&#45;&gt;fuse -->
<g id="edge2" class="edge">
<title>covalence&#45;&gt;fuse</title>
<path fill="none" stroke="black" d="M86.23,-938.45C105.05,-924.88 131.91,-906.51 157,-892.9 293.34,-818.93 466.45,-753.21 541.22,-726.09"/>
<polygon fill="black" stroke="black" points="542.29,-729.42 550.51,-722.74 539.92,-722.84 542.29,-729.42"/>
</g>
<!-- git -->
<g id="node14" class="node">
<title>git</title>
<polygon fill="none" stroke="black" points="477.5,-524.9 423.5,-524.9 423.5,-488.9 477.5,-488.9 477.5,-524.9"/>
<text text-anchor="middle" x="450.5" y="-502.6" font-family="sans-serif" font-size="14.00">git</text>
</g>
<!-- covalence&#45;&gt;git -->
<g id="edge3" class="edge">
<title>covalence&#45;&gt;git</title>
<path fill="none" stroke="black" d="M62.73,-938.53C68.14,-863.45 92.56,-581.15 157,-525.9 228.86,-464.28 350.72,-482.17 411.98,-496.56"/>
<polygon fill="black" stroke="black" points="411.02,-499.93 421.57,-498.92 412.69,-493.14 411.02,-499.93"/>
</g>
<!-- hash -->
<g id="node17" class="node">
<title>hash</title>
<polygon fill="none" stroke="black" points="887.38,-776.9 833.38,-776.9 833.38,-740.9 887.38,-740.9 887.38,-776.9"/>
<text text-anchor="middle" x="860.38" y="-754.6" font-family="sans-serif" font-size="14.00">hash</text>
</g>
<!-- covalence&#45;&gt;hash -->
<g id="edge4" class="edge">
<title>covalence&#45;&gt;hash</title>
<path fill="none" stroke="black" d="M102.79,-942.1C199.38,-908.09 448.14,-823.97 662.75,-780.9 717.5,-769.91 782.01,-764 821.8,-761.16"/>
<polygon fill="black" stroke="black" points="821.82,-764.66 831.56,-760.49 821.35,-757.68 821.82,-764.66"/>
</g>
<!-- hol -->
<g id="node19" class="node">
<title>hol</title>
<polygon fill="none" stroke="black" points="887.38,-2489.9 833.38,-2489.9 833.38,-2453.9 887.38,-2453.9 887.38,-2489.9"/>
<text text-anchor="middle" x="860.38" y="-2467.6" font-family="sans-serif" font-size="14.00">hol</text>
</g>
<!-- covalence&#45;&gt;hol -->
<g id="edge5" class="edge">
<title>covalence&#45;&gt;hol</title>
<path fill="none" stroke="black" d="M103.09,-968.49C110.13,-972.29 116.58,-977.3 121,-983.9 153.18,-1031.99 149,-1967.58 157,-2024.9 199.2,-2327.36 16.73,-2691.9 322.12,-2691.9 322.12,-2691.9 322.12,-2691.9 451.5,-2691.9 595.7,-2691.9 635.37,-2658.9 756,-2579.9 789.54,-2557.93 820.25,-2523.14 839.33,-2499.01"/>
<polygon fill="black" stroke="black" points="842.01,-2501.26 845.36,-2491.21 836.47,-2496.98 842.01,-2501.26"/>
</g>
<!-- init -->
<g id="node23" class="node">
<title>init</title>
<polygon fill="none" stroke="black" points="736.38,-1865.9 682.38,-1865.9 682.38,-1829.9 736.38,-1829.9 736.38,-1865.9"/>
<text text-anchor="middle" x="709.38" y="-1843.6" font-family="sans-serif" font-size="14.00">init</text>
</g>
<!-- covalence&#45;&gt;init -->
<g id="edge6" class="edge">
<title>covalence&#45;&gt;init</title>
<path fill="none" stroke="black" d="M102.84,-968.67C109.9,-972.45 116.42,-977.41 121,-983.9 176.02,-1061.89 135.89,-1318.81 157,-1411.9 202.82,-1613.98 114.92,-1847.9 322.12,-1847.9 322.12,-1847.9 322.12,-1847.9 451.5,-1847.9 529.53,-1847.9 620.9,-1847.9 670.92,-1847.9"/>
<polygon fill="black" stroke="black" points="670.61,-1851.4 680.61,-1847.9 670.61,-1844.4 670.61,-1851.4"/>
</g>
<!-- lsp -->
<g id="node35" class="node">
<title>lsp</title>
<polygon fill="none" stroke="black" points="887.38,-1167.9 833.38,-1167.9 833.38,-1131.9 887.38,-1131.9 887.38,-1167.9"/>
<text text-anchor="middle" x="860.38" y="-1145.6" font-family="sans-serif" font-size="14.00">lsp</text>
</g>
<!-- covalence&#45;&gt;lsp -->
<g id="edge7" class="edge">
<title>covalence&#45;&gt;lsp</title>
<path fill="none" stroke="black" d="M102.83,-970.76C109.47,-974.29 115.84,-978.63 121,-983.9 149.42,-1012.92 130.07,-1037.49 157,-1067.9 241.5,-1163.31 281.93,-1178.76 405,-1211.9 556.49,-1252.69 743.99,-1193.94 822.3,-1164.73"/>
<polygon fill="black" stroke="black" points="823.52,-1168.01 831.63,-1161.19 821.04,-1161.47 823.52,-1168.01"/>
</g>
<!-- object -->
<g id="node39" class="node">
<title>object</title>
<polygon fill="none" stroke="black" points="738,-825.9 680.75,-825.9 680.75,-789.9 738,-789.9 738,-825.9"/>
<text text-anchor="middle" x="709.38" y="-803.6" font-family="sans-serif" font-size="14.00">object</text>
</g>
<!-- covalence&#45;&gt;object -->
<g id="edge8" class="edge">
<title>covalence&#45;&gt;object</title>
<path fill="none" stroke="black" d="M103.01,-971.53C109.48,-974.95 115.75,-979.05 121,-983.9 145.26,-1006.3 128.55,-1032.13 157,-1048.9 189.26,-1067.91 204.14,-1053.89 241.25,-1048.9 419.76,-1024.89 486.46,-1036.86 626.75,-923.9 656.76,-899.74 680.57,-861.78 694.56,-835.92"/>
<polygon fill="black" stroke="black" points="697.52,-837.81 699.07,-827.32 691.32,-834.55 697.52,-837.81"/>
</g>
<!-- opentheory -->
<g id="node40" class="node">
<title>opentheory</title>
<polygon fill="none" stroke="black" points="496,-2557.9 405,-2557.9 405,-2521.9 496,-2521.9 496,-2557.9"/>
<text text-anchor="middle" x="450.5" y="-2535.6" font-family="sans-serif" font-size="14.00">opentheory</text>
</g>
<!-- covalence&#45;&gt;opentheory -->
<g id="edge9" class="edge">
<title>covalence&#45;&gt;opentheory</title>
<path fill="none" stroke="black" d="M103.06,-968.51C110.1,-972.31 116.56,-977.31 121,-983.9 175.56,-1064.87 136.52,-1766.43 157,-1861.9 219.07,-2151.27 260.55,-2221.58 405,-2479.9 411.28,-2491.13 419.39,-2502.68 426.95,-2512.6"/>
<polygon fill="black" stroke="black" points="424.11,-2514.65 433.03,-2520.37 429.62,-2510.33 424.11,-2514.65"/>
</g>
<!-- proto -->
<g id="node45" class="node">
<title>proto</title>
<polygon fill="none" stroke="black" points="350.12,-570.9 296.12,-570.9 296.12,-534.9 350.12,-534.9 350.12,-570.9"/>
<text text-anchor="middle" x="323.12" y="-548.6" font-family="sans-serif" font-size="14.00">proto</text>
</g>
<!-- covalence&#45;&gt;proto -->
<g id="edge10" class="edge">
<title>covalence&#45;&gt;proto</title>
<path fill="none" stroke="black" d="M67.33,-938.65C80.28,-899.37 113.77,-804.58 157,-732.9 200.77,-660.32 215.47,-642.91 277.25,-584.9 280.29,-582.04 283.59,-579.23 286.98,-576.54"/>
<polygon fill="black" stroke="black" points="288.96,-579.43 294.83,-570.62 284.74,-573.84 288.96,-579.43"/>
</g>
<!-- repl -->
<g id="node51" class="node">
<title>repl</title>
<polygon fill="none" stroke="black" points="350.12,-700.9 296.12,-700.9 296.12,-664.9 350.12,-664.9 350.12,-700.9"/>
<text text-anchor="middle" x="323.12" y="-678.6" font-family="sans-serif" font-size="14.00">repl</text>
</g>
<!-- covalence&#45;&gt;repl -->
<g id="edge11" class="edge">
<title>covalence&#45;&gt;repl</title>
<path fill="none" stroke="black" d="M70.22,-938.69C85.14,-908.75 117.79,-848.22 157,-805.9 195.86,-763.95 250.63,-726.4 286.25,-704.13"/>
<polygon fill="black" stroke="black" points="287.8,-707.29 294.47,-699.06 284.13,-701.33 287.8,-707.29"/>
</g>
<!-- serve -->
<g id="node54" class="node">
<title>serve</title>
<polygon fill="none" stroke="black" points="226.12,-1039.9 172.12,-1039.9 172.12,-1003.9 226.12,-1003.9 226.12,-1039.9"/>
<text text-anchor="middle" x="199.12" y="-1017.6" font-family="sans-serif" font-size="14.00">serve</text>
</g>
<!-- covalence&#45;&gt;serve -->
<g id="edge12" class="edge">
<title>covalence&#45;&gt;serve</title>
<path fill="none" stroke="black" d="M102.55,-975.32C108.75,-978.16 115.05,-981.08 121,-983.9 134.28,-990.18 148.75,-997.25 161.53,-1003.57"/>
<polygon fill="black" stroke="black" points="159.94,-1006.69 170.46,-1008 163.05,-1000.42 159.94,-1006.69"/>
</g>
<!-- shell -->
<g id="node57" class="node">
<title>shell</title>
<polygon fill="none" stroke="black" points="477.5,-1546.9 423.5,-1546.9 423.5,-1510.9 477.5,-1510.9 477.5,-1546.9"/>
<text text-anchor="middle" x="450.5" y="-1524.6" font-family="sans-serif" font-size="14.00">shell</text>
</g>
<!-- covalence&#45;&gt;shell -->
<g id="edge13" class="edge">
<title>covalence&#45;&gt;shell</title>
<path fill="none" stroke="black" d="M102.96,-968.96C109.92,-972.71 116.37,-977.58 121,-983.9 160.55,-1037.88 138.73,-1218.51 157,-1282.9 191.76,-1405.38 169.98,-1474.32 277.25,-1542.9 317.97,-1568.93 375.66,-1556.65 412.83,-1543.97"/>
<polygon fill="black" stroke="black" points="413.55,-1547.43 421.77,-1540.76 411.18,-1540.85 413.55,-1547.43"/>
</g>
<!-- store -->
<g id="node61" class="node">
<title>store</title>
<polygon fill="none" stroke="black" points="736.38,-383.9 682.38,-383.9 682.38,-347.9 736.38,-347.9 736.38,-383.9"/>
<text text-anchor="middle" x="709.38" y="-361.6" font-family="sans-serif" font-size="14.00">store</text>
</g>
<!-- covalence&#45;&gt;store -->
<g id="edge14" class="edge">
<title>covalence&#45;&gt;store</title>
<path fill="none" stroke="black" d="M62.76,-938.58C68.49,-860.21 94.63,-554.03 157,-484.9 292.84,-334.32 569.7,-349.48 670.55,-360.78"/>
<polygon fill="black" stroke="black" points="670.11,-364.25 680.45,-361.95 670.93,-357.3 670.11,-364.25"/>
</g>
<!-- wasm -->
<g id="node64" class="node">
<title>wasm</title>
<polygon fill="none" stroke="black" points="1029.12,-177.9 974.88,-177.9 974.88,-141.9 1029.12,-141.9 1029.12,-177.9"/>
<text text-anchor="middle" x="1002" y="-155.6" font-family="sans-serif" font-size="14.00">wasm</text>
</g>
<!-- covalence&#45;&gt;wasm -->
<g id="edge15" class="edge">
<title>covalence&#45;&gt;wasm</title>
<path fill="none" stroke="black" d="M62.96,-938.56C69.88,-854.82 101.41,-508.94 157,-417.9 172.23,-392.95 549.15,-102.9 578.38,-102.9 578.38,-102.9 578.38,-102.9 710.38,-102.9 808.4,-102.9 833.61,-110.29 928.75,-133.9 940.39,-136.79 952.78,-140.86 963.95,-144.92"/>
<polygon fill="black" stroke="black" points="962.63,-148.16 973.22,-148.41 965.09,-141.61 962.63,-148.16"/>
</g>
<!-- acset -->
<g id="node2" class="node">
<title>acset</title>
<polygon fill="none" stroke="black" points="887.38,-1059.9 833.38,-1059.9 833.38,-1023.9 887.38,-1023.9 887.38,-1059.9"/>
<text text-anchor="middle" x="860.38" y="-1037.6" font-family="sans-serif" font-size="14.00">acset</text>
</g>
<!-- alethe -->
<g id="node3" class="node">
<title>alethe</title>
<polygon fill="none" stroke="black" points="607.62,-1538.9 551.12,-1538.9 551.12,-1502.9 607.62,-1502.9 607.62,-1538.9"/>
<text text-anchor="middle" x="579.38" y="-1516.6" font-family="sans-serif" font-size="14.00">alethe</text>
</g>
<!-- core -->
<g id="node7" class="node">
<title>core</title>
<polygon fill="#ffd6d6" stroke="black" points="1029,-2375.9 975,-2375.9 975,-2339.9 1029,-2339.9 1029,-2375.9"/>
<text text-anchor="middle" x="1002" y="-2353.6" font-family="sans-serif" font-size="14.00">core</text>
</g>
<!-- alethe&#45;&gt;core -->
<g id="edge16" class="edge">
<title>alethe&#45;&gt;core</title>
<path fill="none" stroke="black" d="M583.08,-1539.39C591.22,-1592.67 617.7,-1750.61 662.75,-1874.9 694.13,-1961.46 719.75,-1975.26 756,-2059.9 774.76,-2103.7 761.39,-2124.37 792,-2160.9 836.94,-2214.53 878.6,-2190.1 928.75,-2238.9 955.58,-2265 976.39,-2303.07 988.64,-2329.08"/>
<polygon fill="black" stroke="black" points="985.4,-2330.4 992.74,-2338.04 991.76,-2327.49 985.4,-2330.4"/>
</g>
<!-- hol&#45;eval -->
<g id="node21" class="node">
<title>hol&#45;eval</title>
<polygon fill="none" stroke="black" points="895.38,-2283.9 825.38,-2283.9 825.38,-2247.9 895.38,-2247.9 895.38,-2283.9"/>
<text text-anchor="middle" x="860.38" y="-2261.6" font-family="sans-serif" font-size="14.00">hol&#45;eval</text>
</g>
<!-- alethe&#45;&gt;hol&#45;eval -->
<g id="edge17" class="edge">
<title>alethe&#45;&gt;hol&#45;eval</title>
<path fill="none" stroke="black" d="M582.97,-1539.03C590.89,-1591.99 617.04,-1750.52 662.75,-1874.9 693.96,-1959.83 720.51,-1972.65 756,-2055.9 775.35,-2101.28 770.52,-2116.48 792,-2160.9 805.37,-2188.55 824.6,-2217.78 839.1,-2238.36"/>
<polygon fill="black" stroke="black" points="836.24,-2240.39 844.9,-2246.49 841.94,-2236.32 836.24,-2240.39"/>
</g>
<!-- alethe&#45;&gt;init -->
<g id="edge18" class="edge">
<title>alethe&#45;&gt;init</title>
<path fill="none" stroke="black" d="M607.78,-1534.35C615.05,-1539.21 622.15,-1545.39 626.75,-1552.9 689.58,-1655.34 596.39,-1720.7 662.75,-1820.9 665.38,-1824.87 668.81,-1828.34 672.61,-1831.34"/>
<polygon fill="black" stroke="black" points="670.42,-1834.09 680.69,-1836.71 674.29,-1828.26 670.42,-1834.09"/>
</g>
<!-- sexp -->
<g id="node55" class="node">
<title>sexp</title>
<polygon fill="none" stroke="black" points="1029,-1400.9 975,-1400.9 975,-1364.9 1029,-1364.9 1029,-1400.9"/>
<text text-anchor="middle" x="1002" y="-1378.6" font-family="sans-serif" font-size="14.00">sexp</text>
</g>
<!-- alethe&#45;&gt;sexp -->
<g id="edge19" class="edge">
<title>alethe&#45;&gt;sexp</title>
<path fill="none" stroke="black" d="M600.37,-1502.48C616.28,-1488.63 639.64,-1470.03 662.75,-1457.9 763.02,-1405.24 898.76,-1389.47 963.56,-1384.81"/>
<polygon fill="black" stroke="black" points="963.56,-1388.32 973.3,-1384.16 963.09,-1381.33 963.56,-1388.32"/>
</g>
<!-- smt -->
<g id="node58" class="node">
<title>smt</title>
<polygon fill="none" stroke="black" points="736.38,-1502.9 682.38,-1502.9 682.38,-1466.9 736.38,-1466.9 736.38,-1502.9"/>
<text text-anchor="middle" x="709.38" y="-1480.6" font-family="sans-serif" font-size="14.00">smt</text>
</g>
<!-- alethe&#45;&gt;smt -->
<g id="edge20" class="edge">
<title>alethe&#45;&gt;smt</title>
<path fill="none" stroke="black" d="M607.83,-1513.17C626.34,-1507.97 650.98,-1501.04 671.24,-1495.34"/>
<polygon fill="black" stroke="black" points="672.14,-1498.72 680.82,-1492.65 670.24,-1491.99 672.14,-1498.72"/>
</g>
<!-- types -->
<g id="node63" class="node">
<title>types</title>
<polygon fill="#ffd6d6" stroke="black" points="1510.25,-1993.9 1456.25,-1993.9 1456.25,-1957.9 1510.25,-1957.9 1510.25,-1993.9"/>
<text text-anchor="middle" x="1483.25" y="-1971.6" font-family="sans-serif" font-size="14.00">types</text>
</g>
<!-- alethe&#45;&gt;types -->
<g id="edge21" class="edge">
<title>alethe&#45;&gt;types</title>
<path fill="none" stroke="black" d="M608.03,-1534.16C614.23,-1537.26 620.76,-1540.62 626.75,-1543.9 728.48,-1599.48 743.45,-1661.9 859.38,-1661.9 859.38,-1661.9 859.38,-1661.9 1239,-1661.9 1324.28,-1661.9 1362.79,-1661.87 1420.25,-1724.9 1449.89,-1757.4 1470.48,-1887.26 1478.51,-1946.35"/>
<polygon fill="black" stroke="black" points="1475.01,-1946.55 1479.79,-1956 1481.95,-1945.63 1475.01,-1946.55"/>
</g>
<!-- arrow -->
<g id="node4" class="node">
<title>arrow</title>
<polygon fill="none" stroke="black" points="606.38,-600.9 552.38,-600.9 552.38,-564.9 606.38,-564.9 606.38,-600.9"/>
<text text-anchor="middle" x="579.38" y="-578.6" font-family="sans-serif" font-size="14.00">arrow</text>
</g>
<!-- client&#45;&gt;hash -->
<g id="edge22" class="edge">
<title>client&#45;&gt;hash</title>
<path fill="none" stroke="black" d="M350.56,-953.56C433.09,-942.82 684.75,-907.52 756,-867.9 791.77,-848 822.54,-811.53 840.99,-786.29"/>
<polygon fill="black" stroke="black" points="843.62,-788.63 846.57,-778.45 837.92,-784.57 843.62,-788.63"/>
</g>
<!-- client&#45;&gt;shell -->
<g id="edge23" class="edge">
<title>client&#45;&gt;shell</title>
<path fill="none" stroke="black" d="M325.91,-975.14C334.78,-1064.87 375.03,-1456.78 405,-1501.9 407.46,-1505.6 410.62,-1508.88 414.12,-1511.76"/>
<polygon fill="black" stroke="black" points="411.85,-1514.44 422.06,-1517.25 415.83,-1508.68 411.85,-1514.44"/>
</g>
<!-- client&#45;&gt;store -->
<g id="edge24" class="edge">
<title>client&#45;&gt;store</title>
<path fill="none" stroke="black" d="M335.9,-938.6C365.63,-893.11 447.4,-772.35 532,-685.9 569.76,-647.31 598.69,-656.01 626.75,-609.9 668.93,-540.57 630.76,-505.47 662.75,-430.9 668.43,-417.67 677.06,-404.42 685.3,-393.36"/>
<polygon fill="black" stroke="black" points="688.06,-395.51 691.42,-385.46 682.53,-391.22 688.06,-395.51"/>
</g>
<!-- computation -->
<g id="node6" class="node">
<title>computation</title>
<polygon fill="none" stroke="black" points="909.25,-1909.9 811.5,-1909.9 811.5,-1873.9 909.25,-1873.9 909.25,-1909.9"/>
<text text-anchor="middle" x="860.38" y="-1887.6" font-family="sans-serif" font-size="14.00">computation</text>
</g>
<!-- logic&#45;api -->
<g id="node34" class="node">
<title>logic&#45;api</title>
<polygon fill="none" stroke="black" points="1039.25,-1909.9 964.75,-1909.9 964.75,-1873.9 1039.25,-1873.9 1039.25,-1909.9"/>
<text text-anchor="middle" x="1002" y="-1887.6" font-family="sans-serif" font-size="14.00">logic&#45;api</text>
</g>
<!-- computation&#45;&gt;logic&#45;api -->
<g id="edge25" class="edge">
<title>computation&#45;&gt;logic&#45;api</title>
<path fill="none" stroke="black" d="M909.43,-1891.9C923.48,-1891.9 938.84,-1891.9 952.89,-1891.9"/>
<polygon fill="black" stroke="black" points="952.82,-1895.4 962.82,-1891.9 952.82,-1888.4 952.82,-1895.4"/>
</g>
<!-- pure -->
<g id="node46" class="node">
<title>pure</title>
<polygon fill="#ffd6d6" stroke="black" points="1265,-2329.9 1211,-2329.9 1211,-2293.9 1265,-2293.9 1265,-2329.9"/>
<text text-anchor="middle" x="1238" y="-2307.6" font-family="sans-serif" font-size="14.00">pure</text>
</g>
<!-- core&#45;&gt;pure -->
<g id="edge26" class="edge">
<title>core&#45;&gt;pure</title>
<path fill="none" stroke="black" d="M1029.39,-2352.71C1071.02,-2344.53 1152.08,-2328.59 1199.66,-2319.24"/>
<polygon fill="black" stroke="black" points="1200.09,-2322.72 1209.22,-2317.36 1198.74,-2315.85 1200.09,-2322.72"/>
</g>
<!-- pure&#45;eval -->
<g id="node47" class="node">
<title>pure&#45;eval</title>
<polygon fill="#ffd6d6" stroke="black" points="1155,-2283.9 1075.25,-2283.9 1075.25,-2247.9 1155,-2247.9 1155,-2283.9"/>
<text text-anchor="middle" x="1115.12" y="-2261.6" font-family="sans-serif" font-size="14.00">pure&#45;eval</text>
</g>
<!-- core&#45;&gt;pure&#45;eval -->
<g id="edge27" class="edge">
<title>core&#45;&gt;pure&#45;eval</title>
<path fill="none" stroke="black" d="M1025.22,-2339.5C1041.88,-2325.71 1064.88,-2306.67 1083.31,-2291.41"/>
<polygon fill="black" stroke="black" points="1085.31,-2294.3 1090.78,-2285.23 1080.84,-2288.91 1085.31,-2294.3"/>
</g>
<!-- core&#45;&gt;types -->
<g id="edge28" class="edge">
<title>core&#45;&gt;types</title>
<path fill="none" stroke="black" d="M1029.36,-2366.29C1102.07,-2387.62 1307.48,-2435.44 1420.25,-2334.9 1469.1,-2291.35 1479.49,-2083.64 1481.67,-2005.61"/>
<polygon fill="black" stroke="black" points="1485.17,-2005.84 1481.92,-1995.76 1478.17,-2005.67 1485.17,-2005.84"/>
</g>
<!-- core&#45;test&#45;guest -->
<g id="node8" class="node">
<title>core&#45;test&#45;guest</title>
<polygon fill="none" stroke="black" points="121,-1028.9 0,-1028.9 0,-992.9 121,-992.9 121,-1028.9"/>
<text text-anchor="middle" x="60.5" y="-1006.6" font-family="sans-serif" font-size="14.00">core&#45;test&#45;guest</text>
</g>
<!-- crypto&#45;sig -->
<g id="node9" class="node">
<title>crypto&#45;sig</title>
<polygon fill="none" stroke="black" points="241.25,-326.9 157,-326.9 157,-290.9 241.25,-290.9 241.25,-326.9"/>
<text text-anchor="middle" x="199.12" y="-304.6" font-family="sans-serif" font-size="14.00">crypto&#45;sig</text>
</g>
<!-- decimal&#45;api -->
<g id="node10" class="node">
<title>decimal&#45;api</title>
<polygon fill="none" stroke="black" points="1285,-1811.9 1191,-1811.9 1191,-1775.9 1285,-1775.9 1285,-1811.9"/>
<text text-anchor="middle" x="1238" y="-1789.6" font-family="sans-serif" font-size="14.00">decimal&#45;api</text>
</g>
<!-- decimal&#45;api&#45;&gt;types -->
<g id="edge29" class="edge">
<title>decimal&#45;api&#45;&gt;types</title>
<path fill="none" stroke="black" d="M1263.66,-1812.35C1307.58,-1845.2 1399.34,-1913.87 1448.86,-1950.91"/>
<polygon fill="black" stroke="black" points="1446.57,-1953.57 1456.67,-1956.76 1450.76,-1947.97 1446.57,-1953.57"/>
</g>
<!-- egglog -->
<g id="node11" class="node">
<title>egglog</title>
<polygon fill="none" stroke="black" points="890.88,-1541.9 829.88,-1541.9 829.88,-1505.9 890.88,-1505.9 890.88,-1541.9"/>
<text text-anchor="middle" x="860.38" y="-1519.6" font-family="sans-serif" font-size="14.00">egglog</text>
</g>
<!-- egglog&#45;&gt;sexp -->
<g id="edge30" class="edge">
<title>egglog&#45;&gt;sexp</title>
<path fill="none" stroke="black" d="M891.28,-1513.79C903.78,-1508.58 917.89,-1501.31 928.75,-1491.9 942.73,-1479.77 968.19,-1438.91 984.85,-1410.81"/>
<polygon fill="black" stroke="black" points="987.74,-1412.81 989.79,-1402.42 981.7,-1409.26 987.74,-1412.81"/>
</g>
<!-- egglog&#45;&gt;types -->
<g id="edge31" class="edge">
<title>egglog&#45;&gt;types</title>
<path fill="none" stroke="black" d="M891.33,-1524.68C938.65,-1525.84 1033.59,-1527.9 1114.12,-1527.9 1114.12,-1527.9 1114.12,-1527.9 1239,-1527.9 1320.51,-1527.9 1362.81,-1498.07 1420.25,-1555.9 1475.01,-1611.03 1481.63,-1860.27 1482.25,-1946.46"/>
<polygon fill="black" stroke="black" points="1478.75,-1946.23 1482.3,-1956.22 1485.75,-1946.2 1478.75,-1946.23"/>
</g>
<!-- forsp -->
<g id="node12" class="node">
<title>forsp</title>
<polygon fill="none" stroke="black" points="477.5,-1202.9 423.5,-1202.9 423.5,-1166.9 477.5,-1166.9 477.5,-1202.9"/>
<text text-anchor="middle" x="450.5" y="-1180.6" font-family="sans-serif" font-size="14.00">forsp</text>
</g>
<!-- forsp&#45;&gt;hash -->
<g id="edge32" class="edge">
<title>forsp&#45;&gt;hash</title>
<path fill="none" stroke="black" d="M477.69,-1166.69C483.78,-1162.28 490.18,-1157.51 496,-1152.9 556.42,-1105 582.71,-1102.18 626.75,-1038.9 652.54,-1001.84 631.22,-976.22 662.75,-943.9 694,-911.86 720.99,-933.77 756,-905.9 797.01,-873.25 828.71,-820.14 845.67,-787.49"/>
<polygon fill="black" stroke="black" points="848.77,-789.11 850.16,-778.61 842.52,-785.95 848.77,-789.11"/>
</g>
<!-- repl&#45;core -->
<g id="node52" class="node">
<title>repl&#45;core</title>
<polygon fill="none" stroke="black" points="618.5,-1278.9 540.25,-1278.9 540.25,-1242.9 618.5,-1242.9 618.5,-1278.9"/>
<text text-anchor="middle" x="579.38" y="-1256.6" font-family="sans-serif" font-size="14.00">repl&#45;core</text>
</g>
<!-- forsp&#45;&gt;repl&#45;core -->
<g id="edge33" class="edge">
<title>forsp&#45;&gt;repl&#45;core</title>
<path fill="none" stroke="black" d="M477.79,-1200.64C495.17,-1211.06 518.31,-1224.92 538.01,-1236.71"/>
<polygon fill="black" stroke="black" points="535.98,-1239.58 546.35,-1241.71 539.57,-1233.57 535.98,-1239.58"/>
</g>
<!-- forsp&#45;&gt;sexp -->
<g id="edge34" class="edge">
<title>forsp&#45;&gt;sexp</title>
<path fill="none" stroke="black" d="M477.83,-1190.12C517.77,-1198.02 596.1,-1213.42 662.75,-1225.9 780.83,-1248.01 828.4,-1207.86 928.75,-1273.9 957.99,-1293.14 978.22,-1328.74 989.68,-1354.02"/>
<polygon fill="black" stroke="black" points="986.42,-1355.29 993.6,-1363.08 992.85,-1352.52 986.42,-1355.29"/>
</g>
<!-- fuse&#45;&gt;hash -->
<g id="edge35" class="edge">
<title>fuse&#45;&gt;hash</title>
<path fill="none" stroke="black" d="M606.87,-717.27C656.76,-725.49 764.73,-743.29 821.98,-752.73"/>
<polygon fill="black" stroke="black" points="821.12,-756.14 831.56,-754.31 822.26,-749.23 821.12,-756.14"/>
</g>
<!-- fuse&#45;&gt;object -->
<g id="edge36" class="edge">
<title>fuse&#45;&gt;object</title>
<path fill="none" stroke="black" d="M605.05,-731.21C624.89,-745.93 652.94,-766.76 674.82,-782.99"/>
<polygon fill="black" stroke="black" points="672.44,-785.58 682.56,-788.73 676.61,-779.96 672.44,-785.58"/>
</g>
<!-- fuse&#45;&gt;store -->
<g id="edge37" class="edge">
<title>fuse&#45;&gt;store</title>
<path fill="none" stroke="black" d="M595.69,-694.49C606.08,-681.03 619.24,-661.87 626.75,-642.9 661.9,-554.02 626.41,-519.29 662.75,-430.9 668.28,-417.45 677,-404.05 685.34,-392.94"/>
<polygon fill="black" stroke="black" points="687.84,-395.42 691.24,-385.39 682.33,-391.11 687.84,-395.42"/>
</g>
<!-- git&#45;&gt;hash -->
<g id="edge38" class="edge">
<title>git&#45;&gt;hash</title>
<path fill="none" stroke="black" d="M477.84,-511.11C513.11,-517.44 577.03,-531.37 626.75,-555.9 716.47,-600.15 799.02,-687.78 837.16,-732.01"/>
<polygon fill="black" stroke="black" points="834.27,-734.01 843.42,-739.36 839.59,-729.48 834.27,-734.01"/>
</g>
<!-- git&#45;&gt;object -->
<g id="edge39" class="edge">
<title>git&#45;&gt;object</title>
<path fill="none" stroke="black" d="M460.32,-525.2C469.92,-545.56 485.31,-579.58 496,-609.9 515.94,-666.44 491.73,-695.48 532,-739.9 567.81,-779.39 629.2,-796.15 669.29,-803.12"/>
<polygon fill="black" stroke="black" points="668.57,-806.54 678.99,-804.67 669.67,-799.63 668.57,-806.54"/>
</g>
<!-- sqlite -->
<g id="node60" class="node">
<title>sqlite</title>
<polygon fill="none" stroke="black" points="887.38,-383.9 833.38,-383.9 833.38,-347.9 887.38,-347.9 887.38,-383.9"/>
<text text-anchor="middle" x="860.38" y="-361.6" font-family="sans-serif" font-size="14.00">sqlite</text>
</g>
<!-- git&#45;&gt;sqlite -->
<g id="edge40" class="edge">
<title>git&#45;&gt;sqlite</title>
<path fill="none" stroke="black" d="M477.77,-497.2C517.64,-482.53 595.88,-453.97 662.75,-430.9 718.08,-411.8 782.56,-390.7 822.18,-377.87"/>
<polygon fill="black" stroke="black" points="823.03,-381.28 831.46,-374.87 820.87,-374.62 823.03,-381.28"/>
</g>
<!-- git&#45;&gt;store -->
<g id="edge41" class="edge">
<title>git&#45;&gt;store</title>
<path fill="none" stroke="black" d="M477.5,-488.45C483.6,-484.05 490.06,-479.34 496,-474.9 512.23,-462.75 514.67,-457.42 532,-446.9 577.81,-419.08 634.77,-394.56 671.35,-379.98"/>
<polygon fill="black" stroke="black" points="672.59,-383.26 680.61,-376.34 670.02,-376.74 672.59,-383.26"/>
</g>
<!-- grammar -->
<g id="node15" class="node">
<title>grammar</title>
<polygon fill="none" stroke="black" points="1038.88,-2039.9 965.12,-2039.9 965.12,-2003.9 1038.88,-2003.9 1038.88,-2039.9"/>
<text text-anchor="middle" x="1002" y="-2017.6" font-family="sans-serif" font-size="14.00">grammar</text>
</g>
<!-- grammar&#45;&gt;types -->
<g id="edge42" class="edge">
<title>grammar&#45;&gt;types</title>
<path fill="none" stroke="black" d="M1039.2,-2020.89C1111.82,-2018.49 1280.33,-2010.94 1420.25,-1989.9 1428.26,-1988.69 1436.77,-1987.03 1444.84,-1985.26"/>
<polygon fill="black" stroke="black" points="1445.42,-1988.72 1454.38,-1983.08 1443.86,-1981.9 1445.42,-1988.72"/>
</g>
<!-- graph -->
<g id="node16" class="node">
<title>graph</title>
<polygon fill="none" stroke="black" points="736.38,-529.9 682.38,-529.9 682.38,-493.9 736.38,-493.9 736.38,-529.9"/>
<text text-anchor="middle" x="709.38" y="-507.6" font-family="sans-serif" font-size="14.00">graph</text>
</g>
<!-- graph&#45;&gt;hash -->
<g id="edge43" class="edge">
<title>graph&#45;&gt;hash</title>
<path fill="none" stroke="black" d="M736.74,-526.5C743.7,-531.33 750.74,-537.2 756,-543.9 783.13,-578.42 773.41,-596.12 792,-635.9 807.6,-669.29 828.31,-706.2 842.63,-730.79"/>
<polygon fill="black" stroke="black" points="839.5,-732.37 847.58,-739.22 845.54,-728.82 839.5,-732.37"/>
</g>
<!-- parse -->
<g id="node42" class="node">
<title>parse</title>
<polygon fill="none" stroke="black" points="1142.12,-1113.9 1088.12,-1113.9 1088.12,-1077.9 1142.12,-1077.9 1142.12,-1113.9"/>
<text text-anchor="middle" x="1115.12" y="-1091.6" font-family="sans-serif" font-size="14.00">parse</text>
</g>
<!-- graph&#45;&gt;parse -->
<g id="edge44" class="edge">
<title>graph&#45;&gt;parse</title>
<path fill="none" stroke="black" d="M736.82,-521.4C800.23,-545.65 961.43,-616.18 1039.25,-731.9 1076.42,-787.16 1102.33,-990.03 1110.97,-1066.48"/>
<polygon fill="black" stroke="black" points="1107.46,-1066.57 1112.04,-1076.12 1114.42,-1065.8 1107.46,-1066.57"/>
</g>
<!-- rand -->
<g id="node50" class="node">
<title>rand</title>
<polygon fill="none" stroke="black" points="1029,-776.9 975,-776.9 975,-740.9 1029,-740.9 1029,-776.9"/>
<text text-anchor="middle" x="1002" y="-754.6" font-family="sans-serif" font-size="14.00">rand</text>
</g>
<!-- hash&#45;&gt;rand -->
<g id="edge45" class="edge">
<title>hash&#45;&gt;rand</title>
<path fill="none" stroke="black" d="M887.64,-758.9C908.99,-758.9 939.4,-758.9 963.35,-758.9"/>
<polygon fill="black" stroke="black" points="963.34,-762.4 973.34,-758.9 963.34,-755.4 963.34,-762.4"/>
</g>
<!-- haskell -->
<g id="node18" class="node">
<title>haskell</title>
<polygon fill="none" stroke="black" points="481.75,-2291.9 419.25,-2291.9 419.25,-2255.9 481.75,-2255.9 481.75,-2291.9"/>
<text text-anchor="middle" x="450.5" y="-2269.6" font-family="sans-serif" font-size="14.00">haskell</text>
</g>
<!-- hol&#45;api -->
<g id="node20" class="node">
<title>hol&#45;api</title>
<polygon fill="none" stroke="black" points="610.62,-2443.9 548.12,-2443.9 548.12,-2407.9 610.62,-2407.9 610.62,-2443.9"/>
<text text-anchor="middle" x="579.38" y="-2421.6" font-family="sans-serif" font-size="14.00">hol&#45;api</text>
</g>
<!-- haskell&#45;&gt;hol&#45;api -->
<g id="edge46" class="edge">
<title>haskell&#45;&gt;hol&#45;api</title>
<path fill="none" stroke="black" d="M460.86,-2292.1C474.27,-2317.03 500.81,-2362.29 532,-2393.9 534.25,-2396.18 536.69,-2398.41 539.23,-2400.55"/>
<polygon fill="black" stroke="black" points="536.89,-2403.16 546.93,-2406.55 541.2,-2397.64 536.89,-2403.16"/>
</g>
<!-- haskell&#45;&gt;hol&#45;eval -->
<g id="edge47" class="edge">
<title>haskell&#45;&gt;hol&#45;eval</title>
<path fill="none" stroke="black" d="M482.16,-2273.29C553.22,-2271.9 729.5,-2268.44 813.48,-2266.8"/>
<polygon fill="black" stroke="black" points="813.49,-2270.3 823.42,-2266.6 813.35,-2263.3 813.49,-2270.3"/>
</g>
<!-- haskell&#45;&gt;init -->
<g id="edge48" class="edge">
<title>haskell&#45;&gt;init</title>
<path fill="none" stroke="black" d="M451.74,-2255.43C453.29,-2203.96 463.78,-2056.5 532,-1961.9 567.45,-1912.73 631.25,-1879.34 671.62,-1861.98"/>
<polygon fill="black" stroke="black" points="672.81,-1865.27 680.69,-1858.19 670.12,-1858.81 672.81,-1865.27"/>
</g>
<!-- haskell&#45;&gt;types -->
<g id="edge49" class="edge">
<title>haskell&#45;&gt;types</title>
<path fill="none" stroke="black" d="M456.55,-2292.36C482.31,-2382.04 607.74,-2767.9 859.38,-2767.9 859.38,-2767.9 859.38,-2767.9 1239,-2767.9 1345.58,-2767.9 1386.02,-2638.56 1420.25,-2545.9 1457.53,-2444.95 1476.06,-2107.93 1480.92,-2005.61"/>
<polygon fill="black" stroke="black" points="1484.41,-2005.99 1481.38,-1995.84 1477.42,-2005.66 1484.41,-2005.99"/>
</g>
<!-- hol&#45;&gt;core -->
<g id="edge50" class="edge">
<title>hol&#45;&gt;core</title>
<path fill="none" stroke="black" d="M887.71,-2462.32C900.76,-2456.87 916.34,-2449.25 928.75,-2439.9 949.2,-2424.48 968.18,-2402.52 981.54,-2385.2"/>
<polygon fill="black" stroke="black" points="984.24,-2387.44 987.46,-2377.34 978.65,-2383.23 984.24,-2387.44"/>
</g>
<!-- hol&#45;api&#45;&gt;core -->
<g id="edge51" class="edge">
<title>hol&#45;api&#45;&gt;core</title>
<path fill="none" stroke="black" d="M611.1,-2428.56C672.93,-2432.9 816.09,-2437.72 928.75,-2401.9 942.42,-2397.55 956.17,-2390.12 967.96,-2382.58"/>
<polygon fill="black" stroke="black" points="969.73,-2385.61 976.09,-2377.14 965.83,-2379.79 969.73,-2385.61"/>
</g>
<!-- hol&#45;api&#45;&gt;hol&#45;eval -->
<g id="edge52" class="edge">
<title>hol&#45;api&#45;&gt;hol&#45;eval</title>
<path fill="none" stroke="black" d="M592.9,-2407.55C607.51,-2387.41 633.45,-2355.34 662.75,-2335.9 709.77,-2304.7 772.34,-2285.55 814.14,-2275.34"/>
<polygon fill="black" stroke="black" points="814.69,-2278.81 823.62,-2273.11 813.08,-2272 814.69,-2278.81"/>
</g>
<!-- inductive -->
<g id="node22" class="node">
<title>inductive</title>
<polygon fill="none" stroke="black" points="898.75,-1855.9 822,-1855.9 822,-1819.9 898.75,-1819.9 898.75,-1855.9"/>
<text text-anchor="middle" x="860.38" y="-1833.6" font-family="sans-serif" font-size="14.00">inductive</text>
</g>
<!-- hol&#45;api&#45;&gt;inductive -->
<g id="edge53" class="edge">
<title>hol&#45;api&#45;&gt;inductive</title>
<path fill="none" stroke="black" d="M582.02,-2407.57C589.9,-2330.62 630.27,-2029.96 792,-1864.9 797.45,-1859.33 804.2,-1854.88 811.3,-1851.33"/>
<polygon fill="black" stroke="black" points="812.68,-1854.55 820.45,-1847.35 809.89,-1848.13 812.68,-1854.55"/>
</g>
<!-- hol&#45;api&#45;&gt;init -->
<g id="edge54" class="edge">
<title>hol&#45;api&#45;&gt;init</title>
<path fill="none" stroke="black" d="M583.01,-2407.64C593.99,-2332.12 636.78,-2044 662.75,-1955.9 670.93,-1928.13 684.1,-1897.89 694.2,-1876.48"/>
<polygon fill="black" stroke="black" points="697.33,-1878.05 698.5,-1867.52 691.01,-1875.02 697.33,-1878.05"/>
</g>
<!-- hol&#45;api&#45;&gt;logic&#45;api -->
<g id="edge55" class="edge">
<title>hol&#45;api&#45;&gt;logic&#45;api</title>
<path fill="none" stroke="black" d="M610.87,-2424.3C679.99,-2418.89 848.74,-2395.31 928.75,-2292.9 969.81,-2240.33 949.59,-2059.85 964.75,-1994.9 970.75,-1969.2 980.94,-1940.99 989,-1920.6"/>
<polygon fill="black" stroke="black" points="992.15,-1922.13 992.64,-1911.55 985.66,-1919.51 992.15,-1922.13"/>
</g>
<!-- hol&#45;api&#45;&gt;pure -->
<g id="edge56" class="edge">
<title>hol&#45;api&#45;&gt;pure</title>
<path fill="none" stroke="black" d="M610.84,-2436.7C667.17,-2456.64 782.75,-2497.35 792,-2498.9 851.94,-2508.94 870.22,-2515.26 928.75,-2498.9 1042.2,-2467.17 1155.44,-2381.03 1207.46,-2337.62"/>
<polygon fill="black" stroke="black" points="1209.61,-2340.39 1215,-2331.26 1205.1,-2335.04 1209.61,-2340.39"/>
</g>
<!-- hol&#45;api&#45;&gt;types -->
<g id="edge57" class="edge">
<title>hol&#45;api&#45;&gt;types</title>
<path fill="none" stroke="black" d="M598.94,-2444C666.82,-2509.45 902.79,-2729.9 1001,-2729.9 1001,-2729.9 1001,-2729.9 1239,-2729.9 1394.05,-2729.9 1464.66,-2145.14 1479.31,-2005.55"/>
<polygon fill="black" stroke="black" points="1482.78,-2005.97 1480.33,-1995.67 1475.82,-2005.26 1482.78,-2005.97"/>
</g>
<!-- hol&#45;eval&#45;&gt;core -->
<g id="edge58" class="edge">
<title>hol&#45;eval&#45;&gt;core</title>
<path fill="none" stroke="black" d="M895.84,-2280.25C906.68,-2285.29 918.49,-2291.35 928.75,-2297.9 937.56,-2303.52 955.68,-2318.57 971.56,-2332.19"/>
<polygon fill="black" stroke="black" points="969.08,-2334.67 978.94,-2338.55 973.65,-2329.37 969.08,-2334.67"/>
</g>
<!-- hol&#45;eval&#45;&gt;pure -->
<g id="edge59" class="edge">
<title>hol&#45;eval&#45;&gt;pure</title>
<path fill="none" stroke="black" d="M895.81,-2270.71C915.91,-2273.49 941.75,-2276.99 964.75,-2279.9 1048.41,-2290.48 1146.69,-2301.74 1199.27,-2307.68"/>
<polygon fill="black" stroke="black" points="1198.87,-2311.15 1209.2,-2308.79 1199.65,-2304.2 1198.87,-2311.15"/>
</g>
<!-- hol&#45;eval&#45;&gt;pure&#45;eval -->
<g id="edge60" class="edge">
<title>hol&#45;eval&#45;&gt;pure&#45;eval</title>
<path fill="none" stroke="black" d="M895.73,-2265.9C938.96,-2265.9 1013.58,-2265.9 1063.39,-2265.9"/>
<polygon fill="black" stroke="black" points="1063.35,-2269.4 1073.35,-2265.9 1063.35,-2262.4 1063.35,-2269.4"/>
</g>
<!-- hol&#45;eval&#45;&gt;sexp -->
<g id="edge61" class="edge">
<title>hol&#45;eval&#45;&gt;sexp</title>
<path fill="none" stroke="black" d="M870.08,-2247.58C884.82,-2215.71 914.45,-2147.66 928.75,-2086.9 959.74,-1955.2 990.88,-1529.1 998.98,-1412.58"/>
<polygon fill="black" stroke="black" points="1002.47,-1412.84 999.67,-1402.62 995.48,-1412.35 1002.47,-1412.84"/>
</g>
<!-- hol&#45;eval&#45;&gt;types -->
<g id="edge62" class="edge">
<title>hol&#45;eval&#45;&gt;types</title>
<path fill="none" stroke="black" d="M895.77,-2255.57C944.06,-2242.01 1034.96,-2219.9 1114.12,-2219.9 1114.12,-2219.9 1114.12,-2219.9 1239,-2219.9 1320.26,-2219.9 1358.83,-2249.1 1420.25,-2195.9 1449.04,-2170.96 1469.52,-2059.7 1477.96,-2005.61"/>
<polygon fill="black" stroke="black" points="1481.4,-2006.29 1479.44,-1995.88 1474.47,-2005.24 1481.4,-2006.29"/>
</g>
<!-- inductive&#45;&gt;logic&#45;api -->
<g id="edge63" class="edge">
<title>inductive&#45;&gt;logic&#45;api</title>
<path fill="none" stroke="black" d="M899.16,-1852.51C916.09,-1859.06 936.24,-1866.85 954.12,-1873.77"/>
<polygon fill="black" stroke="black" points="952.63,-1876.94 963.22,-1877.28 955.16,-1870.41 952.63,-1876.94"/>
</g>
<!-- init&#45;&gt;computation -->
<g id="edge64" class="edge">
<title>init&#45;&gt;computation</title>
<path fill="none" stroke="black" d="M736.67,-1855.66C754.25,-1860.85 778.11,-1867.9 800.12,-1874.4"/>
<polygon fill="black" stroke="black" points="799.04,-1877.73 809.62,-1877.2 801.02,-1871.01 799.04,-1877.73"/>
</g>
<!-- init&#45;&gt;core -->
<g id="edge65" class="edge">
<title>init&#45;&gt;core</title>
<path fill="none" stroke="black" d="M736.68,-1861.22C743.99,-1866.14 751.23,-1872.38 756,-1879.9 806.05,-1958.73 746.13,-2005.56 792,-2086.9 831.57,-2157.08 880.04,-2141.72 928.75,-2205.9 958.01,-2244.45 979.66,-2296.76 991.29,-2328.87"/>
<polygon fill="black" stroke="black" points="987.99,-2330.03 994.61,-2338.3 994.59,-2327.71 987.99,-2330.03"/>
</g>
<!-- init&#45;&gt;grammar -->
<g id="edge66" class="edge">
<title>init&#45;&gt;grammar</title>
<path fill="none" stroke="black" d="M736.51,-1861.99C743.64,-1866.87 750.82,-1872.9 756,-1879.9 786.63,-1921.23 752.76,-1956.63 792,-1989.9 836.78,-2027.86 907.19,-2030.88 953.72,-2027.8"/>
<polygon fill="black" stroke="black" points="953.81,-2031.3 963.5,-2027.02 953.25,-2024.32 953.81,-2031.3"/>
</g>
<!-- init&#45;&gt;hash -->
<g id="edge67" class="edge">
<title>init&#45;&gt;hash</title>
<path fill="none" stroke="black" d="M736.71,-1838.06C744.21,-1833.93 751.55,-1828.31 756,-1820.9 802.13,-1744.03 778.52,-1103.52 792,-1014.9 804.75,-931.13 834.08,-835.23 849.5,-788.13"/>
<polygon fill="black" stroke="black" points="852.81,-789.27 852.62,-778.68 846.16,-787.07 852.81,-789.27"/>
</g>
<!-- init&#45;&gt;hol -->
<g id="edge68" class="edge">
<title>init&#45;&gt;hol</title>
<path fill="none" stroke="black" d="M712.56,-1866.39C720.09,-1927.84 746.95,-2130.55 792,-2292.9 807.06,-2347.17 831.75,-2408.12 846.69,-2443.06"/>
<polygon fill="black" stroke="black" points="843.4,-2444.26 850.57,-2452.06 849.82,-2441.49 843.4,-2444.26"/>
</g>
<!-- init&#45;&gt;hol&#45;eval -->
<g id="edge69" class="edge">
<title>init&#45;&gt;hol&#45;eval</title>
<path fill="none" stroke="black" d="M736.79,-1861.15C744.11,-1866.06 751.32,-1872.33 756,-1879.9 812.75,-1971.62 761.09,-2016.56 792,-2119.9 804.82,-2162.77 828.01,-2209.2 843.55,-2237.92"/>
<polygon fill="black" stroke="black" points="840.29,-2239.25 848.17,-2246.34 846.42,-2235.88 840.29,-2239.25"/>
</g>
<!-- init&#45;&gt;inductive -->
<g id="edge70" class="edge">
<title>init&#45;&gt;inductive</title>
<path fill="none" stroke="black" d="M736.67,-1846.13C757.01,-1844.77 785.75,-1842.84 810.3,-1841.19"/>
<polygon fill="black" stroke="black" points="810.35,-1844.69 820.09,-1840.53 809.88,-1837.71 810.35,-1844.69"/>
</g>
<!-- k -->
<g id="node26" class="node">
<title>k</title>
<polygon fill="none" stroke="black" points="887.38,-1633.9 833.38,-1633.9 833.38,-1597.9 887.38,-1597.9 887.38,-1633.9"/>
<text text-anchor="middle" x="860.38" y="-1611.6" font-family="sans-serif" font-size="14.00">k</text>
</g>
<!-- init&#45;&gt;k -->
<g id="edge71" class="edge">
<title>init&#45;&gt;k</title>
<path fill="none" stroke="black" d="M736.86,-1835.64C743.67,-1831.62 750.59,-1826.68 756,-1820.9 769.12,-1806.86 821.11,-1697.71 845.98,-1644.65"/>
<polygon fill="black" stroke="black" points="849.14,-1646.15 850.21,-1635.61 842.8,-1643.19 849.14,-1646.15"/>
</g>
<!-- init&#45;&gt;logic&#45;api -->
<g id="edge72" class="edge">
<title>init&#45;&gt;logic&#45;api</title>
<path fill="none" stroke="black" d="M736.68,-1864.91C743.2,-1869.51 750.03,-1874.67 756,-1879.9 773.76,-1895.42 770.39,-1909.44 792,-1918.9 844.21,-1941.76 910.28,-1926.79 954,-1911.58"/>
<polygon fill="black" stroke="black" points="954.99,-1914.94 963.19,-1908.24 952.6,-1908.36 954.99,-1914.94"/>
</g>
<!-- metamath -->
<g id="node36" class="node">
<title>metamath</title>
<polygon fill="none" stroke="black" points="900.62,-1221.9 820.12,-1221.9 820.12,-1185.9 900.62,-1185.9 900.62,-1221.9"/>
<text text-anchor="middle" x="860.38" y="-1199.6" font-family="sans-serif" font-size="14.00">metamath</text>
</g>
<!-- init&#45;&gt;metamath -->
<g id="edge73" class="edge">
<title>init&#45;&gt;metamath</title>
<path fill="none" stroke="black" d="M736.47,-1837.9C743.95,-1833.76 751.34,-1828.19 756,-1820.9 798.93,-1753.7 777.96,-1542.39 792,-1463.9 807.21,-1378.87 835.68,-1280.77 850.26,-1233.03"/>
<polygon fill="black" stroke="black" points="853.53,-1234.32 853.12,-1223.73 846.84,-1232.26 853.53,-1234.32"/>
</g>
<!-- init&#45;&gt;sexp -->
<g id="edge74" class="edge">
<title>init&#45;&gt;sexp</title>
<path fill="none" stroke="black" d="M736.42,-1837.87C743.91,-1833.73 751.31,-1828.16 756,-1820.9 834.62,-1699.19 700.33,-1609.09 792,-1496.9 832.4,-1447.46 874,-1485.75 928.75,-1452.9 947.73,-1441.51 965.62,-1424.25 978.85,-1409.72"/>
<polygon fill="black" stroke="black" points="981.46,-1412.05 985.45,-1402.23 976.21,-1407.41 981.46,-1412.05"/>
</g>
<!-- spectec -->
<g id="node59" class="node">
<title>spectec</title>
<polygon fill="none" stroke="black" points="895,-2077.9 825.75,-2077.9 825.75,-2041.9 895,-2041.9 895,-2077.9"/>
<text text-anchor="middle" x="860.38" y="-2055.6" font-family="sans-serif" font-size="14.00">spectec</text>
</g>
<!-- init&#45;&gt;spectec -->
<g id="edge75" class="edge">
<title>init&#45;&gt;spectec</title>
<path fill="none" stroke="black" d="M736.86,-1861.74C744,-1866.61 751.09,-1872.7 756,-1879.9 794.16,-1935.81 749.28,-1975.39 792,-2027.9 798.11,-2035.4 806.39,-2041.26 815.07,-2045.78"/>
<polygon fill="black" stroke="black" points="813.39,-2048.86 823.94,-2049.86 816.32,-2042.5 813.39,-2048.86"/>
</g>
<!-- init&#45;&gt;types -->
<g id="edge76" class="edge">
<title>init&#45;&gt;types</title>
<path fill="none" stroke="black" d="M736.81,-1857.79C743.62,-1861.21 750.55,-1865.56 756,-1870.9 780.42,-1894.83 764.36,-1918.76 792,-1938.9 868.25,-1994.44 906.67,-1975.9 1001,-1975.9 1001,-1975.9 1001,-1975.9 1239,-1975.9 1311.8,-1975.9 1396.86,-1975.9 1444.65,-1975.9"/>
<polygon fill="black" stroke="black" points="1444.46,-1979.4 1454.46,-1975.9 1444.46,-1972.4 1444.46,-1979.4"/>
</g>
<!-- json -->
<g id="node24" class="node">
<title>json</title>
<polygon fill="none" stroke="black" points="887.38,-329.9 833.38,-329.9 833.38,-293.9 887.38,-293.9 887.38,-329.9"/>
<text text-anchor="middle" x="860.38" y="-307.6" font-family="sans-serif" font-size="14.00">json</text>
</g>
<!-- json&#45;api -->
<g id="node25" class="node">
<title>json&#45;api</title>
<polygon fill="none" stroke="black" points="744.38,-1756.9 674.38,-1756.9 674.38,-1720.9 744.38,-1720.9 744.38,-1756.9"/>
<text text-anchor="middle" x="709.38" y="-1734.6" font-family="sans-serif" font-size="14.00">json&#45;api</text>
</g>
<!-- json&#45;api&#45;&gt;decimal&#45;api -->
<g id="edge77" class="edge">
<title>json&#45;api&#45;&gt;decimal&#45;api</title>
<path fill="none" stroke="black" d="M744.83,-1741.34C787.89,-1744.48 863.84,-1750.33 928.75,-1756.9 1016.34,-1765.76 1117.64,-1778.37 1179.5,-1786.35"/>
<polygon fill="black" stroke="black" points="1178.71,-1789.77 1189.08,-1787.58 1179.61,-1782.83 1178.71,-1789.77"/>
</g>
<!-- json&#45;api&#45;&gt;inductive -->
<g id="edge78" class="edge">
<title>json&#45;api&#45;&gt;inductive</title>
<path fill="none" stroke="black" d="M743.23,-1757.2C747.69,-1760.21 752.08,-1763.47 756,-1766.9 775.03,-1783.51 771.63,-1795.95 792,-1810.9 797.8,-1815.15 804.36,-1818.85 811.06,-1822.04"/>
<polygon fill="black" stroke="black" points="809.66,-1825.24 820.22,-1826.01 812.44,-1818.82 809.66,-1825.24"/>
</g>
<!-- parsing&#45;api -->
<g id="node43" class="node">
<title>parsing&#45;api</title>
<polygon fill="none" stroke="black" points="906.25,-1801.9 814.5,-1801.9 814.5,-1765.9 906.25,-1765.9 906.25,-1801.9"/>
<text text-anchor="middle" x="860.38" y="-1779.6" font-family="sans-serif" font-size="14.00">parsing&#45;api</text>
</g>
<!-- json&#45;api&#45;&gt;parsing&#45;api -->
<g id="edge79" class="edge">
<title>json&#45;api&#45;&gt;parsing&#45;api</title>
<path fill="none" stroke="black" d="M744.56,-1749.22C761.88,-1754.45 783.35,-1760.94 803.03,-1766.88"/>
<polygon fill="black" stroke="black" points="802.02,-1770.23 812.6,-1769.77 804.04,-1763.53 802.02,-1770.23"/>
</g>
<!-- json&#45;api&#45;&gt;types -->
<g id="edge80" class="edge">
<title>json&#45;api&#45;&gt;types</title>
<path fill="none" stroke="black" d="M744.62,-1731.28C798.77,-1719.93 907.58,-1699.9 1001,-1699.9 1001,-1699.9 1001,-1699.9 1239,-1699.9 1369.69,-1699.9 1446.86,-1876.21 1472.58,-1946.99"/>
<polygon fill="black" stroke="black" points="1469.26,-1948.1 1475.89,-1956.36 1475.85,-1945.77 1469.26,-1948.1"/>
</g>
<!-- k&#45;&gt;grammar -->
<g id="edge81" class="edge">
<title>k&#45;&gt;grammar</title>
<path fill="none" stroke="black" d="M871.7,-1634.03C886.28,-1660.34 912.91,-1710.99 928.75,-1756.9 952.8,-1826.62 944.47,-1847.98 964.75,-1918.9 972.01,-1944.27 982.09,-1972.51 989.78,-1992.99"/>
<polygon fill="black" stroke="black" points="986.42,-1993.98 993.24,-2002.09 992.96,-1991.5 986.42,-1993.98"/>
</g>
<!-- k&#45;&gt;parse -->
<g id="edge82" class="edge">
<title>k&#45;&gt;parse</title>
<path fill="none" stroke="black" d="M883.58,-1597.48C921.99,-1564.28 1000.45,-1490.33 1039.25,-1409.9 1086.31,-1312.31 1105,-1183.05 1111.32,-1125.6"/>
<polygon fill="black" stroke="black" points="1114.8,-1125.97 1112.36,-1115.66 1107.84,-1125.24 1114.8,-1125.97"/>
</g>
<!-- k&#45;&gt;sexp -->
<g id="edge83" class="edge">
<title>k&#45;&gt;sexp</title>
<path fill="none" stroke="black" d="M885.34,-1597.63C899.63,-1585.68 917.18,-1568.96 928.75,-1550.9 954.91,-1510.06 944.87,-1492.13 964.75,-1447.9 970.35,-1435.44 977.5,-1422.2 983.97,-1410.94"/>
<polygon fill="black" stroke="black" points="986.86,-1412.93 988.89,-1402.54 980.82,-1409.4 986.86,-1412.93"/>
</g>
<!-- kernel -->
<g id="node27" class="node">
<title>kernel</title>
<polygon fill="none" stroke="black" points="608,-1370.9 550.75,-1370.9 550.75,-1334.9 608,-1334.9 608,-1370.9"/>
<text text-anchor="middle" x="579.38" y="-1348.6" font-family="sans-serif" font-size="14.00">kernel</text>
</g>
<!-- kernel&#45;&gt;hash -->
<g id="edge84" class="edge">
<title>kernel&#45;&gt;hash</title>
<path fill="none" stroke="black" d="M597.35,-1334.48C607.64,-1322.21 620.03,-1305.21 626.75,-1287.9 674.72,-1164.36 587.02,-1100.65 662.75,-991.9 689.39,-953.64 722.48,-976.29 756,-943.9 802.84,-898.64 834.33,-827.51 849.3,-787.93"/>
<polygon fill="black" stroke="black" points="852.56,-789.2 852.73,-778.61 845.99,-786.79 852.56,-789.2"/>
</g>
<!-- kernel&#45;&gt;init -->
<g id="edge85" class="edge">
<title>kernel&#45;&gt;init</title>
<path fill="none" stroke="black" d="M587.78,-1371.26C598.19,-1397.84 616.97,-1448.82 626.75,-1493.9 642.25,-1565.34 623.11,-1759.47 662.75,-1820.9 665.39,-1824.99 668.88,-1828.54 672.77,-1831.6"/>
<polygon fill="black" stroke="black" points="670.78,-1834.48 681.06,-1837.05 674.62,-1828.63 670.78,-1834.48"/>
</g>
<!-- kernel&#45;&gt;object -->
<g id="edge86" class="edge">
<title>kernel&#45;&gt;object</title>
<path fill="none" stroke="black" d="M597.43,-1334.51C607.75,-1322.25 620.14,-1305.26 626.75,-1287.9 679.84,-1148.35 632.34,-1100.07 662.75,-953.9 671.39,-912.35 687.02,-865.79 697.55,-836.66"/>
<polygon fill="black" stroke="black" points="700.77,-838.05 700.92,-827.45 694.19,-835.64 700.77,-838.05"/>
</g>
<!-- kernel&#45;&gt;sexp -->
<g id="edge87" class="edge">
<title>kernel&#45;&gt;sexp</title>
<path fill="none" stroke="black" d="M608.35,-1348.52C668.05,-1340.08 812.02,-1324.5 928.75,-1349.9 940.8,-1352.52 953.25,-1357.33 964.34,-1362.49"/>
<polygon fill="black" stroke="black" points="962.63,-1365.55 973.15,-1366.82 965.72,-1359.27 962.63,-1365.55"/>
</g>
<!-- kernel&#45;&gt;store -->
<g id="edge88" class="edge">
<title>kernel&#45;&gt;store</title>
<path fill="none" stroke="black" d="M597.82,-1334.65C608.29,-1322.45 620.72,-1305.46 626.75,-1287.9 688.67,-1107.62 601.52,-611.41 662.75,-430.9 667.39,-417.23 675.86,-403.87 684.26,-392.85"/>
<polygon fill="black" stroke="black" points="686.73,-395.36 690.26,-385.37 681.27,-390.98 686.73,-395.36"/>
</g>
<!-- kernel&#45;sat -->
<g id="node28" class="node">
<title>kernel&#45;sat</title>
<polygon fill="none" stroke="black" points="621.12,-2109.9 537.62,-2109.9 537.62,-2073.9 621.12,-2073.9 621.12,-2109.9"/>
<text text-anchor="middle" x="579.38" y="-2087.6" font-family="sans-serif" font-size="14.00">kernel&#45;sat</text>
</g>
<!-- kernel&#45;sat&#45;&gt;core -->
<g id="edge89" class="edge">
<title>kernel&#45;sat&#45;&gt;core</title>
<path fill="none" stroke="black" d="M614.13,-2110.36C652.46,-2132.68 715,-2173.36 756,-2221.9 778.83,-2248.92 764.97,-2270.06 792,-2292.9 793.7,-2294.33 904.38,-2328.33 963.96,-2346.57"/>
<polygon fill="black" stroke="black" points="962.76,-2349.87 973.35,-2349.45 964.81,-2343.17 962.76,-2349.87"/>
</g>
<!-- kernel&#45;sat&#45;&gt;hol&#45;eval -->
<g id="edge90" class="edge">
<title>kernel&#45;sat&#45;&gt;hol&#45;eval</title>
<path fill="none" stroke="black" d="M621.52,-2094.63C660.61,-2099.3 718.79,-2111.9 756,-2145.9 787.19,-2174.4 762.95,-2203.2 792,-2233.9 798.39,-2240.65 806.5,-2246.13 814.85,-2250.53"/>
<polygon fill="black" stroke="black" points="813.17,-2253.6 823.71,-2254.71 816.16,-2247.27 813.17,-2253.6"/>
</g>
<!-- kernel&#45;sat&#45;&gt;init -->
<g id="edge91" class="edge">
<title>kernel&#45;sat&#45;&gt;init</title>
<path fill="none" stroke="black" d="M592.32,-2073.45C602,-2058.24 615.78,-2035.97 626.75,-2015.9 652.99,-1967.88 680.1,-1910.17 695.53,-1876.41"/>
<polygon fill="black" stroke="black" points="698.54,-1878.26 699.49,-1867.71 692.16,-1875.36 698.54,-1878.26"/>
</g>
<!-- sat -->
<g id="node53" class="node">
<title>sat</title>
<polygon fill="none" stroke="black" points="887.38,-1113.9 833.38,-1113.9 833.38,-1077.9 887.38,-1077.9 887.38,-1113.9"/>
<text text-anchor="middle" x="860.38" y="-1091.6" font-family="sans-serif" font-size="14.00">sat</text>
</g>
<!-- kernel&#45;sat&#45;&gt;sat -->
<g id="edge92" class="edge">
<title>kernel&#45;sat&#45;&gt;sat</title>
<path fill="none" stroke="black" d="M595.16,-2073.48C606.01,-2058.81 619.99,-2037.27 626.75,-2015.9 701.65,-1778.94 609.41,-1700.62 662.75,-1457.9 697,-1302.03 679.89,-1236.47 792,-1122.9 800.3,-1114.49 811.56,-1108.62 822.49,-1104.55"/>
<polygon fill="black" stroke="black" points="823.33,-1107.96 831.76,-1101.53 821.17,-1101.3 823.33,-1107.96"/>
</g>
<!-- kernel&#45;smt -->
<g id="node29" class="node">
<title>kernel&#45;smt</title>
<polygon fill="none" stroke="black" points="494.5,-2470.9 406.5,-2470.9 406.5,-2434.9 494.5,-2434.9 494.5,-2470.9"/>
<text text-anchor="middle" x="450.5" y="-2448.6" font-family="sans-serif" font-size="14.00">kernel&#45;smt</text>
</g>
<!-- kernel&#45;smt&#45;&gt;core -->
<g id="edge93" class="edge">
<title>kernel&#45;smt&#45;&gt;core</title>
<path fill="none" stroke="black" d="M490.27,-2471.28C576.37,-2509.19 787.06,-2585.5 928.75,-2498.9 968.43,-2474.64 987.21,-2420.93 995.39,-2387.24"/>
<polygon fill="black" stroke="black" points="998.75,-2388.24 997.53,-2377.72 991.92,-2386.71 998.75,-2388.24"/>
</g>
<!-- kernel&#45;smt&#45;&gt;hol&#45;api -->
<g id="edge94" class="edge">
<title>kernel&#45;smt&#45;&gt;hol&#45;api</title>
<path fill="none" stroke="black" d="M494.81,-2443.68C508.38,-2440.79 523.32,-2437.61 536.78,-2434.75"/>
<polygon fill="black" stroke="black" points="537.13,-2438.25 546.18,-2432.75 535.67,-2431.41 537.13,-2438.25"/>
</g>
<!-- kv -->
<g id="node30" class="node">
<title>kv</title>
<polygon fill="none" stroke="black" points="226.12,-196.9 172.12,-196.9 172.12,-160.9 226.12,-160.9 226.12,-196.9"/>
<text text-anchor="middle" x="199.12" y="-174.6" font-family="sans-serif" font-size="14.00">kv</text>
</g>
<!-- lean -->
<g id="node31" class="node">
<title>lean</title>
<polygon fill="none" stroke="black" points="87.5,-1082.9 33.5,-1082.9 33.5,-1046.9 87.5,-1046.9 87.5,-1082.9"/>
<text text-anchor="middle" x="60.5" y="-1060.6" font-family="sans-serif" font-size="14.00">lean</text>
</g>
<!-- lisp -->
<g id="node32" class="node">
<title>lisp</title>
<polygon fill="none" stroke="black" points="477.5,-1492.9 423.5,-1492.9 423.5,-1456.9 477.5,-1456.9 477.5,-1492.9"/>
<text text-anchor="middle" x="450.5" y="-1470.6" font-family="sans-serif" font-size="14.00">lisp</text>
</g>
<!-- lisp&#45;&gt;core -->
<g id="edge95" class="edge">
<title>lisp&#45;&gt;core</title>
<path fill="none" stroke="black" d="M477.62,-1485.16C484.77,-1489.27 491.72,-1494.77 496,-1501.9 570.75,-1626.53 459.87,-2028.73 532,-2154.9 566.45,-2215.14 727.17,-2303.13 792,-2327.9 849.12,-2349.71 920.55,-2355.84 963.38,-2357.45"/>
<polygon fill="black" stroke="black" points="963.05,-2360.95 973.15,-2357.75 963.26,-2353.95 963.05,-2360.95"/>
</g>
<!-- lisp&#45;&gt;hol&#45;api -->
<g id="edge96" class="edge">
<title>lisp&#45;&gt;hol&#45;api</title>
<path fill="none" stroke="black" d="M477.66,-1485.15C484.81,-1489.26 491.75,-1494.75 496,-1501.9 538.55,-1573.4 519.33,-2167.66 532,-2249.9 540.11,-2302.51 557.62,-2362.09 568.66,-2396.68"/>
<polygon fill="black" stroke="black" points="565.26,-2397.54 571.66,-2405.97 571.92,-2395.38 565.26,-2397.54"/>
</g>
<!-- lisp&#45;&gt;hol&#45;eval -->
<g id="edge97" class="edge">
<title>lisp&#45;&gt;hol&#45;eval</title>
<path fill="none" stroke="black" d="M477.61,-1485.17C484.76,-1489.28 491.71,-1494.77 496,-1501.9 566.83,-1619.57 454.05,-2005.81 532,-2118.9 536.33,-2125.17 725.61,-2207.87 814.34,-2246.39"/>
<polygon fill="black" stroke="black" points="812.94,-2249.6 823.51,-2250.37 815.73,-2243.18 812.94,-2249.6"/>
</g>
<!-- lisp&#45;&gt;init -->
<g id="edge98" class="edge">
<title>lisp&#45;&gt;init</title>
<path fill="none" stroke="black" d="M477.94,-1487.4C484.43,-1491.36 490.96,-1496.22 496,-1501.9 521.63,-1530.74 505.29,-1553.05 532,-1580.9 564.68,-1614.96 598.42,-1591.13 626.75,-1628.9 678.85,-1698.35 612.95,-1749.78 662.75,-1820.9 665.48,-1824.8 668.97,-1828.23 672.81,-1831.21"/>
<polygon fill="black" stroke="black" points="670.63,-1833.97 680.91,-1836.56 674.49,-1828.13 670.63,-1833.97"/>
</g>
<!-- lisp&#45;&gt;repl&#45;core -->
<g id="edge99" class="edge">
<title>lisp&#45;&gt;repl&#45;core</title>
<path fill="none" stroke="black" d="M460.46,-1456.6C474.63,-1428.07 503.53,-1371.55 532,-1325.9 539.91,-1313.21 549.38,-1299.69 557.7,-1288.27"/>
<polygon fill="black" stroke="black" points="560.33,-1290.59 563.45,-1280.47 554.7,-1286.44 560.33,-1290.59"/>
</g>
<!-- lisp&#45;&gt;sexp -->
<g id="edge100" class="edge">
<title>lisp&#45;&gt;sexp</title>
<path fill="none" stroke="black" d="M477.95,-1465.32C534.59,-1445.38 672.22,-1399.92 792,-1383.9 851.54,-1375.93 921.47,-1377.85 963.46,-1380.2"/>
<polygon fill="black" stroke="black" points="963.08,-1383.68 973.28,-1380.79 963.5,-1376.7 963.08,-1383.68"/>
</g>
<!-- sexpr&#45;api -->
<g id="node56" class="node">
<title>sexpr&#45;api</title>
<polygon fill="none" stroke="black" points="748.12,-1811.9 670.62,-1811.9 670.62,-1775.9 748.12,-1775.9 748.12,-1811.9"/>
<text text-anchor="middle" x="709.38" y="-1789.6" font-family="sans-serif" font-size="14.00">sexpr&#45;api</text>
</g>
<!-- lisp&#45;&gt;sexpr&#45;api -->
<g id="edge101" class="edge">
<title>lisp&#45;&gt;sexpr&#45;api</title>
<path fill="none" stroke="black" d="M477.93,-1468.81C516.32,-1461.68 587.23,-1455.3 626.75,-1493.9 713.99,-1579.1 596.33,-1663.63 662.75,-1765.9 663.04,-1766.34 663.34,-1766.79 663.65,-1767.22"/>
<polygon fill="black" stroke="black" points="660.95,-1769.45 670.31,-1774.41 666.08,-1764.7 660.95,-1769.45"/>
</g>
<!-- lisp&#45;&gt;types -->
<g id="edge102" class="edge">
<title>lisp&#45;&gt;types</title>
<path fill="none" stroke="black" d="M472.98,-1456.67C488.61,-1444.04 510.69,-1427.48 532,-1415.9 571.58,-1394.39 599.33,-1415.64 626.75,-1379.9 723.28,-1254.07 562.36,-1147.67 662.75,-1024.9 687.66,-994.43 961.65,-919.9 1001,-919.9 1001,-919.9 1001,-919.9 1239,-919.9 1455.69,-919.9 1479.37,-1774.91 1481.94,-1946.22"/>
<polygon fill="black" stroke="black" points="1478.44,-1946.1 1482.07,-1956.05 1485.44,-1946.01 1478.44,-1946.1"/>
</g>
<!-- llm -->
<g id="node33" class="node">
<title>llm</title>
<polygon fill="none" stroke="black" points="226.12,-570.9 172.12,-570.9 172.12,-534.9 226.12,-534.9 226.12,-570.9"/>
<text text-anchor="middle" x="199.12" y="-548.6" font-family="sans-serif" font-size="14.00">llm</text>
</g>
<!-- llm&#45;&gt;proto -->
<g id="edge103" class="edge">
<title>llm&#45;&gt;proto</title>
<path fill="none" stroke="black" d="M226.6,-552.9C243.46,-552.9 265.58,-552.9 284.29,-552.9"/>
<polygon fill="black" stroke="black" points="284.19,-556.4 294.19,-552.9 284.19,-549.4 284.19,-556.4"/>
</g>
<!-- lsp&#45;&gt;sexp -->
<g id="edge104" class="edge">
<title>lsp&#45;&gt;sexp</title>
<path fill="none" stroke="black" d="M887.69,-1154.93C901.54,-1158.81 917.86,-1165.52 928.75,-1176.9 930.35,-1178.57 971.46,-1297.29 990.94,-1353.72"/>
<polygon fill="black" stroke="black" points="987.57,-1354.69 994.14,-1363.01 994.19,-1352.41 987.57,-1354.69"/>
</g>
<!-- lsp&#45;&gt;wasm -->
<g id="edge105" class="edge">
<title>lsp&#45;&gt;wasm</title>
<path fill="none" stroke="black" d="M887.57,-1146.24C902.11,-1142.76 919.14,-1136.01 928.75,-1122.9 942.92,-1103.56 989.47,-349.62 999.2,-189.57"/>
<polygon fill="black" stroke="black" points="1002.69,-190 999.8,-179.8 995.7,-189.57 1002.69,-190"/>
</g>
<!-- metamath&#45;&gt;parse -->
<g id="edge106" class="edge">
<title>metamath&#45;&gt;parse</title>
<path fill="none" stroke="black" d="M901,-1188.25C910.14,-1184.58 919.8,-1180.64 928.75,-1176.9 980.64,-1155.17 1040.18,-1128.92 1077.47,-1112.31"/>
<polygon fill="black" stroke="black" points="1078.74,-1115.57 1086.45,-1108.3 1075.89,-1109.18 1078.74,-1115.57"/>
</g>
<!-- metamath&#45;&gt;sexp -->
<g id="edge107" class="edge">
<title>metamath&#45;&gt;sexp</title>
<path fill="none" stroke="black" d="M900.91,-1217.31C910.86,-1222.04 920.91,-1228.17 928.75,-1235.9 962.46,-1269.16 982.89,-1321.36 993.05,-1353.78"/>
<polygon fill="black" stroke="black" points="989.68,-1354.73 995.9,-1363.31 996.39,-1352.72 989.68,-1354.73"/>
</g>
<!-- multiformat -->
<g id="node37" class="node">
<title>multiformat</title>
<polygon fill="none" stroke="black" points="754.5,-1069.9 664.25,-1069.9 664.25,-1033.9 754.5,-1033.9 754.5,-1069.9"/>
<text text-anchor="middle" x="709.38" y="-1047.6" font-family="sans-serif" font-size="14.00">multiformat</text>
</g>
<!-- multiformat&#45;&gt;acset -->
<g id="edge108" class="edge">
<title>multiformat&#45;&gt;acset</title>
<path fill="none" stroke="black" d="M754.68,-1048.92C776.05,-1047.49 801.41,-1045.79 821.81,-1044.42"/>
<polygon fill="black" stroke="black" points="821.94,-1047.92 831.68,-1043.75 821.47,-1040.93 821.94,-1047.92"/>
</g>
<!-- multiformat&#45;&gt;hash -->
<g id="edge109" class="edge">
<title>multiformat&#45;&gt;hash</title>
<path fill="none" stroke="black" d="M723.32,-1033.63C732.89,-1019.76 745.95,-1000.04 756,-981.9 793.39,-914.39 829.54,-830.98 847.54,-787.82"/>
<polygon fill="black" stroke="black" points="850.75,-789.23 851.34,-778.65 844.28,-786.55 850.75,-789.23"/>
</g>
<!-- multiformat&#45;&gt;parse -->
<g id="edge110" class="edge">
<title>multiformat&#45;&gt;parse</title>
<path fill="none" stroke="black" d="M742.63,-1033.44C757.21,-1026.12 774.97,-1018.58 792,-1014.9 851.41,-1002.06 869.26,-1002.47 928.75,-1014.9 983.43,-1026.32 1041.72,-1054.81 1078.03,-1074.76"/>
<polygon fill="black" stroke="black" points="1075.9,-1077.58 1086.34,-1079.4 1079.31,-1071.47 1075.9,-1077.58"/>
</g>
<!-- numerals -->
<g id="node38" class="node">
<title>numerals</title>
<polygon fill="none" stroke="black" points="617.75,-2006.9 541,-2006.9 541,-1970.9 617.75,-1970.9 617.75,-2006.9"/>
<text text-anchor="middle" x="579.38" y="-1984.6" font-family="sans-serif" font-size="14.00">numerals</text>
</g>
<!-- numerals&#45;&gt;grammar -->
<g id="edge111" class="edge">
<title>numerals&#45;&gt;grammar</title>
<path fill="none" stroke="black" d="M618.05,-1978.82C656.4,-1970.92 715.76,-1965.48 756,-1993.9 792.2,-2019.47 755.44,-2061.84 792,-2086.9 842.14,-2121.25 872,-2108.67 928.75,-2086.9 948.84,-2079.19 966.84,-2063.03 979.85,-2048.75"/>
<polygon fill="black" stroke="black" points="982.38,-2051.19 986.29,-2041.34 977.09,-2046.6 982.38,-2051.19"/>
</g>
<!-- numerals&#45;&gt;hol&#45;eval -->
<g id="edge112" class="edge">
<title>numerals&#45;&gt;hol&#45;eval</title>
<path fill="none" stroke="black" d="M597.99,-2007.11C613.82,-2022.69 638.27,-2044.92 662.75,-2059.9 700.92,-2083.26 726.45,-2064.29 756,-2097.9 797.29,-2144.85 752.05,-2185.8 792,-2233.9 798.06,-2241.19 806.16,-2246.93 814.65,-2251.41"/>
<polygon fill="black" stroke="black" points="813.16,-2254.58 823.7,-2255.62 816.12,-2248.23 813.16,-2254.58"/>
</g>
<!-- numerals&#45;&gt;init -->
<g id="edge113" class="edge">
<title>numerals&#45;&gt;init</title>
<path fill="none" stroke="black" d="M597.11,-1970.46C619.34,-1945.97 658.76,-1902.55 684.22,-1874.5"/>
<polygon fill="black" stroke="black" points="686.49,-1877.21 690.62,-1867.45 681.31,-1872.51 686.49,-1877.21"/>
</g>
<!-- numerals&#45;&gt;types -->
<g id="edge114" class="edge">
<title>numerals&#45;&gt;types</title>
<path fill="none" stroke="black" d="M618.13,-1996.05C656.26,-2004.82 715.21,-2022.78 756,-2055.9 778.97,-2074.55 768.65,-2093.72 792,-2111.9 869.31,-2172.06 903.04,-2181.9 1001,-2181.9 1001,-2181.9 1001,-2181.9 1239,-2181.9 1347.88,-2181.9 1433.09,-2060.21 1466.69,-2003.89"/>
<polygon fill="black" stroke="black" points="1469.58,-2005.89 1471.6,-1995.48 1463.53,-2002.36 1469.58,-2005.89"/>
</g>
<!-- object&#45;&gt;hash -->
<g id="edge115" class="edge">
<title>object&#45;&gt;hash</title>
<path fill="none" stroke="black" d="M738.4,-798.68C762.05,-790.9 796.09,-779.71 822.04,-771.17"/>
<polygon fill="black" stroke="black" points="823.13,-774.5 831.54,-768.05 820.94,-767.85 823.13,-774.5"/>
</g>
<!-- object&#45;&gt;parse -->
<g id="edge116" class="edge">
<title>object&#45;&gt;parse</title>
<path fill="none" stroke="black" d="M738.13,-823.19C796.49,-855.9 935.09,-936.58 1039.25,-1020.9 1057.42,-1035.6 1076,-1054.19 1090.1,-1069.18"/>
<polygon fill="black" stroke="black" points="1087.46,-1071.47 1096.83,-1076.42 1092.59,-1066.71 1087.46,-1071.47"/>
</g>
<!-- opentheory&#45;&gt;core -->
<g id="edge117" class="edge">
<title>opentheory&#45;&gt;core</title>
<path fill="none" stroke="black" d="M496.23,-2554.69C587.48,-2581.86 797.52,-2628.59 928.75,-2532.9 975.91,-2498.51 992.4,-2427.64 998.09,-2387.44"/>
<polygon fill="black" stroke="black" points="1001.53,-2388.12 999.31,-2377.76 994.59,-2387.24 1001.53,-2388.12"/>
</g>
<!-- opentheory&#45;&gt;hol -->
<g id="edge118" class="edge">
<title>opentheory&#45;&gt;hol</title>
<path fill="none" stroke="black" d="M496.25,-2555.12C558.34,-2573.43 672.4,-2596.72 756,-2553.9 780.37,-2541.41 770.97,-2521.43 792,-2503.9 801.03,-2496.37 812.12,-2490.16 822.68,-2485.28"/>
<polygon fill="black" stroke="black" points="823.78,-2488.61 831.58,-2481.44 821.01,-2482.18 823.78,-2488.61"/>
</g>
<!-- opentheory&#45;&gt;hol&#45;api -->
<g id="edge119" class="edge">
<title>opentheory&#45;&gt;hol&#45;api</title>
<path fill="none" stroke="black" d="M471.88,-2521.58C492.97,-2502.63 526.07,-2472.89 549.77,-2451.59"/>
<polygon fill="black" stroke="black" points="551.82,-2454.47 556.92,-2445.18 547.14,-2449.26 551.82,-2454.47"/>
</g>
<!-- opentheory&#45;&gt;hol&#45;eval -->
<g id="edge120" class="edge">
<title>opentheory&#45;&gt;hol&#45;eval</title>
<path fill="none" stroke="black" d="M495.04,-2521.46C531.39,-2505.33 583.97,-2480.25 626.75,-2452.9 705.61,-2402.47 789.01,-2330.09 831.28,-2291.85"/>
<polygon fill="black" stroke="black" points="833.49,-2294.57 838.53,-2285.25 828.78,-2289.39 833.49,-2294.57"/>
</g>
<!-- parquet -->
<g id="node41" class="node">
<title>parquet</title>
<polygon fill="none" stroke="black" points="484,-654.9 417,-654.9 417,-618.9 484,-618.9 484,-654.9"/>
<text text-anchor="middle" x="450.5" y="-632.6" font-family="sans-serif" font-size="14.00">parquet</text>
</g>
<!-- parquet&#45;&gt;arrow -->
<g id="edge121" class="edge">
<title>parquet&#45;&gt;arrow</title>
<path fill="none" stroke="black" d="M484.17,-622.99C501.77,-615.5 523.53,-606.24 541.7,-598.51"/>
<polygon fill="black" stroke="black" points="542.98,-601.77 550.81,-594.63 540.24,-595.32 542.98,-601.77"/>
</g>
<!-- parsing&#45;api&#45;&gt;logic&#45;api -->
<g id="edge122" class="edge">
<title>parsing&#45;api&#45;&gt;logic&#45;api</title>
<path fill="none" stroke="black" d="M906.73,-1798.7C914.4,-1802.14 922.04,-1806.19 928.75,-1810.9 949.58,-1825.51 968.53,-1847.23 981.79,-1864.51"/>
<polygon fill="black" stroke="black" points="978.86,-1866.43 987.65,-1872.36 984.48,-1862.25 978.86,-1866.43"/>
</g>
<!-- proptest -->
<g id="node44" class="node">
<title>proptest</title>
<polygon fill="none" stroke="black" points="95.88,-1136.9 25.12,-1136.9 25.12,-1100.9 95.88,-1100.9 95.88,-1136.9"/>
<text text-anchor="middle" x="60.5" y="-1114.6" font-family="sans-serif" font-size="14.00">proptest</text>
</g>
<!-- pure&#45;trusted -->
<g id="node48" class="node">
<title>pure&#45;trusted</title>
<polygon fill="#ffd6d6" stroke="black" points="1420.25,-2325.9 1321,-2325.9 1321,-2289.9 1420.25,-2289.9 1420.25,-2325.9"/>
<text text-anchor="middle" x="1370.62" y="-2303.6" font-family="sans-serif" font-size="14.00">pure&#45;trusted</text>
</g>
<!-- pure&#45;&gt;pure&#45;trusted -->
<g id="edge123" class="edge">
<title>pure&#45;&gt;pure&#45;trusted</title>
<path fill="none" stroke="black" d="M1265.43,-2311.09C1278.15,-2310.7 1293.96,-2310.21 1309.39,-2309.74"/>
<polygon fill="black" stroke="black" points="1309.11,-2313.25 1319,-2309.45 1308.89,-2306.25 1309.11,-2313.25"/>
</g>
<!-- pure&#45;eval&#45;&gt;pure -->
<g id="edge124" class="edge">
<title>pure&#45;eval&#45;&gt;pure</title>
<path fill="none" stroke="black" d="M1155.37,-2280.83C1169.76,-2286.31 1185.99,-2292.48 1200.16,-2297.88"/>
<polygon fill="black" stroke="black" points="1198.53,-2301 1209.12,-2301.29 1201.02,-2294.46 1198.53,-2301"/>
</g>
<!-- pure&#45;eval&#45;&gt;types -->
<g id="edge125" class="edge">
<title>pure&#45;eval&#45;&gt;types</title>
<path fill="none" stroke="black" d="M1155.25,-2274.63C1219.1,-2286.39 1346,-2299 1420.25,-2233.9 1454.51,-2203.86 1472.84,-2066.2 1479.41,-2005.17"/>
<polygon fill="black" stroke="black" points="1482.85,-2005.85 1480.41,-1995.54 1475.89,-2005.13 1482.85,-2005.85"/>
</g>
<!-- pure&#45;trusted&#45;&gt;types -->
<g id="edge126" class="edge">
<title>pure&#45;trusted&#45;&gt;types</title>
<path fill="none" stroke="black" d="M1405.05,-2289.67C1410.85,-2285.19 1416.28,-2279.92 1420.25,-2273.9 1476.48,-2188.61 1483.14,-2062.2 1483.03,-2005.41"/>
<polygon fill="black" stroke="black" points="1486.53,-2005.55 1482.93,-1995.59 1479.53,-2005.62 1486.53,-2005.55"/>
</g>
<!-- python -->
<g id="node49" class="node">
<title>python</title>
<polygon fill="none" stroke="black" points="91.38,-486.9 29.62,-486.9 29.62,-450.9 91.38,-450.9 91.38,-486.9"/>
<text text-anchor="middle" x="60.5" y="-464.6" font-family="sans-serif" font-size="14.00">python</text>
</g>
<!-- python&#45;&gt;crypto&#45;sig -->
<g id="edge127" class="edge">
<title>python&#45;&gt;crypto&#45;sig</title>
<path fill="none" stroke="black" d="M72.79,-450.74C89.41,-424.8 122.26,-376.34 157,-340.9 159.2,-338.65 161.55,-336.43 163.98,-334.27"/>
<polygon fill="black" stroke="black" points="165.87,-337.26 171.27,-328.14 161.36,-331.9 165.87,-337.26"/>
</g>
<!-- python&#45;&gt;git -->
<g id="edge128" class="edge">
<title>python&#45;&gt;git</title>
<path fill="none" stroke="black" d="M64.45,-450.55C71.86,-411.3 95.28,-319.68 157,-281.9 188.94,-262.35 206.94,-266.9 241.25,-281.9 334.37,-322.59 404.42,-427.73 434.02,-478.56"/>
<polygon fill="black" stroke="black" points="430.97,-480.27 438.97,-487.22 437.05,-476.8 430.97,-480.27"/>
</g>
<!-- python&#45;&gt;graph -->
<g id="edge129" class="edge">
<title>python&#45;&gt;graph</title>
<path fill="none" stroke="black" d="M87.24,-450.55C105.7,-438.52 131.68,-423.78 157,-416.9 358.5,-362.12 450.3,-297.24 626.75,-408.9 658.33,-428.88 637.56,-457.28 662.75,-484.9 665.73,-488.17 669.21,-491.17 672.89,-493.87"/>
<polygon fill="black" stroke="black" points="670.72,-496.64 681,-499.18 674.55,-490.78 670.72,-496.64"/>
</g>
<!-- python&#45;&gt;hash -->
<g id="edge130" class="edge">
<title>python&#45;&gt;hash</title>
<path fill="none" stroke="black" d="M91.85,-465.32C179.09,-456.32 436.53,-438.81 626.75,-518.9 643.62,-526 646.06,-531.37 662.75,-538.9 702.83,-556.97 722.46,-543.47 756,-571.9 806.6,-614.77 836.94,-688.96 850.64,-729.82"/>
<polygon fill="black" stroke="black" points="847.27,-730.76 853.68,-739.2 853.93,-728.61 847.27,-730.76"/>
</g>
<!-- python&#45;&gt;kv -->
<g id="edge131" class="edge">
<title>python&#45;&gt;kv</title>
<path fill="none" stroke="black" d="M64.66,-450.69C73.1,-406.09 99.58,-289.32 157,-210.9 158.9,-208.3 161.07,-205.8 163.4,-203.43"/>
<polygon fill="black" stroke="black" points="165.55,-206.2 170.62,-196.9 160.86,-201.01 165.55,-206.2"/>
</g>
<!-- python&#45;&gt;llm -->
<g id="edge132" class="edge">
<title>python&#45;&gt;llm</title>
<path fill="none" stroke="black" d="M91.48,-487.33C112.33,-500.15 140.21,-517.29 162.24,-530.83"/>
<polygon fill="black" stroke="black" points="160.26,-533.72 170.61,-535.98 163.92,-527.76 160.26,-533.72"/>
</g>
<!-- python&#45;&gt;object -->
<g id="edge133" class="edge">
<title>python&#45;&gt;object</title>
<path fill="none" stroke="black" d="M69.84,-487.05C84.43,-517.52 116.91,-579.84 157,-622.9 201.95,-671.17 219.46,-678.09 277.25,-709.9 382.98,-768.08 413.15,-782.94 532,-803.9 578.48,-812.09 632.9,-811.87 668.87,-810.4"/>
<polygon fill="black" stroke="black" points="668.98,-813.9 678.81,-809.93 668.65,-806.9 668.98,-813.9"/>
</g>
<!-- python&#45;&gt;repl -->
<g id="edge134" class="edge">
<title>python&#45;&gt;repl</title>
<path fill="none" stroke="black" d="M74.58,-487.3C91.74,-510.64 123.62,-551.26 157,-579.9 197.61,-614.73 251.17,-645.89 286.11,-664.58"/>
<polygon fill="black" stroke="black" points="284.07,-667.46 294.55,-669.04 287.34,-661.27 284.07,-667.46"/>
</g>
<!-- python&#45;&gt;sat -->
<g id="edge135" class="edge">
<title>python&#45;&gt;sat</title>
<path fill="none" stroke="black" d="M67.03,-487.14C78.98,-524.48 109.98,-611.15 157,-670.9 335.62,-897.84 394.82,-971.09 662.75,-1078.9 714.97,-1099.91 781.14,-1100.95 821.85,-1099"/>
<polygon fill="black" stroke="black" points="821.83,-1102.51 831.62,-1098.44 821.43,-1095.52 821.83,-1102.51"/>
</g>
<!-- python&#45;&gt;serve -->
<g id="edge136" class="edge">
<title>python&#45;&gt;serve</title>
<path fill="none" stroke="black" d="M65.3,-487.15C77.46,-545.25 117.04,-730.95 157,-882.9 167.07,-921.19 180.3,-964.91 188.99,-992.93"/>
<polygon fill="black" stroke="black" points="185.54,-993.61 191.86,-1002.11 192.22,-991.53 185.54,-993.61"/>
</g>
<!-- python&#45;&gt;sexp -->
<g id="edge137" class="edge">
<title>python&#45;&gt;sexp</title>
<path fill="none" stroke="black" d="M63.66,-487.35C74.74,-580.88 125.82,-1000.01 157,-1048.9 263.28,-1215.53 344.7,-1224.82 532,-1287.9 700.14,-1344.52 762.87,-1268.97 928.75,-1331.9 944.19,-1337.75 959.42,-1347.7 971.88,-1357.25"/>
<polygon fill="black" stroke="black" points="969.65,-1359.95 979.64,-1363.47 974.02,-1354.49 969.65,-1359.95"/>
</g>
<!-- python&#45;&gt;shell -->
<g id="edge138" class="edge">
<title>python&#45;&gt;shell</title>
<path fill="none" stroke="black" d="M63.86,-487.15C77.91,-595.75 150.19,-1152.55 157,-1168.9 180.67,-1225.74 216.14,-1222.67 241.25,-1278.9 276.47,-1357.77 220.71,-1404.59 277.25,-1469.9 311.17,-1509.07 372.28,-1522.27 411.85,-1526.69"/>
<polygon fill="black" stroke="black" points="411.34,-1530.16 421.63,-1527.64 412.01,-1523.19 411.34,-1530.16"/>
</g>
<!-- python&#45;&gt;store -->
<g id="edge139" class="edge">
<title>python&#45;&gt;store</title>
<path fill="none" stroke="black" d="M63.71,-450.63C69.82,-409.08 91.13,-307.78 157,-264.9 244.49,-207.93 539.34,-199.81 626.75,-256.9 660.07,-278.66 636.35,-309.11 662.75,-338.9 665.69,-342.21 669.13,-345.23 672.79,-347.96"/>
<polygon fill="black" stroke="black" points="670.61,-350.71 680.89,-353.28 674.45,-344.86 670.61,-350.71"/>
</g>
<!-- python&#45;&gt;wasm -->
<g id="edge140" class="edge">
<title>python&#45;&gt;wasm</title>
<path fill="none" stroke="black" d="M61.78,-450.54C63.52,-394.18 75.6,-220.86 157,-111.9 208.49,-42.98 236.1,-10.9 322.12,-10.9 322.12,-10.9 322.12,-10.9 710.38,-10.9 807.8,-10.9 847,23.1 928.75,-29.9 964.29,-52.94 983.95,-99.83 993.49,-130.54"/>
<polygon fill="black" stroke="black" points="990.08,-131.36 996.24,-139.99 996.8,-129.41 990.08,-131.36"/>
</g>
<!-- wasm&#45;store -->
<g id="node67" class="node">
<title>wasm&#45;store</title>
<polygon fill="none" stroke="black" points="626.75,-204.9 532,-204.9 532,-168.9 626.75,-168.9 626.75,-204.9"/>
<text text-anchor="middle" x="579.38" y="-182.6" font-family="sans-serif" font-size="14.00">wasm&#45;store</text>
</g>
<!-- python&#45;&gt;wasm&#45;store -->
<g id="edge141" class="edge">
<title>python&#45;&gt;wasm&#45;store</title>
<path fill="none" stroke="black" d="M64.12,-450.81C73.44,-389.14 107.18,-188.92 157,-151.9 268.31,-69.18 444.81,-127.61 529.67,-163.91"/>
<polygon fill="black" stroke="black" points="528.09,-167.04 538.65,-167.83 530.89,-160.62 528.09,-167.04"/>
</g>
<!-- repl&#45;&gt;arrow -->
<g id="edge142" class="edge">
<title>repl&#45;&gt;arrow</title>
<path fill="none" stroke="black" d="M350.54,-665.6C356.81,-661.08 363.32,-656.03 369,-650.9 386.99,-634.64 383.75,-621.57 405,-609.9 447.4,-586.6 503.92,-581.82 540.72,-581.54"/>
<polygon fill="black" stroke="black" points="540.4,-585.04 550.42,-581.59 540.43,-578.04 540.4,-585.04"/>
</g>
<!-- repl&#45;&gt;forsp -->
<g id="edge143" class="edge">
<title>repl&#45;&gt;forsp</title>
<path fill="none" stroke="black" d="M328.74,-701.36C347.59,-776.85 418.93,-1062.47 442.15,-1155.45"/>
<polygon fill="black" stroke="black" points="438.73,-1156.21 444.55,-1165.06 445.52,-1154.51 438.73,-1156.21"/>
</g>
<!-- repl&#45;&gt;git -->
<g id="edge144" class="edge">
<title>repl&#45;&gt;git</title>
<path fill="none" stroke="black" d="M350.32,-668.42C357.18,-663.6 364.03,-657.69 369,-650.9 399.85,-608.68 374.23,-581.17 405,-538.9 407.63,-535.28 410.8,-531.91 414.22,-528.82"/>
<polygon fill="black" stroke="black" points="416.27,-531.67 421.88,-522.68 411.89,-526.2 416.27,-531.67"/>
</g>
<!-- repl&#45;&gt;graph -->
<g id="edge145" class="edge">
<title>repl&#45;&gt;graph</title>
<path fill="none" stroke="black" d="M350.5,-665.97C357.05,-660.98 363.7,-655.17 369,-648.9 391.33,-622.48 377.57,-600.97 405,-579.9 484.65,-518.69 608.81,-510.54 670.68,-510.65"/>
<polygon fill="black" stroke="black" points="670.64,-514.15 680.68,-510.75 670.72,-507.15 670.64,-514.15"/>
</g>
<!-- repl&#45;&gt;hash -->
<g id="edge146" class="edge">
<title>repl&#45;&gt;hash</title>
<path fill="none" stroke="black" d="M350.62,-680.79C403.47,-677.1 525.62,-671.19 626.75,-685.9 685.88,-694.49 699.04,-704.84 756,-722.9 778.21,-729.94 802.86,-738.49 822.52,-745.5"/>
<polygon fill="black" stroke="black" points="821.15,-748.72 831.74,-748.8 823.51,-742.13 821.15,-748.72"/>
</g>
<!-- repl&#45;&gt;init -->
<g id="edge147" class="edge">
<title>repl&#45;&gt;init</title>
<path fill="none" stroke="black" d="M327.78,-701.12C335.88,-741.96 355.72,-843.97 369,-929.9 388.3,-1054.76 374.05,-1089.4 405,-1211.9 432.54,-1320.89 456.74,-1342.56 496,-1447.9 512.5,-1492.16 498.43,-1514.67 532,-1547.9 563.7,-1579.26 598.29,-1546.57 626.75,-1580.9 695.6,-1663.93 602.5,-1731.43 662.75,-1820.9 665.41,-1824.85 668.86,-1828.3 672.67,-1831.3"/>
<polygon fill="black" stroke="black" points="670.48,-1834.06 680.75,-1836.66 674.35,-1828.22 670.48,-1834.06"/>
</g>
<!-- repl&#45;&gt;object -->
<g id="edge148" class="edge">
<title>repl&#45;&gt;object</title>
<path fill="none" stroke="black" d="M350.41,-698.1C388.95,-719.7 463.64,-758.97 532,-779.9 578.01,-793.98 633.06,-801.28 669.28,-804.84"/>
<polygon fill="black" stroke="black" points="668.55,-808.29 678.83,-805.73 669.2,-801.32 668.55,-808.29"/>
</g>
<!-- repl&#45;&gt;parquet -->
<g id="edge149" class="edge">
<title>repl&#45;&gt;parquet</title>
<path fill="none" stroke="black" d="M350.41,-673.25C366.49,-667.35 387.48,-659.65 405.99,-652.86"/>
<polygon fill="black" stroke="black" points="406.94,-656.24 415.13,-649.51 404.53,-649.67 406.94,-656.24"/>
</g>
<!-- repl&#45;&gt;shell -->
<g id="edge150" class="edge">
<title>repl&#45;&gt;shell</title>
<path fill="none" stroke="black" d="M328.25,-701.37C337.21,-742.3 358.51,-843.8 369,-929.9 376.7,-993.11 372.03,-1447.41 405,-1501.9 407.35,-1505.79 410.5,-1509.19 414.04,-1512.15"/>
<polygon fill="black" stroke="black" points="411.94,-1514.95 422.16,-1517.75 415.92,-1509.19 411.94,-1514.95"/>
</g>
<!-- repl&#45;&gt;wasm -->
<g id="edge151" class="edge">
<title>repl&#45;&gt;wasm</title>
<path fill="none" stroke="black" d="M332.6,-664.44C341.91,-643.95 357.12,-609.81 369,-579.9 442.94,-393.82 366.35,-272.38 532,-159.9 601.67,-112.59 864.93,-141.73 963.47,-154.66"/>
<polygon fill="black" stroke="black" points="962.77,-158.1 973.14,-155.95 963.69,-151.16 962.77,-158.1"/>
</g>
<!-- sat&#45;&gt;parse -->
<g id="edge152" class="edge">
<title>sat&#45;&gt;parse</title>
<path fill="none" stroke="black" d="M887.47,-1095.9C932.4,-1095.9 1024.54,-1095.9 1076.44,-1095.9"/>
<polygon fill="black" stroke="black" points="1076.28,-1099.4 1086.28,-1095.9 1076.28,-1092.4 1076.28,-1099.4"/>
</g>
<!-- sat&#45;&gt;types -->
<g id="edge153" class="edge">
<title>sat&#45;&gt;types</title>
<path fill="none" stroke="black" d="M887.73,-1104.58C900.49,-1109.25 915.81,-1115.56 928.75,-1122.9 1018.8,-1173.94 1010.61,-1263.9 1114.12,-1263.9 1114.12,-1263.9 1114.12,-1263.9 1239,-1263.9 1350.05,-1263.9 1370.65,-1336.53 1420.25,-1435.9 1465.61,-1526.78 1478.52,-1846.66 1481.49,-1946.14"/>
<polygon fill="black" stroke="black" points="1477.98,-1946 1481.76,-1955.89 1484.98,-1945.8 1477.98,-1946"/>
</g>
<!-- sat&#45;&gt;wasm -->
<g id="edge154" class="edge">
<title>sat&#45;&gt;wasm</title>
<path fill="none" stroke="black" d="M887.55,-1092.22C902.08,-1088.74 919.11,-1081.99 928.75,-1068.9 942.13,-1050.72 989.02,-343.44 999.09,-189.34"/>
<polygon fill="black" stroke="black" points="1002.56,-189.78 999.72,-179.57 995.58,-189.32 1002.56,-189.78"/>
</g>
<!-- serve&#45;&gt;core -->
<g id="edge155" class="edge">
<title>serve&#45;&gt;core</title>
<path fill="none" stroke="black" d="M201.24,-1040.15C211.58,-1206.16 292.59,-2450.82 405,-2566.9 566.95,-2734.12 752.1,-2724.51 928.75,-2572.9 983.88,-2525.58 997.07,-2434.78 1000.14,-2387.76"/>
<polygon fill="black" stroke="black" points="1003.64,-2387.95 1000.67,-2377.78 996.65,-2387.58 1003.64,-2387.95"/>
</g>
<!-- serve&#45;&gt;forsp -->
<g id="edge156" class="edge">
<title>serve&#45;&gt;forsp</title>
<path fill="none" stroke="black" d="M217.36,-1040.26C232.28,-1055.51 254.92,-1077.19 277.25,-1092.9 314.89,-1119.37 328.42,-1119.19 369,-1140.9 383.44,-1148.62 399.26,-1157.23 413.03,-1164.78"/>
<polygon fill="black" stroke="black" points="411.32,-1167.83 421.77,-1169.58 414.69,-1161.7 411.32,-1167.83"/>
</g>
<!-- serve&#45;&gt;git -->
<g id="edge157" class="edge">
<title>serve&#45;&gt;git</title>
<path fill="none" stroke="black" d="M201.81,-1003.76C208.27,-937.77 233.29,-711.37 277.25,-655.9 305.22,-620.6 336.93,-644.51 369,-612.9 395.05,-587.22 381.44,-566.87 405,-538.9 407.74,-535.65 410.87,-532.56 414.18,-529.68"/>
<polygon fill="black" stroke="black" points="416.34,-532.43 422.02,-523.48 412,-526.94 416.34,-532.43"/>
</g>
<!-- serve&#45;&gt;hash -->
<g id="edge158" class="edge">
<title>serve&#45;&gt;hash</title>
<path fill="none" stroke="black" d="M226.45,-1017.15C259.92,-1010.84 319.33,-998.75 369,-983.9 486.27,-948.82 515.13,-937.12 626.75,-886.9 643.25,-879.47 646.18,-875.16 662.75,-867.9 703.02,-850.26 717.15,-855.47 756,-834.9 782.51,-820.86 809.74,-800.56 829.59,-784.47"/>
<polygon fill="black" stroke="black" points="831.77,-787.2 837.27,-778.14 827.32,-781.8 831.77,-787.2"/>
</g>
<!-- serve&#45;&gt;init -->
<g id="edge159" class="edge">
<title>serve&#45;&gt;init</title>
<path fill="none" stroke="black" d="M201.68,-1040.19C208.25,-1114.48 235.29,-1393.33 277.25,-1469.9 373.92,-1646.29 586.6,-1779.73 671.91,-1828.12"/>
<polygon fill="black" stroke="black" points="670.15,-1831.15 680.58,-1832.99 673.58,-1825.04 670.15,-1831.15"/>
</g>
<!-- serve&#45;&gt;lisp -->
<g id="edge160" class="edge">
<title>serve&#45;&gt;lisp</title>
<path fill="none" stroke="black" d="M208.73,-1040.22C245.78,-1118.97 390.4,-1425.57 405,-1442.9 407.74,-1446.14 410.87,-1449.23 414.18,-1452.12"/>
<polygon fill="black" stroke="black" points="412,-1454.85 422.02,-1458.31 416.34,-1449.36 412,-1454.85"/>
</g>
<!-- serve&#45;&gt;metamath -->
<g id="edge161" class="edge">
<title>serve&#45;&gt;metamath</title>
<path fill="none" stroke="black" d="M226.35,-1029.32C282.41,-1045.17 418.08,-1083.45 532,-1114.9 629.88,-1141.91 744.4,-1172.91 808.75,-1190.27"/>
<polygon fill="black" stroke="black" points="807.76,-1193.62 818.33,-1192.85 809.58,-1186.86 807.76,-1193.62"/>
</g>
<!-- serve&#45;&gt;object -->
<g id="edge162" class="edge">
<title>serve&#45;&gt;object</title>
<path fill="none" stroke="black" d="M226.61,-1018.33C296.74,-1007.93 491.22,-972.72 626.75,-886.9 649.31,-872.61 670.84,-851.34 686.12,-834.46"/>
<polygon fill="black" stroke="black" points="688.51,-837.05 692.51,-827.24 683.26,-832.41 688.51,-837.05"/>
</g>
<!-- serve&#45;&gt;proto -->
<g id="edge163" class="edge">
<title>serve&#45;&gt;proto</title>
<path fill="none" stroke="black" d="M201.53,-1003.41C207.4,-929.64 231.86,-656.8 277.25,-584.9 279.84,-580.8 283.15,-577.07 286.81,-573.73"/>
<polygon fill="black" stroke="black" points="288.93,-576.51 294.6,-567.56 284.59,-571.03 288.93,-576.51"/>
</g>
<!-- serve&#45;&gt;repl -->
<g id="edge164" class="edge">
<title>serve&#45;&gt;repl</title>
<path fill="none" stroke="black" d="M206.68,-1003.67C226.71,-948.03 287.17,-780.02 311.66,-711.98"/>
<polygon fill="black" stroke="black" points="314.93,-713.23 315.02,-702.64 308.34,-710.86 314.93,-713.23"/>
</g>
<!-- serve&#45;&gt;shell -->
<g id="edge165" class="edge">
<title>serve&#45;&gt;shell</title>
<path fill="none" stroke="black" d="M204.31,-1040.39C212.06,-1074.97 228.99,-1151.78 241.25,-1216.9 259.34,-1312.97 218.2,-1355.98 277.25,-1433.9 304.45,-1469.79 329.98,-1454.42 369,-1476.9 385.88,-1486.62 388.67,-1491.28 405,-1501.9 407.86,-1503.76 410.85,-1505.66 413.86,-1507.54"/>
<polygon fill="black" stroke="black" points="411.81,-1510.39 422.16,-1512.66 415.49,-1504.43 411.81,-1510.39"/>
</g>
<!-- serve&#45;&gt;store -->
<g id="edge166" class="edge">
<title>serve&#45;&gt;store</title>
<path fill="none" stroke="black" d="M201.21,-1003.5C205.79,-931.96 225.68,-673.38 277.25,-612.9 305.36,-579.92 338.35,-610.53 369,-579.9 402.41,-546.5 375.92,-517.12 405,-479.9 446.82,-426.38 468.83,-419.86 532,-394.9 577.7,-376.83 634.35,-370.02 670.92,-367.45"/>
<polygon fill="black" stroke="black" points="670.77,-370.97 680.54,-366.85 670.34,-363.98 670.77,-370.97"/>
</g>
<!-- sexp&#45;&gt;parse -->
<g id="edge167" class="edge">
<title>sexp&#45;&gt;parse</title>
<path fill="none" stroke="black" d="M1010.12,-1364.51C1028.98,-1315.81 1080.31,-1183.22 1103.04,-1124.52"/>
<polygon fill="black" stroke="black" points="1106.17,-1126.13 1106.52,-1115.54 1099.64,-1123.61 1106.17,-1126.13"/>
</g>
<!-- sexp&#45;&gt;types -->
<g id="edge168" class="edge">
<title>sexp&#45;&gt;types</title>
<path fill="none" stroke="black" d="M1029.42,-1382.25C1104.1,-1381.99 1317.9,-1392.38 1420.25,-1513.9 1475.64,-1579.66 1481.79,-1854.53 1482.29,-1946.09"/>
<polygon fill="black" stroke="black" points="1478.79,-1946.01 1482.32,-1956 1485.79,-1945.99 1478.79,-1946.01"/>
</g>
<!-- sexpr&#45;api&#45;&gt;inductive -->
<g id="edge169" class="edge">
<title>sexpr&#45;api&#45;&gt;inductive</title>
<path fill="none" stroke="black" d="M748.36,-1805.11C767.35,-1810.72 790.54,-1817.57 810.81,-1823.55"/>
<polygon fill="black" stroke="black" points="809.68,-1826.87 820.27,-1826.35 811.67,-1820.16 809.68,-1826.87"/>
</g>
<!-- shell&#45;&gt;hol -->
<g id="edge170" class="edge">
<title>shell&#45;&gt;hol</title>
<path fill="none" stroke="black" d="M451.51,-1547.14C451.87,-1646.92 457.48,-2126.43 532,-2249.9 600.72,-2363.74 752.79,-2432.38 822.79,-2459.06"/>
<polygon fill="black" stroke="black" points="821.29,-2462.24 831.88,-2462.45 823.74,-2455.68 821.29,-2462.24"/>
</g>
<!-- shell&#45;&gt;kernel -->
<g id="edge171" class="edge">
<title>shell&#45;&gt;kernel</title>
<path fill="none" stroke="black" d="M477.65,-1516.12C484.14,-1512.16 490.74,-1507.37 496,-1501.9 530.07,-1466.43 554.65,-1414.12 567.68,-1381.85"/>
<polygon fill="black" stroke="black" points="570.86,-1383.33 571.26,-1372.74 564.35,-1380.77 570.86,-1383.33"/>
</g>
<!-- smt&#45;&gt;sat -->
<g id="edge172" class="edge">
<title>smt&#45;&gt;sat</title>
<path fill="none" stroke="black" d="M712.27,-1466.41C719.41,-1400.24 746.56,-1176.22 792,-1122.9 799.78,-1113.76 811.1,-1107.68 822.25,-1103.66"/>
<polygon fill="black" stroke="black" points="823.23,-1107.02 831.75,-1100.72 821.17,-1100.33 823.23,-1107.02"/>
</g>
<!-- smt&#45;&gt;sexp -->
<g id="edge173" class="edge">
<title>smt&#45;&gt;sexp</title>
<path fill="none" stroke="black" d="M736.61,-1477.73C777.98,-1466.19 860.66,-1442.09 928.75,-1415.9 940.45,-1411.39 952.96,-1405.93 964.22,-1400.75"/>
<polygon fill="black" stroke="black" points="965.62,-1403.96 973.2,-1396.55 962.66,-1397.61 965.62,-1403.96"/>
</g>
<!-- smt&#45;&gt;types -->
<g id="edge174" class="edge">
<title>smt&#45;&gt;types</title>
<path fill="none" stroke="black" d="M726.83,-1503.26C742.05,-1518.89 766.16,-1540.42 792,-1550.9 878.43,-1585.95 907.73,-1569.9 1001,-1569.9 1001,-1569.9 1001,-1569.9 1239,-1569.9 1326.7,-1569.9 1365.41,-1579.46 1420.25,-1647.9 1457.17,-1693.96 1474.59,-1874.41 1480.17,-1946.2"/>
<polygon fill="black" stroke="black" points="1476.67,-1946.31 1480.9,-1956.02 1483.65,-1945.78 1476.67,-1946.31"/>
</g>
<!-- spectec&#45;&gt;grammar -->
<g id="edge175" class="edge">
<title>spectec&#45;&gt;grammar</title>
<path fill="none" stroke="black" d="M895.17,-2050.7C912.85,-2045.89 934.77,-2039.92 954.06,-2034.67"/>
<polygon fill="black" stroke="black" points="954.88,-2038.08 963.61,-2032.07 953.04,-2031.32 954.88,-2038.08"/>
</g>
<!-- store&#45;&gt;hash -->
<g id="edge176" class="edge">
<title>store&#45;&gt;hash</title>
<path fill="none" stroke="black" d="M725.58,-384.27C735.34,-396.79 747.7,-414.08 756,-430.9 807.56,-535.32 840.57,-671.04 853.36,-729.74"/>
<polygon fill="black" stroke="black" points="849.88,-730.21 855.39,-739.26 856.72,-728.75 849.88,-730.21"/>
</g>
<!-- store&#45;&gt;json -->
<g id="edge177" class="edge">
<title>store&#45;&gt;json</title>
<path fill="none" stroke="black" d="M736.67,-356.37C760.43,-347.76 795.65,-334.99 822.27,-325.34"/>
<polygon fill="black" stroke="black" points="823.46,-328.64 831.67,-321.94 821.08,-322.05 823.46,-328.64"/>
</g>
<!-- store&#45;&gt;sqlite -->
<g id="edge178" class="edge">
<title>store&#45;&gt;sqlite</title>
<path fill="none" stroke="black" d="M736.67,-365.9C760.32,-365.9 795.33,-365.9 821.91,-365.9"/>
<polygon fill="black" stroke="black" points="821.58,-369.4 831.58,-365.9 821.58,-362.4 821.58,-369.4"/>
</g>
<!-- tcb&#45;db -->
<g id="node62" class="node">
<title>tcb&#45;db</title>
<polygon fill="none" stroke="black" points="739.5,-329.9 679.25,-329.9 679.25,-293.9 739.5,-293.9 739.5,-329.9"/>
<text text-anchor="middle" x="709.38" y="-307.6" font-family="sans-serif" font-size="14.00">tcb&#45;db</text>
</g>
<!-- tcb&#45;db&#45;&gt;json -->
<g id="edge179" class="edge">
<title>tcb&#45;db&#45;&gt;json</title>
<path fill="none" stroke="black" d="M739.81,-311.9C763.24,-311.9 796.19,-311.9 821.57,-311.9"/>
<polygon fill="black" stroke="black" points="821.48,-315.4 831.48,-311.9 821.48,-308.4 821.48,-315.4"/>
</g>
<!-- tcb&#45;db&#45;&gt;sqlite -->
<g id="edge180" class="edge">
<title>tcb&#45;db&#45;&gt;sqlite</title>
<path fill="none" stroke="black" d="M739.81,-322.56C763.45,-331.13 796.79,-343.22 822.26,-352.45"/>
<polygon fill="black" stroke="black" points="820.98,-355.7 831.57,-355.82 823.36,-349.12 820.98,-355.7"/>
</g>
<!-- wasm&#45;build&#45;guest -->
<g id="node65" class="node">
<title>wasm&#45;build&#45;guest</title>
<polygon fill="none" stroke="black" points="928.75,-74.9 792,-74.9 792,-38.9 928.75,-38.9 928.75,-74.9"/>
<text text-anchor="middle" x="860.38" y="-52.6" font-family="sans-serif" font-size="14.00">wasm&#45;build&#45;guest</text>
</g>
<!-- wasm&#45;build&#45;guest&#45;&gt;wasm -->
<g id="edge181" class="edge">
<title>wasm&#45;build&#45;guest&#45;&gt;wasm</title>
<path fill="none" stroke="black" d="M905.69,-75.34C913.64,-79.37 921.64,-83.93 928.75,-88.9 946.77,-101.49 964.43,-118.73 977.77,-133.06"/>
<polygon fill="black" stroke="black" points="975.15,-135.38 984.47,-140.42 980.33,-130.67 975.15,-135.38"/>
</g>
<!-- wasm&#45;spec -->
<g id="node66" class="node">
<title>wasm&#45;spec</title>
<polygon fill="none" stroke="black" points="756,-475.9 662.75,-475.9 662.75,-439.9 756,-439.9 756,-475.9"/>
<text text-anchor="middle" x="709.38" y="-453.6" font-family="sans-serif" font-size="14.00">wasm&#45;spec</text>
</g>
<!-- wasm&#45;spec&#45;&gt;hash -->
<g id="edge182" class="edge">
<title>wasm&#45;spec&#45;&gt;hash</title>
<path fill="none" stroke="black" d="M746.61,-476.05C750.06,-478.71 753.28,-481.65 756,-484.9 818.47,-559.28 845.27,-675.24 854.85,-729.3"/>
<polygon fill="black" stroke="black" points="851.37,-729.69 856.49,-738.96 858.27,-728.52 851.37,-729.69"/>
</g>
<!-- wasm&#45;spec&#45;&gt;wasm -->
<g id="edge183" class="edge">
<title>wasm&#45;spec&#45;&gt;wasm</title>
<path fill="none" stroke="black" d="M756.39,-456.45C805.5,-452.44 882.48,-438.64 928.75,-392.9 984.97,-337.31 997.62,-238.89 1000.34,-189.67"/>
<polygon fill="black" stroke="black" points="1003.84,-189.93 1000.78,-179.78 996.84,-189.62 1003.84,-189.93"/>
</g>
<!-- wasm&#45;store&#45;&gt;json -->
<g id="edge184" class="edge">
<title>wasm&#45;store&#45;&gt;json</title>
<path fill="none" stroke="black" d="M621.54,-205.34C675.88,-229.69 770.73,-272.18 822.71,-295.47"/>
<polygon fill="black" stroke="black" points="821.19,-298.62 831.75,-299.52 824.05,-292.23 821.19,-298.62"/>
</g>
<!-- wasm&#45;store&#45;&gt;store -->
<g id="edge185" class="edge">
<title>wasm&#45;store&#45;&gt;store</title>
<path fill="none" stroke="black" d="M613.29,-205.35C618.33,-209.3 623.07,-213.83 626.75,-218.9 659.52,-263.92 628.44,-295.04 662.75,-338.9 665.54,-342.46 668.95,-345.66 672.63,-348.49"/>
<polygon fill="black" stroke="black" points="670.61,-351.35 680.88,-353.95 674.47,-345.52 670.61,-351.35"/>
</g>
<!-- wasm&#45;store&#45;&gt;wasm -->
<g id="edge186" class="edge">
<title>wasm&#45;store&#45;&gt;wasm</title>
<path fill="none" stroke="black" d="M627,-183.9C711.12,-178.5 886.7,-167.23 963.59,-162.3"/>
<polygon fill="black" stroke="black" points="963.35,-165.82 973.11,-161.69 962.91,-158.83 963.35,-165.82"/>
</g>
<!-- web&#45;kernel -->
<g id="node68" class="node">
<title>web&#45;kernel</title>
<polygon fill="none" stroke="black" points="369,-1424.9 277.25,-1424.9 277.25,-1388.9 369,-1388.9 369,-1424.9"/>
<text text-anchor="middle" x="323.12" y="-1402.6" font-family="sans-serif" font-size="14.00">web&#45;kernel</text>
</g>
<!-- web&#45;kernel&#45;&gt;forsp -->
<g id="edge187" class="edge">
<title>web&#45;kernel&#45;&gt;forsp</title>
<path fill="none" stroke="black" d="M334.38,-1388.73C356.2,-1350.11 407.31,-1259.6 433.47,-1213.29"/>
<polygon fill="black" stroke="black" points="436.48,-1215.06 438.35,-1204.63 430.39,-1211.62 436.48,-1215.06"/>
</g>
<!-- web&#45;kernel&#45;&gt;haskell -->
<g id="edge188" class="edge">
<title>web&#45;kernel&#45;&gt;haskell</title>
<path fill="none" stroke="black" d="M326.74,-1425C342.56,-1534.41 425.37,-2107.05 445.22,-2244.31"/>
<polygon fill="black" stroke="black" points="441.73,-2244.63 446.63,-2254.02 448.66,-2243.63 441.73,-2244.63"/>
</g>
<!-- web&#45;kernel&#45;&gt;hol&#45;api -->
<g id="edge189" class="edge">
<title>web&#45;kernel&#45;&gt;hol&#45;api</title>
<path fill="none" stroke="black" d="M326.85,-1425.12C334.54,-1477.02 356.61,-1630.1 369,-1757.9 380.67,-1878.26 346.76,-2194.91 405,-2300.9 434.02,-2353.7 495.97,-2389.81 537.41,-2409.15"/>
<polygon fill="black" stroke="black" points="535.79,-2412.27 546.35,-2413.2 538.68,-2405.89 535.79,-2412.27"/>
</g>
<!-- web&#45;kernel&#45;&gt;kernel -->
<g id="edge190" class="edge">
<title>web&#45;kernel&#45;&gt;kernel</title>
<path fill="none" stroke="black" d="M369.29,-1397.3C417.59,-1387.04 493.43,-1370.94 539.27,-1361.2"/>
<polygon fill="black" stroke="black" points="539.99,-1364.63 549.04,-1359.13 538.53,-1357.78 539.99,-1364.63"/>
</g>
<!-- web&#45;kernel&#45;&gt;lisp -->
<g id="edge191" class="edge">
<title>web&#45;kernel&#45;&gt;lisp</title>
<path fill="none" stroke="black" d="M358.05,-1425.3C375.15,-1434.57 395.89,-1445.82 413.29,-1455.26"/>
<polygon fill="black" stroke="black" points="411.31,-1458.16 421.77,-1459.86 414.65,-1452.01 411.31,-1458.16"/>
</g>
</g>
</svg>
