<?xml version="1.0" encoding="UTF-8" standalone="no"?>
<!DOCTYPE svg PUBLIC "-//W3C//DTD SVG 1.1//EN"
 "http://www.w3.org/Graphics/SVG/1.1/DTD/svg11.dtd">
<!-- Generated by graphviz version 12.2.1 (0)
 -->
<!-- Title: deps Pages: 1 -->
<svg width="1518pt" height="2392pt"
 viewBox="0.00 0.00 1517.50 2392.35" xmlns="http://www.w3.org/2000/svg" xmlns:xlink="http://www.w3.org/1999/xlink">
<g id="graph0" class="graph" transform="scale(1 1) rotate(0) translate(4 2388.35)">
<title>deps</title>
<polygon fill="white" stroke="none" points="-4,4 -4,-2388.35 1513.5,-2388.35 1513.5,4 -4,4"/>
<!-- covalence -->
<g id="node1" class="node">
<title>covalence</title>
<polygon fill="none" stroke="black" points="102.62,-986.35 18.38,-986.35 18.38,-950.35 102.62,-950.35 102.62,-986.35"/>
<text text-anchor="middle" x="60.5" y="-964.05" font-family="sans-serif" font-size="14.00">covalence</text>
</g>
<!-- client -->
<g id="node5" class="node">
<title>client</title>
<polygon fill="none" stroke="black" points="350.12,-818.35 296.12,-818.35 296.12,-782.35 350.12,-782.35 350.12,-818.35"/>
<text text-anchor="middle" x="323.12" y="-796.05" font-family="sans-serif" font-size="14.00">client</text>
</g>
<!-- covalence&#45;&gt;client -->
<g id="edge1" class="edge">
<title>covalence&#45;&gt;client</title>
<path fill="none" stroke="black" d="M72.8,-949.97C88.72,-925.52 119.98,-882.48 157,-857.35 196.34,-830.65 249.42,-815.27 284.67,-807.37"/>
<polygon fill="black" stroke="black" points="285.36,-810.8 294.41,-805.28 283.9,-803.95 285.36,-810.8"/>
</g>
<!-- fuse -->
<g id="node12" class="node">
<title>fuse</title>
<polygon fill="none" stroke="black" points="606.38,-566.35 552.38,-566.35 552.38,-530.35 606.38,-530.35 606.38,-566.35"/>
<text text-anchor="middle" x="579.38" y="-544.05" font-family="sans-serif" font-size="14.00">fuse</text>
</g>
<!-- covalence&#45;&gt;fuse -->
<g id="edge2" class="edge">
<title>covalence&#45;&gt;fuse</title>
<path fill="none" stroke="black" d="M65.72,-950.04C75.72,-909.89 104.07,-812.69 157,-749.35 242.05,-647.57 282.55,-634.33 405,-583.35 449.44,-564.85 504.48,-555.88 540.46,-551.71"/>
<polygon fill="black" stroke="black" points="540.82,-555.19 550.38,-550.63 540.06,-548.23 540.82,-555.19"/>
</g>
<!-- git -->
<g id="node13" class="node">
<title>git</title>
<polygon fill="none" stroke="black" points="477.5,-490.35 423.5,-490.35 423.5,-454.35 477.5,-454.35 477.5,-490.35"/>
<text text-anchor="middle" x="450.5" y="-468.05" font-family="sans-serif" font-size="14.00">git</text>
</g>
<!-- covalence&#45;&gt;git -->
<g id="edge3" class="edge">
<title>covalence&#45;&gt;git</title>
<path fill="none" stroke="black" d="M63.07,-949.98C69.75,-876.14 98.21,-602 157,-542.35 225.53,-472.83 349.96,-467.52 412.1,-469.71"/>
<polygon fill="black" stroke="black" points="411.64,-473.19 421.79,-470.14 411.96,-466.2 411.64,-473.19"/>
</g>
<!-- hash -->
<g id="node16" class="node">
<title>hash</title>
<polygon fill="none" stroke="black" points="887.38,-660.35 833.38,-660.35 833.38,-624.35 887.38,-624.35 887.38,-660.35"/>
<text text-anchor="middle" x="860.38" y="-638.05" font-family="sans-serif" font-size="14.00">hash</text>
</g>
<!-- covalence&#45;&gt;hash -->
<g id="edge4" class="edge">
<title>covalence&#45;&gt;hash</title>
<path fill="none" stroke="black" d="M102.97,-955.41C139.44,-943.97 193.94,-926.77 241.25,-911.35 413.03,-855.38 471.77,-875.22 626.75,-782.35 645.63,-771.04 643.97,-759.83 662.75,-748.35 700.26,-725.43 716.95,-735.55 756,-715.35 781.77,-702.02 808.47,-683.01 828.28,-667.73"/>
<polygon fill="black" stroke="black" points="830.23,-670.65 835.95,-661.72 825.91,-665.14 830.23,-670.65"/>
</g>
<!-- hol -->
<g id="node18" class="node">
<title>hol</title>
<polygon fill="none" stroke="black" points="887.38,-2182.35 833.38,-2182.35 833.38,-2146.35 887.38,-2146.35 887.38,-2182.35"/>
<text text-anchor="middle" x="860.38" y="-2160.05" font-family="sans-serif" font-size="14.00">hol</text>
</g>
<!-- covalence&#45;&gt;hol -->
<g id="edge5" class="edge">
<title>covalence&#45;&gt;hol</title>
<path fill="none" stroke="black" d="M103.04,-979.98C110.09,-983.77 116.55,-988.77 121,-995.35 171.89,-1070.63 142.3,-1722.68 157,-1812.35 199.82,-2073.47 57.52,-2384.35 322.12,-2384.35 322.12,-2384.35 322.12,-2384.35 580.38,-2384.35 595.91,-2384.35 759.77,-2248.11 828.89,-2190.06"/>
<polygon fill="black" stroke="black" points="831.05,-2192.82 836.45,-2183.7 826.54,-2187.46 831.05,-2192.82"/>
</g>
<!-- init -->
<g id="node22" class="node">
<title>init</title>
<polygon fill="none" stroke="black" points="736.38,-1504.35 682.38,-1504.35 682.38,-1468.35 736.38,-1468.35 736.38,-1504.35"/>
<text text-anchor="middle" x="709.38" y="-1482.05" font-family="sans-serif" font-size="14.00">init</text>
</g>
<!-- covalence&#45;&gt;init -->
<g id="edge6" class="edge">
<title>covalence&#45;&gt;init</title>
<path fill="none" stroke="black" d="M102.99,-980.02C110.04,-983.8 116.52,-988.79 121,-995.35 162.87,-1056.63 105.95,-1608.48 157,-1662.35 208.84,-1717.06 426.2,-1679.79 496,-1651.35 560.64,-1625.01 576.26,-1612.55 626.75,-1564.35 646.3,-1545.69 643.01,-1533.8 662.75,-1515.35 665.81,-1512.49 669.19,-1509.75 672.68,-1507.17"/>
<polygon fill="black" stroke="black" points="674.54,-1510.14 680.81,-1501.6 670.59,-1504.36 674.54,-1510.14"/>
</g>
<!-- lsp -->
<g id="node34" class="node">
<title>lsp</title>
<polygon fill="none" stroke="black" points="887.38,-762.35 833.38,-762.35 833.38,-726.35 887.38,-726.35 887.38,-762.35"/>
<text text-anchor="middle" x="860.38" y="-740.05" font-family="sans-serif" font-size="14.00">lsp</text>
</g>
<!-- covalence&#45;&gt;lsp -->
<g id="edge7" class="edge">
<title>covalence&#45;&gt;lsp</title>
<path fill="none" stroke="black" d="M102.97,-982.08C109.59,-985.63 115.93,-990 121,-995.35 151.21,-1027.21 131.91,-1051.32 157,-1087.35 213.14,-1167.99 223.87,-1234.35 322.12,-1234.35 322.12,-1234.35 322.12,-1234.35 451.5,-1234.35 529.85,-1234.35 571.09,-1270.49 626.75,-1215.35 675.24,-1167.32 632.6,-971.58 662.75,-910.35 688.33,-858.4 716.64,-861.83 756,-819.35 772.94,-801.07 772.29,-791.61 792,-776.35 801.12,-769.29 812.05,-763.27 822.43,-758.42"/>
<polygon fill="black" stroke="black" points="823.81,-761.64 831.55,-754.41 820.99,-755.23 823.81,-761.64"/>
</g>
<!-- object -->
<g id="node38" class="node">
<title>object</title>
<polygon fill="none" stroke="black" points="738,-706.35 680.75,-706.35 680.75,-670.35 738,-670.35 738,-706.35"/>
<text text-anchor="middle" x="709.38" y="-684.05" font-family="sans-serif" font-size="14.00">object</text>
</g>
<!-- covalence&#45;&gt;object -->
<g id="edge8" class="edge">
<title>covalence&#45;&gt;object</title>
<path fill="none" stroke="black" d="M102.95,-978.04C207.09,-999.68 481.69,-1039.59 626.75,-898.35 672.78,-853.53 636.87,-817.15 662.75,-758.35 669.25,-743.58 678.72,-728.43 687.35,-716.01"/>
<polygon fill="black" stroke="black" points="690.16,-718.1 693.13,-707.93 684.47,-714.03 690.16,-718.1"/>
</g>
<!-- opentheory -->
<g id="node39" class="node">
<title>opentheory</title>
<polygon fill="none" stroke="black" points="496,-2212.35 405,-2212.35 405,-2176.35 496,-2176.35 496,-2212.35"/>
<text text-anchor="middle" x="450.5" y="-2190.05" font-family="sans-serif" font-size="14.00">opentheory</text>
</g>
<!-- covalence&#45;&gt;opentheory -->
<g id="edge9" class="edge">
<title>covalence&#45;&gt;opentheory</title>
<path fill="none" stroke="black" d="M103.01,-980C110.06,-983.79 116.53,-988.79 121,-995.35 165.51,-1060.74 134.23,-1630.6 157,-1706.35 215.37,-1900.54 368.21,-2097.09 426.48,-2167.34"/>
<polygon fill="black" stroke="black" points="423.67,-2169.44 432.77,-2174.87 429.04,-2164.95 423.67,-2169.44"/>
</g>
<!-- proto -->
<g id="node43" class="node">
<title>proto</title>
<polygon fill="none" stroke="black" points="350.12,-948.35 296.12,-948.35 296.12,-912.35 350.12,-912.35 350.12,-948.35"/>
<text text-anchor="middle" x="323.12" y="-926.05" font-family="sans-serif" font-size="14.00">proto</text>
</g>
<!-- covalence&#45;&gt;proto -->
<g id="edge10" class="edge">
<title>covalence&#45;&gt;proto</title>
<path fill="none" stroke="black" d="M102.97,-963.28C139.45,-958.7 193.95,-951.6 241.25,-944.35 255.56,-942.16 271.24,-939.5 284.96,-937.1"/>
<polygon fill="black" stroke="black" points="285.22,-940.6 294.45,-935.41 283.99,-933.71 285.22,-940.6"/>
</g>
<!-- repl -->
<g id="node49" class="node">
<title>repl</title>
<polygon fill="none" stroke="black" points="350.12,-726.35 296.12,-726.35 296.12,-690.35 350.12,-690.35 350.12,-726.35"/>
<text text-anchor="middle" x="323.12" y="-704.05" font-family="sans-serif" font-size="14.00">repl</text>
</g>
<!-- covalence&#45;&gt;repl -->
<g id="edge11" class="edge">
<title>covalence&#45;&gt;repl</title>
<path fill="none" stroke="black" d="M69.63,-950.1C83.91,-919.5 115.95,-857.1 157,-815.35 195.25,-776.44 250.06,-744.43 285.86,-725.86"/>
<polygon fill="black" stroke="black" points="287.21,-729.1 294.53,-721.44 284.03,-722.86 287.21,-729.1"/>
</g>
<!-- serve -->
<g id="node52" class="node">
<title>serve</title>
<polygon fill="none" stroke="black" points="226.12,-1078.35 172.12,-1078.35 172.12,-1042.35 226.12,-1042.35 226.12,-1078.35"/>
<text text-anchor="middle" x="199.12" y="-1056.05" font-family="sans-serif" font-size="14.00">serve</text>
</g>
<!-- covalence&#45;&gt;serve -->
<g id="edge12" class="edge">
<title>covalence&#45;&gt;serve</title>
<path fill="none" stroke="black" d="M103.06,-985.15C109.25,-988.24 115.42,-991.66 121,-995.35 139.11,-1007.32 140.42,-1014.34 157,-1028.35 159.61,-1030.56 162.35,-1032.81 165.11,-1035.05"/>
<polygon fill="black" stroke="black" points="162.75,-1037.64 172.76,-1041.12 167.1,-1032.16 162.75,-1037.64"/>
</g>
<!-- shell -->
<g id="node54" class="node">
<title>shell</title>
<polygon fill="none" stroke="black" points="477.5,-1642.35 423.5,-1642.35 423.5,-1606.35 477.5,-1606.35 477.5,-1642.35"/>
<text text-anchor="middle" x="450.5" y="-1620.05" font-family="sans-serif" font-size="14.00">shell</text>
</g>
<!-- covalence&#45;&gt;shell -->
<g id="edge13" class="edge">
<title>covalence&#45;&gt;shell</title>
<path fill="none" stroke="black" d="M102.98,-980.03C110.03,-983.81 116.51,-988.8 121,-995.35 160.94,-1053.65 105.63,-1581.82 157,-1630.35 226.31,-1695.84 351.26,-1662.05 412.97,-1639.38"/>
<polygon fill="black" stroke="black" points="413.85,-1642.79 421.97,-1635.97 411.37,-1636.24 413.85,-1642.79"/>
</g>
<!-- store -->
<g id="node58" class="node">
<title>store</title>
<polygon fill="none" stroke="black" points="736.38,-306.35 682.38,-306.35 682.38,-270.35 736.38,-270.35 736.38,-306.35"/>
<text text-anchor="middle" x="709.38" y="-284.05" font-family="sans-serif" font-size="14.00">store</text>
</g>
<!-- covalence&#45;&gt;store -->
<g id="edge14" class="edge">
<title>covalence&#45;&gt;store</title>
<path fill="none" stroke="black" d="M63.15,-950.07C70.49,-871.82 102.32,-565.59 157,-488.35 265.55,-335.03 347.7,-329.72 532,-293.35 579.12,-284.05 634.67,-284.27 670.66,-285.83"/>
<polygon fill="black" stroke="black" points="670.4,-289.32 680.56,-286.33 670.75,-282.33 670.4,-289.32"/>
</g>
<!-- wasm -->
<g id="node61" class="node">
<title>wasm</title>
<polygon fill="none" stroke="black" points="1028.75,-235.35 974.5,-235.35 974.5,-199.35 1028.75,-199.35 1028.75,-235.35"/>
<text text-anchor="middle" x="1001.62" y="-213.05" font-family="sans-serif" font-size="14.00">wasm</text>
</g>
<!-- covalence&#45;&gt;wasm -->
<g id="edge15" class="edge">
<title>covalence&#45;&gt;wasm</title>
<path fill="none" stroke="black" d="M62.41,-949.97C67.05,-861.96 90.64,-484.03 157,-390.35 321.74,-157.77 478.61,-95.87 756,-161.35 773.41,-165.46 775.03,-173.69 792,-179.35 849.94,-198.67 920.4,-208.91 962.82,-213.72"/>
<polygon fill="black" stroke="black" points="962.18,-217.18 972.5,-214.78 962.94,-210.22 962.18,-217.18"/>
</g>
<!-- acset -->
<g id="node2" class="node">
<title>acset</title>
<polygon fill="none" stroke="black" points="887.38,-930.35 833.38,-930.35 833.38,-894.35 887.38,-894.35 887.38,-930.35"/>
<text text-anchor="middle" x="860.38" y="-908.05" font-family="sans-serif" font-size="14.00">acset</text>
</g>
<!-- alethe -->
<g id="node3" class="node">
<title>alethe</title>
<polygon fill="none" stroke="black" points="607.62,-1786.35 551.12,-1786.35 551.12,-1750.35 607.62,-1750.35 607.62,-1786.35"/>
<text text-anchor="middle" x="579.38" y="-1764.05" font-family="sans-serif" font-size="14.00">alethe</text>
</g>
<!-- core -->
<g id="node6" class="node">
<title>core</title>
<polygon fill="#ffd6d6" stroke="black" points="1028.62,-1974.35 974.62,-1974.35 974.62,-1938.35 1028.62,-1938.35 1028.62,-1974.35"/>
<text text-anchor="middle" x="1001.62" y="-1952.05" font-family="sans-serif" font-size="14.00">core</text>
</g>
<!-- alethe&#45;&gt;core -->
<g id="edge16" class="edge">
<title>alethe&#45;&gt;core</title>
<path fill="none" stroke="black" d="M607.85,-1785.26C664.85,-1820.34 790.78,-1897.82 792,-1898.35 849.33,-1923.34 920.25,-1940.34 962.89,-1949.19"/>
<polygon fill="black" stroke="black" points="962.15,-1952.61 972.65,-1951.17 963.54,-1945.75 962.15,-1952.61"/>
</g>
<!-- hol&#45;eval -->
<g id="node20" class="node">
<title>hol&#45;eval</title>
<polygon fill="none" stroke="black" points="895.38,-1856.35 825.38,-1856.35 825.38,-1820.35 895.38,-1820.35 895.38,-1856.35"/>
<text text-anchor="middle" x="860.38" y="-1834.05" font-family="sans-serif" font-size="14.00">hol&#45;eval</text>
</g>
<!-- alethe&#45;&gt;hol&#45;eval -->
<g id="edge17" class="edge">
<title>alethe&#45;&gt;hol&#45;eval</title>
<path fill="none" stroke="black" d="M608.08,-1771.9C642.97,-1776.7 704.57,-1786.33 756,-1800.35 775.4,-1805.64 796.31,-1813 814.21,-1819.83"/>
<polygon fill="black" stroke="black" points="812.93,-1823.09 823.52,-1823.45 815.46,-1816.56 812.93,-1823.09"/>
</g>
<!-- alethe&#45;&gt;init -->
<g id="edge18" class="edge">
<title>alethe&#45;&gt;init</title>
<path fill="none" stroke="black" d="M608.08,-1757.46C615.18,-1753.41 622.11,-1748.11 626.75,-1741.35 683.59,-1658.59 609.46,-1603.43 662.75,-1518.35 665.48,-1513.99 669.05,-1510.06 672.98,-1506.57"/>
<polygon fill="black" stroke="black" points="675.01,-1509.43 680.81,-1500.56 670.75,-1503.87 675.01,-1509.43"/>
</g>
<!-- sexp -->
<g id="node53" class="node">
<title>sexp</title>
<polygon fill="none" stroke="black" points="1028.62,-1401.35 974.62,-1401.35 974.62,-1365.35 1028.62,-1365.35 1028.62,-1401.35"/>
<text text-anchor="middle" x="1001.62" y="-1379.05" font-family="sans-serif" font-size="14.00">sexp</text>
</g>
<!-- alethe&#45;&gt;sexp -->
<g id="edge19" class="edge">
<title>alethe&#45;&gt;sexp</title>
<path fill="none" stroke="black" d="M607.96,-1757.38C615.06,-1753.33 622.02,-1748.05 626.75,-1741.35 676.37,-1671.17 600.61,-1610.73 662.75,-1551.35 749.09,-1468.84 830.44,-1581.16 928.75,-1513.35 963.57,-1489.33 983.28,-1442.71 992.95,-1412.32"/>
<polygon fill="black" stroke="black" points="996.22,-1413.59 995.73,-1403 989.52,-1411.58 996.22,-1413.59"/>
</g>
<!-- smt -->
<g id="node55" class="node">
<title>smt</title>
<polygon fill="none" stroke="black" points="736.38,-1596.35 682.38,-1596.35 682.38,-1560.35 736.38,-1560.35 736.38,-1596.35"/>
<text text-anchor="middle" x="709.38" y="-1574.05" font-family="sans-serif" font-size="14.00">smt</text>
</g>
<!-- alethe&#45;&gt;smt -->
<g id="edge20" class="edge">
<title>alethe&#45;&gt;smt</title>
<path fill="none" stroke="black" d="M607.79,-1755.89C614.56,-1751.92 621.39,-1747.06 626.75,-1741.35 646.3,-1720.53 678.84,-1648.07 696.35,-1607.12"/>
<polygon fill="black" stroke="black" points="699.49,-1608.68 700.18,-1598.11 693.05,-1605.94 699.49,-1608.68"/>
</g>
<!-- types -->
<g id="node60" class="node">
<title>types</title>
<polygon fill="#ffd6d6" stroke="black" points="1509.5,-1718.35 1455.5,-1718.35 1455.5,-1682.35 1509.5,-1682.35 1509.5,-1718.35"/>
<text text-anchor="middle" x="1482.5" y="-1696.05" font-family="sans-serif" font-size="14.00">types</text>
</g>
<!-- alethe&#45;&gt;types -->
<g id="edge21" class="edge">
<title>alethe&#45;&gt;types</title>
<path fill="none" stroke="black" d="M594.51,-1786.75C643.44,-1848.19 812.93,-2042.35 1000.62,-2042.35 1000.62,-2042.35 1000.62,-2042.35 1238.25,-2042.35 1326.3,-2042.35 1363.2,-2030.05 1419.5,-1962.35 1448.99,-1926.89 1469.86,-1790.41 1477.87,-1729.73"/>
<polygon fill="black" stroke="black" points="1481.3,-1730.52 1479.11,-1720.15 1474.36,-1729.62 1481.3,-1730.52"/>
</g>
<!-- arrow -->
<g id="node4" class="node">
<title>arrow</title>
<polygon fill="none" stroke="black" points="606.38,-696.35 552.38,-696.35 552.38,-660.35 606.38,-660.35 606.38,-696.35"/>
<text text-anchor="middle" x="579.38" y="-674.05" font-family="sans-serif" font-size="14.00">arrow</text>
</g>
<!-- client&#45;&gt;hash -->
<g id="edge22" class="edge">
<title>client&#45;&gt;hash</title>
<path fill="none" stroke="black" d="M350.21,-800.98C406.63,-801 541.78,-793.71 626.75,-728.35 653.54,-707.74 634.61,-680.08 662.75,-661.35 710.38,-629.66 779.43,-631.2 821.75,-636.12"/>
<polygon fill="black" stroke="black" points="821.08,-639.57 831.44,-637.38 821.98,-632.62 821.08,-639.57"/>
</g>
<!-- client&#45;&gt;shell -->
<g id="edge23" class="edge">
<title>client&#45;&gt;shell</title>
<path fill="none" stroke="black" d="M334.49,-818.64C345.28,-838.71 361.62,-872.23 369,-903.35 402.69,-1045.41 358.03,-1421.12 405,-1559.35 409.56,-1572.77 417.72,-1585.98 425.82,-1596.95"/>
<polygon fill="black" stroke="black" points="423,-1599.02 431.9,-1604.76 428.52,-1594.72 423,-1599.02"/>
</g>
<!-- client&#45;&gt;store -->
<g id="edge24" class="edge">
<title>client&#45;&gt;store</title>
<path fill="none" stroke="black" d="M339.16,-781.99C348.8,-769.47 360.96,-752.18 369,-735.35 393.37,-684.34 376.96,-662.44 405,-613.35 444.1,-544.9 613.95,-378.77 681,-314.42"/>
<polygon fill="black" stroke="black" points="683.13,-317.23 687.93,-307.78 678.29,-312.17 683.13,-317.23"/>
</g>
<!-- pure -->
<g id="node44" class="node">
<title>pure</title>
<polygon fill="#ffd6d6" stroke="black" points="1264.25,-1852.35 1210.25,-1852.35 1210.25,-1816.35 1264.25,-1816.35 1264.25,-1852.35"/>
<text text-anchor="middle" x="1237.25" y="-1830.05" font-family="sans-serif" font-size="14.00">pure</text>
</g>
<!-- core&#45;&gt;pure -->
<g id="edge25" class="edge">
<title>core&#45;&gt;pure</title>
<path fill="none" stroke="black" d="M1028.97,-1942.59C1070.8,-1920.75 1152.49,-1878.09 1199.87,-1853.35"/>
<polygon fill="black" stroke="black" points="1201.41,-1856.49 1208.66,-1848.76 1198.17,-1850.29 1201.41,-1856.49"/>
</g>
<!-- pure&#45;eval -->
<g id="node45" class="node">
<title>pure&#45;eval</title>
<polygon fill="#ffd6d6" stroke="black" points="1154.25,-1806.35 1074.5,-1806.35 1074.5,-1770.35 1154.25,-1770.35 1154.25,-1806.35"/>
<text text-anchor="middle" x="1114.38" y="-1784.05" font-family="sans-serif" font-size="14.00">pure&#45;eval</text>
</g>
<!-- core&#45;&gt;pure&#45;eval -->
<g id="edge26" class="edge">
<title>core&#45;&gt;pure&#45;eval</title>
<path fill="none" stroke="black" d="M1014.69,-1938.05C1034.08,-1908.64 1072.3,-1850.65 1095.07,-1816.12"/>
<polygon fill="black" stroke="black" points="1097.91,-1818.17 1100.49,-1807.89 1092.07,-1814.31 1097.91,-1818.17"/>
</g>
<!-- core&#45;&gt;types -->
<g id="edge27" class="edge">
<title>core&#45;&gt;types</title>
<path fill="none" stroke="black" d="M1029.06,-1963.58C1101.07,-1981.55 1303.07,-2020.19 1419.5,-1924.35 1449.55,-1899.62 1469.52,-1784.96 1477.53,-1729.95"/>
<polygon fill="black" stroke="black" points="1481,-1730.45 1478.94,-1720.06 1474.07,-1729.47 1481,-1730.45"/>
</g>
<!-- core&#45;test&#45;guest -->
<g id="node7" class="node">
<title>core&#45;test&#45;guest</title>
<polygon fill="none" stroke="black" points="121,-1040.35 0,-1040.35 0,-1004.35 121,-1004.35 121,-1040.35"/>
<text text-anchor="middle" x="60.5" y="-1018.05" font-family="sans-serif" font-size="14.00">core&#45;test&#45;guest</text>
</g>
<!-- crypto&#45;sig -->
<g id="node8" class="node">
<title>crypto&#45;sig</title>
<polygon fill="none" stroke="black" points="241.25,-224.35 157,-224.35 157,-188.35 241.25,-188.35 241.25,-224.35"/>
<text text-anchor="middle" x="199.12" y="-202.05" font-family="sans-serif" font-size="14.00">crypto&#45;sig</text>
</g>
<!-- decimal&#45;api -->
<g id="node9" class="node">
<title>decimal&#45;api</title>
<polygon fill="none" stroke="black" points="1284.25,-1142.35 1190.25,-1142.35 1190.25,-1106.35 1284.25,-1106.35 1284.25,-1142.35"/>
<text text-anchor="middle" x="1237.25" y="-1120.05" font-family="sans-serif" font-size="14.00">decimal&#45;api</text>
</g>
<!-- decimal&#45;api&#45;&gt;types -->
<g id="edge28" class="edge">
<title>decimal&#45;api&#45;&gt;types</title>
<path fill="none" stroke="black" d="M1258.48,-1142.82C1296.72,-1178.98 1379.35,-1263.4 1419.5,-1352.35 1469.2,-1462.47 1479.13,-1609.03 1481.06,-1670.86"/>
<polygon fill="black" stroke="black" points="1477.55,-1670.64 1481.31,-1680.55 1484.55,-1670.46 1477.55,-1670.64"/>
</g>
<!-- egglog -->
<g id="node10" class="node">
<title>egglog</title>
<polygon fill="none" stroke="black" points="890.88,-1634.35 829.88,-1634.35 829.88,-1598.35 890.88,-1598.35 890.88,-1634.35"/>
<text text-anchor="middle" x="860.38" y="-1612.05" font-family="sans-serif" font-size="14.00">egglog</text>
</g>
<!-- egglog&#45;&gt;sexp -->
<g id="edge29" class="edge">
<title>egglog&#45;&gt;sexp</title>
<path fill="none" stroke="black" d="M891.08,-1607.97C904.15,-1602.97 918.76,-1595.39 928.75,-1584.35 973.42,-1534.97 990.8,-1455.89 997.18,-1413.12"/>
<polygon fill="black" stroke="black" points="1000.63,-1413.72 998.53,-1403.33 993.7,-1412.76 1000.63,-1413.72"/>
</g>
<!-- egglog&#45;&gt;types -->
<g id="edge30" class="edge">
<title>egglog&#45;&gt;types</title>
<path fill="none" stroke="black" d="M891.24,-1617.13C938.42,-1618.3 1033.08,-1620.35 1113.38,-1620.35 1113.38,-1620.35 1113.38,-1620.35 1238.25,-1620.35 1319.76,-1620.35 1345.26,-1614.7 1419.5,-1648.35 1433.1,-1654.51 1446.09,-1664.52 1456.63,-1674.11"/>
<polygon fill="black" stroke="black" points="1454.13,-1676.56 1463.78,-1680.94 1458.96,-1671.5 1454.13,-1676.56"/>
</g>
<!-- forsp -->
<g id="node11" class="node">
<title>forsp</title>
<polygon fill="none" stroke="black" points="477.5,-1168.35 423.5,-1168.35 423.5,-1132.35 477.5,-1132.35 477.5,-1168.35"/>
<text text-anchor="middle" x="450.5" y="-1146.05" font-family="sans-serif" font-size="14.00">forsp</text>
</g>
<!-- forsp&#45;&gt;hash -->
<g id="edge31" class="edge">
<title>forsp&#45;&gt;hash</title>
<path fill="none" stroke="black" d="M477.73,-1136.33C516.87,-1113.95 589.89,-1066.29 626.75,-1004.35 668.47,-934.24 610.78,-887.24 662.75,-824.35 691.26,-789.85 722.9,-816.48 756,-786.35 781.58,-763.07 772.29,-745.77 792,-717.35 803.98,-700.08 819.54,-682.51 832.69,-668.72"/>
<polygon fill="black" stroke="black" points="835.01,-671.36 839.46,-661.75 829.99,-666.49 835.01,-671.36"/>
</g>
<!-- repl&#45;core -->
<g id="node50" class="node">
<title>repl&#45;core</title>
<polygon fill="none" stroke="black" points="618.5,-1206.35 540.25,-1206.35 540.25,-1170.35 618.5,-1170.35 618.5,-1206.35"/>
<text text-anchor="middle" x="579.38" y="-1184.05" font-family="sans-serif" font-size="14.00">repl&#45;core</text>
</g>
<!-- forsp&#45;&gt;repl&#45;core -->
<g id="edge32" class="edge">
<title>forsp&#45;&gt;repl&#45;core</title>
<path fill="none" stroke="black" d="M477.79,-1158.22C492.7,-1162.69 511.83,-1168.42 529.4,-1173.68"/>
<polygon fill="black" stroke="black" points="528.05,-1176.93 538.63,-1176.45 530.06,-1170.23 528.05,-1176.93"/>
</g>
<!-- forsp&#45;&gt;sexp -->
<g id="edge33" class="edge">
<title>forsp&#45;&gt;sexp</title>
<path fill="none" stroke="black" d="M477.83,-1147.91C512.82,-1145.57 576.12,-1144.53 626.75,-1161.35 710.01,-1189.02 712.68,-1231.84 792,-1269.35 849.6,-1296.59 874.17,-1279.49 928.75,-1312.35 948.09,-1324 966.16,-1341.89 979.34,-1356.79"/>
<polygon fill="black" stroke="black" points="976.36,-1358.69 985.52,-1364.01 981.67,-1354.14 976.36,-1358.69"/>
</g>
<!-- fuse&#45;&gt;hash -->
<g id="edge34" class="edge">
<title>fuse&#45;&gt;hash</title>
<path fill="none" stroke="black" d="M606.75,-550.19C641.81,-553.3 705.24,-561.23 756,-580.35 780.63,-589.63 806,-604.75 825.45,-617.74"/>
<polygon fill="black" stroke="black" points="823.29,-620.5 833.52,-623.25 827.23,-614.72 823.29,-620.5"/>
</g>
<!-- fuse&#45;&gt;object -->
<g id="edge35" class="edge">
<title>fuse&#45;&gt;object</title>
<path fill="none" stroke="black" d="M597.11,-566.65C619.24,-590.86 658.42,-633.72 683.89,-661.57"/>
<polygon fill="black" stroke="black" points="681.29,-663.91 690.62,-668.93 686.45,-659.19 681.29,-663.91"/>
</g>
<!-- fuse&#45;&gt;store -->
<g id="edge36" class="edge">
<title>fuse&#45;&gt;store</title>
<path fill="none" stroke="black" d="M606.42,-535.29C614,-530.32 621.62,-523.98 626.75,-516.35 668.15,-454.79 632.86,-421.25 662.75,-353.35 668.55,-340.18 677.21,-326.93 685.43,-315.87"/>
<polygon fill="black" stroke="black" points="688.19,-318.02 691.53,-307.97 682.65,-313.74 688.19,-318.02"/>
</g>
<!-- git&#45;&gt;hash -->
<g id="edge37" class="edge">
<title>git&#45;&gt;hash</title>
<path fill="none" stroke="black" d="M477.79,-475.32C532.4,-482.32 660.93,-503.2 756,-553.35 786.42,-569.4 815.6,-595.89 835.16,-615.8"/>
<polygon fill="black" stroke="black" points="832.42,-618.01 841.87,-622.79 837.47,-613.16 832.42,-618.01"/>
</g>
<!-- git&#45;&gt;object -->
<g id="edge38" class="edge">
<title>git&#45;&gt;object</title>
<path fill="none" stroke="black" d="M462.99,-490.62C477.33,-512.48 503.47,-549.38 532,-575.35 574.89,-614.4 632.8,-648.66 670.37,-668.93"/>
<polygon fill="black" stroke="black" points="668.59,-671.95 679.06,-673.56 671.88,-665.77 668.59,-671.95"/>
</g>
<!-- sqlite -->
<g id="node57" class="node">
<title>sqlite</title>
<polygon fill="none" stroke="black" points="887.38,-306.35 833.38,-306.35 833.38,-270.35 887.38,-270.35 887.38,-306.35"/>
<text text-anchor="middle" x="860.38" y="-284.05" font-family="sans-serif" font-size="14.00">sqlite</text>
</g>
<!-- git&#45;&gt;sqlite -->
<g id="edge39" class="edge">
<title>git&#45;&gt;sqlite</title>
<path fill="none" stroke="black" d="M477.98,-455.21C517.16,-430.37 593.45,-383.98 662.75,-353.35 716.59,-329.56 781.99,-309.61 822.14,-298.32"/>
<polygon fill="black" stroke="black" points="822.85,-301.76 831.55,-295.71 820.98,-295.01 822.85,-301.76"/>
</g>
<!-- git&#45;&gt;store -->
<g id="edge40" class="edge">
<title>git&#45;&gt;store</title>
<path fill="none" stroke="black" d="M477.61,-456.54C484.1,-451.85 490.71,-446.34 496,-440.35 518.12,-415.3 507.84,-397.43 532,-374.35 537.52,-369.08 621.78,-329.03 671.81,-305.48"/>
<polygon fill="black" stroke="black" points="672.99,-308.79 680.56,-301.37 670.02,-302.46 672.99,-308.79"/>
</g>
<!-- grammar -->
<g id="node14" class="node">
<title>grammar</title>
<polygon fill="none" stroke="black" points="1038.5,-1206.35 964.75,-1206.35 964.75,-1170.35 1038.5,-1170.35 1038.5,-1206.35"/>
<text text-anchor="middle" x="1001.62" y="-1184.05" font-family="sans-serif" font-size="14.00">grammar</text>
</g>
<!-- grammar&#45;&gt;types -->
<g id="edge41" class="edge">
<title>grammar&#45;&gt;types</title>
<path fill="none" stroke="black" d="M1035.89,-1206.8C1113.94,-1251.71 1310.46,-1374.4 1419.5,-1528.35 1450.9,-1572.68 1468.03,-1634.62 1475.93,-1670.8"/>
<polygon fill="black" stroke="black" points="1472.49,-1671.46 1477.96,-1680.54 1479.35,-1670.04 1472.49,-1671.46"/>
</g>
<!-- graph -->
<g id="node15" class="node">
<title>graph</title>
<polygon fill="none" stroke="black" points="736.38,-490.35 682.38,-490.35 682.38,-454.35 736.38,-454.35 736.38,-490.35"/>
<text text-anchor="middle" x="709.38" y="-468.05" font-family="sans-serif" font-size="14.00">graph</text>
</g>
<!-- graph&#45;&gt;hash -->
<g id="edge42" class="edge">
<title>graph&#45;&gt;hash</title>
<path fill="none" stroke="black" d="M736.58,-488.62C743.25,-493.31 750.16,-498.7 756,-504.35 765.64,-513.69 812.49,-577.65 839.69,-615.13"/>
<polygon fill="black" stroke="black" points="836.56,-616.77 845.26,-622.81 842.23,-612.66 836.56,-616.77"/>
</g>
<!-- parse -->
<g id="node41" class="node">
<title>parse</title>
<polygon fill="none" stroke="black" points="1141.38,-952.35 1087.38,-952.35 1087.38,-916.35 1141.38,-916.35 1141.38,-952.35"/>
<text text-anchor="middle" x="1114.38" y="-930.05" font-family="sans-serif" font-size="14.00">parse</text>
</g>
<!-- graph&#45;&gt;parse -->
<g id="edge43" class="edge">
<title>graph&#45;&gt;parse</title>
<path fill="none" stroke="black" d="M736.82,-475.82C799.5,-485.49 957.9,-518.72 1038.5,-615.35 1075.53,-659.75 1100.96,-834.72 1109.86,-904.95"/>
<polygon fill="black" stroke="black" points="1106.35,-905.05 1111.06,-914.54 1113.3,-904.18 1106.35,-905.05"/>
</g>
<!-- rand -->
<g id="node48" class="node">
<title>rand</title>
<polygon fill="none" stroke="black" points="1028.62,-660.35 974.62,-660.35 974.62,-624.35 1028.62,-624.35 1028.62,-660.35"/>
<text text-anchor="middle" x="1001.62" y="-638.05" font-family="sans-serif" font-size="14.00">rand</text>
</g>
<!-- hash&#45;&gt;rand -->
<g id="edge44" class="edge">
<title>hash&#45;&gt;rand</title>
<path fill="none" stroke="black" d="M887.57,-642.35C908.86,-642.35 939.19,-642.35 963.07,-642.35"/>
<polygon fill="black" stroke="black" points="963.04,-645.85 973.04,-642.35 963.04,-638.85 963.04,-645.85"/>
</g>
<!-- haskell -->
<g id="node17" class="node">
<title>haskell</title>
<polygon fill="none" stroke="black" points="481.75,-2026.35 419.25,-2026.35 419.25,-1990.35 481.75,-1990.35 481.75,-2026.35"/>
<text text-anchor="middle" x="450.5" y="-2004.05" font-family="sans-serif" font-size="14.00">haskell</text>
</g>
<!-- hol&#45;api -->
<g id="node19" class="node">
<title>hol&#45;api</title>
<polygon fill="none" stroke="black" points="610.62,-2026.35 548.12,-2026.35 548.12,-1990.35 610.62,-1990.35 610.62,-2026.35"/>
<text text-anchor="middle" x="579.38" y="-2004.05" font-family="sans-serif" font-size="14.00">hol&#45;api</text>
</g>
<!-- haskell&#45;&gt;hol&#45;api -->
<g id="edge45" class="edge">
<title>haskell&#45;&gt;hol&#45;api</title>
<path fill="none" stroke="black" d="M482.21,-2008.35C498.5,-2008.35 518.75,-2008.35 536.46,-2008.35"/>
<polygon fill="black" stroke="black" points="536.43,-2011.85 546.43,-2008.35 536.43,-2004.85 536.43,-2011.85"/>
</g>
<!-- haskell&#45;&gt;hol&#45;eval -->
<g id="edge46" class="edge">
<title>haskell&#45;&gt;hol&#45;eval</title>
<path fill="none" stroke="black" d="M481.87,-2021.13C496.7,-2026.69 514.98,-2032.57 532,-2035.35 573.56,-2042.14 585.57,-2044.17 626.75,-2035.35 688.32,-2022.17 706.91,-2016.77 756,-1977.35 794.98,-1946.05 826.92,-1896.8 844.53,-1866.1"/>
<polygon fill="black" stroke="black" points="847.36,-1868.21 849.2,-1857.78 841.26,-1864.79 847.36,-1868.21"/>
</g>
<!-- haskell&#45;&gt;init -->
<g id="edge47" class="edge">
<title>haskell&#45;&gt;init</title>
<path fill="none" stroke="black" d="M450.88,-1989.96C450.06,-1936.65 454.71,-1780 532,-1687.35 561.62,-1651.84 596.55,-1679.38 626.75,-1644.35 664.78,-1600.24 628.97,-1565.8 662.75,-1518.35 665.67,-1514.25 669.29,-1510.49 673.2,-1507.11"/>
<polygon fill="black" stroke="black" points="675.06,-1510.1 680.87,-1501.24 670.8,-1504.54 675.06,-1510.1"/>
</g>
<!-- haskell&#45;&gt;types -->
<g id="edge48" class="edge">
<title>haskell&#45;&gt;types</title>
<path fill="none" stroke="black" d="M464.65,-2026.67C511.74,-2091.8 671.09,-2308.35 708.38,-2308.35 708.38,-2308.35 708.38,-2308.35 1238.25,-2308.35 1316.87,-2308.35 1387.02,-2208.83 1419.5,-2141.35 1454.85,-2067.9 1474.03,-1816.27 1479.69,-1729.8"/>
<polygon fill="black" stroke="black" points="1483.17,-1730.22 1480.32,-1720.02 1476.19,-1729.78 1483.17,-1730.22"/>
</g>
<!-- hol&#45;&gt;core -->
<g id="edge49" class="edge">
<title>hol&#45;&gt;core</title>
<path fill="none" stroke="black" d="M873.73,-2145.89C898.25,-2109.27 953.16,-2027.26 982.04,-1984.1"/>
<polygon fill="black" stroke="black" points="984.8,-1986.28 987.45,-1976.03 978.98,-1982.39 984.8,-1986.28"/>
</g>
<!-- hol&#45;api&#45;&gt;core -->
<g id="edge50" class="edge">
<title>hol&#45;api&#45;&gt;core</title>
<path fill="none" stroke="black" d="M611.01,-2008.36C672.09,-2007.85 813.12,-2003.94 928.75,-1980.35 940.35,-1977.98 952.68,-1974.32 963.79,-1970.55"/>
<polygon fill="black" stroke="black" points="964.73,-1973.93 972.99,-1967.31 962.4,-1967.33 964.73,-1973.93"/>
</g>
<!-- hol&#45;api&#45;&gt;hol&#45;eval -->
<g id="edge51" class="edge">
<title>hol&#45;api&#45;&gt;hol&#45;eval</title>
<path fill="none" stroke="black" d="M611.1,-2001.1C647.68,-1991.54 709.64,-1972.33 756,-1942.35 788.65,-1921.24 819.14,-1888.3 838.42,-1865.16"/>
<polygon fill="black" stroke="black" points="840.91,-1867.65 844.53,-1857.69 835.49,-1863.22 840.91,-1867.65"/>
</g>
<!-- inductive -->
<g id="node21" class="node">
<title>inductive</title>
<polygon fill="none" stroke="black" points="898.75,-1504.35 822,-1504.35 822,-1468.35 898.75,-1468.35 898.75,-1504.35"/>
<text text-anchor="middle" x="860.38" y="-1482.05" font-family="sans-serif" font-size="14.00">inductive</text>
</g>
<!-- hol&#45;api&#45;&gt;inductive -->
<g id="edge52" class="edge">
<title>hol&#45;api&#45;&gt;inductive</title>
<path fill="none" stroke="black" d="M588.63,-1989.94C615.49,-1930.55 703.69,-1739.26 792,-1589.35 807.38,-1563.25 826.39,-1534.46 840.29,-1513.97"/>
<polygon fill="black" stroke="black" points="843.07,-1516.11 845.82,-1505.88 837.29,-1512.16 843.07,-1516.11"/>
</g>
<!-- hol&#45;api&#45;&gt;init -->
<g id="edge53" class="edge">
<title>hol&#45;api&#45;&gt;init</title>
<path fill="none" stroke="black" d="M584.83,-1989.92C593.63,-1953.1 613.54,-1867.77 626.75,-1795.35 646.42,-1687.51 622.17,-1653.18 662.75,-1551.35 668.13,-1537.84 676.83,-1524.43 685.19,-1513.33"/>
<polygon fill="black" stroke="black" points="687.69,-1515.81 691.11,-1505.79 682.18,-1511.49 687.69,-1515.81"/>
</g>
<!-- logic&#45;api -->
<g id="node33" class="node">
<title>logic&#45;api</title>
<polygon fill="none" stroke="black" points="897.62,-1802.35 823.12,-1802.35 823.12,-1766.35 897.62,-1766.35 897.62,-1802.35"/>
<text text-anchor="middle" x="860.38" y="-1780.05" font-family="sans-serif" font-size="14.00">logic&#45;api</text>
</g>
<!-- hol&#45;api&#45;&gt;logic&#45;api -->
<g id="edge54" class="edge">
<title>hol&#45;api&#45;&gt;logic&#45;api</title>
<path fill="none" stroke="black" d="M595.86,-1989.94C628.6,-1951.98 708.71,-1864.19 792,-1811.35 798.36,-1807.31 805.43,-1803.69 812.52,-1800.51"/>
<polygon fill="black" stroke="black" points="813.6,-1803.85 821.46,-1796.75 810.89,-1797.4 813.6,-1803.85"/>
</g>
<!-- hol&#45;api&#45;&gt;pure -->
<g id="edge55" class="edge">
<title>hol&#45;api&#45;&gt;pure</title>
<path fill="none" stroke="black" d="M611.1,-2021.95C678.09,-2051.38 833.37,-2118.35 859.38,-2118.35 859.38,-2118.35 859.38,-2118.35 1002.62,-2118.35 1133.83,-2118.35 1204.94,-1935.34 1227.88,-1863.14"/>
<polygon fill="black" stroke="black" points="1231.1,-1864.58 1230.71,-1853.99 1224.41,-1862.52 1231.1,-1864.58"/>
</g>
<!-- hol&#45;api&#45;&gt;types -->
<g id="edge56" class="edge">
<title>hol&#45;api&#45;&gt;types</title>
<path fill="none" stroke="black" d="M588.76,-2026.77C617.29,-2086.41 716.85,-2270.35 859.38,-2270.35 859.38,-2270.35 859.38,-2270.35 1238.25,-2270.35 1378.38,-2270.35 1364.38,-2141.19 1419.5,-2012.35 1461.39,-1914.43 1475.35,-1786.99 1479.69,-1730.07"/>
<polygon fill="black" stroke="black" points="1483.17,-1730.45 1480.39,-1720.23 1476.19,-1729.95 1483.17,-1730.45"/>
</g>
<!-- hol&#45;eval&#45;&gt;core -->
<g id="edge57" class="edge">
<title>hol&#45;eval&#45;&gt;core</title>
<path fill="none" stroke="black" d="M895.72,-1850.39C907.03,-1855.41 919.15,-1862.05 928.75,-1870.35 950.57,-1889.22 945.83,-1902.57 964.75,-1924.35 966.4,-1926.25 968.15,-1928.14 969.96,-1930"/>
<polygon fill="black" stroke="black" points="967.43,-1932.42 977.06,-1936.85 972.29,-1927.38 967.43,-1932.42"/>
</g>
<!-- hol&#45;eval&#45;&gt;pure -->
<g id="edge58" class="edge">
<title>hol&#45;eval&#45;&gt;pure</title>
<path fill="none" stroke="black" d="M895.64,-1837.99C965.83,-1837.24 1125.52,-1835.53 1198.55,-1834.75"/>
<polygon fill="black" stroke="black" points="1198.43,-1838.25 1208.39,-1834.65 1198.35,-1831.26 1198.43,-1838.25"/>
</g>
<!-- hol&#45;eval&#45;&gt;pure&#45;eval -->
<g id="edge59" class="edge">
<title>hol&#45;eval&#45;&gt;pure&#45;eval</title>
<path fill="none" stroke="black" d="M895.62,-1831.56C938.82,-1822.98 1013.44,-1808.18 1063.11,-1798.32"/>
<polygon fill="black" stroke="black" points="1063.62,-1801.79 1072.75,-1796.41 1062.26,-1794.93 1063.62,-1801.79"/>
</g>
<!-- hol&#45;eval&#45;&gt;sexp -->
<g id="edge60" class="edge">
<title>hol&#45;eval&#45;&gt;sexp</title>
<path fill="none" stroke="black" d="M895.73,-1831.89C907.87,-1827.93 920.53,-1821.56 928.75,-1811.35 978.58,-1749.48 995.08,-1499.17 999.36,-1412.81"/>
<polygon fill="black" stroke="black" points="1002.84,-1413.19 999.82,-1403.04 995.85,-1412.86 1002.84,-1413.19"/>
</g>
<!-- hol&#45;eval&#45;&gt;types -->
<g id="edge61" class="edge">
<title>hol&#45;eval&#45;&gt;types</title>
<path fill="none" stroke="black" d="M895.66,-1849.29C959.34,-1869.43 1091.42,-1910.35 1113.38,-1910.35 1113.38,-1910.35 1113.38,-1910.35 1238.25,-1910.35 1322.43,-1910.35 1357.47,-1912.27 1419.5,-1855.35 1455.7,-1822.13 1471.14,-1764.95 1477.45,-1730.1"/>
<polygon fill="black" stroke="black" points="1480.89,-1730.71 1479.07,-1720.27 1473.99,-1729.57 1480.89,-1730.71"/>
</g>
<!-- init&#45;&gt;core -->
<g id="edge62" class="edge">
<title>init&#45;&gt;core</title>
<path fill="none" stroke="black" d="M725.72,-1504.66C735.54,-1517.15 747.91,-1534.44 756,-1551.35 780.95,-1603.5 756.63,-1630.62 792,-1676.35 835.21,-1732.23 883.71,-1702.93 928.75,-1757.35 970.63,-1807.96 989.08,-1884.98 996.39,-1926.81"/>
<polygon fill="black" stroke="black" points="992.92,-1927.31 997.99,-1936.62 999.83,-1926.18 992.92,-1927.31"/>
</g>
<!-- init&#45;&gt;grammar -->
<g id="edge63" class="edge">
<title>init&#45;&gt;grammar</title>
<path fill="none" stroke="black" d="M736.86,-1476.04C744.18,-1471.92 751.37,-1466.44 756,-1459.35 792.46,-1403.5 742.09,-1205.6 792,-1161.35 836.88,-1121.57 910.02,-1143.93 956.7,-1165.08"/>
<polygon fill="black" stroke="black" points="955.2,-1168.24 965.73,-1169.33 958.17,-1161.91 955.2,-1168.24"/>
</g>
<!-- init&#45;&gt;hash -->
<g id="edge64" class="edge">
<title>init&#45;&gt;hash</title>
<path fill="none" stroke="black" d="M736.7,-1476.5C744.2,-1472.37 751.53,-1466.76 756,-1459.35 841.22,-1317.97 729.21,-870.03 792,-717.35 799.72,-698.58 814.26,-681.43 827.87,-668.28"/>
<polygon fill="black" stroke="black" points="830.07,-671.02 835.04,-661.66 825.32,-665.87 830.07,-671.02"/>
</g>
<!-- init&#45;&gt;hol -->
<g id="edge65" class="edge">
<title>init&#45;&gt;hol</title>
<path fill="none" stroke="black" d="M727.11,-1504.8C737.25,-1517.08 749.44,-1534.08 756,-1551.35 805.89,-1682.66 768.53,-1726.86 792,-1865.35 808.91,-1965.09 837.86,-2081.6 851.64,-2134.96"/>
<polygon fill="black" stroke="black" points="848.22,-2135.68 854.12,-2144.48 854.99,-2133.92 848.22,-2135.68"/>
</g>
<!-- init&#45;&gt;hol&#45;eval -->
<g id="edge66" class="edge">
<title>init&#45;&gt;hol&#45;eval</title>
<path fill="none" stroke="black" d="M726.75,-1504.58C736.87,-1516.9 749.19,-1534.03 756,-1551.35 798.71,-1659.91 720.14,-1719.45 792,-1811.35 797.79,-1818.76 805.94,-1824.15 814.57,-1828.06"/>
<polygon fill="black" stroke="black" points="813.21,-1831.28 823.8,-1831.59 815.71,-1824.75 813.21,-1831.28"/>
</g>
<!-- init&#45;&gt;inductive -->
<g id="edge67" class="edge">
<title>init&#45;&gt;inductive</title>
<path fill="none" stroke="black" d="M736.67,-1486.35C757.01,-1486.35 785.75,-1486.35 810.3,-1486.35"/>
<polygon fill="black" stroke="black" points="810.09,-1489.85 820.09,-1486.35 810.09,-1482.85 810.09,-1489.85"/>
</g>
<!-- k -->
<g id="node25" class="node">
<title>k</title>
<polygon fill="none" stroke="black" points="887.38,-1260.35 833.38,-1260.35 833.38,-1224.35 887.38,-1224.35 887.38,-1260.35"/>
<text text-anchor="middle" x="860.38" y="-1238.05" font-family="sans-serif" font-size="14.00">k</text>
</g>
<!-- init&#45;&gt;k -->
<g id="edge68" class="edge">
<title>init&#45;&gt;k</title>
<path fill="none" stroke="black" d="M736.47,-1474.45C743.44,-1470.39 750.54,-1465.33 756,-1459.35 807.43,-1403.08 838.1,-1316.62 851.45,-1271.71"/>
<polygon fill="black" stroke="black" points="854.79,-1272.75 854.2,-1262.17 848.07,-1270.81 854.79,-1272.75"/>
</g>
<!-- init&#45;&gt;logic&#45;api -->
<g id="edge69" class="edge">
<title>init&#45;&gt;logic&#45;api</title>
<path fill="none" stroke="black" d="M726.29,-1504.77C736.22,-1517.17 748.5,-1534.32 756,-1551.35 785.89,-1619.25 756.96,-1648.95 792,-1714.35 800.89,-1730.94 814.82,-1746.36 827.72,-1758.49"/>
<polygon fill="black" stroke="black" points="825.09,-1760.83 834.86,-1764.94 829.79,-1755.64 825.09,-1760.83"/>
</g>
<!-- metamath -->
<g id="node35" class="node">
<title>metamath</title>
<polygon fill="none" stroke="black" points="900.62,-1114.35 820.12,-1114.35 820.12,-1078.35 900.62,-1078.35 900.62,-1114.35"/>
<text text-anchor="middle" x="860.38" y="-1092.05" font-family="sans-serif" font-size="14.00">metamath</text>
</g>
<!-- init&#45;&gt;metamath -->
<g id="edge70" class="edge">
<title>init&#45;&gt;metamath</title>
<path fill="none" stroke="black" d="M736.43,-1476.34C743.92,-1472.2 751.31,-1466.62 756,-1459.35 836.15,-1334.96 706.28,-1248.97 792,-1128.35 796.64,-1121.82 802.98,-1116.58 809.91,-1112.38"/>
<polygon fill="black" stroke="black" points="811.07,-1115.73 818.3,-1107.99 807.82,-1109.53 811.07,-1115.73"/>
</g>
<!-- init&#45;&gt;sexp -->
<g id="edge71" class="edge">
<title>init&#45;&gt;sexp</title>
<path fill="none" stroke="black" d="M736.81,-1477.5C752.77,-1472.18 773.53,-1465.31 792,-1459.35 852.63,-1439.79 869.29,-1439.24 928.75,-1416.35 940.4,-1411.86 952.85,-1406.4 964.05,-1401.22"/>
<polygon fill="black" stroke="black" points="965.41,-1404.45 972.97,-1397.03 962.43,-1398.11 965.41,-1404.45"/>
</g>
<!-- spectec -->
<g id="node56" class="node">
<title>spectec</title>
<polygon fill="none" stroke="black" points="895,-1206.35 825.75,-1206.35 825.75,-1170.35 895,-1170.35 895,-1206.35"/>
<text text-anchor="middle" x="860.38" y="-1184.05" font-family="sans-serif" font-size="14.00">spectec</text>
</g>
<!-- init&#45;&gt;spectec -->
<g id="edge72" class="edge">
<title>init&#45;&gt;spectec</title>
<path fill="none" stroke="black" d="M736.74,-1475.96C744.06,-1471.84 751.28,-1466.38 756,-1459.35 817.12,-1368.35 724.09,-1301.4 792,-1215.35 797.83,-1207.97 805.98,-1202.59 814.62,-1198.69"/>
<polygon fill="black" stroke="black" points="815.76,-1202 823.85,-1195.15 813.26,-1195.46 815.76,-1202"/>
</g>
<!-- init&#45;&gt;types -->
<g id="edge73" class="edge">
<title>init&#45;&gt;types</title>
<path fill="none" stroke="black" d="M725,-1504.64C734.63,-1517.26 747.07,-1534.71 756,-1551.35 776.76,-1590.04 756.9,-1616.98 792,-1643.35 866.44,-1699.28 907.52,-1662.35 1000.62,-1662.35 1000.62,-1662.35 1000.62,-1662.35 1238.25,-1662.35 1311.89,-1662.35 1396.59,-1679.56 1444.11,-1690.82"/>
<polygon fill="black" stroke="black" points="1443.06,-1694.17 1453.6,-1693.11 1444.71,-1687.36 1443.06,-1694.17"/>
</g>
<!-- json -->
<g id="node23" class="node">
<title>json</title>
<polygon fill="none" stroke="black" points="887.38,-116.35 833.38,-116.35 833.38,-80.35 887.38,-80.35 887.38,-116.35"/>
<text text-anchor="middle" x="860.38" y="-94.05" font-family="sans-serif" font-size="14.00">json</text>
</g>
<!-- json&#45;api -->
<g id="node24" class="node">
<title>json&#45;api</title>
<polygon fill="none" stroke="black" points="744.38,-1450.35 674.38,-1450.35 674.38,-1414.35 744.38,-1414.35 744.38,-1450.35"/>
<text text-anchor="middle" x="709.38" y="-1428.05" font-family="sans-serif" font-size="14.00">json&#45;api</text>
</g>
<!-- json&#45;api&#45;&gt;decimal&#45;api -->
<g id="edge74" class="edge">
<title>json&#45;api&#45;&gt;decimal&#45;api</title>
<path fill="none" stroke="black" d="M714.44,-1413.93C730.69,-1340.26 790.26,-1070.74 792,-1069.35 910.67,-974.41 1107.26,-1056.6 1193.49,-1100.72"/>
<polygon fill="black" stroke="black" points="1191.61,-1103.69 1202.1,-1105.2 1194.84,-1097.48 1191.61,-1103.69"/>
</g>
<!-- json&#45;api&#45;&gt;inductive -->
<g id="edge75" class="edge">
<title>json&#45;api&#45;&gt;inductive</title>
<path fill="none" stroke="black" d="M744.56,-1444.74C764.26,-1451.88 789.34,-1460.97 811.03,-1468.83"/>
<polygon fill="black" stroke="black" points="809.67,-1472.06 820.27,-1472.18 812.06,-1465.48 809.67,-1472.06"/>
</g>
<!-- k&#45;&gt;grammar -->
<g id="edge76" class="edge">
<title>k&#45;&gt;grammar</title>
<path fill="none" stroke="black" d="M887.57,-1232.19C906.19,-1224.97 931.7,-1215.08 953.79,-1206.52"/>
<polygon fill="black" stroke="black" points="954.84,-1209.86 962.89,-1202.98 952.3,-1203.34 954.84,-1209.86"/>
</g>
<!-- k&#45;&gt;parse -->
<g id="edge77" class="edge">
<title>k&#45;&gt;parse</title>
<path fill="none" stroke="black" d="M887.6,-1246.47C925.78,-1250.88 996.69,-1252.83 1038.5,-1215.35 1076.1,-1181.64 1100.66,-1029.02 1109.6,-963.92"/>
<polygon fill="black" stroke="black" points="1113.02,-964.71 1110.88,-954.33 1106.08,-963.78 1113.02,-964.71"/>
</g>
<!-- k&#45;&gt;sexp -->
<g id="edge78" class="edge">
<title>k&#45;&gt;sexp</title>
<path fill="none" stroke="black" d="M887.63,-1250.96C900.97,-1256.23 916.83,-1263.99 928.75,-1274.35 954.56,-1296.79 974.92,-1330.65 987.28,-1354.66"/>
<polygon fill="black" stroke="black" points="984.13,-1356.18 991.71,-1363.58 990.39,-1353.06 984.13,-1356.18"/>
</g>
<!-- kernel -->
<g id="node26" class="node">
<title>kernel</title>
<polygon fill="none" stroke="black" points="608,-1336.35 550.75,-1336.35 550.75,-1300.35 608,-1300.35 608,-1336.35"/>
<text text-anchor="middle" x="579.38" y="-1314.05" font-family="sans-serif" font-size="14.00">kernel</text>
</g>
<!-- kernel&#45;&gt;hash -->
<g id="edge79" class="edge">
<title>kernel&#45;&gt;hash</title>
<path fill="none" stroke="black" d="M590.71,-1300.01C601.55,-1279.9 618.16,-1246.35 626.75,-1215.35 663.19,-1083.81 600.73,-1031.94 662.75,-910.35 688.37,-860.13 725.33,-871.66 756,-824.35 783.29,-782.25 766.71,-760.69 792,-717.35 802.45,-699.45 817.65,-682.06 830.96,-668.54"/>
<polygon fill="black" stroke="black" points="833.22,-671.23 837.88,-661.72 828.3,-666.25 833.22,-671.23"/>
</g>
<!-- kernel&#45;&gt;init -->
<g id="edge80" class="edge">
<title>kernel&#45;&gt;init</title>
<path fill="none" stroke="black" d="M594.89,-1336.81C604.53,-1349.51 617.13,-1366.98 626.75,-1383.35 645.68,-1415.58 637.56,-1431.74 662.75,-1459.35 665.73,-1462.62 669.21,-1465.62 672.89,-1468.33"/>
<polygon fill="black" stroke="black" points="670.72,-1471.09 681,-1473.63 674.55,-1465.23 670.72,-1471.09"/>
</g>
<!-- kernel&#45;&gt;object -->
<g id="edge81" class="edge">
<title>kernel&#45;&gt;object</title>
<path fill="none" stroke="black" d="M590.85,-1300.05C601.81,-1279.97 618.52,-1246.44 626.75,-1215.35 670.25,-1050.92 629.2,-1001.1 662.75,-834.35 671.12,-792.75 686.82,-746.2 697.43,-717.09"/>
<polygon fill="black" stroke="black" points="700.65,-718.48 700.84,-707.89 694.08,-716.05 700.65,-718.48"/>
</g>
<!-- kernel&#45;&gt;sexp -->
<g id="edge82" class="edge">
<title>kernel&#45;&gt;sexp</title>
<path fill="none" stroke="black" d="M608.47,-1319.98C643.23,-1322.21 704.19,-1326.82 756,-1334.35 795.5,-1340.09 904.91,-1362.96 963.1,-1375.32"/>
<polygon fill="black" stroke="black" points="962.37,-1378.75 972.88,-1377.41 963.83,-1371.9 962.37,-1378.75"/>
</g>
<!-- kernel&#45;&gt;store -->
<g id="edge83" class="edge">
<title>kernel&#45;&gt;store</title>
<path fill="none" stroke="black" d="M591.17,-1300.13C602.39,-1280.12 619.34,-1246.65 626.75,-1215.35 670.91,-1028.78 601.19,-534.92 662.75,-353.35 667.38,-339.68 675.86,-326.32 684.26,-315.31"/>
<polygon fill="black" stroke="black" points="686.73,-317.82 690.26,-307.83 681.27,-313.43 686.73,-317.82"/>
</g>
<!-- kernel&#45;sat -->
<g id="node27" class="node">
<title>kernel&#45;sat</title>
<polygon fill="none" stroke="black" points="621.12,-1732.35 537.62,-1732.35 537.62,-1696.35 621.12,-1696.35 621.12,-1732.35"/>
<text text-anchor="middle" x="579.38" y="-1710.05" font-family="sans-serif" font-size="14.00">kernel&#45;sat</text>
</g>
<!-- kernel&#45;sat&#45;&gt;core -->
<g id="edge84" class="edge">
<title>kernel&#45;sat&#45;&gt;core</title>
<path fill="none" stroke="black" d="M621.55,-1731.88C659.33,-1749.31 715.4,-1778.7 756,-1815.35 776.33,-1833.7 769.27,-1850.08 792,-1865.35 843.89,-1900.23 872.67,-1870.71 928.75,-1898.35 937.97,-1902.9 955.99,-1917.44 971.68,-1930.83"/>
<polygon fill="black" stroke="black" points="969.08,-1933.21 978.94,-1937.09 973.65,-1927.91 969.08,-1933.21"/>
</g>
<!-- kernel&#45;sat&#45;&gt;hol&#45;eval -->
<g id="edge85" class="edge">
<title>kernel&#45;sat&#45;&gt;hol&#45;eval</title>
<path fill="none" stroke="black" d="M621.32,-1705.22C659.71,-1699.11 716.91,-1696.58 756,-1724.35 790.11,-1748.59 762.25,-1781.93 792,-1811.35 798.36,-1817.64 806.38,-1822.52 814.65,-1826.29"/>
<polygon fill="black" stroke="black" points="813.15,-1829.46 823.73,-1829.92 815.75,-1822.96 813.15,-1829.46"/>
</g>
<!-- kernel&#45;sat&#45;&gt;init -->
<g id="edge86" class="edge">
<title>kernel&#45;sat&#45;&gt;init</title>
<path fill="none" stroke="black" d="M613.61,-1696.12C618.62,-1692.15 623.26,-1687.55 626.75,-1682.35 668.36,-1620.4 621.38,-1580.46 662.75,-1518.35 665.6,-1514.07 669.24,-1510.18 673.21,-1506.72"/>
<polygon fill="black" stroke="black" points="675.24,-1509.57 681.06,-1500.72 670.99,-1504.01 675.24,-1509.57"/>
</g>
<!-- sat -->
<g id="node51" class="node">
<title>sat</title>
<polygon fill="none" stroke="black" points="887.38,-984.35 833.38,-984.35 833.38,-948.35 887.38,-948.35 887.38,-984.35"/>
<text text-anchor="middle" x="860.38" y="-962.05" font-family="sans-serif" font-size="14.00">sat</text>
</g>
<!-- kernel&#45;sat&#45;&gt;sat -->
<g id="edge87" class="edge">
<title>kernel&#45;sat&#45;&gt;sat</title>
<path fill="none" stroke="black" d="M582.72,-1695.97C593.91,-1613.49 647.41,-1271.33 792,-1036.35 802.01,-1020.09 816.34,-1004.52 829.21,-992.21"/>
<polygon fill="black" stroke="black" points="831.34,-995.02 836.29,-985.65 826.58,-989.88 831.34,-995.02"/>
</g>
<!-- kernel&#45;smt -->
<g id="node28" class="node">
<title>kernel&#45;smt</title>
<polygon fill="none" stroke="black" points="494.5,-2117.35 406.5,-2117.35 406.5,-2081.35 494.5,-2081.35 494.5,-2117.35"/>
<text text-anchor="middle" x="450.5" y="-2095.05" font-family="sans-serif" font-size="14.00">kernel&#45;smt</text>
</g>
<!-- kernel&#45;smt&#45;&gt;core -->
<g id="edge88" class="edge">
<title>kernel&#45;smt&#45;&gt;core</title>
<path fill="none" stroke="black" d="M478.95,-2117.76C557.5,-2167.93 786.64,-2296.5 928.75,-2191.35 962.21,-2166.59 986.42,-2043.06 996.04,-1985.7"/>
<polygon fill="black" stroke="black" points="999.46,-1986.45 997.63,-1976.02 992.56,-1985.32 999.46,-1986.45"/>
</g>
<!-- kernel&#45;smt&#45;&gt;hol&#45;api -->
<g id="edge89" class="edge">
<title>kernel&#45;smt&#45;&gt;hol&#45;api</title>
<path fill="none" stroke="black" d="M477.18,-2080.94C496.26,-2067.24 522.52,-2048.41 543.51,-2033.36"/>
<polygon fill="black" stroke="black" points="545.42,-2036.29 551.51,-2027.62 541.34,-2030.61 545.42,-2036.29"/>
</g>
<!-- kv -->
<g id="node29" class="node">
<title>kv</title>
<polygon fill="none" stroke="black" points="226.12,-132.35 172.12,-132.35 172.12,-96.35 226.12,-96.35 226.12,-132.35"/>
<text text-anchor="middle" x="199.12" y="-110.05" font-family="sans-serif" font-size="14.00">kv</text>
</g>
<!-- lean -->
<g id="node30" class="node">
<title>lean</title>
<polygon fill="none" stroke="black" points="87.5,-1094.35 33.5,-1094.35 33.5,-1058.35 87.5,-1058.35 87.5,-1094.35"/>
<text text-anchor="middle" x="60.5" y="-1072.05" font-family="sans-serif" font-size="14.00">lean</text>
</g>
<!-- lisp -->
<g id="node31" class="node">
<title>lisp</title>
<polygon fill="none" stroke="black" points="477.5,-1550.35 423.5,-1550.35 423.5,-1514.35 477.5,-1514.35 477.5,-1550.35"/>
<text text-anchor="middle" x="450.5" y="-1528.05" font-family="sans-serif" font-size="14.00">lisp</text>
</g>
<!-- lisp&#45;&gt;core -->
<g id="edge90" class="edge">
<title>lisp&#45;&gt;core</title>
<path fill="none" stroke="black" d="M477.7,-1540.74C484.68,-1544.19 491.51,-1548.94 496,-1555.35 567.73,-1657.76 454.59,-1736.17 532,-1834.35 637.86,-1968.61 871.27,-1966.55 962.77,-1960.03"/>
<polygon fill="black" stroke="black" points="963.01,-1963.52 972.7,-1959.25 962.46,-1956.54 963.01,-1963.52"/>
</g>
<!-- lisp&#45;&gt;hol&#45;api -->
<g id="edge91" class="edge">
<title>lisp&#45;&gt;hol&#45;api</title>
<path fill="none" stroke="black" d="M477.56,-1545.55C484.71,-1550.47 491.67,-1556.74 496,-1564.35 586.89,-1724.11 439.56,-1817.48 532,-1976.35 533.98,-1979.75 536.48,-1982.87 539.29,-1985.72"/>
<polygon fill="black" stroke="black" points="536.82,-1988.22 546.71,-1992.04 541.36,-1982.89 536.82,-1988.22"/>
</g>
<!-- lisp&#45;&gt;hol&#45;eval -->
<g id="edge92" class="edge">
<title>lisp&#45;&gt;hol&#45;eval</title>
<path fill="none" stroke="black" d="M477.62,-1540.79C484.59,-1544.25 491.44,-1548.99 496,-1555.35 558.79,-1643.05 455.04,-1719.78 532,-1795.35 607.17,-1869.16 743.12,-1859.16 813.85,-1847.64"/>
<polygon fill="black" stroke="black" points="814.28,-1851.12 823.54,-1845.97 813.09,-1844.22 814.28,-1851.12"/>
</g>
<!-- lisp&#45;&gt;init -->
<g id="edge93" class="edge">
<title>lisp&#45;&gt;init</title>
<path fill="none" stroke="black" d="M477.86,-1540.88C512.88,-1550.78 576.23,-1563.69 626.75,-1546.35 645.92,-1539.77 646.45,-1530.4 662.75,-1518.35 666.06,-1515.91 669.52,-1513.39 673.01,-1510.9"/>
<polygon fill="black" stroke="black" points="674.79,-1513.92 680.92,-1505.28 670.74,-1508.21 674.79,-1513.92"/>
</g>
<!-- lisp&#45;&gt;repl&#45;core -->
<g id="edge94" class="edge">
<title>lisp&#45;&gt;repl&#45;core</title>
<path fill="none" stroke="black" d="M456.94,-1513.99C469.12,-1473.39 500.03,-1373.11 532,-1291.35 541.99,-1265.81 554.9,-1237.43 564.57,-1216.94"/>
<polygon fill="black" stroke="black" points="567.65,-1218.62 568.78,-1208.09 561.32,-1215.61 567.65,-1218.62"/>
</g>
<!-- lisp&#45;&gt;sexp -->
<g id="edge95" class="edge">
<title>lisp&#45;&gt;sexp</title>
<path fill="none" stroke="black" d="M477.84,-1520.42C513.12,-1503.93 577.03,-1472.23 626.75,-1437.35 644.28,-1425.06 643,-1413.61 662.75,-1405.35 764.61,-1362.78 898.87,-1370.83 963.16,-1378.14"/>
<polygon fill="black" stroke="black" points="962.48,-1381.58 972.83,-1379.3 963.31,-1374.63 962.48,-1381.58"/>
</g>
<!-- lisp&#45;&gt;types -->
<g id="edge96" class="edge">
<title>lisp&#45;&gt;types</title>
<path fill="none" stroke="black" d="M456.87,-1513.94C466.8,-1482.92 490.86,-1420.05 532,-1383.35 565.86,-1353.15 599.7,-1381.78 626.75,-1345.35 680.89,-1272.46 615.49,-1015.88 662.75,-938.35 688.28,-896.48 721.34,-914.04 756,-879.35 777.18,-858.16 766.93,-838.77 792,-822.35 870.47,-770.96 906.82,-790.35 1000.62,-790.35 1000.62,-790.35 1000.62,-790.35 1238.25,-790.35 1322.43,-790.35 1366.94,-779.59 1419.5,-845.35 1472.04,-911.08 1480.14,-1527.96 1481.31,-1670.89"/>
<polygon fill="black" stroke="black" points="1477.81,-1670.66 1481.39,-1680.64 1484.81,-1670.61 1477.81,-1670.66"/>
</g>
<!-- llm -->
<g id="node32" class="node">
<title>llm</title>
<polygon fill="none" stroke="black" points="226.12,-902.35 172.12,-902.35 172.12,-866.35 226.12,-866.35 226.12,-902.35"/>
<text text-anchor="middle" x="199.12" y="-880.05" font-family="sans-serif" font-size="14.00">llm</text>
</g>
<!-- llm&#45;&gt;proto -->
<g id="edge97" class="edge">
<title>llm&#45;&gt;proto</title>
<path fill="none" stroke="black" d="M226.6,-894.33C243.7,-900.78 266.21,-909.27 285.08,-916.38"/>
<polygon fill="black" stroke="black" points="283.7,-919.6 294.29,-919.86 286.17,-913.05 283.7,-919.6"/>
</g>
<!-- lsp&#45;&gt;sexp -->
<g id="edge98" class="edge">
<title>lsp&#45;&gt;sexp</title>
<path fill="none" stroke="black" d="M872.65,-762.71C888.12,-788.88 915.53,-838.9 928.75,-885.35 969.13,-1027.26 941.31,-1069.69 964.75,-1215.35 972.67,-1264.61 985.56,-1321.22 993.54,-1354.55"/>
<polygon fill="black" stroke="black" points="990.04,-1354.95 995.79,-1363.85 996.84,-1353.3 990.04,-1354.95"/>
</g>
<!-- lsp&#45;&gt;wasm -->
<g id="edge99" class="edge">
<title>lsp&#45;&gt;wasm</title>
<path fill="none" stroke="black" d="M883.52,-726.03C898.77,-712.12 918.13,-691.63 928.75,-669.35 964.87,-593.57 990.33,-334.93 998.12,-246.94"/>
<polygon fill="black" stroke="black" points="1001.59,-247.46 998.97,-237.2 994.61,-246.86 1001.59,-247.46"/>
</g>
<!-- metamath&#45;&gt;parse -->
<g id="edge100" class="edge">
<title>metamath&#45;&gt;parse</title>
<path fill="none" stroke="black" d="M889.79,-1078.08C935.89,-1048.45 1026.89,-989.95 1077.42,-957.46"/>
<polygon fill="black" stroke="black" points="1079.17,-960.5 1085.69,-952.15 1075.38,-954.61 1079.17,-960.5"/>
</g>
<!-- metamath&#45;&gt;sexp -->
<g id="edge101" class="edge">
<title>metamath&#45;&gt;sexp</title>
<path fill="none" stroke="black" d="M885.81,-1114.79C900.09,-1126.69 917.47,-1143.29 928.75,-1161.35 967.77,-1223.83 987.62,-1309.55 995.85,-1353.98"/>
<polygon fill="black" stroke="black" points="992.36,-1354.38 997.56,-1363.62 999.26,-1353.16 992.36,-1354.38"/>
</g>
<!-- multiformat -->
<g id="node36" class="node">
<title>multiformat</title>
<polygon fill="none" stroke="black" points="754.5,-1026.35 664.25,-1026.35 664.25,-990.35 754.5,-990.35 754.5,-1026.35"/>
<text text-anchor="middle" x="709.38" y="-1004.05" font-family="sans-serif" font-size="14.00">multiformat</text>
</g>
<!-- multiformat&#45;&gt;acset -->
<g id="edge102" class="edge">
<title>multiformat&#45;&gt;acset</title>
<path fill="none" stroke="black" d="M738.5,-989.86C744.44,-985.62 750.55,-980.99 756,-976.35 773.47,-961.48 772.94,-952.12 792,-939.35 801.32,-933.11 812.32,-927.94 822.69,-923.85"/>
<polygon fill="black" stroke="black" points="823.58,-927.26 831.75,-920.51 821.16,-920.69 823.58,-927.26"/>
</g>
<!-- multiformat&#45;&gt;hash -->
<g id="edge103" class="edge">
<title>multiformat&#45;&gt;hash</title>
<path fill="none" stroke="black" d="M716.49,-990.02C725.6,-962.46 743.03,-908.64 756,-862.35 773.91,-798.41 760.89,-776.01 792,-717.35 801.64,-699.17 816.64,-681.86 830.04,-668.47"/>
<polygon fill="black" stroke="black" points="832.28,-671.18 837.03,-661.71 827.41,-666.15 832.28,-671.18"/>
</g>
<!-- multiformat&#45;&gt;parse -->
<g id="edge104" class="edge">
<title>multiformat&#45;&gt;parse</title>
<path fill="none" stroke="black" d="M741.93,-989.92C747.1,-985.92 752.05,-981.36 756,-976.35 782.94,-942.2 756.03,-909.8 792,-885.35 837.73,-854.27 1001.73,-899.47 1076.16,-922.39"/>
<polygon fill="black" stroke="black" points="1074.85,-925.65 1085.44,-925.28 1076.94,-918.97 1074.85,-925.65"/>
</g>
<!-- numerals -->
<g id="node37" class="node">
<title>numerals</title>
<polygon fill="none" stroke="black" points="617.75,-1428.35 541,-1428.35 541,-1392.35 617.75,-1392.35 617.75,-1428.35"/>
<text text-anchor="middle" x="579.38" y="-1406.05" font-family="sans-serif" font-size="14.00">numerals</text>
</g>
<!-- numerals&#45;&gt;grammar -->
<g id="edge105" class="edge">
<title>numerals&#45;&gt;grammar</title>
<path fill="none" stroke="black" d="M611.5,-1391.95C616.97,-1387.9 622.32,-1383.31 626.75,-1378.35 730.48,-1262.19 658.41,-1149.4 792,-1069.35 844.13,-1038.11 875.82,-1039.48 928.75,-1069.35 962.71,-1088.51 982.43,-1130.88 992.36,-1159.54"/>
<polygon fill="black" stroke="black" points="988.92,-1160.27 995.34,-1168.7 995.58,-1158.1 988.92,-1160.27"/>
</g>
<!-- numerals&#45;&gt;hol&#45;eval -->
<g id="edge106" class="edge">
<title>numerals&#45;&gt;hol&#45;eval</title>
<path fill="none" stroke="black" d="M585.49,-1428.74C596.06,-1464.78 622.73,-1546.34 662.75,-1605.35 695.43,-1653.54 725.62,-1647.69 756,-1697.35 783.73,-1742.68 755.87,-1772.39 792,-1811.35 798.15,-1817.98 806.14,-1823.01 814.45,-1826.82"/>
<polygon fill="black" stroke="black" points="813.06,-1830.03 823.65,-1830.47 815.64,-1823.53 813.06,-1830.03"/>
</g>
<!-- numerals&#45;&gt;init -->
<g id="edge107" class="edge">
<title>numerals&#45;&gt;init</title>
<path fill="none" stroke="black" d="M611.27,-1428.75C626.72,-1437.95 645.72,-1449.25 662.75,-1459.35 665.92,-1461.23 669.21,-1463.18 672.51,-1465.13"/>
<polygon fill="black" stroke="black" points="670.62,-1468.09 681.01,-1470.17 674.19,-1462.06 670.62,-1468.09"/>
</g>
<!-- numerals&#45;&gt;types -->
<g id="edge108" class="edge">
<title>numerals&#45;&gt;types</title>
<path fill="none" stroke="black" d="M614.64,-1392.1C619.39,-1388.17 623.69,-1383.59 626.75,-1378.35 671.43,-1301.86 611.67,-1053.73 662.75,-981.35 689.07,-944.06 722.86,-969.73 756,-938.35 780.83,-914.84 764.6,-890.81 792,-870.35 867.79,-813.77 906.04,-828.35 1000.62,-828.35 1000.62,-828.35 1000.62,-828.35 1238.25,-828.35 1349,-828.35 1371.19,-899.69 1419.5,-999.35 1478.3,-1120.67 1481.8,-1553.78 1481.64,-1670.95"/>
<polygon fill="black" stroke="black" points="1478.14,-1670.65 1481.62,-1680.66 1485.14,-1670.67 1478.14,-1670.65"/>
</g>
<!-- object&#45;&gt;hash -->
<g id="edge109" class="edge">
<title>object&#45;&gt;hash</title>
<path fill="none" stroke="black" d="M738.4,-679.7C762.05,-672.4 796.09,-661.89 822.04,-653.88"/>
<polygon fill="black" stroke="black" points="823.01,-657.24 831.53,-650.95 820.94,-650.55 823.01,-657.24"/>
</g>
<!-- object&#45;&gt;parse -->
<g id="edge110" class="edge">
<title>object&#45;&gt;parse</title>
<path fill="none" stroke="black" d="M738.17,-685.93C781.64,-683.43 867.13,-683.77 928.75,-717.35 1010.52,-761.91 1071.87,-858.29 1098.61,-906.17"/>
<polygon fill="black" stroke="black" points="1095.48,-907.74 1103.35,-914.83 1101.62,-904.38 1095.48,-907.74"/>
</g>
<!-- opentheory&#45;&gt;core -->
<g id="edge111" class="edge">
<title>opentheory&#45;&gt;core</title>
<path fill="none" stroke="black" d="M491.2,-2212.78C580.09,-2251.01 797.63,-2327.25 928.75,-2225.35 966.76,-2195.81 989.13,-2049.42 997.19,-1985.87"/>
<polygon fill="black" stroke="black" points="1000.64,-1986.53 998.39,-1976.17 993.69,-1985.67 1000.64,-1986.53"/>
</g>
<!-- opentheory&#45;&gt;hol -->
<g id="edge112" class="edge">
<title>opentheory&#45;&gt;hol</title>
<path fill="none" stroke="black" d="M496.41,-2203.23C556.28,-2213.52 665.26,-2226.86 756,-2208.35 779.22,-2203.61 803.69,-2193.46 822.98,-2184.1"/>
<polygon fill="black" stroke="black" points="824.4,-2187.31 831.78,-2179.7 821.27,-2181.05 824.4,-2187.31"/>
</g>
<!-- opentheory&#45;&gt;hol&#45;api -->
<g id="edge113" class="edge">
<title>opentheory&#45;&gt;hol&#45;api</title>
<path fill="none" stroke="black" d="M463.9,-2176.18C486.26,-2143.4 533.45,-2074.21 559.73,-2035.69"/>
<polygon fill="black" stroke="black" points="562.33,-2038.08 565.08,-2027.85 556.55,-2034.14 562.33,-2038.08"/>
</g>
<!-- opentheory&#45;&gt;hol&#45;eval -->
<g id="edge114" class="edge">
<title>opentheory&#45;&gt;hol&#45;eval</title>
<path fill="none" stroke="black" d="M496.3,-2176.91C560.24,-2150.22 678.5,-2094.08 756,-2016.35 800.21,-1972.02 832.33,-1904.99 848.19,-1867.1"/>
<polygon fill="black" stroke="black" points="851.3,-1868.76 851.84,-1858.18 844.82,-1866.11 851.3,-1868.76"/>
</g>
<!-- parquet -->
<g id="node40" class="node">
<title>parquet</title>
<polygon fill="none" stroke="black" points="484,-658.35 417,-658.35 417,-622.35 484,-622.35 484,-658.35"/>
<text text-anchor="middle" x="450.5" y="-636.05" font-family="sans-serif" font-size="14.00">parquet</text>
</g>
<!-- parquet&#45;&gt;arrow -->
<g id="edge115" class="edge">
<title>parquet&#45;&gt;arrow</title>
<path fill="none" stroke="black" d="M484.17,-650.14C501.6,-655.36 523.12,-661.8 541.19,-667.21"/>
<polygon fill="black" stroke="black" points="540.17,-670.56 550.75,-670.08 542.18,-663.86 540.17,-670.56"/>
</g>
<!-- proptest -->
<g id="node42" class="node">
<title>proptest</title>
<polygon fill="none" stroke="black" points="95.88,-1148.35 25.12,-1148.35 25.12,-1112.35 95.88,-1112.35 95.88,-1148.35"/>
<text text-anchor="middle" x="60.5" y="-1126.05" font-family="sans-serif" font-size="14.00">proptest</text>
</g>
<!-- pure&#45;trusted -->
<g id="node46" class="node">
<title>pure&#45;trusted</title>
<polygon fill="#ffd6d6" stroke="black" points="1419.5,-1846.35 1320.25,-1846.35 1320.25,-1810.35 1419.5,-1810.35 1419.5,-1846.35"/>
<text text-anchor="middle" x="1369.88" y="-1824.05" font-family="sans-serif" font-size="14.00">pure&#45;trusted</text>
</g>
<!-- pure&#45;&gt;pure&#45;trusted -->
<g id="edge116" class="edge">
<title>pure&#45;&gt;pure&#45;trusted</title>
<path fill="none" stroke="black" d="M1264.68,-1833.14C1277.4,-1832.55 1293.21,-1831.83 1308.64,-1831.12"/>
<polygon fill="black" stroke="black" points="1308.42,-1834.63 1318.25,-1830.68 1308.1,-1827.64 1308.42,-1834.63"/>
</g>
<!-- pure&#45;eval&#45;&gt;pure -->
<g id="edge117" class="edge">
<title>pure&#45;eval&#45;&gt;pure</title>
<path fill="none" stroke="black" d="M1154.62,-1803.29C1169.01,-1808.76 1185.24,-1814.94 1199.41,-1820.33"/>
<polygon fill="black" stroke="black" points="1197.78,-1823.46 1208.37,-1823.74 1200.27,-1816.91 1197.78,-1823.46"/>
</g>
<!-- pure&#45;eval&#45;&gt;types -->
<g id="edge118" class="edge">
<title>pure&#45;eval&#45;&gt;types</title>
<path fill="none" stroke="black" d="M1154.65,-1790.69C1214.43,-1792.74 1330.67,-1790.73 1419.5,-1752.35 1433.3,-1746.39 1446.4,-1736.32 1456.97,-1726.62"/>
<polygon fill="black" stroke="black" points="1459.36,-1729.18 1464.13,-1719.72 1454.5,-1724.14 1459.36,-1729.18"/>
</g>
<!-- pure&#45;trusted&#45;&gt;types -->
<g id="edge119" class="edge">
<title>pure&#45;trusted&#45;&gt;types</title>
<path fill="none" stroke="black" d="M1400.03,-1809.96C1406.81,-1805 1413.72,-1799.34 1419.5,-1793.35 1438.34,-1773.82 1455.1,-1747.87 1466.43,-1728.35"/>
<polygon fill="black" stroke="black" points="1469.37,-1730.26 1471.25,-1719.83 1463.28,-1726.81 1469.37,-1730.26"/>
</g>
<!-- python -->
<g id="node47" class="node">
<title>python</title>
<polygon fill="none" stroke="black" points="91.38,-422.35 29.62,-422.35 29.62,-386.35 91.38,-386.35 91.38,-422.35"/>
<text text-anchor="middle" x="60.5" y="-400.05" font-family="sans-serif" font-size="14.00">python</text>
</g>
<!-- python&#45;&gt;crypto&#45;sig -->
<g id="edge120" class="edge">
<title>python&#45;&gt;crypto&#45;sig</title>
<path fill="none" stroke="black" d="M69.23,-385.94C83.36,-353.65 115.76,-285.77 157,-238.35 158.87,-236.2 160.9,-234.1 163.03,-232.06"/>
<polygon fill="black" stroke="black" points="165.22,-234.79 170.42,-225.56 160.59,-229.54 165.22,-234.79"/>
</g>
<!-- python&#45;&gt;git -->
<g id="edge121" class="edge">
<title>python&#45;&gt;git</title>
<path fill="none" stroke="black" d="M91.51,-402.59C147.4,-400.19 270.71,-399.12 369,-428.35 384.33,-432.91 400.02,-440.66 413.42,-448.4"/>
<polygon fill="black" stroke="black" points="411.51,-451.34 421.89,-453.48 415.12,-445.33 411.51,-451.34"/>
</g>
<!-- python&#45;&gt;graph -->
<g id="edge122" class="edge">
<title>python&#45;&gt;graph</title>
<path fill="none" stroke="black" d="M91.58,-401.58C110.37,-399.99 135.07,-398.15 157,-397.35 194.42,-395.98 203.83,-396.03 241.25,-397.35 298.13,-399.35 312.57,-398.9 369,-406.35 479.69,-420.96 608.7,-449.18 670.97,-463.52"/>
<polygon fill="black" stroke="black" points="670.15,-466.93 680.68,-465.78 671.73,-460.11 670.15,-466.93"/>
</g>
<!-- python&#45;&gt;hash -->
<g id="edge123" class="edge">
<title>python&#45;&gt;hash</title>
<path fill="none" stroke="black" d="M91.52,-399.6C110.28,-396.88 134.99,-393.73 157,-392.35 194.37,-390.01 203.81,-392.06 241.25,-392.35 356.24,-393.25 662.17,-378.88 756,-445.35 813.45,-486.05 841.5,-568.67 852.89,-612.88"/>
<polygon fill="black" stroke="black" points="849.48,-613.66 855.25,-622.54 856.27,-611.99 849.48,-613.66"/>
</g>
<!-- python&#45;&gt;kv -->
<g id="edge124" class="edge">
<title>python&#45;&gt;kv</title>
<path fill="none" stroke="black" d="M64.66,-386.14C73.1,-341.55 99.58,-224.77 157,-146.35 158.9,-143.75 161.07,-141.25 163.4,-138.88"/>
<polygon fill="black" stroke="black" points="165.55,-141.66 170.62,-132.35 160.86,-136.46 165.55,-141.66"/>
</g>
<!-- python&#45;&gt;llm -->
<g id="edge125" class="edge">
<title>python&#45;&gt;llm</title>
<path fill="none" stroke="black" d="M61.09,-422.64C60.48,-486.91 65.58,-706.46 157,-852.35 158.86,-855.32 161.1,-858.13 163.56,-860.75"/>
<polygon fill="black" stroke="black" points="161.14,-863.27 170.87,-867.45 165.87,-858.11 161.14,-863.27"/>
</g>
<!-- python&#45;&gt;object -->
<g id="edge126" class="edge">
<title>python&#45;&gt;object</title>
<path fill="none" stroke="black" d="M67.17,-422.77C86.04,-480.56 152.68,-659 277.25,-735.35 343.64,-776.04 555.62,-792.03 626.75,-760.35 648.6,-750.62 644.84,-736.21 662.75,-720.35 665.5,-717.91 668.44,-715.49 671.46,-713.14"/>
<polygon fill="black" stroke="black" points="673.45,-716.02 679.38,-707.24 669.27,-710.41 673.45,-716.02"/>
</g>
<!-- python&#45;&gt;repl -->
<g id="edge127" class="edge">
<title>python&#45;&gt;repl</title>
<path fill="none" stroke="black" d="M77.02,-422.46C121.01,-473.76 246.67,-620.34 298.91,-681.27"/>
<polygon fill="black" stroke="black" points="296.2,-683.49 305.37,-688.81 301.52,-678.94 296.2,-683.49"/>
</g>
<!-- python&#45;&gt;sat -->
<g id="edge128" class="edge">
<title>python&#45;&gt;sat</title>
<path fill="none" stroke="black" d="M65.72,-422.65C76.54,-467.65 107.97,-586.46 157,-675.35 198.6,-750.78 211.26,-771.98 277.25,-827.35 426.38,-952.49 474,-987.68 662.75,-1035.35 702.93,-1045.5 716.34,-1047.37 756,-1035.35 784.17,-1026.81 811.66,-1007.79 831.21,-991.87"/>
<polygon fill="black" stroke="black" points="833.31,-994.68 838.71,-985.57 828.8,-989.32 833.31,-994.68"/>
</g>
<!-- python&#45;&gt;serve -->
<g id="edge129" class="edge">
<title>python&#45;&gt;serve</title>
<path fill="none" stroke="black" d="M64.35,-422.43C74.84,-488.3 113.02,-721.57 157,-911.35 166.73,-953.35 180.45,-1001.33 189.31,-1031.23"/>
<polygon fill="black" stroke="black" points="185.92,-1032.09 192.13,-1040.68 192.63,-1030.09 185.92,-1032.09"/>
</g>
<!-- python&#45;&gt;sexp -->
<g id="edge130" class="edge">
<title>python&#45;&gt;sexp</title>
<path fill="none" stroke="black" d="M63.43,-422.79C74.27,-525.53 128.13,-1025.02 157,-1087.35 203.32,-1187.35 211.91,-1272.35 322.12,-1272.35 322.12,-1272.35 322.12,-1272.35 580.38,-1272.35 619.81,-1272.35 891.92,-1326.24 928.75,-1340.35 941.25,-1345.14 954.05,-1352.04 965.32,-1358.92"/>
<polygon fill="black" stroke="black" points="963.18,-1361.71 973.51,-1364.1 966.92,-1355.8 963.18,-1361.71"/>
</g>
<!-- python&#45;&gt;shell -->
<g id="edge131" class="edge">
<title>python&#45;&gt;shell</title>
<path fill="none" stroke="black" d="M63.55,-422.43C71.23,-490.45 99.08,-737.57 121,-941.35 137.49,-1094.63 116.84,-1137.51 157,-1286.35 190.91,-1412 183.75,-1462.82 277.25,-1553.35 314.84,-1589.75 373.7,-1608.5 411.94,-1617.37"/>
<polygon fill="black" stroke="black" points="411.11,-1620.77 421.62,-1619.49 412.61,-1613.93 411.11,-1620.77"/>
</g>
<!-- python&#45;&gt;store -->
<g id="edge132" class="edge">
<title>python&#45;&gt;store</title>
<path fill="none" stroke="black" d="M63.21,-386.05C68.38,-342.19 88.01,-230.93 157,-179.35 216.17,-135.12 248.25,-160.35 322.12,-160.35 322.12,-160.35 322.12,-160.35 451.5,-160.35 530.12,-160.35 558.55,-145.24 626.75,-184.35 642.89,-193.61 671.31,-232.84 690,-260.37"/>
<polygon fill="black" stroke="black" points="687.08,-262.3 695.56,-268.65 692.89,-258.4 687.08,-262.3"/>
</g>
<!-- python&#45;&gt;wasm -->
<g id="edge133" class="edge">
<title>python&#45;&gt;wasm</title>
<path fill="none" stroke="black" d="M63.73,-385.95C72.22,-319.05 104.7,-90.14 157,-42.35 211.95,7.86 247.69,-14.35 322.12,-14.35 322.12,-14.35 322.12,-14.35 710.38,-14.35 807.72,-14.35 850.66,26.78 928.75,-31.35 978.78,-68.59 993.99,-145.52 998.61,-187.84"/>
<polygon fill="black" stroke="black" points="995.1,-187.92 999.53,-197.54 1002.07,-187.25 995.1,-187.92"/>
</g>
<!-- wasm&#45;store -->
<g id="node64" class="node">
<title>wasm&#45;store</title>
<polygon fill="none" stroke="black" points="626.75,-90.35 532,-90.35 532,-54.35 626.75,-54.35 626.75,-90.35"/>
<text text-anchor="middle" x="579.38" y="-68.05" font-family="sans-serif" font-size="14.00">wasm&#45;store</text>
</g>
<!-- python&#45;&gt;wasm&#45;store -->
<g id="edge134" class="edge">
<title>python&#45;&gt;wasm&#45;store</title>
<path fill="none" stroke="black" d="M64.23,-385.9C73.81,-323.95 107.96,-125.17 157,-87.35 262.93,-5.67 432.34,-32.96 520.63,-55.26"/>
<polygon fill="black" stroke="black" points="519.73,-58.65 530.29,-57.78 521.49,-51.87 519.73,-58.65"/>
</g>
<!-- repl&#45;&gt;arrow -->
<g id="edge135" class="edge">
<title>repl&#45;&gt;arrow</title>
<path fill="none" stroke="black" d="M350.38,-705.25C395.58,-699.92 488.26,-688.98 540.46,-682.82"/>
<polygon fill="black" stroke="black" points="540.86,-686.3 550.38,-681.65 540.04,-679.35 540.86,-686.3"/>
</g>
<!-- repl&#45;&gt;forsp -->
<g id="edge136" class="edge">
<title>repl&#45;&gt;forsp</title>
<path fill="none" stroke="black" d="M339.81,-726.8C349.59,-739.21 361.67,-756.35 369,-773.35 421.68,-895.45 441.08,-1055.12 447.12,-1120.49"/>
<polygon fill="black" stroke="black" points="443.63,-1120.76 448,-1130.41 450.61,-1120.14 443.63,-1120.76"/>
</g>
<!-- repl&#45;&gt;git -->
<g id="edge137" class="edge">
<title>repl&#45;&gt;git</title>
<path fill="none" stroke="black" d="M332.21,-690.08C346.08,-659.13 375.74,-594.68 405,-542.35 412.93,-528.17 422.51,-512.89 430.75,-500.23"/>
<polygon fill="black" stroke="black" points="433.61,-502.26 436.19,-491.98 427.76,-498.41 433.61,-502.26"/>
</g>
<!-- repl&#45;&gt;graph -->
<g id="edge138" class="edge">
<title>repl&#45;&gt;graph</title>
<path fill="none" stroke="black" d="M350.17,-711.79C415.28,-719.82 583.06,-736.84 626.75,-705.35 643.9,-692.99 683.12,-561.23 700.18,-501.49"/>
<polygon fill="black" stroke="black" points="703.51,-502.6 702.88,-492.02 696.78,-500.68 703.51,-502.6"/>
</g>
<!-- repl&#45;&gt;hash -->
<g id="edge139" class="edge">
<title>repl&#45;&gt;hash</title>
<path fill="none" stroke="black" d="M333.17,-690.22C345.72,-667.36 370.79,-629.16 405,-613.35 547.38,-547.57 742.01,-601.18 822.36,-628.63"/>
<polygon fill="black" stroke="black" points="820.9,-631.82 831.49,-631.81 823.2,-625.21 820.9,-631.82"/>
</g>
<!-- repl&#45;&gt;init -->
<g id="edge140" class="edge">
<title>repl&#45;&gt;init</title>
<path fill="none" stroke="black" d="M340.73,-726.79C350.76,-739.07 362.76,-756.07 369,-773.35 430.23,-942.9 356.63,-1003.69 405,-1177.35 439.5,-1301.24 433.12,-1355.12 532,-1437.35 571.64,-1470.31 631.86,-1481.18 670.67,-1484.71"/>
<polygon fill="black" stroke="black" points="670.23,-1488.19 680.47,-1485.47 670.77,-1481.21 670.23,-1488.19"/>
</g>
<!-- repl&#45;&gt;object -->
<g id="edge141" class="edge">
<title>repl&#45;&gt;object</title>
<path fill="none" stroke="black" d="M350.41,-720.81C365.91,-727.46 386.13,-734.96 405,-738.35 502.01,-755.76 531.89,-765.09 626.75,-738.35 636.47,-735.61 655.35,-724.21 672.5,-712.99"/>
<polygon fill="black" stroke="black" points="674.13,-716.11 680.53,-707.66 670.26,-710.27 674.13,-716.11"/>
</g>
<!-- repl&#45;&gt;parquet -->
<g id="edge142" class="edge">
<title>repl&#45;&gt;parquet</title>
<path fill="none" stroke="black" d="M350.41,-694.1C366.64,-685.29 387.87,-673.78 406.51,-663.67"/>
<polygon fill="black" stroke="black" points="408.09,-666.79 415.22,-658.95 404.76,-660.64 408.09,-666.79"/>
</g>
<!-- repl&#45;&gt;shell -->
<g id="edge143" class="edge">
<title>repl&#45;&gt;shell</title>
<path fill="none" stroke="black" d="M340.99,-726.7C351.11,-738.95 363.13,-755.94 369,-773.35 424.83,-939.05 349.49,-1393.55 405,-1559.35 409.5,-1572.79 417.65,-1586 425.76,-1596.97"/>
<polygon fill="black" stroke="black" points="422.94,-1599.05 431.85,-1604.78 428.46,-1594.74 422.94,-1599.05"/>
</g>
<!-- repl&#45;&gt;wasm -->
<g id="edge144" class="edge">
<title>repl&#45;&gt;wasm</title>
<path fill="none" stroke="black" d="M326.48,-690.14C332.92,-645.45 353.86,-528.02 405,-445.35 446.01,-379.05 467.88,-368.7 532,-324.35 585.05,-287.66 600.92,-279.75 662.75,-261.35 768.48,-229.89 899.46,-220.91 962.8,-218.36"/>
<polygon fill="black" stroke="black" points="962.8,-221.86 972.67,-218 962.54,-214.87 962.8,-221.86"/>
</g>
<!-- sat&#45;&gt;parse -->
<g id="edge145" class="edge">
<title>sat&#45;&gt;parse</title>
<path fill="none" stroke="black" d="M887.87,-962.99C932.89,-957.27 1024.43,-945.65 1075.97,-939.1"/>
<polygon fill="black" stroke="black" points="1076.26,-942.59 1085.74,-937.86 1075.38,-935.65 1076.26,-942.59"/>
</g>
<!-- sat&#45;&gt;types -->
<g id="edge146" class="edge">
<title>sat&#45;&gt;types</title>
<path fill="none" stroke="black" d="M887.83,-968.79C933.71,-972.8 1031,-980.35 1113.38,-980.35 1113.38,-980.35 1113.38,-980.35 1238.25,-980.35 1367.01,-980.35 1369.31,-1087.78 1419.5,-1206.35 1455.41,-1291.2 1474.51,-1577.29 1479.89,-1670.63"/>
<polygon fill="black" stroke="black" points="1476.39,-1670.7 1480.45,-1680.49 1483.38,-1670.31 1476.39,-1670.7"/>
</g>
<!-- sat&#45;&gt;wasm -->
<g id="edge147" class="edge">
<title>sat&#45;&gt;wasm</title>
<path fill="none" stroke="black" d="M887.8,-962.52C902.22,-959 919.06,-952.25 928.75,-939.35 934.06,-932.29 985.33,-382.4 997.87,-247.15"/>
<polygon fill="black" stroke="black" points="1001.35,-247.51 998.79,-237.23 994.38,-246.87 1001.35,-247.51"/>
</g>
<!-- serve&#45;&gt;core -->
<g id="edge148" class="edge">
<title>serve&#45;&gt;core</title>
<path fill="none" stroke="black" d="M200.74,-1078.5C205.62,-1212.16 242.35,-2043.85 405,-2221.35 562.79,-2393.55 754.9,-2420.32 928.75,-2264.35 970.2,-2227.17 991.09,-2055.57 997.97,-1985.89"/>
<polygon fill="black" stroke="black" points="1001.45,-1986.28 998.92,-1975.99 994.48,-1985.62 1001.45,-1986.28"/>
</g>
<!-- serve&#45;&gt;forsp -->
<g id="edge149" class="edge">
<title>serve&#45;&gt;forsp</title>
<path fill="none" stroke="black" d="M219.12,-1078.64C233.82,-1091.74 255.32,-1108.71 277.25,-1118.35 320.9,-1137.54 375.69,-1145.23 411.6,-1148.31"/>
<polygon fill="black" stroke="black" points="411.27,-1151.79 421.51,-1149.07 411.8,-1144.81 411.27,-1151.79"/>
</g>
<!-- serve&#45;&gt;git -->
<g id="edge150" class="edge">
<title>serve&#45;&gt;git</title>
<path fill="none" stroke="black" d="M205.87,-1042.17C214.52,-1014.26 230.96,-959.1 241.25,-911.35 263.05,-810.21 234.84,-775.73 277.25,-681.35 311.29,-605.59 380.36,-534.87 419.92,-498.31"/>
<polygon fill="black" stroke="black" points="422.21,-500.96 427.24,-491.63 417.49,-495.79 422.21,-500.96"/>
</g>
<!-- serve&#45;&gt;hash -->
<g id="edge151" class="edge">
<title>serve&#45;&gt;hash</title>
<path fill="none" stroke="black" d="M226.55,-1056.96C311.32,-1045.51 574,-1005.43 626.75,-942.35 672.4,-887.77 616.62,-840.53 662.75,-786.35 691.76,-752.28 718.87,-773.34 756,-748.35 773.51,-736.56 811.1,-696.28 835.8,-668.91"/>
<polygon fill="black" stroke="black" points="838.23,-671.43 842.31,-661.65 833.02,-666.76 838.23,-671.43"/>
</g>
<!-- serve&#45;&gt;init -->
<g id="edge152" class="edge">
<title>serve&#45;&gt;init</title>
<path fill="none" stroke="black" d="M208.22,-1078.63C238.92,-1145.47 355.42,-1377.58 532,-1471.35 575.35,-1494.37 633.26,-1494.51 670.69,-1491.35"/>
<polygon fill="black" stroke="black" points="670.96,-1494.84 680.57,-1490.38 670.28,-1487.87 670.96,-1494.84"/>
</g>
<!-- serve&#45;&gt;lisp -->
<g id="edge153" class="edge">
<title>serve&#45;&gt;lisp</title>
<path fill="none" stroke="black" d="M200.95,-1078.48C204.61,-1151.41 221.81,-1422.27 277.25,-1483.35 295.27,-1503.21 367.2,-1518.55 412.22,-1526.45"/>
<polygon fill="black" stroke="black" points="411.37,-1529.85 421.82,-1528.09 412.55,-1522.95 411.37,-1529.85"/>
</g>
<!-- serve&#45;&gt;metamath -->
<g id="edge154" class="edge">
<title>serve&#45;&gt;metamath</title>
<path fill="none" stroke="black" d="M226.53,-1062.58C241.42,-1063.79 260.36,-1065.26 277.25,-1066.35 473.47,-1079.04 707.19,-1089.75 808.43,-1094.17"/>
<polygon fill="black" stroke="black" points="808.17,-1097.67 818.32,-1094.6 808.48,-1090.67 808.17,-1097.67"/>
</g>
<!-- serve&#45;&gt;object -->
<g id="edge155" class="edge">
<title>serve&#45;&gt;object</title>
<path fill="none" stroke="black" d="M226.58,-1050.42C310.29,-1018.56 567.34,-917.22 626.75,-852.35 656.96,-819.36 642.42,-798.2 662.75,-758.35 670.14,-743.87 679.8,-728.66 688.33,-716.13"/>
<polygon fill="black" stroke="black" points="691.17,-718.17 694,-707.96 685.42,-714.18 691.17,-718.17"/>
</g>
<!-- serve&#45;&gt;proto -->
<g id="edge156" class="edge">
<title>serve&#45;&gt;proto</title>
<path fill="none" stroke="black" d="M212.12,-1042.1C226.24,-1021.41 251.09,-987.31 277.25,-962.35 280.27,-959.47 283.56,-956.65 286.94,-953.94"/>
<polygon fill="black" stroke="black" points="288.91,-956.84 294.78,-948.01 284.69,-951.26 288.91,-956.84"/>
</g>
<!-- serve&#45;&gt;repl -->
<g id="edge157" class="edge">
<title>serve&#45;&gt;repl</title>
<path fill="none" stroke="black" d="M205.27,-1042.02C213.14,-1013.93 228.59,-958.52 241.25,-911.35 257.68,-850.13 250.84,-830.97 277.25,-773.35 283.26,-760.24 291.91,-746.93 300.01,-735.8"/>
<polygon fill="black" stroke="black" points="302.78,-737.94 306,-727.84 297.19,-733.72 302.78,-737.94"/>
</g>
<!-- serve&#45;&gt;shell -->
<g id="edge158" class="edge">
<title>serve&#45;&gt;shell</title>
<path fill="none" stroke="black" d="M201.13,-1078.68C205.6,-1154.4 225.74,-1442.21 277.25,-1514.35 304.24,-1552.15 330.15,-1538.9 369,-1564.35 385.95,-1575.46 388.77,-1580.21 405,-1592.35 407.97,-1594.57 411.07,-1596.86 414.19,-1599.14"/>
<polygon fill="black" stroke="black" points="412.12,-1601.97 422.27,-1605.01 416.24,-1596.3 412.12,-1601.97"/>
</g>
<!-- serve&#45;&gt;store -->
<g id="edge159" class="edge">
<title>serve&#45;&gt;store</title>
<path fill="none" stroke="black" d="M206.21,-1042.24C215.3,-1014.42 232.32,-959.37 241.25,-911.35 256.15,-831.22 239.73,-618.71 277.25,-546.35 346.12,-413.55 398.1,-393.07 532,-326.35 576.52,-304.17 633.68,-294.88 670.67,-291.03"/>
<polygon fill="black" stroke="black" points="670.79,-294.53 680.42,-290.1 670.13,-287.57 670.79,-294.53"/>
</g>
<!-- sexp&#45;&gt;parse -->
<g id="edge160" class="edge">
<title>sexp&#45;&gt;parse</title>
<path fill="none" stroke="black" d="M1007.82,-1365.18C1015,-1339.94 1028.2,-1292.8 1038.5,-1252.35 1065.42,-1146.61 1094.16,-1020.21 1106.79,-963.91"/>
<polygon fill="black" stroke="black" points="1110.2,-964.69 1108.97,-954.17 1103.37,-963.16 1110.2,-964.69"/>
</g>
<!-- sexp&#45;&gt;types -->
<g id="edge161" class="edge">
<title>sexp&#45;&gt;types</title>
<path fill="none" stroke="black" d="M1029.05,-1392.24C1099.35,-1416.9 1294.12,-1491.99 1419.5,-1606.35 1439.95,-1625 1456.74,-1651.77 1467.67,-1671.97"/>
<polygon fill="black" stroke="black" points="1464.54,-1673.56 1472.28,-1680.8 1470.75,-1670.32 1464.54,-1673.56"/>
</g>
<!-- shell&#45;&gt;hol -->
<g id="edge162" class="edge">
<title>shell&#45;&gt;hol</title>
<path fill="none" stroke="black" d="M453.3,-1642.44C460.54,-1712.79 489.31,-1967.71 532,-2035.35 570.62,-2096.54 596.1,-2104.19 662.75,-2132.35 715.09,-2154.47 781.23,-2161.38 821.9,-2163.49"/>
<polygon fill="black" stroke="black" points="821.5,-2166.97 831.65,-2163.92 821.81,-2159.98 821.5,-2166.97"/>
</g>
<!-- shell&#45;&gt;kernel -->
<g id="edge163" class="edge">
<title>shell&#45;&gt;kernel</title>
<path fill="none" stroke="black" d="M467.1,-1605.91C476.81,-1593.5 488.79,-1576.35 496,-1559.35 527.17,-1485.84 500.12,-1456.55 532,-1383.35 537.84,-1369.95 546.74,-1356.55 555.18,-1345.44"/>
<polygon fill="black" stroke="black" points="557.71,-1347.89 561.16,-1337.88 552.21,-1343.55 557.71,-1347.89"/>
</g>
<!-- smt&#45;&gt;sat -->
<g id="edge164" class="edge">
<title>smt&#45;&gt;sat</title>
<path fill="none" stroke="black" d="M727.31,-1559.97C737.52,-1547.72 749.73,-1530.73 756,-1513.35 823.23,-1327.13 727.83,-1256.64 792,-1069.35 801.64,-1041.21 820.72,-1013.21 836.12,-993.53"/>
<polygon fill="black" stroke="black" points="838.84,-995.73 842.38,-985.75 833.39,-991.35 838.84,-995.73"/>
</g>
<!-- smt&#45;&gt;sexp -->
<g id="edge165" class="edge">
<title>smt&#45;&gt;sexp</title>
<path fill="none" stroke="black" d="M736.63,-1582.05C781.01,-1586.8 871.58,-1589.86 928.75,-1546.35 971.5,-1513.82 989.33,-1450.39 996.37,-1412.97"/>
<polygon fill="black" stroke="black" points="999.79,-1413.75 998.04,-1403.3 992.89,-1412.56 999.79,-1413.75"/>
</g>
<!-- smt&#45;&gt;types -->
<g id="edge166" class="edge">
<title>smt&#45;&gt;types</title>
<path fill="none" stroke="black" d="M736.47,-1587.87C743.43,-1591.32 750.53,-1595.78 756,-1601.35 781.89,-1627.75 763.87,-1652.36 792,-1676.35 865.6,-1739.11 903.89,-1738.35 1000.62,-1738.35 1000.62,-1738.35 1000.62,-1738.35 1238.25,-1738.35 1311.89,-1738.35 1396.59,-1721.14 1444.11,-1709.88"/>
<polygon fill="black" stroke="black" points="1444.71,-1713.34 1453.6,-1707.59 1443.06,-1706.53 1444.71,-1713.34"/>
</g>
<!-- spectec&#45;&gt;grammar -->
<g id="edge167" class="edge">
<title>spectec&#45;&gt;grammar</title>
<path fill="none" stroke="black" d="M895.44,-1188.35C912.78,-1188.35 934.13,-1188.35 953.06,-1188.35"/>
<polygon fill="black" stroke="black" points="952.97,-1191.85 962.97,-1188.35 952.97,-1184.85 952.97,-1191.85"/>
</g>
<!-- store&#45;&gt;hash -->
<g id="edge168" class="edge">
<title>store&#45;&gt;hash</title>
<path fill="none" stroke="black" d="M725.37,-306.83C735.04,-319.4 747.38,-336.7 756,-353.35 802.7,-443.54 837.16,-559.62 851.72,-613.05"/>
<polygon fill="black" stroke="black" points="848.31,-613.85 854.29,-622.6 855.07,-612.03 848.31,-613.85"/>
</g>
<!-- store&#45;&gt;json -->
<g id="edge169" class="edge">
<title>store&#45;&gt;json</title>
<path fill="none" stroke="black" d="M723.14,-269.98C732.86,-255.53 746.19,-234.68 756,-215.35 775.49,-176.93 761.55,-155.82 792,-125.35 800.28,-117.06 811.44,-111.23 822.29,-107.17"/>
<polygon fill="black" stroke="black" points="823.08,-110.59 831.48,-104.14 820.89,-103.95 823.08,-110.59"/>
</g>
<!-- store&#45;&gt;sqlite -->
<g id="edge170" class="edge">
<title>store&#45;&gt;sqlite</title>
<path fill="none" stroke="black" d="M736.67,-288.35C760.32,-288.35 795.33,-288.35 821.91,-288.35"/>
<polygon fill="black" stroke="black" points="821.58,-291.85 831.58,-288.35 821.58,-284.85 821.58,-291.85"/>
</g>
<!-- tcb&#45;db -->
<g id="node59" class="node">
<title>tcb&#45;db</title>
<polygon fill="none" stroke="black" points="739.5,-206.35 679.25,-206.35 679.25,-170.35 739.5,-170.35 739.5,-206.35"/>
<text text-anchor="middle" x="709.38" y="-184.05" font-family="sans-serif" font-size="14.00">tcb&#45;db</text>
</g>
<!-- tcb&#45;db&#45;&gt;json -->
<g id="edge171" class="edge">
<title>tcb&#45;db&#45;&gt;json</title>
<path fill="none" stroke="black" d="M730.72,-170.07C746.59,-156.48 769.62,-138.14 792,-125.35 801.48,-119.93 812.26,-115.09 822.38,-111.05"/>
<polygon fill="black" stroke="black" points="823.49,-114.37 831.59,-107.54 821,-107.83 823.49,-114.37"/>
</g>
<!-- tcb&#45;db&#45;&gt;sqlite -->
<g id="edge172" class="edge">
<title>tcb&#45;db&#45;&gt;sqlite</title>
<path fill="none" stroke="black" d="M737.7,-206.69C761.95,-222.96 797.51,-246.83 823.94,-264.57"/>
<polygon fill="black" stroke="black" points="821.71,-267.29 831.96,-269.95 825.61,-261.47 821.71,-267.29"/>
</g>
<!-- wasm&#45;build&#45;guest -->
<g id="node62" class="node">
<title>wasm&#45;build&#45;guest</title>
<polygon fill="none" stroke="black" points="928.75,-170.35 792,-170.35 792,-134.35 928.75,-134.35 928.75,-170.35"/>
<text text-anchor="middle" x="860.38" y="-148.05" font-family="sans-serif" font-size="14.00">wasm&#45;build&#45;guest</text>
</g>
<!-- wasm&#45;build&#45;guest&#45;&gt;wasm -->
<g id="edge173" class="edge">
<title>wasm&#45;build&#45;guest&#45;&gt;wasm</title>
<path fill="none" stroke="black" d="M900.91,-170.8C920.72,-180.05 944.55,-191.18 963.95,-200.23"/>
<polygon fill="black" stroke="black" points="962.3,-203.33 972.85,-204.38 965.27,-196.98 962.3,-203.33"/>
</g>
<!-- wasm&#45;spec -->
<g id="node63" class="node">
<title>wasm&#45;spec</title>
<polygon fill="none" stroke="black" points="756,-398.35 662.75,-398.35 662.75,-362.35 756,-362.35 756,-398.35"/>
<text text-anchor="middle" x="709.38" y="-376.05" font-family="sans-serif" font-size="14.00">wasm&#45;spec</text>
</g>
<!-- wasm&#45;spec&#45;&gt;hash -->
<g id="edge174" class="edge">
<title>wasm&#45;spec&#45;&gt;hash</title>
<path fill="none" stroke="black" d="M741.27,-398.57C746.62,-402.65 751.81,-407.28 756,-412.35 807.45,-474.59 838.42,-566.54 851.72,-613.08"/>
<polygon fill="black" stroke="black" points="848.34,-613.99 854.39,-622.69 855.09,-612.12 848.34,-613.99"/>
</g>
<!-- wasm&#45;spec&#45;&gt;wasm -->
<g id="edge175" class="edge">
<title>wasm&#45;spec&#45;&gt;wasm</title>
<path fill="none" stroke="black" d="M756.33,-375.36C803.28,-368.38 876.52,-352.14 928.75,-315.35 954.1,-297.5 974.03,-267.85 986.41,-245.83"/>
<polygon fill="black" stroke="black" points="989.48,-247.51 991.15,-237.05 983.32,-244.18 989.48,-247.51"/>
</g>
<!-- wasm&#45;store&#45;&gt;json -->
<g id="edge176" class="edge">
<title>wasm&#45;store&#45;&gt;json</title>
<path fill="none" stroke="black" d="M627.07,-76.7C681.79,-81.8 771.37,-90.15 821.8,-94.85"/>
<polygon fill="black" stroke="black" points="821.35,-98.32 831.64,-95.77 822,-91.35 821.35,-98.32"/>
</g>
<!-- wasm&#45;store&#45;&gt;store -->
<g id="edge177" class="edge">
<title>wasm&#45;store&#45;&gt;store</title>
<path fill="none" stroke="black" d="M592.41,-90.66C602.02,-105.48 615.67,-127.01 626.75,-146.35 643.95,-176.36 645.57,-185.33 662.75,-215.35 671.39,-230.44 681.6,-246.89 690.17,-260.35"/>
<polygon fill="black" stroke="black" points="687.18,-262.19 695.53,-268.72 693.08,-258.41 687.18,-262.19"/>
</g>
<!-- wasm&#45;store&#45;&gt;wasm -->
<g id="edge178" class="edge">
<title>wasm&#45;store&#45;&gt;wasm</title>
<path fill="none" stroke="black" d="M627.15,-57.65C698.26,-38.3 835.16,-13.11 928.75,-71.35 969.7,-96.83 987.99,-153.25 995.64,-188.01"/>
<polygon fill="black" stroke="black" points="992.13,-188.31 997.54,-197.41 998.99,-186.92 992.13,-188.31"/>
</g>
<!-- web&#45;kernel -->
<g id="node65" class="node">
<title>web&#45;kernel</title>
<polygon fill="none" stroke="black" points="369,-1474.35 277.25,-1474.35 277.25,-1438.35 369,-1438.35 369,-1474.35"/>
<text text-anchor="middle" x="323.12" y="-1452.05" font-family="sans-serif" font-size="14.00">web&#45;kernel</text>
</g>
<!-- web&#45;kernel&#45;&gt;forsp -->
<g id="edge179" class="edge">
<title>web&#45;kernel&#45;&gt;forsp</title>
<path fill="none" stroke="black" d="M331.59,-1438.13C352.58,-1386.89 412.25,-1241.27 437.73,-1179.08"/>
<polygon fill="black" stroke="black" points="440.95,-1180.46 441.5,-1169.88 434.47,-1177.81 440.95,-1180.46"/>
</g>
<!-- web&#45;kernel&#45;&gt;haskell -->
<g id="edge180" class="edge">
<title>web&#45;kernel&#45;&gt;haskell</title>
<path fill="none" stroke="black" d="M333.15,-1474.64C343.24,-1495.78 359.42,-1531.83 369,-1564.35 414.01,-1717.08 438.29,-1907.15 446.39,-1979.01"/>
<polygon fill="black" stroke="black" points="442.89,-1979.21 447.46,-1988.76 449.84,-1978.44 442.89,-1979.21"/>
</g>
<!-- web&#45;kernel&#45;&gt;hol&#45;api -->
<g id="edge181" class="edge">
<title>web&#45;kernel&#45;&gt;hol&#45;api</title>
<path fill="none" stroke="black" d="M334.48,-1474.69C348.07,-1497.32 373.88,-1535.67 405,-1559.35 439.88,-1585.89 470,-1562.06 496,-1597.35 546.18,-1665.46 489.18,-1903.39 532,-1976.35 533.99,-1979.74 536.5,-1982.86 539.32,-1985.7"/>
<polygon fill="black" stroke="black" points="536.86,-1988.2 546.74,-1992.02 541.39,-1982.87 536.86,-1988.2"/>
</g>
<!-- web&#45;kernel&#45;&gt;kernel -->
<g id="edge182" class="edge">
<title>web&#45;kernel&#45;&gt;kernel</title>
<path fill="none" stroke="black" d="M358.15,-1437.88C405.52,-1412.17 491.08,-1365.73 540.45,-1338.94"/>
<polygon fill="black" stroke="black" points="541.96,-1342.1 549.08,-1334.25 538.62,-1335.95 541.96,-1342.1"/>
</g>
<!-- web&#45;kernel&#45;&gt;lisp -->
<g id="edge183" class="edge">
<title>web&#45;kernel&#45;&gt;lisp</title>
<path fill="none" stroke="black" d="M354.47,-1474.75C372.29,-1485.55 394.9,-1499.26 413.6,-1510.59"/>
<polygon fill="black" stroke="black" points="411.59,-1513.46 421.96,-1515.65 415.22,-1507.48 411.59,-1513.46"/>
</g>
</g>
</svg>
