<?xml version="1.0" encoding="UTF-8" standalone="no"?>
<!DOCTYPE svg PUBLIC "-//W3C//DTD SVG 1.1//EN"
 "http://www.w3.org/Graphics/SVG/1.1/DTD/svg11.dtd">
<!-- Generated by graphviz version 12.2.1 (0)
 -->
<!-- Title: deps Pages: 1 -->
<svg width="1547pt" height="2954pt"
 viewBox="0.00 0.00 1546.75 2953.77" xmlns="http://www.w3.org/2000/svg" xmlns:xlink="http://www.w3.org/1999/xlink">
<g id="graph0" class="graph" transform="scale(1 1) rotate(0) translate(4 2949.77)">
<title>deps</title>
<polygon fill="white" stroke="none" points="-4,4 -4,-2949.77 1542.75,-2949.77 1542.75,4 -4,4"/>
<!-- covalence -->
<g id="node1" class="node">
<title>covalence</title>
<polygon fill="none" stroke="black" points="102.62,-1924 18.38,-1924 18.38,-1888 102.62,-1888 102.62,-1924"/>
<text text-anchor="middle" x="60.5" y="-1901.7" font-family="sans-serif" font-size="14.00">covalence</text>
</g>
<!-- client -->
<g id="node6" class="node">
<title>client</title>
<polygon fill="none" stroke="black" points="350.12,-1886 296.12,-1886 296.12,-1850 350.12,-1850 350.12,-1886"/>
<text text-anchor="middle" x="323.12" y="-1863.7" font-family="sans-serif" font-size="14.00">client</text>
</g>
<!-- covalence&#45;&gt;client -->
<g id="edge1" class="edge">
<title>covalence&#45;&gt;client</title>
<path fill="none" stroke="black" d="M102.86,-1899.92C119.66,-1897.46 139.26,-1894.59 157,-1892 200.85,-1885.6 251.25,-1878.28 284.72,-1873.42"/>
<polygon fill="black" stroke="black" points="284.92,-1876.93 294.31,-1872.03 283.92,-1870 284.92,-1876.93"/>
</g>
<!-- fuse -->
<g id="node14" class="node">
<title>fuse</title>
<polygon fill="none" stroke="black" points="612.75,-2298 558.75,-2298 558.75,-2262 612.75,-2262 612.75,-2298"/>
<text text-anchor="middle" x="585.75" y="-2275.7" font-family="sans-serif" font-size="14.00">fuse</text>
</g>
<!-- covalence&#45;&gt;fuse -->
<g id="edge2" class="edge">
<title>covalence&#45;&gt;fuse</title>
<path fill="none" stroke="black" d="M68.36,-1924.25C81.9,-1958.83 114.46,-2035.31 157,-2090 187.78,-2129.57 211.86,-2124.38 241.25,-2165 264.82,-2197.58 244.82,-2224.23 277.25,-2248 358.18,-2307.33 484.9,-2297.07 547.37,-2287.22"/>
<polygon fill="black" stroke="black" points="547.84,-2290.69 557.12,-2285.59 546.68,-2283.79 547.84,-2290.69"/>
</g>
<!-- git -->
<g id="node15" class="node">
<title>git</title>
<polygon fill="none" stroke="black" points="477.5,-2416 423.5,-2416 423.5,-2380 477.5,-2380 477.5,-2416"/>
<text text-anchor="middle" x="450.5" y="-2393.7" font-family="sans-serif" font-size="14.00">git</text>
</g>
<!-- covalence&#45;&gt;git -->
<g id="edge3" class="edge">
<title>covalence&#45;&gt;git</title>
<path fill="none" stroke="black" d="M63.03,-1924.37C68.1,-1975.61 88.14,-2122.61 157,-2219 222.13,-2310.17 349.58,-2364.03 412.52,-2386.17"/>
<polygon fill="black" stroke="black" points="411.11,-2389.38 421.7,-2389.32 413.38,-2382.76 411.11,-2389.38"/>
</g>
<!-- hash -->
<g id="node18" class="node">
<title>hash</title>
<polygon fill="none" stroke="black" points="915.88,-2214 861.88,-2214 861.88,-2178 915.88,-2178 915.88,-2214"/>
<text text-anchor="middle" x="888.88" y="-2191.7" font-family="sans-serif" font-size="14.00">hash</text>
</g>
<!-- covalence&#45;&gt;hash -->
<g id="edge4" class="edge">
<title>covalence&#45;&gt;hash</title>
<path fill="none" stroke="black" d="M102.89,-1906.4C220.54,-1908.32 553.86,-1919.29 639.5,-1982 669.98,-2004.32 647.87,-2033.23 675.5,-2059 713.46,-2094.41 740.39,-2073.62 784.5,-2101 814.94,-2119.9 844.51,-2148.42 864.17,-2169.28"/>
<polygon fill="black" stroke="black" points="861.57,-2171.62 870.93,-2176.59 866.71,-2166.87 861.57,-2171.62"/>
</g>
<!-- hol -->
<g id="node20" class="node">
<title>hol</title>
<polygon fill="none" stroke="black" points="915.88,-856 861.88,-856 861.88,-820 915.88,-820 915.88,-856"/>
<text text-anchor="middle" x="888.88" y="-833.7" font-family="sans-serif" font-size="14.00">hol</text>
</g>
<!-- covalence&#45;&gt;hol -->
<g id="edge5" class="edge">
<title>covalence&#45;&gt;hol</title>
<path fill="none" stroke="black" d="M61.11,-1887.59C60.11,-1809.86 62.62,-1502.14 157,-1275 204.32,-1161.11 198.8,-1052 322.12,-1052 322.12,-1052 322.12,-1052 586.75,-1052 720.91,-1052 703.22,-926.15 820.5,-861 829.94,-855.76 840.79,-851.41 850.98,-847.96"/>
<polygon fill="black" stroke="black" points="851.77,-851.39 860.24,-845.03 849.65,-844.71 851.77,-851.39"/>
</g>
<!-- init -->
<g id="node24" class="node">
<title>init</title>
<polygon fill="none" stroke="black" points="757,-1192 703,-1192 703,-1156 757,-1156 757,-1192"/>
<text text-anchor="middle" x="730" y="-1169.7" font-family="sans-serif" font-size="14.00">init</text>
</g>
<!-- covalence&#45;&gt;init -->
<g id="edge6" class="edge">
<title>covalence&#45;&gt;init</title>
<path fill="none" stroke="black" d="M64.26,-1887.65C81.18,-1778.56 174.97,-1220 322.12,-1220 322.12,-1220 322.12,-1220 451.5,-1220 538.63,-1220 639.09,-1197.66 691.99,-1184.12"/>
<polygon fill="black" stroke="black" points="692.58,-1187.58 701.37,-1181.67 690.81,-1180.8 692.58,-1187.58"/>
</g>
<!-- lsp -->
<g id="node36" class="node">
<title>lsp</title>
<polygon fill="none" stroke="black" points="915.88,-1864 861.88,-1864 861.88,-1828 915.88,-1828 915.88,-1864"/>
<text text-anchor="middle" x="888.88" y="-1841.7" font-family="sans-serif" font-size="14.00">lsp</text>
</g>
<!-- covalence&#45;&gt;lsp -->
<g id="edge7" class="edge">
<title>covalence&#45;&gt;lsp</title>
<path fill="none" stroke="black" d="M63.72,-1887.72C69.94,-1844.95 91.57,-1737.87 157,-1684 243.88,-1612.48 293,-1643.86 405,-1633 445.26,-1629.1 457.24,-1621.44 496,-1633 569.06,-1654.8 584.16,-1674.56 639.5,-1727 659.11,-1745.59 653.63,-1760.13 675.5,-1776 729,-1814.83 805.29,-1832.97 850.39,-1840.77"/>
<polygon fill="black" stroke="black" points="849.76,-1844.22 860.19,-1842.38 850.89,-1837.31 849.76,-1844.22"/>
</g>
<!-- object -->
<g id="node40" class="node">
<title>object</title>
<polygon fill="none" stroke="black" points="758.62,-2146 701.38,-2146 701.38,-2110 758.62,-2110 758.62,-2146"/>
<text text-anchor="middle" x="730" y="-2123.7" font-family="sans-serif" font-size="14.00">object</text>
</g>
<!-- covalence&#45;&gt;object -->
<g id="edge8" class="edge">
<title>covalence&#45;&gt;object</title>
<path fill="none" stroke="black" d="M98.12,-1887.58C155.92,-1860.9 271.75,-1817.17 369,-1841 500.68,-1873.26 540.36,-1889.52 639.5,-1982 675.67,-2015.74 702.63,-2067.3 717.07,-2099.26"/>
<polygon fill="black" stroke="black" points="713.82,-2100.55 721.05,-2108.3 720.23,-2097.73 713.82,-2100.55"/>
</g>
<!-- opentheory -->
<g id="node41" class="node">
<title>opentheory</title>
<polygon fill="none" stroke="black" points="496,-728 405,-728 405,-692 496,-692 496,-728"/>
<text text-anchor="middle" x="450.5" y="-705.7" font-family="sans-serif" font-size="14.00">opentheory</text>
</g>
<!-- covalence&#45;&gt;opentheory -->
<g id="edge9" class="edge">
<title>covalence&#45;&gt;opentheory</title>
<path fill="none" stroke="black" d="M62.01,-1887.72C65.29,-1777.24 85.7,-1198.13 157,-1038 216.9,-903.47 352.74,-785.35 415.97,-735.37"/>
<polygon fill="black" stroke="black" points="417.84,-738.35 423.56,-729.43 413.53,-732.83 417.84,-738.35"/>
</g>
<!-- proto -->
<g id="node46" class="node">
<title>proto</title>
<polygon fill="none" stroke="black" points="350.12,-2054 296.12,-2054 296.12,-2018 350.12,-2018 350.12,-2054"/>
<text text-anchor="middle" x="323.12" y="-2031.7" font-family="sans-serif" font-size="14.00">proto</text>
</g>
<!-- covalence&#45;&gt;proto -->
<g id="edge10" class="edge">
<title>covalence&#45;&gt;proto</title>
<path fill="none" stroke="black" d="M71.31,-1924.3C86.12,-1949.91 116.8,-1995.69 157,-2017 196.86,-2038.13 249.61,-2040.54 284.65,-2039.21"/>
<polygon fill="black" stroke="black" points="284.49,-2042.72 294.3,-2038.72 284.13,-2035.73 284.49,-2042.72"/>
</g>
<!-- repl -->
<g id="node53" class="node">
<title>repl</title>
<polygon fill="none" stroke="black" points="350.12,-2184 296.12,-2184 296.12,-2148 350.12,-2148 350.12,-2184"/>
<text text-anchor="middle" x="323.12" y="-2161.7" font-family="sans-serif" font-size="14.00">repl</text>
</g>
<!-- covalence&#45;&gt;repl -->
<g id="edge11" class="edge">
<title>covalence&#45;&gt;repl</title>
<path fill="none" stroke="black" d="M71.67,-1924.07C87.61,-1951.46 120.47,-2004.28 157,-2042 196.78,-2083.07 251.1,-2121.1 286.39,-2143.94"/>
<polygon fill="black" stroke="black" points="284.22,-2146.71 294.53,-2149.15 287.99,-2140.81 284.22,-2146.71"/>
</g>
<!-- serve -->
<g id="node56" class="node">
<title>serve</title>
<polygon fill="none" stroke="black" points="226.12,-2008 172.12,-2008 172.12,-1972 226.12,-1972 226.12,-2008"/>
<text text-anchor="middle" x="199.12" y="-1985.7" font-family="sans-serif" font-size="14.00">serve</text>
</g>
<!-- covalence&#45;&gt;serve -->
<g id="edge12" class="edge">
<title>covalence&#45;&gt;serve</title>
<path fill="none" stroke="black" d="M91.48,-1924.43C112.33,-1937.25 140.21,-1954.39 162.24,-1967.94"/>
<polygon fill="black" stroke="black" points="160.26,-1970.83 170.61,-1973.08 163.92,-1964.86 160.26,-1970.83"/>
</g>
<!-- shell -->
<g id="node60" class="node">
<title>shell</title>
<polygon fill="none" stroke="black" points="477.5,-1678 423.5,-1678 423.5,-1642 477.5,-1642 477.5,-1678"/>
<text text-anchor="middle" x="450.5" y="-1655.7" font-family="sans-serif" font-size="14.00">shell</text>
</g>
<!-- covalence&#45;&gt;shell -->
<g id="edge13" class="edge">
<title>covalence&#45;&gt;shell</title>
<path fill="none" stroke="black" d="M66.58,-1887.52C77.28,-1852.07 105.47,-1774.31 157,-1732 231.84,-1670.55 351.43,-1660.33 411.89,-1659.37"/>
<polygon fill="black" stroke="black" points="411.68,-1662.87 421.65,-1659.3 411.63,-1655.87 411.68,-1662.87"/>
</g>
<!-- store -->
<g id="node64" class="node">
<title>store</title>
<polygon fill="none" stroke="black" points="757,-2472 703,-2472 703,-2436 757,-2436 757,-2472"/>
<text text-anchor="middle" x="730" y="-2449.7" font-family="sans-serif" font-size="14.00">store</text>
</g>
<!-- covalence&#45;&gt;store -->
<g id="edge14" class="edge">
<title>covalence&#45;&gt;store</title>
<path fill="none" stroke="black" d="M62.08,-1924.5C64.71,-1981.35 79.03,-2156.66 157,-2272 263.02,-2428.84 343.33,-2458.51 532,-2474 579.62,-2477.91 592.01,-2479.24 639.5,-2474 656.82,-2472.09 675.69,-2468.16 691.61,-2464.28"/>
<polygon fill="black" stroke="black" points="692.32,-2467.71 701.16,-2461.87 690.61,-2460.92 692.32,-2467.71"/>
</g>
<!-- wasm -->
<g id="node67" class="node">
<title>wasm</title>
<polygon fill="none" stroke="black" points="1057.62,-2690 1003.38,-2690 1003.38,-2654 1057.62,-2654 1057.62,-2690"/>
<text text-anchor="middle" x="1030.5" y="-2667.7" font-family="sans-serif" font-size="14.00">wasm</text>
</g>
<!-- covalence&#45;&gt;wasm -->
<g id="edge15" class="edge">
<title>covalence&#45;&gt;wasm</title>
<path fill="none" stroke="black" d="M62.78,-1924.1C67.65,-1985.02 88.34,-2187.21 157,-2337 233.75,-2504.43 266.84,-2547.21 405,-2669 590.43,-2832.46 728.29,-2828.17 957.25,-2735 977.08,-2726.93 977.11,-2717.07 993.25,-2703 995.33,-2701.19 997.47,-2699.33 999.64,-2697.46"/>
<polygon fill="black" stroke="black" points="1001.52,-2700.45 1006.83,-2691.28 996.96,-2695.14 1001.52,-2700.45"/>
</g>
<!-- acset -->
<g id="node2" class="node">
<title>acset</title>
<polygon fill="none" stroke="black" points="915.88,-1972 861.88,-1972 861.88,-1936 915.88,-1936 915.88,-1972"/>
<text text-anchor="middle" x="888.88" y="-1949.7" font-family="sans-serif" font-size="14.00">acset</text>
</g>
<!-- alethe -->
<g id="node3" class="node">
<title>alethe</title>
<polygon fill="none" stroke="black" points="614,-1490 557.5,-1490 557.5,-1454 614,-1454 614,-1490"/>
<text text-anchor="middle" x="585.75" y="-1467.7" font-family="sans-serif" font-size="14.00">alethe</text>
</g>
<!-- core -->
<g id="node8" class="node">
<title>core</title>
<polygon fill="#ffd6d6" stroke="black" points="1057.5,-825 1003.5,-825 1003.5,-789 1057.5,-789 1057.5,-825"/>
<text text-anchor="middle" x="1030.5" y="-802.7" font-family="sans-serif" font-size="14.00">core</text>
</g>
<!-- alethe&#45;&gt;core -->
<g id="edge16" class="edge">
<title>alethe&#45;&gt;core</title>
<path fill="none" stroke="black" d="M614.39,-1460.66C623.63,-1455.61 633.17,-1448.77 639.5,-1440 681.63,-1381.58 629.66,-1337.55 675.5,-1282 709.19,-1241.18 747.49,-1271.85 784.5,-1234 813.76,-1204.08 793.09,-1178.62 820.5,-1147 866.77,-1093.62 917.37,-1124.31 957.25,-1066 1012.69,-984.94 951.08,-936.69 993.25,-848 995.58,-843.11 998.66,-838.36 1002.06,-833.94"/>
<polygon fill="black" stroke="black" points="1004.54,-836.42 1008.33,-826.53 999.2,-831.9 1004.54,-836.42"/>
</g>
<!-- hol&#45;eval -->
<g id="node22" class="node">
<title>hol&#45;eval</title>
<polygon fill="none" stroke="black" points="923.88,-726 853.88,-726 853.88,-690 923.88,-690 923.88,-726"/>
<text text-anchor="middle" x="888.88" y="-703.7" font-family="sans-serif" font-size="14.00">hol&#45;eval</text>
</g>
<!-- alethe&#45;&gt;hol&#45;eval -->
<g id="edge17" class="edge">
<title>alethe&#45;&gt;hol&#45;eval</title>
<path fill="none" stroke="black" d="M598.31,-1453.78C610.47,-1433.77 629.23,-1400.31 639.5,-1369 670.66,-1274.03 647.44,-1242.94 675.5,-1147 709.75,-1029.88 736.24,-1007.08 784.5,-895 800.56,-857.69 801.31,-846.8 820.5,-811 834.73,-784.46 853.71,-755.92 867.9,-735.63"/>
<polygon fill="black" stroke="black" points="870.65,-737.8 873.57,-727.62 864.94,-733.76 870.65,-737.8"/>
</g>
<!-- alethe&#45;&gt;init -->
<g id="edge18" class="edge">
<title>alethe&#45;&gt;init</title>
<path fill="none" stroke="black" d="M614.32,-1460.96C623.66,-1455.9 633.3,-1449 639.5,-1440 689.77,-1367.08 639.62,-1324.97 675.5,-1244 682.43,-1228.36 693.52,-1213.02 703.81,-1200.71"/>
<polygon fill="black" stroke="black" points="706.19,-1203.31 710.1,-1193.46 700.9,-1198.72 706.19,-1203.31"/>
</g>
<!-- sexp -->
<g id="node57" class="node">
<title>sexp</title>
<polygon fill="none" stroke="black" points="1057.5,-1536 1003.5,-1536 1003.5,-1500 1057.5,-1500 1057.5,-1536"/>
<text text-anchor="middle" x="1030.5" y="-1513.7" font-family="sans-serif" font-size="14.00">sexp</text>
</g>
<!-- alethe&#45;&gt;sexp -->
<g id="edge19" class="edge">
<title>alethe&#45;&gt;sexp</title>
<path fill="none" stroke="black" d="M614.28,-1473.38C675.94,-1476.7 829.69,-1486.18 957.25,-1504 968.61,-1505.59 980.9,-1507.78 992.05,-1509.97"/>
<polygon fill="black" stroke="black" points="991.21,-1513.37 1001.7,-1511.91 992.59,-1506.5 991.21,-1513.37"/>
</g>
<!-- smt -->
<g id="node61" class="node">
<title>smt</title>
<polygon fill="none" stroke="black" points="757,-1734 703,-1734 703,-1698 757,-1698 757,-1734"/>
<text text-anchor="middle" x="730" y="-1711.7" font-family="sans-serif" font-size="14.00">smt</text>
</g>
<!-- alethe&#45;&gt;smt -->
<g id="edge20" class="edge">
<title>alethe&#45;&gt;smt</title>
<path fill="none" stroke="black" d="M597.44,-1490.34C622.11,-1532.66 683.16,-1637.37 712.6,-1687.87"/>
<polygon fill="black" stroke="black" points="709.56,-1689.6 717.62,-1696.47 715.6,-1686.07 709.56,-1689.6"/>
</g>
<!-- types -->
<g id="node66" class="node">
<title>types</title>
<polygon fill="#ffd6d6" stroke="black" points="1538.75,-855 1484.75,-855 1484.75,-819 1538.75,-819 1538.75,-855"/>
<text text-anchor="middle" x="1511.75" y="-832.7" font-family="sans-serif" font-size="14.00">types</text>
</g>
<!-- alethe&#45;&gt;types -->
<g id="edge21" class="edge">
<title>alethe&#45;&gt;types</title>
<path fill="none" stroke="black" d="M605.6,-1453.69C651.84,-1409.21 770.7,-1297.64 820.5,-1277 906.66,-1241.28 936.23,-1258 1029.5,-1258 1029.5,-1258 1029.5,-1258 1267.5,-1258 1310.99,-1258 1398.33,-1221.6 1448.75,-1148 1480.16,-1102.15 1500.59,-935.21 1507.82,-866.68"/>
<polygon fill="black" stroke="black" points="1511.28,-867.25 1508.82,-856.95 1504.32,-866.54 1511.28,-867.25"/>
</g>
<!-- arrow -->
<g id="node4" class="node">
<title>arrow</title>
<polygon fill="none" stroke="black" points="612.75,-2130 558.75,-2130 558.75,-2094 612.75,-2094 612.75,-2130"/>
<text text-anchor="middle" x="585.75" y="-2107.7" font-family="sans-serif" font-size="14.00">arrow</text>
</g>
<!-- cfg&#45;parsing -->
<g id="node5" class="node">
<title>cfg&#45;parsing</title>
<polygon fill="none" stroke="black" points="776.62,-232 683.38,-232 683.38,-196 776.62,-196 776.62,-232"/>
<text text-anchor="middle" x="730" y="-209.7" font-family="sans-serif" font-size="14.00">cfg&#45;parsing</text>
</g>
<!-- grammar -->
<g id="node16" class="node">
<title>grammar</title>
<polygon fill="none" stroke="black" points="1067.38,-893 993.62,-893 993.62,-857 1067.38,-857 1067.38,-893"/>
<text text-anchor="middle" x="1030.5" y="-870.7" font-family="sans-serif" font-size="14.00">grammar</text>
</g>
<!-- cfg&#45;parsing&#45;&gt;grammar -->
<g id="edge22" class="edge">
<title>cfg&#45;parsing&#45;&gt;grammar</title>
<path fill="none" stroke="black" d="M777,-224.41C836.5,-238.88 935.15,-266.62 957.25,-296 1029.28,-391.75 947.1,-723.42 993.25,-834 995.34,-839 998.29,-843.8 1001.62,-848.25"/>
<polygon fill="black" stroke="black" points="998.75,-850.27 1007.86,-855.68 1004.11,-845.77 998.75,-850.27"/>
</g>
<!-- parsing&#45;api -->
<g id="node44" class="node">
<title>parsing&#45;api</title>
<polygon fill="none" stroke="black" points="934.75,-216 843,-216 843,-180 934.75,-180 934.75,-216"/>
<text text-anchor="middle" x="888.88" y="-193.7" font-family="sans-serif" font-size="14.00">parsing&#45;api</text>
</g>
<!-- cfg&#45;parsing&#45;&gt;parsing&#45;api -->
<g id="edge23" class="edge">
<title>cfg&#45;parsing&#45;&gt;parsing&#45;api</title>
<path fill="none" stroke="black" d="M776.8,-209.33C793.79,-207.6 813.26,-205.61 831.11,-203.79"/>
<polygon fill="black" stroke="black" points="831.46,-207.27 841.06,-202.77 830.75,-200.31 831.46,-207.27"/>
</g>
<!-- client&#45;&gt;hash -->
<g id="edge24" class="edge">
<title>client&#45;&gt;hash</title>
<path fill="none" stroke="black" d="M350.4,-1866.31C409.23,-1863.96 553.14,-1866.41 639.5,-1938 670.77,-1963.92 646.7,-1993.36 675.5,-2022 712.78,-2059.08 742.49,-2036.37 784.5,-2068 821.49,-2095.85 853.08,-2139.75 871.28,-2168.21"/>
<polygon fill="black" stroke="black" points="868.29,-2170.03 876.56,-2176.65 874.23,-2166.32 868.29,-2170.03"/>
</g>
<!-- client&#45;&gt;shell -->
<g id="edge25" class="edge">
<title>client&#45;&gt;shell</title>
<path fill="none" stroke="black" d="M337.68,-1849.74C347.39,-1836.04 360.23,-1816.53 369,-1798 391.18,-1751.12 372.81,-1727.67 405,-1687 407.49,-1683.86 410.45,-1680.99 413.64,-1678.41"/>
<polygon fill="black" stroke="black" points="415.62,-1681.29 421.83,-1672.71 411.62,-1675.55 415.62,-1681.29"/>
</g>
<!-- client&#45;&gt;store -->
<g id="edge26" class="edge">
<title>client&#45;&gt;store</title>
<path fill="none" stroke="black" d="M330.5,-1886.09C339.77,-1912.76 357.13,-1964.31 369,-2009 388.6,-2082.8 368.9,-2109.71 405,-2177 472.72,-2303.23 623.26,-2396.93 692.67,-2435.13"/>
<polygon fill="black" stroke="black" points="690.9,-2438.16 701.36,-2439.85 694.24,-2432 690.9,-2438.16"/>
</g>
<!-- computation -->
<g id="node7" class="node">
<title>computation</title>
<polygon fill="none" stroke="black" points="937.75,-948 840,-948 840,-912 937.75,-912 937.75,-948"/>
<text text-anchor="middle" x="888.88" y="-925.7" font-family="sans-serif" font-size="14.00">computation</text>
</g>
<!-- logic&#45;api -->
<g id="node35" class="node">
<title>logic&#45;api</title>
<polygon fill="none" stroke="black" points="1067.75,-262 993.25,-262 993.25,-226 1067.75,-226 1067.75,-262"/>
<text text-anchor="middle" x="1030.5" y="-239.7" font-family="sans-serif" font-size="14.00">logic&#45;api</text>
</g>
<!-- computation&#45;&gt;logic&#45;api -->
<g id="edge27" class="edge">
<title>computation&#45;&gt;logic&#45;api</title>
<path fill="none" stroke="black" d="M937.93,-914.79C945.41,-910.46 952.29,-904.96 957.25,-898 993.96,-846.44 1021.26,-393.94 1027.93,-273.4"/>
<polygon fill="black" stroke="black" points="1031.41,-273.87 1028.46,-263.69 1024.42,-273.49 1031.41,-273.87"/>
</g>
<!-- pure -->
<g id="node47" class="node">
<title>pure</title>
<polygon fill="#ffd6d6" stroke="black" points="1293.5,-779 1239.5,-779 1239.5,-743 1293.5,-743 1293.5,-779"/>
<text text-anchor="middle" x="1266.5" y="-756.7" font-family="sans-serif" font-size="14.00">pure</text>
</g>
<!-- core&#45;&gt;pure -->
<g id="edge28" class="edge">
<title>core&#45;&gt;pure</title>
<path fill="none" stroke="black" d="M1057.89,-801.81C1099.52,-793.63 1180.58,-777.69 1228.16,-768.34"/>
<polygon fill="black" stroke="black" points="1228.59,-771.82 1237.72,-766.46 1227.24,-764.96 1228.59,-771.82"/>
</g>
<!-- pure&#45;eval -->
<g id="node48" class="node">
<title>pure&#45;eval</title>
<polygon fill="#ffd6d6" stroke="black" points="1183.5,-733 1103.75,-733 1103.75,-697 1183.5,-697 1183.5,-733"/>
<text text-anchor="middle" x="1143.62" y="-710.7" font-family="sans-serif" font-size="14.00">pure&#45;eval</text>
</g>
<!-- core&#45;&gt;pure&#45;eval -->
<g id="edge29" class="edge">
<title>core&#45;&gt;pure&#45;eval</title>
<path fill="none" stroke="black" d="M1053.72,-788.6C1070.38,-774.81 1093.38,-755.77 1111.81,-740.51"/>
<polygon fill="black" stroke="black" points="1113.81,-743.4 1119.28,-734.33 1109.34,-738.01 1113.81,-743.4"/>
</g>
<!-- core&#45;&gt;types -->
<g id="edge30" class="edge">
<title>core&#45;&gt;types</title>
<path fill="none" stroke="black" d="M1057.95,-808.66C1138.22,-813.68 1379.27,-828.77 1472.94,-834.63"/>
<polygon fill="black" stroke="black" points="1472.67,-838.12 1482.87,-835.25 1473.11,-831.14 1472.67,-838.12"/>
</g>
<!-- core&#45;test&#45;guest -->
<g id="node9" class="node">
<title>core&#45;test&#45;guest</title>
<polygon fill="none" stroke="black" points="121,-2512 0,-2512 0,-2476 121,-2476 121,-2512"/>
<text text-anchor="middle" x="60.5" y="-2489.7" font-family="sans-serif" font-size="14.00">core&#45;test&#45;guest</text>
</g>
<!-- crypto&#45;sig -->
<g id="node10" class="node">
<title>crypto&#45;sig</title>
<polygon fill="none" stroke="black" points="241.25,-2710 157,-2710 157,-2674 241.25,-2674 241.25,-2710"/>
<text text-anchor="middle" x="199.12" y="-2687.7" font-family="sans-serif" font-size="14.00">crypto&#45;sig</text>
</g>
<!-- decimal&#45;api -->
<g id="node11" class="node">
<title>decimal&#45;api</title>
<polygon fill="none" stroke="black" points="1313.5,-277 1219.5,-277 1219.5,-241 1313.5,-241 1313.5,-277"/>
<text text-anchor="middle" x="1266.5" y="-254.7" font-family="sans-serif" font-size="14.00">decimal&#45;api</text>
</g>
<!-- decimal&#45;api&#45;&gt;types -->
<g id="edge31" class="edge">
<title>decimal&#45;api&#45;&gt;types</title>
<path fill="none" stroke="black" d="M1306.65,-277.38C1349.2,-299.58 1415.56,-341.15 1448.75,-398 1489.66,-468.08 1505.24,-720.54 1509.46,-807.4"/>
<polygon fill="black" stroke="black" points="1505.96,-807.41 1509.92,-817.23 1512.95,-807.08 1505.96,-807.41"/>
</g>
<!-- egglog -->
<g id="node12" class="node">
<title>egglog</title>
<polygon fill="none" stroke="black" points="919.38,-1376 858.38,-1376 858.38,-1340 919.38,-1340 919.38,-1376"/>
<text text-anchor="middle" x="888.88" y="-1353.7" font-family="sans-serif" font-size="14.00">egglog</text>
</g>
<!-- egglog&#45;&gt;sexp -->
<g id="edge32" class="edge">
<title>egglog&#45;&gt;sexp</title>
<path fill="none" stroke="black" d="M919.77,-1367.6C932.42,-1372.75 946.64,-1380.11 957.25,-1390 987.08,-1417.8 1007.82,-1460.76 1019.2,-1489.13"/>
<polygon fill="black" stroke="black" points="1015.82,-1490.1 1022.69,-1498.17 1022.35,-1487.58 1015.82,-1490.1"/>
</g>
<!-- egglog&#45;&gt;types -->
<g id="edge33" class="edge">
<title>egglog&#45;&gt;types</title>
<path fill="none" stroke="black" d="M919.83,-1357.22C967.15,-1356.06 1062.09,-1354 1142.62,-1354 1142.62,-1354 1142.62,-1354 1267.5,-1354 1355.92,-1354 1395.68,-1342.72 1448.75,-1272 1497.02,-1207.67 1507.84,-954.2 1510.15,-866.81"/>
<polygon fill="black" stroke="black" points="1513.65,-866.98 1510.39,-856.9 1506.65,-866.81 1513.65,-866.98"/>
</g>
<!-- forsp -->
<g id="node13" class="node">
<title>forsp</title>
<polygon fill="none" stroke="black" points="477.5,-1732 423.5,-1732 423.5,-1696 477.5,-1696 477.5,-1732"/>
<text text-anchor="middle" x="450.5" y="-1709.7" font-family="sans-serif" font-size="14.00">forsp</text>
</g>
<!-- forsp&#45;&gt;hash -->
<g id="edge34" class="edge">
<title>forsp&#45;&gt;hash</title>
<path fill="none" stroke="black" d="M473.13,-1732.49C489.21,-1746.11 511.76,-1764.97 532,-1781 578.89,-1818.15 605.48,-1812.79 639.5,-1862 671.89,-1908.85 637.43,-1942.63 675.5,-1985 710.53,-2023.99 744.5,-1996.13 784.5,-2030 829.46,-2068.08 860.97,-2130.82 876.6,-2167.28"/>
<polygon fill="black" stroke="black" points="873.29,-2168.42 880.36,-2176.3 879.75,-2165.72 873.29,-2168.42"/>
</g>
<!-- repl&#45;core -->
<g id="node54" class="node">
<title>repl&#45;core</title>
<polygon fill="none" stroke="black" points="624.88,-1360 546.62,-1360 546.62,-1324 624.88,-1324 624.88,-1360"/>
<text text-anchor="middle" x="585.75" y="-1337.7" font-family="sans-serif" font-size="14.00">repl&#45;core</text>
</g>
<!-- forsp&#45;&gt;repl&#45;core -->
<g id="edge35" class="edge">
<title>forsp&#45;&gt;repl&#45;core</title>
<path fill="none" stroke="black" d="M477.76,-1703.26C484.74,-1699.17 491.56,-1693.81 496,-1687 563.33,-1583.75 485.37,-1526.1 532,-1412 538.44,-1396.24 549.32,-1380.89 559.54,-1368.6"/>
<polygon fill="black" stroke="black" points="561.89,-1371.23 565.79,-1361.37 556.6,-1366.65 561.89,-1371.23"/>
</g>
<!-- forsp&#45;&gt;sexp -->
<g id="edge36" class="edge">
<title>forsp&#45;&gt;sexp</title>
<path fill="none" stroke="black" d="M477.85,-1699C483.94,-1695.27 490.3,-1691.14 496,-1687 513.08,-1674.59 513.32,-1665.84 532,-1656 610.64,-1614.57 944.56,-1575.31 957.25,-1570 972.74,-1563.52 988.09,-1553.18 1000.64,-1543.41"/>
<polygon fill="black" stroke="black" points="1002.47,-1546.43 1008.06,-1537.42 998.08,-1540.98 1002.47,-1546.43"/>
</g>
<!-- fuse&#45;&gt;hash -->
<g id="edge37" class="edge">
<title>fuse&#45;&gt;hash</title>
<path fill="none" stroke="black" d="M612.94,-2278.31C651.37,-2275.27 724.95,-2267.29 784.5,-2248 807.83,-2240.44 832.41,-2228.27 851.75,-2217.6"/>
<polygon fill="black" stroke="black" points="853.32,-2220.74 860.31,-2212.77 849.88,-2214.64 853.32,-2220.74"/>
</g>
<!-- fuse&#45;&gt;object -->
<g id="edge38" class="edge">
<title>fuse&#45;&gt;object</title>
<path fill="none" stroke="black" d="M603.91,-2261.67C628.9,-2234.96 675.46,-2185.21 704.18,-2154.52"/>
<polygon fill="black" stroke="black" points="706.47,-2157.2 710.75,-2147.5 701.36,-2152.41 706.47,-2157.2"/>
</g>
<!-- fuse&#45;&gt;store -->
<g id="edge39" class="edge">
<title>fuse&#45;&gt;store</title>
<path fill="none" stroke="black" d="M601.7,-2298.29C626.89,-2329.1 677.88,-2391.46 707.1,-2427.21"/>
<polygon fill="black" stroke="black" points="704.04,-2428.99 713.07,-2434.52 709.45,-2424.56 704.04,-2428.99"/>
</g>
<!-- git&#45;&gt;hash -->
<g id="edge40" class="edge">
<title>git&#45;&gt;hash</title>
<path fill="none" stroke="black" d="M477.66,-2391.07C535.34,-2375.21 676.85,-2333.01 784.5,-2274 811.34,-2259.29 838.87,-2238.16 858.77,-2221.61"/>
<polygon fill="black" stroke="black" points="860.8,-2224.47 866.18,-2215.34 856.29,-2219.12 860.8,-2224.47"/>
</g>
<!-- git&#45;&gt;object -->
<g id="edge41" class="edge">
<title>git&#45;&gt;object</title>
<path fill="none" stroke="black" d="M458.21,-2379.67C469.69,-2350.22 495.45,-2291.75 532,-2253 578.37,-2203.83 647.99,-2165.65 690.84,-2145.03"/>
<polygon fill="black" stroke="black" points="692.22,-2148.25 699.76,-2140.81 689.23,-2141.92 692.22,-2148.25"/>
</g>
<!-- sqlite -->
<g id="node63" class="node">
<title>sqlite</title>
<polygon fill="none" stroke="black" points="915.88,-2648 861.88,-2648 861.88,-2612 915.88,-2612 915.88,-2648"/>
<text text-anchor="middle" x="888.88" y="-2625.7" font-family="sans-serif" font-size="14.00">sqlite</text>
</g>
<!-- git&#45;&gt;sqlite -->
<g id="edge42" class="edge">
<title>git&#45;&gt;sqlite</title>
<path fill="none" stroke="black" d="M464.01,-2416.47C494.36,-2459.54 576.73,-2566.33 675.5,-2611 732.35,-2636.71 806.4,-2636.8 850.36,-2633.86"/>
<polygon fill="black" stroke="black" points="850.44,-2637.37 860.15,-2633.11 849.91,-2630.39 850.44,-2637.37"/>
</g>
<!-- git&#45;&gt;store -->
<g id="edge43" class="edge">
<title>git&#45;&gt;store</title>
<path fill="none" stroke="black" d="M477.92,-2404.11C493.61,-2407.69 513.91,-2412.23 532,-2416 587.28,-2427.51 651.55,-2439.68 691.25,-2447.06"/>
<polygon fill="black" stroke="black" points="690.54,-2450.49 701.02,-2448.87 691.82,-2443.61 690.54,-2450.49"/>
</g>
<!-- grammar&#45;&gt;types -->
<g id="edge44" class="edge">
<title>grammar&#45;&gt;types</title>
<path fill="none" stroke="black" d="M1067.82,-872.77C1140.31,-868.22 1308.08,-857.16 1448.75,-844 1456.65,-843.26 1465.1,-842.37 1473.15,-841.48"/>
<polygon fill="black" stroke="black" points="1473.48,-844.96 1483.02,-840.36 1472.69,-838.01 1473.48,-844.96"/>
</g>
<!-- graph -->
<g id="node17" class="node">
<title>graph</title>
<polygon fill="none" stroke="black" points="477.5,-2660 423.5,-2660 423.5,-2624 477.5,-2624 477.5,-2660"/>
<text text-anchor="middle" x="450.5" y="-2637.7" font-family="sans-serif" font-size="14.00">graph</text>
</g>
<!-- graph&#45;&gt;hash -->
<g id="edge45" class="edge">
<title>graph&#45;&gt;hash</title>
<path fill="none" stroke="black" d="M478,-2642.81C516.52,-2642.76 588.92,-2637.94 639.5,-2606 662.35,-2591.57 654.09,-2573.49 675.5,-2557 716.75,-2525.22 748.82,-2551.94 784.5,-2514 862.98,-2430.54 881.89,-2286.78 886.44,-2225.29"/>
<polygon fill="black" stroke="black" points="889.91,-2225.85 887.07,-2215.64 882.93,-2225.39 889.91,-2225.85"/>
</g>
<!-- parse -->
<g id="node43" class="node">
<title>parse</title>
<polygon fill="none" stroke="black" points="1170.62,-1918 1116.62,-1918 1116.62,-1882 1170.62,-1882 1170.62,-1918"/>
<text text-anchor="middle" x="1143.62" y="-1895.7" font-family="sans-serif" font-size="14.00">parse</text>
</g>
<!-- graph&#45;&gt;parse -->
<g id="edge46" class="edge">
<title>graph&#45;&gt;parse</title>
<path fill="none" stroke="black" d="M463.47,-2660.48C477.89,-2681.73 503.72,-2716.81 532,-2741 686.41,-2873.11 783.29,-3014.04 957.25,-2909 1131.12,-2804.02 1142.32,-2085.23 1142.7,-1929.65"/>
<polygon fill="black" stroke="black" points="1146.2,-1929.79 1142.7,-1919.79 1139.2,-1929.79 1146.2,-1929.79"/>
</g>
<!-- rand -->
<g id="node51" class="node">
<title>rand</title>
<polygon fill="none" stroke="black" points="1057.5,-2214 1003.5,-2214 1003.5,-2178 1057.5,-2178 1057.5,-2214"/>
<text text-anchor="middle" x="1030.5" y="-2191.7" font-family="sans-serif" font-size="14.00">rand</text>
</g>
<!-- hash&#45;&gt;rand -->
<g id="edge47" class="edge">
<title>hash&#45;&gt;rand</title>
<path fill="none" stroke="black" d="M916.14,-2196C937.49,-2196 967.9,-2196 991.85,-2196"/>
<polygon fill="black" stroke="black" points="991.84,-2199.5 1001.84,-2196 991.84,-2192.5 991.84,-2199.5"/>
</g>
<!-- haskell -->
<g id="node19" class="node">
<title>haskell</title>
<polygon fill="none" stroke="black" points="481.75,-500 419.25,-500 419.25,-464 481.75,-464 481.75,-500"/>
<text text-anchor="middle" x="450.5" y="-477.7" font-family="sans-serif" font-size="14.00">haskell</text>
</g>
<!-- hol&#45;api -->
<g id="node21" class="node">
<title>hol&#45;api</title>
<polygon fill="none" stroke="black" points="617,-546 554.5,-546 554.5,-510 617,-510 617,-546"/>
<text text-anchor="middle" x="585.75" y="-523.7" font-family="sans-serif" font-size="14.00">hol&#45;api</text>
</g>
<!-- haskell&#45;&gt;hol&#45;api -->
<g id="edge48" class="edge">
<title>haskell&#45;&gt;hol&#45;api</title>
<path fill="none" stroke="black" d="M482.07,-492.55C500.35,-498.86 523.82,-506.97 543.7,-513.83"/>
<polygon fill="black" stroke="black" points="542.3,-517.05 552.89,-517 544.58,-510.43 542.3,-517.05"/>
</g>
<!-- haskell&#45;&gt;hol&#45;eval -->
<g id="edge49" class="edge">
<title>haskell&#45;&gt;hol&#45;eval</title>
<path fill="none" stroke="black" d="M482.15,-481.56C519.94,-481.81 585.77,-484.87 639.5,-501 709.19,-521.93 728.51,-530.53 784.5,-577 820.79,-607.12 852.73,-651.91 871.18,-680.53"/>
<polygon fill="black" stroke="black" points="868.01,-682.07 876.32,-688.65 873.93,-678.33 868.01,-682.07"/>
</g>
<!-- haskell&#45;&gt;init -->
<g id="edge50" class="edge">
<title>haskell&#45;&gt;init</title>
<path fill="none" stroke="black" d="M468.15,-500.4C478.16,-512.66 490.07,-529.66 496,-547 518.17,-611.88 483.46,-1114.58 532,-1163 573.39,-1204.28 647.13,-1195.41 691.71,-1184.91"/>
<polygon fill="black" stroke="black" points="692.33,-1188.37 701.18,-1182.54 690.62,-1181.58 692.33,-1188.37"/>
</g>
<!-- haskell&#45;&gt;types -->
<g id="edge51" class="edge">
<title>haskell&#45;&gt;types</title>
<path fill="none" stroke="black" d="M453.05,-463.69C461.58,-375.65 510.78,0 729,0 729,0 729,0 1267.5,0 1358.45,0 1398.47,-19.21 1448.75,-95 1488.68,-155.2 1506.15,-676.03 1509.94,-807.14"/>
<polygon fill="black" stroke="black" points="1506.44,-807.17 1510.22,-817.07 1513.44,-806.97 1506.44,-807.17"/>
</g>
<!-- hol&#45;&gt;core -->
<g id="edge52" class="edge">
<title>hol&#45;&gt;core</title>
<path fill="none" stroke="black" d="M916.14,-832.17C937.59,-827.41 968.18,-820.62 992.17,-815.29"/>
<polygon fill="black" stroke="black" points="992.87,-818.72 1001.88,-813.13 991.36,-811.88 992.87,-818.72"/>
</g>
<!-- hol&#45;api&#45;&gt;core -->
<g id="edge53" class="edge">
<title>hol&#45;api&#45;&gt;core</title>
<path fill="none" stroke="black" d="M617.32,-522.23C687.33,-510.93 860.62,-494.06 957.25,-582 1013.76,-633.42 1026.29,-729.09 1028.92,-777.42"/>
<polygon fill="black" stroke="black" points="1025.41,-777.28 1029.33,-787.12 1032.4,-776.98 1025.41,-777.28"/>
</g>
<!-- hol&#45;api&#45;&gt;hol&#45;eval -->
<g id="edge54" class="edge">
<title>hol&#45;api&#45;&gt;hol&#45;eval</title>
<path fill="none" stroke="black" d="M617.28,-546.25C671.95,-578.93 786.54,-647.43 847.59,-683.92"/>
<polygon fill="black" stroke="black" points="845.59,-686.8 855.96,-688.93 849.18,-680.79 845.59,-686.8"/>
</g>
<!-- inductive -->
<g id="node23" class="node">
<title>inductive</title>
<polygon fill="none" stroke="black" points="927.25,-384 850.5,-384 850.5,-348 927.25,-348 927.25,-384"/>
<text text-anchor="middle" x="888.88" y="-361.7" font-family="sans-serif" font-size="14.00">inductive</text>
</g>
<!-- hol&#45;api&#45;&gt;inductive -->
<g id="edge55" class="edge">
<title>hol&#45;api&#45;&gt;inductive</title>
<path fill="none" stroke="black" d="M617.43,-514.22C625.49,-509.41 633.58,-503.33 639.5,-496 670.23,-457.95 637.46,-422.74 675.5,-392 721.31,-354.98 791.85,-353.84 838.91,-358.34"/>
<polygon fill="black" stroke="black" points="838.51,-361.82 848.83,-359.43 839.27,-354.86 838.51,-361.82"/>
</g>
<!-- hol&#45;api&#45;&gt;init -->
<g id="edge56" class="edge">
<title>hol&#45;api&#45;&gt;init</title>
<path fill="none" stroke="black" d="M590.78,-546.29C610.61,-636.33 697.86,-1032.6 722.5,-1144.49"/>
<polygon fill="black" stroke="black" points="719.05,-1145.07 724.61,-1154.08 725.88,-1143.56 719.05,-1145.07"/>
</g>
<!-- hol&#45;api&#45;&gt;logic&#45;api -->
<g id="edge57" class="edge">
<title>hol&#45;api&#45;&gt;logic&#45;api</title>
<path fill="none" stroke="black" d="M590.54,-509.69C599.23,-467.68 621.25,-361.13 639.5,-272 655.6,-193.35 613.34,-145.79 675.5,-95 725.72,-53.97 903.82,-134.25 957.25,-171 976.04,-183.92 994.09,-202.16 1007.45,-217.17"/>
<polygon fill="black" stroke="black" points="1004.55,-219.17 1013.75,-224.42 1009.84,-214.58 1004.55,-219.17"/>
</g>
<!-- hol&#45;api&#45;&gt;pure -->
<g id="edge58" class="edge">
<title>hol&#45;api&#45;&gt;pure</title>
<path fill="none" stroke="black" d="M617.22,-519.77C682.1,-503.81 837.72,-473.81 957.25,-517 1082.55,-562.28 1195.99,-680.38 1242.81,-733.92"/>
<polygon fill="black" stroke="black" points="1240.07,-736.11 1249.26,-741.39 1245.37,-731.53 1240.07,-736.11"/>
</g>
<!-- hol&#45;api&#45;&gt;types -->
<g id="edge59" class="edge">
<title>hol&#45;api&#45;&gt;types</title>
<path fill="none" stroke="black" d="M617.43,-514.12C688.38,-483.33 869.98,-412 1029.5,-412 1029.5,-412 1029.5,-412 1267.5,-412 1450.12,-412 1497.54,-711.25 1508.07,-807.54"/>
<polygon fill="black" stroke="black" points="1504.56,-807.65 1509.07,-817.23 1511.52,-806.93 1504.56,-807.65"/>
</g>
<!-- hol&#45;eval&#45;&gt;core -->
<g id="edge60" class="edge">
<title>hol&#45;eval&#45;&gt;core</title>
<path fill="none" stroke="black" d="M924.32,-721.72C935.27,-726.76 947.15,-732.98 957.25,-740 975.57,-752.74 976.88,-759.83 993.25,-775 995.35,-776.95 997.54,-778.94 999.75,-780.94"/>
<polygon fill="black" stroke="black" points="997.35,-783.49 1007.13,-787.55 1002.01,-778.27 997.35,-783.49"/>
</g>
<!-- hol&#45;eval&#45;&gt;pure -->
<g id="edge61" class="edge">
<title>hol&#45;eval&#45;&gt;pure</title>
<path fill="none" stroke="black" d="M924.29,-714.25C944.38,-717.83 970.22,-722.33 993.25,-726 1042.25,-733.81 1054.55,-735.55 1103.75,-742 1146.2,-747.57 1195.01,-753.19 1227.82,-756.86"/>
<polygon fill="black" stroke="black" points="1227.31,-760.33 1237.63,-757.96 1228.08,-753.37 1227.31,-760.33"/>
</g>
<!-- hol&#45;eval&#45;&gt;pure&#45;eval -->
<g id="edge62" class="edge">
<title>hol&#45;eval&#45;&gt;pure&#45;eval</title>
<path fill="none" stroke="black" d="M924.23,-708.95C967.46,-710.15 1042.08,-712.22 1091.89,-713.59"/>
<polygon fill="black" stroke="black" points="1091.76,-717.09 1101.85,-713.87 1091.95,-710.1 1091.76,-717.09"/>
</g>
<!-- hol&#45;eval&#45;&gt;sexp -->
<g id="edge63" class="edge">
<title>hol&#45;eval&#45;&gt;sexp</title>
<path fill="none" stroke="black" d="M905.78,-726.27C921.78,-745.79 945.69,-778.37 957.25,-811 1002.67,-939.19 1023.44,-1370.87 1028.33,-1488.3"/>
<polygon fill="black" stroke="black" points="1024.83,-1488.2 1028.73,-1498.05 1031.82,-1487.91 1024.83,-1488.2"/>
</g>
<!-- hol&#45;eval&#45;&gt;types -->
<g id="edge64" class="edge">
<title>hol&#45;eval&#45;&gt;types</title>
<path fill="none" stroke="black" d="M924.22,-696.15C1017.98,-666.12 1282.38,-597.18 1448.75,-711 1481.43,-733.36 1497.6,-778.07 1505.06,-807.77"/>
<polygon fill="black" stroke="black" points="1501.58,-808.28 1507.24,-817.24 1508.4,-806.71 1501.58,-808.28"/>
</g>
<!-- inductive&#45;&gt;logic&#45;api -->
<g id="edge65" class="edge">
<title>inductive&#45;&gt;logic&#45;api</title>
<path fill="none" stroke="black" d="M910.78,-347.74C934.43,-327.07 973.12,-293.26 999.88,-269.88"/>
<polygon fill="black" stroke="black" points="1002.09,-272.6 1007.31,-263.39 997.48,-267.33 1002.09,-272.6"/>
</g>
<!-- init&#45;&gt;computation -->
<g id="edge66" class="edge">
<title>init&#45;&gt;computation</title>
<path fill="none" stroke="black" d="M747.76,-1155.53C759.32,-1142.03 774.37,-1122.86 784.5,-1104 807.65,-1060.91 794.94,-1041.71 820.5,-1000 830.48,-983.72 844.8,-968.15 857.68,-955.85"/>
<polygon fill="black" stroke="black" points="859.81,-958.65 864.77,-949.28 855.05,-953.51 859.81,-958.65"/>
</g>
<!-- init&#45;&gt;core -->
<g id="edge67" class="edge">
<title>init&#45;&gt;core</title>
<path fill="none" stroke="black" d="M757.4,-1162.94C767.04,-1157.79 777.33,-1150.82 784.5,-1142 815.35,-1104.04 785.99,-1072.66 820.5,-1038 865.95,-992.35 913.78,-1037.53 957.25,-990 1001.19,-941.95 962.83,-905.56 993.25,-848 995.83,-843.11 999.11,-838.33 1002.64,-833.85"/>
<polygon fill="black" stroke="black" points="1005.25,-836.19 1009.11,-826.32 999.94,-831.63 1005.25,-836.19"/>
</g>
<!-- init&#45;&gt;grammar -->
<g id="edge68" class="edge">
<title>init&#45;&gt;grammar</title>
<path fill="none" stroke="black" d="M757.49,-1162.95C803.63,-1142.52 899.37,-1094.75 957.25,-1028 989.44,-990.87 1010.41,-936.94 1021.08,-904.02"/>
<polygon fill="black" stroke="black" points="1024.33,-905.34 1023.97,-894.75 1017.65,-903.25 1024.33,-905.34"/>
</g>
<!-- init&#45;&gt;hash -->
<g id="edge69" class="edge">
<title>init&#45;&gt;hash</title>
<path fill="none" stroke="black" d="M732.91,-1192.14C745.13,-1308 812.08,-1940.91 820.5,-1981 834.77,-2048.91 861.62,-2125.95 876.76,-2166.85"/>
<polygon fill="black" stroke="black" points="873.48,-2168.07 880.26,-2176.21 880.03,-2165.62 873.48,-2168.07"/>
</g>
<!-- init&#45;&gt;hol -->
<g id="edge70" class="edge">
<title>init&#45;&gt;hol</title>
<path fill="none" stroke="black" d="M749.09,-1155.76C761.11,-1142.52 776.17,-1123.56 784.5,-1104 825.73,-1007.19 757.66,-954.4 820.5,-870 828,-859.93 839.49,-852.89 850.87,-848.04"/>
<polygon fill="black" stroke="black" points="852.05,-851.34 860.19,-844.56 849.6,-844.78 852.05,-851.34"/>
</g>
<!-- init&#45;&gt;hol&#45;eval -->
<g id="edge71" class="edge">
<title>init&#45;&gt;hol&#45;eval</title>
<path fill="none" stroke="black" d="M735.36,-1155.96C752.82,-1083.78 816.92,-819.22 820.5,-811 832.44,-783.56 851.49,-755.31 866.29,-735.35"/>
<polygon fill="black" stroke="black" points="869.01,-737.55 872.25,-727.47 863.43,-733.33 869.01,-737.55"/>
</g>
<!-- init&#45;&gt;inductive -->
<g id="edge72" class="edge">
<title>init&#45;&gt;inductive</title>
<path fill="none" stroke="black" d="M734.13,-1155.61C745.22,-1090.62 783.98,-865.76 820.5,-681 841.31,-575.71 868.79,-451.25 881.24,-395.54"/>
<polygon fill="black" stroke="black" points="884.62,-396.42 883.39,-385.9 877.79,-394.89 884.62,-396.42"/>
</g>
<!-- k -->
<g id="node27" class="node">
<title>k</title>
<polygon fill="none" stroke="black" points="915.88,-1322 861.88,-1322 861.88,-1286 915.88,-1286 915.88,-1322"/>
<text text-anchor="middle" x="888.88" y="-1299.7" font-family="sans-serif" font-size="14.00">k</text>
</g>
<!-- init&#45;&gt;k -->
<g id="edge73" class="edge">
<title>init&#45;&gt;k</title>
<path fill="none" stroke="black" d="M753.14,-1192.35C780.28,-1214.84 826.41,-1253.07 857.02,-1278.43"/>
<polygon fill="black" stroke="black" points="854.49,-1280.88 864.43,-1284.57 858.96,-1275.49 854.49,-1280.88"/>
</g>
<!-- init&#45;&gt;logic&#45;api -->
<g id="edge74" class="edge">
<title>init&#45;&gt;logic&#45;api</title>
<path fill="none" stroke="black" d="M748.94,-1155.69C760.89,-1142.42 775.93,-1123.46 784.5,-1104 821.08,-1020.95 759.41,-970.11 820.5,-903 862.96,-856.35 916.24,-912.93 957.25,-865 996.18,-819.5 1021.68,-390.94 1027.98,-273.59"/>
<polygon fill="black" stroke="black" points="1031.46,-274.01 1028.49,-263.84 1024.47,-273.64 1031.46,-274.01"/>
</g>
<!-- metamath -->
<g id="node37" class="node">
<title>metamath</title>
<polygon fill="none" stroke="black" points="929.12,-1658 848.62,-1658 848.62,-1622 929.12,-1622 929.12,-1658"/>
<text text-anchor="middle" x="888.88" y="-1635.7" font-family="sans-serif" font-size="14.00">metamath</text>
</g>
<!-- init&#45;&gt;metamath -->
<g id="edge75" class="edge">
<title>init&#45;&gt;metamath</title>
<path fill="none" stroke="black" d="M736.49,-1192.24C750.09,-1237.23 786.71,-1357.08 820.5,-1456 839.3,-1511.05 863.05,-1574.65 876.74,-1610.82"/>
<polygon fill="black" stroke="black" points="873.46,-1612.03 880.28,-1620.14 880,-1609.55 873.46,-1612.03"/>
</g>
<!-- init&#45;&gt;parsing&#45;api -->
<g id="edge76" class="edge">
<title>init&#45;&gt;parsing&#45;api</title>
<path fill="none" stroke="black" d="M730.7,-1155.65C729.68,-1064.96 730.52,-656.35 820.5,-339 832.18,-297.8 855.07,-253.81 870.9,-226.12"/>
<polygon fill="black" stroke="black" points="873.83,-228.06 875.83,-217.66 867.77,-224.54 873.83,-228.06"/>
</g>
<!-- init&#45;&gt;sexp -->
<g id="edge77" class="edge">
<title>init&#45;&gt;sexp</title>
<path fill="none" stroke="black" d="M732.5,-1192.44C737.13,-1237.37 755.12,-1353.53 820.5,-1418 866.36,-1463.23 900.14,-1436.22 957.25,-1466 971.55,-1473.46 986.21,-1483.48 998.54,-1492.74"/>
<polygon fill="black" stroke="black" points="996.22,-1495.37 1006.28,-1498.69 1000.49,-1489.82 996.22,-1495.37"/>
</g>
<!-- spectec -->
<g id="node62" class="node">
<title>spectec</title>
<polygon fill="none" stroke="black" points="923.5,-1192 854.25,-1192 854.25,-1156 923.5,-1156 923.5,-1192"/>
<text text-anchor="middle" x="888.88" y="-1169.7" font-family="sans-serif" font-size="14.00">spectec</text>
</g>
<!-- init&#45;&gt;spectec -->
<g id="edge78" class="edge">
<title>init&#45;&gt;spectec</title>
<path fill="none" stroke="black" d="M757.26,-1174C780.46,-1174 814.81,-1174 842.46,-1174"/>
<polygon fill="black" stroke="black" points="842.33,-1177.5 852.33,-1174 842.33,-1170.5 842.33,-1177.5"/>
</g>
<!-- init&#45;&gt;types -->
<g id="edge79" class="edge">
<title>init&#45;&gt;types</title>
<path fill="none" stroke="black" d="M757.28,-1183.46C774.93,-1189.43 798.83,-1196.79 820.5,-1201 912.06,-1218.78 936.23,-1220 1029.5,-1220 1029.5,-1220 1029.5,-1220 1267.5,-1220 1434.69,-1220 1491.85,-956.74 1506.51,-866.74"/>
<polygon fill="black" stroke="black" points="1509.95,-867.39 1508.04,-856.97 1503.04,-866.31 1509.95,-867.39"/>
</g>
<!-- json -->
<g id="node25" class="node">
<title>json</title>
<polygon fill="none" stroke="black" points="915.88,-2702 861.88,-2702 861.88,-2666 915.88,-2666 915.88,-2702"/>
<text text-anchor="middle" x="888.88" y="-2679.7" font-family="sans-serif" font-size="14.00">json</text>
</g>
<!-- json&#45;api -->
<g id="node26" class="node">
<title>json&#45;api</title>
<polygon fill="none" stroke="black" points="765,-140 695,-140 695,-104 765,-104 765,-140"/>
<text text-anchor="middle" x="730" y="-117.7" font-family="sans-serif" font-size="14.00">json&#45;api</text>
</g>
<!-- json&#45;api&#45;&gt;decimal&#45;api -->
<g id="edge80" class="edge">
<title>json&#45;api&#45;&gt;decimal&#45;api</title>
<path fill="none" stroke="black" d="M765.27,-128.7C809.73,-137.56 889.61,-154.04 957.25,-171 1045.48,-193.12 1146.69,-222.87 1208.35,-241.48"/>
<polygon fill="black" stroke="black" points="1206.98,-244.73 1217.57,-244.27 1209.01,-238.03 1206.98,-244.73"/>
</g>
<!-- json&#45;api&#45;&gt;inductive -->
<g id="edge81" class="edge">
<title>json&#45;api&#45;&gt;inductive</title>
<path fill="none" stroke="black" d="M747.54,-140.41C758.57,-153.09 773.09,-170.54 784.5,-187 819.86,-238 854.62,-301.78 873.45,-337.8"/>
<polygon fill="black" stroke="black" points="870.14,-339.01 877.85,-346.27 876.35,-335.78 870.14,-339.01"/>
</g>
<!-- json&#45;api&#45;&gt;parsing&#45;api -->
<g id="edge82" class="edge">
<title>json&#45;api&#45;&gt;parsing&#45;api</title>
<path fill="none" stroke="black" d="M765.37,-139.03C782,-147.24 802.26,-157.19 820.5,-166 826.4,-168.85 832.6,-171.83 838.75,-174.76"/>
<polygon fill="black" stroke="black" points="837.1,-177.85 847.63,-178.99 840.11,-171.53 837.1,-177.85"/>
</g>
<!-- json&#45;api&#45;&gt;types -->
<g id="edge83" class="edge">
<title>json&#45;api&#45;&gt;types</title>
<path fill="none" stroke="black" d="M765.21,-113.24C820.42,-99.89 932.76,-76 1029.5,-76 1029.5,-76 1029.5,-76 1267.5,-76 1395.91,-76 1399.14,-182.56 1448.75,-301 1487.62,-393.8 1504.91,-708.26 1509.47,-807.05"/>
<polygon fill="black" stroke="black" points="1505.97,-807.16 1509.92,-816.99 1512.96,-806.85 1505.97,-807.16"/>
</g>
<!-- k&#45;&gt;grammar -->
<g id="edge84" class="edge">
<title>k&#45;&gt;grammar</title>
<path fill="none" stroke="black" d="M904.74,-1285.8C920.11,-1266.08 943.73,-1233.1 957.25,-1201 1000.95,-1097.26 1019.93,-963.32 1026.54,-904.69"/>
<polygon fill="black" stroke="black" points="1030.01,-905.19 1027.61,-894.87 1023.05,-904.43 1030.01,-905.19"/>
</g>
<!-- k&#45;&gt;parse -->
<g id="edge85" class="edge">
<title>k&#45;&gt;parse</title>
<path fill="none" stroke="black" d="M916.05,-1310.56C929.37,-1314.83 945.24,-1321.41 957.25,-1331 1024.79,-1384.92 1034.68,-1411.16 1067.75,-1491 1123.39,-1625.32 1137.83,-1801.45 1141.45,-1870.46"/>
<polygon fill="black" stroke="black" points="1137.94,-1870.37 1141.92,-1880.19 1144.94,-1870.03 1137.94,-1870.37"/>
</g>
<!-- k&#45;&gt;sexp -->
<g id="edge86" class="edge">
<title>k&#45;&gt;sexp</title>
<path fill="none" stroke="black" d="M916.05,-1309.17C929.86,-1313.09 946.18,-1319.79 957.25,-1331 1000.67,-1374.97 1018.62,-1447.9 1025.54,-1488.47"/>
<polygon fill="black" stroke="black" points="1022.06,-1488.89 1027.08,-1498.22 1028.97,-1487.8 1022.06,-1488.89"/>
</g>
<!-- kernel -->
<g id="node28" class="node">
<title>kernel</title>
<polygon fill="none" stroke="black" points="614.38,-1772 557.12,-1772 557.12,-1736 614.38,-1736 614.38,-1772"/>
<text text-anchor="middle" x="585.75" y="-1749.7" font-family="sans-serif" font-size="14.00">kernel</text>
</g>
<!-- kernel&#45;&gt;hash -->
<g id="edge87" class="edge">
<title>kernel&#45;&gt;hash</title>
<path fill="none" stroke="black" d="M603.56,-1772.35C615.1,-1785.79 629.98,-1804.94 639.5,-1824 665.33,-1875.72 636.61,-1906.22 675.5,-1949 710.53,-1987.54 746,-1956.93 784.5,-1992 837.87,-2040.61 867.58,-2123.08 880.31,-2166.79"/>
<polygon fill="black" stroke="black" points="876.91,-2167.64 882.98,-2176.32 883.65,-2165.75 876.91,-2167.64"/>
</g>
<!-- kernel&#45;&gt;init -->
<g id="edge88" class="edge">
<title>kernel&#45;&gt;init</title>
<path fill="none" stroke="black" d="M591.24,-1735.68C611.73,-1652.15 696.4,-1306.92 721.78,-1203.44"/>
<polygon fill="black" stroke="black" points="725.16,-1204.34 724.15,-1193.79 718.36,-1202.67 725.16,-1204.34"/>
</g>
<!-- kernel&#45;&gt;object -->
<g id="edge89" class="edge">
<title>kernel&#45;&gt;object</title>
<path fill="none" stroke="black" d="M593.71,-1772.29C616.68,-1832.69 690.24,-2026.09 718.13,-2099.43"/>
<polygon fill="black" stroke="black" points="714.69,-2100.23 721.52,-2108.33 721.23,-2097.74 714.69,-2100.23"/>
</g>
<!-- kernel&#45;&gt;sexp -->
<g id="edge90" class="edge">
<title>kernel&#45;&gt;sexp</title>
<path fill="none" stroke="black" d="M605.31,-1735.53C622.1,-1720.11 648.28,-1699.09 675.5,-1689 793.27,-1645.34 853.49,-1737.78 957.25,-1667 997.79,-1639.35 1016.39,-1582.32 1024.28,-1547.39"/>
<polygon fill="black" stroke="black" points="1027.64,-1548.45 1026.26,-1537.95 1020.79,-1547.02 1027.64,-1548.45"/>
</g>
<!-- kernel&#45;&gt;store -->
<g id="edge91" class="edge">
<title>kernel&#45;&gt;store</title>
<path fill="none" stroke="black" d="M590.48,-1772.36C609.85,-1867.67 698.94,-2306.08 723,-2424.47"/>
<polygon fill="black" stroke="black" points="719.52,-2424.92 724.94,-2434.02 726.38,-2423.53 719.52,-2424.92"/>
</g>
<!-- kernel&#45;sat -->
<g id="node29" class="node">
<title>kernel&#45;sat</title>
<polygon fill="none" stroke="black" points="627.5,-1154 544,-1154 544,-1118 627.5,-1118 627.5,-1154"/>
<text text-anchor="middle" x="585.75" y="-1131.7" font-family="sans-serif" font-size="14.00">kernel&#45;sat</text>
</g>
<!-- kernel&#45;sat&#45;&gt;core -->
<g id="edge92" class="edge">
<title>kernel&#45;sat&#45;&gt;core</title>
<path fill="none" stroke="black" d="M627.89,-1140.99C671.9,-1143.95 741.21,-1141.41 784.5,-1104 824.7,-1069.26 781.65,-1026.25 820.5,-990 866.21,-947.34 911.26,-999.36 957.25,-957 994.78,-922.44 967.83,-892.24 993.25,-848 996,-843.21 999.38,-838.47 1002.95,-834.02"/>
<polygon fill="black" stroke="black" points="1005.56,-836.36 1009.43,-826.5 1000.25,-831.79 1005.56,-836.36"/>
</g>
<!-- kernel&#45;sat&#45;&gt;hol&#45;eval -->
<g id="edge93" class="edge">
<title>kernel&#45;sat&#45;&gt;hol&#45;eval</title>
<path fill="none" stroke="black" d="M591.07,-1117.68C600.89,-1078.86 627.83,-986.75 675.5,-924 712.83,-874.86 740.78,-881.55 784.5,-838 817.07,-805.56 849.16,-763.11 868.74,-735.69"/>
<polygon fill="black" stroke="black" points="871.58,-737.74 874.5,-727.56 865.86,-733.7 871.58,-737.74"/>
</g>
<!-- kernel&#45;sat&#45;&gt;init -->
<g id="edge94" class="edge">
<title>kernel&#45;sat&#45;&gt;init</title>
<path fill="none" stroke="black" d="M627.89,-1146.99C648.06,-1152.38 672.16,-1158.82 691.78,-1164.06"/>
<polygon fill="black" stroke="black" points="690.71,-1167.4 701.28,-1166.59 692.52,-1160.63 690.71,-1167.4"/>
</g>
<!-- sat -->
<g id="node55" class="node">
<title>sat</title>
<polygon fill="none" stroke="black" points="915.88,-1918 861.88,-1918 861.88,-1882 915.88,-1882 915.88,-1918"/>
<text text-anchor="middle" x="888.88" y="-1895.7" font-family="sans-serif" font-size="14.00">sat</text>
</g>
<!-- kernel&#45;sat&#45;&gt;sat -->
<g id="edge95" class="edge">
<title>kernel&#45;sat&#45;&gt;sat</title>
<path fill="none" stroke="black" d="M593.47,-1154.25C604.97,-1186.3 628.25,-1254.98 639.5,-1315 657.08,-1408.81 632.96,-1657.56 675.5,-1743 714.07,-1820.48 746.99,-1827.32 820.5,-1873 829.85,-1878.81 840.67,-1883.8 850.87,-1887.86"/>
<polygon fill="black" stroke="black" points="849.57,-1891.11 860.17,-1891.35 852.03,-1884.56 849.57,-1891.11"/>
</g>
<!-- kernel&#45;smt -->
<g id="node30" class="node">
<title>kernel&#45;smt</title>
<polygon fill="none" stroke="black" points="494.5,-592 406.5,-592 406.5,-556 494.5,-556 494.5,-592"/>
<text text-anchor="middle" x="450.5" y="-569.7" font-family="sans-serif" font-size="14.00">kernel&#45;smt</text>
</g>
<!-- kernel&#45;smt&#45;&gt;core -->
<g id="edge96" class="edge">
<title>kernel&#45;smt&#45;&gt;core</title>
<path fill="none" stroke="black" d="M494.7,-573.9C603.42,-574.46 884.79,-581.31 957.25,-636 1002.59,-670.22 1019.75,-738.39 1026.04,-777.53"/>
<polygon fill="black" stroke="black" points="1022.54,-777.78 1027.44,-787.18 1029.46,-776.78 1022.54,-777.78"/>
</g>
<!-- kernel&#45;smt&#45;&gt;hol&#45;api -->
<g id="edge97" class="edge">
<title>kernel&#45;smt&#45;&gt;hol&#45;api</title>
<path fill="none" stroke="black" d="M494.76,-559.07C510.42,-553.66 528.04,-547.58 543.52,-542.23"/>
<polygon fill="black" stroke="black" points="544.61,-545.56 552.92,-538.99 542.32,-538.94 544.61,-545.56"/>
</g>
<!-- kv -->
<g id="node31" class="node">
<title>kv</title>
<polygon fill="none" stroke="black" points="226.12,-2656 172.12,-2656 172.12,-2620 226.12,-2620 226.12,-2656"/>
<text text-anchor="middle" x="199.12" y="-2633.7" font-family="sans-serif" font-size="14.00">kv</text>
</g>
<!-- lean -->
<g id="node32" class="node">
<title>lean</title>
<polygon fill="none" stroke="black" points="87.5,-2566 33.5,-2566 33.5,-2530 87.5,-2530 87.5,-2566"/>
<text text-anchor="middle" x="60.5" y="-2543.7" font-family="sans-serif" font-size="14.00">lean</text>
</g>
<!-- lisp -->
<g id="node33" class="node">
<title>lisp</title>
<polygon fill="none" stroke="black" points="477.5,-1284 423.5,-1284 423.5,-1248 477.5,-1248 477.5,-1284"/>
<text text-anchor="middle" x="450.5" y="-1261.7" font-family="sans-serif" font-size="14.00">lisp</text>
</g>
<!-- lisp&#45;&gt;core -->
<g id="edge98" class="edge">
<title>lisp&#45;&gt;core</title>
<path fill="none" stroke="black" d="M456.38,-1247.58C466.41,-1211.91 491.87,-1131.9 532,-1075 544.52,-1057.25 800.33,-819.06 820.5,-811 876.87,-788.48 948.81,-793.68 991.9,-799.99"/>
<polygon fill="black" stroke="black" points="991.34,-803.45 1001.76,-801.54 992.42,-796.53 991.34,-803.45"/>
</g>
<!-- lisp&#45;&gt;hol&#45;api -->
<g id="edge99" class="edge">
<title>lisp&#45;&gt;hol&#45;api</title>
<path fill="none" stroke="black" d="M454.63,-1247.58C465.2,-1185.38 500.73,-977.48 532,-806 548.56,-715.18 569.24,-607.88 579.06,-557.25"/>
<polygon fill="black" stroke="black" points="582.44,-558.17 580.92,-547.68 575.57,-556.83 582.44,-558.17"/>
</g>
<!-- lisp&#45;&gt;hol&#45;eval -->
<g id="edge100" class="edge">
<title>lisp&#45;&gt;hol&#45;eval</title>
<path fill="none" stroke="black" d="M451.38,-1247.56C451.85,-1191.67 459.5,-1020.99 532,-907 603.88,-793.99 763.89,-739.33 842.5,-718.5"/>
<polygon fill="black" stroke="black" points="843.22,-721.93 852.03,-716.04 841.47,-715.15 843.22,-721.93"/>
</g>
<!-- lisp&#45;&gt;init -->
<g id="edge101" class="edge">
<title>lisp&#45;&gt;init</title>
<path fill="none" stroke="black" d="M477.89,-1265.53C515.35,-1263.98 585.41,-1257.82 639.5,-1234 658.05,-1225.83 658.77,-1217.45 675.5,-1206 681.05,-1202.2 687.06,-1198.36 692.98,-1194.73"/>
<polygon fill="black" stroke="black" points="694.69,-1197.78 701.45,-1189.62 691.08,-1191.78 694.69,-1197.78"/>
</g>
<!-- lisp&#45;&gt;repl&#45;core -->
<g id="edge102" class="edge">
<title>lisp&#45;&gt;repl&#45;core</title>
<path fill="none" stroke="black" d="M477.83,-1281.02C496.29,-1291.55 521.37,-1305.85 542.6,-1317.96"/>
<polygon fill="black" stroke="black" points="540.62,-1320.86 551.04,-1322.77 544.09,-1314.78 540.62,-1320.86"/>
</g>
<!-- lisp&#45;&gt;sexp -->
<g id="edge103" class="edge">
<title>lisp&#45;&gt;sexp</title>
<path fill="none" stroke="black" d="M456.51,-1284.19C471.14,-1336.69 513.91,-1485.58 532,-1499 604.37,-1552.68 888.85,-1531.52 991.94,-1521.83"/>
<polygon fill="black" stroke="black" points="992.18,-1525.32 1001.8,-1520.88 991.51,-1518.35 992.18,-1525.32"/>
</g>
<!-- sexpr&#45;api -->
<g id="node58" class="node">
<title>sexpr&#45;api</title>
<polygon fill="none" stroke="black" points="768.75,-340 691.25,-340 691.25,-304 768.75,-304 768.75,-340"/>
<text text-anchor="middle" x="730" y="-317.7" font-family="sans-serif" font-size="14.00">sexpr&#45;api</text>
</g>
<!-- lisp&#45;&gt;sexpr&#45;api -->
<g id="edge104" class="edge">
<title>lisp&#45;&gt;sexpr&#45;api</title>
<path fill="none" stroke="black" d="M453.09,-1247.65C462.92,-1134.57 515.61,-536.04 532,-501 570.81,-418.01 603.29,-409.39 675.5,-353 678.38,-350.75 681.43,-348.56 684.57,-346.44"/>
<polygon fill="black" stroke="black" points="686.31,-349.48 692.85,-341.15 682.54,-343.58 686.31,-349.48"/>
</g>
<!-- lisp&#45;&gt;types -->
<g id="edge105" class="edge">
<title>lisp&#45;&gt;types</title>
<path fill="none" stroke="black" d="M456.89,-1284.36C473.89,-1342.13 525.61,-1517.02 532,-1528 567.03,-1588.19 603.15,-1582.6 639.5,-1642 664.38,-1682.65 638.87,-1712.52 675.5,-1743 706.12,-1768.48 989.66,-1800 1029.5,-1800 1029.5,-1800 1029.5,-1800 1267.5,-1800 1366.67,-1800 1417.69,-1676.41 1448.75,-1594 1500.28,-1457.26 1509.06,-989.87 1510.48,-866.86"/>
<polygon fill="black" stroke="black" points="1513.98,-866.99 1510.59,-856.95 1506.98,-866.91 1513.98,-866.99"/>
</g>
<!-- llm -->
<g id="node34" class="node">
<title>llm</title>
<polygon fill="none" stroke="black" points="226.12,-2210 172.12,-2210 172.12,-2174 226.12,-2174 226.12,-2210"/>
<text text-anchor="middle" x="199.12" y="-2187.7" font-family="sans-serif" font-size="14.00">llm</text>
</g>
<!-- llm&#45;&gt;proto -->
<g id="edge106" class="edge">
<title>llm&#45;&gt;proto</title>
<path fill="none" stroke="black" d="M208.64,-2173.64C221.14,-2148 246.36,-2100.9 277.25,-2068 280.26,-2064.8 283.63,-2061.71 287.14,-2058.81"/>
<polygon fill="black" stroke="black" points="289.02,-2061.78 294.82,-2052.91 284.76,-2056.22 289.02,-2061.78"/>
</g>
<!-- lsp&#45;&gt;sexp -->
<g id="edge107" class="edge">
<title>lsp&#45;&gt;sexp</title>
<path fill="none" stroke="black" d="M903.24,-1827.66C917.99,-1806.78 941.71,-1771.23 957.25,-1738 987.92,-1672.43 1011.19,-1590.25 1022.3,-1547.28"/>
<polygon fill="black" stroke="black" points="1025.66,-1548.26 1024.73,-1537.71 1018.87,-1546.54 1025.66,-1548.26"/>
</g>
<!-- lsp&#45;&gt;wasm -->
<g id="edge108" class="edge">
<title>lsp&#45;&gt;wasm</title>
<path fill="none" stroke="black" d="M916.34,-1849.8C930.77,-1853.31 947.62,-1860.06 957.25,-1873 963.13,-1880.9 1015.01,-2498.42 1027.02,-2642.28"/>
<polygon fill="black" stroke="black" points="1023.52,-2642.44 1027.84,-2652.12 1030.5,-2641.86 1023.52,-2642.44"/>
</g>
<!-- metamath&#45;&gt;parse -->
<g id="edge109" class="edge">
<title>metamath&#45;&gt;parse</title>
<path fill="none" stroke="black" d="M907.65,-1658.28C951.61,-1703.5 1065.58,-1820.75 1116.91,-1873.54"/>
<polygon fill="black" stroke="black" points="1114.34,-1875.92 1123.82,-1880.65 1119.36,-1871.04 1114.34,-1875.92"/>
</g>
<!-- metamath&#45;&gt;sexp -->
<g id="edge110" class="edge">
<title>metamath&#45;&gt;sexp</title>
<path fill="none" stroke="black" d="M929.4,-1624.87C939.01,-1620.23 948.92,-1614.58 957.25,-1608 979.34,-1590.54 998.94,-1565.14 1012.14,-1545.77"/>
<polygon fill="black" stroke="black" points="1014.99,-1547.79 1017.6,-1537.52 1009.16,-1543.93 1014.99,-1547.79"/>
</g>
<!-- multiformat -->
<g id="node38" class="node">
<title>multiformat</title>
<polygon fill="none" stroke="black" points="775.12,-1940 684.88,-1940 684.88,-1904 775.12,-1904 775.12,-1940"/>
<text text-anchor="middle" x="730" y="-1917.7" font-family="sans-serif" font-size="14.00">multiformat</text>
</g>
<!-- multiformat&#45;&gt;acset -->
<g id="edge111" class="edge">
<title>multiformat&#45;&gt;acset</title>
<path fill="none" stroke="black" d="M775.53,-1931.08C799.14,-1935.9 827.82,-1941.75 850.29,-1946.33"/>
<polygon fill="black" stroke="black" points="849.43,-1949.73 859.93,-1948.3 850.83,-1942.87 849.43,-1949.73"/>
</g>
<!-- multiformat&#45;&gt;hash -->
<g id="edge112" class="edge">
<title>multiformat&#45;&gt;hash</title>
<path fill="none" stroke="black" d="M768.73,-1940.38C774.5,-1944.32 780.02,-1948.86 784.5,-1954 813.81,-1987.57 858.47,-2110.48 878.07,-2167.1"/>
<polygon fill="black" stroke="black" points="874.7,-2168.05 881.26,-2176.37 881.32,-2165.78 874.7,-2168.05"/>
</g>
<!-- multiformat&#45;&gt;parse -->
<g id="edge113" class="edge">
<title>multiformat&#45;&gt;parse</title>
<path fill="none" stroke="black" d="M775.5,-1939.54C778.62,-1941.25 781.65,-1943.07 784.5,-1945 803.23,-1957.7 799.59,-1972.34 820.5,-1981 876.65,-2004.26 897.76,-1993.43 957.25,-1981 1011.93,-1969.58 1070.22,-1941.08 1106.53,-1921.14"/>
<polygon fill="black" stroke="black" points="1107.81,-1924.43 1114.84,-1916.5 1104.4,-1918.31 1107.81,-1924.43"/>
</g>
<!-- numerals -->
<g id="node39" class="node">
<title>numerals</title>
<polygon fill="none" stroke="black" points="624.12,-952 547.38,-952 547.38,-916 624.12,-916 624.12,-952"/>
<text text-anchor="middle" x="585.75" y="-929.7" font-family="sans-serif" font-size="14.00">numerals</text>
</g>
<!-- numerals&#45;&gt;grammar -->
<g id="edge114" class="edge">
<title>numerals&#45;&gt;grammar</title>
<path fill="none" stroke="black" d="M624.31,-918.34C664.94,-900.82 731.07,-870.59 784.5,-838 801.57,-827.59 801.53,-817.32 820.5,-811 878.16,-791.78 900.42,-789.45 957.25,-811 967.92,-815.05 987.7,-832.92 1003.87,-848.75"/>
<polygon fill="black" stroke="black" points="1001.29,-851.12 1010.85,-855.69 1006.23,-846.16 1001.29,-851.12"/>
</g>
<!-- numerals&#45;&gt;hol&#45;eval -->
<g id="edge115" class="edge">
<title>numerals&#45;&gt;hol&#45;eval</title>
<path fill="none" stroke="black" d="M602.2,-915.58C618.78,-896.69 646.66,-867.4 675.5,-848 719.42,-818.45 744.79,-835.01 784.5,-800 807.83,-779.43 797.47,-760.9 820.5,-740 827.18,-733.94 835.2,-728.81 843.35,-724.56"/>
<polygon fill="black" stroke="black" points="844.78,-727.75 852.28,-720.28 841.75,-721.44 844.78,-727.75"/>
</g>
<!-- numerals&#45;&gt;init -->
<g id="edge116" class="edge">
<title>numerals&#45;&gt;init</title>
<path fill="none" stroke="black" d="M597.68,-952.43C622.4,-994.14 682.75,-1095.97 712.24,-1145.72"/>
<polygon fill="black" stroke="black" points="709.16,-1147.38 717.27,-1154.2 715.18,-1143.81 709.16,-1147.38"/>
</g>
<!-- numerals&#45;&gt;types -->
<g id="edge117" class="edge">
<title>numerals&#45;&gt;types</title>
<path fill="none" stroke="black" d="M596.4,-915.61C637.46,-840.12 805.88,-558 1029.5,-558 1029.5,-558 1029.5,-558 1267.5,-558 1360.37,-558 1389.26,-590.68 1448.75,-662 1484.52,-704.88 1500.27,-769.87 1506.72,-807.41"/>
<polygon fill="black" stroke="black" points="1503.23,-807.75 1508.26,-817.07 1510.14,-806.65 1503.23,-807.75"/>
</g>
<!-- object&#45;&gt;hash -->
<g id="edge118" class="edge">
<title>object&#45;&gt;hash</title>
<path fill="none" stroke="black" d="M759.05,-2140.16C784.76,-2151.3 822.99,-2167.88 851.13,-2180.07"/>
<polygon fill="black" stroke="black" points="849.42,-2183.15 859.99,-2183.91 852.21,-2176.72 849.42,-2183.15"/>
</g>
<!-- object&#45;&gt;parse -->
<g id="edge119" class="edge">
<title>object&#45;&gt;parse</title>
<path fill="none" stroke="black" d="M758.72,-2118.38C818.33,-2097 961.87,-2041.69 1067.75,-1970 1086.23,-1957.49 1104.57,-1940.44 1118.47,-1926.3"/>
<polygon fill="black" stroke="black" points="1120.65,-1929.09 1125.06,-1919.46 1115.6,-1924.23 1120.65,-1929.09"/>
</g>
<!-- opentheory&#45;&gt;core -->
<g id="edge120" class="edge">
<title>opentheory&#45;&gt;core</title>
<path fill="none" stroke="black" d="M496.17,-692.12C589.21,-657.98 807.52,-594.26 957.25,-681 993.04,-701.74 1012.63,-747.63 1022.09,-777.93"/>
<polygon fill="black" stroke="black" points="1018.64,-778.62 1024.8,-787.24 1025.36,-776.66 1018.64,-778.62"/>
</g>
<!-- opentheory&#45;&gt;hol -->
<g id="edge121" class="edge">
<title>opentheory&#45;&gt;hol</title>
<path fill="none" stroke="black" d="M496.15,-723.1C582.38,-748.39 770.38,-803.54 850.5,-827.04"/>
<polygon fill="black" stroke="black" points="849.48,-830.39 860.06,-829.84 851.45,-823.67 849.48,-830.39"/>
</g>
<!-- opentheory&#45;&gt;hol&#45;api -->
<g id="edge122" class="edge">
<title>opentheory&#45;&gt;hol&#45;api</title>
<path fill="none" stroke="black" d="M465.01,-691.55C488.62,-659.31 537.46,-592.59 564.91,-555.09"/>
<polygon fill="black" stroke="black" points="567.42,-557.59 570.51,-547.45 561.78,-553.45 567.42,-557.59"/>
</g>
<!-- opentheory&#45;&gt;hol&#45;eval -->
<g id="edge123" class="edge">
<title>opentheory&#45;&gt;hol&#45;eval</title>
<path fill="none" stroke="black" d="M496.15,-709.8C579.46,-709.41 757.78,-708.6 842.01,-708.21"/>
<polygon fill="black" stroke="black" points="842,-711.71 851.98,-708.16 841.96,-704.71 842,-711.71"/>
</g>
<!-- parquet -->
<g id="node42" class="node">
<title>parquet</title>
<polygon fill="none" stroke="black" points="484,-2168 417,-2168 417,-2132 484,-2132 484,-2168"/>
<text text-anchor="middle" x="450.5" y="-2145.7" font-family="sans-serif" font-size="14.00">parquet</text>
</g>
<!-- parquet&#45;&gt;arrow -->
<g id="edge124" class="edge">
<title>parquet&#45;&gt;arrow</title>
<path fill="none" stroke="black" d="M484.44,-2140.61C503.6,-2135.14 527.8,-2128.24 547.63,-2122.59"/>
<polygon fill="black" stroke="black" points="548.32,-2126.03 556.98,-2119.92 546.4,-2119.3 548.32,-2126.03"/>
</g>
<!-- parsing&#45;api&#45;&gt;logic&#45;api -->
<g id="edge125" class="edge">
<title>parsing&#45;api&#45;&gt;logic&#45;api</title>
<path fill="none" stroke="black" d="M935.21,-212.93C950.2,-217.87 966.92,-223.38 982.07,-228.37"/>
<polygon fill="black" stroke="black" points="980.74,-231.62 991.33,-231.43 982.93,-224.97 980.74,-231.62"/>
</g>
<!-- proptest -->
<g id="node45" class="node">
<title>proptest</title>
<polygon fill="none" stroke="black" points="95.88,-2620 25.12,-2620 25.12,-2584 95.88,-2584 95.88,-2620"/>
<text text-anchor="middle" x="60.5" y="-2597.7" font-family="sans-serif" font-size="14.00">proptest</text>
</g>
<!-- pure&#45;trusted -->
<g id="node49" class="node">
<title>pure&#45;trusted</title>
<polygon fill="#ffd6d6" stroke="black" points="1448.75,-794 1349.5,-794 1349.5,-758 1448.75,-758 1448.75,-794"/>
<text text-anchor="middle" x="1399.12" y="-771.7" font-family="sans-serif" font-size="14.00">pure&#45;trusted</text>
</g>
<!-- pure&#45;&gt;pure&#45;trusted -->
<g id="edge126" class="edge">
<title>pure&#45;&gt;pure&#45;trusted</title>
<path fill="none" stroke="black" d="M1293.93,-764.04C1306.65,-765.5 1322.46,-767.31 1337.89,-769.08"/>
<polygon fill="black" stroke="black" points="1337.17,-772.52 1347.51,-770.19 1337.97,-765.57 1337.17,-772.52"/>
</g>
<!-- pure&#45;eval&#45;&gt;pure -->
<g id="edge127" class="edge">
<title>pure&#45;eval&#45;&gt;pure</title>
<path fill="none" stroke="black" d="M1183.87,-729.93C1198.26,-735.41 1214.49,-741.59 1228.66,-746.98"/>
<polygon fill="black" stroke="black" points="1227.03,-750.11 1237.62,-750.39 1229.52,-743.56 1227.03,-750.11"/>
</g>
<!-- pure&#45;eval&#45;&gt;types -->
<g id="edge128" class="edge">
<title>pure&#45;eval&#45;&gt;types</title>
<path fill="none" stroke="black" d="M1183.8,-709.69C1244.96,-703.42 1364.84,-699.36 1448.75,-749 1471.66,-762.55 1488.26,-788.26 1498.49,-808.4"/>
<polygon fill="black" stroke="black" points="1495.26,-809.75 1502.73,-817.26 1501.57,-806.72 1495.26,-809.75"/>
</g>
<!-- pure&#45;trusted&#45;&gt;types -->
<g id="edge129" class="edge">
<title>pure&#45;trusted&#45;&gt;types</title>
<path fill="none" stroke="black" d="M1433.62,-794.47C1446.59,-801.62 1461.47,-809.83 1474.68,-817.11"/>
<polygon fill="black" stroke="black" points="1472.62,-819.97 1483.07,-821.74 1476,-813.84 1472.62,-819.97"/>
</g>
<!-- python -->
<g id="node50" class="node">
<title>python</title>
<polygon fill="none" stroke="black" points="91.38,-2458 29.62,-2458 29.62,-2422 91.38,-2422 91.38,-2458"/>
<text text-anchor="middle" x="60.5" y="-2435.7" font-family="sans-serif" font-size="14.00">python</text>
</g>
<!-- python&#45;&gt;crypto&#45;sig -->
<g id="edge130" class="edge">
<title>python&#45;&gt;crypto&#45;sig</title>
<path fill="none" stroke="black" d="M91.85,-2447.41C102.57,-2451.5 113.75,-2457.7 121,-2467 173.85,-2534.78 112.78,-2586.26 158.39,-2663.96"/>
<polygon fill="black" stroke="black" points="155.37,-2665.73 163.68,-2672.29 161.27,-2661.97 155.37,-2665.73"/>
</g>
<!-- python&#45;&gt;git -->
<g id="edge131" class="edge">
<title>python&#45;&gt;git</title>
<path fill="none" stroke="black" d="M91.62,-2436.74C161.65,-2429.16 335.28,-2410.36 412.01,-2402.06"/>
<polygon fill="black" stroke="black" points="411.96,-2405.58 421.53,-2401.03 411.21,-2398.62 411.96,-2405.58"/>
</g>
<!-- python&#45;&gt;graph -->
<g id="edge132" class="edge">
<title>python&#45;&gt;graph</title>
<path fill="none" stroke="black" d="M91.69,-2448.31C102.13,-2452.47 113.17,-2458.48 121,-2467 153.26,-2502.08 121.75,-2535.93 157,-2568 194.36,-2601.99 341.42,-2626.76 411.7,-2636.92"/>
<polygon fill="black" stroke="black" points="411.2,-2640.38 421.59,-2638.32 412.18,-2633.45 411.2,-2640.38"/>
</g>
<!-- python&#45;&gt;hash -->
<g id="edge133" class="edge">
<title>python&#45;&gt;hash</title>
<path fill="none" stroke="black" d="M91.69,-2446.67C214.23,-2473 673.14,-2564.33 784.5,-2481 867.1,-2419.19 883.81,-2284.97 887.11,-2225.45"/>
<polygon fill="black" stroke="black" points="890.59,-2225.91 887.55,-2215.77 883.6,-2225.6 890.59,-2225.91"/>
</g>
<!-- python&#45;&gt;kv -->
<g id="edge134" class="edge">
<title>python&#45;&gt;kv</title>
<path fill="none" stroke="black" d="M91.8,-2447.82C102.38,-2451.94 113.48,-2458.06 121,-2467 162.07,-2515.85 121.95,-2552.67 157,-2606 158.82,-2608.76 160.95,-2611.39 163.28,-2613.86"/>
<polygon fill="black" stroke="black" points="160.91,-2616.43 170.63,-2620.63 165.65,-2611.28 160.91,-2616.43"/>
</g>
<!-- python&#45;&gt;llm -->
<g id="edge135" class="edge">
<title>python&#45;&gt;llm</title>
<path fill="none" stroke="black" d="M66.29,-2421.62C77.23,-2382.21 107.04,-2287.99 157,-2224 158.98,-2221.46 161.21,-2219.01 163.58,-2216.67"/>
<polygon fill="black" stroke="black" points="165.72,-2219.44 170.87,-2210.18 161.07,-2214.21 165.72,-2219.44"/>
</g>
<!-- python&#45;&gt;object -->
<g id="edge136" class="edge">
<title>python&#45;&gt;object</title>
<path fill="none" stroke="black" d="M77.37,-2421.67C96.04,-2400.27 128.15,-2363.99 157,-2334 193.23,-2296.35 213.77,-2296.45 241.25,-2252 268.97,-2207.17 241.98,-2178.17 277.25,-2139 287.62,-2127.48 389.94,-2086.65 405,-2083 506.34,-2058.41 538.92,-2047.45 639.5,-2075 640.27,-2075.21 667.2,-2091.18 691.32,-2105.54"/>
<polygon fill="black" stroke="black" points="689.37,-2108.45 699.75,-2110.56 692.95,-2102.43 689.37,-2108.45"/>
</g>
<!-- python&#45;&gt;repl -->
<g id="edge137" class="edge">
<title>python&#45;&gt;repl</title>
<path fill="none" stroke="black" d="M91.55,-2428.76C130.49,-2412.89 198.47,-2380.54 241.25,-2334 278.91,-2293.03 302.46,-2231.34 313.87,-2195.22"/>
<polygon fill="black" stroke="black" points="317.14,-2196.48 316.71,-2185.9 310.44,-2194.44 317.14,-2196.48"/>
</g>
<!-- python&#45;&gt;sat -->
<g id="edge138" class="edge">
<title>python&#45;&gt;sat</title>
<path fill="none" stroke="black" d="M66.1,-2421.52C76.26,-2384.38 104.01,-2300.1 157,-2252 186.78,-2224.97 214.1,-2248.67 241.25,-2219 279.7,-2176.98 238.21,-2137.48 277.25,-2096 306.95,-2064.44 329.49,-2080.8 369,-2063 510.63,-1999.18 525.01,-1933.54 675.5,-1895 735.1,-1879.74 807.2,-1886.49 850.21,-1893.05"/>
<polygon fill="black" stroke="black" points="849.61,-1896.49 860.04,-1894.63 850.72,-1889.58 849.61,-1896.49"/>
</g>
<!-- python&#45;&gt;serve -->
<g id="edge139" class="edge">
<title>python&#45;&gt;serve</title>
<path fill="none" stroke="black" d="M67.11,-2421.52C88.26,-2351.86 163.27,-2104.79 189.22,-2019.34"/>
<polygon fill="black" stroke="black" points="192.55,-2020.42 192.1,-2009.83 185.85,-2018.39 192.55,-2020.42"/>
</g>
<!-- python&#45;&gt;sexp -->
<g id="edge140" class="edge">
<title>python&#45;&gt;sexp</title>
<path fill="none" stroke="black" d="M63.64,-2421.54C76.02,-2315.36 138.49,-1786.06 157,-1757 354.85,-1446.38 599.7,-1630.26 957.25,-1542 968.8,-1539.15 981.16,-1535.34 992.33,-1531.59"/>
<polygon fill="black" stroke="black" points="993.28,-1534.96 1001.6,-1528.4 991,-1528.34 993.28,-1534.96"/>
</g>
<!-- python&#45;&gt;shell -->
<g id="edge141" class="edge">
<title>python&#45;&gt;shell</title>
<path fill="none" stroke="black" d="M63.38,-2421.79C70.4,-2357.53 97.71,-2135.97 157,-1963 195.81,-1849.76 187.79,-1801.54 277.25,-1722 297.63,-1703.88 368.05,-1682.2 412.3,-1669.87"/>
<polygon fill="black" stroke="black" points="413.03,-1673.3 421.74,-1667.27 411.17,-1666.55 413.03,-1673.3"/>
</g>
<!-- python&#45;&gt;store -->
<g id="edge142" class="edge">
<title>python&#45;&gt;store</title>
<path fill="none" stroke="black" d="M91.81,-2453.64C159.18,-2483.9 315.93,-2554 322.12,-2554 322.12,-2554 322.12,-2554 451.5,-2554 535.73,-2554 565.82,-2570.83 639.5,-2530 661.6,-2517.75 656.37,-2502.51 675.5,-2486 680.88,-2481.36 687.01,-2476.99 693.16,-2473.07"/>
<polygon fill="black" stroke="black" points="694.69,-2476.24 701.44,-2468.07 691.07,-2470.24 694.69,-2476.24"/>
</g>
<!-- python&#45;&gt;wasm -->
<g id="edge143" class="edge">
<title>python&#45;&gt;wasm</title>
<path fill="none" stroke="black" d="M91.81,-2447.09C102.66,-2451.14 113.94,-2457.41 121,-2467 197.23,-2570.51 82.58,-2649.17 157,-2754 204.43,-2820.82 240.19,-2836 322.12,-2836 322.12,-2836 322.12,-2836 731,-2836 832.12,-2836 878.54,-2875.48 957.25,-2812 996.96,-2779.97 964.82,-2745.36 993.25,-2703 994.3,-2701.44 995.44,-2699.91 996.66,-2698.43"/>
<polygon fill="black" stroke="black" points="998.9,-2701.15 1003.23,-2691.48 993.82,-2696.34 998.9,-2701.15"/>
</g>
<!-- wasm&#45;store -->
<g id="node70" class="node">
<title>wasm&#45;store</title>
<polygon fill="none" stroke="black" points="633.12,-2732 538.38,-2732 538.38,-2696 633.12,-2696 633.12,-2732"/>
<text text-anchor="middle" x="585.75" y="-2709.7" font-family="sans-serif" font-size="14.00">wasm&#45;store</text>
</g>
<!-- python&#45;&gt;wasm&#45;store -->
<g id="edge144" class="edge">
<title>python&#45;&gt;wasm&#45;store</title>
<path fill="none" stroke="black" d="M91.72,-2447.15C102.56,-2451.22 113.85,-2457.47 121,-2467 188.87,-2557.52 71.53,-2644.87 157,-2719 260.41,-2808.69 436.64,-2766.64 527.23,-2736.06"/>
<polygon fill="black" stroke="black" points="528.37,-2739.37 536.68,-2732.79 526.09,-2732.75 528.37,-2739.37"/>
</g>
<!-- regex&#45;parsing -->
<g id="node52" class="node">
<title>regex&#45;parsing</title>
<polygon fill="none" stroke="black" points="784.5,-286 675.5,-286 675.5,-250 784.5,-250 784.5,-286"/>
<text text-anchor="middle" x="730" y="-263.7" font-family="sans-serif" font-size="14.00">regex&#45;parsing</text>
</g>
<!-- regex&#45;parsing&#45;&gt;grammar -->
<g id="edge145" class="edge">
<title>regex&#45;parsing&#45;&gt;grammar</title>
<path fill="none" stroke="black" d="M784.85,-284.85C851.71,-305.78 957.08,-338.78 957.25,-339 1025.71,-425.47 950.47,-732.34 993.25,-834 995.35,-838.99 998.31,-843.79 1001.65,-848.24"/>
<polygon fill="black" stroke="black" points="998.78,-850.26 1007.89,-855.67 1004.13,-845.76 998.78,-850.26"/>
</g>
<!-- regex&#45;parsing&#45;&gt;logic&#45;api -->
<g id="edge146" class="edge">
<title>regex&#45;parsing&#45;&gt;logic&#45;api</title>
<path fill="none" stroke="black" d="M784.71,-263.68C840.85,-259.17 928.1,-252.15 981.86,-247.83"/>
<polygon fill="black" stroke="black" points="981.93,-251.34 991.62,-247.05 981.37,-244.36 981.93,-251.34"/>
</g>
<!-- regex&#45;parsing&#45;&gt;parsing&#45;api -->
<g id="edge147" class="edge">
<title>regex&#45;parsing&#45;&gt;parsing&#45;api</title>
<path fill="none" stroke="black" d="M772.22,-249.61C791.86,-240.84 815.57,-230.26 836.39,-220.97"/>
<polygon fill="black" stroke="black" points="837.57,-224.28 845.28,-217.01 834.72,-217.89 837.57,-224.28"/>
</g>
<!-- repl&#45;&gt;arrow -->
<g id="edge148" class="edge">
<title>repl&#45;&gt;arrow</title>
<path fill="none" stroke="black" d="M350.59,-2148.2C365.82,-2138.94 385.72,-2128.44 405,-2123 452.65,-2109.56 510.13,-2108.54 547.05,-2109.71"/>
<polygon fill="black" stroke="black" points="546.63,-2113.2 556.76,-2110.1 546.91,-2106.21 546.63,-2113.2"/>
</g>
<!-- repl&#45;&gt;forsp -->
<g id="edge149" class="edge">
<title>repl&#45;&gt;forsp</title>
<path fill="none" stroke="black" d="M334.14,-2147.62C344.63,-2127.48 360.72,-2093.9 369,-2063 405.72,-1926.04 333.29,-1868.33 405,-1746 407.44,-1741.84 410.65,-1738.08 414.24,-1734.72"/>
<polygon fill="black" stroke="black" points="416.31,-1737.54 421.92,-1728.54 411.93,-1732.08 416.31,-1737.54"/>
</g>
<!-- repl&#45;&gt;git -->
<g id="edge150" class="edge">
<title>repl&#45;&gt;git</title>
<path fill="none" stroke="black" d="M328.4,-2184.28C337.62,-2220.86 362.08,-2304.47 405,-2362 407.87,-2365.85 411.25,-2369.54 414.84,-2372.97"/>
<polygon fill="black" stroke="black" points="412.49,-2375.57 422.31,-2379.52 417.1,-2370.3 412.49,-2375.57"/>
</g>
<!-- repl&#45;&gt;graph -->
<g id="edge151" class="edge">
<title>repl&#45;&gt;graph</title>
<path fill="none" stroke="black" d="M328.96,-2184.37C348.06,-2256.89 418.33,-2523.67 441.81,-2612.79"/>
<polygon fill="black" stroke="black" points="438.36,-2613.44 444.29,-2622.22 445.13,-2611.66 438.36,-2613.44"/>
</g>
<!-- repl&#45;&gt;hash -->
<g id="edge152" class="edge">
<title>repl&#45;&gt;hash</title>
<path fill="none" stroke="black" d="M350.28,-2170.2C366.08,-2172.58 386.65,-2175.39 405,-2177 570.32,-2191.46 768.46,-2194.92 849.99,-2195.74"/>
<polygon fill="black" stroke="black" points="849.84,-2199.24 859.87,-2195.83 849.9,-2192.24 849.84,-2199.24"/>
</g>
<!-- repl&#45;&gt;init -->
<g id="edge153" class="edge">
<title>repl&#45;&gt;init</title>
<path fill="none" stroke="black" d="M332.26,-2147.85C341.41,-2127.34 356.59,-2092.91 369,-2063 427.95,-1920.9 458.18,-1890.12 496,-1741 528.58,-1612.54 464.07,-1558.79 532,-1445 561.99,-1394.76 606.25,-1417.15 639.5,-1369 675.77,-1316.49 644.46,-1285.76 675.5,-1230 681.5,-1219.23 690.06,-1208.99 698.59,-1200.28"/>
<polygon fill="black" stroke="black" points="700.84,-1202.97 705.57,-1193.49 695.96,-1197.95 700.84,-1202.97"/>
</g>
<!-- repl&#45;&gt;object -->
<g id="edge154" class="edge">
<title>repl&#45;&gt;object</title>
<path fill="none" stroke="black" d="M350.36,-2147.57C356.51,-2143.17 363.01,-2138.46 369,-2134 385.26,-2121.89 386.43,-2114.13 405,-2106 457.41,-2083.07 474.98,-2089.68 532,-2085 579.62,-2081.09 592.92,-2074.39 639.5,-2085 657.42,-2089.08 675.95,-2097.23 691.46,-2105.34"/>
<polygon fill="black" stroke="black" points="689.39,-2108.2 699.85,-2109.9 692.73,-2102.05 689.39,-2108.2"/>
</g>
<!-- repl&#45;&gt;parquet -->
<g id="edge155" class="edge">
<title>repl&#45;&gt;parquet</title>
<path fill="none" stroke="black" d="M350.41,-2162.65C366.27,-2160.62 386.89,-2157.99 405.21,-2155.65"/>
<polygon fill="black" stroke="black" points="405.57,-2159.13 415.05,-2154.4 404.68,-2152.19 405.57,-2159.13"/>
</g>
<!-- repl&#45;&gt;shell -->
<g id="edge156" class="edge">
<title>repl&#45;&gt;shell</title>
<path fill="none" stroke="black" d="M334.24,-2147.65C344.82,-2127.53 360.99,-2093.97 369,-2063 390.02,-1981.74 360.38,-1758.1 405,-1687 407.36,-1683.23 410.46,-1679.92 413.93,-1677.02"/>
<polygon fill="black" stroke="black" points="415.63,-1680.09 421.84,-1671.51 411.64,-1674.35 415.63,-1680.09"/>
</g>
<!-- repl&#45;&gt;wasm -->
<g id="edge157" class="edge">
<title>repl&#45;&gt;wasm</title>
<path fill="none" stroke="black" d="M348.61,-2184.42C386.69,-2212.64 462.93,-2267.47 532,-2307 639.84,-2368.72 680.19,-2359.5 784.5,-2427 869.14,-2481.77 888.49,-2500.27 957.25,-2574 977.82,-2596.05 997.9,-2623.96 1011.65,-2644.35"/>
<polygon fill="black" stroke="black" points="1008.57,-2646.05 1017.02,-2652.43 1014.4,-2642.17 1008.57,-2646.05"/>
</g>
<!-- sat&#45;&gt;parse -->
<g id="edge158" class="edge">
<title>sat&#45;&gt;parse</title>
<path fill="none" stroke="black" d="M915.97,-1900C960.9,-1900 1053.04,-1900 1104.94,-1900"/>
<polygon fill="black" stroke="black" points="1104.78,-1903.5 1114.78,-1900 1104.78,-1896.5 1104.78,-1903.5"/>
</g>
<!-- sat&#45;&gt;types -->
<g id="edge159" class="edge">
<title>sat&#45;&gt;types</title>
<path fill="none" stroke="black" d="M916.04,-1890.59C961.5,-1875.12 1058.27,-1846 1142.62,-1846 1142.62,-1846 1142.62,-1846 1267.5,-1846 1349.3,-1846 1394.22,-1874.97 1448.75,-1814 1513.35,-1741.77 1512.06,-1022.77 1511,-866.76"/>
<polygon fill="black" stroke="black" points="1514.5,-866.84 1510.93,-856.87 1507.5,-866.89 1514.5,-866.84"/>
</g>
<!-- sat&#45;&gt;wasm -->
<g id="edge160" class="edge">
<title>sat&#45;&gt;wasm</title>
<path fill="none" stroke="black" d="M916.31,-1903.82C930.73,-1907.34 947.58,-1914.09 957.25,-1927 968.21,-1941.62 1015.7,-2505.84 1027.05,-2642.44"/>
<polygon fill="black" stroke="black" points="1023.54,-2642.43 1027.86,-2652.11 1030.52,-2641.85 1023.54,-2642.43"/>
</g>
<!-- serve&#45;&gt;core -->
<g id="edge161" class="edge">
<title>serve&#45;&gt;core</title>
<path fill="none" stroke="black" d="M202.29,-1971.69C208.29,-1926.15 228.06,-1805.21 277.25,-1718 297.63,-1681.86 500.75,-1472.28 532,-1445 576.08,-1406.52 606.08,-1417.03 639.5,-1369 674.97,-1318.03 632.33,-1278.64 675.5,-1234 710.69,-1197.62 749.31,-1237.38 784.5,-1201 827.67,-1156.36 776.82,-1110.14 820.5,-1066 864.87,-1021.16 914.32,-1074.22 957.25,-1028 1012.78,-968.23 956.98,-921.08 993.25,-848 995.66,-843.15 998.79,-838.43 1002.21,-834.01"/>
<polygon fill="black" stroke="black" points="1004.69,-836.5 1008.49,-826.61 999.35,-831.97 1004.69,-836.5"/>
</g>
<!-- serve&#45;&gt;forsp -->
<g id="edge162" class="edge">
<title>serve&#45;&gt;forsp</title>
<path fill="none" stroke="black" d="M226.31,-1973.53C231.86,-1969.05 237.24,-1963.81 241.25,-1958 272.15,-1913.22 241.56,-1882.06 277.25,-1841 306.79,-1807.01 334.61,-1827.07 369,-1798 390.47,-1779.85 385.3,-1766.05 405,-1746 407.9,-1743.04 411.11,-1740.17 414.43,-1737.43"/>
<polygon fill="black" stroke="black" points="416.38,-1740.34 422.15,-1731.46 412.1,-1734.8 416.38,-1740.34"/>
</g>
<!-- serve&#45;&gt;git -->
<g id="edge163" class="edge">
<title>serve&#45;&gt;git</title>
<path fill="none" stroke="black" d="M204.23,-2008.35C216.05,-2060.2 250.97,-2206.68 277.25,-2248 296.12,-2277.68 371.54,-2338.25 416.08,-2372.65"/>
<polygon fill="black" stroke="black" points="413.83,-2375.33 423.89,-2378.65 418.09,-2369.78 413.83,-2375.33"/>
</g>
<!-- serve&#45;&gt;hash -->
<g id="edge164" class="edge">
<title>serve&#45;&gt;hash</title>
<path fill="none" stroke="black" d="M208.45,-2008.23C217.09,-2027.4 230.78,-2058.56 241.25,-2086 259.14,-2132.88 240.2,-2159.17 277.25,-2193 335.37,-2246.06 370.81,-2234 449.5,-2234 449.5,-2234 449.5,-2234 586.75,-2234 682.19,-2234 793.31,-2214.98 850.15,-2203.85"/>
<polygon fill="black" stroke="black" points="850.82,-2207.29 859.95,-2201.9 849.46,-2200.42 850.82,-2207.29"/>
</g>
<!-- serve&#45;&gt;init -->
<g id="edge165" class="edge">
<title>serve&#45;&gt;init</title>
<path fill="none" stroke="black" d="M201.68,-1971.77C206.63,-1920.05 224.92,-1768.83 277.25,-1656 282.22,-1645.27 522.94,-1322.59 532,-1315 572.99,-1280.66 599.6,-1296.59 639.5,-1261 661.3,-1241.55 654.43,-1226.24 675.5,-1206 680.67,-1201.03 686.76,-1196.49 692.93,-1192.49"/>
<polygon fill="black" stroke="black" points="694.53,-1195.61 701.29,-1187.44 690.92,-1189.61 694.53,-1195.61"/>
</g>
<!-- serve&#45;&gt;lisp -->
<g id="edge166" class="edge">
<title>serve&#45;&gt;lisp</title>
<path fill="none" stroke="black" d="M202.26,-1971.76C209.01,-1917 232.19,-1749.67 277.25,-1618 320.48,-1491.69 398.63,-1352.21 432.78,-1293.96"/>
<polygon fill="black" stroke="black" points="435.6,-1296.06 437.67,-1285.67 429.57,-1292.5 435.6,-1296.06"/>
</g>
<!-- serve&#45;&gt;metamath -->
<g id="edge167" class="edge">
<title>serve&#45;&gt;metamath</title>
<path fill="none" stroke="black" d="M226.44,-1978.14C260.93,-1961.95 322.5,-1930.83 369,-1895 451.41,-1831.51 444.99,-1784.03 532,-1727 588.99,-1689.64 609.59,-1690.32 675.5,-1673 729.71,-1658.75 793.43,-1649.86 836.83,-1644.95"/>
<polygon fill="black" stroke="black" points="837.17,-1648.43 846.73,-1643.86 836.41,-1641.47 837.17,-1648.43"/>
</g>
<!-- serve&#45;&gt;object -->
<g id="edge168" class="edge">
<title>serve&#45;&gt;object</title>
<path fill="none" stroke="black" d="M226.59,-1987.95C311.03,-1981.92 572.38,-1967.51 639.5,-2014 672.22,-2036.67 649.17,-2066.15 675.5,-2096 679.99,-2101.1 685.5,-2105.62 691.26,-2109.54"/>
<polygon fill="black" stroke="black" points="689.4,-2112.51 699.75,-2114.77 693.07,-2106.55 689.4,-2112.51"/>
</g>
<!-- serve&#45;&gt;proto -->
<g id="edge169" class="edge">
<title>serve&#45;&gt;proto</title>
<path fill="none" stroke="black" d="M226.6,-1999.98C243.7,-2006.43 266.21,-2014.92 285.08,-2022.03"/>
<polygon fill="black" stroke="black" points="283.7,-2025.25 294.29,-2025.5 286.17,-2018.7 283.7,-2025.25"/>
</g>
<!-- serve&#45;&gt;repl -->
<g id="edge170" class="edge">
<title>serve&#45;&gt;repl</title>
<path fill="none" stroke="black" d="M212.72,-2008.17C234.18,-2039.13 277.95,-2102.27 303.14,-2138.61"/>
<polygon fill="black" stroke="black" points="299.98,-2140.19 308.55,-2146.42 305.73,-2136.21 299.98,-2140.19"/>
</g>
<!-- serve&#45;&gt;shell -->
<g id="edge171" class="edge">
<title>serve&#45;&gt;shell</title>
<path fill="none" stroke="black" d="M226.21,-1974.09C231.9,-1969.53 237.37,-1964.11 241.25,-1958 280.3,-1896.46 239.14,-1860.13 277.25,-1798 304.93,-1752.86 329.6,-1757.37 369,-1722 385.61,-1707.09 387.35,-1700.65 405,-1687 407.86,-1684.79 410.91,-1682.61 414.03,-1680.51"/>
<polygon fill="black" stroke="black" points="415.63,-1683.63 422.16,-1675.28 411.85,-1677.74 415.63,-1683.63"/>
</g>
<!-- serve&#45;&gt;store -->
<g id="edge172" class="edge">
<title>serve&#45;&gt;store</title>
<path fill="none" stroke="black" d="M204.46,-2008.38C220.17,-2074.88 273.36,-2299.36 277.25,-2306 316.48,-2372.94 334.72,-2392.12 405,-2425 500.39,-2469.63 628.73,-2464.63 691.4,-2458.62"/>
<polygon fill="black" stroke="black" points="691.58,-2462.12 701.17,-2457.61 690.86,-2455.16 691.58,-2462.12"/>
</g>
<!-- sexp&#45;&gt;parse -->
<g id="edge173" class="edge">
<title>sexp&#45;&gt;parse</title>
<path fill="none" stroke="black" d="M1036.86,-1536.42C1054.72,-1597.82 1112.31,-1795.8 1134.14,-1870.82"/>
<polygon fill="black" stroke="black" points="1130.74,-1871.68 1136.9,-1880.31 1137.46,-1869.73 1130.74,-1871.68"/>
</g>
<!-- sexp&#45;&gt;types -->
<g id="edge174" class="edge">
<title>sexp&#45;&gt;types</title>
<path fill="none" stroke="black" d="M1057.87,-1517.45C1132.89,-1514.34 1348.48,-1494.31 1448.75,-1368 1510.93,-1289.67 1512.36,-966.9 1511.25,-866.77"/>
<polygon fill="black" stroke="black" points="1514.76,-866.9 1511.13,-856.95 1507.76,-866.99 1514.76,-866.9"/>
</g>
<!-- sexpr&#45;api&#45;&gt;inductive -->
<g id="edge175" class="edge">
<title>sexpr&#45;api&#45;&gt;inductive</title>
<path fill="none" stroke="black" d="M768.98,-332.65C790.07,-338.57 816.55,-346 839.17,-352.34"/>
<polygon fill="black" stroke="black" points="838.22,-355.71 848.79,-355.04 840.11,-348.97 838.22,-355.71"/>
</g>
<!-- sexpr&#45;parsing -->
<g id="node59" class="node">
<title>sexpr&#45;parsing</title>
<polygon fill="none" stroke="black" points="639.5,-263 532,-263 532,-227 639.5,-227 639.5,-263"/>
<text text-anchor="middle" x="585.75" y="-240.7" font-family="sans-serif" font-size="14.00">sexpr&#45;parsing</text>
</g>
<!-- sexpr&#45;parsing&#45;&gt;logic&#45;api -->
<g id="edge176" class="edge">
<title>sexpr&#45;parsing&#45;&gt;logic&#45;api</title>
<path fill="none" stroke="black" d="M589.23,-226.79C595.56,-188.29 616.25,-99.11 675.5,-62 782.58,5.08 857.52,-22.42 957.25,-100 994.28,-128.81 1013.8,-181.68 1022.86,-214.72"/>
<polygon fill="black" stroke="black" points="1019.38,-215.23 1025.26,-224.04 1026.16,-213.48 1019.38,-215.23"/>
</g>
<!-- sexpr&#45;parsing&#45;&gt;parsing&#45;api -->
<g id="edge177" class="edge">
<title>sexpr&#45;parsing&#45;&gt;parsing&#45;api</title>
<path fill="none" stroke="black" d="M607.21,-226.61C624.15,-212.7 649.57,-194.72 675.5,-187 726.82,-171.72 788.16,-177.28 831.69,-184.98"/>
<polygon fill="black" stroke="black" points="830.95,-188.4 841.43,-186.8 832.24,-181.52 830.95,-188.4"/>
</g>
<!-- sexpr&#45;parsing&#45;&gt;sexp -->
<g id="edge178" class="edge">
<title>sexpr&#45;parsing&#45;&gt;sexp</title>
<path fill="none" stroke="black" d="M591.24,-263.33C614.01,-356.71 718.28,-789.16 784.5,-1147 794.23,-1199.6 784.35,-1345.57 820.5,-1385 862.75,-1431.08 905.33,-1383.17 957.25,-1418 983.81,-1435.82 1003.97,-1466.88 1016.16,-1489.67"/>
<polygon fill="black" stroke="black" points="1012.98,-1491.14 1020.65,-1498.44 1019.21,-1487.95 1012.98,-1491.14"/>
</g>
<!-- sexpr&#45;parsing&#45;&gt;sexpr&#45;api -->
<g id="edge179" class="edge">
<title>sexpr&#45;parsing&#45;&gt;sexpr&#45;api</title>
<path fill="none" stroke="black" d="M618.6,-263.41C635.42,-273.01 656.47,-284.84 675.5,-295 677.58,-296.11 679.71,-297.23 681.87,-298.36"/>
<polygon fill="black" stroke="black" points="680.21,-301.45 690.7,-302.93 683.43,-295.23 680.21,-301.45"/>
</g>
<!-- shell&#45;&gt;hol -->
<g id="edge180" class="edge">
<title>shell&#45;&gt;hol</title>
<path fill="none" stroke="black" d="M453.56,-1641.76C464.15,-1548.52 512.79,-1128.67 532,-1109 611.54,-1027.56 703.8,-1146.29 784.5,-1066 850.08,-1000.76 760.35,-931.28 820.5,-861 828.15,-852.06 839.44,-846.58 850.6,-843.24"/>
<polygon fill="black" stroke="black" points="851.22,-846.69 860.1,-840.91 849.55,-839.89 851.22,-846.69"/>
</g>
<!-- shell&#45;&gt;kernel -->
<g id="edge181" class="edge">
<title>shell&#45;&gt;kernel</title>
<path fill="none" stroke="black" d="M477.57,-1674.47C483.79,-1678.28 490.28,-1682.58 496,-1687 513.65,-1700.65 514.35,-1708.35 532,-1722 536.82,-1725.73 542.1,-1729.38 547.4,-1732.8"/>
<polygon fill="black" stroke="black" points="545.24,-1735.58 555.58,-1737.89 548.94,-1729.64 545.24,-1735.58"/>
</g>
<!-- smt&#45;&gt;sat -->
<g id="edge182" class="edge">
<title>smt&#45;&gt;sat</title>
<path fill="none" stroke="black" d="M747.17,-1734.37C758.6,-1747.97 773.74,-1767.31 784.5,-1786 805.38,-1822.26 790.75,-1843.58 820.5,-1873 828.83,-1881.24 840,-1887.06 850.85,-1891.12"/>
<polygon fill="black" stroke="black" points="849.44,-1894.34 860.03,-1894.16 851.64,-1887.7 849.44,-1894.34"/>
</g>
<!-- smt&#45;&gt;sexp -->
<g id="edge183" class="edge">
<title>smt&#45;&gt;sexp</title>
<path fill="none" stroke="black" d="M757.4,-1722.39C802.99,-1731.79 897.35,-1743.84 957.25,-1700 1006.44,-1664 1022.17,-1589.15 1027.18,-1547.53"/>
<polygon fill="black" stroke="black" points="1030.64,-1548.06 1028.21,-1537.75 1023.68,-1547.33 1030.64,-1548.06"/>
</g>
<!-- smt&#45;&gt;types -->
<g id="edge184" class="edge">
<title>smt&#45;&gt;types</title>
<path fill="none" stroke="black" d="M757.15,-1722.79C808.81,-1735.58 927.78,-1762 1029.5,-1762 1029.5,-1762 1029.5,-1762 1267.5,-1762 1439.13,-1762 1398.49,-1585.11 1448.75,-1421 1481.1,-1315.37 1503.1,-970.14 1509.1,-866.61"/>
<polygon fill="black" stroke="black" points="1512.59,-866.91 1509.67,-856.72 1505.6,-866.51 1512.59,-866.91"/>
</g>
<!-- spectec&#45;&gt;grammar -->
<g id="edge185" class="edge">
<title>spectec&#45;&gt;grammar</title>
<path fill="none" stroke="black" d="M923.8,-1164.48C935.88,-1159.56 948.62,-1152.34 957.25,-1142 1015.94,-1071.73 1027.28,-958.04 1029.25,-904.58"/>
<polygon fill="black" stroke="black" points="1032.75,-904.83 1029.52,-894.74 1025.75,-904.64 1032.75,-904.83"/>
</g>
<!-- store&#45;&gt;hash -->
<g id="edge186" class="edge">
<title>store&#45;&gt;hash</title>
<path fill="none" stroke="black" d="M757.42,-2439.15C766.84,-2432.91 776.97,-2425 784.5,-2416 833.94,-2356.85 865.46,-2270.09 879.46,-2225.25"/>
<polygon fill="black" stroke="black" points="882.79,-2226.31 882.35,-2215.73 876.1,-2224.28 882.79,-2226.31"/>
</g>
<!-- store&#45;&gt;json -->
<g id="edge187" class="edge">
<title>store&#45;&gt;json</title>
<path fill="none" stroke="black" d="M741.42,-2472.24C752.8,-2492.56 771.18,-2526.54 784.5,-2557 803.43,-2600.28 787.7,-2623.01 820.5,-2657 828.7,-2665.5 839.93,-2671.4 850.88,-2675.46"/>
<polygon fill="black" stroke="black" points="849.56,-2678.71 860.16,-2678.46 851.72,-2672.05 849.56,-2678.71"/>
</g>
<!-- store&#45;&gt;sqlite -->
<g id="edge188" class="edge">
<title>store&#45;&gt;sqlite</title>
<path fill="none" stroke="black" d="M747.2,-2472.17C774.91,-2503.26 831.55,-2566.81 863.87,-2603.07"/>
<polygon fill="black" stroke="black" points="861.26,-2605.4 870.52,-2610.53 866.48,-2600.74 861.26,-2605.4"/>
</g>
<!-- tcb&#45;db -->
<g id="node65" class="node">
<title>tcb&#45;db</title>
<polygon fill="none" stroke="black" points="760.12,-2694 699.88,-2694 699.88,-2658 760.12,-2658 760.12,-2694"/>
<text text-anchor="middle" x="730" y="-2671.7" font-family="sans-serif" font-size="14.00">tcb&#45;db</text>
</g>
<!-- tcb&#45;db&#45;&gt;json -->
<g id="edge189" class="edge">
<title>tcb&#45;db&#45;&gt;json</title>
<path fill="none" stroke="black" d="M760.51,-2677.5C785.98,-2678.8 822.92,-2680.69 850.46,-2682.09"/>
<polygon fill="black" stroke="black" points="849.95,-2685.57 860.12,-2682.58 850.31,-2678.58 849.95,-2685.57"/>
</g>
<!-- tcb&#45;db&#45;&gt;sqlite -->
<g id="edge190" class="edge">
<title>tcb&#45;db&#45;&gt;sqlite</title>
<path fill="none" stroke="black" d="M760.51,-2667.35C786.09,-2659.85 823.25,-2648.95 850.83,-2640.86"/>
<polygon fill="black" stroke="black" points="851.57,-2644.29 860.18,-2638.12 849.6,-2637.58 851.57,-2644.29"/>
</g>
<!-- wasm&#45;build&#45;guest -->
<g id="node68" class="node">
<title>wasm&#45;build&#45;guest</title>
<polygon fill="none" stroke="black" points="957.25,-2900 820.5,-2900 820.5,-2864 957.25,-2864 957.25,-2900"/>
<text text-anchor="middle" x="888.88" y="-2877.7" font-family="sans-serif" font-size="14.00">wasm&#45;build&#45;guest</text>
</g>
<!-- wasm&#45;build&#45;guest&#45;&gt;wasm -->
<g id="edge191" class="edge">
<title>wasm&#45;build&#45;guest&#45;&gt;wasm</title>
<path fill="none" stroke="black" d="M939.87,-2863.58C946.25,-2859.77 952.27,-2855.27 957.25,-2850 997.31,-2807.56 1016.36,-2739.97 1024.41,-2701.45"/>
<polygon fill="black" stroke="black" points="1027.82,-2702.23 1026.31,-2691.74 1020.95,-2700.88 1027.82,-2702.23"/>
</g>
<!-- wasm&#45;spec -->
<g id="node69" class="node">
<title>wasm&#45;spec</title>
<polygon fill="none" stroke="black" points="776.62,-2602 683.38,-2602 683.38,-2566 776.62,-2566 776.62,-2602"/>
<text text-anchor="middle" x="730" y="-2579.7" font-family="sans-serif" font-size="14.00">wasm&#45;spec</text>
</g>
<!-- wasm&#45;spec&#45;&gt;hash -->
<g id="edge192" class="edge">
<title>wasm&#45;spec&#45;&gt;hash</title>
<path fill="none" stroke="black" d="M769.81,-2565.68C775.32,-2561.78 780.47,-2557.23 784.5,-2552 862.8,-2450.52 881.84,-2291.47 886.43,-2225.84"/>
<polygon fill="black" stroke="black" points="889.92,-2226.07 887.06,-2215.87 882.94,-2225.63 889.92,-2226.07"/>
</g>
<!-- wasm&#45;spec&#45;&gt;wasm -->
<g id="edge193" class="edge">
<title>wasm&#45;spec&#45;&gt;wasm</title>
<path fill="none" stroke="black" d="M777,-2579.17C824.35,-2576.14 899.2,-2576.86 957.25,-2603 977.87,-2612.29 996.23,-2630.02 1009.29,-2645.18"/>
<polygon fill="black" stroke="black" points="1006.31,-2647.07 1015.37,-2652.56 1011.71,-2642.62 1006.31,-2647.07"/>
</g>
<!-- wasm&#45;store&#45;&gt;json -->
<g id="edge194" class="edge">
<title>wasm&#45;store&#45;&gt;json</title>
<path fill="none" stroke="black" d="M633.24,-2713.07C673.41,-2711.87 732.94,-2709.15 784.5,-2703 806.51,-2700.38 830.91,-2695.96 850.47,-2692.05"/>
<polygon fill="black" stroke="black" points="851.09,-2695.5 860.19,-2690.07 849.69,-2688.64 851.09,-2695.5"/>
</g>
<!-- wasm&#45;store&#45;&gt;store -->
<g id="edge195" class="edge">
<title>wasm&#45;store&#45;&gt;store</title>
<path fill="none" stroke="black" d="M596.75,-2695.72C621.24,-2650.96 684.32,-2535.66 713.62,-2482.11"/>
<polygon fill="black" stroke="black" points="716.55,-2484.04 718.28,-2473.59 710.41,-2480.68 716.55,-2484.04"/>
</g>
<!-- wasm&#45;store&#45;&gt;wasm -->
<g id="edge196" class="edge">
<title>wasm&#45;store&#45;&gt;wasm</title>
<path fill="none" stroke="black" d="M633.49,-2721.4C704.87,-2730.99 844.62,-2742.95 957.25,-2711 969.53,-2707.52 982.07,-2701.69 993.17,-2695.6"/>
<polygon fill="black" stroke="black" points="994.69,-2698.76 1001.61,-2690.74 991.2,-2692.7 994.69,-2698.76"/>
</g>
<!-- web&#45;kernel -->
<g id="node71" class="node">
<title>web&#45;kernel</title>
<polygon fill="none" stroke="black" points="369,-1284 277.25,-1284 277.25,-1248 369,-1248 369,-1284"/>
<text text-anchor="middle" x="323.12" y="-1261.7" font-family="sans-serif" font-size="14.00">web&#45;kernel</text>
</g>
<!-- web&#45;kernel&#45;&gt;forsp -->
<g id="edge197" class="edge">
<title>web&#45;kernel&#45;&gt;forsp</title>
<path fill="none" stroke="black" d="M325.66,-1284.16C332.01,-1355.98 358.15,-1619.63 405,-1687 407.41,-1690.47 410.43,-1693.57 413.74,-1696.32"/>
<polygon fill="black" stroke="black" points="411.58,-1699.08 421.78,-1701.95 415.59,-1693.35 411.58,-1699.08"/>
</g>
<!-- web&#45;kernel&#45;&gt;haskell -->
<g id="edge198" class="edge">
<title>web&#45;kernel&#45;&gt;haskell</title>
<path fill="none" stroke="black" d="M324.11,-1247.68C324.31,-1145.33 329.19,-644.21 405,-514 406.62,-511.22 408.58,-508.62 410.77,-506.2"/>
<polygon fill="black" stroke="black" points="412.85,-509.04 417.81,-499.68 408.1,-503.91 412.85,-509.04"/>
</g>
<!-- web&#45;kernel&#45;&gt;hol&#45;api -->
<g id="edge199" class="edge">
<title>web&#45;kernel&#45;&gt;hol&#45;api</title>
<path fill="none" stroke="black" d="M324.84,-1247.54C329.2,-1140.06 353.65,-598.01 405,-547 440.64,-511.6 501.99,-513.04 542.96,-519.09"/>
<polygon fill="black" stroke="black" points="542.27,-522.53 552.7,-520.7 543.4,-515.62 542.27,-522.53"/>
</g>
<!-- web&#45;kernel&#45;&gt;kernel -->
<g id="edge200" class="edge">
<title>web&#45;kernel&#45;&gt;kernel</title>
<path fill="none" stroke="black" d="M333.87,-1284.24C373.34,-1358.15 521.56,-1635.68 569.61,-1725.65"/>
<polygon fill="black" stroke="black" points="566.45,-1727.16 574.25,-1734.33 572.62,-1723.86 566.45,-1727.16"/>
</g>
<!-- web&#45;kernel&#45;&gt;lisp -->
<g id="edge201" class="edge">
<title>web&#45;kernel&#45;&gt;lisp</title>
<path fill="none" stroke="black" d="M369.39,-1266C383.38,-1266 398.64,-1266 412.05,-1266"/>
<polygon fill="black" stroke="black" points="411.76,-1269.5 421.76,-1266 411.76,-1262.5 411.76,-1269.5"/>
</g>
</g>
</svg>
