<?xml version="1.0" encoding="UTF-8" standalone="no"?>
<!DOCTYPE svg PUBLIC "-//W3C//DTD SVG 1.1//EN"
 "http://www.w3.org/Graphics/SVG/1.1/DTD/svg11.dtd">
<!-- Generated by graphviz version 12.2.1 (0)
 -->
<!-- Title: deps Pages: 1 -->
<svg width="1338pt" height="1628pt"
 viewBox="0.00 0.00 1338.25 1627.85" xmlns="http://www.w3.org/2000/svg" xmlns:xlink="http://www.w3.org/1999/xlink">
<g id="graph0" class="graph" transform="scale(1 1) rotate(0) translate(4 1623.85)">
<title>deps</title>
<polygon fill="white" stroke="none" points="-4,4 -4,-1623.85 1334.25,-1623.85 1334.25,4 -4,4"/>
<!-- covalence -->
<g id="node1" class="node">
<title>covalence</title>
<polygon fill="none" stroke="black" points="102.62,-456.14 18.38,-456.14 18.38,-420.14 102.62,-420.14 102.62,-456.14"/>
<text text-anchor="middle" x="60.5" y="-433.84" font-family="sans-serif" font-size="14.00">covalence</text>
</g>
<!-- client -->
<g id="node5" class="node">
<title>client</title>
<polygon fill="none" stroke="black" points="319.5,-586.14 265.5,-586.14 265.5,-550.14 319.5,-550.14 319.5,-586.14"/>
<text text-anchor="middle" x="292.5" y="-563.84" font-family="sans-serif" font-size="14.00">client</text>
</g>
<!-- covalence&#45;&gt;client -->
<g id="edge1" class="edge">
<title>covalence&#45;&gt;client</title>
<path fill="none" stroke="black" d="M93.97,-456.49C136.59,-480.58 211.17,-522.73 255.49,-547.78"/>
<polygon fill="black" stroke="black" points="253.52,-550.69 263.94,-552.56 256.96,-544.59 253.52,-550.69"/>
</g>
<!-- fuse -->
<g id="node10" class="node">
<title>fuse</title>
<polygon fill="none" stroke="black" points="576.12,-655.14 522.12,-655.14 522.12,-619.14 576.12,-619.14 576.12,-655.14"/>
<text text-anchor="middle" x="549.12" y="-632.84" font-family="sans-serif" font-size="14.00">fuse</text>
</g>
<!-- covalence&#45;&gt;fuse -->
<g id="edge2" class="edge">
<title>covalence&#45;&gt;fuse</title>
<path fill="none" stroke="black" d="M103.06,-437.16C157.88,-436.91 256.88,-440.03 338,-462.14 398.71,-478.68 422.46,-477.48 465.75,-523.14 494.54,-553.5 474.22,-578.62 501.75,-610.14 504.85,-613.69 508.54,-616.89 512.46,-619.74"/>
<polygon fill="black" stroke="black" points="510.29,-622.51 520.6,-624.95 514.06,-616.61 510.29,-622.51"/>
</g>
<!-- git -->
<g id="node11" class="node">
<title>git</title>
<polygon fill="none" stroke="black" points="446.88,-902.14 392.88,-902.14 392.88,-866.14 446.88,-866.14 446.88,-902.14"/>
<text text-anchor="middle" x="419.88" y="-879.84" font-family="sans-serif" font-size="14.00">git</text>
</g>
<!-- covalence&#45;&gt;git -->
<g id="edge3" class="edge">
<title>covalence&#45;&gt;git</title>
<path fill="none" stroke="black" d="M61.12,-456.5C60.87,-514.46 67.65,-695.98 157,-803.14 213.03,-870.33 323.63,-882.79 381.53,-884.47"/>
<polygon fill="black" stroke="black" points="381.14,-887.97 391.2,-884.65 381.27,-880.97 381.14,-887.97"/>
</g>
<!-- hash -->
<g id="node14" class="node">
<title>hash</title>
<polygon fill="none" stroke="black" points="857.12,-967.14 803.12,-967.14 803.12,-931.14 857.12,-931.14 857.12,-967.14"/>
<text text-anchor="middle" x="830.12" y="-944.84" font-family="sans-serif" font-size="14.00">hash</text>
</g>
<!-- covalence&#45;&gt;hash -->
<g id="edge4" class="edge">
<title>covalence&#45;&gt;hash</title>
<path fill="none" stroke="black" d="M73.88,-419.95C104.98,-376.66 191.08,-271.14 291.5,-271.14 291.5,-271.14 291.5,-271.14 420.88,-271.14 561.1,-271.14 519.88,-421.6 632.5,-505.14 669.31,-532.44 699.31,-511.71 725.75,-549.14 818.02,-679.74 677.24,-771.38 761.75,-907.14 769.02,-918.81 780.85,-927.77 792.59,-934.35"/>
<polygon fill="black" stroke="black" points="790.92,-937.42 801.42,-938.84 794.1,-931.18 790.92,-937.42"/>
</g>
<!-- hol -->
<g id="node15" class="node">
<title>hol</title>
<polygon fill="none" stroke="black" points="857.12,-270.14 803.12,-270.14 803.12,-234.14 857.12,-234.14 857.12,-270.14"/>
<text text-anchor="middle" x="830.12" y="-247.84" font-family="sans-serif" font-size="14.00">hol</text>
</g>
<!-- covalence&#45;&gt;hol -->
<g id="edge5" class="edge">
<title>covalence&#45;&gt;hol</title>
<path fill="none" stroke="black" d="M63.3,-419.64C68.71,-374.03 88.94,-255.15 157,-190.14 187.49,-161.01 205.38,-166.89 247,-160.14 346.58,-143.98 588.37,-188.59 596.5,-190.14 634.05,-197.28 736.69,-225.86 792.24,-241.6"/>
<polygon fill="black" stroke="black" points="790.98,-244.89 801.56,-244.25 792.89,-238.15 790.98,-244.89"/>
</g>
<!-- lsp -->
<g id="node22" class="node">
<title>lsp</title>
<polygon fill="none" stroke="black" points="857.12,-102.14 803.12,-102.14 803.12,-66.14 857.12,-66.14 857.12,-102.14"/>
<text text-anchor="middle" x="830.12" y="-79.84" font-family="sans-serif" font-size="14.00">lsp</text>
</g>
<!-- covalence&#45;&gt;lsp -->
<g id="edge6" class="edge">
<title>covalence&#45;&gt;lsp</title>
<path fill="none" stroke="black" d="M63.72,-419.64C73.9,-344.38 122.99,-65.14 291.5,-65.14 291.5,-65.14 291.5,-65.14 550.12,-65.14 636.79,-65.14 738.24,-74.37 791.72,-79.97"/>
<polygon fill="black" stroke="black" points="791.19,-83.43 801.5,-81.01 791.93,-76.47 791.19,-83.43"/>
</g>
<!-- object -->
<g id="node25" class="node">
<title>object</title>
<polygon fill="none" stroke="black" points="707.75,-745.14 650.5,-745.14 650.5,-709.14 707.75,-709.14 707.75,-745.14"/>
<text text-anchor="middle" x="679.12" y="-722.84" font-family="sans-serif" font-size="14.00">object</text>
</g>
<!-- covalence&#45;&gt;object -->
<g id="edge7" class="edge">
<title>covalence&#45;&gt;object</title>
<path fill="none" stroke="black" d="M103.1,-432.76C178.72,-424.79 342.29,-415.89 465.75,-468.14 530.26,-495.44 550.74,-503.1 596.5,-556.14 633.54,-599.06 657.7,-661.69 669.54,-698.04"/>
<polygon fill="black" stroke="black" points="666.15,-698.93 672.49,-707.42 672.83,-696.83 666.15,-698.93"/>
</g>
<!-- opentheory -->
<g id="node26" class="node">
<title>opentheory</title>
<polygon fill="none" stroke="black" points="338,-205.14 247,-205.14 247,-169.14 338,-169.14 338,-205.14"/>
<text text-anchor="middle" x="292.5" y="-182.84" font-family="sans-serif" font-size="14.00">opentheory</text>
</g>
<!-- covalence&#45;&gt;opentheory -->
<g id="edge8" class="edge">
<title>covalence&#45;&gt;opentheory</title>
<path fill="none" stroke="black" d="M63.93,-419.88C70.54,-377.65 92.89,-272.76 157,-219.14 178.73,-200.96 209.02,-192.74 235.35,-189.16"/>
<polygon fill="black" stroke="black" points="235.69,-192.65 245.23,-188.03 234.9,-185.69 235.69,-192.65"/>
</g>
<!-- proto -->
<g id="node29" class="node">
<title>proto</title>
<polygon fill="none" stroke="black" points="319.5,-937.14 265.5,-937.14 265.5,-901.14 319.5,-901.14 319.5,-937.14"/>
<text text-anchor="middle" x="292.5" y="-914.84" font-family="sans-serif" font-size="14.00">proto</text>
</g>
<!-- covalence&#45;&gt;proto -->
<g id="edge9" class="edge">
<title>covalence&#45;&gt;proto</title>
<path fill="none" stroke="black" d="M63.58,-456.18C72.1,-527.54 106.36,-789.27 157,-853.14 181.4,-883.9 223.79,-901.34 254.47,-910.46"/>
<polygon fill="black" stroke="black" points="253.16,-913.73 263.73,-913.05 255.04,-906.99 253.16,-913.73"/>
</g>
<!-- repl -->
<g id="node34" class="node">
<title>repl</title>
<polygon fill="none" stroke="black" points="319.5,-1078.14 265.5,-1078.14 265.5,-1042.14 319.5,-1042.14 319.5,-1078.14"/>
<text text-anchor="middle" x="292.5" y="-1055.84" font-family="sans-serif" font-size="14.00">repl</text>
</g>
<!-- covalence&#45;&gt;repl -->
<g id="edge10" class="edge">
<title>covalence&#45;&gt;repl</title>
<path fill="none" stroke="black" d="M63.24,-456.59C71.13,-537.81 105.5,-863.2 157,-950.14 180.59,-989.95 224.2,-1021.54 255.37,-1040.48"/>
<polygon fill="black" stroke="black" points="253.32,-1043.33 263.71,-1045.4 256.88,-1037.3 253.32,-1043.33"/>
</g>
<!-- serve -->
<g id="node36" class="node">
<title>serve</title>
<polygon fill="none" stroke="black" points="211,-794.14 157,-794.14 157,-758.14 211,-758.14 211,-794.14"/>
<text text-anchor="middle" x="184" y="-771.84" font-family="sans-serif" font-size="14.00">serve</text>
</g>
<!-- covalence&#45;&gt;serve -->
<g id="edge11" class="edge">
<title>covalence&#45;&gt;serve</title>
<path fill="none" stroke="black" d="M68.03,-456.31C87.98,-511.79 148.19,-679.3 172.58,-747.14"/>
<polygon fill="black" stroke="black" points="169.25,-748.22 175.92,-756.45 175.83,-745.86 169.25,-748.22"/>
</g>
<!-- shell -->
<g id="node38" class="node">
<title>shell</title>
<polygon fill="none" stroke="black" points="446.88,-639.14 392.88,-639.14 392.88,-603.14 446.88,-603.14 446.88,-639.14"/>
<text text-anchor="middle" x="419.88" y="-616.84" font-family="sans-serif" font-size="14.00">shell</text>
</g>
<!-- covalence&#45;&gt;shell -->
<g id="edge12" class="edge">
<title>covalence&#45;&gt;shell</title>
<path fill="none" stroke="black" d="M76.57,-456.58C105.55,-490.59 172.79,-562.67 247,-595.14 290.35,-614.1 345.06,-619.59 380.97,-620.99"/>
<polygon fill="black" stroke="black" points="380.77,-624.49 390.86,-621.28 380.97,-617.49 380.77,-624.49"/>
</g>
<!-- store -->
<g id="node43" class="node">
<title>store</title>
<polygon fill="none" stroke="black" points="706.12,-883.14 652.12,-883.14 652.12,-847.14 706.12,-847.14 706.12,-883.14"/>
<text text-anchor="middle" x="679.12" y="-860.84" font-family="sans-serif" font-size="14.00">store</text>
</g>
<!-- covalence&#45;&gt;store -->
<g id="edge13" class="edge">
<title>covalence&#45;&gt;store</title>
<path fill="none" stroke="black" d="M102.87,-448.02C200.48,-471.65 439,-531.39 465.75,-557.14 501.9,-591.93 476.71,-620.65 501.75,-664.14 504.6,-669.08 607.05,-784.93 654.47,-838.46"/>
<polygon fill="black" stroke="black" points="651.6,-840.49 660.85,-845.66 656.84,-835.85 651.6,-840.49"/>
</g>
<!-- wasm -->
<g id="node45" class="node">
<title>wasm</title>
<polygon fill="none" stroke="black" points="1001.88,-1225.14 947.62,-1225.14 947.62,-1189.14 1001.88,-1189.14 1001.88,-1225.14"/>
<text text-anchor="middle" x="974.75" y="-1202.84" font-family="sans-serif" font-size="14.00">wasm</text>
</g>
<!-- covalence&#45;&gt;wasm -->
<g id="edge14" class="edge">
<title>covalence&#45;&gt;wasm</title>
<path fill="none" stroke="black" d="M69.09,-419.85C82.6,-389.36 113.51,-327.84 157,-291.14 206.75,-249.15 226.4,-233.14 291.5,-233.14 291.5,-233.14 291.5,-233.14 420.88,-233.14 504.26,-233.14 542.26,-235.8 596.5,-299.14 647.59,-358.78 580.84,-412.98 632.5,-472.14 661.42,-505.25 697.6,-471.37 725.75,-505.14 790.32,-582.58 713.69,-640.49 761.75,-729.14 800.85,-801.26 857.6,-782.01 898.5,-853.14 914.81,-881.5 954.4,-1098.09 968.59,-1177.81"/>
<polygon fill="black" stroke="black" points="965.11,-1178.23 970.3,-1187.47 972,-1177.01 965.11,-1178.23"/>
</g>
<!-- acset -->
<g id="node2" class="node">
<title>acset</title>
<polygon fill="none" stroke="black" points="857.12,-1202.14 803.12,-1202.14 803.12,-1166.14 857.12,-1166.14 857.12,-1202.14"/>
<text text-anchor="middle" x="830.12" y="-1179.84" font-family="sans-serif" font-size="14.00">acset</text>
</g>
<!-- alethe -->
<g id="node3" class="node">
<title>alethe</title>
<polygon fill="none" stroke="black" points="577.38,-129.14 520.88,-129.14 520.88,-93.14 577.38,-93.14 577.38,-129.14"/>
<text text-anchor="middle" x="549.12" y="-106.84" font-family="sans-serif" font-size="14.00">alethe</text>
</g>
<!-- core -->
<g id="node6" class="node">
<title>core</title>
<polygon fill="#ffd6d6" stroke="black" points="1001.75,-293.14 947.75,-293.14 947.75,-257.14 1001.75,-257.14 1001.75,-293.14"/>
<text text-anchor="middle" x="974.75" y="-270.84" font-family="sans-serif" font-size="14.00">core</text>
</g>
<!-- alethe&#45;&gt;core -->
<g id="edge15" class="edge">
<title>alethe&#45;&gt;core</title>
<path fill="none" stroke="black" d="M577.28,-129.49C583.64,-133.89 590.35,-138.63 596.5,-143.14 612.85,-155.12 614.08,-162.67 632.5,-171.14 742.12,-221.5 787.08,-178.9 898.5,-225.14 913.62,-231.41 928.93,-240.88 941.75,-249.9"/>
<polygon fill="black" stroke="black" points="939.65,-252.71 949.8,-255.76 943.77,-247.05 939.65,-252.71"/>
</g>
<!-- init -->
<g id="node16" class="node">
<title>init</title>
<polygon fill="none" stroke="black" points="706.12,-463.14 652.12,-463.14 652.12,-427.14 706.12,-427.14 706.12,-463.14"/>
<text text-anchor="middle" x="679.12" y="-440.84" font-family="sans-serif" font-size="14.00">init</text>
</g>
<!-- alethe&#45;&gt;init -->
<g id="edge16" class="edge">
<title>alethe&#45;&gt;init</title>
<path fill="none" stroke="black" d="M558.33,-129.34C567.87,-150.7 583.91,-187.25 596.5,-219.14 624.15,-289.15 653.38,-372.76 668.22,-416"/>
<polygon fill="black" stroke="black" points="664.89,-417.08 671.44,-425.41 671.51,-414.81 664.89,-417.08"/>
</g>
<!-- sexp -->
<g id="node37" class="node">
<title>sexp</title>
<polygon fill="#ffd6d6" stroke="black" points="1105,-476.14 1051,-476.14 1051,-440.14 1105,-440.14 1105,-476.14"/>
<text text-anchor="middle" x="1078" y="-453.84" font-family="sans-serif" font-size="14.00">sexp</text>
</g>
<!-- alethe&#45;&gt;sexp -->
<g id="edge17" class="edge">
<title>alethe&#45;&gt;sexp</title>
<path fill="none" stroke="black" d="M577.75,-120.97C593.64,-126.43 614.06,-133.12 632.5,-138.14 717.84,-161.36 956.75,-181.59 1015,-248.14 1060.43,-300.03 1072.61,-383.86 1075.85,-428.28"/>
<polygon fill="black" stroke="black" points="1072.35,-428.43 1076.45,-438.19 1079.34,-428 1072.35,-428.43"/>
</g>
<!-- smt -->
<g id="node40" class="node">
<title>smt</title>
<polygon fill="none" stroke="black" points="706.12,-129.14 652.12,-129.14 652.12,-93.14 706.12,-93.14 706.12,-129.14"/>
<text text-anchor="middle" x="679.12" y="-106.84" font-family="sans-serif" font-size="14.00">smt</text>
</g>
<!-- alethe&#45;&gt;smt -->
<g id="edge18" class="edge">
<title>alethe&#45;&gt;smt</title>
<path fill="none" stroke="black" d="M577.58,-111.14C596.01,-111.14 620.5,-111.14 640.7,-111.14"/>
<polygon fill="black" stroke="black" points="640.51,-114.64 650.51,-111.14 640.51,-107.64 640.51,-114.64"/>
</g>
<!-- types -->
<g id="node44" class="node">
<title>types</title>
<polygon fill="#ffd6d6" stroke="black" points="1330.25,-247.14 1276.25,-247.14 1276.25,-211.14 1330.25,-211.14 1330.25,-247.14"/>
<text text-anchor="middle" x="1303.25" y="-224.84" font-family="sans-serif" font-size="14.00">types</text>
</g>
<!-- alethe&#45;&gt;types -->
<g id="edge19" class="edge">
<title>alethe&#45;&gt;types</title>
<path fill="none" stroke="black" d="M576.45,-92.81C624.37,-61.28 730.08,-0.14 829.12,-0.14 829.12,-0.14 829.12,-0.14 1079,-0.14 1154.03,-0.14 1186.33,2.04 1240.25,-50.14 1281.91,-90.45 1295.59,-160.11 1300.08,-199.59"/>
<polygon fill="black" stroke="black" points="1296.57,-199.7 1301.04,-209.3 1303.54,-199.01 1296.57,-199.7"/>
</g>
<!-- arrow -->
<g id="node4" class="node">
<title>arrow</title>
<polygon fill="none" stroke="black" points="576.12,-1051.14 522.12,-1051.14 522.12,-1015.14 576.12,-1015.14 576.12,-1051.14"/>
<text text-anchor="middle" x="549.12" y="-1028.84" font-family="sans-serif" font-size="14.00">arrow</text>
</g>
<!-- client&#45;&gt;hash -->
<g id="edge20" class="edge">
<title>client&#45;&gt;hash</title>
<path fill="none" stroke="black" d="M319.99,-560.36C398.95,-539.01 632.9,-489.29 725.75,-619.14 800.79,-724.06 692.26,-798.46 761.75,-907.14 769.16,-918.72 781.03,-927.66 792.75,-934.25"/>
<polygon fill="black" stroke="black" points="791.06,-937.31 801.56,-938.75 794.25,-931.08 791.06,-937.31"/>
</g>
<!-- client&#45;&gt;shell -->
<g id="edge21" class="edge">
<title>client&#45;&gt;shell</title>
<path fill="none" stroke="black" d="M319.78,-579.25C337.84,-586.88 362.06,-597.12 382.03,-605.56"/>
<polygon fill="black" stroke="black" points="380.66,-608.78 391.23,-609.45 383.38,-602.33 380.66,-608.78"/>
</g>
<!-- client&#45;&gt;store -->
<g id="edge22" class="edge">
<title>client&#45;&gt;store</title>
<path fill="none" stroke="black" d="M319.92,-563.68C357.57,-558.98 426.44,-556.69 465.75,-594.14 524.51,-650.1 452.63,-708.54 501.75,-773.14 530.33,-810.71 554.66,-799.27 596.5,-821.14 611.42,-828.94 627.78,-837.71 641.91,-845.36"/>
<polygon fill="black" stroke="black" points="639.96,-848.28 650.42,-849.98 643.3,-842.13 639.96,-848.28"/>
</g>
<!-- pure -->
<g id="node30" class="node">
<title>pure</title>
<polygon fill="#ffd6d6" stroke="black" points="1105,-293.14 1051,-293.14 1051,-257.14 1105,-257.14 1105,-293.14"/>
<text text-anchor="middle" x="1078" y="-270.84" font-family="sans-serif" font-size="14.00">pure</text>
</g>
<!-- core&#45;&gt;pure -->
<g id="edge23" class="edge">
<title>core&#45;&gt;pure</title>
<path fill="none" stroke="black" d="M1002.09,-275.14C1013.46,-275.14 1026.96,-275.14 1039.36,-275.14"/>
<polygon fill="black" stroke="black" points="1039.28,-278.64 1049.28,-275.14 1039.28,-271.64 1039.28,-278.64"/>
</g>
<!-- core&#45;&gt;sexp -->
<g id="edge24" class="edge">
<title>core&#45;&gt;sexp</title>
<path fill="none" stroke="black" d="M985.83,-293.35C1003.52,-325.33 1040.29,-391.78 1061.32,-429.8"/>
<polygon fill="black" stroke="black" points="1058.18,-431.34 1066.08,-438.4 1064.3,-427.95 1058.18,-431.34"/>
</g>
<!-- core&#45;&gt;types -->
<g id="edge25" class="edge">
<title>core&#45;&gt;types</title>
<path fill="none" stroke="black" d="M1002.06,-263.73C1016.28,-258.07 1034.3,-251.69 1051,-248.14 1125.5,-232.26 1214.91,-229.19 1264.46,-228.85"/>
<polygon fill="black" stroke="black" points="1264.38,-232.35 1274.37,-228.82 1264.36,-225.35 1264.38,-232.35"/>
</g>
<!-- core&#45;test&#45;guest -->
<g id="node7" class="node">
<title>core&#45;test&#45;guest</title>
<polygon fill="none" stroke="black" points="121,-1371.14 0,-1371.14 0,-1335.14 121,-1335.14 121,-1371.14"/>
<text text-anchor="middle" x="60.5" y="-1348.84" font-family="sans-serif" font-size="14.00">core&#45;test&#45;guest</text>
</g>
<!-- egglog -->
<g id="node8" class="node">
<title>egglog</title>
<polygon fill="none" stroke="black" points="1005.25,-102.14 944.25,-102.14 944.25,-66.14 1005.25,-66.14 1005.25,-102.14"/>
<text text-anchor="middle" x="974.75" y="-79.84" font-family="sans-serif" font-size="14.00">egglog</text>
</g>
<!-- egglog&#45;&gt;sexp -->
<g id="edge26" class="edge">
<title>egglog&#45;&gt;sexp</title>
<path fill="none" stroke="black" d="M1003.65,-102.59C1008.01,-106.59 1012.05,-111.14 1015,-116.14 1019.01,-122.92 1057.79,-346.57 1071.9,-428.47"/>
<polygon fill="black" stroke="black" points="1068.43,-428.94 1073.58,-438.2 1075.33,-427.76 1068.43,-428.94"/>
</g>
<!-- egglog&#45;&gt;types -->
<g id="edge27" class="edge">
<title>egglog&#45;&gt;types</title>
<path fill="none" stroke="black" d="M1005.59,-97.39C1065.54,-124.01 1200.41,-183.91 1265.6,-212.86"/>
<polygon fill="black" stroke="black" points="1263.87,-215.92 1274.43,-216.78 1266.72,-209.53 1263.87,-215.92"/>
</g>
<!-- forsp -->
<g id="node9" class="node">
<title>forsp</title>
<polygon fill="none" stroke="black" points="706.12,-1333.14 652.12,-1333.14 652.12,-1297.14 706.12,-1297.14 706.12,-1333.14"/>
<text text-anchor="middle" x="679.12" y="-1310.84" font-family="sans-serif" font-size="14.00">forsp</text>
</g>
<!-- forsp&#45;&gt;hash -->
<g id="edge28" class="edge">
<title>forsp&#45;&gt;hash</title>
<path fill="none" stroke="black" d="M706.3,-1304.61C713.6,-1300.49 720.87,-1295.06 725.75,-1288.14 774.03,-1219.69 736.81,-1183.1 761.75,-1103.14 775.89,-1057.78 799.3,-1007.83 814.46,-977.47"/>
<polygon fill="black" stroke="black" points="817.39,-979.45 818.77,-968.94 811.14,-976.29 817.39,-979.45"/>
</g>
<!-- forsp&#45;&gt;sexp -->
<g id="edge29" class="edge">
<title>forsp&#45;&gt;sexp</title>
<path fill="none" stroke="black" d="M706.23,-1318.66C771.92,-1325.87 943.86,-1334.01 1015,-1234.14 1059.01,-1172.36 1073.51,-622.19 1076.41,-487.7"/>
<polygon fill="black" stroke="black" points="1079.91,-487.93 1076.62,-477.86 1072.91,-487.79 1079.91,-487.93"/>
</g>
<!-- fuse&#45;&gt;hash -->
<g id="edge30" class="edge">
<title>fuse&#45;&gt;hash</title>
<path fill="none" stroke="black" d="M576.57,-643.18C620.62,-653.78 706.15,-676.83 725.75,-700.14 785.86,-771.6 709.58,-829.69 761.75,-907.14 769.37,-918.45 781.18,-927.3 792.79,-933.89"/>
<polygon fill="black" stroke="black" points="791,-936.91 801.49,-938.41 794.23,-930.7 791,-936.91"/>
</g>
<!-- fuse&#45;&gt;object -->
<g id="edge31" class="edge">
<title>fuse&#45;&gt;object</title>
<path fill="none" stroke="black" d="M576.19,-654.98C582.83,-659.56 589.95,-664.51 596.5,-669.14 612.62,-680.52 616.42,-683.69 632.5,-695.14 635.85,-697.52 639.35,-700 642.85,-702.46"/>
<polygon fill="black" stroke="black" points="640.59,-705.16 650.79,-708.05 644.62,-699.43 640.59,-705.16"/>
</g>
<!-- fuse&#45;&gt;store -->
<g id="edge32" class="edge">
<title>fuse&#45;&gt;store</title>
<path fill="none" stroke="black" d="M560.38,-655.41C582.67,-695.1 635.62,-789.42 662.25,-836.86"/>
<polygon fill="black" stroke="black" points="659.13,-838.45 667.08,-845.46 665.23,-835.02 659.13,-838.45"/>
</g>
<!-- git&#45;&gt;hash -->
<g id="edge33" class="edge">
<title>git&#45;&gt;hash</title>
<path fill="none" stroke="black" d="M447.28,-891.85C462.99,-896.23 483.39,-901.53 501.75,-905.14 605.68,-925.54 730.04,-939.4 791.26,-945.54"/>
<polygon fill="black" stroke="black" points="790.84,-949.02 801.13,-946.52 791.53,-942.05 790.84,-949.02"/>
</g>
<!-- git&#45;&gt;object -->
<g id="edge34" class="edge">
<title>git&#45;&gt;object</title>
<path fill="none" stroke="black" d="M446.96,-868.22C492.68,-840.32 587.45,-782.48 640.35,-750.19"/>
<polygon fill="black" stroke="black" points="642.02,-753.27 648.74,-745.07 638.38,-747.29 642.02,-753.27"/>
</g>
<!-- sqlite -->
<g id="node42" class="node">
<title>sqlite</title>
<polygon fill="none" stroke="black" points="857.12,-898.14 803.12,-898.14 803.12,-862.14 857.12,-862.14 857.12,-898.14"/>
<text text-anchor="middle" x="830.12" y="-875.84" font-family="sans-serif" font-size="14.00">sqlite</text>
</g>
<!-- git&#45;&gt;sqlite -->
<g id="edge35" class="edge">
<title>git&#45;&gt;sqlite</title>
<path fill="none" stroke="black" d="M447.09,-886.02C462.91,-887.08 483.48,-888.36 501.75,-889.14 601.23,-893.35 626.35,-897.89 725.75,-892.14 747.66,-890.87 772.05,-888.1 791.64,-885.54"/>
<polygon fill="black" stroke="black" points="791.91,-889.04 801.36,-884.24 790.98,-882.1 791.91,-889.04"/>
</g>
<!-- git&#45;&gt;store -->
<g id="edge36" class="edge">
<title>git&#45;&gt;store</title>
<path fill="none" stroke="black" d="M446.96,-882.21C492.8,-878.82 587.94,-871.8 640.76,-867.9"/>
<polygon fill="black" stroke="black" points="640.75,-871.41 650.46,-867.18 640.23,-864.43 640.75,-871.41"/>
</g>
<!-- grammar -->
<g id="node12" class="node">
<title>grammar</title>
<polygon fill="none" stroke="black" points="1011.62,-541.14 937.88,-541.14 937.88,-505.14 1011.62,-505.14 1011.62,-541.14"/>
<text text-anchor="middle" x="974.75" y="-518.84" font-family="sans-serif" font-size="14.00">grammar</text>
</g>
<!-- graph -->
<g id="node13" class="node">
<title>graph</title>
<polygon fill="none" stroke="black" points="446.88,-1363.14 392.88,-1363.14 392.88,-1327.14 446.88,-1327.14 446.88,-1363.14"/>
<text text-anchor="middle" x="419.88" y="-1340.84" font-family="sans-serif" font-size="14.00">graph</text>
</g>
<!-- graph&#45;&gt;hash -->
<g id="edge37" class="edge">
<title>graph&#45;&gt;hash</title>
<path fill="none" stroke="black" d="M447.33,-1336.67C485.44,-1323.19 555.69,-1293.33 596.5,-1245.14 626.49,-1209.72 601.77,-1181.91 632.5,-1147.14 663.37,-1112.21 691.97,-1131.25 725.75,-1099.14 748.84,-1077.18 744.03,-1063.62 761.75,-1037.14 775.84,-1016.09 793.25,-993.42 806.84,-976.36"/>
<polygon fill="black" stroke="black" points="809.47,-978.68 813.01,-968.69 804.02,-974.29 809.47,-978.68"/>
</g>
<!-- parse -->
<g id="node28" class="node">
<title>parse</title>
<polygon fill="#ffd6d6" stroke="black" points="1217.62,-689.14 1163.62,-689.14 1163.62,-653.14 1217.62,-653.14 1217.62,-689.14"/>
<text text-anchor="middle" x="1190.62" y="-666.84" font-family="sans-serif" font-size="14.00">parse</text>
</g>
<!-- graph&#45;&gt;parse -->
<g id="edge38" class="edge">
<title>graph&#45;&gt;parse</title>
<path fill="none" stroke="black" d="M431.07,-1363.62C444.32,-1385.78 469.61,-1422.28 501.75,-1441.14 570.61,-1481.53 598.29,-1475.14 678.12,-1475.14 678.12,-1475.14 678.12,-1475.14 975.75,-1475.14 1139.25,-1475.14 1180.84,-846.3 1188.27,-700.89"/>
<polygon fill="black" stroke="black" points="1191.76,-701.11 1188.76,-690.95 1184.77,-700.77 1191.76,-701.11"/>
</g>
<!-- rand -->
<g id="node33" class="node">
<title>rand</title>
<polygon fill="none" stroke="black" points="1001.75,-967.14 947.75,-967.14 947.75,-931.14 1001.75,-931.14 1001.75,-967.14"/>
<text text-anchor="middle" x="974.75" y="-944.84" font-family="sans-serif" font-size="14.00">rand</text>
</g>
<!-- hash&#45;&gt;rand -->
<g id="edge39" class="edge">
<title>hash&#45;&gt;rand</title>
<path fill="none" stroke="black" d="M857.62,-949.14C879.63,-949.14 911.23,-949.14 935.91,-949.14"/>
<polygon fill="black" stroke="black" points="935.89,-952.64 945.89,-949.14 935.89,-945.64 935.89,-952.64"/>
</g>
<!-- hol&#45;&gt;core -->
<g id="edge40" class="edge">
<title>hol&#45;&gt;core</title>
<path fill="none" stroke="black" d="M857.62,-256.41C879.73,-259.97 911.52,-265.1 936.25,-269.09"/>
<polygon fill="black" stroke="black" points="935.48,-272.51 945.91,-270.65 936.59,-265.6 935.48,-272.51"/>
</g>
<!-- init&#45;&gt;core -->
<g id="edge41" class="edge">
<title>init&#45;&gt;core</title>
<path fill="none" stroke="black" d="M706.44,-429.9C759.13,-399.39 877.67,-330.76 937.6,-296.07"/>
<polygon fill="black" stroke="black" points="939.18,-299.2 946.08,-291.16 935.67,-293.14 939.18,-299.2"/>
</g>
<!-- init&#45;&gt;grammar -->
<g id="edge42" class="edge">
<title>init&#45;&gt;grammar</title>
<path fill="none" stroke="black" d="M706.25,-461.49C712.92,-466.17 719.85,-471.54 725.75,-477.14 744.58,-495.01 738.41,-511.77 761.75,-523.14 813.65,-548.42 881.53,-542.72 926.33,-534.52"/>
<polygon fill="black" stroke="black" points="926.85,-537.98 936,-532.62 925.51,-531.11 926.85,-537.98"/>
</g>
<!-- init&#45;&gt;hash -->
<g id="edge43" class="edge">
<title>init&#45;&gt;hash</title>
<path fill="none" stroke="black" d="M695.63,-463.41C706.06,-476.82 719.08,-495.95 725.75,-515.14 754.48,-597.76 715.84,-832.67 761.75,-907.14 768.97,-918.84 780.79,-927.8 792.54,-934.38"/>
<polygon fill="black" stroke="black" points="790.87,-937.46 801.37,-938.87 794.04,-931.22 790.87,-937.46"/>
</g>
<!-- init&#45;&gt;hol -->
<g id="edge44" class="edge">
<title>init&#45;&gt;hol</title>
<path fill="none" stroke="black" d="M690.79,-426.92C705.53,-402.26 733.52,-357.32 761.75,-322.14 773.96,-306.92 788.89,-291.16 801.59,-278.46"/>
<polygon fill="black" stroke="black" points="803.83,-281.17 808.48,-271.65 798.91,-276.19 803.83,-281.17"/>
</g>
<!-- metamath -->
<g id="node23" class="node">
<title>metamath</title>
<polygon fill="none" stroke="black" points="1015,-476.14 934.5,-476.14 934.5,-440.14 1015,-440.14 1015,-476.14"/>
<text text-anchor="middle" x="974.75" y="-453.84" font-family="sans-serif" font-size="14.00">metamath</text>
</g>
<!-- init&#45;&gt;metamath -->
<g id="edge45" class="edge">
<title>init&#45;&gt;metamath</title>
<path fill="none" stroke="black" d="M706.44,-446.3C755.07,-448.45 859.79,-453.09 922.76,-455.88"/>
<polygon fill="black" stroke="black" points="922.35,-459.36 932.49,-456.31 922.66,-452.37 922.35,-459.36"/>
</g>
<!-- init&#45;&gt;sexp -->
<g id="edge46" class="edge">
<title>init&#45;&gt;sexp</title>
<path fill="none" stroke="black" d="M706.5,-460.45C713.31,-465.22 720.26,-470.88 725.75,-477.14 748.56,-503.14 732.38,-527.86 761.75,-546.14 857.33,-605.6 915.62,-603 1015,-550.14 1040.02,-536.83 1056.76,-508.42 1066.47,-486.67"/>
<polygon fill="black" stroke="black" points="1069.59,-488.3 1070.22,-477.72 1063.13,-485.6 1069.59,-488.3"/>
</g>
<!-- spectec -->
<g id="node41" class="node">
<title>spectec</title>
<polygon fill="none" stroke="black" points="864.75,-514.14 795.5,-514.14 795.5,-478.14 864.75,-478.14 864.75,-514.14"/>
<text text-anchor="middle" x="830.12" y="-491.84" font-family="sans-serif" font-size="14.00">spectec</text>
</g>
<!-- init&#45;&gt;spectec -->
<g id="edge47" class="edge">
<title>init&#45;&gt;spectec</title>
<path fill="none" stroke="black" d="M706.42,-454.14C727.96,-461.51 758.93,-472.11 784.36,-480.81"/>
<polygon fill="black" stroke="black" points="783.21,-484.12 793.81,-484.05 785.48,-477.5 783.21,-484.12"/>
</g>
<!-- init&#45;&gt;types -->
<g id="edge48" class="edge">
<title>init&#45;&gt;types</title>
<path fill="none" stroke="black" d="M706.33,-440.2C757.53,-430.99 874.49,-412.14 973.75,-412.14 973.75,-412.14 973.75,-412.14 1079,-412.14 1175.79,-412.14 1253.6,-307.99 1285.98,-256.83"/>
<polygon fill="black" stroke="black" points="1288.76,-258.98 1291.05,-248.64 1282.81,-255.3 1288.76,-258.98"/>
</g>
<!-- json -->
<g id="node17" class="node">
<title>json</title>
<polygon fill="none" stroke="black" points="857.12,-1256.14 803.12,-1256.14 803.12,-1220.14 857.12,-1220.14 857.12,-1256.14"/>
<text text-anchor="middle" x="830.12" y="-1233.84" font-family="sans-serif" font-size="14.00">json</text>
</g>
<!-- kernel -->
<g id="node18" class="node">
<title>kernel</title>
<polygon fill="none" stroke="black" points="577.75,-601.14 520.5,-601.14 520.5,-565.14 577.75,-565.14 577.75,-601.14"/>
<text text-anchor="middle" x="549.12" y="-578.84" font-family="sans-serif" font-size="14.00">kernel</text>
</g>
<!-- kernel&#45;&gt;hash -->
<g id="edge49" class="edge">
<title>kernel&#45;&gt;hash</title>
<path fill="none" stroke="black" d="M577.88,-595.47C593.82,-602.51 614.24,-611.43 632.5,-619.14 673.73,-636.54 698.19,-621.88 725.75,-657.14 794.88,-745.58 700.4,-813.13 761.75,-907.14 769.21,-918.56 780.97,-927.43 792.6,-934.02"/>
<polygon fill="black" stroke="black" points="790.83,-937.04 801.32,-938.52 794.05,-930.82 790.83,-937.04"/>
</g>
<!-- kernel&#45;&gt;init -->
<g id="edge50" class="edge">
<title>kernel&#45;&gt;init</title>
<path fill="none" stroke="black" d="M578.18,-565.86C584.5,-561.41 590.97,-556.39 596.5,-551.14 621.59,-527.32 645.12,-495.33 660.41,-472.74"/>
<polygon fill="black" stroke="black" points="663.17,-474.92 665.79,-464.65 657.34,-471.04 663.17,-474.92"/>
</g>
<!-- kernel&#45;&gt;object -->
<g id="edge51" class="edge">
<title>kernel&#45;&gt;object</title>
<path fill="none" stroke="black" d="M577.97,-596.71C584.43,-600.56 591.02,-605.09 596.5,-610.14 604.3,-617.32 638.2,-667.27 659.79,-699.54"/>
<polygon fill="black" stroke="black" points="656.74,-701.28 665.21,-707.66 662.57,-697.4 656.74,-701.28"/>
</g>
<!-- kernel&#45;&gt;sexp -->
<g id="edge52" class="edge">
<title>kernel&#45;&gt;sexp</title>
<path fill="none" stroke="black" d="M577.95,-586.71C666.73,-597.56 941.75,-626.68 1015,-581.14 1047.99,-560.63 1064.08,-516.62 1071.43,-487.2"/>
<polygon fill="black" stroke="black" points="1074.76,-488.34 1073.58,-477.81 1067.93,-486.78 1074.76,-488.34"/>
</g>
<!-- kernel&#45;&gt;store -->
<g id="edge53" class="edge">
<title>kernel&#45;&gt;store</title>
<path fill="none" stroke="black" d="M577.95,-594.57C584.88,-598.58 591.69,-603.73 596.5,-610.14 636.12,-662.88 611.91,-691.46 632.5,-754.14 641.9,-782.75 655.24,-814.45 665.06,-836.62"/>
<polygon fill="black" stroke="black" points="661.8,-837.91 669.09,-845.6 668.19,-835.04 661.8,-837.91"/>
</g>
<!-- kv -->
<g id="node19" class="node">
<title>kv</title>
<polygon fill="none" stroke="black" points="211,-1531.14 157,-1531.14 157,-1495.14 211,-1495.14 211,-1531.14"/>
<text text-anchor="middle" x="184" y="-1508.84" font-family="sans-serif" font-size="14.00">kv</text>
</g>
<!-- lean -->
<g id="node20" class="node">
<title>lean</title>
<polygon fill="none" stroke="black" points="87.5,-1425.14 33.5,-1425.14 33.5,-1389.14 87.5,-1389.14 87.5,-1425.14"/>
<text text-anchor="middle" x="60.5" y="-1402.84" font-family="sans-serif" font-size="14.00">lean</text>
</g>
<!-- llm -->
<g id="node21" class="node">
<title>llm</title>
<polygon fill="none" stroke="black" points="211,-941.14 157,-941.14 157,-905.14 211,-905.14 211,-941.14"/>
<text text-anchor="middle" x="184" y="-918.84" font-family="sans-serif" font-size="14.00">llm</text>
</g>
<!-- llm&#45;&gt;proto -->
<g id="edge54" class="edge">
<title>llm&#45;&gt;proto</title>
<path fill="none" stroke="black" d="M211.33,-922.15C224.13,-921.67 239.74,-921.08 253.78,-920.55"/>
<polygon fill="black" stroke="black" points="253.73,-924.06 263.6,-920.18 253.47,-917.06 253.73,-924.06"/>
</g>
<!-- lsp&#45;&gt;sexp -->
<g id="edge55" class="edge">
<title>lsp&#45;&gt;sexp</title>
<path fill="none" stroke="black" d="M857.3,-90.76C902.88,-102.82 993.99,-129.4 1015,-154.14 1023.96,-164.69 1058.5,-354.29 1071.77,-428.61"/>
<polygon fill="black" stroke="black" points="1068.32,-429.17 1073.51,-438.4 1075.21,-427.95 1068.32,-429.17"/>
</g>
<!-- lsp&#45;&gt;wasm -->
<g id="edge56" class="edge">
<title>lsp&#45;&gt;wasm</title>
<path fill="none" stroke="black" d="M842.79,-102.39C858.74,-128.43 886.7,-178.31 898.5,-225.14 939.32,-387.15 916.47,-810.03 934.5,-976.14 942.4,-1048.96 958.61,-1133.63 967.53,-1177.45"/>
<polygon fill="black" stroke="black" points="964.09,-1178.1 969.53,-1187.2 970.94,-1176.7 964.09,-1178.1"/>
</g>
<!-- metamath&#45;&gt;parse -->
<g id="edge57" class="edge">
<title>metamath&#45;&gt;parse</title>
<path fill="none" stroke="black" d="M994.98,-476.63C1001.37,-482.81 1008.51,-489.75 1015,-496.14 1068,-548.34 1129.27,-610.07 1163.33,-644.5"/>
<polygon fill="black" stroke="black" points="1160.79,-646.91 1170.31,-651.56 1165.77,-641.99 1160.79,-646.91"/>
</g>
<!-- metamath&#45;&gt;sexp -->
<g id="edge58" class="edge">
<title>metamath&#45;&gt;sexp</title>
<path fill="none" stroke="black" d="M1015.48,-458.14C1023.35,-458.14 1031.59,-458.14 1039.39,-458.14"/>
<polygon fill="black" stroke="black" points="1039.27,-461.64 1049.27,-458.14 1039.27,-454.64 1039.27,-461.64"/>
</g>
<!-- multiformat -->
<g id="node24" class="node">
<title>multiformat</title>
<polygon fill="none" stroke="black" points="724.25,-1225.14 634,-1225.14 634,-1189.14 724.25,-1189.14 724.25,-1225.14"/>
<text text-anchor="middle" x="679.12" y="-1202.84" font-family="sans-serif" font-size="14.00">multiformat</text>
</g>
<!-- multiformat&#45;&gt;acset -->
<g id="edge59" class="edge">
<title>multiformat&#45;&gt;acset</title>
<path fill="none" stroke="black" d="M724.43,-1200.3C745.8,-1197 771.16,-1193.08 791.56,-1189.93"/>
<polygon fill="black" stroke="black" points="792.1,-1193.39 801.44,-1188.41 791.03,-1186.48 792.1,-1193.39"/>
</g>
<!-- multiformat&#45;&gt;hash -->
<g id="edge60" class="edge">
<title>multiformat&#45;&gt;hash</title>
<path fill="none" stroke="black" d="M712.66,-1188.72C717.6,-1184.76 722.22,-1180.22 725.75,-1175.14 761.91,-1123.08 733.93,-1094.09 761.75,-1037.14 772.65,-1014.82 789.69,-992.63 803.91,-976.12"/>
<polygon fill="black" stroke="black" points="806.46,-978.51 810.45,-968.7 801.21,-973.88 806.46,-978.51"/>
</g>
<!-- multiformat&#45;&gt;parse -->
<g id="edge61" class="edge">
<title>multiformat&#45;&gt;parse</title>
<path fill="none" stroke="black" d="M710.85,-1188.77C716.22,-1184.71 721.45,-1180.12 725.75,-1175.14 749.11,-1148.04 736.47,-1128.45 761.75,-1103.14 850.73,-1014.05 923.54,-1062.68 1015,-976.14 1101.84,-893.96 1158.04,-758.91 1179.64,-700.06"/>
<polygon fill="black" stroke="black" points="1182.89,-701.36 1182.98,-690.76 1176.3,-698.99 1182.89,-701.36"/>
</g>
<!-- object&#45;&gt;hash -->
<g id="edge62" class="edge">
<title>object&#45;&gt;hash</title>
<path fill="none" stroke="black" d="M687.7,-745.4C705.67,-788.53 750.27,-894.04 761.75,-907.14 770.37,-916.98 781.87,-925.3 792.92,-931.87"/>
<polygon fill="black" stroke="black" points="791.08,-934.85 801.52,-936.67 794.49,-928.74 791.08,-934.85"/>
</g>
<!-- object&#45;&gt;parse -->
<g id="edge63" class="edge">
<title>object&#45;&gt;parse</title>
<path fill="none" stroke="black" d="M701.66,-708.64C717.22,-696.54 739.36,-681.78 761.75,-675.14 900.68,-633.94 1076.31,-653.2 1152.05,-664.71"/>
<polygon fill="black" stroke="black" points="1151.41,-668.15 1161.83,-666.24 1152.5,-661.23 1151.41,-668.15"/>
</g>
<!-- opentheory&#45;&gt;hol -->
<g id="edge64" class="edge">
<title>opentheory&#45;&gt;hol</title>
<path fill="none" stroke="black" d="M338.48,-184.36C399.32,-182.26 510.15,-184.33 596.5,-219.14 615.3,-226.71 613.41,-240.31 632.5,-247.14 685.18,-265.96 750.96,-262.74 791.5,-257.98"/>
<polygon fill="black" stroke="black" points="791.75,-261.48 801.23,-256.74 790.87,-254.53 791.75,-261.48"/>
</g>
<!-- parquet -->
<g id="node27" class="node">
<title>parquet</title>
<polygon fill="none" stroke="black" points="453.38,-1005.14 386.38,-1005.14 386.38,-969.14 453.38,-969.14 453.38,-1005.14"/>
<text text-anchor="middle" x="419.88" y="-982.84" font-family="sans-serif" font-size="14.00">parquet</text>
</g>
<!-- parquet&#45;&gt;arrow -->
<g id="edge65" class="edge">
<title>parquet&#45;&gt;arrow</title>
<path fill="none" stroke="black" d="M453.65,-998.98C471.21,-1005.33 492.91,-1013.18 511.08,-1019.75"/>
<polygon fill="black" stroke="black" points="509.86,-1023.02 520.45,-1023.13 512.24,-1016.44 509.86,-1023.02"/>
</g>
<!-- pure&#45;trusted -->
<g id="node31" class="node">
<title>pure&#45;trusted</title>
<polygon fill="#ffd6d6" stroke="black" points="1240.25,-293.14 1141,-293.14 1141,-257.14 1240.25,-257.14 1240.25,-293.14"/>
<text text-anchor="middle" x="1190.62" y="-270.84" font-family="sans-serif" font-size="14.00">pure&#45;trusted</text>
</g>
<!-- pure&#45;&gt;pure&#45;trusted -->
<g id="edge66" class="edge">
<title>pure&#45;&gt;pure&#45;trusted</title>
<path fill="none" stroke="black" d="M1105.5,-275.14C1112.79,-275.14 1121.02,-275.14 1129.39,-275.14"/>
<polygon fill="black" stroke="black" points="1129.32,-278.64 1139.32,-275.14 1129.32,-271.64 1129.32,-278.64"/>
</g>
<!-- pure&#45;trusted&#45;&gt;types -->
<g id="edge67" class="edge">
<title>pure&#45;trusted&#45;&gt;types</title>
<path fill="none" stroke="black" d="M1235.98,-256.69C1245.75,-252.63 1255.99,-248.37 1265.42,-244.45"/>
<polygon fill="black" stroke="black" points="1266.75,-247.69 1274.64,-240.62 1264.06,-241.23 1266.75,-247.69"/>
</g>
<!-- python -->
<g id="node32" class="node">
<title>python</title>
<polygon fill="none" stroke="black" points="91.38,-1317.14 29.62,-1317.14 29.62,-1281.14 91.38,-1281.14 91.38,-1317.14"/>
<text text-anchor="middle" x="60.5" y="-1294.84" font-family="sans-serif" font-size="14.00">python</text>
</g>
<!-- python&#45;&gt;git -->
<g id="edge68" class="edge">
<title>python&#45;&gt;git</title>
<path fill="none" stroke="black" d="M68.79,-1280.77C82.82,-1246.72 115.84,-1172.31 157,-1118.14 190.29,-1074.33 202.53,-1065.53 247,-1033.14 284.3,-1005.96 306.36,-1016.73 338,-983.14 363.62,-955.93 347.99,-933.97 374,-907.14 376.62,-904.43 379.63,-901.99 382.81,-899.79"/>
<polygon fill="black" stroke="black" points="384.59,-902.81 391.42,-894.71 381.03,-896.78 384.59,-902.81"/>
</g>
<!-- python&#45;&gt;graph -->
<g id="edge69" class="edge">
<title>python&#45;&gt;graph</title>
<path fill="none" stroke="black" d="M91.58,-1303.73C110.37,-1306.56 135.08,-1310.19 157,-1313.14 236.64,-1323.84 330.11,-1334.9 381.05,-1340.8"/>
<polygon fill="black" stroke="black" points="380.62,-1344.28 390.95,-1341.95 381.42,-1337.32 380.62,-1344.28"/>
</g>
<!-- python&#45;&gt;hash -->
<g id="edge70" class="edge">
<title>python&#45;&gt;hash</title>
<path fill="none" stroke="black" d="M91.76,-1310.01C110.4,-1316.45 134.89,-1324.43 157,-1330.14 291.09,-1364.74 332.35,-1409.31 465.75,-1372.14 531.15,-1353.91 554.45,-1346.44 596.5,-1293.14 629.14,-1251.75 597.6,-1219.64 632.5,-1180.14 662.72,-1145.93 695.16,-1171.01 725.75,-1137.14 758.81,-1100.52 737.84,-1075.29 761.75,-1032.14 773.03,-1011.78 789.43,-991.45 803.22,-976.01"/>
<polygon fill="black" stroke="black" points="805.79,-978.38 809.96,-968.64 800.63,-973.66 805.79,-978.38"/>
</g>
<!-- python&#45;&gt;kv -->
<g id="edge71" class="edge">
<title>python&#45;&gt;kv</title>
<path fill="none" stroke="black" d="M91.61,-1306.74C102.3,-1310.84 113.52,-1317.01 121,-1326.14 165.83,-1380.84 125.9,-1417.62 157,-1481.14 157.73,-1482.62 158.54,-1484.1 159.41,-1485.56"/>
<polygon fill="black" stroke="black" points="156.38,-1487.33 164.93,-1493.58 162.14,-1483.36 156.38,-1487.33"/>
</g>
<!-- python&#45;&gt;llm -->
<g id="edge72" class="edge">
<title>python&#45;&gt;llm</title>
<path fill="none" stroke="black" d="M63.86,-1281.01C71.28,-1228.18 97.29,-1070.79 157,-955.14 157.76,-953.67 158.59,-952.2 159.48,-950.75"/>
<polygon fill="black" stroke="black" points="162.21,-952.96 165.08,-942.76 156.47,-948.95 162.21,-952.96"/>
</g>
<!-- python&#45;&gt;object -->
<g id="edge73" class="edge">
<title>python&#45;&gt;object</title>
<path fill="none" stroke="black" d="M91.71,-1283.68C162.39,-1247.82 344.44,-1157.14 501.75,-1093.14 543.05,-1076.33 567.83,-1094.29 596.5,-1060.14 660.76,-983.57 605.32,-934.33 632.5,-838.14 640.64,-809.32 654.02,-777.87 664.19,-755.83"/>
<polygon fill="black" stroke="black" points="667.31,-757.44 668.39,-746.9 660.97,-754.46 667.31,-757.44"/>
</g>
<!-- python&#45;&gt;repl -->
<g id="edge74" class="edge">
<title>python&#45;&gt;repl</title>
<path fill="none" stroke="black" d="M73.22,-1280.68C90.09,-1254.8 122.97,-1206.88 157,-1171.14 187.95,-1138.63 228.16,-1106.55 256.52,-1085.3"/>
<polygon fill="black" stroke="black" points="258.49,-1088.2 264.44,-1079.43 254.32,-1082.58 258.49,-1088.2"/>
</g>
<!-- sat -->
<g id="node35" class="node">
<title>sat</title>
<polygon fill="none" stroke="black" points="857.12,-720.14 803.12,-720.14 803.12,-684.14 857.12,-684.14 857.12,-720.14"/>
<text text-anchor="middle" x="830.12" y="-697.84" font-family="sans-serif" font-size="14.00">sat</text>
</g>
<!-- python&#45;&gt;sat -->
<g id="edge75" class="edge">
<title>python&#45;&gt;sat</title>
<path fill="none" stroke="black" d="M91.71,-1300.72C182.75,-1303.74 456.75,-1299.51 596.5,-1151.14 628.82,-1116.83 770.61,-824.13 815.47,-730.68"/>
<polygon fill="black" stroke="black" points="818.5,-732.44 819.67,-721.91 812.19,-729.42 818.5,-732.44"/>
</g>
<!-- python&#45;&gt;serve -->
<g id="edge76" class="edge">
<title>python&#45;&gt;serve</title>
<path fill="none" stroke="black" d="M65.75,-1280.83C83.76,-1203.33 153.8,-901.83 176.12,-805.73"/>
<polygon fill="black" stroke="black" points="179.52,-806.57 178.38,-796.04 172.7,-804.99 179.52,-806.57"/>
</g>
<!-- python&#45;&gt;sexp -->
<g id="edge77" class="edge">
<title>python&#45;&gt;sexp</title>
<path fill="none" stroke="black" d="M91.77,-1306.26C102.61,-1310.32 113.89,-1316.58 121,-1326.14 192.69,-1422.59 72.31,-1508.87 157,-1594.14 199.54,-1636.97 231.13,-1613.14 291.5,-1613.14 291.5,-1613.14 291.5,-1613.14 831.12,-1613.14 1068.49,-1613.14 1077.62,-668.13 1077.2,-487.7"/>
<polygon fill="black" stroke="black" points="1080.7,-487.78 1077.16,-477.79 1073.7,-487.81 1080.7,-487.78"/>
</g>
<!-- python&#45;&gt;shell -->
<g id="edge78" class="edge">
<title>python&#45;&gt;shell</title>
<path fill="none" stroke="black" d="M65.31,-1280.81C74.86,-1238.07 103.05,-1129.84 157,-1056.14 187.42,-1014.58 202.66,-1009.34 247,-983.14 284.59,-960.92 311.52,-980.85 338,-946.14 419.98,-838.66 296.8,-755.09 374,-644.14 376.39,-640.7 379.45,-637.75 382.85,-635.21"/>
<polygon fill="black" stroke="black" points="384.36,-638.39 391.12,-630.23 380.75,-632.4 384.36,-638.39"/>
</g>
<!-- sig -->
<g id="node39" class="node">
<title>sig</title>
<polygon fill="none" stroke="black" points="211,-1585.14 157,-1585.14 157,-1549.14 211,-1549.14 211,-1585.14"/>
<text text-anchor="middle" x="184" y="-1562.84" font-family="sans-serif" font-size="14.00">sig</text>
</g>
<!-- python&#45;&gt;sig -->
<g id="edge79" class="edge">
<title>python&#45;&gt;sig</title>
<path fill="none" stroke="black" d="M91.6,-1306.38C102.42,-1310.46 113.74,-1316.7 121,-1326.14 177.68,-1399.82 118.23,-1450.25 157.8,-1538.68"/>
<polygon fill="black" stroke="black" points="154.53,-1539.94 162.02,-1547.42 160.83,-1536.89 154.53,-1539.94"/>
</g>
<!-- python&#45;&gt;store -->
<g id="edge80" class="edge">
<title>python&#45;&gt;store</title>
<path fill="none" stroke="black" d="M91.71,-1293.44C173.64,-1277.72 398.44,-1232.64 465.75,-1199.14 532.72,-1165.8 553.24,-1154.17 596.5,-1093.14 641.03,-1030.32 663.62,-940.7 672.87,-894.77"/>
<polygon fill="black" stroke="black" points="676.29,-895.52 674.75,-885.04 669.42,-894.19 676.29,-895.52"/>
</g>
<!-- python&#45;&gt;wasm -->
<g id="edge81" class="edge">
<title>python&#45;&gt;wasm</title>
<path fill="none" stroke="black" d="M91.74,-1307.4C102.19,-1311.55 113.22,-1317.57 121,-1326.14 154.18,-1362.65 120.92,-1397.49 157,-1431.14 300.47,-1564.94 402.13,-1498.7 596.5,-1472.14 735.14,-1453.19 794.44,-1476.68 898.5,-1383.14 941.95,-1344.08 961.21,-1275.66 969.02,-1236.63"/>
<polygon fill="black" stroke="black" points="972.42,-1237.48 970.81,-1227.01 965.53,-1236.2 972.42,-1237.48"/>
</g>
<!-- wasm&#45;store -->
<g id="node48" class="node">
<title>wasm&#45;store</title>
<polygon fill="none" stroke="black" points="596.5,-1409.14 501.75,-1409.14 501.75,-1373.14 596.5,-1373.14 596.5,-1409.14"/>
<text text-anchor="middle" x="549.12" y="-1386.84" font-family="sans-serif" font-size="14.00">wasm&#45;store</text>
</g>
<!-- python&#45;&gt;wasm&#45;store -->
<g id="edge82" class="edge">
<title>python&#45;&gt;wasm&#45;store</title>
<path fill="none" stroke="black" d="M91.61,-1307.94C101.92,-1312.13 112.89,-1318.04 121,-1326.14 148.31,-1353.4 124.55,-1384.26 157,-1405.14 259.27,-1470.92 409.7,-1437.89 490.97,-1412.05"/>
<polygon fill="black" stroke="black" points="491.63,-1415.51 500.05,-1409.09 489.46,-1408.86 491.63,-1415.51"/>
</g>
<!-- repl&#45;&gt;arrow -->
<g id="edge83" class="edge">
<title>repl&#45;&gt;arrow</title>
<path fill="none" stroke="black" d="M319.79,-1057.35C365.17,-1052.54 458.36,-1042.65 510.57,-1037.12"/>
<polygon fill="black" stroke="black" points="510.9,-1040.6 520.47,-1036.07 510.16,-1033.64 510.9,-1040.6"/>
</g>
<!-- repl&#45;&gt;forsp -->
<g id="edge84" class="edge">
<title>repl&#45;&gt;forsp</title>
<path fill="none" stroke="black" d="M319.53,-1078.4C375.9,-1117.77 513.76,-1213.16 632.5,-1288.14 635.61,-1290.1 638.87,-1292.11 642.14,-1294.11"/>
<polygon fill="black" stroke="black" points="640.24,-1297.05 650.61,-1299.19 643.84,-1291.04 640.24,-1297.05"/>
</g>
<!-- repl&#45;&gt;git -->
<g id="edge85" class="edge">
<title>repl&#45;&gt;git</title>
<path fill="none" stroke="black" d="M319.8,-1045.2C326.44,-1040.43 333.08,-1034.68 338,-1028.14 366.65,-990.05 348.1,-967.14 374,-927.14 377.85,-921.19 382.67,-915.47 387.72,-910.25"/>
<polygon fill="black" stroke="black" points="389.89,-913.01 394.64,-903.54 385.02,-907.99 389.89,-913.01"/>
</g>
<!-- repl&#45;&gt;graph -->
<g id="edge86" class="edge">
<title>repl&#45;&gt;graph</title>
<path fill="none" stroke="black" d="M298.93,-1078.52C310.42,-1116.36 339.03,-1205.28 374,-1275.14 381.24,-1289.6 390.74,-1304.81 399.13,-1317.35"/>
<polygon fill="black" stroke="black" points="396.18,-1319.23 404.71,-1325.51 401.96,-1315.28 396.18,-1319.23"/>
</g>
<!-- repl&#45;&gt;hash -->
<g id="edge87" class="edge">
<title>repl&#45;&gt;hash</title>
<path fill="none" stroke="black" d="M319.92,-1065.59C373.68,-1075.51 498.94,-1092.66 596.5,-1060.14 615.47,-1053.81 615.18,-1043.14 632.5,-1033.14 685.39,-1002.6 751.52,-976.62 792.01,-961.95"/>
<polygon fill="black" stroke="black" points="793.06,-965.29 801.3,-958.63 790.71,-958.7 793.06,-965.29"/>
</g>
<!-- repl&#45;&gt;init -->
<g id="edge88" class="edge">
<title>repl&#45;&gt;init</title>
<path fill="none" stroke="black" d="M306.92,-1041.85C317.2,-1026.86 330.81,-1004.66 338,-983.14 380.12,-857.02 293.6,-792.04 374,-686.14 400.69,-650.98 434.85,-679.65 465.75,-648.14 496.49,-616.78 473.77,-589.97 501.75,-556.14 539.69,-510.27 601.72,-477.51 641.2,-459.95"/>
<polygon fill="black" stroke="black" points="642.52,-463.19 650.31,-456.01 639.74,-456.77 642.52,-463.19"/>
</g>
<!-- repl&#45;&gt;object -->
<g id="edge89" class="edge">
<title>repl&#45;&gt;object</title>
<path fill="none" stroke="black" d="M319.66,-1044.37C326.15,-1039.68 332.75,-1034.16 338,-1028.14 360.47,-1002.36 349.86,-984.36 374,-960.14 406.63,-927.39 426.32,-935.27 465.75,-911.14 526.14,-874.17 543.71,-867.31 596.5,-820.14 619.08,-799.96 641.54,-773.81 657.16,-754.38"/>
<polygon fill="black" stroke="black" points="659.84,-756.64 663.31,-746.63 654.36,-752.29 659.84,-756.64"/>
</g>
<!-- repl&#45;&gt;parquet -->
<g id="edge90" class="edge">
<title>repl&#45;&gt;parquet</title>
<path fill="none" stroke="black" d="M319.78,-1044.83C336.46,-1035.12 358.4,-1022.35 377.39,-1011.29"/>
<polygon fill="black" stroke="black" points="379.11,-1014.34 385.99,-1006.28 375.59,-1008.29 379.11,-1014.34"/>
</g>
<!-- repl&#45;&gt;shell -->
<g id="edge91" class="edge">
<title>repl&#45;&gt;shell</title>
<path fill="none" stroke="black" d="M306.99,-1041.88C317.31,-1026.89 330.94,-1004.71 338,-983.14 383.9,-842.92 299.42,-780.43 374,-653.14 376.57,-648.75 380.01,-644.8 383.85,-641.3"/>
<polygon fill="black" stroke="black" points="385.8,-644.22 391.51,-635.29 381.48,-638.71 385.8,-644.22"/>
</g>
<!-- repl&#45;&gt;wasm -->
<g id="edge92" class="edge">
<title>repl&#45;&gt;wasm</title>
<path fill="none" stroke="black" d="M308.14,-1078.58C340.17,-1119.62 417.49,-1222.44 465.75,-1318.14 487.02,-1360.31 463.1,-1390.97 501.75,-1418.14 575.37,-1469.88 828.81,-1394.07 898.5,-1337.14 931.27,-1310.36 952.73,-1265.3 964.05,-1235.89"/>
<polygon fill="black" stroke="black" points="967.2,-1237.47 967.38,-1226.87 960.63,-1235.05 967.2,-1237.47"/>
</g>
<!-- sat&#45;&gt;parse -->
<g id="edge93" class="edge">
<title>sat&#45;&gt;parse</title>
<path fill="none" stroke="black" d="M857.49,-699.86C920.29,-694.43 1078.93,-680.71 1151.87,-674.4"/>
<polygon fill="black" stroke="black" points="1152.06,-677.9 1161.72,-673.55 1151.45,-670.92 1152.06,-677.9"/>
</g>
<!-- sat&#45;&gt;types -->
<g id="edge94" class="edge">
<title>sat&#45;&gt;types</title>
<path fill="none" stroke="black" d="M857.56,-712.29C929.47,-737.99 1130.58,-796.87 1240.25,-698.14 1273.07,-668.59 1294.5,-357.72 1300.52,-259.03"/>
<polygon fill="black" stroke="black" points="1304.01,-259.27 1301.11,-249.08 1297.02,-258.85 1304.01,-259.27"/>
</g>
<!-- sat&#45;&gt;wasm -->
<g id="edge95" class="edge">
<title>sat&#45;&gt;wasm</title>
<path fill="none" stroke="black" d="M857.41,-708.15C871.79,-712.82 888.63,-720.82 898.5,-734.14 930.86,-777.83 925.95,-922.44 934.5,-976.14 946.05,-1048.66 960.83,-1133.77 968.54,-1177.65"/>
<polygon fill="black" stroke="black" points="965.08,-1178.16 970.26,-1187.4 971.97,-1176.94 965.08,-1178.16"/>
</g>
<!-- serve&#45;&gt;core -->
<g id="edge96" class="edge">
<title>serve&#45;&gt;core</title>
<path fill="none" stroke="black" d="M186.3,-757.99C191.19,-693.99 210.03,-479.63 247,-423.14 297.2,-346.44 327.21,-309.14 418.88,-309.14 418.88,-309.14 418.88,-309.14 550.12,-309.14 693.35,-309.14 862.94,-289.59 936.56,-280.14"/>
<polygon fill="black" stroke="black" points="936.57,-283.66 946.03,-278.91 935.67,-276.72 936.57,-283.66"/>
</g>
<!-- serve&#45;&gt;git -->
<g id="edge97" class="edge">
<title>serve&#45;&gt;git</title>
<path fill="none" stroke="black" d="M211.2,-791.79C222.12,-798.09 235.03,-805.24 247,-811.14 292.73,-833.66 347.12,-856.06 382.28,-869.98"/>
<polygon fill="black" stroke="black" points="380.55,-873.06 391.14,-873.47 383.12,-866.55 380.55,-873.06"/>
</g>
<!-- serve&#45;&gt;hash -->
<g id="edge98" class="edge">
<title>serve&#45;&gt;hash</title>
<path fill="none" stroke="black" d="M189.12,-794.4C194.38,-817.9 203.68,-859.99 211,-896.14 219.57,-938.47 214.08,-1059.18 247,-1087.14 410.54,-1226.02 540.4,-1133.21 725.75,-1025.14 751.33,-1010.22 778.22,-990.3 798.16,-974.6"/>
<polygon fill="black" stroke="black" points="800.26,-977.4 805.9,-968.43 795.9,-971.93 800.26,-977.4"/>
</g>
<!-- serve&#45;&gt;init -->
<g id="edge99" class="edge">
<title>serve&#45;&gt;init</title>
<path fill="none" stroke="black" d="M184.72,-757.83C185.05,-714.8 191.65,-605.96 247,-541.14 287.06,-494.22 314.6,-501.77 374,-485.14 467.79,-458.87 582.8,-449.72 640.84,-446.63"/>
<polygon fill="black" stroke="black" points="640.67,-450.15 650.48,-446.15 640.32,-443.15 640.67,-450.15"/>
</g>
<!-- serve&#45;&gt;metamath -->
<g id="edge100" class="edge">
<title>serve&#45;&gt;metamath</title>
<path fill="none" stroke="black" d="M186.44,-757.9C191.3,-701.05 208.95,-528.61 247,-490.14 430.56,-304.54 791.46,-397.78 923.68,-440.58"/>
<polygon fill="black" stroke="black" points="922.25,-443.8 932.84,-443.59 924.43,-437.15 922.25,-443.8"/>
</g>
<!-- serve&#45;&gt;object -->
<g id="edge101" class="edge">
<title>serve&#45;&gt;object</title>
<path fill="none" stroke="black" d="M211.16,-773.54C292.59,-765.45 541.84,-740.68 638.88,-731.04"/>
<polygon fill="black" stroke="black" points="639.1,-734.53 648.7,-730.06 638.4,-727.57 639.1,-734.53"/>
</g>
<!-- serve&#45;&gt;proto -->
<g id="edge102" class="edge">
<title>serve&#45;&gt;proto</title>
<path fill="none" stroke="black" d="M198.7,-794.54C217.08,-819.21 249.84,-863.2 271.11,-891.76"/>
<polygon fill="black" stroke="black" points="268.16,-893.66 276.94,-899.59 273.78,-889.48 268.16,-893.66"/>
</g>
<!-- serve&#45;&gt;repl -->
<g id="edge103" class="edge">
<title>serve&#45;&gt;repl</title>
<path fill="none" stroke="black" d="M191.56,-794.55C202.73,-825.8 226.25,-891.17 247,-946.14 258.03,-975.35 271.06,-1008.59 280.16,-1031.6"/>
<polygon fill="black" stroke="black" points="276.79,-1032.6 283.73,-1040.61 283.3,-1030.03 276.79,-1032.6"/>
</g>
<!-- serve&#45;&gt;shell -->
<g id="edge104" class="edge">
<title>serve&#45;&gt;shell</title>
<path fill="none" stroke="black" d="M211.37,-758.66C253.42,-730.79 335.72,-676.25 383.05,-644.88"/>
<polygon fill="black" stroke="black" points="384.93,-647.83 391.34,-639.39 381.07,-641.99 384.93,-647.83"/>
</g>
<!-- serve&#45;&gt;store -->
<g id="edge105" class="edge">
<title>serve&#45;&gt;store</title>
<path fill="none" stroke="black" d="M211.16,-780.86C293.07,-795.64 544.77,-841.07 640.57,-858.36"/>
<polygon fill="black" stroke="black" points="639.77,-861.77 650.24,-860.1 641.02,-854.88 639.77,-861.77"/>
</g>
<!-- sexp&#45;&gt;parse -->
<g id="edge106" class="edge">
<title>sexp&#45;&gt;parse</title>
<path fill="none" stroke="black" d="M1088.43,-476.3C1107.69,-513.38 1151.67,-598.06 1174.79,-642.58"/>
<polygon fill="black" stroke="black" points="1171.65,-644.11 1179.36,-651.38 1177.86,-640.89 1171.65,-644.11"/>
</g>
<!-- shell&#45;&gt;hol -->
<g id="edge107" class="edge">
<title>shell&#45;&gt;hol</title>
<path fill="none" stroke="black" d="M434.24,-602.92C449.55,-582.56 475.88,-549.05 501.75,-523.14 600.92,-423.81 733.48,-322.46 795.04,-276.94"/>
<polygon fill="black" stroke="black" points="796.76,-280.02 802.73,-271.27 792.6,-274.39 796.76,-280.02"/>
</g>
<!-- shell&#45;&gt;kernel -->
<g id="edge108" class="edge">
<title>shell&#45;&gt;kernel</title>
<path fill="none" stroke="black" d="M447.24,-613.26C465.09,-607.93 488.99,-600.8 509.04,-594.81"/>
<polygon fill="black" stroke="black" points="510,-598.18 518.58,-591.96 507.99,-591.47 510,-598.18"/>
</g>
<!-- smt&#45;&gt;sat -->
<g id="edge109" class="edge">
<title>smt&#45;&gt;sat</title>
<path fill="none" stroke="black" d="M682.66,-129.46C690.93,-187.74 719.16,-373.78 761.75,-523.14 777.2,-577.31 801.76,-638.29 816.57,-673.26"/>
<polygon fill="black" stroke="black" points="813.27,-674.45 820.42,-682.27 819.71,-671.7 813.27,-674.45"/>
</g>
<!-- smt&#45;&gt;sexp -->
<g id="edge110" class="edge">
<title>smt&#45;&gt;sexp</title>
<path fill="none" stroke="black" d="M706.59,-113.78C778.16,-121.47 972.95,-146.29 1015,-192.14 1031.07,-209.65 1060,-362.93 1071.79,-428.54"/>
<polygon fill="black" stroke="black" points="1068.32,-429 1073.52,-438.23 1075.21,-427.77 1068.32,-429"/>
</g>
<!-- smt&#45;&gt;types -->
<g id="edge111" class="edge">
<title>smt&#45;&gt;types</title>
<path fill="none" stroke="black" d="M701.39,-92.77C716.99,-80.41 739.3,-65 761.75,-57.14 851.03,-25.86 879.15,-38.14 973.75,-38.14 973.75,-38.14 973.75,-38.14 1079,-38.14 1177.99,-38.14 1255.19,-147.89 1286.75,-201"/>
<polygon fill="black" stroke="black" points="1283.64,-202.62 1291.69,-209.51 1289.7,-199.11 1283.64,-202.62"/>
</g>
<!-- spectec&#45;&gt;grammar -->
<g id="edge112" class="edge">
<title>spectec&#45;&gt;grammar</title>
<path fill="none" stroke="black" d="M864.93,-502.53C883.26,-506.01 906.22,-510.35 926.31,-514.16"/>
<polygon fill="black" stroke="black" points="925.48,-517.56 935.96,-515.98 926.79,-510.68 925.48,-517.56"/>
</g>
<!-- store&#45;&gt;hash -->
<g id="edge113" class="edge">
<title>store&#45;&gt;hash</title>
<path fill="none" stroke="black" d="M706.42,-879.96C730.5,-893.53 766.34,-913.74 793.08,-928.82"/>
<polygon fill="black" stroke="black" points="791.09,-931.71 801.52,-933.58 794.53,-925.62 791.09,-931.71"/>
</g>
<!-- store&#45;&gt;json -->
<g id="edge114" class="edge">
<title>store&#45;&gt;json</title>
<path fill="none" stroke="black" d="M682.19,-883.25C689.79,-947.06 718.07,-1160.38 761.75,-1211.14 769.52,-1220.16 780.73,-1226.2 791.79,-1230.23"/>
<polygon fill="black" stroke="black" points="790.63,-1233.54 801.22,-1233.18 792.71,-1226.86 790.63,-1233.54"/>
</g>
<!-- store&#45;&gt;sqlite -->
<g id="edge115" class="edge">
<title>store&#45;&gt;sqlite</title>
<path fill="none" stroke="black" d="M706.42,-867.78C730.07,-870.16 765.08,-873.69 791.66,-876.36"/>
<polygon fill="black" stroke="black" points="791.04,-879.82 801.34,-877.34 791.74,-872.85 791.04,-879.82"/>
</g>
<!-- wasm&#45;build&#45;guest -->
<g id="node46" class="node">
<title>wasm&#45;build&#45;guest</title>
<polygon fill="none" stroke="black" points="898.5,-1148.14 761.75,-1148.14 761.75,-1112.14 898.5,-1112.14 898.5,-1148.14"/>
<text text-anchor="middle" x="830.12" y="-1125.84" font-family="sans-serif" font-size="14.00">wasm&#45;build&#45;guest</text>
</g>
<!-- wasm&#45;build&#45;guest&#45;&gt;wasm -->
<g id="edge116" class="edge">
<title>wasm&#45;build&#45;guest&#45;&gt;wasm</title>
<path fill="none" stroke="black" d="M880.6,-1148.6C886.71,-1151.28 892.81,-1154.15 898.5,-1157.14 912.44,-1164.46 927.02,-1173.73 939.6,-1182.3"/>
<polygon fill="black" stroke="black" points="937.32,-1184.98 947.53,-1187.8 941.31,-1179.23 937.32,-1184.98"/>
</g>
<!-- wasm&#45;spec -->
<g id="node47" class="node">
<title>wasm&#45;spec</title>
<polygon fill="none" stroke="black" points="725.75,-1279.14 632.5,-1279.14 632.5,-1243.14 725.75,-1243.14 725.75,-1279.14"/>
<text text-anchor="middle" x="679.12" y="-1256.84" font-family="sans-serif" font-size="14.00">wasm&#45;spec</text>
</g>
<!-- wasm&#45;spec&#45;&gt;hash -->
<g id="edge117" class="edge">
<title>wasm&#45;spec&#45;&gt;hash</title>
<path fill="none" stroke="black" d="M717.11,-1242.88C720.33,-1240.26 723.29,-1237.35 725.75,-1234.14 762.4,-1186.15 741.6,-1160.05 761.75,-1103.14 777.63,-1058.3 800.6,-1008.13 815.19,-977.6"/>
<polygon fill="black" stroke="black" points="818.32,-979.17 819.51,-968.64 812.01,-976.13 818.32,-979.17"/>
</g>
<!-- wasm&#45;spec&#45;&gt;wasm -->
<g id="edge118" class="edge">
<title>wasm&#45;spec&#45;&gt;wasm</title>
<path fill="none" stroke="black" d="M725.84,-1270.8C771.01,-1278.33 841.43,-1284.58 898.5,-1265.14 917.33,-1258.72 935.11,-1245.48 948.66,-1233.27"/>
<polygon fill="black" stroke="black" points="950.95,-1235.92 955.82,-1226.51 946.15,-1230.83 950.95,-1235.92"/>
</g>
<!-- wasm&#45;store&#45;&gt;json -->
<g id="edge119" class="edge">
<title>wasm&#45;store&#45;&gt;json</title>
<path fill="none" stroke="black" d="M596.7,-1384.85C633.66,-1378.33 685.61,-1365.67 725.75,-1342.14 759.49,-1322.36 789.96,-1288.87 808.93,-1265.25"/>
<polygon fill="black" stroke="black" points="811.51,-1267.63 814.93,-1257.61 806,-1263.31 811.51,-1267.63"/>
</g>
<!-- wasm&#45;store&#45;&gt;store -->
<g id="edge120" class="edge">
<title>wasm&#45;store&#45;&gt;store</title>
<path fill="none" stroke="black" d="M554.81,-1372.87C563.26,-1339.84 581.59,-1267.93 596.5,-1207.14 624.87,-1091.5 657.4,-953.52 671.27,-894.39"/>
<polygon fill="black" stroke="black" points="674.65,-895.33 673.52,-884.8 667.83,-893.73 674.65,-895.33"/>
</g>
<!-- wasm&#45;store&#45;&gt;wasm -->
<g id="edge121" class="edge">
<title>wasm&#45;store&#45;&gt;wasm</title>
<path fill="none" stroke="black" d="M596.88,-1390.99C632.79,-1389.78 683.27,-1385.66 725.75,-1373.14 808.4,-1348.77 829.25,-1336.4 898.5,-1285.14 918.41,-1270.4 937.74,-1250.2 951.82,-1234.05"/>
<polygon fill="black" stroke="black" points="954.26,-1236.58 958.09,-1226.7 948.94,-1232.03 954.26,-1236.58"/>
</g>
<!-- web&#45;kernel -->
<g id="node49" class="node">
<title>web&#45;kernel</title>
<polygon fill="none" stroke="black" points="465.75,-731.14 374,-731.14 374,-695.14 465.75,-695.14 465.75,-731.14"/>
<text text-anchor="middle" x="419.88" y="-708.84" font-family="sans-serif" font-size="14.00">web&#45;kernel</text>
</g>
<!-- web&#45;kernel&#45;&gt;kernel -->
<g id="edge122" class="edge">
<title>web&#45;kernel&#45;&gt;kernel</title>
<path fill="none" stroke="black" d="M451.07,-694.69C456.35,-690.64 461.51,-686.07 465.75,-681.14 488.82,-654.31 477.47,-635.87 501.75,-610.14 504.45,-607.27 507.53,-604.62 510.78,-602.18"/>
<polygon fill="black" stroke="black" points="512.58,-605.18 518.98,-596.74 508.71,-599.35 512.58,-605.18"/>
</g>
</g>
</svg>
