<?xml version="1.0" encoding="UTF-8" standalone="no"?>
<!DOCTYPE svg PUBLIC "-//W3C//DTD SVG 1.1//EN"
 "http://www.w3.org/Graphics/SVG/1.1/DTD/svg11.dtd">
<!-- Generated by graphviz version 12.2.1 (0)
 -->
<!-- Title: deps Pages: 1 -->
<svg width="1475pt" height="2407pt"
 viewBox="0.00 0.00 1474.50 2406.80" xmlns="http://www.w3.org/2000/svg" xmlns:xlink="http://www.w3.org/1999/xlink">
<g id="graph0" class="graph" transform="scale(1 1) rotate(0) translate(4 2402.8)">
<title>deps</title>
<polygon fill="white" stroke="none" points="-4,4 -4,-2402.8 1470.5,-2402.8 1470.5,4 -4,4"/>
<!-- covalence -->
<g id="node1" class="node">
<title>covalence</title>
<polygon fill="none" stroke="black" points="102.62,-844.8 18.38,-844.8 18.38,-808.8 102.62,-808.8 102.62,-844.8"/>
<text text-anchor="middle" x="60.5" y="-822.5" font-family="sans-serif" font-size="14.00">covalence</text>
</g>
<!-- client -->
<g id="node5" class="node">
<title>client</title>
<polygon fill="none" stroke="black" points="350.12,-1004.8 296.12,-1004.8 296.12,-968.8 350.12,-968.8 350.12,-1004.8"/>
<text text-anchor="middle" x="323.12" y="-982.5" font-family="sans-serif" font-size="14.00">client</text>
</g>
<!-- covalence&#45;&gt;client -->
<g id="edge1" class="edge">
<title>covalence&#45;&gt;client</title>
<path fill="none" stroke="black" d="M103.09,-841.85C109.47,-845.21 115.7,-849.18 121,-853.8 143.59,-873.48 134.46,-891.05 157,-910.8 194.59,-943.73 248.86,-965 284.79,-976.44"/>
<polygon fill="black" stroke="black" points="283.73,-979.77 294.32,-979.36 285.79,-973.08 283.73,-979.77"/>
</g>
<!-- fuse -->
<g id="node11" class="node">
<title>fuse</title>
<polygon fill="none" stroke="black" points="603.38,-684.8 549.38,-684.8 549.38,-648.8 603.38,-648.8 603.38,-684.8"/>
<text text-anchor="middle" x="576.38" y="-662.5" font-family="sans-serif" font-size="14.00">fuse</text>
</g>
<!-- covalence&#45;&gt;fuse -->
<g id="edge2" class="edge">
<title>covalence&#45;&gt;fuse</title>
<path fill="none" stroke="black" d="M81.14,-808.32C99.42,-792.12 128.11,-769.14 157,-755.8 288.51,-695.07 462.51,-675.21 537.9,-669.2"/>
<polygon fill="black" stroke="black" points="537.91,-672.71 547.62,-668.47 537.39,-665.73 537.91,-672.71"/>
</g>
<!-- git -->
<g id="node12" class="node">
<title>git</title>
<polygon fill="none" stroke="black" points="476,-440.8 422,-440.8 422,-404.8 476,-404.8 476,-440.8"/>
<text text-anchor="middle" x="449" y="-418.5" font-family="sans-serif" font-size="14.00">git</text>
</g>
<!-- covalence&#45;&gt;git -->
<g id="edge3" class="edge">
<title>covalence&#45;&gt;git</title>
<path fill="none" stroke="black" d="M63.2,-808.57C68.64,-759.12 89.38,-620.14 157,-530.8 195.74,-479.62 217.51,-474.3 277.25,-450.8 320.95,-433.61 374.95,-426.97 410.38,-424.41"/>
<polygon fill="black" stroke="black" points="410.37,-427.92 420.13,-423.78 409.92,-420.93 410.37,-427.92"/>
</g>
<!-- hash -->
<g id="node15" class="node">
<title>hash</title>
<polygon fill="none" stroke="black" points="884.38,-844.8 830.38,-844.8 830.38,-808.8 884.38,-808.8 884.38,-844.8"/>
<text text-anchor="middle" x="857.38" y="-822.5" font-family="sans-serif" font-size="14.00">hash</text>
</g>
<!-- covalence&#45;&gt;hash -->
<g id="edge4" class="edge">
<title>covalence&#45;&gt;hash</title>
<path fill="none" stroke="black" d="M103.02,-840.48C109.64,-844.03 115.96,-848.42 121,-853.8 151.89,-886.73 127.27,-914.82 157,-948.8 197,-994.52 218.35,-998.9 277.25,-1013.8 382.21,-1040.35 657.24,-959.31 753,-908.8 781.29,-893.88 809.47,-870.84 829.25,-852.98"/>
<polygon fill="black" stroke="black" points="831.61,-855.56 836.6,-846.21 826.87,-850.41 831.61,-855.56"/>
</g>
<!-- hol -->
<g id="node17" class="node">
<title>hol</title>
<polygon fill="none" stroke="black" points="884.38,-2180.8 830.38,-2180.8 830.38,-2144.8 884.38,-2144.8 884.38,-2180.8"/>
<text text-anchor="middle" x="857.38" y="-2158.5" font-family="sans-serif" font-size="14.00">hol</text>
</g>
<!-- covalence&#45;&gt;hol -->
<g id="edge5" class="edge">
<title>covalence&#45;&gt;hol</title>
<path fill="none" stroke="black" d="M103.07,-838.41C110.11,-842.21 116.57,-847.21 121,-853.8 177.6,-937.95 142.55,-1665.42 157,-1765.8 193.79,-2021.37 63.92,-2322.8 322.12,-2322.8 322.12,-2322.8 322.12,-2322.8 577.38,-2322.8 683.56,-2322.8 785.94,-2234.51 831.58,-2189.1"/>
<polygon fill="black" stroke="black" points="833.83,-2191.8 838.36,-2182.23 828.85,-2186.89 833.83,-2191.8"/>
</g>
<!-- lsp -->
<g id="node31" class="node">
<title>lsp</title>
<polygon fill="none" stroke="black" points="884.38,-1010.8 830.38,-1010.8 830.38,-974.8 884.38,-974.8 884.38,-1010.8"/>
<text text-anchor="middle" x="857.38" y="-988.5" font-family="sans-serif" font-size="14.00">lsp</text>
</g>
<!-- covalence&#45;&gt;lsp -->
<g id="edge6" class="edge">
<title>covalence&#45;&gt;lsp</title>
<path fill="none" stroke="black" d="M102.86,-838.55C109.92,-842.34 116.44,-847.3 121,-853.8 179.14,-936.64 82.66,-1239.12 157,-1307.8 313.11,-1452.02 482.01,-1362.16 623.75,-1203.8 663.73,-1159.13 620.1,-1118.77 659.75,-1073.8 670.86,-1061.19 765.61,-1025.55 819.41,-1006.02"/>
<polygon fill="black" stroke="black" points="820.59,-1009.31 828.81,-1002.62 818.21,-1002.73 820.59,-1009.31"/>
</g>
<!-- object -->
<g id="node34" class="node">
<title>object</title>
<polygon fill="none" stroke="black" points="735,-684.8 677.75,-684.8 677.75,-648.8 735,-648.8 735,-684.8"/>
<text text-anchor="middle" x="706.38" y="-662.5" font-family="sans-serif" font-size="14.00">object</text>
</g>
<!-- covalence&#45;&gt;object -->
<g id="edge7" class="edge">
<title>covalence&#45;&gt;object</title>
<path fill="none" stroke="black" d="M103.08,-818.26C196.72,-798.76 430.96,-748.37 623.75,-693.8 637.89,-689.8 653.22,-684.88 666.74,-680.34"/>
<polygon fill="black" stroke="black" points="667.83,-683.67 676.17,-677.14 665.58,-677.04 667.83,-683.67"/>
</g>
<!-- opentheory -->
<g id="node35" class="node">
<title>opentheory</title>
<polygon fill="none" stroke="black" points="368.62,-2234.8 277.62,-2234.8 277.62,-2198.8 368.62,-2198.8 368.62,-2234.8"/>
<text text-anchor="middle" x="323.12" y="-2212.5" font-family="sans-serif" font-size="14.00">opentheory</text>
</g>
<!-- covalence&#45;&gt;opentheory -->
<g id="edge8" class="edge">
<title>covalence&#45;&gt;opentheory</title>
<path fill="none" stroke="black" d="M102.92,-838.51C109.98,-842.3 116.48,-847.27 121,-853.8 154.93,-902.77 150.54,-1329.57 157,-1388.8 195.77,-1744.48 90.04,-1879.89 277.25,-2184.8 278.55,-2186.92 280.05,-2188.94 281.7,-2190.86"/>
<polygon fill="black" stroke="black" points="278.97,-2193.09 288.58,-2197.55 283.85,-2188.07 278.97,-2193.09"/>
</g>
<!-- proto -->
<g id="node39" class="node">
<title>proto</title>
<polygon fill="none" stroke="black" points="350.12,-495.8 296.12,-495.8 296.12,-459.8 350.12,-459.8 350.12,-495.8"/>
<text text-anchor="middle" x="323.12" y="-473.5" font-family="sans-serif" font-size="14.00">proto</text>
</g>
<!-- covalence&#45;&gt;proto -->
<g id="edge9" class="edge">
<title>covalence&#45;&gt;proto</title>
<path fill="none" stroke="black" d="M67.01,-808.31C79.03,-769.97 110.3,-680.15 157,-616.8 193.13,-567.79 249.91,-525 286.58,-500.27"/>
<polygon fill="black" stroke="black" points="288.24,-503.37 294.64,-494.92 284.37,-497.54 288.24,-503.37"/>
</g>
<!-- repl -->
<g id="node45" class="node">
<title>repl</title>
<polygon fill="none" stroke="black" points="350.12,-625.8 296.12,-625.8 296.12,-589.8 350.12,-589.8 350.12,-625.8"/>
<text text-anchor="middle" x="323.12" y="-603.5" font-family="sans-serif" font-size="14.00">repl</text>
</g>
<!-- covalence&#45;&gt;repl -->
<g id="edge10" class="edge">
<title>covalence&#45;&gt;repl</title>
<path fill="none" stroke="black" d="M67.11,-808.38C78.46,-774.23 107.35,-700.92 157,-660.8 194.19,-630.75 248.79,-617.58 284.88,-611.92"/>
<polygon fill="black" stroke="black" points="285,-615.44 294.4,-610.55 284.01,-608.51 285,-615.44"/>
</g>
<!-- serve -->
<g id="node48" class="node">
<title>serve</title>
<polygon fill="none" stroke="black" points="226.12,-901.8 172.12,-901.8 172.12,-865.8 226.12,-865.8 226.12,-901.8"/>
<text text-anchor="middle" x="199.12" y="-879.5" font-family="sans-serif" font-size="14.00">serve</text>
</g>
<!-- covalence&#45;&gt;serve -->
<g id="edge11" class="edge">
<title>covalence&#45;&gt;serve</title>
<path fill="none" stroke="black" d="M102.86,-844.05C121.55,-851.85 143.45,-860.99 161.53,-868.53"/>
<polygon fill="black" stroke="black" points="159.98,-871.68 170.56,-872.3 162.68,-865.22 159.98,-871.68"/>
</g>
<!-- shell -->
<g id="node50" class="node">
<title>shell</title>
<polygon fill="none" stroke="black" points="476,-1210.8 422,-1210.8 422,-1174.8 476,-1174.8 476,-1210.8"/>
<text text-anchor="middle" x="449" y="-1188.5" font-family="sans-serif" font-size="14.00">shell</text>
</g>
<!-- covalence&#45;&gt;shell -->
<g id="edge12" class="edge">
<title>covalence&#45;&gt;shell</title>
<path fill="none" stroke="black" d="M102.83,-838.58C109.89,-842.36 116.42,-847.31 121,-853.8 175.18,-930.49 87.83,-1211.29 157,-1274.8 226.41,-1338.52 282.29,-1311.66 369,-1274.8 394.99,-1263.75 416.57,-1239.49 430.58,-1220.21"/>
<polygon fill="black" stroke="black" points="433.31,-1222.41 436.15,-1212.2 427.57,-1218.41 433.31,-1222.41"/>
</g>
<!-- store -->
<g id="node54" class="node">
<title>store</title>
<polygon fill="none" stroke="black" points="733.38,-348.8 679.38,-348.8 679.38,-312.8 733.38,-312.8 733.38,-348.8"/>
<text text-anchor="middle" x="706.38" y="-326.5" font-family="sans-serif" font-size="14.00">store</text>
</g>
<!-- covalence&#45;&gt;store -->
<g id="edge13" class="edge">
<title>covalence&#45;&gt;store</title>
<path fill="none" stroke="black" d="M62.47,-808.39C67.04,-729.71 89.03,-422.76 157,-360.8 218.46,-304.77 445.96,-324.36 529,-319.8 571.05,-317.49 581.73,-316.98 623.75,-319.8 638.24,-320.77 654.08,-322.7 667.92,-324.68"/>
<polygon fill="black" stroke="black" points="667.09,-328.1 677.5,-326.11 668.13,-321.17 667.09,-328.1"/>
</g>
<!-- wasm -->
<g id="node57" class="node">
<title>wasm</title>
<polygon fill="none" stroke="black" points="1025.75,-185.8 971.5,-185.8 971.5,-149.8 1025.75,-149.8 1025.75,-185.8"/>
<text text-anchor="middle" x="998.62" y="-163.5" font-family="sans-serif" font-size="14.00">wasm</text>
</g>
<!-- covalence&#45;&gt;wasm -->
<g id="edge14" class="edge">
<title>covalence&#45;&gt;wasm</title>
<path fill="none" stroke="black" d="M61.45,-808.7C62.19,-751.54 71.58,-572.11 157,-461.8 183.25,-427.9 204.27,-436.5 241.25,-414.8 369.75,-339.38 392.68,-302.93 529,-242.8 584.84,-218.17 600.98,-217.26 659.75,-200.8 716.63,-184.86 730.37,-177.02 789,-169.8 848.35,-162.49 917.92,-163.78 959.84,-165.61"/>
<polygon fill="black" stroke="black" points="959.49,-169.1 969.64,-166.08 959.82,-162.11 959.49,-169.1"/>
</g>
<!-- acset -->
<g id="node2" class="node">
<title>acset</title>
<polygon fill="none" stroke="black" points="884.38,-1064.8 830.38,-1064.8 830.38,-1028.8 884.38,-1028.8 884.38,-1064.8"/>
<text text-anchor="middle" x="857.38" y="-1042.5" font-family="sans-serif" font-size="14.00">acset</text>
</g>
<!-- alethe -->
<g id="node3" class="node">
<title>alethe</title>
<polygon fill="none" stroke="black" points="604.62,-1675.8 548.12,-1675.8 548.12,-1639.8 604.62,-1639.8 604.62,-1675.8"/>
<text text-anchor="middle" x="576.38" y="-1653.5" font-family="sans-serif" font-size="14.00">alethe</text>
</g>
<!-- core -->
<g id="node6" class="node">
<title>core</title>
<polygon fill="#ffd6d6" stroke="black" points="1025.62,-2012.8 971.62,-2012.8 971.62,-1976.8 1025.62,-1976.8 1025.62,-2012.8"/>
<text text-anchor="middle" x="998.62" y="-1990.5" font-family="sans-serif" font-size="14.00">core</text>
</g>
<!-- alethe&#45;&gt;core -->
<g id="edge15" class="edge">
<title>alethe&#45;&gt;core</title>
<path fill="none" stroke="black" d="M605.05,-1673.07C611.82,-1677.76 618.59,-1683.41 623.75,-1689.8 650.05,-1722.35 637.7,-1741.24 659.75,-1776.8 671.26,-1795.35 770.84,-1912.68 789,-1924.8 803.57,-1934.52 904.3,-1966.23 960.29,-1983.44"/>
<polygon fill="black" stroke="black" points="959.15,-1986.75 969.74,-1986.33 961.2,-1980.06 959.15,-1986.75"/>
</g>
<!-- hol&#45;eval -->
<g id="node19" class="node">
<title>hol&#45;eval</title>
<polygon fill="none" stroke="black" points="892.38,-1882.8 822.38,-1882.8 822.38,-1846.8 892.38,-1846.8 892.38,-1882.8"/>
<text text-anchor="middle" x="857.38" y="-1860.5" font-family="sans-serif" font-size="14.00">hol&#45;eval</text>
</g>
<!-- alethe&#45;&gt;hol&#45;eval -->
<g id="edge16" class="edge">
<title>alethe&#45;&gt;hol&#45;eval</title>
<path fill="none" stroke="black" d="M605.1,-1675.44C611.43,-1679.87 617.99,-1684.8 623.75,-1689.8 641.57,-1705.26 641.94,-1713.33 659.75,-1728.8 710.12,-1772.55 774.76,-1814.98 815.89,-1840.5"/>
<polygon fill="black" stroke="black" points="813.92,-1843.4 824.27,-1845.66 817.59,-1837.44 813.92,-1843.4"/>
</g>
<!-- init -->
<g id="node21" class="node">
<title>init</title>
<polygon fill="none" stroke="black" points="733.38,-1556.8 679.38,-1556.8 679.38,-1520.8 733.38,-1520.8 733.38,-1556.8"/>
<text text-anchor="middle" x="706.38" y="-1534.5" font-family="sans-serif" font-size="14.00">init</text>
</g>
<!-- alethe&#45;&gt;init -->
<g id="edge17" class="edge">
<title>alethe&#45;&gt;init</title>
<path fill="none" stroke="black" d="M604.82,-1643.76C611.29,-1639.93 617.98,-1635.52 623.75,-1630.8 647.18,-1611.62 669.69,-1585.46 685.12,-1565.94"/>
<polygon fill="black" stroke="black" points="687.8,-1568.19 691.17,-1558.14 682.27,-1563.9 687.8,-1568.19"/>
</g>
<!-- sexp -->
<g id="node49" class="node">
<title>sexp</title>
<polygon fill="none" stroke="black" points="1025.62,-1316.8 971.62,-1316.8 971.62,-1280.8 1025.62,-1280.8 1025.62,-1316.8"/>
<text text-anchor="middle" x="998.62" y="-1294.5" font-family="sans-serif" font-size="14.00">sexp</text>
</g>
<!-- alethe&#45;&gt;sexp -->
<g id="edge18" class="edge">
<title>alethe&#45;&gt;sexp</title>
<path fill="none" stroke="black" d="M604.99,-1646.21C611.92,-1642.19 618.78,-1637.09 623.75,-1630.8 658.01,-1587.44 633.98,-1560.68 659.75,-1511.8 702.54,-1430.62 711.71,-1400.26 789,-1350.8 803.38,-1341.59 903.79,-1318.98 959.9,-1306.83"/>
<polygon fill="black" stroke="black" points="960.64,-1310.25 969.68,-1304.72 959.16,-1303.41 960.64,-1310.25"/>
</g>
<!-- smt -->
<g id="node51" class="node">
<title>smt</title>
<polygon fill="none" stroke="black" points="733.38,-1648.8 679.38,-1648.8 679.38,-1612.8 733.38,-1612.8 733.38,-1648.8"/>
<text text-anchor="middle" x="706.38" y="-1626.5" font-family="sans-serif" font-size="14.00">smt</text>
</g>
<!-- alethe&#45;&gt;smt -->
<g id="edge19" class="edge">
<title>alethe&#45;&gt;smt</title>
<path fill="none" stroke="black" d="M604.83,-1652.01C623.34,-1648.1 647.98,-1642.9 668.24,-1638.63"/>
<polygon fill="black" stroke="black" points="668.73,-1642.11 677.79,-1636.62 667.28,-1635.26 668.73,-1642.11"/>
</g>
<!-- types -->
<g id="node56" class="node">
<title>types</title>
<polygon fill="#ffd6d6" stroke="black" points="1466.5,-1897.8 1412.5,-1897.8 1412.5,-1861.8 1466.5,-1861.8 1466.5,-1897.8"/>
<text text-anchor="middle" x="1439.5" y="-1875.5" font-family="sans-serif" font-size="14.00">types</text>
</g>
<!-- alethe&#45;&gt;types -->
<g id="edge20" class="edge">
<title>alethe&#45;&gt;types</title>
<path fill="none" stroke="black" d="M578.21,-1676.21C582.83,-1753.97 612,-2057.6 789,-2189.8 863.6,-2245.51 904.52,-2208.8 997.62,-2208.8 997.62,-2208.8 997.62,-2208.8 1215.25,-2208.8 1359.37,-2208.8 1416.9,-1989.97 1433.23,-1909.25"/>
<polygon fill="black" stroke="black" points="1436.66,-1909.93 1435.13,-1899.44 1429.79,-1908.59 1436.66,-1909.93"/>
</g>
<!-- arrow -->
<g id="node4" class="node">
<title>arrow</title>
<polygon fill="none" stroke="black" points="603.38,-554.8 549.38,-554.8 549.38,-518.8 603.38,-518.8 603.38,-554.8"/>
<text text-anchor="middle" x="576.38" y="-532.5" font-family="sans-serif" font-size="14.00">arrow</text>
</g>
<!-- client&#45;&gt;hash -->
<g id="edge21" class="edge">
<title>client&#45;&gt;hash</title>
<path fill="none" stroke="black" d="M350.47,-982.61C418.74,-971.25 606.24,-936.74 753,-878.8 775.97,-869.73 800.71,-857.38 820.23,-847"/>
<polygon fill="black" stroke="black" points="821.73,-850.16 828.87,-842.33 818.41,-844 821.73,-850.16"/>
</g>
<!-- client&#45;&gt;shell -->
<g id="edge22" class="edge">
<title>client&#45;&gt;shell</title>
<path fill="none" stroke="black" d="M335.12,-1005.08C356.83,-1041.19 405.36,-1121.89 431.15,-1164.77"/>
<polygon fill="black" stroke="black" points="428.1,-1166.49 436.25,-1173.26 434.1,-1162.89 428.1,-1166.49"/>
</g>
<!-- client&#45;&gt;store -->
<g id="edge23" class="edge">
<title>client&#45;&gt;store</title>
<path fill="none" stroke="black" d="M332.1,-968.36C356.2,-913.97 432.56,-751.09 529,-639.8 564.35,-599 594.1,-608.91 623.75,-563.8 656.91,-513.34 639.36,-489.63 659.75,-432.8 668.86,-407.41 681.53,-379.52 691.2,-359.33"/>
<polygon fill="black" stroke="black" points="694.22,-361.13 695.43,-350.61 687.92,-358.08 694.22,-361.13"/>
</g>
<!-- pure -->
<g id="node40" class="node">
<title>pure</title>
<polygon fill="#ffd6d6" stroke="black" points="1241.25,-1966.8 1187.25,-1966.8 1187.25,-1930.8 1241.25,-1930.8 1241.25,-1966.8"/>
<text text-anchor="middle" x="1214.25" y="-1944.5" font-family="sans-serif" font-size="14.00">pure</text>
</g>
<!-- core&#45;&gt;pure -->
<g id="edge24" class="edge">
<title>core&#45;&gt;pure</title>
<path fill="none" stroke="black" d="M1025.95,-1989.36C1056.21,-1983.08 1107.36,-1972.39 1151.25,-1962.8 1159.24,-1961.05 1167.79,-1959.15 1175.92,-1957.32"/>
<polygon fill="black" stroke="black" points="1176.56,-1960.76 1185.55,-1955.14 1175.02,-1953.93 1176.56,-1960.76"/>
</g>
<!-- pure&#45;eval -->
<g id="node41" class="node">
<title>pure&#45;eval</title>
<polygon fill="#ffd6d6" stroke="black" points="1151.25,-1920.8 1071.5,-1920.8 1071.5,-1884.8 1151.25,-1884.8 1151.25,-1920.8"/>
<text text-anchor="middle" x="1111.38" y="-1898.5" font-family="sans-serif" font-size="14.00">pure&#45;eval</text>
</g>
<!-- core&#45;&gt;pure&#45;eval -->
<g id="edge25" class="edge">
<title>core&#45;&gt;pure&#45;eval</title>
<path fill="none" stroke="black" d="M1021.77,-1976.4C1038.3,-1962.68 1061.08,-1943.74 1079.41,-1928.52"/>
<polygon fill="black" stroke="black" points="1081.65,-1931.21 1087.1,-1922.13 1077.17,-1925.83 1081.65,-1931.21"/>
</g>
<!-- core&#45;&gt;types -->
<g id="edge26" class="edge">
<title>core&#45;&gt;types</title>
<path fill="none" stroke="black" d="M1026.09,-2000.9C1090.93,-2014.33 1260.88,-2040.26 1376.5,-1973.8 1401.44,-1959.46 1418.19,-1930.55 1427.93,-1908.56"/>
<polygon fill="black" stroke="black" points="1431.09,-1910.08 1431.69,-1899.5 1424.62,-1907.4 1431.09,-1910.08"/>
</g>
<!-- core&#45;test&#45;guest -->
<g id="node7" class="node">
<title>core&#45;test&#45;guest</title>
<polygon fill="none" stroke="black" points="121,-898.8 0,-898.8 0,-862.8 121,-862.8 121,-898.8"/>
<text text-anchor="middle" x="60.5" y="-876.5" font-family="sans-serif" font-size="14.00">core&#45;test&#45;guest</text>
</g>
<!-- crypto&#45;sig -->
<g id="node8" class="node">
<title>crypto&#45;sig</title>
<polygon fill="none" stroke="black" points="241.25,-199.8 157,-199.8 157,-163.8 241.25,-163.8 241.25,-199.8"/>
<text text-anchor="middle" x="199.12" y="-177.5" font-family="sans-serif" font-size="14.00">crypto&#45;sig</text>
</g>
<!-- egglog -->
<g id="node9" class="node">
<title>egglog</title>
<polygon fill="none" stroke="black" points="887.88,-1676.8 826.88,-1676.8 826.88,-1640.8 887.88,-1640.8 887.88,-1676.8"/>
<text text-anchor="middle" x="857.38" y="-1654.5" font-family="sans-serif" font-size="14.00">egglog</text>
</g>
<!-- egglog&#45;&gt;sexp -->
<g id="edge27" class="edge">
<title>egglog&#45;&gt;sexp</title>
<path fill="none" stroke="black" d="M888.33,-1653.43C901.6,-1649.56 916.32,-1642.97 925.75,-1631.8 935.68,-1620.03 977.04,-1406.93 992.1,-1327.94"/>
<polygon fill="black" stroke="black" points="995.5,-1328.85 993.93,-1318.37 988.62,-1327.54 995.5,-1328.85"/>
</g>
<!-- egglog&#45;&gt;types -->
<g id="edge28" class="edge">
<title>egglog&#45;&gt;types</title>
<path fill="none" stroke="black" d="M888.24,-1659.58C935.42,-1660.74 1030.08,-1662.8 1110.38,-1662.8 1110.38,-1662.8 1110.38,-1662.8 1215.25,-1662.8 1287.99,-1662.8 1321.47,-1643.23 1376.5,-1690.8 1423.34,-1731.29 1434.98,-1807.78 1437.75,-1849.97"/>
<polygon fill="black" stroke="black" points="1434.25,-1850.08 1438.26,-1859.89 1441.24,-1849.72 1434.25,-1850.08"/>
</g>
<!-- forsp -->
<g id="node10" class="node">
<title>forsp</title>
<polygon fill="none" stroke="black" points="476,-1080.8 422,-1080.8 422,-1044.8 476,-1044.8 476,-1080.8"/>
<text text-anchor="middle" x="449" y="-1058.5" font-family="sans-serif" font-size="14.00">forsp</text>
</g>
<!-- forsp&#45;&gt;hash -->
<g id="edge29" class="edge">
<title>forsp&#45;&gt;hash</title>
<path fill="none" stroke="black" d="M476.4,-1062.92C511.97,-1062.02 576.3,-1056.55 623.75,-1030.8 644.2,-1019.7 640.54,-1005.93 659.75,-992.8 696.69,-967.54 717.08,-981.5 753,-954.8 790.16,-927.18 821.71,-883.22 839.85,-854.68"/>
<polygon fill="black" stroke="black" points="842.81,-856.55 845.12,-846.21 836.86,-852.86 842.81,-856.55"/>
</g>
<!-- repl&#45;core -->
<g id="node46" class="node">
<title>repl&#45;core</title>
<polygon fill="none" stroke="black" points="615.5,-1362.8 537.25,-1362.8 537.25,-1326.8 615.5,-1326.8 615.5,-1362.8"/>
<text text-anchor="middle" x="576.38" y="-1340.5" font-family="sans-serif" font-size="14.00">repl&#45;core</text>
</g>
<!-- forsp&#45;&gt;repl&#45;core -->
<g id="edge30" class="edge">
<title>forsp&#45;&gt;repl&#45;core</title>
<path fill="none" stroke="black" d="M458.03,-1080.87C479.26,-1128.6 536.95,-1258.37 562.69,-1316.26"/>
<polygon fill="black" stroke="black" points="559.37,-1317.42 566.63,-1325.13 565.77,-1314.57 559.37,-1317.42"/>
</g>
<!-- forsp&#45;&gt;sexp -->
<g id="edge31" class="edge">
<title>forsp&#45;&gt;sexp</title>
<path fill="none" stroke="black" d="M476.49,-1066.17C512.45,-1071.77 577.52,-1085.63 623.75,-1116.8 644.7,-1130.92 637.97,-1147.99 659.75,-1160.8 763.29,-1221.72 822.57,-1147.27 925.75,-1208.8 950.43,-1223.52 970.05,-1250.08 982.52,-1270.54"/>
<polygon fill="black" stroke="black" points="979.39,-1272.12 987.45,-1279 985.44,-1268.6 979.39,-1272.12"/>
</g>
<!-- fuse&#45;&gt;hash -->
<g id="edge32" class="edge">
<title>fuse&#45;&gt;hash</title>
<path fill="none" stroke="black" d="M603.74,-676.07C646.04,-691.15 726.94,-720.9 753,-736.8 782.33,-754.69 811.45,-781.03 831.28,-800.59"/>
<polygon fill="black" stroke="black" points="828.57,-802.83 838.11,-807.45 833.53,-797.89 828.57,-802.83"/>
</g>
<!-- fuse&#45;&gt;object -->
<g id="edge33" class="edge">
<title>fuse&#45;&gt;object</title>
<path fill="none" stroke="black" d="M603.59,-666.8C621.56,-666.8 645.73,-666.8 666.01,-666.8"/>
<polygon fill="black" stroke="black" points="665.91,-670.3 675.91,-666.8 665.91,-663.3 665.91,-670.3"/>
</g>
<!-- fuse&#45;&gt;store -->
<g id="edge34" class="edge">
<title>fuse&#45;&gt;store</title>
<path fill="none" stroke="black" d="M603.61,-653.86C611.2,-648.9 618.78,-642.53 623.75,-634.8 673.08,-558.1 632.93,-519.96 659.75,-432.8 667.68,-407.02 680.45,-379.16 690.47,-359.08"/>
<polygon fill="black" stroke="black" points="693.46,-360.92 694.87,-350.42 687.22,-357.75 693.46,-360.92"/>
</g>
<!-- git&#45;&gt;hash -->
<g id="edge35" class="edge">
<title>git&#45;&gt;hash</title>
<path fill="none" stroke="black" d="M458.82,-441.02C468.35,-461.32 483.45,-495.28 493,-525.8 515.81,-598.67 478.79,-636.26 529,-693.8 598.6,-773.57 655.76,-732.94 753,-774.8 775.68,-784.56 800.41,-796.94 820,-807.17"/>
<polygon fill="black" stroke="black" points="818.2,-810.17 828.68,-811.74 821.46,-803.98 818.2,-810.17"/>
</g>
<!-- git&#45;&gt;object -->
<g id="edge36" class="edge">
<title>git&#45;&gt;object</title>
<path fill="none" stroke="black" d="M476.33,-430.27C513.3,-441.92 580.85,-467.54 623.75,-509.8 624.07,-510.11 667.27,-593.33 690.68,-638.47"/>
<polygon fill="black" stroke="black" points="687.49,-639.92 695.2,-647.18 693.7,-636.7 687.49,-639.92"/>
</g>
<!-- sqlite -->
<g id="node53" class="node">
<title>sqlite</title>
<polygon fill="none" stroke="black" points="884.38,-348.8 830.38,-348.8 830.38,-312.8 884.38,-312.8 884.38,-348.8"/>
<text text-anchor="middle" x="857.38" y="-326.5" font-family="sans-serif" font-size="14.00">sqlite</text>
</g>
<!-- git&#45;&gt;sqlite -->
<g id="edge37" class="edge">
<title>git&#45;&gt;sqlite</title>
<path fill="none" stroke="black" d="M476.43,-417.54C529.18,-406.95 651.19,-382 753,-357.8 775.02,-352.56 799.54,-346.18 819.18,-340.94"/>
<polygon fill="black" stroke="black" points="819.9,-344.37 828.65,-338.39 818.08,-337.61 819.9,-344.37"/>
</g>
<!-- git&#45;&gt;store -->
<g id="edge38" class="edge">
<title>git&#45;&gt;store</title>
<path fill="none" stroke="black" d="M474.63,-404.61C480.65,-400.12 487.08,-395.31 493,-390.8 509.13,-378.52 510.49,-371.07 529,-362.8 574.12,-342.63 631.14,-335.17 667.93,-332.41"/>
<polygon fill="black" stroke="black" points="667.86,-335.93 677.61,-331.77 667.4,-328.94 667.86,-335.93"/>
</g>
<!-- grammar -->
<g id="node13" class="node">
<title>grammar</title>
<polygon fill="none" stroke="black" points="1035.5,-1530.8 961.75,-1530.8 961.75,-1494.8 1035.5,-1494.8 1035.5,-1530.8"/>
<text text-anchor="middle" x="998.62" y="-1508.5" font-family="sans-serif" font-size="14.00">grammar</text>
</g>
<!-- graph -->
<g id="node14" class="node">
<title>graph</title>
<polygon fill="none" stroke="black" points="733.38,-569.8 679.38,-569.8 679.38,-533.8 733.38,-533.8 733.38,-569.8"/>
<text text-anchor="middle" x="706.38" y="-547.5" font-family="sans-serif" font-size="14.00">graph</text>
</g>
<!-- graph&#45;&gt;hash -->
<g id="edge39" class="edge">
<title>graph&#45;&gt;hash</title>
<path fill="none" stroke="black" d="M717.38,-570.27C742.88,-617.33 810.44,-742.01 840.99,-798.4"/>
<polygon fill="black" stroke="black" points="837.85,-799.95 845.69,-807.08 844,-796.62 837.85,-799.95"/>
</g>
<!-- parse -->
<g id="node37" class="node">
<title>parse</title>
<polygon fill="none" stroke="black" points="1138.38,-1156.8 1084.38,-1156.8 1084.38,-1120.8 1138.38,-1120.8 1138.38,-1156.8"/>
<text text-anchor="middle" x="1111.38" y="-1134.5" font-family="sans-serif" font-size="14.00">parse</text>
</g>
<!-- graph&#45;&gt;parse -->
<g id="edge40" class="edge">
<title>graph&#45;&gt;parse</title>
<path fill="none" stroke="black" d="M733.81,-558.33C797.2,-575.47 958.28,-628.02 1035.5,-735.8 1078.81,-796.25 1101.31,-1026.59 1108.11,-1109.14"/>
<polygon fill="black" stroke="black" points="1104.61,-1109.23 1108.9,-1118.92 1111.58,-1108.67 1104.61,-1109.23"/>
</g>
<!-- rand -->
<g id="node44" class="node">
<title>rand</title>
<polygon fill="none" stroke="black" points="1025.62,-844.8 971.62,-844.8 971.62,-808.8 1025.62,-808.8 1025.62,-844.8"/>
<text text-anchor="middle" x="998.62" y="-822.5" font-family="sans-serif" font-size="14.00">rand</text>
</g>
<!-- hash&#45;&gt;rand -->
<g id="edge41" class="edge">
<title>hash&#45;&gt;rand</title>
<path fill="none" stroke="black" d="M884.57,-826.8C905.86,-826.8 936.19,-826.8 960.07,-826.8"/>
<polygon fill="black" stroke="black" points="960.04,-830.3 970.04,-826.8 960.04,-823.3 960.04,-830.3"/>
</g>
<!-- haskell -->
<g id="node16" class="node">
<title>haskell</title>
<polygon fill="none" stroke="black" points="480.25,-2036.8 417.75,-2036.8 417.75,-2000.8 480.25,-2000.8 480.25,-2036.8"/>
<text text-anchor="middle" x="449" y="-2014.5" font-family="sans-serif" font-size="14.00">haskell</text>
</g>
<!-- hol&#45;api -->
<g id="node18" class="node">
<title>hol&#45;api</title>
<polygon fill="none" stroke="black" points="607.62,-2099.8 545.12,-2099.8 545.12,-2063.8 607.62,-2063.8 607.62,-2099.8"/>
<text text-anchor="middle" x="576.38" y="-2077.5" font-family="sans-serif" font-size="14.00">hol&#45;api</text>
</g>
<!-- haskell&#45;&gt;hol&#45;api -->
<g id="edge42" class="edge">
<title>haskell&#45;&gt;hol&#45;api</title>
<path fill="none" stroke="black" d="M480.67,-2034.21C497.03,-2042.43 517.37,-2052.65 535,-2061.51"/>
<polygon fill="black" stroke="black" points="533.16,-2064.5 543.67,-2065.87 536.31,-2058.25 533.16,-2064.5"/>
</g>
<!-- haskell&#45;&gt;hol&#45;eval -->
<g id="edge43" class="edge">
<title>haskell&#45;&gt;hol&#45;eval</title>
<path fill="none" stroke="black" d="M480.54,-2007.22C551.56,-1980.31 728.06,-1913.43 811.41,-1881.84"/>
<polygon fill="black" stroke="black" points="812.54,-1885.15 820.65,-1878.34 810.05,-1878.61 812.54,-1885.15"/>
</g>
<!-- haskell&#45;&gt;init -->
<g id="edge44" class="edge">
<title>haskell&#45;&gt;init</title>
<path fill="none" stroke="black" d="M452.06,-2000.48C461.19,-1920.95 498.78,-1608.1 529,-1576.8 547.81,-1557.31 621.7,-1546.81 667.67,-1542.05"/>
<polygon fill="black" stroke="black" points="667.87,-1545.55 677.47,-1541.08 667.18,-1538.58 667.87,-1545.55"/>
</g>
<!-- haskell&#45;&gt;types -->
<g id="edge45" class="edge">
<title>haskell&#45;&gt;types</title>
<path fill="none" stroke="black" d="M463.93,-2037.13C522.3,-2113.03 749.16,-2398.8 856.38,-2398.8 856.38,-2398.8 856.38,-2398.8 1215.25,-2398.8 1429.86,-2398.8 1440.7,-2019.68 1439.32,-1909.49"/>
<polygon fill="black" stroke="black" points="1442.83,-1909.72 1439.15,-1899.78 1435.83,-1909.84 1442.83,-1909.72"/>
</g>
<!-- hol&#45;&gt;core -->
<g id="edge46" class="edge">
<title>hol&#45;&gt;core</title>
<path fill="none" stroke="black" d="M884.72,-2154.78C898.25,-2149.64 914.25,-2141.82 925.75,-2130.8 957.21,-2100.65 977.77,-2053.69 988.54,-2023.59"/>
<polygon fill="black" stroke="black" points="991.76,-2024.98 991.7,-2014.38 985.14,-2022.71 991.76,-2024.98"/>
</g>
<!-- hol&#45;api&#45;&gt;core -->
<g id="edge47" class="edge">
<title>hol&#45;api&#45;&gt;core</title>
<path fill="none" stroke="black" d="M607.74,-2087.24C670.74,-2097.02 818.71,-2111.98 925.75,-2059.8 944.66,-2050.58 962.25,-2034.86 975.29,-2021.19"/>
<polygon fill="black" stroke="black" points="977.58,-2023.86 981.77,-2014.13 972.43,-2019.13 977.58,-2023.86"/>
</g>
<!-- hol&#45;api&#45;&gt;hol&#45;eval -->
<g id="edge48" class="edge">
<title>hol&#45;api&#45;&gt;hol&#45;eval</title>
<path fill="none" stroke="black" d="M607.87,-2076.08C651.8,-2067.39 730.12,-2050.04 753,-2032.8 800.84,-1996.76 831.57,-1931.54 846.23,-1893.84"/>
<polygon fill="black" stroke="black" points="849.5,-1895.1 849.73,-1884.51 842.94,-1892.64 849.5,-1895.1"/>
</g>
<!-- inductive -->
<g id="node20" class="node">
<title>inductive</title>
<polygon fill="none" stroke="black" points="895.75,-2050.8 819,-2050.8 819,-2014.8 895.75,-2014.8 895.75,-2050.8"/>
<text text-anchor="middle" x="857.38" y="-2028.5" font-family="sans-serif" font-size="14.00">inductive</text>
</g>
<!-- hol&#45;api&#45;&gt;inductive -->
<g id="edge49" class="edge">
<title>hol&#45;api&#45;&gt;inductive</title>
<path fill="none" stroke="black" d="M607.88,-2082.54C643.19,-2082.79 702.93,-2081.34 753,-2070.8 771.59,-2066.89 791.33,-2060.28 808.52,-2053.67"/>
<polygon fill="black" stroke="black" points="809.44,-2057.07 817.45,-2050.13 806.87,-2050.56 809.44,-2057.07"/>
</g>
<!-- hol&#45;api&#45;&gt;init -->
<g id="edge50" class="edge">
<title>hol&#45;api&#45;&gt;init</title>
<path fill="none" stroke="black" d="M577.68,-2063.66C579.33,-1998.72 590.05,-1772.72 659.75,-1603.8 665.3,-1590.36 674.02,-1576.96 682.35,-1565.85"/>
<polygon fill="black" stroke="black" points="684.86,-1568.33 688.26,-1558.3 679.34,-1564.02 684.86,-1568.33"/>
</g>
<!-- hol&#45;api&#45;&gt;pure -->
<g id="edge51" class="edge">
<title>hol&#45;api&#45;&gt;pure</title>
<path fill="none" stroke="black" d="M601.29,-2100.02C658.13,-2141 805.54,-2233.52 925.75,-2189.8 1044.99,-2146.43 1149.23,-2029.52 1192.26,-1976.1"/>
<polygon fill="black" stroke="black" points="1194.91,-1978.38 1198.39,-1968.37 1189.43,-1974.03 1194.91,-1978.38"/>
</g>
<!-- hol&#45;api&#45;&gt;types -->
<g id="edge52" class="edge">
<title>hol&#45;api&#45;&gt;types</title>
<path fill="none" stroke="black" d="M589.73,-2100.17C624.96,-2150.14 731.48,-2284.8 856.38,-2284.8 856.38,-2284.8 856.38,-2284.8 1215.25,-2284.8 1292.03,-2284.8 1327.55,-2281.95 1376.5,-2222.8 1416.06,-2174.99 1432.03,-1983.65 1436.81,-1909.43"/>
<polygon fill="black" stroke="black" points="1440.29,-1909.88 1437.42,-1899.68 1433.3,-1909.45 1440.29,-1909.88"/>
</g>
<!-- hol&#45;eval&#45;&gt;core -->
<g id="edge53" class="edge">
<title>hol&#45;eval&#45;&gt;core</title>
<path fill="none" stroke="black" d="M892.8,-1876.2C904.25,-1881.21 916.44,-1887.99 925.75,-1896.8 950.03,-1919.76 940.98,-1936.63 961.75,-1962.8 963.31,-1964.76 965,-1966.71 966.76,-1968.61"/>
<polygon fill="black" stroke="black" points="964.19,-1970.99 973.76,-1975.54 969.12,-1966.02 964.19,-1970.99"/>
</g>
<!-- hol&#45;eval&#45;&gt;pure -->
<g id="edge54" class="edge">
<title>hol&#45;eval&#45;&gt;pure</title>
<path fill="none" stroke="black" d="M892.67,-1876.98C912.71,-1883.96 938.56,-1892.71 961.75,-1899.8 1010.11,-1914.58 1021.94,-1919.75 1071.5,-1929.8 1106.58,-1936.91 1147.09,-1942.04 1175.8,-1945.16"/>
<polygon fill="black" stroke="black" points="1175.13,-1948.61 1185.44,-1946.18 1175.87,-1941.65 1175.13,-1948.61"/>
</g>
<!-- hol&#45;eval&#45;&gt;pure&#45;eval -->
<g id="edge55" class="edge">
<title>hol&#45;eval&#45;&gt;pure&#45;eval</title>
<path fill="none" stroke="black" d="M892.62,-1869.96C935.82,-1876.48 1010.44,-1887.73 1060.11,-1895.22"/>
<polygon fill="black" stroke="black" points="1059.33,-1898.64 1069.74,-1896.67 1060.37,-1891.72 1059.33,-1898.64"/>
</g>
<!-- hol&#45;eval&#45;&gt;sexp -->
<g id="edge56" class="edge">
<title>hol&#45;eval&#45;&gt;sexp</title>
<path fill="none" stroke="black" d="M866.6,-1846.36C880.6,-1814.3 909.16,-1745.98 925.75,-1685.8 949.76,-1598.73 945.24,-1574.59 961.75,-1485.8 972.14,-1429.93 984.75,-1364.78 991.92,-1328"/>
<polygon fill="black" stroke="black" points="995.27,-1329.07 993.75,-1318.59 988.4,-1327.73 995.27,-1329.07"/>
</g>
<!-- hol&#45;eval&#45;&gt;types -->
<g id="edge57" class="edge">
<title>hol&#45;eval&#45;&gt;types</title>
<path fill="none" stroke="black" d="M892.6,-1863.02C941.06,-1860.67 1032.46,-1856.8 1110.38,-1856.8 1110.38,-1856.8 1110.38,-1856.8 1215.25,-1856.8 1280.74,-1856.8 1356.48,-1866.71 1400.77,-1873.52"/>
<polygon fill="black" stroke="black" points="1400.21,-1876.98 1410.63,-1875.07 1401.3,-1870.06 1400.21,-1876.98"/>
</g>
<!-- init&#45;&gt;core -->
<g id="edge58" class="edge">
<title>init&#45;&gt;core</title>
<path fill="none" stroke="black" d="M722.59,-1557.17C732.36,-1569.68 744.71,-1586.98 753,-1603.8 776.67,-1651.84 759.69,-1673.97 789,-1718.8 833.09,-1786.23 877.51,-1773.27 925.75,-1837.8 955.78,-1877.96 977.25,-1932.67 988.53,-1965.77"/>
<polygon fill="black" stroke="black" points="985.15,-1966.69 991.61,-1975.08 991.79,-1964.48 985.15,-1966.69"/>
</g>
<!-- init&#45;&gt;grammar -->
<g id="edge59" class="edge">
<title>init&#45;&gt;grammar</title>
<path fill="none" stroke="black" d="M733.87,-1542.02C775.23,-1546.36 857.49,-1552.2 925.75,-1539.8 933.96,-1538.31 942.44,-1535.93 950.58,-1533.2"/>
<polygon fill="black" stroke="black" points="951.77,-1536.49 959.99,-1529.8 949.4,-1529.9 951.77,-1536.49"/>
</g>
<!-- init&#45;&gt;hash -->
<g id="edge60" class="edge">
<title>init&#45;&gt;hash</title>
<path fill="none" stroke="black" d="M709.22,-1520.38C717.95,-1434.61 755.98,-1073.91 789,-965.8 801.36,-925.32 824.09,-881.91 839.71,-854.58"/>
<polygon fill="black" stroke="black" points="842.55,-856.65 844.55,-846.24 836.5,-853.13 842.55,-856.65"/>
</g>
<!-- init&#45;&gt;hol -->
<g id="edge61" class="edge">
<title>init&#45;&gt;hol</title>
<path fill="none" stroke="black" d="M724.32,-1557.17C734.54,-1569.42 746.74,-1586.41 753,-1603.8 821.83,-1795.09 723.31,-1867.41 789,-2059.8 798.61,-2087.95 817.7,-2115.94 833.11,-2135.63"/>
<polygon fill="black" stroke="black" points="830.37,-2137.81 839.37,-2143.41 835.82,-2133.42 830.37,-2137.81"/>
</g>
<!-- init&#45;&gt;hol&#45;eval -->
<g id="edge62" class="edge">
<title>init&#45;&gt;hol&#45;eval</title>
<path fill="none" stroke="black" d="M723.21,-1557.25C733.11,-1569.67 745.38,-1586.82 753,-1603.8 781.58,-1667.54 762.16,-1692.31 789,-1756.8 801.1,-1785.86 820.59,-1816.02 835.51,-1837.05"/>
<polygon fill="black" stroke="black" points="832.62,-1839.04 841.31,-1845.09 838.29,-1834.94 832.62,-1839.04"/>
</g>
<!-- init&#45;&gt;inductive -->
<g id="edge63" class="edge">
<title>init&#45;&gt;inductive</title>
<path fill="none" stroke="black" d="M724.05,-1557.27C734.16,-1569.56 746.35,-1586.56 753,-1603.8 799.43,-1724.15 752.72,-1768.01 789,-1891.8 801.04,-1932.89 823.85,-1976.91 839.56,-2004.63"/>
<polygon fill="black" stroke="black" points="836.42,-2006.19 844.45,-2013.1 842.49,-2002.69 836.42,-2006.19"/>
</g>
<!-- k -->
<g id="node23" class="node">
<title>k</title>
<polygon fill="none" stroke="black" points="884.38,-1476.8 830.38,-1476.8 830.38,-1440.8 884.38,-1440.8 884.38,-1476.8"/>
<text text-anchor="middle" x="857.38" y="-1454.5" font-family="sans-serif" font-size="14.00">k</text>
</g>
<!-- init&#45;&gt;k -->
<g id="edge64" class="edge">
<title>init&#45;&gt;k</title>
<path fill="none" stroke="black" d="M732.7,-1520.52C748.44,-1509.63 769.35,-1495.99 789,-1485.8 798.61,-1480.81 809.36,-1476.13 819.4,-1472.11"/>
<polygon fill="black" stroke="black" points="820.46,-1475.46 828.52,-1468.58 817.93,-1468.93 820.46,-1475.46"/>
</g>
<!-- metamath -->
<g id="node32" class="node">
<title>metamath</title>
<polygon fill="none" stroke="black" points="897.62,-1156.8 817.12,-1156.8 817.12,-1120.8 897.62,-1120.8 897.62,-1156.8"/>
<text text-anchor="middle" x="857.38" y="-1134.5" font-family="sans-serif" font-size="14.00">metamath</text>
</g>
<!-- init&#45;&gt;metamath -->
<g id="edge65" class="edge">
<title>init&#45;&gt;metamath</title>
<path fill="none" stroke="black" d="M714.26,-1520.31C738.05,-1456.46 816.84,-1244.93 845.68,-1167.51"/>
<polygon fill="black" stroke="black" points="848.82,-1169.1 849.03,-1158.51 842.26,-1166.66 848.82,-1169.1"/>
</g>
<!-- init&#45;&gt;sexp -->
<g id="edge66" class="edge">
<title>init&#45;&gt;sexp</title>
<path fill="none" stroke="black" d="M723.86,-1520.35C733.16,-1509.36 744.57,-1494.86 753,-1480.8 773.47,-1446.66 759.81,-1425.85 789,-1398.8 836.25,-1355.02 868.67,-1380.65 925.75,-1350.8 940,-1343.35 954.58,-1333.33 966.85,-1324.07"/>
<polygon fill="black" stroke="black" points="968.77,-1327.01 974.54,-1318.12 964.49,-1321.47 968.77,-1327.01"/>
</g>
<!-- spectec -->
<g id="node52" class="node">
<title>spectec</title>
<polygon fill="none" stroke="black" points="892,-1530.8 822.75,-1530.8 822.75,-1494.8 892,-1494.8 892,-1530.8"/>
<text text-anchor="middle" x="857.38" y="-1508.5" font-family="sans-serif" font-size="14.00">spectec</text>
</g>
<!-- init&#45;&gt;spectec -->
<g id="edge67" class="edge">
<title>init&#45;&gt;spectec</title>
<path fill="none" stroke="black" d="M733.67,-1534.21C755.12,-1530.47 785.9,-1525.1 811.27,-1520.67"/>
<polygon fill="black" stroke="black" points="811.75,-1524.14 821,-1518.97 810.55,-1517.24 811.75,-1524.14"/>
</g>
<!-- init&#45;&gt;types -->
<g id="edge68" class="edge">
<title>init&#45;&gt;types</title>
<path fill="none" stroke="black" d="M721.78,-1557.21C731.32,-1569.88 743.73,-1587.34 753,-1603.8 772.53,-1638.48 756.7,-1662.54 789,-1685.8 864.56,-1740.2 904.52,-1704.8 997.62,-1704.8 997.62,-1704.8 997.62,-1704.8 1215.25,-1704.8 1293.38,-1704.8 1317.94,-1723.08 1376.5,-1774.8 1400.09,-1795.63 1417.19,-1827.68 1427.38,-1850.89"/>
<polygon fill="black" stroke="black" points="1424.15,-1852.23 1431.24,-1860.09 1430.6,-1849.52 1424.15,-1852.23"/>
</g>
<!-- json -->
<g id="node22" class="node">
<title>json</title>
<polygon fill="none" stroke="black" points="884.38,-294.8 830.38,-294.8 830.38,-258.8 884.38,-258.8 884.38,-294.8"/>
<text text-anchor="middle" x="857.38" y="-272.5" font-family="sans-serif" font-size="14.00">json</text>
</g>
<!-- k&#45;&gt;grammar -->
<g id="edge69" class="edge">
<title>k&#45;&gt;grammar</title>
<path fill="none" stroke="black" d="M884.57,-1468.96C903.19,-1476.18 928.7,-1486.07 950.79,-1494.63"/>
<polygon fill="black" stroke="black" points="949.3,-1497.81 959.89,-1498.17 951.84,-1491.29 949.3,-1497.81"/>
</g>
<!-- k&#45;&gt;parse -->
<g id="edge70" class="edge">
<title>k&#45;&gt;parse</title>
<path fill="none" stroke="black" d="M884.64,-1448.52C897.52,-1442.94 912.98,-1435.42 925.75,-1426.8 980.7,-1389.72 997.86,-1380.36 1035.5,-1325.8 1070.23,-1275.45 1092.46,-1206.61 1103.05,-1168.05"/>
<polygon fill="black" stroke="black" points="1106.38,-1169.13 1105.58,-1158.57 1099.62,-1167.33 1106.38,-1169.13"/>
</g>
<!-- k&#45;&gt;sexp -->
<g id="edge71" class="edge">
<title>k&#45;&gt;sexp</title>
<path fill="none" stroke="black" d="M884.61,-1450.66C898.1,-1445.48 914.11,-1437.67 925.75,-1426.8 955.51,-1399 976.12,-1356.04 987.41,-1327.67"/>
<polygon fill="black" stroke="black" points="990.57,-1329.22 990.87,-1318.63 984.03,-1326.71 990.57,-1329.22"/>
</g>
<!-- kernel -->
<g id="node24" class="node">
<title>kernel</title>
<polygon fill="none" stroke="black" points="605,-1194.8 547.75,-1194.8 547.75,-1158.8 605,-1158.8 605,-1194.8"/>
<text text-anchor="middle" x="576.38" y="-1172.5" font-family="sans-serif" font-size="14.00">kernel</text>
</g>
<!-- kernel&#45;&gt;hash -->
<g id="edge72" class="edge">
<title>kernel&#45;&gt;hash</title>
<path fill="none" stroke="black" d="M584.64,-1158.34C596.59,-1129.95 622.81,-1075.26 659.75,-1040.8 693.83,-1009 718.72,-1024.39 753,-992.8 796.1,-953.08 828.08,-891.44 844.34,-855.5"/>
<polygon fill="black" stroke="black" points="847.43,-857.18 848.27,-846.62 841.02,-854.35 847.43,-857.18"/>
</g>
<!-- kernel&#45;&gt;init -->
<g id="edge73" class="edge">
<title>kernel&#45;&gt;init</title>
<path fill="none" stroke="black" d="M605.24,-1191.23C612.17,-1196 618.97,-1201.88 623.75,-1208.8 689.66,-1304.19 702.48,-1447.53 704.88,-1509.03"/>
<polygon fill="black" stroke="black" points="701.38,-1509.14 705.19,-1519.03 708.38,-1508.92 701.38,-1509.14"/>
</g>
<!-- kernel&#45;&gt;object -->
<g id="edge74" class="edge">
<title>kernel&#45;&gt;object</title>
<path fill="none" stroke="black" d="M582.01,-1158.35C601.18,-1081.97 674.41,-790.18 698,-696.17"/>
<polygon fill="black" stroke="black" points="701.34,-697.25 700.38,-686.69 694.55,-695.54 701.34,-697.25"/>
</g>
<!-- kernel&#45;&gt;sexp -->
<g id="edge75" class="edge">
<title>kernel&#45;&gt;sexp</title>
<path fill="none" stroke="black" d="M604.53,-1195.15C610.89,-1199.56 617.6,-1204.29 623.75,-1208.8 640.1,-1220.78 641.24,-1228.54 659.75,-1236.8 769.45,-1285.76 807.68,-1262.65 925.75,-1284.8 936.97,-1286.9 949.16,-1289.25 960.27,-1291.42"/>
<polygon fill="black" stroke="black" points="959.38,-1294.81 969.87,-1293.3 960.73,-1287.94 959.38,-1294.81"/>
</g>
<!-- kernel&#45;&gt;store -->
<g id="edge76" class="edge">
<title>kernel&#45;&gt;store</title>
<path fill="none" stroke="black" d="M579.05,-1158.62C588.94,-1051.54 640.08,-505.14 659.75,-432.8 666.82,-406.77 679.67,-378.94 689.93,-358.93"/>
<polygon fill="black" stroke="black" points="692.91,-360.78 694.46,-350.3 686.72,-357.52 692.91,-360.78"/>
</g>
<!-- kernel&#45;sat -->
<g id="node25" class="node">
<title>kernel&#45;sat</title>
<polygon fill="none" stroke="black" points="618.12,-1621.8 534.62,-1621.8 534.62,-1585.8 618.12,-1585.8 618.12,-1621.8"/>
<text text-anchor="middle" x="576.38" y="-1599.5" font-family="sans-serif" font-size="14.00">kernel&#45;sat</text>
</g>
<!-- kernel&#45;sat&#45;&gt;core -->
<g id="edge77" class="edge">
<title>kernel&#45;sat&#45;&gt;core</title>
<path fill="none" stroke="black" d="M614.05,-1622.03C617.58,-1624.67 620.9,-1627.59 623.75,-1630.8 650.46,-1660.86 633.6,-1683.25 659.75,-1713.8 691.64,-1751.06 723.31,-1733.76 753,-1772.8 786.45,-1816.78 748.83,-1853.86 789,-1891.8 834.45,-1934.73 871.02,-1894.58 925.75,-1924.8 945.38,-1935.64 963.44,-1953.28 976.55,-1968.14"/>
<polygon fill="black" stroke="black" points="973.54,-1970 982.69,-1975.34 978.87,-1965.46 973.54,-1970"/>
</g>
<!-- kernel&#45;sat&#45;&gt;hol&#45;eval -->
<g id="edge78" class="edge">
<title>kernel&#45;sat&#45;&gt;hol&#45;eval</title>
<path fill="none" stroke="black" d="M610.24,-1622C614.86,-1624.83 619.48,-1627.8 623.75,-1630.8 639.07,-1641.54 740.62,-1724.77 753,-1738.8 772.58,-1760.98 770.65,-1771.58 789,-1794.8 801.1,-1810.1 816.02,-1825.87 828.74,-1838.55"/>
<polygon fill="black" stroke="black" points="826.06,-1840.83 835.65,-1845.35 830.97,-1835.84 826.06,-1840.83"/>
</g>
<!-- kernel&#45;sat&#45;&gt;init -->
<g id="edge79" class="edge">
<title>kernel&#45;sat&#45;&gt;init</title>
<path fill="none" stroke="black" d="M613.71,-1585.35C631.14,-1576.5 651.95,-1565.93 669.33,-1557.1"/>
<polygon fill="black" stroke="black" points="670.44,-1560.46 677.77,-1552.82 667.27,-1554.22 670.44,-1560.46"/>
</g>
<!-- sat -->
<g id="node47" class="node">
<title>sat</title>
<polygon fill="none" stroke="black" points="884.38,-1622.8 830.38,-1622.8 830.38,-1586.8 884.38,-1586.8 884.38,-1622.8"/>
<text text-anchor="middle" x="857.38" y="-1600.5" font-family="sans-serif" font-size="14.00">sat</text>
</g>
<!-- kernel&#45;sat&#45;&gt;sat -->
<g id="edge80" class="edge">
<title>kernel&#45;sat&#45;&gt;sat</title>
<path fill="none" stroke="black" d="M618.54,-1603.69C654.13,-1603.62 706.96,-1603.58 753,-1603.8 774.7,-1603.9 798.96,-1604.13 818.52,-1604.34"/>
<polygon fill="black" stroke="black" points="818.48,-1607.84 828.52,-1604.46 818.56,-1600.84 818.48,-1607.84"/>
</g>
<!-- kernel&#45;smt -->
<g id="node26" class="node">
<title>kernel&#45;smt</title>
<polygon fill="none" stroke="black" points="493,-2139.8 405,-2139.8 405,-2103.8 493,-2103.8 493,-2139.8"/>
<text text-anchor="middle" x="449" y="-2117.5" font-family="sans-serif" font-size="14.00">kernel&#45;smt</text>
</g>
<!-- kernel&#45;smt&#45;&gt;core -->
<g id="edge81" class="edge">
<title>kernel&#45;smt&#45;&gt;core</title>
<path fill="none" stroke="black" d="M493.35,-2123.72C596.39,-2127.54 852.79,-2132.46 925.75,-2090.8 952.6,-2075.47 972.48,-2045.63 984.45,-2023.26"/>
<polygon fill="black" stroke="black" points="987.42,-2025.13 988.85,-2014.64 981.18,-2021.95 987.42,-2025.13"/>
</g>
<!-- kernel&#45;smt&#45;&gt;hol&#45;api -->
<g id="edge82" class="edge">
<title>kernel&#45;smt&#45;&gt;hol&#45;api</title>
<path fill="none" stroke="black" d="M493.5,-2107.92C506.76,-2103.69 521.29,-2099.05 534.38,-2094.88"/>
<polygon fill="black" stroke="black" points="535.07,-2098.33 543.53,-2091.96 532.94,-2091.66 535.07,-2098.33"/>
</g>
<!-- kv -->
<g id="node27" class="node">
<title>kv</title>
<polygon fill="none" stroke="black" points="226.12,-107.8 172.12,-107.8 172.12,-71.8 226.12,-71.8 226.12,-107.8"/>
<text text-anchor="middle" x="199.12" y="-85.5" font-family="sans-serif" font-size="14.00">kv</text>
</g>
<!-- lean -->
<g id="node28" class="node">
<title>lean</title>
<polygon fill="none" stroke="black" points="87.5,-952.8 33.5,-952.8 33.5,-916.8 87.5,-916.8 87.5,-952.8"/>
<text text-anchor="middle" x="60.5" y="-930.5" font-family="sans-serif" font-size="14.00">lean</text>
</g>
<!-- lisp -->
<g id="node29" class="node">
<title>lisp</title>
<polygon fill="none" stroke="black" points="476,-1648.8 422,-1648.8 422,-1612.8 476,-1612.8 476,-1648.8"/>
<text text-anchor="middle" x="449" y="-1626.5" font-family="sans-serif" font-size="14.00">lisp</text>
</g>
<!-- lisp&#45;&gt;core -->
<g id="edge83" class="edge">
<title>lisp&#45;&gt;core</title>
<path fill="none" stroke="black" d="M455.03,-1649.16C464.75,-1681.95 488.8,-1751.4 529,-1796.8 619.73,-1899.26 660.97,-1913.43 789,-1961.8 846.22,-1983.42 917.46,-1990.87 960.14,-1993.44"/>
<polygon fill="black" stroke="black" points="959.71,-1996.93 969.88,-1993.97 960.08,-1989.94 959.71,-1996.93"/>
</g>
<!-- lisp&#45;&gt;hol&#45;api -->
<g id="edge84" class="edge">
<title>lisp&#45;&gt;hol&#45;api</title>
<path fill="none" stroke="black" d="M452.16,-1649.1C458.92,-1703.27 482.1,-1867.01 529,-1994.8 536.57,-2015.42 548.21,-2037.24 557.93,-2053.86"/>
<polygon fill="black" stroke="black" points="554.77,-2055.4 562.91,-2062.19 560.78,-2051.81 554.77,-2055.4"/>
</g>
<!-- lisp&#45;&gt;hol&#45;eval -->
<g id="edge85" class="edge">
<title>lisp&#45;&gt;hol&#45;eval</title>
<path fill="none" stroke="black" d="M456.77,-1648.87C467.8,-1675.97 492.21,-1726.99 529,-1755.8 614.49,-1822.74 743.05,-1849.53 810.82,-1859.47"/>
<polygon fill="black" stroke="black" points="810.06,-1862.9 820.45,-1860.82 811.04,-1855.96 810.06,-1862.9"/>
</g>
<!-- lisp&#45;&gt;init -->
<g id="edge86" class="edge">
<title>lisp&#45;&gt;init</title>
<path fill="none" stroke="black" d="M460.32,-1612.47C473.28,-1591.5 497.67,-1558.2 529,-1543.8 573.33,-1523.42 630.76,-1526.46 667.84,-1531.67"/>
<polygon fill="black" stroke="black" points="667.21,-1535.11 677.63,-1533.18 668.28,-1528.2 667.21,-1535.11"/>
</g>
<!-- lisp&#45;&gt;repl&#45;core -->
<g id="edge87" class="edge">
<title>lisp&#45;&gt;repl&#45;core</title>
<path fill="none" stroke="black" d="M451.61,-1612.36C456.33,-1567.78 473.45,-1452.32 529,-1376.8 530.51,-1374.75 532.19,-1372.79 533.99,-1370.91"/>
<polygon fill="black" stroke="black" points="536.26,-1373.58 541.38,-1364.3 531.59,-1368.36 536.26,-1373.58"/>
</g>
<!-- lisp&#45;&gt;sexp -->
<g id="edge88" class="edge">
<title>lisp&#45;&gt;sexp</title>
<path fill="none" stroke="black" d="M460.6,-1612.3C487.97,-1566.02 565.48,-1443.85 659.75,-1372.8 710.33,-1334.68 727.65,-1328.52 789,-1312.8 847.38,-1297.84 917.77,-1296.4 960.05,-1297.23"/>
<polygon fill="black" stroke="black" points="959.85,-1300.72 969.94,-1297.48 960.03,-1293.73 959.85,-1300.72"/>
</g>
<!-- lisp&#45;&gt;types -->
<g id="edge89" class="edge">
<title>lisp&#45;&gt;types</title>
<path fill="none" stroke="black" d="M472.7,-1649.11C487.9,-1660.65 508.76,-1675.13 529,-1684.8 724.48,-1778.15 781,-1818.8 997.62,-1818.8 997.62,-1818.8 997.62,-1818.8 1215.25,-1818.8 1283.03,-1818.8 1358.43,-1845.29 1401.97,-1863.36"/>
<polygon fill="black" stroke="black" points="1400.36,-1866.48 1410.94,-1867.16 1403.09,-1860.03 1400.36,-1866.48"/>
</g>
<!-- llm -->
<g id="node30" class="node">
<title>llm</title>
<polygon fill="none" stroke="black" points="226.12,-405.8 172.12,-405.8 172.12,-369.8 226.12,-369.8 226.12,-405.8"/>
<text text-anchor="middle" x="199.12" y="-383.5" font-family="sans-serif" font-size="14.00">llm</text>
</g>
<!-- llm&#45;&gt;proto -->
<g id="edge90" class="edge">
<title>llm&#45;&gt;proto</title>
<path fill="none" stroke="black" d="M225.11,-406.23C243.28,-419.64 268.1,-437.95 288.09,-452.69"/>
<polygon fill="black" stroke="black" points="285.83,-455.37 295.96,-458.49 289.99,-449.74 285.83,-455.37"/>
</g>
<!-- lsp&#45;&gt;sexp -->
<g id="edge91" class="edge">
<title>lsp&#45;&gt;sexp</title>
<path fill="none" stroke="black" d="M884.74,-997.39C898.78,-1001.14 915.27,-1007.87 925.75,-1019.8 989.29,-1092.11 997.91,-1213.37 998.28,-1269.12"/>
<polygon fill="black" stroke="black" points="994.78,-1269.07 998.25,-1279.08 1001.78,-1269.09 994.78,-1269.07"/>
</g>
<!-- lsp&#45;&gt;wasm -->
<g id="edge92" class="edge">
<title>lsp&#45;&gt;wasm</title>
<path fill="none" stroke="black" d="M869.68,-974.73C885.2,-948.97 912.66,-899.7 925.75,-853.8 995.92,-607.78 999.03,-294.63 998.14,-197.73"/>
<polygon fill="black" stroke="black" points="1001.64,-197.73 998.02,-187.77 994.64,-197.81 1001.64,-197.73"/>
</g>
<!-- metamath&#45;&gt;parse -->
<g id="edge93" class="edge">
<title>metamath&#45;&gt;parse</title>
<path fill="none" stroke="black" d="M898.03,-1138.8C945.84,-1138.8 1025.62,-1138.8 1072.59,-1138.8"/>
<polygon fill="black" stroke="black" points="1072.55,-1142.3 1082.55,-1138.8 1072.55,-1135.3 1072.55,-1142.3"/>
</g>
<!-- metamath&#45;&gt;sexp -->
<g id="edge94" class="edge">
<title>metamath&#45;&gt;sexp</title>
<path fill="none" stroke="black" d="M897.98,-1152.67C907.81,-1157.38 917.8,-1163.37 925.75,-1170.8 955.51,-1198.6 976.12,-1241.56 987.41,-1269.93"/>
<polygon fill="black" stroke="black" points="984.03,-1270.88 990.87,-1278.97 990.57,-1268.38 984.03,-1270.88"/>
</g>
<!-- multiformat -->
<g id="node33" class="node">
<title>multiformat</title>
<polygon fill="none" stroke="black" points="751.5,-1118.8 661.25,-1118.8 661.25,-1082.8 751.5,-1082.8 751.5,-1118.8"/>
<text text-anchor="middle" x="706.38" y="-1096.5" font-family="sans-serif" font-size="14.00">multiformat</text>
</g>
<!-- multiformat&#45;&gt;acset -->
<g id="edge95" class="edge">
<title>multiformat&#45;&gt;acset</title>
<path fill="none" stroke="black" d="M751.68,-1084.74C773.25,-1076.93 798.88,-1067.64 819.39,-1060.2"/>
<polygon fill="black" stroke="black" points="820.56,-1063.5 828.77,-1056.8 818.17,-1056.92 820.56,-1063.5"/>
</g>
<!-- multiformat&#45;&gt;hash -->
<g id="edge96" class="edge">
<title>multiformat&#45;&gt;hash</title>
<path fill="none" stroke="black" d="M720.14,-1082.42C729.61,-1068.5 742.63,-1048.77 753,-1030.8 788.19,-969.81 824.23,-895.43 843.06,-855.48"/>
<polygon fill="black" stroke="black" points="846.17,-857.07 847.25,-846.53 839.84,-854.1 846.17,-857.07"/>
</g>
<!-- multiformat&#45;&gt;parse -->
<g id="edge97" class="edge">
<title>multiformat&#45;&gt;parse</title>
<path fill="none" stroke="black" d="M751.8,-1101.8C795.99,-1103.09 865.68,-1105.91 925.75,-1111.8 976.95,-1116.82 1035.68,-1126 1072.89,-1132.25"/>
<polygon fill="black" stroke="black" points="1072.24,-1135.69 1082.69,-1133.91 1073.41,-1128.79 1072.24,-1135.69"/>
</g>
<!-- object&#45;&gt;hash -->
<g id="edge98" class="edge">
<title>object&#45;&gt;hash</title>
<path fill="none" stroke="black" d="M735.36,-684.57C741.42,-688.92 747.63,-693.78 753,-698.8 770.86,-715.48 811.03,-767.05 835.7,-799.41"/>
<polygon fill="black" stroke="black" points="832.77,-801.33 841.61,-807.18 838.34,-797.1 832.77,-801.33"/>
</g>
<!-- object&#45;&gt;parse -->
<g id="edge99" class="edge">
<title>object&#45;&gt;parse</title>
<path fill="none" stroke="black" d="M735.26,-669.51C798.96,-677.26 955.76,-705.42 1035.5,-799.8 1075.39,-847.01 1099.42,-1036.14 1107.4,-1109.5"/>
<polygon fill="black" stroke="black" points="1103.89,-1109.56 1108.42,-1119.13 1110.85,-1108.82 1103.89,-1109.56"/>
</g>
<!-- opentheory&#45;&gt;hol -->
<g id="edge100" class="edge">
<title>opentheory&#45;&gt;hol</title>
<path fill="none" stroke="black" d="M369.1,-2215.44C447.44,-2212.64 613.86,-2204.7 753,-2184.8 775.07,-2181.64 799.47,-2176.53 819.02,-2172.02"/>
<polygon fill="black" stroke="black" points="819.8,-2175.44 828.73,-2169.74 818.2,-2168.62 819.8,-2175.44"/>
</g>
<!-- parquet -->
<g id="node36" class="node">
<title>parquet</title>
<polygon fill="none" stroke="black" points="482.5,-570.8 415.5,-570.8 415.5,-534.8 482.5,-534.8 482.5,-570.8"/>
<text text-anchor="middle" x="449" y="-548.5" font-family="sans-serif" font-size="14.00">parquet</text>
</g>
<!-- parquet&#45;&gt;arrow -->
<g id="edge101" class="edge">
<title>parquet&#45;&gt;arrow</title>
<path fill="none" stroke="black" d="M482.94,-548.59C499.84,-546.44 520.5,-543.8 538,-541.57"/>
<polygon fill="black" stroke="black" points="537.99,-545.1 547.47,-540.36 537.1,-538.15 537.99,-545.1"/>
</g>
<!-- proptest -->
<g id="node38" class="node">
<title>proptest</title>
<polygon fill="none" stroke="black" points="95.88,-1006.8 25.12,-1006.8 25.12,-970.8 95.88,-970.8 95.88,-1006.8"/>
<text text-anchor="middle" x="60.5" y="-984.5" font-family="sans-serif" font-size="14.00">proptest</text>
</g>
<!-- pure&#45;trusted -->
<g id="node42" class="node">
<title>pure&#45;trusted</title>
<polygon fill="#ffd6d6" stroke="black" points="1376.5,-1964.8 1277.25,-1964.8 1277.25,-1928.8 1376.5,-1928.8 1376.5,-1964.8"/>
<text text-anchor="middle" x="1326.88" y="-1942.5" font-family="sans-serif" font-size="14.00">pure&#45;trusted</text>
</g>
<!-- pure&#45;&gt;pure&#45;trusted -->
<g id="edge102" class="edge">
<title>pure&#45;&gt;pure&#45;trusted</title>
<path fill="none" stroke="black" d="M1241.75,-1948.32C1249.04,-1948.19 1257.27,-1948.04 1265.64,-1947.89"/>
<polygon fill="black" stroke="black" points="1265.63,-1951.39 1275.57,-1947.71 1265.51,-1944.39 1265.63,-1951.39"/>
</g>
<!-- pure&#45;eval&#45;&gt;pure -->
<g id="edge103" class="edge">
<title>pure&#45;eval&#45;&gt;pure</title>
<path fill="none" stroke="black" d="M1151.66,-1920.71C1159.9,-1924.47 1168.54,-1928.41 1176.67,-1932.12"/>
<polygon fill="black" stroke="black" points="1175.05,-1935.23 1185.6,-1936.19 1177.96,-1928.86 1175.05,-1935.23"/>
</g>
<!-- pure&#45;eval&#45;&gt;types -->
<g id="edge104" class="edge">
<title>pure&#45;eval&#45;&gt;types</title>
<path fill="none" stroke="black" d="M1151.71,-1900.02C1215.06,-1895.56 1338.83,-1886.83 1400.99,-1882.44"/>
<polygon fill="black" stroke="black" points="1400.97,-1885.95 1410.7,-1881.76 1400.48,-1878.97 1400.97,-1885.95"/>
</g>
<!-- pure&#45;trusted&#45;&gt;types -->
<g id="edge105" class="edge">
<title>pure&#45;trusted&#45;&gt;types</title>
<path fill="none" stroke="black" d="M1358.4,-1928.31C1372.11,-1920 1388.4,-1910.14 1402.69,-1901.49"/>
<polygon fill="black" stroke="black" points="1404.17,-1904.68 1410.91,-1896.51 1400.55,-1898.69 1404.17,-1904.68"/>
</g>
<!-- python -->
<g id="node43" class="node">
<title>python</title>
<polygon fill="none" stroke="black" points="91.38,-321.8 29.62,-321.8 29.62,-285.8 91.38,-285.8 91.38,-321.8"/>
<text text-anchor="middle" x="60.5" y="-299.5" font-family="sans-serif" font-size="14.00">python</text>
</g>
<!-- python&#45;&gt;crypto&#45;sig -->
<g id="edge106" class="edge">
<title>python&#45;&gt;crypto&#45;sig</title>
<path fill="none" stroke="black" d="M80.04,-285.33C98.94,-266.74 129.32,-237.52 157,-213.8 159.6,-211.57 162.32,-209.31 165.08,-207.07"/>
<polygon fill="black" stroke="black" points="167.08,-209.95 172.71,-200.98 162.71,-204.48 167.08,-209.95"/>
</g>
<!-- python&#45;&gt;git -->
<g id="edge107" class="edge">
<title>python&#45;&gt;git</title>
<path fill="none" stroke="black" d="M91.83,-313.14C161.82,-334.69 334.46,-387.84 410.74,-411.33"/>
<polygon fill="black" stroke="black" points="409.66,-414.66 420.25,-414.25 411.72,-407.97 409.66,-414.66"/>
</g>
<!-- python&#45;&gt;graph -->
<g id="edge108" class="edge">
<title>python&#45;&gt;graph</title>
<path fill="none" stroke="black" d="M86.8,-285.56C105.26,-273.4 131.43,-258.47 157,-251.8 301.5,-214.08 357.27,-186.52 493,-248.8 573.99,-285.96 576.91,-324.99 623.75,-400.8 645.53,-436.05 639.73,-450.52 659.75,-486.8 666.88,-499.72 676.02,-513.2 684.25,-524.51"/>
<polygon fill="black" stroke="black" points="681.21,-526.28 689.98,-532.23 686.83,-522.11 681.21,-526.28"/>
</g>
<!-- python&#45;&gt;hash -->
<g id="edge109" class="edge">
<title>python&#45;&gt;hash</title>
<path fill="none" stroke="black" d="M68.68,-321.92C91.21,-376.62 165.71,-542.02 277.25,-634.8 419.86,-753.42 478.12,-764.1 659.75,-801.8 714.52,-813.17 779.02,-820.18 818.81,-823.78"/>
<polygon fill="black" stroke="black" points="818.3,-827.25 828.57,-824.64 818.92,-820.28 818.3,-827.25"/>
</g>
<!-- python&#45;&gt;kv -->
<g id="edge110" class="edge">
<title>python&#45;&gt;kv</title>
<path fill="none" stroke="black" d="M68.08,-285.49C81.14,-250.85 112.94,-174.49 157,-121.8 159.01,-119.39 161.24,-117.05 163.57,-114.8"/>
<polygon fill="black" stroke="black" points="165.5,-117.77 170.7,-108.53 160.88,-112.51 165.5,-117.77"/>
</g>
<!-- python&#45;&gt;llm -->
<g id="edge111" class="edge">
<title>python&#45;&gt;llm</title>
<path fill="none" stroke="black" d="M91.48,-322.23C112.33,-335.05 140.21,-352.19 162.24,-365.73"/>
<polygon fill="black" stroke="black" points="160.26,-368.63 170.61,-370.88 163.92,-362.66 160.26,-368.63"/>
</g>
<!-- python&#45;&gt;object -->
<g id="edge112" class="edge">
<title>python&#45;&gt;object</title>
<path fill="none" stroke="black" d="M91.62,-301.05C186.32,-294.22 480.27,-287.3 623.75,-446.8 664.42,-492.01 637.63,-522.15 659.75,-578.8 667.84,-599.51 679.38,-621.73 688.83,-638.66"/>
<polygon fill="black" stroke="black" points="685.67,-640.17 693.65,-647.14 691.75,-636.71 685.67,-640.17"/>
</g>
<!-- python&#45;&gt;repl -->
<g id="edge113" class="edge">
<title>python&#45;&gt;repl</title>
<path fill="none" stroke="black" d="M77.02,-321.9C121.01,-373.21 246.67,-519.79 298.91,-580.72"/>
<polygon fill="black" stroke="black" points="296.2,-582.94 305.37,-588.25 301.52,-578.38 296.2,-582.94"/>
</g>
<!-- python&#45;&gt;sat -->
<g id="edge114" class="edge">
<title>python&#45;&gt;sat</title>
<path fill="none" stroke="black" d="M63.72,-322.28C78.06,-441.65 157,-1098.8 157,-1098.8 319.54,-1377.08 495.59,-1317.89 753,-1511.8 780.67,-1532.64 809.8,-1559.34 830.06,-1578.78"/>
<polygon fill="black" stroke="black" points="827.46,-1581.14 837.08,-1585.58 832.33,-1576.11 827.46,-1581.14"/>
</g>
<!-- python&#45;&gt;serve -->
<g id="edge115" class="edge">
<title>python&#45;&gt;serve</title>
<path fill="none" stroke="black" d="M64.92,-322.02C76.38,-382.6 115.14,-582.69 157,-745.8 166.73,-783.72 179.95,-826.9 188.75,-854.7"/>
<polygon fill="black" stroke="black" points="185.39,-855.71 191.76,-864.18 192.06,-853.59 185.39,-855.71"/>
</g>
<!-- python&#45;&gt;sexp -->
<g id="edge116" class="edge">
<title>python&#45;&gt;sexp</title>
<path fill="none" stroke="black" d="M62.99,-322.06C70.5,-411.28 105.79,-801.52 157,-910.8 191.38,-984.16 209.66,-1003.13 277.25,-1047.8 327.11,-1080.75 347.77,-1072.55 405,-1089.8 501.53,-1118.88 537.28,-1097.96 623.75,-1149.8 643.7,-1161.76 639.92,-1175.63 659.75,-1187.8 764.85,-1252.32 810.06,-1224.07 925.75,-1266.8 937.4,-1271.1 949.85,-1276.39 961.05,-1281.41"/>
<polygon fill="black" stroke="black" points="959.41,-1284.51 969.96,-1285.48 962.32,-1278.14 959.41,-1284.51"/>
</g>
<!-- python&#45;&gt;shell -->
<g id="edge117" class="edge">
<title>python&#45;&gt;shell</title>
<path fill="none" stroke="black" d="M63.65,-322.1C76.91,-434.83 147.38,-1030.6 157,-1046.8 211.75,-1138.94 345.04,-1174.68 410.49,-1187.02"/>
<polygon fill="black" stroke="black" points="409.56,-1190.41 420.02,-1188.73 410.8,-1183.52 409.56,-1190.41"/>
</g>
<!-- python&#45;&gt;store -->
<g id="edge118" class="edge">
<title>python&#45;&gt;store</title>
<path fill="none" stroke="black" d="M66.89,-285.3C77.69,-252.04 105.51,-182.95 157,-154.8 189.85,-136.83 203.9,-152.08 241.25,-154.8 412.61,-167.28 489.45,-103.65 623.75,-210.8 658.4,-238.44 631.1,-269.98 659.75,-303.8 662.61,-307.18 666.01,-310.24 669.64,-312.99"/>
<polygon fill="black" stroke="black" points="667.45,-315.73 677.72,-318.33 671.31,-309.89 667.45,-315.73"/>
</g>
<!-- python&#45;&gt;wasm -->
<g id="edge119" class="edge">
<title>python&#45;&gt;wasm</title>
<path fill="none" stroke="black" d="M62.18,-285.56C65.04,-237.02 79.89,-103.91 157,-37.8 213.75,10.86 247.37,-5.8 322.12,-5.8 322.12,-5.8 322.12,-5.8 707.38,-5.8 805.4,-5.8 845.12,18.96 925.75,-36.8 960.75,-61 980.41,-107.98 990.01,-138.6"/>
<polygon fill="black" stroke="black" points="986.6,-139.4 992.79,-148.01 993.32,-137.42 986.6,-139.4"/>
</g>
<!-- wasm&#45;store -->
<g id="node60" class="node">
<title>wasm&#45;store</title>
<polygon fill="none" stroke="black" points="623.75,-78.8 529,-78.8 529,-42.8 623.75,-42.8 623.75,-78.8"/>
<text text-anchor="middle" x="576.38" y="-56.5" font-family="sans-serif" font-size="14.00">wasm&#45;store</text>
</g>
<!-- python&#45;&gt;wasm&#45;store -->
<g id="edge120" class="edge">
<title>python&#45;&gt;wasm&#45;store</title>
<path fill="none" stroke="black" d="M62.27,-285.45C65.33,-238.67 80.62,-114.95 157,-62.8 213.96,-23.9 416.69,-41.62 517.54,-53.36"/>
<polygon fill="black" stroke="black" points="516.89,-56.8 527.23,-54.5 517.71,-49.85 516.89,-56.8"/>
</g>
<!-- repl&#45;&gt;arrow -->
<g id="edge121" class="edge">
<title>repl&#45;&gt;arrow</title>
<path fill="none" stroke="black" d="M350.43,-591.22C356.84,-586.61 363.44,-581.33 369,-575.8 388.41,-556.48 380.63,-538.28 405,-525.8 446.78,-504.4 502.06,-513.68 538.16,-523.88"/>
<polygon fill="black" stroke="black" points="537.13,-527.22 547.71,-526.75 539.14,-520.52 537.13,-527.22"/>
</g>
<!-- repl&#45;&gt;forsp -->
<g id="edge122" class="edge">
<title>repl&#45;&gt;forsp</title>
<path fill="none" stroke="black" d="M329.13,-626.2C348.24,-696.38 416.65,-947.63 440.07,-1033.66"/>
<polygon fill="black" stroke="black" points="436.66,-1034.48 442.67,-1043.21 443.42,-1032.64 436.66,-1034.48"/>
</g>
<!-- repl&#45;&gt;git -->
<g id="edge123" class="edge">
<title>repl&#45;&gt;git</title>
<path fill="none" stroke="black" d="M350.41,-593.4C357.27,-588.57 364.11,-582.65 369,-575.8 401.61,-530.14 372.85,-500.78 405,-454.8 407.38,-451.39 410.24,-448.21 413.33,-445.26"/>
<polygon fill="black" stroke="black" points="415.35,-448.13 420.76,-439.02 410.85,-442.77 415.35,-448.13"/>
</g>
<!-- repl&#45;&gt;graph -->
<g id="edge124" class="edge">
<title>repl&#45;&gt;graph</title>
<path fill="none" stroke="black" d="M350.39,-590.78C356.94,-585.8 363.62,-580 369,-573.8 390.63,-548.84 376.55,-525.56 405,-508.8 415.69,-502.5 592.38,-502.08 623.75,-509.8 639.41,-513.65 655.45,-521.03 669.11,-528.53"/>
<polygon fill="black" stroke="black" points="667.33,-531.54 677.74,-533.49 670.81,-525.47 667.33,-531.54"/>
</g>
<!-- repl&#45;&gt;hash -->
<g id="edge125" class="edge">
<title>repl&#45;&gt;hash</title>
<path fill="none" stroke="black" d="M349.12,-626.28C386.58,-653.25 460.21,-703.59 529,-734.8 584.34,-759.9 601.31,-758.14 659.75,-774.8 714.92,-790.53 779.25,-807.23 818.9,-817.34"/>
<polygon fill="black" stroke="black" points="817.87,-820.69 828.42,-819.76 819.59,-813.91 817.87,-820.69"/>
</g>
<!-- repl&#45;&gt;init -->
<g id="edge126" class="edge">
<title>repl&#45;&gt;init</title>
<path fill="none" stroke="black" d="M332.65,-626.18C359.56,-684.79 443.78,-872.93 493,-1035.8 515.09,-1108.9 481.11,-1144.32 529,-1203.8 558,-1239.82 593.65,-1211.69 623.75,-1246.8 690.14,-1324.24 702.79,-1451.75 705.02,-1509.16"/>
<polygon fill="black" stroke="black" points="701.52,-1509.21 705.31,-1519.11 708.52,-1509.01 701.52,-1509.21"/>
</g>
<!-- repl&#45;&gt;object -->
<g id="edge127" class="edge">
<title>repl&#45;&gt;object</title>
<path fill="none" stroke="black" d="M350.52,-608.53C403.13,-610.45 524.55,-617.16 623.75,-639.8 637.96,-643.04 653.21,-647.74 666.63,-652.31"/>
<polygon fill="black" stroke="black" points="665.39,-655.58 675.99,-655.58 667.71,-648.98 665.39,-655.58"/>
</g>
<!-- repl&#45;&gt;parquet -->
<g id="edge128" class="edge">
<title>repl&#45;&gt;parquet</title>
<path fill="none" stroke="black" d="M350.4,-596.13C366.19,-589.12 386.67,-580.03 404.8,-571.98"/>
<polygon fill="black" stroke="black" points="406.04,-575.26 413.76,-568 403.2,-568.86 406.04,-575.26"/>
</g>
<!-- repl&#45;&gt;shell -->
<g id="edge129" class="edge">
<title>repl&#45;&gt;shell</title>
<path fill="none" stroke="black" d="M325.67,-626.08C331.44,-690.6 354.08,-913.3 405,-1089.8 412.51,-1115.84 424.65,-1144.17 434.12,-1164.52"/>
<polygon fill="black" stroke="black" points="430.83,-1165.75 438.27,-1173.28 437.15,-1162.75 430.83,-1165.75"/>
</g>
<!-- repl&#45;&gt;wasm -->
<g id="edge130" class="edge">
<title>repl&#45;&gt;wasm</title>
<path fill="none" stroke="black" d="M332.75,-589.4C342.19,-568.96 357.51,-534.86 369,-504.8 387.21,-457.14 372.73,-435.32 405,-395.8 550.67,-217.37 853.35,-178.32 959.69,-169.99"/>
<polygon fill="black" stroke="black" points="959.86,-173.49 969.58,-169.27 959.35,-166.51 959.86,-173.49"/>
</g>
<!-- sat&#45;&gt;parse -->
<g id="edge131" class="edge">
<title>sat&#45;&gt;parse</title>
<path fill="none" stroke="black" d="M884.57,-1603.06C923.72,-1598.97 997.01,-1585.32 1035.5,-1539.8 1083.39,-1483.15 1103.04,-1250.72 1108.6,-1168.11"/>
<polygon fill="black" stroke="black" points="1112.08,-1168.54 1109.24,-1158.34 1105.09,-1168.09 1112.08,-1168.54"/>
</g>
<!-- sat&#45;&gt;types -->
<g id="edge132" class="edge">
<title>sat&#45;&gt;types</title>
<path fill="none" stroke="black" d="M884.84,-1607.06C930.72,-1610.79 1028.02,-1617.8 1110.38,-1617.8 1110.38,-1617.8 1110.38,-1617.8 1215.25,-1617.8 1288.78,-1617.8 1323.39,-1603.94 1376.5,-1654.8 1430.88,-1706.87 1438.98,-1801.9 1439.34,-1850.08"/>
<polygon fill="black" stroke="black" points="1435.84,-1850.01 1439.29,-1860.03 1442.84,-1850.05 1435.84,-1850.01"/>
</g>
<!-- sat&#45;&gt;wasm -->
<g id="edge133" class="edge">
<title>sat&#45;&gt;wasm</title>
<path fill="none" stroke="black" d="M884.59,-1587.31C899.52,-1575.75 916.95,-1559.19 925.75,-1539.8 959.77,-1464.84 957.42,-882 961.75,-799.8 973.99,-567.65 990.49,-287.65 995.86,-197.37"/>
<polygon fill="black" stroke="black" points="999.34,-197.85 996.44,-187.66 992.35,-197.44 999.34,-197.85"/>
</g>
<!-- serve&#45;&gt;core -->
<g id="edge134" class="edge">
<title>serve&#45;&gt;core</title>
<path fill="none" stroke="black" d="M201.56,-902.06C209.62,-1004.17 249.98,-1505.26 277.25,-1657.8 316.94,-1879.77 234.19,-2001.59 405,-2148.8 580.86,-2300.36 735.3,-2322.57 925.75,-2189.8 979.84,-2152.09 993.33,-2068.85 996.62,-2024.3"/>
<polygon fill="black" stroke="black" points="1000.1,-2024.79 997.21,-2014.6 993.11,-2024.37 1000.1,-2024.79"/>
</g>
<!-- serve&#45;&gt;forsp -->
<g id="edge135" class="edge">
<title>serve&#45;&gt;forsp</title>
<path fill="none" stroke="black" d="M205.93,-901.86C215.91,-930.04 239.03,-984.29 277.25,-1013.8 316.24,-1043.9 373.04,-1055.51 410.25,-1059.99"/>
<polygon fill="black" stroke="black" points="409.78,-1063.46 420.09,-1061.05 410.52,-1056.5 409.78,-1063.46"/>
</g>
<!-- serve&#45;&gt;git -->
<g id="edge136" class="edge">
<title>serve&#45;&gt;git</title>
<path fill="none" stroke="black" d="M199.66,-865.38C199.33,-814.16 205.13,-668.02 277.25,-580.8 305.95,-546.09 337.62,-570.1 369,-537.8 397.02,-508.96 380.03,-486.31 405,-454.8 407.31,-451.88 409.95,-449.09 412.76,-446.47"/>
<polygon fill="black" stroke="black" points="414.96,-449.19 420.37,-440.08 410.46,-443.83 414.96,-449.19"/>
</g>
<!-- serve&#45;&gt;hash -->
<g id="edge137" class="edge">
<title>serve&#45;&gt;hash</title>
<path fill="none" stroke="black" d="M226.36,-882.29C305.82,-877.61 550.76,-862.34 753,-840.8 774.88,-838.47 799.27,-835.2 818.86,-832.4"/>
<polygon fill="black" stroke="black" points="819.19,-835.89 828.58,-831 818.19,-828.96 819.19,-835.89"/>
</g>
<!-- serve&#45;&gt;init -->
<g id="edge138" class="edge">
<title>serve&#45;&gt;init</title>
<path fill="none" stroke="black" d="M204.07,-902.16C212.14,-935.54 233.58,-1006.52 277.25,-1047.8 309.2,-1078 330.02,-1064.46 369,-1084.8 427.36,-1115.25 449.47,-1116.42 493,-1165.8 517.18,-1193.24 506.36,-1211.07 529,-1239.8 562.76,-1282.64 592.15,-1273.34 623.75,-1317.8 666.84,-1378.42 689.9,-1464.41 699.64,-1509.16"/>
<polygon fill="black" stroke="black" points="696.2,-1509.82 701.68,-1518.89 703.05,-1508.39 696.2,-1509.82"/>
</g>
<!-- serve&#45;&gt;lisp -->
<g id="edge139" class="edge">
<title>serve&#45;&gt;lisp</title>
<path fill="none" stroke="black" d="M205.54,-902.05C217.86,-943.42 249.1,-1047.43 277.25,-1133.8 335.47,-1312.43 410.51,-1525.27 437.64,-1601.7"/>
<polygon fill="black" stroke="black" points="434.28,-1602.69 440.92,-1610.94 440.87,-1600.34 434.28,-1602.69"/>
</g>
<!-- serve&#45;&gt;metamath -->
<g id="edge140" class="edge">
<title>serve&#45;&gt;metamath</title>
<path fill="none" stroke="black" d="M226.49,-890.11C297.53,-908.18 496.22,-965.9 623.75,-1073.8 645.77,-1092.43 634.71,-1113.48 659.75,-1127.8 704.11,-1153.16 763.69,-1152.66 805.6,-1147.85"/>
<polygon fill="black" stroke="black" points="805.95,-1151.33 815.42,-1146.59 805.06,-1144.39 805.95,-1151.33"/>
</g>
<!-- serve&#45;&gt;object -->
<g id="edge141" class="edge">
<title>serve&#45;&gt;object</title>
<path fill="none" stroke="black" d="M226.51,-876.81C294.8,-858.14 481.87,-803.28 623.75,-726.8 641.83,-717.05 660.4,-703.72 675.25,-692.09"/>
<polygon fill="black" stroke="black" points="677.16,-695.04 682.79,-686.06 672.79,-689.57 677.16,-695.04"/>
</g>
<!-- serve&#45;&gt;proto -->
<g id="edge142" class="edge">
<title>serve&#45;&gt;proto</title>
<path fill="none" stroke="black" d="M199.4,-865.7C197.97,-808.46 200.18,-628.12 277.25,-509.8 279.89,-505.74 283.25,-502.03 286.93,-498.7"/>
<polygon fill="black" stroke="black" points="289.04,-501.49 294.73,-492.55 284.71,-495.99 289.04,-501.49"/>
</g>
<!-- serve&#45;&gt;repl -->
<g id="edge143" class="edge">
<title>serve&#45;&gt;repl</title>
<path fill="none" stroke="black" d="M208.13,-865.69C228.85,-818.81 284.39,-693.17 309.49,-636.37"/>
<polygon fill="black" stroke="black" points="312.64,-637.92 313.48,-627.36 306.23,-635.09 312.64,-637.92"/>
</g>
<!-- serve&#45;&gt;shell -->
<g id="edge144" class="edge">
<title>serve&#45;&gt;shell</title>
<path fill="none" stroke="black" d="M203.14,-902.12C210.17,-939.97 230.69,-1028 277.25,-1084.8 313.63,-1129.18 373.26,-1160.95 411.55,-1178.1"/>
<polygon fill="black" stroke="black" points="409.8,-1181.15 420.36,-1181.94 412.6,-1174.73 409.8,-1181.15"/>
</g>
<!-- serve&#45;&gt;store -->
<g id="edge145" class="edge">
<title>serve&#45;&gt;store</title>
<path fill="none" stroke="black" d="M201.88,-865.64C208.38,-801.67 233.1,-587.89 277.25,-537.8 305.9,-505.29 338.76,-535.84 369,-504.8 404.6,-468.25 371.45,-434.23 405,-395.8 433.63,-363 454.19,-372.52 493,-352.8 509.13,-344.6 511.48,-338.3 529,-333.8 575.84,-321.77 632,-323.44 668.17,-326.49"/>
<polygon fill="black" stroke="black" points="667.38,-329.93 677.66,-327.37 668.03,-322.96 667.38,-329.93"/>
</g>
<!-- sexp&#45;&gt;parse -->
<g id="edge146" class="edge">
<title>sexp&#45;&gt;parse</title>
<path fill="none" stroke="black" d="M1012.33,-1280.44C1031.69,-1252.47 1068.71,-1199 1091.3,-1166.35"/>
<polygon fill="black" stroke="black" points="1094.14,-1168.4 1096.96,-1158.18 1088.39,-1164.41 1094.14,-1168.4"/>
</g>
<!-- shell&#45;&gt;hol -->
<g id="edge147" class="edge">
<title>shell&#45;&gt;hol</title>
<path fill="none" stroke="black" d="M450.09,-1210.98C450.99,-1277.09 459.23,-1510.05 529,-1684.8 605.54,-1876.5 769.75,-2068.03 831.88,-2136.47"/>
<polygon fill="black" stroke="black" points="828.93,-2138.42 838.25,-2143.45 834.09,-2133.7 828.93,-2138.42"/>
</g>
<!-- shell&#45;&gt;kernel -->
<g id="edge148" class="edge">
<title>shell&#45;&gt;kernel</title>
<path fill="none" stroke="black" d="M476.28,-1189.44C493.61,-1187.23 516.61,-1184.3 536.09,-1181.81"/>
<polygon fill="black" stroke="black" points="536.41,-1185.3 545.88,-1180.56 535.52,-1178.36 536.41,-1185.3"/>
</g>
<!-- smt&#45;&gt;sat -->
<g id="edge149" class="edge">
<title>smt&#45;&gt;sat</title>
<path fill="none" stroke="black" d="M733.67,-1626.21C757.32,-1622.08 792.33,-1615.97 818.91,-1611.34"/>
<polygon fill="black" stroke="black" points="819.35,-1614.81 828.6,-1609.64 818.15,-1607.92 819.35,-1614.81"/>
</g>
<!-- smt&#45;&gt;sexp -->
<g id="edge150" class="edge">
<title>smt&#45;&gt;sexp</title>
<path fill="none" stroke="black" d="M722.82,-1612.54C732.68,-1600.07 745.06,-1582.79 753,-1565.8 779.11,-1509.93 746.32,-1476.31 789,-1431.8 833.09,-1385.81 876.66,-1429.41 925.75,-1388.8 951.8,-1367.25 938.79,-1346.6 961.75,-1321.8 962.1,-1321.42 962.46,-1321.04 962.83,-1320.67"/>
<polygon fill="black" stroke="black" points="964.83,-1323.56 970.15,-1314.4 960.28,-1318.24 964.83,-1323.56"/>
</g>
<!-- smt&#45;&gt;types -->
<g id="edge151" class="edge">
<title>smt&#45;&gt;types</title>
<path fill="none" stroke="black" d="M733.86,-1646.79C740.52,-1651.48 747.37,-1656.94 753,-1662.8 773.5,-1684.14 765.34,-1701.03 789,-1718.8 866.35,-1776.89 900.89,-1780.8 997.62,-1780.8 997.62,-1780.8 997.62,-1780.8 1215.25,-1780.8 1287.71,-1780.8 1313.4,-1769.18 1376.5,-1804.8 1395.87,-1815.73 1411.72,-1835.26 1422.54,-1851.65"/>
<polygon fill="black" stroke="black" points="1419.54,-1853.45 1427.81,-1860.06 1425.47,-1849.73 1419.54,-1853.45"/>
</g>
<!-- spectec&#45;&gt;grammar -->
<g id="edge152" class="edge">
<title>spectec&#45;&gt;grammar</title>
<path fill="none" stroke="black" d="M892.44,-1512.8C909.78,-1512.8 931.13,-1512.8 950.06,-1512.8"/>
<polygon fill="black" stroke="black" points="949.97,-1516.3 959.97,-1512.8 949.97,-1509.3 949.97,-1516.3"/>
</g>
<!-- store&#45;&gt;hash -->
<g id="edge153" class="edge">
<title>store&#45;&gt;hash</title>
<path fill="none" stroke="black" d="M716.72,-349.22C726.68,-369.37 742.43,-402.79 753,-432.8 799.88,-565.92 836.49,-730.94 850.36,-797.22"/>
<polygon fill="black" stroke="black" points="846.91,-797.85 852.37,-806.93 853.77,-796.43 846.91,-797.85"/>
</g>
<!-- store&#45;&gt;json -->
<g id="edge154" class="edge">
<title>store&#45;&gt;json</title>
<path fill="none" stroke="black" d="M733.67,-321.27C757.43,-312.66 792.65,-299.89 819.27,-290.25"/>
<polygon fill="black" stroke="black" points="820.46,-293.54 828.67,-286.84 818.08,-286.96 820.46,-293.54"/>
</g>
<!-- store&#45;&gt;sqlite -->
<g id="edge155" class="edge">
<title>store&#45;&gt;sqlite</title>
<path fill="none" stroke="black" d="M733.67,-330.8C757.32,-330.8 792.33,-330.8 818.91,-330.8"/>
<polygon fill="black" stroke="black" points="818.58,-334.3 828.58,-330.8 818.58,-327.3 818.58,-334.3"/>
</g>
<!-- tcb&#45;db -->
<g id="node55" class="node">
<title>tcb&#45;db</title>
<polygon fill="none" stroke="black" points="736.5,-294.8 676.25,-294.8 676.25,-258.8 736.5,-258.8 736.5,-294.8"/>
<text text-anchor="middle" x="706.38" y="-272.5" font-family="sans-serif" font-size="14.00">tcb&#45;db</text>
</g>
<!-- tcb&#45;db&#45;&gt;json -->
<g id="edge156" class="edge">
<title>tcb&#45;db&#45;&gt;json</title>
<path fill="none" stroke="black" d="M736.81,-276.8C760.24,-276.8 793.19,-276.8 818.57,-276.8"/>
<polygon fill="black" stroke="black" points="818.48,-280.3 828.48,-276.8 818.48,-273.3 818.48,-280.3"/>
</g>
<!-- tcb&#45;db&#45;&gt;sqlite -->
<g id="edge157" class="edge">
<title>tcb&#45;db&#45;&gt;sqlite</title>
<path fill="none" stroke="black" d="M736.81,-287.47C760.45,-296.03 793.79,-308.12 819.26,-317.35"/>
<polygon fill="black" stroke="black" points="817.98,-320.61 828.57,-320.72 820.36,-314.02 817.98,-320.61"/>
</g>
<!-- wasm&#45;build&#45;guest -->
<g id="node58" class="node">
<title>wasm&#45;build&#45;guest</title>
<polygon fill="none" stroke="black" points="925.75,-120.8 789,-120.8 789,-84.8 925.75,-84.8 925.75,-120.8"/>
<text text-anchor="middle" x="857.38" y="-98.5" font-family="sans-serif" font-size="14.00">wasm&#45;build&#45;guest</text>
</g>
<!-- wasm&#45;build&#45;guest&#45;&gt;wasm -->
<g id="edge158" class="edge">
<title>wasm&#45;build&#45;guest&#45;&gt;wasm</title>
<path fill="none" stroke="black" d="M897.91,-121.25C917.72,-130.5 941.55,-141.62 960.95,-150.68"/>
<polygon fill="black" stroke="black" points="959.3,-153.77 969.85,-154.83 962.27,-147.43 959.3,-153.77"/>
</g>
<!-- wasm&#45;spec -->
<g id="node59" class="node">
<title>wasm&#45;spec</title>
<polygon fill="none" stroke="black" points="753,-477.8 659.75,-477.8 659.75,-441.8 753,-441.8 753,-477.8"/>
<text text-anchor="middle" x="706.38" y="-455.5" font-family="sans-serif" font-size="14.00">wasm&#45;spec</text>
</g>
<!-- wasm&#45;spec&#45;&gt;hash -->
<g id="edge159" class="edge">
<title>wasm&#45;spec&#45;&gt;hash</title>
<path fill="none" stroke="black" d="M722.44,-478.24C732.15,-490.79 744.49,-508.09 753,-524.8 801.25,-619.58 835.26,-741.98 849.26,-797.32"/>
<polygon fill="black" stroke="black" points="845.83,-798.05 851.65,-806.91 852.62,-796.36 845.83,-798.05"/>
</g>
<!-- wasm&#45;spec&#45;&gt;wasm -->
<g id="edge160" class="edge">
<title>wasm&#45;spec&#45;&gt;wasm</title>
<path fill="none" stroke="black" d="M753.19,-449.36C802.12,-435.99 878.94,-408.27 925.75,-357.8 968.33,-311.88 986.42,-238.26 993.51,-197.45"/>
<polygon fill="black" stroke="black" points="996.95,-198.07 995.09,-187.64 990.04,-196.96 996.95,-198.07"/>
</g>
<!-- wasm&#45;store&#45;&gt;json -->
<g id="edge161" class="edge">
<title>wasm&#45;store&#45;&gt;json</title>
<path fill="none" stroke="black" d="M601.16,-79.21C651.09,-117.87 766.9,-207.52 823.73,-251.52"/>
<polygon fill="black" stroke="black" points="821.4,-254.15 831.45,-257.5 825.69,-248.61 821.4,-254.15"/>
</g>
<!-- wasm&#45;store&#45;&gt;store -->
<g id="edge162" class="edge">
<title>wasm&#45;store&#45;&gt;store</title>
<path fill="none" stroke="black" d="M591.53,-79.28C601.9,-93.68 615.55,-114.56 623.75,-134.8 652.58,-205.98 614.93,-241.44 659.75,-303.8 662.53,-307.67 666.05,-311.07 669.9,-314.05"/>
<polygon fill="black" stroke="black" points="667.73,-316.81 678.01,-319.39 671.58,-310.97 667.73,-316.81"/>
</g>
<!-- wasm&#45;store&#45;&gt;wasm -->
<g id="edge163" class="edge">
<title>wasm&#45;store&#45;&gt;wasm</title>
<path fill="none" stroke="black" d="M624.18,-51.05C694.14,-38.96 828.19,-25.59 925.75,-75.8 952.23,-89.43 972,-117.73 984.03,-139.36"/>
<polygon fill="black" stroke="black" points="980.83,-140.81 988.6,-148.01 987.02,-137.54 980.83,-140.81"/>
</g>
<!-- web&#45;kernel -->
<g id="node61" class="node">
<title>web&#45;kernel</title>
<polygon fill="none" stroke="black" points="369,-1648.8 277.25,-1648.8 277.25,-1612.8 369,-1612.8 369,-1648.8"/>
<text text-anchor="middle" x="323.12" y="-1626.5" font-family="sans-serif" font-size="14.00">web&#45;kernel</text>
</g>
<!-- web&#45;kernel&#45;&gt;forsp -->
<g id="edge164" class="edge">
<title>web&#45;kernel&#45;&gt;forsp</title>
<path fill="none" stroke="black" d="M325.8,-1612.73C331.93,-1549.94 355.43,-1335.71 405,-1165.8 412.59,-1139.78 424.72,-1111.45 434.17,-1091.1"/>
<polygon fill="black" stroke="black" points="437.2,-1092.86 438.31,-1082.32 430.87,-1089.87 437.2,-1092.86"/>
</g>
<!-- web&#45;kernel&#45;&gt;haskell -->
<g id="edge165" class="edge">
<title>web&#45;kernel&#45;&gt;haskell</title>
<path fill="none" stroke="black" d="M330.02,-1649.25C349.91,-1711.56 414.7,-1914.5 438.83,-1990.09"/>
<polygon fill="black" stroke="black" points="435.38,-1990.78 441.76,-1999.24 442.05,-1988.65 435.38,-1990.78"/>
</g>
<!-- web&#45;kernel&#45;&gt;hol&#45;api -->
<g id="edge166" class="edge">
<title>web&#45;kernel&#45;&gt;hol&#45;api</title>
<path fill="none" stroke="black" d="M325.08,-1649.2C329.25,-1721.92 348.23,-1988.12 405,-2045.8 438.25,-2079.58 494.68,-2085.48 533.42,-2084.99"/>
<polygon fill="black" stroke="black" points="533.42,-2088.49 543.32,-2084.7 533.22,-2081.49 533.42,-2088.49"/>
</g>
<!-- web&#45;kernel&#45;&gt;kernel -->
<g id="edge167" class="edge">
<title>web&#45;kernel&#45;&gt;kernel</title>
<path fill="none" stroke="black" d="M334.29,-1612.44C373.2,-1542.12 512.92,-1289.66 559.86,-1204.83"/>
<polygon fill="black" stroke="black" points="562.85,-1206.66 564.63,-1196.21 556.73,-1203.27 562.85,-1206.66"/>
</g>
<!-- web&#45;kernel&#45;&gt;lisp -->
<g id="edge168" class="edge">
<title>web&#45;kernel&#45;&gt;lisp</title>
<path fill="none" stroke="black" d="M369.2,-1630.8C382.65,-1630.8 397.25,-1630.8 410.19,-1630.8"/>
<polygon fill="black" stroke="black" points="410.01,-1634.3 420.01,-1630.8 410.01,-1627.3 410.01,-1634.3"/>
</g>
</g>
</svg>
