<?xml version="1.0" encoding="UTF-8" standalone="no"?>
<!DOCTYPE svg PUBLIC "-//W3C//DTD SVG 1.1//EN"
 "http://www.w3.org/Graphics/SVG/1.1/DTD/svg11.dtd">
<!-- Generated by graphviz version 12.2.1 (0)
 -->
<!-- Title: deps Pages: 1 -->
<svg width="1518pt" height="2642pt"
 viewBox="0.00 0.00 1518.25 2642.35" xmlns="http://www.w3.org/2000/svg" xmlns:xlink="http://www.w3.org/1999/xlink">
<g id="graph0" class="graph" transform="scale(1 1) rotate(0) translate(4 2638.35)">
<title>deps</title>
<polygon fill="white" stroke="none" points="-4,4 -4,-2638.35 1514.25,-2638.35 1514.25,4 -4,4"/>
<!-- covalence -->
<g id="node1" class="node">
<title>covalence</title>
<polygon fill="none" stroke="black" points="102.62,-1655 18.38,-1655 18.38,-1619 102.62,-1619 102.62,-1655"/>
<text text-anchor="middle" x="60.5" y="-1632.7" font-family="sans-serif" font-size="14.00">covalence</text>
</g>
<!-- client -->
<g id="node5" class="node">
<title>client</title>
<polygon fill="none" stroke="black" points="350.12,-1701 296.12,-1701 296.12,-1665 350.12,-1665 350.12,-1701"/>
<text text-anchor="middle" x="323.12" y="-1678.7" font-family="sans-serif" font-size="14.00">client</text>
</g>
<!-- covalence&#45;&gt;client -->
<g id="edge1" class="edge">
<title>covalence&#45;&gt;client</title>
<path fill="none" stroke="black" d="M102.99,-1650.3C119.63,-1655.22 139.08,-1660.46 157,-1664 200.43,-1672.58 251.11,-1677.7 284.75,-1680.43"/>
<polygon fill="black" stroke="black" points="284.15,-1683.89 294.39,-1681.17 284.69,-1676.91 284.15,-1683.89"/>
</g>
<!-- fuse -->
<g id="node12" class="node">
<title>fuse</title>
<polygon fill="none" stroke="black" points="606.38,-2075 552.38,-2075 552.38,-2039 606.38,-2039 606.38,-2075"/>
<text text-anchor="middle" x="579.38" y="-2052.7" font-family="sans-serif" font-size="14.00">fuse</text>
</g>
<!-- covalence&#45;&gt;fuse -->
<g id="edge2" class="edge">
<title>covalence&#45;&gt;fuse</title>
<path fill="none" stroke="black" d="M66.46,-1655.47C83.79,-1716.12 147.73,-1910.38 277.25,-1999 358.61,-2054.66 479.8,-2060.15 540.65,-2058.92"/>
<polygon fill="black" stroke="black" points="540.57,-2062.43 550.47,-2058.64 540.37,-2055.43 540.57,-2062.43"/>
</g>
<!-- git -->
<g id="node13" class="node">
<title>git</title>
<polygon fill="none" stroke="black" points="477.5,-2167 423.5,-2167 423.5,-2131 477.5,-2131 477.5,-2167"/>
<text text-anchor="middle" x="450.5" y="-2144.7" font-family="sans-serif" font-size="14.00">git</text>
</g>
<!-- covalence&#45;&gt;git -->
<g id="edge3" class="edge">
<title>covalence&#45;&gt;git</title>
<path fill="none" stroke="black" d="M62.97,-1655.35C69.35,-1730.4 97.07,-2013.05 157,-2075 192.28,-2111.46 341.65,-2135.12 412.25,-2144.47"/>
<polygon fill="black" stroke="black" points="411.4,-2147.89 421.77,-2145.7 412.3,-2140.94 411.4,-2147.89"/>
</g>
<!-- hash -->
<g id="node16" class="node">
<title>hash</title>
<polygon fill="none" stroke="black" points="887.38,-1953 833.38,-1953 833.38,-1917 887.38,-1917 887.38,-1953"/>
<text text-anchor="middle" x="860.38" y="-1930.7" font-family="sans-serif" font-size="14.00">hash</text>
</g>
<!-- covalence&#45;&gt;hash -->
<g id="edge4" class="edge">
<title>covalence&#45;&gt;hash</title>
<path fill="none" stroke="black" d="M97.15,-1655.4C139.44,-1676.83 212.38,-1712.53 277.25,-1738 479.84,-1817.56 729.19,-1895.41 822.14,-1923.76"/>
<polygon fill="black" stroke="black" points="820.91,-1927.04 831.5,-1926.61 822.95,-1920.35 820.91,-1927.04"/>
</g>
<!-- hol -->
<g id="node18" class="node">
<title>hol</title>
<polygon fill="none" stroke="black" points="887.38,-443 833.38,-443 833.38,-407 887.38,-407 887.38,-443"/>
<text text-anchor="middle" x="860.38" y="-420.7" font-family="sans-serif" font-size="14.00">hol</text>
</g>
<!-- covalence&#45;&gt;hol -->
<g id="edge5" class="edge">
<title>covalence&#45;&gt;hol</title>
<path fill="none" stroke="black" d="M61.29,-1618.96C59.99,-1466.23 60.22,-395 322.12,-395 322.12,-395 322.12,-395 580.38,-395 667.11,-395 768.14,-409.51 821.64,-418.35"/>
<polygon fill="black" stroke="black" points="821,-421.79 831.44,-420 822.16,-414.89 821,-421.79"/>
</g>
<!-- init -->
<g id="node22" class="node">
<title>init</title>
<polygon fill="none" stroke="black" points="736.38,-1083 682.38,-1083 682.38,-1047 736.38,-1047 736.38,-1083"/>
<text text-anchor="middle" x="709.38" y="-1060.7" font-family="sans-serif" font-size="14.00">init</text>
</g>
<!-- covalence&#45;&gt;init -->
<g id="edge6" class="edge">
<title>covalence&#45;&gt;init</title>
<path fill="none" stroke="black" d="M61.34,-1618.56C61.56,-1521.35 75.92,-1073 322.12,-1073 322.12,-1073 322.12,-1073 451.5,-1073 529.57,-1073 620.92,-1069.26 670.93,-1066.9"/>
<polygon fill="black" stroke="black" points="670.8,-1070.41 680.62,-1066.43 670.46,-1063.42 670.8,-1070.41"/>
</g>
<!-- lsp -->
<g id="node34" class="node">
<title>lsp</title>
<polygon fill="none" stroke="black" points="887.38,-1593 833.38,-1593 833.38,-1557 887.38,-1557 887.38,-1593"/>
<text text-anchor="middle" x="860.38" y="-1570.7" font-family="sans-serif" font-size="14.00">lsp</text>
</g>
<!-- covalence&#45;&gt;lsp -->
<g id="edge7" class="edge">
<title>covalence&#45;&gt;lsp</title>
<path fill="none" stroke="black" d="M63.42,-1618.71C70.91,-1551.18 100.62,-1317.47 157,-1274 169.85,-1264.09 339.57,-1272.09 369,-1279 429.23,-1293.13 448.77,-1296.03 496,-1336 518.02,-1354.63 510.87,-1370.37 532,-1390 622.43,-1474 757.85,-1534.83 822.48,-1560.9"/>
<polygon fill="black" stroke="black" points="820.97,-1564.07 831.56,-1564.51 823.56,-1557.56 820.97,-1564.07"/>
</g>
<!-- object -->
<g id="node38" class="node">
<title>object</title>
<polygon fill="none" stroke="black" points="738,-1819 680.75,-1819 680.75,-1783 738,-1783 738,-1819"/>
<text text-anchor="middle" x="709.38" y="-1796.7" font-family="sans-serif" font-size="14.00">object</text>
</g>
<!-- covalence&#45;&gt;object -->
<g id="edge8" class="edge">
<title>covalence&#45;&gt;object</title>
<path fill="none" stroke="black" d="M68.41,-1618.52C81.38,-1585.92 112.17,-1517.64 157,-1475 228.22,-1407.26 289.26,-1354.53 369,-1412 410.05,-1441.58 377.58,-1477.48 405,-1520 424.91,-1550.87 606.91,-1712.01 679.09,-1775.37"/>
<polygon fill="black" stroke="black" points="676.36,-1777.64 686.19,-1781.6 680.98,-1772.37 676.36,-1777.64"/>
</g>
<!-- opentheory -->
<g id="node39" class="node">
<title>opentheory</title>
<polygon fill="none" stroke="black" points="496,-459 405,-459 405,-423 496,-423 496,-459"/>
<text text-anchor="middle" x="450.5" y="-436.7" font-family="sans-serif" font-size="14.00">opentheory</text>
</g>
<!-- covalence&#45;&gt;opentheory -->
<g id="edge9" class="edge">
<title>covalence&#45;&gt;opentheory</title>
<path fill="none" stroke="black" d="M62.67,-1618.59C67.7,-1545.93 90.25,-1272.57 157,-1059 231.78,-819.72 382.24,-554.65 432.63,-469.18"/>
<polygon fill="black" stroke="black" points="435.54,-471.13 437.62,-460.74 429.52,-467.56 435.54,-471.13"/>
</g>
<!-- proto -->
<g id="node44" class="node">
<title>proto</title>
<polygon fill="none" stroke="black" points="350.12,-1457 296.12,-1457 296.12,-1421 350.12,-1421 350.12,-1457"/>
<text text-anchor="middle" x="323.12" y="-1434.7" font-family="sans-serif" font-size="14.00">proto</text>
</g>
<!-- covalence&#45;&gt;proto -->
<g id="edge10" class="edge">
<title>covalence&#45;&gt;proto</title>
<path fill="none" stroke="black" d="M75.19,-1618.64C92.51,-1596.29 124.05,-1558.26 157,-1532 197.46,-1499.76 250.51,-1472.04 285.42,-1455.45"/>
<polygon fill="black" stroke="black" points="286.7,-1458.72 294.27,-1451.31 283.73,-1452.38 286.7,-1458.72"/>
</g>
<!-- repl -->
<g id="node50" class="node">
<title>repl</title>
<polygon fill="none" stroke="black" points="350.12,-1907 296.12,-1907 296.12,-1871 350.12,-1871 350.12,-1907"/>
<text text-anchor="middle" x="323.12" y="-1884.7" font-family="sans-serif" font-size="14.00">repl</text>
</g>
<!-- covalence&#45;&gt;repl -->
<g id="edge11" class="edge">
<title>covalence&#45;&gt;repl</title>
<path fill="none" stroke="black" d="M73.04,-1655.5C89.7,-1681.41 122.33,-1729.22 157,-1764 197.37,-1804.5 251.31,-1842.93 286.38,-1866.22"/>
<polygon fill="black" stroke="black" points="284.2,-1868.98 294.48,-1871.55 288.05,-1863.13 284.2,-1868.98"/>
</g>
<!-- serve -->
<g id="node53" class="node">
<title>serve</title>
<polygon fill="none" stroke="black" points="226.12,-1655 172.12,-1655 172.12,-1619 226.12,-1619 226.12,-1655"/>
<text text-anchor="middle" x="199.12" y="-1632.7" font-family="sans-serif" font-size="14.00">serve</text>
</g>
<!-- covalence&#45;&gt;serve -->
<g id="edge12" class="edge">
<title>covalence&#45;&gt;serve</title>
<path fill="none" stroke="black" d="M102.86,-1637C121.2,-1637 142.63,-1637 160.51,-1637"/>
<polygon fill="black" stroke="black" points="160.44,-1640.5 170.44,-1637 160.44,-1633.5 160.44,-1640.5"/>
</g>
<!-- shell -->
<g id="node56" class="node">
<title>shell</title>
<polygon fill="none" stroke="black" points="477.5,-1381 423.5,-1381 423.5,-1345 477.5,-1345 477.5,-1381"/>
<text text-anchor="middle" x="450.5" y="-1358.7" font-family="sans-serif" font-size="14.00">shell</text>
</g>
<!-- covalence&#45;&gt;shell -->
<g id="edge13" class="edge">
<title>covalence&#45;&gt;shell</title>
<path fill="none" stroke="black" d="M63.84,-1618.85C72.46,-1554.99 104.76,-1342.4 157,-1303 234.08,-1244.87 353.8,-1303.07 413.34,-1339.1"/>
<polygon fill="black" stroke="black" points="411.41,-1342.03 421.76,-1344.31 415.09,-1336.08 411.41,-1342.03"/>
</g>
<!-- store -->
<g id="node60" class="node">
<title>store</title>
<polygon fill="none" stroke="black" points="736.38,-2363 682.38,-2363 682.38,-2327 736.38,-2327 736.38,-2363"/>
<text text-anchor="middle" x="709.38" y="-2340.7" font-family="sans-serif" font-size="14.00">store</text>
</g>
<!-- covalence&#45;&gt;store -->
<g id="edge14" class="edge">
<title>covalence&#45;&gt;store</title>
<path fill="none" stroke="black" d="M62.73,-1655.29C68.54,-1737.21 95.63,-2069.96 157,-2151 269.19,-2299.16 352.15,-2289.19 532,-2336 578.65,-2348.14 634.53,-2348.77 670.7,-2347.44"/>
<polygon fill="black" stroke="black" points="670.83,-2350.94 680.66,-2346.99 670.51,-2343.94 670.83,-2350.94"/>
</g>
<!-- wasm -->
<g id="node63" class="node">
<title>wasm</title>
<polygon fill="none" stroke="black" points="1029.12,-2371 974.88,-2371 974.88,-2335 1029.12,-2335 1029.12,-2371"/>
<text text-anchor="middle" x="1002" y="-2348.7" font-family="sans-serif" font-size="14.00">wasm</text>
</g>
<!-- covalence&#45;&gt;wasm -->
<g id="edge15" class="edge">
<title>covalence&#45;&gt;wasm</title>
<path fill="none" stroke="black" d="M62.74,-1655.3C68.42,-1733.58 94.34,-2039.38 157,-2108 216.92,-2173.63 845.46,-2287.02 928.75,-2318 940.53,-2322.38 952.98,-2328.02 964.16,-2333.48"/>
<polygon fill="black" stroke="black" points="962.57,-2336.6 973.07,-2337.95 965.7,-2330.34 962.57,-2336.6"/>
</g>
<!-- acset -->
<g id="node2" class="node">
<title>acset</title>
<polygon fill="none" stroke="black" points="887.38,-1701 833.38,-1701 833.38,-1665 887.38,-1665 887.38,-1701"/>
<text text-anchor="middle" x="860.38" y="-1678.7" font-family="sans-serif" font-size="14.00">acset</text>
</g>
<!-- alethe -->
<g id="node3" class="node">
<title>alethe</title>
<polygon fill="none" stroke="black" points="607.62,-1213 551.12,-1213 551.12,-1177 607.62,-1177 607.62,-1213"/>
<text text-anchor="middle" x="579.38" y="-1190.7" font-family="sans-serif" font-size="14.00">alethe</text>
</g>
<!-- core -->
<g id="node6" class="node">
<title>core</title>
<polygon fill="#ffd6d6" stroke="black" points="1029,-489 975,-489 975,-453 1029,-453 1029,-489"/>
<text text-anchor="middle" x="1002" y="-466.7" font-family="sans-serif" font-size="14.00">core</text>
</g>
<!-- alethe&#45;&gt;core -->
<g id="edge16" class="edge">
<title>alethe&#45;&gt;core</title>
<path fill="none" stroke="black" d="M607.53,-1176.64C613.89,-1172.24 620.6,-1167.51 626.75,-1163 643.1,-1151.02 645.43,-1145.54 662.75,-1135 701.74,-1111.28 724.31,-1124.84 756,-1092 784.77,-1062.18 767.38,-1039.33 792,-1006 839.01,-942.35 891.59,-961.86 928.75,-892 1002.61,-753.16 919.36,-690.57 964.75,-540 968.98,-525.97 976.12,-511.47 982.94,-499.4"/>
<polygon fill="black" stroke="black" points="985.95,-501.19 988.02,-490.79 979.92,-497.63 985.95,-501.19"/>
</g>
<!-- hol&#45;eval -->
<g id="node20" class="node">
<title>hol&#45;eval</title>
<polygon fill="none" stroke="black" points="895.38,-677 825.38,-677 825.38,-641 895.38,-641 895.38,-677"/>
<text text-anchor="middle" x="860.38" y="-654.7" font-family="sans-serif" font-size="14.00">hol&#45;eval</text>
</g>
<!-- alethe&#45;&gt;hol&#45;eval -->
<g id="edge17" class="edge">
<title>alethe&#45;&gt;hol&#45;eval</title>
<path fill="none" stroke="black" d="M588.89,-1176.6C602.95,-1146.75 632.49,-1086.24 662.75,-1038 699.77,-978.98 728.91,-976.19 756,-912 794.69,-820.31 732.22,-770.56 792,-691 797.81,-683.26 805.98,-677.31 814.62,-672.77"/>
<polygon fill="black" stroke="black" points="815.88,-676.05 823.51,-668.69 812.96,-669.69 815.88,-676.05"/>
</g>
<!-- alethe&#45;&gt;init -->
<g id="edge18" class="edge">
<title>alethe&#45;&gt;init</title>
<path fill="none" stroke="black" d="M608.09,-1179.01C614.7,-1174.39 621.38,-1168.96 626.75,-1163 649.11,-1138.17 640.49,-1121.92 662.75,-1097 665.87,-1093.51 669.44,-1090.2 673.18,-1087.12"/>
<polygon fill="black" stroke="black" points="675,-1090.12 680.86,-1081.3 670.78,-1084.54 675,-1090.12"/>
</g>
<!-- sexp -->
<g id="node54" class="node">
<title>sexp</title>
<polygon fill="none" stroke="black" points="1029,-1322 975,-1322 975,-1286 1029,-1286 1029,-1322"/>
<text text-anchor="middle" x="1002" y="-1299.7" font-family="sans-serif" font-size="14.00">sexp</text>
</g>
<!-- alethe&#45;&gt;sexp -->
<g id="edge19" class="edge">
<title>alethe&#45;&gt;sexp</title>
<path fill="none" stroke="black" d="M607.92,-1194.55C642.91,-1194.61 704.88,-1196.85 756,-1210 772.96,-1214.36 775.46,-1220.25 792,-1226 851.26,-1246.59 870.81,-1236.93 928.75,-1261 941.05,-1266.11 953.77,-1273.04 965.03,-1279.85"/>
<polygon fill="black" stroke="black" points="962.89,-1282.64 973.23,-1284.95 966.59,-1276.69 962.89,-1282.64"/>
</g>
<!-- smt -->
<g id="node57" class="node">
<title>smt</title>
<polygon fill="none" stroke="black" points="736.38,-1255 682.38,-1255 682.38,-1219 736.38,-1219 736.38,-1255"/>
<text text-anchor="middle" x="709.38" y="-1232.7" font-family="sans-serif" font-size="14.00">smt</text>
</g>
<!-- alethe&#45;&gt;smt -->
<g id="edge20" class="edge">
<title>alethe&#45;&gt;smt</title>
<path fill="none" stroke="black" d="M607.83,-1204.01C626.43,-1210.11 651.21,-1218.24 671.52,-1224.91"/>
<polygon fill="black" stroke="black" points="670.24,-1228.17 680.83,-1227.96 672.42,-1221.52 670.24,-1228.17"/>
</g>
<!-- types -->
<g id="node62" class="node">
<title>types</title>
<polygon fill="#ffd6d6" stroke="black" points="1510.25,-761 1456.25,-761 1456.25,-725 1510.25,-725 1510.25,-761"/>
<text text-anchor="middle" x="1483.25" y="-738.7" font-family="sans-serif" font-size="14.00">types</text>
</g>
<!-- alethe&#45;&gt;types -->
<g id="edge21" class="edge">
<title>alethe&#45;&gt;types</title>
<path fill="none" stroke="black" d="M608.11,-1186.19C643.3,-1174.61 705.47,-1152.81 756,-1128 772.83,-1119.73 774.31,-1112.23 792,-1106 880.35,-1074.9 907.34,-1079 1001,-1079 1001,-1079 1001,-1079 1239,-1079 1389.85,-1079 1456.7,-854.04 1476.01,-772.26"/>
<polygon fill="black" stroke="black" points="1479.42,-773.07 1478.23,-762.54 1472.6,-771.51 1479.42,-773.07"/>
</g>
<!-- arrow -->
<g id="node4" class="node">
<title>arrow</title>
<polygon fill="none" stroke="black" points="606.38,-1907 552.38,-1907 552.38,-1871 606.38,-1871 606.38,-1907"/>
<text text-anchor="middle" x="579.38" y="-1884.7" font-family="sans-serif" font-size="14.00">arrow</text>
</g>
<!-- client&#45;&gt;hash -->
<g id="edge22" class="edge">
<title>client&#45;&gt;hash</title>
<path fill="none" stroke="black" d="M350.54,-1685.54C434.17,-1694.04 691.41,-1723.81 756,-1774 801.4,-1809.28 832.67,-1870.46 848.16,-1906.38"/>
<polygon fill="black" stroke="black" points="844.78,-1907.39 851.87,-1915.27 851.24,-1904.69 844.78,-1907.39"/>
</g>
<!-- client&#45;&gt;shell -->
<g id="edge23" class="edge">
<title>client&#45;&gt;shell</title>
<path fill="none" stroke="black" d="M329.79,-1664.56C346.46,-1610.49 394.76,-1454.78 405,-1433 411.87,-1418.4 421.25,-1403.17 429.63,-1390.66"/>
<polygon fill="black" stroke="black" points="432.44,-1392.75 435.21,-1382.52 426.66,-1388.79 432.44,-1392.75"/>
</g>
<!-- client&#45;&gt;store -->
<g id="edge24" class="edge">
<title>client&#45;&gt;store</title>
<path fill="none" stroke="black" d="M328.55,-1701.25C338.72,-1741.49 365.9,-1840.29 405,-1916 482.9,-2066.83 529.18,-2088.08 626.75,-2227 648.39,-2257.82 672.94,-2293.38 689.41,-2317.35"/>
<polygon fill="black" stroke="black" points="686.33,-2319.04 694.87,-2325.3 692.1,-2315.08 686.33,-2319.04"/>
</g>
<!-- pure -->
<g id="node45" class="node">
<title>pure</title>
<polygon fill="#ffd6d6" stroke="black" points="1265,-677 1211,-677 1211,-641 1265,-641 1265,-677"/>
<text text-anchor="middle" x="1238" y="-654.7" font-family="sans-serif" font-size="14.00">pure</text>
</g>
<!-- core&#45;&gt;pure -->
<g id="edge25" class="edge">
<title>core&#45;&gt;pure</title>
<path fill="none" stroke="black" d="M1025.86,-489.37C1067.89,-523.13 1157.49,-595.12 1205.34,-633.56"/>
<polygon fill="black" stroke="black" points="1202.88,-636.07 1212.86,-639.61 1207.26,-630.62 1202.88,-636.07"/>
</g>
<!-- pure&#45;eval -->
<g id="node46" class="node">
<title>pure&#45;eval</title>
<polygon fill="#ffd6d6" stroke="black" points="1155,-715 1075.25,-715 1075.25,-679 1155,-679 1155,-715"/>
<text text-anchor="middle" x="1115.12" y="-692.7" font-family="sans-serif" font-size="14.00">pure&#45;eval</text>
</g>
<!-- core&#45;&gt;pure&#45;eval -->
<g id="edge26" class="edge">
<title>core&#45;&gt;pure&#45;eval</title>
<path fill="none" stroke="black" d="M1012.89,-489.35C1020.29,-503.2 1030.58,-522.7 1039.25,-540 1061.51,-584.44 1086.1,-636.64 1100.82,-668.24"/>
<polygon fill="black" stroke="black" points="1097.57,-669.55 1104.96,-677.15 1103.92,-666.6 1097.57,-669.55"/>
</g>
<!-- core&#45;&gt;types -->
<g id="edge27" class="edge">
<title>core&#45;&gt;types</title>
<path fill="none" stroke="black" d="M1029.39,-471.73C1101.28,-475.09 1303.05,-493.91 1420.25,-599 1454,-629.26 1470.08,-681.1 1477.19,-713.63"/>
<polygon fill="black" stroke="black" points="1473.71,-714.07 1479.12,-723.18 1480.57,-712.68 1473.71,-714.07"/>
</g>
<!-- core&#45;test&#45;guest -->
<g id="node7" class="node">
<title>core&#45;test&#45;guest</title>
<polygon fill="none" stroke="black" points="121,-2361 0,-2361 0,-2325 121,-2325 121,-2361"/>
<text text-anchor="middle" x="60.5" y="-2338.7" font-family="sans-serif" font-size="14.00">core&#45;test&#45;guest</text>
</g>
<!-- crypto&#45;sig -->
<g id="node8" class="node">
<title>crypto&#45;sig</title>
<polygon fill="none" stroke="black" points="241.25,-2563 157,-2563 157,-2527 241.25,-2527 241.25,-2563"/>
<text text-anchor="middle" x="199.12" y="-2540.7" font-family="sans-serif" font-size="14.00">crypto&#45;sig</text>
</g>
<!-- decimal&#45;api -->
<g id="node9" class="node">
<title>decimal&#45;api</title>
<polygon fill="none" stroke="black" points="1285,-74 1191,-74 1191,-38 1285,-38 1285,-74"/>
<text text-anchor="middle" x="1238" y="-51.7" font-family="sans-serif" font-size="14.00">decimal&#45;api</text>
</g>
<!-- decimal&#45;api&#45;&gt;types -->
<g id="edge28" class="edge">
<title>decimal&#45;api&#45;&gt;types</title>
<path fill="none" stroke="black" d="M1285.29,-50.04C1326.92,-47.52 1386.56,-51.48 1420.25,-88 1463.17,-134.52 1478.24,-591.45 1481.52,-713.28"/>
<polygon fill="black" stroke="black" points="1478.02,-713.2 1481.78,-723.1 1485.01,-713.01 1478.02,-713.2"/>
</g>
<!-- egglog -->
<g id="node10" class="node">
<title>egglog</title>
<polygon fill="none" stroke="black" points="890.88,-1181 829.88,-1181 829.88,-1145 890.88,-1145 890.88,-1181"/>
<text text-anchor="middle" x="860.38" y="-1158.7" font-family="sans-serif" font-size="14.00">egglog</text>
</g>
<!-- egglog&#45;&gt;sexp -->
<g id="edge29" class="edge">
<title>egglog&#45;&gt;sexp</title>
<path fill="none" stroke="black" d="M891.28,-1173.1C903.78,-1178.32 917.89,-1185.58 928.75,-1195 954.63,-1217.44 975.1,-1251.3 987.55,-1275.31"/>
<polygon fill="black" stroke="black" points="984.41,-1276.86 992.02,-1284.23 990.67,-1273.72 984.41,-1276.86"/>
</g>
<!-- egglog&#45;&gt;types -->
<g id="edge30" class="edge">
<title>egglog&#45;&gt;types</title>
<path fill="none" stroke="black" d="M891.33,-1162.22C938.65,-1161.06 1033.59,-1159 1114.12,-1159 1114.12,-1159 1114.12,-1159 1239,-1159 1320.51,-1159 1362.46,-1188.49 1420.25,-1131 1470.73,-1080.78 1480.11,-854.4 1481.85,-772.6"/>
<polygon fill="black" stroke="black" points="1485.35,-772.77 1482.04,-762.71 1478.35,-772.64 1485.35,-772.77"/>
</g>
<!-- forsp -->
<g id="node11" class="node">
<title>forsp</title>
<polygon fill="none" stroke="black" points="477.5,-1511 423.5,-1511 423.5,-1475 477.5,-1475 477.5,-1511"/>
<text text-anchor="middle" x="450.5" y="-1488.7" font-family="sans-serif" font-size="14.00">forsp</text>
</g>
<!-- forsp&#45;&gt;hash -->
<g id="edge31" class="edge">
<title>forsp&#45;&gt;hash</title>
<path fill="none" stroke="black" d="M477.77,-1511.11C483.86,-1515.52 490.24,-1520.32 496,-1525 512.84,-1538.69 513.89,-1546.03 532,-1558 570.58,-1583.5 595.11,-1567.27 626.75,-1601 657.64,-1633.93 632.25,-1662.71 662.75,-1696 693.84,-1729.93 722.82,-1709.12 756,-1741 805.3,-1788.37 836.23,-1864.45 850.35,-1905.86"/>
<polygon fill="black" stroke="black" points="846.95,-1906.73 853.41,-1915.13 853.6,-1904.54 846.95,-1906.73"/>
</g>
<!-- repl&#45;core -->
<g id="node51" class="node">
<title>repl&#45;core</title>
<polygon fill="none" stroke="black" points="618.5,-1381 540.25,-1381 540.25,-1345 618.5,-1345 618.5,-1381"/>
<text text-anchor="middle" x="579.38" y="-1358.7" font-family="sans-serif" font-size="14.00">repl&#45;core</text>
</g>
<!-- forsp&#45;&gt;repl&#45;core -->
<g id="edge32" class="edge">
<title>forsp&#45;&gt;repl&#45;core</title>
<path fill="none" stroke="black" d="M477.61,-1477.19C484.1,-1472.5 490.71,-1466.99 496,-1461 518.12,-1435.95 509.64,-1419.83 532,-1395 534.09,-1392.68 536.37,-1390.45 538.78,-1388.31"/>
<polygon fill="black" stroke="black" points="540.53,-1391.39 546.1,-1382.38 536.13,-1385.95 540.53,-1391.39"/>
</g>
<!-- forsp&#45;&gt;sexp -->
<g id="edge33" class="edge">
<title>forsp&#45;&gt;sexp</title>
<path fill="none" stroke="black" d="M477.92,-1485.57C493.6,-1481.21 513.9,-1475.66 532,-1471 707.69,-1425.75 770.15,-1463.1 928.75,-1375 948.67,-1363.94 966.93,-1345.88 980.12,-1330.75"/>
<polygon fill="black" stroke="black" points="982.53,-1333.32 986.29,-1323.41 977.17,-1328.81 982.53,-1333.32"/>
</g>
<!-- fuse&#45;&gt;hash -->
<g id="edge34" class="edge">
<title>fuse&#45;&gt;hash</title>
<path fill="none" stroke="black" d="M606.71,-2056.5C642.27,-2054.9 706.84,-2048.64 756,-2025 787.52,-2009.84 816.93,-1982.41 836.26,-1961.81"/>
<polygon fill="black" stroke="black" points="838.71,-1964.31 842.88,-1954.57 833.55,-1959.59 838.71,-1964.31"/>
</g>
<!-- fuse&#45;&gt;object -->
<g id="edge35" class="edge">
<title>fuse&#45;&gt;object</title>
<path fill="none" stroke="black" d="M593.88,-2038.53C603.65,-2024.72 616.84,-2005.17 626.75,-1987 655.98,-1933.41 683,-1867.26 697.43,-1830.03"/>
<polygon fill="black" stroke="black" points="700.64,-1831.45 700.96,-1820.86 694.1,-1828.94 700.64,-1831.45"/>
</g>
<!-- fuse&#45;&gt;store -->
<g id="edge36" class="edge">
<title>fuse&#45;&gt;store</title>
<path fill="none" stroke="black" d="M606.84,-2070.42C614.26,-2075.34 621.68,-2081.57 626.75,-2089 666.13,-2146.7 640.51,-2175.78 662.75,-2242 671.46,-2267.93 684.27,-2296.27 694.1,-2316.65"/>
<polygon fill="black" stroke="black" points="690.87,-2318 698.41,-2325.44 697.15,-2314.92 690.87,-2318"/>
</g>
<!-- git&#45;&gt;hash -->
<g id="edge37" class="edge">
<title>git&#45;&gt;hash</title>
<path fill="none" stroke="black" d="M477.98,-2145.43C533.48,-2136.96 664.44,-2111.69 756,-2052 792.04,-2028.5 823.13,-1989.17 841.55,-1962.66"/>
<polygon fill="black" stroke="black" points="844.41,-1964.69 847.13,-1954.45 838.61,-1960.76 844.41,-1964.69"/>
</g>
<!-- git&#45;&gt;object -->
<g id="edge38" class="edge">
<title>git&#45;&gt;object</title>
<path fill="none" stroke="black" d="M462.97,-2130.88C478.12,-2107.21 505.94,-2064.7 532,-2030 571.56,-1977.32 586.6,-1968.23 626.75,-1916 649.21,-1886.79 673.47,-1852.18 689.65,-1828.61"/>
<polygon fill="black" stroke="black" points="692.46,-1830.71 695.21,-1820.48 686.68,-1826.76 692.46,-1830.71"/>
</g>
<!-- sqlite -->
<g id="node59" class="node">
<title>sqlite</title>
<polygon fill="none" stroke="black" points="887.38,-2363 833.38,-2363 833.38,-2327 887.38,-2327 887.38,-2363"/>
<text text-anchor="middle" x="860.38" y="-2340.7" font-family="sans-serif" font-size="14.00">sqlite</text>
</g>
<!-- git&#45;&gt;sqlite -->
<g id="edge39" class="edge">
<title>git&#45;&gt;sqlite</title>
<path fill="none" stroke="black" d="M477.99,-2161.22C512.37,-2177.11 574.19,-2205.83 626.75,-2231 696.22,-2264.27 776.86,-2304.05 822.63,-2326.74"/>
<polygon fill="black" stroke="black" points="821.07,-2329.87 831.58,-2331.18 824.18,-2323.6 821.07,-2329.87"/>
</g>
<!-- git&#45;&gt;store -->
<g id="edge40" class="edge">
<title>git&#45;&gt;store</title>
<path fill="none" stroke="black" d="M467.42,-2167.42C482.95,-2184.85 507.73,-2211.2 532,-2231 577.45,-2268.07 635.43,-2303.57 672.24,-2324.83"/>
<polygon fill="black" stroke="black" points="670.31,-2327.76 680.72,-2329.69 673.78,-2321.68 670.31,-2327.76"/>
</g>
<!-- grammar -->
<g id="node14" class="node">
<title>grammar</title>
<polygon fill="none" stroke="black" points="1038.88,-883 965.12,-883 965.12,-847 1038.88,-847 1038.88,-883"/>
<text text-anchor="middle" x="1002" y="-860.7" font-family="sans-serif" font-size="14.00">grammar</text>
</g>
<!-- grammar&#45;&gt;types -->
<g id="edge41" class="edge">
<title>grammar&#45;&gt;types</title>
<path fill="none" stroke="black" d="M1039.02,-855.83C1127.55,-833.29 1355.07,-775.37 1444.94,-752.5"/>
<polygon fill="black" stroke="black" points="1445.64,-755.93 1454.47,-750.07 1443.91,-749.15 1445.64,-755.93"/>
</g>
<!-- graph -->
<g id="node15" class="node">
<title>graph</title>
<polygon fill="none" stroke="black" points="736.38,-2509 682.38,-2509 682.38,-2473 736.38,-2473 736.38,-2509"/>
<text text-anchor="middle" x="709.38" y="-2486.7" font-family="sans-serif" font-size="14.00">graph</text>
</g>
<!-- graph&#45;&gt;hash -->
<g id="edge42" class="edge">
<title>graph&#45;&gt;hash</title>
<path fill="none" stroke="black" d="M726.35,-2472.61C736.3,-2460.21 748.58,-2443.07 756,-2426 792.95,-2340.93 839.95,-2057.67 854.72,-1964.78"/>
<polygon fill="black" stroke="black" points="858.17,-1965.38 856.27,-1954.95 851.26,-1964.28 858.17,-1965.38"/>
</g>
<!-- parse -->
<g id="node41" class="node">
<title>parse</title>
<polygon fill="none" stroke="black" points="1142.12,-1647 1088.12,-1647 1088.12,-1611 1142.12,-1611 1142.12,-1647"/>
<text text-anchor="middle" x="1115.12" y="-1624.7" font-family="sans-serif" font-size="14.00">parse</text>
</g>
<!-- graph&#45;&gt;parse -->
<g id="edge43" class="edge">
<title>graph&#45;&gt;parse</title>
<path fill="none" stroke="black" d="M723.94,-2509.19C738.49,-2527.02 763.41,-2553.08 792,-2564 848.78,-2585.69 875.86,-2593.93 928.75,-2564 1011.77,-2517.02 1009.23,-2470.55 1039.25,-2380 1084.94,-2242.17 1107.64,-1780.08 1112.91,-1658.51"/>
<polygon fill="black" stroke="black" points="1116.4,-1658.87 1113.33,-1648.73 1109.4,-1658.57 1116.4,-1658.87"/>
</g>
<!-- rand -->
<g id="node49" class="node">
<title>rand</title>
<polygon fill="none" stroke="black" points="1029,-1953 975,-1953 975,-1917 1029,-1917 1029,-1953"/>
<text text-anchor="middle" x="1002" y="-1930.7" font-family="sans-serif" font-size="14.00">rand</text>
</g>
<!-- hash&#45;&gt;rand -->
<g id="edge44" class="edge">
<title>hash&#45;&gt;rand</title>
<path fill="none" stroke="black" d="M887.64,-1935C908.99,-1935 939.4,-1935 963.35,-1935"/>
<polygon fill="black" stroke="black" points="963.34,-1938.5 973.34,-1935 963.34,-1931.5 963.34,-1938.5"/>
</g>
<!-- haskell -->
<g id="node17" class="node">
<title>haskell</title>
<polygon fill="none" stroke="black" points="481.75,-717 419.25,-717 419.25,-681 481.75,-681 481.75,-717"/>
<text text-anchor="middle" x="450.5" y="-694.7" font-family="sans-serif" font-size="14.00">haskell</text>
</g>
<!-- hol&#45;api -->
<g id="node19" class="node">
<title>hol&#45;api</title>
<polygon fill="none" stroke="black" points="610.62,-544 548.12,-544 548.12,-508 610.62,-508 610.62,-544"/>
<text text-anchor="middle" x="579.38" y="-521.7" font-family="sans-serif" font-size="14.00">hol&#45;api</text>
</g>
<!-- haskell&#45;&gt;hol&#45;api -->
<g id="edge45" class="edge">
<title>haskell&#45;&gt;hol&#45;api</title>
<path fill="none" stroke="black" d="M464.84,-680.81C487.15,-650.39 532.16,-589.02 558.3,-553.37"/>
<polygon fill="black" stroke="black" points="560.85,-555.82 563.94,-545.68 555.2,-551.68 560.85,-555.82"/>
</g>
<!-- haskell&#45;&gt;hol&#45;eval -->
<g id="edge46" class="edge">
<title>haskell&#45;&gt;hol&#45;eval</title>
<path fill="none" stroke="black" d="M481.83,-697.36C536.67,-694.24 655.92,-686.67 756,-675 774.94,-672.79 795.73,-669.7 813.68,-666.83"/>
<polygon fill="black" stroke="black" points="814.2,-670.29 823.51,-665.22 813.08,-663.38 814.2,-670.29"/>
</g>
<!-- haskell&#45;&gt;init -->
<g id="edge47" class="edge">
<title>haskell&#45;&gt;init</title>
<path fill="none" stroke="black" d="M451.8,-717.35C453.54,-765.09 464.57,-894.66 532,-970 562.48,-1004.06 586.55,-988.24 626.75,-1010 643.14,-1018.88 660.39,-1030.18 674.78,-1040.22"/>
<polygon fill="black" stroke="black" points="672.38,-1042.8 682.56,-1045.73 676.42,-1037.09 672.38,-1042.8"/>
</g>
<!-- haskell&#45;&gt;types -->
<g id="edge48" class="edge">
<title>haskell&#45;&gt;types</title>
<path fill="none" stroke="black" d="M455.56,-680.91C470.91,-616.56 531.3,-396.2 662.75,-276 782.32,-166.66 838.97,-140 1001,-140 1001,-140 1001,-140 1239,-140 1331,-140 1368.71,-163.79 1420.25,-240 1473.02,-318.03 1480.89,-617.4 1482.05,-713.28"/>
<polygon fill="black" stroke="black" points="1478.55,-713.2 1482.15,-723.16 1485.55,-713.13 1478.55,-713.2"/>
</g>
<!-- hol&#45;&gt;core -->
<g id="edge49" class="edge">
<title>hol&#45;&gt;core</title>
<path fill="none" stroke="black" d="M887.64,-433.65C909.19,-440.75 939.95,-450.89 964,-458.81"/>
<polygon fill="black" stroke="black" points="962.82,-462.11 973.42,-461.91 965.02,-455.46 962.82,-462.11"/>
</g>
<!-- hol&#45;api&#45;&gt;core -->
<g id="edge50" class="edge">
<title>hol&#45;api&#45;&gt;core</title>
<path fill="none" stroke="black" d="M599.2,-507.69C615.19,-492.77 639.24,-471.83 662.75,-457 716.16,-423.31 730.3,-411.42 792,-398 851.39,-385.09 872.66,-374.6 928.75,-398 950.97,-407.27 969.84,-427.06 982.72,-443.7"/>
<polygon fill="black" stroke="black" points="979.59,-445.35 988.35,-451.32 985.22,-441.2 979.59,-445.35"/>
</g>
<!-- hol&#45;api&#45;&gt;hol&#45;eval -->
<g id="edge51" class="edge">
<title>hol&#45;api&#45;&gt;hol&#45;eval</title>
<path fill="none" stroke="black" d="M611.03,-540.61C660.47,-564.18 758.02,-610.68 815.04,-637.87"/>
<polygon fill="black" stroke="black" points="813.29,-640.91 823.83,-642.05 816.31,-634.59 813.29,-640.91"/>
</g>
<!-- inductive -->
<g id="node21" class="node">
<title>inductive</title>
<polygon fill="none" stroke="black" points="898.75,-585 822,-585 822,-549 898.75,-549 898.75,-585"/>
<text text-anchor="middle" x="860.38" y="-562.7" font-family="sans-serif" font-size="14.00">inductive</text>
</g>
<!-- hol&#45;api&#45;&gt;inductive -->
<g id="edge52" class="edge">
<title>hol&#45;api&#45;&gt;inductive</title>
<path fill="none" stroke="black" d="M611.03,-530.5C659.1,-537.57 752.66,-551.32 810.22,-559.78"/>
<polygon fill="black" stroke="black" points="809.67,-563.23 820.08,-561.23 810.69,-556.31 809.67,-563.23"/>
</g>
<!-- hol&#45;api&#45;&gt;init -->
<g id="edge53" class="edge">
<title>hol&#45;api&#45;&gt;init</title>
<path fill="none" stroke="black" d="M584.71,-544.24C603.51,-623.42 678.14,-937.67 701.41,-1035.66"/>
<polygon fill="black" stroke="black" points="697.98,-1036.37 703.69,-1045.29 704.79,-1034.75 697.98,-1036.37"/>
</g>
<!-- logic&#45;api -->
<g id="node33" class="node">
<title>logic&#45;api</title>
<polygon fill="none" stroke="black" points="1039.25,-585 964.75,-585 964.75,-549 1039.25,-549 1039.25,-585"/>
<text text-anchor="middle" x="1002" y="-562.7" font-family="sans-serif" font-size="14.00">logic&#45;api</text>
</g>
<!-- hol&#45;api&#45;&gt;logic&#45;api -->
<g id="edge54" class="edge">
<title>hol&#45;api&#45;&gt;logic&#45;api</title>
<path fill="none" stroke="black" d="M611.05,-524.01C672.2,-520.74 813.34,-516.74 928.75,-540 937.06,-541.67 945.67,-544.17 953.93,-546.98"/>
<polygon fill="black" stroke="black" points="952.52,-550.19 963.11,-550.3 954.9,-543.61 952.52,-550.19"/>
</g>
<!-- hol&#45;api&#45;&gt;pure -->
<g id="edge55" class="edge">
<title>hol&#45;api&#45;&gt;pure</title>
<path fill="none" stroke="black" d="M587.29,-507.7C598.63,-480.4 623.85,-429.5 662.75,-404 762.02,-338.92 814.11,-349.2 928.75,-380 1044.79,-411.18 1072.99,-440.18 1155,-528 1184.23,-559.3 1208.88,-602.49 1223.31,-630.58"/>
<polygon fill="black" stroke="black" points="1220.02,-631.84 1227.64,-639.2 1226.28,-628.69 1220.02,-631.84"/>
</g>
<!-- hol&#45;api&#45;&gt;types -->
<g id="edge56" class="edge">
<title>hol&#45;api&#45;&gt;types</title>
<path fill="none" stroke="black" d="M584.7,-507.66C593.62,-473.56 617.16,-400 662.75,-357 781.24,-245.25 838.13,-216 1001,-216 1001,-216 1001,-216 1239,-216 1459.72,-216 1480.82,-601.81 1482.31,-713.22"/>
<polygon fill="black" stroke="black" points="1478.8,-713.07 1482.39,-723.04 1485.8,-713.01 1478.8,-713.07"/>
</g>
<!-- hol&#45;eval&#45;&gt;core -->
<g id="edge57" class="edge">
<title>hol&#45;eval&#45;&gt;core</title>
<path fill="none" stroke="black" d="M895.66,-648.44C907.35,-643.46 919.74,-636.48 928.75,-627 957.57,-596.66 947,-577.9 964.75,-540 971.16,-526.31 978.88,-511.43 985.55,-499"/>
<polygon fill="black" stroke="black" points="988.44,-501.01 990.12,-490.55 982.28,-497.68 988.44,-501.01"/>
</g>
<!-- hol&#45;eval&#45;&gt;pure -->
<g id="edge58" class="edge">
<title>hol&#45;eval&#45;&gt;pure</title>
<path fill="none" stroke="black" d="M895.7,-659C966.04,-659 1126.05,-659 1199.22,-659"/>
<polygon fill="black" stroke="black" points="1199.09,-662.5 1209.09,-659 1199.09,-655.5 1199.09,-662.5"/>
</g>
<!-- hol&#45;eval&#45;&gt;pure&#45;eval -->
<g id="edge59" class="edge">
<title>hol&#45;eval&#45;&gt;pure&#45;eval</title>
<path fill="none" stroke="black" d="M895.73,-664.16C939.05,-670.68 1013.9,-681.93 1063.71,-689.42"/>
<polygon fill="black" stroke="black" points="1062.96,-692.85 1073.37,-690.87 1064,-685.92 1062.96,-692.85"/>
</g>
<!-- hol&#45;eval&#45;&gt;sexp -->
<g id="edge60" class="edge">
<title>hol&#45;eval&#45;&gt;sexp</title>
<path fill="none" stroke="black" d="M869.75,-677.4C883.99,-709.39 912.89,-777.62 928.75,-838 971.21,-999.64 991.9,-1199.8 998.53,-1274.27"/>
<polygon fill="black" stroke="black" points="995.03,-1274.35 999.38,-1284.01 1002,-1273.74 995.03,-1274.35"/>
</g>
<!-- hol&#45;eval&#45;&gt;types -->
<g id="edge61" class="edge">
<title>hol&#45;eval&#45;&gt;types</title>
<path fill="none" stroke="black" d="M895.77,-648.68C944.06,-635.11 1034.96,-613 1114.12,-613 1114.12,-613 1114.12,-613 1239,-613 1320,-613 1352.63,-587.41 1420.25,-632 1448.98,-650.95 1465.72,-687.99 1474.41,-714.06"/>
<polygon fill="black" stroke="black" points="1470.99,-714.86 1477.3,-723.37 1477.68,-712.78 1470.99,-714.86"/>
</g>
<!-- inductive&#45;&gt;logic&#45;api -->
<g id="edge62" class="edge">
<title>inductive&#45;&gt;logic&#45;api</title>
<path fill="none" stroke="black" d="M899.16,-567C915.85,-567 935.67,-567 953.36,-567"/>
<polygon fill="black" stroke="black" points="953.12,-570.5 963.12,-567 953.12,-563.5 953.12,-570.5"/>
</g>
<!-- init&#45;&gt;core -->
<g id="edge63" class="edge">
<title>init&#45;&gt;core</title>
<path fill="none" stroke="black" d="M724.3,-1046.71C734.78,-1031.94 748.58,-1010.21 756,-989 775.99,-931.87 751.49,-763.97 792,-719 833.85,-672.55 884.43,-730.1 928.75,-686 976.12,-638.86 941.04,-602.48 964.75,-540 969.99,-526.2 977.34,-511.64 984.06,-499.47"/>
<polygon fill="black" stroke="black" points="987.09,-501.21 988.98,-490.78 981,-497.75 987.09,-501.21"/>
</g>
<!-- init&#45;&gt;grammar -->
<g id="edge64" class="edge">
<title>init&#45;&gt;grammar</title>
<path fill="none" stroke="black" d="M736.83,-1050.46C743.8,-1045.64 750.81,-1039.75 756,-1033 784.29,-996.22 758.42,-967.02 792,-935 838.11,-891.03 868.5,-912.71 928.75,-892 936.94,-889.18 945.6,-886.07 953.97,-882.98"/>
<polygon fill="black" stroke="black" points="955.18,-886.27 963.33,-879.5 952.74,-879.71 955.18,-886.27"/>
</g>
<!-- init&#45;&gt;hash -->
<g id="edge65" class="edge">
<title>init&#45;&gt;hash</title>
<path fill="none" stroke="black" d="M717.7,-1083.41C728.16,-1110.61 747.11,-1163.34 756,-1210 797.72,-1428.86 751.8,-1490.86 792,-1710 805.21,-1782.01 833.03,-1863.68 848.47,-1906.05"/>
<polygon fill="black" stroke="black" points="845.12,-1907.08 851.86,-1915.25 851.69,-1904.66 845.12,-1907.08"/>
</g>
<!-- init&#45;&gt;hol -->
<g id="edge66" class="edge">
<title>init&#45;&gt;hol</title>
<path fill="none" stroke="black" d="M713.21,-1046.83C720.38,-1000.83 739.83,-876.03 756,-772 772.03,-668.89 757.01,-638.3 792,-540 803.36,-508.1 823.75,-475.09 839.13,-452.66"/>
<polygon fill="black" stroke="black" points="841.85,-454.88 844.72,-444.68 836.12,-450.87 841.85,-454.88"/>
</g>
<!-- init&#45;&gt;hol&#45;eval -->
<g id="edge67" class="edge">
<title>init&#45;&gt;hol&#45;eval</title>
<path fill="none" stroke="black" d="M736.52,-1052.19C744.01,-1047.23 751.39,-1040.84 756,-1033 833.53,-901.28 703.68,-815.74 792,-691 797.65,-683.02 805.82,-676.97 814.54,-672.4"/>
<polygon fill="black" stroke="black" points="815.87,-675.64 823.53,-668.31 812.98,-669.26 815.87,-675.64"/>
</g>
<!-- init&#45;&gt;inductive -->
<g id="edge68" class="edge">
<title>init&#45;&gt;inductive</title>
<path fill="none" stroke="black" d="M713.16,-1046.62C725.05,-968.89 771.79,-669.45 792,-632 800.01,-617.15 812.6,-603.66 824.74,-592.86"/>
<polygon fill="black" stroke="black" points="826.91,-595.61 832.28,-586.47 822.39,-590.27 826.91,-595.61"/>
</g>
<!-- k -->
<g id="node25" class="node">
<title>k</title>
<polygon fill="none" stroke="black" points="887.38,-1051 833.38,-1051 833.38,-1015 887.38,-1015 887.38,-1051"/>
<text text-anchor="middle" x="860.38" y="-1028.7" font-family="sans-serif" font-size="14.00">k</text>
</g>
<!-- init&#45;&gt;k -->
<g id="edge69" class="edge">
<title>init&#45;&gt;k</title>
<path fill="none" stroke="black" d="M736.67,-1059.35C760.32,-1054.27 795.33,-1046.75 821.91,-1041.05"/>
<polygon fill="black" stroke="black" points="822.57,-1044.48 831.61,-1038.96 821.1,-1037.64 822.57,-1044.48"/>
</g>
<!-- init&#45;&gt;logic&#45;api -->
<g id="edge70" class="edge">
<title>init&#45;&gt;logic&#45;api</title>
<path fill="none" stroke="black" d="M736.64,-1051.65C743.95,-1046.73 751.19,-1040.49 756,-1033 803.62,-958.84 748.31,-914.54 792,-838 831.94,-768.03 880.04,-783.18 928.75,-719 958.01,-680.44 979.66,-628.14 991.29,-596.02"/>
<polygon fill="black" stroke="black" points="994.59,-597.19 994.61,-586.6 987.99,-594.86 994.59,-597.19"/>
</g>
<!-- metamath -->
<g id="node35" class="node">
<title>metamath</title>
<polygon fill="none" stroke="black" points="900.62,-1501 820.12,-1501 820.12,-1465 900.62,-1465 900.62,-1501"/>
<text text-anchor="middle" x="860.38" y="-1478.7" font-family="sans-serif" font-size="14.00">metamath</text>
</g>
<!-- init&#45;&gt;metamath -->
<g id="edge71" class="edge">
<title>init&#45;&gt;metamath</title>
<path fill="none" stroke="black" d="M716.87,-1083.23C740.26,-1148.83 820.25,-1373.23 848.99,-1453.86"/>
<polygon fill="black" stroke="black" points="845.68,-1455 852.33,-1463.25 852.27,-1452.65 845.68,-1455"/>
</g>
<!-- init&#45;&gt;sexp -->
<g id="edge72" class="edge">
<title>init&#45;&gt;sexp</title>
<path fill="none" stroke="black" d="M717.47,-1083.15C729.01,-1110.35 754.4,-1161.51 792,-1190 842.78,-1228.48 874.13,-1200.21 928.75,-1233 948.16,-1244.65 966.32,-1262.54 979.58,-1277.45"/>
<polygon fill="black" stroke="black" points="976.62,-1279.37 985.8,-1284.66 981.92,-1274.8 976.62,-1279.37"/>
</g>
<!-- spectec -->
<g id="node58" class="node">
<title>spectec</title>
<polygon fill="none" stroke="black" points="895,-883 825.75,-883 825.75,-847 895,-847 895,-883"/>
<text text-anchor="middle" x="860.38" y="-860.7" font-family="sans-serif" font-size="14.00">spectec</text>
</g>
<!-- init&#45;&gt;spectec -->
<g id="edge73" class="edge">
<title>init&#45;&gt;spectec</title>
<path fill="none" stroke="black" d="M736.76,-1051.09C743.9,-1046.22 751.02,-1040.14 756,-1033 791.77,-981.71 752.05,-945.1 792,-897 798.18,-889.55 806.5,-883.73 815.18,-879.21"/>
<polygon fill="black" stroke="black" points="816.43,-882.49 824.05,-875.12 813.5,-876.13 816.43,-882.49"/>
</g>
<!-- init&#45;&gt;types -->
<g id="edge74" class="edge">
<title>init&#45;&gt;types</title>
<path fill="none" stroke="black" d="M731.19,-1046.69C746.94,-1033.69 769.6,-1016.71 792,-1006 878.86,-964.46 904.72,-949 1001,-949 1001,-949 1001,-949 1239,-949 1347.88,-949 1433.09,-827.32 1466.69,-770.99"/>
<polygon fill="black" stroke="black" points="1469.58,-772.99 1471.6,-762.59 1463.53,-769.46 1469.58,-772.99"/>
</g>
<!-- json -->
<g id="node23" class="node">
<title>json</title>
<polygon fill="none" stroke="black" points="887.38,-2417 833.38,-2417 833.38,-2381 887.38,-2381 887.38,-2417"/>
<text text-anchor="middle" x="860.38" y="-2394.7" font-family="sans-serif" font-size="14.00">json</text>
</g>
<!-- json&#45;api -->
<g id="node24" class="node">
<title>json&#45;api</title>
<polygon fill="none" stroke="black" points="744.38,-86 674.38,-86 674.38,-50 744.38,-50 744.38,-86"/>
<text text-anchor="middle" x="709.38" y="-63.7" font-family="sans-serif" font-size="14.00">json&#45;api</text>
</g>
<!-- json&#45;api&#45;&gt;decimal&#45;api -->
<g id="edge75" class="edge">
<title>json&#45;api&#45;&gt;decimal&#45;api</title>
<path fill="none" stroke="black" d="M744.52,-67.22C832.82,-65.21 1069.43,-59.82 1179.37,-57.31"/>
<polygon fill="black" stroke="black" points="1179.44,-60.81 1189.36,-57.09 1179.28,-53.81 1179.44,-60.81"/>
</g>
<!-- json&#45;api&#45;&gt;inductive -->
<g id="edge76" class="edge">
<title>json&#45;api&#45;&gt;inductive</title>
<path fill="none" stroke="black" d="M712.15,-86.19C718.07,-142.34 739.79,-317.27 792,-452 804.31,-483.76 824.74,-517.02 839.88,-539.56"/>
<polygon fill="black" stroke="black" points="836.83,-541.29 845.36,-547.57 842.61,-537.34 836.83,-541.29"/>
</g>
<!-- parsing&#45;api -->
<g id="node42" class="node">
<title>parsing&#45;api</title>
<polygon fill="none" stroke="black" points="906.25,-36 814.5,-36 814.5,0 906.25,0 906.25,-36"/>
<text text-anchor="middle" x="860.38" y="-13.7" font-family="sans-serif" font-size="14.00">parsing&#45;api</text>
</g>
<!-- json&#45;api&#45;&gt;parsing&#45;api -->
<g id="edge77" class="edge">
<title>json&#45;api&#45;&gt;parsing&#45;api</title>
<path fill="none" stroke="black" d="M744.56,-56.53C761.96,-50.69 783.55,-43.44 803.31,-36.82"/>
<polygon fill="black" stroke="black" points="804.25,-40.19 812.62,-33.69 802.02,-33.55 804.25,-40.19"/>
</g>
<!-- json&#45;api&#45;&gt;types -->
<g id="edge78" class="edge">
<title>json&#45;api&#45;&gt;types</title>
<path fill="none" stroke="black" d="M744.67,-74.64C798.88,-84.53 907.78,-102 1001,-102 1001,-102 1001,-102 1239,-102 1320.26,-102 1363.7,-67.64 1420.25,-126 1461.58,-168.66 1477.73,-596.3 1481.4,-713.46"/>
<polygon fill="black" stroke="black" points="1477.89,-713.3 1481.69,-723.19 1484.89,-713.08 1477.89,-713.3"/>
</g>
<!-- k&#45;&gt;grammar -->
<g id="edge79" class="edge">
<title>k&#45;&gt;grammar</title>
<path fill="none" stroke="black" d="M887.71,-1024.98C901.23,-1019.82 917.24,-1012.01 928.75,-1001 960.28,-970.86 980.97,-923.89 991.83,-893.79"/>
<polygon fill="black" stroke="black" points="995.05,-895.18 995.01,-884.59 988.43,-892.89 995.05,-895.18"/>
</g>
<!-- k&#45;&gt;parse -->
<g id="edge80" class="edge">
<title>k&#45;&gt;parse</title>
<path fill="none" stroke="black" d="M879.21,-1051.46C915.35,-1089.99 997.38,-1183.17 1039.25,-1277 1089.38,-1389.33 1106.69,-1537.07 1112.01,-1599.32"/>
<polygon fill="black" stroke="black" points="1108.5,-1599.4 1112.8,-1609.09 1115.48,-1598.84 1108.5,-1599.4"/>
</g>
<!-- k&#45;&gt;sexp -->
<g id="edge81" class="edge">
<title>k&#45;&gt;sexp</title>
<path fill="none" stroke="black" d="M874.8,-1051.38C889.19,-1071.54 912.17,-1105.12 928.75,-1136 954.05,-1183.12 977.34,-1240.97 990.31,-1275.03"/>
<polygon fill="black" stroke="black" points="986.96,-1276.08 993.76,-1284.2 993.51,-1273.61 986.96,-1276.08"/>
</g>
<!-- kernel -->
<g id="node26" class="node">
<title>kernel</title>
<polygon fill="none" stroke="black" points="608,-1549 550.75,-1549 550.75,-1513 608,-1513 608,-1549"/>
<text text-anchor="middle" x="579.38" y="-1526.7" font-family="sans-serif" font-size="14.00">kernel</text>
</g>
<!-- kernel&#45;&gt;hash -->
<g id="edge82" class="edge">
<title>kernel&#45;&gt;hash</title>
<path fill="none" stroke="black" d="M608.22,-1546.14C614.98,-1550.84 621.71,-1556.51 626.75,-1563 654.98,-1599.3 631.5,-1626.26 662.75,-1660 693.76,-1693.48 723.94,-1670.52 756,-1703 813.54,-1761.29 842.01,-1857.14 853.29,-1905.35"/>
<polygon fill="black" stroke="black" points="849.87,-1906.06 855.47,-1915.05 856.7,-1904.53 849.87,-1906.06"/>
</g>
<!-- kernel&#45;&gt;init -->
<g id="edge83" class="edge">
<title>kernel&#45;&gt;init</title>
<path fill="none" stroke="black" d="M587.25,-1512.51C597.01,-1485.77 615,-1434.61 626.75,-1390 647.53,-1311.11 642.48,-1289.03 662.75,-1210 673.23,-1169.15 688.4,-1122.81 698.33,-1093.74"/>
<polygon fill="black" stroke="black" points="701.54,-1095.16 701.49,-1084.56 694.92,-1092.88 701.54,-1095.16"/>
</g>
<!-- kernel&#45;&gt;object -->
<g id="edge84" class="edge">
<title>kernel&#45;&gt;object</title>
<path fill="none" stroke="black" d="M588.97,-1549.13C610.78,-1595.14 668.39,-1716.66 694.8,-1772.37"/>
<polygon fill="black" stroke="black" points="691.55,-1773.68 699,-1781.22 697.88,-1770.69 691.55,-1773.68"/>
</g>
<!-- kernel&#45;&gt;sexp -->
<g id="edge85" class="edge">
<title>kernel&#45;&gt;sexp</title>
<path fill="none" stroke="black" d="M608.28,-1533.14C681.82,-1538.2 878.71,-1547.79 928.75,-1510 984.41,-1467.96 997.38,-1379.89 1000.28,-1333.71"/>
<polygon fill="black" stroke="black" points="1003.76,-1334.06 1000.76,-1323.9 996.77,-1333.72 1003.76,-1334.06"/>
</g>
<!-- kernel&#45;&gt;store -->
<g id="edge86" class="edge">
<title>kernel&#45;&gt;store</title>
<path fill="none" stroke="black" d="M583.23,-1549.26C590.96,-1599.23 612.72,-1742.42 626.75,-1862 646.52,-2030.49 619.84,-2077.87 662.75,-2242 669.63,-2268.3 682.49,-2296.41 692.81,-2316.61"/>
<polygon fill="black" stroke="black" points="689.64,-2318.1 697.37,-2325.34 695.84,-2314.85 689.64,-2318.1"/>
</g>
<!-- kernel&#45;sat -->
<g id="node27" class="node">
<title>kernel&#45;sat</title>
<polygon fill="none" stroke="black" points="621.12,-900 537.62,-900 537.62,-864 621.12,-864 621.12,-900"/>
<text text-anchor="middle" x="579.38" y="-877.7" font-family="sans-serif" font-size="14.00">kernel&#45;sat</text>
</g>
<!-- kernel&#45;sat&#45;&gt;core -->
<g id="edge87" class="edge">
<title>kernel&#45;sat&#45;&gt;core</title>
<path fill="none" stroke="black" d="M616.41,-863.56C662.17,-839.48 737.42,-797.41 756,-772 793.93,-720.14 747.01,-677.87 792,-632 836.17,-586.97 878.74,-632.44 928.75,-594 937.25,-587.47 967.28,-533.54 985.85,-499.29"/>
<polygon fill="black" stroke="black" points="988.82,-501.16 990.49,-490.7 982.66,-497.84 988.82,-501.16"/>
</g>
<!-- kernel&#45;sat&#45;&gt;hol&#45;eval -->
<g id="edge88" class="edge">
<title>kernel&#45;sat&#45;&gt;hol&#45;eval</title>
<path fill="none" stroke="black" d="M621.31,-884.46C661.08,-884.51 720.53,-877.98 756,-843 805.43,-794.26 748.35,-744.98 792,-691 797.96,-683.63 806.03,-677.85 814.5,-673.37"/>
<polygon fill="black" stroke="black" points="815.97,-676.55 823.56,-669.15 813.02,-670.2 815.97,-676.55"/>
</g>
<!-- kernel&#45;sat&#45;&gt;init -->
<g id="edge89" class="edge">
<title>kernel&#45;sat&#45;&gt;init</title>
<path fill="none" stroke="black" d="M609.5,-900.33C615.63,-904.98 621.75,-910.29 626.75,-916 659.1,-952.91 683.88,-1004.78 697.26,-1036.57"/>
<polygon fill="black" stroke="black" points="693.9,-1037.61 700.94,-1045.53 700.38,-1034.95 693.9,-1037.61"/>
</g>
<!-- sat -->
<g id="node52" class="node">
<title>sat</title>
<polygon fill="none" stroke="black" points="887.38,-1647 833.38,-1647 833.38,-1611 887.38,-1611 887.38,-1647"/>
<text text-anchor="middle" x="860.38" y="-1624.7" font-family="sans-serif" font-size="14.00">sat</text>
</g>
<!-- kernel&#45;sat&#45;&gt;sat -->
<g id="edge90" class="edge">
<title>kernel&#45;sat&#45;&gt;sat</title>
<path fill="none" stroke="black" d="M612.74,-900.16C618.23,-904.65 623.27,-909.94 626.75,-916 704.09,-1050.89 626.67,-1112.75 662.75,-1264 700.07,-1420.44 679.18,-1487.37 792,-1602 800.29,-1610.42 811.54,-1616.29 822.48,-1620.36"/>
<polygon fill="black" stroke="black" points="821.15,-1623.61 831.74,-1623.38 823.32,-1616.95 821.15,-1623.61"/>
</g>
<!-- kernel&#45;smt -->
<g id="node28" class="node">
<title>kernel&#45;smt</title>
<polygon fill="none" stroke="black" points="494.5,-324 406.5,-324 406.5,-288 494.5,-288 494.5,-324"/>
<text text-anchor="middle" x="450.5" y="-301.7" font-family="sans-serif" font-size="14.00">kernel&#45;smt</text>
</g>
<!-- kernel&#45;smt&#45;&gt;core -->
<g id="edge91" class="edge">
<title>kernel&#45;smt&#45;&gt;core</title>
<path fill="none" stroke="black" d="M494.84,-297.24C583.96,-281.7 790.95,-258.61 928.75,-346 963.13,-367.81 982.97,-412.27 992.88,-441.85"/>
<polygon fill="black" stroke="black" points="989.52,-442.83 995.86,-451.32 996.2,-440.73 989.52,-442.83"/>
</g>
<!-- kernel&#45;smt&#45;&gt;hol&#45;api -->
<g id="edge92" class="edge">
<title>kernel&#45;smt&#45;&gt;hol&#45;api</title>
<path fill="none" stroke="black" d="M462.1,-324.38C484.26,-362.8 535.6,-451.83 562.02,-497.64"/>
<polygon fill="black" stroke="black" points="558.93,-499.29 566.96,-506.21 565,-495.8 558.93,-499.29"/>
</g>
<!-- kv -->
<g id="node29" class="node">
<title>kv</title>
<polygon fill="none" stroke="black" points="226.12,-2509 172.12,-2509 172.12,-2473 226.12,-2473 226.12,-2509"/>
<text text-anchor="middle" x="199.12" y="-2486.7" font-family="sans-serif" font-size="14.00">kv</text>
</g>
<!-- lean -->
<g id="node30" class="node">
<title>lean</title>
<polygon fill="none" stroke="black" points="87.5,-2415 33.5,-2415 33.5,-2379 87.5,-2379 87.5,-2415"/>
<text text-anchor="middle" x="60.5" y="-2392.7" font-family="sans-serif" font-size="14.00">lean</text>
</g>
<!-- lisp -->
<g id="node31" class="node">
<title>lisp</title>
<polygon fill="none" stroke="black" points="477.5,-1007 423.5,-1007 423.5,-971 477.5,-971 477.5,-1007"/>
<text text-anchor="middle" x="450.5" y="-984.7" font-family="sans-serif" font-size="14.00">lisp</text>
</g>
<!-- lisp&#45;&gt;core -->
<g id="edge93" class="edge">
<title>lisp&#45;&gt;core</title>
<path fill="none" stroke="black" d="M453.6,-970.69C459.38,-926.96 478.76,-814.44 532,-739 615.9,-620.1 663.34,-607.98 792,-540 848.63,-510.08 920.71,-489.76 963.73,-479.29"/>
<polygon fill="black" stroke="black" points="964.4,-482.73 973.32,-477.01 962.78,-475.92 964.4,-482.73"/>
</g>
<!-- lisp&#45;&gt;hol&#45;api -->
<g id="edge94" class="edge">
<title>lisp&#45;&gt;hol&#45;api</title>
<path fill="none" stroke="black" d="M454.28,-970.72C462.67,-917.33 489.8,-757.33 532,-630 540.7,-603.75 553.73,-575.14 563.77,-554.59"/>
<polygon fill="black" stroke="black" points="566.87,-556.21 568.18,-545.7 560.6,-553.1 566.87,-556.21"/>
</g>
<!-- lisp&#45;&gt;hol&#45;eval -->
<g id="edge95" class="edge">
<title>lisp&#45;&gt;hol&#45;eval</title>
<path fill="none" stroke="black" d="M457.9,-970.73C468.79,-942.15 493.56,-886.88 532,-855 613.72,-787.23 679.97,-846.1 756,-772 786.85,-741.93 760.76,-711.67 792,-682 798.29,-676.02 806.2,-671.59 814.37,-668.31"/>
<polygon fill="black" stroke="black" points="815.38,-671.67 823.71,-665.12 813.11,-665.04 815.38,-671.67"/>
</g>
<!-- lisp&#45;&gt;init -->
<g id="edge96" class="edge">
<title>lisp&#45;&gt;init</title>
<path fill="none" stroke="black" d="M477.54,-996.71C523.29,-1010.24 618.23,-1038.33 670.98,-1053.94"/>
<polygon fill="black" stroke="black" points="669.84,-1057.25 680.43,-1056.73 671.83,-1050.54 669.84,-1057.25"/>
</g>
<!-- lisp&#45;&gt;repl&#45;core -->
<g id="edge97" class="edge">
<title>lisp&#45;&gt;repl&#45;core</title>
<path fill="none" stroke="black" d="M477.89,-1002.6C484.87,-1007.47 491.66,-1013.62 496,-1021 566.3,-1140.57 460.54,-1212.12 532,-1331 533.27,-1333.11 534.74,-1335.12 536.35,-1337.02"/>
<polygon fill="black" stroke="black" points="533.53,-1339.16 543.14,-1343.62 538.41,-1334.14 533.53,-1339.16"/>
</g>
<!-- lisp&#45;&gt;sexp -->
<g id="edge98" class="edge">
<title>lisp&#45;&gt;sexp</title>
<path fill="none" stroke="black" d="M456.81,-1007.34C472.06,-1059.56 515.94,-1206.29 532,-1222 593.25,-1281.92 862.89,-1298.57 963.22,-1302.73"/>
<polygon fill="black" stroke="black" points="962.95,-1306.22 973.08,-1303.12 963.22,-1299.23 962.95,-1306.22"/>
</g>
<!-- sexpr&#45;api -->
<g id="node55" class="node">
<title>sexpr&#45;api</title>
<polygon fill="none" stroke="black" points="748.12,-763 670.62,-763 670.62,-727 748.12,-727 748.12,-763"/>
<text text-anchor="middle" x="709.38" y="-740.7" font-family="sans-serif" font-size="14.00">sexpr&#45;api</text>
</g>
<!-- lisp&#45;&gt;sexpr&#45;api -->
<g id="edge99" class="edge">
<title>lisp&#45;&gt;sexpr&#45;api</title>
<path fill="none" stroke="black" d="M452.65,-970.54C456.3,-928.93 471.31,-827.47 532,-777 567.28,-747.66 620.43,-741.5 659.16,-741.56"/>
<polygon fill="black" stroke="black" points="658.61,-745.05 668.66,-741.71 658.72,-738.05 658.61,-745.05"/>
</g>
<!-- lisp&#45;&gt;types -->
<g id="edge100" class="edge">
<title>lisp&#45;&gt;types</title>
<path fill="none" stroke="black" d="M456.55,-1007.46C472.75,-1066.41 522.86,-1246.83 532,-1256 685.85,-1410.33 783.08,-1399 1001,-1399 1001,-1399 1001,-1399 1239,-1399 1350.98,-1399 1369.98,-1324.06 1420.25,-1224 1460.45,-1143.98 1476.65,-864.83 1480.98,-772.73"/>
<polygon fill="black" stroke="black" points="1484.48,-772.92 1481.43,-762.77 1477.48,-772.6 1484.48,-772.92"/>
</g>
<!-- llm -->
<g id="node32" class="node">
<title>llm</title>
<polygon fill="none" stroke="black" points="226.12,-1577 172.12,-1577 172.12,-1541 226.12,-1541 226.12,-1577"/>
<text text-anchor="middle" x="199.12" y="-1554.7" font-family="sans-serif" font-size="14.00">llm</text>
</g>
<!-- llm&#45;&gt;proto -->
<g id="edge101" class="edge">
<title>llm&#45;&gt;proto</title>
<path fill="none" stroke="black" d="M214.08,-1540.7C228.74,-1522.09 252.99,-1492.94 277.25,-1471 280.18,-1468.35 283.33,-1465.73 286.55,-1463.19"/>
<polygon fill="black" stroke="black" points="288.61,-1466.01 294.5,-1457.21 284.4,-1460.42 288.61,-1466.01"/>
</g>
<!-- lsp&#45;&gt;sexp -->
<g id="edge102" class="edge">
<title>lsp&#45;&gt;sexp</title>
<path fill="none" stroke="black" d="M887.62,-1568.19C901.62,-1563.31 918.11,-1555.37 928.75,-1543 981.53,-1481.66 995.75,-1382.69 999.59,-1333.59"/>
<polygon fill="black" stroke="black" points="1003.07,-1333.96 1000.25,-1323.74 996.08,-1333.48 1003.07,-1333.96"/>
</g>
<!-- lsp&#45;&gt;wasm -->
<g id="edge103" class="edge">
<title>lsp&#45;&gt;wasm</title>
<path fill="none" stroke="black" d="M887.81,-1578.82C902.24,-1582.34 919.08,-1589.09 928.75,-1602 931.51,-1605.69 985.33,-2184.07 998.23,-2323.17"/>
<polygon fill="black" stroke="black" points="994.74,-2323.4 999.15,-2333.03 1001.71,-2322.75 994.74,-2323.4"/>
</g>
<!-- metamath&#45;&gt;parse -->
<g id="edge104" class="edge">
<title>metamath&#45;&gt;parse</title>
<path fill="none" stroke="black" d="M893.39,-1501.49C940.51,-1528.71 1028.31,-1579.43 1077.79,-1608.01"/>
<polygon fill="black" stroke="black" points="1076.02,-1611.03 1086.43,-1613 1079.52,-1604.97 1076.02,-1611.03"/>
</g>
<!-- metamath&#45;&gt;sexp -->
<g id="edge105" class="edge">
<title>metamath&#45;&gt;sexp</title>
<path fill="none" stroke="black" d="M900.91,-1469.59C910.86,-1464.86 920.91,-1458.73 928.75,-1451 962.46,-1417.74 982.89,-1365.54 993.05,-1333.12"/>
<polygon fill="black" stroke="black" points="996.39,-1334.17 995.9,-1323.59 989.68,-1332.17 996.39,-1334.17"/>
</g>
<!-- multiformat -->
<g id="node36" class="node">
<title>multiformat</title>
<polygon fill="none" stroke="black" points="754.5,-1651 664.25,-1651 664.25,-1615 754.5,-1615 754.5,-1651"/>
<text text-anchor="middle" x="709.38" y="-1628.7" font-family="sans-serif" font-size="14.00">multiformat</text>
</g>
<!-- multiformat&#45;&gt;acset -->
<g id="edge106" class="edge">
<title>multiformat&#45;&gt;acset</title>
<path fill="none" stroke="black" d="M754.68,-1647.87C776.25,-1655.1 801.88,-1663.71 822.39,-1670.59"/>
<polygon fill="black" stroke="black" points="821.16,-1673.87 831.76,-1673.73 823.39,-1667.23 821.16,-1673.87"/>
</g>
<!-- multiformat&#45;&gt;hash -->
<g id="edge107" class="edge">
<title>multiformat&#45;&gt;hash</title>
<path fill="none" stroke="black" d="M741.98,-1651.4C747.14,-1655.4 752.07,-1659.96 756,-1665 771.54,-1684.93 826.62,-1840.62 849.4,-1906.12"/>
<polygon fill="black" stroke="black" points="846.05,-1907.16 852.64,-1915.46 852.67,-1904.87 846.05,-1907.16"/>
</g>
<!-- multiformat&#45;&gt;parse -->
<g id="edge108" class="edge">
<title>multiformat&#45;&gt;parse</title>
<path fill="none" stroke="black" d="M750.06,-1651.32C752.14,-1652.79 754.14,-1654.35 756,-1656 777.59,-1675.12 766.57,-1696.39 792,-1710 845.59,-1738.68 869.26,-1722.43 928.75,-1710 983.43,-1698.58 1041.72,-1670.08 1078.03,-1650.14"/>
<polygon fill="black" stroke="black" points="1079.31,-1653.43 1086.34,-1645.5 1075.9,-1647.31 1079.31,-1653.43"/>
</g>
<!-- numerals -->
<g id="node37" class="node">
<title>numerals</title>
<polygon fill="none" stroke="black" points="617.75,-961 541,-961 541,-925 617.75,-925 617.75,-961"/>
<text text-anchor="middle" x="579.38" y="-938.7" font-family="sans-serif" font-size="14.00">numerals</text>
</g>
<!-- numerals&#45;&gt;grammar -->
<g id="edge109" class="edge">
<title>numerals&#45;&gt;grammar</title>
<path fill="none" stroke="black" d="M617.93,-959.22C656.45,-973.08 716.21,-986.53 756,-957 800.37,-924.07 747.63,-870.93 792,-838 839.19,-802.98 909.44,-822.53 955.24,-841.96"/>
<polygon fill="black" stroke="black" points="953.81,-845.16 964.37,-846 956.63,-838.76 953.81,-845.16"/>
</g>
<!-- numerals&#45;&gt;hol&#45;eval -->
<g id="edge110" class="edge">
<title>numerals&#45;&gt;hol&#45;eval</title>
<path fill="none" stroke="black" d="M618.06,-933.25C664.01,-920.61 737.83,-897.6 756,-876 809.92,-811.89 740.66,-757.18 792,-691 797.93,-683.35 806.15,-677.44 814.8,-672.91"/>
<polygon fill="black" stroke="black" points="816.06,-676.18 823.68,-668.83 813.13,-669.82 816.06,-676.18"/>
</g>
<!-- numerals&#45;&gt;init -->
<g id="edge111" class="edge">
<title>numerals&#45;&gt;init</title>
<path fill="none" stroke="black" d="M609.11,-961.29C615.13,-965.55 621.3,-970.23 626.75,-975 648.85,-994.34 671.05,-1019.27 686.71,-1037.98"/>
<polygon fill="black" stroke="black" points="683.81,-1039.96 692.88,-1045.45 689.21,-1035.51 683.81,-1039.96"/>
</g>
<!-- numerals&#45;&gt;types -->
<g id="edge112" class="edge">
<title>numerals&#45;&gt;types</title>
<path fill="none" stroke="black" d="M618.08,-946.51C657.01,-948.03 717.36,-944.22 756,-912 791.32,-882.55 759.1,-847.13 792,-815 862.29,-746.35 902.75,-743 1001,-743 1001,-743 1001,-743 1239,-743 1311.8,-743 1396.86,-743 1444.65,-743"/>
<polygon fill="black" stroke="black" points="1444.46,-746.5 1454.46,-743 1444.46,-739.5 1444.46,-746.5"/>
</g>
<!-- object&#45;&gt;hash -->
<g id="edge113" class="edge">
<title>object&#45;&gt;hash</title>
<path fill="none" stroke="black" d="M737.95,-1819.23C744.04,-1823.56 750.35,-1828.29 756,-1833 784.59,-1856.85 814.59,-1887.12 834.86,-1908.47"/>
<polygon fill="black" stroke="black" points="832.22,-1910.76 841.62,-1915.64 837.31,-1905.96 832.22,-1910.76"/>
</g>
<!-- object&#45;&gt;parse -->
<g id="edge114" class="edge">
<title>object&#45;&gt;parse</title>
<path fill="none" stroke="black" d="M738.05,-1796.75C796.85,-1786.81 937.16,-1758.3 1039.25,-1699 1058.93,-1687.57 1077.63,-1670.09 1091.43,-1655.45"/>
<polygon fill="black" stroke="black" points="1093.76,-1658.09 1097.93,-1648.35 1088.59,-1653.36 1093.76,-1658.09"/>
</g>
<!-- opentheory&#45;&gt;core -->
<g id="edge115" class="edge">
<title>opentheory&#45;&gt;core</title>
<path fill="none" stroke="black" d="M489.68,-422.52C573.71,-384.67 779.06,-307.72 928.75,-380 955.44,-392.89 975.3,-420.97 987.37,-442.55"/>
<polygon fill="black" stroke="black" points="984.18,-444 991.96,-451.19 990.36,-440.72 984.18,-444"/>
</g>
<!-- opentheory&#45;&gt;hol -->
<g id="edge116" class="edge">
<title>opentheory&#45;&gt;hol</title>
<path fill="none" stroke="black" d="M496.32,-439.24C577.25,-436.07 746.36,-429.43 821.73,-426.48"/>
<polygon fill="black" stroke="black" points="821.63,-429.98 831.48,-426.09 821.35,-422.99 821.63,-429.98"/>
</g>
<!-- opentheory&#45;&gt;hol&#45;api -->
<g id="edge117" class="edge">
<title>opentheory&#45;&gt;hol&#45;api</title>
<path fill="none" stroke="black" d="M479.03,-459.44C497.32,-471.7 521.54,-487.93 541.49,-501.29"/>
<polygon fill="black" stroke="black" points="539.39,-504.09 549.64,-506.75 543.28,-498.28 539.39,-504.09"/>
</g>
<!-- opentheory&#45;&gt;hol&#45;eval -->
<g id="edge118" class="edge">
<title>opentheory&#45;&gt;hol&#45;eval</title>
<path fill="none" stroke="black" d="M460.13,-459.09C472.69,-483.63 498.25,-527.36 532,-553 618.23,-618.51 746.47,-644.39 814.01,-653.92"/>
<polygon fill="black" stroke="black" points="813.22,-657.35 823.6,-655.21 814.16,-650.41 813.22,-657.35"/>
</g>
<!-- parquet -->
<g id="node40" class="node">
<title>parquet</title>
<polygon fill="none" stroke="black" points="484,-1907 417,-1907 417,-1871 484,-1871 484,-1907"/>
<text text-anchor="middle" x="450.5" y="-1884.7" font-family="sans-serif" font-size="14.00">parquet</text>
</g>
<!-- parquet&#45;&gt;arrow -->
<g id="edge119" class="edge">
<title>parquet&#45;&gt;arrow</title>
<path fill="none" stroke="black" d="M484.17,-1889C501.52,-1889 522.91,-1889 540.93,-1889"/>
<polygon fill="black" stroke="black" points="540.69,-1892.5 550.69,-1889 540.69,-1885.5 540.69,-1892.5"/>
</g>
<!-- proptest -->
<g id="node43" class="node">
<title>proptest</title>
<polygon fill="none" stroke="black" points="95.88,-2469 25.12,-2469 25.12,-2433 95.88,-2433 95.88,-2469"/>
<text text-anchor="middle" x="60.5" y="-2446.7" font-family="sans-serif" font-size="14.00">proptest</text>
</g>
<!-- pure&#45;trusted -->
<g id="node47" class="node">
<title>pure&#45;trusted</title>
<polygon fill="#ffd6d6" stroke="black" points="1420.25,-677 1321,-677 1321,-641 1420.25,-641 1420.25,-677"/>
<text text-anchor="middle" x="1370.62" y="-654.7" font-family="sans-serif" font-size="14.00">pure&#45;trusted</text>
</g>
<!-- pure&#45;&gt;pure&#45;trusted -->
<g id="edge120" class="edge">
<title>pure&#45;&gt;pure&#45;trusted</title>
<path fill="none" stroke="black" d="M1265.43,-659C1278.15,-659 1293.96,-659 1309.39,-659"/>
<polygon fill="black" stroke="black" points="1309,-662.5 1319,-659 1309,-655.5 1309,-662.5"/>
</g>
<!-- pure&#45;eval&#45;&gt;pure -->
<g id="edge121" class="edge">
<title>pure&#45;eval&#45;&gt;pure</title>
<path fill="none" stroke="black" d="M1155.37,-684.66C1169.62,-680.18 1185.67,-675.14 1199.75,-670.71"/>
<polygon fill="black" stroke="black" points="1200.6,-674.11 1209.09,-667.77 1198.5,-667.43 1200.6,-674.11"/>
</g>
<!-- pure&#45;eval&#45;&gt;types -->
<g id="edge122" class="edge">
<title>pure&#45;eval&#45;&gt;types</title>
<path fill="none" stroke="black" d="M1155.21,-699.64C1213.29,-703.89 1325.7,-713.41 1420.25,-729 1428.24,-730.32 1436.75,-732.03 1444.82,-733.8"/>
<polygon fill="black" stroke="black" points="1443.83,-737.17 1454.36,-735.98 1445.39,-730.34 1443.83,-737.17"/>
</g>
<!-- pure&#45;trusted&#45;&gt;types -->
<g id="edge123" class="edge">
<title>pure&#45;trusted&#45;&gt;types</title>
<path fill="none" stroke="black" d="M1400.8,-677.41C1407.3,-681.73 1414.09,-686.41 1420.25,-691 1431.23,-699.18 1442.84,-708.66 1453,-717.28"/>
<polygon fill="black" stroke="black" points="1450.49,-719.73 1460.36,-723.58 1455.04,-714.42 1450.49,-719.73"/>
</g>
<!-- python -->
<g id="node48" class="node">
<title>python</title>
<polygon fill="none" stroke="black" points="91.38,-2307 29.62,-2307 29.62,-2271 91.38,-2271 91.38,-2307"/>
<text text-anchor="middle" x="60.5" y="-2284.7" font-family="sans-serif" font-size="14.00">python</text>
</g>
<!-- python&#45;&gt;crypto&#45;sig -->
<g id="edge124" class="edge">
<title>python&#45;&gt;crypto&#45;sig</title>
<path fill="none" stroke="black" d="M91.86,-2296.4C102.58,-2300.48 113.76,-2306.68 121,-2316 174.88,-2385.34 111.82,-2437.85 158.58,-2517.27"/>
<polygon fill="black" stroke="black" points="155.36,-2518.73 163.67,-2525.3 161.27,-2514.98 155.36,-2518.73"/>
</g>
<!-- python&#45;&gt;git -->
<g id="edge125" class="edge">
<title>python&#45;&gt;git</title>
<path fill="none" stroke="black" d="M91.69,-2280.92C127.65,-2271.08 189.37,-2253.45 241.25,-2235 302.31,-2213.28 371.57,-2183.65 412.84,-2165.45"/>
<polygon fill="black" stroke="black" points="414.09,-2168.72 421.82,-2161.47 411.26,-2162.32 414.09,-2168.72"/>
</g>
<!-- python&#45;&gt;graph -->
<g id="edge126" class="edge">
<title>python&#45;&gt;graph</title>
<path fill="none" stroke="black" d="M91.6,-2297.4C102.03,-2301.56 113.08,-2307.56 121,-2316 151.89,-2348.93 122.63,-2381.72 157,-2411 308.62,-2540.15 573.05,-2513.3 670.72,-2497.84"/>
<polygon fill="black" stroke="black" points="671.26,-2501.3 680.56,-2496.23 670.13,-2494.39 671.26,-2501.3"/>
</g>
<!-- python&#45;&gt;hash -->
<g id="edge127" class="edge">
<title>python&#45;&gt;hash</title>
<path fill="none" stroke="black" d="M91.86,-2288.12C195.94,-2283.61 543.65,-2256.06 756,-2088 798.76,-2054.16 830.33,-1997.75 846.71,-1963.69"/>
<polygon fill="black" stroke="black" points="849.78,-1965.39 850.85,-1954.85 843.44,-1962.43 849.78,-1965.39"/>
</g>
<!-- python&#45;&gt;kv -->
<g id="edge128" class="edge">
<title>python&#45;&gt;kv</title>
<path fill="none" stroke="black" d="M91.83,-2296.79C102.42,-2300.91 113.51,-2307.03 121,-2316 163.01,-2366.31 121.19,-2404.11 157,-2459 158.81,-2461.77 160.94,-2464.4 163.26,-2466.88"/>
<polygon fill="black" stroke="black" points="160.88,-2469.44 170.61,-2473.65 165.62,-2464.3 160.88,-2469.44"/>
</g>
<!-- python&#45;&gt;llm -->
<g id="edge129" class="edge">
<title>python&#45;&gt;llm</title>
<path fill="none" stroke="black" d="M62.76,-2270.56C69.51,-2174.86 103.07,-1734.37 157,-1610 160.69,-1601.49 166.2,-1593.22 172,-1585.91"/>
<polygon fill="black" stroke="black" points="174.61,-1588.26 178.41,-1578.37 169.27,-1583.73 174.61,-1588.26"/>
</g>
<!-- python&#45;&gt;object -->
<g id="edge130" class="edge">
<title>python&#45;&gt;object</title>
<path fill="none" stroke="black" d="M64.82,-2270.81C78.01,-2204.19 133.14,-1971.62 277.25,-1862 395.81,-1771.82 587.3,-1784.33 669.19,-1794.87"/>
<polygon fill="black" stroke="black" points="668.58,-1798.32 678.96,-1796.2 669.52,-1791.38 668.58,-1798.32"/>
</g>
<!-- python&#45;&gt;repl -->
<g id="edge131" class="edge">
<title>python&#45;&gt;repl</title>
<path fill="none" stroke="black" d="M91.85,-2280.32C132.11,-2267.22 202.56,-2238.53 241.25,-2189 305.74,-2106.46 318.93,-1976.52 321.54,-1918.59"/>
<polygon fill="black" stroke="black" points="325.02,-1918.99 321.89,-1908.87 318.03,-1918.74 325.02,-1918.99"/>
</g>
<!-- python&#45;&gt;sat -->
<g id="edge132" class="edge">
<title>python&#45;&gt;sat</title>
<path fill="none" stroke="black" d="M61.39,-2270.56C61.93,-2210.5 70.63,-2017.28 157,-1893 226.21,-1793.4 473.17,-1653.48 662.75,-1606 717.18,-1592.37 782.16,-1605.48 822.09,-1616.77"/>
<polygon fill="black" stroke="black" points="820.87,-1620.06 831.46,-1619.53 822.85,-1613.34 820.87,-1620.06"/>
</g>
<!-- python&#45;&gt;serve -->
<g id="edge133" class="edge">
<title>python&#45;&gt;serve</title>
<path fill="none" stroke="black" d="M64.17,-2270.6C74.07,-2203.56 110.47,-1966.23 157,-1774 166.1,-1736.41 179.35,-1693.85 188.33,-1666.28"/>
<polygon fill="black" stroke="black" points="191.62,-1667.47 191.42,-1656.88 184.97,-1665.28 191.62,-1667.47"/>
</g>
<!-- python&#45;&gt;sexp -->
<g id="edge134" class="edge">
<title>python&#45;&gt;sexp</title>
<path fill="none" stroke="black" d="M63.29,-2270.67C75.31,-2147.77 144.29,-1447.83 157,-1430 191.34,-1381.84 221.94,-1393.96 277.25,-1373 549.27,-1269.9 638.48,-1329.25 928.75,-1310 940.03,-1309.25 952.29,-1308.29 963.45,-1307.36"/>
<polygon fill="black" stroke="black" points="963.42,-1310.87 973.08,-1306.53 962.82,-1303.9 963.42,-1310.87"/>
</g>
<!-- python&#45;&gt;shell -->
<g id="edge135" class="edge">
<title>python&#45;&gt;shell</title>
<path fill="none" stroke="black" d="M63.09,-2270.72C72.66,-2161.78 123.32,-1600.68 157,-1532 190.25,-1464.21 212.13,-1450.22 277.25,-1412 319.71,-1387.08 375.55,-1374.24 411.97,-1368.07"/>
<polygon fill="black" stroke="black" points="412.26,-1371.57 421.58,-1366.53 411.15,-1364.66 412.26,-1371.57"/>
</g>
<!-- python&#45;&gt;store -->
<g id="edge136" class="edge">
<title>python&#45;&gt;store</title>
<path fill="none" stroke="black" d="M91.63,-2298.23C101.82,-2302.44 112.71,-2308.25 121,-2316 145.69,-2339.09 129.31,-2363.61 157,-2383 217.74,-2425.55 247.96,-2407 322.12,-2407 322.12,-2407 322.12,-2407 451.5,-2407 530.12,-2407 551.33,-2405.17 626.75,-2383 642.05,-2378.5 658.11,-2371.56 671.91,-2364.83"/>
<polygon fill="black" stroke="black" points="673.25,-2368.07 680.61,-2360.45 670.1,-2361.82 673.25,-2368.07"/>
</g>
<!-- python&#45;&gt;wasm -->
<g id="edge137" class="edge">
<title>python&#45;&gt;wasm</title>
<path fill="none" stroke="black" d="M91.8,-2296.1C102.65,-2300.15 113.93,-2306.42 121,-2316 196.04,-2417.65 70.31,-2506.08 157,-2598 208.23,-2652.32 247.45,-2629 322.12,-2629 322.12,-2629 322.12,-2629 710.38,-2629 811.64,-2629 855.71,-2634.14 928.75,-2564 979.79,-2514.99 994.78,-2428.43 999.18,-2382.91"/>
<polygon fill="black" stroke="black" points="1002.66,-2383.25 1000.01,-2372.99 995.68,-2382.66 1002.66,-2383.25"/>
</g>
<!-- wasm&#45;store -->
<g id="node66" class="node">
<title>wasm&#45;store</title>
<polygon fill="none" stroke="black" points="626.75,-2589 532,-2589 532,-2553 626.75,-2553 626.75,-2589"/>
<text text-anchor="middle" x="579.38" y="-2566.7" font-family="sans-serif" font-size="14.00">wasm&#45;store</text>
</g>
<!-- python&#45;&gt;wasm&#45;store -->
<g id="edge138" class="edge">
<title>python&#45;&gt;wasm&#45;store</title>
<path fill="none" stroke="black" d="M91.74,-2296.14C102.57,-2300.21 113.87,-2306.46 121,-2316 189.82,-2408 70.28,-2496.62 157,-2572 209.69,-2617.8 418,-2594.75 520.62,-2580.06"/>
<polygon fill="black" stroke="black" points="520.82,-2583.57 530.21,-2578.67 519.81,-2576.64 520.82,-2583.57"/>
</g>
<!-- repl&#45;&gt;arrow -->
<g id="edge139" class="edge">
<title>repl&#45;&gt;arrow</title>
<path fill="none" stroke="black" d="M350.54,-1900.22C366.08,-1906.21 386.3,-1912.96 405,-1916 444.92,-1922.49 456.06,-1922.38 496,-1916 511.24,-1913.57 527.5,-1908.75 541.5,-1903.85"/>
<polygon fill="black" stroke="black" points="542.58,-1907.18 550.77,-1900.46 540.18,-1900.6 542.58,-1907.18"/>
</g>
<!-- repl&#45;&gt;forsp -->
<g id="edge140" class="edge">
<title>repl&#45;&gt;forsp</title>
<path fill="none" stroke="black" d="M329.92,-1870.69C349.89,-1807.61 415.96,-1598.93 440.35,-1521.9"/>
<polygon fill="black" stroke="black" points="443.63,-1523.14 443.31,-1512.55 436.95,-1521.03 443.63,-1523.14"/>
</g>
<!-- repl&#45;&gt;git -->
<g id="edge141" class="edge">
<title>repl&#45;&gt;git</title>
<path fill="none" stroke="black" d="M331.17,-1907.22C340.19,-1930.67 356.17,-1972.72 369,-2009 385.86,-2056.7 375.01,-2076.25 405,-2117 407.65,-2120.6 410.83,-2123.96 414.26,-2127.05"/>
<polygon fill="black" stroke="black" points="411.93,-2129.67 421.93,-2133.18 416.3,-2124.2 411.93,-2129.67"/>
</g>
<!-- repl&#45;&gt;graph -->
<g id="edge142" class="edge">
<title>repl&#45;&gt;graph</title>
<path fill="none" stroke="black" d="M325.54,-1907.14C330.42,-1963.12 349.39,-2137.26 405,-2269 444.5,-2362.58 447.07,-2403.29 532,-2459 573.98,-2486.53 633.08,-2492.07 671.07,-2492.41"/>
<polygon fill="black" stroke="black" points="670.63,-2495.91 680.62,-2492.37 670.6,-2488.91 670.63,-2495.91"/>
</g>
<!-- repl&#45;&gt;hash -->
<g id="edge143" class="edge">
<title>repl&#45;&gt;hash</title>
<path fill="none" stroke="black" d="M350.48,-1907.2C365.68,-1916.6 385.57,-1927.09 405,-1932 555.4,-1970.03 742.86,-1951.4 821.69,-1940.72"/>
<polygon fill="black" stroke="black" points="822.03,-1944.21 831.45,-1939.36 821.06,-1937.27 822.03,-1944.21"/>
</g>
<!-- repl&#45;&gt;init -->
<g id="edge144" class="edge">
<title>repl&#45;&gt;init</title>
<path fill="none" stroke="black" d="M329.39,-1870.58C338.47,-1838.29 357.24,-1769.23 369,-1710 390.35,-1602.48 339.72,-1554.06 405,-1466 431.64,-1430.06 469.47,-1459.02 496,-1423 563.88,-1330.84 463.42,-1259.63 532,-1168 559.71,-1130.98 588.91,-1151.59 626.75,-1125 645.52,-1111.81 644.25,-1101.57 662.75,-1088 665.68,-1085.85 668.85,-1083.8 672.09,-1081.87"/>
<polygon fill="black" stroke="black" points="673.51,-1085.08 680.6,-1077.2 670.15,-1078.94 673.51,-1085.08"/>
</g>
<!-- repl&#45;&gt;object -->
<g id="edge145" class="edge">
<title>repl&#45;&gt;object</title>
<path fill="none" stroke="black" d="M350.47,-1879.29C366.16,-1873.73 386.55,-1866.91 405,-1862 498.74,-1837.03 611.16,-1816.94 669.29,-1807.27"/>
<polygon fill="black" stroke="black" points="669.71,-1810.74 679.01,-1805.66 668.57,-1803.84 669.71,-1810.74"/>
</g>
<!-- repl&#45;&gt;parquet -->
<g id="edge146" class="edge">
<title>repl&#45;&gt;parquet</title>
<path fill="none" stroke="black" d="M350.41,-1889C366.27,-1889 386.89,-1889 405.21,-1889"/>
<polygon fill="black" stroke="black" points="405.03,-1892.5 415.03,-1889 405.03,-1885.5 405.03,-1892.5"/>
</g>
<!-- repl&#45;&gt;shell -->
<g id="edge147" class="edge">
<title>repl&#45;&gt;shell</title>
<path fill="none" stroke="black" d="M329.49,-1870.6C338.74,-1838.34 357.75,-1769.33 369,-1710 392.13,-1588.03 362.69,-1549.72 405,-1433 410.42,-1418.04 419.45,-1402.96 427.96,-1390.65"/>
<polygon fill="black" stroke="black" points="430.72,-1392.81 433.72,-1382.65 425.04,-1388.72 430.72,-1392.81"/>
</g>
<!-- repl&#45;&gt;wasm -->
<g id="edge148" class="edge">
<title>repl&#45;&gt;wasm</title>
<path fill="none" stroke="black" d="M325.96,-1907.43C331.39,-1955.01 350.52,-2084.63 405,-2176 410.11,-2184.57 653.51,-2422.25 662.75,-2426 717.53,-2448.2 876.14,-2452.95 928.75,-2426 953.12,-2413.52 944.83,-2394.79 964.75,-2376 965.02,-2375.74 965.3,-2375.48 965.58,-2375.23"/>
<polygon fill="black" stroke="black" points="967.57,-2378.12 973.2,-2369.15 963.2,-2372.65 967.57,-2378.12"/>
</g>
<!-- sat&#45;&gt;parse -->
<g id="edge149" class="edge">
<title>sat&#45;&gt;parse</title>
<path fill="none" stroke="black" d="M887.47,-1629C932.4,-1629 1024.54,-1629 1076.44,-1629"/>
<polygon fill="black" stroke="black" points="1076.28,-1632.5 1086.28,-1629 1076.28,-1625.5 1076.28,-1632.5"/>
</g>
<!-- sat&#45;&gt;types -->
<g id="edge150" class="edge">
<title>sat&#45;&gt;types</title>
<path fill="none" stroke="black" d="M887.78,-1618.06C933.2,-1600.26 1029.41,-1567 1114.12,-1567 1114.12,-1567 1114.12,-1567 1239,-1567 1344.71,-1567 1371.49,-1506.79 1420.25,-1413 1479.45,-1299.12 1482.7,-887.09 1482.43,-772.66"/>
<polygon fill="black" stroke="black" points="1485.93,-772.86 1482.4,-762.88 1478.93,-772.89 1485.93,-772.86"/>
</g>
<!-- sat&#45;&gt;wasm -->
<g id="edge151" class="edge">
<title>sat&#45;&gt;wasm</title>
<path fill="none" stroke="black" d="M887.78,-1632.84C902.19,-1636.38 919.03,-1643.13 928.75,-1656 939,-1669.58 986.54,-2192.02 998.34,-2323.3"/>
<polygon fill="black" stroke="black" points="994.85,-2323.6 999.23,-2333.25 1001.83,-2322.98 994.85,-2323.6"/>
</g>
<!-- serve&#45;&gt;core -->
<g id="edge152" class="edge">
<title>serve&#45;&gt;core</title>
<path fill="none" stroke="black" d="M219.31,-1618.97C227.61,-1609.94 236.5,-1598.31 241.25,-1586 291.23,-1456.41 260.45,-1099.88 277.25,-962 314.61,-655.45 167.79,-476.74 405,-279 583.85,-129.91 740.9,-153.43 928.75,-291 977.34,-326.58 993.3,-400.3 998.51,-441.5"/>
<polygon fill="black" stroke="black" points="995,-441.63 999.59,-451.18 1001.96,-440.85 995,-441.63"/>
</g>
<!-- serve&#45;&gt;forsp -->
<g id="edge153" class="edge">
<title>serve&#45;&gt;forsp</title>
<path fill="none" stroke="black" d="M226.35,-1631.21C261.03,-1622.73 323.08,-1604.64 369,-1575 391.98,-1560.17 413.43,-1537.7 428.41,-1520.03"/>
<polygon fill="black" stroke="black" points="430.99,-1522.41 434.66,-1512.47 425.59,-1517.95 430.99,-1522.41"/>
</g>
<!-- serve&#45;&gt;git -->
<g id="edge154" class="edge">
<title>serve&#45;&gt;git</title>
<path fill="none" stroke="black" d="M200.21,-1655.31C201.23,-1710.85 210.02,-1880.89 277.25,-1999 282.03,-2007.4 397.52,-2110.89 405,-2117 407.87,-2119.35 410.91,-2121.72 413.98,-2124.06"/>
<polygon fill="black" stroke="black" points="411.88,-2126.86 422,-2130.01 416.05,-2121.24 411.88,-2126.86"/>
</g>
<!-- serve&#45;&gt;hash -->
<g id="edge155" class="edge">
<title>serve&#45;&gt;hash</title>
<path fill="none" stroke="black" d="M202.81,-1655.13C211.4,-1710.81 239.86,-1877.88 277.25,-1916 425,-2066.65 718.67,-1984.32 822.2,-1948.74"/>
<polygon fill="black" stroke="black" points="823.31,-1952.05 831.59,-1945.45 821,-1945.45 823.31,-1952.05"/>
</g>
<!-- serve&#45;&gt;init -->
<g id="edge156" class="edge">
<title>serve&#45;&gt;init</title>
<path fill="none" stroke="black" d="M219.59,-1618.74C234.53,-1605.4 256.11,-1587.52 277.25,-1575 315.22,-1552.5 339.17,-1569.53 369,-1537 404.91,-1497.83 368.23,-1461.35 405,-1423 434.78,-1391.95 468.98,-1423.48 496,-1390 570.64,-1297.5 456.44,-1216.75 532,-1125 541.11,-1113.94 622.11,-1089.44 671.12,-1075.41"/>
<polygon fill="black" stroke="black" points="671.82,-1078.85 680.48,-1072.75 669.9,-1072.12 671.82,-1078.85"/>
</g>
<!-- serve&#45;&gt;lisp -->
<g id="edge157" class="edge">
<title>serve&#45;&gt;lisp</title>
<path fill="none" stroke="black" d="M217.12,-1618.58C225.13,-1609.28 234.4,-1597.54 241.25,-1586 262.6,-1550.01 246.97,-1527.89 277.25,-1499 308.61,-1469.09 341.2,-1499.25 369,-1466 398.02,-1431.29 435.23,-1116.97 446.27,-1018.42"/>
<polygon fill="black" stroke="black" points="449.72,-1019.08 447.35,-1008.75 442.77,-1018.3 449.72,-1019.08"/>
</g>
<!-- serve&#45;&gt;metamath -->
<g id="edge158" class="edge">
<title>serve&#45;&gt;metamath</title>
<path fill="none" stroke="black" d="M226.45,-1635.93C260.43,-1633.83 320.9,-1627.56 369,-1609 409.2,-1593.49 491.08,-1517.48 532,-1504 625.9,-1473.08 742.97,-1474.43 808.62,-1478.51"/>
<polygon fill="black" stroke="black" points="808.15,-1481.99 818.36,-1479.17 808.62,-1475 808.15,-1481.99"/>
</g>
<!-- serve&#45;&gt;object -->
<g id="edge159" class="edge">
<title>serve&#45;&gt;object</title>
<path fill="none" stroke="black" d="M213.79,-1655.45C227.69,-1672.69 250.9,-1697.59 277.25,-1710 418.84,-1776.69 478.54,-1702.73 626.75,-1753 643.04,-1758.52 659.64,-1767.55 673.59,-1776.29"/>
<polygon fill="black" stroke="black" points="671.67,-1779.22 681.96,-1781.73 675.48,-1773.35 671.67,-1779.22"/>
</g>
<!-- serve&#45;&gt;proto -->
<g id="edge160" class="edge">
<title>serve&#45;&gt;proto</title>
<path fill="none" stroke="black" d="M217.58,-1618.84C225.69,-1609.6 234.92,-1597.84 241.25,-1586 266.5,-1538.77 245.81,-1514.36 277.25,-1471 280.03,-1467.17 283.41,-1463.62 287.06,-1460.39"/>
<polygon fill="black" stroke="black" points="289.01,-1463.31 294.71,-1454.38 284.68,-1457.81 289.01,-1463.31"/>
</g>
<!-- serve&#45;&gt;repl -->
<g id="edge161" class="edge">
<title>serve&#45;&gt;repl</title>
<path fill="none" stroke="black" d="M208.9,-1655.12C229.86,-1698.43 283,-1808.18 308.31,-1860.46"/>
<polygon fill="black" stroke="black" points="305.1,-1861.86 312.61,-1869.34 311.4,-1858.81 305.1,-1861.86"/>
</g>
<!-- serve&#45;&gt;shell -->
<g id="edge162" class="edge">
<title>serve&#45;&gt;shell</title>
<path fill="none" stroke="black" d="M215.25,-1618.61C235.6,-1593.99 270.08,-1552.7 277.25,-1547 313.26,-1518.34 338.97,-1533.87 369,-1499 400.92,-1461.94 375.78,-1434.22 405,-1395 407.67,-1391.41 410.87,-1388.06 414.3,-1384.98"/>
<polygon fill="black" stroke="black" points="416.34,-1387.83 421.98,-1378.85 411.98,-1382.36 416.34,-1387.83"/>
</g>
<!-- serve&#45;&gt;store -->
<g id="edge163" class="edge">
<title>serve&#45;&gt;store</title>
<path fill="none" stroke="black" d="M199.69,-1655.41C199.01,-1716.39 202.94,-1915.82 277.25,-2056 351.69,-2196.44 392.14,-2231.48 532,-2307 575.9,-2330.7 633.44,-2339.62 670.66,-2342.98"/>
<polygon fill="black" stroke="black" points="670.23,-2346.45 680.48,-2343.76 670.79,-2339.47 670.23,-2346.45"/>
</g>
<!-- sexp&#45;&gt;parse -->
<g id="edge164" class="edge">
<title>sexp&#45;&gt;parse</title>
<path fill="none" stroke="black" d="M1009.29,-1322.4C1027.74,-1376.37 1081.81,-1534.5 1104.22,-1600.04"/>
<polygon fill="black" stroke="black" points="1100.86,-1601.04 1107.41,-1609.37 1107.49,-1598.77 1100.86,-1601.04"/>
</g>
<!-- sexp&#45;&gt;types -->
<g id="edge165" class="edge">
<title>sexp&#45;&gt;types</title>
<path fill="none" stroke="black" d="M1029.36,-1304.6C1103.88,-1304.72 1317.31,-1294.01 1420.25,-1173 1471.77,-1112.43 1480.48,-859.92 1481.95,-772.75"/>
<polygon fill="black" stroke="black" points="1485.45,-772.92 1482.1,-762.87 1478.45,-772.82 1485.45,-772.92"/>
</g>
<!-- sexpr&#45;api&#45;&gt;inductive -->
<g id="edge166" class="edge">
<title>sexpr&#45;api&#45;&gt;inductive</title>
<path fill="none" stroke="black" d="M716.33,-726.98C727.07,-696.9 752.35,-636.1 792,-599 797.65,-593.71 804.34,-589.14 811.27,-585.25"/>
<polygon fill="black" stroke="black" points="812.84,-588.38 820.16,-580.72 809.66,-582.15 812.84,-588.38"/>
</g>
<!-- shell&#45;&gt;hol -->
<g id="edge167" class="edge">
<title>shell&#45;&gt;hol</title>
<path fill="none" stroke="black" d="M453.85,-1344.77C464.93,-1259.4 512.24,-901.24 532,-855 606.47,-680.78 767.15,-513.86 831.7,-451.13"/>
<polygon fill="black" stroke="black" points="833.94,-453.83 838.71,-444.36 829.08,-448.79 833.94,-453.83"/>
</g>
<!-- shell&#45;&gt;kernel -->
<g id="edge168" class="edge">
<title>shell&#45;&gt;kernel</title>
<path fill="none" stroke="black" d="M465.32,-1381.3C487.63,-1410.84 531.7,-1469.2 557.74,-1503.68"/>
<polygon fill="black" stroke="black" points="554.84,-1505.65 563.66,-1511.52 560.43,-1501.43 554.84,-1505.65"/>
</g>
<!-- smt&#45;&gt;sat -->
<g id="edge169" class="edge">
<title>smt&#45;&gt;sat</title>
<path fill="none" stroke="black" d="M725.7,-1255.34C736.05,-1268.77 749.05,-1287.92 756,-1307 801.23,-1431.1 711.48,-1497.29 792,-1602 799.45,-1611.69 810.93,-1617.91 822.31,-1621.91"/>
<polygon fill="black" stroke="black" points="821.03,-1625.18 831.61,-1624.66 823.02,-1618.46 821.03,-1625.18"/>
</g>
<!-- smt&#45;&gt;sexp -->
<g id="edge170" class="edge">
<title>smt&#45;&gt;sexp</title>
<path fill="none" stroke="black" d="M736.69,-1245.34C752.61,-1250.24 773.37,-1256.35 792,-1261 851.63,-1275.87 921.75,-1289.53 963.72,-1297.3"/>
<polygon fill="black" stroke="black" points="962.82,-1300.69 973.29,-1299.06 964.08,-1293.81 962.82,-1300.69"/>
</g>
<!-- smt&#45;&gt;types -->
<g id="edge171" class="edge">
<title>smt&#45;&gt;types</title>
<path fill="none" stroke="black" d="M719.27,-1218.65C731.84,-1194.97 757.2,-1154.6 792,-1136 874.26,-1092.03 907.73,-1117 1001,-1117 1001,-1117 1001,-1117 1239,-1117 1320.26,-1117 1361.55,-1149.19 1420.25,-1093 1466.27,-1048.95 1478.39,-848.31 1481.35,-772.3"/>
<polygon fill="black" stroke="black" points="1484.84,-772.85 1481.7,-762.73 1477.84,-772.6 1484.84,-772.85"/>
</g>
<!-- spectec&#45;&gt;grammar -->
<g id="edge172" class="edge">
<title>spectec&#45;&gt;grammar</title>
<path fill="none" stroke="black" d="M895.17,-865C912.77,-865 934.56,-865 953.79,-865"/>
<polygon fill="black" stroke="black" points="953.56,-868.5 963.56,-865 953.56,-861.5 953.56,-868.5"/>
</g>
<!-- store&#45;&gt;hash -->
<g id="edge173" class="edge">
<title>store&#45;&gt;hash</title>
<path fill="none" stroke="black" d="M719.14,-2326.61C728.73,-2306.17 744.3,-2272.08 756,-2242 795.12,-2141.41 833.68,-2019.1 850.54,-1964.17"/>
<polygon fill="black" stroke="black" points="853.87,-1965.24 853.45,-1954.65 847.18,-1963.19 853.87,-1965.24"/>
</g>
<!-- store&#45;&gt;json -->
<g id="edge174" class="edge">
<title>store&#45;&gt;json</title>
<path fill="none" stroke="black" d="M736.67,-2354.53C760.43,-2363.14 795.65,-2375.9 822.27,-2385.55"/>
<polygon fill="black" stroke="black" points="821.08,-2388.84 831.67,-2388.96 823.46,-2382.26 821.08,-2388.84"/>
</g>
<!-- store&#45;&gt;sqlite -->
<g id="edge175" class="edge">
<title>store&#45;&gt;sqlite</title>
<path fill="none" stroke="black" d="M736.67,-2345C760.32,-2345 795.33,-2345 821.91,-2345"/>
<polygon fill="black" stroke="black" points="821.58,-2348.5 831.58,-2345 821.58,-2341.5 821.58,-2348.5"/>
</g>
<!-- tcb&#45;db -->
<g id="node61" class="node">
<title>tcb&#45;db</title>
<polygon fill="none" stroke="black" points="739.5,-2417 679.25,-2417 679.25,-2381 739.5,-2381 739.5,-2417"/>
<text text-anchor="middle" x="709.38" y="-2394.7" font-family="sans-serif" font-size="14.00">tcb&#45;db</text>
</g>
<!-- tcb&#45;db&#45;&gt;json -->
<g id="edge176" class="edge">
<title>tcb&#45;db&#45;&gt;json</title>
<path fill="none" stroke="black" d="M739.81,-2399C763.24,-2399 796.19,-2399 821.57,-2399"/>
<polygon fill="black" stroke="black" points="821.48,-2402.5 831.48,-2399 821.48,-2395.5 821.48,-2402.5"/>
</g>
<!-- tcb&#45;db&#45;&gt;sqlite -->
<g id="edge177" class="edge">
<title>tcb&#45;db&#45;&gt;sqlite</title>
<path fill="none" stroke="black" d="M739.81,-2388.33C763.45,-2379.76 796.79,-2367.68 822.26,-2358.45"/>
<polygon fill="black" stroke="black" points="823.36,-2361.77 831.57,-2355.08 820.98,-2355.19 823.36,-2361.77"/>
</g>
<!-- wasm&#45;build&#45;guest -->
<g id="node64" class="node">
<title>wasm&#45;build&#45;guest</title>
<polygon fill="none" stroke="black" points="928.75,-2555 792,-2555 792,-2519 928.75,-2519 928.75,-2555"/>
<text text-anchor="middle" x="860.38" y="-2532.7" font-family="sans-serif" font-size="14.00">wasm&#45;build&#45;guest</text>
</g>
<!-- wasm&#45;build&#45;guest&#45;&gt;wasm -->
<g id="edge178" class="edge">
<title>wasm&#45;build&#45;guest&#45;&gt;wasm</title>
<path fill="none" stroke="black" d="M910.75,-2518.51C917.29,-2514.7 923.53,-2510.22 928.75,-2505 963.5,-2470.26 983.77,-2415.57 993.59,-2382.13"/>
<polygon fill="black" stroke="black" points="996.9,-2383.29 996.23,-2372.71 990.16,-2381.4 996.9,-2383.29"/>
</g>
<!-- wasm&#45;spec -->
<g id="node65" class="node">
<title>wasm&#45;spec</title>
<polygon fill="none" stroke="black" points="756,-2233 662.75,-2233 662.75,-2197 756,-2197 756,-2233"/>
<text text-anchor="middle" x="709.38" y="-2210.7" font-family="sans-serif" font-size="14.00">wasm&#45;spec</text>
</g>
<!-- wasm&#45;spec&#45;&gt;hash -->
<g id="edge179" class="edge">
<title>wasm&#45;spec&#45;&gt;hash</title>
<path fill="none" stroke="black" d="M741.86,-2196.51C747.03,-2192.51 752,-2187.98 756,-2183 810.67,-2114.98 840.64,-2013.94 852.82,-1964.46"/>
<polygon fill="black" stroke="black" points="856.21,-1965.33 855.12,-1954.79 849.4,-1963.71 856.21,-1965.33"/>
</g>
<!-- wasm&#45;spec&#45;&gt;wasm -->
<g id="edge180" class="edge">
<title>wasm&#45;spec&#45;&gt;wasm</title>
<path fill="none" stroke="black" d="M756.23,-2211.45C803.11,-2210.03 876.29,-2214.18 928.75,-2247 957.7,-2265.11 977.89,-2299.54 989.42,-2324.26"/>
<polygon fill="black" stroke="black" points="986.1,-2325.41 993.36,-2333.12 992.5,-2322.56 986.1,-2325.41"/>
</g>
<!-- wasm&#45;store&#45;&gt;json -->
<g id="edge181" class="edge">
<title>wasm&#45;store&#45;&gt;json</title>
<path fill="none" stroke="black" d="M627.02,-2564.26C664.27,-2557.23 716.56,-2543.52 756,-2518 757.27,-2517.18 806.2,-2460.61 836.28,-2425.77"/>
<polygon fill="black" stroke="black" points="838.61,-2428.43 842.49,-2418.57 833.31,-2423.86 838.61,-2428.43"/>
</g>
<!-- wasm&#45;store&#45;&gt;store -->
<g id="edge182" class="edge">
<title>wasm&#45;store&#45;&gt;store</title>
<path fill="none" stroke="black" d="M583.85,-2552.74C591.84,-2515.05 614.61,-2427.51 662.75,-2372 665.65,-2368.65 669.08,-2365.61 672.72,-2362.88"/>
<polygon fill="black" stroke="black" points="674.38,-2365.97 680.81,-2357.55 670.53,-2360.13 674.38,-2365.97"/>
</g>
<!-- wasm&#45;store&#45;&gt;wasm -->
<g id="edge183" class="edge">
<title>wasm&#45;store&#45;&gt;wasm</title>
<path fill="none" stroke="black" d="M627.04,-2574.58C664.05,-2575.4 716.02,-2571.9 756,-2551 777.49,-2539.76 772.04,-2523.76 792,-2510 845.4,-2473.18 877.69,-2499.01 928.75,-2459 955.2,-2438.27 975.57,-2405.15 987.84,-2381.45"/>
<polygon fill="black" stroke="black" points="990.89,-2383.17 992.22,-2372.66 984.63,-2380.04 990.89,-2383.17"/>
</g>
<!-- web&#45;kernel -->
<g id="node67" class="node">
<title>web&#45;kernel</title>
<polygon fill="none" stroke="black" points="369,-1007 277.25,-1007 277.25,-971 369,-971 369,-1007"/>
<text text-anchor="middle" x="323.12" y="-984.7" font-family="sans-serif" font-size="14.00">web&#45;kernel</text>
</g>
<!-- web&#45;kernel&#45;&gt;forsp -->
<g id="edge184" class="edge">
<title>web&#45;kernel&#45;&gt;forsp</title>
<path fill="none" stroke="black" d="M326.43,-1007.32C333.95,-1064.75 359.91,-1245.98 405,-1390 413.14,-1416 425.67,-1444.33 435.36,-1464.69"/>
<polygon fill="black" stroke="black" points="432.1,-1466 439.61,-1473.47 438.4,-1462.95 432.1,-1466"/>
</g>
<!-- web&#45;kernel&#45;&gt;haskell -->
<g id="edge185" class="edge">
<title>web&#45;kernel&#45;&gt;haskell</title>
<path fill="none" stroke="black" d="M331.97,-970.86C353.12,-921.93 411.47,-786.96 437.13,-727.62"/>
<polygon fill="black" stroke="black" points="440.3,-729.09 441.06,-718.52 433.88,-726.31 440.3,-729.09"/>
</g>
<!-- web&#45;kernel&#45;&gt;hol&#45;api -->
<g id="edge186" class="edge">
<title>web&#45;kernel&#45;&gt;hol&#45;api</title>
<path fill="none" stroke="black" d="M324.94,-970.67C328,-919.5 342.06,-772.31 405,-672 438.64,-618.38 498.47,-574.5 538.28,-549.29"/>
<polygon fill="black" stroke="black" points="540.01,-552.33 546.66,-544.08 536.32,-546.39 540.01,-552.33"/>
</g>
<!-- web&#45;kernel&#45;&gt;kernel -->
<g id="edge187" class="edge">
<title>web&#45;kernel&#45;&gt;kernel</title>
<path fill="none" stroke="black" d="M333.65,-1007.25C360.32,-1058.54 437.59,-1208.58 496,-1336 522.76,-1394.38 551.37,-1463.92 566.84,-1502.18"/>
<polygon fill="black" stroke="black" points="563.47,-1503.19 570.45,-1511.15 569.96,-1500.57 563.47,-1503.19"/>
</g>
<!-- web&#45;kernel&#45;&gt;lisp -->
<g id="edge188" class="edge">
<title>web&#45;kernel&#45;&gt;lisp</title>
<path fill="none" stroke="black" d="M369.39,-989C383.38,-989 398.64,-989 412.05,-989"/>
<polygon fill="black" stroke="black" points="411.76,-992.5 421.76,-989 411.76,-985.5 411.76,-992.5"/>
</g>
</g>
</svg>
