<?xml version="1.0" encoding="UTF-8" standalone="no"?>
<!DOCTYPE svg PUBLIC "-//W3C//DTD SVG 1.1//EN"
 "http://www.w3.org/Graphics/SVG/1.1/DTD/svg11.dtd">
<!-- Generated by graphviz version 12.2.1 (0)
 -->
<!-- Title: deps Pages: 1 -->
<svg width="1478pt" height="1909pt"
 viewBox="0.00 0.00 1477.50 1909.00" xmlns="http://www.w3.org/2000/svg" xmlns:xlink="http://www.w3.org/1999/xlink">
<g id="graph0" class="graph" transform="scale(1 1) rotate(0) translate(4 1905)">
<title>deps</title>
<polygon fill="white" stroke="none" points="-4,4 -4,-1905 1473.5,-1905 1473.5,4 -4,4"/>
<!-- covalence -->
<g id="node1" class="node">
<title>covalence</title>
<polygon fill="none" stroke="black" points="102.62,-889 18.38,-889 18.38,-853 102.62,-853 102.62,-889"/>
<text text-anchor="middle" x="60.5" y="-866.7" font-family="sans-serif" font-size="14.00">covalence</text>
</g>
<!-- client -->
<g id="node5" class="node">
<title>client</title>
<polygon fill="none" stroke="black" points="349.75,-897 295.75,-897 295.75,-861 349.75,-861 349.75,-897"/>
<text text-anchor="middle" x="322.75" y="-874.7" font-family="sans-serif" font-size="14.00">client</text>
</g>
<!-- covalence&#45;&gt;client -->
<g id="edge1" class="edge">
<title>covalence&#45;&gt;client</title>
<path fill="none" stroke="black" d="M103.03,-872.28C152.9,-873.81 235.85,-876.36 283.99,-877.84"/>
<polygon fill="black" stroke="black" points="283.82,-881.34 293.92,-878.14 284.03,-874.34 283.82,-881.34"/>
</g>
<!-- fuse -->
<g id="node11" class="node">
<title>fuse</title>
<polygon fill="none" stroke="black" points="606.38,-1137 552.38,-1137 552.38,-1101 606.38,-1101 606.38,-1137"/>
<text text-anchor="middle" x="579.38" y="-1114.7" font-family="sans-serif" font-size="14.00">fuse</text>
</g>
<!-- covalence&#45;&gt;fuse -->
<g id="edge2" class="edge">
<title>covalence&#45;&gt;fuse</title>
<path fill="none" stroke="black" d="M69.44,-889.44C83.24,-919.58 114.31,-979.66 157,-1016 270.45,-1112.58 460.22,-1121.4 540.58,-1120.42"/>
<polygon fill="black" stroke="black" points="540.62,-1123.92 550.56,-1120.23 540.49,-1116.92 540.62,-1123.92"/>
</g>
<!-- git -->
<g id="node12" class="node">
<title>git</title>
<polygon fill="none" stroke="black" points="477.12,-1351 423.12,-1351 423.12,-1315 477.12,-1315 477.12,-1351"/>
<text text-anchor="middle" x="450.12" y="-1328.7" font-family="sans-serif" font-size="14.00">git</text>
</g>
<!-- covalence&#45;&gt;git -->
<g id="edge3" class="edge">
<title>covalence&#45;&gt;git</title>
<path fill="none" stroke="black" d="M63.84,-889.5C70.76,-938.45 94.68,-1073.95 157,-1166 218.79,-1257.27 348.17,-1304.72 411.96,-1323.36"/>
<polygon fill="black" stroke="black" points="410.68,-1326.64 421.25,-1326 412.59,-1319.9 410.68,-1326.64"/>
</g>
<!-- hash -->
<g id="node15" class="node">
<title>hash</title>
<polygon fill="none" stroke="black" points="887.38,-1137 833.38,-1137 833.38,-1101 887.38,-1101 887.38,-1137"/>
<text text-anchor="middle" x="860.38" y="-1114.7" font-family="sans-serif" font-size="14.00">hash</text>
</g>
<!-- covalence&#45;&gt;hash -->
<g id="edge4" class="edge">
<title>covalence&#45;&gt;hash</title>
<path fill="none" stroke="black" d="M102.67,-865.21C235.96,-847.37 653.01,-799.04 756,-877 794.33,-906.02 773.55,-934.61 792,-979 808.43,-1018.53 830.39,-1062.86 844.7,-1090.84"/>
<polygon fill="black" stroke="black" points="841.4,-1092.09 849.09,-1099.38 847.63,-1088.88 841.4,-1092.09"/>
</g>
<!-- hol -->
<g id="node17" class="node">
<title>hol</title>
<polygon fill="none" stroke="black" points="887.38,-228 833.38,-228 833.38,-192 887.38,-192 887.38,-228"/>
<text text-anchor="middle" x="860.38" y="-205.7" font-family="sans-serif" font-size="14.00">hol</text>
</g>
<!-- covalence&#45;&gt;hol -->
<g id="edge5" class="edge">
<title>covalence&#45;&gt;hol</title>
<path fill="none" stroke="black" d="M62.9,-852.73C69.63,-768.54 100.62,-418.05 157,-326 204.86,-247.85 230.11,-202 321.75,-202 321.75,-202 321.75,-202 580.38,-202 666.87,-202 768.39,-205.89 821.93,-208.24"/>
<polygon fill="black" stroke="black" points="821.57,-211.73 831.71,-208.68 821.88,-204.74 821.57,-211.73"/>
</g>
<!-- lsp -->
<g id="node26" class="node">
<title>lsp</title>
<polygon fill="none" stroke="black" points="887.38,-840 833.38,-840 833.38,-804 887.38,-804 887.38,-840"/>
<text text-anchor="middle" x="860.38" y="-817.7" font-family="sans-serif" font-size="14.00">lsp</text>
</g>
<!-- covalence&#45;&gt;lsp -->
<g id="edge6" class="edge">
<title>covalence&#45;&gt;lsp</title>
<path fill="none" stroke="black" d="M61.26,-852.87C61.66,-801.33 70.61,-653.43 157,-587 244.29,-519.88 294.19,-574.56 404.25,-571 445.01,-569.68 456.52,-560.8 496,-571 623.89,-604.05 666.55,-617.8 756,-715 782.4,-743.69 763.86,-768.01 792,-795 800.46,-803.11 811.66,-808.89 822.5,-812.97"/>
<polygon fill="black" stroke="black" points="821.07,-816.18 831.67,-816.02 823.28,-809.54 821.07,-816.18"/>
</g>
<!-- object -->
<g id="node29" class="node">
<title>object</title>
<polygon fill="none" stroke="black" points="738,-1016 680.75,-1016 680.75,-980 738,-980 738,-1016"/>
<text text-anchor="middle" x="709.38" y="-993.7" font-family="sans-serif" font-size="14.00">object</text>
</g>
<!-- covalence&#45;&gt;object -->
<g id="edge7" class="edge">
<title>covalence&#45;&gt;object</title>
<path fill="none" stroke="black" d="M61.84,-852.75C63.87,-804.32 76.82,-672.51 157,-617 234.19,-563.55 274.8,-607.94 368.25,-617 425.83,-622.58 444.9,-614.88 496,-642 568.39,-680.41 582.71,-702.9 626.75,-772 667.71,-836.26 691.78,-923.89 702.2,-968.82"/>
<polygon fill="black" stroke="black" points="698.73,-969.33 704.34,-978.31 705.56,-967.79 698.73,-969.33"/>
</g>
<!-- opentheory -->
<g id="node30" class="node">
<title>opentheory</title>
<polygon fill="none" stroke="black" points="368.25,-332 277.25,-332 277.25,-296 368.25,-296 368.25,-332"/>
<text text-anchor="middle" x="322.75" y="-309.7" font-family="sans-serif" font-size="14.00">opentheory</text>
</g>
<!-- covalence&#45;&gt;opentheory -->
<g id="edge8" class="edge">
<title>covalence&#45;&gt;opentheory</title>
<path fill="none" stroke="black" d="M62.77,-852.66C68.64,-772.76 95.53,-455.71 157,-381 184.03,-348.16 229.67,-331.26 266.07,-322.66"/>
<polygon fill="black" stroke="black" points="266.54,-326.14 275.56,-320.57 265.04,-319.3 266.54,-326.14"/>
</g>
<!-- proto -->
<g id="node34" class="node">
<title>proto</title>
<polygon fill="none" stroke="black" points="349.75,-1061 295.75,-1061 295.75,-1025 349.75,-1025 349.75,-1061"/>
<text text-anchor="middle" x="322.75" y="-1038.7" font-family="sans-serif" font-size="14.00">proto</text>
</g>
<!-- covalence&#45;&gt;proto -->
<g id="edge9" class="edge">
<title>covalence&#45;&gt;proto</title>
<path fill="none" stroke="black" d="M72.89,-889.26C88.9,-913.57 120.26,-956.46 157,-982 196.32,-1009.33 249.38,-1026.08 284.54,-1034.95"/>
<polygon fill="black" stroke="black" points="283.27,-1038.25 293.81,-1037.2 284.92,-1031.44 283.27,-1038.25"/>
</g>
<!-- repl -->
<g id="node40" class="node">
<title>repl</title>
<polygon fill="none" stroke="black" points="349.75,-1213 295.75,-1213 295.75,-1177 349.75,-1177 349.75,-1213"/>
<text text-anchor="middle" x="322.75" y="-1190.7" font-family="sans-serif" font-size="14.00">repl</text>
</g>
<!-- covalence&#45;&gt;repl -->
<g id="edge10" class="edge">
<title>covalence&#45;&gt;repl</title>
<path fill="none" stroke="black" d="M63.27,-889.2C68.69,-935.29 89.06,-1057.96 157,-1128 191.58,-1163.65 247.75,-1180.95 284.73,-1188.89"/>
<polygon fill="black" stroke="black" points="283.56,-1192.23 294.06,-1190.76 284.94,-1185.36 283.56,-1192.23"/>
</g>
<!-- serve -->
<g id="node42" class="node">
<title>serve</title>
<polygon fill="none" stroke="black" points="226.12,-973 172.12,-973 172.12,-937 226.12,-937 226.12,-973"/>
<text text-anchor="middle" x="199.12" y="-950.7" font-family="sans-serif" font-size="14.00">serve</text>
</g>
<!-- covalence&#45;&gt;serve -->
<g id="edge11" class="edge">
<title>covalence&#45;&gt;serve</title>
<path fill="none" stroke="black" d="M91.48,-889.43C112.33,-902.25 140.21,-919.39 162.24,-932.94"/>
<polygon fill="black" stroke="black" points="160.26,-935.83 170.61,-938.08 163.92,-929.86 160.26,-935.83"/>
</g>
<!-- shell -->
<g id="node44" class="node">
<title>shell</title>
<polygon fill="none" stroke="black" points="477.12,-687 423.12,-687 423.12,-651 477.12,-651 477.12,-687"/>
<text text-anchor="middle" x="450.12" y="-664.7" font-family="sans-serif" font-size="14.00">shell</text>
</g>
<!-- covalence&#45;&gt;shell -->
<g id="edge12" class="edge">
<title>covalence&#45;&gt;shell</title>
<path fill="none" stroke="black" d="M62.85,-852.59C67.21,-808 85.22,-694.43 157,-647 235.5,-595.13 353.08,-629.71 412.28,-652.89"/>
<polygon fill="black" stroke="black" points="410.64,-656 421.23,-656.49 413.26,-649.51 410.64,-656"/>
</g>
<!-- store -->
<g id="node48" class="node">
<title>store</title>
<polygon fill="none" stroke="black" points="736.38,-1343 682.38,-1343 682.38,-1307 736.38,-1307 736.38,-1343"/>
<text text-anchor="middle" x="709.38" y="-1320.7" font-family="sans-serif" font-size="14.00">store</text>
</g>
<!-- covalence&#45;&gt;store -->
<g id="edge13" class="edge">
<title>covalence&#45;&gt;store</title>
<path fill="none" stroke="black" d="M62.19,-889.15C65.1,-944.11 80.14,-1111.63 157,-1220 232.72,-1326.77 278.19,-1344.77 404.25,-1380 427.58,-1386.52 617.8,-1378.72 626.75,-1376 644.85,-1370.51 662.9,-1359.9 677.41,-1349.78"/>
<polygon fill="black" stroke="black" points="679.14,-1352.85 685.18,-1344.14 675.03,-1347.18 679.14,-1352.85"/>
</g>
<!-- wasm -->
<g id="node50" class="node">
<title>wasm</title>
<polygon fill="none" stroke="black" points="1028.75,-1572 974.5,-1572 974.5,-1536 1028.75,-1536 1028.75,-1572"/>
<text text-anchor="middle" x="1001.62" y="-1549.7" font-family="sans-serif" font-size="14.00">wasm</text>
</g>
<!-- covalence&#45;&gt;wasm -->
<g id="edge14" class="edge">
<title>covalence&#45;&gt;wasm</title>
<path fill="none" stroke="black" d="M62.09,-889.49C64.74,-949.81 79.22,-1144.72 157,-1280 214.12,-1379.35 425.5,-1591.67 532,-1634 571.13,-1649.55 586.12,-1645.06 626.75,-1634 691.05,-1616.5 707.57,-1603.77 756,-1558 776.96,-1538.19 766.57,-1517.61 792,-1504 845.59,-1475.32 870.76,-1485.81 928.75,-1504 944.58,-1508.97 959.98,-1518.79 972.44,-1528.42"/>
<polygon fill="black" stroke="black" points="970.21,-1531.12 980.18,-1534.72 974.63,-1525.69 970.21,-1531.12"/>
</g>
<!-- acset -->
<g id="node2" class="node">
<title>acset</title>
<polygon fill="none" stroke="black" points="887.38,-1717 833.38,-1717 833.38,-1681 887.38,-1681 887.38,-1717"/>
<text text-anchor="middle" x="860.38" y="-1694.7" font-family="sans-serif" font-size="14.00">acset</text>
</g>
<!-- alethe -->
<g id="node3" class="node">
<title>alethe</title>
<polygon fill="none" stroke="black" points="607.62,-401 551.12,-401 551.12,-365 607.62,-365 607.62,-401"/>
<text text-anchor="middle" x="579.38" y="-378.7" font-family="sans-serif" font-size="14.00">alethe</text>
</g>
<!-- core -->
<g id="node6" class="node">
<title>core</title>
<polygon fill="#ffd6d6" stroke="black" points="1028.62,-260 974.62,-260 974.62,-224 1028.62,-224 1028.62,-260"/>
<text text-anchor="middle" x="1001.62" y="-237.7" font-family="sans-serif" font-size="14.00">core</text>
</g>
<!-- alethe&#45;&gt;core -->
<g id="edge15" class="edge">
<title>alethe&#45;&gt;core</title>
<path fill="none" stroke="black" d="M607.84,-380.83C644.97,-376.65 711.65,-364.54 756,-330 780.53,-310.89 766.02,-287.09 792,-270 819.33,-252.02 910.49,-245.49 962.82,-243.19"/>
<polygon fill="black" stroke="black" points="962.93,-246.69 972.78,-242.79 962.65,-239.7 962.93,-246.69"/>
</g>
<!-- hol&#45;eval -->
<g id="node18" class="node">
<title>hol&#45;eval</title>
<polygon fill="none" stroke="black" points="895.38,-136 825.38,-136 825.38,-100 895.38,-100 895.38,-136"/>
<text text-anchor="middle" x="860.38" y="-113.7" font-family="sans-serif" font-size="14.00">hol&#45;eval</text>
</g>
<!-- alethe&#45;&gt;hol&#45;eval -->
<g id="edge16" class="edge">
<title>alethe&#45;&gt;hol&#45;eval</title>
<path fill="none" stroke="black" d="M599.55,-364.79C648.03,-318.74 775.63,-197.54 831.97,-144.03"/>
<polygon fill="black" stroke="black" points="834.13,-146.81 838.97,-137.38 829.31,-141.73 834.13,-146.81"/>
</g>
<!-- init -->
<g id="node20" class="node">
<title>init</title>
<polygon fill="none" stroke="black" points="736.38,-442 682.38,-442 682.38,-406 736.38,-406 736.38,-442"/>
<text text-anchor="middle" x="709.38" y="-419.7" font-family="sans-serif" font-size="14.00">init</text>
</g>
<!-- alethe&#45;&gt;init -->
<g id="edge17" class="edge">
<title>alethe&#45;&gt;init</title>
<path fill="none" stroke="black" d="M607.83,-391.8C626.43,-397.75 651.21,-405.69 671.52,-412.19"/>
<polygon fill="black" stroke="black" points="670.24,-415.46 680.83,-415.18 672.38,-408.79 670.24,-415.46"/>
</g>
<!-- sexp -->
<g id="node43" class="node">
<title>sexp</title>
<polygon fill="none" stroke="black" points="1028.62,-740 974.62,-740 974.62,-704 1028.62,-704 1028.62,-740"/>
<text text-anchor="middle" x="1001.62" y="-717.7" font-family="sans-serif" font-size="14.00">sexp</text>
</g>
<!-- alethe&#45;&gt;sexp -->
<g id="edge18" class="edge">
<title>alethe&#45;&gt;sexp</title>
<path fill="none" stroke="black" d="M588.54,-401.15C601.13,-427.36 627.56,-475.97 662.75,-506 697.47,-535.62 725.7,-514.88 756,-549 790.44,-587.78 754.88,-623.78 792,-660 804.43,-672.13 906.59,-698.81 963.2,-712.89"/>
<polygon fill="black" stroke="black" points="962.19,-716.24 972.74,-715.25 963.87,-709.45 962.19,-716.24"/>
</g>
<!-- smt -->
<g id="node45" class="node">
<title>smt</title>
<polygon fill="none" stroke="black" points="736.38,-497 682.38,-497 682.38,-461 736.38,-461 736.38,-497"/>
<text text-anchor="middle" x="709.38" y="-474.7" font-family="sans-serif" font-size="14.00">smt</text>
</g>
<!-- alethe&#45;&gt;smt -->
<g id="edge19" class="edge">
<title>alethe&#45;&gt;smt</title>
<path fill="none" stroke="black" d="M601.06,-401.45C617.35,-415.63 640.87,-435.37 662.75,-451 665.78,-453.16 668.97,-455.33 672.2,-457.45"/>
<polygon fill="black" stroke="black" points="670.32,-460.4 680.63,-462.81 674.07,-454.49 670.32,-460.4"/>
</g>
<!-- types -->
<g id="node49" class="node">
<title>types</title>
<polygon fill="#ffd6d6" stroke="black" points="1469.5,-281 1415.5,-281 1415.5,-245 1469.5,-245 1469.5,-281"/>
<text text-anchor="middle" x="1442.5" y="-258.7" font-family="sans-serif" font-size="14.00">types</text>
</g>
<!-- alethe&#45;&gt;types -->
<g id="edge20" class="edge">
<title>alethe&#45;&gt;types</title>
<path fill="none" stroke="black" d="M586.41,-364.58C605.67,-309.4 671.51,-145.93 792,-91 876.72,-52.38 907.52,-72 1000.62,-72 1000.62,-72 1000.62,-72 1218.25,-72 1292.42,-72 1323.61,-66.24 1379.5,-115 1414.8,-145.8 1430.48,-200 1437.08,-233.57"/>
<polygon fill="black" stroke="black" points="1433.57,-233.8 1438.79,-243.02 1440.45,-232.56 1433.57,-233.8"/>
</g>
<!-- arrow -->
<g id="node4" class="node">
<title>arrow</title>
<polygon fill="none" stroke="black" points="606.38,-1267 552.38,-1267 552.38,-1231 606.38,-1231 606.38,-1267"/>
<text text-anchor="middle" x="579.38" y="-1244.7" font-family="sans-serif" font-size="14.00">arrow</text>
</g>
<!-- client&#45;&gt;hash -->
<g id="edge21" class="edge">
<title>client&#45;&gt;hash</title>
<path fill="none" stroke="black" d="M350.02,-877.36C433.22,-872.68 689.33,-862.28 756,-907 758.09,-908.4 818.07,-1032.96 845.69,-1090.47"/>
<polygon fill="black" stroke="black" points="842.46,-1091.84 849.95,-1099.34 848.77,-1088.81 842.46,-1091.84"/>
</g>
<!-- client&#45;&gt;shell -->
<g id="edge22" class="edge">
<title>client&#45;&gt;shell</title>
<path fill="none" stroke="black" d="M350.03,-864.71C356.84,-859.89 363.56,-853.94 368.25,-847 405.69,-791.64 366.7,-756.29 404.25,-701 406.97,-696.99 410.37,-693.32 414.08,-690"/>
<polygon fill="black" stroke="black" points="416.19,-692.79 421.9,-683.86 411.87,-687.28 416.19,-692.79"/>
</g>
<!-- client&#45;&gt;store -->
<g id="edge23" class="edge">
<title>client&#45;&gt;store</title>
<path fill="none" stroke="black" d="M335.83,-897.34C365.95,-942.35 447.99,-1060.83 532,-1146 569.91,-1184.43 588.69,-1183.72 626.75,-1222 650.32,-1245.71 673.66,-1276.03 689.3,-1297.62"/>
<polygon fill="black" stroke="black" points="686.37,-1299.55 695.04,-1305.64 692.07,-1295.47 686.37,-1299.55"/>
</g>
<!-- pure -->
<g id="node35" class="node">
<title>pure</title>
<polygon fill="#ffd6d6" stroke="black" points="1244.25,-216 1190.25,-216 1190.25,-180 1244.25,-180 1244.25,-216"/>
<text text-anchor="middle" x="1217.25" y="-193.7" font-family="sans-serif" font-size="14.00">pure</text>
</g>
<!-- core&#45;&gt;pure -->
<g id="edge24" class="edge">
<title>core&#45;&gt;pure</title>
<path fill="none" stroke="black" d="M1029.09,-241.42C1059.7,-240.2 1111.39,-236.46 1154.25,-225 1162.69,-222.74 1171.46,-219.52 1179.65,-216.08"/>
<polygon fill="black" stroke="black" points="1180.91,-219.35 1188.64,-212.11 1178.08,-212.95 1180.91,-219.35"/>
</g>
<!-- pure&#45;eval -->
<g id="node36" class="node">
<title>pure&#45;eval</title>
<polygon fill="#ffd6d6" stroke="black" points="1154.25,-216 1074.5,-216 1074.5,-180 1154.25,-180 1154.25,-216"/>
<text text-anchor="middle" x="1114.38" y="-193.7" font-family="sans-serif" font-size="14.00">pure&#45;eval</text>
</g>
<!-- core&#45;&gt;pure&#45;eval -->
<g id="edge25" class="edge">
<title>core&#45;&gt;pure&#45;eval</title>
<path fill="none" stroke="black" d="M1028.87,-231.57C1039.36,-227.41 1051.8,-222.46 1063.86,-217.67"/>
<polygon fill="black" stroke="black" points="1064.9,-221.03 1072.9,-214.08 1062.31,-214.52 1064.9,-221.03"/>
</g>
<!-- core&#45;&gt;types -->
<g id="edge26" class="edge">
<title>core&#45;&gt;types</title>
<path fill="none" stroke="black" d="M1029,-244.79C1078.28,-249.85 1187.73,-260.34 1280.25,-264 1324.33,-265.74 1335.39,-264.36 1379.5,-264 1387.38,-263.94 1395.83,-263.83 1403.87,-263.7"/>
<polygon fill="black" stroke="black" points="1403.8,-267.21 1413.74,-263.54 1403.69,-260.21 1403.8,-267.21"/>
</g>
<!-- core&#45;test&#45;guest -->
<g id="node7" class="node">
<title>core&#45;test&#45;guest</title>
<polygon fill="none" stroke="black" points="121,-1519 0,-1519 0,-1483 121,-1483 121,-1519"/>
<text text-anchor="middle" x="60.5" y="-1496.7" font-family="sans-serif" font-size="14.00">core&#45;test&#45;guest</text>
</g>
<!-- crypto&#45;sig -->
<g id="node8" class="node">
<title>crypto&#45;sig</title>
<polygon fill="none" stroke="black" points="241.25,-1901 157,-1901 157,-1865 241.25,-1865 241.25,-1901"/>
<text text-anchor="middle" x="199.12" y="-1878.7" font-family="sans-serif" font-size="14.00">crypto&#45;sig</text>
</g>
<!-- egglog -->
<g id="node9" class="node">
<title>egglog</title>
<polygon fill="none" stroke="black" points="890.88,-526 829.88,-526 829.88,-490 890.88,-490 890.88,-526"/>
<text text-anchor="middle" x="860.38" y="-503.7" font-family="sans-serif" font-size="14.00">egglog</text>
</g>
<!-- egglog&#45;&gt;sexp -->
<g id="edge27" class="edge">
<title>egglog&#45;&gt;sexp</title>
<path fill="none" stroke="black" d="M891.26,-514.26C904.2,-518.3 918.66,-524.77 928.75,-535 972.11,-578.98 989.9,-651.91 996.73,-692.47"/>
<polygon fill="black" stroke="black" points="993.25,-692.88 998.25,-702.22 1000.17,-691.8 993.25,-692.88"/>
</g>
<!-- egglog&#45;&gt;types -->
<g id="edge28" class="edge">
<title>egglog&#45;&gt;types</title>
<path fill="none" stroke="black" d="M891.24,-507.22C938.42,-506.06 1033.08,-504 1113.38,-504 1113.38,-504 1113.38,-504 1218.25,-504 1290.99,-504 1325.28,-524.49 1379.5,-476 1432.33,-428.74 1441.25,-339.34 1442.08,-292.82"/>
<polygon fill="black" stroke="black" points="1445.58,-292.96 1442.13,-282.95 1438.58,-292.93 1445.58,-292.96"/>
</g>
<!-- forsp -->
<g id="node10" class="node">
<title>forsp</title>
<polygon fill="none" stroke="black" points="736.38,-779 682.38,-779 682.38,-743 736.38,-743 736.38,-779"/>
<text text-anchor="middle" x="709.38" y="-756.7" font-family="sans-serif" font-size="14.00">forsp</text>
</g>
<!-- forsp&#45;&gt;hash -->
<g id="edge29" class="edge">
<title>forsp&#45;&gt;hash</title>
<path fill="none" stroke="black" d="M736.6,-774.38C743.9,-779.3 751.16,-785.53 756,-793 801.8,-863.65 765.52,-899.07 792,-979 805.39,-1019.41 827.88,-1063.21 843.16,-1090.86"/>
<polygon fill="black" stroke="black" points="839.95,-1092.29 847.89,-1099.3 846.05,-1088.87 839.95,-1092.29"/>
</g>
<!-- forsp&#45;&gt;sexp -->
<g id="edge30" class="edge">
<title>forsp&#45;&gt;sexp</title>
<path fill="none" stroke="black" d="M736.69,-775.65C743.65,-780.47 750.7,-786.34 756,-793 782.56,-826.4 756.62,-858.15 792,-882 842.39,-915.98 877.72,-915.02 928.75,-882 973.27,-853.19 990.48,-789.53 996.94,-751.77"/>
<polygon fill="black" stroke="black" points="1000.38,-752.41 998.44,-742 993.46,-751.35 1000.38,-752.41"/>
</g>
<!-- fuse&#45;&gt;hash -->
<g id="edge31" class="edge">
<title>fuse&#45;&gt;hash</title>
<path fill="none" stroke="black" d="M606.87,-1119C656.65,-1119 764.28,-1119 821.62,-1119"/>
<polygon fill="black" stroke="black" points="821.54,-1122.5 831.54,-1119 821.54,-1115.5 821.54,-1122.5"/>
</g>
<!-- fuse&#45;&gt;object -->
<g id="edge32" class="edge">
<title>fuse&#45;&gt;object</title>
<path fill="none" stroke="black" d="M606.65,-1102.38C613.43,-1097.7 620.55,-1092.4 626.75,-1087 648.66,-1067.92 670.77,-1043.42 686.44,-1024.95"/>
<polygon fill="black" stroke="black" points="689.09,-1027.24 692.83,-1017.33 683.73,-1022.75 689.09,-1027.24"/>
</g>
<!-- fuse&#45;&gt;store -->
<g id="edge33" class="edge">
<title>fuse&#45;&gt;store</title>
<path fill="none" stroke="black" d="M606.41,-1133.44C613.64,-1138.33 621.06,-1144.28 626.75,-1151 664.01,-1195 688.16,-1258.88 699.92,-1295.75"/>
<polygon fill="black" stroke="black" points="696.57,-1296.75 702.86,-1305.27 703.25,-1294.68 696.57,-1296.75"/>
</g>
<!-- git&#45;&gt;hash -->
<g id="edge34" class="edge">
<title>git&#45;&gt;hash</title>
<path fill="none" stroke="black" d="M477.5,-1327.3C532.83,-1314.45 663.51,-1279.39 756,-1217 786.45,-1196.46 816.37,-1166.76 836.12,-1145.45"/>
<polygon fill="black" stroke="black" points="838.5,-1148.03 842.66,-1138.28 833.33,-1143.31 838.5,-1148.03"/>
</g>
<!-- git&#45;&gt;object -->
<g id="edge35" class="edge">
<title>git&#45;&gt;object</title>
<path fill="none" stroke="black" d="M477.45,-1322.2C484.48,-1318.11 491.39,-1312.76 496,-1306 550.29,-1226.28 473.19,-1168.45 532,-1092 560.2,-1055.35 586,-1070.86 626.75,-1049 641.68,-1040.99 657.59,-1031.33 671.36,-1022.58"/>
<polygon fill="black" stroke="black" points="673.17,-1025.57 679.69,-1017.22 669.38,-1019.68 673.17,-1025.57"/>
</g>
<!-- sqlite -->
<g id="node47" class="node">
<title>sqlite</title>
<polygon fill="none" stroke="black" points="887.38,-1358 833.38,-1358 833.38,-1322 887.38,-1322 887.38,-1358"/>
<text text-anchor="middle" x="860.38" y="-1335.7" font-family="sans-serif" font-size="14.00">sqlite</text>
</g>
<!-- git&#45;&gt;sqlite -->
<g id="edge36" class="edge">
<title>git&#45;&gt;sqlite</title>
<path fill="none" stroke="black" d="M477.22,-1336.74C529.91,-1343.82 652.76,-1357.97 756,-1352 777.91,-1350.73 802.3,-1347.97 821.89,-1345.41"/>
<polygon fill="black" stroke="black" points="822.16,-1348.9 831.61,-1344.1 821.23,-1341.97 822.16,-1348.9"/>
</g>
<!-- git&#45;&gt;store -->
<g id="edge37" class="edge">
<title>git&#45;&gt;store</title>
<path fill="none" stroke="black" d="M477.21,-1332.19C523.05,-1330.76 618.19,-1327.8 671.01,-1326.16"/>
<polygon fill="black" stroke="black" points="670.82,-1329.67 680.71,-1325.86 670.61,-1322.67 670.82,-1329.67"/>
</g>
<!-- grammar -->
<g id="node13" class="node">
<title>grammar</title>
<polygon fill="none" stroke="black" points="1038.5,-415 964.75,-415 964.75,-379 1038.5,-379 1038.5,-415"/>
<text text-anchor="middle" x="1001.62" y="-392.7" font-family="sans-serif" font-size="14.00">grammar</text>
</g>
<!-- graph -->
<g id="node14" class="node">
<title>graph</title>
<polygon fill="none" stroke="black" points="477.12,-1663 423.12,-1663 423.12,-1627 477.12,-1627 477.12,-1663"/>
<text text-anchor="middle" x="450.12" y="-1640.7" font-family="sans-serif" font-size="14.00">graph</text>
</g>
<!-- graph&#45;&gt;hash -->
<g id="edge38" class="edge">
<title>graph&#45;&gt;hash</title>
<path fill="none" stroke="black" d="M471.01,-1626.66C486.76,-1612.72 509.75,-1593.69 532,-1580 571.39,-1555.77 593.78,-1569.43 626.75,-1537 653.39,-1510.79 635.6,-1486.69 662.75,-1461 695.26,-1430.24 725.49,-1455.74 756,-1423 791.07,-1385.36 775.56,-1361.74 792,-1313 811.77,-1254.37 835.7,-1186.07 849.06,-1148.16"/>
<polygon fill="black" stroke="black" points="852.32,-1149.44 852.35,-1138.85 845.72,-1147.11 852.32,-1149.44"/>
</g>
<!-- parse -->
<g id="node32" class="node">
<title>parse</title>
<polygon fill="none" stroke="black" points="1141.38,-990 1087.38,-990 1087.38,-954 1141.38,-954 1141.38,-990"/>
<text text-anchor="middle" x="1114.38" y="-967.7" font-family="sans-serif" font-size="14.00">parse</text>
</g>
<!-- graph&#45;&gt;parse -->
<g id="edge39" class="edge">
<title>graph&#45;&gt;parse</title>
<path fill="none" stroke="black" d="M470.06,-1663.22C485.48,-1676.96 508.48,-1695.08 532,-1705 695.37,-1773.92 761.79,-1806.71 928.75,-1747 988.15,-1725.76 1008.46,-1712.47 1038.5,-1657 1101.17,-1541.3 1111.42,-1118.63 1113.07,-1001.99"/>
<polygon fill="black" stroke="black" points="1116.57,-1002.04 1113.2,-992 1109.57,-1001.96 1116.57,-1002.04"/>
</g>
<!-- rand -->
<g id="node39" class="node">
<title>rand</title>
<polygon fill="none" stroke="black" points="1028.62,-1137 974.62,-1137 974.62,-1101 1028.62,-1101 1028.62,-1137"/>
<text text-anchor="middle" x="1001.62" y="-1114.7" font-family="sans-serif" font-size="14.00">rand</text>
</g>
<!-- hash&#45;&gt;rand -->
<g id="edge40" class="edge">
<title>hash&#45;&gt;rand</title>
<path fill="none" stroke="black" d="M887.57,-1119C908.86,-1119 939.19,-1119 963.07,-1119"/>
<polygon fill="black" stroke="black" points="963.04,-1122.5 973.04,-1119 963.04,-1115.5 963.04,-1122.5"/>
</g>
<!-- haskell -->
<g id="node16" class="node">
<title>haskell</title>
<polygon fill="none" stroke="black" points="610.62,-56 548.12,-56 548.12,-20 610.62,-20 610.62,-56"/>
<text text-anchor="middle" x="579.38" y="-33.7" font-family="sans-serif" font-size="14.00">haskell</text>
</g>
<!-- haskell&#45;&gt;hol&#45;eval -->
<g id="edge41" class="edge">
<title>haskell&#45;&gt;hol&#45;eval</title>
<path fill="none" stroke="black" d="M611.03,-46.79C660.27,-60.91 757.21,-88.71 814.33,-105.08"/>
<polygon fill="black" stroke="black" points="813.16,-108.39 823.74,-107.78 815.09,-101.66 813.16,-108.39"/>
</g>
<!-- haskell&#45;&gt;init -->
<g id="edge42" class="edge">
<title>haskell&#45;&gt;init</title>
<path fill="none" stroke="black" d="M586.46,-56.36C606.97,-118.21 673.66,-319.31 698.73,-394.91"/>
<polygon fill="black" stroke="black" points="695.3,-395.7 701.77,-404.09 701.95,-393.5 695.3,-395.7"/>
</g>
<!-- haskell&#45;&gt;types -->
<g id="edge43" class="edge">
<title>haskell&#45;&gt;types</title>
<path fill="none" stroke="black" d="M610.74,-31.12C661.8,-20.17 768.21,0 859.38,0 859.38,0 859.38,0 1218.25,0 1296.03,0 1327.07,-10.55 1379.5,-68 1422.33,-114.93 1435.58,-191.46 1439.67,-233.33"/>
<polygon fill="black" stroke="black" points="1436.17,-233.48 1440.51,-243.14 1443.15,-232.88 1436.17,-233.48"/>
</g>
<!-- hol&#45;&gt;core -->
<g id="edge44" class="edge">
<title>hol&#45;&gt;core</title>
<path fill="none" stroke="black" d="M887.57,-216.02C908.96,-220.94 939.47,-227.95 963.4,-233.45"/>
<polygon fill="black" stroke="black" points="962.55,-236.84 973.08,-235.67 964.11,-230.02 962.55,-236.84"/>
</g>
<!-- hol&#45;eval&#45;&gt;core -->
<g id="edge45" class="edge">
<title>hol&#45;eval&#45;&gt;core</title>
<path fill="none" stroke="black" d="M895.53,-129.71C906.95,-134.74 919.19,-141.46 928.75,-150 951.37,-170.22 945.58,-184.48 964.75,-208 966.9,-210.64 969.25,-213.28 971.68,-215.86"/>
<polygon fill="black" stroke="black" points="968.99,-218.11 978.53,-222.72 973.94,-213.17 968.99,-218.11"/>
</g>
<!-- hol&#45;eval&#45;&gt;pure -->
<g id="edge46" class="edge">
<title>hol&#45;eval&#45;&gt;pure</title>
<path fill="none" stroke="black" d="M895.8,-121.61C951.17,-127.99 1063.03,-143.29 1154.25,-171 1162.61,-173.54 1171.34,-176.88 1179.53,-180.35"/>
<polygon fill="black" stroke="black" points="1177.96,-183.48 1188.52,-184.31 1180.78,-177.07 1177.96,-183.48"/>
</g>
<!-- hol&#45;eval&#45;&gt;pure&#45;eval -->
<g id="edge47" class="edge">
<title>hol&#45;eval&#45;&gt;pure&#45;eval</title>
<path fill="none" stroke="black" d="M895.71,-134.4C922.97,-147.35 957.67,-163.63 964.75,-166 996.79,-176.74 1033.94,-184.74 1063.09,-190.05"/>
<polygon fill="black" stroke="black" points="1062.3,-193.47 1072.76,-191.76 1063.52,-186.57 1062.3,-193.47"/>
</g>
<!-- hol&#45;eval&#45;&gt;sexp -->
<g id="edge48" class="edge">
<title>hol&#45;eval&#45;&gt;sexp</title>
<path fill="none" stroke="black" d="M887.69,-136.3C902.26,-147.93 919.29,-164.29 928.75,-183 934.58,-194.53 983.05,-580.93 996.93,-692.26"/>
<polygon fill="black" stroke="black" points="993.44,-692.59 998.15,-702.08 1000.39,-691.73 993.44,-692.59"/>
</g>
<!-- hol&#45;eval&#45;&gt;types -->
<g id="edge49" class="edge">
<title>hol&#45;eval&#45;&gt;types</title>
<path fill="none" stroke="black" d="M895.61,-117.11C944.08,-115.93 1035.49,-114 1113.38,-114 1113.38,-114 1113.38,-114 1218.25,-114 1294.26,-114 1319.39,-124.47 1379.5,-171 1401.06,-187.69 1417.73,-214.05 1428.33,-234.29"/>
<polygon fill="black" stroke="black" points="1425.17,-235.78 1432.77,-243.16 1431.43,-232.65 1425.17,-235.78"/>
</g>
<!-- inductive -->
<g id="node19" class="node">
<title>inductive</title>
<polygon fill="none" stroke="black" points="898.75,-580 822,-580 822,-544 898.75,-544 898.75,-580"/>
<text text-anchor="middle" x="860.38" y="-557.7" font-family="sans-serif" font-size="14.00">inductive</text>
</g>
<!-- init&#45;&gt;core -->
<g id="edge50" class="edge">
<title>init&#45;&gt;core</title>
<path fill="none" stroke="black" d="M725.86,-405.56C734.83,-394.74 746.24,-380.74 756,-368 772.66,-346.26 770.07,-334.4 792,-318 843.58,-279.42 868.34,-292.36 928.75,-270 940.27,-265.74 952.75,-260.94 964.04,-256.53"/>
<polygon fill="black" stroke="black" points="964.98,-259.92 973.01,-253.01 962.42,-253.4 964.98,-259.92"/>
</g>
<!-- init&#45;&gt;grammar -->
<g id="edge51" class="edge">
<title>init&#45;&gt;grammar</title>
<path fill="none" stroke="black" d="M736.61,-421.92C777.64,-418.63 859.45,-411.87 928.75,-405 936.65,-404.22 945.03,-403.33 953.17,-402.45"/>
<polygon fill="black" stroke="black" points="953.39,-405.94 962.94,-401.37 952.62,-398.99 953.39,-405.94"/>
</g>
<!-- init&#45;&gt;hash -->
<g id="edge52" class="edge">
<title>init&#45;&gt;hash</title>
<path fill="none" stroke="black" d="M736.63,-434.47C744.12,-438.77 751.48,-444.53 756,-452 816.78,-552.42 762.01,-865.51 792,-979 802.88,-1020.16 825.95,-1063.78 842.05,-1091.19"/>
<polygon fill="black" stroke="black" points="838.92,-1092.78 847.06,-1099.56 844.93,-1089.18 838.92,-1092.78"/>
</g>
<!-- init&#45;&gt;hol -->
<g id="edge53" class="edge">
<title>init&#45;&gt;hol</title>
<path fill="none" stroke="black" d="M718.83,-405.83C732.35,-377.62 760.55,-322.15 792,-280 803.58,-264.47 818.33,-248.79 831.08,-236.22"/>
<polygon fill="black" stroke="black" points="833.28,-238.96 838.02,-229.49 828.4,-233.93 833.28,-238.96"/>
</g>
<!-- init&#45;&gt;hol&#45;eval -->
<g id="edge54" class="edge">
<title>init&#45;&gt;hol&#45;eval</title>
<path fill="none" stroke="black" d="M713.48,-405.79C721.25,-363.79 744.46,-257.99 792,-183 801.17,-168.53 814.22,-154.95 826.39,-143.99"/>
<polygon fill="black" stroke="black" points="828.62,-146.68 833.88,-137.49 824.03,-141.4 828.62,-146.68"/>
</g>
<!-- init&#45;&gt;inductive -->
<g id="edge55" class="edge">
<title>init&#45;&gt;inductive</title>
<path fill="none" stroke="black" d="M736.61,-436.37C743.57,-440.58 750.64,-445.82 756,-452 782.36,-482.37 763.17,-506.97 792,-535 797.52,-540.37 804.25,-544.72 811.29,-548.22"/>
<polygon fill="black" stroke="black" points="809.78,-551.38 820.35,-552.17 812.58,-544.96 809.78,-551.38"/>
</g>
<!-- metamath -->
<g id="node27" class="node">
<title>metamath</title>
<polygon fill="none" stroke="black" points="900.62,-786 820.12,-786 820.12,-750 900.62,-750 900.62,-786"/>
<text text-anchor="middle" x="860.38" y="-763.7" font-family="sans-serif" font-size="14.00">metamath</text>
</g>
<!-- init&#45;&gt;metamath -->
<g id="edge56" class="edge">
<title>init&#45;&gt;metamath</title>
<path fill="none" stroke="black" d="M736.49,-435.15C743.79,-439.43 751.07,-445.01 756,-452 800.53,-515.1 767.67,-548.7 792,-622 806.04,-664.29 828.76,-710.6 843.88,-739.48"/>
<polygon fill="black" stroke="black" points="840.79,-741.11 848.56,-748.31 846.97,-737.83 840.79,-741.11"/>
</g>
<!-- init&#45;&gt;sexp -->
<g id="edge57" class="edge">
<title>init&#45;&gt;sexp</title>
<path fill="none" stroke="black" d="M736.76,-435.58C743.89,-439.83 751.01,-445.28 756,-452 793.53,-502.55 747.04,-544.93 792,-589 836.65,-632.76 876.87,-587.1 928.75,-622 955.24,-639.82 975.29,-670.89 987.39,-693.67"/>
<polygon fill="black" stroke="black" points="984.2,-695.12 991.85,-702.44 990.44,-691.94 984.2,-695.12"/>
</g>
<!-- spectec -->
<g id="node46" class="node">
<title>spectec</title>
<polygon fill="none" stroke="black" points="895,-396 825.75,-396 825.75,-360 895,-360 895,-396"/>
<text text-anchor="middle" x="860.38" y="-373.7" font-family="sans-serif" font-size="14.00">spectec</text>
</g>
<!-- init&#45;&gt;spectec -->
<g id="edge58" class="edge">
<title>init&#45;&gt;spectec</title>
<path fill="none" stroke="black" d="M736.67,-415.88C758.21,-409.23 789.18,-399.67 814.61,-391.82"/>
<polygon fill="black" stroke="black" points="815.52,-395.2 824.04,-388.91 813.46,-388.51 815.52,-395.2"/>
</g>
<!-- init&#45;&gt;types -->
<g id="edge59" class="edge">
<title>init&#45;&gt;types</title>
<path fill="none" stroke="black" d="M724.71,-405.69C739.51,-388.3 764.28,-363.06 792,-351 877.38,-313.87 907.52,-332 1000.62,-332 1000.62,-332 1000.62,-332 1218.25,-332 1286.5,-332 1361.47,-302.2 1404.84,-281.77"/>
<polygon fill="black" stroke="black" points="1406.31,-284.94 1413.8,-277.45 1403.27,-278.64 1406.31,-284.94"/>
</g>
<!-- json -->
<g id="node21" class="node">
<title>json</title>
<polygon fill="none" stroke="black" points="887.38,-1442 833.38,-1442 833.38,-1406 887.38,-1406 887.38,-1442"/>
<text text-anchor="middle" x="860.38" y="-1419.7" font-family="sans-serif" font-size="14.00">json</text>
</g>
<!-- kernel -->
<g id="node22" class="node">
<title>kernel</title>
<polygon fill="none" stroke="black" points="608,-817 550.75,-817 550.75,-781 608,-781 608,-817"/>
<text text-anchor="middle" x="579.38" y="-794.7" font-family="sans-serif" font-size="14.00">kernel</text>
</g>
<!-- kernel&#45;&gt;hash -->
<g id="edge60" class="edge">
<title>kernel&#45;&gt;hash</title>
<path fill="none" stroke="black" d="M608.18,-795.56C646.64,-792.46 715.87,-793.15 756,-831 805.24,-877.45 769.2,-915.26 792,-979 806.34,-1019.09 828.61,-1062.96 843.58,-1090.71"/>
<polygon fill="black" stroke="black" points="840.34,-1092.09 848.2,-1099.19 846.49,-1088.74 840.34,-1092.09"/>
</g>
<!-- kernel&#45;&gt;init -->
<g id="edge61" class="edge">
<title>kernel&#45;&gt;init</title>
<path fill="none" stroke="black" d="M582.85,-780.64C591.7,-716.93 623.44,-506.29 662.75,-452 665.43,-448.3 668.77,-444.98 672.41,-442.04"/>
<polygon fill="black" stroke="black" points="674.4,-444.92 680.64,-436.36 670.42,-439.16 674.4,-444.92"/>
</g>
<!-- kernel&#45;&gt;object -->
<g id="edge62" class="edge">
<title>kernel&#45;&gt;object</title>
<path fill="none" stroke="black" d="M592.19,-817.36C614.71,-852.39 663.93,-928.91 690.51,-970.22"/>
<polygon fill="black" stroke="black" points="687.42,-971.89 695.77,-978.41 693.31,-968.1 687.42,-971.89"/>
</g>
<!-- kernel&#45;&gt;sexp -->
<g id="edge63" class="edge">
<title>kernel&#45;&gt;sexp</title>
<path fill="none" stroke="black" d="M596.56,-780.65C611.82,-764.85 636.25,-743.2 662.75,-734 701.9,-720.41 722.6,-709.46 756,-734 799.16,-765.71 748.84,-817.29 792,-849 840.98,-884.99 876.25,-879.61 928.75,-849 964.65,-828.07 984.06,-781.81 993.36,-751.28"/>
<polygon fill="black" stroke="black" points="996.66,-752.47 996.03,-741.9 989.93,-750.56 996.66,-752.47"/>
</g>
<!-- kernel&#45;&gt;store -->
<g id="edge64" class="edge">
<title>kernel&#45;&gt;store</title>
<path fill="none" stroke="black" d="M584.86,-817.41C603.84,-895.44 677.78,-1199.27 701.21,-1295.56"/>
<polygon fill="black" stroke="black" points="697.81,-1296.38 703.57,-1305.27 704.61,-1294.72 697.81,-1296.38"/>
</g>
<!-- kv -->
<g id="node23" class="node">
<title>kv</title>
<polygon fill="none" stroke="black" points="226.12,-1847 172.12,-1847 172.12,-1811 226.12,-1811 226.12,-1847"/>
<text text-anchor="middle" x="199.12" y="-1824.7" font-family="sans-serif" font-size="14.00">kv</text>
</g>
<!-- lean -->
<g id="node24" class="node">
<title>lean</title>
<polygon fill="none" stroke="black" points="87.5,-1573 33.5,-1573 33.5,-1537 87.5,-1537 87.5,-1573"/>
<text text-anchor="middle" x="60.5" y="-1550.7" font-family="sans-serif" font-size="14.00">lean</text>
</g>
<!-- llm -->
<g id="node25" class="node">
<title>llm</title>
<polygon fill="none" stroke="black" points="226.12,-1119 172.12,-1119 172.12,-1083 226.12,-1083 226.12,-1119"/>
<text text-anchor="middle" x="199.12" y="-1096.7" font-family="sans-serif" font-size="14.00">llm</text>
</g>
<!-- llm&#45;&gt;proto -->
<g id="edge65" class="edge">
<title>llm&#45;&gt;proto</title>
<path fill="none" stroke="black" d="M226.52,-1088.41C243.65,-1080.24 266.22,-1069.48 285.08,-1060.48"/>
<polygon fill="black" stroke="black" points="286.52,-1063.68 294.04,-1056.21 283.51,-1057.36 286.52,-1063.68"/>
</g>
<!-- lsp&#45;&gt;sexp -->
<g id="edge66" class="edge">
<title>lsp&#45;&gt;sexp</title>
<path fill="none" stroke="black" d="M887.56,-814.33C900.57,-809.83 916.16,-803.38 928.75,-795 947.81,-782.32 965.88,-763.93 979.13,-748.78"/>
<polygon fill="black" stroke="black" points="981.55,-751.34 985.37,-741.46 976.22,-746.8 981.55,-751.34"/>
</g>
<!-- lsp&#45;&gt;wasm -->
<g id="edge67" class="edge">
<title>lsp&#45;&gt;wasm</title>
<path fill="none" stroke="black" d="M877.2,-840.29C893.14,-859.84 916.99,-892.44 928.75,-925 949.32,-981.97 987.76,-1407.25 998.04,-1524.27"/>
<polygon fill="black" stroke="black" points="994.53,-1524.34 998.89,-1534 1001.51,-1523.73 994.53,-1524.34"/>
</g>
<!-- metamath&#45;&gt;parse -->
<g id="edge68" class="edge">
<title>metamath&#45;&gt;parse</title>
<path fill="none" stroke="black" d="M901.11,-780.99C910.52,-784.85 920.28,-789.54 928.75,-795 995.43,-838 1058.97,-907.2 1091.27,-945.08"/>
<polygon fill="black" stroke="black" points="1088.32,-947.01 1097.44,-952.4 1093.67,-942.5 1088.32,-947.01"/>
</g>
<!-- metamath&#45;&gt;sexp -->
<g id="edge69" class="edge">
<title>metamath&#45;&gt;sexp</title>
<path fill="none" stroke="black" d="M900.91,-754.94C920.53,-748.46 944.11,-740.67 963.41,-734.29"/>
<polygon fill="black" stroke="black" points="964.38,-737.66 972.78,-731.2 962.19,-731.01 964.38,-737.66"/>
</g>
<!-- multiformat -->
<g id="node28" class="node">
<title>multiformat</title>
<polygon fill="none" stroke="black" points="754.5,-1717 664.25,-1717 664.25,-1681 754.5,-1681 754.5,-1717"/>
<text text-anchor="middle" x="709.38" y="-1694.7" font-family="sans-serif" font-size="14.00">multiformat</text>
</g>
<!-- multiformat&#45;&gt;acset -->
<g id="edge70" class="edge">
<title>multiformat&#45;&gt;acset</title>
<path fill="none" stroke="black" d="M754.68,-1699C776.05,-1699 801.41,-1699 821.81,-1699"/>
<polygon fill="black" stroke="black" points="821.68,-1702.5 831.68,-1699 821.68,-1695.5 821.68,-1702.5"/>
</g>
<!-- multiformat&#45;&gt;hash -->
<g id="edge71" class="edge">
<title>multiformat&#45;&gt;hash</title>
<path fill="none" stroke="black" d="M717.43,-1680.58C727.39,-1653.91 745.53,-1602.85 756,-1558 781.03,-1450.83 765.83,-1419.9 792,-1313 806.67,-1253.06 832.31,-1185.48 847.37,-1148"/>
<polygon fill="black" stroke="black" points="850.6,-1149.36 851.11,-1138.78 844.11,-1146.73 850.6,-1149.36"/>
</g>
<!-- multiformat&#45;&gt;parse -->
<g id="edge72" class="edge">
<title>multiformat&#45;&gt;parse</title>
<path fill="none" stroke="black" d="M752.14,-1717.45C797.91,-1734.74 872.31,-1754.06 928.75,-1726 1001.12,-1690.01 1008.14,-1655.9 1038.5,-1581 1082.05,-1473.57 1105.67,-1108.66 1111.77,-1001.7"/>
<polygon fill="black" stroke="black" points="1115.26,-1001.93 1112.33,-991.75 1108.27,-1001.54 1115.26,-1001.93"/>
</g>
<!-- object&#45;&gt;hash -->
<g id="edge73" class="edge">
<title>object&#45;&gt;hash</title>
<path fill="none" stroke="black" d="M733,-1016.38C758.42,-1037.02 799.83,-1070.65 828.28,-1093.75"/>
<polygon fill="black" stroke="black" points="825.88,-1096.31 835.85,-1099.89 830.29,-1090.87 825.88,-1096.31"/>
</g>
<!-- object&#45;&gt;parse -->
<g id="edge74" class="edge">
<title>object&#45;&gt;parse</title>
<path fill="none" stroke="black" d="M738.47,-996.23C795.18,-992.65 927.43,-984.26 1038.5,-977 1050.59,-976.21 1063.78,-975.33 1075.67,-974.54"/>
<polygon fill="black" stroke="black" points="1075.79,-978.04 1085.53,-973.88 1075.32,-971.05 1075.79,-978.04"/>
</g>
<!-- opentheory&#45;&gt;hol -->
<g id="edge75" class="edge">
<title>opentheory&#45;&gt;hol</title>
<path fill="none" stroke="black" d="M368.5,-305.31C471.92,-285.23 726,-235.9 821.91,-217.27"/>
<polygon fill="black" stroke="black" points="822.43,-220.74 831.58,-215.4 821.09,-213.87 822.43,-220.74"/>
</g>
<!-- parquet -->
<g id="node31" class="node">
<title>parquet</title>
<polygon fill="none" stroke="black" points="483.62,-1297 416.62,-1297 416.62,-1261 483.62,-1261 483.62,-1297"/>
<text text-anchor="middle" x="450.12" y="-1274.7" font-family="sans-serif" font-size="14.00">parquet</text>
</g>
<!-- parquet&#45;&gt;arrow -->
<g id="edge76" class="edge">
<title>parquet&#45;&gt;arrow</title>
<path fill="none" stroke="black" d="M483.9,-1271.27C501.38,-1267.15 522.96,-1262.07 541.08,-1257.79"/>
<polygon fill="black" stroke="black" points="541.72,-1261.24 550.65,-1255.54 540.11,-1254.42 541.72,-1261.24"/>
</g>
<!-- proptest -->
<g id="node33" class="node">
<title>proptest</title>
<polygon fill="none" stroke="black" points="95.88,-1627 25.12,-1627 25.12,-1591 95.88,-1591 95.88,-1627"/>
<text text-anchor="middle" x="60.5" y="-1604.7" font-family="sans-serif" font-size="14.00">proptest</text>
</g>
<!-- pure&#45;trusted -->
<g id="node37" class="node">
<title>pure&#45;trusted</title>
<polygon fill="#ffd6d6" stroke="black" points="1379.5,-216 1280.25,-216 1280.25,-180 1379.5,-180 1379.5,-216"/>
<text text-anchor="middle" x="1329.88" y="-193.7" font-family="sans-serif" font-size="14.00">pure&#45;trusted</text>
</g>
<!-- pure&#45;&gt;pure&#45;trusted -->
<g id="edge77" class="edge">
<title>pure&#45;&gt;pure&#45;trusted</title>
<path fill="none" stroke="black" d="M1244.75,-198C1252.04,-198 1260.27,-198 1268.64,-198"/>
<polygon fill="black" stroke="black" points="1268.57,-201.5 1278.57,-198 1268.57,-194.5 1268.57,-201.5"/>
</g>
<!-- pure&#45;eval&#45;&gt;pure -->
<g id="edge78" class="edge">
<title>pure&#45;eval&#45;&gt;pure</title>
<path fill="none" stroke="black" d="M1154.66,-198C1162.53,-198 1170.77,-198 1178.57,-198"/>
<polygon fill="black" stroke="black" points="1178.47,-201.5 1188.47,-198 1178.47,-194.5 1178.47,-201.5"/>
</g>
<!-- pure&#45;eval&#45;&gt;types -->
<g id="edge79" class="edge">
<title>pure&#45;eval&#45;&gt;types</title>
<path fill="none" stroke="black" d="M1154.56,-213.76C1165.93,-217.89 1178.46,-222.01 1190.25,-225 1264.72,-243.86 1354.14,-254.65 1403.7,-259.62"/>
<polygon fill="black" stroke="black" points="1403.32,-263.09 1413.62,-260.58 1404,-256.13 1403.32,-263.09"/>
</g>
<!-- pure&#45;trusted&#45;&gt;types -->
<g id="edge80" class="edge">
<title>pure&#45;trusted&#45;&gt;types</title>
<path fill="none" stroke="black" d="M1362.28,-216.45C1375.75,-224.37 1391.56,-233.65 1405.49,-241.84"/>
<polygon fill="black" stroke="black" points="1403.55,-244.76 1413.95,-246.81 1407.1,-238.73 1403.55,-244.76"/>
</g>
<!-- python -->
<g id="node38" class="node">
<title>python</title>
<polygon fill="none" stroke="black" points="91.38,-1465 29.62,-1465 29.62,-1429 91.38,-1429 91.38,-1465"/>
<text text-anchor="middle" x="60.5" y="-1442.7" font-family="sans-serif" font-size="14.00">python</text>
</g>
<!-- python&#45;&gt;crypto&#45;sig -->
<g id="edge81" class="edge">
<title>python&#45;&gt;crypto&#45;sig</title>
<path fill="none" stroke="black" d="M91.65,-1453.86C102.62,-1457.9 114.02,-1464.21 121,-1474 217.87,-1609.87 75.42,-1705.71 158.42,-1854.84"/>
<polygon fill="black" stroke="black" points="155.38,-1856.58 163.45,-1863.44 161.42,-1853.04 155.38,-1856.58"/>
</g>
<!-- python&#45;&gt;git -->
<g id="edge82" class="edge">
<title>python&#45;&gt;git</title>
<path fill="none" stroke="black" d="M91.59,-1438.15C161.56,-1417.57 335.01,-1366.56 411.67,-1344.01"/>
<polygon fill="black" stroke="black" points="412.63,-1347.38 421.23,-1341.2 410.65,-1340.67 412.63,-1347.38"/>
</g>
<!-- python&#45;&gt;graph -->
<g id="edge83" class="edge">
<title>python&#45;&gt;graph</title>
<path fill="none" stroke="black" d="M91.69,-1455.31C102.13,-1459.47 113.17,-1465.48 121,-1474 153.26,-1509.08 122.7,-1541.92 157,-1575 227.01,-1642.51 350.03,-1648.81 411.69,-1647.25"/>
<polygon fill="black" stroke="black" points="411.43,-1650.76 421.3,-1646.92 411.18,-1643.77 411.43,-1650.76"/>
</g>
<!-- python&#45;&gt;hash -->
<g id="edge84" class="edge">
<title>python&#45;&gt;hash</title>
<path fill="none" stroke="black" d="M91.69,-1460.54C117.07,-1471.82 150.26,-1486.32 157,-1488 359.58,-1538.49 451.42,-1602.35 626.75,-1489 654.81,-1470.86 640.98,-1448.35 662.75,-1423 696.69,-1383.49 723.7,-1392.87 756,-1352 806.72,-1287.83 838.09,-1194.86 851.61,-1148.13"/>
<polygon fill="black" stroke="black" points="854.91,-1149.32 854.25,-1138.75 848.17,-1147.42 854.91,-1149.32"/>
</g>
<!-- python&#45;&gt;kv -->
<g id="edge85" class="edge">
<title>python&#45;&gt;kv</title>
<path fill="none" stroke="black" d="M91.57,-1453.92C102.52,-1457.97 113.94,-1464.27 121,-1474 205.85,-1590.89 86.45,-1670.96 157,-1797 158.81,-1800.24 161.1,-1803.26 163.66,-1806.05"/>
<polygon fill="black" stroke="black" points="161.14,-1808.49 170.86,-1812.69 165.89,-1803.34 161.14,-1808.49"/>
</g>
<!-- python&#45;&gt;llm -->
<g id="edge86" class="edge">
<title>python&#45;&gt;llm</title>
<path fill="none" stroke="black" d="M66.45,-1428.76C78.93,-1383.83 113.78,-1264.7 157,-1171 163.61,-1156.66 172.32,-1141.46 180.01,-1128.91"/>
<polygon fill="black" stroke="black" points="182.78,-1131.09 185.11,-1120.75 176.84,-1127.38 182.78,-1131.09"/>
</g>
<!-- python&#45;&gt;object -->
<g id="edge87" class="edge">
<title>python&#45;&gt;object</title>
<path fill="none" stroke="black" d="M68.98,-1428.7C83.06,-1395.52 115.85,-1324.15 157,-1273 246.66,-1161.56 281.51,-1140.44 404.25,-1067 457.3,-1035.26 472,-1026.87 532,-1012 578.07,-1000.58 632.79,-997.85 668.93,-997.47"/>
<polygon fill="black" stroke="black" points="668.93,-1000.97 678.92,-997.43 668.9,-993.97 668.93,-1000.97"/>
</g>
<!-- python&#45;&gt;repl -->
<g id="edge88" class="edge">
<title>python&#45;&gt;repl</title>
<path fill="none" stroke="black" d="M80.22,-1428.88C125.59,-1384.94 241.62,-1272.59 294.61,-1221.28"/>
<polygon fill="black" stroke="black" points="297.02,-1223.82 301.77,-1214.35 292.15,-1218.79 297.02,-1223.82"/>
</g>
<!-- sat -->
<g id="node41" class="node">
<title>sat</title>
<polygon fill="none" stroke="black" points="887.38,-970 833.38,-970 833.38,-934 887.38,-934 887.38,-970"/>
<text text-anchor="middle" x="860.38" y="-947.7" font-family="sans-serif" font-size="14.00">sat</text>
</g>
<!-- python&#45;&gt;sat -->
<g id="edge89" class="edge">
<title>python&#45;&gt;sat</title>
<path fill="none" stroke="black" d="M62.4,-1428.79C67.26,-1336.23 92.52,-917.94 157,-808 191.18,-749.72 221.11,-752.59 277.25,-715 331.35,-678.78 341.35,-658.79 404.25,-642 443.65,-631.48 455.81,-635.1 496,-642 526.2,-647.19 734.73,-711.94 756,-734 793.17,-772.56 769.12,-800.57 792,-849 804.78,-876.06 823.75,-904.35 838.31,-924.42"/>
<polygon fill="black" stroke="black" points="835.4,-926.37 844.15,-932.35 841.04,-922.22 835.4,-926.37"/>
</g>
<!-- python&#45;&gt;serve -->
<g id="edge90" class="edge">
<title>python&#45;&gt;serve</title>
<path fill="none" stroke="black" d="M65.64,-1428.61C78.05,-1374.1 116.54,-1208.77 157,-1074 166.33,-1042.91 178.68,-1007.86 187.4,-983.89"/>
<polygon fill="black" stroke="black" points="190.56,-985.41 190.72,-974.82 183.99,-983 190.56,-985.41"/>
</g>
<!-- python&#45;&gt;sexp -->
<g id="edge91" class="edge">
<title>python&#45;&gt;sexp</title>
<path fill="none" stroke="black" d="M63.51,-1428.76C75.53,-1320.18 138.02,-762.78 157,-732 219.75,-630.23 285.21,-637.15 404.25,-626 444.85,-622.2 455.24,-624.91 496,-626 554.17,-627.56 569.5,-622.56 626.75,-633 686.04,-643.81 701.17,-648.99 756,-674 773.06,-681.78 774.3,-689.81 792,-696 849.32,-716.04 920.24,-721.01 962.88,-722.04"/>
<polygon fill="black" stroke="black" points="962.55,-725.53 972.61,-722.21 962.67,-718.53 962.55,-725.53"/>
</g>
<!-- python&#45;&gt;shell -->
<g id="edge92" class="edge">
<title>python&#45;&gt;shell</title>
<path fill="none" stroke="black" d="M61.03,-1428.73C60,-1359.09 63.23,-1105.38 157,-928 228,-793.7 279.65,-778.9 404.25,-692 406.94,-690.12 409.81,-688.3 412.74,-686.56"/>
<polygon fill="black" stroke="black" points="414.43,-689.63 421.48,-681.72 411.04,-683.5 414.43,-689.63"/>
</g>
<!-- python&#45;&gt;store -->
<g id="edge93" class="edge">
<title>python&#45;&gt;store</title>
<path fill="none" stroke="black" d="M91.74,-1454.33C140.04,-1465.37 237.73,-1485 321.75,-1485 321.75,-1485 321.75,-1485 451.12,-1485 529.91,-1485 561.89,-1505.72 626.75,-1461 654.26,-1442.03 645.61,-1423.68 662.75,-1395 671.14,-1380.95 681,-1365.68 689.4,-1353.01"/>
<polygon fill="black" stroke="black" points="692.29,-1354.99 694.93,-1344.73 686.47,-1351.1 692.29,-1354.99"/>
</g>
<!-- python&#45;&gt;wasm -->
<g id="edge94" class="edge">
<title>python&#45;&gt;wasm</title>
<path fill="none" stroke="black" d="M91.71,-1454.52C102.41,-1458.62 113.62,-1464.8 121,-1474 169.6,-1534.58 117.04,-1578.41 157,-1645 206.15,-1726.9 226.23,-1783 321.75,-1783 321.75,-1783 321.75,-1783 710.38,-1783 810.68,-1783 853.02,-1791.77 928.75,-1726 971.51,-1688.87 989.39,-1622.14 996.43,-1583.62"/>
<polygon fill="black" stroke="black" points="999.86,-1584.34 998.07,-1573.9 992.96,-1583.18 999.86,-1584.34"/>
</g>
<!-- wasm&#45;store -->
<g id="node53" class="node">
<title>wasm&#45;store</title>
<polygon fill="none" stroke="black" points="626.75,-1625 532,-1625 532,-1589 626.75,-1589 626.75,-1625"/>
<text text-anchor="middle" x="579.38" y="-1602.7" font-family="sans-serif" font-size="14.00">wasm&#45;store</text>
</g>
<!-- python&#45;&gt;wasm&#45;store -->
<g id="edge95" class="edge">
<title>python&#45;&gt;wasm&#45;store</title>
<path fill="none" stroke="black" d="M91.81,-1454.81C102.39,-1458.93 113.49,-1465.05 121,-1474 162.3,-1523.21 113.35,-1566.86 157,-1614 195.36,-1655.43 222.28,-1642.08 277.25,-1655 372.18,-1677.31 403.87,-1703.97 496,-1672 518.36,-1664.24 539.25,-1647.61 554.39,-1633.12"/>
<polygon fill="black" stroke="black" points="556.5,-1635.96 561.11,-1626.42 551.56,-1631 556.5,-1635.96"/>
</g>
<!-- repl&#45;&gt;arrow -->
<g id="edge96" class="edge">
<title>repl&#45;&gt;arrow</title>
<path fill="none" stroke="black" d="M350.04,-1200.58C395.52,-1210.22 489,-1230.05 541.15,-1241.1"/>
<polygon fill="black" stroke="black" points="540.24,-1244.49 550.75,-1243.14 541.69,-1237.64 540.24,-1244.49"/>
</g>
<!-- repl&#45;&gt;forsp -->
<g id="edge97" class="edge">
<title>repl&#45;&gt;forsp</title>
<path fill="none" stroke="black" d="M331.7,-1176.75C341.81,-1152.74 359.07,-1109.02 368.25,-1070 383.53,-1005.07 355.14,-817.14 404.25,-772 477.64,-704.54 608.04,-730.54 671.56,-748.88"/>
<polygon fill="black" stroke="black" points="670.22,-752.13 680.8,-751.65 672.22,-745.43 670.22,-752.13"/>
</g>
<!-- repl&#45;&gt;git -->
<g id="edge98" class="edge">
<title>repl&#45;&gt;git</title>
<path fill="none" stroke="black" d="M347.52,-1213.47C354.73,-1219.8 362.31,-1227.25 368.25,-1235 389.77,-1263.08 380.15,-1280.09 404.25,-1306 407.08,-1309.04 410.33,-1311.86 413.76,-1314.43"/>
<polygon fill="black" stroke="black" points="411.57,-1317.18 421.83,-1319.83 415.46,-1311.36 411.57,-1317.18"/>
</g>
<!-- repl&#45;&gt;graph -->
<g id="edge99" class="edge">
<title>repl&#45;&gt;graph</title>
<path fill="none" stroke="black" d="M327,-1213.45C336.34,-1265.23 365.15,-1415.98 404.25,-1537 413.13,-1564.48 425.99,-1594.75 435.67,-1616.24"/>
<polygon fill="black" stroke="black" points="432.44,-1617.59 439.78,-1625.24 438.81,-1614.69 432.44,-1617.59"/>
</g>
<!-- repl&#45;&gt;hash -->
<g id="edge100" class="edge">
<title>repl&#45;&gt;hash</title>
<path fill="none" stroke="black" d="M349.95,-1191.28C437.33,-1178.88 719.05,-1138.91 821.6,-1124.36"/>
<polygon fill="black" stroke="black" points="822.01,-1127.84 831.41,-1122.97 821.02,-1120.91 822.01,-1127.84"/>
</g>
<!-- repl&#45;&gt;init -->
<g id="edge101" class="edge">
<title>repl&#45;&gt;init</title>
<path fill="none" stroke="black" d="M331.79,-1176.77C342,-1152.79 359.36,-1109.08 368.25,-1070 385.15,-995.7 357.21,-788.95 404.25,-729 431,-694.91 461.72,-722.51 496,-696 599.9,-615.65 567.62,-542.57 662.75,-452 665.75,-449.14 669.1,-446.43 672.57,-443.9"/>
<polygon fill="black" stroke="black" points="674.29,-446.95 680.66,-438.49 670.4,-441.13 674.29,-446.95"/>
</g>
<!-- repl&#45;&gt;object -->
<g id="edge102" class="edge">
<title>repl&#45;&gt;object</title>
<path fill="none" stroke="black" d="M347.68,-1176.71C393.69,-1141.8 493.37,-1067.49 532,-1049 576.88,-1027.52 632.61,-1013.27 669.27,-1005.42"/>
<polygon fill="black" stroke="black" points="669.9,-1008.87 678.98,-1003.41 668.48,-1002.01 669.9,-1008.87"/>
</g>
<!-- repl&#45;&gt;parquet -->
<g id="edge103" class="edge">
<title>repl&#45;&gt;parquet</title>
<path fill="none" stroke="black" d="M350.03,-1212.61C368.05,-1224.68 392.21,-1240.87 412.16,-1254.24"/>
<polygon fill="black" stroke="black" points="410.06,-1257.04 420.32,-1259.7 413.96,-1251.23 410.06,-1257.04"/>
</g>
<!-- repl&#45;&gt;shell -->
<g id="edge104" class="edge">
<title>repl&#45;&gt;shell</title>
<path fill="none" stroke="black" d="M331.83,-1176.78C342.1,-1152.81 359.52,-1109.12 368.25,-1070 386.2,-989.59 363.01,-772.32 404.25,-701 406.8,-696.59 410.22,-692.64 414.05,-689.13"/>
<polygon fill="black" stroke="black" points="416,-692.05 421.71,-683.12 411.68,-686.55 416,-692.05"/>
</g>
<!-- repl&#45;&gt;wasm -->
<g id="edge105" class="edge">
<title>repl&#45;&gt;wasm</title>
<path fill="none" stroke="black" d="M325.7,-1213.19C334.28,-1283.04 375.51,-1535.03 532,-1634 592.18,-1672.06 727.44,-1669.62 928.75,-1599 930.9,-1598.24 947.84,-1587.66 964.73,-1576.94"/>
<polygon fill="black" stroke="black" points="966.18,-1580.17 972.74,-1571.85 962.42,-1574.26 966.18,-1580.17"/>
</g>
<!-- sat&#45;&gt;parse -->
<g id="edge106" class="edge">
<title>sat&#45;&gt;parse</title>
<path fill="none" stroke="black" d="M887.87,-954.1C932.89,-957.68 1024.43,-964.94 1075.97,-969.03"/>
<polygon fill="black" stroke="black" points="1075.48,-972.5 1085.73,-969.81 1076.04,-965.53 1075.48,-972.5"/>
</g>
<!-- sat&#45;&gt;types -->
<g id="edge107" class="edge">
<title>sat&#45;&gt;types</title>
<path fill="none" stroke="black" d="M887.87,-943C933.4,-928.36 1029.68,-901 1113.38,-901 1113.38,-901 1113.38,-901 1218.25,-901 1348.85,-901 1421.12,-418.67 1437.76,-292.77"/>
<polygon fill="black" stroke="black" points="1441.22,-293.27 1439.04,-282.91 1434.28,-292.37 1441.22,-293.27"/>
</g>
<!-- sat&#45;&gt;wasm -->
<g id="edge108" class="edge">
<title>sat&#45;&gt;wasm</title>
<path fill="none" stroke="black" d="M872.36,-970.3C887.49,-996.38 914.5,-1046.15 928.75,-1092 977.95,-1250.23 994.39,-1449.88 999.03,-1524.28"/>
<polygon fill="black" stroke="black" points="995.52,-1524.23 999.61,-1534 1002.51,-1523.81 995.52,-1524.23"/>
</g>
<!-- serve&#45;&gt;core -->
<g id="edge109" class="edge">
<title>serve&#45;&gt;core</title>
<path fill="none" stroke="black" d="M199.94,-936.89C200.09,-878.66 206.43,-692.47 277.25,-562 352.49,-423.4 403.64,-406.61 532,-315 637.48,-239.71 665.96,-213.16 792,-183 851.11,-168.85 871.53,-162.52 928.75,-183 947.2,-189.6 964.32,-203.21 977.22,-215.7"/>
<polygon fill="black" stroke="black" points="974.48,-217.91 983.99,-222.58 979.47,-213 974.48,-217.91"/>
</g>
<!-- serve&#45;&gt;git -->
<g id="edge110" class="edge">
<title>serve&#45;&gt;git</title>
<path fill="none" stroke="black" d="M207.08,-973.38C215.73,-996.61 230.66,-1037.93 241.25,-1074 260.33,-1138.95 238.08,-1166.79 277.25,-1222 305.14,-1261.31 328.23,-1254.14 368.25,-1281 384.42,-1291.86 387.9,-1295.42 404.25,-1306 407.13,-1307.87 410.14,-1309.77 413.18,-1311.66"/>
<polygon fill="black" stroke="black" points="411.2,-1314.55 421.55,-1316.79 414.86,-1308.58 411.2,-1314.55"/>
</g>
<!-- serve&#45;&gt;hash -->
<g id="edge111" class="edge">
<title>serve&#45;&gt;hash</title>
<path fill="none" stroke="black" d="M226.37,-947.88C310.06,-926.71 575.69,-871.62 756,-971 803.18,-997.01 833.61,-1054.82 848.51,-1089.99"/>
<polygon fill="black" stroke="black" points="845.23,-1091.21 852.23,-1099.15 851.71,-1088.57 845.23,-1091.21"/>
</g>
<!-- serve&#45;&gt;init -->
<g id="edge112" class="edge">
<title>serve&#45;&gt;init</title>
<path fill="none" stroke="black" d="M203.12,-936.63C214.94,-870.38 264.72,-641.93 404.25,-533 486.49,-468.8 609.78,-440.35 671.05,-429.59"/>
<polygon fill="black" stroke="black" points="671.33,-433.09 680.6,-427.98 670.16,-426.19 671.33,-433.09"/>
</g>
<!-- serve&#45;&gt;metamath -->
<g id="edge113" class="edge">
<title>serve&#45;&gt;metamath</title>
<path fill="none" stroke="black" d="M204.96,-936.61C221.23,-879.06 280.09,-702.66 404.25,-642 496.27,-597.04 699.44,-691.03 756,-715 773.05,-722.23 775.62,-727.35 792,-736 797.72,-739.02 803.78,-742.08 809.82,-745.05"/>
<polygon fill="black" stroke="black" points="808.02,-748.07 818.55,-749.28 811.07,-741.77 808.02,-748.07"/>
</g>
<!-- serve&#45;&gt;object -->
<g id="edge114" class="edge">
<title>serve&#45;&gt;object</title>
<path fill="none" stroke="black" d="M226.2,-955.66C293.01,-957.57 475.75,-964.23 626.75,-983 640.68,-984.73 655.84,-987.32 669.26,-989.86"/>
<polygon fill="black" stroke="black" points="668.57,-993.29 679.06,-991.77 669.91,-986.42 668.57,-993.29"/>
</g>
<!-- serve&#45;&gt;proto -->
<g id="edge115" class="edge">
<title>serve&#45;&gt;proto</title>
<path fill="none" stroke="black" d="M225.46,-973.44C240.5,-984.38 259.95,-998.5 277.25,-1011 280.43,-1013.3 283.74,-1015.69 287.06,-1018.08"/>
<polygon fill="black" stroke="black" points="284.93,-1020.86 295.09,-1023.86 289.02,-1015.18 284.93,-1020.86"/>
</g>
<!-- serve&#45;&gt;repl -->
<g id="edge116" class="edge">
<title>serve&#45;&gt;repl</title>
<path fill="none" stroke="black" d="M209.47,-973.43C230.56,-1015.05 281.99,-1116.55 307.26,-1166.41"/>
<polygon fill="black" stroke="black" points="304.05,-1167.82 311.69,-1175.15 310.29,-1164.65 304.05,-1167.82"/>
</g>
<!-- serve&#45;&gt;shell -->
<g id="edge117" class="edge">
<title>serve&#45;&gt;shell</title>
<path fill="none" stroke="black" d="M209.97,-936.86C222.9,-914.44 247.49,-876.3 277.25,-852 311.9,-823.71 338.57,-842.47 368.25,-809 401.82,-771.15 374.17,-741.69 404.25,-701 407.07,-697.19 410.47,-693.66 414.13,-690.44"/>
<polygon fill="black" stroke="black" points="416.07,-693.36 421.79,-684.44 411.76,-687.85 416.07,-693.36"/>
</g>
<!-- serve&#45;&gt;store -->
<g id="edge118" class="edge">
<title>serve&#45;&gt;store</title>
<path fill="none" stroke="black" d="M207.39,-973.29C216.37,-996.43 231.62,-1037.66 241.25,-1074 263.49,-1157.92 231.17,-1192.42 277.25,-1266 314.52,-1325.52 337.56,-1338 404.25,-1360 496.95,-1390.57 613.18,-1359.26 671.46,-1339.13"/>
<polygon fill="black" stroke="black" points="672.3,-1342.54 680.55,-1335.9 669.96,-1335.95 672.3,-1342.54"/>
</g>
<!-- sexp&#45;&gt;parse -->
<g id="edge119" class="edge">
<title>sexp&#45;&gt;parse</title>
<path fill="none" stroke="black" d="M1010.77,-740.38C1029.85,-783.46 1077.57,-891.17 1100.58,-943.11"/>
<polygon fill="black" stroke="black" points="1097.36,-944.48 1104.61,-952.21 1103.76,-941.65 1097.36,-944.48"/>
</g>
<!-- shell&#45;&gt;hol -->
<g id="edge120" class="edge">
<title>shell&#45;&gt;hol</title>
<path fill="none" stroke="black" d="M454.7,-650.94C467.41,-587.54 510.75,-377.8 532,-356 604.28,-281.86 671.56,-351.93 756,-292 778.63,-275.94 770.67,-258.74 792,-241 800.89,-233.61 811.84,-227.59 822.3,-222.88"/>
<polygon fill="black" stroke="black" points="823.64,-226.12 831.52,-219.04 820.95,-219.66 823.64,-226.12"/>
</g>
<!-- shell&#45;&gt;kernel -->
<g id="edge121" class="edge">
<title>shell&#45;&gt;kernel</title>
<path fill="none" stroke="black" d="M463.81,-687.27C478.71,-707.98 504.86,-742.09 532,-767 534.9,-769.66 538.03,-772.27 541.25,-774.79"/>
<polygon fill="black" stroke="black" points="539.11,-777.56 549.23,-780.68 543.27,-771.93 539.11,-777.56"/>
</g>
<!-- smt&#45;&gt;sat -->
<g id="edge122" class="edge">
<title>smt&#45;&gt;sat</title>
<path fill="none" stroke="black" d="M714.03,-497.39C728,-567.5 778,-815.73 792,-849 803.61,-876.59 822.68,-904.83 837.58,-924.74"/>
<polygon fill="black" stroke="black" points="834.74,-926.78 843.59,-932.6 840.3,-922.53 834.74,-926.78"/>
</g>
<!-- smt&#45;&gt;sexp -->
<g id="edge123" class="edge">
<title>smt&#45;&gt;sexp</title>
<path fill="none" stroke="black" d="M736.52,-493.08C743.65,-497.96 750.83,-504 756,-511 786.82,-552.71 755.77,-584.89 792,-622 837,-668.09 871.67,-640.14 928.75,-670 943,-677.45 957.58,-687.47 969.85,-696.73"/>
<polygon fill="black" stroke="black" points="967.49,-699.33 977.54,-702.68 971.77,-693.79 967.49,-699.33"/>
</g>
<!-- smt&#45;&gt;types -->
<g id="edge124" class="edge">
<title>smt&#45;&gt;types</title>
<path fill="none" stroke="black" d="M736.76,-476.42C787.71,-471.66 903.2,-462 1000.62,-462 1000.62,-462 1000.62,-462 1218.25,-462 1319.71,-462 1396.35,-346.06 1426.95,-291.17"/>
<polygon fill="black" stroke="black" points="1429.86,-293.15 1431.56,-282.69 1423.71,-289.8 1429.86,-293.15"/>
</g>
<!-- spectec&#45;&gt;grammar -->
<g id="edge125" class="edge">
<title>spectec&#45;&gt;grammar</title>
<path fill="none" stroke="black" d="M895.44,-382.65C912.86,-385.02 934.33,-387.95 953.33,-390.55"/>
<polygon fill="black" stroke="black" points="952.6,-393.98 962.98,-391.86 953.54,-387.04 952.6,-393.98"/>
</g>
<!-- store&#45;&gt;hash -->
<g id="edge126" class="edge">
<title>store&#45;&gt;hash</title>
<path fill="none" stroke="black" d="M736.53,-1309.48C743.34,-1304.71 750.34,-1299.1 756,-1293 797.35,-1248.4 830.04,-1184.56 846.88,-1147.89"/>
<polygon fill="black" stroke="black" points="850.05,-1149.37 850.97,-1138.82 843.67,-1146.5 850.05,-1149.37"/>
</g>
<!-- store&#45;&gt;json -->
<g id="edge127" class="edge">
<title>store&#45;&gt;json</title>
<path fill="none" stroke="black" d="M736.67,-1342.47C760.85,-1358.54 796.91,-1382.5 823.69,-1400.29"/>
<polygon fill="black" stroke="black" points="821.57,-1403.08 831.83,-1405.7 825.44,-1397.25 821.57,-1403.08"/>
</g>
<!-- store&#45;&gt;sqlite -->
<g id="edge128" class="edge">
<title>store&#45;&gt;sqlite</title>
<path fill="none" stroke="black" d="M736.67,-1327.65C760.32,-1330.03 795.33,-1333.55 821.91,-1336.23"/>
<polygon fill="black" stroke="black" points="821.29,-1339.68 831.59,-1337.2 821.99,-1332.72 821.29,-1339.68"/>
</g>
<!-- wasm&#45;build&#45;guest -->
<g id="node51" class="node">
<title>wasm&#45;build&#45;guest</title>
<polygon fill="none" stroke="black" points="928.75,-1549 792,-1549 792,-1513 928.75,-1513 928.75,-1549"/>
<text text-anchor="middle" x="860.38" y="-1526.7" font-family="sans-serif" font-size="14.00">wasm&#45;build&#45;guest</text>
</g>
<!-- wasm&#45;build&#45;guest&#45;&gt;wasm -->
<g id="edge129" class="edge">
<title>wasm&#45;build&#45;guest&#45;&gt;wasm</title>
<path fill="none" stroke="black" d="M928.96,-1542.16C940.64,-1544.09 952.4,-1546.03 962.92,-1547.77"/>
<polygon fill="black" stroke="black" points="962.26,-1551.21 972.7,-1549.39 963.4,-1544.3 962.26,-1551.21"/>
</g>
<!-- wasm&#45;spec -->
<g id="node52" class="node">
<title>wasm&#45;spec</title>
<polygon fill="none" stroke="black" points="756,-1549 662.75,-1549 662.75,-1513 756,-1513 756,-1549"/>
<text text-anchor="middle" x="709.38" y="-1526.7" font-family="sans-serif" font-size="14.00">wasm&#45;spec</text>
</g>
<!-- wasm&#45;spec&#45;&gt;hash -->
<g id="edge130" class="edge">
<title>wasm&#45;spec&#45;&gt;hash</title>
<path fill="none" stroke="black" d="M724.81,-1512.68C734.87,-1499.1 747.88,-1479.77 756,-1461 782.87,-1398.86 772.87,-1377.94 792,-1313 809.48,-1253.64 834.23,-1185.61 848.35,-1147.94"/>
<polygon fill="black" stroke="black" points="851.59,-1149.27 851.84,-1138.68 845.04,-1146.81 851.59,-1149.27"/>
</g>
<!-- wasm&#45;spec&#45;&gt;wasm -->
<g id="edge131" class="edge">
<title>wasm&#45;spec&#45;&gt;wasm</title>
<path fill="none" stroke="black" d="M756.35,-1549.04C767.82,-1552.75 780.21,-1556.1 792,-1558 851.05,-1567.51 920.7,-1563.09 962.72,-1558.75"/>
<polygon fill="black" stroke="black" points="963,-1562.24 972.56,-1557.68 962.24,-1555.29 963,-1562.24"/>
</g>
<!-- wasm&#45;store&#45;&gt;json -->
<g id="edge132" class="edge">
<title>wasm&#45;store&#45;&gt;json</title>
<path fill="none" stroke="black" d="M611.59,-1588.68C617.05,-1584.62 622.37,-1580.01 626.75,-1575 650.03,-1548.36 636.72,-1527.96 662.75,-1504 675.06,-1492.67 768.83,-1457.16 822.31,-1437.48"/>
<polygon fill="black" stroke="black" points="823.46,-1440.78 831.65,-1434.05 821.05,-1434.21 823.46,-1440.78"/>
</g>
<!-- wasm&#45;store&#45;&gt;store -->
<g id="edge133" class="edge">
<title>wasm&#45;store&#45;&gt;store</title>
<path fill="none" stroke="black" d="M588.58,-1588.93C610.24,-1541.19 669.15,-1411.43 695.42,-1353.54"/>
<polygon fill="black" stroke="black" points="698.5,-1355.21 699.45,-1344.66 692.13,-1352.32 698.5,-1355.21"/>
</g>
<!-- wasm&#45;store&#45;&gt;wasm -->
<g id="edge134" class="edge">
<title>wasm&#45;store&#45;&gt;wasm</title>
<path fill="none" stroke="black" d="M626.98,-1605.57C694.18,-1602.86 821.95,-1595.31 928.75,-1575 940.12,-1572.84 952.28,-1569.64 963.31,-1566.38"/>
<polygon fill="black" stroke="black" points="964.32,-1569.74 972.85,-1563.46 962.26,-1563.04 964.32,-1569.74"/>
</g>
<!-- web&#45;kernel -->
<g id="node54" class="node">
<title>web&#45;kernel</title>
<polygon fill="none" stroke="black" points="496,-817 404.25,-817 404.25,-781 496,-781 496,-817"/>
<text text-anchor="middle" x="450.12" y="-794.7" font-family="sans-serif" font-size="14.00">web&#45;kernel</text>
</g>
<!-- web&#45;kernel&#45;&gt;kernel -->
<g id="edge135" class="edge">
<title>web&#45;kernel&#45;&gt;kernel</title>
<path fill="none" stroke="black" d="M496.35,-799C510.27,-799 525.48,-799 538.98,-799"/>
<polygon fill="black" stroke="black" points="538.81,-802.5 548.81,-799 538.81,-795.5 538.81,-802.5"/>
</g>
</g>
</svg>
